<?xml version="1.0" standalone="no"?>
<!DOCTYPE svg PUBLIC "-//W3C//DTD SVG 1.1//EN" "http://www.w3.org/Graphics/SVG/1.1/DTD/svg11.dtd" >
<svg>
<metadata>
Created by FontForge 20110222 at Wed Aug 27 12:34:03 2014
 By Orthosie Webhosting
Copyright (c) M. G. Abbas Malik, 2006. All rights reserved.
</metadata>
<defs>
<font id="FajerNooriNastalique" horiz-adv-x="0" >
  <font-face 
    font-family="Fajer Noori Nastalique"
    font-weight="400"
    font-stretch="normal"
    units-per-em="1000"
    panose-1="2 0 5 3 0 0 0 2 0 3"
    ascent="800"
    descent="-200"
    x-height="447"
    cap-height="662"
    bbox="-139 -791 3903 1658"
    underline-thickness="50"
    underline-position="-50"
    unicode-range="U+0006-FEFB"
  />
<missing-glyph horiz-adv-x="250" 
 />
    <glyph glyph-name="six.003" unicode="&#x627;" horiz-adv-x="31" arabic-form="final" 
d="M31 73q-8 26 -12 58t-3 142l2 180q-2 10 -2 20q0 21 10 49q9 23 18 47q1 10 11 27q6 0 11 -7q-19 -166 -8 -342q3 -58 21 -90z" />
    <glyph glyph-name="guilsinglright.001" unicode="&#x628;" horiz-adv-x="695" arabic-form="final" 
d="M678 140q-39 -59 -113 -89q-33 -13 -138 -37q-10 -1 -29 -4q-93 -12 -168 -12q-91 0 -159 18q-44 12 -52 54q-4 22 -4 46q0 43 15 112q3 7 8 8q7 3 11 -8v-46q0 -27 20 -39q52 -22 130 -27q32 -3 140 -2q191 1 299 49q38 17 63 70q10 6 14 5q2 -1 2 -14q-4 -18 -22 -55
q-2 -4 -17 -29zM321 -75l7 -1q13 -6 34.5 -23t31.5 -25q6 -6 5 -8q-18 -22 -56 -65q-9 -6 -14 -1q-38 20 -66 49q6 13 27 37.5t31 36.5z" />
    <glyph glyph-name="guilsinglright.010" unicode="&#x62a;" horiz-adv-x="695" arabic-form="final" 
d="M678 140q-39 -59 -113 -89q-33 -13 -138 -37q-10 -1 -29 -4q-93 -12 -168 -12q-91 0 -159 18q-44 12 -52 54q-4 22 -4 46q0 43 15 112q3 7 8 8q7 3 11 -8v-46q0 -27 20 -39q52 -22 130 -27q32 -3 140 -2q191 1 299 49q38 17 63 70q10 6 14 5q2 -1 2 -14q-4 -18 -22 -55
q-2 -4 -17 -29zM347 296h-3q-12 -15 -26 -32q-22 -25 -31 -32q-16 8 -37 25q-18 16 -36 31q-5 8 0 13q8 13 54 68q8 2 18 -7t13 -10q11 -8 32 -24q11 -9 25 -9q17 27 45 58q25 -18 78 -50q3 -7 -2 -12q-24 -38 -52 -73q-35 13 -78 54z" />
    <glyph glyph-name="guilsinglright.011" unicode="&#x62b;" horiz-adv-x="695" arabic-form="final" 
d="M678 140q-39 -59 -113 -89q-33 -13 -138 -37q-10 -1 -29 -4q-93 -12 -168 -12q-91 0 -159 18q-44 12 -52 54q-4 22 -4 46q0 43 15 112q3 7 8 8q7 3 11 -8v-46q0 -27 20 -39q52 -22 130 -27q32 -3 140 -2q191 1 299 49q38 17 63 70q10 6 14 5q2 -1 2 -14q-4 -18 -22 -55
q-2 -4 -17 -29zM351 259h-3q-12 -15 -26 -32q-22 -25 -31 -32q-16 8 -37 25q-18 16 -36 31q-5 8 0 13q8 13 54 68q8 2 18 -7t13 -10q11 -8 32 -24q11 -9 25 -9q17 27 45 58q25 -18 78 -50q3 -7 -2 -12q-24 -38 -52 -73q-35 13 -78 54zM329 463l7 -1q13 -6 34.5 -23t31.5 -25
q6 -6 5 -8q-18 -22 -56 -65q-9 -6 -14 -1q-38 20 -66 49q6 13 27 37.5t31 36.5z" />
    <glyph glyph-name="agrave.001" unicode="&#x62c;" horiz-adv-x="25" arabic-form="final" 
d="M76 569q11 4 34 9q38 8 130 8q20 0 22 -12q-5 -53 -58 -114q-79 -89 -86 -100q-59 -95 -59 -190q0 -67 34 -118q36 -54 119 -54q81 0 151 49q67 46 105 122q21 42 40 100q7 7 12 2q3 -2 -2 -33q-44 -199 -160 -299q-71 -62 -163 -62q-51 0 -93 23q-87 61 -87 197
q0 57 16 122q37 149 170 299q0 4 -4 5q-21 3 -43 3q-62 0 -126 -25q-8 0 -10 5q1 8 5 20q1 3 2 5zM236 240l7 -1q13 -6 34.5 -23t31.5 -25q6 -6 5 -8q-18 -22 -56 -65q-9 -6 -14 -1q-38 20 -66 49q6 13 27 37.5t31 36.5z" />
    <glyph glyph-name="b.001.fina" unicode="&#x62d;" horiz-adv-x="25" arabic-form="final" 
d="M76 569q11 4 34 9q38 8 130 8q20 0 22 -12q-5 -53 -58 -114q-79 -89 -86 -100q-59 -95 -59 -190q0 -67 34 -118q36 -54 119 -54q81 0 151 49q67 46 105 122q21 42 40 100q7 7 12 2q3 -2 -2 -33q-44 -199 -160 -299q-71 -62 -163 -62q-51 0 -93 23q-87 61 -87 197
q0 57 16 122q37 149 170 299q0 4 -4 5q-21 3 -43 3q-62 0 -126 -25q-8 0 -10 5q1 8 5 20q1 3 2 5z" />
    <glyph glyph-name="agrave.009" unicode="&#x62e;" horiz-adv-x="63" arabic-form="final" 
d="M114 569q11 4 34 9q38 8 130 8q20 0 22 -12q-5 -53 -58 -114q-79 -89 -86 -100q-59 -95 -59 -190q0 -67 34 -118q36 -54 119 -54q81 0 151 49q67 46 105 122q21 42 40 100q7 7 12 2q3 -2 -2 -33q-44 -199 -160 -299q-71 -62 -163 -62q-51 0 -93 23q-87 61 -87 197
q0 57 16 122q37 149 170 299q0 4 -4 5q-21 3 -43 3q-62 0 -126 -25q-8 0 -10 5q1 8 5 20q1 3 2 5zM55 729l7 -1q13 -6 34.5 -23t31.5 -25q7 -6 6 -9q-19 -21 -57 -64q-9 -6 -14 -1q-38 20 -66 49q6 13 27 37.5t31 36.5z" />
    <glyph glyph-name="adieresis.011" unicode="&#x62f;" horiz-adv-x="257" arabic-form="final" 
d="M257 166q0 11 1 22h-2q-12 -32 -24 -65q-14 -38 -30 -62q-9 -13 -37 -22q-53 -12 -157 -39q-8 0 -5 13q21 19 58 39q96 50 156 136q20 36 39 92q17 48 33 96q3 10 9 13q11 1 14 -7q1 -13 -4 -32q-8 -29 -8 -30q-7 -38 -7 -61q0 -33 12 -54z" />
    <glyph glyph-name="oslash" unicode="&#x630;" horiz-adv-x="257" arabic-form="final" 
d="M257 166q0 11 1 22h-2q-12 -32 -24 -65q-14 -38 -30 -62q-9 -13 -37 -22q-53 -12 -157 -39q-8 0 -5 13q21 19 58 39q96 50 156 136q20 36 39 92q17 48 33 96q3 10 9 13q11 1 14 -7q1 -13 -4 -32q-8 -29 -8 -30q-7 -38 -7 -61q0 -33 12 -54zM235 536h10q13 -6 34.5 -23
t33.5 -23q4 -8 3 -10q-18 -22 -56 -65q-9 -6 -14 -1q-38 20 -66 49q6 13 27 37.5t28 35.5z" />
    <glyph glyph-name="u.008" unicode="&#x631;" horiz-adv-x="344" arabic-form="final" 
d="M344 117q-28 -9 -44 -25q-36 -38 -87 -139q-48 -95 -97 -135q-89 -73 -155 -94q-16 -3 -12 6l3 5q187 132 247.5 259.5t74.5 147.5q31 47 70 71v-96z" />
    <glyph glyph-name="u.010" unicode="&#x632;" horiz-adv-x="344" arabic-form="final" 
d="M344 117q-28 -9 -44 -25q-36 -38 -87 -139q-48 -95 -97 -135q-89 -73 -155 -94q-16 -3 -12 6l3 5q187 132 247.5 259.5t74.5 147.5q31 47 70 71v-96zM190 327h10q13 -6 34.5 -23t33.5 -23q4 -8 3 -10q-18 -22 -56 -65q-9 -6 -14 -1q-38 20 -66 49q6 13 27 37.5t28 35.5z
" />
    <glyph glyph-name="otilde.004" unicode="&#x633;" horiz-adv-x="708" arabic-form="final" 
d="M708 466q-10 -3 -19 -3q-10 0 -20 3h-3q-14 -35 -54 -44l-20 2q-24 -43 -67 -45q-2 -2 -3 -27q-9 -199 -127 -354q-106 -132 -244 -121q-42 3 -77 34.5t-47 73t-12 88.5q0 85 53 228q6 16 23 42q12 10 9 -8q-14 -46 -28 -93q-15 -56 -15 -97q0 -56 28 -99q39 -47 116 -47
q36 0 76 11q82 22 141 99q57 73 67 160q7 60 -2 138q3 16 6.5 33t12.5 29q7 1 11 -10q0 -14 10 -15q36 -4 58 18q8 8 14 20.5t11 23.5q5 5 9 3q5 -8 -2 -29q7 -5 30 3q23 18 39 66q2 7 10 5q5 -7 3 -16t-4 -17q8 -4 17 -4v-51z" />
    <glyph glyph-name="otilde.005" unicode="&#x634;" horiz-adv-x="708" arabic-form="final" 
d="M708 466q-10 -3 -19 -3q-10 0 -20 3h-3q-14 -35 -54 -44l-20 2q-24 -43 -67 -45q-2 -2 -3 -27q-9 -199 -127 -354q-106 -132 -244 -121q-42 3 -77 34.5t-47 73t-12 88.5q0 85 53 228q6 16 23 42q12 10 9 -8q-14 -46 -28 -93q-15 -56 -15 -97q0 -56 28 -99q39 -47 116 -47
q36 0 76 11q82 22 141 99q57 73 67 160q7 60 -2 138q3 16 6.5 33t12.5 29q7 1 11 -10q0 -14 10 -15q36 -4 58 18q8 8 14 20.5t11 23.5q5 5 9 3q5 -8 -2 -29q7 -5 30 3q23 18 39 66q2 7 10 5q5 -7 3 -16t-4 -17q8 -4 17 -4v-51zM527 584h-3q-12 -15 -26 -32q-22 -25 -31 -32
q-16 8 -37 25q-18 16 -36 31q-5 8 0 13q8 13 54 68q8 2 18 -7t13 -10q11 -8 32 -24q11 -9 25 -9q17 27 45 58q25 -18 78 -50q3 -7 -2 -12q-24 -38 -52 -73q-35 13 -78 54zM505 788l7 -1q13 -6 34.5 -23t31.5 -25q6 -6 5 -8q-18 -22 -56 -65q-9 -6 -14 -1q-38 20 -66 49
q6 13 27 37.5t31 36.5z" />
    <glyph glyph-name="ugrave.004" unicode="&#x635;" horiz-adv-x="798" arabic-form="final" 
d="M798 393q-24 -14 -60 -15q-24 1 -49 8l-29 8q-50 -30 -132 -26l-1 -6q-17 -226 -161 -394q-94 -91 -193 -91q-48 0 -86 26t-55 71t-17 99q0 80 42 203q8 22 28 64q6 10 13 3q4 -8 -2 -26q-39 -115 -39 -172q0 -47 19 -84q35 -68 139 -62q137 7 222 136q55 83 55 224
q0 39 -4 83q1 8 14 58q2 2 4 2q3 0 7.5 -4.5t7.5 -5.5q41 -6 42 -6q20 17 73 94q41 60 88 75q49 6 68 -25q5 -15 5 -31q0 -37 -36 -103q-32 -48 -52 -65q11 -1 26 0q33 2 63 13v-51zM739 599q-43 5 -80 -38q-29 -37 -59 -74v-3l31 2q91 6 128 71q2 5 2 12q0 10 -8 22
q-6 6 -14 8z" />
    <glyph glyph-name="ugrave.005" unicode="&#x636;" horiz-adv-x="798" arabic-form="final" 
d="M798 393q-24 -14 -60 -15q-24 1 -49 8l-29 8q-50 -30 -132 -26l-1 -6q-17 -226 -161 -394q-94 -91 -193 -91q-48 0 -86 26t-55 71t-17 99q0 80 42 203q8 22 28 64q6 10 13 3q4 -8 -2 -26q-39 -115 -39 -172q0 -47 19 -84q35 -68 139 -62q137 7 222 136q55 83 55 224
q0 39 -4 83q1 8 14 58q2 2 4 2q3 0 7.5 -4.5t7.5 -5.5q41 -6 42 -6q20 17 73 94q41 60 88 75q49 6 68 -25q5 -15 5 -31q0 -37 -36 -103q-32 -48 -52 -65q11 -1 26 0q33 2 63 13v-51zM739 599q-43 5 -80 -38q-29 -37 -59 -74v-3l31 2q91 6 128 71q2 5 2 12q0 10 -8 22
q-6 6 -14 8zM559 764l7 -1q13 -6 34.5 -23t31.5 -25q6 -6 5 -8q-18 -22 -56 -65q-9 -6 -14 -1q-38 20 -66 49q6 13 27 37.5t31 36.5z" />
    <glyph glyph-name="o.025" unicode="&#x637;" horiz-adv-x="382" arabic-form="final" 
d="M382 37q-56 -17 -138 -17q-18 0 -36 1q-12 -1 -100 -6q-62 -4 -97 -15q-7 0 -10 7q-1 10 13 17l34 12q41 37 73 92q18 61 17 158q-2 135 0 159q21 58 48 121q2 4 8 6q8 0 8 -9q-1 -8 -2 -13t-2 -9q-7 -43 -8 -179q-1 -114 -24 -177q75 70 123 70q11 1 22 -2q36 -9 44 -42
q6 -38 -26 -80l-56 -70q62 1 109 30v-54zM101 49l105 26q90 32 92 87q-2 10 -13 21q-10 8 -31 8q-45 -10 -87 -56z" />
    <glyph glyph-name="o.026" unicode="&#x638;" horiz-adv-x="382" arabic-form="final" 
d="M382 37q-56 -17 -138 -17q-18 0 -36 1q-12 -1 -100 -6q-62 -4 -97 -15q-7 0 -10 7q-1 10 13 17l34 12q41 37 73 92q18 61 17 158q-2 135 0 159q21 58 48 121q2 4 8 6q8 0 8 -9q-1 -8 -2 -13t-2 -9q-7 -43 -8 -179q-1 -114 -24 -177q75 70 123 70q11 1 22 -2q36 -9 44 -42
q6 -38 -26 -80l-56 -70q62 1 109 30v-54zM101 49l105 26q90 32 92 87q-2 10 -13 21q-10 8 -31 8q-45 -10 -87 -56zM272 472l7 -1q13 -6 34.5 -23t31.5 -25q6 -6 5 -8q-18 -22 -56 -65q-9 -6 -14 -1q-38 20 -66 49q6 13 27 37.5t31 36.5z" />
    <glyph glyph-name="uacute.014" unicode="&#x639;" horiz-adv-x="363" arabic-form="final" 
d="M363 425q-24 -14 -60 -15q-57 4 -84 40h-3q-148 -118 -148 -280q0 -26 4 -52q6 -36 31 -67t60 -41q32 -9 65 -9q129 0 222 120q33 42 70 132q5 7 10 5q6 -1 4 -17q-34 -124 -108 -218q-86 -108 -198 -136q-23 -6 -45 -6q-75 0 -118 53q-50 61 -50 155q0 111 63 235
q56 110 121 169q-7 39 -72 56q-3 1 -20 -1q-13 -2 -18 6q-2 14 29 37q59 35 125 36q11 0 22 -2q38 -9 53 -32q4 -8 3 -18q0 -25 -40 -65l-26 -26q21 -23 77 -17q17 4 31 9v-51z" />
    <glyph glyph-name="uacute.016" unicode="&#x63a;" horiz-adv-x="363" arabic-form="final" 
d="M166 787l7 -1q13 -6 34.5 -23t31.5 -25q6 -6 5 -8q-18 -22 -56 -65q-9 -6 -14 -1q-38 20 -66 49q6 13 27 37.5t31 36.5zM363 425q-24 -14 -60 -15q-57 4 -84 40h-3q-148 -118 -148 -280q0 -26 4 -52q6 -36 31 -67t60 -41q32 -9 65 -9q129 0 222 120q33 42 70 132
q5 7 10 5q6 -1 4 -17q-34 -124 -108 -218q-86 -108 -198 -136q-23 -6 -45 -6q-75 0 -118 53q-50 61 -50 155q0 111 63 235q56 110 121 169q-7 39 -72 56q-3 1 -20 -1q-13 -2 -18 6q-2 14 29 37q59 35 125 36q11 0 22 -2q38 -9 53 -32q4 -8 3 -18q0 -25 -40 -65l-26 -26
q21 -23 77 -17q17 4 31 9v-51z" />
    <glyph glyph-name="p.009" unicode="&#x641;" horiz-adv-x="791" arabic-form="final" 
d="M791 113q-34 -18 -72 -21q-29 -2 -62 15h-5q-50 -42 -127 -64q-26 -8 -141 -29q-69 -13 -149 -13q-69 0 -133 10q-66 17 -78 51q-9 26 -9 62q0 42 14 109q2 6 9 9q8 2 13 -7q0 -24 1 -48q1 -29 22 -39q52 -20 128 -25q38 -3 134 -2q169 2 274 41l2 1q-8 24 -8 50
q0 75 59 128q24 22 50 22q10 0 20 -3q25 -8 39 -42q3 -13 3 -25q0 -58 -59 -133q11 -4 46 1q14 3 29 9v-57zM706 295q-6 2 -12 2q-24 0 -45 -22q-11 -15 -11 -34q-2 -27 14 -50q7 -7 16 -11q29 11 52 39q12 18 12 39q-1 12 -5 21.5t-21 15.5zM606 510h10q13 -6 34.5 -23
t33.5 -23q4 -8 3 -10q-18 -22 -56 -65q-9 -6 -14 -1q-38 20 -66 49q6 13 27 37.5t28 35.5z" />
    <glyph glyph-name="Thorn.009" unicode="&#x642;" horiz-adv-x="580" arabic-form="final" 
d="M580 374q-17 -17 -39 -34q-16 -167 -95 -293q-51 -81 -122 -128q-79 -51 -165 -46q-38 2 -71 26.5t-50 62.5q-23 53 -23 119q0 92 54 242q3 8 11 15q16 12 10 -17q-35 -115 -35 -172q0 -65 32 -108q43 -45 118 -45q100 0 186 80q78 75 106 177q14 50 0 76q-5 9 -14 9
q-4 0 -14 -3t-14 -3q-44 1 -52 30q-3 10 -3 20q0 16 9.5 45.5t11.5 48.5q8 44 40 44q15 0 36 -16q40 -39 42 -119l2 -3q12 7 21 17zM345 606h-3q-12 -15 -23 -31q-15 -18 -30 -25q-19 2 -41 18l-36 30q-5 8 0 13q8 13 54 68q8 2 18 -7t13 -10q11 -8 34 -20q9 -13 23 -13
q17 27 45 58q25 -18 78 -50q3 -7 -2 -12q-24 -38 -52 -73q-35 13 -78 54z" />
    <glyph glyph-name="I.004" unicode="&#x644;" horiz-adv-x="542" arabic-form="final" 
d="M524 433h-1l-3 -3q12 -213 -113 -405q-96 -148 -232 -148q-21 0 -42 4q-40 8 -72 46q-30 35 -39 77q-7 36 -7 75q0 104 56 242q3 8 13 22q9 0 11 -5l-1 -12q-38 -124 -38 -177q0 -36 10 -69t42 -55.5t68 -24.5q114 -8 195 66q93 85 106 201q5 46 5 101q0 29 -3 102
q-2 65 -1 104v83q1 50 8 83q14 38 45 94q2 2 4 2q5 0 7 -5q-19 -107 -19 -223q0 -32 19 -51z" />
    <glyph glyph-name="germandbls.002" unicode="&#x645;" horiz-adv-x="306" arabic-form="final" 
d="M306 461q2 -1 39 -22q24 -15 32 -32q15 -30 -6 -57q-46 -58 -90 -62q-71 -7 -127 -39q-62 -37 -89 -99q-8 -28 -11 -64q-1 -25 -1 -65v-68q0 -27 1 -77q2 -56 2 -79q0 -87 -17 -143q-4 -7 -8 -7q-2 0 -7 5v135l-7 152q-2 44 -2 74q0 193 95 281q48 45 107 78q10 12 52 89
h37z" />
    <glyph glyph-name="aacute.003" unicode="&#x646;" horiz-adv-x="521" arabic-form="final" 
d="M521 382q4 -188 -117 -363q-98 -141 -227 -141q-24 0 -48 6q-45 10 -76 54q-29 40 -35 89q-3 23 -3 46q0 94 52 230q7 18 21 43q9 9 11 -6q-1 -13 -8 -32q-8 -23 -11 -32q-23 -91 -23 -135q0 -77 48 -113q39 -29 97 -29q74 0 137.5 40.5t102.5 107t45 142.5q2 21 -1 54
q-3 39 -7 70q2 16 16 59q3 2 9 -1q2 -1 3 -3q1 -5 2 -7t3 -4.5t6 -4.5zM274 360h10q13 -6 34.5 -23t33.5 -23q4 -8 3 -10q-18 -22 -56 -65q-9 -6 -14 -1q-38 20 -66 49q6 13 27 37.5t28 35.5z" />
    <glyph glyph-name="acircumflex.005" unicode="&#x648;" horiz-adv-x="252" arabic-form="final" 
d="M252 205q-4 -4 -8 -6q-12 -69 -49 -142q-14 -28 -72 -35q-37 -7 -113 -19q-7 1 -8 5q-2 9 9 17q9 5 18 11q22 13 75 38q50 23 75 39q24 22 24 37q0 4 -1 8q-2 9 -14 23q-48 -6 -69 21q-7 14 -7 29q0 19 15 52q16 37 18 53q11 30 33 31q23 1 31 -6q32 -28 38 -93l5 1v-64z
" />
    <glyph glyph-name="asciicircum.001.fina" unicode="&#x679;" horiz-adv-x="695" arabic-form="final" 
d="M678 140q-39 -59 -113 -89q-33 -13 -138 -37q-10 -1 -29 -4q-93 -12 -168 -12q-91 0 -159 18q-44 12 -52 54q-4 22 -4 46q0 43 15 112q3 7 8 8q7 3 11 -8v-46q0 -27 20 -39q52 -22 130 -27q32 -3 140 -2q191 1 299 49q38 17 63 70q10 6 14 5q2 -1 2 -14q-4 -18 -22 -55
q-2 -4 -17 -29zM341 453l27 38l6 -1q1 -7 -1 -17q-2 -14 -2 -17l-2 -54q-3 -32 -11 -53q6 1 15 8.5t13 8.5q33 11 49.5 -2.5t9.5 -40.5q-36 -64 -76 -72q-33 -2 -95 -11q-10 0 -14 4q1 16 26 23q46 56 46 92q3 13 3 47q-1 31 6 47zM325 276v-3q32 6 40 8q22 7 34 20
q8 11 7 21l-6 6q-6 2 -12 2q-18 0 -33.5 -18.5t-29.5 -35.5z" />
    <glyph glyph-name="guilsinglright.009" unicode="&#x67e;" horiz-adv-x="695" arabic-form="final" 
d="M678 140q-39 -59 -113 -89q-33 -13 -138 -37q-10 -1 -29 -4q-93 -12 -168 -12q-91 0 -159 18q-44 12 -52 54q-4 22 -4 46q0 43 15 112q3 7 8 8q7 3 11 -8v-46q0 -27 20 -39q52 -22 130 -27q32 -3 140 -2q191 1 299 49q38 17 63 70q10 6 14 5q2 -1 2 -14q-4 -18 -22 -55
q-2 -4 -17 -29zM311 -121h3q12 15 26 32q22 25 31 32q16 -8 37 -25q18 -16 36 -31q5 -8 0 -13q-8 -13 -54 -68q-8 -2 -18 7t-13 10q-11 8 -32 24q-11 9 -25 9q-17 -27 -45 -58q-25 18 -78 50q-3 7 2 12q24 38 52 73q35 -13 78 -54zM333 -325l-7 1q-13 6 -34.5 23t-31.5 25
q-6 6 -5 8q18 22 56 65q9 6 14 1q38 -20 66 -49q-6 -13 -27 -37.5t-31 -36.5z" />
    <glyph glyph-name="agrave.008" unicode="&#x686;" horiz-adv-x="25" arabic-form="final" 
d="M76 569q11 4 34 9q38 8 130 8q20 0 22 -12q-5 -53 -58 -114q-79 -89 -86 -100q-59 -95 -59 -190q0 -67 34 -118q36 -54 119 -54q81 0 151 49q67 46 105 122q21 42 40 100q7 7 12 2q3 -2 -2 -33q-44 -199 -160 -299q-71 -62 -163 -62q-51 0 -93 23q-87 61 -87 197
q0 57 16 122q37 149 170 299q0 4 -4 5q-21 3 -43 3q-62 0 -126 -25q-8 0 -10 5q1 8 5 20q1 3 2 5zM236 110h-3q-12 -15 -26 -32q-22 -25 -31 -32q-16 8 -37 25q-18 16 -36 31q-5 8 0 13q8 13 54 68q8 2 18 -7t13 -10q11 -8 32 -24q11 -9 25 -9q17 27 45 58q25 -18 78 -50
q3 -7 -2 -12q-24 -38 -52 -73q-35 13 -78 54zM214 314l7 -1q13 -6 34.5 -23t31.5 -25q6 -6 5 -8q-18 -22 -56 -65q-9 -6 -14 -1q-38 20 -66 49q6 13 27 37.5t31 36.5z" />
    <glyph glyph-name="e.002.fina" unicode="&#x688;" horiz-adv-x="257" arabic-form="final" 
d="M257 166q0 11 1 22h-2q-12 -32 -24 -65q-14 -38 -30 -62q-9 -13 -37 -22q-53 -12 -157 -39q-8 0 -5 13q21 19 58 39q96 50 156 136q20 36 39 92q17 48 33 96q3 10 9 13q11 1 14 -7q1 -13 -4 -32q-8 -29 -8 -30q-7 -38 -7 -61q0 -33 12 -54zM230 614l27 38l6 -1
q1 -7 -1 -17q-2 -14 -2 -17l-2 -54q-3 -32 -11 -53q6 1 15 8.5t13 8.5q33 11 49.5 -2.5t9.5 -40.5q-36 -64 -76 -72q-33 -2 -95 -11q-10 0 -14 4q1 16 26 23q46 56 46 92q3 13 3 47q-1 31 6 47zM214 437v-3q32 6 40 8q22 7 34 20q8 11 7 21l-6 6q-6 2 -12 2
q-18 0 -33.5 -18.5t-29.5 -35.5z" />
    <glyph glyph-name="u.009" unicode="&#x691;" horiz-adv-x="344" arabic-form="final" 
d="M344 117q-28 -9 -44 -25q-36 -38 -87 -139q-48 -95 -97 -135q-89 -73 -155 -94q-16 -3 -12 6l3 5q187 132 247.5 259.5t74.5 147.5q31 47 70 71v-96zM159 373l27 38l6 -1q1 -7 -1 -17q-2 -14 -2 -17l-2 -54q-3 -32 -11 -53q6 1 15 8.5t13 8.5q33 11 49.5 -2.5t9.5 -40.5
q-36 -64 -76 -72q-33 -2 -95 -11q-10 0 -14 4q1 16 26 23q46 56 46 92q3 13 3 47q-1 31 6 47zM143 196v-3q32 6 40 8q22 7 34 20q8 11 7 21l-6 6q-6 2 -12 2q-18 0 -33.5 -18.5t-29.5 -35.5z" />
    <glyph glyph-name="j.001.fina" unicode="&#x698;" horiz-adv-x="344" arabic-form="final" 
d="M344 117q-28 -9 -44 -25q-36 -38 -87 -139q-48 -95 -97 -135q-89 -73 -155 -94q-16 -3 -12 6l3 5q187 132 247.5 259.5t74.5 147.5q31 47 70 71v-96zM169 250h-3q-12 -15 -26 -32q-22 -25 -31 -32q-16 8 -37 25q-18 16 -36 31q-5 8 0 13q8 13 54 68q8 2 18 -7t13 -10
q11 -8 32 -24q11 -9 25 -9q17 27 45 58q25 -18 78 -50q3 -7 -2 -12q-24 -38 -52 -73q-35 13 -78 54zM147 454l7 -1q13 -6 34.5 -23t31.5 -25q6 -6 5 -8q-18 -22 -56 -65q-9 -6 -14 -1q-38 20 -66 49q6 13 27 37.5t31 36.5z" />
    <glyph glyph-name="H.005" unicode="&#x6a9;" horiz-adv-x="557" arabic-form="final" 
d="M557 122q-1 13 -2 30q-37 -82 -115 -110q-113 -40 -235 -40q-45 0 -89 6q-36 6 -55 16q-30 15 -38 41.5t-8 57.5q0 35 15 110q3 8 9 9q8 1 11 -6v-49q0 -29 22 -38q73 -31 188 -31q49 0 115 6q68 12 92 20q49 17 77 53q11 24 13 63q2 33 3 66q-3 77 3 241q29 104 85 145
q59 35 96 52l144 65q68 30 100 59q12 10 17 3q2 -9 -10 -23q-57 -73 -110 -95l-48 -23l-172 -77q-17 -6 -34 -19q-18 -12 -25 -29q-11 -94 -11 -381q1 -26 3 -53q2 -18 5 -29z" />
    <glyph glyph-name="v.001.fina" unicode="&#x6af;" horiz-adv-x="557" arabic-form="final" 
d="M788 873l142 62q4 2 18 12q10 7 18 7l3 -3q-2 -13 -31 -40t-79 -49q-81 -35 -85 -37q-33 -16 -66 -33q-39 -19 -63 -38q-8 0 -9 4q16 44 64 73q18 11 88 42zM557 122q-1 13 -2 30q-37 -82 -115 -110q-113 -40 -235 -40q-45 0 -89 6q-36 6 -55 16q-30 15 -38 41.5t-8 57.5
q0 35 15 110q3 8 9 9q8 1 11 -6v-49q0 -29 22 -38q73 -31 188 -31q49 0 115 6q68 12 92 20q49 17 77 53q11 24 13 63q2 33 3 66q-3 77 3 241q29 104 85 145q59 35 96 52l144 65q68 30 100 59q12 10 17 3q2 -9 -10 -23q-57 -73 -110 -95l-48 -23l-172 -77q-17 -6 -34 -19
q-18 -12 -25 -29q-11 -94 -11 -381q1 -26 3 -53q2 -18 5 -29z" />
    <glyph glyph-name="aacute.004" unicode="&#x6ba;" horiz-adv-x="521" arabic-form="final" 
d="M521 382q4 -188 -117 -363q-98 -141 -227 -141q-24 0 -48 6q-45 10 -76 54q-29 40 -35 89q-3 23 -3 46q0 94 52 230q7 18 21 43q9 9 11 -6q-1 -13 -8 -32q-8 -23 -11 -32q-23 -91 -23 -135q0 -77 48 -113q39 -29 97 -29q74 0 137.5 40.5t102.5 107t45 142.5q2 21 -1 54
q-3 39 -7 70q2 16 16 59q3 2 9 -1q2 -1 3 -3q1 -5 2 -7t3 -4.5t6 -4.5z" />
    <glyph glyph-name="J.005" unicode="&#x6be;" horiz-adv-x="446" arabic-form="final" 
d="M446 314q-17 -21 -29 -45q10 4 28 9q9 3 20 3q26 0 46 -19q17 -20 17 -46q0 -19 -10 -36q-24 -40 -44 -64q-29 -33 -57 -54q-37 -27 -95 -35q-28 -3 -110 -3q-34 -20 -91 -20q-30 0 -67 6q-14 2 -39 14q0 10 24 13.5t69 15.5q18 18 34 47q13 25 27 51q23 50 47 100
q32 58 83 72q36 5 61 -16q15 -15 20 -37h3q19 34 39 63zM302 252q-26 3 -46 -19q-24 -28 -52 -82q-32 -62 -49 -85q91 24 144 76q33 32 33 65q0 12 -6 24t-24 21zM270 66l-2 -5q36 3 107 26q82 36 93 93q1 17 -14 28q-14 7 -28 6q-16 0 -29 -9q-20 -18 -62 -71
q-37 -47 -65 -68z" />
    <glyph glyph-name="E.008" unicode="&#x6c1;" horiz-adv-x="151" arabic-form="final" 
d="M151 49q-7 2 -13 2q-48 0 -112 -67q-7 -5 -11 5v7q32 57 75 100q31 27 61 44v-91z" />
    <glyph glyph-name="Igrave.006" unicode="&#x6cc;" horiz-adv-x="354" arabic-form="final" 
d="M354 385q0 -16 10 -22l48 -17q30 -13 37 -37q9 -30 9 -63q0 -48 -21 -114q-26 -81 -79 -145q-60 -73 -135 -98q-26 -9 -54 -9q-60 0 -95 38q-59 63 -59 168q0 52 16 138q1 5 3 12q17 65 59 178q2 9 11 7q6 -3 3 -24q-22 -59 -42 -172q-4 -31 -4 -56q0 -101 57 -144
q32 -24 77 -24q68 0 132 46q88 64 96 143q0 12 -9 19.5t-45 19.5q-29 9 -42 26q-18 25 -14 88q1 16 8 42h33z" />
    <glyph glyph-name="Z.004" unicode="&#x6d2;" horiz-adv-x="147" arabic-form="final" 
d="M147 199q-37 -20 -46 -44q-3 -8 10 -17q53 -25 191 -27l234 -4l243 4l126 6q12 1 9 -4q-3 -7 -37 -31q-47 -33 -120 -48q-31 -6 -133 -17q-165 -17 -279 -16l-156 2q-49 3 -84 10q-46 10 -73 35q-17 15 -11 38q33 83 100 137q5 4 8 6z" />
    <glyph glyph-name="uni06BB.fina" unicode="&#x6bb;" horiz-adv-x="521" arabic-form="final" 
d="M521 382q4 -188 -117 -363q-98 -141 -227 -141q-24 0 -48 6q-45 10 -76 54q-29 40 -35 89q-3 23 -3 46q0 94 52 230q7 18 21 43q9 9 11 -6q-1 -13 -8 -32q-8 -23 -11 -32q-23 -91 -23 -135q0 -77 48 -113q39 -29 97 -29q74 0 137.5 40.5t102.5 107t45 142.5q2 21 -1 54
q-3 39 -7 70q2 16 16 59q3 2 9 -1q2 -1 3 -3q1 -5 2 -7t3 -4.5t6 -4.5zM277 606l27 38l6 -1q1 -7 -1 -17q-2 -14 -2 -17l-2 -54q-3 -32 -11 -53q6 1 15 8.5t13 8.5q33 11 49.5 -2.5t9.5 -40.5q-36 -64 -76 -72q-33 -2 -95 -11q-10 0 -14 4q1 16 26 23q46 56 46 92q3 13 3 47
q-1 31 6 47zM261 429v-3q32 6 40 8q22 7 34 20q8 11 7 21l-6 6q-6 2 -12 2q-18 0 -33.5 -18.5t-29.5 -35.5zM274 360h10q13 -6 34.5 -23t33.5 -23q4 -8 3 -10q-18 -22 -56 -65q-9 -6 -14 -1q-38 20 -66 49q6 13 27 37.5t28 35.5z" />
    <glyph glyph-name="uniFDF2" unicode="&#xfdf2;" horiz-adv-x="652" arabic-form="isolated" 
d="M463 277q10 -58 27.5 -74t38.5 -15.5t34 9.5t16 28q6 31 2 123t-4 119v14t2 14q6 11 11.5 30.5t12 40t12 38.5t7.5 26q4 12 6.5 7.5t4 -21t2.5 -43.5t2 -61q0 -31 -0.5 -62.5t-7.5 -192.5q-6 -39 -17.5 -75.5t-26.5 -67t-41.5 -52.5t-60.5 -22q-22 0 -38 9t-31 23
q-20 -44 -50 -65t-59.5 -18.5t-52.5 29.5t-28 79q-1 -1 -1 0t-3 -4q-8 -18 -15 -32t-15 -25t-18 -20.5t-25 -18.5q-28 -14 -55.5 -27.5t-55.5 -27.5q-20 -9 -20.5 -6.5t16.5 16.5q68 61 125 125t99 144q11 23 14.5 29t3.5 -5q-2 -15 -3.5 -29t0.5 -39q6 -26 23 -41t43 -12
q41 4 59.5 49t26.5 86.5t12 62.5q1 7 10.5 12t12.5 -4q0 -11 1 -21.5t4 -31.5zM505 621q9 -47 9 -75q0 -56 -31 -84q-20 -23 -53 -9q-13 10 -17 23q-24 -35 -46 -35q-20 0 -38 24q-7 17 -7 37q0 39 25 85q3 9 9 5t3 -15q-11 -44 -11 -57q0 -19 7.5 -28.5t20.5 -9.5
q20 3 29 24q7 17 14 35q5 2 8 -6q2 -20 4 -24q4 -13 15 -20q21 -9 33.5 3.5t12.5 35.5q0 2 -9 57q7 13 22 34zM437 693l1 -2q0 -56 -20 -76q-7 -2 -9 6q3 37 -4 69q-8 41 -9 69q6 22 16 67q2 5 11 3l4 -11q4 -31 10 -125z" />
    <glyph glyph-name="uniFDFA" unicode="&#xfdfa;" horiz-adv-x="1718" arabic-form="isolated" 
d="M42 -312q-5 90 -8.5 176.5t-3.5 175.5v98q1 44 8.5 87.5t23.5 83.5t43.5 73.5t69.5 57.5q15 9 33 15t35 11q-2 4 -8 3.5t-6 4.5q0 13 7.5 22.5t12.5 27.5q1 8 4.5 24t6.5 33.5t6 32.5t4 21q4 25 4 50t1 50q0 17 0.5 43t1 50.5t0.5 41.5v18l18 54t17 53q2 4 3 0
q2 -55 3.5 -109.5t3.5 -110.5q1 -13 7.5 -26t16 -23t21.5 -16.5t25 -6.5q8 0 17.5 2t15.5 8q14 14 28 27.5t28 27.5q7 7 17 10.5t20 3.5q5 0 10 -2t11 -2q8 0 12.5 6t7.5 13t5.5 13t5.5 6q3 1 5.5 -1t5.5 -2q6 0 10.5 4.5t8.5 11t7 13.5t5 12q5 8 7.5 5.5t1.5 -11.5
q-5 -32 -25.5 -61.5t-42.5 -49.5q-2 -1 -6.5 -5.5t-10.5 -9t-12.5 -9t-11.5 -5.5q-7 0 -12 2t-13 1q-10 0 -19 -6q-10 -10 -20.5 -28t-24 -35t-31.5 -30.5t-43 -14.5q-14 0 -27.5 6.5t-24.5 14.5q-5 -10 -10 -22t-7 -23q13 -6 28 -13t27.5 -17t21 -22.5t8.5 -29.5
q0 -19 -9 -36.5t-23 -31.5t-32 -24.5t-36 -15.5t-47.5 -9.5t-56.5 -12.5q-35 -14 -61 -41t-30 -72q-5 -151 -9.5 -292.5t-8.5 -292.5q-3 -1 -4.5 2.5t-2.5 8l-2 9t-1 5.5zM926 -44q0 21 1.5 39t4.5 35t7.5 35t10.5 38q4 15 8 26t8 21t9 21.5t12 28.5q5 10 8 9.5t-1 -12.5
q-13 -46 -22.5 -89.5t-9.5 -91.5q0 -31 7 -60t22.5 -52t40 -37t59.5 -14q27 0 52.5 10t47.5 26t40.5 37t30.5 44q9 16 13.5 26.5t4.5 26.5q-2 21 -15.5 34t-29 23t-27.5 19.5t-10 23.5q0 17 7.5 33t14.5 32q11 30 19 62t13 65q2 51 1.5 106t2.5 107q4 14 10 32t11 33.5
t9.5 26.5t7.5 10q2 -58 2 -117t1 -118q-1 -27 8 -47t25.5 -30.5t38 -9.5t46.5 17q6 5 11.5 12t10 14t9 11.5t9.5 4.5q11 0 20 -8t20 -6q22 24 42 46.5t43 43.5q10 8 23 16.5t27 8.5q18 0 30.5 -11t12.5 -29q0 -14 -5 -30t-11 -28q-22 -45 -66 -74t-95 -29q-26 0 -40.5 8.5
t-23.5 32.5q-9 -14 -19 -30t-22.5 -29t-28 -21.5t-34.5 -8.5q-45 0 -64 45q-2 -3 -5 -10.5t-6 -16l-6 -17t-5 -12.5q0 -4 2 -7q3 -6 15.5 -16t26.5 -24.5t24 -33t9 -42.5q-1 -31 -9.5 -68.5t-23.5 -74.5t-36.5 -71.5t-48 -61t-58 -42t-67.5 -14.5q-45 0 -74 17.5t-46.5 46.5
t-24 65t-5.5 74zM466 -17q0 25 -9.5 48.5t-28.5 33.5q1 11 6.5 25.5t6.5 14.5q10 -3 17 -10.5t11 -11.5q10 -14 14 -32.5t4 -35.5q0 -29 -10 -56.5t-24 -53.5q-3 -5 -5.5 -5.5t-0.5 6.5q8 22 13.5 38.5t5.5 38.5zM650 63l2.5 2.5t1.5 0.5l1 -1q2 -2 8 -6.5t12 -9.5t12 -9.5
t8 -6.5q1 -1 8.5 -6t11.5 -7q5 -2 6.5 -3.5t5.5 -1.5t5 3l44 66l76 -56l3 -3v-1v-1q0 -2 -3 -5l-47 -68q-2 -2 -5 -2q-4 0 -8 2l-65 48l-45 -63q-2 -2 -5 -2q-7 0 -17 6.5t-15 10.5q-4 3 -12.5 9.5t-10.5 8.5q-4 3 -17 17v8zM692 261q17 0 31 -9t31 -9q19 0 39.5 9.5
t36.5 20.5q5 3 14.5 12.5t15.5 17.5q8 10 10 7t0 -10q-3 -10 -7.5 -19t-7.5 -19q9 0 23 1t27.5 4.5t24 10.5t12.5 20v285q0 8 4 19.5t6 17.5q1 4 5 13.5t8 19.5t8 19t6 13l2 4t4 2q-2 -51 -3.5 -104.5t-1.5 -103.5q0 -18 1 -33t5 -27t13 -22.5t26 -20.5q4 4 10 14t12 22
t11 22.5t8 16.5q11 20 28.5 39.5t42.5 19.5q15 0 31.5 -10t16.5 -27q0 -8 -6.5 -15t-14.5 -7q-13 0 -25 5.5t-25 5.5q-16 0 -31.5 -12.5t-15.5 -29.5q0 -9 6.5 -17t15.5 -14t19 -9.5t18 -3.5q11 0 22 6t21 14.5t18.5 18.5t14.5 18q4 6 5.5 5.5t1 -4.5t-2.5 -9t-4 -9
q-2 -3 -7 -11.5t-10.5 -17.5t-10.5 -17t-7 -11q-9 -14 -21.5 -29.5t-28 -29t-34 -22t-37.5 -8.5q-23 0 -40.5 9.5t-31.5 20.5q-2 -3 -5.5 -9.5t-7.5 -14t-7.5 -15t-5.5 -10.5q-3 -5 -9 -13.5t-13 -16.5t-14 -14t-12 -6q-7 0 -15.5 3.5t-16.5 8.5t-15 10t-11 8
q-10 -16 -22 -31.5t-26.5 -28t-32 -20.5t-38.5 -8q-20 0 -38 11t-38 11q-31 -2 -50.5 -20t-36.5 -36q-8 -10 -14 -16.5t-4 1.5q7 25 20 53t31.5 52.5t43 40.5t55.5 17zM517 393q13 0 26 -7.5t32 -7.5q9 0 21.5 3.5t23.5 9.5t19 14.5t8 19.5v268q-1 38 12 70t26 67q2 4 3.5 8
t5.5 5q0 -94 -1.5 -187t-7.5 -186q-2 -22 -12.5 -54.5t-28 -63t-42 -52.5t-54.5 -22q-9 0 -16.5 3.5t-14.5 8t-14.5 8t-16.5 3.5q-14 -1 -28 -7t-27 -15t-25 -20t-21 -21q-3 -2 -3 0q1 22 15 49t34 50.5t43 39.5t43 16zM1622 433q-11 0 -24 -4.5t-21 -13.5q-17 -16 -32 -32
t-30 -33q16 -1 40.5 4.5t46.5 14.5t37.5 20t15.5 20q0 14 -11 19t-22 5zM1682 1093q1 2 2.5 4.5t3.5 2.5l-2 -200t-9 -200q-6 -52 -30 -102q-2 -4 -6 -12.5t-7 -7.5q2 47 3.5 98.5t2 103.5t1 103t0.5 96q8 30 19.5 57.5t21.5 56.5zM1160 595q35 36 69.5 75t60.5 83l20 40
q1 2 4 9.5t4 9.5q1 3 5 3q-1 -11 -2 -22.5t1 -22.5q1 -7 7 -13t13.5 -10.5t15 -7t13.5 -2.5q16 0 27.5 7t19.5 18t13.5 24.5t10.5 26.5q1 2 2 4.5t2 2.5q3 0 4 -4.5t3.5 -10.5t7 -12.5t14.5 -9.5t18 -2.5t17 2.5q8 2 16 8.5t9 14.5q0 20 -4.5 40.5t-4.5 40.5q0 6 3.5 19.5
t7.5 28.5t8 28.5t5 19.5q3 14 5.5 16.5t4.5 -14.5q3 -26 5.5 -55t2.5 -47q1 -20 -3.5 -54t-16 -67.5t-30.5 -58.5t-46 -27q-28 -1 -46 20q-6 -10 -12.5 -21t-15 -20.5t-19.5 -16t-25 -6.5q-16 1 -27 8.5t-18 18t-11.5 22.5t-7.5 22q-11 -21 -22.5 -39.5t-32.5 -30.5
q-8 -5 -20 -11.5l-24 -13t-29 -15.5q-2 -2 -3 -1t1 3zM1078 916q0 5 -4.5 8.5t-9.5 3.5q-9 0 -17 -4t-17 -4q-12 0 -23.5 4.5t-20.5 12t-15 18.5t-6 23q0 16 6.5 33t13.5 34q6 17 10 31.5t6 19.5q5 11 14.5 18.5t21.5 7.5q21 0 36 -15.5t24 -37t13 -45.5t4 -40
q0 -24 -6.5 -46t-16 -43t-21.5 -41.5t-23 -40.5q-32 -11 -63.5 -21.5t-63.5 -21.5q-11 -3 -9.5 1t4.5 7l70 54t70 53q8 6 15.5 13t7.5 18zM690 1025q45 0 82.5 23.5t64.5 56.5q5 7 12 17t11 19q5 9 6.5 6t-0.5 -11q-2 -13 -8 -28.5t-11 -24.5q-11 -29 -28 -55t-39 -46
t-50 -32.5t-61 -13.5q-23 0 -35 3.5t-19.5 7t-14 6.5t-17.5 3q-9 0 -18.5 -5.5t-18.5 -14.5t-17 -19.5t-14 -18.5q-2 -5 -4 0q0 17 10 41t25 46.5t33 38t35 15.5q19 0 37.5 -7t38.5 -7zM809 867q1 2 2.5 4.5t3.5 2.5l-2 -200t-9 -200q-6 -52 -30 -102q-2 -4 -6 -12.5
t-7 -7.5q2 47 3.5 98.5t2 103.5t1 103t0.5 96q8 30 19.5 57.5t21.5 56.5zM291 97q0 13 -14 13q-8 0 -16 -4t-17 -4q-24 0 -44.5 16.5t-20.5 40.5q0 16 6.5 33.5t12.5 34.5q7 17 11 31t6 19q5 11 14 19t22 8q21 0 36 -15.5t24 -37.5t13 -45.5t4 -39.5q0 -24 -6.5 -46t-16 -43
t-21.5 -41.5t-23 -40.5q-32 -11 -63.5 -21.5t-63.5 -21.5q-11 -3 -10 1t5 7q35 26 70 53l70 54q8 6 15 13t7 17zM1179 772q11 7 19 11t16 9q-7 -10 -15.5 -19t-16.5 -20q-17 -10 -37 -21t-39 -22q-2 -1 -6 -4t-9.5 -6t-10 -6t-7.5 -4q5 8 10 16.5t10 16.5q18 14 39 24.5
t47 24.5zM1498 561q11 7 19 11t17 9q-8 -10 -16.5 -19t-16.5 -20q-17 -10 -36.5 -21t-39.5 -22q-2 -1 -6 -4t-9.5 -6t-10 -6t-7.5 -4q5 8 10 16.5t10 16.5q19 14 39.5 24.5t46.5 24.5zM1440 1160q5 16 10 33.5t10 33.5l2.5 5t4.5 3q0 -2 -0.5 -8t-0.5 -8v-26v-41t-0.5 -41.5
t-0.5 -25.5q-1 -6 -4 -17.5t-7 -23.5t-8 -22.5t-6 -14.5q0 -4 -4 -4q1 15 1.5 36t1 43t1 43t0.5 35zM1399 961q2 5 3 4q0 -8 -1 -17t-1 -18q0 -10 2.5 -18.5t13.5 -8.5t12.5 7t3.5 18q2 8 3.5 15.5t3.5 13.5q3 10 9 15q0 -8 -1 -16.5t-1 -16.5q0 -10 2 -21t17 -14q6 0 10 5
q0 11 -0.5 19.5t3.5 20.5q3 9 6.5 17.5t5.5 10.5q1 -9 1 -23q0 -13 -2 -28q-1 -6 -3 -15.5t-6 -19t-10 -16t-14 -6.5t-13 5t-9 13q-5 -8 -10.5 -14.5t-16.5 -6.5t-16.5 9t-5.5 21q-1 8 0.5 21t4.5 22q3 15 9 22zM271 1109q2 2 2 3t2 1q0 -9 -1.5 -18t-1.5 -18t3 -18t14 -9
q11 1 12.5 8t3.5 17q1 8 2.5 16t3.5 14q5 11 10 15q0 -8 -1 -16.5t-1 -16.5q0 -10 2 -21t17 -14q6 0 9 4q1 11 0.5 19.5t3.5 20.5q2 9 6 18t6 11q1 -10 1 -23t-2 -28q-1 -6 -3 -16t-6 -19t-10 -16t-15 -7q-8 0 -13 5.5t-8 12.5q-5 -8 -11 -14.5t-16 -6.5q-11 0 -17 9t-6 22
q0 8 1 21t4 22q5 16 9 22z" />
    <glyph glyph-name="uniFEFB" unicode="&#xfefb;" horiz-adv-x="311" arabic-form="isolated" 
d="M68 200l-8 162q2 27 16 62q21 57 22.5 60.5t8.5 10.5q2 1 6 -11q-3 -53 -1 -148q2 -103 1 -139q-3 -84 -37 -141l12 -6q52 0 75 5q39 10 57 40q25 43 25 111q0 12 -1 45q-1 30 -1 47q-3 64 0 188q14 34 39 102q5 16 12 5q2 -12 0 -33q-3 -27 -3 -34q0 -27 2 -107
q1 -69 1 -110q-1 -60 -7 -107q-18 -145 -123 -192q-37 -9 -63 -9q-45 0 -67 26q-13 13 -19 25q0 7 5 7q4 1 14 -2t13 -3q10 0 10 13q15 49 11 133z" />
    <glyph glyph-name=".notdef" horiz-adv-x="250" 
 />
    <glyph glyph-name="exclam" unicode="!" horiz-adv-x="333" 
d="M176 175h-19l-43 396q-3 26 -3 38q0 31 16.5 49.5t39.5 18.5t39 -18.5t16 -54.5q0 -12 -2 -33zM166 94q22 0 38 -16t16 -37q0 -23 -16 -39t-38 -16t-38 16t-16 39q0 21 16 37t38 16z" />
    <glyph glyph-name="quotedbl" unicode="&#x22;" horiz-adv-x="408" 
d="M281 392l-26 143l-11 59q-1 12 -1 24q0 31 14 45t36 14q21 0 35 -14t14 -38q0 -42 -9 -90l-28 -143h-24zM103 392l-27 145q-11 59 -11 81q0 31 13 45t35 14q21 0 35.5 -14.5t14.5 -37.5q0 -20 -13 -89l-26 -144h-21z" />
    <glyph glyph-name="numbersign" unicode="#" horiz-adv-x="500" 
d="M56 -14l46 222h-84v41h91l34 167h-125v39h134l45 222h40l-44 -222h164l48 222h40l-46 -222h83v-39h-90l-35 -167h125v-41h-133l-45 -222h-40l45 222h-166l-46 -222h-41zM150 249h166l35 167h-166z" />
    <glyph glyph-name="dollar" unicode="$" horiz-adv-x="500" 
d="M53 163h21q6 -67 42.5 -102.5t109.5 -42.5v285q-110 68 -147 120q-26 37 -26 91q0 60 45 105t128 54v45h31v-45q40 -3 67 -9q14 -4 94 -34v-146h-19q-6 78 -40 113.5t-102 42.5v-248q123 -86 158 -126.5t35 -101.5q0 -67 -51 -118.5t-142 -59.5v-62h-31v62
q-46 2 -85.5 10.5t-87.5 28.5v138zM226 413v227q-49 -6 -73 -31.5t-24 -63.5q0 -35 21.5 -66t75.5 -66zM257 18q36 6 56 18q27 17 43 44.5t16 59.5t-19.5 60.5t-95.5 81.5v-264z" />
    <glyph glyph-name="percent" unicode="%" horiz-adv-x="833" 
d="M680 677l-483 -704h-43l482 704h44zM178 677q66 0 102 -54.5t36 -125.5q0 -85 -41 -131.5t-98 -46.5q-39 0 -71 21.5t-51.5 63.5t-19.5 93t19.5 94.5t53.5 64.5t70 21zM176 650q-25 0 -44 -29.5t-19 -122.5q0 -68 11 -104q8 -27 25 -41q11 -9 26 -9q23 0 40 25
q24 38 24 126q0 92 -24 130q-15 25 -39 25zM657 329q35 0 69.5 -22t53 -64t18.5 -93q0 -86 -41.5 -131.5t-97.5 -45.5q-36 0 -69.5 22t-52.5 62.5t-19 92.5t19 94.5t52.5 63.5t67.5 21zM658 303q-24 0 -41 -27q-22 -34 -22 -129q0 -87 23 -122q16 -25 40 -25q22 0 40 27
q23 35 23 122q0 92 -23 129q-16 25 -40 25z" />
    <glyph glyph-name="ampersand" unicode="&#x26;" horiz-adv-x="778" 
d="M510 426h205v-18q-42 -3 -62.5 -18.5t-63.5 -93t-96 -145.5q43 -50 77 -70.5t69 -20.5q34 0 57.5 18.5t32.5 53.5l19 -13q-19 -69 -59 -101.5t-93 -32.5q-40 0 -81 21.5t-90 73.5q-61 -54 -109.5 -74.5t-103.5 -20.5q-81 0 -128 43t-47 102t42.5 118t159.5 122
q-23 51 -31.5 83.5t-8.5 62.5q0 83 62 127q48 34 109 34q58 0 94.5 -34.5t36.5 -84.5q0 -52 -35.5 -91t-125.5 -85q62 -111 130 -202q86 102 86 173q0 22 -15 40q-11 13 -31 15v18zM324 414q60 28 90 65t30 82q0 35 -21.5 58t-53.5 23q-43 0 -64.5 -29.5t-21.5 -58.5
q0 -24 8 -53.5t33 -86.5zM399 108q-64 88 -89 128.5t-55 100.5q-58 -33 -87.5 -73.5t-29.5 -88.5q0 -52 33.5 -91.5t90.5 -39.5q31 0 59.5 12t77.5 52z" />
    <glyph glyph-name="quotesingle" unicode="'" horiz-adv-x="180" 
d="M77 392l-26 145q-11 60 -11 81q0 31 12.5 45t34.5 14t36.5 -14.5t14.5 -37.5q0 -18 -13 -89l-26 -144h-22z" />
    <glyph glyph-name="parenleft" unicode="(" horiz-adv-x="333" 
d="M311 -196v-18q-74 37 -124 87q-70 71 -108 167t-38 200q0 151 74.5 276t195.5 178v-20q-61 -33 -99.5 -91t-57.5 -146t-19 -185q0 -104 16 -190q13 -67 31 -107.5t48.5 -78.5t80.5 -72z" />
    <glyph glyph-name="parenright" unicode=")" horiz-adv-x="333" 
d="M22 674v20q75 -36 124 -86q70 -71 108 -167t38 -200q0 -152 -74.5 -276.5t-195.5 -178.5v18q61 34 99.5 91.5t57.5 146t19 184.5q0 104 -16 190q-13 67 -31 107.5t-48.5 78.5t-80.5 72z" />
    <glyph glyph-name="asterisk" unicode="*" horiz-adv-x="500" 
d="M241 510q-2 33 -13 67q-17 48 -17 66q0 25 12 38t29 13q16 0 27 -13t11 -37q0 -22 -13 -61.5t-16 -72.5q27 17 49 41q33 39 49 48t33 9q16 0 27 -11t11 -26q0 -18 -16.5 -32t-80.5 -28q-38 -9 -62 -19q25 -13 62 -20q59 -11 77 -27t18 -35q0 -15 -11 -25.5t-25 -10.5
q-15 0 -33 10t-48 46q-20 24 -50 45q1 -28 11 -61q18 -58 18 -79q0 -19 -11.5 -32.5t-25.5 -13.5q-18 0 -32 14q-11 10 -11 33t11.5 56t14.5 45.5t5 37.5q-29 -19 -50 -43q-36 -40 -54 -51q-12 -7 -26 -7q-17 0 -28.5 11t-11.5 25q0 12 10 25.5t30 22.5q13 5 60 15
q30 6 59 19q-26 13 -63 20q-60 13 -74 23q-22 16 -22 39q0 13 11 24t25 11q17 0 35 -10t44.5 -41t54.5 -48z" />
    <glyph glyph-name="plus" unicode="+" horiz-adv-x="564" 
d="M261 69v243h-243v41h243v242h39v-242h244v-41h-244v-243h-39z" />
    <glyph glyph-name="comma" unicode="," horiz-adv-x="250" 
d="M54 -167v22q50 17 77.5 51.5t27.5 73.5q0 10 -4 16q-4 4 -7 4q-5 0 -23 -9q-9 -5 -19 -5q-24 0 -38 14.5t-14 39.5q0 23 18 40.5t45 17.5q32 0 57 -28t25 -75q0 -50 -35 -93.5t-110 -68.5z" />
    <glyph glyph-name="hyphen" unicode="-" horiz-adv-x="333" 
d="M41 261h252v-74h-252v74z" />
    <glyph glyph-name="period" unicode="." horiz-adv-x="250" 
d="M125 95q23 0 38.5 -16t15.5 -38q0 -23 -16 -39t-38 -16t-38 16t-16 39q0 22 16 38t38 16z" />
    <glyph glyph-name="slash" unicode="/" horiz-adv-x="278" 
d="M280 694l-239 -708h-40l240 708h39z" />
    <glyph glyph-name="zero" unicode="0" horiz-adv-x="500" 
d="M36 327q0 113 34 195t91 122q44 32 91 32q76 0 137 -78q75 -96 75 -261q0 -115 -33 -195.5t-84.5 -117t-99.5 -36.5q-95 0 -158 112q-53 94 -53 227zM132 315q0 -137 34 -223q27 -73 83 -73q26 0 54.5 23.5t42.5 79.5q23 84 23 237q0 113 -24 189q-17 56 -45 79
q-20 17 -49 17q-33 0 -59 -30q-35 -41 -47.5 -128t-12.5 -171z" />
    <glyph glyph-name="one" unicode="1" horiz-adv-x="500" 
d="M117 597l161 79h16v-559q0 -56 5 -69.5t19.5 -21t59.5 -8.5v-18h-249v18q47 1 60.5 8t19 19t5.5 72v357q0 72 -5 93q-3 16 -12.5 23t-21.5 7q-18 0 -50 -15z" />
    <glyph glyph-name="two" unicode="2" horiz-adv-x="500" 
d="M458 127l-46 -127h-391v18q173 157 243 257t70 182q0 63 -38.5 103.5t-91.5 40.5q-49 0 -88 -28.5t-57 -83.5h-18q12 90 62.5 138.5t125.5 48.5q81 0 135 -52t54 -122q0 -50 -23 -101q-37 -79 -118 -167q-121 -133 -152 -160h173q53 0 74.5 4t38.5 15.5t29 33.5h18z" />
    <glyph glyph-name="three" unicode="3" horiz-adv-x="500" 
d="M51 536q28 67 71.5 103.5t107.5 36.5q80 0 122 -52q32 -39 32 -82q0 -73 -91 -150q61 -24 92.5 -68.5t31.5 -104.5q0 -86 -55 -149q-71 -82 -206 -82q-67 0 -91 16.5t-24 36.5q0 14 11 24.5t28 10.5q12 0 24 -4q9 -2 38 -17.5t41 -18.5q18 -5 38 -5q50 0 87 38.5t37 91.5
q0 38 -17 75q-13 27 -28 41q-21 20 -57.5 36t-75.5 16h-15v14q38 5 77 28t56.5 55t17.5 71q0 50 -31.5 81t-78.5 31q-75 0 -126 -81z" />
    <glyph glyph-name="four" unicode="4" horiz-adv-x="500" 
d="M465 244v-69h-89v-175h-80v175h-280v62l307 439h53v-432h89zM296 244v329l-233 -329h233z" />
    <glyph glyph-name="five" unicode="5" horiz-adv-x="500" 
d="M434 662l-38 -83h-199l-44 -89q130 -19 205 -96q65 -66 65 -156q0 -52 -21 -96.5t-53.5 -76t-71.5 -50.5q-56 -27 -115 -27q-60 0 -87 20.5t-27 44.5q0 14 11 24.5t28 10.5q13 0 22.5 -4t32.5 -20q37 -25 74 -25q57 0 100.5 43t43.5 105q0 60 -38.5 112t-106.5 80
q-53 22 -145 26l127 257h237z" />
    <glyph glyph-name="six" unicode="6" horiz-adv-x="500" 
d="M448 676v-18q-64 -7 -105 -26t-80.5 -58.5t-66 -88t-43.5 -115.5q70 48 141 48q68 0 117.5 -54.5t49.5 -140.5q0 -83 -50 -152q-60 -83 -160 -83q-68 0 -115 45q-93 88 -93 227q0 89 35.5 169t102 142t127 83.5t112.5 21.5h28zM145 334q-9 -66 -9 -106q0 -47 17 -102
t52 -87q24 -23 60 -23q43 0 76.5 40t33.5 114q0 83 -33.5 144t-94.5 61q-18 0 -39.5 -7.5t-62.5 -33.5z" />
    <glyph glyph-name="seven" unicode="7" horiz-adv-x="500" 
d="M101 662h355v-18l-221 -658h-55l198 597h-182q-55 0 -79 -14q-41 -22 -66 -69l-14 5z" />
    <glyph glyph-name="eight" unicode="8" horiz-adv-x="500" 
d="M192 333q-79 65 -101.5 104t-22.5 81q0 65 49.5 111.5t132.5 46.5q80 0 129 -43.5t49 -99.5q0 -37 -26.5 -75.5t-109.5 -90.5q85 -67 113 -105q37 -50 37 -105q0 -70 -53 -119.5t-139 -49.5q-95 0 -147 59q-42 48 -42 104q0 44 29.5 87t101.5 95zM269 386q58 52 73.5 83
t15.5 69q0 51 -28.5 80t-78.5 29t-81 -28.5t-31 -67.5q0 -25 13 -50.5t36 -48.5zM215 315q-41 -34 -60.5 -74.5t-19.5 -87.5q0 -63 34.5 -100.5t87.5 -37.5t85 29.5t32 72.5q0 35 -19 63q-35 51 -140 135z" />
    <glyph glyph-name="nine" unicode="9" horiz-adv-x="500" 
d="M53 -14v18q63 1 118 29.5t106 100t71 157.5q-77 -50 -139 -50q-70 0 -119.5 54t-49.5 143q0 87 49 155q60 83 157 83q82 0 140 -68q71 -83 71 -206q0 -110 -54 -205.5t-151 -158.5q-79 -52 -171 -52h-28zM355 327q9 63 9 101q0 48 -16 102.5t-45.5 84t-67.5 29.5
q-43 0 -76 -39t-33 -116q0 -103 44 -161q32 -42 78 -42q23 0 53.5 10.5t53.5 30.5z" />
    <glyph glyph-name="colon" unicode=":" horiz-adv-x="278" 
d="M141 461q23 0 38.5 -16t15.5 -38q0 -23 -15.5 -38.5t-38.5 -15.5q-22 0 -38 15.5t-16 38.5q0 22 16 38t38 16zM140 95q23 0 39 -16t16 -38q0 -23 -16 -39t-39 -16q-22 0 -38 16t-16 39q0 22 16 38t38 16z" />
    <glyph glyph-name="semicolon" unicode=";" horiz-adv-x="278" 
d="M138 461q22 0 38 -15.5t16 -37.5q0 -23 -16 -38.5t-38 -15.5q-23 0 -39 15.5t-16 38.5q0 22 16 37.5t39 15.5zM69 -167v22q51 17 78.5 51.5t27.5 73.5q0 10 -5 16q-3 4 -6 4q-6 0 -24 -9q-9 -5 -18 -5q-24 0 -38.5 14.5t-14.5 39.5q0 23 18.5 40.5t44.5 17.5q33 0 58 -28
t25 -75q0 -50 -35 -93.5t-111 -68.5z" />
    <glyph glyph-name="less" unicode="&#x3c;" horiz-adv-x="564" 
d="M18 345l525 227v-42l-452 -197l452 -198v-44l-525 230v24z" />
    <glyph glyph-name="equal" unicode="=" horiz-adv-x="564" 
d="M18 431h527v-40h-527v40zM18 272h527v-40h-527v40z" />
    <glyph glyph-name="greater" unicode="&#x3e;" horiz-adv-x="564" 
d="M543 319l-525 -228v42l453 197l-453 198v44l525 -229v-24z" />
    <glyph glyph-name="question" unicode="?" horiz-adv-x="444" 
d="M222 156h-20q3 62 15 102t50 112q29 55 37.5 84.5t8.5 60.5q0 62 -32.5 98.5t-80.5 36.5q-43 0 -67.5 -20t-24.5 -44q0 -18 15 -44t15 -40q0 -18 -11.5 -30t-27.5 -12q-20 0 -37 20.5t-17 56.5q0 55 47.5 97.5t128.5 42.5q100 0 148 -58q35 -43 35 -96q0 -35 -16 -72.5
t-60 -88.5q-71 -80 -87 -113.5t-19 -92.5zM215 96q23 0 39 -16t16 -39q0 -22 -16.5 -38t-38.5 -16q-23 0 -38.5 16t-15.5 38q0 23 15.5 39t38.5 16z" />
    <glyph glyph-name="at" unicode="@" horiz-adv-x="921" 
d="M687 468l-57 -195q-31 -109 -38 -138.5t-7 -47.5q0 -15 10.5 -26t26.5 -11q35 0 85 36t86 116t36 167q0 83 -40.5 154t-114 108.5t-162.5 37.5q-113 0 -209.5 -59.5t-153 -172t-56.5 -233.5q0 -112 49.5 -204t139.5 -139t194 -47q128 0 232 69t160 201h28
q-43 -134 -159 -217t-264 -83q-116 0 -215.5 55t-155 156t-55.5 222q0 129 60.5 240.5t170 174t231.5 62.5q101 0 182.5 -41.5t124 -122t42.5 -170.5q0 -89 -40 -177t-101.5 -128t-128.5 -40q-37 0 -55.5 17.5t-18.5 49.5q0 27 8 72q-72 -88 -115.5 -113.5t-76.5 -25.5
q-35 0 -61.5 31t-26.5 82q0 71 46 159t122 143q56 41 101 41q32 0 54 -17t30 -51l16 54zM516 448q-37 0 -74 -39q-55 -56 -94 -153q-29 -70 -29 -113q0 -31 17.5 -50t38.5 -19q28 0 59.5 21.5t65.5 66t50 89.5q27 78 27 126q0 33 -17.5 52t-43.5 19z" />
    <glyph glyph-name="A" unicode="A" horiz-adv-x="722" 
d="M458 222h-257l-45 -105q-16 -38 -16 -57q0 -16 14 -27.5t62 -14.5v-18h-208v18q41 7 54 19q24 24 55 95l233 545h17l230 -551q28 -66 50.5 -85.5t63.5 -22.5v-18h-261v18q39 2 53 13t14 28q0 21 -19 67zM444 258l-112 267l-116 -267h228z" />
    <glyph glyph-name="B" unicode="B" horiz-adv-x="667" 
d="M462 338q69 -15 103 -47q47 -45 47 -110q0 -49 -31 -94t-85.5 -66t-166.5 -21h-312v18h25q41 0 59 26q11 18 11 73v428q0 61 -14 78q-19 21 -56 21h-25v18h286q80 0 128 -12q73 -17 112 -62t39 -103q0 -49 -30.5 -88.5t-89.5 -58.5zM206 364q18 -3 41.5 -5t50.5 -2
q72 0 107.5 15.5t54.5 47.5t19 69q0 58 -47 99t-138 41q-49 0 -88 -10v-255zM206 48q57 -13 112 -13q88 0 134.5 39.5t46.5 98.5q0 38 -21 74t-68.5 56.5t-117.5 20.5q-30 0 -51.5 -1t-34.5 -4v-271z" />
    <glyph glyph-name="C" unicode="C" horiz-adv-x="667" 
d="M602 677l15 -225h-15q-30 101 -86.5 145.5t-134.5 44.5q-66 0 -119.5 -33.5t-84 -106.5t-30.5 -182q0 -90 29 -156t87 -101t132 -35q64 0 113.5 27.5t108.5 109.5l15 -10q-49 -88 -115.5 -129t-158.5 -41q-164 0 -254 122q-68 91 -68 214q0 99 44.5 182t122.5 128.5
t170 45.5q72 0 142 -35q20 -11 29 -11q13 0 23 10q13 13 18 36h17z" />
    <glyph glyph-name="D" unicode="D" horiz-adv-x="722" 
d="M17 0v18h25q42 0 60 27q10 16 10 72v428q0 62 -13 78q-19 21 -57 21h-25v18h270q148 0 225.5 -33.5t124.5 -112.5t47 -182q0 -138 -84 -230q-94 -104 -287 -104h-296zM206 48q62 -14 104 -14q113 0 188 79.5t75 216.5t-75 216t-192 79q-44 0 -100 -14v-563z" />
    <glyph glyph-name="E" unicode="E" horiz-adv-x="611" 
d="M209 626v-262h145q57 0 76 17q26 23 28 79h19v-230h-19q-6 48 -13 62q-9 17 -29 27t-62 10h-145v-219q0 -44 4 -53.5t13.5 -15t37.5 -5.5h112q56 0 81.5 8t48.5 31q31 30 62 91h20l-57 -166h-510v18h23q23 0 44 11q16 8 21.5 23.5t5.5 64.5v430q0 63 -12 78
q-18 19 -59 19h-23v18h510l7 -145h-19q-10 52 -22.5 71.5t-37.5 30.5q-19 7 -68 7h-182z" />
    <glyph glyph-name="F" unicode="F" horiz-adv-x="556" 
d="M205 626v-260h120q42 0 61 18t26 73h18v-225h-18q-1 39 -10.5 57t-26.5 27t-50 9h-120v-208q0 -50 6 -66q5 -12 20 -21q22 -12 45 -12h24v-18h-284v18h24q41 0 59 24q12 16 12 75v428q0 50 -7 66q-4 13 -20 21q-21 12 -44 12h-24v18h493l6 -145h-17q-13 46 -29.5 67.5
t-41.5 31.5t-76 10h-146z" />
    <glyph glyph-name="G" unicode="G" horiz-adv-x="722" 
d="M614 677l17 -209h-17q-26 78 -67 118q-59 57 -152 57q-126 0 -192 -100q-56 -85 -56 -201q0 -95 37 -173t96 -114.5t122 -36.5q36 0 70.5 9.5t66.5 27.5v191q0 50 -8 65.5t-23.5 23.5t-55.5 8v18h256v-18h-12q-38 0 -52 -26q-10 -18 -10 -71v-203q-56 -30 -111 -44
t-122 -14q-192 0 -291 123q-75 92 -75 213q0 87 42 167q50 95 137 147q73 42 172 42q36 0 65.5 -5.5t83.5 -25.5q27 -11 37 -11q9 0 15.5 8.5t8.5 33.5h18z" />
    <glyph glyph-name="H" unicode="H" horiz-adv-x="722" 
d="M206 355h307v189q0 51 -6 67q-5 13 -21 21q-21 12 -44 12h-24v18h284v-18h-24q-23 0 -44 -11q-16 -8 -21.5 -24t-5.5 -65v-427q0 -50 6 -66q5 -12 20 -21q22 -12 45 -12h24v-18h-284v18h24q40 0 59 24q12 16 12 75v202h-307v-202q0 -50 6 -66q5 -12 20 -21q21 -12 45 -12
h24v-18h-284v18h24q41 0 59 24q12 16 12 75v427q0 51 -7 67q-4 13 -20 21q-21 12 -44 12h-24v18h284v-18h-24q-24 0 -45 -11q-15 -8 -20.5 -24t-5.5 -65v-189z" />
    <glyph glyph-name="I" unicode="I" horiz-adv-x="333" 
d="M309 18v-18h-284v18h23q41 0 60 24q12 16 12 75v428q0 50 -7 66q-5 13 -20 21q-21 12 -45 12h-23v18h284v-18h-24q-41 0 -59 -24q-13 -16 -13 -75v-428q0 -50 7 -66q5 -12 20 -21q21 -12 45 -12h24z" />
    <glyph glyph-name="J" unicode="J" horiz-adv-x="389" 
d="M100 644v18h283v-18h-24q-40 0 -59 -24q-11 -16 -11 -75v-324q0 -75 -16.5 -121t-56.5 -80.5t-97 -34.5q-46 0 -72 22.5t-26 52.5q0 23 12 36q16 15 37 15q16 0 28.5 -10.5t31.5 -54.5q11 -26 29 -26q13 0 24.5 16t11.5 57v452q0 50 -7 66q-4 13 -20 21q-21 12 -44 12
h-24z" />
    <glyph glyph-name="K" unicode="K" horiz-adv-x="722" 
d="M299 367l244 -242q60 -61 102.5 -82.5t84.5 -24.5v-18h-314v18q28 0 40.5 9.5t12.5 21.5t-5 21t-30 34l-229 227v-214q0 -50 6 -66q5 -12 21 -21q21 -12 44 -12h23v-18h-282v18h23q41 0 60 24q11 16 11 75v428q0 50 -6 67q-5 12 -20 20q-22 12 -45 12h-23v18h282v-18h-23
q-23 0 -44 -11q-15 -8 -21 -23.5t-6 -64.5v-203q10 10 67 62q145 133 175 178q13 19 13 34q0 11 -10 19.5t-34 8.5h-16v18h244v-18q-22 0 -39.5 -5.5t-43 -21t-62.5 -49.5q-11 -10 -99 -100z" />
    <glyph glyph-name="L" unicode="L" horiz-adv-x="611" 
d="M573 183l16 -3l-56 -180h-513v18h25q42 0 60 27q10 16 10 73v427q0 62 -13 78q-19 21 -57 21h-25v18h300v-18q-53 1 -74 -9.5t-29 -26t-8 -74.5v-416q0 -41 8 -56q6 -10 18 -15t76 -5h48q77 0 107.5 11t56 40t50.5 90z" />
    <glyph glyph-name="M" unicode="M" horiz-adv-x="889" 
d="M409 0l-256 557v-442q0 -61 14 -76q18 -21 57 -21h23v-18h-230v18h23q42 0 60 25q10 16 10 72v432q0 44 -9 64q-7 14 -25.5 23.5t-58.5 9.5v18h187l240 -518l237 518h187v-18h-23q-42 0 -60 -25q-11 -16 -11 -72v-432q0 -61 14 -76q18 -21 57 -21h23v-18h-281v18h23
q43 0 60 25q11 16 11 72v442l-256 -557h-16z" />
    <glyph glyph-name="N" unicode="N" horiz-adv-x="722" 
d="M-13 662h180l404 -496v381q0 61 -13 77q-18 20 -58 20h-22v18h230v-18h-23q-42 0 -60 -25q-11 -16 -11 -72v-558h-17l-437 533v-407q0 -61 13 -76q19 -21 57 -21h24v-18h-231v18h23q43 0 60 25q11 16 11 72v460q-29 34 -43.5 44.5t-43.5 20.5q-14 4 -43 4v18z" />
    <glyph glyph-name="O" unicode="O" horiz-adv-x="722" 
d="M366 677q129 0 223.5 -98t94.5 -244q0 -151 -95.5 -250.5t-230.5 -99.5q-137 0 -230 97t-93 251q0 158 108 258q93 86 223 86zM356 642q-88 0 -142 -66q-67 -82 -67 -241q0 -162 69 -249q54 -66 141 -66q93 0 154 72.5t61 229.5q0 170 -67 253q-54 67 -149 67z" />
    <glyph glyph-name="P" unicode="P" horiz-adv-x="556" 
d="M205 310v-193q0 -62 14 -77q18 -22 56 -22h25v-18h-283v18h25q41 0 60 27q9 16 9 72v428q0 62 -13 78q-19 21 -56 21h-25v18h242q89 0 140.5 -18.5t86.5 -61.5t35 -103q0 -81 -53.5 -132t-151.5 -51q-24 0 -51.5 3.5t-59.5 10.5zM205 338q26 -5 46 -7.5t34 -2.5
q51 0 88 39.5t37 101.5q0 43 -17.5 80t-50 55.5t-73.5 18.5q-25 0 -64 -10v-275z" />
    <glyph glyph-name="Q" unicode="Q" horiz-adv-x="722" 
d="M440 -7q50 -86 108 -126.5t132 -46.5v-16q-68 3 -144.5 27.5t-145 68t-118.5 93.5q-70 28 -111 60q-60 47 -93 116t-33 164q0 148 96.5 246t232.5 98q130 0 225 -98.5t95 -247.5q0 -122 -67.5 -214t-176.5 -124zM358 640q-88 0 -143 -64q-68 -79 -68 -243q0 -161 69 -248
q54 -67 142 -67q92 0 148 67q66 79 66 233q0 119 -36 200q-28 63 -74 92.5t-104 29.5z" />
    <glyph glyph-name="R" unicode="R" horiz-adv-x="667" 
d="M676 0h-177l-224 310q-25 -1 -41 -1h-13.5t-14.5 1v-193q0 -62 13 -77q19 -22 56 -22h26v-18h-284v18h25q42 0 60 27q10 16 10 72v428q0 62 -13 78q-19 21 -57 21h-25v18h241q106 0 156 -15.5t85 -56.5t35 -98q0 -61 -40 -106t-123 -64l136 -190q47 -65 81 -86.5
t88 -27.5v-18zM206 340h16h11q95 0 143 41t48 104q0 62 -39 101t-103 39q-28 0 -76 -9v-276z" />
    <glyph glyph-name="S" unicode="S" horiz-adv-x="556" 
d="M458 677v-229h-18q-8 66 -31 105t-65 62t-87 23q-50 0 -83.5 -31t-33.5 -70q0 -31 21 -56q30 -36 144 -97q93 -50 127 -76.5t52 -63t18 -75.5q0 -75 -58 -129.5t-150 -54.5q-29 0 -54 4q-15 3 -63 18t-60 15q-13 0 -20 -7t-10 -30h-18v227h18q13 -71 34.5 -106.5
t65.5 -59t97 -23.5q61 0 96.5 32t35.5 76q0 25 -13.5 50t-42.5 46q-19 15 -104 62.5t-120.5 76t-54.5 62.5t-19 75q0 71 55 122.5t139 51.5q53 0 112 -26q28 -12 39 -12q12 0 20.5 7.5t12.5 30.5h18z" />
    <glyph glyph-name="T" unicode="T" horiz-adv-x="611" 
d="M579 662l7 -155h-19q-5 41 -14 58q-15 29 -40.5 42.5t-66.5 13.5h-93v-506q0 -61 13 -76q19 -21 57 -21h23v-18h-280v18h23q42 0 60 25q10 16 10 72v506h-79q-47 0 -66 -7q-26 -10 -44 -36t-21 -71h-19l8 155h541z" />
    <glyph glyph-name="U" unicode="U" horiz-adv-x="722" 
d="M477 644v18h234v-18h-24q-40 0 -61 -33q-10 -15 -10 -70v-269q0 -99 -19.5 -154t-77.5 -94.5t-158 -39.5q-108 0 -164 38t-80 101q-15 44 -15 163v259q0 61 -17 80t-55 19h-25v18h287v-18h-26q-41 0 -58 -26q-13 -17 -13 -73v-289q0 -38 7 -88t26 -78t53.5 -46t85.5 -18
q65 0 116.5 28.5t70 72.5t18.5 150v268q0 62 -13 78q-19 21 -57 21h-25z" />
    <glyph glyph-name="V" unicode="V" horiz-adv-x="722" 
d="M710 662v-18q-35 -6 -53 -22q-26 -24 -46 -74l-231 -563h-18l-248 571q-19 44 -27 53q-12 16 -30 24.5t-48 10.5v18h270v-18q-46 -4 -59.5 -15.5t-13.5 -28.5q0 -25 23 -77l168 -388l156 384q23 56 23 78q0 14 -14 27t-48 19q-2 0 -8 1v18h204z" />
    <glyph glyph-name="W" unicode="W" horiz-adv-x="944" 
d="M936 662v-18q-26 0 -42 -9.5t-31 -34.5q-9 -17 -30 -81l-185 -534h-20l-150 423l-150 -423h-18l-197 550q-22 61 -28 72q-9 19 -26 28t-46 9v18h245v-18h-11q-26 0 -40 -11.5t-14 -28.5t22 -79l130 -371l110 316l-19 55l-16 45q-10 24 -23 43q-6 9 -16 15q-12 9 -24 13
q-9 3 -29 3v18h257v-18h-17q-27 0 -40 -11.5t-13 -31.5q0 -25 22 -87l127 -360l126 365q22 60 22 84q0 11 -7.5 20.5t-17.5 13.5q-19 7 -49 7v18h198z" />
    <glyph glyph-name="X" unicode="X" horiz-adv-x="722" 
d="M408 367l142 -212q59 -88 88 -111t72 -26v-18h-284v18q29 1 42 6q11 4 17.5 13t6.5 19q0 11 -5 22q-3 8 -27 43l-112 170l-139 -178q-22 -28 -26 -37.5t-4 -19.5q0 -16 13 -26t50 -12v-18h-235v18q25 3 43 10q31 13 58 34.5t62 65.5l157 198l-131 191q-53 77 -90 101.5
t-85 25.5v18h306v-18q-39 -1 -53.5 -12.5t-14.5 -25.5q0 -18 23 -52l102 -152l117 149q21 26 25.5 36t4.5 20t-6 18q-7 10 -18 14.5t-47 4.5v18h235v-18q-28 -1 -45 -9q-26 -11 -48 -30t-62 -70z" />
    <glyph glyph-name="Y" unicode="Y" horiz-adv-x="722" 
d="M477 662h231v-18h-13q-13 0 -37.5 -11t-44.5 -32t-49 -69l-160 -251v-166q0 -61 14 -76q19 -21 59 -21h21v-18h-281v18h23q42 0 60 25q11 16 11 72v156l-182 278q-32 49 -43.5 61t-47.5 29q-10 5 -29 5v18h283v-18h-14q-23 0 -42.5 -10.5t-19.5 -32.5q0 -18 30 -63
l138 -214l130 204q29 46 29 69q0 13 -7 24t-20 17t-39 6v18z" />
    <glyph glyph-name="Z" unicode="Z" horiz-adv-x="611" 
d="M575 662l-435 -622h272q62 0 95.5 27.5t59.5 110.5l16 -3l-31 -175h-539v18l424 605h-211q-53 0 -77 -11.5t-36 -33.5t-23 -81h-18l13 165h490z" />
    <glyph glyph-name="bracketleft" unicode="[" horiz-adv-x="333" 
d="M297 -198h-215v875h215v-38h-142v-799h142v-38z" />
    <glyph glyph-name="backslash" unicode="\" horiz-adv-x="278" 
d="M41 694l239 -708h-39l-240 708h40z" />
    <glyph glyph-name="bracketright" unicode="]" horiz-adv-x="333" 
d="M37 677h214v-876h-214v39h141v799h-141v38z" />
    <glyph glyph-name="asciicircum" unicode="^" horiz-adv-x="469" 
d="M243 676l208 -350h-45l-171 286l-171 -286h-46l211 350h14z" />
    <glyph glyph-name="underscore" unicode="_" horiz-adv-x="500" 
d="M509 -216h-517v41h517v-41z" />
    <glyph glyph-name="grave" unicode="`" horiz-adv-x="333" 
d="M58 679h109l51 -169h-17z" />
    <glyph glyph-name="a" unicode="a" horiz-adv-x="444" 
d="M285 64q-69 -53 -87 -61q-26 -12 -56 -12q-46 0 -76 31.5t-30 83.5q0 33 14 57q20 33 69.5 62t165.5 71v18q0 67 -21.5 92t-61.5 25q-31 0 -49 -17q-19 -17 -19 -38l1 -28q0 -23 -11.5 -35t-29.5 -12t-29.5 12.5t-11.5 34.5q0 42 43 77t120 35q60 0 98 -20q29 -15 42 -47
q9 -21 9 -86v-152q0 -64 2.5 -78.5t8 -19t13.5 -4.5q7 0 13 3q11 6 40 36v-28q-55 -73 -105 -73q-24 0 -38 16.5t-14 56.5zM285 96v171q-74 -30 -96 -42q-38 -21 -54.5 -44.5t-16.5 -51.5q0 -35 21 -58.5t48 -23.5q37 0 98 49z" />
    <glyph glyph-name="b" unicode="b" horiz-adv-x="500" 
d="M154 370q65 90 140 90q69 0 120 -58.5t51 -160.5q0 -119 -79 -192q-68 -63 -151 -63q-39 0 -79.5 14.5t-82.5 42.5v463q0 77 -3.5 94.5t-11.5 23.5t-19 6q-14 0 -35 -7l-6 17l134 54h22v-324zM154 339v-268q25 -24 51.5 -36.5t54.5 -12.5q44 0 82.5 49t38.5 142
q0 86 -38.5 132t-87.5 46q-26 0 -51 -13q-20 -10 -50 -39z" />
    <glyph glyph-name="c" unicode="c" horiz-adv-x="444" 
d="M411 170q-18 -88 -70.5 -136t-116.5 -48q-77 0 -133.5 64t-56.5 173q0 106 63 171.5t151 65.5q65 0 107.5 -34.5t42.5 -72.5q0 -19 -11.5 -30t-33.5 -11q-29 0 -43 18q-9 10 -11.5 39t-19.5 44t-48 15q-48 0 -78 -36q-40 -48 -40 -127q0 -80 39.5 -141.5t106.5 -61.5
q48 0 86 33q27 23 52 82z" />
    <glyph glyph-name="d" unicode="d" horiz-adv-x="500" 
d="M347 50q-33 -34 -64 -49t-67 -15q-73 0 -128 61.5t-55 157.5t60.5 176t156.5 80q59 0 97 -38v83q0 77 -3.5 94.5t-11.5 23.5t-20 6t-33 -7l-7 17l134 54h22v-517q0 -78 3.5 -95.5t11.5 -24.5t19 -7q13 0 35 9l5 -17l-132 -56h-23v64zM347 84v231q-3 33 -17.5 60.5
t-38.5 41.5t-47 14q-43 0 -77 -39q-44 -51 -44 -148q0 -99 42.5 -151.5t95.5 -52.5q45 0 86 44z" />
    <glyph glyph-name="e" unicode="e" horiz-adv-x="444" 
d="M106 279q0 -100 49 -156q49 -57 115 -57q43 0 75.5 24t54.5 83l16 -10q-11 -67 -60 -122t-124 -55q-80 0 -137.5 63t-57.5 169q0 115 59 179t148 64q75 0 123.5 -49.5t48.5 -132.5h-310zM106 307h207q-2 43 -10 61q-12 27 -36 42.5t-51 15.5q-40 0 -72 -31.5t-38 -87.5z
" />
    <glyph glyph-name="f" unicode="f" horiz-adv-x="333" 
d="M206 412v-294q0 -62 14 -79q18 -21 48 -21h41v-18h-267v18h20q19 0 35 9.5t22 26t6 64.5v294h-86v35h86v30q0 66 21.5 112.5t66 75t99.5 28.5q51 0 94 -33q29 -22 29 -49q0 -15 -13 -28t-27 -13q-12 0 -24.5 8t-30.5 35t-33 36t-34 9q-22 0 -37.5 -12t-22.5 -37t-7 -130
v-32h115v-35h-115z" />
    <glyph glyph-name="g" unicode="g" horiz-adv-x="500" 
d="M151 163q-41 20 -63 56t-22 79q0 67 50 114.5t128 47.5q64 0 111 -31h95q21 0 24.5 -1t4.5 -4q3 -5 3 -16q0 -12 -3 -17q-1 -3 -4.5 -4.5t-24.5 -1.5h-58q27 -35 27 -90q0 -62 -48 -106.5t-128 -44.5q-34 0 -68 10q-22 -19 -29.5 -33t-7.5 -23t8 -16.5t32 -11.5
q13 -2 68 -3q101 -3 130 -7q46 -6 73 -33.5t27 -67.5q0 -55 -52 -104q-76 -71 -198 -71q-95 0 -160 43q-36 24 -36 50q0 12 5 24q8 18 34 50q4 5 50 53q-25 15 -35.5 27t-10.5 27q0 17 14 40t64 65zM236 437q-36 0 -60.5 -29t-24.5 -88q0 -77 33 -120q25 -32 65 -32
q37 0 60.5 28t23.5 87q0 78 -33 122q-25 32 -64 32zM146 0q-23 -25 -34.5 -46.5t-11.5 -39.5q0 -23 28 -41q49 -30 141 -30q88 0 129.5 31t41.5 66q0 25 -24 36q-26 11 -101 13q-110 3 -169 11z" />
    <glyph glyph-name="h" unicode="h" horiz-adv-x="500" 
d="M163 694v-327q54 60 85.5 76.5t63.5 16.5q38 0 65.5 -21t40.5 -65q9 -32 9 -115v-158q0 -42 7 -58q5 -12 16.5 -18.5t43.5 -6.5v-18h-220v18h10q31 0 43.5 9.5t17.5 27.5q1 8 1 46v158q0 74 -7.5 96.5t-24 34t-40.5 11.5t-49.5 -12.5t-61.5 -51.5v-236q0 -46 5 -57
t19 -18.5t48 -7.5v-18h-222v18q30 0 47 9q10 5 16 18.5t6 55.5v405q0 77 -4 94.5t-11.5 23.5t-20.5 6q-10 0 -33 -7l-7 17l134 54h23z" />
    <glyph glyph-name="i" unicode="i" horiz-adv-x="278" 
d="M145 694q21 0 35 -14t14 -35q0 -20 -14 -35t-35 -15q-20 0 -35 15t-15 35q0 21 14.5 35t35.5 14zM186 460v-359q0 -42 6 -56t18 -20.5t43 -6.5v-18h-217v18q33 0 44 6t17.5 21t6.5 56v172q0 73 -4 95q-3 15 -10.5 21.5t-20.5 6.5t-33 -8l-7 18l135 54h22z" />
    <glyph glyph-name="j" unicode="j" horiz-adv-x="278" 
d="M145 695q21 0 35.5 -14.5t14.5 -35.5t-14.5 -35.5t-35.5 -14.5t-35.5 14.5t-14.5 35.5t14.5 35.5t35.5 14.5zM187 460v-450q0 -114 -49 -170t-127 -56q-45 0 -66.5 16t-21.5 33q0 18 12 30t28 12q13 0 26 -6q9 -4 32.5 -25t39.5 -21q12 0 23 9t16.5 30t5.5 92v318
q0 74 -4 95q-4 16 -11.5 22.5t-19.5 6.5q-14 0 -33 -8l-7 18l135 54h21z" />
    <glyph glyph-name="k" unicode="k" horiz-adv-x="500" 
d="M164 694v-445l113 104q36 33 42 42q4 6 4 12q0 10 -8 17t-26 8v15h194v-15q-40 -1 -66.5 -12.5t-58.5 -40.5l-115 -106l115 -145q48 -60 64 -76q24 -23 41 -30q13 -4 43 -4v-18h-217v18q18 0 24.5 5t6.5 15q0 11 -19 36l-137 175v-148q0 -44 6 -57.5t17 -19.5t49 -6v-18
h-228v18q34 0 52 8q10 5 15 16q8 17 8 56v407q0 78 -3.5 95.5t-11.5 24t-21 6.5q-10 0 -30 -8l-9 17l133 54h23z" />
    <glyph glyph-name="l" unicode="l" horiz-adv-x="278" 
d="M185 694v-593q0 -42 6 -55.5t19 -20.5t47 -7v-18h-219v18q31 0 42 6t17.5 21t6.5 56v406q0 76 -3.5 93.5t-11 23.5t-19.5 6t-32 -7l-8 17l133 54h22z" />
    <glyph glyph-name="m" unicode="m" horiz-adv-x="778" 
d="M164 365q49 49 58 56q22 19 47 29t50 10q42 0 72.5 -24t40.5 -71q50 59 85 77t71 18t63.5 -18t43.5 -60q11 -28 11 -89v-192q0 -42 6 -58q5 -10 18.5 -17.5t42.5 -7.5v-18h-220v18h9q29 0 45 11q11 8 16 25q2 8 2 47v192q0 55 -13 78q-19 31 -61 31q-26 0 -52 -13
t-63 -48l-1 -6l1 -21v-213q0 -46 5 -57t19 -18.5t48 -7.5v-18h-226v18q37 0 51 8.5t20 26.5q2 8 2 48v192q0 55 -16 79q-22 31 -60 31q-27 0 -52 -14q-41 -21 -63 -48v-240q0 -44 6 -57t18 -19.5t49 -6.5v-18h-221v18q30 0 42.5 6.5t18.5 21t6 55.5v171q0 74 -4 95
q-3 16 -10.5 22.5t-20.5 6.5t-32 -8l-8 18l135 54h21v-95z" />
    <glyph glyph-name="n" unicode="n" horiz-adv-x="500" 
d="M162 366q78 94 150 94q36 0 62.5 -18t42.5 -60q10 -29 10 -90v-191q0 -42 7 -58q5 -12 17 -18.5t45 -6.5v-18h-222v18h10q31 0 43.5 9.5t17.5 27.5q2 7 2 46v183q0 61 -16 88.5t-54 27.5q-58 0 -115 -63v-236q0 -45 5 -56q7 -14 19 -20.5t48 -6.5v-18h-221v18h10
q34 0 46 17t12 66v166q0 81 -3.5 98.5t-11 24t-20.5 6.5q-14 0 -33 -8l-7 18l135 54h21v-94z" />
    <glyph glyph-name="o" unicode="o" horiz-adv-x="500" 
d="M250 460q102 0 163 -77q52 -66 52 -151q0 -60 -28.5 -121.5t-79 -93t-112.5 -31.5q-101 0 -161 81q-50 68 -50 152q0 62 30.5 122.5t80 89.5t105.5 29zM235 429q-26 0 -52 -15.5t-42 -54t-16 -99.5q0 -97 38.5 -168t102.5 -71q47 0 78 39t31 134q0 119 -52 188
q-34 47 -88 47z" />
    <glyph glyph-name="p" unicode="p" horiz-adv-x="500" 
d="M-1 403l138 55h18v-104q35 59 70 82.5t73 23.5q68 0 113 -52q55 -65 55 -168q0 -116 -67 -192q-54 -62 -137 -62q-36 0 -63 11q-19 7 -44 29v-136q0 -46 6 -58.5t19.5 -20t50.5 -7.5v-18h-234v18h12q27 0 46 10q9 6 14 18t5 61v422q0 44 -4 55.5t-12.5 17.5t-22.5 6
q-12 0 -30 -7zM155 325v-167q0 -54 5 -71q7 -28 33.5 -49.5t66.5 -21.5q49 0 79 38q40 50 40 140q0 102 -45 158q-31 38 -74 38q-24 0 -47 -12q-17 -9 -58 -53z" />
    <glyph glyph-name="q" unicode="q" horiz-adv-x="500" 
d="M427 460v-575q0 -43 6 -55t18.5 -19t48.5 -7v-18h-226v18h10q27 0 41 8q10 5 16 19t6 54v193q-45 -53 -78 -72.5t-69 -19.5q-65 0 -116 59t-51 159q0 113 67.5 184.5t162.5 71.5q28 0 51.5 -7.5t41.5 -23.5q29 14 55 31h16zM347 108v210q0 37 -9.5 58t-34 35.5
t-55.5 14.5q-55 0 -94 -46.5t-39 -140.5q0 -90 40 -137t96 -47q29 0 51.5 12.5t44.5 40.5z" />
    <glyph glyph-name="r" unicode="r" horiz-adv-x="333" 
d="M162 460v-100q56 100 115 100q27 0 44.5 -16t17.5 -38q0 -19 -12.5 -32t-30.5 -13q-17 0 -38 17t-31 17q-9 0 -19 -10q-22 -20 -46 -66v-215q0 -37 9 -56q7 -13 23 -21.5t46 -8.5v-18h-229v18q34 0 51 10q12 8 17 25q3 9 3 48v173q0 78 -3.5 93t-12 22t-21.5 7
q-15 0 -34 -8l-5 18l136 54h20z" />
    <glyph glyph-name="s" unicode="s" horiz-adv-x="389" 
d="M320 460v-152h-16q-18 72 -47 98t-74 26q-35 0 -56 -18t-21 -40q0 -28 16 -47q15 -20 62 -43l71 -34q99 -49 99 -128q0 -61 -46 -98.5t-103 -37.5q-41 0 -94 15q-16 5 -27 5t-17 -13h-16v160h16q14 -69 52.5 -103.5t86.5 -34.5q33 0 54.5 20t21.5 48q0 33 -24 56
t-94.5 58t-92.5 64q-22 28 -22 70q0 55 38 92t98 37q26 0 64 -11q24 -7 33 -7q8 0 12 3.5t10 14.5h16z" />
    <glyph glyph-name="t" unicode="t" horiz-adv-x="278" 
d="M161 594v-147h105v-34h-105v-290q0 -43 12.5 -58.5t32.5 -15.5q16 0 31 10t23 30h19q-17 -48 -48 -72t-64 -24q-23 0 -44.5 12.5t-31.5 35.5t-10 71v301h-71v16q27 11 55 36.5t50 60.5q11 19 31 68h15z" />
    <glyph glyph-name="u" unicode="u" horiz-adv-x="500" 
d="M423 447v-271q0 -77 4 -94.5t12 -24.5t19 -7q15 0 34 9l7 -17l-134 -56h-22v95q-58 -62 -88 -78.5t-64 -16.5q-38 0 -65.5 22t-38 56t-10.5 97v199q0 32 -7 44.5t-20.5 19t-48.5 5.5v18h157v-299q0 -63 21.5 -82.5t52.5 -19.5q21 0 47.5 13.5t63.5 50.5v253
q0 38 -14 51.5t-58 14.5v18h152z" />
    <glyph glyph-name="v" unicode="v" horiz-adv-x="500" 
d="M8 447h211v-18h-14q-19 0 -29 -9t-10 -25q0 -17 10 -41l104 -247l105 257q11 27 11 41q0 7 -4 12q-5 7 -13.5 9.5t-33.5 2.5v18h146v-18q-26 -2 -35 -10q-18 -15 -31 -49l-159 -384h-20l-160 378q-10 26 -20 37.5t-25 19.5q-8 4 -33 8v18z" />
    <glyph glyph-name="w" unicode="w" horiz-adv-x="722" 
d="M6 447h188v-18q-26 -2 -34 -9t-8 -21q0 -15 8 -37l96 -257l96 209l-25 66q-12 30 -31 41q-11 7 -40 8v18h213v-18q-35 -1 -50 -12q-10 -8 -10 -25q0 -10 4 -20l102 -257l94 247q10 27 10 42q0 10 -9.5 17t-37.5 8v18h141v-18q-43 -6 -63 -57l-149 -386h-20l-112 286
l-130 -286h-18l-144 376q-14 36 -27.5 48.5t-43.5 18.5v18z" />
    <glyph glyph-name="x" unicode="x" horiz-adv-x="500" 
d="M13 447h211v-18q-20 0 -28.5 -6.5t-8.5 -18.5q0 -11 18 -36q5 -8 16 -24l31 -51l37 51q35 48 35 61q0 10 -8 17t-27 7v18h151v-18q-23 -1 -41 -13q-24 -17 -66 -72l-61 -82l112 -160q41 -59 58.5 -71t45.5 -13v-18h-211v18q22 0 34 9q9 7 9 18q0 12 -31 57l-65 96
l-72 -96q-33 -44 -33 -53q0 -11 11 -20.5t33 -10.5v-18h-146v18q17 2 30 12q19 14 63 72l94 125l-85 123q-36 52 -56 65.5t-50 13.5v18z" />
    <glyph glyph-name="y" unicode="y" horiz-adv-x="500" 
d="M6 447h208v-18h-10q-22 0 -33 -9.5t-11 -23.5q0 -19 16 -53l109 -225l100 247q9 20 9 39q0 9 -4 13q-4 6 -12 9t-29 3v18h145v-18q-18 -2 -27.5 -7.5t-21.5 -22.5q-5 -6 -17 -37l-182 -446q-26 -65 -69 -98.5t-82 -33.5q-29 0 -47.5 16.5t-18.5 38.5q0 20 13.5 32.5
t36.5 12.5q16 0 44 -10q20 -8 24 -8q15 0 32.5 15t34.5 59l32 78l-161 337q-7 15 -23 38q-12 17 -20 23q-11 7 -36 13v18z" />
    <glyph glyph-name="z" unicode="z" horiz-adv-x="444" 
d="M420 137l-5 -137h-395v18l297 395h-147q-47 0 -61.5 -6t-24.5 -23q-13 -25 -15 -61h-19l3 124h375v-18l-300 -396h163q51 0 69.5 8.5t29.5 29.5q8 16 13 66h17z" />
    <glyph glyph-name="braceleft" unicode="{" horiz-adv-x="480" 
d="M411 -199v-17q-82 11 -133 66t-51 122q0 35 11.5 82t11.5 72q0 36 -30 66.5t-82 36.5v21q52 6 82 36.5t30 66.5q0 25 -11.5 71.5t-11.5 82.5q0 66 51 121.5t133 65.5v-17q-57 -13 -84 -44t-27 -69q0 -28 11 -75.5t11 -80.5q0 -49 -36 -95.5t-108 -71.5
q71 -26 107.5 -73.5t36.5 -96.5q0 -33 -11 -80.5t-11 -75.5q0 -38 27 -69t84 -45z" />
    <glyph glyph-name="bar" unicode="|" horiz-adv-x="200" 
d="M119 694v-910h-40v910h40z" />
    <glyph glyph-name="braceright" unicode="}" horiz-adv-x="480" 
d="M86 677v17q82 -10 133 -65t51 -123q0 -35 -11 -81.5t-11 -71.5q0 -36 29.5 -66.5t81.5 -36.5v-21q-52 -6 -81.5 -36.5t-29.5 -66.5q0 -25 11 -72t11 -82q0 -66 -51 -121.5t-133 -66.5v17q58 14 84.5 45t26.5 69q0 28 -11.5 75.5t-11.5 79.5q0 50 36.5 96.5t108.5 71.5
q-70 26 -107.5 73.5t-37.5 96.5q0 33 11.5 80.5t11.5 75.5q0 38 -26.5 69t-84.5 44z" />
    <glyph glyph-name="asciitilde" unicode="~" horiz-adv-x="541" 
d="M509 330h22q-2 -64 -36.5 -100t-83.5 -36q-22 0 -48 7.5t-134 51.5q-75 32 -107 32q-34 0 -57.5 -21t-33.5 -69h-21q3 66 36 101t78 35q22 0 44 -7q51 -14 133.5 -49.5t116.5 -35.5q37 0 61.5 23.5t29.5 67.5z" />
    <glyph glyph-name="uni0006" horiz-adv-x="-1" 
 />
    <glyph glyph-name="uni0601" unicode="&#x601;" horiz-adv-x="532" 
d="M259 -61q-2 0 -8.5 5.5t-14.5 13t-15 14t-10 9.5q12 14 19 23.5t12 14.5t9 5t10 -5q11 -11 22 -20.5t15 -13.5q0 -1 -6 -8t-13 -15t-13 -15t-7 -8zM568 -196q-3 -6 -10 -22.5t-14.5 -34.5t-14 -34t-9.5 -22q-8 -21 -22 -41.5t-33 -36.5t-41.5 -25.5t-47.5 -9.5
q-26 0 -50 12.5t-48 20.5q-14 5 -29.5 2.5t-30.5 -9.5t-29 -16.5t-24 -18.5q-23 -23 -40.5 -42t-37.5 -39q9 42 27 87.5t46 83.5t65 64t84 29q13 1 25.5 -4t24 -11.5t23 -12t22.5 -5.5q31 0 55 13t43.5 33.5t36 44.5t31.5 46q10 14 25.5 22t32.5 6q77 -22 138 -37
t115.5 -23.5t106.5 -11t111 -1t129.5 7.5t161.5 15q48 4 103.5 15t112 26t111 33t101.5 36q115 42 205 109t170 161q1 3 4.5 5.5t7 3.5t6 0t2.5 -7q0 -14 -10 -32t-15 -28q-30 -57 -73 -106t-93.5 -90.5t-106 -77t-110.5 -66.5q-187 -81 -385.5 -119.5t-400.5 -38.5
q-69 0 -134.5 4t-131.5 12q-34 4 -64.5 11t-55 21.5t-41.5 38t-24 59.5zM288 253h16q18 0 36 5.5t18 18.5v3q-2 3 -8 9.5t-14 14t-16 13t-14 5.5h-2q0 -12 -1.5 -20.5t-5 -16t-8.5 -15t-12 -17.5h11zM196 298q0 -15 10.5 -30t25.5 -15q18 0 31.5 13.5t13.5 30.5
q0 16 -13.5 26.5t-31.5 10.5q-15 0 -25.5 -10.5t-10.5 -25.5zM328 363q11 -8 20.5 -14.5t17.5 -12.5q18 -11 18 -44q-5 -29 -18 -44.5t-31 -22.5t-39 -8.5t-41 -2.5q-29 0 -50 -6q-25 -9 -42.5 -22.5t-38.5 -34.5q21 9 41.5 10.5t44.5 1.5h13q15 0 29.5 -3t14.5 -13
q2 -11 -12 -29q-6 -6 -19 -18t-27 -25.5t-26.5 -25t-16.5 -15.5q-19 -25 -31.5 -43t-20.5 -32.5t-14 -28.5t-12 -31q-3 -7 -7.5 -16t-4.5 -11q-6 -8 -6 0q2 32 15 66.5t33.5 67.5t46.5 62t54 50q-26 5 -56 -0.5t-73 -15.5q2 19 11.5 38t22.5 36.5t29 32.5t31 26
q-7 15 -8.5 24t-1.5 24q3 39 25 61q23 23 41 44q18 17 21 29q12 -15 29 -27t38 -27z" />
    <glyph glyph-name="uni0602" unicode="&#x602;" 
d="M78 1568q-13 -1 -25.5 -10.5t-21.5 -17.5q2 -6 9.5 -11.5t16.5 -9.5t18 -6.5t14 -2.5q1 2 1.5 11.5t-0.5 20t-3.5 18.5t-8.5 8zM99 1508q20 -5 38 -5h36q54 2 102.5 9t96.5 18q11 3 9 0t-12 -10q-55 -27 -112 -40t-118 -15q-11 0 -32.5 1t-43 6t-38.5 15t-18 28
q1 13 10.5 31t23 34.5t28.5 28t28 13.5q13 0 18 -12.5t5 -23.5q0 -21 -6.5 -39.5t-14.5 -38.5z" />
    <glyph glyph-name="uni0603" unicode="&#x603;" horiz-adv-x="502" 
d="M342 91q8 0 26 2t38 8.5t38.5 17.5t28.5 28q-8 17 -29 21.5t-35 -4.5q-23 -11 -38 -32.5t-29 -40.5zM118 0q-25 0 -42.5 0.5t-42.5 4.5q-17 3 -17.5 9t19.5 11q49 8 96.5 18t96.5 34q15 9 23 16t13 12.5t8 9t8 4.5q4 0 7.5 -3.5t8.5 -8t12.5 -9t21.5 -4.5q2 3 7 11
t11 16.5t11 16.5t7 11q6 9 14.5 19t18.5 19t21.5 15t23.5 6q21 0 32 -13t11 -33q0 -32 -13.5 -60t-35.5 -49t-51.5 -33t-60.5 -12q-38 1 -53 17.5t-18 46.5q-16 -21 -28.5 -34t-27.5 -21t-34 -12t-47 -5z" />
    <glyph glyph-name="Ocircumflex.001" unicode="&#x60c;" horiz-adv-x="230" 
d="M193 313q3 -2 3 -16l-32 -16q-61 -44 -71 -81q0 -12 6 -14q34 3 49 -20q16 -30 -5 -58q-18 -24 -53 -16q-41 9 -46 60q-5 47 26 90q27 40 74 62q25 12 35 12q7 0 14 -3z" />
    <glyph glyph-name="C.002" unicode="&#x60e;" horiz-adv-x="193" 
d="M1 20q21 -43 21 -84q0 -13 -2 -25q21 -5 114 -3q59 2 143 17t135 34h6q4 -1 4 -5q-16 -33 -66 -49q-1 -1 -85 -20q-107 -25 -197 -25q-101 0 -153 34q-34 22 -34 67q0 12 3 24q13 40 37 50q21 16 53 5q7 -4 21 -20zM-27 -4q-13 9 -28 6q-34 -8 -38 -35q9 -39 90 -53
q2 8 2 16q0 31 -26 66z" />
    <glyph glyph-name="uni060F" unicode="&#x60f;" horiz-adv-x="543" 
d="M180 96q14 -15 34.5 -20t39.5 -5q54 1 98.5 31.5t77.5 69.5q5 7 10 13.5t5 14.5q-2 15 -9 25.5t-17 16.5t-22 8.5t-24 2.5q-31 0 -59.5 -16t-53 -39.5t-45 -51t-35.5 -50.5zM120 39q-29 48 -29 103q0 61 20.5 121t57.5 108q-10 8 -23.5 20.5t-13.5 27.5q0 20 11 34.5
t22 28.5q7 12 15.5 25.5t18.5 25.5t22.5 20t29.5 8q11 0 26.5 -7.5t15.5 -21.5q0 -8 -4.5 -16t-14.5 -8q-11 0 -21 6.5t-22 6.5q-11 -2 -26 -11t-16 -24q0 -10 7 -17.5t16.5 -12.5t20.5 -7.5t20 -2.5q3 0 6 1t12 5.5t26 13.5t47 26q8 3 7 -1.5t-4 -10.5q-8 -11 -20 -20
t-19 -14q-30 -21 -62 -44t-58.5 -50.5t-43.5 -60t-17 -73.5q0 -26 6.5 -53.5t22.5 -47.5q18 33 44.5 70.5t58 69.5t67.5 53.5t74 21.5q17 0 30.5 -8t23 -20.5t14.5 -28t5 -30.5q-2 -27 -12 -55t-25 -53.5t-33 -48.5t-34 -40q-28 -28 -62.5 -46t-75.5 -18q-27 0 -51.5 10
t-44.5 27q-4 -7 -12.5 -22.5t-18 -32.5t-17.5 -31.5t-12 -20.5q-2 -4 -5.5 -9.5t-8.5 -11t-10.5 -9t-11.5 -3.5q8 18 27.5 56.5t53.5 101.5z" />
    <glyph glyph-name="c157.003" unicode="&#x610;" 
d="M79 1127l-2 -3q0 -34 -6 -102l-18 -30q-5 -1 -11 5q13 94 4 161q6 29 21 51q2 5 6 2q3 -2 7 -5.5t10 -3.5q9 0 26 12q9 6 50 47q30 31 57 37q50 0 47 -38q-11 -45 -46 -82.5t-80 -48.5q-28 -7 -65 -2zM239 1254q-7 10 -30 10q-18 -7 -42 -31q-30 -29 -40 -36q16 -2 29 -2
q50 0 75 28q11 22 8 31z" />
    <glyph glyph-name="oe.003" unicode="&#x611;" 
d="M68 1255l3 -3q3 -30 6 -59q7 -32 34 -39q30 59 34 65q23 34 55 45q16 0 20 -5q10 -7 6 -18q-1 -2 -6 -7q-20 7 -28 7q-10 0 -17 -7q-25 -21 -26 -43q2 -15 11 -23q17 -14 35 -6q21 9 34 32q1 0 2.5 1t3.5 1q6 -8 0 -14q-26 -47 -39 -64q-29 -35 -64 -37q-5 -1 -11 -1
q-22 0 -48 21l-2 -53l-18 -51q1 0 -4 5l2 217q6 28 17 36z" />
    <glyph glyph-name="Ydieresis.004" unicode="&#x612;" 
d="M327 1225q0 -64 -28 -155q-10 -34 -53 -45l-72 -14q-2 0 -13 -1q-7 -2 -9 4q0 5 14 14l64 36q38 24 52 53q8 15 31 114q5 5 10 2q4 -3 4 -8zM78 1031l-16 -29q-7 -5 -11 -2q-1 19 13 52q13 30 46 58q14 11 62 42q8 8 16 24q-36 10 -82 3q-13 -6 -27 -28q-2 -1 -5 -1
t-5 0.5t-2 11.5q26 45 57 48q56 5 87 -2q5 -4 0 -26q-14 -34 -64 -77q-54 -47 -69 -74z" />
    <glyph glyph-name="c158.004" unicode="&#x613;" 
d="M54 1279l31 30q9 -1 20 -12q15 -13 19 -16v-6l-31 -31q-7 -2 -26 12q-15 18 -13 23zM58 1140l7 31q7 -2 19 -6q8 5 45 47q28 31 52 31q10 0 22 -5q8 -8 8 -20q0 -14 -14 -41q-40 -76 -113 -70q-1 -30 -2 -59q-3 -35 -20 -52q-4 0 -6 3q7 108 2 141zM289 1224
q-8 -59 -11 -79q-8 -44 -19 -76.5t-51 -44.5l-70 -16q7 0 -15 -3q-10 -1 -13 6q6 11 24 19t24 14q52 36 56 39q30 25 36 54q9 33 26 96q2 1 3 1zM189 1214q-8 4 -16 4q-17 0 -35 -21l-28 -34q62 -2 81 34q2 9 -2 17z" />
    <glyph glyph-name="uni0614" unicode="&#x614;" 
d="M188 1037q9 4 20 10.5t19 12.5q15 12 29.5 26t35.5 13q11 1 15.5 -3.5t11.5 -6.5q9 2 13.5 11.5t9.5 14.5q2 2 3 2q2 0 2 -5q-2 -10 -7 -20.5t-11 -18.5t-12.5 -13t-11.5 -4q-4 0 -6 1t-4.5 2t-6.5 1.5t-12 0.5q-14 -2 -25 -8.5t-23 -14.5q-28 -23 -61 -32t-75 -12
q-18 0 -37.5 1.5t-36.5 6.5q-8 2 -7.5 5.5t6.5 3.5q42 4 86.5 7t84.5 19z" />
    <glyph glyph-name="uni0615" unicode="&#x615;" 
d="M123 1210l27 38l6 -1q1 -7 -1 -17q-2 -14 -2 -17l-2 -54q-3 -32 -11 -53q6 1 15 8.5t13 8.5q33 11 49.5 -2.5t9.5 -40.5q-36 -64 -76 -72q-33 -2 -95 -11q-10 0 -14 4q1 16 26 23q46 56 46 92q3 13 3 47q-1 31 6 47zM107 1033v-3q32 6 40 8q22 7 34 20q8 11 7 21l-6 6
q-6 2 -12 2q-18 0 -33.5 -18.5t-29.5 -35.5z" />
    <glyph glyph-name="semicolon.002" unicode="&#x61b;" horiz-adv-x="230" 
d="M50 373q0 35 25 72q27 41 69 60q13 6 22 6q11 0 11 -7q0 -10 -19 -20.5t-40 -32.5q-24 -27 -24 -45q0 -13 14 -11q19 2 31.5 -12t12.5 -30q0 -20 -14.5 -33t-34.5 -13q-25 0 -40 22q-13 19 -13 44zM109 158q16 0 28 -12.5t12 -28.5q0 -17 -11.5 -29t-28.5 -12
q-41 0 -41 41q0 15 12 28t29 13z" />
    <glyph glyph-name="question.002" unicode="&#x61f;" horiz-adv-x="374" 
d="M200 271l-2 -51h-29q0 68 -26 105q-54 60 -66 77q-31 47 -27 94q3 37 27.5 69t60.5 44q23 8 49 8q68 0 111 -46q15 -16 20 -28q9 -21 9 -43q0 -35 -22 -56q-22 -15 -47 -6q-24 9 -26 34q-3 18 12 33q14 12 27 25q4 18 -15 35.5t-48 17.5q-16 0 -30 -6q-49 -19 -53 -86
q-3 -56 24 -98q29 -45 35 -57q17 -34 16 -65zM224 149q13 -19 5 -41q-9 -25 -36 -32q-33 -3 -50 22q-8 9 -8 24q-1 15 6 25q6 18 33 24q33 4 50 -22z" />
    <glyph glyph-name="afii57409" unicode="&#x621;" horiz-adv-x="246" 
d="M17 158q5 14 15 27q24 31 48 61q29 34 60 44t48 -12q2 -7 0 -22q-7 -11 -16 -14q-9 -2 -23 5t-23 5q-29 -9 -35 -44q0 -22 29 -34q10 -4 20 -4q19 0 43 16q35 24 42.5 27.5t13.5 1.5q2 -2 -4 -14q-4 -8 -53 -49q-13 -10 -43 -35q-30 -28 -87 -85q-21 -23 -35 -35
q-12 0 -12 7q2 19 19 39l28 34l13 16q-17 8 -20 11q-12 7 -18 16q-10 10 -10 38z" />
    <glyph glyph-name="W.003" unicode="&#x622;" horiz-adv-x="345" 
d="M340 685q-32 -92 -109 -146q-40 -27 -81 -27q-20 0 -38 7q-3 1 -11.5 7.5t-13.5 6.5q-2 0 -6 -2q-26 -14 -58 -56q-4 -3 -15 -3q-3 3 0 19q52 99 115 142q6 6 15 6q8 0 20.5 -7.5t17.5 -8.5q19 -7 39 -7q40 0 69 24q14 19 48 51q8 5 8 -6zM183 451q-3 -17 -14 -155v-59
q1 -144 -41 -231q-7 -7 -9 -6q-8 5 -4 18q10 58 9 134q-3 66 -5 133q0 22 6 62q16 35 45 105q1 4 7 4q7 0 6 -5z" />
    <glyph glyph-name="afii57412" unicode="&#x624;" horiz-adv-x="250" 
d="M214 192q-7 -49 -52 -130q-12 -22 -42 -30q-25 -6 -51 -13q-19 -6 -58 -17q-9 0 -11 6q0 7 13 15q40 24 80 47q44 28 75 57q9 12 6 33q-6 15 -14 20q-10 -2 -19 -2q-36 0 -54 25q-7 12 -7 25q0 14 9 35q8 16 15 33.5t13 37.5q11 22 29 29q33 6 53 -27q22 -37 22 -88
q0 -27 -7 -56zM82 486q3 10 10 19q19 23 36 46q20 24 43 32q23 7 34 -9q3 -5 0 -16q-4 -8 -10 -10q-7 -2 -17 3.5t-17 2.5q-21 -5 -25 -31q0 -16 20 -26q8 -2 15 -2q14 0 32 12q25 17 30.5 19.5t10.5 1.5q1 -2 -3 -10q-4 -6 -39 -37q-10 -6 -31 -25q-23 -20 -64 -62
q-15 -16 -25 -25q-9 0 -9 5q1 14 14 29q10 11 20 24l9 12q-12 6 -14 8q-8 5 -13 12q-7 7 -7 27z" />
    <glyph glyph-name="Y.001" unicode="&#x626;" horiz-adv-x="246" 
d="M17 158q5 14 15 27q24 31 48 61q29 34 60 44t48 -12q2 -7 0 -22q-7 -11 -16 -14q-9 -2 -23 5t-23 5q-29 -9 -35 -44q0 -22 29 -34q10 -4 20 -4q19 0 43 16q35 24 42.5 27.5t13.5 1.5q2 -2 -4 -14q-4 -8 -53 -49q-13 -10 -43 -35q-30 -28 -87 -85q-21 -23 -35 -35
q-12 0 -12 7q2 19 19 39l28 34l13 16q-17 8 -20 11q-12 7 -18 16q-10 10 -10 38z" />
    <glyph glyph-name="Z.001" unicode="&#x627;" horiz-adv-x="92" 
d="M87 484q-3 -18 -7 -53q-4 -45 -5 -124q0 -91 -2 -127q-4 -77 -42 -161q-7 -16 -13 -16q-3 0 -6 2q-7 4 -5 18q8 27 13 135q-7 87 -5 195q16 54 56 134q10 6 16 -3z" />
    <glyph glyph-name="bracketleft.001" unicode="&#x628;" horiz-adv-x="714" 
d="M709 235q-14 -62 -59 -115t-105 -71q-160 -49 -315 -49q-79 0 -149 13q-60 11 -71 57q-5 23 -5 50q0 37 16 111q1 3 2 5.5t3 2.5q10 0 12 -6q0 -25 1 -49q2 -30 25 -39q80 -32 255 -30q177 2 290 42q55 19 85 79q2 4 9 5q6 0 6 -6zM238 -167l2 6q21 28 66 81l6 -2
q24 -21 78 -59v-9q-16 -24 -62 -74q-5 -2 -10 -2q-6 0 -31 16q-18 12 -49 43z" />
    <glyph glyph-name="greater.001" unicode="&#x629;" horiz-adv-x="301" 
d="M230 264q10 -24 10 -52q0 -42 -22 -100q-42 -112 -111 -110q-31 5 -45 39q-1 13 -1 27q0 33 33 132q-6 1 -17 8q6 31 13 53q3 22 12 62q8 5 44 1q59 -6 84 -60zM180 169q-19 26 -56 28q-31 -62 -26 -111q6 -19 20 -24q5 -1 10 -1q19 0 56 36q7 14 7 30q0 23 -11 42z
M158 476h3q17 22 51 60q12 -6 32.5 -22t29.5 -21t22 -19q-9 -19 -56 -75q-7 -13 -20 -7q-43 19 -74 58h-3q-15 -22 -52 -61q-9 0 -35 14q-19 14 -51 45l1 6q20 28 65 81l5 -2q27 -20 82 -57z" />
    <glyph glyph-name="bracketright.001" unicode="&#x62a;" horiz-adv-x="713" 
d="M708 235q-13 -62 -58.5 -115t-104.5 -71q-160 -49 -316 -49q-78 0 -149 13q-60 11 -70 57q-5 23 -5 50q0 37 15 111q1 3 2.5 5.5t3.5 2.5q9 0 11 -6q0 -25 1 -49q2 -30 25 -39q80 -32 256 -30t290 42q54 19 85 79q2 4 8 5q6 0 6 -6zM345 296h-3q-12 -15 -23 -31
q-15 -18 -30 -25q-19 2 -41 18l-36 30q-5 8 0 13q8 13 54 68q8 2 18 -7t13 -10q11 -8 34 -20q9 -13 23 -13q17 27 45 58q25 -18 78 -50q3 -7 -2 -12q-24 -38 -52 -73q-35 13 -78 54z" />
    <glyph glyph-name="underscore.001" unicode="&#x62b;" horiz-adv-x="713" 
d="M333 296h-3q-12 -15 -23 -31q-15 -18 -30 -25q-19 2 -41 18l-36 30q-5 8 0 13q8 13 54 68q8 2 18 -5.5t13 -11.5q10 -9 30 -24q13 -9 27 -9q17 27 45 58q25 -18 78 -50q3 -7 -2 -12q-24 -38 -52 -73q-35 13 -78 54zM304 499h10q13 -6 34.5 -23t33.5 -23q4 -8 3 -10
q-18 -22 -56 -65q-9 -6 -14 -1q-38 20 -66 49q6 13 27 37.5t28 35.5zM708 235q-13 -62 -58.5 -115t-104.5 -71q-160 -49 -316 -49q-78 0 -149 13q-60 11 -70 57q-5 23 -5 50q0 37 15 111q1 3 2.5 5.5t3.5 2.5q9 0 11 -6q0 -25 1 -49q2 -30 25 -39q80 -32 256 -30t290 42
q54 19 85 79q2 4 8 5q6 0 6 -6z" />
    <glyph glyph-name="grave.001" unicode="&#x62c;" horiz-adv-x="534" 
d="M217 252l1 6q28 44 65 93l8 -2q48 -41 79 -57q1 -10 -4.5 -19t-10.5 -18q-13 -21 -45 -61q-10 -1 -45 17q-17 12 -48 41zM168 458l55 60q0 3 -8 6q-108 6 -151 -17q-10 -5 -20 -18q-12 -18 -15 -22q-2 -2 -5 -1t-5 3q-2 9 4 24q42 76 89 84q53 9 97 9q36 0 66 -6l6 -3
q11 -8 5 -20q-18 -45 -37 -65l-104 -106q-64 -65 -87 -190q-6 -137 72 -177q41 -21 90 -21q98 0 175 68t119 181q5 9 11 5q4 -3 1 -17l-4 -18q-52 -177 -165 -274q-75 -65 -171 -65q-52 0 -95 23q-86 58 -86 185q0 50 14 104q38 146 149 268z" />
    <glyph glyph-name="b.001" unicode="&#x62d;" horiz-adv-x="534" 
d="M168 458l55 60q0 3 -8 6q-108 6 -151 -17q-10 -5 -20 -18q-12 -18 -15 -22q-2 -2 -5 -1t-5 3q-2 9 4 24q42 76 89 84q53 9 97 9q36 0 66 -6l6 -3q11 -8 5 -20q-18 -45 -37 -65l-104 -106q-64 -65 -87 -190q-6 -137 72 -177q41 -21 90 -21q98 0 175 68t119 181q5 9 11 5
q4 -3 1 -17l-4 -18q-52 -177 -165 -274q-75 -65 -171 -65q-52 0 -95 23q-86 58 -86 185q0 50 14 104q38 146 149 268z" />
    <glyph glyph-name="c.001" unicode="&#x62e;" horiz-adv-x="534" 
d="M126 782l50 57l4 -2q20 -19 79 -65q-1 -11 -9.5 -22.5t-16.5 -22.5q-13 -17 -43 -46q-18 0 -61 34l-28 29q2 8 11 19q11 15 14 19zM168 458l55 60q0 3 -8 6q-108 6 -151 -17q-10 -5 -20 -18q-12 -18 -15 -22q-2 -2 -5 -1t-5 3q-2 9 4 24q42 76 89 84q53 9 97 9
q36 0 66 -6l6 -3q11 -8 5 -20q-18 -45 -37 -65l-104 -106q-64 -65 -87 -190q-6 -137 72 -177q41 -21 90 -21q98 0 175 68t119 181q5 9 11 5q4 -3 1 -17l-4 -18q-52 -177 -165 -274q-75 -65 -171 -65q-52 0 -95 23q-86 58 -86 185q0 50 14 104q38 146 149 268z" />
    <glyph glyph-name="e.001" unicode="&#x62f;" horiz-adv-x="251" 
d="M159 354l2 4q5 -1 15.5 -7t15.5 -10q54 -37 54 -107q0 -41 -25 -92q-19 -44 -43 -86q-20 -29 -70 -40q-41 -9 -83 -12q-18 0 -19 1.5t-1 3.5t2 5q52 27 155 83q28 15 30 38q3 29 -14 55.5t-45 39.5l-21 6q22 62 47 118z" />
    <glyph glyph-name="f.001" unicode="&#x630;" horiz-adv-x="260" 
d="M180 565l6 -2q28 -27 69 -57q-6 -14 -19.5 -31.5t-26.5 -32.5q-5 -5 -10.5 -11t-12.5 -4q-25 13 -37 31q-17 9 -33 29q33 47 64 78zM159 354l2 4q5 -1 15.5 -7t15.5 -10q54 -37 54 -107q0 -41 -25 -92q-19 -44 -43 -86q-20 -29 -70 -40q-41 -9 -83 -12q-18 0 -19 1.5
t-1 3.5t2 5q52 27 155 83q28 15 30 38q3 29 -14 55.5t-45 39.5l-21 6q22 62 47 118z" />
    <glyph glyph-name="g.001" unicode="&#x631;" horiz-adv-x="291" 
d="M76 17q-18 -3 -59 -10q-9 0 -11 6q-1 9 13 17q39 24 77 48q45 29 73 54q29 33 55 97l38 108q2 8 13 8q9 0 10 -8q1 -19 -17 -87q-31 -118 -74 -191q-16 -27 -53 -33q-33 -4 -65 -9z" />
    <glyph glyph-name="i.001" unicode="&#x632;" horiz-adv-x="301" 
d="M232 411l-5 2q-41 34 -63 62q-2 5 4.5 13t7.5 10q17 18 51 51l8 -1q18 -21 57 -56l2 -5q2 -3 0 -6q-19 -25 -62 -70zM76 17q-18 -3 -59 -10q-9 0 -11 6q-1 9 13 17q39 24 77 48q45 29 73 54q29 33 55 97l38 108q2 8 13 8q9 0 10 -8q1 -19 -17 -87q-31 -118 -74 -191
q-16 -27 -53 -33q-33 -4 -65 -9z" />
    <glyph glyph-name="k.001" unicode="&#x633;" horiz-adv-x="684" 
d="M570 447q-18 -43 -71 -45h-11q2 -25 2 -49q0 -173 -96 -329q-42 -69 -102 -109q-67 -44 -140 -40q-83 4 -123 87q-24 49 -24 119q0 67 24 166q7 29 30 84q2 5 11 1q5 -2 0 -20q-27 -101 -27 -158q0 -67 30 -110q33 -46 106 -46q72 -1 141 42q62 40 100.5 110.5
t39.5 153.5q1 60 -10 115q1 24 10 71q2 4 8 4q6 -3 6 -10t4.5 -10.5t19.5 -6.5q12 -1 18 0q28 3 44 28q4 7 7 15.5t10 7.5q4 -2 6 -8q3 -8 10 -8q16 0 29 7q19 12 35 42q3 6 6 13q11 17 15 -2q1 -12 -1 -25q-7 -44 -25 -63q-25 -30 -61 -30q-6 0 -9 4t-7 4q-3 0 -5 -5z" />
    <glyph glyph-name="l.001" unicode="&#x634;" horiz-adv-x="692" 
d="M687 562q-1 -35 -22 -66t-53 -43q-6 -1 -18 0.5t-16 1.5q-35 -55 -82 -56q4 -166 -63 -310q-43 -92 -109 -150q-80 -70 -170 -66q-41 2 -77 29t-51 66q-21 53 -21 116q0 87 51 236q3 6 11 15q9 0 9 -4q-1 -16 -8 -40q-9 -31 -11 -39q-13 -69 -13 -107q0 -90 60 -127
q36 -23 84 -23q76 0 145 49q134 94 134 262q0 17 -0.5 33t-5.5 43t-5 40q0 12 2.5 22.5t5 23t9.5 19.5q7 0 8 -9t4 -13q10 -3 20 -3q29 0 48 21q2 2 24 41q2 6 9 3q4 -17 16 -23q11 -5 35 8q14 15 40 56q4 2 7 0q3 -3 3 -6zM548 676h-3q-13 -15 -25 -30q-16 -19 -31 -25
q-19 3 -40 21q-17 15 -34 31q-5 8 0 13q3 5 58 65q8 -3 28 -20q33 -27 34 -28q5 -4 13 -10q2 -1 10 5q11 16 48 55q24 -20 75 -55q3 -8 -2 -11q-17 -23 -57 -70q-35 14 -74 59zM537 879l11 -1q21 -18 64 -49q4 -2 4 -6q0 -2 -1 -4q-34 -42 -59 -62q-8 -7 -14 -1
q-40 24 -65 53q22 23 60 70z" />
    <glyph glyph-name="m.001" unicode="&#x635;" horiz-adv-x="778" 
d="M756 650q17 -16 17 -42q0 -21 -12 -51q-27 -68 -77 -116q-56 -54 -122 -61q-33 -4 -54 -1q-1 -4 -3 -27q-16 -208 -127 -353q-94 -122 -215 -122q-13 0 -25 1q-38 4 -71 32.5t-46 66.5q-16 48 -16 103q0 88 46 220q5 15 20 38q7 0 8 -3q-1 -17 -8 -41q-10 -32 -12 -41
q-15 -71 -15 -111q0 -87 58 -123q35 -22 84 -22q72 0 139 42q74 47 113 127q37 75 37 164q0 20 -2 39q0 13 -5 46q-4 29 -2 46q1 13 11 49q2 2 4 2t6.5 -4.5t6.5 -4.5q37 -7 44 -7q23 19 53 64q34 49 51 66q32 31 72 36q26 0 42 -12zM716 607q-8 2 -16 2q-28 0 -57 -28
q-10 -10 -43 -54q-11 -10 -30 -34q77 -5 129 34q37 28 37 51q0 17 -20 29z" />
    <glyph glyph-name="n.001" unicode="&#x636;" horiz-adv-x="776" 
d="M492 775l4 8q22 24 67 70h6q24 -23 73 -64q0 -9 -6.5 -17.5t-60.5 -62.5q-10 -2 -37 15q-25 22 -27 24q-14 14 -19 27zM45 182l-1 -2q-6 -117 56 -156q38 -24 89 -24q66 0 128 36q73 43 115 120q38 72 41 159q2 40 -9 135q6 41 14 64q4 2 6.5 -1.5t5.5 -6.5q18 -6 45 -10
q24 21 64 77q38 52 66 74q22 17 51 17q39 0 52 -30q3 -13 3 -26q0 -39 -39 -105q-56 -94 -143 -115q-42 -10 -82 -6l-1 -8q-31 -250 -134 -380q-95 -119 -220 -116q-40 1 -74 26t-51 62q-22 48 -22 114q0 47 12 110q13 67 47 145q8 8 14 5q2 -4 0 -17q-26 -73 -33 -141z
M571 495h3q113 0 160 71q6 21 -5 34q-15 11 -34 11q-35 -5 -67 -45q-53 -64 -56 -66z" />
    <glyph glyph-name="o.001" unicode="&#x637;" horiz-adv-x="370" 
d="M174 190l1 -2q78 74 141 67q32 -4 47 -34q2 -11 2 -22q0 -51 -53 -113q-35 -41 -85 -61q-77 -21 -153 -21q-26 0 -52 3q-7 0 -16 7q-1 2 0.5 6t1.5 5q8 6 23 10q19 5 24 7q21 18 72 87q18 53 21 128q0 64 1 129q1 42 2 51q3 28 15 46q3 7 37 86q2 6 8 7q6 2 8 -4
q1 -8 -2.5 -24t-3.5 -22q-7 -50 -9 -127q-4 -90 -7 -126q-6 -27 -23 -83zM301 177q-13 21 -39 16q-46 -9 -88 -55q-34 -42 -68 -83l100 22q56 17 87 51q13 23 13 34q0 9 -5 15z" />
    <glyph glyph-name="p.001" unicode="&#x638;" horiz-adv-x="409" 
d="M337 478q32 -37 67 -62v-13q-21 -22 -65 -65q-5 -2 -10.5 1.5t-10.5 6.5q-25 21 -54 54q-2 6 3 10.5t10 8.5q11 11 29 33q10 10 31 26zM174 190l1 -2q78 74 141 67q32 -4 47 -34q2 -11 2 -22q0 -51 -53 -113q-35 -41 -85 -61q-77 -21 -153 -21q-26 0 -52 3q-7 0 -16 7
q-1 2 0.5 6t1.5 5q8 6 23 10q19 5 24 7q21 18 72 87q18 53 21 128q0 64 1 129q1 42 2 51q3 28 15 46q3 7 37 86q2 6 8 7q6 2 8 -4q1 -8 -2.5 -24t-3.5 -22q-7 -50 -9 -127q-4 -90 -7 -126q-6 -27 -23 -83zM301 177q-13 21 -39 16q-46 -9 -88 -55q-34 -42 -68 -83l100 22
q56 17 87 51q13 23 13 34q0 9 -5 15z" />
    <glyph glyph-name="q.001" unicode="&#x639;" horiz-adv-x="533" 
d="M140 434l-2 2q-41 21 -46 24q-25 16 -31 38q1 16 12 35l20 32q28 40 55 80q36 45 78 53q21 0 31 -8q14 -11 14 -24q0 -6 -3 -11q-2 -9 -9 -13q-8 0 -23 5.5t-24 5.5q-30 0 -63 -54q-6 -16 0 -23q26 -31 81 -35q15 4 40 25q20 17 62 47q5 2 5 -5l-2 -8l-48 -69
q-229 -185 -229 -352q0 -50 14.5 -93.5t58.5 -65.5q37 -19 85 -19q153 0 249 150q28 45 48 97q5 7 10 7q5 -7 3 -17q-33 -151 -138 -265q-85 -93 -200 -93q-47 0 -89 18q-94 53 -94 193q0 111 77 254q6 9 14 26q20 32 44 63z" />
    <glyph glyph-name="r.001" unicode="&#x63a;" horiz-adv-x="532" 
d="M127 822l3 8q27 33 76 80l6 -1q26 -29 71 -67q3 -5 -7 -22q-16 -18 -32 -37q-20 -21 -37 -31q-15 4 -46 31q-12 12 -34 39zM141 438q-67 26 -79 60q-1 15 9 34q10 15 19 31l58 84q37 47 81 54q22 0 31 -9q15 -18 8 -34q-4 -11 -9 -13q-8 1 -23.5 5.5t-23.5 4.5
q-7 0 -14 -2q-31 -16 -49 -54q-7 -14 4 -27q34 -27 68 -27q12 0 24 4q27 24 85 67q4 1 8 -8q-17 -25 -50 -74q-112 -92 -165 -168q-72 -104 -64 -215q7 -94 65 -126q42 -23 93 -23q100 0 179.5 70.5t116.5 179.5q5 6 11 6q1 -5 3 -16q-49 -194 -174 -299q-73 -62 -167 -62
q-52 0 -93 23q-88 48 -88 187q0 164 136 347z" />
    <glyph glyph-name="D.001" unicode="&#x640;" horiz-adv-x="385" 
d="M45 316h325l-27 -62h-328z" />
    <glyph glyph-name="s.001" unicode="&#x641;" horiz-adv-x="731" 
d="M579 569l65 79h7q16 -15 75 -62l-1 -9q-19 -24 -61 -70q-4 -1 -8 -1q-9 0 -35 17q-15 13 -42 40v6zM717 362q7 -30 7 -60q0 -69 -33.5 -131.5t-91.5 -103.5q-104 -56 -282 -68q-155 -10 -248 14q-42 11 -56 42q-8 27 -8 59q0 34 15 113q2 9 9 9q8 0 8 -6v-52
q3 -29 26 -38q89 -33 290 -29q175 4 268 41q46 19 65 61q0 32 -12 39q-55 -4 -75 12q-20 20 -12 46q11 30 26 87q8 16 12 21q8 11 19 15q16 5 41 -12q24 -24 32 -59z" />
    <glyph glyph-name="t.001" unicode="&#x642;" horiz-adv-x="523" 
d="M370 700h4q17 21 50 60h4q43 -35 76 -56q5 -2 2 -15l-53 -67q-5 -10 -20 -6q-43 19 -74 57q-15 -19 -48 -57q-6 -4 -13 -4q-9 0 -20 7t-21 14.5t-21.5 16.5t-16.5 20l2 6l60 81l13 -3q25 -20 76 -54zM518 364q0 -91 -42 -212q-43 -124 -119 -192q-94 -84 -182 -84
q-26 0 -52 7q-44 12 -75 54q-29 39 -37 85q-6 32 -6 68q0 87 42 224q3 10 17 24q4 0 8 -6l-18 -88q-11 -51 -11 -90q0 -90 55 -130q35 -26 87 -26q65 0 127 35q106 60 154 194q17 47 17 82q0 12 -2 23q-3 18 -15 22q-19 -7 -37 -7q-21 0 -35 10q-18 16 -18 39q0 13 8 41
t7 42q8 58 43 58q20 0 42 -25q42 -48 42 -148z" />
    <glyph glyph-name="w.001" unicode="&#x644;" horiz-adv-x="502" 
d="M497 805q-11 -66 -4 -268q3 -78 3 -119q0 -143 -28 -241q-35 -125 -113 -211q-83 -92 -179 -92q-32 0 -63 12q-108 41 -103 203q4 117 55 240q7 11 14 6q2 -4 0 -21q-29 -95 -29 -158q0 -39 10 -73q19 -64 82 -79q23 -5 47 -5q72 0 149 46q107 88 113 183q2 34 2 73
q0 54 -5 149q-6 103 -7 147q-1 83 -1 82q2 48 22 78q14 41 29 59q4 0 6 -11z" />
    <glyph glyph-name="x.001" unicode="&#x645;" horiz-adv-x="371" 
d="M364 411h-2q4 -7 0 -17q-8 -24 -14 -34q-9 -18 -22 -29q-1 -1 -21 -16q-23 -10 -83 -21q-55 -10 -82 -25q-75 -31 -86 -78q-7 -30 -8 -79l-2 -82l3 -102q2 -35 -11 -233q-1 -16 -12 -43q-4 -2 -9 3q0 178 -10 358q4 95 13 137q15 78 56 125q50 71 136 105q24 46 56 96
q29 -12 82 -43q4 -4 16 -22z" />
    <glyph glyph-name="y.001" unicode="&#x646;" horiz-adv-x="518" 
d="M81 364l3 -3q-12 -45 -32 -137q-6 -34 -6 -64q0 -103 68 -140q42 -23 93 -23q78 0 151 47q77 49 100 121q4 26 4 61q0 12 -3 85q-2 52 1 84q14 54 38 110q7 7 13 1q2 -18 -2 -97l-2 -118q-3 -70 -16 -113q-36 -115 -109 -200q-60 -57 -132 -82q-41 -14 -84 -14
q-48 0 -83 18q-78 51 -78 186q0 76 25 169q0 7 4.5 18t4.5 16q8 25 30 72q7 10 12 3zM179 257l70 74l6 2q30 -35 73 -69q-22 -25 -70 -72q-18 3 -36.5 19.5t-34.5 32.5z" />
    <glyph glyph-name="z.001" unicode="&#x648;" horiz-adv-x="231" 
d="M219 192q-7 -49 -52 -130q-12 -22 -42 -30q-25 -6 -51 -13q-19 -6 -58 -17q-9 0 -11 6q0 7 13 15q40 24 80 47q44 28 75 57q9 12 6 33q-6 15 -14 20q-10 -2 -19 -2q-36 0 -54 25q-7 12 -7 25q0 14 9 35q8 16 15 33.5t13 37.5q11 22 29 29q33 6 53 -27q22 -37 22 -88
q0 -27 -7 -56z" />
    <glyph glyph-name="F.002" unicode="&#x64b;" 
d="M65 1458l152 120q4 0 5 -3q1 -2 -0.5 -7.5t-1.5 -7.5q0 -21 -24 -38q-37 -27 -39 -30q-33 -25 -95 -77q-8 -4 -8 4q2 11 11 39zM45 1538l152 120q4 0 5 -3q1 -2 -0.5 -7.5t-1.5 -7.5q0 -21 -24 -38q-37 -27 -39 -30q-33 -25 -95 -77q-8 -4 -8 4q2 11 11 39z" />
    <glyph glyph-name="E.002" unicode="&#x64c;" 
d="M242 1592q9 -10 9 -27q0 -13 -7 -36q-15 -45 -64 -77q-23 -15 -90 -44q-18 -4 -22 -3q-3 4 4 11q36 21 76 48q-4 105 62 134q7 5 17 3q11 -2 15 -9zM220 1552q-5 6 -12 6q-10 0 -20 -11q-19 -21 -19 -47q0 -9 3 -18q44 24 51 50q4 7 -3 20zM34 1465q-9 10 -9 27
q0 13 7 36q15 45 64 77q23 15 90 44q18 4 22 3q3 -4 -4 -11q-36 -21 -76 -48q4 -105 -62 -134q-7 -5 -17 -3q-11 2 -15 9zM56 1505q5 -6 12 -6q10 0 20 11q19 21 19 47q0 9 -3 18q-44 -24 -51 -50q-4 -7 3 -20z" />
    <glyph glyph-name="F.003" unicode="&#x64d;" 
d="M35 -419l152 120q4 0 5 -3q1 -2 -0.5 -7.5t-1.5 -7.5q0 -21 -24 -38q-37 -27 -39 -30q-33 -25 -95 -77q-8 -4 -8 4q2 11 11 39zM15 -339l152 120q4 0 5 -3q1 -2 -0.5 -7.5t-1.5 -7.5q0 -21 -24 -38q-37 -27 -39 -30q-33 -25 -95 -77q-8 -4 -8 4q2 11 11 39z" />
    <glyph glyph-name="F.001" unicode="&#x64e;" 
d="M52 1501l152 120q4 0 5 -3q1 -2 -0.5 -7.5t-1.5 -7.5q0 -21 -24 -38q-37 -27 -39 -30q-33 -25 -95 -77q-8 -4 -8 4q2 11 11 39z" />
    <glyph glyph-name="E.001" unicode="&#x64f;" 
d="M213 1607q9 -10 9 -27q0 -13 -7 -36q-15 -45 -64 -77q-23 -15 -90 -44q-18 -4 -22 -3q-3 4 4 11q36 21 76 48q-4 105 62 134q7 5 17 3q11 -2 15 -9zM191 1567q-5 6 -12 6q-10 0 -20 -11q-19 -21 -19 -47q0 -9 3 -18q44 24 51 50q4 7 -3 20z" />
    <glyph glyph-name="G.001" unicode="&#x650;" 
d="M30 -426l154 120q4 0 4 -3q0 -2 -1.5 -7t-1.5 -7q0 -21 -23 -39q-36 -27 -39 -30q-40 -30 -96 -77q-8 -5 -8 4q4 13 11 39z" />
    <glyph glyph-name="H.001" unicode="&#x651;" 
d="M221 1625q9 -47 9 -75q0 -56 -31 -84q-20 -23 -53 -9q-13 10 -17 23q-24 -35 -46 -35q-20 0 -38 24q-7 17 -7 37q0 39 25 85q3 9 9 5t3 -15q-11 -44 -11 -57q0 -19 7.5 -28.5t20.5 -9.5q20 3 29 24q7 17 14 35q5 2 8 -6q2 -20 4 -24q4 -13 15 -20q21 -9 33.5 3.5
t12.5 35.5q0 2 -9 57q7 13 22 34z" />
    <glyph glyph-name="W.001" unicode="&#x653;" 
d="M376 1630q-33 -92 -110 -146q-39 -27 -80 -27q-20 0 -38 7q-3 1 -11.5 7.5t-13.5 6.5q-3 0 -7 -2q-26 -14 -58 -56q-4 -3 -14 -3q-3 3 0 19q51 99 114 142q7 6 15 6t21 -7.5t18 -8.5q19 -7 39 -7q40 0 68 24q15 19 48 51q9 5 9 -6z" />
    <glyph glyph-name="Y.003" unicode="&#x654;" 
d="M51 1542q3 10 10 19q19 23 36 46q20 24 43 32q23 7 34 -9q3 -5 0 -16q-4 -8 -10 -10q-7 -2 -17 3.5t-17 2.5q-21 -5 -25 -31q0 -16 20 -26q8 -2 15 -2q14 0 32 12q25 17 30.5 19.5t10.5 1.5q1 -2 -3 -10q-4 -6 -39 -37q-10 -6 -31 -25q-23 -20 -64 -62q-15 -16 -25 -25
q-9 0 -9 5q1 14 14 29q10 11 20 24l9 12q-12 6 -14 8q-8 5 -13 12q-7 7 -7 27z" />
    <glyph glyph-name="Y.002" unicode="&#x655;" 
d="M30 -356q3 10 10 19q19 23 36 46q20 24 43 32q23 7 34 -9q3 -5 0 -16q-4 -8 -10 -10q-7 -2 -17 3.5t-17 2.5q-21 -5 -25 -31q0 -16 20 -26q8 -2 15 -2q14 0 32 12q25 17 30.5 19.5t10.5 1.5q1 -2 -3 -10q-4 -6 -39 -37q-10 -6 -31 -25q-23 -20 -64 -62q-15 -16 -25 -25
q-9 0 -9 5q1 14 14 29q10 11 20 24l9 12q-12 6 -14 8q-8 5 -13 12q-7 7 -7 27z" />
    <glyph glyph-name="G.002" unicode="&#x656;" 
d="M128 -393l1 -2q0 -56 -20 -76q-7 -2 -9 6q3 37 -4 69q-8 41 -9 69q6 22 16 67q2 5 11 3l4 -11q4 -31 10 -125z" />
    <glyph glyph-name="E.003" unicode="&#x657;" 
d="M47 1434q-9 10 -9 27q0 13 7 36q15 45 64 77q23 15 90 44q18 4 22 3q3 -4 -4 -11q-36 -21 -76 -48q4 -105 -62 -134q-7 -5 -17 -3q-11 2 -15 9zM69 1474q5 -6 12 -6q10 0 20 11q19 21 19 47q0 9 -3 18q-44 -24 -51 -50q-4 -7 3 -20z" />
    <glyph glyph-name="percent.002" unicode="&#x66a;" horiz-adv-x="329" 
d="M143 501q-17 -26 -45 -26q-30 0 -43 21q-9 14 -9 30q0 20 14.5 35t34.5 16q30 1 45.5 -24t2.5 -52zM122 543q-8 12 -27 12q-18 -2 -24 -18q-6 -17 7 -31t30 -6q11 1 17 18q2 18 -3 25zM15 238l197 231q24 30 72 86l30 -62l-268 -319h-2q-10 21 -29 64zM280 230
q7 -14 7 -29q0 -11 -4 -21q-16 -31 -48 -31t-45 30q-11 24 4.5 48t41.5 24q23 0 44 -21zM253 222q-10 8 -20 8q-18 -3 -23 -19q-6 -19 9 -34q13 -7 25 -4q13 1 20 20q4 14 -11 29z" />
    <glyph glyph-name="less.002" unicode="&#x66d;" horiz-adv-x="329" 
d="M46 456l5 -1l114 -138l6 4l112 134h3q10 -21 28 -62l-107 -127l105 -129v-5l-27 -57l-5 3l-113 138h-3l-118 -140h-2l-29 62l108 128q-34 43 -105 128z" />
    <glyph glyph-name="G.003" unicode="&#x670;" 
d="M104 1506l1 -2q0 -56 -20 -76q-7 -2 -9 6q3 37 -4 69q-8 41 -9 69q6 22 16 67q2 5 11 3l4 -11q4 -31 10 -125z" />
    <glyph glyph-name="asciicircum.001" unicode="&#x679;" horiz-adv-x="713" 
d="M347 455l27 38l6 -1q1 -7 -1 -17q-2 -14 -2 -17l-2 -54q-3 -32 -11 -53q6 1 15 8.5t13 8.5q33 11 49.5 -2.5t9.5 -40.5q-36 -64 -76 -72q-33 -2 -95 -11q-10 0 -14 4q1 16 26 23q46 56 46 92q3 13 3 47q-1 31 6 47zM331 278v-3q32 6 40 8q22 7 34 20q8 11 7 21l-6 6
q-6 2 -12 2q-18 0 -33.5 -18.5t-29.5 -35.5zM708 235q-13 -62 -58.5 -115t-104.5 -71q-160 -49 -316 -49q-78 0 -149 13q-60 11 -70 57q-5 23 -5 50q0 37 15 111q1 3 2.5 5.5t3.5 2.5q9 0 11 -6q0 -25 1 -49q2 -30 25 -39q80 -32 256 -30t290 42q54 19 85 79q2 4 8 5
q6 0 6 -6z" />
    <glyph glyph-name="backslash.001" unicode="&#x67e;" horiz-adv-x="713" 
d="M334 -139h-3q-12 -16 -23 -31q-15 -18 -30 -25q-19 2 -41 18l-36 30q-5 8 0 13q8 12 54 68q8 2 18 -7t13 -10q11 -8 34 -20q9 -13 23 -13q17 27 45 58q25 -18 78 -50q3 -8 -2 -12q-24 -38 -52 -73q-35 13 -78 54zM329 -212h10q13 -6 34.5 -23t33.5 -23q4 -8 3 -10
q-18 -23 -56 -65q-9 -6 -14 -1q-38 20 -66 49q6 13 27 37.5t28 35.5zM708 235q-13 -62 -58.5 -115t-104.5 -71q-160 -49 -316 -49q-78 0 -149 13q-60 11 -70 57q-5 23 -5 50q0 37 15 111q1 3 2.5 5.5t3.5 2.5q9 0 11 -6q0 -25 1 -49q2 -30 25 -39q80 -32 256 -30t290 42
q54 19 85 79q2 4 8 5q6 0 6 -6z" />
    <glyph glyph-name="a.001" unicode="&#x686;" horiz-adv-x="534" 
d="M220 352h3q33 -28 75 -55q16 20 49 58h5q22 -19 68 -52q-2 -10 -12 -23q-14 -18 -16 -22q-10 -13 -32 -37q-36 9 -75 52q-15 -20 -51 -54q-18 2 -37.5 17t-36.5 30l6 15q10 15 54 71zM230 140l54 64q13 -6 32 -22q25 -21 30 -25q-2 0 -2 -2q-1 0 8 -6q-9 -10 -23 -32
q-1 -1 -6 -5t-5 -9q-1 -1 -20 -23q-22 6 -64 46q-6 10 -4 14zM168 458l55 60q0 3 -8 6q-108 6 -151 -17q-10 -5 -20 -18q-12 -18 -15 -22q-2 -2 -5 -1t-5 3q-2 9 4 24q42 76 89 84q53 9 97 9q36 0 66 -6l6 -3q11 -8 5 -20q-18 -45 -37 -65l-104 -106q-64 -65 -87 -190
q-6 -137 72 -177q41 -21 90 -21q98 0 175 68t119 181q5 9 11 5q4 -3 1 -17l-4 -18q-52 -177 -165 -274q-75 -65 -171 -65q-52 0 -95 23q-86 58 -86 185q0 50 14 104q38 146 149 268z" />
    <glyph glyph-name="e.002" unicode="&#x688;" horiz-adv-x="268" 
d="M160 635l18 25h7q-1 3 -4 -21q0 -31 -1 -62q-1 -38 -10 -60q9 7 29 19q25 13 46 -1q18 -12 12 -38q-22 -56 -69 -74q-22 -2 -102 -14q-6 -2 -11 6q2 11 18 17.5t20 16.5q19 29 20 31q10 19 11 35q3 13 3 31v20q-1 13 -1 19q0 31 14 50zM217 493l-6 6q-23 5 -44 -17
q-8 -8 -31 -41q21 5 43.5 11.5t33.5 20.5q8 14 4 20zM159 354l2 4q5 -1 15.5 -7t15.5 -10q54 -37 54 -107q0 -41 -25 -92q-19 -44 -43 -86q-20 -29 -70 -40q-41 -9 -83 -12q-18 0 -19 1.5t-1 3.5t2 5q52 27 155 83q28 15 30 38q3 29 -14 55.5t-45 39.5l-21 6q22 62 47 118z
" />
    <glyph glyph-name="h.001" unicode="&#x691;" horiz-adv-x="316" 
d="M237 660q-3 -15 -6 -73q-3 -46 -13 -72h3q35 37 65 32q14 -4 23 -22q2 -7 2 -13q0 -15 -12.5 -32t-24.5 -32q-18 -25 -60 -29q-67 -6 -71 -7q-6 0 -13 5q1 2 0 6q19 14 59 65q9 23 10 59v62q6 17 26 49q1 5 6 7q5 1 6 -5zM265 503l-3 3q-20 1 -40 -16q-16 -17 -31 -33
q0 -9 1 -7q42 3 37 3q20 7 39 30q4 9 -3 20zM76 17q-18 -3 -59 -10q-9 0 -11 6q-1 9 13 17q39 24 77 48q45 29 73 54q29 33 55 97l38 108q2 8 13 8q9 0 10 -8q-4 -33 -17 -87q-31 -118 -74 -191q-16 -27 -53 -33q-33 -4 -65 -9z" />
    <glyph glyph-name="j.001" unicode="&#x698;" horiz-adv-x="368" 
d="M231 545l-6 -5q-27 12 -70 60q21 24 64 72l6 -2q30 -30 65 -57q-13 -29 -59 -68zM289 516l6 -2q44 -40 68 -56q-4 -13 -23 -32q-10 -14 -34 -42l-5 -5q-57 27 -76 65q21 25 64 72zM149 520l6 -2q44 -40 68 -56q-4 -13 -23 -32q-10 -14 -34 -42l-5 -5q-57 27 -76 65
q21 25 64 72zM76 17q-18 -3 -59 -10q-9 0 -11 6q-1 9 13 17q39 24 77 48q45 29 73 54q29 33 55 97l38 108q2 8 13 8q9 0 10 -8q1 -19 -17 -87q-31 -118 -74 -191q-16 -27 -53 -33q-33 -4 -65 -9z" />
    <glyph glyph-name="u.001" unicode="&#x6a9;" horiz-adv-x="763" 
d="M728 681l130 102q3 3 50 44q30 25 43 48q3 4 7 3q5 0 5 -5q-2 -19 -32 -73q-15 -26 -76 -80q-59 -45 -175 -140q-18 -15 -25 -24q-14 -16 -17 -30q-3 -102 -7 -204q-6 -119 -47 -193.5t-177 -112.5l-154 -16q-137 -2 -199 19q-48 16 -49 101q0 13 11 102q1 7 10 16
q8 2 10 -8l2 -46q1 -27 20 -39q52 -21 134 -24q71 -1 142 -1q47 3 93 6q54 5 88 22q67 24 78 71q7 46 5 118q-3 98 -2 119q1 24 14 60q17 45 20 58q22 47 98 107z" />
    <glyph glyph-name="v.001" unicode="&#x6af;" horiz-adv-x="762" 
d="M892 940v3q2 0 7 3.5t7 3.5q3 0 5 -4v-3q2 0 -3 -2q3 -2 1 -7q-4 -7 -4 -8q-18 -41 -68 -82q-43 -35 -86 -69q-28 -24 -55 -48q-33 -29 -50 -51q-5 -2 -8 3q10 66 98 134l130 100q17 13 26 27zM731 681l130 102q24 21 48 43q28 25 41 47q2 4 7 3q5 -2 5 -6
q0 -14 -8 -28.5t-15 -28.5q-23 -48 -105 -113l-163 -129q-25 -20 -33 -50q-4 -40 -4 -115v-13q0 -159 -35 -233q-13 -42 -48.5 -76.5t-78.5 -48.5l-65 -22l-153 -13q-25 -2 -50 -2q-79 0 -149 20q-37 11 -45 52q-5 26 -5 55q0 34 10 97q3 7 9 14q7 3 13 -9q0 -24 -1 -48
q2 -27 24 -36q67 -27 180 -27q22 0 93 2q148 4 210 40t55 98q-3 74 0 209q2 21 13 49q15 38 18 48q14 50 102 119z" />
    <glyph glyph-name="y.002" unicode="&#x6ba;" horiz-adv-x="518" 
d="M81 364l3 -3q-12 -45 -32 -137q-6 -34 -6 -64q0 -103 68 -140q42 -23 93 -23q78 0 151 47q77 49 100 121q4 26 4 61q0 12 -3 85q-2 52 1 84q14 54 38 110q7 7 13 1q2 -18 -2 -97l-2 -118q-3 -70 -16 -113q-36 -115 -109 -200q-60 -57 -132 -82q-41 -14 -84 -14
q-48 0 -83 18q-78 51 -78 186q0 76 25 169q0 7 4.5 18t4.5 16q8 25 30 72q7 10 12 3z" />
    <glyph glyph-name="bar.001" unicode="&#x6be;" horiz-adv-x="451" 
d="M289 279q17 -20 11 -55q47 42 85 42q17 0 33 -8q25 -17 26 -42q2 -49 -59 -124q-26 -23 -40 -33q-24 -18 -45 -26q-86 -33 -173 -33q-59 0 -108 16q-6 3 -14 11q0 7 10.5 10t11.5 4q33 36 68 111q39 82 64 114q31 40 76 40q37 0 54 -27zM246 225q-3 2 -10 7t-10 6
q-25 2 -38 -10q-31 -27 -59 -85q-34 -68 -51 -90q38 9 62 22q90 50 115 115q0 23 -9 35zM385 182q-4 12 -18 18q-8 2 -16 2q-27 0 -46 -20q-4 -4 -54 -66q-32 -41 -61 -58q103 8 146 40q51 38 51 70q0 7 -2 14z" />
    <glyph glyph-name="braceleft.001" unicode="&#x6c1;" horiz-adv-x="189" 
d="M175 264q9 -24 9 -52q0 -43 -22 -100q-43 -112 -111 -110q-31 5 -44 39q-2 13 -2 27q0 33 33 132q-6 1 -17 8q7 31 13 53q3 22 12 62q8 5 45 1q58 -6 84 -60zM124 169q-19 26 -56 28q-31 -62 -26 -111q6 -19 20 -24q5 -1 10 -1q20 0 56 36q7 14 7 30q0 23 -11 42z" />
    <glyph glyph-name="uni06C3" unicode="&#x6c3;" horiz-adv-x="301" 
d="M230 264q10 -24 10 -52q0 -42 -22 -100q-42 -112 -111 -110q-31 5 -45 39q-1 13 -1 27q0 33 33 132q-6 1 -17 8q6 31 13 53q3 22 12 62q8 5 44 1q59 -6 84 -60zM180 169q-19 26 -56 28q-31 -62 -26 -111q6 -19 20 -24q5 -1 10 -1q19 0 56 36q7 14 7 30q0 23 -11 42z
M158 476h3q17 22 51 60q12 -6 32.5 -22t29.5 -21t22 -19q-9 -19 -56 -75q-7 -13 -20 -7q-43 19 -74 58h-3q-15 -22 -52 -61q-9 0 -35 14q-19 14 -51 45l1 6q20 28 65 81l5 -2q27 -20 82 -57z" />
    <glyph glyph-name="asciitilde.001" unicode="&#x6cc;" horiz-adv-x="511" 
d="M502 664l4 -8q-9 -34 -30 -101q-4 -7 -14 -8q-16 -1 -18 -2q-91 -46 -114 -132q-7 -24 13 -41q8 -5 45 -16q28 -8 39 -27q14 -25 14 -65q0 -13 -2 -34q-2 -26 -2 -33q-17 -95 -63 -171q-52 -86 -130 -128q-35 -18 -78 -18q-51 0 -84 26q-75 60 -76 194q-1 109 64 313
q9 3 11.5 1t2.5 -20q-35 -142 -35 -204q0 -129 63 -169q31 -20 70 -20q67 0 144 55q72 66 80 130q4 31 -15 42q-26 7 -52 15q-29 11 -38 35t-9 53q0 28 11 74q40 168 155 250q28 13 32 13q6 0 12 -4z" />
    <glyph glyph-name="braceright.001" unicode="&#x6d2;" horiz-adv-x="818" 
d="M323 -3h-153l-90 12q-49 11 -72 44q-3 7 -3 16q0 17 17 46q61 105 148 143q24 13 48 25q27 17 38 40q15 23 35 63q3 5 8 6q5 0 7 -6q-15 -76 -62 -133q-16 -14 -87 -44q-56 -23 -74 -61q-1 -7 4.5 -11.5t10.5 -8.5q59 -27 183 -27h275q169 0 251 6q2 0 6 -4
q-2 -5 -33 -28q-55 -41 -145 -55q-28 -4 -160 -13z" />
    <glyph glyph-name="uni06D3" unicode="&#x6d3;" horiz-adv-x="818" 
d="M323 -3h-153l-90 12q-49 11 -72 44q-3 7 -3 16q0 17 17 46q61 105 148 143q24 13 48 25q27 17 38 40q15 23 35 63q3 5 8 6q5 0 7 -6q-15 -76 -62 -133q-16 -14 -87 -44q-56 -23 -74 -61q-1 -7 4.5 -11.5t10.5 -8.5q59 -27 183 -27h275q169 0 251 6q2 0 6 -4
q-2 -5 -33 -28q-55 -41 -145 -55q-28 -4 -160 -13zM213 534q3 10 10 19q19 23 36 46q20 24 43 32q23 7 34 -9q3 -5 0 -16q-4 -8 -10 -10q-7 -2 -17 3.5t-17 2.5q-21 -5 -25 -31q0 -16 20 -26q8 -2 15 -2q14 0 32 12q25 17 30.5 19.5t10.5 1.5q1 -2 -3 -10q-4 -6 -39 -37
q-10 -6 -31 -25q-23 -20 -64 -62q-15 -16 -25 -25q-9 0 -9 5q1 14 14 29q10 11 20 24l9 12q-12 6 -14 8q-8 5 -13 12q-7 7 -7 27z" />
    <glyph glyph-name="X.001" unicode="&#x6d4;" horiz-adv-x="380" 
d="M363 117q-19 -42 -44 -73q-16 -10 -43.5 -11.5t-52.5 -2.5q-29 2 -67 12q-32 8 -63 17q-25 9 -73 31q-4 13 -5 11q0 8 13 14q70 1 140 1q84 1 137 8q8 0 23 4.5t22 4.5q6 0 10.5 -3t2.5 -13z" />
    <glyph glyph-name="zero.002" unicode="&#x6f0;" horiz-adv-x="267" 
d="M15 286v7q34 48 99 131h5q52 -56 131 -101q2 -1 2 -6l-96 -129q-3 -3 -19 2q-49 23 -122 96z" />
    <glyph glyph-name="one.002" unicode="&#x6f1;" horiz-adv-x="102" 
d="M32 76l-9 225q-3 37 -5 73q-3 43 0 74q28 63 48 103q9 5 14 3q3 -3 3.5 -14t1.5 -14q2 -66 0 -113q2 -84 -7 -251q-12 -40 -32 -87q-5 -13 -12 -3z" />
    <glyph glyph-name="two.002" unicode="&#x6f2;" horiz-adv-x="309" 
d="M89 523q38 -57 95 -58q37 0 87 66q0 6 12 14q7 2 11 -2q-11 -63 -58 -129q-44 -61 -90 -61q-6 0 -12.5 0.5t-13.5 3.5q-10 4 -14 5l-4 -102q-2 -58 -10 -98q-14 -29 -43 -87q-6 -6 -9 -5q-3 8 -1 22q2 22 2 25q0 16 -2 56q-2 36 -1 57q-5 77 -23 209q7 17 20 48
q10 20 31 59q4 2 7 2q5 0 9 -10q5 -13 7 -15z" />
    <glyph glyph-name="three.002" unicode="&#x6f3;" horiz-adv-x="463" 
d="M107 369l-2 -3q-3 -52 -5 -105q-4 -62 -14 -102q-14 -26 -43 -78q-8 -3 -9 -1t0 20q7 134 -5 234q-5 37 -14 111q8 26 51 107q2 2 13 2q11 -32 42.5 -57.5t63.5 -25.5q30 0 64 35q18 24 26 40q11 5 13 3q7 -7 6 -24t12 -27q18 -14 55 -9q31 11 77 68q8 0 10 -5
q0 -16 -10.5 -33.5t-20.5 -32.5q-25 -49 -76 -83q-16 -7 -34 -7q-24 0 -41 12q-3 2 -17 19h-3q-49 -68 -99 -68q-22 0 -40 10z" />
    <glyph glyph-name="four.002" unicode="&#x6f4;" horiz-adv-x="415" 
d="M263 447h2q53 88 122 127q9 0 13 -3q-13 -37 -35 -79q-102 -72 -158 -197q-8 -6 -14 -2q-4 5 -3 14q3 14 7.5 30t4.5 36q0 33 -23.5 51.5t-52.5 18.5q-12 0 -23 -4q-31 -10 -35 -36q-1 -19 1 -56q3 -44 3 -60v-119q-1 -5 -26 -93q-2 -1 -4 -4.5t-5 -1.5q-4 14 -9 88
q-1 15 -8 75q-5 47 -5 76q0 67 25 117q31 61 34 66q23 36 56 47q19 9 40 9q34 0 56 -20q35 -32 37 -80z" />
    <glyph glyph-name="five.002" unicode="&#x6f5;" horiz-adv-x="372" 
d="M64 377l116 178l8 3q4 -5 87 -110q52 -66 73 -116q9 -22 9 -46q0 -33 -19 -79q-16 -37 -32 -75q-17 -51 -84 -59q-44 -6 -64 39q0 2 -1.5 4.5t-2.5 3.5q-45 -52 -92 -45q-36 14 -46 70q-1 15 -1 31q0 78 26 158zM155 452q-29 -44 -76 -120q-30 -49 -30 -92q0 -39 24 -49
q13 -6 41 -3q35 4 55 59q2 4 4.5 8t6.5 3q7 -6 9 -19q1 -17 4 -22q19 -34 80 -34q18 9 21 11q11 7 15 16q-9 66 -56 124z" />
    <glyph glyph-name="six.002" unicode="&#x6f6;" horiz-adv-x="303" 
d="M256 109l5 -34l-8 -8q-10 0 -21 20q-50 119 -44 250q-25 -4 -40 0q-60 17 -115 136q-18 38 -15 68q2 11 12 4q11 -21 39 -61q24 -39 81 -39q46 7 86 84q1 8 10 20q6 -1 10 -7.5t6.5 -13.5t15.5 -31q10 -20 10 -33q0 -10 -5 -19q-29 -120 -29 -260q0 -38 2 -76z" />
    <glyph glyph-name="seven.002" unicode="&#x6f7;" horiz-adv-x="465" 
d="M113 270l104 115q45 47 132 146q3 0 5 -2l-16 -71q-12 -15 -99 -113l-104 -117q-23 -25 -34 -42l2 -1q166 0 311 14l31 3q5 -3 2 -20q-16 -46 -28 -82q-6 -10 -13 -8q-167 -18 -338 -17q-27 0 -52 18q-1 4 -1 9q0 27 33 80q29 48 65 88z" />
    <glyph glyph-name="eight.002" unicode="&#x6f8;" horiz-adv-x="404" 
d="M173 410l-85 -203q-22 -52 -59 -132q-5 -3 -9 5q0 5 -3 26q-2 16 -2 27q0 27 13 43q39 77 84 191q39 96 77 193q2 8 8 8q12 0 17 -13q54 -120 175 -355q-3 -23 -38 -116q-6 -9 -12 -3q-14 24 -42 68l-99 208q-7 18 -23 53h-2z" />
    <glyph glyph-name="nine.002" unicode="&#x6f9;" horiz-adv-x="259" 
d="M199 58l-14 -23q-3 -1 -5 0q-1 2 -1 5q2 101 0 199q-4 4 -5 2q-26 -8 -52 -8q-52 0 -78 29q-29 33 -29 80q0 30 12 75q37 136 116 146q39 5 64 -23q33 -46 35 -140t-9 -223q1 -26 -11 -60q-11 -30 -23 -59zM183 417q-4 12 -20 22q-27 8 -44 8q-18 0 -30 -8
q-27 -17 -30 -40q8 -32 61 -47q35 -1 43 0q24 3 34 22q-2 30 -14 43z" />
    <glyph glyph-name="uni06BB" unicode="&#x6bb;" horiz-adv-x="518" 
d="M81 364l3 -3q-12 -45 -32 -137q-6 -34 -6 -64q0 -103 68 -140q42 -23 93 -23q78 0 151 47q77 49 100 121q4 26 4 61q0 12 -3 85q-2 52 1 84q14 54 38 110q7 7 13 1q2 -18 -2 -97l-2 -118q-3 -70 -16 -113q-36 -115 -109 -200q-60 -57 -132 -82q-41 -14 -84 -14
q-48 0 -83 18q-78 51 -78 186q0 76 25 169q0 7 4.5 18t4.5 16q8 25 30 72q7 10 12 3zM179 257l71 79l5 -3q30 -35 73 -69q-22 -25 -70 -72q-18 3 -36.5 19.5t-34.5 32.5zM245 615l27 38l6 -1q1 -7 -1 -17q-2 -14 -2 -17l-2 -54q-3 -32 -11 -53q6 1 15 8.5t13 8.5
q33 11 49.5 -2.5t9.5 -40.5q-36 -64 -76 -72q-33 -2 -95 -11q-10 0 -14 4q1 16 26 23q46 56 46 92q3 13 3 47q-1 31 6 47zM229 438v-3q32 6 40 8q22 7 34 20q8 11 7 21l-6 6q-6 2 -12 2q-18 0 -33.5 -18.5t-29.5 -35.5z" />
    <glyph glyph-name="uni25CC" unicode="&#x25cc;" horiz-adv-x="561" 
d="M509 468l-52 -37q-26 42 -67 68l36 51q52 -32 83 -82zM338 589l-11 -62q-23 5 -47 5t-47 -5l-11 62q30 7 58 7q29 0 58 -7zM546 331q0 -29 -7 -59l-63 11q6 23 6 47q0 25 -6 48l63 11q7 -30 7 -58zM509 193q-32 -50 -83 -83l-36 53q41 25 67 67zM171 499q-42 -26 -67 -68
l-53 37q32 50 83 82zM84 283l-63 -11q-6 28 -6 59q0 30 6 58l63 -11q-5 -23 -5 -48q0 -24 5 -47zM338 72q-29 -7 -58 -7q-28 0 -58 7l11 62q23 -5 47 -5t47 5zM171 163l-37 -53q-51 33 -83 83l53 37q25 -42 67 -67z" />
    <glyph glyph-name="uniF601" unicode="&#xf601;" horiz-adv-x="475" 
d="M511 -196q-3 -6 -9.5 -22.5t-14.5 -34.5t-14.5 -34t-9.5 -22q-8 -21 -22 -41.5t-33 -36.5t-41.5 -25.5t-47.5 -9.5q-26 0 -50 12.5t-48 20.5q-14 5 -29.5 2.5t-30.5 -9.5t-29 -16.5t-24 -18.5q-23 -23 -40.5 -42t-37.5 -39q9 42 27 87.5t46 83.5t65 64t84 29
q13 1 25.5 -4t24 -11.5t23 -12t22.5 -5.5q31 0 55 13t43.5 33.5t36 44.5t31.5 46q10 14 25.5 22t32.5 6q77 -22 138.5 -37t115.5 -23t106 -11t111 -1t129.5 7.5t161.5 14.5q49 4 104 15.5t111.5 26.5t110.5 32.5t102 35.5q115 42 205 109t170 161q1 2 4.5 4.5t7 4t6 0.5
t2.5 -7q0 -14 -10 -32t-15 -28q-30 -57 -73 -106t-93.5 -90.5t-106 -77t-110.5 -66.5q-124 -54 -254.5 -88.5t-264 -52t-267.5 -17.5q-135 0 -266 16q-34 4 -64.5 11t-54.5 21.5t-41.5 38t-24.5 59.5zM151 -13q5 14 15 27q24 31 48 61q29 34 60 44t48 -12q2 -7 0 -22
q-7 -11 -16 -14q-9 -2 -23 5t-23 5q-29 -9 -35 -44q0 -22 29 -34q10 -4 20 -4q19 0 43 16q35 24 42.5 27.5t13.5 1.5q2 -2 -4 -14q-4 -8 -53 -49q-13 -10 -43 -35q-30 -28 -87 -85q-21 -23 -35 -35q-12 0 -12 7q2 19 19 39l28 34l13 16q-17 8 -20 11q-12 7 -18 16
q-10 10 -10 38z" />
    <glyph glyph-name="uniFDF8" unicode="&#xfdfd;" horiz-adv-x="3973" 
d="M2197 -523q-7 132 -10.5 208t-5 115t-2 51t-0.5 15q0 57 6 120t26 120t58.5 101t104.5 62q11 3 31 5t32 3q5 11 13 26t19 24h2q1 0 2.5 -4.5t4 -10t4.5 -11t5 -7.5q20 -17 48.5 -22.5t51.5 -9.5q112 -11 218 -14t217 11q47 6 83 13t70.5 15t72.5 19t89 26q4 1 15 5
t35 14.5t65 29.5t105 51q43 20 87.5 48.5t81.5 64.5t62.5 79.5t30.5 94.5q1 8 2 21t1.5 27t1.5 26t2 15.5t2 5.5t1 3q15 23 30.5 47t34.5 44q0 -5 -2 -22.5t-4.5 -39.5t-5.5 -43t-5 -34q-14 -86 -47.5 -158.5t-83.5 -132.5t-113 -109t-135 -88q-33 -20 -90 -44.5
t-131.5 -48.5t-164 -44t-187.5 -31t-201.5 -9t-205.5 22q-2 -3 -4.5 -10t-6 -14t-7.5 -12.5t-8 -5.5q-1 1 -6 7t-12 14t-10 9q-17 10 -33.5 15.5t-36.5 5.5q-43 0 -72 -16.5t-47.5 -43t-28.5 -61.5t-14 -72t-4.5 -73.5t-0.5 -66.5v-7q0 -6 0.5 -23t1 -48.5t2.5 -85.5
t4.5 -135t6.5 -196v-11t-0.5 -19.5t-3 -19t-7.5 -8.5h-2q-1 2 -3 9.5t-6 30.5t-9.5 67t-13.5 121zM3903 175q-2 -8 -5.5 -23t-8.5 -20l-113 -113q0 6 1 18.5t5 16.5zM3736 291l88 -89l-95 -100q-8 6 -22 19.5t-27.5 27t-24.5 25.5t-13 15zM2892 620q0 -11 -1.5 -21.5
t-1.5 -21.5q0 -15 7 -27.5t18 -21.5t25 -14t28 -5q23 0 41.5 11t33 27.5t24.5 37t16 39.5q2 8 6 7.5t4 -4.5q1 -45 26 -58q10 -6 27 -9.5t34.5 -3t33 5.5t22.5 15q5 9 6 24.5t1 35.5v117q5 42 20.5 83t36.5 75v-133t-0.5 -72t-1 -30.5t-0.5 -7.5q-5 -26 -17.5 -67t-33 -81
t-49 -68.5t-65.5 -28.5q-68 0 -90 63q-10 -18 -21 -37t-25 -34t-31.5 -24.5t-41.5 -9.5t-39.5 9.5t-24 25t-11.5 35.5t-4 40q-12 -31 -26.5 -54.5t-33 -41.5t-42 -31.5t-53.5 -25.5q-7 -2 -17.5 -6t-18.5 -4h-4q50 46 96 91t87 99q5 7 13 23.5t16.5 34t16.5 30.5t14 13z
M3427 652q0 88 -4 175t-4 175q0 30 -0.5 64t8.5 63l44 144q3 -4 4 -24t2 -52t2 -72t2 -81t1.5 -79.5t1.5 -65.5v-89q0 -42 -3 -84t-10.5 -84t-23.5 -85q-3 -8 -10 -23.5t-13 -21.5q0 35 1.5 70t1.5 70zM2997 754v31q0 17 5 32q0 1 1.5 4.5t3.5 7.5t3.5 8t1.5 5t1 3.5t1 3.5
q2 -15 0 -30.5t-2 -30.5q0 -9 3 -22.5t17 -13.5q12 0 18 9t8.5 21t3 24t2.5 18q2 5 6.5 16.5t8.5 18.5v-62q0 -14 14.5 -20.5t25.5 -4.5q1 28 3 52t15 48v-75q0 -9 -2 -21.5t-6.5 -24.5t-12 -20.5t-19.5 -8.5q-14 0 -21.5 8.5t-11.5 16.5q-5 -12 -13.5 -26t-24.5 -14
q-9 0 -15 4.5t-9 11.5t-4 15.5t-1 15.5zM3104 1212q0 -11 -0.5 -36.5t-2 -54t-3 -54.5t-1.5 -38q-1 -11 -4 -29t-8 -36.5t-13 -35.5t-18 -24q-1 16 3 31.5t5 31.5l5 152q0 2 1.5 8.5t3.5 9.5q2 5 6 15.5t8.5 22t9.5 22t8 15.5zM95 -766q-4 47 -8 104t-7 114.5t-6 112
t-4 96.5q0 13 0.5 44.5t1 67t0.5 67.5v44q3 76 18 149.5t47.5 133.5t85 102t131.5 57q-8 -1 -34 -8q9 21 13.5 30t8.5 16q15 31 36.5 69.5t50 72t63.5 56.5t77 25q15 0 23 -3t13.5 -6.5t11.5 -7.5t18 -6q34 -11 59 9q25 19 49 45.5t37 55.5q-7 4 -20.5 12t-29 16t-30 15
t-23.5 11q-41 17 -83 7.5t-70 -41.5q2 23 14 45t30 38.5t39 26.5t40 10q18 0 37 -7t38 -16.5t38 -20t38 -18.5q12 -5 24 -5q6 0 15.5 2.5t17.5 2.5t10 -4t-7 -16l-157 -209q-5 -8 -13.5 -17t-18.5 -16.5t-21 -13t-22 -5.5q-11 -1 -20.5 2.5t-18.5 9t-17.5 10.5t-18.5 7
q-35 5 -62.5 -6t-53.5 -31q25 -11 51 -30.5t34 -47.5q3 -27 -4.5 -49.5t-21.5 -45.5q-23 -35 -61 -55.5t-78 -28.5q-3 0 -14 -2t-23.5 -4t-23.5 -3.5t-14 -2.5q-53 -14 -96 -50t-58 -93q-2 -9 -4 -24.5l-4 -31t-3 -28t0 -14.5q-1 -177 -1.5 -351t-2.5 -352v-21t-5 -20h-1
q-2 0 -4 3.5t-3 8t-2 8.5t-1 5zM931 -177q0 77 19.5 150.5t48.5 144.5q0 2 3 7.5t3.5 6.5t1.5 2t2 1v-15q-13 -51 -24.5 -101.5t-11.5 -104.5q0 -48 12 -96t37.5 -85.5t65 -61t93.5 -23.5q80 0 145 37.5t110 104.5q31 47 54 95t24 105q0 60 -0.5 118t-7.5 115q0 1 -1 5.5
t-1.5 9.5t-1.5 9.5t-1 5.5q0 7 1 16t3.5 18.5t7 17.5t11.5 13q11 -11 25 -13.5t28.5 -0.5t28.5 8t25 13q22 14 32 35t21 43q23 46 67 72q24 39 48.5 74t66.5 56q16 8 37.5 18t43 20.5t40.5 21.5t32 20q-2 4 -17 6.5t-34 4t-36.5 2t-23.5 0.5q-19 0 -33.5 -0.5t-27 -4
t-24.5 -11.5t-25 -23q-5 -5 -10 -11t-9.5 -9.5t-7.5 -4.5t-3 4q11 35 30.5 58t45.5 47q12 11 30 16.5t38 7.5t39 1.5t34 -0.5q18 0 41 -0.5t43 -2.5q14 1 14 -6q0 -6 -2 -14q-15 -24 -31.5 -49.5t-36.5 -48.5t-43.5 -42t-50.5 -30q-8 -3 -21 -7.5t-26.5 -9t-25 -9.5
t-17.5 -9q20 -18 38.5 -43t18.5 -55q0 -7 -7.5 -25t-18 -36.5t-21.5 -33t-18 -14.5q-8 0 -14.5 4.5t-12.5 7.5q-13 7 -27 11t-28 4q-20 0 -34 -8t-26 -22q-11 -19 -25 -42t-33 -38q-2 -2 -9 -7.5t-15.5 -12t-15.5 -11.5t-10 -6q-6 -3 -8 -13q-4 -69 -10 -132.5t-20 -132.5
q-9 -45 -24.5 -94.5t-37.5 -97.5t-51.5 -91.5t-67 -76.5t-83.5 -52.5t-101 -19.5q-69 0 -114.5 28t-72.5 73t-38.5 102.5t-11.5 116.5zM301 -288q14 15 29.5 31t29 30.5t25 25t17.5 14.5l82 -83q2 -2 16 11t30.5 29.5t31.5 30.5t18 13l88 -86q-41 -40 -62.5 -61.5
t-30.5 -31.5t-12 -13h-1q-8 8 -26 31.5t-52 55.5q-28 -29 -45.5 -46t-27.5 -27t-14.5 -13t-6.5 -3q2 0 -1 2.5t-13.5 11.5t-28.5 27.5t-46 50.5zM1162 8q27 41 43 64.5t25 35.5t16 18q1 0 4 -1.5t13.5 -9t32 -23.5t61.5 -46q4 -3 6.5 -7.5t0.5 -10.5q-6 -9 -17 -25t-24 -33
t-26.5 -32t-24.5 -22q-32 23 -63.5 44.5t-46.5 47.5zM2186 370q0 9 1.5 30.5t2.5 46t2.5 46t1.5 30.5q0 24 -0.5 52.5t-0.5 55.5q0 28 1.5 51.5t6.5 37.5l53 158h2q4 -94 2.5 -184.5t-7.5 -188.5q-3 -38 -10.5 -78.5t-21 -79t-34.5 -73t-51 -61.5q-9 -8 -20 -14.5l-22 -13
t-21 -14t-17 -18.5q-3 -4 -9 -17.5t-12 -30t-11.5 -31t-7.5 -19.5q-9 -21 -18 -35.5t-20.5 -24.5t-27 -16.5t-37.5 -10.5q-12 -3 -33 -6.5t-42.5 -7.5t-41 -6.5t-28.5 -2.5q0 1 3.5 4t22.5 16.5t60.5 42t118.5 80.5q24 16 35 38.5t18.5 47.5l15 50t24.5 46q8 11 18 21.5
t22 18.5q8 6 21 12t25.5 13t22.5 15.5t13 19.5zM1634 803q-7 -36 -18 -68t-27 -65q-3 -5 -6.5 -10t-8.5 -10l12 95q2 50 5 99t5 99q1 15 5 30.5t10 29.5q3 6 8.5 20t12.5 29.5t13.5 28.5t10.5 17q-6 -93 -9.5 -149t-6 -87t-4 -43t-2.5 -16zM414 953q9 6 27 16t37 20t35.5 19
t22.5 12q1 0 4.5 2.5t7.5 5t7.5 5t3.5 4.5q0 3 -5 5t-11 2.5t-12 0.5h-7h-21q-10 0 -19 -5q-8 -3 -10 -5.5t-9 -2.5q0 11 6.5 20.5t12.5 17.5q19 27 43.5 32t56.5 3q11 -2 16.5 -7t5.5 -16t-11 -27.5t-26 -33.5t-31 -30t-27 -16q-45 -12 -66 -17.5t-29 -7.5q0 1 -1 1.5
t-1 1.5zM1179 968q2 0 2 -3q0 -2 -2 -2t-2 2q0 3 2 3zM1189 571q0 88 -4 175t-4 175q0 29 -0.5 63.5t8.5 63.5l44 143q3 -3 4 -23t2 -52t2 -72t2 -81t1.5 -79.5t1.5 -65.5v-89t-3 -85t-10.5 -84t-23.5 -85q-3 -8 -10 -23.5t-13 -21.5q0 35 1.5 70.5t1.5 70.5zM2376 538
q0 88 -4 175t-4 175q0 29 -1 63.5t8 63.5l45 143q3 -3 4 -23t2 -52t2 -72t2 -81t1.5 -79.5t1.5 -65.5v-89t-3 -85t-11 -84t-24 -85q-3 -8 -9.5 -23.5t-12.5 -21.5q-1 35 1 70.5t2 70.5zM763 416q0 13 0.5 26.5t4.5 25.5q0 2 3.5 10.5t4.5 10.5q0 1 1 3t1 3q2 -13 0 -25.5
t-2 -25.5q0 -8 3 -18.5t14 -10.5q10 0 14.5 7.5t6.5 17t2.5 19.5t2.5 15t5.5 14.5t7.5 14.5v-51q0 -12 12 -17.5t21 -3.5q0 23 1.5 43t12.5 40v-62q0 -7 -1.5 -17.5t-5.5 -20.5t-10 -17t-16 -7q-11 0 -17.5 6.5t-9.5 13.5q-5 -10 -11.5 -21.5t-20.5 -11.5q-15 0 -19.5 14
t-4.5 25zM1956 381q0 13 0.5 26.5t4.5 26.5q0 2 3.5 10t4.5 10q0 1 2 6q2 -13 0 -25t-2 -26q0 -7 3 -18t14 -11q10 0 14.5 7.5t6.5 17.5t2.5 20t2.5 15q2 4 5.5 13.5t7.5 15.5v-52q0 -11 12 -16.5t21 -3.5q0 23 1.5 42.5t12.5 39.5v-62q0 -7 -1.5 -17.5t-5.5 -20.5t-10 -17
t-16 -7q-11 0 -17.5 7t-9.5 14q-5 -11 -11.5 -22t-20.5 -11q-15 0 -19.5 13.5t-4.5 24.5zM987 399q1 9 2 30.5t2.5 45.5t2.5 45.5t1 30.5q0 24 -0.5 52.5t-0.5 55.5q0 28 1.5 52t6.5 38l53 157h2q5 -94 3 -184t-8 -188q-3 -38 -10.5 -78.5t-21 -79t-34.5 -73.5t-51 -62
q-9 -8 -20 -14.5l-22 -13t-21 -14t-17 -18.5q-3 -4 -9 -17.5t-12 -29.5t-11.5 -30.5t-7.5 -19.5q-9 -21 -18 -35.5t-20 -24.5t-27 -16.5t-38 -11.5q-12 -2 -32.5 -6t-42.5 -7.5t-41.5 -6t-24 -2.5t-3.5 1.5t7 5.5t18 13t35 24.5t58 39t86 58.5q24 16 35.5 39t18.5 48
t14.5 50t24.5 46q9 11 18.5 21.5t21.5 18.5q8 6 21 12t25.5 13t22.5 15.5t13 19.5zM756 966q4 11 11 29t15 25q67 39 111.5 64t75 40.5t51 25t40.5 18.5q-3 -6 -8.5 -15t-12.5 -19t-14 -18t-13 -12q-62 -30 -106 -55t-74 -43t-48.5 -28.5t-27.5 -11.5zM1960 933
q5 11 12 29.5t15 24.5q67 39 111.5 64t75 40.5t51 25t39.5 18.5q-2 -5 -8 -14t-12.5 -19t-14 -18t-12.5 -12q-62 -30 -106 -55t-74.5 -43.5t-48.5 -29t-28 -11.5z" />
    <glyph glyph-name="quoteleft" unicode="&#x2018;" horiz-adv-x="333" 
d="M217 677v-21q-50 -30 -68 -56q-13 -19 -13 -45q0 -15 6 -23q5 -7 12 -7q5 0 14 3q13 5 21 5q20 0 35 -15t15 -37q0 -24 -15 -38q-21 -19 -49 -19q-33 0 -59 28t-26 69q0 58 43 105q29 31 84 51z" />
    <glyph glyph-name="quoteright" unicode="&#x2019;" horiz-adv-x="333" 
d="M116 424v23q51 30 69 56q12 18 12 44q0 15 -5 23q-6 7 -13 7q-5 0 -14 -3q-13 -5 -21 -5q-19 0 -34.5 15t-15.5 37q0 24 15 38q21 18 49 18q33 0 59 -27.5t26 -68.5q0 -58 -43 -105q-29 -31 -84 -52z" />
    <glyph glyph-name="quotedblleft" unicode="&#x201c;" horiz-adv-x="444" 
d="M159 677v-20q-43 -22 -61.5 -46.5t-18.5 -53.5q0 -17 5 -23q4 -7 11 -7q6 0 17 3.5t19 3.5q20 0 35 -15t15 -36q0 -24 -18 -40.5t-45 -16.5q-33 0 -59 28t-26 70q0 49 32.5 91t93.5 62zM392 676v-19q-49 -28 -64.5 -50.5t-15.5 -52.5q0 -14 5 -21t11 -7q5 0 16 4t22 4
q20 0 35 -14.5t15 -35.5q0 -24 -19 -41.5t-46 -17.5q-33 0 -58.5 28t-25.5 69q0 52 32.5 94t92.5 60z" />
    <glyph glyph-name="quotedblright" unicode="&#x201d;" horiz-adv-x="444" 
d="M56 425v21q49 28 64.5 50.5t15.5 52.5q0 13 -5 20t-11 7q-5 0 -16 -4t-21 -4q-21 0 -35.5 15t-14.5 36q0 23 18.5 40.5t45.5 17.5q32 0 58.5 -27.5t26.5 -70.5q0 -51 -33 -93.5t-93 -60.5zM289 425v21q43 22 61.5 46.5t18.5 53.5q0 17 -5 24q-5 6 -10 6q-7 0 -18 -4
t-19 -4q-20 0 -35 15.5t-15 36.5q0 23 18 40t45 17q33 0 59.5 -28.5t26.5 -69.5q0 -49 -32.5 -91.5t-94.5 -62.5z" />
    <glyph glyph-name="space" unicode=" " horiz-adv-x="310" 
 />
    <glyph glyph-name="quotedbl.001" horiz-adv-x="847" 
d="M490 11l-169 -9q-65 -3 -99 -3q-111 0 -177 31q-30 14 -30 43q3 25 20 52q17 23 33 46q28 39 78 68q24 14 91 42q19 8 26 53q0 32 -7 79q12 24 34 71q10 8 14 6q0 -122 -5 -150q-17 -84 -87 -113l-64 -24q-36 -17 -52 -46q-2 -13 6 -19q12 -9 34 -14q18 -3 36 -7l171 -10
q66 -4 213 -1l155 3l112 6q4 0 9 -4l-1 -7q-77 -66 -186 -77zM227 -136l2 6q21 28 65 81l6 -2q25 -21 78 -59v-9q-16 -24 -62 -74q-4 -2 -9 -2q-7 0 -32 16q-18 12 -48 43z" />
    <glyph glyph-name="nine.005" horiz-adv-x="847" 
d="M212 -111v5q18 21 73 76l5 -2q25 -24 77 -66l5 1l51 56l6 -1q41 -39 73 -64q2 -2 -1 -11q-20 -25 -67 -70q-9 -2 -17 3.5t-15 10.5q-14 12 -28.5 26t-21.5 29q-18 -19 -53 -53q-5 -5 -11 -5q-4 0 -32 19q-17 14 -44 46zM276 -258l68 71l6 -1q21 -21 67 -59q0 -7 -8 -15
q-11 -12 -12 -13q-15 -17 -47 -45q-10 0 -32 16q-12 10 -25 22t-17 24zM490 11l-169 -9q-65 -3 -99 -3q-111 0 -177 31q-30 14 -30 43q3 25 20 52q17 23 33 46q28 39 78 68q24 14 91 42q19 8 26 53q0 32 -7 79q12 24 34 71q10 8 14 6q0 -122 -5 -150q-17 -84 -87 -113
l-64 -24q-36 -17 -52 -46q-2 -13 6 -19q12 -9 34 -14q18 -3 36 -7l171 -10q66 -4 213 -1l155 3l112 6q4 0 9 -4l-1 -7q-77 -66 -186 -77z" />
    <glyph glyph-name="D.002" horiz-adv-x="847" 
d="M295 577h-3q-17 -21 -56 -56q-19 3 -37 19t-34 31q-10 9 -10 17q12 15 69 77h6q50 -44 77 -65h3q18 22 55 61l6 -3q28 -27 73 -61v-8q-21 -27 -67 -74q-10 -1 -39 17q-17 13 -43 45zM490 11l-169 -9q-65 -3 -99 -3q-111 0 -177 31q-30 14 -30 43q3 25 20 52q17 23 33 46
q28 39 78 68q24 14 91 42q19 8 26 53q0 32 -7 79q12 24 34 71q10 8 14 6q0 -122 -5 -150q-17 -84 -87 -113l-64 -24q-36 -17 -52 -46q-2 -13 6 -19q12 -9 34 -14q18 -3 36 -7l171 -10q66 -4 213 -1l155 3l112 6q4 0 9 -4l-1 -7q-77 -66 -186 -77z" />
    <glyph glyph-name="L.003" horiz-adv-x="847" 
d="M299 771h5q0 -1 -3 -99q-3 -24 -10 -47q5 2 14 10t14 9q19 10 38 6q16 -5 21 -20q1 -6 1 -11q0 -21 -18 -43q-17 -17 -34 -35q-15 -10 -45 -12q-38 -3 -49 -6q-2 0 -17 -2q-10 -2 -18 0q-5 4 -1 10q8 7 25 14q46 59 45 91q1 6 0 59q0 37 15 53q6 9 17 23zM338 607l-5 3
q-24 4 -46 -18l-30 -41q22 6 45.5 12.5t35.5 24.5q6 12 0 19zM490 11l-169 -9q-65 -3 -99 -3q-111 0 -177 31q-30 14 -30 43q3 25 20 52q17 23 33 46q28 39 78 68q24 14 91 42q19 8 26 53q0 32 -7 79q12 24 34 71q10 8 14 6q0 -122 -5 -150q-17 -84 -87 -113l-64 -24
q-36 -17 -52 -46q-2 -13 6 -19q12 -9 34 -14q18 -3 36 -7l171 -10q66 -4 213 -1l155 3l112 6q4 0 9 -4l-1 -7q-77 -66 -186 -77z" />
    <glyph glyph-name="P.002" horiz-adv-x="847" 
d="M227 734v7q22 26 65 74l6 -2q23 -20 70 -55q2 -2 0 -13q-19 -24 -64 -66q-9 -3 -17 2.5t-15 11.5q-31 21 -45 41zM149 592l3 8q44 52 67 75l6 -1q40 -36 73 -59q1 0 2.5 -3t3.5 -3q21 27 55 63h4q25 -22 78 -63l-2 -8q-19 -24 -59 -70q-10 -10 -20 -1q-41 21 -67 52
q-1 1 -2 5t-4 2q-25 -33 -54 -58q-7 -2 -14.5 2.5t-14.5 8.5q-15 11 -31 23.5t-24 26.5zM490 11l-169 -9q-65 -3 -99 -3q-111 0 -177 31q-30 14 -30 43q3 25 20 52q17 23 33 46q28 39 78 68q24 14 91 42q19 8 26 53q0 32 -7 79q12 24 34 71q10 8 14 6q0 -122 -5 -150
q-17 -84 -87 -113l-64 -24q-36 -17 -52 -46q-2 -13 6 -19q12 -9 34 -14q18 -3 36 -7l171 -10q66 -4 213 -1l155 3l112 6q4 0 9 -4l-1 -7q-77 -66 -186 -77z" />
    <glyph glyph-name="quotedbl.002" horiz-adv-x="846" 
d="M276 712l5 -1q25 -22 76 -62q-19 -36 -70 -81q-17 2 -34.5 16.5t-32.5 28.5t-13 22q34 42 69 77zM642 25l-172 -15q-135 -12 -215 -12q-82 0 -147 10q-82 12 -93 61q2 24 21 53q16 24 32 49q29 36 79 65q45 23 90 45q27 14 27 54q0 -5 -5 55l-2 23q4 15 15 35
q16 32 18 35q8 8 11 6q0 -39 1 -113q-8 -79 -39 -114q-21 -23 -68 -42q-57 -23 -74 -34q-31 -21 -26 -41q5 -10 38 -22l47 -9l161 -10h158l233 3l91 7q8 1 8 -7q-11 -13 -36 -27q-64 -47 -153 -55z" />
    <glyph glyph-name="quotedbl.003" horiz-adv-x="846" 
d="M271 915l27 38l6 -1q1 -7 -1 -17q-2 -14 -2 -17l-2 -54q-3 -32 -11 -53q6 1 15 8.5t13 8.5q33 11 49.5 -2.5t9.5 -40.5q-36 -64 -76 -72q-33 -2 -95 -11q-10 0 -14 4q1 16 26 23q46 56 46 92q3 13 3 47q-1 31 6 47zM255 738v-3q32 6 40 8q22 7 34 20q8 11 7 21l-6 6
q-6 2 -12 2q-18 0 -33.5 -18.5t-29.5 -35.5zM276 672l5 -1q25 -22 76 -62q-19 -36 -70 -81q-17 2 -34.5 16.5t-32.5 28.5t-13 22q34 42 69 77zM642 25l-172 -15q-135 -12 -215 -12q-82 0 -147 10q-82 12 -93 61q2 24 21 53q16 24 32 49q29 36 79 65q45 23 90 45q27 14 27 54
q0 -5 -5 55l-2 23q4 15 15 35q16 32 18 35q8 8 11 6q0 -39 1 -113q-8 -79 -39 -114q-21 -23 -68 -42q-57 -23 -74 -34q-31 -21 -26 -41q5 -10 38 -22l47 -9l161 -10h158l233 3l91 7q8 1 8 -7q-11 -13 -36 -27q-64 -47 -153 -55z" />
    <glyph glyph-name="igrave.001" horiz-adv-x="844" 
d="M684 28l-72 -9l-155 -11l-153 -4q-144 -4 -215.5 14.5t-73.5 59.5q4 24 19 47t30 44q33 48 105 88q97 52 115.5 68.5t36.5 34.5q21 22 40 22q9 0 19 -5q4 -2 11 -12t12 -10q3 0 6.5 2.5t11.5 23.5q6 15 21 12l9 -11q5 -12 5 -26q0 -33 -25 -66q-21 -17 -40 -9
q-3 2 -26 21q-17 14 -30 14q-9 0 -19 -7q-21 -22 -66 -59q-4 -3 -83 -35q-51 -20 -71 -53q0 -13 -1 -11q31 -27 93 -34l93 -10l266 -4h199l72 3q6 0 11 -5q-1 -5 -14 -15q-68 -50 -131 -58zM407 5q-2 -13 -11 -31q-12 -21 -14 -29q-22 -51 -22 -84q0 -14 5 -25.5t14 -8.5
q4 3 13 24q6 15 21 12q12 -7 14 -38q-2 -52 -45 -72q-21 -6 -32 3q-26 20 -26 61q0 16 6 53q12 68 65 140q11 0 12 -5z" />
    <glyph glyph-name="braceleft.002" horiz-adv-x="214" 
d="M185 264q9 -24 9 -52q0 -43 -22 -100q-43 -112 -111 -110q-31 5 -44 39q-2 13 -2 27q0 33 33 132q-6 1 -17 8q7 31 13 53q3 22 12 62q8 5 45 1q58 -6 84 -60zM134 169q-19 26 -56 28q-31 -62 -26 -111q6 -19 20 -24q5 -1 10 -1q20 0 56 36q7 14 7 30q0 23 -11 42zM36 494
q3 10 10 19q19 23 36 46q20 24 43 32q23 7 34 -9q3 -5 0 -16q-4 -8 -10 -10q-7 -2 -17 3.5t-17 2.5q-21 -5 -25 -31q0 -16 20 -26q8 -2 15 -2q14 0 32 12q25 17 30.5 19.5t10.5 1.5q1 -2 -3 -10q-4 -6 -39 -37q-10 -6 -31 -25q-23 -20 -64 -62q-15 -16 -25 -25q-9 0 -9 5
q1 14 14 29q10 11 20 24l9 12q-12 6 -14 8q-8 5 -13 12q-7 7 -7 27z" />
    <glyph glyph-name="braceright.002" horiz-adv-x="838" 
d="M333 -3h-153l-90 12q-49 11 -72 44q-3 7 -3 16q0 17 17 46q61 105 148 143q24 13 48 25q27 17 38 40q15 23 35 63q3 5 8 6q5 0 7 -6q-15 -76 -62 -133q-16 -14 -87 -44q-56 -23 -74 -61q-1 -7 4.5 -11.5t10.5 -8.5q59 -27 183 -27h275q169 0 251 6q2 0 6 -4
q-2 -5 -33 -28q-55 -41 -145 -55q-28 -4 -160 -13zM223 534q3 10 10 19q19 23 36 46q20 24 43 32q23 7 34 -9q3 -5 0 -16q-4 -8 -10 -10q-7 -2 -17 3.5t-17 2.5q-21 -5 -25 -31q0 -16 20 -26q8 -2 15 -2q14 0 32 12q25 17 30.5 19.5t10.5 1.5q1 -2 -3 -10q-4 -6 -39 -37
q-10 -6 -31 -25q-23 -20 -64 -62q-15 -16 -25 -25q-9 0 -9 5q1 14 14 29q10 11 20 24l9 12q-12 6 -14 8q-8 5 -13 12q-7 7 -7 27z" />
    <glyph glyph-name="quotedbl.004" horiz-adv-x="846" 
d="M642 25l-172 -15q-135 -12 -215 -12q-82 0 -147 10q-82 12 -93 61q2 24 21 53q16 24 32 49q29 36 79 65q45 23 90 45q27 14 27 54q0 -5 -5 55l-2 23q4 15 15 35q16 32 18 35q8 8 11 6q0 -39 1 -113q-8 -79 -39 -114q-21 -23 -68 -42q-57 -23 -74 -34q-31 -21 -26 -41
q5 -10 38 -22l47 -9l161 -10h158l233 3l91 7q8 1 8 -7q-11 -13 -36 -27q-64 -47 -153 -55zM212 -111v5q18 21 73 76l5 -2q25 -24 77 -66l5 1l51 56l6 -1q41 -39 73 -64q2 -2 -1 -11q-20 -25 -67 -70q-9 -2 -17 3.5t-15 10.5q-14 12 -28.5 26t-21.5 29q-18 -19 -53 -53
q-5 -5 -11 -5q-4 0 -32 19q-17 14 -44 46z" />
    <glyph glyph-name="guillemotright.001" horiz-adv-x="390" 
d="M91 343l2 -2q22 6 44 6q55 0 86 -32q24 -25 24 -69q0 -23 -8 -61q-7 -15 -25 -74q-14 -46 -30 -70q-26 -38 -75 -38q-8 0 -16 1q-65 15 -75 133q-3 36 -3 80q0 43 4 124q4 85 4 124q-4 29 12 67q22 57 24 64q1 2 4 4q10 0 10 -7q-18 -132 -16 -258q2 1 4.5 5t3.5 5
q2 8 19 35q29 45 142 149q7 6 96 80q58 48 90 89q5 12 22 28q3 0 6 -8l-1 -15q-18 -44 -49 -89q-48 -52 -129 -118q-131 -107 -134 -110q-29 -25 -36 -43zM201 194q-20 32 -60 41q-53 5 -81 -27q-8 -18 3 -48q25 -40 66 -45q49 0 75 53q3 15 -3 26z" />
    <glyph glyph-name="Ccedilla.003" horiz-adv-x="393" 
d="M250 665l116 98l13 16q8 8 15 7l3 -6q-16 -57 -119 -142q-52 -43 -74 -63q-39 -36 -66 -71q-7 0 -10 3t3 14q21 59 57 90zM67 345v3q20 44 68 94q13 13 87 81q53 46 106 91q62 55 97 99q2 5 9 13q8 2 8 -6q1 -12 -5 -28q-6 -12 -12 -25q-14 -34 -47 -69q-6 -7 -61 -58
q-27 -25 -185 -150q-16 -15 -39 -47l2 -2q24 6 46 6q59 0 87 -37q21 -28 21 -67q0 -36 -19 -88l-34 -96q-27 -53 -79 -57q-44 -3 -72 37q-30 58 -28 146l5 194q2 18 2 48v23q0 36 4 57q12 31 34 92q4 3 11 -2l2 -6q-15 -119 -17 -256q3 -2 4.5 3.5t4.5 6.5zM207 188
q-12 34 -55 45q-11 3 -23 3q-36 0 -62 -22q-11 -10 -9 -29q3 -26 25 -48t48 -22q23 0 43 16q34 27 34 49q0 4 -1 8z" />
    <glyph glyph-name="bracketleft.004" 
d="M167 365h10q13 -6 34.5 -23t33.5 -23q4 -8 3 -10q-18 -22 -56 -65q-9 -6 -14 -1q-38 20 -66 49q6 13 27 37.5t28 35.5z" />
    <glyph glyph-name="glyph208" 
d="M183 296h-3q-12 -15 -26 -32q-22 -25 -31 -32q-16 8 -37 25q-18 16 -36 31q-5 8 0 13q8 13 54 68q8 2 17.5 -6t13.5 -11q11 -8 32 -24q11 -9 25 -9q17 27 45 58q25 -18 78 -50q3 -7 -2 -12q-24 -38 -52 -73q-35 13 -78 54z" />
    <glyph glyph-name="glyph209" 
d="M183 296h-3q-12 -15 -26 -32q-22 -25 -31 -32q-16 8 -37 25q-18 16 -36 31q-5 8 0 13q8 13 54 68q8 2 17.5 -6t13.5 -11q11 -8 32 -24q11 -9 25 -9q17 27 45 58q25 -18 78 -50q3 -7 -2 -12q-24 -38 -52 -73q-35 13 -78 54zM161 500l7 -1q13 -6 34.5 -23t31.5 -25
q6 -6 5 -8q-18 -22 -56 -65q-9 -6 -14 -1q-38 20 -66 49q6 13 27 37.5t31 36.5z" />
    <glyph glyph-name="glyph210" 
d="M169 597l27 38l6 -1q1 -7 -1 -17q-2 -14 -2 -17l-2 -54q-3 -32 -11 -53q6 1 15 8.5t13 8.5q33 11 49.5 -2.5t9.5 -40.5q-36 -64 -76 -72q-33 -2 -95 -11q-10 0 -14 4q1 16 26 23q46 56 46 92q3 13 3 47q-1 31 6 47zM153 420v-3q32 6 40 8q22 7 34 20q8 11 7 21l-6 6
q-6 2 -12 2q-18 0 -33.5 -18.5t-29.5 -35.5zM167 365h10q13 -6 34.5 -23t33.5 -23q4 -8 3 -10q-18 -22 -56 -65q-9 -6 -14 -1q-38 20 -66 49q6 13 27 37.5t28 35.5z" />
    <glyph glyph-name="glyph211" 
d="M148 489l27 38l6 -1q1 -7 -1 -17q-2 -14 -2 -17l-2 -54q-3 -32 -11 -53q6 1 15 8.5t13 8.5q33 11 49.5 -2.5t9.5 -40.5q-36 -64 -76 -72q-33 -2 -95 -11q-10 0 -14 4q1 16 26 23q46 56 46 92q3 13 3 47q-1 31 6 47zM132 312v-3q32 6 40 8q22 7 34 20q8 11 7 21l-6 6
q-6 2 -12 2q-18 0 -33.5 -18.5t-29.5 -35.5z" />
    <glyph glyph-name="bracketleft.002" 
d="M86 -156h-10q-13 6 -34.5 23t-33.5 23q-4 8 -3 10q18 22 56 65q9 6 14 1q38 -20 66 -49q-6 -13 -27 -37.5t-28 -35.5z" />
    <glyph glyph-name="glyph213" 
d="M79 -71h3q12 15 26 32q22 25 31 32q16 -8 37 -25q18 -16 36 -31q5 -8 0 -13q-8 -13 -54 -68q-8 -2 -18 7t-13 10q-11 8 -32 24q-11 9 -25 9q-17 -27 -45 -58q-25 18 -78 50q-3 7 2 12q24 38 52 73q35 -13 78 -54z" />
    <glyph glyph-name="bracketleft.003" 
d="M79 -71h3q12 15 26 32q22 25 31 32q16 -8 37 -25q18 -16 36 -31q5 -8 0 -13q-8 -13 -54 -68q-8 -2 -18 7t-13 10q-11 8 -32 24q-11 9 -25 9q-17 -27 -45 -58q-25 18 -78 50q-3 7 2 12q24 38 52 73q35 -13 78 -54zM101 -275l-7 1q-13 6 -34.5 23t-31.5 25q-6 6 -5 8
q18 22 56 65q9 6 14 1q38 -20 66 -49q-6 -13 -27 -37.5t-31 -36.5z" />
    <glyph glyph-name="Yacute.004" horiz-adv-x="683" 
d="M705 191q-59 -106 -122 -129q-157 -61 -348 -62q-47 1 -94 6q-41 5 -72 15q-41 16 -49 52q-5 22 -5 50q0 34 13 112q1 5 8 7q9 1 11 -9q0 -24 1 -48q2 -28 22 -37q48 -21 121 -26q31 -2 129 -2q179 0 282 34q42 14 81 59zM310 -57l7 -1q13 -6 34.5 -23t31.5 -25
q6 -6 5 -8q-18 -22 -56 -65q-9 -6 -14 -1q-38 20 -66 49q6 13 27 37.5t31 36.5z" />
    <glyph glyph-name="Yacute.013" horiz-adv-x="683" 
d="M705 191q-59 -106 -122 -129q-157 -61 -348 -62q-47 1 -94 6q-41 5 -72 15q-41 16 -49 52q-5 22 -5 50q0 34 13 112q1 5 8 7q9 1 11 -9q0 -24 1 -48q2 -28 22 -37q48 -21 121 -26q31 -2 129 -2q179 0 282 34q42 14 81 59zM324 -118h3q12 15 26 32q22 25 31 32
q16 -8 37 -25q18 -16 36 -31q5 -8 0 -13q-8 -13 -54 -68q-8 -2 -18 7t-13 10q-11 8 -32 24q-11 9 -25 9q-17 -27 -45 -58q-25 18 -78 50q-3 7 2 12q24 38 52 73q35 -13 78 -54zM346 -322l-7 1q-13 6 -34.5 23t-31.5 25q-6 6 -5 8q18 22 56 65q9 6 14 1q38 -20 66 -49
q-6 -13 -27 -37.5t-31 -36.5z" />
    <glyph glyph-name="glyph220" horiz-adv-x="683" 
d="M705 191q-59 -106 -122 -129q-157 -61 -348 -62q-47 1 -94 6q-41 5 -72 15q-41 16 -49 52q-5 22 -5 50q0 34 13 112q1 5 8 7q9 1 11 -9q0 -24 1 -48q2 -28 22 -37q48 -21 121 -26q31 -2 129 -2q179 0 282 34q42 14 81 59zM340 311h-3q-12 -15 -26 -32q-22 -25 -31 -32
q-16 8 -37 25q-18 16 -36 31q-5 8 0 13q8 13 54 68q8 2 18 -7t13 -10q11 -8 32 -24q11 -9 25 -9q17 27 45 58q25 -18 78 -50q3 -7 -2 -12q-24 -38 -52 -73q-35 13 -78 54z" />
    <glyph glyph-name="Yacute.014" horiz-adv-x="683" 
d="M705 191q-59 -106 -122 -129q-157 -61 -348 -62q-47 1 -94 6q-41 5 -72 15q-41 16 -49 52q-5 22 -5 50q0 34 13 112q1 5 8 7q9 1 11 -9q0 -24 1 -48q2 -28 22 -37q48 -21 121 -26q31 -2 129 -2q179 0 282 34q42 14 81 59zM325 455l27 38l6 -1q1 -7 -1 -17q-2 -14 -2 -17
l-2 -54q-3 -32 -11 -53q6 1 15 8.5t13 8.5q33 11 49.5 -2.5t9.5 -40.5q-36 -64 -76 -72q-33 -2 -95 -11q-10 0 -14 4q1 16 26 23q46 56 46 92q3 13 3 47q-1 31 6 47zM309 278v-3q32 6 40 8q22 7 34 20q8 11 7 21l-6 6q-6 2 -12 2q-18 0 -33.5 -18.5t-29.5 -35.5z" />
    <glyph glyph-name="Yacute.015" horiz-adv-x="683" 
d="M705 191q-59 -106 -122 -129q-157 -61 -348 -62q-47 1 -94 6q-41 5 -72 15q-41 16 -49 52q-5 22 -5 50q0 34 13 112q1 5 8 7q9 1 11 -9q0 -24 1 -48q2 -28 22 -37q48 -21 121 -26q31 -2 129 -2q179 0 282 34q42 14 81 59zM329 267h-3q-12 -15 -26 -32q-22 -25 -31 -32
q-16 8 -37 25q-18 16 -36 31q-5 8 0 13q8 13 54 68q8 2 18 -7t13 -10q11 -8 32 -24q11 -9 25 -9q17 27 45 58q25 -18 78 -50q3 -7 -2 -12q-24 -38 -52 -73q-35 13 -78 54zM307 471l7 -1q13 -6 34.5 -23t31.5 -25q6 -6 5 -8q-18 -22 -56 -65q-9 -6 -14 -1q-38 20 -66 49
q6 13 27 37.5t31 36.5z" />
    <glyph glyph-name="w.009" horiz-adv-x="318" 
d="M318 242q-17 -8 -25 -15q-19 -18 -41 -59q-19 -46 -67 -132q-16 -16 -48 -20l-54 -6q-23 -4 -70 -13q-11 -1 -13 7q0 9 13 15l106 60q62 37 94 80q14 20 42 80q15 34 31 57z" />
    <glyph glyph-name="w.010" horiz-adv-x="318" 
d="M318 242q-17 -8 -25 -15q-19 -18 -41 -59q-19 -46 -67 -132q-16 -16 -48 -20l-54 -6q-23 -4 -70 -13q-11 -1 -13 7q0 9 13 15l106 60q62 37 94 80q14 20 42 80q15 34 31 57zM143 499l27 38l6 -1q1 -7 -1 -17q-2 -14 -2 -17l-2 -54q-3 -32 -11 -53q6 1 15 8.5t13 8.5
q33 11 49.5 -2.5t9.5 -40.5q-36 -64 -76 -72q-33 -2 -95 -11q-10 0 -14 4q1 16 26 23q46 56 46 92q3 13 3 47q-1 31 6 47zM127 322v-3q32 6 40 8q22 7 34 20q8 11 7 21l-6 6q-6 2 -12 2q-18 0 -33.5 -18.5t-29.5 -35.5z" />
    <glyph glyph-name="glyph237" horiz-adv-x="318" 
d="M318 242q-17 -8 -25 -15q-19 -18 -41 -59q-19 -46 -67 -132q-16 -16 -48 -20l-54 -6q-23 -4 -70 -13q-11 -1 -13 7q0 9 13 15l106 60q62 37 94 80q14 20 42 80q15 34 31 57zM168 415h10q13 -6 34.5 -23t33.5 -23q4 -8 3 -10q-18 -22 -56 -65q-9 -6 -14 -1q-38 20 -66 49
q6 13 27 37.5t28 35.5z" />
    <glyph glyph-name="w.011" horiz-adv-x="318" 
d="M318 242q-17 -8 -25 -15q-19 -18 -41 -59q-19 -46 -67 -132q-16 -16 -48 -20l-54 -6q-23 -4 -70 -13q-11 -1 -13 7q0 9 13 15l106 60q62 37 94 80q14 20 42 80q15 34 31 57zM138 336h-3q-12 -15 -26 -32q-22 -25 -31 -32q-16 8 -37 25q-18 16 -36 31q-5 8 0 13
q8 13 54 68q8 2 18 -7t13 -10q11 -8 32 -24q11 -9 25 -9q17 27 45 58q25 -18 78 -50q3 -7 -2 -12q-24 -38 -52 -73q-35 13 -78 54zM116 540l7 -1q13 -6 34.5 -23t31.5 -25q6 -6 5 -8q-18 -22 -56 -65q-9 -6 -14 -1q-38 20 -66 49q6 13 27 37.5t31 36.5z" />
    <glyph glyph-name="Ograve.005" horiz-adv-x="697" 
d="M697 502q-29 -31 -59 -45q-6 -2 -12 -2q-8 0 -22 4q-15 5 -20 7q-34 -55 -84 -51q-8 -1 -7 -10q2 -15 5 -87t-1 -98q-6 -70 -51 -164q-26 -51 -65 -90q-95 -89 -206 -89q-13 0 -27 2q-35 4 -67 32q-30 25 -44 59q-22 53 -22 122q0 77 31 197q5 16 18 44q4 2 10 0
q5 -8 1 -19q-24 -103 -24 -153q0 -43 12 -81q19 -61 81 -74q25 -5 49 -5q101 0 181 79q94 93 94 237q0 54 -14 109q2 42 9 68q2 5 4 6q4 1 7.5 -1.5t5.5 -4.5q23 -16 50 -16q18 0 32 8t36 44q5 7 9 1q1 -5 8 -12q20 -14 40 -7q13 5 26 19z" />
    <glyph glyph-name="Ograve.006" horiz-adv-x="697" 
d="M697 502q-29 -31 -59 -45q-6 -2 -12 -2q-8 0 -22 4q-15 5 -20 7q-34 -55 -84 -51q-8 -1 -7 -10q2 -15 5 -87t-1 -98q-6 -70 -51 -164q-26 -51 -65 -90q-95 -89 -206 -89q-13 0 -27 2q-35 4 -67 32q-30 25 -44 59q-22 53 -22 122q0 77 31 197q5 16 18 44q4 2 10 0
q5 -8 1 -19q-24 -103 -24 -153q0 -43 12 -81q19 -61 81 -74q25 -5 49 -5q101 0 181 79q94 93 94 237q0 54 -14 109q2 42 9 68q2 5 4 6q4 1 7.5 -1.5t5.5 -4.5q23 -16 50 -16q18 0 32 8t36 44q5 7 9 1q1 -5 8 -12q20 -14 40 -7q13 5 26 19zM520 608h-3q-12 -15 -26 -32
q-22 -25 -31 -32q-16 8 -37 25q-18 16 -36 31q-5 8 0 13q8 13 54 68q8 2 18 -7t13 -10q11 -8 32 -24q11 -9 25 -9q17 27 45 58q25 -18 78 -50q3 -7 -2 -12q-24 -38 -52 -73q-35 13 -78 54zM498 812l7 -1q13 -6 34.5 -23t31.5 -25q6 -6 5 -8q-18 -22 -56 -65q-9 -6 -14 -1
q-38 20 -66 49q6 13 27 37.5t31 36.5z" />
    <glyph glyph-name="glyph246" horiz-adv-x="735" 
d="M735 371h-3q-18 1 -43 10l-29 13q-50 -30 -132 -26l-1 -6q-17 -226 -161 -394q-94 -91 -193 -91q-48 0 -86 26t-55 71t-17 99q0 80 42 203q8 22 28 64q6 10 13 3q4 -8 -2 -26q-39 -115 -39 -172q0 -47 19 -84q35 -68 139 -62q137 7 222 136q55 83 55 224q0 39 -4 83
q1 8 14 58q2 2 4 2q3 0 7.5 -4.5t7.5 -5.5q41 -6 42 -6q20 17 73 94q41 60 88 75q49 6 68 -25q5 -15 5 -31q0 -37 -36 -103q-32 -48 -52 -65q11 -1 23 0h3v-60zM739 599q-43 5 -80 -38q-29 -37 -59 -74v-3l31 2q91 6 128 71q2 5 2 12q0 10 -8 22q-6 6 -14 8z" />
    <glyph glyph-name="glyph248" horiz-adv-x="735" 
d="M735 371h-3q-18 1 -43 10l-29 13q-50 -30 -132 -26l-1 -6q-17 -226 -161 -394q-94 -91 -193 -91q-48 0 -86 26t-55 71t-17 99q0 80 42 203q8 22 28 64q6 10 13 3q4 -8 -2 -26q-39 -115 -39 -172q0 -47 19 -84q35 -68 139 -62q137 7 222 136q55 83 55 224q0 39 -4 83
q1 8 14 58q2 2 4 2q3 0 7.5 -4.5t7.5 -5.5q41 -6 42 -6q20 17 73 94q41 60 88 75q49 6 68 -25q5 -15 5 -31q0 -37 -36 -103q-32 -48 -52 -65q11 -1 23 0h3v-60zM739 599q-43 5 -80 -38q-29 -37 -59 -74v-3l31 2q91 6 128 71q2 5 2 12q0 10 -8 22q-6 6 -14 8zM545 767l7 -1
q13 -6 34.5 -23t31.5 -25q6 -6 5 -8q-18 -22 -56 -65q-9 -6 -14 -1q-38 20 -66 49q6 13 27 37.5t31 36.5z" />
    <glyph glyph-name="c157.011" horiz-adv-x="300" 
d="M300 406h-3q-51 0 -78 44h-3q-148 -118 -148 -280q0 -26 4 -52q6 -36 31 -67t60 -41q32 -9 65 -9q129 0 222 120q33 42 70 132q5 7 10 5q6 -1 4 -17q-34 -124 -108 -218q-86 -108 -198 -136q-23 -6 -45 -6q-75 0 -118 53q-50 61 -50 155q0 111 63 235q56 110 121 169
q-7 39 -72 56q-3 1 -20 -1q-13 -2 -18 6q-2 14 29 37q59 35 125 36q11 0 22 -2q38 -9 53 -32q4 -8 3 -18q0 -25 -40 -65l-26 -26q14 -16 45 -18v-60z" />
    <glyph glyph-name="c157.012" horiz-adv-x="300" 
d="M300 406h-3q-51 0 -78 44h-3q-148 -118 -148 -280q0 -26 4 -52q6 -36 31 -67t60 -41q32 -9 65 -9q129 0 222 120q33 42 70 132q5 7 10 5q6 -1 4 -17q-34 -124 -108 -218q-86 -108 -198 -136q-23 -6 -45 -6q-75 0 -118 53q-50 61 -50 155q0 111 63 235q56 110 121 169
q-7 39 -72 56q-3 1 -20 -1q-13 -2 -18 6q-2 14 29 37q59 35 125 36q11 0 22 -2q38 -9 53 -32q4 -8 3 -18q0 -25 -40 -65l-26 -26q14 -16 45 -18v-60zM162 788l7 -1q13 -6 34.5 -23t31.5 -25q6 -6 5 -8q-18 -22 -56 -65q-9 -6 -14 -1q-38 20 -66 49q6 13 27 37.5t31 36.5z
" />
    <glyph glyph-name="uacute.015" horiz-adv-x="282" 
d="M282 148q-2 -1 -8 -11q-34 -101 -114 -129q-23 -8 -56 -8q-47 1 -70 25q-14 17 -19 31l7 5l31 -5q5 6 8 19q3 14 4 22q5 36 5 80q0 18 -3 101q-3 63 0 104q13 34 37 101q5 13 12 12q5 -2 2 -34q-3 -48 -2 -231q1 -96 -39 -174l11 -4q106 -4 137 43q20 40 23 98v104
q-2 62 2 181q6 23 20 55q22 52 23 53q3 8 9 7l3 -8q-4 -23 -5 -62q-1 -49 -1 -59v-3v-132q0 -51 21 -77z" />
    <glyph glyph-name="quoteleft.001" horiz-adv-x="326" 
d="M339 42q-12 -6 -23 -10q-75 -27 -153 -32q-48 -1 -57 1q-51 4 -76 67q-12 29 -13 67l-2 56l10 298q1 21 12 50q16 43 17.5 46t4.5 9.5t7 6.5q2 0 4 -1l3 -4q-3 -30 -8 -90l-8 -168h2q32 73 160 183l130 112q49 42 80 88q2 7 10 5q7 -2 6 -8q-35 -89 -81 -132
q-36 -34 -221 -184q-15 -13 -29 -27q-17 -16 -23 -30l2 -2q22 6 45 6q53 0 81.5 -28.5t28.5 -74.5q0 -31 -14 -78q-24 -78 -73 -133q68 5 143 30q12 4 22 9zM181 221q-22 17 -56 17q-25 0 -43 -11q-28 -18 -26 -36q6 -50 60 -71q8 -2 16 -2q25 0 49 20q23 26 23 47
q0 13 -23 36z" />
    <glyph glyph-name="quoteleft.002" horiz-adv-x="326" 
d="M403 830l2 -5q-12 -44 -51 -84q-22 -23 -79 -67q-53 -41 -75 -66q-20 -18 -54 -57q-4 -6 -8 -3q-5 6 1 20q8 19 17.5 38.5t23.5 32.5q34 32 97 86q75 61 101 85q5 6 11.5 13.5t13.5 6.5zM339 42q-12 -6 -23 -10q-75 -27 -153 -32q-48 -1 -57 1q-51 4 -76 67
q-12 29 -13 67l-2 56l10 298q1 21 12 50q16 43 17.5 46t4.5 9.5t7 6.5q2 0 4 -1l3 -4q-3 -30 -8 -90l-8 -168h2q32 73 160 183l130 112q49 42 80 88q2 7 10 5q7 -2 6 -8q-35 -89 -81 -132q-36 -34 -221 -184q-15 -13 -29 -27q-17 -16 -23 -30l2 -2q22 6 45 6
q53 0 81.5 -28.5t28.5 -74.5q0 -31 -14 -78q-24 -78 -73 -133q68 5 143 30q12 4 22 9zM181 221q-22 17 -56 17q-25 0 -43 -11q-28 -18 -26 -36q6 -50 60 -71q8 -2 16 -2q25 0 49 20q23 26 23 47q0 13 -23 36z" />
    <glyph glyph-name="six.004" horiz-adv-x="201" 
d="M45 162q1 -2 3 -5q24 -29 54 -35q19 -1 37 14q21 21 28 55q7 7 13 4q6 -10 4 -28q-2 -15 -6 -31q-25 -107 -91 -134q-8 -2 -15 -2q-36 0 -55 33q-10 16 -17 40q-1 5 -2 9z" />
    <glyph glyph-name="Yacute.005" horiz-adv-x="203" 
d="M-8 203q1 2 8 10q24 27 40 54q15 19 29 17q11 0 31.5 -7t29.5 -7q13 0 23 8q4 3 12 18q7 12 17 13l5 -5q1 -8 -11 -34q-15 -23 -23 -32q-14 -17 -31 -24q-14 -2 -35.5 6.5t-32.5 7.5q-8 -2 -24 -23q-4 -8 -8 -14q-7 -11 -9 -15z" />
    <glyph glyph-name="agrave.002" horiz-adv-x="513" 
d="M0 521q-2 3 0 10q4 11 7 18q47 101 141 163l143 94q20 13 42 39q7 3 9 -6q-2 -18 -15 -38.5t-25 -38.5q-18 -20 -56 -42l-108 -62q-53 -36 -87 -89q-2 -6 0 -10z" />
    <glyph glyph-name="adieresis.005" horiz-adv-x="252" 
d="M45 211l3 -6t2 -3q27 -35 81 -37q46 7 71 51q35 68 27 8q-7 -38 -12 -48q-7 -28 -18 -49q-19 -34 -48 -56q-22 -15 -46 -19q-65 -6 -89 38q-14 25 -16 76v7z" />
    <glyph glyph-name="w.003" horiz-adv-x="119" 
d="M-40 284q3 5 8 12q10 13 18 21q9 7 44 21q26 11 38 28l10 24q5 12 18 14q4 -1 7 -7l1 -4q-13 -78 -53 -127q-11 -9 -38 -19q-5 -2 -13 -5q-7 -3 -13 -7z" />
    <glyph glyph-name="otilde.002" horiz-adv-x="145" 
d="M-17 521q8 -4 17 -4q30 5 42 23q18 27 24 111q-1 15 -2 38q2 37 9 55t36 64q18 19 20 1q1 -15 -4 -37q-6 -27 -7 -37l-14 -110q-10 -64 -33 -103q-30 -47 -71 -56q-10 -3 -19 -3z" />
    <glyph glyph-name="uacute.005" horiz-adv-x="122" 
d="M-8 473q4 1 8 3q36 17 45 41q6 18 8 57q1 17 -1 48q-2 36 -2 50q0 43 11 69l32 75q9 9 14 0q-8 -56 -8 -108q0 -112 1 -91q-2 -50 -14 -86q-18 -49 -59 -87q-11 -10 -27 -19q-5 -3 -10 -5z" />
    <glyph glyph-name="o.003" horiz-adv-x="135" 
d="M-9 86q3 1 9 5q12 7 18 12q30 23 38 61q5 23 2.5 73t1.5 73q5 15 49 103q3 5 8 3q3 -2 3 -14t-1 -16q-10 -34 -13 -96q-3 -68 -8 -94q-11 -51 -32 -93q-27 -51 -66 -66q-6 -2 -9 -2v51z" />
    <glyph glyph-name="p.003" horiz-adv-x="166" 
d="M-16 164l16 6q34 16 58 38q27 32 27 96q0 8 -1 24q-1 11 0 23q0 55 19 85q12 22 34 64q3 5 8 5q6 -2 6 -7q-5 -34 -14 -101q-4 -47 -7 -95q-7 -55 -27 -92q-44 -69 -103 -97q-9 -5 -19 -9z" />
    <glyph glyph-name="Thorn.002" horiz-adv-x="90" 
d="M-17 394l5 5q14 15 22 30q15 30 13 61q-2 15 -4 42.5t-2 40.5q0 23 5 43q14 31 44 93q7 1 9 -5q-3 -24 -9 -71q-2 -18 -2 -42v-47q-1 -88 -28 -133q-11 -17 -30 -37l-6 -6z" />
    <glyph glyph-name="H.003" horiz-adv-x="212" 
d="M43 174q2 -9 3 -12q4 -16 8 -20q13 -16 38 -18q20 -1 37 7q14 6 29 31q10 22 13 43q13 32 24 5q2 -33 -1 -62q-2 -22 -9 -45q-21 -82 -78 -101q-10 -3 -20 -3q-30 0 -56 28q-20 22 -27 58q-2 8 -4 37q-1 9 0 15z" />
    <glyph glyph-name="I.002" horiz-adv-x="154" 
d="M-6 564q3 -4 6 -7q18 -11 36 -12q15 0 27 4q18 5 26 47q2 26 22 31q16 0 22 -20.5t6 -41.5q-1 -55 -31 -99q-12 -18 -29 -30q-27 -17 -57 -17q-13 0 -25 5l-16 9l-4 2z" />
    <glyph glyph-name="agrave.010" horiz-adv-x="306" 
d="M-51 419q-2 3 0 10q4 11 7 18q47 101 141 163l143 94q20 13 42 39q7 3 9 -6q-2 -18 -15 -38.5t-25 -38.5q-18 -20 -56 -42l-108 -62q-53 -36 -87 -90q-1 -6 3 -8z" />
    <glyph glyph-name="aacute.002" horiz-adv-x="181" 
d="M-9 452h11q17 -6 35 -6q49 0 84 37q11 11 28 65q2 5 8 5q7 -1 8 -7q1 -31 -26 -91q-40 -65 -97 -73h-51v70z" />
    <glyph glyph-name="acircumflex.002" horiz-adv-x="139" 
d="M-5 268l5 1l6 2q56 35 56 83q0 108 3 124q10 33 45 82q5 7 14 4q-8 -72 -17 -145q-10 -88 -42 -137q-31 -48 -65 -77q-4 -4 -8 -6z" />
    <glyph glyph-name="E.004" horiz-adv-x="301" 
d="M-13 132q6 4 13 8q31 15 56 17q21 2 51.5 -15.5t47.5 -17.5q33 -4 67 19q14 10 52 47q10 12 12 -7l-1 -5q-33 -59 -77 -106q-73 -71 -122 -72q-21 0 -50 29q-17 15 -36 20q-7 2 -13 2v81z" />
    <glyph glyph-name="J.003" horiz-adv-x="243" 
d="M-39 308l2 4q7 13 13 21q68 95 125 131q38 23 54 32q31 16 58 22q7 1 11 -3q4 -7 -1 -17q-11 -18 -29 -54q-7 -7 -21 -11t-22 -8q-85 -37 -151 -111q-5 -6 -15 -20l-2 -4z" />
    <glyph glyph-name="Igrave.004" horiz-adv-x="119" 
d="M-34 379q0 3 1 6q7 27 17 53q24 65 24 98q0 43 -29 77q-2 3 -16 17q-11 11 -11 20q0 4 2 8q15 30 41 91q12 -3 25 -20q41 -57 41 -128q0 -31 -7 -60q-9 -40 -52 -136q-3 -10 -2 -20v-6h-34z" />
    <glyph glyph-name="uacute.006" horiz-adv-x="176" 
d="M21 289q7 -25 17 -37q14 -12 30 -17q24 -11 51 5q13 9 27 46q4 8 11 7l3 -3q1 -52 -30 -119q-23 -50 -54 -62q-6 -2 -14 -2q-34 1 -62 41q-7 9 -12 20z" />
    <glyph glyph-name="Idieresis.023" horiz-adv-x="145" 
d="M-22 65q12 4 22 9q61 34 77 75q1 3 2 7q2 10 2 13l1 13q2 21 -1 57q-4 42 -5 57q-1 11 4 28q6 24 7 27q9 19 25 54l4 9q1 4 6 12q7 7 8 -4q-6 -60 -3 -140v-20q0 -27 -4 -63q-4 -37 -15 -61q-39 -68 -95 -96q-12 -6 -23 -10z" />
    <glyph glyph-name="three.003" horiz-adv-x="163" 
d="M-7 148l-18 18l6 8q6 8 14 22q10 16 18 23q13 12 28 10q6 0 20 -3.5t21 -3.5q11 0 18 7q10 11 19.5 35t17.5 33q10 2 10 -5q1 -7 -4 -23q-3 -9 -5 -14q-10 -24 -21 -47q-17 -30 -37 -40q-10 -5 -33 -1t-28 2q-9 -2 -19 -12z" />
    <glyph glyph-name="P.003" horiz-adv-x="135" 
d="M-8 396l8 -4q4 -2 7 -4q14 -9 32 -5q20 7 38 32l28 42q4 4 12 2q3 -4 3 -9t-4 -13q-4 -11 -5 -13q-14 -32 -32 -60q-22 -31 -48 -42q-16 -4 -31 1l-8 4v69z" />
    <glyph glyph-name="dollar.001" horiz-adv-x="209" 
d="M-3 504l3 6q10 19 16 40q3 14 13 44q3 4 7 5q5 0 5 -7q3 -66 37 -90q23 -12 45 -11q16 0 28 7q9 5 18.5 21t15.5 21q8 2 9 -5q-8 -67 -62 -138q-26 -28 -58 -28q-31 3 -47 33q-6 15 -17 45q-4 -5 -10 -14l-3 -4v75z" />
    <glyph glyph-name="three.009" horiz-adv-x="148" 
d="M0 230q32 -2 61 -1q18 1 33 24q19 30 26 35q7 1 11 -7q2 -9 -3 -19.5t-9 -18.5q-44 -75 -53 -84q-27 -33 -66 -38v109z" />
    <glyph glyph-name="equal.007" horiz-adv-x="351" 
d="M-57 227l-3 1q-2 3 -2 10q25 59 136 133q38 25 99 48q51 18 103 37l51 20q6 3 9 -4q-13 -23 -39 -50q-30 -24 -79 -42q-41 -15 -83 -29q-94 -35 -135 -84v-3z" />
    <glyph glyph-name="glyph297" horiz-adv-x="121" 
d="M-11 246q6 4 11 7q11 -1 25 6q29 20 31 67q1 40 1 80l-2 18q0 22 12 47q10 21 21 42q2 4 7 4q10 0 9 -13q-2 -18 0 -88q2 -54 -9 -87q-31 -94 -81 -127q-11 -7 -24 -6z" />
    <glyph glyph-name="Idieresis.009" horiz-adv-x="145" 
d="M-22 166q12 4 22 9q61 34 77 75q1 3 2 7q2 10 2 13l1 13q2 21 -1 57q-4 42 -5 57q-1 11 4 28q6 24 7 27q9 19 25 54l4 9q1 4 6 12q7 7 8 -4q-6 -60 -3 -140v-20q0 -27 -4 -63q-4 -37 -15 -61q-39 -68 -95 -96q-12 -6 -23 -10z" />
    <glyph glyph-name="o.015" horiz-adv-x="137" 
d="M-16 412q5 -22 16 -38q13 -16 25 -24q27 -17 52 1q11 8 26 42q5 11 14 5q5 -5 3 -14q-2 -14 -2 -16q-16 -55 -27 -78q-21 -42 -55 -60q-28 -11 -57 7q-9 6 -19 20l-5 6z" />
    <glyph glyph-name="glyph300" horiz-adv-x="233" 
d="M-39 277q2 5 6 13q63 102 124 154q54 47 116 69q11 4 11 -6q-2 -10 -13 -26q-14 -19 -18 -29t-22 -30q-118 -51 -165 -132l-3 -5z" />
    <glyph glyph-name="comma.005" horiz-adv-x="633" 
d="M-7 300l-18 18l6 8q6 8 14 22q10 16 18 23q13 12 28 10q6 0 20 -3.5t21 -3.5q11 0 18 7q10 11 19.5 35t17.5 33q10 2 10 -5q1 -7 -4 -23q-3 -9 -5 -14q-10 -24 -21 -47q-17 -30 -37 -40q-10 -5 -33 -1t-28 2q-9 -2 -19 -12z" />
    <glyph glyph-name="equal.008" horiz-adv-x="731" 
d="M-57 393l-3 1q-2 3 -2 10q25 59 136 133q38 25 99 48q51 18 103 37l51 20q6 3 9 -4q-13 -23 -39 -50q-30 -24 -79 -42q-41 -15 -83 -29q-94 -35 -135 -84v-3z" />
    <glyph glyph-name="glyph303" horiz-adv-x="365" 
d="M-10 356q5 -1 10 -1q11 -1 25 6q29 20 31 67q1 40 1 80l-2 18q0 22 12 47q10 21 21 42q2 4 7 4q10 0 9 -13q-2 -18 0 -88q2 -54 -9 -87q-31 -94 -81 -127q-11 -7 -24 -6v58z" />
    <glyph glyph-name="Idieresis.010" horiz-adv-x="303" 
d="M-22 293q12 4 22 9q61 34 77 75q1 3 2 7q2 10 2 13l1 13q2 21 -1 57q-4 42 -5 57q-1 11 4 28q6 24 7 27q9 19 25 54l4 9q1 4 6 12q7 7 8 -4q-6 -60 -3 -140v-20q0 -27 -4 -63q-4 -37 -15 -61q-39 -68 -95 -96q-12 -6 -23 -10z" />
    <glyph glyph-name="o.016" horiz-adv-x="633" 
d="M-16 429q5 -22 16 -38q13 -16 25 -24q27 -17 52 1q11 8 26 42q5 11 14 5q5 -5 3 -14q-2 -14 -2 -16q-16 -55 -27 -78q-21 -42 -55 -60q-28 -11 -57 7q-9 6 -19 20l-5 6z" />
    <glyph glyph-name="glyph306" horiz-adv-x="555" 
d="M-39 336q2 5 6 13q63 102 124 154q54 47 116 69q11 4 11 -6q-2 -10 -13 -26q-14 -19 -18 -29t-22 -30q-118 -51 -165 -132l-3 -5z" />
    <glyph glyph-name="c129.001" horiz-adv-x="397" 
d="M43 167q2 -5 5 -10q16 -27 37 -34l4 -1q18 40 37 81q23 46 51 74q20 16 45 16q20 0 54 -13q41 -15 55 -18l45 -8q6 -1 3 -12q-32 -27 -87 -96t-87 -96q-53 -46 -113 -52q-56 -2 -88 66q-2 4 -4 9q-4 13 -4 15zM303 208l-44 17q-6 1 -25.5 7t-29.5 6q-34 0 -66 -74
q-7 -15 -17 -46q101 4 182 90z" />
    <glyph glyph-name="Yacute.006" horiz-adv-x="398" 
d="M-19 192q16 22 23 42q4 15 7 23q5 14 12 12q6 1 7 -15t11 -28q22 -28 43 -38q49 -20 103 2q24 12 51 36q26 24 39 44q-22 8 -60.5 30.5t-57.5 29.5q-20 3 -39 -14q-14 -13 -29 -31q-9 -9 -13 7q2 9 13 29q48 67 87 64q20 -2 43 -14q19 -10 39 -21q54 -33 111 -55
q12 -7 2 -13q-63 -35 -109 -87q-61 -68 -119 -82q-48 -8 -78 14q-36 32 -51 74q-9 -23 -16 -32z" />
    <glyph glyph-name="bracketleft.005" horiz-adv-x="517" 
d="M0 519q5 21 23 53q38 66 118 113q20 12 146 70q14 8 15 17q-35 23 -141 31q-12 1 -43 -10q-18 -11 -31 -29q-7 -7 -11 6q4 18 21 37t35 31q31 18 76 18q36 0 119 -19q11 -3 20 -8q12 -7 10 -12q-29 -81 -92 -114q-49 -23 -99 -46q-58 -29 -93 -61q-2 -2 -6 -6.5
t-12 -20.5q-2 -4 -7 -23z" />
    <glyph glyph-name="u.002" horiz-adv-x="420" 
d="M44 213q2 -5 4 -8q19 -31 63 -40q18 40 35 80q22 47 47 75q18 20 46 20q18 0 46 -9q21 -7 43.5 -13.5t69.5 -15.5q7 -3 3 -11q-29 -26 -89 -104q-56 -72 -94 -101q-58 -45 -125 -42q-44 3 -69 27q-17 17 -20.5 44t-3.5 51v7zM323 257l-26 9q-8 2 -34 10q-22 8 -35 8
q-20 0 -33 -17q-32 -41 -50 -102q53 -1 118 37q16 12 33.5 25.5t26.5 29.5z" />
    <glyph glyph-name="w.004" horiz-adv-x="257" 
d="M-44 276q6 11 12 20q23 23 55 41q29 16 36 21q20 13 32 30q20 24 59 71q-20 5 -62 16q-9 2 -31.5 10t-34.5 8q-17 0 -30 -15q-8 -7 -16.5 -24t-15.5 -24q-10 -7 -13 8q2 18 16 52q24 59 68 61q24 1 57 -10q42 -10 55 -12q33 -5 85 -19q14 -4 12 -9q0 -8 -9.5 -15.5
t-18.5 -13.5q-77 -61 -114 -148q-24 -55 -98 -82q-7 -3 -19 -10z" />
    <glyph glyph-name="f.002" horiz-adv-x="334" 
d="M-17 521q8 -4 17 -4q17 1 36 7q14 5 29 12t28 16q20 15 51 41q26 23 52 45q7 6 15 20q-22 9 -54 28q-26 16 -53 32q-18 10 -40 -6q-13 -10 -39 -36q-7 -5 -12 5q-2 8 3.5 17.5t10.5 15.5q46 59 85 59q8 0 17 -2t31 -12q40 -23 72 -41q42 -24 74 -35q13 -4 4 -13
q-7 -7 -49 -28q-44 -28 -108.5 -80.5t-108.5 -78.5q-21 -11 -44 -17q-10 -3 -19 -3z" />
    <glyph glyph-name="U.002" horiz-adv-x="306" 
d="M-14 471q3 1 14 5q40 21 96 75q73 72 93 87l-3 5q-33 25 -99 71q-18 11 -36 11q-12 0 -21 -6l-27 -25q-1 -1 -6 -1q-9 4 -1 18q38 66 79 66q35 0 91 -41q72 -54 118 -79q7 -4 1 -9l-20 -16q-16 -13 -70 -43q-45 -26 -68 -50q-59 -62 -81 -81q-29 -24 -46 -33
q-24 -14 -60 -15z" />
    <glyph glyph-name="y.003" horiz-adv-x="348" 
d="M-25 77q15 8 25 14q42 25 70 44q32 21 80 66q59 55 78 70q-62 55 -105 83q-17 7 -30 7q-12 0 -20 -7l-25 -24q-10 -8 -12 8q4 14 30.5 47t68.5 27q29 -8 66 -36q32 -23 63 -47q11 -8 32.5 -23t30.5 -25q6 -6 -25 -24q-35 -21 -72 -52q-17 -15 -68 -63q-66 -74 -162 -105
q-13 -4 -28 -7z" />
    <glyph glyph-name="z.002" horiz-adv-x="367" 
d="M-29 161q14 3 29 9q11 4 42 22q21 14 73 62q17 17 40 37q33 30 40 36q17 16 52 45v3q-34 26 -68 51q-47 35 -72 35q-13 0 -27 -14q-16 -18 -23 -21q-7 -2 -7 8q8 28 32.5 52.5t51.5 24.5q28 0 91 -43l70 -44q21 -12 49 -37q8 -11 -21 -29q-93 -59 -156 -119
q-29 -28 -89 -76q-45 -33 -78 -50q-19 -10 -30 -12z" />
    <glyph glyph-name="h.004" horiz-adv-x="201" 
d="M-39 382q12 7 21 17q41 69 103 136q-36 24 -110 65q-29 14 -50 0q-13 -10 -31 -34q-8 -9 -11 6q8 33 28 58q24 28 55 28q22 1 43 -9q41 -21 99 -52q22 -11 68 -30q10 -6 2 -17q-15 -15 -67 -53q-41 -33 -61 -58q-40 -55 -50 -65q-17 -17 -39 -34v42z" />
    <glyph glyph-name="z.003" horiz-adv-x="405" 
d="M38 237q1 -12 1 -23q17 -71 56 -77q6 9 38 80q22 48 48 75q20 15 45 15q21 0 56 -12q42 -15 54 -17q16 -2 46 -8q8 -3 3 -14q-29 -25 -87 -100q-55 -69 -91 -97q-56 -45 -119 -46q-50 -1 -72 49q-9 19 -16 60q-1 25 38 115zM129 134h22q90 13 157 88q-40 18 -76 26
q-38 5 -47 -4q-19 -21 -40 -67q-10 -21 -16 -43z" />
    <glyph glyph-name="asciicircum.003" horiz-adv-x="358" 
d="M-11 572q7 -12 11 -15q22 -13 54 -11q15 41 30 81q18 48 42 77q22 23 55 23q19 0 41 -6.5t51.5 -11.5t61.5 -14q8 -2 1 -9q-25 -26 -84 -109q-53 -75 -90 -106q-56 -48 -122 -48q-11 0 -23.5 1.5t-37.5 9.5q1 -1 10 138zM262 647l-20 6q-1 0 -36 9q-23 6 -38 6
q-13 0 -24 -8q-28 -24 -45 -66q-9 -24 -9 -48q94 9 172 101z" />
    <glyph glyph-name="o.004" horiz-adv-x="319" 
d="M-44 448q1 3 12 22q38 66 118 113q20 12 146 70q14 8 15 17q-35 23 -141 31q-12 1 -43 -10q-18 -11 -31 -29q-7 -7 -11 6q4 18 21 37t35 31q31 18 76 18q36 0 119 -19q11 -3 20 -8q12 -7 10 -12q-29 -81 -92 -114q-49 -23 -99 -46q-58 -29 -93 -61q-2 -2 -6 -6.5
t-12 -20.5q-2 -4 -7 -23z" />
    <glyph glyph-name="a.002" horiz-adv-x="321" 
d="M-33 453q17 -3 29 -3q35 1 57 9q37 15 80 52q36 33 72 65l-1 3q-14 9 -57 43q-34 28 -58 37q-31 12 -47 -4l-23 -23h-5q-7 4 -1 20q39 60 77 63q36 -2 80 -33q69 -49 71 -50q12 -10 30 -22q25 -15 32 -20q3 -9 -24 -25q-37 -21 -74 -43q-43 -25 -70 -53q-77 -80 -135 -85
l-23 -2h-5z" />
    <glyph glyph-name="less.001" horiz-adv-x="279" 
d="M-5 268l5 1q6 1 13 3q38 19 84 63q39 39 77 78l-2 3q-22 9 -112 57q-6 3 -13 3q-18 0 -39 -21q-3 -2 -10 -11.5t-11 -13.5q-6 -6 -9.5 -3t-4.5 13q0 5 5.5 13t7.5 11q19 28 30 39q20 20 41 21q27 1 60 -16q43 -23 68 -33.5t69 -30.5q10 -4 2 -11q-24 -16 -67 -51
q-30 -23 -96 -94q-57 -62 -101 -89z" />
    <glyph glyph-name="b.003" horiz-adv-x="427" 
d="M-14 131q7 5 14 9q34 14 51 15q26 1 56.5 -18t46.5 -20q44 2 87 38q35 33 71 66l-51 27q-14 7 -39 23q-24 16 -40 16q-14 0 -27 -9q-5 -4 -14.5 -13.5t-17.5 -18.5q-9 -11 -14 -2.5t-3 13.5q8 15 17 27q43 56 83 56q8 0 15 -2q19 -6 46 -21q39 -21 44 -24q28 -13 85 -39
q5 -3 11 -9q5 -7 -0.5 -11t-13.5 -8q-62 -37 -120 -87q-25 -25 -74 -76q-69 -64 -115 -63q-22 0 -46 30q-20 16 -38 19q-5 1 -13 2z" />
    <glyph glyph-name="Y.005" horiz-adv-x="201" 
d="M-63 270q19 34 39 63q20 32 39 48q22 22 90 67q17 11 17 22q-58 30 -147 23q-31 -4 -59 -39q-12 -22 -21 -6q-2 4 4 14q42 72 90 84q95 17 175 -14q22 -9 16 -24q-16 -47 -65 -93q-25 -20 -64 -45q-28 -22 -51 -56q-17 -21 -29 -45z" />
    <glyph glyph-name="Z.003" horiz-adv-x="234" 
d="M-35 377l2 8q16 52 43 86q28 31 74 67q71 56 76 60q12 10 11 19q-25 9 -59 9q-33 0 -79 -4q-43 -8 -68 -58q-4 -8 -11 -1q-4 5 -4 10q0 7 6 20t8 17q32 66 119 73q89 7 124 -1q12 -3 8 -19q-3 -25 -18 -63.5t-83 -85.5q-53 -39 -60 -46q-34 -29 -47 -59q-7 -16 -7 -24
q0 -3 1 -10z" />
    <glyph glyph-name="degree.001" horiz-adv-x="785" 
d="M-26 223q5 4 8 6q36 25 92 54q68 34 100 64q12 14 0 17q-67 14 -138 8q-28 -2 -64 -47q-3 -3 -6 -1q-5 3 -6.5 5.5t-1.5 6.5q0 5 5.5 14t7.5 11q44 69 102 73q86 2 138 -10q32 -9 20 -40q-49 -122 -220 -180q-5 -2 -11 -5l-10 -6z" />
    <glyph glyph-name="D.010" horiz-adv-x="412" 
d="M31 262l7 -10q19 -23 41 -35q6 -3 11 -4q4 -1 9 -1q17 38 35 76q21 46 45 73t66 20q44 -9 138 -37q14 -4 3 -13q-32 -27 -73 -84q-49 -67 -69 -88q-42 -45 -91 -62q-16 -6 -33 -6q-30 0 -61.5 13t-58.5 44h-5zM310 295v3l-26 10q-6 2 -33 10q-22 7 -35 7q-17 0 -30 -11
q-33 -37 -56 -105q-1 -2 3 -2q93 3 177 88z" />
    <glyph glyph-name="bracketleft.007" horiz-adv-x="310" 
d="M-22 65q12 4 22 9q80 45 138 97l62 55v3q-57 39 -105 65q-20 9 -39 -2q-14 -10 -42 -34q-7 -5 -9 8q1 8 22 36q35 46 69 45q26 -1 58 -22q28 -21 51 -34q33 -17 39 -20q22 -10 41 -13q10 -4 5 -11q-118 -94 -223 -172q-23 -18 -54 -33q-11 -6 -24 -10z" />
    <glyph glyph-name="quotedbl.005" horiz-adv-x="378" 
d="M-25 166l6 8q12 15 24 39q8 16 17 19q10 1 18.5 -13.5t17.5 -17.5q15 -7 32 -7q31 0 70 23t104 71v4q-45 32 -102 81q-13 11 -35 4q-18 -6 -49 -31q-6 -3 -12 7q-1 7 5 12.5t11 11.5q50 52 82 52q28 0 62 -29l54 -46q25 -17 77 -48q6 -5 4 -12q-41 -18 -120 -62
q-41 -30 -83 -60q-50 -36 -92 -38q-24 2 -51 28q-7 5 -15 -5q-4 -5 -7 -9z" />
    <glyph glyph-name="slash.002" horiz-adv-x="322" 
d="M-8 396l8 -4q28 -14 60 -11t90 55l62 55v3q-57 39 -105 65q-20 9 -39 -2q-14 -10 -42 -34q-7 -5 -9 8q1 8 22 36q35 46 69 45q26 -1 58 -22q28 -21 51 -34q33 -17 39 -20q22 -10 41 -13q10 -4 5 -11q-124 -85 -220 -173q-33 -24 -56 -22q-13 1 -26 6l-8 4v69z" />
    <glyph glyph-name="slash.003" horiz-adv-x="429" 
d="M-3 504l3 6q10 19 16 40q3 14 13 44q3 4 7 5q5 0 5 -7q4 -89 78 -86q6 9 38 80q22 48 48 75q20 15 45 15q21 0 56 -12q42 -15 54 -17q16 -2 46 -8q8 -3 3 -14q-29 -25 -87 -100q-55 -69 -91 -97q-56 -45 -119 -46q-54 4 -102 65l-13 -18v75zM153 503h22q90 13 157 88
q-40 18 -76 26q-38 5 -47 -4q-19 -21 -40 -67q-10 -21 -16 -43z" />
    <glyph glyph-name="three.031" horiz-adv-x="323" 
d="M0 230q33 -3 61 -2q32 3 90 55l62 55v3q-57 39 -105 65q-20 9 -39 -2q-14 -10 -42 -34q-7 -5 -9 8q1 8 22 36q35 46 69 45q26 -1 58 -22q28 -21 51 -34q33 -17 39 -20q22 -10 41 -13q10 -4 5 -11q-124 -85 -204 -169q-15 -16 -31 -32q-29 -32 -68 -37v109z" />
    <glyph glyph-name="D.003" horiz-adv-x="328" 
d="M-57 227l-3 1q-2 3 -2 10q19 57 56 83q38 25 99 48q51 18 103 37l51 20q10 5 15 17l2 11q-45 53 -134 60q-29 -4 -65 -46q-5 -5 -9 2q-2 4 -2 8q3 9 14 26q43 62 93 66q95 -7 147 -60q5 -8 4 -16q-11 -49 -56 -99q-28 -31 -118 -65q-41 -15 -83 -29q-50 -18 -55 -34v-3z
" />
    <glyph glyph-name="D.004" horiz-adv-x="282" 
d="M-11 246q6 4 11 7q11 -1 25 6q27 11 85 63l62 55v3q-57 39 -105 65q-20 9 -39 -2q-14 -10 -42 -34q-7 -5 -9 8q1 8 22 36q35 46 69 45q26 -1 58 -22q28 -21 51 -34q33 -17 39 -20q22 -10 41 -13q10 -4 5 -11q-124 -85 -220 -173q-21 -18 -28 -23q-11 -7 -24 -6z" />
    <glyph glyph-name="D.005" horiz-adv-x="310" 
d="M-22 166q12 4 22 9q80 45 138 97l62 55v3q-57 39 -105 65q-20 9 -39 -2q-14 -10 -42 -34q-7 -5 -9 8q1 8 22 36q35 46 69 45q26 -1 58 -22q28 -21 51 -34q33 -17 39 -20q22 -10 41 -13q10 -4 5 -11q-118 -94 -223 -172q-23 -18 -54 -33q-12 -6 -23 -10z" />
    <glyph glyph-name="D.006" horiz-adv-x="379" 
d="M-16 412q5 -22 16 -38q33 -45 69 -58q6 9 38 80q22 48 48 75q20 15 45 15q21 0 56 -12q42 -15 54 -17q16 -2 46 -8q8 -3 3 -14q-29 -25 -87 -100q-55 -69 -91 -97q-56 -45 -119 -46q-54 4 -102 65l-5 6zM103 313h22q90 13 157 88q-40 18 -76 26q-38 5 -47 -4
q-19 -21 -40 -67q-10 -21 -16 -43z" />
    <glyph glyph-name="glyph336" horiz-adv-x="294" 
d="M-39 277q2 5 6 13q63 102 126 150q54 44 114 73q10 5 15 17l-1 4q-71 29 -171 27q-29 -4 -55 -46q-5 -5 -9 2q-2 4 -2 8q1 9 12 27q40 64 85 65q105 2 164 -31q18 -12 19 -25q-1 -29 -30 -64q-15 -15 -48 -35t-74 -51q-62 -48 -112 -121l-3 -5z" />
    <glyph glyph-name="quotedbl.006" horiz-adv-x="633" 
d="M-25 322l6 8q12 15 24 39q8 16 17 19q10 1 18.5 -13.5t17.5 -17.5q15 -7 32 -7q31 0 70 23t104 71v4q-45 32 -102 81q-13 11 -35 4q-18 -6 -49 -31q-6 -3 -12 7q-1 7 5 12.5t11 11.5q50 52 82 52q28 0 62 -29l54 -46q25 -17 77 -48q6 -5 4 -12q-41 -18 -120 -62
q-41 -30 -83 -60q-50 -36 -92 -38q-24 2 -51 28q-7 5 -15 -5q-4 -5 -7 -9z" />
    <glyph glyph-name="glyph338" horiz-adv-x="731" 
d="M-57 393l-3 1q-2 3 -2 10q19 57 56 83q38 25 99 48q51 18 103 37l51 20q10 5 15 17l2 11q-45 53 -134 60q-29 -4 -65 -46q-5 -5 -9 2q-2 4 -2 8q3 9 14 26q43 62 93 66q95 -7 147 -60q5 -8 4 -16q-11 -49 -56 -99q-28 -31 -118 -65q-41 -15 -83 -29q-50 -18 -55 -34v-3z
" />
    <glyph glyph-name="D.007" horiz-adv-x="365" 
d="M-10 356q5 -1 10 -1q11 -1 25 6q27 11 85 63l62 55v3q-57 39 -105 65q-20 9 -39 -2q-14 -10 -42 -34q-7 -5 -9 8q1 8 22 36q35 46 69 45q26 -1 58 -22q28 -21 51 -34q33 -17 39 -20q22 -10 41 -13q10 -4 5 -11q-124 -85 -220 -173q-21 -18 -28 -23q-11 -7 -24 -6v58z" />
    <glyph glyph-name="glyph340" horiz-adv-x="340" 
d="M-22 293q12 4 22 9q83 43 168 107l62 55v3q-57 39 -105 65q-20 9 -39 -2q-14 -10 -42 -34q-7 -5 -9 8q1 8 22 36q35 46 69 45q26 -1 58 -22q28 -21 51 -34q33 -17 39 -20q22 -10 41 -13q10 -4 5 -11q-116 -104 -250 -190q-24 -13 -57 -25q-12 -6 -23 -10z" />
    <glyph glyph-name="D.008" horiz-adv-x="633" 
d="M-16 429q5 -22 16 -38q33 -38 73 -48q2 -1 34 70q22 48 48 75q20 15 45 15q21 0 56 -12q42 -15 54 -17q16 -2 46 -8q8 -3 3 -14q-29 -25 -87 -100q-55 -69 -91 -97q-56 -45 -119 -46q-54 4 -102 65l-5 6zM103 330h22q90 13 157 88q-40 18 -76 26q-38 5 -47 -4
q-19 -21 -40 -67q-10 -21 -16 -43z" />
    <glyph glyph-name="glyph342" horiz-adv-x="555" 
d="M-39 336q2 5 6 13q63 102 126 150q54 44 114 73q10 5 15 17l-1 4q-71 29 -171 27q-29 -4 -55 -46q-5 -5 -9 2q-2 4 -2 8q1 9 12 27q40 64 85 65q105 2 164 -31q18 -12 19 -25q-1 -29 -30 -64q-15 -15 -48 -35t-74 -51q-62 -48 -112 -121l-3 -5z" />
    <glyph glyph-name="six.005" horiz-adv-x="482" 
d="M43 166q2 -3 5 -9q15 -27 38 -33q76 -6 121 66q25 40 48 44q7 1 29 -1q18 -2 26 4t28 36q15 23 35 25q6 1 19 -1t18 -2q14 0 22 9q10 16 24 42q9 4 11 -6q0 -9 -22 -64q-16 -40 -41 -41h-9q-6 0 -17.5 2t-16.5 2q-15 0 -21 -14q-31 -60 -60 -60q-7 0 -20.5 3.5t-20.5 3.5
q-15 0 -23 -15q-26 -66 -41 -89q-30 -48 -74 -64q-10 -4 -22 -4q-21 0 -43 14q-21 18 -36 59q-4 13 -4 18z" />
    <glyph glyph-name="c129.002" horiz-adv-x="391" 
d="M-27 167l27 2q25 3 45.5 11t36.5 22.5t33 40t35 36.5q7 4 14 4q8 0 23.5 -6t22.5 -6q11 0 20 11q7 10 14 23q6 10 14.5 23.5t13.5 14.5q7 1 8 -4t0 -11q-1 -7 2 -11q11 -9 27 -6q21 9 34 34q2 2 18 44q8 13 12 5q3 -6 -2 -33q-26 -95 -86 -103q-21 -1 -33 9
q-15 -22 -24 -32q-16 -17 -32 -21q-10 -1 -26.5 4.5t-22.5 5.5q-12 0 -21 -12q-15 -21 -32 -43q-15 -23 -41 -43q-34 -17 -65 -12q-19 3 -33 16z" />
    <glyph glyph-name="r.002" horiz-adv-x="513" 
d="M-2 526q1 3 2 5q38 88 58 109q50 67 112 92q7 3 14 3q12 0 31 -10.5t28 -11.5q16 -1 36.5 25t31.5 33q9 5 11 -8q0 -7 -1 -13q-1 -8 3 -11q9 -10 25 -8q20 5 35 30q4 6 11.5 17.5t14.5 23.5q11 13 13 -8q-17 -75 -80 -109q-25 -10 -54 3q-11 9 -14 8q-2 0 -6 -5
q-33 -33 -57 -33q-11 0 -29.5 10t-28.5 8q-66 -39 -103 -107q-7 -13 -7 -28z" />
    <glyph glyph-name="daggerdbl.003" horiz-adv-x="500" 
d="M37 236q1 -11 11 -31q23 -28 66 -29q50 5 82 38q16 18 33 46q21 29 45 29q8 0 23 -5.5t22 -5.5q5 0 9 3q11 8 25 30q17 27 22.5 33t11.5 4q5 -2 5 -15q0 -4 5 -11t16 -6q23 6 39 32q6 11 20 47q2 4 7 4q5 -1 6 -6q0 -58 -48 -113q-26 -27 -48 -18q-18 11 -27 11
q-8 0 -28 -35q-15 -20 -37 -19q-7 0 -12.5 1.5t-16 5.5t-16.5 4q-7 0 -12 -6q-13 -16 -25 -42q-10 -21 -20 -43q-19 -37 -48 -59q-34 -26 -71 -24q-53 3 -69 52q-7 24 -7 58q0 11 1 22z" />
    <glyph glyph-name="u.004" horiz-adv-x="317" 
d="M-9 207l9 6q32 18 60 22q5 1 42 4q26 2 36 19q15 31 32 61q24 34 58 30l17 -3q10 -1 15 3q7 6 14 26t13 28q4 4 9 4t6 -6q-7 -55 -28 -98q-8 -13 -20 -15q-10 -2 -25 2q-18 5 -23 5q-12 0 -20 -10q-15 -20 -34.5 -73t-33.5 -62q-19 -16 -83 -26q-17 -2 -35 -7l-9 -3v93z
" />
    <glyph glyph-name="Ograve.004" horiz-adv-x="552" 
d="M-21 526l5 5q7 9 11 15q21 32 30 39q7 7 38 1t61 -2q149 23 266 110q22 16 69 63q42 43 66 70q12 15 7 -11q-10 -29 -27 -58q-8 -13 -15 -23q-33 -45 -72 -86q-53 -51 -91 -74q-82 -48 -189 -73q-26 -6 -52 -6q-44 0 -77 16q-4 -4 -9 -10l-4 -4z" />
    <glyph glyph-name="Oacute.003" horiz-adv-x="367" 
d="M-13 471q6 2 13 5q30 14 59 47q38 43 56 54q6 3 13 3q9 0 25.5 -9t24.5 -9q10 0 19 9q14 22 48 55q3 1 10 -4q2 -3 -0.5 -8t-2.5 -7q0 -3 4 -5q6 -10 20 -10q36 5 62 72q3 3 8 3q6 0 6 -5q-1 -40 -37 -85q-30 -38 -60 -38q-6 0 -13 3.5t-23 10.5q-39 -46 -64 -46
q-16 2 -48 14q-11 0 -20.5 -11t-17.5 -22q-31 -36 -69 -63l-10 -5z" />
    <glyph glyph-name="perthousand.002" horiz-adv-x="329" 
d="M-16 82q9 4 16 9q29 21 55 56q18 29 57 86q6 8 10 7q8 -1 6 -10.5t4 -12.5q8 -2 16 -2q29 0 51 22q8 10 20 34q6 8 11 4q5 -5 4 -15q-1 -12 6 -15q21 -4 43 31q10 15 23 40q6 9 8 -6q-1 -23 -13 -49q-38 -71 -79 -73q-9 0 -18 4q-33 -44 -75 -42q-15 1 -28 5
q-24 -58 -54 -88q-26 -23 -47 -30q-10 -3 -18 -5z" />
    <glyph glyph-name="Scaron.002" horiz-adv-x="379" 
d="M-29 161q14 3 29 9q27 14 102 82q11 9 21 9q9 0 26.5 -10.5t27.5 -10.5q11 0 23 10q21 20 49 65q7 8 12 0q3 -5 1 -18q0 -12 6 -15q12 -6 31 5q16 12 30 37q18 34 22 39q9 14 13 -5q0 -33 -18 -71q-34 -61 -80 -62q-17 0 -42 11q-12 -18 -28 -35q-20 -18 -39 -18
q-8 0 -15 1t-21 7t-22 6q-5 1 -11 -1q-7 -1 -73 -71q-6 -6 -15 -12q-16 -8 -23 -10z" />
    <glyph glyph-name="Eacute.003" horiz-adv-x="280" 
d="M-39 382q12 7 21 17q18 19 35 46q32 56 45 68q9 7 16 4q5 -2 1 -11q-1 -1 -1 -6q10 -5 22 -5q19 0 37 11q11 8 20 23q13 24 15 26q7 2 8 0q6 -8 -1 -30q13 -6 35 9q16 16 36 59q2 5 9 3q6 -2 5 -7q-11 -57 -51 -100q-24 -20 -45 -20q-7 0 -14 2q-33 -46 -87 -39
q-6 1 -10 3.5t-7 1.5q-11 -4 -34 -42q-7 -12 -16 -21q-17 -17 -39 -34v42z" />
    <glyph glyph-name="guilsinglleft.003" horiz-adv-x="485" 
d="M41 191q2 -18 5 -29q9 -22 36 -30q16 -4 34 -4q29 0 65 23q16 12 35.5 41.5t34.5 39.5q8 5 19 5q8 0 23 -3t22 -3q16 1 28 21q5 16 26 53q9 10 9.5 -1.5t4.5 -17.5q8 -8 22 -6q20 3 31 36q4 10 12 45q1 4 4 6q8 8 13 -8q5 -57 -30 -112q-23 -24 -55 -24q-12 0 -22 6
q-11 -19 -24.5 -37t-32.5 -22q-9 -2 -24 2q-18 4 -24 4q-15 1 -22 -14q-27 -66 -42 -94q-31 -53 -82 -61q-45 -4 -72 23.5t-35 91.5q-1 13 -2 30q1 0 43 39z" />
    <glyph glyph-name="Edieresis.004" horiz-adv-x="421" 
d="M-13 574q4 -8 13 -17q16 -14 28 -20q28 -13 60 -3q24 9 49 45.5t43 47.5q7 4 14 4q8 0 23.5 -6t22.5 -6q11 0 20 11q7 10 14 23q6 10 14.5 23.5t13.5 14.5q7 1 8 -4t0 -11q-1 -7 2 -11q11 -9 27 -6q21 9 34 34q2 2 18 44q8 13 12 5q3 -6 -2 -33q-26 -95 -86 -103
q-21 -1 -33 9q-15 -22 -24 -32q-16 -17 -32 -21q-10 -1 -26.5 4.5t-22.5 5.5q-12 0 -20 -13q-6 -9 -16 -38q-9 -25 -19 -41q-45 -73 -108 -67q-18 2 -32 20h-4z" />
    <glyph glyph-name="r.008" horiz-adv-x="387" 
d="M-53 425q1 3 16 36q26 51 44 78q50 67 112 92q7 3 14 3q12 0 31 -10.5t28 -11.5q16 -1 36.5 25t31.5 33q9 5 11 -8q0 -7 -1 -13q-1 -8 3 -11q9 -10 25 -8q20 5 35 30q4 6 11.5 17.5t14.5 23.5q11 13 13 -8q-17 -75 -80 -109q-25 -10 -54 3q-11 9 -14 8q-2 0 -6 -5
q-33 -33 -57 -33q-11 0 -29.5 10t-28.5 8q-66 -39 -103 -107q-2 -9 7 -16z" />
    <glyph glyph-name="Iacute.003" horiz-adv-x="254" 
d="M-10 461q3 -5 10 -9q8 -3 18 -1q31 7 53 41q4 8 10 18q4 6 9 11q8 8 8 -6q0 -4 -2.5 -10.5t-0.5 -10.5q5 -4 14 -3q7 2 14 6q12 9 21 26q12 25 14 28q7 9 9 -4q1 -4 -1 -10t-1 -11q1 -4 5 -5q21 -3 36 19q4 6 20 43q11 17 13 2q-3 -56 -33 -95q-21 -27 -50 -27
q-10 0 -19 3q-24 -31 -55 -31q-6 0 -11 1q-21 -43 -71 -55h-8z" />
    <glyph glyph-name="Icircumflex.004" horiz-adv-x="345" 
d="M-4 268l5 1q72 20 101 65q16 24 28 53q4 9 9 1q3 -5 5 -14t10 -10t15 -1q32 0 53 29q5 8 11 19q5 10 10 16q8 7 8 -3q0 -4 -3 -12t-2 -13q4 -5 9 -5q18 -1 34 17q6 8 27 53q2 4 6 6q8 4 8 -6q0 -23 -26 -77q-21 -41 -63 -48q-9 -1 -18 1q-30 -38 -62 -40l-2 -2
q-13 1 -39 5q-49 -79 -120 -98l-7 -6z" />
    <glyph glyph-name="c141.002" horiz-adv-x="526" 
d="M-13 131q4 4 13 9q31 16 51 18q24 3 82 -30q16 -8 30 -8q41 4 73 36q16 20 31 41q20 25 41 25q8 0 17 -4q31 -13 45 0q10 10 20.5 34t19.5 33q8 8 10 -4q1 -6 1.5 -13t4.5 -9q15 -6 34 9q21 21 32 66q2 7 8 9q8 2 9 -7q2 -75 -51 -120q-27 -18 -46 -12q-4 1 -10.5 5
t-8.5 1q-16 -26 -21 -32q-14 -19 -30 -24q-13 -2 -38 6t-30 -1q-92 -159 -184 -159q-20 0 -47.5 22t-42.5 27q-5 1 -13 2v80z" />
    <glyph glyph-name="five.004" horiz-adv-x="427" 
d="M-63 270q19 34 39 63q31 45 74 66q12 7 27 7q25 0 48 -16q5 -3 10 -3q9 0 17.5 7.5t15.5 17.5q10 15 34 35q9 5 9 -4q-3 -12 1 -20q11 -17 31 -10q18 6 32 27q1 2 20 37q5 9 13 6q5 -2 4 -13.5t4 -15.5q8 -8 23 -8q23 3 37 27q2 2 22 43q13 12 14 -2q-9 -82 -75 -116
q-19 -9 -35 -2q-7 3 -17 10q-48 -48 -74 -48q-11 0 -21 4q-3 1 -10 8q-5 6 -9 3q-39 -41 -65 -40q-9 0 -26 8.5t-26 8.5q-13 1 -24 -6q-18 -13 -30 -30q-17 -21 -29 -45z" />
    <glyph glyph-name="Idieresis.004" horiz-adv-x="314" 
d="M-41 343q1 16 8 42q11 38 31 74q43 60 84 60q8 0 17 -3.5t20 -9.5t19 -2q13 8 29 31.5t25 31.5q9 7 12 1.5t0 -16.5q-2 -6 3.5 -12.5t26.5 -4.5q14 3 29 22q18 24 25 29q11 4 9 -8q-10 -50 -57 -89q-16 -10 -36 -10q-10 0 -19 4t-15 10q-26 -29 -27 -30q-19 -17 -36 -17
q-7 0 -12.5 1.5t-16.5 7.5t-18 6q-6 0 -11 -2q-43 -19 -48 -61q-1 -9 -1 -13q0 -16 10 -22z" />
    <glyph glyph-name="Eth.004" horiz-adv-x="785" 
d="M-26 223l8 6q32 21 94 54q12 9 27 31.5t26 30.5h8q23 -34 43 -35q8 -1 17 -1q24 0 48 22q9 10 27 26q7 6 6 -10t10 -21q14 -4 27 -3q40 1 79 39q6 6 9.5 5t-0.5 -15q-26 -55 -79 -78q-21 -8 -45 -6q-28 2 -48 16q-16 -13 -33 -24q-21 -12 -39 -12q-7 0 -14 2
q-13 3 -36 17q-47 -38 -109 -68q-17 -9 -21 -13z" />
    <glyph glyph-name="six.018" horiz-adv-x="487" 
d="M32 261q2 -4 6 -9q24 -22 53 -27q76 -7 121 65q25 40 48 44q7 1 29 -1q18 -2 26 4t28 36q15 23 35 25q6 1 19 -1t18 -2q14 0 22 9q10 16 24 42q9 4 11 -6q0 -9 -22 -64q-16 -40 -41 -41h-9q-6 0 -17.5 2t-16.5 2q-15 0 -21 -14q-31 -60 -60 -60q-7 0 -20.5 3.5t-20.5 3.5
q-15 0 -23 -15q-26 -66 -41 -89q-30 -48 -74 -64q-10 -4 -22 -4q-21 0 -43 14t-41 34l-4 6z" />
    <glyph glyph-name="f.005" horiz-adv-x="363" 
d="M-6 71l6 3q25 14 59 49.5t54 46.5q4 1 9 1q10 0 27 -9.5t25 -9.5q9 0 18 8q14 20 48 55q6 6 9 -3q3 -7 -3 -16q9 -14 20 -15q26 -2 45 23q4 6 25 46q2 4 7 4q4 0 5 -4q0 -25 -20 -59q-39 -65 -83 -62q-16 3 -31 16q-15 -15 -31 -30q-19 -16 -35 -16q-9 0 -18 4
q-4 1 -15 6.5t-17 5.5q-7 0 -12 -6q-37 -45 -73 -67l-6 -3z" />
    <glyph glyph-name="S.004" horiz-adv-x="373" 
d="M-25 166l6 8q20 36 36 47q7 5 15 4q4 0 41 -11q15 -1 38 30q10 15 31 42q10 2 11 -5q0 -3 -1.5 -9t-1.5 -8q10 -20 33 -8q27 20 59 70q6 6 14 3q5 -3 3 -12.5t4 -14.5q14 -9 36 1q16 11 25.5 31t17.5 38q4 4 9 4q6 -1 7 -5q-16 -82 -68 -118q-27 -15 -50 -6q-7 3 -14 8
q-41 -57 -74 -56q-14 2 -31 11q-13 -19 -27 -35q-18 -20 -37 -20q-7 0 -20.5 4.5t-20.5 4.5q-10 0 -16 -7l-7 -9z" />
    <glyph glyph-name="S.005" horiz-adv-x="335" 
d="M-8 396l8 -4q21 -11 35 -11q15 -1 38 30q10 15 31 42q10 2 11 -5q0 -3 -1.5 -9t-1.5 -8q10 -20 33 -8q27 20 59 70q6 6 14 3q5 -3 3 -12.5t4 -14.5q14 -9 36 1q16 11 25.5 31t17.5 38q4 4 9 4q6 -1 7 -5q-16 -82 -68 -118q-27 -15 -50 -6q-7 3 -14 8q-41 -57 -74 -56
q-14 2 -31 11q-13 -19 -27 -35q-18 -20 -37 -22q-9 -1 -19 3l-8 4v69z" />
    <glyph glyph-name="S.006" horiz-adv-x="468" 
d="M-3 504l3 6q10 19 16 40q3 14 13 44q3 4 7 5q5 0 5 -7q3 -66 37 -90q42 -24 76 20.5t48 58.5q14 17 34 8q19 -8 42 4q27 20 59 70q6 6 14 3q5 -3 3 -12.5t4 -14.5q14 -9 36 1q16 11 25.5 31t17.5 38q4 4 9 4q6 -1 7 -5q-16 -82 -68 -118q-27 -15 -50 -6q-7 3 -14 8
q-41 -57 -74 -56q-24 0 -41 -27q-38 -71 -75 -113q-25 -24 -58 -25q-29 5 -45 31q-9 14 -18 45q-4 -5 -10 -14l-3 -4v75z" />
    <glyph glyph-name="glyph367" horiz-adv-x="406" 
d="M0 230q30 -3 44 -1q39 6 71 37q16 20 31 41q21 26 41 26q8 0 18 -5q30 -12 45 0q9 11 19.5 35t20.5 33q7 8 9 -5q1 -5 1.5 -12t4.5 -10q15 -5 34 10q21 21 33 66q2 6 7 8q8 3 9 -6q3 -75 -51 -121q-26 -17 -45 -11q-4 1 -11 5t-9 1q-16 -26 -21 -32q-14 -19 -30 -25
q-13 -2 -38 6.5t-30 -0.5q-79 -137 -153 -149v109z" />
    <glyph glyph-name="glyph368" horiz-adv-x="440" 
d="M-57 227l-3 1q-2 3 -2 10q25 59 121 127q41 24 54 31q32 15 60 17q10 1 23 -11t22 -12q28 -5 54 20l38 46q5 4 12 2q2 -3 2 -8q0 -4 -2 -11.5t-2 -11.5q0 -8 7 -13q10 -10 26 -6q27 6 59 61q4 4 11 4q2 -4 2 -9q0 -3 -13 -33q-32 -55 -73 -71q-25 -10 -51 9q-2 8 -9 5
q-10 -13 -34 -34q-16 -9 -31 -9q-12 1 -32.5 14t-33.5 13q-7 0 -16 -2q-85 -17 -132 -89v-3z" />
    <glyph glyph-name="glyph369" horiz-adv-x="641" 
d="M0 253q19 -2 33.5 25.5t26.5 39.5q11 4 29 -2q19 -3 46 -3q99 -3 189 31q76 26 164 91q44 37 128 104q10 6 9 -4q-2 -8 -44 -68q-172 -198 -326 -234q-37 -12 -134 -18q-56 -3 -88 9q-7 -13 -19 -22z" />
    <glyph glyph-name="f.004" horiz-adv-x="363" 
d="M-22 166q12 4 22 9q25 14 59 49.5t54 46.5q4 1 9 1q10 0 27 -9.5t25 -9.5q9 0 18 8q14 20 48 55q6 6 9 -3q3 -7 -3 -16q9 -14 20 -15q26 -2 45 23q4 6 25 46q2 4 7 4q4 0 5 -4q0 -25 -20 -59q-39 -65 -83 -62q-16 3 -31 16q-15 -15 -31 -30q-19 -16 -35 -16q-9 0 -18 4
q-4 1 -15 6.5t-17 5.5q-7 0 -12 -6q-37 -45 -73 -67q-12 -6 -23 -10z" />
    <glyph glyph-name="w.005" horiz-adv-x="434" 
d="M-16 412q5 -22 16 -38q24 -18 59 -21q35 0 60 19q15 14 32 29.5t33 15.5q7 0 15 -3q1 0 21 -12q14 -7 22 -7q10 0 18 8q15 19 48 53q8 0 11 -6q0 -22 1 -24q6 -8 33 -6q25 11 51 64q7 7 12 4l3 -17q-26 -78 -80 -101q-38 -10 -61 13q-25 -24 -29 -27q-18 -15 -34 -20
q-10 0 -27 8.5t-25 8.5t-16 -7q-31 -51 -48 -69q-32 -37 -69 -41q-52 2 -79 28z" />
    <glyph glyph-name="w.006" horiz-adv-x="386" 
d="M-39 277q2 5 6 13q25 44 42 67q47 68 109 93q7 3 14 3q12 0 31 -10.5t28 -11.5q16 -1 36.5 25t31.5 33q9 5 11 -8q0 -7 -1 -13q-1 -8 3 -11q9 -10 25 -8q20 5 35 30q4 6 11.5 17.5t14.5 23.5q11 13 13 -8q-17 -75 -80 -109q-25 -10 -54 3q-11 9 -14 8q-2 0 -6 -5
q-33 -33 -57 -33q-11 0 -29.5 10t-23.5 6q-65 -33 -107 -102l-3 -5z" />
    <glyph glyph-name="glyph373" horiz-adv-x="633" 
d="M-25 322l6 8q20 36 36 47q7 5 15 4q4 0 41 -11q15 -1 38 30q10 15 31 42q10 2 11 -5q0 -3 -1.5 -9t-1.5 -8q10 -20 33 -8q27 20 59 70q6 6 14 3q5 -3 3 -12.5t4 -14.5q14 -9 36 1q16 11 25.5 31t17.5 38q4 4 9 4q6 -1 7 -5q-16 -82 -68 -118q-27 -15 -50 -6q-7 3 -14 8
q-41 -57 -74 -56q-14 2 -31 11q-13 -19 -27 -35q-18 -20 -37 -20q-7 0 -20.5 4.5t-20.5 4.5q-10 0 -16 -7l-7 -9z" />
    <glyph glyph-name="glyph374" horiz-adv-x="731" 
d="M-57 393l-3 1q-2 3 -2 10q25 59 121 127q41 24 54 31q32 15 60 17q10 1 23 -11t22 -12q28 -5 54 20l38 46q5 4 12 2q2 -3 2 -8q0 -4 -2 -11.5t-2 -11.5q0 -8 7 -13q10 -10 26 -6q27 6 59 61q4 4 11 4q2 -4 2 -9q0 -3 -13 -33q-32 -55 -73 -71q-25 -10 -51 9q-2 8 -9 5
q-10 -13 -34 -34q-16 -9 -31 -9q-12 1 -32.5 14t-33.5 13q-7 0 -16 -2q-85 -17 -132 -89v-3z" />
    <glyph glyph-name="glyph375" horiz-adv-x="576" 
d="M0 355q19 -2 33.5 25.5t26.5 39.5q11 4 29 -2q19 -3 46 -3q99 -3 189 31q76 26 164 91q44 37 128 104q10 6 9 -4q-2 -8 -44 -68q-172 -198 -326 -234q-37 -12 -134 -18q-56 -3 -88 9q-7 -13 -19 -22z" />
    <glyph glyph-name="f.006" horiz-adv-x="363" 
d="M-22 293q12 4 22 9q25 14 59 49.5t54 46.5q4 1 9 1q10 0 27 -9.5t25 -9.5q9 0 18 8q14 20 48 55q6 6 9 -3q3 -7 -3 -16q9 -14 20 -15q26 -2 45 23q4 6 25 46q2 4 7 4q4 0 5 -4q0 -25 -20 -59q-39 -65 -83 -62q-16 3 -31 16q-15 -15 -31 -30q-19 -16 -35 -16q-9 0 -18 4
q-4 1 -15 6.5t-17 5.5q-7 0 -12 -6q-37 -45 -73 -67q-12 -6 -23 -10z" />
    <glyph glyph-name="w.007" horiz-adv-x="633" 
d="M-16 429q5 -22 16 -38q24 -18 59 -21q35 0 60 19q15 14 32 29.5t33 15.5q7 0 15 -3q1 0 21 -12q14 -7 22 -7q10 0 18 8q15 19 48 53q8 0 11 -6q0 -22 1 -24q6 -8 33 -6q25 11 51 64q7 7 12 4l3 -17q-26 -78 -80 -101q-38 -10 -61 13q-25 -24 -29 -27q-18 -15 -34 -20
q-10 0 -27 8.5t-25 8.5t-16 -7q-31 -51 -48 -69q-32 -37 -69 -41q-52 2 -79 28z" />
    <glyph glyph-name="glyph378" horiz-adv-x="555" 
d="M-39 336q2 5 6 13q25 44 42 67q47 68 109 93q7 3 14 3q12 0 31 -10.5t28 -11.5q16 -1 36.5 25t31.5 33q9 5 11 -8q0 -7 -1 -13q-1 -8 3 -11q9 -10 25 -8q20 5 35 30q4 6 11.5 17.5t14.5 23.5q11 13 13 -8q-17 -75 -80 -109q-25 -10 -54 3q-11 9 -14 8q-2 0 -6 -5
q-33 -33 -57 -33q-11 0 -29.5 10t-23.5 6q-65 -33 -107 -102l-3 -5z" />
    <glyph glyph-name="icircumflex.002" horiz-adv-x="551" 
d="M42 169q3 -7 6 -12q14 -23 42 -31q38 -2 71.5 17t52.5 52q7 7 15 7q10 0 30 -11.5t33 -10.5q17 12 84 91q48 57 98 63q39 0 56 -28q6 -13 5 -27q0 -27 -22 -69q-32 -62 -85 -102q-59 -45 -122 -46q-71 -2 -115 33q-44 -87 -102 -93q-51 -5 -78 45q-6 12 -11 26
q-2 6 -4 14zM329 177q17 -2 32 -2q60 0 100 29.5t34 54.5q-3 9 -17 17q-10 3 -19 2q-34 0 -70 -38q-59 -62 -60 -63z" />
    <glyph glyph-name="guilsinglright.002" horiz-adv-x="473" 
d="M8 197q2 -1 7 -1q51 -2 97 48q15 17 66 93l4 3q4 0 15 -3.5t16 -3.5q11 0 17 12q18 16 54 62q33 43 55 60q34 26 76 22q25 -6 32 -19q11 -15 11 -35q0 -19 -18 -65q-31 -62 -82 -104q-58 -48 -120 -51q-46 -7 -91 12h-3l-52 -50q-32 -24 -63 -21q-9 1 -16 4q-10 4 -17 9z
M255 328l20 -2q96 0 140 67q6 17 0 26q-6 10 -23 16q-40 4 -76 -36q-31 -34 -61 -68v-3z" />
    <glyph glyph-name="Ucircumflex.004" horiz-adv-x="637" 
d="M-7 506q3 24 23 56q96 159 248 217q23 9 39 9q17 0 29 -9q26 -33 44 -30q23 15 62.5 57t60.5 56q37 25 77 21q32 -10 42 -30q4 -10 4 -21q0 -30 -31 -78q-82 -128 -213 -128q-23 0 -46.5 5t-45.5 25.5t-26 43.5l-3 3q-110 -8 -197 -127q-4 -5 -6 -11l-1 -4q-2 -12 2 -37z
M576 813q-11 19 -35 19q-12 0 -24 -5q-26 -9 -57 -39q-46 -43 -52 -48q24 -6 48 -6q71 0 115 48q11 14 5 31z" />
    <glyph glyph-name="exclamdown.002" horiz-adv-x="591" 
d="M42 217q4 -9 6 -12q20 -27 72 -26q35 1 67 23t48 54q7 14 23.5 37t24.5 34q29 -14 51 -15q19 14 80 93q46 59 95 67q40 1 55 -18q12 -15 12 -36q0 -24 -19 -66q-29 -64 -83 -108q-59 -49 -124 -52q-56 -3 -103 20q-36 -64 -73 -108t-88 -44q-52 0 -72 42q-8 17 -12 41
q-2 11 -2 23q0 11 1 22zM382 298l3 -1q91 -3 143 48q19 19 14 41q-6 12 -21 17q-6 1 -11 1q-34 -3 -52 -21q-25 -29 -76 -85z" />
    <glyph glyph-name="cent.003" horiz-adv-x="364" 
d="M-8 207q4 3 9 6q34 17 67 17q23 0 44 -7q15 12 77 90q46 56 92 66q45 4 62 -26q5 -7 6 -19q0 -18 -7.5 -51t-52.5 -89q-49 -61 -111 -80q-19 -9 -42 -9q-17 0 -52.5 7.5t-54.5 7.5q-12 0 -28 -3l-9 -3v93zM301 314q-17 14 -41 8q-30 -8 -62 -46q-47 -55 -52 -60
q70 -6 122 27q39 25 40 51q2 7 -7 20z" />
    <glyph glyph-name="m.002" horiz-adv-x="431" 
d="M-18 517h18l5 1q40 14 76 58q7 9 54 80l4 3q29 -8 33 -8q17 13 81 92q47 58 96 67q13 2 24 -1q29 -9 38 -29q5 -12 5 -24q0 -16 -7 -38q-6 -18 -15 -36q-31 -59 -82 -100q-57 -46 -117 -50q-53 -4 -94 14q-20 -20 -37 -38q-21 -20 -40 -31q-11 -7 -24 -11q-10 -3 -19 -3z
M361 737q-5 9 -21 14q-40 7 -77 -33l-62 -70q28 -6 62 2q71 16 99 62q5 14 -1 25z" />
    <glyph glyph-name="adieresis.007" horiz-adv-x="472" 
d="M-14 471q2 1 14 5q29 11 78 62q5 5 78 96l31 -14l24 -6q28 20 66.5 69.5t65.5 68.5q23 17 54 17q22 0 39 -10q12 -9 16.5 -21t4.5 -24q0 -27 -33 -89q-68 -104 -157 -123q-25 -5 -50 -5q-53 0 -94 22q-5 2 -11 8l-9 -6q-59 -66 -75 -78q-14 -10 -28 -18q-24 -14 -60 -15z
M408 704l-14 9q-7 1 -13 1q-36 0 -71 -39q-55 -61 -58 -64q25 -5 69 1q76 23 95 65q3 12 -8 27z" />
    <glyph glyph-name="m.003" horiz-adv-x="418" 
d="M-109 61q62 1 109 30q31 21 57 50q20 25 39 62q20 44 29 66q3 2 6 2q4 0 12 -6.5t13 -5.5q24 17 62.5 63t60.5 62q37 27 80 23q28 -8 37 -25q7 -13 7 -29q0 -28 -27 -75q-38 -66 -96 -103q-64 -41 -133 -34q-17 2 -33 8l-2 -1q-43 -84 -112 -111q-56 -17 -138 -17z
M195 256v-3q50 -6 93 7q51 16 71 55q4 18 -4.5 27t-18.5 10q-39 5 -78 -33z" />
    <glyph glyph-name="c157.002" horiz-adv-x="418" 
d="M-29 161q14 3 29 9q32 15 54 45q23 30 42 67q20 44 29 66q3 2 6 2q4 0 12 -6.5t13 -5.5q24 17 62.5 63t60.5 62q37 27 80 23q28 -8 37 -25q7 -13 7 -29q0 -28 -27 -75q-38 -66 -96 -103q-64 -41 -133 -34q-17 2 -48 14l-2 -1q-33 -85 -97 -120q-16 -8 -28 -12zM195 335
v-3q50 -6 93 7q51 16 71 55q4 18 -4.5 27t-18.5 10q-39 5 -78 -33z" />
    <glyph glyph-name="m.004" horiz-adv-x="386" 
d="M-39 382l21 17q11 11 21 19q28 22 37 32q30 40 50 57l4 3q29 -8 33 -8q17 13 81 92q47 58 96 67q13 2 24 -1q29 -9 38 -29q5 -12 5 -24q0 -16 -7 -38q-6 -18 -15 -36q-31 -59 -82 -100q-57 -46 -117 -50q-53 -4 -94 14q-13 -2 -21 -4q-20 -7 -35 -19q-17 -17 -39 -34v42z
M327 579q-5 9 -21 14q-40 7 -77 -33l-62 -70q28 -6 62 2q71 16 99 62q5 14 -1 25z" />
    <glyph glyph-name="guilsinglleft.004" horiz-adv-x="591" 
d="M43 175q2 -10 3 -13q22 -28 74 -27q35 1 67 23t48 54q7 14 23.5 37t24.5 34q29 -14 51 -15q19 14 80 93q46 59 95 67q40 1 55 -18q12 -15 12 -36q0 -24 -19 -66q-29 -64 -83 -108q-59 -49 -124 -52q-56 -3 -103 20q-36 -64 -73 -108t-88 -44q-52 0 -72 42q-8 17 -12 41
q-1 11 -2 23q-1 13 -2 30zM382 254l3 -1q91 -3 143 48q19 19 14 41q-6 12 -21 17q-6 1 -11 1q-34 -3 -52 -21q-25 -29 -76 -85z" />
    <glyph glyph-name="Yacute.007" horiz-adv-x="499" 
d="M-10 570q5 -8 10 -13q17 -13 31 -19q14 -5 30 -5q27 0 54 17q23 14 42 43q15 25 30 51q4 2 7 2q5 0 12.5 -4.5t11.5 -4.5q29 -5 21 -5q9 0 13 9q11 10 72 87q42 53 84 64q52 6 69 -24q7 -14 7 -30q0 -24 -20 -69q-27 -60 -79 -103q-56 -47 -118 -52q-49 -4 -110 26
q-40 -68 -53 -82q-38 -45 -85 -42q-14 1 -37 17l-3 2zM286 635l-3 -6q90 -8 147 49q18 18 11 41q-10 13 -22 15q-40 5 -75 -33z" />
    <glyph glyph-name="Ucircumflex.006" horiz-adv-x="584" 
d="M-60 405q3 24 23 56q96 159 248 217q23 9 39 9q17 0 29 -9q26 -33 44 -30q23 15 62.5 57t60.5 56q37 25 77 21q32 -10 42 -30q4 -10 4 -21q0 -30 -31 -78q-82 -128 -213 -128q-23 0 -46.5 5t-45.5 25.5t-26 43.5l-3 3q-110 -8 -197 -127q-4 -5 -6 -11l-1 -4q-2 -12 2 -37
zM523 712q-11 19 -35 19q-12 0 -24 -5q-26 -9 -57 -39q-46 -43 -52 -48q24 -6 48 -6q71 0 115 48q11 14 5 31z" />
    <glyph glyph-name="m.005" horiz-adv-x="449" 
d="M-8 458q4 -4 8 -6q18 3 31 8q34 11 69 33q24 18 56 56q3 2 6 2q4 0 12 -6.5t13 -5.5q24 17 62.5 63t60.5 62q37 27 80 23q28 -8 37 -25q7 -13 7 -29q0 -28 -27 -75q-38 -66 -96 -103q-64 -41 -133 -34q-17 2 -40 28l-13 -15q-28 -27 -81 -46q-21 -6 -41 -6h-4zM226 536
v-3q50 -6 93 7q51 16 71 55q4 18 -4.5 27t-18.5 10q-39 5 -78 -33z" />
    <glyph glyph-name="germandbls.006" horiz-adv-x="467" 
d="M-5 268l5 1q76 16 146 135q6 10 12 3q18 -25 51 -25q18 14 78 83q46 54 88 68q55 6 73 -30q4 -12 4 -24q-3 -38 -26 -78q-34 -58 -84 -95q-55 -42 -114 -45q-74 -3 -121 35h-2q-45 -83 -105 -91l-8 -6zM409 461q-8 13 -23 16q-39 5 -77 -33q-30 -33 -61 -66q38 -9 84 4
q37 10 71 44q13 20 6 35z" />
    <glyph glyph-name="sterling.003" horiz-adv-x="595" 
d="M-13 128q1 6 13 12q32 20 61 21q23 0 54 -18t47 -19q74 -6 130 99q5 10 17 26q4 0 10.5 -5t9.5 -5t5 1q20 13 82 83q49 55 93 63q50 0 67 -30q4 -11 4 -23q0 -16 -26 -73q-71 -119 -170 -136q-55 -10 -110 8l-5 -2q-88 -130 -167 -130q-28 0 -59 31q-8 7 -19.5 11.5
t-23.5 6.5q-7 2 -13 2v77zM371 237v-3q29 -8 62 -2q76 13 103 59q2 18 -2 25.5t-18 15.5q-40 6 -80 -31q-32 -32 -65 -64z" />
    <glyph glyph-name="m.006" horiz-adv-x="360" 
d="M-24 333q26 40 38 54q30 40 50 57l4 3q29 -8 33 -8q17 13 81 92q47 58 96 67q13 2 24 -1q29 -9 38 -29q5 -12 5 -24q0 -16 -7 -38q-6 -18 -15 -36q-31 -59 -82 -100q-57 -46 -117 -50q-53 -4 -94 14q-12 1 -19 -7q-5 -5 -11 -13q-17 -21 -29 -45l-34 1q19 34 39 63z
M301 516q-5 9 -21 14q-40 7 -77 -33l-62 -70q28 -6 62 2q71 16 99 62q5 14 -1 25z" />
    <glyph glyph-name="egrave.004" horiz-adv-x="487" 
d="M-35 377l2 8q19 61 63 106q47 48 103 71q32 13 55 0q18 -24 40 -28l8 3q21 17 55.5 61t53.5 59q33 28 70 28q8 0 16 -1q12 -4 32 -18q9 -15 9 -33q0 -23 -21 -67q-75 -153 -229 -153q-65 0 -96 56q-1 4 -7 9q-38 -2 -76.5 -32t-42.5 -61q0 -8 2 -12zM267 529q51 -7 97 9
q56 29 67 58q1 9 -6 23l-16 11q-6 1 -13 1q-35 0 -71 -38z" />
    <glyph glyph-name="aacute.005" horiz-adv-x="785" 
d="M-26 223q5 4 8 6q48 32 96 54q69 41 99 112q7 10 16 6q15 -20 55 -33q21 13 85 81q50 52 94 62q50 4 69 -29q5 -12 5 -24q0 -16 -28 -76q-84 -132 -215 -132q-66 0 -114 39h-6q-23 -41 -97 -69q-18 -8 -41 -21q-10 -6 -15 -8zM454 441q-5 10 -23 16q-39 5 -79 -32
q-32 -32 -65 -63q20 -4 40 -4q78 0 124 49q13 18 3 34z" />
    <glyph glyph-name="ampersand.003" horiz-adv-x="507" 
d="M28 267q5 -9 10 -15q23 -27 38 -35q14 -8 30 -8q52 1 86 41l23 33q2 3 10 3q4 0 16 -5t19 -3q20 18 70 94q40 60 85 78q33 9 57 -7q20 -16 20 -45q0 -20 -11 -50q-61 -172 -188 -172q-42 0 -87 19q-3 2 -7 1q-2 -1 -3 -4q-50 -104 -112 -109q-46 -3 -84 65l-6 6zM299 281
v-3q115 -5 155 76q6 23 -7.5 34.5t-31.5 8.5q-36 -8 -66 -48z" />
    <glyph glyph-name="seven.004" horiz-adv-x="434" 
d="M-11 69q5 2 11 5q22 12 70 55q15 12 86 84q4 3 8 3q6 0 14.5 -6.5t12.5 -7.5q39 39 77 79q48 48 90 48q17 0 35 -7q7 -3 21 -21q5 -12 5 -25q0 -15 -25 -72q-84 -131 -190 -134q-59 8 -92 53l-4 -1q-48 -48 -69 -63q-12 -9 -26 -17q-6 -3 -11 -5zM376 260q-14 14 -24 15
q-38 5 -75 -29q-31 -29 -61 -59q24 -8 50 -8q63 0 103 43q14 15 7 38z" />
    <glyph glyph-name="plusminus.004" horiz-adv-x="515" 
d="M287 199v-3q51 -11 96 3q53 16 73 48q5 15 0 27q-11 13 -22 15q-7 1 -13 1q-34 0 -71 -35q-53 -50 -63 -56zM-25 166l6 8q12 16 19 29q5 10 9 2q28 -44 79 -43q29 1 58 25q24 22 48 43q4 3 8 3q5 0 11.5 -5t10.5 -7q11 -6 24 -7q8 0 15 7q6 5 80 79q48 47 91 54
q47 2 62 -30q4 -12 4 -25q0 -24 -16 -53q-13 -24 -31 -47q-82 -103 -193 -103q-24 0 -48 5q-21 5 -38 14q-19 10 -30 28q-38 -34 -81 -33q-38 3 -63 47l-7 -9z" />
    <glyph glyph-name="semicolon.001" horiz-adv-x="470" 
d="M257 409v-3q88 -8 144 48q15 15 15 33q0 6 -2 12q-12 17 -34 17q-37 -5 -70 -43q-27 -32 -53 -64zM-8 396l8 -4q8 -5 19 -8q31 -3 68 24q49 35 62 40q8 1 16.5 -5t15.5 -12q20 -20 39 -20q22 18 54 62.5t48 60.5q31 30 69 36q42 3 60 -29q4 -12 4 -26q0 -30 -23 -75
q-48 -95 -122 -129q-46 -21 -97 -21q-65 0 -105 37q-7 7 -12 18t-9 21q-8 -3 -19 -13q-15 -13 -18 -15q-33 -23 -50 -15l-8 4v69z" />
    <glyph glyph-name="twosuperior.002" horiz-adv-x="554" 
d="M-3 504l3 6q10 19 16 40q3 14 13 44q3 4 7 5q5 0 5 -7q3 -66 37 -90q11 -7 28 -8q71 -1 110 69q6 9 18 8q9 0 28.5 -11t31.5 -10l4 1q18 12 80 88q47 58 94 66q45 2 62 -28q5 -11 5 -23q0 -13 -6 -32q-7 -20 -13 -32q-33 -70 -90 -112q-63 -47 -136 -45q-59 2 -98 31
q-46 -87 -102 -93q-42 -5 -66 31q-9 14 -18 45q-4 -5 -10 -14l-3 -4v75zM332 548v-3q12 -1 24 -1q85 0 133 52q16 22 8 37q-6 12 -24 17q-29 4 -55 -15q-16 -11 -43 -43t-43 -44z" />
    <glyph glyph-name="glyph403" horiz-adv-x="467" 
d="M0 230q30 -3 44 -1q63 6 120 111q4 9 17 26q4 0 10.5 -5.5t9.5 -5.5t5 2q20 12 82 83q48 54 92 63q51 0 68 -31q4 -10 4 -23q0 -16 -26 -73q-72 -118 -171 -135q-54 -11 -109 7l-5 -2q-68 -114 -141 -125v109zM243 353v-3q28 -7 62 -2q75 14 103 60q2 18 -2.5 25.5
t-17.5 15.5q-40 5 -80 -32q-33 -31 -65 -64z" />
    <glyph glyph-name="yen.002" horiz-adv-x="443" 
d="M-57 227l-3 1q-2 3 -2 10q7 20 25 51q42 75 113 140q37 34 65 34q7 0 14 -2l28 -8q20 10 88 70q53 47 97 47q12 0 21 -2q25 -8 33 -25q6 -13 6 -26q0 -26 -33 -72q-77 -108 -194 -108q-71 0 -120 41l-11 -6q-32 -31 -42 -45q-21 -28 -28 -60v-3zM216 444v-2q40 -13 79 -8
q62 8 88 41q14 25 -8 38q-16 7 -31 7q-28 0 -66 -30q-49 -40 -62 -46z" />
    <glyph glyph-name="seven.001" horiz-adv-x="389" 
d="M-11 246q6 4 11 7q11 -1 25 6q16 8 86 84q4 3 8 3q6 0 14.5 -6.5t12.5 -7.5q39 39 77 79q48 48 90 48q17 0 35 -7q7 -3 21 -21q5 -12 5 -25q0 -15 -25 -72q-84 -131 -190 -134q-59 8 -92 53l-4 -1q-33 -42 -49 -50q-11 -7 -24 -6zM331 390q-14 14 -24 15q-38 5 -75 -29
q-31 -29 -61 -59q24 -8 50 -8q63 0 103 43q14 15 7 38z" />
    <glyph glyph-name="seven.003" horiz-adv-x="434" 
d="M-22 166q12 4 22 9q22 12 70 55q15 12 86 84q4 3 8 3q6 0 14.5 -6.5t12.5 -7.5q39 39 77 79q48 48 90 48q17 0 35 -7q7 -3 21 -21q5 -12 5 -25q0 -15 -25 -72q-84 -131 -190 -134q-59 8 -92 53l-4 -1q-48 -48 -69 -63q-12 -9 -26 -17q-12 -6 -23 -10zM376 361
q-14 14 -24 15q-38 5 -75 -29q-31 -29 -61 -59q24 -8 50 -8q63 0 103 43q14 15 7 38z" />
    <glyph glyph-name="W.009" horiz-adv-x="496" 
d="M-16 412q5 -22 16 -38q24 -28 53 -28q67 6 104 67q10 20 17 20q3 0 9 -5t8 -6q26 -18 51 -15q21 16 77 84q44 54 86 68q48 7 68 -22q8 -15 8 -32q0 -31 -34 -89q-49 -84 -122 -113q-40 -16 -83 -16q-61 0 -100 33q-48 -90 -103 -95q-47 -4 -79 32l-4 4zM276 404v-3
q14 -2 29 -2q51 0 97 26q40 34 40 52q1 6 -3.5 15.5t-19.5 13.5q-30 4 -57 -15q-16 -11 -43.5 -43.5t-42.5 -43.5z" />
    <glyph glyph-name="a.003" horiz-adv-x="473" 
d="M-39 277q2 5 6 13q107 174 188 165q10 -2 25.5 -13.5t24.5 -14.5q28 10 77 45t74 45q17 7 36 7q40 0 59 -29q7 -11 7 -24q0 -25 -30 -61q-84 -101 -194 -101q-80 0 -135 55q-27 15 -72 -33q-12 -12 -27 -41l-3 -5zM239 415v-2q45 -19 86 -15q69 6 87 40q4 17 -8 26
q-7 10 -21 13q-7 1 -14 1q-30 0 -68 -25q-48 -33 -62 -38z" />
    <glyph glyph-name="plusminus.005" horiz-adv-x="633" 
d="M287 355v-3q51 -11 96 3q53 16 73 48q5 15 0 27q-11 13 -22 15q-7 1 -13 1q-34 0 -71 -35q-53 -50 -63 -56zM-25 322l6 8q12 16 19 29q5 10 9 2q28 -44 79 -43q29 1 58 25q24 22 48 43q4 3 8 3q5 0 11.5 -5t10.5 -7q11 -6 24 -7q8 0 15 7q6 5 80 79q48 47 91 54
q47 2 62 -30q4 -12 4 -25q0 -24 -16 -53q-13 -24 -31 -47q-82 -103 -193 -103q-24 0 -48 5q-21 5 -38 14q-19 10 -30 28q-38 -34 -81 -33q-38 3 -63 47l-7 -9z" />
    <glyph glyph-name="yen.003" horiz-adv-x="731" 
d="M-57 393l-3 1q-2 3 -2 10q7 20 25 51q42 75 113 140q37 34 65 34q7 0 14 -2l28 -8q20 10 88 70q53 47 97 47q12 0 21 -2q25 -8 33 -25q6 -13 6 -26q0 -26 -33 -72q-77 -108 -194 -108q-71 0 -120 41l-11 -6q-32 -31 -42 -45q-21 -28 -28 -60v-3zM216 610v-2q40 -13 79 -8
q62 8 88 41q14 25 -8 38q-16 7 -31 7q-28 0 -66 -30q-49 -40 -62 -46z" />
    <glyph glyph-name="seven.005" horiz-adv-x="389" 
d="M-10 356q5 -1 10 -1q11 -1 25 6q16 8 86 84q4 3 8 3q6 0 14.5 -6.5t12.5 -7.5q39 39 77 79q48 48 90 48q17 0 35 -7q7 -3 21 -21q5 -12 5 -25q0 -15 -25 -72q-84 -131 -190 -134q-59 8 -92 53l-4 -1q-33 -42 -49 -50q-11 -7 -24 -6v58zM331 492q-14 14 -24 15
q-38 5 -75 -29q-31 -29 -61 -59q24 -8 50 -8q63 0 103 43q14 15 7 38z" />
    <glyph glyph-name="glyph412" horiz-adv-x="434" 
d="M-22 293q12 4 22 9q22 12 70 55q15 12 86 84q4 3 8 3q6 0 14.5 -6.5t12.5 -7.5q39 39 77 79q48 48 90 48q17 0 35 -7q7 -3 21 -21q5 -12 5 -25q0 -15 -25 -72q-84 -131 -190 -134q-59 8 -92 53l-4 -1q-48 -48 -69 -63q-12 -9 -26 -17q-12 -6 -23 -10zM376 488
q-14 14 -24 15q-38 5 -75 -29q-31 -29 -61 -59q24 -8 50 -8q63 0 103 43q14 15 7 38z" />
    <glyph glyph-name="W.010" horiz-adv-x="633" 
d="M-16 429q5 -22 16 -38q24 -28 53 -28q67 6 104 67q10 20 17 20q3 0 9 -5t8 -6q26 -18 51 -15q21 16 77 84q44 54 86 68q48 7 68 -22q8 -15 8 -32q0 -31 -34 -89q-49 -84 -122 -113q-40 -16 -83 -16q-61 0 -100 33q-48 -90 -103 -95q-47 -4 -79 32l-4 4zM276 421v-3
q14 -2 29 -2q51 0 97 26q40 34 40 52q1 6 -3.5 15.5t-19.5 13.5q-30 4 -57 -15q-16 -11 -43.5 -43.5t-42.5 -43.5z" />
    <glyph glyph-name="a.004" horiz-adv-x="555" 
d="M-39 336q2 5 6 13q107 174 188 165q10 -2 25.5 -13.5t24.5 -14.5q28 10 77 45t74 45q17 7 36 7q40 0 59 -29q7 -11 7 -24q0 -25 -30 -61q-84 -101 -194 -101q-80 0 -135 55q-27 15 -72 -33q-12 -12 -27 -41l-3 -5zM239 474v-2q45 -19 86 -15q69 6 87 40q4 17 -8 26
q-7 10 -21 13q-7 1 -14 1q-30 0 -68 -25q-48 -33 -62 -38z" />
    <glyph glyph-name="Aring.001" horiz-adv-x="398" 
d="M41 173q4 -9 8 -16q16 -21 30 -26l28 -5q38 46 45 94t5 140t4 136l39 100q7 7 9 6q5 0 5 -5q-9 -48 -11 -141q-3 -99 -9 -141q-3 -20 -17 -90q80 78 135 78q10 0 21 -2q36 -11 44 -43q6 -41 -39 -99q-56 -73 -98 -106q-64 -51 -130 -51q-73 -1 -101 50q-4 6 -8 21
q-8 27 -10 49zM305 231q-9 8 -29 8q-39 -7 -78 -45q-20 -20 -60 -73q29 -5 71 3q89 17 107 72q4 21 -11 35z" />
    <glyph glyph-name="yen.001" horiz-adv-x="366" 
d="M-11 170l11 -1q40 0 44 1q11 2 17 8q11 11 20 24l29 42q25 71 22 230q0 22 18 68l27 68q3 6 12 12q7 0 9 -7l-6 -45q-4 -28 -3 -45q-3 -82 -6 -112q-5 -62 -22 -104q1 0 3 -1q67 63 119 63q56 0 66 -43q2 -9 2 -17q0 -26 -21 -55q-18 -26 -39 -48q-46 -48 -164 -81
q-25 -7 -49 -7t-43 3q-25 4 -65 14zM253 308q-47 -7 -91 -53q-6 -6 -68 -84l72 14q42 9 68 23q20 11 39 30q15 19 15 37q0 33 -35 33z" />
    <glyph glyph-name="agrave.003" horiz-adv-x="513" 
d="M-2 526q1 3 2 5q13 25 38 64t49 57q57 43 100 124q17 36 23 157q1 12 0 33q-2 26 -2 35q0 39 12 63l36 81q2 5 8 4q7 0 8 -5q-4 -25 -10 -78q-1 -50 -1 -100q-3 -60 -16 -100q-5 -15 -10 -36q65 70 125 70q17 0 34 -6q32 -16 32 -55q0 -28 -19 -58q-12 -20 -35 -48
q-17 -20 -59 -42q-36 -17 -92 -30q-47 -10 -93 -27q-16 -5 -35 -19q-12 -8 -28 -25q-6 -7 -14 -21q-8 -19 -8 -38zM329 837q-46 -7 -90 -53q-9 -10 -67 -85q46 5 112 25q83 35 83 79q0 14 -11.5 24t-26.5 10z" />
    <glyph glyph-name="section.002" horiz-adv-x="411" 
d="M42 217q8 -17 12 -22q3 -5 9 -11q25 -26 57 -27q38 46 45 94t5 140t4 136l39 100q7 7 9 6q5 0 5 -5q-9 -48 -11 -141q-3 -99 -9 -141q-3 -20 -17 -90q80 78 135 78q10 0 21 -2q36 -11 44 -43q6 -41 -39 -99q-56 -73 -98 -106q-64 -51 -130 -51q-73 -1 -101 50
q-4 6 -10 20q-9 21 -12 63q0 11 1 22zM318 262q-9 8 -29 8q-39 -7 -78 -45q-20 -20 -60 -73q29 -5 71 3q89 17 107 72q4 21 -11 35z" />
    <glyph glyph-name="Aring.002" horiz-adv-x="354" 
d="M-24 194q11 12 24 19q49 11 76 45q29 37 36 74q9 46 9 119v74q1 53 5 89q16 38 47 114q3 9 12 9q6 0 6 -7q-12 -54 -15 -152q-4 -116 -8 -150q-8 -35 -23 -79h3q73 71 124 71q12 0 23 -3q25 -9 37 -28q7 -15 7 -31q0 -38 -42 -90q-38 -48 -106 -80q-11 -5 -122 -46
q-36 -16 -69 -25q-28 -9 -42 -26zM275 341q-12 17 -33 17q-47 -6 -94 -55l-70 -86q21 4 52 14q47 16 52 17q72 21 94 63q7 18 -1 30z" />
    <glyph glyph-name="otilde.003" horiz-adv-x="368" 
d="M-17 521q8 -4 17 -4q35 7 52 25l5 6q34 42 37 47q20 28 25 53q10 47 10 111q0 56 -1 113q1 7 6 20.5t8 20.5q4 10 13 31q3 6 11 30q5 18 15 26q10 5 11 -5q-4 -29 -8 -92l-2 -106q-3 -58 -18 -100q0 -3 3 -6q65 60 115 60q22 0 42 -10q23 -15 26 -42q3 -25 -14 -53
q-15 -25 -34 -46q-65 -68 -177 -103q-46 -15 -125 -31q-10 -3 -19 -3zM101 555q48 10 95 22q53 17 80 51q11 18 11 31q0 10 -7 18q-13 14 -34 13q-11 -1 -31 -11q-32 -17 -63 -55q-11 -12 -51 -69z" />
    <glyph glyph-name="eacute.003" horiz-adv-x="334" 
d="M-31 467q17 4 31 9q43 29 80 87q28 79 19 222q-1 22 8 48q9 23 18 45q2 3 12 33q7 21 19 29q8 -2 8 -10q0 -3 -2 -11t-1 -12q-5 -28 -9 -143q-3 -90 -24 -141q70 67 122 67q55 0 66 -39q3 -11 3 -21q0 -28 -24 -62q-20 -27 -46 -52q-58 -50 -166 -90q-39 -11 -76.5 -14
t-66.5 -2zM234 620q-7 6 -25 6q-45 -6 -89 -53q-33 -42 -67 -84q49 5 110 24q69 29 82 67q8 24 -11 40z" />
    <glyph glyph-name="o.005" horiz-adv-x="349" 
d="M-48 27l-61 34q43 -4 109 30q37 22 66 58l29 46q15 51 17 125v127q7 20 21 57t20 57q6 10 11 11q6 0 7 -5q-7 -68 -7 -86q0 -161 -25 -231l18 18q55 56 107 56q12 0 25 -3q39 -10 42 -47q3 -32 -21 -65q-22 -28 -43.5 -54t-58.5 -43q-13 -6 -66 -24q-32 -11 -80.5 -29.5
t-61.5 -21.5q-32 -9 -48 -10zM229 261q-45 -10 -88 -58q-34 -43 -67 -85q27 6 79 19q95 21 118 80q2 14 -2 24q-8 22 -40 20z" />
    <glyph glyph-name="dieresis.001" horiz-adv-x="349" 
d="M-29 161q14 3 29 9q21 11 40 36q19 26 40 58q21 34 25 65q6 43 7 107q2 106 10 125.5t37 98.5q2 10 12 10q5 0 7 -7q-4 -27 -9 -80q-3 -108 -4 -118q-5 -65 -23 -112h2q66 67 120 67q21 0 41 -9q29 -20 29 -47v-9q-4 -28 -25 -62q-21 -27 -46 -48q-48 -40 -148 -83
q-64 -29 -115 -49q-12 -6 -32 -13zM262 349q-8 8 -21 8q-14 0 -32 -8q-54 -24 -132 -132q63 11 101 23q77 24 93 73q5 16 -9 36z" />
    <glyph glyph-name="ecircumflex.004" horiz-adv-x="289" 
d="M-59 415q19 -7 29 -10l8 3q34 42 37 47q20 28 25 53q10 47 10 111q0 56 -1 113q1 7 6 20.5t8 20.5q4 10 13 31q3 6 11 30q5 18 15 26q10 5 11 -5q-4 -29 -8 -92l-2 -106q-3 -58 -18 -100q0 -3 3 -6q65 60 115 60q22 0 42 -10q23 -15 26 -42q3 -25 -14 -53
q-15 -25 -34 -46q-65 -68 -177 -103q-39 -12 -105 -19v77zM22 410q48 10 95 22q53 17 80 51q11 18 11 31q0 10 -7 18q-13 14 -34 13q-11 -1 -31 -11q-32 -17 -63 -55q-11 -12 -51 -69z" />
    <glyph glyph-name="Aring.003" horiz-adv-x="456" 
d="M41 191q2 -18 5 -29q20 -38 57 -47q30 -7 62 -8q38 46 45 94t5 140t4 136l39 100q7 7 9 6q5 0 5 -5q-9 -48 -11 -141q-3 -99 -9 -141q-3 -20 -17 -90q80 78 135 78q10 0 21 -2q36 -11 44 -43q6 -41 -39 -99q-56 -73 -98 -106q-64 -51 -130 -52q-73 0 -109 25
q-23 14 -38 38q-18 28 -21 77q-1 13 -2 30zM363 212q-9 8 -29 8q-39 -7 -78 -45q-20 -20 -60 -73q29 -5 71 3q89 17 107 72q4 21 -11 35z" />
    <glyph glyph-name="edieresis.006" horiz-adv-x="357" 
d="M-10 570q4 -7 10 -13q20 -20 47 -21q66 70 68 121q8 55 8 194q5 24 21 63q19 45 24 62q6 6 9 8q9 5 9 -5q-12 -81 -9 -133q-6 -124 -28 -181q70 70 126 70q10 0 20 -2q32 -11 41 -29q6 -14 5 -30q0 -29 -25 -71q-42 -64 -91 -111.5t-124 -71.5q-25 -7 -50 -7
q-40 0 -69 20l-5 3zM242 671q-45 -7 -89 -52q-15 -16 -66 -83q6 0 17 1q75 16 90 21q49 17 76 51q10 19 10 30q0 35 -38 32z" />
    <glyph glyph-name="agrave.011" horiz-adv-x="390" 
d="M-53 431q1 3 2 5q13 25 38 64t49 57q57 43 100 124q17 36 23 157q1 12 0 33q-2 26 -2 35q0 39 12 63l36 81q2 5 8 4q7 0 8 -5q-4 -25 -10 -78q-1 -50 -1 -100q-3 -60 -16 -100q-5 -15 -10 -36q65 70 125 70q17 0 34 -6q32 -16 32 -55q0 -28 -19 -58q-12 -20 -35 -48
q-17 -20 -59 -42q-36 -17 -92 -30q-47 -10 -93 -27q-16 -5 -35 -19q-12 -8 -28 -25q-6 -7 -14 -21q-4 -17 11 -25zM278 742q-46 -7 -90 -53q-9 -10 -67 -85q46 5 112 25q83 35 83 79q0 14 -11.5 24t-26.5 10z" />
    <glyph glyph-name="iacute.007" horiz-adv-x="335" 
d="M-36 443l9 29q5 7 13 5q6 -3 11.5 -5t10.5 -2q13 0 25 15q10 12 19 24q32 31 42 85q5 24 8 96q-1 39 1 120l45 108q2 6 10 11q11 2 11 -8q-10 -45 -14 -175q-2 -67 -24 -130v-2q66 64 122 64q21 0 41 -9q26 -18 26 -49q0 -27 -24 -62q-21 -30 -43 -53q-57 -51 -169 -93
q-25 -11 -84 -9l-9 -8zM62 478v-3q71 11 101 22q54 18 86 55q9 21 9 32q0 15 -11.5 23.5t-26.5 6.5q-46 -6 -89 -53q-35 -42 -69 -83z" />
    <glyph glyph-name="icircumflex.005" horiz-adv-x="327" 
d="M-7 268q4 0 7 1q7 2 14 7q75 75 76 173q1 30 -1 81q-3 62 -3 79q14 39 42 118q2 6 9 7t8 -7q-10 -92 -4 -161q0 -81 -24 -146l2 -2q69 72 123 72q19 0 38 -8q32 -23 29 -52q-2 -28 -21 -60q-19 -29 -40 -50q-41 -44 -157 -98q-31 -12 -91 -29l-23 -5zM55 282l93 23
q46 18 65 31q34 25 36 61q0 8 -12 21q-7 8 -25 8q-47 -7 -90 -56q-34 -44 -67 -88z" />
    <glyph glyph-name="Egrave.002" horiz-adv-x="388" 
d="M-12 132q1 2 12 8q19 11 39 14q36 1 59 -15h4q26 36 28 39q14 22 16 43q11 53 11 144q-1 108 3 145q16 38 45 114q5 11 12 11q5 0 6 -8q-11 -53 -14 -194q-2 -121 -28 -189q71 73 127 73q7 0 14 -1q39 -9 47 -37q4 -12 4 -24q0 -39 -49 -94q-59 -71 -145 -130
q-46 -31 -96 -31q-19 0 -43 27q-6 6 -18 13t-22 9q-7 2 -13 2zM276 254q-44 -7 -86 -48q-24 -24 -63 -79q28 -6 33 -5q54 12 77 21q42 16 65 46q11 19 11 32q0 15 -11 24.5t-26 8.5z" />
    <glyph glyph-name="b.004" horiz-adv-x="345" 
d="M-63 270q19 34 39 63q9 14 14 20q25 34 46 63q19 26 40 58q21 34 25 65q6 43 7 107q2 106 10 125.5t37 98.5q2 10 12 10q5 0 7 -7q-4 -27 -9 -80q-3 -108 -4 -118q-5 -65 -23 -112h2q66 67 120 67q21 0 41 -9q29 -20 29 -47v-9q-4 -28 -25 -62q-21 -27 -46 -48
q-48 -40 -148 -83q-65 -27 -92 -42q-9 -5 -19 -16q-17 -21 -29 -45zM258 559q-8 8 -21 8q-14 0 -32 -8q-54 -24 -132 -132q63 11 101 23q77 24 93 73q5 16 -9 36z" />
    <glyph glyph-name="idieresis.006" horiz-adv-x="320" 
d="M-38 361q0 4 5 24q4 18 13 36q11 18 56 77q40 52 48 139l4 154q16 40 46 119q5 9 14 9q4 0 5 -4q0 10 -7 -56q-3 -65 -7 -130q-4 -79 -25 -126q-2 -1 0 -1q69 67 123 67q10 0 21 -2q38 -14 43 -37q4 -12 4 -24q0 -28 -26 -60q-23 -27 -47 -54q-31 -38 -100 -51
q-89 -17 -110 -28q-17 -9 -22 -28q0 -16 10 -22zM239 586q-9 22 -32 19q-77 -9 -147 -135q45 10 90 21q51 15 79 46q14 22 14 35q0 7 -4 14z" />
    <glyph glyph-name="eth.006" horiz-adv-x="785" 
d="M-26 223q5 4 8 6q27 19 53 32q79 36 106 79l29 46q15 51 17 125v127q7 20 21 57t20 57q6 10 11 11q6 0 7 -5q-7 -68 -7 -86q0 -161 -25 -231l18 18q55 56 107 56q12 0 25 -3q39 -10 42 -47q3 -32 -21 -65q-22 -28 -43.5 -54t-58.5 -43q-13 -6 -66 -24
q-32 -11 -105.5 -35.5t-111.5 -44.5q-8 -4 -14 -8zM304 452q-45 -10 -88 -58q-34 -43 -67 -85q27 6 79 19q95 21 118 80q2 14 -2 24q-8 22 -40 20z" />
    <glyph glyph-name="Aring.008" horiz-adv-x="390" 
d="M28 268q4 -9 10 -16q18 -16 51 -25l10 -1q38 46 45 94t5 140t4 136l39 100q7 7 9 6q5 0 5 -5q-9 -48 -11 -141q-3 -99 -9 -141q-3 -20 -17 -90q80 78 135 78q10 0 21 -2q36 -11 44 -43q6 -41 -39 -99q-56 -73 -98 -106q-64 -51 -130 -51q-65 2 -102 46l-4 5zM297 331
q-9 8 -29 8q-39 -7 -78 -45q-20 -20 -60 -73q29 -5 71 3q89 17 107 72q4 21 -11 35z" />
    <glyph glyph-name="a.011" horiz-adv-x="367" 
d="M0 74q20 10 33 18q43 29 80 87q28 79 19 222q-1 22 8 48q9 23 18 45q2 3 12 33q7 21 19 29q8 -2 8 -10q0 -3 -2 -11t-1 -12q-5 -28 -9 -143q-3 -90 -24 -141q70 67 122 67q55 0 66 -39q3 -11 3 -21q0 -28 -24 -62q-20 -27 -46 -52q-61 -50 -194 -66q-27 -6 -75 -24l-8 -4
l-13 32zM267 236q-7 6 -25 6q-45 -6 -89 -53q-33 -42 -67 -84q49 5 110 24q69 29 82 67q8 24 -11 40z" />
    <glyph glyph-name="a.005" horiz-adv-x="385" 
d="M-25 166l6 8q12 15 19 29q3 6 9 2q20 -10 49 -13q36 19 73 77q28 79 19 222q-1 22 8 48q9 23 18 45q2 3 12 33q7 21 19 29q8 -2 8 -10q0 -3 -2 -11t-1 -12q-5 -28 -9 -143q-3 -90 -24 -141q70 67 122 67q55 0 66 -39q3 -11 3 -21q0 -28 -24 -62q-20 -27 -45 -54
q-75 -77 -169 -95q-51 -5 -97 12q-21 8 -35 20l-7 -9zM285 326q-7 6 -25 6q-45 -6 -89 -53q-33 -42 -67 -84q49 5 110 24q69 29 82 67q8 24 -11 40z" />
    <glyph glyph-name="a.006" horiz-adv-x="389" 
d="M-8 396l8 -4q29 -18 66 -5q32 19 69 77q28 79 19 222q-1 22 8 48q9 23 18 45q2 3 12 33q7 21 19 29q8 -2 8 -10q0 -3 -2 -11t-1 -12q-5 -28 -9 -143q-3 -90 -24 -141q70 67 122 67q55 0 66 -39q3 -11 3 -21q0 -28 -24 -62q-20 -27 -45 -54q-75 -77 -169 -95
q-50 -9 -97 -6q-21 1 -39 9l-8 4v69zM289 521q-7 6 -25 6q-45 -6 -89 -53q-33 -42 -67 -84q49 5 110 24q69 29 82 67q8 24 -11 40z" />
    <glyph glyph-name="a.007" horiz-adv-x="470" 
d="M-3 504l3 6q10 19 16 40q3 14 13 44q3 4 7 5q5 0 5 -7q3 -66 37 -90q11 -7 28 -8q28 -1 54 12q58 70 68 121q8 55 8 194q5 24 21 63q19 45 24 62q6 6 9 8q9 5 9 -5q-12 -81 -9 -133q-6 -124 -28 -181q70 70 126 70q10 0 20 -2q32 -11 41 -29q6 -14 5 -30q0 -29 -25 -71
q-42 -64 -103 -122.5t-141 -82.5q-70 -16 -116.5 7t-58.5 72q-4 -5 -10 -14l-3 -4v75zM355 641q-45 -7 -89 -52q-15 -16 -66 -85q6 0 19 2q73 17 88 22q49 17 76 51q10 19 10 30q0 35 -38 32z" />
    <glyph glyph-name="glyph439" horiz-adv-x="305" 
d="M0 230q45 65 47 68q14 22 16 43q11 53 11 144q-1 108 3 145q16 38 45 114q5 11 12 11q5 0 6 -8q-11 -53 -14 -194q-2 -121 -28 -189q71 73 127 73q7 0 14 -1q39 -9 47 -37q4 -12 4 -24q0 -39 -49 -94q-59 -71 -147 -127q-45 -26 -94 -33v109zM193 374q-44 -7 -86 -48
q-24 -24 -63 -79q28 -6 33 -5q54 12 77 21q42 16 65 46q11 19 11 32q0 15 -11 24.5t-26 8.5z" />
    <glyph glyph-name="a.008" horiz-adv-x="398" 
d="M-57 227l-3 1q-2 3 -2 10q18 58 45 101q31 42 62 57q56 32 99 113q17 36 23 157q1 12 0 33q-2 26 -2 35q0 39 12 63l36 81q2 5 8 4q7 0 8 -5q-4 -25 -10 -78q-1 -50 -1 -100q-3 -60 -16 -100q-5 -15 -10 -36q65 70 125 70q17 0 34 -6q32 -16 32 -55q0 -28 -19 -58
q-12 -20 -35 -48q-17 -20 -59 -42q-36 -17 -92 -30q-47 -10 -93 -27q-16 -5 -35 -19q-12 -8 -28 -25q-6 -7 -14 -21q-6 -15 -8 -35v-3zM286 570q-46 -7 -90 -53q-9 -10 -67 -85q46 5 112 25q83 35 83 79q0 14 -11.5 24t-26.5 10z" />
    <glyph glyph-name="a.009" horiz-adv-x="388" 
d="M-11 246q6 4 11 7q11 -1 25 6q27 14 47 35l5 6q34 42 37 47q20 28 25 53q10 47 10 111q0 56 -1 113q1 7 6 20.5t8 20.5q4 10 13 31q3 6 11 30q5 18 15 26q10 5 11 -5q-4 -29 -8 -92l-2 -106q-3 -58 -18 -100q0 -3 3 -6q65 60 115 60q22 0 42 -10q23 -15 26 -42
q3 -25 -14 -53q-15 -25 -34 -46q-65 -68 -173 -107q-52 -20 -128 -45q-22 -5 -31 -4zM121 307q48 10 95 22q53 17 80 51q11 18 11 31q0 10 -7 18q-13 14 -34 13q-11 -1 -31 -11q-32 -17 -63 -55q-11 -12 -51 -69z" />
    <glyph glyph-name="a.010" horiz-adv-x="367" 
d="M-22 166q12 4 22 9q22 11 33 18q43 29 80 87q28 79 19 222q-1 22 8 48q9 23 18 45q2 3 12 33q7 21 19 29q8 -2 8 -10q0 -3 -2 -11t-1 -12q-5 -28 -9 -143q-3 -90 -24 -141q70 67 122 67q55 0 66 -39q3 -11 3 -21q0 -28 -24 -62q-20 -27 -46 -52q-61 -50 -194 -66
q-18 -4 -75 -24q-12 -6 -23 -10zM267 337q-7 6 -25 6q-45 -6 -89 -53q-33 -42 -67 -84q49 5 110 24q69 29 82 67q8 24 -11 40z" />
    <glyph glyph-name="glyph443" horiz-adv-x="397" 
d="M-16 412q5 -22 16 -38q36 -41 87 -51q66 70 68 121q8 55 8 194q5 24 21 63q19 45 24 62q6 6 9 8q9 5 9 -5q-12 -81 -9 -133q-6 -124 -28 -181q70 70 126 70q10 0 20 -2q32 -11 41 -29q6 -14 5 -30q0 -29 -25 -71q-42 -64 -91 -111.5t-124 -71.5q-42 -7 -82.5 0.5
t-98.5 49.5l-5 3zM282 458q-45 -7 -89 -52q-15 -16 -66 -83q6 0 17 1q75 16 90 21q49 17 76 51q10 19 10 30q0 35 -38 32z" />
    <glyph glyph-name="glyph444" horiz-adv-x="390" 
d="M-39 277q2 5 6 13q43 74 72 91q54 35 97 116q17 36 23 157q1 12 0 33q-2 26 -2 35q0 39 12 63l36 81q2 5 8 4q7 0 8 -5q-4 -25 -10 -78q-1 -50 -1 -100q-3 -60 -16 -100q-5 -15 -10 -36q65 70 125 70q17 0 34 -6q32 -16 32 -55q0 -28 -19 -58q-12 -20 -35 -48
q-17 -20 -59 -42q-36 -17 -92 -30q-47 -10 -93 -27q-16 -5 -35 -19q-12 -8 -28 -25q-6 -7 -14 -21l-3 -5zM278 558q-46 -7 -90 -53q-9 -10 -67 -85q46 5 112 25q83 35 83 79q0 14 -11.5 24t-26.5 10z" />
    <glyph glyph-name="a.012" horiz-adv-x="633" 
d="M-25 322l6 8q12 15 19 29q3 6 9 2q20 -10 49 -13q36 19 73 77q28 79 19 222q-1 22 8 48q9 23 18 45q2 3 12 33q7 21 19 29q8 -2 8 -10q0 -3 -2 -11t-1 -12q-5 -28 -9 -143q-3 -90 -24 -141q70 67 122 67q55 0 66 -39q3 -11 3 -21q0 -28 -24 -62q-20 -27 -45 -54
q-75 -77 -169 -95q-51 -5 -97 12q-21 8 -35 20l-7 -9zM285 482q-7 6 -25 6q-45 -6 -89 -53q-33 -42 -67 -84q49 5 110 24q69 29 82 67q8 24 -11 40z" />
    <glyph glyph-name="glyph446" horiz-adv-x="731" 
d="M-57 393l-3 1q-2 3 -2 10q18 58 45 101q31 42 62 57q56 32 99 113q17 36 23 157q1 12 0 33q-2 26 -2 35q0 39 12 63l36 81q2 5 8 4q7 0 8 -5q-4 -25 -10 -78q-1 -50 -1 -100q-3 -60 -16 -100q-5 -15 -10 -36q65 70 125 70q17 0 34 -6q32 -16 32 -55q0 -28 -19 -58
q-12 -20 -35 -48q-17 -20 -59 -42q-36 -17 -92 -30q-47 -10 -93 -27q-16 -5 -35 -19q-12 -8 -28 -25q-6 -7 -14 -21q-6 -15 -8 -35v-3zM286 736q-46 -7 -90 -53q-9 -10 -67 -85q46 5 112 25q83 35 83 79q0 14 -11.5 24t-26.5 10z" />
    <glyph glyph-name="a.013" horiz-adv-x="388" 
d="M-10 356q5 -1 10 -1q11 -1 25 6q27 14 47 35l5 6q34 42 37 47q20 28 25 53q10 47 10 111q0 56 -1 113q1 7 6 20.5t8 20.5q4 10 13 31q3 6 11 30q5 18 15 26q10 5 11 -5q-4 -29 -8 -92l-2 -106q-3 -58 -18 -100q0 -3 3 -6q65 60 115 60q22 0 42 -10q23 -15 26 -42
q3 -25 -14 -53q-15 -25 -34 -46q-65 -68 -173 -107q-52 -20 -128 -45q-22 -5 -31 -4v58zM121 409q48 10 95 22q53 17 80 51q11 18 11 31q0 10 -7 18q-13 14 -34 13q-11 -1 -31 -11q-32 -17 -63 -55q-11 -12 -51 -69z" />
    <glyph glyph-name="glyph448" horiz-adv-x="367" 
d="M-22 293q12 4 22 9q22 11 33 18q43 29 80 87q28 79 19 222q-1 22 8 48q9 23 18 45q2 3 12 33q7 21 19 29q8 -2 8 -10q0 -3 -2 -11t-1 -12q-5 -28 -9 -143q-3 -90 -24 -141q70 67 122 67q55 0 66 -39q3 -11 3 -21q0 -28 -24 -62q-20 -27 -46 -52q-61 -50 -194 -66
q-18 -4 -75 -24q-12 -6 -23 -10zM267 464q-7 6 -25 6q-45 -6 -89 -53q-33 -42 -67 -84q49 5 110 24q69 29 82 67q8 24 -11 40z" />
    <glyph glyph-name="glyph449" horiz-adv-x="633" 
d="M-16 429q5 -22 16 -38q36 -41 87 -51q66 70 68 121q8 55 8 194q5 24 21 63q19 45 24 62q6 6 9 8q9 5 9 -5q-12 -81 -9 -133q-6 -124 -28 -181q70 70 126 70q10 0 20 -2q32 -11 41 -29q6 -14 5 -30q0 -29 -25 -71q-42 -64 -91 -111.5t-124 -71.5q-42 -7 -82.5 0.5
t-98.5 49.5l-5 3zM282 475q-45 -7 -89 -52q-15 -16 -66 -83q6 0 17 1q75 16 90 21q49 17 76 51q10 19 10 30q0 35 -38 32z" />
    <glyph glyph-name="glyph450" horiz-adv-x="555" 
d="M-39 336q2 5 6 13q43 74 72 91q54 35 97 116q17 36 23 157q1 12 0 33q-2 26 -2 35q0 39 12 63l36 81q2 5 8 4q7 0 8 -5q-4 -25 -10 -78q-1 -50 -1 -100q-3 -60 -16 -100q-5 -15 -10 -36q65 70 125 70q17 0 34 -6q32 -16 32 -55q0 -28 -19 -58q-12 -20 -35 -48
q-17 -20 -59 -42q-36 -17 -92 -30q-47 -10 -93 -27q-16 -5 -35 -19q-12 -8 -28 -25q-6 -7 -14 -21l-3 -5zM278 617q-46 -7 -90 -53q-9 -10 -67 -85q46 5 112 25q83 35 83 79q0 14 -11.5 24t-26.5 10z" />
    <glyph glyph-name="florin.003" horiz-adv-x="324" 
d="M42 169q2 -6 6 -12q18 -21 41 -25h2q28 72 43 100q30 53 71 83q25 18 50 18q14 0 26 -7q9 -7 13 -25q0 -17 -8 -22q-4 -2 -9 -2q-6 0 -17 4.5t-13 5.5q-6 2 -12 2q-17 0 -47 -28q-29 -36 -29 -62q0 -10 2 -19q6 -21 38 -34q7 -2 13 -2q41 0 77 55q3 5 11 12q8 5 8 -4
q1 -11 -13 -44q-64 -157 -169 -164q-75 -5 -111 46q-7 10 -15 28q-5 16 -7 28z" />
    <glyph glyph-name="Acircumflex.001" horiz-adv-x="383" 
d="M-4 171l4 -2q33 -8 65 -1q49 13 95 77l-46 26q-25 19 -28 43q1 16 12 33t22 32q29 38 58 77q37 42 78 50q27 2 39 -11q9 -9 9 -28q-2 -18 -14 -22q-7 1 -23.5 6.5t-25.5 5.5q-10 0 -18 -4q-36 -28 -46 -53q-2 -4 6 -20q31 -28 66 -28q10 0 19 2q29 23 90 63q10 0 10 -6
l-2 -9q-34 -50 -56 -73q-82 -57 -187 -177q-43 -37 -73 -37q-13 0 -32.5 5.5t-48.5 22.5z" />
    <glyph glyph-name="oslash.006" horiz-adv-x="513" 
d="M-2 526q1 3 2 5q48 90 142 177q-32 21 -41 29q-22 20 -24 42q0 12 13 29l76 86q47 49 94 55q31 4 44 -18q12 -20 -4 -36q-5 -5 -11 -5t-20.5 8.5t-22.5 7.5q-29 2 -70 -45q-5 -9 -1 -22q30 -39 81 -42q18 6 43 23q33 21 42 26q2 0 11 4q6 3 9 0t3 -6q0 -4 -2 -6
q-19 -21 -38 -41q-22 -23 -41 -34q-122 -70 -184 -145q-17 -18 -48 -49l-3 -22z" />
    <glyph glyph-name="onequarter.003" horiz-adv-x="335" 
d="M39 227q4 -14 9 -22q19 -23 49 -28q42 114 96 165q41 33 73 33q7 0 14 -1q16 -6 21.5 -16t3.5 -25q-2 -12 -14 -16q-9 0 -25.5 8t-28.5 6q-26 -10 -46 -34t-24 -50q-4 -24 12 -41.5t40 -17.5q19 0 35 9q37 27 49 52q4 6 11 4q6 -3 3 -13q-1 -8 -4 -15q-74 -176 -180 -184
q-79 -4 -118 54q-13 20 -15 71l1 22z" />
    <glyph glyph-name="threequarters.002" horiz-adv-x="324" 
d="M-70 142q31 47 70 71q21 13 51 26q-27 12 -29 41q5 19 39 57q31 36 61 71q38 39 77 47q38 2 48 -19q3 -4 3 -25q-5 -11 -14 -15q-8 0 -23.5 8t-24.5 8q-20 0 -40.5 -18t-29.5 -38q-4 -19 30 -39q28 -16 49 -16q16 0 28 10q24 16 75 46l9 -1l-2 -11q-22 -27 -45 -53
q-26 -31 -52 -45q-83 -52 -130.5 -86.5t-79.5 -43.5q-28 -10 -42 -26z" />
    <glyph glyph-name="Acircumflex.002" horiz-adv-x="325" 
d="M-17 521q8 -4 17 -4q15 1 32 12q31 18 61 62v3q-65 32 -71 68q1 16 14 31q35 46 69 92q44 53 92 65q35 5 48 -20q10 -20 -3 -38q-6 -3 -12 -3q-7 0 -22.5 7.5t-26.5 5.5q-23 -4 -52 -39q-1 -2 -6 -10t-5 -13q6 -23 50 -41q11 -5 22 -5q23 0 56 27q38 31 53 36q11 2 11 -5
l-1 -9q-17 -25 -59 -71q-62 -39 -203 -177q-15 -17 -47 -29q-10 -3 -19 -3z" />
    <glyph glyph-name="acute.003" horiz-adv-x="338" 
d="M-31 467q17 4 31 9q71 31 128 77v2q-37 15 -49 22q-27 16 -33 40q0 7 18 48l60 90q38 53 84 63q24 5 38 -7q11 -13 11 -30q-3 -10 -14 -18q-7 0 -22 4.5t-23 4.5q-7 0 -13 -2q-9 -2 -35 -28q-18 -30 -18 -35q0 -4 2 -9q28 -35 81 -35q7 0 15 5.5t16 10.5q22 20 68 56
q8 0 9 -3l-1 -10l-47 -71q-66 -60 -129 -122q-77 -69 -146 -104q-24 -14 -60 -15z" />
    <glyph glyph-name="acute.004" horiz-adv-x="341" 
d="M-32 73l32 18q21 11 34 20q59 41 97 72v2q-37 15 -49 22q-28 17 -33 40q0 19 18 49q29 50 59 91q39 51 85 61q24 5 38 -7q12 -13 11 -30q-3 -14 -14 -18q-7 0 -22 4.5t-23 4.5q-7 0 -13 -2q-19 -10 -35 -28q-15 -18 -18 -35q0 -5 2 -9q23 -35 81 -36q7 1 15 6.5t16 10.5
q22 20 68 56q8 0 9 -3l-1 -10l-47 -71q-66 -60 -122 -119q-57 -55 -110 -99q-25 -18 -46 -26q-33 -10 -60 -12z" />
    <glyph glyph-name="mu1.003" horiz-adv-x="365" 
d="M-29 161q14 3 29 9q71 30 137 107q-61 30 -71 61q-5 15 12 40q34 45 69 90q43 52 91 62q31 6 46 -17q7 -17 3 -28q-6 -13 -14 -13q-8 1 -24 7.5t-25 6.5q-7 0 -14 -3q-46 -29 -53 -60q4 -19 48 -40q21 -9 45 -4q30 21 90 59q10 -2 9 -6l-1 -9l-55 -65q-93 -61 -189 -161
q-56 -49 -78 -66q-13 -11 -26 -18q-17 -9 -29 -12v60z" />
    <glyph glyph-name="acute.005" horiz-adv-x="298" 
d="M-39 382q12 7 21 17q18 20 35 40q26 31 61 64v2q-27 15 -39 22q-27 16 -33 40q0 7 18 48l60 90q38 53 84 63q24 5 38 -7q11 -13 11 -30q-3 -10 -14 -18q-7 0 -22 4.5t-23 4.5q-7 0 -13 -2q-9 -2 -35 -28q-18 -30 -18 -35q0 -4 2 -9q28 -35 81 -35q7 0 15 5.5t16 10.5
q22 20 68 56q8 0 9 -3l-1 -10l-47 -71q-66 -60 -128 -120q-47 -44 -75 -76q-17 -18 -32 -31q-17 -17 -39 -34v42z" />
    <glyph glyph-name="florin.004" horiz-adv-x="341" 
d="M41 191q2 -18 5 -29q7 -15 15 -25q16 -17 35 -22h2q38 82 53 110q30 53 71 83q25 18 50 18q14 0 26 -7q9 -7 13 -25q0 -17 -8 -22q-4 -2 -9 -2q-6 0 -17 4.5t-13 5.5q-6 2 -12 2q-17 0 -47 -28q-29 -36 -29 -62q0 -10 2 -19q6 -21 38 -34q7 -2 13 -2q41 0 77 55
q3 5 11 12q8 5 8 -4q1 -11 -13 -44q-64 -157 -169 -164q-75 -5 -113 45q-23 33 -30 85q-1 13 -2 30z" />
    <glyph glyph-name="paragraph.001" horiz-adv-x="256" 
d="M-15 579q4 -10 15 -22q10 -6 20 -7l3 4q28 74 46 107q34 59 82 87q33 16 59 3q18 -9 16 -34q-7 -14 -13 -17q-7 1 -23.5 7t-25.5 6q-11 0 -20 -7q-53 -40 -53 -86q0 -23 15.5 -37.5t38.5 -14.5q34 0 78 56q0 5 7 12q9 3 11 -6q-2 -19 -37 -96q-60 -106 -141 -113
q-38 -3 -81 12h-1z" />
    <glyph glyph-name="oslash.007" horiz-adv-x="329" 
d="M-52 433q1 3 2 5q48 90 142 177q-32 21 -41 29q-22 20 -24 42q0 12 13 29l76 86q47 49 94 55q31 4 44 -18q12 -20 -4 -36q-5 -5 -11 -5t-20.5 8.5t-22.5 7.5q-29 2 -70 -45q-5 -9 -1 -22q30 -39 81 -42q18 6 43 23q33 21 42 26q2 0 11 4q6 3 9 0t3 -6q0 -4 -2 -6
q-19 -21 -38 -41q-22 -23 -41 -34q-122 -70 -184 -145q-48 -53 -49 -64l-2 -7z" />
    <glyph glyph-name="ugrave.003" horiz-adv-x="343" 
d="M-42 413q2 16 16 59q1 3 6 4q9 0 11 -7q0 -10 2 -13q11 -5 22 -5q24 0 52 24l44 42l12 14q-68 31 -76 66q1 14 12 31q8 13 17 27l60 80q37 45 80 53q32 2 43 -17q5 -14 2 -27q-4 -11 -11 -12q-8 1 -23 6.5t-24 5.5q-5 0 -10 -1q-45 -21 -56 -61q1 -24 51 -44q11 -5 22 -5
q24 0 55 28q39 33 52 39q11 5 11 -4l-4 -9l-46 -63q-46 -39 -92 -79q-52 -46 -83 -86t-44 -53q-27 -28 -57 -37h-8z" />
    <glyph glyph-name="uacute.007" horiz-adv-x="286" 
d="M-5 268l5 1q15 22 67 91q2 5 -2.5 6.5t-8.5 3.5q-56 21 -65 57q2 18 11 31q32 50 64 101q42 58 94 69q30 6 41 -18q10 -21 -1 -36q-6 -6 -13 -6q-5 0 -16.5 5t-18.5 5q-37 5 -70 -58q-4 -11 5 -20q32 -27 67 -27q8 0 16 2q17 9 46.5 34t45.5 34q7 3 9 -4v-10
q-15 -23 -30 -45q-18 -27 -36 -42q-104 -84 -149 -159q-25 -41 -56 -78q-4 -4 -8 -6z" />
    <glyph glyph-name="middot.001" horiz-adv-x="351" 
d="M-13 131q1 2 13 9q33 18 71 8q12 -4 25 -7q9 18 28 54q78 137 157 154q36 2 49 -20q4 -11 2 -23q-3 -7 -16 -18q-7 2 -24 11t-27 9q-8 0 -15 -4q-59 -30 -66 -82q0 -23 16.5 -40t39.5 -17q47 0 85 58q9 4 11 -6q-5 -25 -51 -96q-85 -121 -175 -121q-31 0 -93 42
q-9 6 -17 7q-7 2 -13 2v80z" />
    </font>
</defs>
</svg>
