<?xml version="1.0" standalone="no"?>
<!DOCTYPE svg PUBLIC "-//W3C//DTD SVG 1.1//EN" "http://www.w3.org/Graphics/SVG/1.1/DTD/svg11.dtd" >
<svg xmlns="http://www.w3.org/2000/svg" xmlns:xlink="http://www.w3.org/1999/xlink" version="1.1">
<metadata>
Created by FontForge 20170731 at Tue Jul 11 16:09:11 2017
 By Aleksey,,,
Copyright (c) 2015-2016 The Mada Project Authors, with Reserved Font Name "Source". Source is a trademark of Adobe Systems Incorporated in the United States and/or other countries.
</metadata>
<defs>
<font id="Mada-ExtraLight" horiz-adv-x="0" >
  <font-face 
    font-family="Mada ExtraLight"
    font-weight="275"
    font-stretch="normal"
    units-per-em="1000"
    panose-1="0 0 0 0 0 0 0 0 0 0"
    ascent="800"
    descent="-200"
    x-height="478"
    cap-height="660"
    bbox="-175 -309 856 868"
    underline-thickness="50"
    underline-position="-175"
    unicode-range="U+0020-25CC"
  />
<missing-glyph horiz-adv-x="500" 
d="M50 -200h400v1000h-400v-1000zM100 -150v900h300v-900h-300z" />
    <glyph glyph-name="arAlef.fina" unicode="&#x627;" horiz-adv-x="173" arabic-form="final" 
d="M52 67v557h-15v-562q0 -21 15 -41.5t46 -20.5h75v15h-71q-23 1 -36 16.5t-14 35.5z" />
    <glyph glyph-name="arAlef.isol" unicode="&#x627;" horiz-adv-x="189" arabic-form="isolated" 
d="M87 1v623h15v-609q0 -2 -4 -8t-11 -6z" />
    <glyph glyph-name="arHah.init" unicode="&#x62d;" horiz-adv-x="555" arabic-form="initial" 
d="M0 0v15h506q3 1 6 3q2 5 3 10q-35 5 -64.5 24.5t-54.5 41.5q-33 29 -67.5 66t-74.5 65q-40 29 -79 41t-70 20l4 15q31 -7 70.5 -20.5t82.5 -43.5q40 -29 75 -65t67 -64q27 -25 53 -40.5t60 -15.5v-7q1 -9 -2 -17l4 -1q-4 -6 -7 -9q-10 -18 -29 -18h-483z" />
    <glyph glyph-name="arHah.medi" unicode="&#x62d;" horiz-adv-x="517" arabic-form="medial" 
d="M0 0v15h506q3 1 6 3q2 5 3 10q-35 5 -64.5 24.5t-54.5 41.5q-33 29 -67.5 66t-74.5 65q-40 29 -79 41t-70 20l4 15q31 -7 70.5 -20.5t82.5 -43.5q40 -29 75 -65t67 -64q27 -25 53 -40.5t60 -15.5v-7q1 -9 -2 -17l4 -1q-4 -6 -7 -9q-10 -18 -29 -18h-483z" />
    <glyph glyph-name="arHah.fina" unicode="&#x62d;" horiz-adv-x="416" arabic-form="final" 
d="M129 -291q-39 -1 -65 24t-26 63v113q0 37 29.5 71.5t70.5 34.5h270q1 1 1 2q-35 9 -62.5 32t-50.5 48q-29 32 -69 80.5t-122 79.5l6 14q85 -32 126.5 -82t70.5 -82q26 -27 50.5 -45t57.5 -18v-7q0 -9 -7 -20l10 -2h-11q-10 -15 -26 -15h-244q-34 0 -60 -30t-26 -61v-113
q0 -32 21.5 -53t55.5 -20h241v-14h-241z" />
    <glyph glyph-name="arHah.isol" unicode="&#x62d;" horiz-adv-x="454" arabic-form="isolated" 
d="M129 -291q-39 -1 -65 24t-26 63v113q0 37 29.5 71.5t70.5 34.5h270q1 1 1 2q-35 9 -62.5 32t-50.5 48q-29 32 -69 80.5t-122 79.5l6 14q85 -32 126.5 -82t70.5 -82q26 -27 50.5 -45t57.5 -18v-7q0 -9 -7 -20l10 -2h-11q-10 -15 -26 -15h-244q-34 0 -60 -30t-26 -61v-113
q0 -32 21.5 -53t55.5 -20h241v-14h-241z" />
    <glyph glyph-name="arDal.fina" unicode="&#x62f;" horiz-adv-x="361" arabic-form="final" 
d="M346 64q-4 60 -34 101t-70.5 68.5t-77.5 45.5l7 13q34 -17 78 -46.5t77 -75.5t35 -111q1 -17 -12 -38t-47 -21h-264v15h259q26 1 37 16.5t12 32.5z" />
    <glyph glyph-name="arDal.isol" unicode="&#x62f;" horiz-adv-x="391" arabic-form="isolated" 
d="M346 64q-4 60 -34 101t-70.5 68.5t-77.5 45.5l7 13q34 -17 78 -46.5t77 -75.5t35 -111q1 -17 -12 -38t-47 -21h-264v15h259q26 1 37 16.5t12 32.5z" />
    <glyph glyph-name="arReh.fina" unicode="&#x631;" horiz-adv-x="277" arabic-form="final" 
d="M157 15h115v-15h-115v15zM147 -47v188h15v-188q0 -38 -5.5 -73.5t-26 -58t-65.5 -22.5h-65v15h65q53 0 67.5 36.5t14.5 102.5z" />
    <glyph glyph-name="arReh.isol" unicode="&#x631;" horiz-adv-x="199" arabic-form="isolated" 
d="M147 -46v188h15v-188q0 -38 -5.5 -73.5t-26 -58t-65.5 -22.5h-65v15h65q53 0 67.5 36.5t14.5 102.5z" />
    <glyph glyph-name="arSeen.init" unicode="&#x633;" horiz-adv-x="620" arabic-form="initial" 
d="M568 64v267h14v-272q0 -24 -16.5 -41.5t-43.5 -17.5h-124v15h119q22 1 35.5 15t15.5 34zM395 63v268h15v-273q0 -25 -17 -41.5t-43 -16.5h-119v15h114q48 2 50 48zM225 64v267h14v-272q0 -24 -16.5 -41.5t-43.5 -17.5h-179v15h174q22 1 36 15t15 34z" />
    <glyph glyph-name="arSeen.medi" unicode="&#x633;" horiz-adv-x="582" arabic-form="medial" 
d="M568 64v267h14v-272q0 -24 -16.5 -41.5t-43.5 -17.5h-124v15h119q22 1 35.5 15t15.5 34zM395 63v268h15v-273q0 -25 -17 -41.5t-43 -16.5h-119v15h114q48 2 50 48zM225 64v267h14v-272q0 -24 -16.5 -41.5t-43.5 -17.5h-179v15h174q22 1 36 15t15 34z" />
    <glyph glyph-name="arSeen.fina" unicode="&#x633;" horiz-adv-x="763" arabic-form="final" 
d="M749 64v267h14v-272q0 -24 -17.5 -41.5t-43.5 -17.5h-123v15h118q21 0 36.5 15t15.5 34zM94 -201q-24 0 -40 19.5t-16 43.5v278h14v-272q2 -22 16 -37.5t30 -16.5h258q22 1 36 15.5t15 33.5v470h14v-318h106q20 0 35 15t15 34v267h15v-272q0 -24 -17 -41.5t-44 -17.5
h-110v-142q0 -25 -16.5 -42t-43.5 -17h-267z" />
    <glyph glyph-name="arSeen.isol" unicode="&#x633;" horiz-adv-x="801" arabic-form="isolated" 
d="M749 64v267h14v-272q0 -24 -17.5 -41.5t-43.5 -17.5h-123v15h118q21 0 36.5 15t15.5 34zM94 -201q-24 0 -40 19.5t-16 43.5v278h14v-272q2 -22 16 -37.5t30 -16.5h258q22 1 36 15.5t15 33.5v470h14v-318h106q20 0 35 15t15 34v267h15v-272q0 -24 -17 -41.5t-44 -17.5
h-110v-142q0 -25 -16.5 -42t-43.5 -17h-267z" />
    <glyph glyph-name="arSad.init" unicode="&#x635;" horiz-adv-x="602" arabic-form="initial" 
d="M0 0v15h132v217h15v-217h12v-15h-159zM162 19l-8 11q52 70 103.5 136.5t106 102t116.5 12.5q79 -32 82 -155l2 -66q1 -25 -16.5 -42.5t-43.5 -17.5h-365v15h360q23 1 36.5 15t14.5 33l-3 64q-1 60 -18.5 93t-52.5 48q-57 20 -110 -16.5t-103.5 -102t-100.5 -130.5z" />
    <glyph glyph-name="arSad.medi" unicode="&#x635;" horiz-adv-x="564" arabic-form="medial" 
d="M0 0v15h132v217h15v-217h12v-15h-159zM162 19l-8 11q52 70 103.5 136.5t106 102t116.5 12.5q79 -32 82 -155l2 -66q1 -25 -16.5 -42.5t-43.5 -17.5h-365v15h360q23 1 36.5 15t14.5 33l-3 64q-1 60 -18.5 93t-52.5 48q-57 20 -110 -16.5t-103.5 -102t-100.5 -130.5z" />
    <glyph glyph-name="arSad.fina" unicode="&#x635;" horiz-adv-x="839" arabic-form="final" 
d="M407 -137v369h14v-374q0 -25 -16.5 -42t-43.5 -17h-267q-24 0 -40 19.5t-16 43.5v278h14v-272q2 -22 16 -37.5t30 -16.5h258q22 1 36 15.5t15 33.5zM437 19l-8 11q51 70 103 136.5t107 102t116 12.5q79 -32 82 -155l2 -66q1 -25 -17 -42.5t-43 -17.5h-365v15h360
q22 1 36 15t15 33l-3 64q-2 60 -19 93t-52 48q-57 20 -110 -16.5t-104 -102t-100 -130.5z" />
    <glyph glyph-name="arSad.isol" unicode="&#x635;" horiz-adv-x="876" arabic-form="isolated" 
d="M407 -137v369h14v-374q0 -25 -16.5 -42t-43.5 -17h-267q-24 0 -40 19.5t-16 43.5v278h14v-272q2 -22 16 -37.5t30 -16.5h258q22 1 36 15.5t15 33.5zM437 19l-8 11q51 70 103 136.5t107 102t116 12.5q79 -32 82 -155l2 -66q1 -25 -17 -42.5t-43 -17.5h-365v15h360
q22 1 36 15t15 33l-3 64q-2 60 -19 93t-52 48q-57 20 -110 -16.5t-104 -102t-100 -130.5z" />
    <glyph glyph-name="arTah.init" unicode="&#x637;" horiz-adv-x="562" arabic-form="initial" 
d="M0 0v15h110v609h14v-618h-5v-6h-119zM122 19l-8 11q52 70 103.5 136.5t106 102t116.5 12.5q79 -32 82 -155l2 -66q1 -25 -16.5 -42.5t-43.5 -17.5h-365v15h360q23 1 36.5 15t14.5 33l-3 64q-1 60 -18.5 93t-52.5 48q-57 20 -110 -16.5t-103.5 -102t-100.5 -130.5z" />
    <glyph glyph-name="arTah.medi" unicode="&#x637;" horiz-adv-x="524" arabic-form="medial" 
d="M0 0v15h110v609h14v-618h-5v-6h-119zM122 19l-8 11q52 70 103.5 136.5t106 102t116.5 12.5q79 -32 82 -155l2 -66q1 -25 -16.5 -42.5t-43.5 -17.5h-365v15h360q23 1 36.5 15t14.5 33l-3 64q-1 60 -18.5 93t-52.5 48q-57 20 -110 -16.5t-103.5 -102t-100.5 -130.5z" />
    <glyph glyph-name="arTah.fina" unicode="&#x637;" horiz-adv-x="562" arabic-form="final" 
d="M38 0v15h110v609h14v-618h-5v-6h-119zM160 19l-8 11q52 70 103.5 136.5t106 102t116.5 12.5q79 -32 82 -155l2 -66q1 -25 -16.5 -42.5t-43.5 -17.5h-365v15h360q23 1 36.5 15t14.5 33l-3 64q-1 60 -18.5 93t-52.5 48q-57 20 -110 -16.5t-103.5 -102t-100.5 -130.5z" />
    <glyph glyph-name="arTah.isol" unicode="&#x637;" horiz-adv-x="599" arabic-form="isolated" 
d="M38 0v15h110v609h14v-618h-5v-6h-119zM160 19l-8 11q52 70 103.5 136.5t106 102t116.5 12.5q79 -32 82 -155l2 -66q1 -25 -16.5 -42.5t-43.5 -17.5h-365v15h360q23 1 36.5 15t14.5 33l-3 64q-1 60 -18.5 93t-52.5 48q-57 20 -110 -16.5t-103.5 -102t-100.5 -130.5z" />
    <glyph glyph-name="arAin.init" unicode="&#x639;" horiz-adv-x="506" arabic-form="initial" 
d="M0 0v15h235q-78 76 -99.5 140t15.5 102q31 33 100.5 37t169.5 -26l-6 -13q-98 29 -162.5 24t-90.5 -32q-29 -30 -12.5 -88.5t96.5 -135.5l-9 -8h231v-15h-468z" />
    <glyph glyph-name="arAin.medi" unicode="&#x639;" horiz-adv-x="468" arabic-form="medial" 
d="M0 0v15h235q-78 76 -99.5 140t15.5 102q31 33 100.5 37t169.5 -26l-6 -13q-98 29 -162.5 24t-90.5 -32q-29 -30 -12.5 -88.5t96.5 -135.5l-9 -8h231v-15h-468z" />
    <glyph glyph-name="arAin.fina" unicode="&#x639;" horiz-adv-x="375" arabic-form="final" 
d="M87 -272q-22 0 -35.5 16t-13.5 38v177q1 19 11.5 37.5t39.5 18.5h101q-59 69 -69.5 122.5t21.5 82.5q46 44 148 14q22 -6 49 -17l-6 -13q-13 5 -24.5 9.5t-22.5 7.5q-96 26 -135 -11q-25 -23 -15.5 -73.5t75.5 -121.5h164v-15h-283q-36 -3 -40 -44v-170q3 -39 37 -43h286
v-15h-288z" />
    <glyph glyph-name="arAin.isol" unicode="&#x639;" horiz-adv-x="413" arabic-form="isolated" 
d="M87 -272q-22 0 -35.5 16t-13.5 38v177q1 19 11.5 37.5t39.5 18.5h101q-59 69 -69.5 122.5t21.5 82.5q46 44 148 14q22 -6 49 -17l-6 -13q-13 5 -24.5 9.5t-22.5 7.5q-96 26 -135 -11q-25 -23 -15.5 -73.5t75.5 -121.5h164v-15h-283q-36 -3 -40 -44v-170q3 -39 37 -43h286
v-15h-288z" />
    <glyph glyph-name="arKaf.init" unicode="&#x643;" horiz-adv-x="446" arabic-form="initial" 
d="M313 0h-313v15h311q29 1 38.5 26.5t-7.5 44.5l-278 284q-19 19 -25.5 52.5t23.5 49.5q38 23 90.5 43t106 35t95 23.5t56.5 8.5l-1 -15q-13 0 -53 -8.5t-92.5 -23.5t-104 -34t-87.5 -41q-20 -13 -15 -40.5t22 -45.5l274 -280q23 -23 12 -58.5t-52 -35.5z" />
    <glyph glyph-name="arKaf.medi" unicode="&#x643;" horiz-adv-x="354" arabic-form="medial" 
d="M313 0h-313v15h311q29 1 38.5 26.5t-7.5 44.5l-278 284q-19 19 -25.5 52.5t23.5 49.5q38 23 90.5 43t106 35t95 23.5t56.5 8.5l-1 -15q-13 0 -53 -8.5t-92.5 -23.5t-104 -34t-87.5 -41q-20 -13 -15 -40.5t22 -45.5l274 -280q23 -23 12 -58.5t-52 -35.5z" />
    <glyph glyph-name="arLam.init" unicode="&#x644;" horiz-adv-x="173" arabic-form="initial" 
d="M121 67v557h15v-562q0 -21 -15 -41.5t-46 -20.5h-75v15h71q23 1 36 16.5t14 35.5z" />
    <glyph glyph-name="arLam.medi" unicode="&#x644;" horiz-adv-x="136" arabic-form="medial" 
d="M121 67v557h15v-562q0 -21 -15 -41.5t-46 -20.5h-75v15h71q23 1 36 16.5t14 35.5z" />
    <glyph glyph-name="arLam.fina" unicode="&#x644;" horiz-adv-x="420" arabic-form="final" 
d="M406 -81v705h14v-711q0 -23 -15.5 -42t-45.5 -19h-259q-28 0 -45 16.5t-17 43.5v189h14v-184q3 -47 53 -50h249q23 1 36.5 17t15.5 35z" />
    <glyph glyph-name="arLam.isol" unicode="&#x644;" horiz-adv-x="458" arabic-form="isolated" 
d="M406 -81v705h14v-711q0 -23 -15.5 -42t-45.5 -19h-259q-28 0 -45 16.5t-17 43.5v189h14v-184q3 -47 53 -50h249q23 1 36.5 17t15.5 35z" />
    <glyph glyph-name="arMeem.init" unicode="&#x645;" horiz-adv-x="464" arabic-form="initial" 
d="M93 0h-93v15h88q31 1 43 16.5t14 35.5v125q0 51 30 78q33 32 86 30.5t91 -40.5q39 -41 56.5 -77t17.5 -67q0 -57 -50 -86.5t-112 -29.5h-106v15h106q61 0 104.5 27t43.5 74q0 27 -17 60.5t-55 73.5q-33 34 -79.5 35.5t-74.5 -26.5q-27 -25 -27 -67v-130
q-1 -19 -14.5 -40.5t-51.5 -21.5z" />
    <glyph glyph-name="arMeem.medi" unicode="&#x645;" horiz-adv-x="426" arabic-form="medial" 
d="M93 0h-93v15h88q31 1 43 16.5t14 35.5v125q0 51 30 78q33 32 86 30.5t91 -40.5q39 -41 56.5 -77t17.5 -67q0 -57 -50 -86.5t-112 -29.5h-106v15h106q61 0 104.5 27t43.5 74q0 27 -17 60.5t-55 73.5q-33 34 -79.5 35.5t-74.5 -26.5q-27 -25 -27 -67v-130
q-1 -19 -14.5 -40.5t-51.5 -21.5z" />
    <glyph glyph-name="arMeem.fina" unicode="&#x645;" horiz-adv-x="492" arabic-form="final" 
d="M38 15h27l9 -15h-27zM158 0h-93v15h88q31 1 43 16.5t14 35.5v125q0 51 30 78q33 32 86.5 30.5t90.5 -40.5q39 -41 56.5 -77t17.5 -67q0 -57 -50 -86.5t-112 -29.5h-106v15h106q61 0 104.5 27t43.5 74q0 27 -17 60.5t-55 73.5q-33 34 -79.5 35.5t-74.5 -26.5
q-27 -25 -27 -67v-130q-1 -19 -14.5 -40.5t-51.5 -21.5z" />
    <glyph glyph-name="arMeem.isol" unicode="&#x645;" horiz-adv-x="529" arabic-form="isolated" 
d="M38 15h27l9 -15h-27zM158 0h-93v15h88q31 1 43 16.5t14 35.5v125q0 51 30 78q33 32 86.5 30.5t90.5 -40.5q39 -41 56.5 -77t17.5 -67q0 -57 -50 -86.5t-112 -29.5h-106v15h106q61 0 104.5 27t43.5 74q0 27 -17 60.5t-55 73.5q-33 34 -79.5 35.5t-74.5 -26.5
q-27 -25 -27 -67v-130q-1 -19 -14.5 -40.5t-51.5 -21.5z" />
    <glyph glyph-name="arHeh.init" unicode="&#x647;" horiz-adv-x="661" arabic-form="initial" 
d="M0 0v15h165v139q0 55 40 82q39 26 94.5 10t96.5 -78q24 -40 26 -75q0 -27 -12.5 -47t-32.5 -31h182q47 2 50 49q1 71 -36 147t-117 129t-207 55v15q131 -2 214.5 -57t122.5 -135.5t37 -158.5q0 -25 -17.5 -42t-41.5 -17h-564zM179 154v-139h143q34 1 60.5 21t25.5 56
q0 31 -24 68q-38 58 -89 72t-82 -7q-34 -24 -34 -71z" />
    <glyph glyph-name="arHeh.medi" unicode="&#x647;" horiz-adv-x="623" arabic-form="medial" 
d="M0 0v15h165v139q0 55 40 82q39 26 94.5 10t96.5 -78q24 -40 26 -75q0 -27 -12.5 -47t-32.5 -31h182q47 2 50 49q1 71 -36 147t-117 129t-207 55v15q131 -2 214.5 -57t122.5 -135.5t37 -158.5q0 -25 -17.5 -42t-41.5 -17h-564zM179 154v-139h143q34 1 60.5 21t25.5 56
q0 31 -24 68q-38 58 -89 72t-82 -7q-34 -24 -34 -71z" />
    <glyph glyph-name="arHeh.fina" unicode="&#x647;" horiz-adv-x="293" arabic-form="final" 
d="M222 352l13 -5q-31 -79 -75 -120.5t-97 -91.5q-24 -25 -20.5 -53.5t23.5 -46.5q22 -20 55 -20h98q19 1 34 15.5t16 33.5v254h14v-259q0 -23 -17.5 -41t-41.5 -18h-103q-38 0 -65 25q-22 21 -28 57t25 64q53 49 94.5 87.5t74.5 118.5z" />
    <glyph glyph-name="arHeh.isol" unicode="&#x647;" horiz-adv-x="331" arabic-form="isolated" 
d="M222 352l13 -5q-31 -79 -75 -120.5t-97 -91.5q-24 -25 -20.5 -53.5t23.5 -46.5q22 -20 55 -20h98q19 1 34 15.5t16 33.5v254h14v-259q0 -23 -17.5 -41t-41.5 -18h-103q-38 0 -65 25q-22 21 -28 57t25 64q53 49 94.5 87.5t74.5 118.5z" />
    <glyph glyph-name="arWaw.fina" unicode="&#x648;" horiz-adv-x="452" arabic-form="final" 
d="M299 15h148v-15h-148v15zM-8 -199v15h193q59 0 94.5 42.5t35.5 95.5v46h-152q-49 0 -82 34t-30 77q7 83 65 129t115 47q40 0 69.5 -24.5t29.5 -74.5v-234q0 -58 -40 -105.5t-105 -47.5h-193zM163 15h152v178q0 43 -24.5 61t-58.5 18q-52 0 -105.5 -42.5t-60.5 -119.5
q-2 -35 26 -65t71 -30z" />
    <glyph glyph-name="arWaw.isol" unicode="&#x648;" horiz-adv-x="368" arabic-form="isolated" 
d="M-8 -199v15h193q59 0 94.5 42.5t35.5 95.5v46h-152q-49 0 -82 34t-30 77q7 83 65 129t115 47q40 0 69.5 -24.5t29.5 -74.5v-234q0 -58 -40 -105.5t-105 -47.5h-193zM163 15h152v178q0 43 -24.5 61t-58.5 18q-52 0 -105.5 -42.5t-60.5 -119.5q-2 -35 26 -65t71 -30z" />
    <glyph glyph-name="arBeh.init" unicode="&#x649;" horiz-adv-x="387" 
d="M335 63v268h14v-273q0 -25 -17 -41.5t-43 -16.5h-289v15h284q48 2 51 48z" />
    <glyph glyph-name="arBeh.medi" unicode="&#x649;" horiz-adv-x="349" 
d="M335 63v268h14v-273q0 -25 -17 -41.5t-43 -16.5h-289v15h284q48 2 51 48z" />
    <glyph glyph-name="arYeh.fina" unicode="&#x649;" horiz-adv-x="486" arabic-form="final" 
d="M385 42h101v-15h-99q-28 2 -41.5 -17t8.5 -50l110 -133q20 -22 4.5 -47t-52.5 -27h-230q-50 0 -99 30t-49 103v154h14v-154q0 -65 43 -90t89 -28h231q30 1 41 17.5t0 30.5l-113 136q-30 36 -11.5 63t53.5 27z" />
    <glyph glyph-name="arYeh.isol" unicode="&#x649;" horiz-adv-x="523" arabic-form="isolated" 
d="M385 197h101v-15h-99q-28 2 -41.5 -17t8.5 -50l110 -133q20 -22 4.5 -47t-52.5 -27h-230q-50 0 -99 30t-49 103v154h14v-154q0 -65 43 -90t89 -28h231q30 1 41 17.5t0 30.5l-113 136q-30 36 -11.5 63t53.5 27z" />
    <glyph glyph-name="arBeh.fina" unicode="&#x66e;" horiz-adv-x="614" 
d="M600 64v190h14v-195q0 -23 -19 -41t-40 -18h-392q-49 0 -87 33t-38 81v140h14v-140q0 -42 33 -70.5t78 -28.5h387q16 1 32 17t18 32z" />
    <glyph glyph-name="arBeh.isol" unicode="&#x66e;" horiz-adv-x="652" 
d="M600 64v190h14v-195q0 -23 -19 -41t-40 -18h-392q-49 0 -87 33t-38 81v140h14v-140q0 -42 33 -70.5t78 -28.5h387q16 1 32 17t18 32z" />
    <glyph glyph-name="arFeh.init" unicode="&#x66f;" horiz-adv-x="452" 
d="M0 0v15h347q24 1 37.5 16.5t15.5 34.5v76q-44 -6 -93.5 -8t-93 14t-71.5 61q-32 53 -12 109t59 81q43 29 108 21t98 -59q19 -32 19 -75v-225q0 -23 -17 -42t-45 -19h-352zM156 216q24 -40 62.5 -52.5t85 -9.5t96.5 9v123q0 18 -1 32t-5 28q-19 34 -55 49t-74.5 13
t-67.5 -20q-35 -22 -52 -74t11 -98z" />
    <glyph glyph-name="arFeh.medi" unicode="&#x66f;" horiz-adv-x="414" 
d="M0 0v15h347q24 1 37.5 16.5t15.5 34.5v76q-44 -6 -93.5 -8t-93 14t-71.5 61q-32 53 -12 109t59 81q43 29 108 21t98 -59q19 -32 19 -75v-225q0 -23 -17 -42t-45 -19h-352zM156 216q24 -40 62.5 -52.5t85 -9.5t96.5 9v123q0 18 -1 32t-5 28q-19 34 -55 49t-74.5 13
t-67.5 -20q-35 -22 -52 -74t11 -98z" />
    <glyph glyph-name="arQaf.fina" unicode="&#x66f;" horiz-adv-x="749" 
d="M370 76q19 -31 45 -44.5t72.5 -16t126.5 -0.5v131q0 35 -11 62q-28 49 -89 57.5t-102 -17.5q-35 -22 -52.5 -74t10.5 -98zM144 -199q-45 0 -75.5 27.5t-30.5 73.5v242h14v-242q0 -40 26 -63t66 -23h417q24 1 37.5 16.5t15.5 34.5v133q-82 -2 -131.5 1t-78 18t-48.5 50
q-31 53 -11.5 109t58.5 81q43 29 108 21t98 -59q19 -32 19 -75v-131h117v-15h-117v-138q0 -22 -17 -41.5t-45 -19.5h-422z" />
    <glyph glyph-name="arQaf.isol" unicode="&#x66f;" horiz-adv-x="666" 
d="M370 76q24 -40 62.5 -52.5t85 -9.5t96.5 9v123q0 33 -6 60q-19 34 -55 49t-75 13t-67 -20q-35 -22 -52 -74t11 -98zM144 -199q-45 0 -75.5 27.5t-30.5 73.5v242h14v-242q0 -40 26 -63t66 -23h417q24 1 37.5 16.5t15.5 34.5v135q-44 -6 -93.5 -8t-93 14t-71.5 61
q-32 53 -12 109t59 81q43 29 108 21t98 -59q19 -32 19 -75v-284q0 -22 -17 -41.5t-45 -19.5h-422z" />
    <glyph glyph-name="arFeh.fina" unicode="&#x6a1;" horiz-adv-x="819" 
d="M440 76q19 -31 45 -44.5t72.5 -16t126.5 -0.5v131q0 35 -11 62q-28 49 -89 57.5t-102 -17.5q-35 -22 -52.5 -74t10.5 -98zM144 -199q-45 0 -75.5 27.5t-30.5 73.5v152h14v-152q0 -40 26 -63t66 -23h487q24 1 37.5 16.5t15.5 34.5v133q-82 -2 -131.5 1t-78 18t-48.5 50
q-31 53 -11.5 109t58.5 81q43 29 108 21t98 -59q19 -32 19 -75v-131h117v-15h-117v-138q0 -22 -17 -41.5t-45 -19.5h-492z" />
    <glyph glyph-name="arFeh.isol" unicode="&#x6a1;" horiz-adv-x="736" 
d="M440 76q24 -40 62.5 -52.5t85 -9.5t96.5 9v124q0 32 -6 59q-19 34 -55 49t-75 13t-67 -20q-35 -22 -52 -74t11 -98zM144 -199q-45 0 -75.5 27.5t-30.5 73.5v152h14v-152q0 -40 26 -63t66 -23h487q24 1 37.5 16.5t15.5 34.5v135q-44 -6 -93.5 -7.5t-93 14t-71.5 60.5
q-32 53 -12 109t59 81q43 29 108 21.5t98 -59.5q19 -30 19 -74v-285q0 -22 -17 -41.5t-45 -19.5h-492z" />
    <glyph glyph-name="arGaf.fina" unicode="&#x6a9;" horiz-adv-x="415" arabic-form="final" 
d="M38 15h27l9 -15h-27zM360 0h-313v15h311q28 1 38 26.5t-7 44.5l-278 284q-19 19 -25.5 52.5t23.5 49.5q37 23 90 43t106.5 35t95 23.5t56.5 8.5l-1 -15q-13 0 -53 -8.5t-92.5 -23.5t-104 -34t-87.5 -41q-19 -13 -14 -40.5t21 -45.5l274 -280q22 -23 11 -58.5t-51 -35.5z
" />
    <glyph glyph-name="arGaf.isol" unicode="&#x6a9;" horiz-adv-x="492" arabic-form="isolated" 
d="M38 15h27l9 -15h-27zM360 0h-313v15h311q28 1 38 26.5t-7 44.5l-278 284q-19 19 -25.5 52.5t23.5 49.5q37 23 90 43t106.5 35t95 23.5t56.5 8.5l-1 -15q-13 0 -53 -8.5t-92.5 -23.5t-104 -34t-87.5 -41q-19 -13 -14 -40.5t21 -45.5l274 -280q22 -23 11 -58.5t-51 -35.5z
" />
    <glyph glyph-name="arNoon.fina" unicode="&#x6ba;" horiz-adv-x="563" arabic-form="final" 
d="M416 15h142v-15h-142v15zM402 -123v266h14v-271q0 -21 -16 -40t-42 -19h-139q-76 0 -128.5 36t-52.5 103v190h14v-190q0 -56 47.5 -90t119.5 -34h135q19 1 32.5 16t15.5 33z" />
    <glyph glyph-name="arNoon.isol" unicode="&#x6ba;" horiz-adv-x="454" arabic-form="isolated" 
d="M402 -123v266h14v-271q0 -21 -16 -40t-42 -19h-139q-76 0 -128.5 36t-52.5 103v190h14v-190q0 -56 47.5 -90t119.5 -34h135q19 1 32.5 16t15.5 33z" />
    <glyph glyph-name="arHeh.init2" unicode="&#x6c1;" horiz-adv-x="278" arabic-form="initial" 
d="M266 -173q-13 -19 -42 -24t-48 12q-19 16 -23.5 39.5t0.5 45.5q4 25 13.5 50.5t22.5 49.5h-5h-184v15h179q11 0 21 4q5 9 10 17l7 -4q13 13 13 31v111h14v-116q0 -25 -17 -42q-21 -33 -29.5 -52.5t-19.5 -49.5q-20 -62 10 -82t59 11z" />
    <glyph glyph-name="arHeh.medi2" unicode="&#x6c1;" horiz-adv-x="511" arabic-form="medial" 
d="M326 -50v-240h-14v245q0 24 17.5 42t41.5 18h135v-15h-130q-18 0 -34 -16t-16 -34zM214 -135q17 -27 35.5 -46t34.5 -46t26 -79l-14 -3q-10 51 -25 76t-33.5 43t-37.5 49q-24 39 -28 72t-6.5 52t-21.5 17h-144v15h140q30 0 40 -28.5t15 -64.5t19 -57z" />
    <glyph glyph-name="arHeh.fina2" unicode="&#x6c1;" horiz-adv-x="182" arabic-form="final" 
d="M39 -48v-42h-14v46q0 25 17 42t43 17h92v-15h-88q-21 0 -35.5 -15t-14.5 -33z" />
    <glyph glyph-name="arYeh.fina2" unicode="&#x6d2;" horiz-adv-x="650" arabic-form="final" 
d="M209 -262h438v-14h-438q-77 0 -119 28t-53 68q-11 45 15 89t78 58q54 15 74 32t26 36t17 38q17 29 46.5 50t71.5 20q66 -3 98 -65q19 -35 45 -49t65 -14h68v-15h-68q-42 0 -72 16.5t-50 55.5q-29 53 -85 56q-38 2 -64 -17t-42 -45q-9 -17 -16.5 -37.5t-30.5 -40.5
t-79 -34q-48 -13 -70.5 -52t-12.5 -78q10 -34 47.5 -60t110.5 -26z" />
    <glyph glyph-name="arYeh.isol2" unicode="&#x6d2;" horiz-adv-x="875" arabic-form="isolated" 
d="M248 152q38 54 85.5 64.5t91 -3t70.5 -31.5l-7 -13q-27 17 -67.5 30t-83.5 4t-77 -59q-10 -15 -17.5 -35.5t-30 -41.5t-78.5 -35q-48 -13 -70.5 -52t-12.5 -77q9 -34 47 -59.5t111 -25.5h626v-15h-626q-77 0 -119 28.5t-53 68.5q-11 45 14.5 88t78.5 57q54 15 73.5 32.5
t25 37t19.5 37.5z" />
    <glyph glyph-name=".notdef" horiz-adv-x="500" 
d="M50 -200h400v1000h-400v-1000zM100 -150v900h300v-900h-300z" />
    <glyph glyph-name=".null" 
 />
    <glyph glyph-name="nonmarkingreturn" horiz-adv-x="333" 
 />
    <glyph glyph-name="space" unicode=" " horiz-adv-x="200" 
 />
    <glyph glyph-name="space" unicode="&#xa0;" horiz-adv-x="200" 
 />
    <glyph glyph-name="exclam" unicode="!" horiz-adv-x="248" 
d="M112 172l-4 436v62h32v-62l-4 -436h-24zM124 -12q-14 0 -25 10t-11 28q0 20 11 30t25 10t25 -10t11 -30q0 -18 -11 -28t-25 -10z" />
    <glyph glyph-name="quotedbl" unicode="&#x22;" horiz-adv-x="336" 
d="M90 494l-6 140v60h38v-60l-6 -140h-26zM218 494l-6 140v60h38v-60l-6 -140h-26z" />
    <glyph glyph-name="numbersign" unicode="#" horiz-adv-x="472" 
d="M152 246h156l22 178h-156zM94 0l26 218h-84v28h88l22 178h-90v28h92l26 198h28l-26 -198h156l26 198h28l-26 -198h82v-28h-84l-22 -178h86v-28h-90l-26 -218h-28l26 218h-156l-26 -218h-28z" />
    <glyph glyph-name="dollar" unicode="$" horiz-adv-x="472" 
d="M258 -110h-30v99q-53 3 -95.5 26.5t-70.5 50.5l18 22q27 -26 68.5 -49t95.5 -23q66 0 101 36.5t35 93.5q0 63 -29.5 98.5t-73 58t-87 44.5t-73 56.5t-29.5 96.5t40 104t100 47v99h30v-98q49 -3 80 -23t56 -47l-20 -20q-28 28 -56 45t-76 17q-54 0 -88 -35.5t-34 -86.5
q0 -56 29.5 -86.5t73 -51t87 -44t73 -63t29.5 -109.5q0 -71 -45 -113t-109 -47v-98z" />
    <glyph glyph-name="percent" unicode="%" horiz-adv-x="798" 
d="M180 258q-64 0 -101 54t-37 154q0 99 37 152.5t101 53.5t101 -53.5t37 -152.5q0 -100 -37 -154t-101 -54zM180 284q50 0 79 48t29 134t-29 133t-79 47t-79 -47t-29 -133t29 -134t79 -48zM196 -12l370 684h32l-370 -684h-32zM618 -12q-64 0 -101 54t-37 154q0 99 37 152.5
t101 53.5t101 -53.5t37 -152.5q0 -100 -37 -154t-101 -54zM618 14q50 0 79 48t29 134t-29 133t-79 47t-79 -47t-29 -133t29 -134t79 -48z" />
    <glyph glyph-name="ampersand" unicode="&#x26;" horiz-adv-x="562" 
d="M538 -12q-30 11 -64.5 32.5t-72.5 53.5q-36 -38 -79 -62t-98 -24q-75 0 -130.5 48t-55.5 130q0 64 42 110t95 86q-21 43 -33 85t-12 81q0 63 36.5 103.5t93.5 40.5q51 0 77.5 -33t26.5 -83q0 -63 -48.5 -109.5t-105.5 -89.5q35 -67 86 -130.5t103 -111.5q38 47 64.5 104
t44.5 123h30q-20 -69 -49 -132t-69 -113q68 -58 130 -81zM160 530q0 -35 10.5 -73t28.5 -77q52 39 93.5 79.5t41.5 94.5q0 33 -17 61.5t-59 28.5q-46 0 -72 -34t-26 -80zM226 16q44 0 83 21.5t71 55.5q-54 50 -105.5 114t-87.5 132q-47 -37 -82 -77.5t-35 -93.5
q0 -69 46.5 -110.5t109.5 -41.5z" />
    <glyph glyph-name="quotesingle" unicode="'" horiz-adv-x="208" 
d="M90 494l-6 140v60h38v-60l-6 -140h-26z" />
    <glyph glyph-name="parenleft" unicode="(" horiz-adv-x="270" 
d="M222 -174q-62 99 -97 209.5t-35 242.5t35 242.5t97 209.5l18 -12q-122 -192 -122 -440t122 -440z" />
    <glyph glyph-name="parenright" unicode=")" horiz-adv-x="270" 
d="M48 -174l-18 12q122 192 122 440t-122 440l18 12q62 -99 97 -209.5t35 -242.5t-35 -242.5t-97 -209.5z" />
    <glyph glyph-name="asterisk" unicode="*" horiz-adv-x="386" 
d="M130 478l-22 16l54 86l-88 34l8 24l92 -26l6 100h26l6 -98l92 24l8 -24l-88 -34l54 -86l-22 -16l-62 82z" />
    <glyph glyph-name="plus" unicode="+" horiz-adv-x="472" 
d="M220 112v204h-186v28h186v204h32v-204h186v-28h-186v-204h-32z" />
    <glyph glyph-name="comma" unicode="," horiz-adv-x="208" 
d="M60 -150l-12 24q32 18 52 49t20 72q-5 -1 -12 -1q-36 0 -36 36q0 18 11 27t25 9q44 0 44 -62q0 -51 -26.5 -90.5t-65.5 -63.5z" />
    <glyph glyph-name="hyphen" unicode="-" horiz-adv-x="294" 
d="M40 234v30h216v-30h-216z" />
    <glyph glyph-name="period" unicode="." horiz-adv-x="208" 
d="M104 -12q-14 0 -25 10t-11 28q0 20 11 30t25 10t25 -10t11 -30q0 -18 -11 -28t-25 -10z" />
    <glyph glyph-name="slash" unicode="/" horiz-adv-x="360" 
d="M8 -160l320 870h30l-320 -870h-30z" />
    <glyph glyph-name="zero" unicode="0" horiz-adv-x="472" 
d="M236 -12q-90 0 -138 87.5t-48 246.5t48 244.5t138 85.5t138 -85.5t48 -244.5t-48 -246.5t-138 -87.5zM236 16q70 0 112 79t42 227t-42 225t-112 77t-112 -77t-42 -225t42 -227t112 -79z" />
    <glyph glyph-name="one" unicode="1" horiz-adv-x="472" 
d="M86 0v28h152v552h-114v22q38 6 67.5 16t50.5 22h26v-612h142v-28h-324z" />
    <glyph glyph-name="two" unicode="2" horiz-adv-x="472" 
d="M42 0v20q162 166 241 268t79 188q0 62 -35 105t-111 43q-45 0 -84.5 -24t-69.5 -62l-22 20q34 39 77.5 66.5t100.5 27.5q84 0 130 -48t46 -128q0 -98 -82.5 -200.5t-223.5 -251.5q27 2 54 3t54 1h230v-28h-384z" />
    <glyph glyph-name="three" unicode="3" horiz-adv-x="472" 
d="M230 -12q-76 0 -123 29t-77 61l20 22q28 -32 70.5 -58t111.5 -26q68 0 112 41t44 109q0 69 -54 112.5t-176 43.5v30q114 0 160 43t46 103q0 57 -37 91.5t-99 34.5q-45 0 -84 -21t-66 -51l-20 22q32 32 73 55t97 23q70 0 119 -40t49 -112q0 -64 -36 -103.5t-88 -56.5v-4
q60 -12 104 -55.5t44 -112.5q0 -82 -54.5 -131t-135.5 -49z" />
    <glyph glyph-name="four" unicode="4" horiz-adv-x="472" 
d="M58 224h254v252q0 21 1 53t3 53h-4q-12 -20 -25 -37.5t-27 -38.5zM440 196h-98v-196h-30v196h-296v16l306 428h20v-416h98v-28z" />
    <glyph glyph-name="five" unicode="5" horiz-adv-x="472" 
d="M224 -12q-76 0 -122 28t-76 58l20 22q28 -30 69.5 -55t110.5 -25q66 0 116 50.5t50 131.5t-44.5 127.5t-119.5 46.5q-38 0 -66 -12t-56 -32l-26 16l24 296h286v-28h-258l-22 -246q26 16 54 26t66 10q81 0 137.5 -48.5t56.5 -153.5q0 -102 -62.5 -157t-137.5 -55z" />
    <glyph glyph-name="six" unicode="6" horiz-adv-x="472" 
d="M428 186q0 -86 -50.5 -142t-119.5 -56q-96 0 -150 79t-54 221q0 136 32.5 215.5t85.5 114t114 34.5q42 0 73 -16.5t55 -43.5l-20 -22q-44 54 -110 54q-80 0 -139 -73.5t-59 -257.5q34 41 76.5 66t89.5 25q84 0 130 -51t46 -147zM260 16q58 0 97 50t39 120q0 72 -34 121
t-112 49q-35 0 -78.5 -23.5t-84.5 -77.5q5 -105 46.5 -172t126.5 -67z" />
    <glyph glyph-name="seven" unicode="7" horiz-adv-x="472" 
d="M192 0q5 132 26.5 236t63 194.5t106.5 181.5h-344v28h386v-18q-77 -103 -119.5 -198t-61 -197t-23.5 -227h-34z" />
    <glyph glyph-name="eight" unicode="8" horiz-adv-x="472" 
d="M240 -12q-87 0 -143.5 50.5t-56.5 125.5q0 66 42.5 113t87.5 71v4q-34 22 -63 58.5t-29 87.5q0 68 47 111t115 43q81 0 125.5 -48t44.5 -118q0 -54 -32.5 -99t-59.5 -67v-4q40 -26 76 -62t36 -100q0 -69 -52 -117.5t-138 -48.5zM288 330q90 71 90 156q0 56 -36 97
t-102 41q-57 0 -93.5 -36t-36.5 -90q0 -48 26.5 -79t67.5 -51.5t84 -37.5zM240 16q72 0 115 40.5t43 97.5q0 52 -30 84.5t-76.5 54t-97.5 41.5q-52 -30 -87 -72t-35 -98q0 -62 47 -105t121 -43z" />
    <glyph glyph-name="nine" unicode="9" horiz-adv-x="472" 
d="M222 284q35 0 78.5 23.5t84.5 77.5q-5 105 -46.5 172t-126.5 67q-58 0 -97 -50t-39 -120q0 -72 34 -121t112 -49zM186 -12q-42 0 -73.5 16.5t-54.5 43.5l20 22q44 -54 110 -54q80 0 139 73.5t59 257.5q-34 -41 -76.5 -66t-89.5 -25q-84 0 -130 51t-46 147q0 86 50.5 142
t119.5 56q96 0 150 -79t54 -221q0 -136 -32.5 -215.5t-85.5 -114t-114 -34.5z" />
    <glyph glyph-name="colon" unicode=":" horiz-adv-x="208" 
d="M104 378q-14 0 -25 10t-11 28q0 20 11 30t25 10t25 -10t11 -30q0 -18 -11 -28t-25 -10zM104 -12q-14 0 -25 10t-11 28q0 20 11 30t25 10t25 -10t11 -30q0 -18 -11 -28t-25 -10z" />
    <glyph glyph-name="semicolon" unicode=";" horiz-adv-x="208" 
d="M60 -150l-12 24q32 18 52 49t20 72q-5 -1 -12 -1q-36 0 -36 36q0 18 11 27t25 9q44 0 44 -62q0 -51 -26.5 -90.5t-65.5 -63.5zM104 378q-14 0 -25 10t-11 28q0 20 11 30t25 10t25 -10t11 -30q0 -18 -11 -28t-25 -10z" />
    <glyph glyph-name="less" unicode="&#x3c;" horiz-adv-x="472" 
d="M438 152l-404 162v36l404 162v-32l-240 -94l-132 -52v-4l132 -52l240 -94v-32z" />
    <glyph glyph-name="equal" unicode="=" horiz-adv-x="472" 
d="M34 416v28h404v-28h-404zM34 216v28h404v-28h-404z" />
    <glyph glyph-name="greater" unicode="&#x3e;" horiz-adv-x="472" 
d="M34 152v32l240 94l132 52v4l-132 52l-240 94v32l404 -162v-36z" />
    <glyph glyph-name="question" unicode="?" horiz-adv-x="394" 
d="M164 172q-8 64 12.5 110t52 84t56.5 76.5t25 87.5q0 48 -28.5 86t-91.5 38q-81 0 -134 -66l-20 18q28 32 66.5 54t89.5 22q72 0 111 -44t39 -106q0 -52 -25.5 -93t-57 -80t-53.5 -83.5t-14 -103.5h-28zM182 -12q-14 0 -25 10t-11 28q0 20 11 30t25 10t25 -10t11 -30
q0 -18 -11 -28t-25 -10z" />
    <glyph glyph-name="at" unicode="@" horiz-adv-x="802" 
d="M382 -142q-144 0 -237 91t-93 253q0 129 54.5 224.5t143.5 148.5t192 53q142 0 225 -85.5t83 -226.5q0 -84 -28 -141.5t-69 -87t-81 -29.5q-39 0 -65 18.5t-29 57.5h-2q-27 -28 -57.5 -49t-64.5 -21q-45 0 -78.5 33t-33.5 101q0 47 21.5 98.5t62.5 87.5t100 36
q54 0 84 -48h2l8 40h26l-34 -184q-36 -142 62 -142q48 0 97 59t49 169q0 132 -76 209t-204 77q-92 0 -174 -49t-133 -138t-51 -209q0 -146 83 -232t219 -86q51 0 92.5 14t77.5 36l14 -24q-84 -54 -186 -54zM356 92q53 0 114 70l32 178q-20 30 -37 41t-41 11q-47 0 -81 -29.5
t-52.5 -74t-18.5 -88.5q0 -60 25 -84t59 -24z" />
    <glyph glyph-name="A" unicode="A" horiz-adv-x="520" 
d="M182 396l-47 -132h249l-46 132q-21 60 -39.5 114t-36.5 116h-4q-18 -62 -36.5 -116t-39.5 -114zM476 0l-82 236h-269l-83 -236h-32l236 660h28l236 -660h-34z" />
    <glyph glyph-name="B" unicode="B" horiz-adv-x="574" 
d="M100 0v660h172q99 0 156.5 -39.5t57.5 -120.5q0 -52 -26.5 -90.5t-77.5 -53.5v-4q66 -10 106 -50.5t40 -109.5q0 -94 -66 -143t-178 -49h-184zM132 366h120q108 0 155 35t47 97q0 74 -50 104t-146 30h-126v-266zM132 28h140q104 0 164 39t60 123q0 75 -59 111.5
t-165 36.5h-140v-310z" />
    <glyph glyph-name="C" unicode="C" horiz-adv-x="562" 
d="M328 -12q-122 0 -197 94t-75 250t76 248t202 92q57 0 99.5 -24t68.5 -54l-20 -22q-27 32 -64.5 51t-83.5 19q-114 0 -179 -84t-65 -226t64.5 -228t175.5 -86q52 0 93 21t79 63l20 -20q-38 -44 -84 -69t-110 -25z" />
    <glyph glyph-name="D" unicode="D" horiz-adv-x="600" 
d="M100 0v660h148q153 0 224.5 -90.5t71.5 -237.5t-71.5 -239.5t-224.5 -92.5h-148zM132 28h112q141 0 203.5 87t62.5 217t-62.5 215t-203.5 85h-112v-604z" />
    <glyph glyph-name="E" unicode="E" horiz-adv-x="510" 
d="M100 0v660h354v-28h-322v-266h270v-28h-270v-310h332v-28h-364z" />
    <glyph glyph-name="F" unicode="F" horiz-adv-x="470" 
d="M100 0v660h352v-28h-320v-278h270v-28h-270v-326h-32z" />
    <glyph glyph-name="G" unicode="G" horiz-adv-x="600" 
d="M334 -12q-126 0 -202 94t-76 250t79 248t209 92q66 0 108 -25.5t68 -52.5l-20 -22q-26 28 -63 49t-93 21q-118 0 -186 -84t-68 -226t65 -228t181 -86q48 0 90 14t68 40v218h-164v28h196v-256q-30 -33 -79 -53.5t-113 -20.5z" />
    <glyph glyph-name="H" unicode="H" horiz-adv-x="634" 
d="M100 0v660h32v-294h370v294h32v-660h-32v338h-370v-338h-32z" />
    <glyph glyph-name="I" unicode="I" horiz-adv-x="232" 
d="M100 0v660h32v-660h-32z" />
    <glyph glyph-name="J" unicode="J" horiz-adv-x="456" 
d="M200 -12q-106 0 -156 94l26 16q26 -44 57 -62t75 -18q124 0 124 160v482h32v-486q0 -78 -35.5 -132t-122.5 -54z" />
    <glyph glyph-name="K" unicode="K" horiz-adv-x="550" 
d="M100 0v660h32v-380h2l336 380h40l-212 -242l240 -418h-38l-226 394l-142 -160v-234h-32z" />
    <glyph glyph-name="L" unicode="L" horiz-adv-x="460" 
d="M100 0v660h32v-632h310v-28h-342z" />
    <glyph glyph-name="M" unicode="M" horiz-adv-x="698" 
d="M100 0v660h52l142 -400q14 -38 27 -75t27 -75h4q14 38 26 75t26 75l142 400h52v-660h-32v460q0 39 1 85.5t3 86.5h-4l-51 -146l-149 -412h-34l-150 412l-52 146h-4q2 -40 3 -86.5t1 -85.5v-460h-30z" />
    <glyph glyph-name="N" unicode="N" horiz-adv-x="632" 
d="M100 0v660h34l292 -484l76 -130h4q-2 48 -3 94t-1 92v428h30v-660h-34l-292 484l-76 130h-4q2 -46 3 -90t1 -90v-434h-30z" />
    <glyph glyph-name="O" unicode="O" horiz-adv-x="648" 
d="M324 -12q-117 0 -192.5 94t-75.5 250t75.5 248t192.5 92t192.5 -92t75.5 -248t-75.5 -250t-192.5 -94zM324 18q105 0 169.5 86t64.5 228t-64.5 226t-169.5 84t-169.5 -84t-64.5 -226t64.5 -228t169.5 -86z" />
    <glyph glyph-name="P" unicode="P" horiz-adv-x="542" 
d="M100 0v660h158q112 0 174 -40.5t62 -139.5q0 -94 -60.5 -141t-171.5 -47h-130v-292h-32zM132 320h118q106 0 158 37t52 123q0 87 -53 119.5t-161 32.5h-114v-312z" />
    <glyph glyph-name="Q" unicode="Q" horiz-adv-x="648" 
d="M514 -152q-80 0 -133.5 40t-76.5 101q-109 8 -178.5 101t-69.5 242q0 156 75.5 248t192.5 92t192.5 -92t75.5 -248q0 -150 -70.5 -243t-180.5 -100q47 -109 175 -109q22 0 38 2.5t28 5.5l8 -30q-12 -3 -33 -6.5t-43 -3.5zM324 16q105 0 169.5 87t64.5 229t-64.5 226
t-169.5 84t-169.5 -84t-64.5 -226t64.5 -229t169.5 -87z" />
    <glyph glyph-name="R" unicode="R" horiz-adv-x="534" 
d="M132 340h138q92 0 141 37t49 113q0 78 -49 110t-141 32h-138v-292zM132 0h-32v660h182q98 0 155 -39t57 -131q0 -79 -47.5 -124t-130.5 -52l188 -314h-38l-186 312h-148v-312z" />
    <glyph glyph-name="S" unicode="S" horiz-adv-x="516" 
d="M268 -12q-74 0 -128 28t-92 72l22 22q36 -42 87 -67t111 -25q80 0 127 39.5t47 102.5q0 66 -36 95t-86 51l-102 46q-28 12 -59 31.5t-53 50.5t-22 80q0 70 53 114t133 44q60 0 106 -23.5t74 -54.5l-20 -22q-28 32 -68.5 51t-91.5 19q-69 0 -111.5 -34.5t-42.5 -91.5
q0 -62 40.5 -90t75.5 -44l102 -46q55 -25 97.5 -61.5t42.5 -112.5q0 -75 -56.5 -124.5t-149.5 -49.5z" />
    <glyph glyph-name="T" unicode="T" horiz-adv-x="520" 
d="M244 0v632h-214v28h460v-28h-214v-632h-32z" />
    <glyph glyph-name="U" unicode="U" horiz-adv-x="630" 
d="M314 -12q-53 0 -102.5 22t-81.5 78t-32 158v414h32v-406q0 -91 26 -142.5t68 -72.5t90 -21q49 0 92 21t69.5 72.5t26.5 142.5v406h30v-414q0 -102 -32.5 -158t-82.5 -78t-103 -22z" />
    <glyph glyph-name="V" unicode="V" horiz-adv-x="482" 
d="M226 0l-220 660h34l128 -396q20 -62 35.5 -112t36.5 -111h4q21 61 36.5 111t35.5 112l128 396h32l-218 -660h-32z" />
    <glyph glyph-name="W" unicode="W" horiz-adv-x="764" 
d="M184 0l-154 660h34l88 -400l24 -108l24 -108h4q12 54 25 108t27 108l108 400h36l108 -400q14 -54 27 -108t27 -108h4q12 54 23 108t23 108l88 400h32l-152 -660h-32l-128 474q-9 39 -18 74t-18 74h-4q-9 -39 -19 -74t-19 -74l-126 -474h-32z" />
    <glyph glyph-name="X" unicode="X" horiz-adv-x="470" 
d="M18 0l200 342l-186 318h34l116 -204q14 -22 26 -41.5t28 -46.5h4q15 27 25.5 46.5t24.5 41.5l116 204h32l-186 -320l200 -340h-34l-122 212q-14 24 -29 49l-33 55h-4q-16 -30 -30 -55t-28 -49l-122 -212h-32z" />
    <glyph glyph-name="Y" unicode="Y" horiz-adv-x="436" 
d="M202 0v272l-198 388h34l106 -214q18 -36 35 -71t37 -71h4q20 36 39 71t35 71l106 214h32l-198 -388v-272h-32z" />
    <glyph glyph-name="Z" unicode="Z" horiz-adv-x="538" 
d="M52 0v18l392 614h-358v28h398v-18l-392 -614h396v-28h-436z" />
    <glyph glyph-name="bracketleft" unicode="[" horiz-adv-x="270" 
d="M100 -152v860h152v-22h-128v-816h128v-22h-152z" />
    <glyph glyph-name="backslash" unicode="\" horiz-adv-x="360" 
d="M322 -160l-320 870h30l320 -870h-30z" />
    <glyph glyph-name="bracketright" unicode="]" horiz-adv-x="270" 
d="M18 -152v22h128v816h-128v22h152v-860h-152z" />
    <glyph glyph-name="asciicircum" unicode="^" horiz-adv-x="472" 
d="M68 292l150 378h36l150 -378h-32l-82 214l-52 132h-4l-52 -132l-82 -214h-32z" />
    <glyph glyph-name="underscore" unicode="_" horiz-adv-x="500" 
d="M12 -114v32h476v-32h-476z" />
    <glyph glyph-name="grave" unicode="`" horiz-adv-x="532" 
d="M300 574l-138 150l24 20l132 -154z" />
    <glyph glyph-name="a" unicode="a" horiz-adv-x="486" 
d="M200 16q44 0 85 21t89 61v174q-158 -18 -220 -55t-62 -99q0 -56 32 -79t76 -23zM198 -12q-56 0 -97 30.5t-41 98.5q0 80 76 121.5t238 59.5q1 39 -7.5 76.5t-34.5 62.5t-76 25q-51 0 -92.5 -20t-63.5 -38l-16 24q22 16 69 39t105 23q84 0 115 -54t31 -126v-310h-26l-4 64
h-2q-38 -30 -82 -53t-92 -23z" />
    <glyph glyph-name="b" unicode="b" horiz-adv-x="538" 
d="M274 -12q-34 0 -73 16.5t-73 43.5h-2l-4 -48h-26v722h30v-214l-2 -96q38 32 81.5 55t88.5 23q98 0 145 -66.5t47 -177.5q0 -122 -63 -190t-149 -68zM276 16q78 0 128 65t50 165q0 92 -37 154t-125 62q-73 0 -166 -84v-296q42 -36 82 -51t68 -15z" />
    <glyph glyph-name="c" unicode="c" horiz-adv-x="446" 
d="M268 -12q-92 0 -153 66t-61 184q0 120 64 186t150 66q50 0 83 -19t57 -41l-20 -22q-24 22 -53 38t-67 16q-76 0 -129 -62.5t-53 -161.5t50 -160.5t132 -61.5q40 0 74 17t60 41l18 -22q-30 -27 -68 -45.5t-84 -18.5z" />
    <glyph glyph-name="d" unicode="d" horiz-adv-x="540" 
d="M254 16q42 0 81 22t79 62v296q-40 36 -75 51t-73 15q-76 0 -128 -65.5t-52 -158.5q0 -99 43.5 -160.5t124.5 -61.5zM252 -12q-90 0 -144 64t-54 186q0 116 63.5 184t150.5 68q44 0 77 -16t71 -44l-2 90v202h30v-722h-26l-4 64h-2q-30 -30 -70 -53t-90 -23z" />
    <glyph glyph-name="e" unicode="e" horiz-adv-x="478" 
d="M272 -12q-90 0 -154 66.5t-64 183.5t63 184.5t143 67.5q82 0 131 -57t49 -163v-15.5t-2 -16.5h-352q0 -96 51 -159t137 -63q40 0 72.5 12t59.5 32l14 -26q-27 -16 -60.5 -31t-87.5 -15zM86 266h324q0 99 -41 147.5t-109 48.5q-64 0 -115 -52t-59 -144z" />
    <glyph glyph-name="f" unicode="f" horiz-adv-x="252" 
d="M244 450h-114v-450h-30v450h-66v24l66 4v118q0 70 29.5 104t80.5 34q31 0 66 -16l-10 -26q-28 14 -58 14q-78 0 -78 -114v-114h114v-28z" />
    <glyph glyph-name="g" unicode="g" horiz-adv-x="480" 
d="M240 180q52 0 92 39.5t40 102.5q0 64 -39 102t-93 38t-93 -38t-39 -102q0 -63 40 -102.5t92 -39.5zM250 -234q-92 0 -144 37t-52 97q0 32 19.5 63t52.5 55v4q-18 10 -30 29.5t-12 46.5q0 33 18.5 55.5t33.5 32.5v4q-22 20 -41 54t-19 78q0 72 47.5 120t116.5 48
q20 0 36 -4t26 -8h160v-28h-116q26 -21 42 -54.5t16 -73.5q0 -72 -47.5 -121t-116.5 -49q-47 0 -82 22q-16 -14 -29 -31t-13 -43q0 -27 19 -46.5t75 -19.5h106q154 0 154 -108q0 -60 -60 -110t-160 -50zM252 -206q86 0 136 41t50 89q0 78 -116 78h-110q-4 0 -21 2t-37 6
q-36 -24 -52 -52.5t-16 -55.5q0 -48 43 -78t123 -30z" />
    <glyph glyph-name="h" unicode="h" horiz-adv-x="522" 
d="M126 366v-366h-30v722h30v-322q39 39 78.5 64.5t89.5 25.5q144 0 144 -182v-308h-30v304q0 80 -27 119t-89 39q-45 0 -82.5 -24t-83.5 -72z" />
    <glyph glyph-name="i" unicode="i" horiz-adv-x="222" 
d="M112 600q-14 0 -24 9.5t-10 24.5q0 16 10 25t24 9t24 -9t10 -25q0 -15 -10 -24.5t-24 -9.5zM96 0v478h30v-478h-30z" />
    <glyph glyph-name="j" unicode="j" horiz-adv-x="222" 
d="M112 600q-14 0 -24 9.5t-10 24.5q0 16 10 25t24 9t24 -9t10 -25q0 -15 -10 -24.5t-24 -9.5zM28 -234q-15 0 -31.5 4t-26.5 8l8 26q9 -3 23 -6.5t29 -3.5q42 0 54 31t12 77v576h30v-580q0 -132 -98 -132z" />
    <glyph glyph-name="k" unicode="k" horiz-adv-x="452" 
d="M96 0v722h30v-548h2l248 304h36l-154 -188l182 -290h-34l-166 266l-114 -134v-132h-30z" />
    <glyph glyph-name="l" unicode="l" horiz-adv-x="230" 
d="M144 -12q-48 0 -48 64v670h30v-676q0 -30 20 -30q8 0 18 2l6 -26q-6 -2 -11.5 -3t-14.5 -1z" />
    <glyph glyph-name="m" unicode="m" horiz-adv-x="806" 
d="M96 0v478h26l4 -76h2q33 38 73 63t79 25q58 0 89 -27.5t43 -72.5q42 46 83 73t81 27q142 0 142 -182v-308h-30v304q0 158 -114 158q-68 0 -152 -96v-366h-30v304q0 158 -114 158q-68 0 -152 -96v-366h-30z" />
    <glyph glyph-name="n" unicode="n" horiz-adv-x="526" 
d="M96 0v478h26l4 -76h2q38 38 77 63t89 25q144 0 144 -182v-308h-30v304q0 80 -27 119t-89 39q-45 0 -82.5 -24t-83.5 -72v-366h-30z" />
    <glyph glyph-name="o" unicode="o" horiz-adv-x="532" 
d="M266 -12q-86 0 -149 66t-63 184q0 120 63 186t149 66t149 -66t63 -186q0 -118 -63 -184t-149 -66zM266 16q76 0 128 61.5t52 160.5t-52 161.5t-128 62.5t-128 -62.5t-52 -161.5t52 -160.5t128 -61.5z" />
    <glyph glyph-name="p" unicode="p" horiz-adv-x="540" 
d="M276 16q78 0 128 65t50 165q0 92 -37 154t-125 62q-38 0 -79 -22t-87 -62v-296q44 -36 83 -51t67 -15zM126 48v-270h-30v700h26l4 -62h2q36 28 78.5 51t87.5 23q98 0 145 -66.5t47 -177.5q0 -122 -63 -190t-149 -68q-66 0 -148 60z" />
    <glyph glyph-name="q" unicode="q" horiz-adv-x="540" 
d="M414 -222v190l2 98q-33 -32 -73.5 -55t-90.5 -23q-90 0 -144 64t-54 186q0 116 63.5 184t150.5 68q44 0 77 -15t67 -41h2l4 44h26v-700h-30zM254 16q42 0 81 22t79 62v296q-40 36 -75 51t-73 15q-76 0 -128 -65.5t-52 -158.5q0 -99 43.5 -160.5t124.5 -61.5z" />
    <glyph glyph-name="r" unicode="r" horiz-adv-x="306" 
d="M96 0v478h26l4 -90h2q24 44 58 73t78 29q26 0 46 -10l-8 -28q-21 8 -42 8q-33 0 -69.5 -29t-64.5 -99v-332h-30z" />
    <glyph glyph-name="s" unicode="s" horiz-adv-x="400" 
d="M208 -12q-54 0 -98 19.5t-76 46.5l20 24q30 -26 66 -44t90 -18q60 0 91 31t31 71q0 48 -39 72.5t-81 39.5q-56 20 -106 47t-50 89q0 50 38 87t112 37q36 0 71 -13.5t61 -34.5l-18 -24q-24 18 -51 31t-65 13q-60 0 -88 -29.5t-28 -64.5q0 -44 36 -65t80 -37q38 -14 75 -30
t61 -42.5t24 -73.5q0 -52 -40.5 -92t-115.5 -40z" />
    <glyph glyph-name="t" unicode="t" horiz-adv-x="302" 
d="M218 -12q-66 0 -89 38t-23 100v324h-76v24l76 4l4 140h26v-140h142v-28h-142v-328q0 -46 16 -76t68 -30q14 0 31 5t31 11l10 -26q-21 -8 -41.5 -13t-32.5 -5z" />
    <glyph glyph-name="u" unicode="u" horiz-adv-x="524" 
d="M232 -12q-144 0 -144 182v308h30v-304q0 -80 27 -119t89 -39q45 0 82 25t82 79v358h30v-478h-26l-4 82h-2q-36 -42 -75 -68t-89 -26z" />
    <glyph glyph-name="v" unicode="v" horiz-adv-x="422" 
d="M194 0l-182 478h34l114 -310q12 -34 25 -69t25 -67h4q12 32 25 67t25 69l114 310h32l-180 -478h-36z" />
    <glyph glyph-name="w" unicode="w" horiz-adv-x="672" 
d="M168 0l-144 478h34l92 -322q9 -33 17.5 -63.5t16.5 -62.5h4q9 32 18 62.5t18 63.5l92 322h42l92 -322q9 -33 18 -63.5t18 -62.5h4q9 32 18 62.5t18 63.5l90 322h32l-140 -478h-42l-90 312q-10 34 -19 68t-19 68h-4q-9 -34 -18.5 -69t-21.5 -69l-88 -310h-38z" />
    <glyph glyph-name="x" unicode="x" horiz-adv-x="392" 
d="M14 0l164 250l-150 228h34l82 -128q12 -20 25 -39t27 -39h4q14 20 26 39t26 39l80 128h32l-150 -230l164 -248h-34l-90 138q-26 42 -58 88h-4q-15 -21 -29 -43.5t-29 -44.5l-88 -138h-32z" />
    <glyph glyph-name="y" unicode="y" horiz-adv-x="424" 
d="M66 -222q-26 0 -46 10l8 28q20 -8 40 -8q45 0 76.5 39t51.5 97l14 44l-198 490h34l122 -314q12 -30 26 -66t28 -68h4q12 32 24 68l22 66l108 314h32l-192 -546q-18 -56 -55 -105t-99 -49z" />
    <glyph glyph-name="z" unicode="z" horiz-adv-x="396" 
d="M26 0v16l294 434h-262v28h302v-16l-294 -434h304v-28h-344z" />
    <glyph glyph-name="braceleft" unicode="{" horiz-adv-x="270" 
d="M222 -152q-54 0 -81 25.5t-27 100.5q0 56 4 107t4 103q0 32 -17 57t-69 25v24q52 0 69 25t17 55q0 54 -4 105t-4 107q0 75 27 100.5t81 25.5h30v-22h-32q-48 0 -64 -27t-16 -81q0 -50 3 -95t3 -101q0 -42 -10 -67.5t-38 -34.5v-4q28 -9 38 -35.5t10 -66.5q0 -56 -3 -101
t-3 -95q0 -54 16 -81t64 -27h32v-22h-30z" />
    <glyph glyph-name="bar" unicode="|" horiz-adv-x="220" 
d="M96 -250v1000h28v-1000h-28z" />
    <glyph glyph-name="braceright" unicode="}" horiz-adv-x="270" 
d="M18 -152v22h32q48 0 64 27t16 81q0 50 -3 95t-3 101q0 40 10 66.5t38 35.5v4q-28 9 -38 34.5t-10 67.5q0 56 3 101t3 95q0 54 -16 81t-64 27h-32v22h30q54 0 81 -25.5t27 -100.5q0 -56 -4 -107t-4 -105q0 -30 17 -55t69 -25v-24q-52 0 -69 -25t-17 -57q0 -52 4 -103
t4 -107q0 -75 -27 -100.5t-81 -25.5h-30z" />
    <glyph glyph-name="asciitilde" unicode="~" horiz-adv-x="472" 
d="M326 270q-38 0 -68 23t-57.5 46t-56.5 23q-22 0 -42 -14t-38 -50l-22 12q20 40 48 60t56 20q38 0 68 -23t57.5 -46t56.5 -23q22 0 42 14t38 50l22 -14q-20 -39 -48 -58.5t-56 -19.5z" />
    <glyph glyph-name="exclamdown" unicode="&#xa1;" horiz-adv-x="248" 
d="M124 412q-14 0 -25 10t-11 30q0 18 11 28t25 10t25 -10t11 -28q0 -20 -11 -30t-25 -10zM108 -192v62l4 436h24l4 -436v-62h-32z" />
    <glyph glyph-name="cent" unicode="&#xa2;" horiz-adv-x="472" 
d="M428 148q-30 -27 -67 -45.5t-81 -18.5v-110h-28v111q-82 8 -136 66.5t-54 160.5q0 103 56 161t134 66v113h28v-112q48 -1 80 -19.5t56 -40.5l-18 -20q-24 22 -54 37t-64 15v-400q39 1 72 17t58 39zM94 312q0 -83 43 -137t115 -62v397q-68 -8 -113 -61.5t-45 -136.5z" />
    <glyph glyph-name="sterling" unicode="&#xa3;" horiz-adv-x="472" 
d="M418 28v-28h-360v18q57 33 81.5 87.5t24.5 112.5q0 20 -3 39.5t-7 38.5h-100v26l66 2h26q-11 40 -22.5 80t-11.5 82q0 76 44 121t120 45q51 0 85 -21.5t55 -48.5l-22 -20q-21 26 -49.5 44t-70.5 18q-64 0 -97 -40t-33 -96q0 -43 12 -82.5t23 -81.5h167v-28h-161
q4 -18 6.5 -37.5t2.5 -40.5q0 -66 -20 -109t-56 -77v-4h300z" />
    <glyph glyph-name="currency" unicode="&#xa4;" horiz-adv-x="472" 
d="M52 118l-20 22l66 68q-38 51 -38 120q0 72 38 123l-66 69l20 22l66 -69q49 47 118 47q68 0 118 -47l66 69l20 -22l-67 -69q39 -52 39 -123q0 -35 -10.5 -65.5t-27.5 -54.5l66 -68l-20 -22l-66 68q-48 -48 -118 -48q-69 0 -119 48zM236 166q58 0 101 45t43 117t-43 118
t-101 46t-101 -46t-43 -118t43 -117t101 -45z" />
    <glyph glyph-name="yen" unicode="&#xa5;" horiz-adv-x="472" 
d="M220 0v168h-168v28h168v74h-168v28h156l-176 342h34l100 -202q16 -33 33 -66.5t35 -71.5h4q20 38 36 71.5t34 66.5l100 202h32l-178 -342h158v-28h-170v-74h170v-28h-170v-168h-30z" />
    <glyph glyph-name="brokenbar" unicode="&#xa6;" horiz-adv-x="220" 
d="M96 274v476h28v-476h-28zM96 -250v472h28v-472h-28z" />
    <glyph glyph-name="section" unicode="&#xa7;" horiz-adv-x="472" 
d="M82 358q0 -56 39 -84.5t92.5 -48.5t94.5 -49q39 18 60.5 40.5t21.5 65.5q0 58 -39 87.5t-92 50t-94 48.5q-36 -20 -59.5 -44.5t-23.5 -65.5zM232 -48q-51 0 -89.5 17t-66.5 43l22 22q26 -24 56 -39t78 -15t77 27t29 63q0 43 -29 68t-71.5 42.5t-85 37.5t-71.5 51.5
t-29 86.5q0 49 26.5 79.5t63.5 51.5q-16 15 -25 35t-9 46q0 39 31 75.5t99 36.5q39 0 73 -15t61 -37l-18 -22q-24 20 -50.5 33t-65.5 13q-54 0 -77 -26t-23 -56q0 -42 28.5 -66t70.5 -41.5t84 -37.5t70.5 -52.5t28.5 -88.5q0 -51 -25 -79t-62 -48q16 -16 25.5 -36.5
t9.5 -48.5q0 -52 -42 -86t-94 -34z" />
    <glyph glyph-name="dieresis" unicode="&#xa8;" horiz-adv-x="532" 
d="M352 602q-32 0 -32 32t32 32t32 -32t-32 -32zM180 602q-32 0 -32 32t32 32t32 -32t-32 -32z" />
    <glyph glyph-name="copyright" unicode="&#xa9;" horiz-adv-x="740" 
d="M370 -12q-86 0 -158.5 41.5t-116 116.5t-43.5 176q0 100 43.5 174t116 115t158.5 41t158.5 -41t116 -115t43.5 -174q0 -101 -43.5 -176t-116 -116.5t-158.5 -41.5zM370 14q77 0 142.5 38.5t105.5 108t40 161.5q0 91 -40 159.5t-105.5 106.5t-142.5 38t-142.5 -38
t-105.5 -106.5t-40 -159.5q0 -92 40 -161.5t105.5 -108t142.5 -38.5zM374 124q-69 0 -120.5 52t-51.5 146q0 87 54 136.5t124 49.5q39 0 66.5 -15t51.5 -39l-18 -22q-24 22 -47 34t-55 12q-62 0 -102 -43t-40 -113q0 -78 38.5 -123t101.5 -45q38 0 67 15t53 37l16 -22
q-27 -25 -57.5 -42.5t-80.5 -17.5z" />
    <glyph glyph-name="ordfeminine" unicode="&#xaa;" horiz-adv-x="334" 
d="M146 428q51 0 106 52v108q-99 -10 -138.5 -34t-39.5 -60q0 -66 72 -66zM140 402q-42 0 -69 23t-27 67q0 52 50 80t158 38q0 40 -14 69t-58 29q-32 0 -63 -13t-47 -25l-12 22q18 12 51.5 27t72.5 15q57 0 77.5 -34t20.5 -88v-202h-22l-6 40h-4q-21 -18 -48 -33t-60 -15z
" />
    <glyph glyph-name="guillemotleft" unicode="&#xab;" horiz-adv-x="388" 
d="M180 74l-138 164v28l138 164l20 -18l-124 -160l124 -162zM314 74l-138 164v28l138 164l20 -18l-124 -160l124 -162z" />
    <glyph glyph-name="logicalnot" unicode="&#xac;" horiz-adv-x="472" 
d="M406 112v204h-372v28h404v-232h-32z" />
    <glyph glyph-name="uni00AD" unicode="&#xad;" horiz-adv-x="294" 
d="M40 234v30h216v-30h-216z" />
    <glyph glyph-name="registered" unicode="&#xae;" horiz-adv-x="392" 
d="M196 326q-74 0 -127 52.5t-53 139.5t53 140.5t127 53.5t127 -53.5t53 -140.5t-53 -139.5t-127 -52.5zM196 352q63 0 107.5 47t44.5 119t-44.5 120t-107.5 48t-107.5 -48t-44.5 -120t44.5 -119t107.5 -47zM158 522h30q54 0 54 38q0 18 -11 29t-39 11h-34v-78zM130 418v208
h66q28 0 52 -13t24 -51q0 -20 -12 -36t-28 -20l50 -88h-34l-40 78h-50v-78h-28z" />
    <glyph glyph-name="macron" unicode="&#xaf;" horiz-adv-x="532" 
d="M146 608v28h240v-28h-240z" />
    <glyph glyph-name="degree" unicode="&#xb0;" horiz-adv-x="304" 
d="M152 454q-42 0 -76 30t-34 84q0 56 34 86t76 30t76 -30t34 -86q0 -54 -34 -84t-76 -30zM152 480q36 0 59 25t23 63q0 39 -23 64.5t-59 25.5t-59 -25.5t-23 -64.5q0 -38 23 -63t59 -25z" />
    <glyph glyph-name="plusminus" unicode="&#xb1;" horiz-adv-x="472" 
d="M220 102v210h-186v28h186v208h32v-208h186v-28h-186v-210h-32zM34 0v28h404v-28h-404z" />
    <glyph glyph-name="two.sups" unicode="&#xb2;" horiz-adv-x="360" 
d="M58 410v20q104 98 150 152.5t46 105.5q0 45 -25 71.5t-65 26.5q-28 0 -53 -19t-41 -45l-20 18q16 28 48 50t68 22q52 0 85 -30t33 -92q0 -63 -49 -119.5t-129 -134.5h202v-26h-250z" />
    <glyph glyph-name="three.sups" unicode="&#xb3;" horiz-adv-x="360" 
d="M176 398q-45 0 -79.5 23t-54.5 51l24 18q18 -28 48 -47t64 -19q39 0 67.5 23t28.5 65q0 40 -39 62t-105 22v24q62 0 95 27t33 61t-24 56t-64 22q-24 0 -48 -15t-44 -39l-20 18q20 26 49 44t65 18q48 0 82 -27t34 -75q0 -38 -22.5 -63t-55.5 -37q36 -6 65 -31t29 -67
q0 -54 -37 -84t-91 -30z" />
    <glyph glyph-name="acute" unicode="&#xb4;" horiz-adv-x="532" 
d="M232 574l-18 16l132 154l24 -20z" />
    <glyph glyph-name="uni00B5" unicode="&#xb5;" horiz-adv-x="536" 
d="M96 -180v658h30v-304q0 -74 26 -116t86 -42q39 0 78.5 19.5t85.5 98.5v344h30q-1 -108 -1.5 -213t-0.5 -213q0 -36 28 -36q10 0 28 6l6 -26q-7 -3 -16 -5.5t-20 -2.5q-33 0 -44.5 24t-9.5 80h-2q-64 -104 -158 -104q-39 0 -69 13t-51 53v-93.5t1 -68t3 -72.5h-30z" />
    <glyph glyph-name="paragraph" unicode="&#xb6;" horiz-adv-x="498" 
d="M290 250q-111 0 -179.5 46.5t-68.5 157.5t64 158.5t166 47.5h44v-410h-26zM370 -80v740h32v-740h-32z" />
    <glyph glyph-name="periodcentered" unicode="&#xb7;" horiz-adv-x="208" 
d="M104 284q-14 0 -25 10t-11 28q0 20 11 30t25 10t25 -10t11 -30q0 -18 -11 -28t-25 -10z" />
    <glyph glyph-name="cedilla" unicode="&#xb8;" horiz-adv-x="532" 
d="M202 -216l-6 26q66 4 90 18t24 36q0 40 -78 52l40 86h28l-30 -68q32 -8 51 -23t19 -45q0 -73 -138 -82z" />
    <glyph glyph-name="one.sups" unicode="&#xb9;" horiz-adv-x="360" 
d="M178 410v330h-82v22q52 11 84 38h26v-390h-28z" />
    <glyph glyph-name="ordmasculine" unicode="&#xba;" horiz-adv-x="358" 
d="M178 402q-60 0 -102 44t-42 122q0 80 42 123t102 43t102 -43t42 -123q0 -78 -42 -122t-102 -44zM178 428q51 0 82.5 39t31.5 101q0 63 -31.5 101.5t-82.5 38.5t-82.5 -38.5t-31.5 -101.5q0 -62 31.5 -101t82.5 -39z" />
    <glyph glyph-name="guillemotright" unicode="&#xbb;" horiz-adv-x="388" 
d="M74 74l-20 16l124 162l-124 160l20 18l138 -164v-28zM208 74l-20 16l124 162l-124 160l20 18l138 -164v-28z" />
    <glyph glyph-name="onequarter" unicode="&#xbc;" horiz-adv-x="758" 
d="M158 270v330h-82v22q52 11 84 38h26v-390h-28zM176 -12l370 684h32l-370 -684h-32zM486 144h136v94l4 102h-4l-58 -84zM708 118h-58v-118h-28v118h-176v16l182 256h22v-246h58v-26z" />
    <glyph glyph-name="onehalf" unicode="&#xbd;" horiz-adv-x="778" 
d="M158 270v330h-82v22q52 11 84 38h26v-390h-28zM152 -12l370 684h32l-370 -684h-32zM476 0v20q104 98 150 152.5t46 105.5q0 45 -25 71.5t-65 26.5q-28 0 -53 -19t-41 -45l-20 18q16 28 48 50t68 22q52 0 85 -30t33 -92q0 -63 -49 -119.5t-129 -134.5h202v-26h-250z" />
    <glyph glyph-name="threequarters" unicode="&#xbe;" horiz-adv-x="778" 
d="M176 258q-45 0 -79.5 23t-54.5 51l24 18q18 -28 48 -47t64 -19q39 0 67.5 23t28.5 65q0 40 -39 62t-105 22v24q62 0 95 27t33 61t-24 56t-64 22q-24 0 -48 -15t-44 -39l-20 18q20 26 49 44t65 18q48 0 82 -27t34 -75q0 -38 -22.5 -63t-55.5 -37q36 -6 65 -31t29 -67
q0 -54 -37 -84t-91 -30zM226 -12l370 684h32l-370 -684h-32zM506 144h136v94l4 102h-4l-58 -84zM728 118h-58v-118h-28v118h-176v16l182 256h22v-246h58v-26z" />
    <glyph glyph-name="questiondown" unicode="&#xbf;" horiz-adv-x="394" 
d="M212 412q-14 0 -25 10t-11 30q0 18 11 28t25 10t25 -10t11 -28q0 -20 -11 -30t-25 -10zM202 -204q-72 0 -111 44t-39 106q0 52 25.5 93t57 80t53.5 83.5t14 103.5h28q8 -64 -12.5 -110t-52 -84t-56.5 -76.5t-25 -87.5q0 -48 28.5 -86t91.5 -38q81 0 134 66l20 -18
q-28 -32 -66.5 -54t-89.5 -22z" />
    <glyph glyph-name="Agrave" unicode="&#xc0;" horiz-adv-x="520" 
d="M182 396l-47 -132h249l-46 132q-21 60 -39.5 114t-36.5 116h-4q-18 -62 -36.5 -116t-39.5 -114zM476 0l-82 236h-269l-83 -236h-32l236 660h28l236 -660h-34zM282 710l-126 112l22 24l118 -120z" />
    <glyph glyph-name="Aacute" unicode="&#xc1;" horiz-adv-x="520" 
d="M182 396l-47 -132h249l-46 132q-21 60 -39.5 114t-36.5 116h-4q-18 -62 -36.5 -116t-39.5 -114zM476 0l-82 236h-269l-83 -236h-32l236 660h28l236 -660h-34zM238 710l-14 16l118 120l22 -24z" />
    <glyph glyph-name="Acircumflex" unicode="&#xc2;" horiz-adv-x="520" 
d="M182 396l-47 -132h249l-46 132q-21 60 -39.5 114t-36.5 116h-4q-18 -62 -36.5 -116t-39.5 -114zM476 0l-82 236h-269l-83 -236h-32l236 660h28l236 -660h-34zM130 726l116 114h28l116 -114l-14 -16l-114 100h-4l-114 -100z" />
    <glyph glyph-name="Atilde" unicode="&#xc3;" horiz-adv-x="520" 
d="M182 396l-47 -132h249l-46 132q-21 60 -39.5 114t-36.5 116h-4q-18 -62 -36.5 -116t-39.5 -114zM476 0l-82 236h-269l-83 -236h-32l236 660h28l236 -660h-34zM338 722q-39 0 -62.5 20.5t-44 41t-49.5 20.5q-23 0 -39 -22t-19 -58l-24 2q2 43 22.5 74.5t59.5 31.5
t62.5 -20.5t44 -41t49.5 -20.5q23 0 38.5 22t19.5 58l24 -2q-2 -43 -22.5 -74.5t-59.5 -31.5z" />
    <glyph glyph-name="Adieresis" unicode="&#xc4;" horiz-adv-x="520" 
d="M182 396l-47 -132h249l-46 132q-21 60 -39.5 114t-36.5 116h-4q-18 -62 -36.5 -116t-39.5 -114zM476 0l-82 236h-269l-83 -236h-32l236 660h28l236 -660h-34zM356 728q-32 0 -32 32t32 32t32 -32t-32 -32zM164 728q-32 0 -32 32t32 32t32 -32t-32 -32z" />
    <glyph glyph-name="Aring" unicode="&#xc5;" horiz-adv-x="520" 
d="M260 700q-35 0 -59.5 23t-24.5 61t24.5 61t59.5 23q34 0 59 -23t25 -61t-25 -61t-59 -23zM260 722q23 0 40.5 15.5t17.5 46.5q0 29 -17.5 45.5t-40.5 16.5q-25 0 -42.5 -16.5t-17.5 -45.5q0 -31 17.5 -46.5t42.5 -15.5zM182 396l-47 -132h249l-46 132q-21 60 -39.5 114
t-36.5 116h-4q-18 -62 -36.5 -116t-39.5 -114zM476 0l-82 236h-269l-83 -236h-32l236 660h28l236 -660h-34z" />
    <glyph glyph-name="AE" unicode="&#xc6;" horiz-adv-x="804" 
d="M280 392l-77 -138h211v376h-4q-32 -57 -64.5 -116.5t-65.5 -121.5zM414 0v226h-227l-127 -226h-34l372 660h350v-28h-302v-266h250v-28h-250v-310h312v-28h-344z" />
    <glyph glyph-name="Ccedilla" unicode="&#xc7;" horiz-adv-x="562" 
d="M402 -134q0 -73 -138 -82l-6 26q66 4 90 18t24 36q0 40 -78 52l33 72q-121 0 -196 94t-75 250t76 248t202 92q57 0 99.5 -24t68.5 -54l-20 -22q-27 32 -64.5 51t-83.5 19q-114 0 -179 -84t-65 -226t64.5 -228t175.5 -86q52 0 93 21t79 63l20 -20q-33 -39 -73 -63t-93 -30
l-24 -55q32 -8 51 -23t19 -45z" />
    <glyph glyph-name="Egrave" unicode="&#xc8;" horiz-adv-x="510" 
d="M100 0v660h354v-28h-322v-266h270v-28h-270v-310h332v-28h-364zM303 710l-126 112l22 24l118 -120z" />
    <glyph glyph-name="Eacute" unicode="&#xc9;" horiz-adv-x="510" 
d="M100 0v660h354v-28h-322v-266h270v-28h-270v-310h332v-28h-364zM259 710l-14 16l118 120l22 -24z" />
    <glyph glyph-name="Ecircumflex" unicode="&#xca;" horiz-adv-x="510" 
d="M100 0v660h354v-28h-322v-266h270v-28h-270v-310h332v-28h-364zM151 726l116 114h28l116 -114l-14 -16l-114 100h-4l-114 -100z" />
    <glyph glyph-name="Edieresis" unicode="&#xcb;" horiz-adv-x="510" 
d="M100 0v660h354v-28h-322v-266h270v-28h-270v-310h332v-28h-364zM377 728q-32 0 -32 32t32 32t32 -32t-32 -32zM185 728q-32 0 -32 32t32 32t32 -32t-32 -32z" />
    <glyph glyph-name="Igrave" unicode="&#xcc;" horiz-adv-x="232" 
d="M100 0v660h32v-660h-32zM138 710l-126 112l22 24l118 -120z" />
    <glyph glyph-name="Iacute" unicode="&#xcd;" horiz-adv-x="232" 
d="M100 0v660h32v-660h-32zM94 710l-14 16l118 120l22 -24z" />
    <glyph glyph-name="Icircumflex" unicode="&#xce;" horiz-adv-x="232" 
d="M100 0v660h32v-660h-32zM-14 726l116 114h28l116 -114l-14 -16l-114 100h-4l-114 -100z" />
    <glyph glyph-name="Idieresis" unicode="&#xcf;" horiz-adv-x="232" 
d="M100 0v660h32v-660h-32zM212 728q-32 0 -32 32t32 32t32 -32t-32 -32zM20 728q-32 0 -32 32t32 32t32 -32t-32 -32z" />
    <glyph glyph-name="Eth" unicode="&#xd0;" horiz-adv-x="620" 
d="M268 0h-148v336h-82v26l82 2v296h148q153 0 224.5 -90.5t71.5 -237.5t-71.5 -239.5t-224.5 -92.5zM152 28h112q141 0 203.5 87t62.5 217t-62.5 215t-203.5 85h-112v-268h168v-28h-168v-308z" />
    <glyph glyph-name="Ntilde" unicode="&#xd1;" horiz-adv-x="632" 
d="M100 0v660h34l292 -484l76 -130h4q-2 48 -3 94t-1 92v428h30v-660h-34l-292 484l-76 130h-4q2 -46 3 -90t1 -90v-434h-30zM399 722q-39 0 -62.5 20.5t-44 41t-49.5 20.5q-23 0 -39 -22t-19 -58l-24 2q1 43 22 74.5t60 31.5t62.5 -20.5t44 -41t49.5 -20.5q23 0 38 22
t20 58l24 -2q-1 -43 -22 -74.5t-60 -31.5z" />
    <glyph glyph-name="Ograve" unicode="&#xd2;" horiz-adv-x="648" 
d="M324 -12q-117 0 -192.5 94t-75.5 250t75.5 248t192.5 92t192.5 -92t75.5 -248t-75.5 -250t-192.5 -94zM324 18q105 0 169.5 86t64.5 228t-64.5 226t-169.5 84t-169.5 -84t-64.5 -226t64.5 -228t169.5 -86zM346 710l-126 112l22 24l118 -120z" />
    <glyph glyph-name="Oacute" unicode="&#xd3;" horiz-adv-x="648" 
d="M324 -12q-117 0 -192.5 94t-75.5 250t75.5 248t192.5 92t192.5 -92t75.5 -248t-75.5 -250t-192.5 -94zM324 18q105 0 169.5 86t64.5 228t-64.5 226t-169.5 84t-169.5 -84t-64.5 -226t64.5 -228t169.5 -86zM302 710l-14 16l118 120l22 -24z" />
    <glyph glyph-name="Ocircumflex" unicode="&#xd4;" horiz-adv-x="648" 
d="M324 -12q-117 0 -192.5 94t-75.5 250t75.5 248t192.5 92t192.5 -92t75.5 -248t-75.5 -250t-192.5 -94zM324 18q105 0 169.5 86t64.5 228t-64.5 226t-169.5 84t-169.5 -84t-64.5 -226t64.5 -228t169.5 -86zM194 726l116 114h28l116 -114l-14 -16l-114 100h-4l-114 -100z
" />
    <glyph glyph-name="Otilde" unicode="&#xd5;" horiz-adv-x="648" 
d="M324 -12q-117 0 -192.5 94t-75.5 250t75.5 248t192.5 92t192.5 -92t75.5 -248t-75.5 -250t-192.5 -94zM324 18q105 0 169.5 86t64.5 228t-64.5 226t-169.5 84t-169.5 -84t-64.5 -226t64.5 -228t169.5 -86zM402 722q-39 0 -62.5 20.5t-44 41t-49.5 20.5q-23 0 -39 -22
t-19 -58l-24 2q2 43 22.5 74.5t59.5 31.5t62.5 -20.5t44 -41t49.5 -20.5q23 0 38.5 22t19.5 58l24 -2q-2 -43 -22.5 -74.5t-59.5 -31.5z" />
    <glyph glyph-name="Odieresis" unicode="&#xd6;" horiz-adv-x="648" 
d="M324 -12q-117 0 -192.5 94t-75.5 250t75.5 248t192.5 92t192.5 -92t75.5 -248t-75.5 -250t-192.5 -94zM324 18q105 0 169.5 86t64.5 228t-64.5 226t-169.5 84t-169.5 -84t-64.5 -226t64.5 -228t169.5 -86zM420 728q-32 0 -32 32t32 32t32 -32t-32 -32zM228 728
q-32 0 -32 32t32 32t32 -32t-32 -32z" />
    <glyph glyph-name="multiply" unicode="&#xd7;" horiz-adv-x="472" 
d="M72 138l-20 22l164 170l-164 170l20 22l164 -172l164 172l20 -22l-164 -170l164 -170l-20 -22l-164 172z" />
    <glyph glyph-name="Oslash" unicode="&#xd8;" horiz-adv-x="648" 
d="M80 -20l-22 16l506 684l22 -16zM328 -12q-117 0 -192.5 94t-75.5 250t75.5 248t192.5 92t192.5 -92t75.5 -248t-75.5 -250t-192.5 -94zM328 18q105 0 169.5 86t64.5 228t-64.5 226t-169.5 84t-169.5 -84t-64.5 -226t64.5 -228t169.5 -86z" />
    <glyph glyph-name="Ugrave" unicode="&#xd9;" horiz-adv-x="630" 
d="M314 -12q-53 0 -102.5 22t-81.5 78t-32 158v414h32v-406q0 -91 26 -142.5t68 -72.5t90 -21q49 0 92 21t69.5 72.5t26.5 142.5v406h30v-414q0 -102 -32.5 -158t-82.5 -78t-103 -22zM337 710l-126 112l22 24l118 -120z" />
    <glyph glyph-name="Uacute" unicode="&#xda;" horiz-adv-x="630" 
d="M314 -12q-53 0 -102.5 22t-81.5 78t-32 158v414h32v-406q0 -91 26 -142.5t68 -72.5t90 -21q49 0 92 21t69.5 72.5t26.5 142.5v406h30v-414q0 -102 -32.5 -158t-82.5 -78t-103 -22zM293 710l-14 16l118 120l22 -24z" />
    <glyph glyph-name="Ucircumflex" unicode="&#xdb;" horiz-adv-x="630" 
d="M314 -12q-53 0 -102.5 22t-81.5 78t-32 158v414h32v-406q0 -91 26 -142.5t68 -72.5t90 -21q49 0 92 21t69.5 72.5t26.5 142.5v406h30v-414q0 -102 -32.5 -158t-82.5 -78t-103 -22zM185 726l116 114h28l116 -114l-14 -16l-114 100h-4l-114 -100z" />
    <glyph glyph-name="Udieresis" unicode="&#xdc;" horiz-adv-x="630" 
d="M314 -12q-53 0 -102.5 22t-81.5 78t-32 158v414h32v-406q0 -91 26 -142.5t68 -72.5t90 -21q49 0 92 21t69.5 72.5t26.5 142.5v406h30v-414q0 -102 -32.5 -158t-82.5 -78t-103 -22zM411 728q-32 0 -32 32t32 32t32 -32t-32 -32zM219 728q-32 0 -32 32t32 32t32 -32
t-32 -32z" />
    <glyph glyph-name="Yacute" unicode="&#xdd;" horiz-adv-x="436" 
d="M202 0v272l-198 388h34l106 -214q18 -36 35 -71t37 -71h4q20 36 39 71t35 71l106 214h32l-198 -388v-272h-32zM196 710l-14 16l118 120l22 -24z" />
    <glyph glyph-name="Thorn" unicode="&#xde;" horiz-adv-x="556" 
d="M100 0v660h32v-120h140q111 0 171.5 -40.5t60.5 -139.5q0 -94 -60.5 -141t-171.5 -47h-140v-172h-32zM132 200h128q106 0 158 37t52 123q0 87 -52 119.5t-158 32.5h-128v-312z" />
    <glyph glyph-name="germandbls" unicode="&#xdf;" horiz-adv-x="530" 
d="M360 -12q-39 0 -73 14t-61 38l18 24q28 -24 55.5 -36t60.5 -12q54 0 81 33t27 73q0 44 -21.5 69.5t-53.5 42t-64 32.5t-53.5 41t-21.5 69q0 50 25.5 82.5t51 64t25.5 77.5q0 45 -25 74.5t-75 29.5q-58 0 -94 -43.5t-36 -136.5v-524h-30v538q0 92 45 143t117 51
q60 0 95 -37t35 -93q0 -52 -25.5 -86t-51 -65t-25.5 -73q0 -37 21.5 -57.5t53.5 -35.5t64 -33t53.5 -47.5t21.5 -80.5q0 -58 -40 -97t-100 -39z" />
    <glyph glyph-name="agrave" unicode="&#xe0;" horiz-adv-x="486" 
d="M200 16q44 0 85 21t89 61v174q-158 -18 -220 -55t-62 -99q0 -56 32 -79t76 -23zM198 -12q-56 0 -97 30.5t-41 98.5q0 80 76 121.5t238 59.5q1 39 -7.5 76.5t-34.5 62.5t-76 25q-51 0 -92.5 -20t-63.5 -38l-16 24q22 16 69 39t105 23q84 0 115 -54t31 -126v-310h-26l-4 64
h-2q-38 -30 -82 -53t-92 -23zM286 574l-138 150l24 20l132 -154z" />
    <glyph glyph-name="aacute" unicode="&#xe1;" horiz-adv-x="486" 
d="M200 16q44 0 85 21t89 61v174q-158 -18 -220 -55t-62 -99q0 -56 32 -79t76 -23zM198 -12q-56 0 -97 30.5t-41 98.5q0 80 76 121.5t238 59.5q1 39 -7.5 76.5t-34.5 62.5t-76 25q-51 0 -92.5 -20t-63.5 -38l-16 24q22 16 69 39t105 23q84 0 115 -54t31 -126v-310h-26l-4 64
h-2q-38 -30 -82 -53t-92 -23zM218 574l-18 16l132 154l24 -20z" />
    <glyph glyph-name="acircumflex" unicode="&#xe2;" horiz-adv-x="486" 
d="M200 16q44 0 85 21t89 61v174q-158 -18 -220 -55t-62 -99q0 -56 32 -79t76 -23zM198 -12q-56 0 -97 30.5t-41 98.5q0 80 76 121.5t238 59.5q1 39 -7.5 76.5t-34.5 62.5t-76 25q-51 0 -92.5 -20t-63.5 -38l-16 24q22 16 69 39t105 23q84 0 115 -54t31 -126v-310h-26l-4 64
h-2q-38 -30 -82 -53t-92 -23zM120 590l118 146h28l118 -146l-18 -16l-112 130h-4l-112 -130z" />
    <glyph glyph-name="atilde" unicode="&#xe3;" horiz-adv-x="486" 
d="M200 16q44 0 85 21t89 61v174q-158 -18 -220 -55t-62 -99q0 -56 32 -79t76 -23zM198 -12q-56 0 -97 30.5t-41 98.5q0 80 76 121.5t238 59.5q1 39 -7.5 76.5t-34.5 62.5t-76 25q-51 0 -92.5 -20t-63.5 -38l-16 24q22 16 69 39t105 23q84 0 115 -54t31 -126v-310h-26l-4 64
h-2q-38 -30 -82 -53t-92 -23zM329 580q-39 0 -62 25t-43.5 50t-49.5 25q-28 0 -41 -29t-15 -69l-26 2q3 43 19.5 82.5t64.5 39.5q38 0 61.5 -25t44 -50t49.5 -25q28 0 40.5 29.5t14.5 68.5l26 -2q-3 -42 -19.5 -82t-63.5 -40z" />
    <glyph glyph-name="adieresis" unicode="&#xe4;" horiz-adv-x="486" 
d="M200 16q44 0 85 21t89 61v174q-158 -18 -220 -55t-62 -99q0 -56 32 -79t76 -23zM198 -12q-56 0 -97 30.5t-41 98.5q0 80 76 121.5t238 59.5q1 39 -7.5 76.5t-34.5 62.5t-76 25q-51 0 -92.5 -20t-63.5 -38l-16 24q22 16 69 39t105 23q84 0 115 -54t31 -126v-310h-26l-4 64
h-2q-38 -30 -82 -53t-92 -23zM338 602q-32 0 -32 32t32 32t32 -32t-32 -32zM166 602q-32 0 -32 32t32 32t32 -32t-32 -32z" />
    <glyph glyph-name="aring" unicode="&#xe5;" horiz-adv-x="486" 
d="M200 16q44 0 85 21t89 61v174q-158 -18 -220 -55t-62 -99q0 -56 32 -79t76 -23zM198 -12q-56 0 -97 30.5t-41 98.5q0 80 76 121.5t238 59.5q1 39 -7.5 76.5t-34.5 62.5t-76 25q-51 0 -92.5 -20t-63.5 -38l-16 24q22 16 69 39t105 23q84 0 115 -54t31 -126v-310h-26l-4 64
h-2q-38 -30 -82 -53t-92 -23zM252 546q-39 0 -65.5 26t-26.5 68t26.5 68t65.5 26t65.5 -26t26.5 -68t-26.5 -68t-65.5 -26zM252 568q28 0 48 19.5t20 52.5t-20 52.5t-48 19.5t-48 -19.5t-20 -52.5t20 -52.5t48 -19.5z" />
    <glyph glyph-name="ae" unicode="&#xe6;" horiz-adv-x="784" 
d="M206 -12q-56 0 -97 30t-41 98q0 81 76 122.5t232 59.5q1 39 -7.5 76.5t-34.5 62.5t-76 25q-46 0 -87 -20t-63 -38l-16 24q22 16 68 39t100 23q60 0 95 -34.5t45 -91.5q26 57 71 91.5t99 34.5q82 0 129 -57t47 -163v-15.5t-2 -16.5h-338q-2 -96 50 -159t128 -63
q40 0 70.5 12t57.5 32l14 -26q-27 -16 -58.5 -31t-85.5 -15q-66 0 -106 32t-66 70q-46 -46 -102.5 -74t-101.5 -28zM406 264h310q0 99 -39 148.5t-107 49.5q-63 0 -109.5 -55.5t-54.5 -142.5zM208 16q40 0 93 26t97 74q-10 22 -16 57t-6 71v28q-150 -18 -213 -55t-63 -99
q0 -56 32 -79t76 -23z" />
    <glyph glyph-name="ccedilla" unicode="&#xe7;" horiz-adv-x="446" 
d="M268 -12q-92 0 -153 66t-61 184q0 120 64 186t150 66q50 0 83 -19t57 -41l-20 -22q-24 22 -53 38t-67 16q-76 0 -129 -62.5t-53 -161.5t50 -160.5t132 -61.5q40 0 74 17t60 41l18 -22q-30 -27 -68 -45.5t-84 -18.5zM189 -216l-6 26q66 4 90 18t24 36q0 40 -78 52l40 86
h28l-30 -68q31 -8 50.5 -23t19.5 -45q0 -73 -138 -82z" />
    <glyph glyph-name="egrave" unicode="&#xe8;" horiz-adv-x="478" 
d="M272 -12q-90 0 -154 66.5t-64 183.5t63 184.5t143 67.5q82 0 131 -57t49 -163v-15.5t-2 -16.5h-352q0 -96 51 -159t137 -63q40 0 72.5 12t59.5 32l14 -26q-27 -16 -60.5 -31t-87.5 -15zM86 266h324q0 99 -41 147.5t-109 48.5q-64 0 -115 -52t-59 -144zM294 574l-138 150
l24 20l132 -154z" />
    <glyph glyph-name="eacute" unicode="&#xe9;" horiz-adv-x="478" 
d="M272 -12q-90 0 -154 66.5t-64 183.5t63 184.5t143 67.5q82 0 131 -57t49 -163v-15.5t-2 -16.5h-352q0 -96 51 -159t137 -63q40 0 72.5 12t59.5 32l14 -26q-27 -16 -60.5 -31t-87.5 -15zM86 266h324q0 99 -41 147.5t-109 48.5q-64 0 -115 -52t-59 -144zM226 574l-18 16
l132 154l24 -20z" />
    <glyph glyph-name="ecircumflex" unicode="&#xea;" horiz-adv-x="478" 
d="M272 -12q-90 0 -154 66.5t-64 183.5t63 184.5t143 67.5q82 0 131 -57t49 -163v-15.5t-2 -16.5h-352q0 -96 51 -159t137 -63q40 0 72.5 12t59.5 32l14 -26q-27 -16 -60.5 -31t-87.5 -15zM86 266h324q0 99 -41 147.5t-109 48.5q-64 0 -115 -52t-59 -144zM128 590l118 146
h28l118 -146l-18 -16l-112 130h-4l-112 -130z" />
    <glyph glyph-name="edieresis" unicode="&#xeb;" horiz-adv-x="478" 
d="M272 -12q-90 0 -154 66.5t-64 183.5t63 184.5t143 67.5q82 0 131 -57t49 -163v-15.5t-2 -16.5h-352q0 -96 51 -159t137 -63q40 0 72.5 12t59.5 32l14 -26q-27 -16 -60.5 -31t-87.5 -15zM86 266h324q0 99 -41 147.5t-109 48.5q-64 0 -115 -52t-59 -144zM346 602
q-32 0 -32 32t32 32t32 -32t-32 -32zM174 602q-32 0 -32 32t32 32t32 -32t-32 -32z" />
    <glyph glyph-name="igrave" unicode="&#xec;" horiz-adv-x="222" 
d="M96 0v478h30v-478h-30zM145 574l-138 150l24 20l132 -154z" />
    <glyph glyph-name="iacute" unicode="&#xed;" horiz-adv-x="222" 
d="M96 0v478h30v-478h-30zM77 574l-18 16l132 154l24 -20z" />
    <glyph glyph-name="icircumflex" unicode="&#xee;" horiz-adv-x="222" 
d="M96 0v478h30v-478h-30zM-21 590l118 146h28l118 -146l-18 -16l-112 130h-4l-112 -130z" />
    <glyph glyph-name="idieresis" unicode="&#xef;" horiz-adv-x="222" 
d="M96 0v478h30v-478h-30zM197 602q-32 0 -32 32t32 32t32 -32t-32 -32zM25 602q-32 0 -32 32t32 32t32 -32t-32 -32z" />
    <glyph glyph-name="eth" unicode="&#xf0;" horiz-adv-x="532" 
d="M266 -12q-78 0 -141 61t-63 169q0 98 57 160t151 62q91 0 153 -79q-14 78 -45.5 134t-74.5 99l-141 -74l-12 22l133 70q-28 25 -60.5 46.5t-66.5 41.5l16 22q37 -20 72 -43.5t66 -52.5l142 74l12 -22l-135 -71q60 -60 97.5 -147t37.5 -210q0 -120 -55.5 -191t-142.5 -71z
M266 16q87 0 126.5 69t39.5 165q0 34 -3 65q-41 60 -81.5 78.5t-79.5 18.5q-86 0 -130 -59t-44 -135q0 -88 51 -145t121 -57z" />
    <glyph glyph-name="ntilde" unicode="&#xf1;" horiz-adv-x="526" 
d="M96 0v478h26l4 -76h2q38 38 77 63t89 25q144 0 144 -182v-308h-30v304q0 80 -27 119t-89 39q-45 0 -82.5 -24t-83.5 -72v-366h-30zM356 580q-38 0 -61.5 25t-44 50t-49.5 25t-42 -29t-14 -69l-26 2q3 43 19.5 82.5t64.5 39.5q38 0 61.5 -25t43.5 -50t50 -25q28 0 41 29.5
t14 68.5l26 -2q-3 -42 -19.5 -82t-63.5 -40z" />
    <glyph glyph-name="ograve" unicode="&#xf2;" horiz-adv-x="532" 
d="M266 -12q-86 0 -149 66t-63 184q0 120 63 186t149 66t149 -66t63 -186q0 -118 -63 -184t-149 -66zM266 16q76 0 128 61.5t52 160.5t-52 161.5t-128 62.5t-128 -62.5t-52 -161.5t52 -160.5t128 -61.5zM300 574l-138 150l24 20l132 -154z" />
    <glyph glyph-name="oacute" unicode="&#xf3;" horiz-adv-x="532" 
d="M266 -12q-86 0 -149 66t-63 184q0 120 63 186t149 66t149 -66t63 -186q0 -118 -63 -184t-149 -66zM266 16q76 0 128 61.5t52 160.5t-52 161.5t-128 62.5t-128 -62.5t-52 -161.5t52 -160.5t128 -61.5zM232 574l-18 16l132 154l24 -20z" />
    <glyph glyph-name="ocircumflex" unicode="&#xf4;" horiz-adv-x="532" 
d="M266 -12q-86 0 -149 66t-63 184q0 120 63 186t149 66t149 -66t63 -186q0 -118 -63 -184t-149 -66zM266 16q76 0 128 61.5t52 160.5t-52 161.5t-128 62.5t-128 -62.5t-52 -161.5t52 -160.5t128 -61.5zM134 590l118 146h28l118 -146l-18 -16l-112 130h-4l-112 -130z" />
    <glyph glyph-name="otilde" unicode="&#xf5;" horiz-adv-x="532" 
d="M266 -12q-86 0 -149 66t-63 184q0 120 63 186t149 66t149 -66t63 -186q0 -118 -63 -184t-149 -66zM266 16q76 0 128 61.5t52 160.5t-52 161.5t-128 62.5t-128 -62.5t-52 -161.5t52 -160.5t128 -61.5zM343 580q-39 0 -62 25t-43.5 50t-49.5 25q-28 0 -41 -29t-15 -69
l-26 2q3 43 19.5 82.5t64.5 39.5q38 0 61.5 -25t44 -50t49.5 -25q28 0 40.5 29.5t14.5 68.5l26 -2q-3 -42 -19.5 -82t-63.5 -40z" />
    <glyph glyph-name="odieresis" unicode="&#xf6;" horiz-adv-x="532" 
d="M266 -12q-86 0 -149 66t-63 184q0 120 63 186t149 66t149 -66t63 -186q0 -118 -63 -184t-149 -66zM266 16q76 0 128 61.5t52 160.5t-52 161.5t-128 62.5t-128 -62.5t-52 -161.5t52 -160.5t128 -61.5zM352 602q-32 0 -32 32t32 32t32 -32t-32 -32zM180 602q-32 0 -32 32
t32 32t32 -32t-32 -32z" />
    <glyph glyph-name="divide" unicode="&#xf7;" horiz-adv-x="472" 
d="M236 474q-32 0 -32 36q0 34 32 34t32 -34q0 -36 -32 -36zM34 316v28h404v-28h-404zM236 114q-32 0 -32 36q0 34 32 34t32 -34q0 -36 -32 -36z" />
    <glyph glyph-name="oslash" unicode="&#xf8;" horiz-adv-x="532" 
d="M86 238q0 -86 40 -145l262 314q-50 55 -122 55q-76 0 -128 -62.5t-52 -161.5zM266 16q76 0 128 61.5t52 160.5q0 85 -40 146l-262 -314q50 -54 122 -54zM266 -12q-83 0 -141 58l-57 -68l-22 18l60 72q-24 31 -38 74t-14 96q0 120 63 186t149 66q84 0 142 -59l56 67
l22 -18l-59 -71q24 -31 37.5 -74.5t13.5 -96.5q0 -118 -63 -184t-149 -66z" />
    <glyph glyph-name="ugrave" unicode="&#xf9;" horiz-adv-x="524" 
d="M232 -12q-144 0 -144 182v308h30v-304q0 -80 27 -119t89 -39q45 0 82 25t82 79v358h30v-478h-26l-4 82h-2q-36 -42 -75 -68t-89 -26zM296 574l-138 150l24 20l132 -154z" />
    <glyph glyph-name="uacute" unicode="&#xfa;" horiz-adv-x="524" 
d="M232 -12q-144 0 -144 182v308h30v-304q0 -80 27 -119t89 -39q45 0 82 25t82 79v358h30v-478h-26l-4 82h-2q-36 -42 -75 -68t-89 -26zM228 574l-18 16l132 154l24 -20z" />
    <glyph glyph-name="ucircumflex" unicode="&#xfb;" horiz-adv-x="524" 
d="M232 -12q-144 0 -144 182v308h30v-304q0 -80 27 -119t89 -39q45 0 82 25t82 79v358h30v-478h-26l-4 82h-2q-36 -42 -75 -68t-89 -26zM130 590l118 146h28l118 -146l-18 -16l-112 130h-4l-112 -130z" />
    <glyph glyph-name="udieresis" unicode="&#xfc;" horiz-adv-x="524" 
d="M232 -12q-144 0 -144 182v308h30v-304q0 -80 27 -119t89 -39q45 0 82 25t82 79v358h30v-478h-26l-4 82h-2q-36 -42 -75 -68t-89 -26zM348 602q-32 0 -32 32t32 32t32 -32t-32 -32zM176 602q-32 0 -32 32t32 32t32 -32t-32 -32z" />
    <glyph glyph-name="yacute" unicode="&#xfd;" horiz-adv-x="424" 
d="M66 -222q-26 0 -46 10l8 28q20 -8 40 -8q45 0 76.5 39t51.5 97l14 44l-198 490h34l122 -314q12 -30 26 -66t28 -68h4q12 32 24 68l22 66l108 314h32l-192 -546q-18 -56 -55 -105t-99 -49zM190 574l-18 16l132 154l24 -20z" />
    <glyph glyph-name="thorn" unicode="&#xfe;" horiz-adv-x="540" 
d="M276 16q78 0 128 65t50 165q0 92 -37 154t-125 62q-38 0 -79 -22t-87 -62v-296q44 -36 83 -51t67 -15zM126 48v-270h-30v944h30v-306q38 28 80.5 51t87.5 23q98 0 145 -66.5t47 -177.5q0 -122 -63 -190t-149 -68q-66 0 -148 60z" />
    <glyph glyph-name="ydieresis" unicode="&#xff;" horiz-adv-x="424" 
d="M66 -222q-26 0 -46 10l8 28q20 -8 40 -8q45 0 76.5 39t51.5 97l14 44l-198 490h34l122 -314q12 -30 26 -66t28 -68h4q12 32 24 68l22 66l108 314h32l-192 -546q-18 -56 -55 -105t-99 -49zM310 602q-32 0 -32 32t32 32t32 -32t-32 -32zM138 602q-32 0 -32 32t32 32t32 -32
t-32 -32z" />
    <glyph glyph-name="dotlessi" unicode="&#x131;" horiz-adv-x="222" 
d="M96 0v478h30v-478h-30z" />
    <glyph glyph-name="OE" unicode="&#x152;" horiz-adv-x="828" 
d="M366 0q-158 0 -234 92.5t-76 239.5t76 237.5t234 90.5h406v-28h-302v-266h250v-28h-250v-310h312v-28h-416zM370 28h68v604h-68q-146 0 -213 -85t-67 -215t67 -217t213 -87z" />
    <glyph glyph-name="oe" unicode="&#x153;" horiz-adv-x="852" 
d="M262 -12q-82 0 -145 66t-63 184q0 120 63 186t145 66q58 0 111 -37.5t79 -112.5q26 69 74 109.5t108 40.5q82 0 131 -57t49 -163v-15.5t-2 -16.5h-344q-2 -96 51 -159t129 -63q40 0 72.5 12t59.5 32l14 -26q-27 -16 -60.5 -31t-87.5 -15q-66 0 -117 40t-77 108
q-54 -148 -190 -148zM468 264h316q0 99 -41 148.5t-109 49.5q-63 0 -110.5 -55.5t-55.5 -142.5zM262 16q76 0 126 61.5t50 160.5t-50 161.5t-126 62.5q-75 0 -125.5 -62.5t-50.5 -161.5t50.5 -160.5t125.5 -61.5z" />
    <glyph glyph-name="circumflex" unicode="&#x2c6;" horiz-adv-x="532" 
d="M134 590l118 146h28l118 -146l-18 -16l-112 130h-4l-112 -130z" />
    <glyph glyph-name="ring" unicode="&#x2da;" horiz-adv-x="532" 
d="M266 546q-39 0 -65.5 26t-26.5 68t26.5 68t65.5 26t65.5 -26t26.5 -68t-26.5 -68t-65.5 -26zM266 568q28 0 48 19.5t20 52.5t-20 52.5t-48 19.5t-48 -19.5t-20 -52.5t20 -52.5t48 -19.5z" />
    <glyph glyph-name="tilde" unicode="&#x2dc;" horiz-adv-x="532" 
d="M343 580q-39 0 -62 25t-43.5 50t-49.5 25q-28 0 -41 -29t-15 -69l-26 2q3 43 19.5 82.5t64.5 39.5q38 0 61.5 -25t44 -50t49.5 -25q28 0 40.5 29.5t14.5 68.5l26 -2q-3 -42 -19.5 -82t-63.5 -40z" />
    <glyph glyph-name="uni060C" unicode="&#x60c;" horiz-adv-x="208" 
d="M148 204l12 -24q-32 -18 -52 -49t-20 -72q5 1 12 1q36 0 36 -36q0 -18 -11 -27t-25 -9q-44 0 -44 62q0 51 26.5 90.5t65.5 63.5z" />
    <glyph glyph-name="uni061B" unicode="&#x61b;" horiz-adv-x="208" 
d="M148 594l12 -24q-32 -18 -52 -49t-20 -72q5 1 12 1q36 0 36 -36q0 -18 -11 -27t-25 -9q-44 0 -44 62q0 51 26.5 90.5t65.5 63.5zM104 66q14 0 25 -10t11 -28q0 -20 -11 -30t-25 -10t-25 10t-11 30q0 18 11 28t25 10z" />
    <glyph glyph-name="uni061F" unicode="&#x61f;" horiz-adv-x="394" 
d="M230 172q8 64 -12.5 110t-52 84t-56.5 76.5t-25 87.5q0 48 28.5 86t91.5 38q81 0 134 -66l20 18q-28 32 -66.5 54t-89.5 22q-72 0 -111 -44t-39 -106q0 -52 25.5 -93t57 -80t53.5 -83.5t14 -103.5h28zM212 -12q14 0 25 10t11 28q0 20 -11 30t-25 10t-25 -10t-11 -30
q0 -18 11 -28t25 -10z" />
    <glyph glyph-name="uni0621" unicode="&#x621;" horiz-adv-x="218" 
d="M107 112h86v-14h-92l34 -73q1 -2 3.5 -8t-1.5 -12q-4 -5 -14 -5h-98v15h99l-34 71q0 1 -3 9t4 14q4 3 16 3z" />
    <glyph glyph-name="uni0622" unicode="&#x622;" horiz-adv-x="189" 
d="M87 1v623h15v-609q0 -2 -4 -8t-11 -6zM-33 657v-47h-22v53q0 48 50 48h239v-23h-233q-31 -3 -34 -31z" />
    <glyph glyph-name="uni0623" unicode="&#x623;" horiz-adv-x="189" 
d="M87 1v623h15v-609q0 -2 -4 -8t-11 -6zM92 798h99v-23h-100l37 -77l3 -12t-2 -15q-5 -7 -19 -7h-111v23h108l-37 76q0 1 -3 11t5 18q6 6 20 6z" />
    <glyph glyph-name="uni0624" unicode="&#x624;" horiz-adv-x="368" 
d="M-8 -199v15h193q59 0 94.5 42.5t35.5 95.5v46h-152q-49 0 -82 34t-30 77q7 83 65 129t115 47q40 0 69.5 -24.5t29.5 -74.5v-234q0 -58 -40 -105.5t-105 -47.5h-193zM163 15h152v178q0 43 -24.5 61t-58.5 18q-52 0 -105.5 -42.5t-60.5 -119.5q-2 -35 26 -65t71 -30z
M223 556h99v-23h-100l37 -77l3 -12t-2 -15q-5 -7 -19 -7h-111v23h108l-37 76q0 1 -3 11t5 18q6 6 20 6z" />
    <glyph glyph-name="uni0625" unicode="&#x625;" horiz-adv-x="189" 
d="M87 1v623h15v-609q0 -2 -4 -8t-11 -6zM92 -29h99v-23h-100l37 -77l3 -12t-2 -15q-5 -7 -19 -7h-111v23h108l-37 76q0 1 -3 11t5 18q6 6 20 6z" />
    <glyph glyph-name="uni0626" unicode="&#x626;" horiz-adv-x="523" 
d="M385 197h101v-15h-99q-28 2 -41.5 -17t8.5 -50l110 -133q20 -22 4.5 -47t-52.5 -27h-230q-50 0 -99 30t-49 103v154h14v-154q0 -65 43 -90t89 -28h231q30 1 41 17.5t0 30.5l-113 136q-30 36 -11.5 63t53.5 27zM193 478h99v-23h-100l37 -77l3 -12t-2 -15q-5 -7 -19 -7
h-111v23h108l-37 76q0 1 -3 11t5 18q6 6 20 6z" />
    <glyph glyph-name="uni0627" unicode="&#x627;" horiz-adv-x="189" 
d="M87 1v623h15v-609q0 -2 -4 -8t-11 -6z" />
    <glyph glyph-name="uni0628" unicode="&#x628;" horiz-adv-x="652" 
d="M600 64v190h14v-195q0 -23 -19 -41t-40 -18h-392q-49 0 -87 33t-38 81v140h14v-140q0 -42 33 -70.5t78 -28.5h387q16 1 32 17t18 32zM346 -129q-19 0 -19 19t19 19t19 -19t-19 -19z" />
    <glyph glyph-name="uni0629" unicode="&#x629;" horiz-adv-x="331" 
d="M222 352l13 -5q-31 -79 -75 -120.5t-97 -91.5q-24 -25 -20.5 -53.5t23.5 -46.5q22 -20 55 -20h98q19 1 34 15.5t16 33.5v254h14v-259q0 -23 -17.5 -41t-41.5 -18h-103q-38 0 -65 25q-22 21 -28 57t25 64q53 49 94.5 87.5t74.5 118.5zM129 485q-19 0 -19 19t19 19t19 -19
t-19 -19zM281 485q-19 0 -19 19t19 19t19 -19t-19 -19z" />
    <glyph glyph-name="uni062A" unicode="&#x62a;" horiz-adv-x="652" 
d="M600 64v190h14v-195q0 -23 -19 -41t-40 -18h-392q-49 0 -87 33t-38 81v140h14v-140q0 -42 33 -70.5t78 -28.5h387q16 1 32 17t18 32zM250 374q-19 0 -19 19t19 19t19 -19t-19 -19zM402 374q-19 0 -19 19t19 19t19 -19t-19 -19z" />
    <glyph glyph-name="uni062B" unicode="&#x62b;" horiz-adv-x="652" 
d="M600 64v190h14v-195q0 -23 -19 -41t-40 -18h-392q-49 0 -87 33t-38 81v140h14v-140q0 -42 33 -70.5t78 -28.5h387q16 1 32 17t18 32zM250 374q-19 0 -19 19t19 19t19 -19t-19 -19zM402 374q-19 0 -19 19t19 19t19 -19t-19 -19zM326 480q-19 0 -19 19t19 19t19 -19
t-19 -19z" />
    <glyph glyph-name="uni062C" unicode="&#x62c;" horiz-adv-x="454" 
d="M129 -291q-39 -1 -65 24t-26 63v113q0 37 29.5 71.5t70.5 34.5h270q1 1 1 2q-35 9 -62.5 32t-50.5 48q-29 32 -69 80.5t-122 79.5l6 14q85 -32 126.5 -82t70.5 -82q26 -27 50.5 -45t57.5 -18v-7q0 -9 -7 -20l10 -2h-11q-10 -15 -26 -15h-244q-34 0 -60 -30t-26 -61v-113
q0 -32 21.5 -53t55.5 -20h241v-14h-241zM242 -159q-19 0 -19 19t19 19t19 -19t-19 -19z" />
    <glyph glyph-name="uni062D" unicode="&#x62d;" horiz-adv-x="454" 
d="M129 -291q-39 -1 -65 24t-26 63v113q0 37 29.5 71.5t70.5 34.5h270q1 1 1 2q-35 9 -62.5 32t-50.5 48q-29 32 -69 80.5t-122 79.5l6 14q85 -32 126.5 -82t70.5 -82q26 -27 50.5 -45t57.5 -18v-7q0 -9 -7 -20l10 -2h-11q-10 -15 -26 -15h-244q-34 0 -60 -30t-26 -61v-113
q0 -32 21.5 -53t55.5 -20h241v-14h-241z" />
    <glyph glyph-name="uni062E" unicode="&#x62e;" horiz-adv-x="454" 
d="M129 -291q-39 -1 -65 24t-26 63v113q0 37 29.5 71.5t70.5 34.5h270q1 1 1 2q-35 9 -62.5 32t-50.5 48q-29 32 -69 80.5t-122 79.5l6 14q85 -32 126.5 -82t70.5 -82q26 -27 50.5 -45t57.5 -18v-7q0 -9 -7 -20l10 -2h-11q-10 -15 -26 -15h-244q-34 0 -60 -30t-26 -61v-113
q0 -32 21.5 -53t55.5 -20h241v-14h-241zM135 313q-19 0 -19 19t19 19t19 -19t-19 -19z" />
    <glyph glyph-name="uni062F" unicode="&#x62f;" horiz-adv-x="391" 
d="M346 64q-4 60 -34 101t-70.5 68.5t-77.5 45.5l7 13q34 -17 78 -46.5t77 -75.5t35 -111q1 -17 -12 -38t-47 -21h-264v15h259q26 1 37 16.5t12 32.5z" />
    <glyph glyph-name="uni0630" unicode="&#x630;" horiz-adv-x="391" 
d="M346 64q-4 60 -34 101t-70.5 68.5t-77.5 45.5l7 13q34 -17 78 -46.5t77 -75.5t35 -111q1 -17 -12 -38t-47 -21h-264v15h259q26 1 37 16.5t12 32.5zM199 337q-19 0 -19 19t19 19t19 -19t-19 -19z" />
    <glyph glyph-name="uni0631" unicode="&#x631;" horiz-adv-x="199" 
d="M147 -46v188h15v-188q0 -38 -5.5 -73.5t-26 -58t-65.5 -22.5h-65v15h65q53 0 67.5 36.5t14.5 102.5z" />
    <glyph glyph-name="uni0632" unicode="&#x632;" horiz-adv-x="199" 
d="M147 -46v188h15v-188q0 -38 -5.5 -73.5t-26 -58t-65.5 -22.5h-65v15h65q53 0 67.5 36.5t14.5 102.5zM156 258q-19 0 -19 19t19 19t19 -19t-19 -19z" />
    <glyph glyph-name="uni0633" unicode="&#x633;" horiz-adv-x="801" 
d="M749 64v267h14v-272q0 -24 -17.5 -41.5t-43.5 -17.5h-123v15h118q21 0 36.5 15t15.5 34zM94 -201q-24 0 -40 19.5t-16 43.5v278h14v-272q2 -22 16 -37.5t30 -16.5h258q22 1 36 15.5t15 33.5v470h14v-318h106q20 0 35 15t15 34v267h15v-272q0 -24 -17 -41.5t-44 -17.5
h-110v-142q0 -25 -16.5 -42t-43.5 -17h-267z" />
    <glyph glyph-name="uni0634" unicode="&#x634;" horiz-adv-x="801" 
d="M749 64v267h14v-272q0 -24 -17.5 -41.5t-43.5 -17.5h-123v15h118q21 0 36.5 15t15.5 34zM94 -201q-24 0 -40 19.5t-16 43.5v278h14v-272q2 -22 16 -37.5t30 -16.5h258q22 1 36 15.5t15 33.5v470h14v-318h106q20 0 35 15t15 34v267h15v-272q0 -24 -17 -41.5t-44 -17.5
h-110v-142q0 -25 -16.5 -42t-43.5 -17h-267zM511 493q-19 0 -19 19t19 19t19 -19t-19 -19zM663 493q-19 0 -19 19t19 19t19 -19t-19 -19zM587 599q-19 0 -19 19t19 19t19 -19t-19 -19z" />
    <glyph glyph-name="uni0635" unicode="&#x635;" horiz-adv-x="876" 
d="M407 -137v369h14v-374q0 -25 -16.5 -42t-43.5 -17h-267q-24 0 -40 19.5t-16 43.5v278h14v-272q2 -22 16 -37.5t30 -16.5h258q22 1 36 15.5t15 33.5zM437 19l-8 11q51 70 103 136.5t107 102t116 12.5q79 -32 82 -155l2 -66q1 -25 -17 -42.5t-43 -17.5h-365v15h360
q22 1 36 15t15 33l-3 64q-2 60 -19 93t-52 48q-57 20 -110 -16.5t-104 -102t-100 -130.5z" />
    <glyph glyph-name="uni0636" unicode="&#x636;" horiz-adv-x="876" 
d="M407 -137v369h14v-374q0 -25 -16.5 -42t-43.5 -17h-267q-24 0 -40 19.5t-16 43.5v278h14v-272q2 -22 16 -37.5t30 -16.5h258q22 1 36 15.5t15 33.5zM437 19l-8 11q51 70 103 136.5t107 102t116 12.5q79 -32 82 -155l2 -66q1 -25 -17 -42.5t-43 -17.5h-365v15h360
q22 1 36 15t15 33l-3 64q-2 60 -19 93t-52 48q-57 20 -110 -16.5t-104 -102t-100 -130.5zM552 403q-19 0 -19 19t19 19t19 -19t-19 -19z" />
    <glyph glyph-name="uni0637" unicode="&#x637;" horiz-adv-x="599" 
d="M38 0v15h110v609h14v-618h-5v-6h-119zM160 19l-8 11q52 70 103.5 136.5t106 102t116.5 12.5q79 -32 82 -155l2 -66q1 -25 -16.5 -42.5t-43.5 -17.5h-365v15h360q23 1 36.5 15t14.5 33l-3 64q-1 60 -18.5 93t-52.5 48q-57 20 -110 -16.5t-103.5 -102t-100.5 -130.5z" />
    <glyph glyph-name="uni0638" unicode="&#x638;" horiz-adv-x="599" 
d="M38 0v15h110v609h14v-618h-5v-6h-119zM160 19l-8 11q52 70 103.5 136.5t106 102t116.5 12.5q79 -32 82 -155l2 -66q1 -25 -16.5 -42.5t-43.5 -17.5h-365v15h360q23 1 36.5 15t14.5 33l-3 64q-1 60 -18.5 93t-52.5 48q-57 20 -110 -16.5t-103.5 -102t-100.5 -130.5z
M397 466q-19 0 -19 19t19 19t19 -19t-19 -19z" />
    <glyph glyph-name="uni0639" unicode="&#x639;" horiz-adv-x="413" 
d="M87 -272q-22 0 -35.5 16t-13.5 38v177q1 19 11.5 37.5t39.5 18.5h101q-59 69 -69.5 122.5t21.5 82.5q46 44 148 14q22 -6 49 -17l-6 -13q-13 5 -24.5 9.5t-22.5 7.5q-96 26 -135 -11q-25 -23 -15.5 -73.5t75.5 -121.5h164v-15h-283q-36 -3 -40 -44v-170q3 -39 37 -43h286
v-15h-288z" />
    <glyph glyph-name="uni063A" unicode="&#x63a;" horiz-adv-x="413" 
d="M87 -272q-22 0 -35.5 16t-13.5 38v177q1 19 11.5 37.5t39.5 18.5h101q-59 69 -69.5 122.5t21.5 82.5q46 44 148 14q22 -6 49 -17l-6 -13q-13 5 -24.5 9.5t-22.5 7.5q-96 26 -135 -11q-25 -23 -15.5 -73.5t75.5 -121.5h164v-15h-283q-36 -3 -40 -44v-170q3 -39 37 -43h286
v-15h-288zM202 382q-19 0 -19 19t19 19t19 -19t-19 -19z" />
    <glyph glyph-name="uni0640" unicode="&#x640;" horiz-adv-x="235" 
d="M240 15v-15h-245v15h245z" />
    <glyph glyph-name="uni0641" unicode="&#x641;" horiz-adv-x="736" 
d="M440 76q24 -40 62.5 -52.5t85 -9.5t96.5 9v124q0 32 -6 59q-19 34 -55 49t-75 13t-67 -20q-35 -22 -52 -74t11 -98zM144 -199q-45 0 -75.5 27.5t-30.5 73.5v152h14v-152q0 -40 26 -63t66 -23h487q24 1 37.5 16.5t15.5 34.5v135q-44 -6 -93.5 -7.5t-93 14t-71.5 60.5
q-32 53 -12 109t59 81q43 29 108 21.5t98 -59.5q19 -30 19 -74v-285q0 -22 -17 -41.5t-45 -19.5h-492zM561 424q-19 0 -19 19t19 19t19 -19t-19 -19z" />
    <glyph glyph-name="uni0642" unicode="&#x642;" horiz-adv-x="666" 
d="M370 76q24 -40 62.5 -52.5t85 -9.5t96.5 9v123q0 33 -6 60q-19 34 -55 49t-75 13t-67 -20q-35 -22 -52 -74t11 -98zM144 -199q-45 0 -75.5 27.5t-30.5 73.5v242h14v-242q0 -40 26 -63t66 -23h417q24 1 37.5 16.5t15.5 34.5v135q-44 -6 -93.5 -8t-93 14t-71.5 61
q-32 53 -12 109t59 81q43 29 108 21t98 -59q19 -32 19 -75v-284q0 -22 -17 -41.5t-45 -19.5h-422zM415 424q-19 0 -19 19t19 19t19 -19t-19 -19zM567 424q-19 0 -19 19t19 19t19 -19t-19 -19z" />
    <glyph glyph-name="uni0643" unicode="&#x643;" horiz-adv-x="468" 
d="M47 0l-9 15h326q23 1 36.5 17t14.5 35v557h15v-562q0 -22 -15 -42t-46 -20h-322zM219 404h99v-23h-100l37 -77l3 -12t-2 -15q-5 -7 -19 -7h-111v23h108l-37 76q0 1 -3 11t5 18q6 6 20 6z" />
    <glyph glyph-name="uni0644" unicode="&#x644;" horiz-adv-x="458" 
d="M406 -81v705h14v-711q0 -23 -15.5 -42t-45.5 -19h-259q-28 0 -45 16.5t-17 43.5v189h14v-184q3 -47 53 -50h249q23 1 36.5 17t15.5 35z" />
    <glyph glyph-name="uni0645" unicode="&#x645;" horiz-adv-x="529" 
d="M38 15h27l9 -15h-27zM158 0h-93v15h88q31 1 43 16.5t14 35.5v125q0 51 30 78q33 32 86.5 30.5t90.5 -40.5q39 -41 56.5 -77t17.5 -67q0 -57 -50 -86.5t-112 -29.5h-106v15h106q61 0 104.5 27t43.5 74q0 27 -17 60.5t-55 73.5q-33 34 -79.5 35.5t-74.5 -26.5
q-27 -25 -27 -67v-130q-1 -19 -14.5 -40.5t-51.5 -21.5z" />
    <glyph glyph-name="uni0646" unicode="&#x646;" horiz-adv-x="454" 
d="M402 -123v266h14v-271q0 -21 -16 -40t-42 -19h-139q-76 0 -128.5 36t-52.5 103v190h14v-190q0 -56 47.5 -90t119.5 -34h135q19 1 32.5 16t15.5 33zM225 283q-19 0 -19 19t19 19t19 -19t-19 -19z" />
    <glyph glyph-name="uni0647" unicode="&#x647;" horiz-adv-x="331" 
d="M222 352l13 -5q-31 -79 -75 -120.5t-97 -91.5q-24 -25 -20.5 -53.5t23.5 -46.5q22 -20 55 -20h98q19 1 34 15.5t16 33.5v254h14v-259q0 -23 -17.5 -41t-41.5 -18h-103q-38 0 -65 25q-22 21 -28 57t25 64q53 49 94.5 87.5t74.5 118.5z" />
    <glyph glyph-name="uni0648" unicode="&#x648;" horiz-adv-x="368" 
d="M-8 -199v15h193q59 0 94.5 42.5t35.5 95.5v46h-152q-49 0 -82 34t-30 77q7 83 65 129t115 47q40 0 69.5 -24.5t29.5 -74.5v-234q0 -58 -40 -105.5t-105 -47.5h-193zM163 15h152v178q0 43 -24.5 61t-58.5 18q-52 0 -105.5 -42.5t-60.5 -119.5q-2 -35 26 -65t71 -30z" />
    <glyph glyph-name="uni0649" unicode="&#x649;" horiz-adv-x="523" 
d="M385 197h101v-15h-99q-28 2 -41.5 -17t8.5 -50l110 -133q20 -22 4.5 -47t-52.5 -27h-230q-50 0 -99 30t-49 103v154h14v-154q0 -65 43 -90t89 -28h231q30 1 41 17.5t0 30.5l-113 136q-30 36 -11.5 63t53.5 27z" />
    <glyph glyph-name="uni064A" unicode="&#x64a;" horiz-adv-x="523" 
d="M385 197h101v-15h-99q-28 2 -41.5 -17t8.5 -50l110 -133q20 -22 4.5 -47t-52.5 -27h-230q-50 0 -99 30t-49 103v154h14v-154q0 -65 43 -90t89 -28h231q30 1 41 17.5t0 30.5l-113 136q-30 36 -11.5 63t53.5 27zM192 -201q-19 0 -19 19t19 19t19 -19t-19 -19zM344 -201
q-19 0 -19 19t19 19t19 -19t-19 -19z" />
    <glyph glyph-name="uni064B" unicode="&#x64b;" 
d="M-93 -9q-12 -5 -18 8q-5 11 9 17l199 73q12 5 18 -7q6 -14 -9 -18zM-93 96q-12 -5 -18 8q-5 11 9 17l199 73q12 5 18 -7q6 -14 -9 -18z" />
    <glyph glyph-name="uni064C" unicode="&#x64c;" 
d="M28 86l16 -43l51 17q19 8 13 26q-6 14 -24 26.5t-42 5.5q-7 -2 -12.5 -11t-1.5 -21zM-44 11l62 23l-15 42q-8 22 1.5 42t30.5 26q35 10 62.5 -7t35.5 -41q7 -17 0.5 -35.5t-28.5 -25.5l-140 -50q-23 -8 -49.5 0.5t-37.5 36.5l-13 41q-6 12 7 16q13 5 18 -7l14 -40
q6 -16 21.5 -21.5t30.5 0.5z" />
    <glyph glyph-name="uni064D" unicode="&#x64d;" 
d="M-93 -234q-12 -5 -18 8q-5 11 9 17l199 73q12 5 18 -7q6 -14 -9 -18zM-93 -129q-12 -5 -18 8q-5 11 9 17l199 73q12 5 18 -7q6 -14 -9 -18z" />
    <glyph glyph-name="uni064E" unicode="&#x64e;" 
d="M-93 -9q-12 -5 -18 8q-5 11 9 17l199 73q12 5 18 -7q6 -14 -9 -18z" />
    <glyph glyph-name="uni064F" unicode="&#x64f;" 
d="M-113 5l90 32l-16 43q-7 22 2.5 41.5t30.5 26.5q34 10 61.5 -7.5t36.5 -40.5q7 -17 0.5 -35.5t-29.5 -25.5l-167 -60q-12 -6 -18 7q-5 13 9 19zM-13 90l15 -43l52 17q19 8 12 26q-6 14 -23.5 26t-42.5 6q-8 -2 -13 -11.5t0 -20.5z" />
    <glyph glyph-name="uni0650" unicode="&#x650;" 
d="M-93 -130q-12 -5 -18 8q-5 11 9 17l199 73q12 5 18 -7q6 -14 -9 -18z" />
    <glyph glyph-name="uni0651" unicode="&#x651;" 
d="M86 59v105q0 13 14 13t14 -13v-99q0 -14 -9 -22.5t-19 -12.5l-40 -14q-12 -6 -17 8q-6 14 8 18zM-67 -24q-19 -5 -31 2q-9 7 -11.5 16.5t-2.5 15.5v99q0 13 14 13t14 -13v-111q4 3 8 3l63 22v105q0 13 13 13q14 0 14 -13v-99q0 -14 -8.5 -21.5t-21.5 -12.5l-49 -18z" />
    <glyph glyph-name="uni0652" unicode="&#x652;" 
d="M0 -22q-40 0 -68 28.5t-28 67.5q0 40 28 68t68 28t68 -28t28 -68q0 -39 -28 -67.5t-68 -28.5zM0 143q-28 0 -48 -20.5t-20 -48.5t20 -48.5t48 -20.5t48 20.5t20 48.5t-20 48.5t-48 20.5z" />
    <glyph glyph-name="uni0653" unicode="&#x653;" 
d="M-128 -7v-47h-22v53q0 48 50 48h239v-23h-233q-31 -3 -34 -31z" />
    <glyph glyph-name="uni0654" unicode="&#x654;" 
d="M-3 134h99v-23h-100l37 -77l3 -12t-2 -15q-5 -7 -19 -7h-111v23h108l-37 76q0 1 -3 11t5 18q6 6 20 6z" />
    <glyph glyph-name="uni0655" unicode="&#x655;" 
d="M-3 0h99v-23h-100l37 -77l3 -12t-2 -15q-5 -7 -19 -7h-111v23h108l-37 76q0 1 -3 11t5 18q6 6 20 6z" />
    <glyph glyph-name="uni0656" unicode="&#x656;" 
d="M16 -152q0 -13 -9 -22.5t-23 -9.5v184h32v-152z" />
    <glyph glyph-name="uni0660" unicode="&#x660;" horiz-adv-x="226" 
d="M113 304q-25 0 -25 25t25 25q26 0 26 -25t-26 -25z" />
    <glyph glyph-name="uni0661" unicode="&#x661;" horiz-adv-x="190" 
d="M88 0v616h14v-616h-14z" />
    <glyph glyph-name="uni0662" unicode="&#x662;" horiz-adv-x="284" 
d="M40 549v-549h-15v554q0 26 17 44t42 18h175v-14h-170q-19 -2 -33.5 -16t-15.5 -37z" />
    <glyph glyph-name="uni0663" unicode="&#x663;" horiz-adv-x="433" 
d="M393 482v133h15v-138q0 -24 -17 -41.5t-43 -17.5h-133v14h128q21 0 35.5 15.5t14.5 34.5zM25 0v418h-3v14h3v183h15v-183h119q21 0 35.5 15.5t14.5 34.5v133h15v-138q0 -24 -17 -41.5t-43 -17.5h-124v-418h-15z" />
    <glyph glyph-name="uni0664" unicode="&#x664;" horiz-adv-x="369" 
d="M63 453l157 116l9 -11l-156 -115q-16 -13 -25.5 -26t15.5 -31l132 -91l1.5 -1t0.5 -2l-134 -193q-9 -14 -18.5 -33.5t-8 -34.5t25.5 -15l272 -1v-15l-283 1q-36 0 -36 30q0 18 11.5 38.5t20.5 33.5l130 187l-122 83q-37 26 -26 45t34 35z" />
    <glyph glyph-name="uni0665" unicode="&#x665;" horiz-adv-x="435" 
d="M153 526q62 40 126 3q35 -21 64.5 -72t48 -116t18.5 -130q1 -87 -42.5 -154.5t-148.5 -68.5q-97 -1 -145.5 61.5t-48.5 159.5q0 64 18 128.5t47.5 115.5t62.5 73zM396 211q0 63 -18.5 126t-47 111.5t-59.5 67.5q-55 34 -110 -3q-31 -20 -58 -68.5t-45 -110.5t-18 -124
q-1 -91 45 -149.5t134 -57.5q99 1 138.5 62.5t38.5 145.5z" />
    <glyph glyph-name="uni0666" unicode="&#x666;" horiz-adv-x="378" 
d="M289 602h-264v14h269q25 0 42 -18t17 -44v-554h-15v550q-1 22 -15.5 36t-33.5 16z" />
    <glyph glyph-name="uni0667" unicode="&#x667;" horiz-adv-x="452" 
d="M259 20l154 590l14 -4l-152 -582q-4 -16 -28 -18q-9 0 -20.5 4t-14.5 14l-187 582l14 5l189 -591q4 -5 16.5 -5t14.5 5z" />
    <glyph glyph-name="uni0668" unicode="&#x668;" horiz-adv-x="452" 
d="M259 599l154 -590l14 4l-152 582q-4 16 -28 18q-9 0 -20.5 -4t-14.5 -14l-187 -582l14 -5l189 591q4 5 16.5 5t14.5 -5z" />
    <glyph glyph-name="uni0669" unicode="&#x669;" horiz-adv-x="344" 
d="M293 0v340q-35 -4 -85 -5.5t-97.5 12t-74.5 55.5q-36 56 -17 116t63 85q26 17 65 21t77 -10t61 -48q23 -33 23 -79v-487h-15zM49 409q24 -34 68.5 -46.5t92.5 -12t83 4.5v132q0 42 -20 72q-35 49 -91.5 49.5t-93.5 -18.5q-38 -21 -55 -73.5t16 -107.5z" />
    <glyph glyph-name="uni066A" unicode="&#x66a;" horiz-adv-x="491" 
d="M74 -12h-30l373 685h30zM70 623q-25 0 -25 25t25 25q26 0 26 -25t-26 -25zM421 -12q-25 0 -25 25t25 25q26 0 26 -25t-26 -25z" />
    <glyph glyph-name="uni066B" unicode="&#x66b;" horiz-adv-x="105" 
d="M25 -116v174h11v-174q0 -6 -4.5 -23.5t-37.5 -17.5h-43v11h43q19 0 25 8.5t6 21.5z" />
    <glyph glyph-name="uni066E" unicode="&#x66e;" horiz-adv-x="652" 
d="M600 64v190h14v-195q0 -23 -19 -41t-40 -18h-392q-49 0 -87 33t-38 81v140h14v-140q0 -42 33 -70.5t78 -28.5h387q16 1 32 17t18 32z" />
    <glyph glyph-name="uni066F" unicode="&#x66f;" horiz-adv-x="666" 
d="M370 76q24 -40 62.5 -52.5t85 -9.5t96.5 9v123q0 33 -6 60q-19 34 -55 49t-75 13t-67 -20q-35 -22 -52 -74t11 -98zM144 -199q-45 0 -75.5 27.5t-30.5 73.5v242h14v-242q0 -40 26 -63t66 -23h417q24 1 37.5 16.5t15.5 34.5v135q-44 -6 -93.5 -8t-93 14t-71.5 61
q-32 53 -12 109t59 81q43 29 108 21t98 -59q19 -32 19 -75v-284q0 -22 -17 -41.5t-45 -19.5h-422z" />
    <glyph glyph-name="uni0670" unicode="&#x670;" 
d="M16 32q0 -13 -9 -22.5t-23 -9.5v184h32v-152z" />
    <glyph glyph-name="uni0671" unicode="&#x671;" horiz-adv-x="189" 
d="M87 1v623h15v-609q0 -2 -4 -8t-11 -6zM-32 664v7h220q25 2 27 25l-2 32q-1 56 -35 70q-29 10 -55.5 -8.5t-52 -51t-49.5 -64.5l-4 5q38 53 77 98t85 28q40 -16 41 -77l1 -35q0 -29 -30 -29h-223z" />
    <glyph glyph-name="uni0679" unicode="&#x679;" horiz-adv-x="652" 
d="M600 64v190h14v-195q0 -23 -19 -41t-40 -18h-392q-49 0 -87 33t-38 81v140h14v-140q0 -42 33 -70.5t78 -28.5h387q16 1 32 17t18 32zM413 527q-28 10 -54.5 -8t-51.5 -50t-50 -65v-4h168q25 2 25 24l-1 32q-1 57 -36 71zM195 393v7h55v305h7v-290q38 52 76 93.5t83 25.5
q39 -16 40 -78l1 -33q1 -12 -8 -21t-22 -9h-232z" />
    <glyph glyph-name="uni067E" unicode="&#x67e;" horiz-adv-x="652" 
d="M600 64v190h14v-195q0 -23 -19 -41t-40 -18h-392q-49 0 -87 33t-38 81v140h14v-140q0 -42 33 -70.5t78 -28.5h387q16 1 32 17t18 32zM346 -238q-19 0 -19 19t19 19t19 -19t-19 -19zM270 -129q-19 0 -19 19t19 19t19 -19t-19 -19zM422 -129q-19 0 -19 19t19 19t19 -19
t-19 -19z" />
    <glyph glyph-name="uni0686" unicode="&#x686;" horiz-adv-x="454" 
d="M52 -297q-7 0 -10.5 5.5t-3.5 8.5v192q0 37 29.5 71.5t70.5 34.5h270l2 2q-35 10 -63 32.5t-51 47.5q-29 32 -69 80.5t-122 79.5l6 14q85 -32 126.5 -82t70.5 -82q26 -27 50.5 -45t57.5 -18v-7q0 -9 -6 -20q4 -1 9 -2h-11q-10 -15 -26 -15h-244q-35 0 -60.5 -30
t-25.5 -61v-206zM228 -243q-19 0 -19 19t19 19t19 -19t-19 -19zM152 -134q-19 0 -19 19t19 19t19 -19t-19 -19zM304 -134q-19 0 -19 19t19 19t19 -19t-19 -19z" />
    <glyph glyph-name="uni0688" unicode="&#x688;" horiz-adv-x="391" 
d="M346 64q-4 60 -34 101t-70.5 68.5t-77.5 45.5l7 13q34 -17 78 -46.5t77 -75.5t35 -111q1 -17 -12 -38t-47 -21h-264v15h259q26 1 37 16.5t12 32.5zM286 490q-28 10 -54.5 -8t-51.5 -50t-50 -65v-4h168q25 2 25 24l-1 32q-1 57 -36 71zM68 356v7h55v305h7v-290
q38 52 76 93.5t83 25.5q39 -16 40 -78l1 -33q1 -12 -8 -21t-22 -9h-232z" />
    <glyph glyph-name="uni068E" unicode="&#x68e;" horiz-adv-x="391" 
d="M346 64q-4 60 -34 101t-70.5 68.5t-77.5 45.5l7 13q34 -17 78 -46.5t77 -75.5t35 -111q1 -17 -12 -38t-47 -21h-264v15h259q26 1 37 16.5t12 32.5zM123 337q-19 0 -19 19t19 19t19 -19t-19 -19zM275 337q-19 0 -19 19t19 19t19 -19t-19 -19zM199 443q-19 0 -19 19t19 19
t19 -19t-19 -19z" />
    <glyph glyph-name="uni0691" unicode="&#x691;" horiz-adv-x="199" 
d="M147 -46v188h15v-188q0 -38 -5.5 -73.5t-26 -58t-65.5 -22.5h-65v15h65q53 0 67.5 36.5t14.5 102.5zM243 411q-28 10 -54.5 -8t-51.5 -50t-50 -65v-4h168q25 2 25 24l-1 32q-1 57 -36 71zM25 277v7h55v305h7v-290q38 52 76 93.5t83 25.5q39 -16 40 -78l1 -33
q1 -12 -8 -21t-22 -9h-232z" />
    <glyph glyph-name="uni0698" unicode="&#x698;" horiz-adv-x="199" 
d="M147 -46v188h15v-188q0 -38 -5.5 -73.5t-26 -58t-65.5 -22.5h-65v15h65q53 0 67.5 36.5t14.5 102.5zM80 258q-19 0 -19 19t19 19t19 -19t-19 -19zM232 258q-19 0 -19 19t19 19t19 -19t-19 -19zM156 364q-19 0 -19 19t19 19t19 -19t-19 -19z" />
    <glyph glyph-name="uni06A1" unicode="&#x6a1;" horiz-adv-x="736" 
d="M440 76q24 -40 62.5 -52.5t85 -9.5t96.5 9v124q0 32 -6 59q-19 34 -55 49t-75 13t-67 -20q-35 -22 -52 -74t11 -98zM144 -199q-45 0 -75.5 27.5t-30.5 73.5v152h14v-152q0 -40 26 -63t66 -23h487q24 1 37.5 16.5t15.5 34.5v135q-44 -6 -93.5 -7.5t-93 14t-71.5 60.5
q-32 53 -12 109t59 81q43 29 108 21.5t98 -59.5q19 -30 19 -74v-285q0 -22 -17 -41.5t-45 -19.5h-492z" />
    <glyph glyph-name="uni06A4" unicode="&#x6a4;" horiz-adv-x="736" 
d="M440 76q24 -40 62.5 -52.5t85 -9.5t96.5 9v124q0 32 -6 59q-19 34 -55 49t-75 13t-67 -20q-35 -22 -52 -74t11 -98zM144 -199q-45 0 -75.5 27.5t-30.5 73.5v152h14v-152q0 -40 26 -63t66 -23h487q24 1 37.5 16.5t15.5 34.5v135q-44 -6 -93.5 -7.5t-93 14t-71.5 60.5
q-32 53 -12 109t59 81q43 29 108 21.5t98 -59.5q19 -30 19 -74v-285q0 -22 -17 -41.5t-45 -19.5h-492zM485 424q-19 0 -19 19t19 19t19 -19t-19 -19zM637 424q-19 0 -19 19t19 19t19 -19t-19 -19zM561 530q-19 0 -19 19t19 19t19 -19t-19 -19z" />
    <glyph glyph-name="uni06A9" unicode="&#x6a9;" horiz-adv-x="492" 
d="M38 15h27l9 -15h-27zM360 0h-313v15h311q28 1 38 26.5t-7 44.5l-278 284q-19 19 -25.5 52.5t23.5 49.5q37 23 90 43t106.5 35t95 23.5t56.5 8.5l-1 -15q-13 0 -53 -8.5t-92.5 -23.5t-104 -34t-87.5 -41q-19 -13 -14 -40.5t21 -45.5l274 -280q22 -23 11 -58.5t-51 -35.5z
" />
    <glyph glyph-name="uni06AF" unicode="&#x6af;" horiz-adv-x="492" 
d="M38 15h27l9 -15h-27zM360 0h-313v15h311q28 1 38 26.5t-7 44.5l-278 284q-19 19 -25.5 52.5t23.5 49.5q37 23 90 43t106.5 35t95 23.5t56.5 8.5l-1 -15q-13 0 -53 -8.5t-92.5 -23.5t-104 -34t-87.5 -41q-19 -13 -14 -40.5t21 -45.5l274 -280q22 -23 11 -58.5t-51 -35.5z
M451 655q-13 0 -53 -8.5t-93 -23t-105 -33.5t-88 -41l-11 19q39 24 92 43.5t106.5 34.5t95 23.5t56.5 8.5v-23z" />
    <glyph glyph-name="uni06BA" unicode="&#x6ba;" horiz-adv-x="454" 
d="M402 -123v266h14v-271q0 -21 -16 -40t-42 -19h-139q-76 0 -128.5 36t-52.5 103v190h14v-190q0 -56 47.5 -90t119.5 -34h135q19 1 32.5 16t15.5 33z" />
    <glyph glyph-name="uni06BB" unicode="&#x6bb;" horiz-adv-x="454" 
d="M402 -123v266h14v-271q0 -21 -16 -40t-42 -19h-139q-76 0 -128.5 36t-52.5 103v190h14v-190q0 -56 47.5 -90t119.5 -34h135q19 1 32.5 16t15.5 33zM312 436q-28 10 -54.5 -8t-51.5 -50t-50 -65v-4h168q25 2 25 24l-1 32q-1 57 -36 71zM94 302v7h55v305h7v-290
q38 52 76 93.5t83 25.5q39 -16 40 -78l1 -33q1 -12 -8 -21t-22 -9h-232z" />
    <glyph glyph-name="uni06BE" unicode="&#x6be;" horiz-adv-x="661" 
d="M0 0v15h165v139q0 55 40 82q39 26 94.5 10t96.5 -78q24 -40 26 -75q0 -27 -12.5 -47t-32.5 -31h182q47 2 50 49q1 71 -36 147t-117 129t-207 55v15q131 -2 214.5 -57t122.5 -135.5t37 -158.5q0 -25 -17.5 -42t-41.5 -17h-564zM179 154v-139h143q34 1 60.5 21t25.5 56
q0 31 -24 68q-38 58 -89 72t-82 -7q-34 -24 -34 -71z" />
    <glyph glyph-name="uni06C0" unicode="&#x6c0;" horiz-adv-x="331" 
d="M222 352l13 -5q-31 -79 -75 -120.5t-97 -91.5q-24 -25 -20.5 -53.5t23.5 -46.5q22 -20 55 -20h98q19 1 34 15.5t16 33.5v254h14v-259q0 -23 -17.5 -41t-41.5 -18h-103q-38 0 -65 25q-22 21 -28 57t25 64q53 49 94.5 87.5t74.5 118.5zM202 583h99v-23h-100l37 -77l3 -12
t-2 -15q-5 -7 -19 -7h-111v23h108l-37 76q0 1 -3 11t5 18q6 6 20 6z" />
    <glyph glyph-name="uni06C1" unicode="&#x6c1;" horiz-adv-x="331" 
d="M222 352l13 -5q-31 -79 -75 -120.5t-97 -91.5q-24 -25 -20.5 -53.5t23.5 -46.5q22 -20 55 -20h98q19 1 34 15.5t16 33.5v254h14v-259q0 -23 -17.5 -41t-41.5 -18h-103q-38 0 -65 25q-22 21 -28 57t25 64q53 49 94.5 87.5t74.5 118.5z" />
    <glyph glyph-name="uni06CC" unicode="&#x6cc;" horiz-adv-x="523" 
d="M385 197h101v-15h-99q-28 2 -41.5 -17t8.5 -50l110 -133q20 -22 4.5 -47t-52.5 -27h-230q-50 0 -99 30t-49 103v154h14v-154q0 -65 43 -90t89 -28h231q30 1 41 17.5t0 30.5l-113 136q-30 36 -11.5 63t53.5 27z" />
    <glyph glyph-name="uni06D2" unicode="&#x6d2;" horiz-adv-x="875" 
d="M248 152q38 54 85.5 64.5t91 -3t70.5 -31.5l-7 -13q-27 17 -67.5 30t-83.5 4t-77 -59q-10 -15 -17.5 -35.5t-30 -41.5t-78.5 -35q-48 -13 -70.5 -52t-12.5 -77q9 -34 47 -59.5t111 -25.5h626v-15h-626q-77 0 -119 28.5t-53 68.5q-11 45 14.5 88t78.5 57q54 15 73.5 32.5
t25 37t19.5 37.5z" />
    <glyph glyph-name="uni06D3" unicode="&#x6d3;" horiz-adv-x="875" 
d="M248 152q38 54 85.5 64.5t91 -3t70.5 -31.5l-7 -13q-27 17 -67.5 30t-83.5 4t-77 -59q-10 -15 -17.5 -35.5t-30 -41.5t-78.5 -35q-48 -13 -70.5 -52t-12.5 -77q9 -34 47 -59.5t111 -25.5h626v-15h-626q-77 0 -119 28.5t-53 68.5q-11 45 14.5 88t78.5 57q54 15 73.5 32.5
t25 37t19.5 37.5zM370 455h99v-23h-100l37 -77l3 -12t-2 -15q-5 -7 -19 -7h-111v23h108l-37 76q0 1 -3 11t5 18q6 6 20 6z" />
    <glyph glyph-name="uni06D4" unicode="&#x6d4;" horiz-adv-x="232" 
d="M69 0l9 15h85l-9 -15h-85z" />
    <glyph glyph-name="endash" unicode="&#x2013;" horiz-adv-x="480" 
d="M40 236v28h400v-28h-400z" />
    <glyph glyph-name="emdash" unicode="&#x2014;" horiz-adv-x="800" 
d="M40 236v28h720v-28h-720z" />
    <glyph glyph-name="quoteleft" unicode="&#x2018;" horiz-adv-x="208" 
d="M96 500q-38 0 -38 58q0 51 21 86.5t57 61.5l16 -18q-32 -27 -48 -54.5t-16 -68.5q3 1 8 1q12 0 23 -8t11 -24q0 -34 -34 -34z" />
    <glyph glyph-name="quoteright" unicode="&#x2019;" horiz-adv-x="208" 
d="M72 494l-16 18q32 27 48 54.5t16 68.5q-3 -1 -8 -1q-12 0 -23 8t-11 24q0 34 34 34q38 0 38 -58q0 -51 -21 -86.5t-57 -61.5z" />
    <glyph glyph-name="quotesinglbase" unicode="&#x201a;" horiz-adv-x="208" 
d="M72 -126l-16 18q32 27 48 54.5t16 68.5q-3 -1 -8 -1q-12 0 -23 8t-11 24q0 34 34 34q38 0 38 -58q0 -51 -21 -86.5t-57 -61.5z" />
    <glyph glyph-name="quotedblleft" unicode="&#x201c;" horiz-adv-x="336" 
d="M96 500q-38 0 -38 58q0 51 21 86.5t57 61.5l16 -18q-32 -27 -48 -54.5t-16 -68.5q3 1 8 1q12 0 23 -8t11 -24q0 -34 -34 -34zM224 500q-38 0 -38 58q0 51 21 86.5t57 61.5l16 -18q-32 -27 -48 -54.5t-16 -68.5q3 1 8 1q12 0 23 -8t11 -24q0 -34 -34 -34z" />
    <glyph glyph-name="quotedblright" unicode="&#x201d;" horiz-adv-x="336" 
d="M72 494l-16 18q32 27 48 54.5t16 68.5q-3 -1 -8 -1q-12 0 -23 8t-11 24q0 34 34 34q38 0 38 -58q0 -51 -21 -86.5t-57 -61.5zM200 494l-16 18q32 27 48 54.5t16 68.5q-3 -1 -8 -1q-12 0 -23 8t-11 24q0 34 34 34q38 0 38 -58q0 -51 -21 -86.5t-57 -61.5z" />
    <glyph glyph-name="quotedblbase" unicode="&#x201e;" horiz-adv-x="336" 
d="M72 -126l-16 18q32 27 48 54.5t16 68.5q-3 -1 -8 -1q-12 0 -23 8t-11 24q0 34 34 34q38 0 38 -58q0 -51 -21 -86.5t-57 -61.5zM200 -126l-16 18q32 27 48 54.5t16 68.5q-3 -1 -8 -1q-12 0 -23 8t-11 24q0 34 34 34q38 0 38 -58q0 -51 -21 -86.5t-57 -61.5z" />
    <glyph glyph-name="bullet" unicode="&#x2022;" horiz-adv-x="272" 
d="M136 158q-36 0 -66 28t-30 78t30 78t66 28t66 -28t30 -78t-30 -78t-66 -28z" />
    <glyph glyph-name="ellipsis" unicode="&#x2026;" horiz-adv-x="924" 
d="M144 -12q-14 0 -25 10t-11 28q0 20 11 30t25 10t25 -10t11 -30q0 -18 -11 -28t-25 -10zM482 -12q-14 0 -25 10t-11 28q0 20 11 30t25 10t25 -10t11 -30q0 -18 -11 -28t-25 -10zM820 -12q-14 0 -25 10t-11 28q0 20 11 30t25 10t25 -10t11 -30q0 -18 -11 -28t-25 -10z" />
    <glyph glyph-name="guilsinglleft" unicode="&#x2039;" horiz-adv-x="254" 
d="M180 74l-138 164v28l138 164l20 -18l-124 -160l124 -162z" />
    <glyph glyph-name="guilsinglright" unicode="&#x203a;" horiz-adv-x="254" 
d="M74 74l-20 16l124 162l-124 160l20 18l138 -164v-28z" />
    <glyph glyph-name="fraction" unicode="&#x2044;" horiz-adv-x="78" 
d="M-164 -12l370 684h32l-370 -684h-32z" />
    <glyph glyph-name="four.sups" unicode="&#x2074;" horiz-adv-x="360" 
d="M88 554h136v94l4 102h-4l-58 -84zM310 528h-58v-118h-28v118h-176v16l182 256h22v-246h58v-26z" />
    <glyph glyph-name="Euro" unicode="&#x20ac;" horiz-adv-x="472" 
d="M468 82q-31 -44 -69.5 -69t-94.5 -25q-87 0 -143.5 70.5t-70.5 191.5h-66v24l63 4q-1 21 -1 44q0 18 1 36h-63v24l65 4q13 123 74 194.5t157 71.5q45 0 81 -24t57 -54l-22 -20q-22 32 -51 51t-65 19q-84 0 -134.5 -64t-62.5 -174h287v-28h-289q-1 -18 -1 -36q0 -23 1 -44
h249v-28h-246q12 -107 59 -170.5t123 -63.5q44 0 76.5 21t63.5 63z" />
    <glyph glyph-name="minus" unicode="&#x2212;" horiz-adv-x="472" 
d="M34 316v28h404v-28h-404z" />
    <glyph glyph-name="uni2215" unicode="&#x2215;" horiz-adv-x="78" 
d="M-164 -12l370 684h32l-370 -684h-32z" />
    <glyph glyph-name="uni25CC" unicode="&#x25cc;" horiz-adv-x="592" 
d="M295 426q-29 0 -29 32t29 32q31 0 31 -32t-31 -32zM189 400q-29 0 -29 31q0 32 29 32q30 0 30 -32q0 -31 -30 -31zM401 399q-28 0 -28 32q0 31 28 31q30 0 30 -31q0 -32 -30 -32zM110 318q-29 0 -29 33q0 31 29 31q31 0 31 -31q0 -33 -31 -33zM480 317q-29 0 -29 32
q0 31 29 31q30 0 30 -31q0 -32 -30 -32zM508 207q-30 0 -30 32q0 31 30 31q11 0 20.5 -7.5t9.5 -23.5q0 -32 -30 -32zM82 207q-28 0 -28 32q0 31 28 31q32 0 32 -31q0 -32 -32 -32zM480 97q-11 0 -20 9t-9 23q0 32 29 32q30 0 30 -32t-30 -32zM110 97q-29 0 -29 32t29 32
q31 0 31 -32t-31 -32zM401 15q-28 0 -28 34q0 29 28 29q30 0 30 -29q0 -34 -30 -34zM189 15q-29 0 -29 34q0 29 29 29q30 0 30 -29q0 -34 -30 -34zM295 -12q-29 0 -29 32q0 31 29 31q31 0 31 -31q0 -32 -31 -32z" />
    <glyph glyph-name="ar1Dot.above" 
d="M0 -19q-19 0 -19 19t19 19t19 -19t-19 -19z" />
    <glyph glyph-name="ar1Dot.below" 
d="M0 -19q-19 0 -19 19t19 19t19 -19t-19 -19z" />
    <glyph glyph-name="ar2Dot.above" 
d="M-76 -19q-19 0 -19 19t19 19t19 -19t-19 -19zM76 -19q-19 0 -19 19t19 19t19 -19t-19 -19z" />
    <glyph glyph-name="ar2Dot.below" 
d="M-76 -19q-19 0 -19 19t19 19t19 -19t-19 -19zM76 -19q-19 0 -19 19t19 19t19 -19t-19 -19z" />
    <glyph glyph-name="ar3Dot.above" 
d="M-76 -19q-19 0 -19 19t19 19t19 -19t-19 -19zM76 -19q-19 0 -19 19t19 19t19 -19t-19 -19zM0 87q-19 0 -19 19t19 19t19 -19t-19 -19z" />
    <glyph glyph-name="ar3IDot.above" 
d="M0 -19q-19 0 -19 19t19 19t19 -19t-19 -19zM-76 90q-19 0 -19 19t19 19t19 -19t-19 -19zM76 90q-19 0 -19 19t19 19t19 -19t-19 -19z" />
    <glyph glyph-name="ar3IDot.below" 
d="M0 -128q-19 0 -19 19t19 19t19 -19t-19 -19zM-76 -19q-19 0 -19 19t19 19t19 -19t-19 -19zM76 -19q-19 0 -19 19t19 19t19 -19t-19 -19z" />
    <glyph glyph-name="arAlef.fina.1" horiz-adv-x="195" 
d="M247 184l-133 457l13 2l134 -456zM118 10q8 4 40 26t61.5 59t28.5 88h15q-8 -47 -38.5 -91t-98.5 -82h-8z" />
    <glyph glyph-name="arGaf.above" 
d="M175 77q-13 0 -53 -8.5t-93 -23t-105 -33.5t-88 -41l-11 19q39 24 92 43.5t106.5 34.5t95 23.5t56.5 8.5v-23z" />
    <glyph glyph-name="arHah.fina2" horiz-adv-x="416" 
d="M52 -297q-7 0 -10.5 5.5t-3.5 8.5v192q0 37 29.5 71.5t70.5 34.5h270l2 2q-35 10 -63 32.5t-51 47.5q-29 32 -69 80.5t-122 79.5l6 14q85 -32 126.5 -82t70.5 -82q26 -27 50.5 -45t57.5 -18v-7q0 -9 -6 -20q4 -1 9 -2h-11q-10 -15 -26 -15h-244q-35 0 -60.5 -30
t-25.5 -61v-206z" />
    <glyph glyph-name="arHah.isol2" horiz-adv-x="454" 
d="M52 -297q-7 0 -10.5 5.5t-3.5 8.5v192q0 37 29.5 71.5t70.5 34.5h270l2 2q-35 10 -63 32.5t-51 47.5q-29 32 -69 80.5t-122 79.5l6 14q85 -32 126.5 -82t70.5 -82q26 -27 50.5 -45t57.5 -18v-7q0 -9 -6 -20q4 -1 9 -2h-11q-10 -15 -26 -15h-244q-35 0 -60.5 -30
t-25.5 -61v-206z" />
    <glyph glyph-name="arKaf.above" 
d="M-3 134h99v-23h-100l37 -77l3 -12t-2 -15q-5 -7 -19 -7h-111v23h108l-37 76q0 1 -3 11t5 18q6 6 20 6z" />
    <glyph glyph-name="arKaf.fina" horiz-adv-x="430" 
d="M47 0l-9 15h326q23 1 36.5 17t14.5 35v557h15v-562q0 -22 -15 -42t-46 -20h-322z" />
    <glyph glyph-name="arKaf.isol" horiz-adv-x="468" 
d="M47 0l-9 15h326q23 1 36.5 17t14.5 35v557h15v-562q0 -22 -15 -42t-46 -20h-322z" />
    <glyph glyph-name="arLam.init.1" horiz-adv-x="149" 
d="M96 67v557h15v-562q0 -26 -16.5 -44t-41.5 -18h-211v15h207q19 1 32.5 14.5t14.5 37.5z" />
    <glyph glyph-name="arLam.medi.1" horiz-adv-x="111" 
d="M96 67v557h15v-562q0 -26 -16.5 -44t-41.5 -18h-211v15h207q19 1 32.5 14.5t14.5 37.5z" />
    <glyph glyph-name="arSad.above" 
d="M-127 0v7h220q25 2 27 25l-2 32q-1 56 -35 70q-29 10 -55.5 -8.5t-52 -51t-49.5 -64.5l-4 5q38 53 77 98t85 28q40 -16 41 -77l1 -35q0 -29 -30 -29h-223z" />
    <glyph glyph-name="arTah.above" 
d="M87 134q-28 10 -54.5 -8t-51.5 -50t-50 -65v-4h168q25 2 25 24l-1 32q-1 57 -36 71zM-131 0v7h55v305h7v-290q38 52 76 93.5t83 25.5q39 -16 40 -78l1 -33q1 -12 -8 -21t-22 -9h-232z" />
    <glyph glyph-name="uni0301" 
d="M-34 574l-18 16l132 154l24 -20z" />
    <glyph glyph-name="uni0302.cap" 
d="M-130 726l116 114h28l116 -114l-14 -16l-114 100h-4l-114 -100z" />
    <glyph glyph-name="two.dnom" horiz-adv-x="360" 
d="M58 0v20q104 98 150 152.5t46 105.5q0 45 -25 71.5t-65 26.5q-28 0 -53 -19t-41 -45l-20 18q16 28 48 50t68 22q52 0 85 -30t33 -92q0 -63 -49 -119.5t-129 -134.5h202v-26h-250z" />
    <glyph glyph-name="one.dnom" horiz-adv-x="360" 
d="M178 0v330h-82v22q52 11 84 38h26v-390h-28z" />
    <glyph glyph-name="uni0300" 
d="M34 574l-138 150l24 20l132 -154z" />
    <glyph glyph-name="uni0303.cap" 
d="M78 722q-39 0 -62.5 20.5t-44 41t-49.5 20.5q-23 0 -39 -22t-19 -58l-24 2q2 43 22.5 74.5t59.5 31.5t62.5 -20.5t44 -41t49.5 -20.5q23 0 38.5 22t19.5 58l24 -2q-2 -43 -22.5 -74.5t-59.5 -31.5z" />
    <glyph glyph-name="uni0302" 
d="M-132 590l118 146h28l118 -146l-18 -16l-112 130h-4l-112 -130z" />
    <glyph glyph-name="uni0303" 
d="M77 580q-39 0 -62 25t-43.5 50t-49.5 25q-28 0 -41 -29t-15 -69l-26 2q3 43 19.5 82.5t64.5 39.5q38 0 61.5 -25t44 -50t49.5 -25q28 0 40.5 29.5t14.5 68.5l26 -2q-3 -42 -19.5 -82t-63.5 -40z" />
    <glyph glyph-name="zero.dnom" horiz-adv-x="360" 
d="M180 -12q-64 0 -101 54t-37 154q0 99 37 152.5t101 53.5t101 -53.5t37 -152.5q0 -100 -37 -154t-101 -54zM180 14q50 0 79 48t29 134t-29 133t-79 47t-79 -47t-29 -133t29 -134t79 -48z" />
    <glyph glyph-name="three.dnom" horiz-adv-x="360" 
d="M176 -12q-45 0 -79.5 23t-54.5 51l24 18q18 -28 48 -47t64 -19q39 0 67.5 23t28.5 65q0 40 -39 62t-105 22v24q62 0 95 27t33 61t-24 56t-64 22q-24 0 -48 -15t-44 -39l-20 18q20 26 49 44t65 18q48 0 82 -27t34 -75q0 -38 -22.5 -63t-55.5 -37q36 -6 65 -31t29 -67
q0 -54 -37 -84t-91 -30z" />
    <glyph glyph-name="four.dnom" horiz-adv-x="360" 
d="M88 144h136v94l4 102h-4l-58 -84zM310 118h-58v-118h-28v118h-176v16l182 256h22v-246h58v-26z" />
    <glyph glyph-name="uni030A" 
d="M0 546q-39 0 -65.5 26t-26.5 68t26.5 68t65.5 26t65.5 -26t26.5 -68t-26.5 -68t-65.5 -26zM0 568q28 0 48 19.5t20 52.5t-20 52.5t-48 19.5t-48 -19.5t-20 -52.5t20 -52.5t48 -19.5z" />
    <glyph glyph-name="uni0308.cap" 
d="M96 728q-32 0 -32 32t32 32t32 -32t-32 -32zM-96 728q-32 0 -32 32t32 32t32 -32t-32 -32z" />
    <glyph glyph-name="uni0301.cap" 
d="M-22 710l-14 16l118 120l22 -24z" />
    <glyph glyph-name="uni0327" 
d="M-74 -216l-6 26q66 4 90 18t24 36q0 40 -78 52l40 86h28l-30 -68q32 -8 51 -23t19 -45q0 -73 -138 -82z" />
    <glyph glyph-name="uni0300.cap" 
d="M22 710l-126 112l22 24l118 -120z" />
    <glyph glyph-name="uni0308" 
d="M86 602q-32 0 -32 32t32 32t32 -32t-32 -32zM-86 602q-32 0 -32 32t32 32t32 -32t-32 -32z" />
    </font>
</defs>
</svg>
