<?xml version="1.0" standalone="no"?>
<!DOCTYPE svg PUBLIC "-//W3C//DTD SVG 1.1//EN" "http://www.w3.org/Graphics/SVG/1.1/DTD/svg11.dtd" >
<svg>
<metadata>
Created by FontForge 20110222 at Thu Aug 28 14:30:42 2014
 By Orthosie Webhosting
</metadata>
<defs>
<font id="NafeesWebNaskh" horiz-adv-x="0" >
  <font-face 
    font-family="Nafees Web Naskh"
    font-weight="400"
    font-stretch="normal"
    units-per-em="2048"
    panose-1="2 0 5 6 0 0 0 2 0 3"
    ascent="1638"
    descent="-410"
    x-height="661"
    cap-height="1148"
    bbox="-2164.11 -1009 6650 1739.13"
    underline-thickness="102"
    underline-position="-154"
    unicode-range="U+0020-FEFB"
  />
<missing-glyph horiz-adv-x="257" 
 />
    <glyph glyph-name="sf277.046" unicode="&#x622;" horiz-adv-x="548" arabic-form="final" 
d="M272 475q15 -139 90.5 -206.5t220.5 -66.5q0 -13 -0.5 -39.5t-1 -56.5t-1 -57.5t-0.5 -42.5q-72 -13 -140 0.5t-122 53.5t-89 107t-41 160q-21 196 -42 385.5t-46 386.5l73 184q5 14 8 11t4 -12q16 -101 27.5 -202t21 -201.5t18.5 -201.5t20 -202zM-215 1335
q-14 -8 -20 -8q-11 0 -10 10.5t12 22.5q60 69 126 110t141 43q22 0 44 -5t44 -10.5t44 -10.5t45 -5q39 0 76 12t70 30.5t60.5 41.5t46.5 45q17 20 24 19.5t-5 -26.5q-22 -46 -59.5 -90.5t-84.5 -80t-99.5 -57.5t-104.5 -22q-28 0 -50.5 6t-43.5 12.5t-40.5 12.5t-41.5 6
q-51 0 -94 -17t-80 -39z" />
    <glyph glyph-name="sf277" unicode="&#x627;" horiz-adv-x="548" arabic-form="final" 
d="M272 475q15 -139 90.5 -206.5t220.5 -66.5q0 -13 -0.5 -39.5t-1 -56.5t-1 -57.5t-0.5 -42.5q-72 -13 -140 0.5t-122 53.5t-89 107t-41 160q-21 196 -42 385.5t-46 386.5l73 184q5 14 8 11t4 -12q16 -101 27.5 -202t21 -201.5t18.5 -201.5t20 -202z" />
    <glyph glyph-name="sf300.001" unicode="&#x628;" horiz-adv-x="367" arabic-form="initial" 
d="M22 -273q5 7 18 23.5t28 35t29 34.5t20 22q8 10 14 9.5t12 -5.5q36 -31 72.5 -59t60.5 -53q5 -5 4 -9.5t-6 -10.5q-22 -32 -46 -61t-47 -60q-10 -18 -27 -7q-13 7 -32.5 22t-39 32t-36.5 33.5t-25 27.5q-6 8 -5 13t6 13zM195 216q1 39 -10.5 79t-28.5 79.5t-35.5 78
t-30.5 74.5q-9 17 0 34q17 39 35 77.5t35 78.5q3 7 9 6t8 -6q12 -25 32.5 -70.5t40 -100t33.5 -112.5t13 -108q0 -39 -7 -71.5t-20 -65.5t-31 -70t-40 -85q-20 -10 -50.5 -17t-63.5 -11t-64.5 -5.5t-54.5 -0.5v200q23 0 54 0.5t63 2.5t62 5t51 8z" />
    <glyph glyph-name="sf277.017" unicode="&#x628;" horiz-adv-x="673" arabic-form="medial" 
d="M46 -300q5 7 18 23.5t28 35t29 34.5t20 22q8 10 14 9.5t12 -5.5q36 -31 72.5 -59t60.5 -53q5 -5 4 -9.5t-6 -10.5q-22 -32 -46 -61t-47 -60q-10 -18 -27 -7q-13 7 -32.5 22t-39 32t-36.5 33.5t-25 27.5q-6 8 -5 13t6 13zM338 219q-27 -52 -67.5 -93.5t-89 -70t-104 -43.5
t-112.5 -14v205q20 -2 34 -1.5t25 0.5q49 0 101.5 16t101 41.5t91 58t72.5 65.5q9 10 14 7t5 -12q-4 -47 18 -77.5t56.5 -49.5t75.5 -28.5t74 -15.5q17 -3 36 -4t39 -1q0 -13 -0.5 -39.5t-1 -56.5t-1 -57.5t-0.5 -42.5q-92 -12 -127 -2q-43 5 -84.5 19.5t-74.5 40t-55 64
t-26 91.5z" />
    <glyph glyph-name="sf277.002" unicode="&#x628;" horiz-adv-x="1738" arabic-form="final" 
d="M611 -334q5 7 18 23.5t28 35t29 34.5t20 22q8 10 14 9.5t12 -5.5q36 -31 72.5 -59t60.5 -53q5 -5 4 -9.5t-6 -10.5q-22 -32 -46 -61t-47 -60q-10 -18 -27 -7q-13 7 -32.5 22t-39 32t-36.5 33.5t-25 27.5q-6 8 -5 13t6 13zM1770 6q-45 -7 -88 -6q-56 3 -104 16.5t-83 43.5
t-54 79.5t-17 124.5q-126 -85 -256.5 -141.5t-278.5 -90.5q-73 -17 -162.5 -28t-180.5 -9.5t-177 20t-152.5 60.5t-106.5 111.5t-39 172.5q-2 27 2 66t13 82t22.5 85.5t29.5 75.5q7 19 21 19q5 0 8.5 -4.5t1.5 -15.5q-18 -52 -25 -92t-11 -81q-6 -57 12 -103t53 -81.5
t83.5 -60.5t103 -41t112 -22.5t111.5 -4.5q79 2 154.5 11.5t150 26t150.5 41t157 56.5q36 14 68 29t62.5 31.5t61 35t62.5 39.5q12 8 18 6.5t6 -16.5q-2 -75 18.5 -120.5t57.5 -71.5t88 -36t111 -13q0 -13 -0.5 -39.5t-1 -55.5t-1 -56.5t-0.5 -42.5z" />
    <glyph glyph-name="sf300.002" unicode="&#x67e;" horiz-adv-x="447" arabic-form="initial" 
d="M-15 -304q-20 15 -10 34q25 34 49 68t49 67q8 9 13.5 8.5t12.5 -5.5q17 -14 35.5 -29t36.5 -28.5t34.5 -24t28.5 -14.5q11 -4 13 -2t11 14q10 11 29.5 34.5t55.5 66.5q8 9 13.5 6.5t9.5 -6.5q36 -30 59 -49t37.5 -30.5t22.5 -17t13 -8.5q5 -4 7 -10.5t-3 -12.5
q-25 -32 -49.5 -63.5t-49.5 -63.5q-8 -10 -14 -9t-12 4q-35 22 -65 48.5t-62 58.5q-26 -31 -50 -63t-49 -64q-10 -12 -25.5 -5.5t-25.5 12.5q-18 10 -31 18.5t-26 18t-26.5 21t-31.5 26.5zM154 -510q5 7 18.5 23.5t28.5 34.5t28.5 34.5t18.5 22.5q8 10 14.5 9.5t11.5 -5.5
q36 -31 73 -59t60 -53q6 -5 5 -9.5t-6 -10.5q-22 -33 -46 -61.5t-47 -60.5q-11 -17 -27 -6q-13 7 -32.5 22t-39.5 32t-37 33.5t-25 27.5q-5 8 -4 13t6 13zM275 216q1 39 -10.5 79t-28.5 79.5t-35.5 78t-30.5 74.5q-9 17 0 34q17 39 35 77.5t35 78.5q3 7 9 6t8 -6
q12 -25 32.5 -70.5t40 -100t33.5 -112.5t13 -108q0 -39 -7 -71.5t-20 -65.5t-31 -70t-40 -85q-20 -10 -63 -17t-91 -11t-92 -5.5t-67 -0.5v200q23 0 66.5 0.5t90.5 2.5t89.5 5t63.5 8z" />
    <glyph glyph-name="sf277.021" unicode="&#x67e;" horiz-adv-x="673" arabic-form="medial" 
d="M16 -306q-20 15 -10 34q25 34 49 68t49 67q8 9 13.5 8.5t12.5 -5.5q17 -14 35.5 -29t36.5 -28.5t34.5 -24t28.5 -14.5q11 -4 13 -2t11 14q10 11 29.5 34.5t55.5 66.5q8 9 13.5 6.5t9.5 -6.5q36 -29 59.5 -48t38 -30.5t21.5 -17t10 -7.5q2 0 6.5 -5t4.5 -10q0 -6 -4 -10
q-25 -32 -49.5 -63.5t-49.5 -63.5q-8 -10 -14 -9t-12 4q-35 22 -65 48.5t-62 58.5q-26 -31 -50 -63t-49 -64q-10 -12 -25.5 -5.5t-25.5 12.5q-18 10 -31 18.5t-26 18t-26.5 21t-31.5 26.5zM185 -512q5 7 18.5 23.5t28.5 34.5t28.5 34.5t18.5 22.5q8 10 14.5 9.5t11.5 -5.5
q36 -31 73 -59t60 -53q6 -5 5 -9.5t-6 -10.5q-22 -33 -46 -61.5t-47 -60.5q-11 -87 -27 -6q-13 7 -32.5 22t-39.5 32t-37 33.5t-25 27.5q-5 8 -4 13t6 13zM338 219q-27 -52 -67.5 -93.5t-89 -70t-104 -43.5t-112.5 -14v205q20 -2 34 -1.5t25 0.5q49 0 101.5 16t101 41.5
t91 58t72.5 65.5q9 10 14 7t5 -12q-4 -47 18 -77.5t56.5 -49.5t75.5 -28.5t74 -15.5q17 -3 36 -4t39 -1q0 -13 -0.5 -39.5t-1 -56.5t-1 -57.5t-0.5 -42.5q-92 -12 -127 -2q-43 5 -84.5 19.5t-74.5 40t-55 64t-26 91.5z" />
    <glyph glyph-name="sf277.026" unicode="&#x67e;" horiz-adv-x="1738" arabic-form="final" 
d="M549 -342q-20 15 -10 34q25 34 49 68t49 67q8 9 13.5 8.5t12.5 -5.5q17 -14 35.5 -29t36.5 -28.5t34.5 -24t28.5 -14.5q11 -4 13 -2t11 14q10 11 29.5 34.5t55.5 66.5q8 9 13.5 6.5t9.5 -6.5q36 -29 59.5 -48t38 -30.5t21.5 -17t10 -7.5q2 0 6.5 -5t4.5 -10q0 -6 -4 -10
q-25 -32 -49.5 -63.5t-49.5 -63.5q-8 -10 -14 -9t-12 4q-35 22 -65 48.5t-62 58.5q-26 -31 -50 -63t-49 -64q-10 -12 -25.5 -5.5t-25.5 12.5q-18 10 -31 18.5t-26 18t-26.5 21t-31.5 26.5zM718 -548q5 7 18.5 23.5t28.5 34.5t28.5 34.5t18.5 22.5q8 10 14.5 9.5t11.5 -5.5
q36 -31 73 -59t60 -53q6 -5 5 -9.5t-6 -10.5q-22 -33 -46 -61.5t-47 -60.5q-11 -17 -27 -6q-13 7 -32.5 22t-39.5 32t-37 33.5t-25 27.5q-5 8 -4 13t6 13zM1770 6q-45 -7 -88 -6q-56 3 -104 16.5t-83 43.5t-54 79.5t-17 124.5q-126 -85 -256.5 -141.5t-278.5 -90.5
q-73 -17 -162.5 -28t-180.5 -9.5t-177 20t-152.5 60.5t-106.5 111.5t-39 172.5q-2 27 2 66t13 82t22.5 85.5t29.5 75.5q7 19 21 19q5 0 8.5 -4.5t1.5 -15.5q-18 -52 -25 -92t-11 -81q-6 -57 12 -103t53 -81.5t83.5 -60.5t103 -41t112 -22.5t111.5 -4.5q79 2 154.5 11.5
t150 26t150.5 41t157 56.5q36 14 68 29t62.5 31.5t61 35t62.5 39.5q12 8 18 6.5t6 -16.5q-2 -75 18.5 -120.5t57.5 -71.5t88 -36t111 -13q0 -13 -0.5 -39.5t-1 -55.5t-1 -56.5t-0.5 -42.5z" />
    <glyph glyph-name="sf300.003" unicode="&#x62a;" horiz-adv-x="367" arabic-form="initial" 
d="M-83 907q-20 15 -10 34q25 34 49 67.5t49 67.5q8 9 13.5 8t12.5 -6q17 -14 35.5 -29t36.5 -28.5t34.5 -24t28.5 -14.5q11 -3 13 -1t11 13q10 11 29.5 35t55.5 67q8 8 13.5 5.5t9.5 -5.5q48 -39 74.5 -60t39 -31l15 -12t3.5 -3q6 -4 7.5 -10t-3.5 -12q-25 -32 -49.5 -63.5
t-48.5 -63.5q-9 -11 -15 -10t-12 5q-35 22 -65 48.5t-62 58.5q-26 -32 -50 -64t-49 -63q-10 -12 -25.5 -6t-25.5 13q-18 10 -31 18.5t-26 18t-26.5 21t-31.5 26.5zM195 216q1 39 -10.5 79t-28.5 79.5t-35.5 78t-30.5 74.5q-9 17 0 34q17 39 35 77.5t35 78.5q3 7 9 6t8 -6
q12 -25 32.5 -70.5t40 -100t33.5 -112.5t13 -108q0 -39 -7 -71.5t-20 -65.5t-31 -70t-40 -85q-20 -10 -50.5 -17t-63.5 -11t-64.5 -5.5t-54.5 -0.5v200q23 0 54 0.5t63 2.5t62 5t51 8z" />
    <glyph glyph-name="sf277.003" unicode="&#x62a;" horiz-adv-x="673" arabic-form="medial" 
d="M-33 637q-20 15 -10 34q25 34 49 67.5t49 67.5q8 9 13.5 8t12.5 -6q17 -14 35.5 -29t36.5 -28.5t34.5 -24t28.5 -14.5q11 -3 13 -1t11 13q10 11 29.5 35t55.5 67q8 8 13.5 5.5t9.5 -5.5q48 -39 74.5 -60t39 -31l15 -12t3.5 -3q6 -4 7.5 -10t-3.5 -12q-25 -32 -49.5 -63.5
t-48.5 -63.5q-9 -11 -15 -10t-12 5q-35 22 -65 48.5t-62 58.5q-26 -32 -50 -64t-49 -63q-10 -12 -25.5 -6t-25.5 13q-18 10 -31 18.5t-26 18t-26.5 21t-31.5 26.5zM338 219q-27 -52 -67.5 -93.5t-89 -70t-104 -43.5t-112.5 -14v205q20 -2 34 -1.5t25 0.5q49 0 101.5 16
t101 41.5t91 58t72.5 65.5q9 10 14 7t5 -12q-4 -47 18 -77.5t56.5 -49.5t75.5 -28.5t74 -15.5q17 -3 36 -4t39 -1q0 -13 -0.5 -39.5t-1 -56.5t-1 -57.5t-0.5 -42.5q-93 -12 -127 -2q-43 5 -84.5 19.5t-74.5 40t-55 64t-26 91.5z" />
    <glyph glyph-name="sf277.027" unicode="&#x62a;" horiz-adv-x="1738" arabic-form="final" 
d="M579 664q-20 15 -10 34q25 34 49 67.5t49 67.5q8 9 13.5 8t12.5 -6q17 -14 35.5 -29t36.5 -28.5t34.5 -24t28.5 -14.5q11 -3 13 -1t11 13q10 11 29.5 35t55.5 67q8 8 13.5 5.5t9.5 -5.5q48 -39 74.5 -60t39 -31l15 -12t3.5 -3q6 -4 7.5 -10t-3.5 -12q-25 -32 -49.5 -63.5
t-48.5 -63.5q-9 -11 -15 -10t-12 5q-35 22 -65 48.5t-62 58.5q-26 -32 -50 -64t-49 -63q-10 -12 -25.5 -6t-25.5 13q-18 10 -31 18.5t-26 18t-26.5 21t-31.5 26.5zM1770 6q-45 -7 -88 -6q-56 3 -104 16.5t-83 43.5t-54 79.5t-17 124.5q-126 -85 -256.5 -141.5t-278.5 -90.5
q-73 -17 -162.5 -28t-180.5 -9.5t-177 20t-152.5 60.5t-106.5 111.5t-39 172.5q-2 27 2 66t13 82t22.5 85.5t29.5 75.5q7 19 21 19q5 0 8.5 -4.5t1.5 -15.5q-18 -52 -25 -92t-11 -81q-6 -57 12 -103t53 -81.5t83.5 -60.5t103 -41t112 -22.5t111.5 -4.5q79 2 154.5 11.5
t150 26t150.5 41t157 56.5q36 14 68 29t62.5 31.5t61 35t62.5 39.5q12 8 18 6.5t6 -16.5q-2 -75 18.5 -120.5t57.5 -71.5t88 -36t111 -13q0 -13 -0.5 -39.5t-1 -55.5t-1 -56.5t-0.5 -42.5z" />
    <glyph glyph-name="sf300.004" unicode="&#x679;" horiz-adv-x="367" arabic-form="initial" 
d="M209 1010q-20 0 -39.5 -8.5t-37.5 -21t-34 -27t-28 -26.5q14 1 36 0.5t49 1t57.5 7.5t61.5 21q-6 27 -26.5 40.5t-38.5 12.5zM34 933q14 18 27 39.5t21 43.5q0 54 -2 106t0 106q-8 14 -17.5 24t-9.5 26q10 18 20.5 36t21.5 35q3 3 8 6t8 -3q6 -23 23.5 -43t36.5 -38
q-9 -26 -19.5 -46t-20.5 -33q1 -48 0 -77.5t-3 -46t-3.5 -23.5t-1.5 -10q24 21 53.5 41t63.5 20q48 0 77 -30t27 -78q-10 -14 -30 -43t-47 -53q-25 -15 -56.5 -25t-65 -16t-66.5 -8.5t-61 -2.5q-12 0 -19 1t-19 6.5t-35 18.5t-67 37q-13 6 -10.5 10t15.5 5q21 2 44.5 1.5
t45.5 -0.5q21 0 37.5 2.5t23.5 11.5zM195 216q1 39 -10.5 79t-28.5 79.5t-35.5 78t-30.5 74.5q-9 17 0 34q17 39 35 77.5t35 78.5q3 7 9 6t8 -6q12 -25 32.5 -70.5t40 -100t33.5 -112.5t13 -108q0 -39 -7 -71.5t-20 -65.5t-31 -70t-40 -85q-20 -10 -50.5 -17t-63.5 -11
t-64.5 -5.5t-54.5 -0.5v200q23 0 54 0.5t63 2.5t62 5t51 8z" />
    <glyph glyph-name="sf277.043" unicode="&#x679;" horiz-adv-x="673" arabic-form="medial" 
d="M253 679q-16 0 -32.5 -7t-31.5 -17t-28.5 -22.5t-23.5 -22.5q12 1 30 0.5t40.5 1t48 6.5t51.5 17q-5 23 -22 34t-32 10zM107 615q12 15 22.5 33t17.5 36q0 45 -1.5 88.5t-0.5 88.5q-6 12 -14 20t-8 22q8 15 17 30t18 29q2 2 6.5 4.5t6.5 -2.5q5 -19 19.5 -35.5
t30.5 -31.5q-7 -22 -16 -38.5t-17 -27.5q1 -40 0 -64.5t-2.5 -38t-3 -19.5t-1.5 -9q20 18 44.5 34.5t53.5 16.5q38 0 63.5 -25t22.5 -65q-8 -12 -24.5 -36t-39.5 -44q-20 -12 -46.5 -20t-54.5 -13.5t-56 -7.5t-50 -2q-11 0 -16.5 0.5t-15.5 5.5t-29 15.5t-56 30.5
q-11 5 -9 8.5t13 4.5q18 1 37.5 0.5t37.5 0t31.5 2.5t19.5 9zM338 219q-27 -52 -67.5 -93.5t-89 -70t-104 -43.5t-112.5 -14v205q20 -2 34 -1.5t25 0.5q49 0 101.5 16t101 41.5t91 58t72.5 65.5q9 10 14 7t5 -12q-4 -47 18 -77.5t56.5 -49.5t75.5 -28.5t74 -15.5
q17 -3 36 -4t39 -1q0 -13 -0.5 -39.5t-1 -56.5t-1 -57.5t-0.5 -42.5q-93 -12 -127 -2q-43 5 -84.5 19.5t-74.5 40t-55 64t-26 91.5z" />
    <glyph glyph-name="sf277.028" unicode="&#x679;" horiz-adv-x="1738" arabic-form="final" 
d="M904 738q-20 0 -39.5 -8.5t-37.5 -21t-34 -27t-28 -26.5q14 1 36 0.5t49 1t57.5 7.5t61.5 21q-6 27 -26.5 40.5t-38.5 12.5zM729 661q14 18 27 39.5t21 43.5q0 54 -2 106t0 106q-8 14 -17.5 24t-9.5 26q10 18 20.5 36t21.5 35q3 3 8 6t8 -3q6 -23 23.5 -43t36.5 -38
q-9 -26 -19.5 -46t-20.5 -33q1 -48 0 -77.5t-3 -46t-3.5 -23.5t-1.5 -10q24 21 53.5 41t63.5 20q48 0 77 -30t27 -78q-10 -14 -30 -43t-47 -53q-25 -15 -56.5 -25t-65 -16t-66.5 -8.5t-61 -2.5q-12 0 -19 1t-19 6.5t-35 18.5t-67 37q-13 6 -10.5 10t15.5 5q21 2 44.5 1.5
t44.5 -0.5q22 0 38.5 2.5t23.5 11.5zM1770 6q-45 -7 -88 -6q-56 3 -104 16.5t-83 43.5t-54 79.5t-17 124.5q-126 -85 -256.5 -141.5t-278.5 -90.5q-73 -17 -162.5 -28t-180.5 -9.5t-177 20t-152.5 60.5t-106.5 111.5t-39 172.5q-2 27 2 66t13 82t22.5 85.5t29.5 75.5
q7 19 21 19q5 0 8.5 -4.5t1.5 -15.5q-18 -52 -25 -92t-11 -81q-6 -57 12 -103t53 -81.5t83.5 -60.5t103 -41t112 -22.5t111.5 -4.5q79 2 154.5 11.5t150 26t150.5 41t157 56.5q36 14 68 29t62.5 31.5t61 35t62.5 39.5q12 8 18 6.5t6 -16.5q-2 -75 18.5 -120.5t57.5 -71.5
t88 -36t111 -13q0 -13 -0.5 -39.5t-1 -55.5t-1 -56.5t-0.5 -42.5z" />
    <glyph glyph-name="sf300.005" unicode="&#x62b;" horiz-adv-x="367" arabic-form="initial" 
d="M12 1204q5 6 18.5 22.5t28.5 34.5t28.5 34.5t19.5 23.5q8 10 14 9t11 -6q37 -31 73.5 -59t60.5 -52q5 -6 4 -10t-6 -11q-22 -32 -46 -61t-47 -60q-10 -16 -27 -7q-13 7 -32.5 22t-39 32t-36.5 33.5t-25 27.5q-6 9 -5 13.5t6 13.5zM-87 880q-21 15 -10 33q25 35 49 68.5
t49 67.5q8 8 14 7.5t12 -5.5q19 -14 36.5 -28.5t34.5 -28.5q18 -13 36 -24.5t28 -15.5q11 -3 13 -0.5t11 13.5q10 11 29.5 35t55.5 67q8 8 13.5 5.5t9.5 -5.5q48 -39 74.5 -60t39 -31l15 -12t3.5 -3q14 -11 4 -23q-24 -32 -49 -63.5t-49 -63.5q-9 -10 -15 -9t-12 5
q-35 22 -65 48.5t-62 58.5q-26 -32 -50 -64t-49 -63q-10 -12 -25 -6t-26 12q-18 11 -31 20t-25.5 18t-26.5 20.5t-32 26.5zM195 216q1 39 -10.5 79t-28.5 79.5t-35.5 78t-30.5 74.5q-9 17 0 34q17 39 35 77.5t35 78.5q3 7 9 6t8 -6q12 -25 32.5 -70.5t40 -100t33.5 -112.5
t13 -108q0 -39 -7 -71.5t-20 -65.5t-31 -70t-40 -85q-20 -10 -50.5 -17t-63.5 -11t-64.5 -5.5t-54.5 -0.5v200q23 0 54 0.5t63 2.5t62 5t51 8z" />
    <glyph glyph-name="sf277.022" unicode="&#x62b;" horiz-adv-x="673" arabic-form="medial" 
d="M70 977q5 6 18.5 22.5t28.5 34.5t28.5 34.5t19.5 23.5q8 10 14 9t11 -6q37 -31 73.5 -59t60.5 -52q5 -6 4 -10t-6 -11q-22 -32 -46 -61t-47 -60q-10 -16 -27 -7q-13 7 -32.5 22t-39 32t-36.5 33.5t-25 27.5q-6 9 -5 13.5t6 13.5zM-29 653q-21 15 -10 33q25 35 49 68.5
t49 67.5q8 8 14 7.5t12 -5.5q19 -14 36.5 -28.5t34.5 -28.5q18 -13 36 -24.5t28 -15.5q11 -3 13 -0.5t11 13.5q10 11 29.5 35t55.5 67q8 8 13.5 5.5t9.5 -5.5q48 -39 74.5 -60t39 -31l15 -12t3.5 -3q14 -11 4 -23q-24 -32 -49 -63.5t-49 -63.5q-9 -10 -15 -9t-12 5
q-35 22 -65 48.5t-62 58.5q-26 -32 -50 -64t-49 -63q-10 -12 -25 -6t-26 12q-18 11 -31 20t-25.5 18t-26.5 20.5t-32 26.5zM338 219q-27 -52 -67.5 -93.5t-89 -70t-104 -43.5t-112.5 -14v205q20 -2 34 -1.5t25 0.5q49 0 101.5 16t101 41.5t91 58t72.5 65.5q9 10 14 7t5 -12
q-4 -47 18 -77.5t56.5 -49.5t75.5 -28.5t74 -15.5q17 -3 36 -4t39 -1q0 -13 -0.5 -39.5t-1 -56.5t-1 -57.5t-0.5 -42.5q-92 -12 -127 -2q-43 5 -84.5 19.5t-74.5 40t-55 64t-26 91.5z" />
    <glyph glyph-name="sf277.029" unicode="&#x62b;" horiz-adv-x="1738" arabic-form="final" 
d="M661 913q5 6 18.5 22.5t28.5 34.5t28.5 34.5t19.5 23.5q8 10 14 9t11 -6q37 -31 73.5 -59t60.5 -52q5 -6 4 -10t-6 -11q-22 -32 -46 -61t-47 -60q-10 -16 -27 -7q-13 7 -32.5 22t-39 32t-36.5 33.5t-25 27.5q-6 9 -5 13.5t6 13.5zM562 589q-21 15 -10 33q25 35 49 68.5
t49 67.5q8 8 14 7.5t12 -5.5q19 -14 36.5 -28.5t34.5 -28.5q18 -13 36 -24.5t28 -15.5q11 -3 13 -0.5t11 13.5q10 11 29.5 35t55.5 67q8 8 13.5 5.5t9.5 -5.5q48 -39 74.5 -60t39 -31l15 -12t3.5 -3q14 -11 4 -23q-24 -32 -49 -63.5t-49 -63.5q-9 -10 -15 -9t-12 5
q-35 22 -65 48.5t-62 58.5q-26 -32 -50 -64t-49 -63q-10 -12 -25 -6t-26 12q-18 11 -31 20t-25.5 18t-26.5 20.5t-32 26.5zM1770 6q-45 -7 -88 -6q-56 3 -104 16.5t-83 43.5t-54 79.5t-17 124.5q-126 -85 -256.5 -141.5t-278.5 -90.5q-73 -17 -162.5 -28t-180.5 -9.5
t-177 20t-152.5 60.5t-106.5 111.5t-39 172.5q-2 27 2 66t13 82t22.5 85.5t29.5 75.5q7 19 21 19q5 0 8.5 -4.5t1.5 -15.5q-18 -52 -25 -92t-11 -81q-6 -57 12 -103t53 -81.5t83.5 -60.5t103 -41t112 -22.5t111.5 -4.5q79 2 154.5 11.5t150 26t150.5 41t157 56.5
q36 14 68 29t62.5 31.5t61 35t62.5 39.5q12 8 18 6.5t6 -16.5q-2 -75 18.5 -120.5t57.5 -71.5t88 -36t111 -13q0 -13 -0.5 -39.5t-1 -55.5t-1 -56.5t-0.5 -42.5z" />
    <glyph glyph-name="sf304.001" unicode="&#x62c;" horiz-adv-x="999" arabic-form="initial" 
d="M347 -284q5 7 18 23.5t28 35t29 34.5t20 22q8 10 14 9.5t12 -5.5q36 -31 72.5 -59t60.5 -53q5 -5 4 -9.5t-6 -10.5q-22 -32 -46 -61t-47 -60q-10 -18 -27 -7q-13 7 -32.5 22t-39 32t-36.5 33.5t-25 27.5q-6 8 -5 13t6 13zM61 561q3 8 19 15t36 12t39.5 7.5t29.5 2.5
q39 0 76.5 -9.5t73.5 -24t71 -32.5t68 -35q95 -60 171 -95t136.5 -52t107 -21.5t82.5 -4.5h6q5 0 8.5 -2.5t-2.5 -11.5q-20 -32 -42.5 -63t-45.5 -68q-5 -6 -39 -0.5t-89.5 7.5t-129 -7t-155.5 -43q-114 -53 -192.5 -80.5t-136.5 -39.5t-101.5 -13.5t-86.5 -2.5l2 204
q72 -2 128.5 2.5t109 16.5t107.5 32.5t124 50.5q4 4 0 8q-41 25 -87.5 54t-95.5 50t-98.5 29t-97.5 -9q-8 -3 -14 -7t-11 -2q-4 1 -9 7t-1 21q1 2 3 7.5t6 17t11 30.5t19 49z" />
    <glyph glyph-name="sf323" unicode="&#x62c;" horiz-adv-x="974" arabic-form="medial" 
d="M253 -268q5 7 18 23.5t28 35t29 34.5t20 22q8 10 14 9.5t12 -5.5q36 -31 72.5 -59t60.5 -53q5 -5 4 -9.5t-6 -10.5q-22 -32 -46 -61t-47 -60q-10 -18 -27 -7q-13 7 -32.5 22t-39 32t-36.5 33.5t-25 27.5q-6 8 -5 13t6 13zM726 265q30 -21 63 -33t69 -18.5t74 -8.5t77 -3
q0 -13 -0.5 -39.5t-1 -56.5t-1 -57.5t-0.5 -42.5q-21 -3 -29 -4.5t-13.5 -2t-13 0t-26.5 1.5q-92 2 -147 24.5t-84.5 57.5t-40 78t-13.5 87q-96 -52 -173.5 -99t-153.5 -81.5t-158.5 -53t-188.5 -13.5l2 199q81 -1 151.5 9t137 30.5t132 52t137.5 72.5q-47 30 -99.5 61.5
t-105.5 55.5t-103 37.5t-92 7.5q-16 -1 -32 -7.5t-28 -9t-17 2.5t1 28q8 25 19.5 51.5t17.5 44.5q22 28 66 36.5t94 2.5t99.5 -23.5t83.5 -39.5q76 -43 135 -74.5t105 -53t82 -35.5t67 -23.5t59 -15t59 -10.5q15 0 16 -6t-5 -17q-12 -23 -38 -54t-46 -68q-21 -2 -42.5 1.5
t-40 7.5t-33 5.5t-21.5 -4.5z" />
    <glyph glyph-name="sf277.030" unicode="&#x62c;" horiz-adv-x="1078" arabic-form="final" 
d="M539 -200q5 7 18 23.5t28 35t29 34.5t20 22q8 10 14 9.5t12 -5.5q36 -31 72.5 -59t60.5 -53q5 -5 4 -9.5t-6 -10.5q-22 -32 -46 -61t-47 -60q-10 -18 -27 -7q-13 7 -32.5 22t-39 32t-36.5 33.5t-25 27.5q-6 8 -5 13t6 13zM1113 6q-8 -2 -8 -3q0 -2 0.5 -2.5t-8.5 -0.5
h-18h-49h-40h-24h-14q-12 0 -13 1q-49 0 -96.5 8t-85 28t-60.5 55.5t-23 90.5q-1 1 -1 9v10v20v39v78q-3 1 -17 -3t-32 -10l-37.5 -12.5t-33.5 -10.5q-78 -29 -153 -71t-134.5 -99.5t-95.5 -132.5t-36 -170q0 -64 19 -121.5t52 -107t78.5 -91t98 -73.5t110.5 -53.5
t116 -31.5q44 -9 98 -13t112 -5.5t117 0t114 3t103 3.5t83 2q34 0 40.5 -3.5t-1 -8.5t-22.5 -10.5t-23 -9.5q-23 -9 -66.5 -23.5t-99 -30.5t-118.5 -32t-124.5 -29t-117 -20.5t-95.5 -6.5q-130 4 -230.5 46t-168.5 115.5t-103.5 176.5t-35.5 229q0 90 22 184.5t66 181.5
t110.5 160.5t156.5 121.5l10 5q6 3 4 4.5t-18 4.5q-26 5 -54.5 11.5t-57.5 12t-57 9t-53 1.5q-24 -2 -44 -11.5t-54 -27.5q-8 0 -12 5t-6 11.5t-1 13.5t4 11q22 46 33 82t25.5 60t38.5 36t73 11q12 0 50 -6.5t97 -15.5t136 -19t167 -17q23 -1 53 -2t61.5 -2t63.5 -1.5
t59 -0.5q11 0 12 -3.5t-2 -12.5q-7 -21 -20.5 -44.5t-28.5 -45.5t-28.5 -41t-20.5 -30q-6 -2 -26.5 -3.5t-43.5 -5t-42.5 -9.5t-22.5 -18q2 -41 20.5 -67t54.5 -42t90 -23t128 -9q15 0 19.5 -0.5t5.5 -0.5t1 -1h6h11h9q12 0 13 1q1 -1 9 -1h9h20q0 -13 -0.5 -39.5t-1 -56.5
t-1 -57.5t-0.5 -42.5z" />
    <glyph glyph-name="sf304.002" unicode="&#x686;" horiz-adv-x="997" arabic-form="initial" 
d="M170 -271q-20 15 -10 34q25 34 49 68t49 67q8 9 13.5 8.5t12.5 -5.5q17 -14 35.5 -29t36.5 -28.5t34.5 -24t28.5 -14.5q11 -4 13 -2t11 14q10 11 29.5 34.5t55.5 66.5q8 9 13.5 6.5t9.5 -6.5q36 -29 59.5 -48t38 -30.5t21.5 -17t10 -7.5q2 0 6.5 -5t4.5 -10q0 -6 -4 -10
q-25 -32 -49.5 -63.5t-49.5 -63.5q-8 -10 -14 -9t-12 4q-35 22 -65 48.5t-62 58.5q-26 -31 -50 -63t-49 -64q-10 -12 -25.5 -5.5t-25.5 12.5q-18 10 -31 18.5t-26 18t-26.5 21t-31.5 26.5zM339 -477q5 7 18.5 23.5t28.5 34.5t28.5 34.5t18.5 22.5q8 10 14.5 9.5t11.5 -5.5
q36 -31 73 -59t60 -53q6 -5 5 -9.5t-6 -10.5q-22 -33 -46 -61.5t-47 -60.5q-11 -17 -27 -6q-13 7 -32.5 22t-39.5 32t-37 33.5t-25 27.5q-5 8 -4 13t6 13zM61 561q3 8 19 15t36 12t39.5 7.5t29.5 2.5q39 0 76.5 -9.5t73.5 -24t71 -32.5t68 -35q95 -60 171 -95t136.5 -52
t107 -21.5t82.5 -4.5h6q5 0 8.5 -2.5t-2.5 -11.5q-20 -32 -42.5 -63t-45.5 -68q-5 -6 -39 -0.5t-89.5 7.5t-129 -7t-155.5 -43q-114 -53 -192.5 -80.5t-136.5 -39.5t-101.5 -13.5t-86.5 -2.5l2 204q72 -2 128.5 2.5t109 16.5t107.5 32.5t124 50.5q4 4 0 8q-41 25 -87.5 54
t-95.5 50t-98.5 29t-97.5 -9q-8 -3 -14 -7t-11 -2q-4 1 -9 7t-1 21q1 2 3 7.5t6 17t11 30.5t19 49z" />
    <glyph glyph-name="sf323.001" unicode="&#x686;" horiz-adv-x="974" arabic-form="medial" 
d="M195 -271q-20 15 -10 34q25 34 49 68t49 67q8 9 13.5 8.5t12.5 -5.5q17 -14 35.5 -29t36.5 -28.5t34.5 -24t28.5 -14.5q11 -4 13 -2t11 14q10 11 29.5 34.5t55.5 66.5q8 9 13.5 6.5t9.5 -6.5q36 -29 59.5 -48t38 -30.5t21.5 -17t10 -7.5q2 0 6.5 -5t4.5 -10q0 -6 -4 -10
q-25 -32 -49.5 -63.5t-49.5 -63.5q-8 -10 -14 -9t-12 4q-35 22 -65 48.5t-62 58.5q-26 -31 -50 -63t-49 -64q-10 -12 -25.5 -5.5t-25.5 12.5q-18 10 -31 18.5t-26 18t-26.5 21t-31.5 26.5zM364 -477q5 7 18.5 23.5t28.5 34.5t28.5 34.5t18.5 22.5q8 10 14.5 9.5t11.5 -5.5
q36 -31 73 -59t60 -53q6 -5 5 -9.5t-6 -10.5q-22 -33 -46 -61.5t-47 -60.5q-11 -17 -27 -6q-13 7 -32.5 22t-39.5 32t-37 33.5t-25 27.5q-5 8 -4 13t6 13zM726 265q30 -21 63 -33t69 -18.5t74 -8.5t77 -3q0 -13 -0.5 -39.5t-1 -56.5t-1 -57.5t-0.5 -42.5q-21 -3 -29 -4.5
t-13.5 -2t-13 0t-26.5 1.5q-92 2 -147 24.5t-84.5 57.5t-40 78t-13.5 87q-96 -52 -173.5 -99t-153.5 -81.5t-158.5 -53t-188.5 -13.5l2 199q81 -1 151.5 9t137 30.5t132 52t137.5 72.5q-47 30 -99.5 61.5t-105.5 55.5t-103 37.5t-92 7.5q-16 -1 -32 -7.5t-28 -9t-17 2.5
t1 28q8 25 19.5 51.5t17.5 44.5q22 28 66 36.5t94 2.5t99.5 -23.5t83.5 -39.5q76 -43 135 -74.5t105 -53t82 -35.5t67 -23.5t59 -15t59 -10.5q15 0 16 -6t-5 -17q-12 -23 -38 -54t-46 -68q-21 -2 -42.5 1.5t-40 7.5t-33 5.5t-21.5 -4.5z" />
    <glyph glyph-name="sf277.031" unicode="&#x686;" horiz-adv-x="1078" arabic-form="final" 
d="M368 -221q-20 15 -10 34q25 34 49 68t49 67q8 9 13.5 8.5t12.5 -5.5q17 -14 35.5 -29t36.5 -28.5t34.5 -24t28.5 -14.5q11 -4 13 -2t11 14q10 11 29.5 34.5t55.5 66.5q8 9 13.5 6.5t9.5 -6.5q36 -29 59.5 -48t38 -30.5t21.5 -17t10 -7.5q2 0 6.5 -5t4.5 -10q0 -6 -4 -10
q-25 -32 -49.5 -63.5t-49.5 -63.5q-8 -10 -14 -9t-12 4q-35 22 -65 48.5t-62 58.5q-26 -31 -50 -63t-49 -64q-10 -12 -25.5 -5.5t-25.5 12.5q-18 10 -31 18.5t-26 18t-26.5 21t-31.5 26.5zM537 -427q5 7 18.5 23.5t28.5 34.5t28.5 34.5t18.5 22.5q8 10 14.5 9.5t11.5 -5.5
q36 -31 73 -59t60 -53q6 -5 5 -9.5t-6 -10.5q-22 -33 -46 -61.5t-47 -60.5q-11 -17 -27 -6q-13 7 -32.5 22t-39.5 32t-37 33.5t-25 27.5q-5 8 -4 13t6 13zM1113 6q-8 -2 -8 -3q0 -2 0.5 -2.5t-8.5 -0.5h-18h-49h-40h-24h-14q-12 0 -13 1q-49 0 -96.5 8t-85 28t-60.5 55.5
t-23 90.5q-1 1 -1 9v10v20v39v78q-3 1 -17 -3t-32 -10l-37.5 -12.5t-33.5 -10.5q-78 -29 -153 -71t-134.5 -99.5t-95.5 -132.5t-36 -170q0 -64 19 -121.5t52 -107t78.5 -91t98 -73.5t110.5 -53.5t116 -31.5q44 -9 98 -13t112 -5.5t117 0t114 3t103 3.5t83 2q34 0 40.5 -3.5
t-1 -8.5t-22.5 -10.5t-23 -9.5q-23 -9 -66.5 -23.5t-99 -30.5t-118.5 -32t-124.5 -29t-117 -20.5t-95.5 -6.5q-130 4 -230.5 46t-168.5 115.5t-103.5 176.5t-35.5 229q0 90 22 184.5t66 181.5t110.5 160.5t156.5 121.5l10 5q6 3 4 4.5t-18 4.5q-26 5 -54.5 11.5t-57.5 12
t-57 9t-53 1.5q-24 -2 -44 -11.5t-54 -27.5q-8 0 -12 5t-6 11.5t-1 13.5t4 11q22 46 33 82t25.5 60t38.5 36t73 11q12 0 50 -6.5t97 -15.5t136 -19t167 -17q23 -1 53 -2t61.5 -2t63.5 -1.5t59 -0.5q11 0 12 -3.5t-2 -12.5q-7 -21 -20.5 -44.5t-28.5 -45.5t-28.5 -41
t-20.5 -30q-6 -2 -26.5 -3.5t-43.5 -5t-42.5 -9.5t-22.5 -18q2 -41 20.5 -67t54.5 -42t90 -23t128 -9q15 0 19.5 -0.5t5.5 -0.5t1 -1h6h11h9q12 0 13 1q1 -1 9 -1h9h20q0 -13 -0.5 -39.5t-1 -56.5t-1 -57.5t-0.5 -42.5z" />
    <glyph glyph-name="sf304.003" unicode="&#x62d;" horiz-adv-x="999" arabic-form="initial" 
d="M61 561q3 8 19 15t36 12t39.5 7.5t29.5 2.5q39 0 76.5 -9.5t73.5 -24t71 -32.5t68 -35q95 -60 171 -95t136.5 -52t107 -21.5t82.5 -4.5h6q5 0 8.5 -2.5t-2.5 -11.5q-20 -32 -42.5 -63t-45.5 -68q-5 -6 -39 -0.5t-89.5 7.5t-129 -7t-155.5 -43q-114 -53 -192.5 -80.5
t-136.5 -39.5t-101.5 -13.5t-86.5 -2.5l2 204q72 -2 128.5 2.5t109 16.5t107.5 32.5t124 50.5q4 4 0 8q-41 25 -87.5 54t-95.5 50t-98.5 29t-97.5 -9q-8 -3 -14 -7t-11 -2q-4 1 -9 7t-1 21q1 2 3 7.5t6 17t11 30.5t19 49z" />
    <glyph glyph-name="sf323.002" unicode="&#x62d;" horiz-adv-x="974" arabic-form="medial" 
d="M726 265q30 -21 63 -33t69 -18.5t74 -8.5t77 -3q0 -13 -0.5 -39.5t-1 -56.5t-1 -57.5t-0.5 -42.5q-21 -3 -29 -4.5t-13.5 -2t-13 0t-26.5 1.5q-92 2 -147 24.5t-84.5 57.5t-40 78t-13.5 87q-96 -52 -173.5 -99t-153.5 -81.5t-158.5 -53t-188.5 -13.5l2 199q81 -1 151.5 9
t137 30.5t132 52t137.5 72.5q-47 30 -99.5 61.5t-105.5 55.5t-103 37.5t-92 7.5q-16 -1 -32 -7.5t-28 -9t-17 2.5t1 28q8 25 19.5 51.5t17.5 44.5q22 28 66 36.5t94 2.5t99.5 -23.5t83.5 -39.5q76 -43 135 -74.5t105 -53t82 -35.5t67 -23.5t59 -15t59 -10.5q15 0 16 -6
t-5 -17q-12 -23 -38 -54t-46 -68q-21 -2 -42.5 1.5t-40 7.5t-33 5.5t-21.5 -4.5z" />
    <glyph glyph-name="sf277.032" unicode="&#x62d;" horiz-adv-x="1078" arabic-form="final" 
d="M1113 6q-8 -2 -8 -3q0 -2 0.5 -2.5t-8.5 -0.5h-18h-49h-40h-24h-14q-12 0 -13 1q-49 0 -96.5 8t-85 28t-60.5 55.5t-23 90.5q-1 1 -1 9v10v20v39v78q-3 1 -17 -3t-32 -10l-37.5 -12.5t-33.5 -10.5q-78 -29 -153 -71t-134.5 -99.5t-95.5 -132.5t-36 -170q0 -64 19 -121.5
t52 -107t78.5 -91t98 -73.5t110.5 -53.5t116 -31.5q44 -9 98 -13t112 -5.5t117 0t114 3t103 3.5t83 2q34 0 40.5 -3.5t-1 -8.5t-22.5 -10.5t-23 -9.5q-23 -9 -66.5 -23.5t-99 -30.5t-118.5 -32t-124.5 -29t-117 -20.5t-95.5 -6.5q-130 4 -230.5 46t-168.5 115.5
t-103.5 176.5t-35.5 229q0 90 22 184.5t66 181.5t110.5 160.5t156.5 121.5l10 5q6 3 4 4.5t-18 4.5q-26 5 -54.5 11.5t-57.5 12t-57 9t-53 1.5q-24 -2 -44 -11.5t-54 -27.5q-8 0 -12 5t-6 11.5t-1 13.5t4 11q22 46 33 82t25.5 60t38.5 36t73 11q12 0 50 -6.5t97 -15.5
t136 -19t167 -17q23 -1 53 -2t61.5 -2t63.5 -1.5t59 -0.5q11 0 12 -3.5t-2 -12.5q-7 -21 -20.5 -44.5t-28.5 -45.5t-28.5 -41t-20.5 -30q-6 -2 -26.5 -3.5t-43.5 -5t-42.5 -9.5t-22.5 -18q2 -41 20.5 -67t54.5 -42t90 -23t128 -9q15 0 19.5 -0.5t5.5 -0.5t1 -1h6h11h9
q12 0 13 1q1 -1 9 -1h9h20q0 -13 -0.5 -39.5t-1 -56.5t-1 -57.5t-0.5 -42.5z" />
    <glyph glyph-name="sf304.004" unicode="&#x62e;" horiz-adv-x="999" arabic-form="initial" 
d="M391 904q5 7 18 23.5t28 35t29 34.5t20 22q8 10 14 9.5t12 -5.5q36 -31 72.5 -59t60.5 -53q5 -5 4 -9.5t-6 -10.5q-22 -32 -46 -61t-47 -60q-10 -18 -27 -7q-13 7 -32.5 22t-39 32t-36.5 33.5t-25 27.5q-6 8 -5 13t6 13zM61 561q3 8 19 15t36 12t39.5 7.5t29.5 2.5
q39 0 76.5 -9.5t73.5 -24t71 -32.5t68 -35q95 -60 171 -95t136.5 -52t107 -21.5t82.5 -4.5h6q5 0 8.5 -2.5t-2.5 -11.5q-20 -32 -42.5 -63t-45.5 -68q-5 -6 -39 -0.5t-89.5 7.5t-129 -7t-155.5 -43q-114 -53 -192.5 -80.5t-136.5 -39.5t-101.5 -13.5t-86.5 -2.5l2 204
q72 -2 128.5 2.5t109 16.5t107.5 32.5t124 50.5q4 4 0 8q-41 25 -87.5 54t-95.5 50t-98.5 29t-97.5 -9q-8 -3 -14 -7t-11 -2q-4 1 -9 7t-1 21q1 2 3 7.5t6 17t11 30.5t19 49z" />
    <glyph glyph-name="sf323.003" unicode="&#x62e;" horiz-adv-x="974" arabic-form="medial" 
d="M398 945q5 7 18 23.5t28 35t29 34.5t20 22q8 10 14 9.5t12 -5.5q36 -31 72.5 -59t60.5 -53q5 -5 4 -9.5t-6 -10.5q-22 -32 -46 -61t-47 -60q-10 -18 -27 -7q-13 7 -32.5 22t-39 32t-36.5 33.5t-25 27.5q-6 8 -5 13t6 13zM726 265q30 -21 63 -33t69 -18.5t74 -8.5t77 -3
q0 -13 -0.5 -39.5t-1 -56.5t-1 -57.5t-0.5 -42.5q-21 -3 -29 -4.5t-13.5 -2t-13 0t-26.5 1.5q-92 2 -147 24.5t-84.5 57.5t-40 78t-13.5 87q-96 -52 -173.5 -99t-153.5 -81.5t-158.5 -53t-188.5 -13.5l2 199q81 -1 151.5 9t137 30.5t132 52t137.5 72.5q-47 30 -99.5 61.5
t-105.5 55.5t-103 37.5t-92 7.5q-16 -1 -32 -7.5t-28 -9t-17 2.5t1 28q8 25 19.5 51.5t17.5 44.5q22 28 66 36.5t94 2.5t99.5 -23.5t83.5 -39.5q76 -43 135 -74.5t105 -53t82 -35.5t67 -23.5t59 -15t59 -10.5q15 0 16 -6t-5 -17q-12 -23 -38 -54t-46 -68q-21 -2 -42.5 1.5
t-40 7.5t-33 5.5t-21.5 -4.5z" />
    <glyph glyph-name="sf277.001" unicode="&#x62e;" horiz-adv-x="1078" arabic-form="final" 
d="M418 970q5 7 18 23.5t28 35t29 34.5t20 22q8 10 14 9.5t12 -5.5q36 -31 72.5 -59t60.5 -53q5 -5 4 -9.5t-6 -10.5q-22 -32 -46 -61t-47 -60q-10 -18 -27 -7q-13 7 -32.5 22t-39 32t-36.5 33.5t-25 27.5q-6 8 -5 13t6 13zM1113 6q-8 -2 -8 -3q0 -2 0.5 -2.5t-8.5 -0.5h-18
h-49h-40h-24h-14q-12 0 -13 1q-49 0 -96.5 8t-85 28t-60.5 55.5t-23 90.5q-1 1 -1 9v10v20v39v78q-3 1 -17 -3t-32 -10l-37.5 -12.5t-33.5 -10.5q-78 -29 -153 -71t-134.5 -99.5t-95.5 -132.5t-36 -170q0 -64 19 -121.5t52 -107t78.5 -91t98 -73.5t110.5 -53.5t116 -31.5
q44 -9 98 -13t112 -5.5t117 0t114 3t103 3.5t83 2q34 0 40.5 -3.5t-1 -8.5t-22.5 -10.5t-23 -9.5q-23 -9 -66.5 -23.5t-99 -30.5t-118.5 -32t-124.5 -29t-117 -20.5t-95.5 -6.5q-130 4 -230.5 46t-168.5 115.5t-103.5 176.5t-35.5 229q0 90 22 184.5t66 181.5t110.5 160.5
t156.5 121.5l10 5q6 3 4 4.5t-18 4.5q-26 5 -54.5 11.5t-57.5 12t-57 9t-53 1.5q-24 -2 -44 -11.5t-54 -27.5q-8 0 -12 5t-6 11.5t-1 13.5t4 11q22 46 33 82t25.5 60t38.5 36t73 11q12 0 50 -6.5t97 -15.5t136 -19t167 -17q23 -1 53 -2t61.5 -2t63.5 -1.5t59 -0.5
q11 0 12 -3.5t-2 -12.5q-7 -21 -20.5 -44.5t-28.5 -45.5t-28.5 -41t-20.5 -30q-6 -2 -26.5 -3.5t-43.5 -5t-42.5 -9.5t-22.5 -18q2 -41 20.5 -67t54.5 -42t90 -23t128 -9q15 0 19.5 -0.5t5.5 -0.5t1 -1h6h11h9q12 0 13 1q1 -1 9 -1h9h20q0 -13 -0.5 -39.5t-1 -56.5t-1 -57.5
t-0.5 -42.5z" />
    <glyph glyph-name="sf277.014" unicode="&#x62f;" horiz-adv-x="1015" arabic-form="final" 
d="M676 301q-4 -8 -10.5 -26.5t-20.5 -66.5q-13 -39 -38.5 -69t-59 -52t-72.5 -37.5t-79 -25t-79 -13.5t-71 -4q-40 0 -73.5 13t-57 36.5t-35.5 56t-9 70.5q1 15 2.5 34t3 39t3 39.5t3.5 34.5q7 28 18 28q14 0 12 -32q-1 -22 1.5 -36t8.5 -24t14.5 -17.5t18.5 -16.5
q13 -11 30.5 -17.5t37 -10t39.5 -4.5t38 -1t51 4t70.5 12t76.5 20.5t70 29t50 37.5t17 47q-2 16 -4.5 38t-15.5 62.5t-40.5 107t-78.5 173.5l37 176q2 6 5.5 8t6.5 -4q14 -32 31 -63.5t35 -66.5q35 -61 68 -132t51 -149q10 -48 22.5 -95.5t34.5 -88t57 -69.5t91 -39
q14 -3 23.5 -4t21.5 -1h21h47v-74v-52q0 -22 -1 -38t-3 -31q-17 -3 -30.5 -5t-27.5 -2q-39 0 -74.5 4t-66.5 15t-57 30t-46 49q-32 49 -46.5 103t-20.5 100z" />
    <glyph glyph-name="sf277.038" unicode="&#x688;" horiz-adv-x="1015" arabic-form="final" 
d="M579 1212q-20 0 -39.5 -8.5t-37.5 -21t-34 -27t-28 -26.5q14 1 36 0.5t49 1t57.5 7.5t61.5 21q-6 27 -26.5 40.5t-38.5 12.5zM404 1135q14 18 27 39.5t21 43.5q0 54 -2 106t0 106q-8 14 -17.5 24t-9.5 26q10 18 20.5 36t21.5 35q3 3 8 6t8 -3q6 -23 23.5 -43t36.5 -38
q-9 -26 -19.5 -46t-20.5 -33q1 -48 0 -77.5t-3 -46t-3.5 -23.5t-1.5 -10q24 21 53.5 41t63.5 20q48 0 77 -30t27 -78q-10 -14 -30 -43t-47 -53q-25 -15 -56.5 -25t-65 -16t-66.5 -8.5t-61 -2.5q-12 0 -19 1t-19 6.5t-35 18.5t-67 37q-13 6 -10.5 10t15.5 5q21 2 44.5 1.5
t44.5 -0.5q22 0 38.5 2.5t23.5 11.5zM676 301q-4 -8 -10.5 -26.5t-20.5 -66.5q-13 -39 -38.5 -69t-59 -52t-72.5 -37.5t-79 -25t-79 -13.5t-71 -4q-40 0 -73.5 13t-57 36.5t-35.5 56t-9 70.5q1 15 2.5 34t3 39t3 39.5t3.5 34.5q7 28 18 28q14 0 12 -32q-1 -22 1.5 -36
t8.5 -24t14.5 -17.5t18.5 -16.5q13 -11 30.5 -17.5t37 -10t39.5 -4.5t38 -1t51 4t70.5 12t76.5 20.5t70 29t50 37.5t17 47q-2 16 -4.5 38t-15.5 62.5t-40.5 107t-78.5 173.5l37 176q2 6 5.5 8t6.5 -4q14 -32 31 -63.5t35 -66.5q35 -61 68 -132t51 -149q10 -48 22.5 -95.5
t34.5 -88t57 -69.5t91 -39q14 -3 23.5 -4t21.5 -1h21h47v-74v-52q0 -22 -1 -38t-3 -31q-17 -3 -30.5 -5t-27.5 -2q-39 0 -74.5 4t-66.5 15t-57 30t-46 49q-32 49 -46.5 103t-20.5 100z" />
    <glyph glyph-name="sf277.039" unicode="&#x630;" horiz-adv-x="1015" arabic-form="final" 
d="M338 1209q5 7 18 23.5t28 35t29 34.5t20 22q8 10 14 9.5t12 -5.5q36 -31 72.5 -59t60.5 -53q5 -5 4 -9.5t-6 -10.5q-22 -32 -46 -61t-47 -60q-10 -18 -27 -7q-13 7 -32.5 22t-39 32t-36.5 33.5t-25 27.5q-6 8 -5 13t6 13zM676 301q-4 -8 -10.5 -26.5t-20.5 -66.5
q-13 -39 -38.5 -69t-59 -52t-72.5 -37.5t-79 -25t-79 -13.5t-71 -4q-40 0 -73.5 13t-57 36.5t-35.5 56t-9 70.5q1 15 2.5 34t3 39t3 39.5t3.5 34.5q7 28 18 28q14 0 12 -32q-1 -22 1.5 -36t8.5 -24t14.5 -17.5t18.5 -16.5q13 -11 30.5 -17.5t37 -10t39.5 -4.5t38 -1t51 4
t70.5 12t76.5 20.5t70 29t50 37.5t17 47q-2 16 -4.5 38t-15.5 62.5t-40.5 107t-78.5 173.5l37 176q2 6 5.5 8t6.5 -4q14 -32 31 -63.5t35 -66.5q35 -61 68 -132t51 -149q10 -48 22.5 -95.5t34.5 -88t57 -69.5t91 -39q14 -3 23.5 -4t21.5 -1h21h47v-74v-52q0 -22 -1 -38
t-3 -31q-17 -3 -30.5 -5t-27.5 -2q-39 0 -74.5 4t-66.5 15t-57 30t-46 49q-32 49 -46.5 103t-20.5 100z" />
    <glyph glyph-name="sf277.015" unicode="&#x631;" horiz-adv-x="592" arabic-form="final" 
d="M468 4q-13 -43 -30.5 -85t-40.5 -84q-23 -41 -49.5 -84t-59.5 -79.5t-73 -61.5t-89 -29q-98 -10 -178 -13t-163 11q-35 11 -33.5 19t34.5 14q42 5 94 17.5t108 33.5t114 51t112 69t101 88t82 109q5 8 10 19t3 19q-31 17 -59 36.5t-48.5 44t-30.5 54.5t-6 68q16 60 24 92
t13 45q2 11 7 15.5t14 -12.5q20 -48 52 -78.5t71.5 -48t85.5 -24.5t94 -8l-4 -198q-11 -2 -31 -3t-43 -1q-22 0 -44 1t-37 3z" />
    <glyph glyph-name="sf277.040" unicode="&#x691;" horiz-adv-x="643" arabic-form="final" 
d="M298 684q-20 0 -39.5 -8.5t-37.5 -21t-34 -27t-28 -26.5q14 1 36 0.5t49 1t57.5 7.5t61.5 21q-6 27 -26.5 40.5t-38.5 12.5zM123 607q14 18 27 39.5t21 43.5q0 54 -2 106t0 106q-8 14 -17.5 24t-9.5 26q10 18 20.5 36t21.5 35q3 3 8 6t8 -3q6 -23 23.5 -43t36.5 -38
q-9 -26 -19.5 -46t-20.5 -33q1 -48 0 -77.5t-3 -46t-3.5 -23.5t-1.5 -10q24 21 53.5 41t63.5 20q48 0 77 -30t27 -78q-10 -14 -30 -43t-47 -53q-25 -15 -56.5 -25t-65 -16t-66.5 -8.5t-61 -2.5q-12 0 -19 1t-19 6.5t-35 18.5t-67 37q-13 6 -10.5 10t15.5 5q21 2 44.5 1.5
t44.5 -0.5q22 0 38.5 2.5t23.5 11.5zM518 3q-13 -43 -30.5 -85t-40.5 -84q-23 -41 -49.5 -84t-59.5 -79.5t-73 -61.5t-89 -29q-98 -10 -178 -13t-163 11q-35 11 -33.5 19t34.5 14q42 5 94 17.5t108 33.5t114 51t112 69t101 88t82 109q5 8 10 19t3 19q-31 17 -59 36.5
t-48.5 44t-30.5 54.5t-6 68q16 60 24 92t13 45q2 11 7 15.5t14 -12.5q20 -48 52 -78.5t71.5 -48t85.5 -24.5t94 -8l-4 -198q-11 -2 -31 -3t-43 -1q-22 0 -44 1t-37 3z" />
    <glyph glyph-name="sf277.041" unicode="&#x632;" horiz-adv-x="592" arabic-form="final" 
d="M468 4q-13 -43 -30.5 -85t-40.5 -84q-23 -41 -49.5 -84t-59.5 -79.5t-73 -61.5t-89 -29q-98 -10 -178 -13t-163 11q-35 11 -33.5 19t34.5 14q42 5 94 17.5t108 33.5t114 51t112 69t101 88t82 109q5 8 10 19t3 19q-31 17 -59 36.5t-48.5 44t-30.5 54.5t-6 68q16 60 24 92
t13 45q2 11 7 15.5t14 -12.5q20 -48 52 -78.5t71.5 -48t85.5 -24.5t94 -8l-4 -198q-11 -2 -31 -3t-43 -1q-22 0 -44 1t-37 3zM102 654q5 7 18 23.5t28 35t29 34.5t20 22q8 10 14 9.5t12 -5.5q36 -31 72.5 -59t60.5 -53q5 -5 4 -9.5t-6 -10.5q-22 -32 -46 -61t-47 -60
q-10 -18 -27 -7q-13 7 -32.5 22t-39 32t-36.5 33.5t-25 27.5q-6 8 -5 13t6 13z" />
    <glyph glyph-name="sf277.042" unicode="&#x698;" horiz-adv-x="642" arabic-form="final" 
d="M518 4q-13 -43 -30.5 -85t-40.5 -84q-23 -41 -49.5 -84t-59.5 -79.5t-73 -61.5t-89 -29q-98 -10 -178 -13t-163 11q-35 11 -33.5 19t34.5 14q42 5 94 17.5t108 33.5t114 51t112 69t101 88t82 109q5 8 10 19t3 19q-31 17 -59 36.5t-48.5 44t-30.5 54.5t-6 68q16 60 24 92
t13 45q2 11 7 15.5t14 -12.5q20 -48 52 -78.5t71.5 -48t85.5 -24.5t94 -8l-4 -198q-11 -2 -31 -3t-43 -1q-22 0 -44 1t-37 3zM85 896q5 6 18.5 22.5t28.5 34.5t28.5 34.5t19.5 23.5q8 10 14 9t11 -6q37 -31 73.5 -59t60.5 -52q5 -6 4 -10t-6 -11q-22 -32 -46 -61t-47 -60
q-10 -16 -27 -7q-13 7 -32.5 22t-39 32t-36.5 33.5t-25 27.5q-6 9 -5 13.5t6 13.5zM-14 572q-21 15 -10 33q25 35 49 68.5t49 67.5q8 8 14 7.5t12 -5.5q19 -14 36.5 -28.5t34.5 -28.5q18 -13 36 -24.5t28 -15.5q11 -3 13 -0.5t11 13.5q10 11 29.5 35t55.5 67q8 8 13.5 5.5
t9.5 -5.5q48 -39 74.5 -60t39 -31l15 -12t3.5 -3q14 -11 4 -23q-24 -32 -49 -63.5t-49 -63.5q-9 -10 -15 -9t-12 5q-35 22 -65 48.5t-62 58.5q-26 -32 -50 -64t-49 -63q-10 -12 -25 -6t-26 12q-18 11 -31 20t-25.5 18t-26.5 20.5t-32 26.5z" />
    <glyph glyph-name="sf309" unicode="&#x633;" horiz-adv-x="1043" arabic-form="initial" 
d="M-35 202q40 -1 79.5 0.5t77 10t73.5 24.5t71 44q6 6 13 19t15 24q13 13 19 7t6 -12q0 -14 -7 -30.5t-7 -21.5q0 -24 20 -36.5t45 -18t48.5 -6.5t31.5 -1q24 0 49.5 2.5t50 9t46.5 18t39 30.5q13 16 23.5 34.5t25.5 32.5q18 18 18 -6q-1 -8 -4.5 -18l-7 -20t-7 -19
t-4.5 -14q40 -11 83.5 -21.5t86.5 -21.5q0 17 -7 45.5t-5 58.5q19 35 33.5 68t21.5 57q3 9 8 15.5t10.5 8.5t10.5 -2.5t8 -18.5q14 -52 29 -107t15 -109v-13q0 -7 -2 -16.5t-9 -28.5t-19 -51.5t-32 -86.5q-1 -3 -3.5 -8t-8 -9t-15 -6t-24.5 1q-20 4 -58 8.5t-80.5 11.5
t-81.5 18.5t-60 29.5q-32 -33 -81.5 -51t-101.5 -17.5t-99.5 21.5t-75.5 66q-30 -27 -58.5 -46t-59 -30.5t-64.5 -16.5t-75 -4v199v3z" />
    <glyph glyph-name="sf327" unicode="&#x633;" horiz-adv-x="1271" arabic-form="medial" 
d="M1029 120q-33 -37 -64 -61t-66 -37.5t-76 -19t-94 -5.5q-17 0 -36.5 0.5t-38 4t-34 11.5t-23.5 23q-54 -23 -114 -30t-117 -7q-23 0 -51.5 0.5t-56 6.5t-50.5 19t-34 37q-27 -19 -51 -31t-48.5 -19t-51 -9.5t-58.5 -2.5v200q72 -2 141.5 10.5t132.5 44.5q25 13 41 28.5
t33 35.5q18 21 26.5 19t3.5 -28q-6 -24 -19 -50.5t-21 -49.5q48 -6 107 -13.5t117 -2.5t109.5 31t84.5 86q11 21 22 28.5t17 3.5t6.5 -18t-9.5 -36q-10 -24 -23.5 -48.5t-21.5 -50.5q25 -3 61.5 -4.5t74.5 0t73.5 6t59.5 14.5q9 3 22 16.5t26.5 31.5t27 38t23.5 36
q9 17 18.5 23.5t15.5 0.5t5.5 -25.5t-11.5 -54.5q7 -35 41 -51.5t77 -18.5q21 -1 41.5 -0.5t38.5 -0.5q0 -13 -0.5 -39.5t-1 -56.5t-1 -57.5t-0.5 -42.5q-32 -6 -62 -6q-40 2 -74.5 7t-62 18t-46.5 35.5t-29 60.5z" />
    <glyph glyph-name="sf277.004" unicode="&#x633;" horiz-adv-x="2082" arabic-form="final" 
d="M1914 366q-6 -34 3 -63.5t28 -51t46.5 -34t58.5 -12.5q16 -2 32.5 -2.5t34.5 -0.5q0 -13 -0.5 -39.5t-1 -56.5t-1 -57.5t-0.5 -42.5q-36 -6 -73 -6q-72 0 -122.5 37.5t-77.5 124.5q-21 -36 -51.5 -65.5t-67 -49.5t-77 -31t-81.5 -11q-63 0 -107 28t-69 91
q-35 -75 -91.5 -103t-135.5 -28q-31 0 -61 5.5t-61 10.5q0 -85 -13 -165t-37 -165q-36 -59 -89.5 -107t-117.5 -81.5t-135 -51.5t-142 -18q-98 0 -178 28t-137 81.5t-88.5 131t-31.5 177.5q0 63 12 124.5t34 120.5t52 114.5t65 105.5q5 9 12 16t12.5 9t7 -3.5t-4.5 -21.5
l-36 -86t-33 -87t-24 -89t-9 -92q0 -80 30.5 -140.5t81.5 -102t118.5 -62.5t141.5 -21q28 0 66.5 5.5t80.5 15.5t85.5 25t82 34t69.5 42.5t48 50.5q0 33 -1.5 67.5t-13 85t-35.5 124.5t-69 185q-2 5 -0.5 14t6.5 25.5t12.5 42.5t16.5 65q4 12 7.5 16t6.5 3t5.5 -6t4.5 -10
q21 -51 47.5 -91t62.5 -67.5t82.5 -42.5t106.5 -15q79 0 143 34t96 97q6 10 13.5 20t14 14t11 -2t4.5 -28q-1 -11 -3 -26t-3 -26q23 -33 58.5 -49t76.5 -18.5t84 7.5t79.5 30t63 48.5t35.5 62.5q4 7 9 16.5t10 14t10.5 1t10.5 -22.5z" />
    <glyph glyph-name="sf309.001" unicode="&#x634;" horiz-adv-x="1043" arabic-form="initial" 
d="M403 966q5 6 18.5 22.5t28.5 34.5t28.5 34.5t19.5 23.5q8 10 14 9t11 -6q37 -31 73.5 -59t60.5 -52q5 -6 4 -10t-6 -11q-22 -32 -46 -61t-47 -60q-10 -16 -27 -7q-13 7 -32.5 22t-39 32t-36.5 33.5t-25 27.5q-6 9 -5 13.5t6 13.5zM304 642q-21 15 -10 33q25 35 49 68.5
t49 67.5q8 8 14 7.5t12 -5.5q19 -14 36.5 -28.5t34.5 -28.5q18 -13 36 -24.5t28 -15.5q11 -3 13 -0.5t11 13.5q10 11 29.5 35t55.5 67q8 8 13.5 5.5t9.5 -5.5q48 -39 74.5 -60t39 -31l15 -12t3.5 -3q14 -11 4 -23q-24 -32 -49 -63.5t-49 -63.5q-9 -10 -15 -9t-12 5
q-35 22 -65 48.5t-62 58.5q-26 -32 -50 -64t-49 -63q-10 -12 -25 -6t-26 12q-18 11 -31 20t-25.5 18t-26.5 20.5t-32 26.5zM-35 202q40 -1 79.5 0.5t77 10t73.5 24.5t71 44q6 6 13 19t15 24q13 13 19 7t6 -12q0 -14 -7 -30.5t-7 -21.5q0 -24 20 -36.5t45 -18t48.5 -6.5
t31.5 -1q24 0 49.5 2.5t50 9t46.5 18t39 30.5q13 16 23.5 34.5t25.5 32.5q18 18 18 -6q-1 -8 -4.5 -18l-7 -20t-7 -19t-4.5 -14q40 -11 83.5 -21.5t86.5 -21.5q0 17 -7 45.5t-5 58.5q19 35 33.5 68t21.5 57q3 9 8 15.5t10.5 8.5t10.5 -2.5t8 -18.5q14 -52 29 -107t15 -109
v-13q0 -7 -2 -16.5t-9 -28.5t-19 -51.5t-32 -86.5q-1 -3 -3.5 -8t-8 -9t-15 -6t-24.5 1q-20 4 -58 8.5t-80.5 11.5t-81.5 18.5t-60 29.5q-32 -33 -81.5 -51t-101.5 -17.5t-99.5 21.5t-75.5 66q-30 -27 -58.5 -46t-59 -30.5t-64.5 -16.5t-75 -4v199v3z" />
    <glyph glyph-name="sf327.001" unicode="&#x634;" horiz-adv-x="1271" arabic-form="medial" 
d="M500 948q5 6 18.5 22.5t28.5 34.5t28.5 34.5t19.5 23.5q8 10 14 9t11 -6q37 -31 73.5 -59t60.5 -52q5 -6 4 -10t-6 -11q-22 -32 -46 -61t-47 -60q-10 -16 -27 -7q-13 7 -32.5 22t-39 32t-36.5 33.5t-25 27.5q-6 9 -5 13.5t6 13.5zM401 624q-21 15 -10 33q25 35 49 68.5
t49 67.5q8 8 14 7.5t12 -5.5q19 -14 36.5 -28.5t34.5 -28.5q18 -13 36 -24.5t28 -15.5q11 -3 13 -0.5t11 13.5q10 11 29.5 35t55.5 67q8 8 13.5 5.5t9.5 -5.5q48 -39 74.5 -60t39 -31l15 -12t3.5 -3q14 -11 4 -23q-24 -32 -49 -63.5t-49 -63.5q-9 -10 -15 -9t-12 5
q-35 22 -65 48.5t-62 58.5q-26 -32 -50 -64t-49 -63q-10 -12 -25 -6t-26 12q-18 11 -31 20t-25.5 18t-26.5 20.5t-32 26.5zM1029 120q-33 -37 -64 -61t-66 -37.5t-76 -19t-94 -5.5q-17 0 -36.5 0.5t-38 4t-34 11.5t-23.5 23q-54 -23 -114 -30t-117 -7q-23 0 -51.5 0.5
t-56 6.5t-50.5 19t-34 37q-27 -19 -51 -31t-48.5 -19t-51 -9.5t-58.5 -2.5v200q72 -2 141.5 10.5t132.5 44.5q25 13 41 28.5t33 35.5q18 21 26.5 19t3.5 -28q-6 -24 -19 -50.5t-21 -49.5q48 -6 107 -13.5t117 -2.5t109.5 31t84.5 86q11 21 22 28.5t17 3.5t6.5 -18t-9.5 -36
q-10 -24 -23.5 -48.5t-21.5 -50.5q25 -3 61.5 -4.5t74.5 0t73.5 6t59.5 14.5q9 3 22 16.5t26.5 31.5t27 38t23.5 36q9 17 18.5 23.5t15.5 0.5t5.5 -25.5t-11.5 -54.5q7 -35 41 -51.5t77 -18.5q21 -1 41.5 -0.5t38.5 -0.5q0 -13 -0.5 -39.5t-1 -56.5t-1 -57.5t-0.5 -42.5
q-32 -6 -62 -6q-40 2 -74.5 7t-62 18t-46.5 35.5t-29 60.5z" />
    <glyph glyph-name="sf277.033" unicode="&#x634;" horiz-adv-x="2082" arabic-form="final" 
d="M1341 997q5 6 18.5 22.5t28.5 34.5t28.5 34.5t19.5 23.5q8 10 14 9t11 -6q37 -31 73.5 -59t60.5 -52q5 -6 4 -10t-6 -11q-22 -32 -46 -61t-47 -60q-10 -16 -27 -7q-13 7 -32.5 22t-39 32t-36.5 33.5t-25 27.5q-6 9 -5 13.5t6 13.5zM1242 673q-21 15 -10 33q25 35 49 68.5
t49 67.5q8 8 14 7.5t12 -5.5q19 -14 36.5 -28.5t34.5 -28.5q18 -13 36 -24.5t28 -15.5q11 -3 13 -0.5t11 13.5q10 11 29.5 35t55.5 67q8 8 13.5 5.5t9.5 -5.5q48 -39 74.5 -60t39 -31l15 -12t3.5 -3q14 -11 4 -23q-24 -32 -49 -63.5t-49 -63.5q-9 -10 -15 -9t-12 5
q-35 22 -65 48.5t-62 58.5q-26 -32 -50 -64t-49 -63q-10 -12 -25 -6t-26 12q-18 11 -31 20t-25.5 18t-26.5 20.5t-32 26.5zM1914 366q-6 -34 3 -63.5t28 -51t46.5 -34t58.5 -12.5q16 -2 32.5 -2.5t34.5 -0.5q0 -13 -0.5 -39.5t-1 -56.5t-1 -57.5t-0.5 -42.5q-36 -6 -73 -6
q-72 0 -122.5 37.5t-77.5 124.5q-21 -36 -51.5 -65.5t-67 -49.5t-77 -31t-81.5 -11q-63 0 -107 28t-69 91q-35 -75 -91.5 -103t-135.5 -28q-31 0 -61 5.5t-61 10.5q0 -85 -13 -165t-37 -165q-36 -59 -89.5 -107t-117.5 -81.5t-135 -51.5t-142 -18q-98 0 -178 28t-137 81.5
t-88.5 131t-31.5 177.5q0 63 12 124.5t34 120.5t52 114.5t65 105.5q5 9 12 16t12.5 9t7 -3.5t-4.5 -21.5l-36 -86t-33 -87t-24 -89t-9 -92q0 -80 30.5 -140.5t81.5 -102t118.5 -62.5t141.5 -21q28 0 66.5 5.5t80.5 15.5t85.5 25t82 34t69.5 42.5t48 50.5q0 33 -1.5 67.5
t-13 85t-35.5 124.5t-69 185q-2 5 -0.5 14t6.5 25.5t12.5 42.5t16.5 65q4 12 7.5 16t6.5 3t5.5 -6t4.5 -10q21 -51 47.5 -91t62.5 -67.5t82.5 -42.5t106.5 -15q79 0 143 34t96 97q6 10 13.5 20t14 14t11 -2t4.5 -28q-1 -11 -3 -26t-3 -26q23 -33 58.5 -49t76.5 -18.5t84 7.5
t79.5 30t63 48.5t35.5 62.5q4 7 9 16.5t10 14t10.5 1t10.5 -22.5z" />
    <glyph glyph-name="sf310.002" unicode="&#x635;" horiz-adv-x="1536" arabic-form="initial" 
d="M613 176q51 -11 111.5 -15t124.5 -3t129 7t125 14t112.5 18.5t92.5 21.5q-17 38 -40.5 73.5t-53.5 62.5t-67.5 43t-82.5 16q-65 0 -126.5 -21.5t-118.5 -56t-109 -77t-97 -83.5zM363 -98q-9 -11 -17 -17t-12.5 -5t-4 10.5t8.5 29.5q10 24 29 50t35 46q-29 12 -55.5 26
t-49 32t-38.5 41.5t-23 53.5q-22 -38 -50 -71t-61.5 -56t-73.5 -34t-86 -5v199q54 0 110 7.5t101 34.5q27 15 44 28.5t30 26.5t23 25.5t22 25.5q2 3 7 7t10 4t7.5 -5.5t-0.5 -20.5q-7 -39 17.5 -65t61.5 -42.5t75.5 -25.5t59.5 -13q93 105 176.5 180t159 122.5t144.5 69.5
t134 22q37 0 82 -12t89.5 -43t83.5 -85t63 -138q1 -2 -3 -13.5t-10.5 -28t-14.5 -36t-16 -38t-14.5 -34.5t-9.5 -25q-6 -17 -25.5 -32.5t-45 -28.5t-53 -22.5t-49.5 -14.5q-64 -16 -147.5 -31t-183.5 -22t-214 -2.5t-238 26.5q-3 -4 -12 -15.5t-20 -26.5t-23.5 -31
t-22.5 -28z" />
    <glyph glyph-name="sf328" unicode="&#x635;" horiz-adv-x="1574" arabic-form="medial" 
d="M639 185q20 -13 75 -17.5t127.5 -2t152.5 9.5t150 16.5t121 21t64 21.5q-47 99 -103.5 142.5t-120.5 45.5q-64 4 -128 -16.5t-124 -55.5t-114.5 -79t-99.5 -86zM1445 204h26q10 0 18.5 -0.5t18.5 -0.5h28q20 -1 38 -0.5t35 -0.5q0 -13 -0.5 -39.5t-1 -56.5t-1 -57.5
t-0.5 -42.5q-32 -6 -62 -6q-55 0 -110.5 -2t-114.5 -3t-122.5 0t-134.5 7q-45 -5 -105 -11.5t-135 -8.5t-163.5 3.5t-190.5 24.5q-14 -18 -35 -47.5t-41 -51.5q-11 -12 -20 -18.5t-13.5 -5t-3 11.5t11.5 31q13 26 28.5 48t29.5 42q-41 13 -67.5 28.5t-44.5 34t-30 40.5
t-23 48q-25 -36 -50.5 -67.5t-58.5 -55t-78 -36.5t-108 -12v201q52 0 96.5 5.5t83.5 18.5t74 35t68 55q12 12 23 27.5t19.5 22t12.5 -3.5t1 -50q5 -21 19.5 -37t34 -28t42.5 -20.5t44.5 -14.5t40.5 -10t31 -7q40 40 83 85t89.5 88.5t96.5 83.5t105 71.5t115 50.5t125 21
q40 2 80 -10.5t76.5 -35t67.5 -53.5t53 -65q8 -13 17.5 -29.5t16.5 -32.5t10.5 -30.5t-0.5 -24.5q-4 -11 -7.5 -19.5t-8 -19.5t-11.5 -27t-18 -43z" />
    <glyph glyph-name="sf277.005" unicode="&#x635;" horiz-adv-x="2165" arabic-form="final" 
d="M1234 204q45 -9 102.5 -14t121.5 -5t131 4.5t128.5 13.5t113 22.5t84.5 31.5q-19 55 -48 94t-63.5 63t-72 34.5t-73.5 8.5q-31 1 -68.5 -11t-77.5 -33t-80.5 -48t-77.5 -55t-68 -56t-52 -50zM71 -210q-2 73 4 137t25 127.5t52.5 131t87.5 147.5q10 13 19.5 22.5t15 11
t4.5 -7t-13 -31.5q-41 -84 -63 -142.5t-32 -98t-11.5 -65t-1.5 -44.5q-1 -82 27 -143t78.5 -102.5t119 -63t148.5 -24.5q56 1 119.5 13t123 33.5t109 51.5t78.5 68q6 61 -6.5 128.5t-32 132.5t-40 123.5t-30.5 101.5q11 36 24 75.5t24 75.5q4 11 7.5 6.5t3.5 -6.5
q17 -39 37 -79.5t47 -73t64 -53t89 -20.5h1q183 209 339 310.5t282 101.5q50 0 98.5 -20t89 -57t69.5 -89.5t41 -116.5q0 -2 -1.5 -5t-8 -17t-21 -43.5t-40.5 -83.5v-3q52 1 102 2t101 2v-46q0 -37 -0.5 -79.5t-2.5 -74.5q-149 -6 -299 -6q-151 0 -289 12q-72 -7 -143 -11.5
t-141 -3.5t-140 8.5t-141 24.5q-1 -23 -2.5 -53.5t-7 -70t-16.5 -89t-31 -109.5q-35 -65 -91.5 -114t-123 -81.5t-137.5 -49t-135 -16.5q-81 0 -154.5 21.5t-131 65t-95.5 108.5t-48 151z" />
    <glyph glyph-name="sf310.003" unicode="&#x636;" horiz-adv-x="1536" arabic-form="initial" 
d="M668 887q5 7 18 23.5t28 35t29 34.5t20 22q8 10 14 9.5t12 -5.5q36 -31 72.5 -59t60.5 -53q5 -5 4 -9.5t-6 -10.5q-22 -32 -46 -61t-47 -60q-10 -18 -27 -7q-13 7 -32.5 22t-39 32t-36.5 33.5t-25 27.5q-6 8 -5 13t6 13zM613 176q51 -11 111.5 -15t124.5 -3t129 7t125 14
t112.5 18.5t92.5 21.5q-17 38 -40.5 73.5t-53.5 62.5t-67.5 43t-82.5 16q-65 0 -126.5 -21.5t-118.5 -56t-109 -77t-97 -83.5zM363 -98q-9 -11 -17 -17t-12.5 -5t-4 10.5t8.5 29.5q10 24 29 50t35 46q-29 12 -55.5 26t-49 32t-38.5 41.5t-23 53.5q-22 -38 -50 -71t-61.5 -56
t-73.5 -34t-86 -5v199q54 0 110 7.5t101 34.5q27 15 44 28.5t30 26.5t23 25.5t22 25.5q2 3 7 7t10 4t7.5 -5.5t-0.5 -20.5q-7 -39 17.5 -65t61.5 -42.5t75.5 -25.5t59.5 -13q93 105 176.5 180t159 122.5t144.5 69.5t134 22q37 0 82 -12t89.5 -43t83.5 -85t63 -138
q1 -2 -3 -13.5t-10.5 -28t-14.5 -36t-16 -38t-14.5 -34.5t-9.5 -25q-6 -17 -25.5 -32.5t-45 -28.5t-53 -22.5t-49.5 -14.5q-64 -16 -147.5 -31t-183.5 -22t-214 -2.5t-238 26.5q-3 -4 -12 -15.5t-20 -26.5t-23.5 -31t-22.5 -28z" />
    <glyph glyph-name="sf328.001" unicode="&#x636;" horiz-adv-x="1574" arabic-form="medial" 
d="M621 845q5 7 18 23.5t28 35t29 34.5t20 22q8 10 14 9.5t12 -5.5q36 -31 72.5 -59t60.5 -53q5 -5 4 -9.5t-6 -10.5q-22 -32 -46 -61t-47 -60q-10 -18 -27 -7q-13 7 -32.5 22t-39 32t-36.5 33.5t-25 27.5q-6 8 -5 13t6 13zM639 185q20 -13 75 -17.5t127.5 -2t152.5 9.5
t150 16.5t121 21t64 21.5q-47 99 -103.5 142.5t-120.5 45.5q-64 4 -128 -16.5t-124 -55.5t-114.5 -79t-99.5 -86zM1445 204h26q10 0 18.5 -0.5t18.5 -0.5h28q20 -1 38 -0.5t35 -0.5q0 -13 -0.5 -39.5t-1 -56.5t-1 -57.5t-0.5 -42.5q-32 -6 -62 -6q-55 0 -110.5 -2t-114.5 -3
t-122.5 0t-134.5 7q-45 -5 -105 -11.5t-135 -8.5t-163.5 3.5t-190.5 24.5q-14 -18 -35 -47.5t-41 -51.5q-11 -12 -20 -18.5t-13.5 -5t-3 11.5t11.5 31q13 26 28.5 48t29.5 42q-41 13 -67.5 28.5t-44.5 34t-30 40.5t-23 48q-25 -36 -50.5 -67.5t-58.5 -55t-78 -36.5t-108 -12
v201q52 0 96.5 5.5t83.5 18.5t74 35t68 55q12 12 23 27.5t19.5 22t12.5 -3.5t1 -50q5 -21 19.5 -37t34 -28t42.5 -20.5t44.5 -14.5t40.5 -10t31 -7q40 40 83 85t89.5 88.5t96.5 83.5t105 71.5t115 50.5t125 21q40 2 80 -10.5t76.5 -35t67.5 -53.5t53 -65q8 -13 17.5 -29.5
t16.5 -32.5t10.5 -30.5t-0.5 -24.5q-4 -11 -7.5 -19.5t-8 -19.5t-11.5 -27t-18 -43z" />
    <glyph glyph-name="sf277.034" unicode="&#x636;" horiz-adv-x="2165" arabic-form="final" 
d="M1332 859q5 7 18 23.5t28 35t29 34.5t20 22q8 10 14 9.5t12 -5.5q36 -31 72.5 -59t60.5 -53q5 -5 4 -9.5t-6 -10.5q-22 -32 -46 -61t-47 -60q-10 -18 -27 -7q-13 7 -32.5 22t-39 32t-36.5 33.5t-25 27.5q-6 8 -5 13t6 13zM1234 204q45 -9 102.5 -14t121.5 -5t131 4.5
t128.5 13.5t113 22.5t84.5 31.5q-19 55 -48 94t-63.5 63t-72 34.5t-73.5 8.5q-31 1 -68.5 -11t-77.5 -33t-80.5 -48t-77.5 -55t-68 -56t-52 -50zM71 -210q-2 73 4 137t25 127.5t52.5 131t87.5 147.5q10 13 19.5 22.5t15 11t4.5 -7t-13 -31.5q-41 -84 -63 -142.5t-32 -98
t-11.5 -65t-1.5 -44.5q-1 -82 27 -143t78.5 -102.5t119 -63t148.5 -24.5q56 1 119.5 13t123 33.5t109 51.5t78.5 68q6 61 -6.5 128.5t-32 132.5t-40 123.5t-30.5 101.5q11 36 24 75.5t24 75.5q4 11 7.5 6.5t3.5 -6.5q17 -39 37 -79.5t47 -73t64 -53t89 -20.5h1
q183 209 339 310.5t282 101.5q50 0 98.5 -20t89 -57t69.5 -89.5t41 -116.5q0 -2 -1.5 -5t-8 -17t-21 -43.5t-40.5 -83.5v-3q52 1 102 2t101 2v-46q0 -37 -0.5 -79.5t-2.5 -74.5q-149 -6 -299 -6q-151 0 -289 12q-72 -7 -143 -11.5t-141 -3.5t-140 8.5t-141 24.5
q-1 -23 -2.5 -53.5t-7 -70t-16.5 -89t-31 -109.5q-35 -65 -91.5 -114t-123 -81.5t-137.5 -49t-135 -16.5q-81 0 -154.5 21.5t-131 65t-95.5 108.5t-48 151z" />
    <glyph glyph-name="sf311" unicode="&#x637;" horiz-adv-x="1040" arabic-form="initial" 
d="M125 173q91 -8 174 -5.5t164 14t164.5 32t176.5 49.5q-18 34 -42.5 67t-54.5 58t-66 40.5t-76 15.5q-53 0 -114.5 -24.5t-121.5 -63t-113.5 -87t-90.5 -96.5zM-33 0q0 11 -0.5 30t-0.5 41t-0.5 45t-0.5 42v24q0 17 1 18q1 0 19 0.5t41 0.5q6 6 21 22.5t33.5 36.5
t37.5 40.5t32 34.5q4 53 5 90t-0.5 71t-6.5 70.5t-12 89t-16.5 127t-21.5 183.5v162q-16 15 -31.5 29.5t-28 29.5t-20 31.5t-7.5 36.5q0 16 14.5 44t33 58t37 56t26.5 37q14 17 17.5 9.5t-4.5 -29.5q-9 -24 -3 -44t20.5 -37t34 -31.5t37.5 -27.5t31.5 -25.5t15.5 -25.5
q0 -1 -1.5 -4t-9 -17.5t-24.5 -45.5t-48 -88q1 -39 8.5 -93t16.5 -116t17.5 -128.5t10.5 -130.5t-4.5 -122t-26.5 -103q44 40 94.5 78t106 68t115 48.5t121.5 18.5q52 0 103.5 -17.5t95 -52t75.5 -87t46 -122.5q3 -11 -9 -30.5t-29.5 -44t-36 -51t-28.5 -50.5
q-45 -40 -113 -68t-144.5 -45.5t-154.5 -26t-143 -10.5q-75 -2 -149 -1t-137 1q-1 1 -11 1h-10h-35z" />
    <glyph glyph-name="sf329" unicode="&#x637;" horiz-adv-x="1131" arabic-form="medial" 
d="M192 194q55 -5 125 -3t143.5 9t145 18.5t129.5 24.5t98 27.5t50 27.5q-65 106 -134.5 146t-159.5 22q-57 -11 -111.5 -39t-105.5 -66t-96.5 -81.5t-83.5 -85.5zM1166 202q0 -13 -0.5 -39.5t-1 -56.5t-1 -57.5t-0.5 -42.5q-32 -6 -62 -6q-164 0 -324 1t-326 11
q-60 0 -110.5 -2t-104.5 -4t-118.5 -4t-152.5 -2l2 200l108 1q14 0 44 38t87 104q5 7 7.5 21t1.5 41.5t-5.5 72t-13.5 113t-22 163.5t-31 225q-3 15 -3.5 35.5t-0.5 42.5v83q-15 14 -30.5 27t-28 28t-21 32t-8.5 39q0 11 9.5 33t24.5 49t33.5 55.5t35.5 52.5q9 11 14 13
t6.5 -1.5t0 -12t-5.5 -19.5q-9 -24 -2 -44t23 -37.5t36.5 -32t39 -27.5t31 -25t11.5 -24q-16 -33 -35 -68t-45 -81q7 -85 23.5 -177t29 -182.5t13.5 -176t-23 -157.5q62 61 133.5 109.5t145.5 76.5t146.5 33t137.5 -22t118.5 -88.5t88.5 -165.5q-3 -14 -15 -33.5t-27 -40
t-29.5 -39.5t-21.5 -31q38 0 71 0.5t55 0.5q1 -1 13 -1h12h23h23h10q10 0 11 -1z" />
    <glyph glyph-name="sf277.006" unicode="&#x637;" horiz-adv-x="1552" arabic-form="final" 
d="M1136 463q-61 13 -122.5 -1t-120 -43.5t-112 -69t-97.5 -78t-76.5 -70.5t-49.5 -46q123 7 220 17t172.5 21.5t133 24t101.5 24.5q69 20 104.5 31t32.5 13q-7 30 -27 58.5t-46 52t-56 41t-57 25.5zM1587 203q0 -13 -0.5 -40t-1 -57t-1 -57.5t-0.5 -42.5q-35 -6 -70 -6
q-118 0 -209 0.5t-161.5 1t-125 1t-99.5 0.5t-84 -1.5t-79 -5t-84.5 -8.5t-99.5 -12q-25 4 -51 2t-52.5 -3.5t-51.5 1.5t-48 17q-54 29 -118 69t-152 91q-29 20 -24 27.5t26 7.5t49.5 -5t46.5 -11q41 -10 85 -16t85 -8.5t76 -0.5t58 8q15 18 35 44t41 52.5t41 51t35 39.5
q0 39 -1 74t-4 72.5t-8 81.5t-13 100t-19 128.5t-26 167.5q-3 15 -3.5 35.5t-0.5 40.5q0 21 0.5 42t0.5 39q-14 12 -30 26t-29.5 30t-22.5 34t-9 39q0 12 10.5 35.5t26.5 51.5t34 55.5t33 47.5q14 17 19 11.5t-3 -23.5q-9 -27 -3 -48.5t21 -39t35 -31.5t38.5 -26.5t32 -24
t15.5 -23.5q-20 -42 -38.5 -76.5t-40.5 -77.5q21 -146 34 -237t20 -146t9.5 -83.5t2.5 -50.5q1 -1 1 -18v-21q0 -32 -4.5 -69t-15.5 -62q55 49 119 99t135 85.5t147 49.5t155 -8q34 -9 70.5 -33.5t66.5 -57.5t49.5 -71t19.5 -74q3 -20 -9.5 -42t-31 -45.5t-38 -48
t-29.5 -49.5q51 2 94.5 2.5t91.5 0.5q1 -1 8 -1h8h16z" />
    <glyph glyph-name="sf311.001" unicode="&#x638;" horiz-adv-x="1040" arabic-form="initial" 
d="M125 174q91 -8 174 -5.5t164 14t164.5 32t176.5 49.5q-18 34 -42.5 67t-54.5 58t-66 40.5t-76 15.5q-53 0 -114.5 -24.5t-121.5 -63t-113.5 -87t-90.5 -96.5zM-33 1q0 11 -0.5 30t-0.5 41t-0.5 45t-0.5 42v24q0 17 1 18q1 0 19 0.5t41 0.5q6 6 21 22.5t33.5 36.5
t37.5 40.5t32 34.5q4 53 5 90t-0.5 71t-6.5 70.5t-12 89t-16.5 127t-21.5 183.5v162q-16 15 -31.5 29.5t-28 29.5t-20 31.5t-7.5 36.5q0 16 14.5 44t33 58t37 56t26.5 37q14 17 17.5 9.5t-4.5 -29.5q-9 -24 -3 -44t20.5 -37t34 -31.5t37.5 -27.5t31.5 -25.5t15.5 -25.5
q0 -1 -1.5 -4t-9 -17.5t-24.5 -45.5t-48 -88q1 -39 8.5 -93t16.5 -116t17.5 -128.5t10.5 -130.5t-4.5 -122t-26.5 -103q44 40 94.5 78t106 68t115 48.5t121.5 18.5q52 0 103.5 -17.5t95 -52t75.5 -87t46 -122.5q3 -11 -9 -30.5t-29.5 -44t-36 -51t-28.5 -50.5
q-45 -40 -113 -68t-144.5 -45.5t-154.5 -26t-143 -10.5q-75 -2 -149 -1t-137 1q-1 1 -11 1h-10h-35zM425 968q5 7 18 23.5t28 35t29 34.5t20 22q8 10 14 9.5t12 -5.5q36 -31 72.5 -59t60.5 -53q5 -5 4 -9.5t-6 -10.5q-22 -32 -46 -61t-47 -60q-10 -18 -27 -7q-13 7 -32.5 22
t-39 32t-36.5 33.5t-25 27.5q-6 8 -5 13t6 13z" />
    <glyph glyph-name="sf329.001" unicode="&#x638;" horiz-adv-x="1131" arabic-form="medial" 
d="M442 913q5 7 18 23.5t28 35t29 34.5t20 22q8 10 14 9.5t12 -5.5q36 -31 72.5 -59t60.5 -53q5 -5 4 -9.5t-6 -10.5q-22 -32 -46 -61t-47 -60q-10 -18 -27 -7q-13 7 -32.5 22t-39 32t-36.5 33.5t-25 27.5q-6 8 -5 13t6 13zM192 194q55 -5 125 -3t143.5 9t145 18.5
t129.5 24.5t98 27.5t50 27.5q-65 106 -134.5 146t-159.5 22q-57 -11 -111.5 -39t-105.5 -66t-96.5 -81.5t-83.5 -85.5zM1166 202q0 -13 -0.5 -39.5t-1 -56.5t-1 -57.5t-0.5 -42.5q-32 -6 -62 -6q-164 0 -324 1t-326 11q-60 0 -110.5 -2t-104.5 -4t-118.5 -4t-152.5 -2l2 200
l108 1q14 0 44 38t87 104q5 7 7.5 21t1.5 41.5t-5.5 72t-13.5 113t-22 163.5t-31 225q-3 15 -3.5 35.5t-0.5 42.5v83q-15 14 -30.5 27t-28 28t-21 32t-8.5 39q0 11 9.5 33t24.5 49t33.5 55.5t35.5 52.5q9 11 14 13t6.5 -1.5t0 -12t-5.5 -19.5q-9 -24 -2 -44t23 -37.5
t36.5 -32t39 -27.5t31 -25t11.5 -24q-16 -33 -35 -68t-45 -81q7 -85 23.5 -177t29 -182.5t13.5 -176t-23 -157.5q62 61 133.5 109.5t145.5 76.5t146.5 33t137.5 -22t118.5 -88.5t88.5 -165.5q-3 -14 -15 -33.5t-27 -40t-29.5 -39.5t-21.5 -31q38 0 71 0.5t55 0.5q1 -1 13 -1
h12h23h23h10q10 0 11 -1z" />
    <glyph glyph-name="sf277.035" unicode="&#x638;" horiz-adv-x="1552" arabic-form="final" 
d="M880 933q5 7 18 23.5t28 35t29 34.5t20 22q8 10 14 9.5t12 -5.5q36 -31 72.5 -59t60.5 -53q5 -5 4 -9.5t-6 -10.5q-22 -32 -46 -61t-47 -60q-10 -18 -27 -7q-13 7 -32.5 22t-39 32t-36.5 33.5t-25 27.5q-6 8 -5 13t6 13zM1136 463q-61 13 -122.5 -1t-120 -43.5t-112 -69
t-97.5 -78t-76.5 -70.5t-49.5 -46q123 7 220 17t172.5 21.5t133 24t101.5 24.5q69 20 104.5 31t32.5 13q-7 30 -27 58.5t-46 52t-56 41t-57 25.5zM1587 203q0 -13 -0.5 -40t-1 -57t-1 -57.5t-0.5 -42.5q-35 -6 -70 -6q-118 0 -209 0.5t-161.5 1t-125 1t-99.5 0.5t-84 -1.5
t-79 -5t-84.5 -8.5t-99.5 -12q-25 4 -51 2t-52.5 -3.5t-51.5 1.5t-48 17q-54 29 -118 69t-152 91q-29 20 -24 27.5t26 7.5t49.5 -5t46.5 -11q41 -10 85 -16t85 -8.5t76 -0.5t58 8q15 18 35 44t41 52.5t41 51t35 39.5q0 39 -1 74t-4 72.5t-8 81.5t-13 100t-19 128.5
t-26 167.5q-3 15 -3.5 35.5t-0.5 40.5q0 21 0.5 42t0.5 39q-14 12 -30 26t-29.5 30t-22.5 34t-9 39q0 12 10.5 35.5t26.5 51.5t34 55.5t33 47.5q14 17 19 11.5t-3 -23.5q-9 -27 -3 -48.5t21 -39t35 -31.5t38.5 -26.5t32 -24t15.5 -23.5q-20 -42 -38.5 -76.5t-40.5 -77.5
q21 -146 34 -237t20 -146t9.5 -83.5t2.5 -50.5q1 -1 1 -18v-21q0 -32 -4.5 -69t-15.5 -62q55 49 119 99t135 85.5t147 49.5t155 -8q34 -9 70.5 -33.5t66.5 -57.5t49.5 -71t19.5 -74q3 -20 -9.5 -42t-31 -45.5t-38 -48t-29.5 -49.5q51 2 94.5 2.5t91.5 0.5q1 -1 8 -1h8h16z
" />
    <glyph glyph-name="sf299" unicode="&#x639;" horiz-adv-x="1060" arabic-form="initial" 
d="M41 201q21 0 39.5 0.5t36.5 1t38 2t44 3.5q-33 60 -45 105.5t-9 84.5t17 76t33 80q22 50 47 87.5t58 63t77 38.5t104 14q33 1 86 -8.5t109 -32t105 -59t73 -88.5q3 -10 -10.5 -11t-38 3t-57.5 11.5t-70 15t-75.5 13t-72.5 5.5q-48 0 -99.5 -14t-94.5 -33t-71.5 -38.5
t-29.5 -31.5q16 -66 45.5 -112.5t68 -77.5t84.5 -49.5t94 -28t96 -12.5t92 -4q66 -2 129 6t132 23q11 2 12.5 -0.5t-0.5 -12.5q-3 -21 -14 -50.5t-25 -57.5t-29 -48.5t-25 -23.5q-4 -1 -41 -4.5t-121 -8t-222.5 -11t-345.5 -13.5q-15 0 -40 -0.5t-52.5 -1.5t-55 -1.5
t-48.5 -0.5v201h72z" />
    <glyph glyph-name="sf318" unicode="&#x639;" horiz-adv-x="794" arabic-form="medial" 
d="M829 202q0 -13 -0.5 -39.5t-1 -56.5t-1 -57.5t-0.5 -42.5q-32 -6 -62 -6q-60 0 -109.5 8t-92 27.5t-81 51t-76.5 79.5q-32 -42 -84.5 -74.5t-113.5 -53.5t-124.5 -30.5t-117.5 -6.5v201q43 3 89 7.5t91.5 13.5t88.5 25t79 42q-51 50 -109 64t-112 4q-8 -2 -10 3.5
t-2 11.5v10q1 6 4 23t6 36t6 36t4 23q6 37 35.5 57t68 29.5t78.5 11t67 1.5q17 0 42.5 -0.5t54.5 -3t57.5 -9t51.5 -18.5t37.5 -31t14.5 -47q0 -56 -24 -104t-52 -91q19 -24 44 -40t52.5 -26.5t57 -16.5t57.5 -10h45h21h10q10 0 11 -1z" />
    <glyph glyph-name="sf277.008" unicode="&#x639;" horiz-adv-x="885" arabic-form="final" 
d="M70 -283q1 184 69 334.5t212 275.5q3 2 4.5 5t-0.5 8q-14 25 -36 43t-45.5 29t-46 15.5t-36.5 2.5q-16 0 -29 -2.5t-23 -5t-16 -3.5t-9 3q-4 33 3.5 64.5t15.5 61.5q8 28 20 43.5t29.5 24t41.5 12.5t56 9q18 4 59.5 6t93 0.5t106.5 -7.5t100 -18.5t73.5 -31.5t27.5 -46
q-2 -20 -11.5 -42.5t-33 -50.5t-64.5 -62t-105 -76q42 -30 91 -51t100.5 -33.5t103.5 -18t101 -4.5v-198q-22 -2 -45.5 -3.5t-49.5 -1.5q-62 0 -128.5 12t-124.5 39t-100.5 71.5t-55.5 110.5q0 6 -8 4q-133 -79 -203.5 -178t-70.5 -235q0 -89 36 -163.5t95 -132.5
t134.5 -98.5t155.5 -61.5q78 -20 154.5 -25.5t155.5 -5.5q81 0 157 2t157 6q2 0 14.5 0.5t27 0t27 -2t14 -6t-12.5 -12t-52 -19.5q-36 -13 -101 -34t-144 -41.5t-164 -37t-161 -20.5q-131 -3 -234.5 35t-175.5 110t-110.5 173.5t-38.5 226.5z" />
    <glyph glyph-name="sf299.001" unicode="&#x63a;" horiz-adv-x="1060" arabic-form="initial" 
d="M293 1018q5 7 18 23.5t28 35t29 34.5t20 22q8 10 14 9.5t12 -5.5q36 -31 72.5 -59t60.5 -53q5 -5 4 -9.5t-6 -10.5q-22 -32 -46 -61t-47 -60q-10 -18 -27 -7q-13 7 -32.5 22t-39 32t-36.5 33.5t-25 27.5q-6 8 -5 13t6 13zM530 606q-48 0 -99.5 -14t-94.5 -33t-71.5 -38.5
t-29.5 -31.5q16 -66 45.5 -112.5t68 -77.5t84.5 -49.5t94 -28t96 -12.5t92 -4q66 -2 129 6t132 23q11 2 12.5 -0.5t-0.5 -12.5q-3 -21 -14 -50.5t-25 -57.5t-29 -48.5t-25 -23.5q-5 -1 -46 -4.5t-136 -9t-252.5 -12.5t-393.5 -14q-25 -1 -55.5 0t-46.5 6q0 11 0.5 38.5
t1.5 58t1.5 58t0.5 39.5q1 1 14 1h14h25h51q27 0 57 1.5t69 4.5q-33 60 -45 105.5t-9 84.5t17 76t33 80q22 50 47 87.5t58 63t77 38.5t104 14q33 1 86 -8.5t109 -32t105 -59t73 -88.5q3 -10 -10.5 -11t-38 3t-57.5 11.5t-70 15t-75.5 13t-72.5 5.5z" />
    <glyph glyph-name="sf318.001" unicode="&#x63a;" horiz-adv-x="794" arabic-form="medial" 
d="M204 902q5 7 18 23.5t28 35t29 34.5t20 22q8 10 14 9.5t12 -5.5q36 -31 72.5 -59t60.5 -53q5 -5 4 -9.5t-6 -10.5q-22 -32 -46 -61t-47 -60q-10 -18 -27 -7q-13 7 -32.5 22t-39 32t-36.5 33.5t-25 27.5q-6 8 -5 13t6 13zM829 202q0 -13 -0.5 -39.5t-1 -56.5t-1 -57.5
t-0.5 -42.5q-32 -6 -62 -6q-60 0 -109.5 8t-92 27.5t-81 51t-76.5 79.5q-32 -42 -84.5 -74.5t-113.5 -53.5t-124.5 -30.5t-117.5 -6.5v201q43 3 89 7.5t91.5 13.5t88.5 25t79 42q-51 50 -109 64t-112 4q-8 -2 -10 3.5t-2 11.5v10q1 6 4 23t6 36t6 36t4 23q6 37 35.5 57
t68 29.5t78.5 11t67 1.5q17 0 42.5 -0.5t54.5 -3t57.5 -9t51.5 -18.5t37.5 -31t14.5 -47q0 -56 -24 -104t-52 -91q19 -24 44 -40t52.5 -26.5t57 -16.5t57.5 -10h45h21h10q10 0 11 -1z" />
    <glyph glyph-name="sf277.036" unicode="&#x63a;" horiz-adv-x="885" arabic-form="final" 
d="M274 952q5 7 18 23.5t28 35t29 34.5t20 22q8 10 14 9.5t12 -5.5q36 -31 72.5 -59t60.5 -53q5 -5 4 -9.5t-6 -10.5q-22 -32 -46 -61t-47 -60q-10 -18 -27 -7q-13 7 -32.5 22t-39 32t-36.5 33.5t-25 27.5q-6 8 -5 13t6 13zM70 -283q1 184 69 334.5t212 275.5q3 2 4.5 5
t-0.5 8q-14 25 -36 43t-45.5 29t-46 15.5t-36.5 2.5q-16 0 -29 -2.5t-23 -5t-16 -3.5t-9 3q-4 33 3.5 64.5t15.5 61.5q8 28 20 43.5t29.5 24t41.5 12.5t56 9q18 4 59.5 6t93 0.5t106.5 -7.5t100 -18.5t73.5 -31.5t27.5 -46q-2 -20 -11.5 -42.5t-33 -50.5t-64.5 -62t-105 -76
q42 -30 91 -51t100.5 -33.5t103.5 -18t101 -4.5v-198q-22 -2 -45.5 -3.5t-49.5 -1.5q-62 0 -128.5 12t-124.5 39t-100.5 71.5t-55.5 110.5q0 6 -8 4q-133 -79 -203.5 -178t-70.5 -235q0 -89 36 -163.5t95 -132.5t134.5 -98.5t155.5 -61.5q78 -20 154.5 -25.5t155.5 -5.5
q81 0 157 2t157 6q2 0 14.5 0.5t27 0t27 -2t14 -6t-12.5 -12t-52 -19.5q-36 -13 -101 -34t-144 -41.5t-164 -37t-161 -20.5q-131 -3 -234.5 35t-175.5 110t-110.5 173.5t-38.5 226.5z" />
    <glyph glyph-name="sf301" unicode="&#x641;" horiz-adv-x="571" arabic-form="initial" 
d="M44 1113q5 7 18 23.5t28 35t29 34.5t20 22q8 10 14 9.5t12 -5.5q36 -31 72.5 -59t60.5 -53q5 -5 4 -9.5t-6 -10.5q-22 -32 -46 -61t-47 -60q-10 -18 -27 -7q-13 7 -32.5 22t-39 32t-36.5 33.5t-25 27.5q-6 8 -5 13t6 13zM99 620q4 -13 16 -24t27 -19.5t31 -13.5t28 -5
q21 0 41.5 9.5t38.5 19.5q-6 16 -17.5 31t-25 26.5t-28 18.5t-26.5 7q-26 0 -47.5 -16t-37.5 -34zM418 140q-27 -50 -78 -78t-114 -42t-131.5 -17t-129.5 -3v201q56 0 109.5 1.5t107 7t106.5 15.5t108 27q-6 72 -22.5 140.5t-51.5 128.5q-17 -31 -31 -59.5t-31 -50.5
t-40.5 -35t-59.5 -13q-33 -1 -63 12.5t-52.5 37t-35.5 54t-13 63.5q3 27 11.5 63t22.5 73t33.5 73t44.5 64.5t55 45.5t66 17q45 -3 84 -34t71 -78t55.5 -105t38 -115t19 -107.5t-2.5 -83.5q-19 -51 -37 -101.5t-39 -101.5z" />
    <glyph glyph-name="sf321" unicode="&#x641;" horiz-adv-x="741" arabic-form="medial" 
d="M257 1112q5 7 18 23.5t28 35t29 34.5t20 22q8 10 14 9.5t12 -5.5q36 -31 72.5 -59t60.5 -53q5 -5 4 -9.5t-6 -10.5q-22 -32 -46 -61t-47 -60q-10 -18 -27 -7q-13 7 -32.5 22t-39 32t-36.5 33.5t-25 27.5q-6 8 -5 13t6 13zM376 296q15 3 41.5 17t52 32t43.5 36t15 29
q-8 49 -24.5 87t-38.5 64t-47.5 39t-52.5 13q-25 0 -50.5 -13.5t-45.5 -41.5q-4 -5 0 -23t12.5 -43t20.5 -54t25 -56.5t26 -50.5t23 -35zM489 227q1 0 13 -3.5t37.5 -8t65.5 -9t98 -5.5h38h18h9q7 0 8 -1q0 -13 -0.5 -39.5t-1 -55.5t-1 -56.5t-0.5 -42.5q-16 -3 -31.5 -4
t-30.5 -2q-45 1 -94 3t-96 11t-88.5 27.5t-71.5 53.5q-18 -19 -57 -37t-92.5 -31.5t-117 -21t-129.5 -5.5v201q60 0 107.5 4.5t82 11.5t55.5 14t27 12q-7 13 -16 36.5t-16.5 49.5t-11.5 52t-1 45q2 31 7.5 70.5t15.5 81t26.5 81.5t40 71.5t56 50.5t74.5 19q50 0 87.5 -25.5
t63 -65.5t38 -87.5t12.5 -90.5q-2 -48 -31.5 -124.5t-92.5 -179.5z" />
    <glyph glyph-name="sf277.009" unicode="&#x641;" horiz-adv-x="1819" arabic-form="final" 
d="M1319 1088q5 7 18 23.5t28 35t29 34.5t20 22q8 10 14 9.5t12 -5.5q36 -31 72.5 -59t60.5 -53q5 -5 4 -9.5t-6 -10.5q-22 -32 -46 -61t-47 -60q-10 -18 -27 -7q-13 7 -32.5 22t-39 32t-36.5 33.5t-25 27.5q-6 8 -5 13t6 13zM1359 560q28 -61 63 -115.5t78 -106.5
q1 1 12.5 6.5t28.5 14t35.5 18t34 18.5t24 16.5t5.5 10.5q-19 97 -58 148.5t-105 53.5q-37 0 -66 -18t-52 -46zM71 410q-2 18 0 41.5t6 47t9 46t9 39.5q1 4 7.5 26.5t15 49.5t18 52t17.5 35q9 13 16 11.5t5 -13.5q-7 -37 -12.5 -74t-9.5 -67.5t-6.5 -51t-2.5 -23.5
q-3 -94 40 -156.5t114.5 -101t162.5 -56t185 -21t182 3.5t153 18q60 7 122.5 19t116.5 25t93 24.5t51 17.5q-40 70 -58.5 113.5t-17.5 70.5q3 35 7.5 69.5t10.5 64t12 53t12 36.5q13 23 30.5 44t40 36.5t51.5 25t65 9.5q52 0 88.5 -29.5t60 -73.5t35.5 -95t15 -94
q1 -29 -4.5 -71.5t-19 -85.5t-35.5 -79.5t-54 -52.5q21 -11 44.5 -18.5t53 -12.5t67 -7.5t87.5 -2.5v-199q-51 -6 -108 -2t-112 21t-102.5 48.5t-78.5 80.5q-209 -75 -406 -119t-393 -44q-72 0 -143 8.5t-135.5 27.5t-120.5 51t-96.5 79t-64 110.5t-23.5 145.5z" />
    <glyph glyph-name="sf301.001" unicode="&#x642;" horiz-adv-x="569" arabic-form="initial" 
d="M-31 1056q-20 15 -10 34q25 34 49 67.5t49 67.5q8 9 13.5 8t12.5 -6q17 -14 35.5 -29t36.5 -28.5t34.5 -24t28.5 -14.5q11 -3 13 -1t11 13q10 11 29.5 35t55.5 67q8 8 13.5 5.5t9.5 -5.5q48 -39 74.5 -60t39 -31l15 -12t3.5 -3q6 -4 7.5 -10t-3.5 -12
q-25 -32 -49.5 -63.5t-48.5 -63.5q-9 -11 -15 -10t-12 5q-35 22 -65 48.5t-62 58.5q-26 -32 -50 -64t-49 -63q-10 -12 -25.5 -6t-25.5 13q-18 10 -31 18.5t-26 18t-26.5 21t-31.5 26.5zM99 620q4 -13 16 -24t27 -19.5t31 -13.5t28 -5q21 0 41.5 9.5t38.5 19.5
q-6 16 -17.5 31t-25 26.5t-28 18.5t-26.5 7q-26 0 -47.5 -16t-37.5 -34zM418 140q-27 -50 -78 -78t-114 -42t-131.5 -17t-129.5 -3v201q56 0 109.5 1.5t107 7t106.5 15.5t108 27q-6 72 -22.5 140.5t-51.5 128.5q-17 -31 -31 -59.5t-31 -50.5t-40.5 -35t-59.5 -13
q-33 -1 -63 12.5t-52.5 37t-35.5 54t-13 63.5q3 27 11.5 63t22.5 73t33.5 73t44.5 64.5t55 45.5t66 17q45 -3 84 -34t71 -78t55.5 -105t38 -115t19 -107.5t-2.5 -83.5q-19 -51 -37 -101.5t-39 -101.5z" />
    <glyph glyph-name="sf321.001" unicode="&#x642;" horiz-adv-x="741" arabic-form="medial" 
d="M80 1020q-20 15 -10 34q25 34 49 67.5t49 67.5q8 9 13.5 8t12.5 -6q17 -14 35.5 -29t36.5 -28.5t34.5 -24t28.5 -14.5q11 -3 13 -1t11 13q10 11 29.5 35t55.5 67q8 8 13.5 5.5t9.5 -5.5q48 -39 74.5 -60t39 -31l15 -12t3.5 -3q6 -4 7.5 -10t-3.5 -12q-25 -32 -49.5 -63.5
t-48.5 -63.5q-9 -11 -15 -10t-12 5q-35 22 -65 48.5t-62 58.5q-26 -32 -50 -64t-49 -63q-10 -12 -25.5 -6t-25.5 13q-18 10 -31 18.5t-26 18t-26.5 21t-31.5 26.5zM376 296q15 3 41.5 17t52 32t43.5 36t15 29q-8 49 -24.5 87t-38.5 64t-47.5 39t-52.5 13q-25 0 -50.5 -13.5
t-45.5 -41.5q-4 -5 0 -23t12.5 -43t20.5 -54t25 -56.5t26 -50.5t23 -35zM489 227q1 0 13 -3.5t37.5 -8t65.5 -9t98 -5.5h38h18h9q7 0 8 -1q0 -13 -0.5 -39.5t-1 -55.5t-1 -56.5t-0.5 -42.5q-16 -3 -31.5 -4t-30.5 -2q-45 1 -94 3t-96 11t-88.5 27.5t-71.5 53.5
q-18 -19 -57 -37t-92.5 -31.5t-117 -21t-129.5 -5.5v201q60 0 107.5 4.5t82 11.5t55.5 14t27 12q-7 13 -16 36.5t-16.5 49.5t-11.5 52t-1 45q2 31 7.5 70.5t15.5 81t26.5 81.5t40 71.5t56 50.5t74.5 19q50 0 87.5 -25.5t63 -65.5t38 -87.5t12.5 -90.5q-2 -48 -31.5 -124.5
t-92.5 -179.5z" />
    <glyph glyph-name="sf277.010" unicode="&#x642;" horiz-adv-x="1179" arabic-form="final" 
d="M567 690q-20 15 -10 34q25 34 49 67.5t49 67.5q8 9 13.5 8t12.5 -6q17 -14 35.5 -29t36.5 -28.5t34.5 -24t28.5 -14.5q11 -3 13 -1t11 13q10 11 29.5 35t55.5 67q8 8 13.5 5.5t9.5 -5.5q48 -39 74.5 -60t39 -31l15 -12t3.5 -3q6 -4 7.5 -10t-3.5 -12q-25 -32 -49.5 -63.5
t-48.5 -63.5q-9 -11 -15 -10t-12 5q-35 22 -65 48.5t-62 58.5q-26 -32 -50 -64t-49 -63q-10 -12 -25.5 -6t-25.5 13q-18 10 -31 18.5t-26 18t-26.5 21t-31.5 26.5zM826 301q-15 -1 -33 -6t-33.5 -13.5t-26.5 -20t-13 -24.5q20 -16 56 -24.5t73 -12.5t67 -4.5t39 -0.5
q-4 11 -15 29.5t-27.5 36t-38.5 29.5t-48 11zM71 -197q-2 6 0 35.5t8 70.5t17 87t28 85q30 80 48 98t18 -13q0 -39 -10 -58q-17 -51 -26.5 -102t-9.5 -105q0 -79 25.5 -140t72 -102t111 -62.5t141.5 -21.5q74 0 147.5 17t143 45t132.5 65t117 78q0 10 1 27.5t1 38.5
t-0.5 42.5t-2 41t-4.5 35t-7 23.5q-211 -10 -311 30t-100 140q0 34 9 72t25 75.5t39.5 71.5t52.5 60.5t63 42t72 15.5q37 0 70 -20.5t61 -58t50.5 -91t37.5 -118.5q15 -3 41.5 -4t51.5 -1h30l-3 -196q-11 -3 -30 -4.5t-36 -1.5h-19q-7 -47 -11 -93.5t-11.5 -92.5
t-20.5 -91.5t-38 -89.5q-53 -59 -120.5 -106t-142.5 -79t-155 -49t-158 -17q-101 0 -175.5 28.5t-124 82.5t-74 132t-24.5 178z" />
    <glyph glyph-name="sf302.001" unicode="&#x643;" horiz-adv-x="788" arabic-form="initial" 
d="M-35 201q1 1 10 1h9h18h38h74q55 0 97.5 2t77.5 6.5t66 11.5t63 16q-16 41 -45.5 85t-66.5 88t-79.5 87.5t-85 83.5t-83 77t-73.5 68q-4 -27 -7 -44t-12 -19q-11 -3 -29.5 18t-37 51t-33 62t-17.5 50q-2 16 5 43.5t18 55.5t23.5 51t23.5 31q14 8 31 18.5t50 27.5t88 42.5
t144 62t219 86.5t313 117q12 6 18 2.5t-5 -17.5q-6 -6 -25 -27t-40.5 -44t-39.5 -41t-22 -18q-79 -37 -147 -66.5t-140.5 -61t-158 -69t-200.5 -90.5q179 -161 264 -251t86 -90q57 -66 94 -129t46 -128.5t-13.5 -135.5t-85.5 -149q-21 -21 -56.5 -33.5t-80 -19t-94 -9
t-97.5 -2.5h-63h-42q1 52 1.5 100t1.5 100z" />
    <glyph glyph-name="sf322.003" unicode="&#x643;" horiz-adv-x="990" arabic-form="medial" 
d="M-33 200q75 1 150 2.5t143 5.5t125 12t97 22q-16 41 -45.5 85t-66.5 88t-79.5 87t-85 83.5t-83 77.5t-73.5 68q-4 -27 -7 -44t-12 -19q-11 -3 -29.5 18t-37 51t-33 62t-17.5 50q-2 16 5 43.5t18 55.5t23.5 51t23.5 31q14 8 31 18.5t50 27.5t88 42.5t144 62t219 86.5
t313 117q12 6 18 2.5t-5 -17.5q-6 -6 -25 -27t-40.5 -44t-39.5 -41t-22 -18q-79 -37 -147 -66.5t-140.5 -61t-158 -69t-200.5 -90.5q81 -78 138.5 -133t98.5 -94.5t69.5 -68t52 -52.5t45 -48.5t49 -56t64 -75t89.5 -105.5q51 -59 124 -87.5t149 -28.5h41h19q17 0 18 -1
q0 -13 -0.5 -39.5t-1 -56.5t-1 -57.5t-0.5 -42.5q-32 -6 -62 -6q-40 0 -83 1t-83.5 10t-76 28t-60.5 55q-27 36 -53 73t-53 75q-11 -42 -33 -84.5t-59 -88.5q-13 -15 -44.5 -26t-73.5 -18.5t-90.5 -12.5t-94.5 -7.5t-85.5 -3.5t-64.5 -1h-42q1 52 1.5 100t1.5 100z" />
    <glyph glyph-name="sf322.004" unicode="&#x643;" horiz-adv-x="2091" arabic-form="final" 
d="M70 249q0 58 12 119.5t35 118.5q17 40 27 56t13.5 13t1.5 -23t-9 -53q-5 -21 -8.5 -41.5t-3.5 -41.5q0 -64 23 -110t61 -78t88 -51t104.5 -29t110 -13.5t104.5 -3.5q104 0 216.5 11.5t220 34.5t204 57t169.5 79q-6 46 -28 103.5t-53 113.5t-68.5 104t-74.5 76
q-1 -13 -2.5 -26t-5.5 -27q-3 -9 -9 -12t-12 7q-16 29 -38 60.5t-40 61.5t-27.5 56.5t0.5 45.5q17 29 24.5 56t22 52.5t42.5 49.5t87 47q204 72 400.5 143.5t398.5 144.5q12 5 18 2t-2 -15q-18 -26 -48 -57q-14 -16 -26.5 -28.5l-22.5 -22.5q-9 -11 -19 -18.5t-22.5 -14.5
t-29 -13l-38.5 -14q-68 -24 -152 -55t-169.5 -63t-164 -63.5t-134.5 -56.5q-14 -7 -15 -12t11 -17q65 -69 127.5 -136t125.5 -136t127 -142t131 -152q39 -46 80 -73t86 -40.5t96 -17t110 -1.5l-2 -195q-13 -2 -31.5 -4.5t-32.5 -2.5q-42 0 -85.5 1t-84 9.5t-76.5 28
t-63 55.5q-60 85 -102 140.5t-70 90t-43.5 52t-22.5 26.5q-2 -19 -3.5 -37.5t-1.5 -37.5q0 -27 -1.5 -54t-7.5 -53.5t-18.5 -52.5t-33.5 -50q-94 -59 -197 -99.5t-210.5 -65t-218.5 -35.5t-220 -11q-58 0 -119.5 5t-120 18t-111 36.5t-92 61.5t-63 92t-24.5 127z" />
    <glyph glyph-name="sf302.002" unicode="&#x6af;" horiz-adv-x="859" arabic-form="initial" 
d="M-34 200q1 1 10 1h9h18h38h74q112 0 208.5 6t165.5 30q-16 41 -45.5 85t-66.5 88t-79.5 87t-85 84t-83 77.5t-73.5 67.5q-4 -27 -7 -44t-12 -19q-11 -3 -29.5 18t-37 51t-33 62t-17.5 50q-2 16 5 43.5t18 55.5t23.5 51t23.5 31q14 8 31 18.5t50 27.5t88 42.5t144 62
t219 86.5t313 117q12 6 18 2.5t-5 -17.5q-6 -6 -25 -27t-40.5 -44t-39.5 -41t-22 -18q-79 -37 -147 -66.5t-140.5 -61t-158 -69t-200.5 -90.5q179 -161 264 -251t86 -90q57 -66 94 -129t46 -128.5t-13.5 -135.5t-85.5 -149q-21 -21 -67.5 -33.5t-104 -19t-118 -9
t-108.5 -2.5h-63h-42q1 52 1.5 100t1.5 100zM634 1443q-93 -36 -180 -70.5t-171.5 -68t-169.5 -68t-175 -70.5q-18 -8 -20.5 -3t11.5 18q11 11 32 29.5t44 38t42.5 35.5t27.5 22q179 69 345 134.5t336 126.5q13 5 15 0.5t-5 -11.5q-13 -13 -27 -24.5t-30 -24.5t-34.5 -28.5
t-40.5 -35.5z" />
    <glyph glyph-name="sf322.001" unicode="&#x6af;" horiz-adv-x="990" arabic-form="medial" 
d="M-33 198q75 1 150 2.5t143 5.5t125 12t97 22q-16 41 -45.5 85t-66.5 88t-79.5 87t-85 83.5t-83 77.5t-73.5 68q-4 -27 -7 -44t-12 -19q-11 -3 -29.5 18t-37 51t-33 62t-17.5 50q-2 16 5 43.5t18 55.5t23.5 51t23.5 31q14 8 31 18.5t50 27.5t88 42.5t144 62t219 86.5
t313 117q12 6 18 2.5t-5 -17.5q-6 -6 -25 -27t-40.5 -44t-39.5 -41t-22 -18q-79 -37 -147 -66.5t-140.5 -61t-158 -69t-200.5 -90.5q81 -78 138.5 -133t98.5 -94.5t69.5 -68t52 -52.5t45 -48.5t49 -56t64 -75t89.5 -105.5q51 -59 124 -87.5t149 -28.5h41h19q17 0 18 -1
q0 -13 -0.5 -39.5t-1 -56.5t-1 -57.5t-0.5 -42.5q-32 -6 -62 -6q-40 0 -83 1t-83.5 10t-76 28t-60.5 55q-27 36 -53 73t-53 75q-11 -42 -33 -84.5t-59 -88.5q-19 -24 -64.5 -38t-101.5 -20.5t-115.5 -8.5t-107.5 -2h-64h-42q1 52 1.5 100t1.5 100zM628 1448
q-93 -36 -180 -70.5t-171.5 -68t-169.5 -68t-175 -70.5q-18 -8 -20.5 -3t11.5 18q11 11 32 29.5t44 38t42.5 35.5t27.5 22q179 69 345 134.5t336 126.5q13 5 15 0.5t-5 -11.5q-13 -13 -27 -24.5t-30 -24.5t-34.5 -28.5t-40.5 -35.5z" />
    <glyph glyph-name="sf322.002" unicode="&#x6af;" horiz-adv-x="2091" arabic-form="final" 
d="M1901 1494l-57 -47.5t-61 -48.5q-123 -48 -226.5 -88.5t-184.5 -72t-137.5 -54t-85.5 -35.5q-18 -8 -22.5 -3.5t15.5 22.5q15 13 39 33q25 21 47.5 40t55.5 46q9 3 31 11.5t67.5 25.5t120.5 45t189 70q30 12 52 20.5t42 16t42.5 16t54.5 20.5q25 11 34.5 7t-16.5 -24z
M70 248q0 58 12 119.5t35 118.5q17 40 27 56t13.5 13t1.5 -23t-9 -53q-5 -21 -8.5 -41.5t-3.5 -41.5q0 -64 23 -110t61 -78t88 -51t104.5 -29t110 -13.5t104.5 -3.5q104 0 216.5 11.5t220 34.5t204 57t169.5 79q-6 46 -28 103.5t-53 113.5t-68.5 104t-74.5 76
q-1 -13 -2.5 -26t-5.5 -27q-3 -9 -9 -12t-12 7q-16 29 -38 60.5t-40 61.5t-27.5 56.5t0.5 45.5q17 29 24.5 56t22 52.5t42.5 49.5t87 47q204 72 400.5 143.5t398.5 144.5q12 5 18 2t-2 -15q-18 -26 -48 -57q-14 -16 -26.5 -28.5l-22.5 -22.5q-9 -11 -19 -18.5t-22.5 -14.5
t-29 -13l-38.5 -14q-68 -24 -152 -55t-169.5 -63t-164 -63.5t-134.5 -56.5q-14 -7 -15 -12t11 -17q65 -69 127.5 -136t125.5 -136t127 -142t131 -152q39 -46 80 -73t86 -40.5t96 -17t110 -1.5l-2 -195q-13 -2 -31.5 -4.5t-32.5 -2.5q-42 0 -85.5 1t-84 9.5t-76.5 28
t-63 55.5q-60 85 -102 140.5t-70 90t-43.5 52t-22.5 26.5q-2 -19 -3.5 -37.5t-1.5 -37.5q0 -27 -1.5 -54t-7.5 -53.5t-18.5 -52.5t-33.5 -50q-94 -59 -197 -99.5t-210.5 -65t-218.5 -35.5t-220 -11q-58 0 -119.5 5t-120 18t-111 36.5t-92 61.5t-63 92t-24.5 127z" />
    <glyph glyph-name="sf306" unicode="&#x644;" horiz-adv-x="366" arabic-form="initial" 
d="M-35 203q4 1 19 2t35 1.5t42 2t41 3t31 4.5t12 7q-10 153 -24 295t-28 289q-3 24 -3 42q0 29 3 49.5t5 41.5q-3 9 -14.5 21.5t-23.5 27t-22 31t-10 34.5q-2 20 9.5 46t27.5 52t33 50.5t26 41.5q13 16 20 16t7 -11q0 -4 -0.5 -7t-1.5 -7q-7 -32 8 -57.5t39 -46.5t51.5 -39
t45.5 -34q3 -5 -6 -22.5t-23 -41.5t-30.5 -51.5t-28.5 -52.5q6 -158 18.5 -313t12.5 -314q-4 -30 -15 -63t-24.5 -63.5t-27 -56.5t-21.5 -42q-20 -12 -39 -20t-40.5 -12.5t-46.5 -5.5t-57 1v202z" />
    <glyph glyph-name="sf325" unicode="&#x644;" horiz-adv-x="698" arabic-form="medial" 
d="M381 215q-9 -58 -39.5 -96t-73.5 -61.5t-95.5 -36t-104.5 -19.5q-24 -2 -49.5 -2.5t-53.5 1.5l2 199q17 0 33 0.5t32 1.5q79 0 160.5 13t150.5 48q-12 77 -23 159.5t-19.5 162t-15 152t-9.5 129.5q-3 40 1 85t11.5 91t17.5 89.5t19 81.5q6 21 11 18.5t7 -18.5
q25 -201 55 -403.5t66 -420.5q14 -85 63.5 -135t137.5 -50q19 0 35.5 -0.5t32.5 -1.5q0 -13 -0.5 -39.5t-1 -56.5t-1 -57.5t-0.5 -42.5q-32 -6 -62 -6q-59 0 -105 9t-79.5 33t-54.5 66t-29 107q-4 26 -9 28.5t-10 -28.5z" />
    <glyph glyph-name="sf277.011" unicode="&#x644;" horiz-adv-x="1326" arabic-form="final" 
d="M70 -139q11 118 47 229.5t105 217.5q18 24 29 32t14.5 4t0.5 -17t-13 -31q-33 -59 -55.5 -128.5t-28 -139t9 -134.5t56 -115t112.5 -80.5t178 -31.5q121 0 228.5 52.5t188.5 140.5q6 90 -1 210.5t-20 254t-27.5 270.5t-23.5 260q-3 42 2.5 100t15 116.5t20 108.5t17.5 75
q4 14 9 25t10 15t9 -0.5t6 -22.5q5 -103 10.5 -203t13.5 -203q5 -73 10.5 -150.5t17.5 -151.5t35 -139.5t63.5 -115t101.5 -78.5t150 -29v-49q0 -38 -1.5 -73.5t-1.5 -73.5q-49 -7 -96 -4.5t-90.5 18t-82 45.5t-70.5 77q8 -127 -7.5 -227.5t-57.5 -179.5t-111 -138.5
t-168 -104.5q-122 -42 -230 -36t-190 54.5t-131.5 137.5t-53.5 213z" />
    <glyph glyph-name="sf307" unicode="&#x645;" horiz-adv-x="820" arabic-form="initial" 
d="M399 374q26 -20 54 -42t56.5 -42.5t56 -38t53.5 -29.5q-3 26 -5.5 48t-6.5 43t-11.5 42.5t-20.5 46.5q-15 22 -39.5 25.5t-50 -4t-49.5 -22t-37 -27.5zM245 232q-9 -30 -24 -64.5t-36 -66.5t-49 -57t-62 -35q-27 -8 -53.5 -8.5t-55.5 -0.5v203q65 -2 104 3.5t63.5 15.5
t40 23.5t33.5 28.5q4 4 5 13t3 14q24 34 47 69.5t46 70.5q5 8 8 8q5 0 8 -6t6 -3q19 13 50 39.5t67.5 52.5t76.5 45.5t78 19.5q38 2 63.5 -22.5t42 -64t25.5 -89t13 -98.5t4.5 -91.5t0.5 -67.5q-6 -19 -19.5 -41.5t-30.5 -45.5t-35.5 -44.5t-33.5 -37.5q-27 -1 -63 16
t-83.5 48.5t-107 75.5t-132.5 97z" />
    <glyph glyph-name="sf326" unicode="&#x645;" horiz-adv-x="1099" arabic-form="medial" 
d="M586 351q-19 13 -39 13q-32 0 -62 -17t-59 -34q19 -16 53.5 -32t74.5 -30.5t81 -26t74 -19.5q-5 15 -20.5 34.5t-34.5 40t-37.5 39.5t-30.5 32zM1069 -2q-54 -2 -98 6t-79.5 24.5t-64.5 41.5t-54 57q-9 -13 -19.5 -34t-24 -40.5t-30.5 -33.5t-39 -14q-47 12 -94.5 23.5
t-93 26.5t-88.5 35.5t-82 51.5q-1 1 -8 -9.5t-22 -27t-40 -35.5t-61.5 -35.5t-86.5 -27t-115 -9.5q-3 14 -3.5 31t-0.5 44v43v83q1 1 11 1h13h29q24 0 54.5 1t67.5 8t79.5 21.5t89.5 41.5q78 99 134.5 168t104.5 96t93.5 6t100.5 -103q42 -57 83 -102.5t87 -77.5
q34 -24 71.5 -35.5t75.5 -17.5q17 -3 36 -4t39 -1q0 -13 -0.5 -39.5t-1 -56.5t-1 -57.5t-0.5 -42.5q-16 -3 -31.5 -4.5t-30.5 -2.5z" />
    <glyph glyph-name="sf277.012" unicode="&#x645;" horiz-adv-x="889" arabic-form="final" 
d="M243 -331q7 -34 8.5 -102t-4 -151t-19.5 -171t-38 -163q-6 -20 -11 -27t-9 -4t-5.5 14t-0.5 27q7 145 -3.5 273.5t-27.5 232.5t-34.5 180t-24.5 118q-10 69 3 140t31 137q18 67 52 111t84.5 70.5t116.5 39.5t148 19q4 6 7.5 17.5t7.5 22.5t9.5 19t13.5 8q6 0 11.5 -7
t10 -16t7.5 -18.5t4 -13.5q21 -50 56.5 -91.5t80.5 -71t97.5 -45.5t108.5 -15v-51v-48q0 -23 -1 -47t-3 -51q-34 -4 -66 -4.5t-62 4.5t-57.5 18t-52.5 36q-1 0 -7 -25t-19.5 -55.5t-35.5 -57t-55 -29.5q-49 -5 -78.5 9t-45 36t-20.5 47t-5 43q0 22 5.5 44t11.5 43.5t11.5 43
t5.5 44.5q-5 11 -28 13t-55 -2.5t-67.5 -15t-65.5 -24.5t-50 -30.5t-20 -33.5q0 -1 0.5 -5t2.5 -18t7 -42t14 -76.5t22.5 -121.5t33.5 -177z" />
    <glyph glyph-name="sf300.008" unicode="&#x646;" horiz-adv-x="367" arabic-form="initial" 
d="M-13 1003q5 7 18 23.5t28 35t29 34.5t20 22q8 10 14 9.5t12 -5.5q36 -31 72.5 -59t60.5 -53q5 -5 4 -9.5t-6 -10.5q-22 -32 -46 -61t-47 -60q-10 -18 -27 -7q-13 7 -32.5 22t-39 32t-36.5 33.5t-25 27.5q-6 8 -5 13t6 13zM195 216q1 39 -10.5 79t-28.5 79.5t-35.5 78
t-30.5 74.5q-9 17 0 34q17 39 35 77.5t35 78.5q3 7 9 6t8 -6q12 -25 32.5 -70.5t40 -100t33.5 -112.5t13 -108q0 -39 -7 -71.5t-20 -65.5t-31 -70t-40 -85q-20 -10 -50.5 -17t-63.5 -11t-64.5 -5.5t-54.5 -0.5v200q23 0 54 0.5t63 2.5t62 5t51 8z" />
    <glyph glyph-name="sf277.023" unicode="&#x646;" horiz-adv-x="673" arabic-form="medial" 
d="M28 747q5 7 18 23.5t28 35t29 34.5t20 22q8 10 14 9.5t12 -5.5q36 -31 72.5 -59t60.5 -53q5 -5 4 -9.5t-6 -10.5q-22 -32 -46 -61t-47 -60q-10 -18 -27 -7q-13 7 -32.5 22t-39 32t-36.5 33.5t-25 27.5q-6 8 -5 13t6 13zM338 219q-27 -52 -67.5 -93.5t-89 -70t-104 -43.5
t-112.5 -14v205q20 -2 34 -1.5t25 0.5q49 0 101.5 16t101 41.5t91 58t72.5 65.5q9 10 14 7t5 -12q-4 -47 18 -77.5t56.5 -49.5t75.5 -28.5t74 -15.5q17 -3 36 -4t39 -1q0 -13 -0.5 -39.5t-1 -56.5t-1 -57.5t-0.5 -42.5q-92 -12 -127 -2q-43 5 -84.5 19.5t-74.5 40t-55 64
t-26 91.5z" />
    <glyph glyph-name="sf277.020" unicode="&#x646;" horiz-adv-x="1140" arabic-form="final" 
d="M535 701q5 7 18 23.5t28 35t29 34.5t20 22q8 10 14 9.5t12 -5.5q36 -31 72.5 -59t60.5 -53q5 -5 4 -9.5t-6 -10.5q-22 -32 -46 -61t-47 -60q-10 -18 -27 -7q-13 7 -32.5 22t-39 32t-36.5 33.5t-25 27.5q-6 8 -5 13t6 13zM160 -40q0 -80 29 -142.5t78.5 -105t116.5 -64.5
t144 -22q51 0 113.5 11t123 33t112.5 55t82 77q0 30 -3.5 66t-15.5 89t-36.5 128.5t-66.5 185.5l43 157q3 12 6.5 10t5.5 -8q23 -53 47 -95.5t56 -72.5t75 -45.5t105 -14.5v-198q-34 -6 -70 -3.5t-72 7.5q0 -85 -11 -166t-40 -162q-44 -71 -103.5 -121t-125 -81t-133.5 -45
t-130 -14q-89 0 -163.5 28t-129.5 78.5t-87.5 121t-37.5 154.5q-10 107 26.5 228.5t130.5 271.5q29 45 38.5 40.5t-13.5 -55.5q-10 -21 -26 -57.5t-31 -80.5t-26 -93t-11 -95z" />
    <glyph glyph-name="sf277.044" unicode="&#x6ba;" horiz-adv-x="1140" arabic-form="final" 
d="M160 -40q0 -80 29 -142.5t78.5 -105t116.5 -64.5t144 -22q51 0 113.5 11t123 33t112.5 55t82 77q0 30 -3.5 66t-15.5 89t-36.5 128.5t-66.5 185.5l43 157q3 12 6.5 10t5.5 -8q23 -53 47 -95.5t56 -72.5t75 -45.5t105 -14.5v-198q-34 -6 -70 -3.5t-72 7.5q0 -85 -11 -166
t-40 -162q-44 -71 -103.5 -121t-125 -81t-133.5 -45t-130 -14q-89 0 -163.5 28t-129.5 78.5t-87.5 121t-37.5 154.5q-10 107 26.5 228.5t130.5 271.5q29 45 38.5 40.5t-13.5 -55.5q-10 -21 -26 -57.5t-31 -80.5t-26 -93t-11 -95z" />
    <glyph glyph-name="sf277.016" unicode="&#x648;" horiz-adv-x="625" arabic-form="final" 
d="M201 254q1 -11 25.5 -22t57.5 -19.5t68 -13.5t57 -3q-17 33 -41 60t-51.5 38.5t-57.5 3.5t-58 -44zM103 150q1 29 8.5 66t21.5 74.5t34 73.5t45.5 64.5t56 45.5t66.5 17q52 1 89 -26.5t63 -70.5t42.5 -93.5t28.5 -94.5q15 -2 36 -3t66 -1q0 -49 -0.5 -98t-0.5 -98
q-18 -5 -46 -5.5t-51 -0.5h-26q-20 -50 -39.5 -93t-40.5 -82t-44.5 -75t-50.5 -71q-30 -38 -58 -56.5t-61 -27.5q-33 -7 -75 -13t-88 -9t-93.5 -2.5t-90.5 6.5q-15 1 -33.5 6t-27.5 11t-1.5 12.5t44.5 11.5q84 13 173 45.5t169.5 81.5t146.5 113.5t105 141.5
q-30 -2 -68.5 -1.5t-78.5 5.5t-79 15t-70 27.5t-50.5 43t-21.5 60.5z" />
    <glyph glyph-name="sf277.045" unicode="&#x624;" horiz-adv-x="625" arabic-form="final" 
d="M223 854q7 19 14.5 42t16.5 46t20.5 44t26.5 36q15 13 34 22.5t40 13t42 -0.5t40 -17q0 -6 -4 -18t-9.5 -26t-11.5 -27t-11 -22q-10 -12 -19 -3q-15 12 -32 15t-33.5 -1.5t-31 -14t-26.5 -22.5q4 -18 21.5 -30.5t39 -19.5t43 -10t33.5 -3q33 2 66.5 13t63.5 23q14 5 8 -6
q-12 -21 -24.5 -40.5t-29.5 -44.5q-35 -12 -72.5 -23t-72.5 -25.5t-66 -35.5t-53 -52q-2 -4 -6.5 -4.5t-2.5 5.5q4 29 16 53.5t27 51.5q2 3 -1 7q-18 13 -33 30.5t-13 43.5zM201 254q1 -11 25.5 -22t57.5 -19.5t68 -13.5t57 -3q-17 33 -41 60t-51.5 38.5t-57.5 3.5t-58 -44z
M103 150q1 29 8.5 66t21.5 74.5t34 73.5t45.5 64.5t56 45.5t66.5 17q52 1 89 -26.5t63 -70.5t42.5 -93.5t28.5 -94.5q15 -2 36 -3t66 -1q0 -49 -0.5 -98t-0.5 -98q-18 -5 -46 -5.5t-51 -0.5h-26q-20 -50 -39.5 -93t-40.5 -82t-44.5 -75t-50.5 -71q-30 -38 -58 -56.5
t-61 -27.5q-33 -7 -75 -13t-88 -9t-93.5 -2.5t-90.5 6.5q-15 1 -33.5 6t-27.5 11t-1.5 12.5t44.5 11.5q84 13 173 45.5t169.5 81.5t146.5 113.5t105 141.5q-30 -2 -68.5 -1.5t-78.5 5.5t-79 15t-70 27.5t-50.5 43t-21.5 60.5z" />
    <glyph glyph-name="sf265.001.init" unicode="&#x6c1;" horiz-adv-x="906" arabic-form="initial" 
d="M497 -285q4 81 45 160q41 76 116 132q-22 -3 -49 -3q-114 0 -185 49t-91 165q-26 -59 -65.5 -101t-88 -68.5t-103.5 -38.5t-111 -10v203q78 -1 140.5 12.5t113 38.5t90 58t71.5 71q11 13 14.5 7t3.5 -16v-11q1 -38 22.5 -66.5t53.5 -48t70 -30.5t72.5 -14t61 1t34.5 14
q0 16 -7 38.5t-15.5 45.5t-16 43t-9.5 31q5 16 14 35t19.5 38.5t21.5 38.5t20 35q14 22 22.5 16t14.5 -23q8 -25 18.5 -58t19.5 -68t15.5 -69t6.5 -61q-4 -21 -11 -52t-18 -63t-26 -60.5t-34 -43.5q-21 -17 -54 -27l-6 -2q1 -3 0 -7q-1 -6 -9 -15q-20 -21 -42.5 -45t-42 -52
t-31.5 -59.5t-10 -67.5q0 -9 3.5 -24.5t10.5 -30.5t16.5 -26.5t21.5 -11.5q9 0 13.5 12.5t9 27t11.5 27t20 12.5q7 0 15.5 -9.5t15.5 -23t11 -29t2 -28.5q0 -19 -5.5 -37.5t-17 -33.5t-28.5 -24t-39 -9q-30 2 -51.5 17.5t-35.5 38t-21 49t-7 51.5z" />
    <glyph glyph-name="sf297" unicode="&#x6c1;" horiz-adv-x="785" arabic-form="medial" 
d="M513 -320q-2 -13 -6 -33.5t-10 -43.5t-13 -45.5t-16 -39.5t-19 -24.5t-21 -0.5q-76 51 -137.5 105t-106 117t-69.5 138.5t-28 169.5q-28 -14 -58.5 -18.5t-63.5 -3.5v201h58q43 0 87 7.5t86 31.5q-5 31 -10.5 54.5t-13 48.5t-17.5 56.5t-24 79.5q-1 5 -1.5 8.5t-0.5 6.5
t0.5 6.5t1.5 8.5q14 36 28 69.5t30 75.5q3 12 7 14.5t8.5 -1.5t8 -11t5.5 -14q7 -23 21 -62t27.5 -83t23.5 -87.5t9 -75.5q-4 -13 -10 -35t-13.5 -48.5t-18 -54.5t-23 -53.5t-28 -46t-33.5 -30.5q0 -29 11.5 -58t28.5 -55.5t38 -50t40 -41.5q12 43 31.5 94t36.5 96
q22 57 69 87.5t109 44t135 16t148 4.5v-204q-80 2 -159 -1t-142 -10t-102 -18.5t-39 -26.5q0 -43 17 -84.5t39.5 -76.5t45 -62t33.5 -41z" />
    <glyph glyph-name="sf277.013" unicode="&#x6c1;" horiz-adv-x="941" arabic-form="final" 
d="M208 414q7 -2 28 -5t49.5 -4t62.5 1t67 9.5t62 21.5t49 38q0 6 -1 23t-3 37.5t-4.5 42.5t-6 39t-7.5 26t-9 4q-70 -56 -118 -95t-80 -64.5t-49 -39.5t-26 -21.5t-11 -9.5zM548 371q-16 -43 -43 -71t-62 -44.5t-76.5 -23t-86.5 -6.5q-10 0 -29.5 0.5t-43 3t-48 8t-44.5 14
t-32.5 22t-12.5 32.5q0 17 10.5 40.5t27 49t38 52t43 49t41 40.5t33.5 27q60 43 120 79.5t120 74.5v73q10 32 19 64t19 64q3 12 6.5 15.5t6.5 2t5 -6.5t3 -11q12 -57 21 -109t17 -106t16.5 -113t19.5 -130q10 -68 39 -116.5t73 -80t102 -46.5t126 -15q0 -13 -0.5 -39.5
t-1 -56t-1 -57.5t-0.5 -43q-26 -5 -48.5 -5.5t-44.5 0.5q-84 6 -144 27.5t-100 65t-60.5 111t-25.5 165.5h-2z" />
    <glyph glyph-name="sf265.002.fina" unicode="&#x6c3;" horiz-adv-x="941" 
d="M208 414q7 -2 28 -5t49.5 -4t62.5 1t67 9.5t62 21.5t49 38q0 6 -1 23t-3 37.5t-4.5 42.5t-6 39t-7.5 26t-9 4q-70 -56 -118 -95t-80 -64.5t-49 -39.5t-26 -21.5t-11 -9.5zM548 371q-16 -43 -43 -71t-62 -44.5t-76.5 -23t-86.5 -6.5q-10 0 -29.5 0.5t-43 3t-48 8t-44.5 14
t-32.5 22t-12.5 32.5q0 17 10.5 40.5t27 49t38 52t43 49t41 40.5t33.5 27q60 43 120 79.5t120 74.5v73q10 32 19 64t19 64q3 12 6.5 15.5t6.5 2t5 -6.5t3 -11q12 -57 21 -109t17 -106t16.5 -113t19.5 -130q10 -68 39 -116.5t73 -80t102 -46.5t126 -15q0 -13 -0.5 -39.5
t-1 -56t-1 -57.5t-0.5 -43q-26 -5 -48.5 -5.5t-44.5 0.5q-84 6 -144 27.5t-100 65t-60.5 111t-25.5 165.5h-2zM270 1058q-20 15 -10 34q25 34 49 67.5t49 67.5q8 9 13.5 8t12.5 -6q17 -14 35.5 -29t36.5 -28.5t34.5 -24t28.5 -14.5q11 -3 13 -1t11 13q10 11 29.5 35t55.5 67
q8 8 13.5 5.5t9.5 -5.5q48 -39 74.5 -60t39 -31l15 -12t3.5 -3q6 -4 7.5 -10t-3.5 -12q-25 -32 -49.5 -63.5t-48.5 -63.5q-9 -11 -15 -10t-12 5q-35 22 -65 48.5t-62 58.5q-26 -32 -50 -64t-49 -63q-10 -12 -25.5 -6t-25.5 13q-18 10 -31 18.5t-26 18t-26.5 21t-31.5 26.5z
" />
    <glyph glyph-name="sf305" unicode="&#x6be;" horiz-adv-x="892" arabic-form="initial" 
d="M214 367q8 -17 27.5 -31t43 -25.5t47.5 -19.5t41 -12q12 2 25 7.5t24 12t18.5 12t8.5 6.5q1 22 -2 50t-13.5 53t-29.5 42t-49 17q-23 0 -43 -11t-37.5 -27.5t-32.5 -36t-28 -37.5zM493 268q9 -13 39 -28t67 -30.5t75 -30.5t64 -27q0 22 -8.5 50.5t-23 60.5t-33.5 64.5
t-40 62t-43 53t-42 37.5q-6 -35 -11 -58t-10.5 -44.5t-13.5 -46.5t-20 -63zM815 210q-1 -28 -6 -49t-15 -42.5t-24 -47.5t-33 -64q-8 -15 -14 -23.5t-13.5 -11.5t-17 0t-24.5 12q-37 21 -77 43t-82 39t-85.5 26.5t-86.5 5.5q-48 -33 -90.5 -53t-86 -30.5t-91 -13
t-104.5 -1.5v199q25 0 58.5 2t64 5.5t52 9.5t21.5 14q-9 35 -3 90.5t30 115t69 114.5t114 89q18 54 28 83t16 42q8 17 17 14t22 -9q42 -23 87.5 -58t88 -78.5t79.5 -94t63 -105t38 -111t5 -112.5z" />
    <glyph glyph-name="sf324" unicode="&#x6be;" horiz-adv-x="882" arabic-form="medial" 
d="M344 628q-48 -124 -101.5 -224.5t-119.5 -188.5q33 6 74 21t79 31.5t68.5 30.5t42.5 19v39q0 20 -1.5 36t-6 42.5t-13 71t-22.5 122.5zM254 1q21 -53 65.5 -93t101 -67t118 -40t117.5 -11q-35 51 -80 87t-96.5 61t-108.5 40t-117 23zM392 195q73 -1 136.5 0.5t125.5 3.5
t125.5 3.5t137.5 0.5v-202q-14 -1 -27.5 -1.5t-24.5 -0.5q-34 0 -63 1.5t-62 1.5q-28 0 -65 -3q19 -21 40.5 -44.5t39.5 -49t29.5 -53.5t10.5 -58q-2 -15 -11.5 -40.5t-23 -53t-30 -52t-32.5 -37.5q-74 -13 -143 -6t-129 29.5t-108.5 58t-82 80.5t-50 96.5t-11.5 105.5
q-21 -1 -44.5 -1.5t-46.5 0.5q-1 6 -0.5 14t-0.5 11q-28 0 -58 0.5t-58 0.5q-2 200 7 200q12 0 30 0.5t33 0.5h26h7q51 94 100.5 183t92.5 177q19 45 31 75t20.5 52.5t16.5 40.5t18.5 39t26.5 49t41 70q4 8 12.5 10.5t8.5 -12.5q7 -62 16.5 -120t18 -116t14.5 -117t6 -123
q0 -30 -12 -57.5t-28 -54t-33 -52t-27 -50.5z" />
    <glyph glyph-name="sf324.001" unicode="&#x6be;" horiz-adv-x="1527" arabic-form="final" 
d="M987 325q0 40 -3.5 77t-9 73t-12.5 73.5t-15 78.5q-6 -14 -12.5 -28t-9.5 -22q-2 -5 -9.5 -19.5t-19.5 -39.5q-24 -48 -51 -96t-57.5 -97t-73.5 -101q36 8 73 20t73 25.5t68.5 28t58.5 27.5zM1218 -173q-76 85 -171.5 127.5t-204.5 56.5q22 -47 61 -86.5t87 -68.5
t102 -47t106 -23q22 -2 31.5 -0.5t10.5 6.5t-5.5 14t-16.5 21zM668 10q-47 1 -94.5 -1.5t-94.5 -0.5t-92.5 12t-87.5 36l-213 132q-17 12 -16 18t9.5 8t19.5 1.5t13 -0.5q52 -6 126.5 -8t155.5 -2t152.5 3t116.5 8q46 82 91.5 161.5t93.5 164.5q23 46 38.5 79.5t27.5 60
t22.5 49t22.5 46.5t28 52t39 65q11 18 13.5 18.5t6.5 -21.5q2 -12 5.5 -34.5t9.5 -61t15 -96t21 -139.5q5 -56 3.5 -103t-13.5 -90t-38 -84.5t-70 -85.5q150 6 292 5t292 1q-1 -51 -1.5 -99t-1.5 -99q-72 -4 -145.5 -4.5t-146.5 -0.5q20 -23 41 -47.5t37.5 -50t27 -53.5
t10.5 -58q-2 -15 -13 -45t-28 -61t-38 -55.5t-42 -27.5q-60 -6 -121.5 2.5t-118.5 29.5t-106 54.5t-85 78.5t-55.5 100t-16.5 119q-19 0 -38 -0.5t-38 -0.5q-2 0 -5 3.5t-5.5 8t-4 8.5t-1.5 5z" />
    <glyph glyph-name="sf300.006" unicode="&#x6cc;" horiz-adv-x="367" arabic-form="initial" 
d="M-90 -376q-20 15 -10 34q25 34 49 67.5t49 67.5q8 9 13.5 8t12.5 -6q17 -13 35.5 -28t36.5 -28.5t34.5 -24t28.5 -14.5q11 -4 13 -2t11 13q10 11 29.5 35t55.5 67q8 8 13.5 5.5t9.5 -5.5q48 -39 74.5 -60t39 -31l15 -12t3.5 -3q6 -4 7.5 -10t-3.5 -12
q-25 -32 -49.5 -63.5t-48.5 -63.5q-9 -11 -15 -10t-12 5q-35 22 -65 48.5t-62 58.5q-26 -32 -50 -64t-49 -63q-10 -12 -25.5 -6t-25.5 13q-18 10 -31 18.5t-26 18t-26.5 21t-31.5 26.5zM195 216q1 39 -10.5 79t-28.5 79.5t-35.5 78t-30.5 74.5q-9 17 0 34q17 39 35 77.5
t35 78.5q3 7 9 6t8 -6q12 -25 32.5 -70.5t40 -100t33.5 -112.5t13 -108q0 -39 -7 -71.5t-20 -65.5t-31 -70t-40 -85q-20 -10 -50.5 -17t-63.5 -11t-64.5 -5.5t-54.5 -0.5v200q23 0 54 0.5t63 2.5t62 5t51 8z" />
    <glyph glyph-name="sf277.024" unicode="&#x6cc;" horiz-adv-x="673" arabic-form="medial" 
d="M1 -340q-20 15 -10 34q25 34 49 67.5t49 67.5q8 9 13.5 8t12.5 -6q17 -13 35.5 -28t36.5 -28.5t34.5 -24t28.5 -14.5q11 -4 13 -2t11 13q10 11 29.5 35t55.5 67q8 8 13.5 5.5t9.5 -5.5q48 -39 74.5 -60t39 -31l15 -12t3.5 -3q6 -4 7.5 -10t-3.5 -12q-25 -32 -49.5 -63.5
t-48.5 -63.5q-9 -11 -15 -10t-12 5q-35 22 -65 48.5t-62 58.5q-26 -32 -50 -64t-49 -63q-10 -12 -25.5 -6t-25.5 13q-18 10 -31 18.5t-26 18t-26.5 21t-31.5 26.5zM338 219q-27 -52 -67.5 -93.5t-89 -70t-104 -43.5t-112.5 -14v205q20 -2 34 -1.5t25 0.5q49 0 101.5 16
t101 41.5t91 58t72.5 65.5q9 10 14 7t5 -12q-4 -47 18 -77.5t56.5 -49.5t75.5 -28.5t74 -15.5q17 -3 36 -4t39 -1q0 -13 -0.5 -39.5t-1 -56.5t-1 -57.5t-0.5 -42.5q-92 -12 -127 -2q-43 5 -84.5 19.5t-74.5 40t-55 64t-26 91.5z" />
    <glyph glyph-name="sf297.001" unicode="&#x6cc;" horiz-adv-x="1194" arabic-form="final" 
d="M832 135q38 21 74 33.5t73 19.5t77.5 9.5t87.5 3.5h19h18q10 0 21 0.5t27 2.5q-1 -1 -1 -13v-12v-25v-49v-49v-24v-12q0 -12 -1 -13q-17 -4 -33.5 -5t-33.5 -1q-48 1 -92.5 2.5t-92.5 7.5q-11 0 -43 5t-67.5 8t-66 0t-38.5 -18q1 -11 13.5 -20.5t31.5 -18t41.5 -15.5
t43 -12.5t37.5 -9t24 -5.5q24 -5 50.5 -8.5t49 -12t36.5 -25.5t13 -50q-4 -69 -42.5 -128.5t-98 -109.5t-132.5 -89t-145 -65t-136.5 -39t-107.5 -11q-79 0 -139.5 22.5t-104.5 61.5t-72 91t-40.5 111.5t-11 123.5t16.5 126q11 38 22.5 71.5t24 64t27.5 60t33 59.5
q9 15 18.5 27.5t16 16.5t7 -4.5t-8.5 -36.5q-9 -25 -14 -39.5t-9.5 -29t-10 -34t-15.5 -54.5q-21 -89 -15.5 -169.5t42.5 -141t108 -96.5t182 -36q76 0 153.5 20t149.5 50t135.5 66t111.5 68q-112 18 -182.5 36t-110.5 37.5t-54.5 42.5t-14.5 50q0 31 14.5 58.5t36.5 50.5
t48 42t50 33z" />
    <glyph glyph-name="sf271.002.fina" unicode="&#x64a;" horiz-adv-x="1194" arabic-form="final" 
d="M832 135q38 21 74 33.5t73 19.5t77.5 9.5t87.5 3.5h19h18q10 0 21 0.5t27 2.5q-1 -1 -1 -13v-12v-25v-49v-49v-24v-12q0 -12 -1 -13q-17 -4 -33.5 -5t-33.5 -1q-48 1 -92.5 2.5t-92.5 7.5q-11 0 -43 5t-67.5 8t-66 0t-38.5 -18q1 -11 13.5 -20.5t31.5 -18t41.5 -15.5
t43 -12.5t37.5 -9t24 -5.5q24 -5 50.5 -8.5t49 -12t36.5 -25.5t13 -50q-4 -69 -42.5 -128.5t-98 -109.5t-132.5 -89t-145 -65t-136.5 -39t-107.5 -11q-79 0 -139.5 22.5t-104.5 61.5t-72 91t-40.5 111.5t-11 123.5t16.5 126q11 38 22.5 71.5t24 64t27.5 60t33 59.5
q9 15 18.5 27.5t16 16.5t7 -4.5t-8.5 -36.5q-9 -25 -14 -39.5t-9.5 -29t-10 -34t-15.5 -54.5q-21 -89 -15.5 -169.5t42.5 -141t108 -96.5t182 -36q76 0 153.5 20t149.5 50t135.5 66t111.5 68q-112 18 -182.5 36t-110.5 37.5t-54.5 42.5t-14.5 50q0 31 14.5 58.5t36.5 50.5
t48 42t50 33zM231 -910q-20 15 -10 34q25 34 49 67.5t49 67.5q8 9 13.5 8t12.5 -6q17 -13 35.5 -28t36.5 -28.5t34.5 -24t28.5 -14.5q11 -4 13 -2t11 13q10 11 29.5 35t55.5 67q8 8 13.5 5.5t9.5 -5.5q48 -39 74.5 -60t39 -31l15 -12t3.5 -3q6 -4 7.5 -10t-3.5 -12
q-25 -32 -49.5 -63.5t-48.5 -63.5q-9 -11 -15 -10t-12 5q-35 22 -65 48.5t-62 58.5q-26 -32 -50 -64t-49 -63q-10 -12 -25.5 -6t-25.5 13q-18 10 -31 18.5t-26 18t-26.5 21t-31.5 26.5z" />
    <glyph glyph-name="sf300.007" unicode="&#x626;" horiz-adv-x="367" arabic-form="initial" 
d="M-30 971q7 19 14.5 42t16.5 46t20.5 44t26.5 36q15 13 34 22.5t40 13t42 -0.5t40 -17q0 -6 -4 -18t-9.5 -26t-11.5 -27t-11 -22q-10 -12 -19 -3q-15 12 -32 15t-33.5 -1.5t-31 -14t-26.5 -22.5q4 -18 21.5 -30.5t39 -19.5t43 -10t33.5 -3q33 2 66.5 13t63.5 23q14 5 8 -6
q-12 -21 -24.5 -40.5t-29.5 -44.5q-35 -12 -72.5 -23t-72.5 -25.5t-66 -35.5t-53 -52q-2 -4 -6.5 -4.5t-2.5 5.5q4 29 16 53.5t27 51.5q2 3 -1 7q-18 13 -33 30.5t-13 43.5zM195 216q1 39 -10.5 79t-28.5 79.5t-35.5 78t-30.5 74.5q-9 17 0 34q17 39 35 77.5t35 78.5
q3 7 9 6t8 -6q12 -25 32.5 -70.5t40 -100t33.5 -112.5t13 -108q0 -39 -7 -71.5t-20 -65.5t-31 -70t-40 -85q-20 -10 -50.5 -17t-63.5 -11t-64.5 -5.5t-54.5 -0.5v200q23 0 54 0.5t63 2.5t62 5t51 8z" />
    <glyph glyph-name="sf277.025" unicode="&#x626;" horiz-adv-x="673" arabic-form="medial" 
d="M67 675q7 19 14.5 42t16.5 46t20.5 44t26.5 36q15 13 34 22.5t40 13t42 -0.5t40 -17q0 -6 -4 -18t-9.5 -26t-11.5 -27t-11 -22q-10 -12 -19 -3q-15 12 -32 15t-33.5 -1.5t-31 -14t-26.5 -22.5q4 -18 21.5 -30.5t39 -19.5t43 -10t33.5 -3q33 2 66.5 13t63.5 23q14 5 8 -6
q-12 -21 -24.5 -40.5t-29.5 -44.5q-35 -12 -72.5 -23t-72.5 -25.5t-66 -35.5t-53 -52q-2 -4 -6.5 -4.5t-2.5 5.5q4 29 16 53.5t27 51.5q2 3 -1 7q-18 13 -33 30.5t-13 43.5zM338 219q-27 -52 -67.5 -93.5t-89 -70t-104 -43.5t-112.5 -14v205q20 -2 34 -1.5t25 0.5
q49 0 101.5 16t101 41.5t91 58t72.5 65.5q9 10 14 7t5 -12q-4 -47 18 -77.5t56.5 -49.5t75.5 -28.5t74 -15.5q17 -3 36 -4t39 -1q0 -13 -0.5 -39.5t-1 -56.5t-1 -57.5t-0.5 -42.5q-92 -12 -127 -2q-43 5 -84.5 19.5t-74.5 40t-55 64t-26 91.5z" />
    <glyph glyph-name="sf297.004" unicode="&#x626;" horiz-adv-x="1195" arabic-form="final" 
d="M833 135q38 21 74 33.5t73 19.5t77.5 9.5t87.5 3.5h19h18q10 0 21 0.5t27 2.5q-1 -1 -1 -13v-12v-25v-49v-49v-24v-12q0 -12 -1 -13q-17 -4 -33.5 -5t-33.5 -1q-48 1 -92.5 2.5t-92.5 7.5q-11 0 -43 5t-67.5 8t-66 0t-38.5 -18q1 -11 13.5 -20.5t31.5 -18t41.5 -15.5
t43 -12.5t37.5 -9t24 -5.5q24 -5 50.5 -8.5t49 -12t36.5 -25.5t13 -50q-4 -69 -42.5 -128.5t-98 -109.5t-132.5 -89t-145 -65t-136.5 -39t-107.5 -11q-79 0 -139.5 22.5t-104.5 61.5t-72 91t-40.5 111.5t-11 123.5t16.5 126q11 38 22.5 71.5t24 64t27.5 60t33 59.5
q9 15 18.5 27.5t16 16.5t7 -4.5t-8.5 -36.5q-9 -25 -14 -39.5t-9.5 -29t-10 -34t-15.5 -54.5q-21 -89 -15.5 -169.5t42.5 -141t108 -96.5t182 -36q76 0 153.5 20t149.5 50t135.5 66t111.5 68q-112 18 -182.5 36t-110.5 37.5t-54.5 42.5t-14.5 50q0 31 14.5 58.5t36.5 50.5
t48 42t50 33zM824 457q7 19 14.5 42t16.5 46t20.5 44t26.5 36q15 13 34 22.5t40 13t42 -0.5t40 -17q0 -6 -4 -18t-9.5 -26t-11.5 -27t-11 -22q-10 -12 -19 -3q-15 12 -32 15t-33.5 -1.5t-31 -14t-26.5 -22.5q4 -18 21.5 -30.5t39 -19.5t43 -10t33.5 -3q33 2 66.5 13t63.5 23
q14 5 8 -6q-12 -21 -24.5 -40.5t-29.5 -44.5q-35 -12 -72.5 -23t-72.5 -25.5t-66 -35.5t-53 -52q-2 -4 -6.5 -4.5t-2.5 5.5q4 29 16 53.5t27 51.5q2 3 -1 7q-18 13 -33 30.5t-13 43.5z" />
    <glyph glyph-name="sf297.002" unicode="&#x6d2;" horiz-adv-x="1388" arabic-form="final" 
d="M412 -7q-24 -3 -62.5 -10t-77.5 -20.5t-69.5 -34t-37.5 -50.5q21 -11 39.5 -20t43 -16t58 -12.5t84.5 -9t122.5 -6t172.5 -3t234 0.5t307 3q14 1 16 -2.5t-10 -12.5q-18 -14 -44 -32t-54 -37t-54 -35.5t-43 -26.5q-37 -1 -98 -3.5t-137.5 -5.5t-163 -4.5t-175 -1
t-173.5 4.5t-158 13q-18 3 -47 14t-52.5 27.5t-33 38t10.5 45.5q68 71 120.5 120t90 80t59.5 47.5t30 23.5q28 19 54.5 36.5t53.5 32t56 25.5t63 17q88 16 197.5 21.5t227.5 5.5t236 -2t224 -1v-197q-32 -5 -63 -5.5t-63 -0.5q-97 1 -189.5 2.5t-189.5 2.5q-126 1 -249.5 2
t-255.5 -14z" />
    <glyph glyph-name="sf297.003" unicode="&#x6d3;" horiz-adv-x="1388" arabic-form="final" 
d="M955 560q7 19 14.5 42t16.5 46t20.5 44t26.5 36q15 13 34 22.5t40 13t42 -0.5t40 -17q0 -6 -4 -18t-9.5 -26t-11.5 -27t-11 -22q-10 -12 -19 -3q-15 12 -32 15t-33.5 -1.5t-31 -14t-26.5 -22.5q4 -18 21.5 -30.5t39 -19.5t43 -10t33.5 -3q33 2 66.5 13t63.5 23q14 5 8 -6
q-12 -21 -24.5 -40.5t-29.5 -44.5q-35 -12 -72.5 -23t-72.5 -25.5t-66 -35.5t-53 -52q-2 -4 -6.5 -4.5t-2.5 5.5q4 29 16 53.5t27 51.5q2 3 -1 7q-18 13 -33 30.5t-13 43.5zM412 -7q-24 -3 -62.5 -10t-77.5 -20.5t-69.5 -34t-37.5 -50.5q21 -11 39.5 -20t43 -16t58 -12.5
t84.5 -9t122.5 -6t172.5 -3t234 0.5t307 3q14 1 16 -2.5t-10 -12.5q-18 -14 -44 -32t-54 -37t-54 -35.5t-43 -26.5q-37 -1 -98 -3.5t-137.5 -5.5t-163 -4.5t-175 -1t-173.5 4.5t-158 13q-18 3 -47 14t-52.5 27.5t-33 38t10.5 45.5q68 71 120.5 120t90 80t59.5 47.5t30 23.5
q28 19 54.5 36.5t53.5 32t56 25.5t63 17q88 16 197.5 21.5t227.5 5.5t236 -2t224 -1v-197q-32 -5 -63 -5.5t-63 -0.5q-97 1 -189.5 2.5t-189.5 2.5q-126 1 -249.5 2t-255.5 -14z" />
    <glyph glyph-name="sf314" unicode="&#xfefb;" horiz-adv-x="1053" arabic-form="isolated" 
d="M530 163q51 -5 101.5 -2t98.5 10q0 7 -4 32t-9.5 51.5t-12 47.5t-11.5 21q-3 0 -10.5 -5.5t-24.5 -23t-48 -49t-80 -82.5zM443 164q7 2 13.5 5t16 10.5t24.5 22t38 39t56.5 61.5t80.5 90q-94 189 -195.5 317.5t-221.5 205.5q-2 -10 -4 -24t-6.5 -25.5t-12.5 -16.5t-23 4
q-48 42 -87 85.5t-69 100.5q-3 51 5 99t15 97q4 18 15.5 19.5t23.5 -6.5q95 -57 170.5 -111.5t136.5 -109t109 -111.5t89 -119.5t77 -132t72 -149.5q17 61 19.5 122.5t0 124t-4.5 125t5 125.5q-12 15 -23.5 30.5t-21 32t-15 34.5t-4.5 38q-3 13 9 38.5t30 53.5t38 54t32 40
q5 7 10.5 12t8.5 5q10 0 4 -21q-10 -32 -2.5 -58t25 -48.5t40 -42.5t43.5 -40q5 -13 0.5 -31t-14.5 -38t-23 -40.5t-24 -38.5t-18.5 -32t-6.5 -20q3 -89 0 -156t-9.5 -117t-16.5 -85t-21 -60.5t-22.5 -43t-21.5 -32.5q20 -51 25 -108.5t-1.5 -118t-23.5 -122t-41 -121.5
q-26 -1 -67 -2.5t-89 -4t-99.5 -4.5t-99.5 -4.5t-88 -4t-65 -2.5q-3 12 1 43t12.5 63.5t19.5 58.5t22 29q5 0 28 2t49 4.5t49 5t28 4.5z" />
    <glyph glyph-name="sf256.004" unicode="&#xfdfa;" horiz-adv-x="1991" arabic-form="isolated" 
d="M1035 1228q0 -5 0.5 -13l1 -16t1 -15t0.5 -9q0 -10 2.5 -16.5t12.5 -6.5q17 0 17 15q0 3 0.5 10t0.5 14q0 8 0.5 15.5t0.5 11.5q0 10 4 14.5t6 -9.5q1 -3 2.5 -10t2.5 -14.5t2 -14t1 -9.5q3 -6 7.5 -12t12.5 -6q7 0 7 8q0 16 -3 32t1 34q-4 5 0.5 6t6.5 -5q3 -15 6 -31
t3 -34q0 -14 -3 -25.5t-21 -11.5q-19 0 -25 18q-9 -10 -14.5 -16.5t-16.5 -6.5q-10 0 -18.5 7.5t-8.5 18.5v48q0 -8 3 -1t8 30zM606 1172q0 -9 2.5 -15t13.5 -6q15 0 18 14q0 3 0.5 9.5t1 14.5t1 15.5t0.5 11.5q-4 11 1 15t9 -10q0 -3 1 -10t2 -14.5t2 -14.5t1 -10
q4 -5 7.5 -10t11.5 -5q5 0 5 5q0 18 -0.5 34t-0.5 32q0 6 3.5 7t7.5 -4q4 -18 6.5 -34t2.5 -32q0 -13 -5 -25.5t-23 -12.5q-14 0 -21 19q-8 -11 -15 -17.5t-20 -6.5q-9 0 -16.5 8t-7.5 18v49q0 1 1.5 6l3 10t3.5 9t4 4v-54zM554 874q-4 -5 -7.5 -4t0.5 7q6 14 8.5 29t2.5 30
q0 16 -3 31t-11 29q0 3 -0.5 9.5t0 12t3.5 7t10 -4.5q19 -35 18 -73t-21 -73zM336 870q0 -1 2 -1q19 -6 39 -8t42 2q8 0 19 4t15 12q0 13 1.5 21.5t1.5 19.5v6q0 5 -1.5 11t-8.5 3q-27 -18 -54 -34t-54 -34zM950 1240q-1 -40 2 -86t6.5 -93.5t7 -94t3.5 -87.5
q0 -40 -5 -72.5t-18 -52.5q-9 103 -14 200t-14 197q3 7 5.5 19.5t5.5 25.5t8 25t13 19zM1466 668q72 -14 144 -9.5t144 18.5q-13 37 -34.5 56.5t-47 25.5t-54.5 0t-56.5 -19.5t-52.5 -32.5t-43 -39zM1230 436q4 -6 11 -15t17.5 -15.5t24 -8t31.5 7.5q-4 13 -14 24
t-22.5 16.5t-25.5 4t-22 -13.5zM314 316q9 -8 21.5 -14.5t25.5 -12t25 -10l20 -7.5q-5 11 -13.5 25t-20 23t-26 10t-32.5 -14zM1178 130q-10 1 -19 1.5t-19 0.5q-29 0 -55.5 1.5t-49.5 15.5q28 4 56.5 8t52.5 18q19 7 42.5 19.5t46.5 28.5t43.5 35t34 40t17.5 42.5t-6 42.5
q-6 -10 -11 -20t-11 -18t-15 -13t-23 -5q-24 0 -45 15.5t-25 43.5q7 67 34.5 101t58 35.5t54.5 -29t24 -91.5q1 -33 -6 -61t-19.5 -54t-30 -51t-38.5 -52q-18 -20 -42 -35t-49 -19zM50 125q1 0 15 5.5t36 15t50 21.5t56 24.5t53.5 25t43.5 22.5q0 2 -6.5 6.5t-15 11t-15 15
t-6.5 18.5q0 14 12.5 33t30.5 36t36.5 29t30.5 12q20 -2 35 -21t32 -41t38.5 -40t54.5 -18q6 0 15 1.5t18 7.5t14.5 17t3.5 30q-6 58 -9.5 98t-6 66t-3 40.5t-0.5 21.5v13q0 29 7 58.5t12 59.5q-36 -15 -61.5 -5t-40.5 34.5t-21 57.5t-3 65q-7 -18 -20 -29t-29.5 -16
t-34.5 -4.5t-34 4.5q-8 0 -17.5 2.5t-18 7.5t-14.5 12t-6 17q12 27 32 47t44 36t51 29.5l53 26.5q0 5 2 14t3 13q3 4 7 11l8 14t6.5 12.5t2.5 7.5h5q2 -19 2.5 -41.5t0.5 -45.5q0 -22 -1 -44t-2 -40q0 -17 1.5 -37.5t8.5 -38t20 -29.5t36 -12q27 0 46.5 20t23.5 46
q2 28 1 55.5t-2.5 55.5t-1 55.5t5.5 55.5q2 7 4.5 17t4.5 20t4.5 17t4.5 7q0 1 1 0q9 -57 14 -113.5t14 -113.5q1 -21 6.5 -41t16 -35.5t26.5 -25t39 -9.5h19q12 0 14 8q0 19 -5.5 47t-12 58t-12 58.5t-5.5 47.5q1 12 3 28.5t4.5 33t5.5 32t6 25.5q0 8 4 9.5t7 -8.5l36 -259
q12 -71 -29 -136q-5 -8 -18 -8t-14 -9q-10 -28 -16.5 -53t-6.5 -55q0 -67 40.5 -96.5t103.5 -29.5q54 0 110.5 21.5t101.5 55.5q-45 18 -88 27t-85 27q0 8 0.5 22t13.5 18q22 4 43 7.5t37.5 6.5t28 7t14.5 10q0 22 0.5 31t0.5 16v17q0 9 -1 23t-2.5 38t-4.5 59.5t-7 88.5
q0 4 -1.5 14t-1.5 15q0 35 7 69t15 69q2 3 2.5 5.5t4.5 3.5h3l40 -353q5 -39 31.5 -56.5t61.5 -17.5q41 0 67 14.5t53 43.5q0 1 2 2t2 -2q-3 -19 6 -31.5t23.5 -20.5t31 -12.5t29.5 -7.5q31 34 66.5 64.5t73 52t74.5 31.5t69.5 3t60 -34.5t45.5 -80.5q0 -1 -0.5 -3.5
t-3.5 -10t-10 -22t-20 -39.5q-2 -6 -8.5 -11.5t-14.5 -9.5t-16 -6.5t-14 -2.5q-85 -23 -168.5 -24.5t-171.5 14.5h-5q-8 -11 -18 -23t-21 -22q-3 -3 -5.5 -1.5t1.5 5.5q3 14 11.5 25.5t16.5 22.5q-23 13 -41 28t-26 40q-14 -32 -45.5 -50t-65.5 -19t-61.5 17t-33.5 57
q-6 -12 -11 -20t-9.5 -13.5t-9 -10.5t-10.5 -12q4 -2 11 -4.5t14.5 -4.5t14 -3.5t9.5 -1.5q15 -6 19.5 -15t4.5 -25q0 -41 -28.5 -74t-70 -56t-87 -35.5t-79.5 -13.5q-38 -1 -67 10.5t-49 33t-30.5 51t-10.5 65.5q0 42 12.5 79.5t30.5 75.5q-12 0 -25.5 1t-26 5.5
t-22.5 12.5t-14 22q-2 3 -4.5 10t-4.5 15t-3.5 15t-1.5 10q-8 -24 -18 -47t-38 -47q11 -88 18.5 -172t22.5 -169q7 -37 29 -56t49.5 -21.5t55.5 10.5t47 40q3 6 7 6q3 0 3 -8t-1 -13t-1 -11q0 -14 16.5 -19t30.5 -5h16q18 0 30.5 2.5t22 8t18 15t20.5 24.5q8 6 8 -2
q0 -14 -5 -19.5t-3.5 -8.5t16 -7t54.5 -15q0 11 -3 21.5t-3 18.5q5 9 11 23t10 17q0 2 2.5 8.5t6 11.5t6.5 6t4 -8l11 -44t5 -42q0 -23 -9 -43.5t-17 -43.5q-4 -8 -10.5 -8.5t-16.5 -0.5q-26 3 -56 8.5t-54 21.5q-19 -14 -39.5 -20.5t-41 -5.5t-38.5 10.5t-32 28.5
q-14 -18 -35.5 -27.5t-44.5 -10.5t-44.5 7.5t-35.5 25.5q-8 14 -11.5 28.5t-7.5 32.5q0 4 -0.5 7t-4.5 -2q-8 -21 -15 -38t-17 -29t-24.5 -18.5t-36.5 -6.5q-27 0 -44.5 11t-35.5 29q-3 0 -6.5 -6.5t-9 -14t-12 -13.5t-15.5 -6q-16 0 -30.5 6.5t-28.5 14.5
q-18 -29 -41.5 -51t-56.5 -30q-43 -10 -86 -16.5t-94 -6.5zM338 -92q-28 42 -55 90.5t-51 96.5q-4 7 -2.5 10.5t5.5 4.5t9 -1t7 -6q14 -23 29.5 -42.5t29.5 -42.5q5 -8 13 -20t18 -23t21.5 -19t23.5 -8q12 1 22.5 8.5t22.5 25t28 46t39 72.5q11 23 29 41t41 18q16 0 27 -6.5
t19 -17t15 -23t16 -24.5q24 -32 55.5 -51.5t67 -30.5t73.5 -14.5t74 -3.5q48 0 102.5 9.5t109.5 27.5t107 44.5t94 60.5q6 6 7 3.5t1 -8.5q-4 -13 -9 -21t-5 -19q0 -9 8.5 -15.5t20 -10.5t22.5 -5.5t16 -1.5q18 0 34.5 2.5t27.5 10.5t16.5 23.5t2.5 41.5l-27 294q0 7 1 14.5
t4.5 22t10.5 39t19 65.5l40 -366q2 -21 9 -43t19 -40t30.5 -30t42.5 -12q-14 23 -23.5 46t-9.5 47q-2 47 16 78.5t48 48t68.5 18.5t76.5 -9t72 -34.5t56 -58.5q-36 6 -76.5 13t-79.5 8.5t-75 -6t-63 -29.5q0 -11 5.5 -25t10.5 -22q26 -42 58 -58.5t69 -14t78.5 19.5t87.5 42
q1 2 2 1t1 -3v-1q-26 -54 -64.5 -82t-95.5 -46q-36 -10 -79 -16.5t-82.5 -1t-71 27t-44.5 67.5q-8 -23 -16 -43.5t-20.5 -37t-31 -26t-47.5 -9.5q-32 0 -59.5 18t-43.5 48q-40 -32 -95.5 -58t-118.5 -43t-129.5 -23t-128.5 1t-115.5 29t-90.5 62q-14 17 -21.5 32.5
t-12.5 27.5t-9.5 19t-12.5 7q-10 0 -19.5 -8.5t-15.5 -16.5q-21 -43 -34 -69t-21 -40.5t-12 -20.5t-7 -9q-10 -14 -21.5 -24.5t-25 -14.5t-28 0.5t-30.5 22.5zM1163 -160q-11 10 -1 20q3 7 14.5 25t31.5 42l78 -63q2 -2 10 8t17 22.5t17.5 23t11.5 10.5h5q20 -19 38 -37
t37 -36q-2 -5 -9 -13.5t-15 -18t-16 -18.5t-12 -14q-3 -8 -15 0q-18 14 -34.5 30t-34.5 31q-13 -15 -25.5 -33t-28.5 -31q-6 -6 -14 3q-16 11 -28.5 23.5t-26.5 25.5z" />
    <glyph glyph-name="sf270.009" unicode="&#xfdf2;" horiz-adv-x="1520" arabic-form="isolated" 
d="M819 1620q11 0 17 -8t11 -14q31 -50 48 -106t18.5 -113t-14 -112t-51.5 -104q-4 -11 -13 -11q-7 0 -4 14q32 93 30 191q-1 98 -59 178v13q0 8 0.5 19.5t2.5 22.5t5.5 19.5t8.5 10.5zM769 980v18v9q0 10 -1 11v60q0 4 2.5 14t6.5 21.5t8.5 21.5t8.5 14v3q3 0 3 -3
q1 -19 2 -37.5t1 -38.5t0.5 -39t1.5 -38q0 -20 12.5 -30.5t28.5 -11.5t30.5 9t17.5 32v79v45q0 17 1 21t2 9q3 31 10 17q8 -9 9 -24q5 -26 8.5 -54t10.5 -52t20.5 -41t38.5 -21q17 0 17 15q0 3 -2 19.5t-4.5 39t-4.5 48t-2 46.5q-2 7 -0.5 18t5 19t8 8.5t8.5 -13.5
q14 -42 23.5 -85.5t13.5 -84.5q0 -19 -3 -36.5t-10.5 -31t-20.5 -21.5t-32 -8q-21 -2 -40.5 11.5t-28.5 33.5q-10 -26 -30 -45.5t-47 -19.5q-33 0 -51 19t-21 46v28zM482 425q-4 -3 -13 -8.5t-27 -17.5l-51 -34t-82 -55.5t-120 -81.5q11 -6 49.5 -12.5t84.5 -6.5
q50 0 95 9.5t72 38.5q1 16 2 45t0 56.5t-3.5 47.5t-6.5 19zM503 174q-13 -26 -27 -46.5t-31.5 -35t-39.5 -24.5t-52 -15q-17 -2 -39 -3t-51 -1q-57 0 -107 11t-77 37q-28 27 -3 77q30 62 78 111.5t105.5 90t120 74.5t121.5 66q9 9 8 32q-2 26 7 36q10 26 20.5 51.5
t24.5 51.5q0 3 6 14q5 5 7.5 3.5t5.5 -6.5q11 -71 12.5 -136.5t1.5 -131.5t1.5 -132.5t11.5 -135.5q2 -34 12.5 -67.5t29.5 -60.5t47 -43.5t64 -16.5q68 0 119 45q52 46 68 109q2 63 -2.5 123t-10.5 119.5t-11.5 119t-4 121t11.5 126.5t34 136q2 8 7 8.5t5 -8.5
q19 -148 40 -287.5t49 -284.5q5 -41 16.5 -81.5t29.5 -75.5t44 -62t60 -40.5t76.5 -12t95.5 23.5q-3 34 -14 79t-25 95.5t-29 104.5t-27 106t-19 99.5t-5 86.5q11 87 18 136.5t11 76t5.5 36.5t1.5 18q10 16 16.5 20.5t11.5 -18.5q13 -85 27.5 -165t29.5 -158t31 -156.5
t31 -160.5q5 -29 8 -55.5t3 -50.5q0 -38 -5 -70.5t-14 -63.5t-22.5 -61t-29.5 -63q-18 -14 -48.5 -25t-66.5 -15.5t-74.5 -1t-72.5 18.5q-38 19 -58.5 39.5t-32 45t-18.5 55t-19 68.5q-5 -50 -25.5 -102t-54 -94.5t-79.5 -69.5t-102 -27q-50 0 -87.5 18t-64 48t-43 69.5
t-26 83.5t-13 88.5t-3.5 85.5z" />
    <glyph glyph-name="uniFDF4" unicode="&#xfdf4;" horiz-adv-x="2492" arabic-form="isolated" 
d="M1343 -195q-114 64 -198 131t-141 137.5t-89 145t-43 154.5q-18 -54 -49.5 -98t-70.5 -82q-35 -41 -79 -76.5t-92.5 -63.5t-98.5 -47t-96 -26q-45 -8 -85.5 0t-71 36.5t-48 78.5t-17.5 126q0 54 9 105t22 88q14 2 15 -9.5t1 -21.5v-72q0 -24 5 -46t18.5 -39t36.5 -28
t59 -12q87 -2 153 32q84 35 159 80q38 23 69 45.5t56 45.5q51 46 46 64q-18 103 -44.5 180.5t-51.5 136t-42.5 100.5t-17.5 74q2 43 5.5 84.5t7.5 81.5q1 4 10 4q5 0 18 -17.5t29 -45.5t33 -62t31 -67q20 -54 37.5 -110t33.5 -116q31 -122 75 -237q22 -58 51 -110.5
t64 -103.5q72 -97 197 -159q11 -5 11 -2l2 8q12 45 28.5 90t52.5 76q40 32 80.5 63.5t82.5 59.5t87 51.5t95 40.5l-654 -4q-13 0 -24 0.5t-19.5 3.5t-13 10.5t-4.5 22.5q0 26 9 51t19 49q15 35 28 72t38 67q65 71 141.5 126t160 99.5t171 82t174.5 73.5q15 7 8 10
q-6 3 -14 3t-27 13q-13 9 -28.5 23t-29 32.5t-21.5 41.5t-5 49q0 3 2 13.5t6 24t8.5 29.5t9.5 31q4 15 9 30.5t10 27.5t10 19.5t9 7.5q9 0 43.5 -9.5t80 -25t96.5 -35.5t93.5 -41t71 -42t29.5 -38q0 -18 -9 -47t-22.5 -60t-29.5 -59t-29 -43q-40 -23 -93 -46t-110.5 -46
t-114 -45.5t-102.5 -44.5q-54 -25 -103 -48.5t-94.5 -50t-89.5 -57.5t-88 -71l1106 12q16 0 24.5 -4t8.5 -18q0 -18 -20 -53t-64 -107q-17 -2 -44.5 -8.5t-66.5 -17.5q-78 -21 -173.5 -54t-201.5 -75q-104 -42 -189 -84q-42 -21 -78.5 -42t-64 -41t-43.5 -38t-18 -33
q18 -26 52.5 -54.5t76 -55t84.5 -48.5t78 -35q-1 -4 -6 -32.5t-12 -62.5t-16 -63.5t-19 -36.5q-72 -8 -136 22q-34 15 -65 30.5t-60 31.5z" />
    <glyph glyph-name="sf277.047" unicode="&#x6c2;" horiz-adv-x="941" 
d="M208 414q7 -2 28 -5t49.5 -4t62.5 1t67 9.5t62 21.5t49 38q0 6 -1 23t-3 37.5t-4.5 42.5t-6 39t-7.5 26t-9 4q-70 -56 -118 -95t-80 -64.5t-49 -39.5t-26 -21.5t-11 -9.5zM548 371q-16 -43 -43 -71t-62 -44.5t-76.5 -23t-86.5 -6.5q-10 0 -29.5 0.5t-43 3t-48 8t-44.5 14
t-32.5 22t-12.5 32.5q0 17 10.5 40.5t27 49t38 52t43 49t41 40.5t33.5 27q60 43 120 79.5t120 74.5v73q10 32 19 64t19 64q3 12 6.5 15.5t6.5 2t5 -6.5t3 -11q12 -57 21 -109t17 -106t16.5 -113t19.5 -130q10 -68 39 -116.5t73 -80t102 -46.5t126 -15q0 -13 -0.5 -39.5
t-1 -56t-1 -57.5t-0.5 -43q-26 -5 -48.5 -5.5t-44.5 0.5q-84 6 -144 27.5t-100 65t-60.5 111t-25.5 165.5h-2zM149 1072q7 19 14.5 42t16.5 46t20.5 44t26.5 36q15 13 34 22.5t40 13t42 -0.5t40 -17q0 -6 -4 -18t-9.5 -26t-11.5 -27t-11 -22q-10 -12 -19 -3q-15 12 -32 15
t-33.5 -1.5t-31 -14t-26.5 -22.5q4 -18 21.5 -30.5t39 -19.5t43 -10t33.5 -3q33 2 66.5 13t63.5 23q14 5 8 -6q-12 -21 -24.5 -40.5t-29.5 -44.5q-35 -12 -72.5 -23t-72.5 -25.5t-66 -35.5t-53 -52q-2 -4 -6.5 -4.5t-2.5 5.5q4 29 16 53.5t27 51.5q2 3 -1 7q-18 13 -33 30.5
t-13 43.5z" />
    <glyph glyph-name=".notdef" horiz-adv-x="257" 
 />
    <glyph glyph-name=".null" 
 />
    <glyph glyph-name="nonmarkingreturn" horiz-adv-x="257" 
 />
    <glyph glyph-name="space" unicode=" " horiz-adv-x="400" 
 />
    <glyph glyph-name="sf268.003" unicode="&#x622;" horiz-adv-x="536" 
d="M112 1304q-14 -8 -20 -8q-11 0 -10 10.5t12 22.5q60 69 126 110t141 43q22 0 44 -5t44 -10.5t44 -10.5t45 -5q39 0 76 12t70 30.5t60.5 41.5t46.5 45q17 20 24 19.5t-5 -26.5q-22 -46 -59.5 -90.5t-84.5 -80t-99.5 -57.5t-104.5 -22q-28 0 -50.5 6t-43.5 12.5t-40.5 12.5
t-41.5 6q-51 0 -94 -17t-80 -39zM304 953q6 31 14.5 66.5t17.5 68.5t19 60t19 42q12 20 14 12t2 -24q0 -21 0.5 -39l1 -36t2.5 -37.5t5 -42.5q7 -57 14.5 -134t15 -159.5t14 -164t11.5 -147.5t8 -109t3 -49q1 -97 -12.5 -180t-45.5 -149q-4 -6 -6.5 -2.5t-3.5 12.5
q-7 67 -12 129t-10 119q-8 97 -17.5 196.5t-19 197t-18.5 191t-16 179.5z" />
    <glyph glyph-name="sf268" unicode="&#x627;" horiz-adv-x="362" 
d="M120 1062q6 31 14.5 66.5t17.5 68.5t19 60t19 42l6 10t10 6q0 -29 -0.5 -53t-0.5 -54q20 -188 34 -328t23.5 -241t15.5 -168t8.5 -108.5t3.5 -62.5t1 -31v-11q1 -88 -12.5 -170t-45.5 -148q-4 -6 -6.5 -2.5t-3.5 12.5q-15 159 -24.5 282t-19.5 223q-13 124 -22.5 215
t-16 156t-10.5 106.5t-6 67t-3 37.5t-1 18v7z" />
    <glyph glyph-name="sf270" unicode="&#x628;" horiz-adv-x="1600" 
d="M643 -404q5 7 18 23.5t28 35t29 34.5t20 22q8 10 14 9.5t12 -5.5q36 -31 72.5 -59t60.5 -53q5 -5 4 -9.5t-6 -10.5q-22 -32 -46 -61t-47 -60q-10 -18 -27 -7q-13 7 -32.5 22t-39 32t-36.5 33.5t-25 27.5q-6 8 -5 13t6 13zM71 314q-1 21 3 50t11.5 60.5t17 63t20.5 58
t22.5 45.5t21.5 26q-1 -26 -5.5 -48.5t-9 -44t-8.5 -42.5t-4 -44q0 -66 26 -112.5t68.5 -78t97.5 -50.5t113 -29t114 -13t102 -3q50 0 105 4t111 10t111.5 14.5t106.5 17.5q58 10 118 29t109 38.5t80.5 35.5t31.5 21q0 26 -9 57t-21 64t-24.5 67t-20.5 66q30 58 46 90t24 47
t9.5 18t3.5 3q7 0 11 -9.5t6 -13.5q15 -42 29.5 -84t24 -85t13.5 -86.5t-2 -88.5q-1 -8 -5.5 -27t-10 -40.5t-10.5 -41t-7 -26.5q-10 -32 -24.5 -60.5t-46.5 -44.5q-187 -94 -380 -135.5t-402 -41.5q-65 0 -132.5 4.5t-130.5 18t-118 38t-96.5 65t-65.5 99t-24 139.5z" />
    <glyph glyph-name="sf270.001" unicode="&#x67e;" horiz-adv-x="1600" 
d="M598 -448q-20 15 -10 34q25 34 49 68t49 67q8 9 13.5 8.5t12.5 -5.5q17 -14 35.5 -29t36.5 -28.5t34.5 -24t28.5 -14.5q11 -4 13 -2t11 14q10 11 29.5 34.5t55.5 66.5q8 9 13.5 6.5t9.5 -6.5q36 -29 59.5 -48t38 -30.5t21.5 -17t10 -7.5q2 0 6.5 -5t4.5 -10q0 -6 -4 -10
q-25 -32 -49.5 -63.5t-49.5 -63.5q-8 -10 -14 -9t-12 4q-35 22 -65 48.5t-62 58.5q-26 -31 -50 -63t-49 -64q-10 -12 -25.5 -5.5t-25.5 12.5q-18 10 -31 18.5t-26 18t-26.5 21t-31.5 26.5zM767 -654q5 7 18.5 23.5t28.5 34.5t28.5 34.5t18.5 22.5q8 10 14.5 9.5t11.5 -5.5
q36 -31 73 -59t60 -53q6 -5 5 -9.5t-6 -10.5q-22 -33 -46 -61.5t-47 -60.5q-11 -17 -27 -6q-13 7 -32.5 22t-39.5 32t-37 33.5t-25 27.5q-5 8 -4 13t6 13zM71 314q-1 21 3 50t11.5 60.5t17 63t20.5 58t22.5 45.5t21.5 26q-1 -26 -5.5 -48.5t-9 -44t-8.5 -42.5t-4 -44
q0 -66 26 -112.5t68.5 -78t97.5 -50.5t113 -29t114 -13t102 -3q50 0 105 4t111 10t111.5 14.5t106.5 17.5q58 10 118 29t109 38.5t80.5 35.5t31.5 21q0 26 -9 57t-21 64t-24.5 67t-20.5 66q30 58 46 90t24 47t9.5 18t3.5 3q7 0 11 -9.5t6 -13.5q15 -42 29.5 -84t24 -85
t13.5 -86.5t-2 -88.5q-1 -8 -5.5 -27t-10 -40.5t-10.5 -41t-7 -26.5q-10 -32 -24.5 -60.5t-46.5 -44.5q-187 -94 -380 -135.5t-402 -41.5q-65 0 -132.5 4.5t-130.5 18t-118 38t-96.5 65t-65.5 99t-24 139.5z" />
    <glyph glyph-name="sf270.002" unicode="&#x62a;" horiz-adv-x="1600" 
d="M536 699q-20 15 -10 34q25 34 49 67.5t49 67.5q8 9 13.5 8t12.5 -6q17 -14 35.5 -29t36.5 -28.5t34.5 -24t28.5 -14.5q11 -3 13 -1t11 13q10 11 29.5 35t55.5 67q8 8 13.5 5.5t9.5 -5.5q48 -39 74.5 -60t39 -31l15 -12t3.5 -3q6 -4 7.5 -10t-3.5 -12q-25 -32 -49.5 -63.5
t-48.5 -63.5q-9 -11 -15 -10t-12 5q-35 22 -65 48.5t-62 58.5q-26 -32 -50 -64t-49 -63q-10 -12 -25.5 -6t-25.5 13q-18 10 -31 18.5t-26 18t-26.5 21t-31.5 26.5zM71 314q-1 21 3 50t11.5 60.5t17 63t20.5 58t22.5 45.5t21.5 26q-1 -26 -5.5 -48.5t-9 -44t-8.5 -42.5
t-4 -44q0 -66 26 -112.5t68.5 -78t97.5 -50.5t113 -29t114 -13t102 -3q50 0 105 4t111 10t111.5 14.5t106.5 17.5q58 10 118 29t109 38.5t80.5 35.5t31.5 21q0 26 -9 57t-21 64t-24.5 67t-20.5 66q30 58 46 90t24 47t9.5 18t3.5 3q7 0 11 -9.5t6 -13.5q15 -42 29.5 -84
t24 -85t13.5 -86.5t-2 -88.5q-1 -8 -5.5 -27t-10 -40.5t-10.5 -41t-7 -26.5q-10 -32 -24.5 -60.5t-46.5 -44.5q-187 -94 -380 -135.5t-402 -41.5q-65 0 -132.5 4.5t-130.5 18t-118 38t-96.5 65t-65.5 99t-24 139.5z" />
    <glyph glyph-name="sf270.003" unicode="&#x679;" horiz-adv-x="1600" 
d="M897 800q-20 0 -39.5 -8.5t-37.5 -21t-34 -27t-28 -26.5q14 1 36 0.5t49 1t57.5 7.5t61.5 21q-6 27 -26.5 40.5t-38.5 12.5zM722 723q14 18 27 39.5t21 43.5q0 54 -2 106t0 106q-8 14 -17.5 24t-9.5 26q10 18 20.5 36t21.5 35q3 3 8 6t8 -3q6 -23 23.5 -43t36.5 -38
q-9 -26 -19.5 -46t-20.5 -33q1 -48 0 -77.5t-3 -46t-3.5 -23.5t-1.5 -10q24 21 53.5 41t63.5 20q48 0 77 -30t27 -78q-10 -14 -30 -43t-47 -53q-25 -15 -56.5 -25t-65 -16t-66.5 -8.5t-61 -2.5q-12 0 -19 1t-19 6.5t-35 18.5t-67 37q-13 6 -10.5 10t15.5 5q21 2 44.5 1.5
t44.5 -0.5q22 0 38.5 2.5t23.5 11.5zM71 314q-1 21 3 50t11.5 60.5t17 63t20.5 58t22.5 45.5t21.5 26q-1 -26 -5.5 -48.5t-9 -44t-8.5 -42.5t-4 -44q0 -66 26 -112.5t68.5 -78t97.5 -50.5t113 -29t114 -13t102 -3q50 0 105 4t111 10t111.5 14.5t106.5 17.5q58 10 118 29
t109 38.5t80.5 35.5t31.5 21q0 26 -9 57t-21 64t-24.5 67t-20.5 66q30 58 46 90t24 47t9.5 18t3.5 3q7 0 11 -9.5t6 -13.5q15 -42 29.5 -84t24 -85t13.5 -86.5t-2 -88.5q-1 -8 -5.5 -27t-10 -40.5t-10.5 -41t-7 -26.5q-10 -32 -24.5 -60.5t-46.5 -44.5q-187 -94 -380 -135.5
t-402 -41.5q-65 0 -132.5 4.5t-130.5 18t-118 38t-96.5 65t-65.5 99t-24 139.5z" />
    <glyph glyph-name="sf270.004" unicode="&#x62b;" horiz-adv-x="1600" 
d="M643 959q5 6 18.5 22.5t28.5 34.5t28.5 34.5t19.5 23.5q8 10 14 9t11 -6q37 -31 73.5 -59t60.5 -52q5 -6 4 -10t-6 -11q-22 -32 -46 -61t-47 -60q-10 -16 -27 -7q-13 7 -32.5 22t-39 32t-36.5 33.5t-25 27.5q-6 9 -5 13.5t6 13.5zM544 635q-21 15 -10 33q25 35 49 68.5
t49 67.5q8 8 14 7.5t12 -5.5q19 -14 36.5 -28.5t34.5 -28.5q18 -13 36 -24.5t28 -15.5q11 -3 13 -0.5t11 13.5q10 11 29.5 35t55.5 67q8 8 13.5 5.5t9.5 -5.5q48 -39 74.5 -60t39 -31l15 -12t3.5 -3q14 -11 4 -23q-24 -32 -49 -63.5t-49 -63.5q-9 -10 -15 -9t-12 5
q-35 22 -65 48.5t-62 58.5q-26 -32 -50 -64t-49 -63q-10 -12 -25 -6t-26 12q-18 11 -31 20t-25.5 18t-26.5 20.5t-32 26.5zM71 314q-1 21 3 50t11.5 60.5t17 63t20.5 58t22.5 45.5t21.5 26q-1 -26 -5.5 -48.5t-9 -44t-8.5 -42.5t-4 -44q0 -66 26 -112.5t68.5 -78t97.5 -50.5
t113 -29t114 -13t102 -3q50 0 105 4t111 10t111.5 14.5t106.5 17.5q58 10 118 29t109 38.5t80.5 35.5t31.5 21q0 26 -9 57t-21 64t-24.5 67t-20.5 66q30 58 46 90t24 47t9.5 18t3.5 3q7 0 11 -9.5t6 -13.5q15 -42 29.5 -84t24 -85t13.5 -86.5t-2 -88.5q-1 -8 -5.5 -27
t-10 -40.5t-10.5 -41t-7 -26.5q-10 -32 -24.5 -60.5t-46.5 -44.5q-187 -94 -380 -135.5t-402 -41.5q-65 0 -132.5 4.5t-130.5 18t-118 38t-96.5 65t-65.5 99t-24 139.5z" />
    <glyph glyph-name="sf276.002" unicode="&#x62c;" horiz-adv-x="1055" 
d="M559 -147q5 7 18 23.5t28 35t29 34.5t20 22q8 10 14 9.5t12 -5.5q36 -31 72.5 -59t60.5 -53q5 -5 4 -9.5t-6 -10.5q-22 -32 -46 -61t-47 -60q-10 -18 -27 -7q-13 7 -32.5 22t-39 32t-36.5 33.5t-25 27.5q-6 8 -5 13t6 13zM635 583q82 -8 163 -15t162 -5q15 0 10 -11
q-10 -26 -35.5 -71.5t-59.5 -89.5q-1 -2 -5.5 -3t-9.5 -1q-4 0 -8.5 -0.5t-5.5 -1.5q-71 -9 -151.5 -29t-159 -52.5t-150.5 -76.5t-127.5 -101.5t-88 -128.5t-32.5 -156q0 -65 20 -124.5t55.5 -110.5t83 -93.5t103 -74t116 -52t120.5 -27.5q16 -3 48.5 -7t100.5 -7t179.5 -4
t285.5 2q18 0 22 -4t0 -9t-13 -9.5t-18 -6.5q-22 -9 -67 -22.5t-102.5 -28.5t-122.5 -30t-126.5 -27t-115 -19.5t-88.5 -7.5q-122 0 -222.5 39.5t-173 111t-112.5 172t-40 223.5q0 103 26.5 206.5t77 195t124 164.5t168.5 115q-47 13 -92 24.5t-88 15t-83.5 -3t-77.5 -29.5
q-8 -5 -14 -5q-9 0 -13.5 9.5t0.5 22.5q1 6 10.5 27.5t21 46.5t22 48.5t13.5 33.5q27 34 74.5 39.5t109.5 -3t135 -24.5t151 -25z" />
    <glyph glyph-name="sf276.003" unicode="&#x686;" horiz-adv-x="1122" 
d="M457 -126q-20 15 -10 34q25 34 49 68t49 67q8 9 13.5 8.5t12.5 -5.5q17 -14 35.5 -29t36.5 -28.5t34.5 -24t28.5 -14.5q11 -4 13 -2t11 14q10 11 29.5 34.5t55.5 66.5q8 9 13.5 6.5t9.5 -6.5q36 -29 59.5 -48t38 -30.5t21.5 -17t10 -7.5q2 0 6.5 -5t4.5 -10q0 -6 -4 -10
q-25 -32 -49.5 -63.5t-49.5 -63.5q-8 -10 -14 -9t-12 4q-35 22 -65 48.5t-62 58.5q-26 -31 -50 -63t-49 -64q-10 -12 -25.5 -5.5t-25.5 12.5q-18 10 -31 18.5t-26 18t-26.5 21t-31.5 26.5zM626 -332q5 7 18.5 23.5t28.5 34.5t28.5 34.5t18.5 22.5q8 10 14.5 9.5t11.5 -5.5
q36 -31 73 -59t60 -53q6 -5 5 -9.5t-6 -10.5q-22 -33 -46 -61.5t-47 -60.5q-11 -17 -27 -6q-13 7 -32.5 22t-39.5 32t-37 33.5t-25 27.5q-5 8 -4 13t6 13zM635 583q82 -8 163 -15t162 -5q15 0 10 -11q-10 -26 -35.5 -71.5t-59.5 -89.5q-1 -2 -5.5 -3t-9.5 -1q-4 0 -8.5 -0.5
t-5.5 -1.5q-71 -9 -151.5 -29t-159 -52.5t-150.5 -76.5t-127.5 -101.5t-88 -128.5t-32.5 -156q0 -65 20 -124.5t55.5 -110.5t83 -93.5t103 -74t116 -52t120.5 -27.5q16 -3 48.5 -7t100.5 -7t179.5 -4t285.5 2q18 0 22 -4t0 -9t-13 -9.5t-18 -6.5q-22 -9 -67 -22.5
t-102.5 -28.5t-122.5 -30t-126.5 -27t-115 -19.5t-88.5 -7.5q-122 0 -222.5 39.5t-173 111t-112.5 172t-40 223.5q0 103 26.5 206.5t77 195t124 164.5t168.5 115q-47 13 -92 24.5t-88 15t-83.5 -3t-77.5 -29.5q-8 -5 -14 -5q-9 0 -13.5 9.5t0.5 22.5q1 6 10.5 27.5t21 46.5
t22 48.5t13.5 33.5q27 34 74.5 39.5t109.5 -3t135 -24.5t151 -25z" />
    <glyph glyph-name="sf276.004" unicode="&#x62d;" horiz-adv-x="1055" 
d="M635 583q82 -8 163 -15t162 -5q15 0 10 -11q-10 -26 -35.5 -71.5t-59.5 -89.5q-1 -2 -5.5 -3t-9.5 -1q-4 0 -8.5 -0.5t-5.5 -1.5q-71 -9 -151.5 -29t-159 -52.5t-150.5 -76.5t-127.5 -101.5t-88 -128.5t-32.5 -156q0 -65 20 -124.5t55.5 -110.5t83 -93.5t103 -74t116 -52
t120.5 -27.5q16 -3 48.5 -7t100.5 -7t179.5 -4t285.5 2q18 0 22 -4t0 -9t-13 -9.5t-18 -6.5q-22 -9 -67 -22.5t-102.5 -28.5t-122.5 -30t-126.5 -27t-115 -19.5t-88.5 -7.5q-122 0 -222.5 39.5t-173 111t-112.5 172t-40 223.5q0 103 26.5 206.5t77 195t124 164.5t168.5 115
q-47 13 -92 24.5t-88 15t-83.5 -3t-77.5 -29.5q-8 -5 -14 -5q-9 0 -13.5 9.5t0.5 22.5q1 6 10.5 27.5t21 46.5t22 48.5t13.5 33.5q27 34 74.5 39.5t109.5 -3t135 -24.5t151 -25z" />
    <glyph glyph-name="sf276.005" unicode="&#x62e;" horiz-adv-x="1055" 
d="M457 938q5 7 18 23.5t28 35t29 34.5t20 22q8 10 14 9.5t12 -5.5q36 -31 72.5 -59t60.5 -53q5 -5 4 -9.5t-6 -10.5q-22 -32 -46 -61t-47 -60q-10 -18 -27 -7q-13 7 -32.5 22t-39 32t-36.5 33.5t-25 27.5q-6 8 -5 13t6 13zM635 583q82 -8 163 -15t162 -5q15 0 10 -11
q-10 -26 -35.5 -71.5t-59.5 -89.5q-1 -2 -5.5 -3t-9.5 -1q-4 0 -8.5 -0.5t-5.5 -1.5q-71 -9 -151.5 -29t-159 -52.5t-150.5 -76.5t-127.5 -101.5t-88 -128.5t-32.5 -156q0 -65 20 -124.5t55.5 -110.5t83 -93.5t103 -74t116 -52t120.5 -27.5q16 -3 48.5 -7t100.5 -7t179.5 -4
t285.5 2q18 0 22 -4t0 -9t-13 -9.5t-18 -6.5q-22 -9 -67 -22.5t-102.5 -28.5t-122.5 -30t-126.5 -27t-115 -19.5t-88.5 -7.5q-122 0 -222.5 39.5t-173 111t-112.5 172t-40 223.5q0 103 26.5 206.5t77 195t124 164.5t168.5 115q-47 13 -92 24.5t-88 15t-83.5 -3t-77.5 -29.5
q-8 -5 -14 -5q-9 0 -13.5 9.5t0.5 22.5q1 6 10.5 27.5t21 46.5t22 48.5t13.5 33.5q27 34 74.5 39.5t109.5 -3t135 -24.5t151 -25z" />
    <glyph glyph-name="sf274" unicode="&#x62f;" horiz-adv-x="791" 
d="M72 -27q1 7 3 18t5.5 30.5t9 50t13.5 77.5q139 11 271 22.5t271 22.5q-8 39 -21 85.5t-31 91.5t-40 83.5t-47 60.5q-5 3 -7 1.5t-4 -4t-5 -5.5t-10 -3q-26 0 -54.5 22t-52.5 53t-40.5 64t-17.5 56q5 38 14 77.5t24 82.5q3 9 13 7.5t22 -8t24 -14.5l18 -12
q60 -40 112.5 -97.5t92.5 -126t63 -143.5t23 -149q0 -20 -5 -50t-13 -64t-18 -68.5t-20 -62.5t-19.5 -46.5t-15.5 -20.5q-3 -1 -48.5 -5t-118 -11t-163.5 -16.5t-184 -21.5q-7 -1 -15.5 -1.5t-15.5 1t-11 7t-2 16.5z" />
    <glyph glyph-name="sf274.002" unicode="&#x688;" horiz-adv-x="791" 
d="M460 1164q-20 0 -39.5 -8.5t-37.5 -21t-34 -27t-28 -26.5q14 1 36 0.5t49 1t57.5 7.5t61.5 21q-6 27 -26.5 40.5t-38.5 12.5zM285 1087q14 18 27 39.5t21 43.5q0 54 -2 106t0 106q-8 14 -17.5 24t-9.5 26q10 18 20.5 36t21.5 35q3 3 8 6t8 -3q6 -23 23.5 -43t36.5 -38
q-9 -26 -19.5 -46t-20.5 -33q1 -48 0 -77.5t-3 -46t-3.5 -23.5t-1.5 -10q24 21 53.5 41t63.5 20q48 0 77 -30t27 -78q-10 -14 -30 -43t-47 -53q-25 -15 -56.5 -25t-65 -16t-66.5 -8.5t-61 -2.5q-12 0 -19 1t-19 6.5t-35 18.5t-67 37q-13 6 -10.5 10t15.5 5q21 2 44.5 1.5
t44.5 -0.5q22 0 38.5 2.5t23.5 11.5zM72 -27q1 7 3 18t5.5 30.5t9 50t13.5 77.5q139 11 271 22.5t271 22.5q-8 39 -21 85.5t-31 91.5t-40 83.5t-47 60.5q-5 3 -7 1.5t-4 -4t-5 -5.5t-10 -3q-26 0 -54.5 22t-52.5 53t-40.5 64t-17.5 56q5 38 14 77.5t24 82.5q3 9 13 7.5
t22 -8t24 -14.5l18 -12q60 -40 112.5 -97.5t92.5 -126t63 -143.5t23 -149q0 -20 -5 -50t-13 -64t-18 -68.5t-20 -62.5t-19.5 -46.5t-15.5 -20.5q-3 -1 -48.5 -5t-118 -11t-163.5 -16.5t-184 -21.5q-7 -1 -15.5 -1.5t-15.5 1t-11 7t-2 16.5z" />
    <glyph glyph-name="sf274.003" unicode="&#x630;" horiz-adv-x="791" 
d="M268 1159q5 7 18 23.5t28 35t29 34.5t20 22q8 10 14 9.5t12 -5.5q36 -31 72.5 -59t60.5 -53q5 -5 4 -9.5t-6 -10.5q-22 -32 -46 -61t-47 -60q-10 -18 -27 -7q-13 7 -32.5 22t-39 32t-36.5 33.5t-25 27.5q-6 8 -5 13t6 13zM72 -27q1 7 3 18t5.5 30.5t9 50t13.5 77.5
q139 11 271 22.5t271 22.5q-8 39 -21 85.5t-31 91.5t-40 83.5t-47 60.5q-5 3 -7 1.5t-4 -4t-5 -5.5t-10 -3q-26 0 -54.5 22t-52.5 53t-40.5 64t-17.5 56q5 38 14 77.5t24 82.5q3 9 13 7.5t22 -8t24 -14.5l18 -12q60 -40 112.5 -97.5t92.5 -126t63 -143.5t23 -149
q0 -20 -5 -50t-13 -64t-18 -68.5t-20 -62.5t-19.5 -46.5t-15.5 -20.5q-3 -1 -48.5 -5t-118 -11t-163.5 -16.5t-184 -21.5q-7 -1 -15.5 -1.5t-15.5 1t-11 7t-2 16.5z" />
    <glyph glyph-name="sf331" unicode="&#x631;" horiz-adv-x="498" 
d="M-214 -292q63 7 147.5 32.5t171.5 71t165.5 112.5t129.5 158q9 33 -2.5 71.5t-30.5 74t-39 64.5t-28 44q-2 0 -0.5 5t6.5 21.5t15.5 48t27.5 84.5q3 11 7.5 14t9.5 1.5t10.5 -5.5t10.5 -8q57 -69 80 -140t20 -143t-27.5 -143.5t-62.5 -139.5q-23 -41 -49.5 -84
t-59.5 -79.5t-73 -61.5t-89 -29q-98 -10 -178 -13t-163 11q-35 11 -33.5 19t34.5 14z" />
    <glyph glyph-name="sf331.001" unicode="&#x691;" horiz-adv-x="548" 
d="M371 802q-20 0 -39.5 -8.5t-37.5 -21t-34 -27t-28 -26.5q14 1 36 0.5t49 1t57.5 7.5t61.5 21q-6 27 -26.5 40.5t-38.5 12.5zM196 725q14 18 27 39.5t21 43.5q0 54 -2 106t0 106q-8 14 -17.5 24t-9.5 26q10 18 20.5 36t21.5 35q3 3 8 6t8 -3q6 -23 23.5 -43t36.5 -38
q-9 -26 -19.5 -46t-20.5 -33q1 -48 0 -77.5t-3 -46t-3.5 -23.5t-1.5 -10q24 21 53.5 41t63.5 20q48 0 77 -30t27 -78q-10 -14 -30 -43t-47 -53q-25 -15 -56.5 -25t-65 -16t-66.5 -8.5t-61 -2.5q-12 0 -19 1t-19 6.5t-35 18.5t-67 37q-13 6 -10.5 10t15.5 5q21 2 44.5 1.5
t44.5 -0.5q22 0 38.5 2.5t23.5 11.5zM-164 -292q63 7 147.5 32.5t171.5 71t165.5 112.5t129.5 158q9 33 -2.5 71.5t-30.5 74t-39 64.5t-28 44q-2 0 -0.5 5t6.5 21.5t15.5 48t27.5 84.5q3 11 7.5 14t9.5 1.5t10.5 -5.5t10.5 -8q57 -69 80 -140t20 -143t-27.5 -143.5
t-62.5 -139.5q-23 -41 -49.5 -84t-59.5 -79.5t-73 -61.5t-89 -29q-98 -10 -178 -13t-163 11q-35 11 -33.5 19t34.5 14z" />
    <glyph glyph-name="sf331.002" unicode="&#x632;" horiz-adv-x="498" 
d="M197 794q5 7 18 23.5t28 35t29 34.5t20 22q8 10 14 9.5t12 -5.5q36 -31 72.5 -59t60.5 -53q5 -5 4 -9.5t-6 -10.5q-22 -32 -46 -61t-47 -60q-10 -18 -27 -7q-13 7 -32.5 22t-39 32t-36.5 33.5t-25 27.5q-6 8 -5 13t6 13zM-214 -292q63 7 147.5 32.5t171.5 71t165.5 112.5
t129.5 158q9 33 -2.5 71.5t-30.5 74t-39 64.5t-28 44q-2 0 -0.5 5t6.5 21.5t15.5 48t27.5 84.5q3 11 7.5 14t9.5 1.5t10.5 -5.5t10.5 -8q57 -69 80 -140t20 -143t-27.5 -143.5t-62.5 -139.5q-23 -41 -49.5 -84t-59.5 -79.5t-73 -61.5t-89 -29q-98 -10 -178 -13t-163 11
q-35 11 -33.5 19t34.5 14z" />
    <glyph glyph-name="sf331.003" unicode="&#x698;" horiz-adv-x="548" 
d="M100 1016q5 6 18.5 22.5t28.5 34.5t28.5 34.5t19.5 23.5q8 10 14 9t11 -6q37 -31 73.5 -59t60.5 -52q5 -6 4 -10t-6 -11q-22 -32 -46 -61t-47 -60q-10 -16 -27 -7q-13 7 -32.5 22t-39 32t-36.5 33.5t-25 27.5q-6 9 -5 13.5t6 13.5zM1 692q-21 15 -10 33q25 35 49 68.5
t49 67.5q8 8 14 7.5t12 -5.5q19 -14 36.5 -28.5t34.5 -28.5q18 -13 36 -24.5t28 -15.5q11 -3 13 -0.5t11 13.5q10 11 29.5 35t55.5 67q8 8 13.5 5.5t9.5 -5.5q48 -39 74.5 -60t39 -31l15 -12t3.5 -3q14 -11 4 -23q-24 -32 -49 -63.5t-49 -63.5q-9 -10 -15 -9t-12 5
q-35 22 -65 48.5t-62 58.5q-26 -32 -50 -64t-49 -63q-10 -12 -25 -6t-26 12q-18 11 -31 20t-25.5 18t-26.5 20.5t-32 26.5zM-164 -292q63 7 147.5 32.5t171.5 71t165.5 112.5t129.5 158q9 33 -2.5 71.5t-30.5 74t-39 64.5t-28 44q-2 0 -0.5 5t6.5 21.5t15.5 48t27.5 84.5
q3 11 7.5 14t9.5 1.5t10.5 -5.5t10.5 -8q57 -69 80 -140t20 -143t-27.5 -143.5t-62.5 -139.5q-23 -41 -49.5 -84t-59.5 -79.5t-73 -61.5t-89 -29q-98 -10 -178 -13t-163 11q-35 11 -33.5 19t34.5 14z" />
    <glyph glyph-name="sf293.002" unicode="&#x633;" horiz-adv-x="1852" 
d="M70 -133q0 63 12.5 123.5t34.5 118t52 112t65 104.5q9 13 19 23t16 11.5t5.5 -7t-11.5 -31.5q-20 -42 -39 -84t-34 -85t-24 -86.5t-9 -89.5q0 -81 31 -142.5t83.5 -102.5t121.5 -61.5t146 -20.5q22 -1 56.5 3t75.5 13t84.5 23t83 32.5t72 41.5t50.5 50q3 52 -4.5 103
t-19.5 98.5t-27.5 90.5t-28.5 79.5t-22 64.5t-9 45q0 1 0.5 6t5 20.5t13.5 45.5t26 83q2 6 4 4t3 -5q25 -59 51.5 -103.5t61.5 -73.5t81.5 -43.5t111.5 -14.5q43 0 74 12.5t55.5 33.5t45 49.5t43.5 61.5q5 7 12.5 13t13.5 7.5t10 -2.5t2 -17q-4 -23 -16 -42.5t-20 -44.5
q10 -8 43 -18.5t71 -20.5t72 -16.5t45 -6.5q-5 19 -10.5 40.5t-9.5 40.5q19 40 37.5 79.5t37.5 78.5q8 17 12 19t10 -18q19 -58 32.5 -120.5t13.5 -125.5q-7 -19 -18.5 -46t-23.5 -55t-23.5 -53t-19.5 -40q-20 -1 -53 3.5t-71.5 12.5t-78.5 19t-74.5 21.5t-59.5 20.5t-33 17
q-29 -38 -61.5 -58.5t-68.5 -28.5t-75.5 -6.5t-81.5 8.5q-2 -76 -10.5 -143.5t-28.5 -142.5q-11 -42 -39.5 -80.5t-68.5 -71.5t-88.5 -60t-100 -45.5t-102.5 -28t-96 -7.5q-102 -1 -182.5 25.5t-137 79.5t-86.5 131t-30 180z" />
    <glyph glyph-name="sf293.003" unicode="&#x634;" horiz-adv-x="1852" 
d="M1193 1058q5 6 18.5 22.5t28.5 34.5t28.5 34.5t19.5 23.5q8 10 14 9t11 -6q37 -31 73.5 -59t60.5 -52q5 -6 4 -10t-6 -11q-22 -32 -46 -61t-47 -60q-10 -16 -27 -7q-13 7 -32.5 22t-39 32t-36.5 33.5t-25 27.5q-6 9 -5 13.5t6 13.5zM1094 734q-21 15 -10 33
q25 35 49 68.5t49 67.5q8 8 14 7.5t12 -5.5q19 -14 36.5 -28.5t34.5 -28.5q18 -13 36 -24.5t28 -15.5q11 -3 13 -0.5t11 13.5q10 11 29.5 35t55.5 67q8 8 13.5 5.5t9.5 -5.5q48 -39 74.5 -60t39 -31l15 -12t3.5 -3q14 -11 4 -23q-24 -32 -49 -63.5t-49 -63.5q-9 -10 -15 -9
t-12 5q-35 22 -65 48.5t-62 58.5q-26 -32 -50 -64t-49 -63q-10 -12 -25 -6t-26 12q-18 11 -31 20t-25.5 18t-26.5 20.5t-32 26.5zM70 -133q0 63 12.5 123.5t34.5 118t52 112t65 104.5q9 13 19 23t16 11.5t5.5 -7t-11.5 -31.5q-20 -42 -39 -84t-34 -85t-24 -86.5t-9 -89.5
q0 -81 31 -142.5t83.5 -102.5t121.5 -61.5t146 -20.5q22 -1 56.5 3t75.5 13t84.5 23t83 32.5t72 41.5t50.5 50q3 52 -4.5 103t-19.5 98.5t-27.5 90.5t-28.5 79.5t-22 64.5t-9 45q0 1 0.5 6t5 20.5t13.5 45.5t26 83q2 6 4 4t3 -5q25 -59 51.5 -103.5t61.5 -73.5t81.5 -43.5
t111.5 -14.5q43 0 74 12.5t55.5 33.5t45 49.5t43.5 61.5q5 7 12.5 13t13.5 7.5t10 -2.5t2 -17q-4 -23 -16 -42.5t-20 -44.5q10 -8 43 -18.5t71 -20.5t72 -16.5t45 -6.5q-5 19 -10.5 40.5t-9.5 40.5q19 40 37.5 79.5t37.5 78.5q8 17 12 19t10 -18q19 -58 32.5 -120.5
t13.5 -125.5q-7 -19 -18.5 -46t-23.5 -55t-23.5 -53t-19.5 -40q-20 -1 -53 3.5t-71.5 12.5t-78.5 19t-74.5 21.5t-59.5 20.5t-33 17q-29 -38 -61.5 -58.5t-68.5 -28.5t-75.5 -6.5t-81.5 8.5q-2 -76 -10.5 -143.5t-28.5 -142.5q-11 -42 -39.5 -80.5t-68.5 -71.5t-88.5 -60
t-100 -45.5t-102.5 -28t-96 -7.5q-102 -1 -182.5 25.5t-137 79.5t-86.5 131t-30 180z" />
    <glyph glyph-name="sf293.001" unicode="&#x635;" horiz-adv-x="2141" 
d="M1236 200q73 -14 161 -19.5t179.5 -1t180 20t163.5 43.5q-38 92 -88.5 138t-108.5 58t-121.5 -5.5t-127 -53t-124.5 -83.5t-114 -97zM73 -134q4 138 50 252.5t124 217.5q9 12 18 18t14 6q14 0 -2 -27q-35 -58 -60.5 -120t-39.5 -121.5t-15 -114t13 -98.5q17 -47 45.5 -88
t73.5 -71.5t107.5 -49t146.5 -20.5q58 2 116.5 12.5t112.5 29.5t102 47.5t86 66.5q2 48 -4.5 98t-18 98t-25 92.5t-26.5 81t-23 63.5t-13 40q-1 5 0 12t5.5 22t13.5 42t24 71q2 6 4 10.5t4.5 6t5 -1.5t5.5 -13q17 -38 39 -76t50.5 -68.5t64 -49t80.5 -17.5q26 23 61 58.5
t75.5 75.5t85 79t90.5 70q53 37 109 65t111.5 41.5t110 9.5t103.5 -30.5t91.5 -79t75.5 -136.5q4 -11 5.5 -23.5t-7.5 -28.5q-9 -20 -23 -46l-28 -52t-25.5 -48.5t-16.5 -35.5q-24 -41 -87.5 -70t-149.5 -47.5t-185.5 -26.5t-194.5 -7t-176.5 11t-132.5 27q-4 -58 -7 -102
t-8 -81.5t-15 -72t-28 -74.5q-44 -69 -107.5 -118.5t-136.5 -80t-152 -40.5t-154 0t-142.5 40.5t-117 82t-77.5 123.5t-25 166z" />
    <glyph glyph-name="sf293.004" unicode="&#x636;" horiz-adv-x="2141" 
d="M1330 889q5 7 18 23.5t28 35t29 34.5t20 22q8 10 14 9.5t12 -5.5q36 -31 72.5 -59t60.5 -53q5 -5 4 -9.5t-6 -10.5q-22 -32 -46 -61t-47 -60q-10 -18 -27 -7q-13 7 -32.5 22t-39 32t-36.5 33.5t-25 27.5q-6 8 -5 13t6 13zM1236 200q73 -14 161 -19.5t179.5 -1t180 20
t163.5 43.5q-38 92 -88.5 138t-108.5 58t-121.5 -5.5t-127 -53t-124.5 -83.5t-114 -97zM73 -134q4 138 50 252.5t124 217.5q9 12 18 18t14 6q14 0 -2 -27q-35 -58 -60.5 -120t-39.5 -121.5t-15 -114t13 -98.5q17 -47 45.5 -88t73.5 -71.5t107.5 -49t146.5 -20.5
q58 2 116.5 12.5t112.5 29.5t102 47.5t86 66.5q2 48 -4.5 98t-18 98t-25 92.5t-26.5 81t-23 63.5t-13 40q-1 5 0 12t5.5 22t13.5 42t24 71q2 6 4 10.5t4.5 6t5 -1.5t5.5 -13q17 -38 39 -76t50.5 -68.5t64 -49t80.5 -17.5q26 23 61 58.5t75.5 75.5t85 79t90.5 70
q53 37 109 65t111.5 41.5t110 9.5t103.5 -30.5t91.5 -79t75.5 -136.5q4 -11 5.5 -23.5t-7.5 -28.5q-9 -20 -23 -46l-28 -52t-25.5 -48.5t-16.5 -35.5q-24 -41 -87.5 -70t-149.5 -47.5t-185.5 -26.5t-194.5 -7t-176.5 11t-132.5 27q-4 -58 -7 -102t-8 -81.5t-15 -72
t-28 -74.5q-44 -69 -107.5 -118.5t-136.5 -80t-152 -40.5t-154 0t-142.5 40.5t-117 82t-77.5 123.5t-25 166z" />
    <glyph glyph-name="sf336" unicode="&#x637;" horiz-adv-x="1546" 
d="M1069 381q-73 -2 -145 -32.5t-139 -75.5t-127 -97.5t-109 -97.5q157 3 284.5 16t224 30t161.5 34.5t97 29.5q-13 34 -36.5 68.5t-55 62.5t-71 45t-84.5 17zM436 -99q-19 -3 -45 5t-55.5 23t-60.5 34.5t-60 39t-54.5 37.5t-42.5 29q-18 12 -30.5 23.5t-15 19.5t7 11
t35.5 -2q22 -5 54.5 -13.5t78 -16.5t105 -13.5t136.5 -3.5q20 23 38 47t36.5 48t38.5 46t45 41q7 54 4.5 114.5t-12 138t-24 176.5t-30.5 231q0 34 1 65t1 65q-17 15 -34.5 31.5t-30.5 35.5t-18 40.5t2 47.5q13 22 23.5 40.5t21 36.5t22.5 36.5t27 39.5l14 14t11.5 9.5
t5 -2.5t-5.5 -21q-10 -28 -4 -49.5t20.5 -38.5t34 -31t38 -27.5t31.5 -27.5t14 -30q-19 -38 -38.5 -73t-39.5 -73q3 -64 12 -130.5t18 -133.5t16 -133.5t6 -130.5q0 -87 -24 -163q111 100 221.5 161t210 69t184.5 -44.5t145 -178.5q6 -28 -1 -51.5t-26 -52t-49.5 -67
t-71.5 -97.5q-27 -23 -108.5 -49t-200.5 -49t-267 -38t-310 -15z" />
    <glyph glyph-name="sf336.002" unicode="&#x638;" horiz-adv-x="1546" 
d="M914 881q5 7 18 23.5t28 35t29 34.5t20 22q8 10 14 9.5t12 -5.5q36 -31 72.5 -59t60.5 -53q5 -5 4 -9.5t-6 -10.5q-22 -32 -46 -61t-47 -60q-10 -18 -27 -7q-13 7 -32.5 22t-39 32t-36.5 33.5t-25 27.5q-6 8 -5 13t6 13zM1069 381q-73 -2 -145 -32.5t-139 -75.5
t-127 -97.5t-109 -97.5q157 3 284.5 16t224 30t161.5 34.5t97 29.5q-13 34 -36.5 68.5t-55 62.5t-71 45t-84.5 17zM436 -99q-19 -3 -45 5t-55.5 23t-60.5 34.5t-60 39t-54.5 37.5t-42.5 29q-18 12 -30.5 23.5t-15 19.5t7 11t35.5 -2q22 -5 54.5 -13.5t78 -16.5t105 -13.5
t136.5 -3.5q20 23 38 47t36.5 48t38.5 46t45 41q7 54 4.5 114.5t-12 138t-24 176.5t-30.5 231q0 34 1 65t1 65q-17 15 -34.5 31.5t-30.5 35.5t-18 40.5t2 47.5q13 22 23.5 40.5t21 36.5t22.5 36.5t27 39.5l14 14t11.5 9.5t5 -2.5t-5.5 -21q-10 -28 -4 -49.5t20.5 -38.5
t34 -31t38 -27.5t31.5 -27.5t14 -30q-19 -38 -38.5 -73t-39.5 -73q3 -64 12 -130.5t18 -133.5t16 -133.5t6 -130.5q0 -87 -24 -163q111 100 221.5 161t210 69t184.5 -44.5t145 -178.5q6 -28 -1 -51.5t-26 -52t-49.5 -67t-71.5 -97.5q-27 -23 -108.5 -49t-200.5 -49t-267 -38
t-310 -15z" />
    <glyph glyph-name="sf276.001" unicode="&#x639;" horiz-adv-x="1083" 
d="M76 -267q0 165 60 307.5t163 268.5v3q-4 2 -22 12t-43 27t-53.5 40.5t-52.5 53t-39.5 63.5t-15.5 72q0 37 7 71.5t19 69.5q19 55 43 96t57.5 68t77.5 40t104 13q27 0 57 -3t64 -12.5t71.5 -26.5t78.5 -45q10 -6 24.5 -20t21.5 -28.5t0.5 -24t-38.5 -6.5q-60 11 -120 21.5
t-120 10.5q-75 0 -145 -29.5t-115 -94.5q21 -44 60 -80.5t89.5 -62.5t108 -40.5t114.5 -14.5q48 0 93 12.5t88.5 31.5t86 41.5t84.5 41.5q13 7 17.5 4.5t4 -10t-4.5 -16.5t-8 -15q-9 -17 -20.5 -37.5t-24 -41.5t-24 -41t-20.5 -35q-42 -11 -106.5 -33.5t-136 -57t-143 -81.5
t-129 -108t-93.5 -135.5t-36 -163.5q0 -92 36.5 -168t97 -135t138.5 -100t161 -62q29 -11 73 -17.5t98.5 -9.5t117.5 -4t130 -1q69 0 138.5 0.5t138.5 0.5h5q9 0 9 -4q0 -2 -4 -5q-11 -7 -39 -18.5t-77.5 -27t-122.5 -34.5t-173 -41q-63 -14 -129 -23.5t-129 -9.5
q-112 0 -214.5 40.5t-180 114t-121 175t-37.5 224.5z" />
    <glyph glyph-name="sf276.006" unicode="&#x63a;" horiz-adv-x="1083" 
d="M197 1241q5 7 18 23.5t28 35t29 34.5t20 22q8 10 14 9.5t12 -5.5q36 -31 72.5 -59t60.5 -53q5 -5 4 -9.5t-6 -10.5q-22 -32 -46 -61t-47 -60q-10 -18 -27 -7q-13 7 -32.5 22t-39 32t-36.5 33.5t-25 27.5q-6 8 -5 13t6 13zM76 -267q0 165 60 307.5t163 268.5v3
q-4 2 -22 12t-43 27t-53.5 40.5t-52.5 53t-39.5 63.5t-15.5 72q0 37 7 71.5t19 69.5q19 55 43 96t57.5 68t77.5 40t104 13q27 0 57 -3t64 -12.5t71.5 -26.5t78.5 -45q10 -6 24.5 -20t21.5 -28.5t0.5 -24t-38.5 -6.5q-60 11 -120 21.5t-120 10.5q-75 0 -145 -29.5t-115 -94.5
q21 -44 60 -80.5t89.5 -62.5t108 -40.5t114.5 -14.5q48 0 93 12.5t88.5 31.5t86 41.5t84.5 41.5q13 7 17.5 4.5t4 -10t-4.5 -16.5t-8 -15q-9 -17 -20.5 -37.5t-24 -41.5t-24 -41t-20.5 -35q-42 -11 -106.5 -33.5t-136 -57t-143 -81.5t-129 -108t-93.5 -135.5t-36 -163.5
q0 -92 36.5 -168t97 -135t138.5 -100t161 -62q29 -11 73 -17.5t98.5 -9.5t117.5 -4t130 -1q69 0 138.5 0.5t138.5 0.5h5q9 0 9 -4q0 -2 -4 -5q-11 -7 -39 -18.5t-77.5 -27t-122.5 -34.5t-173 -41q-63 -14 -129 -23.5t-129 -9.5q-112 0 -214.5 40.5t-180 114t-121 175
t-37.5 224.5z" />
    <glyph glyph-name="sf278" unicode="&#x641;" horiz-adv-x="1628" 
d="M1103 1170q5 7 18 23.5t28 35t29 34.5t20 22q8 10 14 9.5t12 -5.5q36 -31 72.5 -59t60.5 -53q5 -5 4 -9.5t-6 -10.5q-22 -32 -46 -61t-47 -60q-10 -18 -27 -7q-13 7 -32.5 22t-39 32t-36.5 33.5t-25 27.5q-6 8 -5 13t6 13zM1245 686q-14 0 -28 -5.5t-25.5 -13t-19 -14.5
t-9.5 -10q-6 -7 5.5 -20t29.5 -25t36 -20.5t25 -6.5q18 0 42.5 9.5t41.5 17.5q-1 14 -11 29.5t-24 28.5t-31 21.5t-32 8.5zM71 274q-1 54 10 109t33 106q16 36 29.5 61.5t20 30t4 -17t-17.5 -79.5q-17 -80 -1 -137.5t54.5 -98t95 -65t120 -38.5t129.5 -18.5t123 -4.5
q66 0 139.5 5t148 14.5t147 23.5t136.5 32t117 40.5t88 48.5q0 15 -4.5 46t-12 64t-18.5 61.5t-23 37.5q-18 -29 -36 -51t-37.5 -36.5t-42.5 -21.5t-53 -7q-33 0 -63 13t-53 35.5t-36.5 52.5t-13.5 64q0 46 18 88t35 85q12 28 31.5 57t45 52t55.5 37.5t62 12.5
q41 -2 77 -28.5t65.5 -67t51.5 -91t36.5 -100.5t20.5 -95.5t3 -75.5q1 -30 -8 -78.5t-26.5 -98t-42 -90.5t-52.5 -56q-157 -79 -318 -120t-337 -52q-68 -3 -145 -3q-64 0 -129.5 5t-126.5 19t-114.5 39t-94 64t-64.5 95t-26 132z" />
    <glyph glyph-name="sf277.018" unicode="&#x642;" horiz-adv-x="1195" 
d="M575 851q-20 15 -10 34q25 34 49 67.5t49 67.5q8 9 13.5 8t12.5 -6q17 -14 35.5 -29t36.5 -28.5t34.5 -24t28.5 -14.5q11 -3 13 -1t11 13q10 11 29.5 35t55.5 67q8 8 13.5 5.5t9.5 -5.5q48 -39 74.5 -60t39 -31l15 -12t3.5 -3q6 -4 7.5 -10t-3.5 -12q-25 -32 -49.5 -63.5
t-48.5 -63.5q-9 -11 -15 -10t-12 5q-35 22 -65 48.5t-62 58.5q-26 -32 -50 -64t-49 -63q-10 -12 -25.5 -6t-25.5 13q-18 10 -31 18.5t-26 18t-26.5 21t-31.5 26.5zM721 362q21 -39 50.5 -60t62 -27.5t64.5 -1t58 19.5q-23 60 -59 88t-76 28q-10 1 -25 -3t-30 -11
t-27.5 -15.5t-17.5 -17.5zM514 -307q73 1 145 18.5t140 45.5t131 64.5t117 76.5q-2 36 -8 75.5t-14 78.5t-17 74t-16 61q-22 -51 -69.5 -80t-102.5 -29q-46 0 -86 21.5t-67 56.5t-37 79t4 90q15 49 31.5 99t42.5 90.5t66 66t102 25.5q57 0 96 -31t65.5 -81.5t41.5 -113
t24 -126t13 -121t8 -96.5q1 -132 -41.5 -222.5t-129.5 -157.5q-87 -61 -189.5 -101t-205 -51.5t-195.5 8.5t-160 79.5t-100 161.5t-14 254q15 155 67 236q8 17 17 31t17 21.5t13.5 6.5t5.5 -14q0 -29 -16 -60q-23 -63 -31 -128.5t0 -127t33 -115.5t68.5 -92.5t105.5 -58.5
t145 -14z" />
    <glyph glyph-name="sf270.007" unicode="&#x643;" horiz-adv-x="1677" 
d="M1186 689q-14 24 -30 48.5t-31.5 49.5t-28.5 50t-20 49q-1 7 0.5 14t3.5 15q17 29 24.5 56t22 52.5t42.5 49.5t87 47q101 36 191.5 69t178.5 66t178 66t190 69q12 5 18 2t-2 -15q-33 -35 -66 -68.5t-66 -68.5q-14 -8 -31 -15t-43 -16q-68 -24 -143 -52t-148.5 -57
t-142.5 -57.5t-125 -53.5q-9 -4 -11.5 -7.5t-2 -6.5t3 -6t5.5 -6q79 -101 134 -186.5t88 -161t45 -143.5t5 -134q-4 -39 -10 -70t-21 -56.5t-41.5 -48t-71.5 -44.5q-173 -87 -363.5 -125.5t-382.5 -38.5q-65 0 -131 4t-127.5 17t-115 37.5t-93 64.5t-62.5 98t-23 139
q0 63 15 124t40 118q15 33 22.5 43t9.5 4t-0.5 -23t-7.5 -38q-19 -81 -9 -141t41 -103t80 -70.5t108.5 -43t125.5 -21.5t131 -6q105 0 217 11.5t220 34.5t206 58t175 82q-9 50 -30.5 106.5t-51.5 111t-67 102.5t-76 80q0 -3 -1.5 -10.5t-3 -16t-3 -15.5t-2.5 -10
q-8 -23 -23 -3z" />
    <glyph glyph-name="sf270.007" unicode="&#x6a9;" horiz-adv-x="1677" 
d="M1186 689q-14 24 -30 48.5t-31.5 49.5t-28.5 50t-20 49q-1 7 0.5 14t3.5 15q17 29 24.5 56t22 52.5t42.5 49.5t87 47q101 36 191.5 69t178.5 66t178 66t190 69q12 5 18 2t-2 -15q-33 -35 -66 -68.5t-66 -68.5q-14 -8 -31 -15t-43 -16q-68 -24 -143 -52t-148.5 -57
t-142.5 -57.5t-125 -53.5q-9 -4 -11.5 -7.5t-2 -6.5t3 -6t5.5 -6q79 -101 134 -186.5t88 -161t45 -143.5t5 -134q-4 -39 -10 -70t-21 -56.5t-41.5 -48t-71.5 -44.5q-173 -87 -363.5 -125.5t-382.5 -38.5q-65 0 -131 4t-127.5 17t-115 37.5t-93 64.5t-62.5 98t-23 139
q0 63 15 124t40 118q15 33 22.5 43t9.5 4t-0.5 -23t-7.5 -38q-19 -81 -9 -141t41 -103t80 -70.5t108.5 -43t125.5 -21.5t131 -6q105 0 217 11.5t220 34.5t206 58t175 82q-9 50 -30.5 106.5t-51.5 111t-67 102.5t-76 80q0 -3 -1.5 -10.5t-3 -16t-3 -15.5t-2.5 -10
q-8 -23 -23 -3z" />
    <glyph glyph-name="sf270.006" unicode="&#x6af;" horiz-adv-x="1688" 
d="M1186 662q-14 24 -30 48.5t-31.5 49.5t-28.5 50t-20 49q-1 7 0.5 14t3.5 15q17 29 24.5 56t22 52.5t42.5 49.5t87 47q101 36 191.5 69t178.5 66t178 66t190 69q12 5 18 2t-2 -15q-33 -35 -66 -68.5t-66 -68.5q-14 -8 -31 -15t-43 -16q-68 -24 -143 -52t-148.5 -57
t-142.5 -57.5t-125 -53.5q-9 -4 -11.5 -7.5t-2 -6.5t3 -6t5.5 -6q79 -101 134 -186.5t88 -161t45 -143.5t5 -134q-4 -39 -10 -70t-21 -56.5t-41.5 -48t-71.5 -44.5q-173 -87 -363.5 -125.5t-382.5 -38.5q-65 0 -131 4t-127.5 17t-115 37.5t-93 64.5t-62.5 98t-23 139
q0 63 15 124t40 118q15 33 22.5 43t9.5 4t-0.5 -23t-7.5 -38q-19 -81 -9 -141t41 -103t80 -70.5t108.5 -43t125.5 -21.5t131 -6q105 0 217 11.5t220 34.5t206 58t175 82q-9 50 -30.5 106.5t-51.5 111t-67 102.5t-76 80q0 -3 -1.5 -10.5t-3 -16t-3 -15.5t-2.5 -10
q-8 -23 -23 -3zM1854 1497l-57 -47.5t-61 -48.5q-123 -48 -219.5 -85.5t-168.5 -66t-121.5 -48.5t-78.5 -33q-18 -8 -22.5 -3.5t15.5 22.5q15 13 39.5 33.5t46.5 39.5q11 10 25 21t31 25q6 2 14 5t23 8.5t39 15t62 23.5t93 34.5t131 48.5q30 12 52 20.5t42 16t42.5 16
t54.5 20.5q25 11 34.5 7t-16.5 -24z" />
    <glyph glyph-name="sf288.001" unicode="&#x644;" horiz-adv-x="1100" 
d="M72 -140q-2 40 7 96t28 117.5t47 123t65 112.5q12 17 22 24t14.5 5t3.5 -12.5t-10 -27.5q-18 -31 -34 -69t-27.5 -78.5t-18.5 -82.5t-7 -81q0 -78 25.5 -135.5t69 -96t100.5 -58.5t121 -23t130 9.5t127.5 39.5t113.5 67t88 92q3 52 0 118t-10 138.5t-17 148.5t-20 149
t-20 140t-17 121q-2 21 -1.5 52.5t1.5 65t2.5 66t1.5 56.5l-31.5 27t-31.5 33.5t-21 41.5t1 50q12 22 24.5 46.5t26 48t28.5 44.5t31 37q21 21 7 -22q-11 -34 1.5 -59t34.5 -44.5t47.5 -34.5t41.5 -30q8 -11 11 -15.5t2.5 -7.5t-4 -7.5t-7.5 -14.5q-7 -15 -23.5 -46
t-47.5 -88q8 -101 20 -202t23.5 -202t20 -202t8.5 -202q5 -79 -8.5 -155t-44.5 -145t-78.5 -128t-110.5 -102.5t-141 -69.5t-169 -29q-89 -2 -161.5 27.5t-124.5 83t-80.5 128t-28.5 162.5z" />
    <glyph glyph-name="sf289.001" unicode="&#x645;" horiz-adv-x="784" 
d="M163 -48q7 -79 14 -146t13 -129.5t9.5 -125t3.5 -132.5q0 -72 -5 -153t-16 -184q-2 -10 -5.5 -22t-7.5 -16t-7.5 4t-4.5 37q-16 196 -27.5 343.5t-31.5 254.5q-16 80 -22.5 159t0.5 152t29 137t63 115t102.5 86.5t147.5 50.5q-18 12 -36.5 16.5t-36.5 5t-33.5 -1
t-25.5 -1.5q-11 0 -17 3t-7 13q3 14 10.5 36.5t16.5 47t19 48.5t18 41q27 21 59.5 22.5t68 -10.5t72 -35.5t70.5 -52.5t64.5 -61t53.5 -62q-14 -58 -31.5 -107.5t-50.5 -78.5q-26 1 -53.5 1.5t-56.5 0.5q-47 0 -93.5 -4t-89 -15t-78 -29.5t-59.5 -47t-35 -68t-4 -92.5z" />
    <glyph glyph-name="sf277.019" unicode="&#x646;" horiz-adv-x="1109" 
d="M538 876q5 7 18 23.5t28 35t29 34.5t20 22q8 10 14 9.5t12 -5.5q36 -31 72.5 -59t60.5 -53q5 -5 4 -9.5t-6 -10.5q-22 -32 -46 -61t-47 -60q-10 -18 -27 -7q-13 7 -32.5 22t-39 32t-36.5 33.5t-25 27.5q-6 8 -5 13t6 13zM168 30q0 -79 25 -137.5t68 -99t100 -63.5
t122 -29.5t133.5 2t134 31t124.5 58t104 82.5q-2 59 -16 123t-34.5 127.5t-46 125t-49.5 115.5q0 6 5 26t11.5 44t13 47.5t10.5 37.5q7 23 10.5 21.5t11.5 -15.5q34 -64 61 -130.5t46 -133t28 -131t7 -124.5q-2 -50 -4 -96t-11 -87.5t-27 -79t-51 -69.5
q-97 -94 -209.5 -139.5t-227.5 -45.5q-94 0 -177 31.5t-142 93.5t-88.5 154t-15.5 213q14 112 57.5 216.5t107.5 195.5q11 15 19.5 14.5t1.5 -21.5q-19 -42 -37 -85t-32.5 -88t-23.5 -91t-9 -93z" />
    <glyph glyph-name="sf277.037" unicode="&#x6ba;" horiz-adv-x="1109" 
d="M168 30q0 -79 25 -137.5t68 -99t100 -63.5t122 -29.5t133.5 2t134 31t124.5 58t104 82.5q-2 59 -16 123t-34.5 127.5t-46 125t-49.5 115.5q0 6 5 26t11.5 44t13 47.5t10.5 37.5q7 23 10.5 21.5t11.5 -15.5q34 -64 61 -130.5t46 -133t28 -131t7 -124.5q-2 -50 -4 -96
t-11 -87.5t-27 -79t-51 -69.5q-97 -94 -209.5 -139.5t-227.5 -45.5q-94 0 -177 31.5t-142 93.5t-88.5 154t-15.5 213q14 112 57.5 216.5t107.5 195.5q11 15 19.5 14.5t1.5 -21.5q-19 -42 -37 -85t-32.5 -88t-23.5 -91t-9 -93z" />
    <glyph glyph-name="sf337" unicode="&#x648;" horiz-adv-x="602" 
d="M240 298q33 -42 58.5 -65t50.5 -30.5t52 -1.5t63 21q-19 34 -44 62.5t-54.5 42.5t-61 9t-64.5 -38zM141 193q5 41 19 90t37 95.5t54 85t69.5 56.5t85 10.5t99.5 -51.5q42 -42 63 -101t25.5 -124t-5.5 -131t-31 -122q-14 -36 -34 -80t-44.5 -89t-53.5 -88.5t-61 -78.5
t-67.5 -58.5t-72.5 -29.5q-45 -2 -91.5 -7.5t-93 -8.5t-92.5 -0.5t-91 17.5q-31 10 -27.5 17.5t30.5 10.5q95 13 176.5 40.5t148 63t119 75.5t90.5 77.5t61.5 70t32.5 53.5q10 20 13.5 48.5t2 56t-8 48.5t-15.5 26q-6 -14 -14.5 -40t-25 -52t-43.5 -45.5t-70 -20.5
q-35 0 -68.5 16.5t-59.5 42.5t-41.5 59.5t-15.5 67.5z" />
    <glyph glyph-name="sf337.001" unicode="&#x624;" horiz-adv-x="602" 
d="M224 859q7 19 14.5 42t16.5 46t20.5 44t26.5 36q15 13 34 22.5t40 13t42 -0.5t40 -17q0 -6 -4 -18t-9.5 -26t-11.5 -27t-11 -22q-10 -12 -19 -3q-15 12 -32 15t-33.5 -1.5t-31 -14t-26.5 -22.5q4 -18 21.5 -30.5t39 -19.5t43 -10t33.5 -3q33 2 66.5 13t63.5 23q14 5 8 -6
q-12 -21 -24.5 -40.5t-29.5 -44.5q-35 -12 -72.5 -23t-72.5 -25.5t-66 -35.5t-53 -52q-2 -4 -6.5 -4.5t-2.5 5.5q4 29 16 53.5t27 51.5q2 3 -1 7q-18 13 -33 30.5t-13 43.5zM240 298q33 -42 58.5 -65t50.5 -30.5t52 -1.5t63 21q-19 34 -44 62.5t-54.5 42.5t-61 9t-64.5 -38z
M141 193q5 41 19 90t37 95.5t54 85t69.5 56.5t85 10.5t99.5 -51.5q42 -42 63 -101t25.5 -124t-5.5 -131t-31 -122q-14 -36 -34 -80t-44.5 -89t-53.5 -88.5t-61 -78.5t-67.5 -58.5t-72.5 -29.5q-45 -2 -91.5 -7.5t-93 -8.5t-92.5 -0.5t-91 17.5q-31 10 -27.5 17.5t30.5 10.5
q95 13 176.5 40.5t148 63t119 75.5t90.5 77.5t61.5 70t32.5 53.5q10 20 13.5 48.5t2 56t-8 48.5t-15.5 26q-6 -14 -14.5 -40t-25 -52t-43.5 -45.5t-70 -20.5q-35 0 -68.5 16.5t-59.5 42.5t-41.5 59.5t-15.5 67.5z" />
    <glyph glyph-name="sf265.001" unicode="&#x6c1;" horiz-adv-x="692" 
d="M172 333q0 -42 17 -69t44.5 -42t61.5 -21t68 -6q9 0 35 4t52.5 10t47 13.5t19.5 15.5q-5 36 -26 79t-51 81t-66.5 63.5t-72.5 25.5q-24 0 -47.5 -15.5t-41.5 -38.5t-29 -50t-11 -50zM70 199q4 28 15.5 74.5t30 100.5t44 109t56.5 99t67.5 71.5t77.5 26.5q32 2 64.5 -14
t61.5 -44t54 -64.5t43 -75.5t28 -77.5t9 -70.5q-1 -4 -4.5 -14.5t-13 -35.5t-28 -68t-49.5 -111q-21 -26 -51 -45.5t-62 -32.5t-63 -19.5t-54 -6.5q-45 0 -85.5 12t-72 36.5t-50 61t-18.5 86.5v2z" />
    <glyph glyph-name="sf265.002" unicode="&#x6c3;" horiz-adv-x="692" 
d="M100 918q-20 15 -10 34q25 34 49 67.5t49 67.5q8 9 13.5 8t12.5 -6q17 -14 35.5 -29t36.5 -28.5t34.5 -24t28.5 -14.5q11 -3 13 -1t11 13q10 11 29.5 35t55.5 67q8 8 13.5 5.5t9.5 -5.5q48 -39 74.5 -60t39 -31l15 -12t3.5 -3q6 -4 7.5 -10t-3.5 -12q-25 -32 -49.5 -63.5
t-48.5 -63.5q-9 -11 -15 -10t-12 5q-35 22 -65 48.5t-62 58.5q-26 -32 -50 -64t-49 -63q-10 -12 -25.5 -6t-25.5 13q-18 10 -31 18.5t-26 18t-26.5 21t-31.5 26.5zM172 333q0 -42 17 -69t44.5 -42t61.5 -21t68 -6q9 0 35 4t52.5 10t47 13.5t19.5 15.5q-5 36 -26 79t-51 81
t-66.5 63.5t-72.5 25.5q-24 0 -47.5 -15.5t-41.5 -38.5t-29 -50t-11 -50zM70 199q4 28 15.5 74.5t30 100.5t44 109t56.5 99t67.5 71.5t77.5 26.5q32 2 64.5 -14t61.5 -44t54 -64.5t43 -75.5t28 -77.5t9 -70.5q-1 -4 -4.5 -14.5t-13 -35.5t-28 -68t-49.5 -111
q-21 -26 -51 -45.5t-62 -32.5t-63 -19.5t-54 -6.5q-45 0 -85.5 12t-72 36.5t-50 61t-18.5 86.5v2z" />
    <glyph glyph-name="sf298" unicode="&#x6be;" horiz-adv-x="1016" 
d="M350 296q12 -23 31 -37.5t40.5 -24.5t43 -16.5t38.5 -13.5q7 -2 18 1.5t22 9.5t21.5 13.5t16.5 13.5q1 22 -1.5 50.5t-12 53.5t-27.5 42t-47 17q-23 0 -44 -11.5t-39.5 -28t-33.5 -35.5t-26 -34zM625 190q1 -6 9.5 -13t33.5 -19.5t71 -32.5t123 -53q3 20 -5 50t-23 64
t-34.5 68.5t-40 64.5t-40 52t-34.5 31q-10 -60 -26.5 -110.5t-33.5 -101.5zM943 168q3 -27 -5.5 -65t-25 -78t-38.5 -76.5t-47 -61.5q-34 18 -62 32.5t-60.5 29.5t-75.5 32t-107 40q-20 -13 -42.5 -27.5t-47 -27.5t-51 -23.5t-54.5 -14.5q-65 -12 -124 -12h-129q-4 1 -4 5
q0 5 4 6q42 21 88 45.5t86 47t69 40t37 23.5q-61 55 -61 138q0 55 17 107t47 97t70 81t86 60q2 4 7 18t12 31.5t13.5 36t11.5 32.5q6 16 12 16t19 -7q60 -32 123 -86.5t114.5 -124.5t84.5 -150.5t33 -163.5z" />
    <glyph glyph-name="sf266.002" unicode="&#x621;" horiz-adv-x="762" 
d="M73 355q12 35 25.5 77t30.5 84t38.5 81t50.5 68q25 25 60.5 42.5t74.5 24t79 -0.5t73 -31q0 -11 -6.5 -33.5t-16.5 -48.5t-21.5 -51t-21.5 -41q-9 -14 -17 -14q-9 0 -19 10q-27 23 -58.5 28t-62 -2.5t-58.5 -26t-47 -42.5q7 -35 39 -58t72 -37t79.5 -19t62.5 -4
q30 1 61 7.5t62 16.5t60.5 21.5t56.5 22.5q11 5 16.5 2.5t0.5 -15.5q-22 -35 -45.5 -72.5t-55.5 -83.5q-66 -23 -135.5 -42.5t-134.5 -46t-122 -65t-98 -99.5q-4 -6 -11.5 -6.5t-5.5 9.5q8 54 30.5 99.5t49.5 93.5q5 9 -2 13q-17 13 -33.5 27.5t-28.5 31t-18.5 36.5t-3.5 44
z" />
    <glyph glyph-name="sf271" unicode="&#x6cc;" horiz-adv-x="1293" 
d="M70 -30q1 60 11 115.5t27.5 108t42 103.5t54.5 103q8 12 15.5 19.5t12.5 8t5.5 -8t-5.5 -28.5q-12 -36 -25 -72.5t-23.5 -73.5t-17 -75t-6.5 -77q0 -80 25 -138.5t70.5 -96t108.5 -55.5t140 -18q76 0 150 17.5t144.5 47t137 68t127.5 81.5q-21 15 -51.5 24t-65 15.5
t-68.5 11t-62 10.5q-35 6 -74.5 20t-73.5 36.5t-55.5 54t-19.5 73.5q0 49 20.5 107t55.5 116t81.5 113t99 97t108 67.5t108.5 25.5q37 -1 67 -17t50 -41.5t29.5 -59t5.5 -69.5q-26 -60 -41 -93t-22.5 -48t-10 -18t-3.5 -3t-5.5 13t-11.5 31t-16 37t-18 31q-31 39 -69.5 47.5
t-80.5 -3.5t-83.5 -40t-78.5 -61.5t-66 -69t-45 -62.5q-3 -38 18.5 -69.5t55 -56t72.5 -41t71 -23.5q54 -14 101 -21t81 -19t52.5 -34.5t15.5 -67.5q-8 -16 -17 -38t-18.5 -45t-18.5 -44t-17 -35l-3.5 -3.5t-3.5 -2.5q-67 -46 -141 -91.5t-153 -82t-162 -59t-167 -22.5
q-82 0 -149 29t-115 80t-74 121t-26 151z" />
    <glyph glyph-name="sf271.002" unicode="&#x64a;" horiz-adv-x="1293" 
d="M276 -727q-20 15 -10 34q25 34 49 67.5t49 67.5q8 9 13.5 8t12.5 -6q17 -13 35.5 -28t36.5 -28.5t34.5 -24t28.5 -14.5q11 -4 13 -2t11 13q10 11 29.5 35t55.5 67q8 8 13.5 5.5t9.5 -5.5q48 -39 74.5 -60t39 -31l15 -12t3.5 -3q6 -4 7.5 -10t-3.5 -12
q-25 -32 -49.5 -63.5t-48.5 -63.5q-9 -11 -15 -10t-12 5q-35 22 -65 48.5t-62 58.5q-26 -32 -50 -64t-49 -63q-10 -12 -25.5 -6t-25.5 13q-18 10 -31 18.5t-26 18t-26.5 21t-31.5 26.5zM70 -30q1 60 11 115.5t27.5 108t42 103.5t54.5 103q8 12 15.5 19.5t12.5 8t5.5 -8
t-5.5 -28.5q-12 -36 -25 -72.5t-23.5 -73.5t-17 -75t-6.5 -77q0 -80 25 -138.5t70.5 -96t108.5 -55.5t140 -18q76 0 150 17.5t144.5 47t137 68t127.5 81.5q-21 15 -51.5 24t-65 15.5t-68.5 11t-62 10.5q-35 6 -74.5 20t-73.5 36.5t-55.5 54t-19.5 73.5q0 49 20.5 107
t55.5 116t81.5 113t99 97t108 67.5t108.5 25.5q37 -1 67 -17t50 -41.5t29.5 -59t5.5 -69.5q-26 -60 -41 -93t-22.5 -48t-10 -18t-3.5 -3t-5.5 13t-11.5 31t-16 37t-18 31q-31 39 -69.5 47.5t-80.5 -3.5t-83.5 -40t-78.5 -61.5t-66 -69t-45 -62.5q-3 -38 18.5 -69.5t55 -56
t72.5 -41t71 -23.5q54 -14 101 -21t81 -19t52.5 -34.5t15.5 -67.5q-8 -16 -17 -38t-18.5 -45t-18.5 -44t-17 -35l-3.5 -3.5t-3.5 -2.5q-67 -46 -141 -91.5t-153 -82t-162 -59t-167 -22.5q-82 0 -149 29t-115 80t-74 121t-26 151z" />
    <glyph glyph-name="afii57414" unicode="&#x626;" horiz-adv-x="1293" 
d="M803 1064q7 19 14.5 42t16.5 46t20.5 44t26.5 36q15 13 34 22.5t40 13t42 -0.5t40 -17q0 -6 -4 -18t-9.5 -26t-11.5 -27t-11 -22q-10 -12 -19 -3q-15 12 -32 15t-33.5 -1.5t-31 -14t-26.5 -22.5q4 -18 21.5 -30.5t39 -19.5t43 -10t33.5 -3q33 2 66.5 13t63.5 23
q14 5 8 -6q-12 -21 -24.5 -40.5t-29.5 -44.5q-35 -12 -72.5 -23t-72.5 -25.5t-66 -35.5t-53 -52q-2 -4 -6.5 -4.5t-2.5 5.5q4 29 16 53.5t27 51.5q2 3 -1 7q-18 13 -33 30.5t-13 43.5zM70 -30q1 60 11 115.5t27.5 108t42 103.5t54.5 103q8 12 15.5 19.5t12.5 8t5.5 -8
t-5.5 -28.5q-12 -36 -25 -72.5t-23.5 -73.5t-17 -75t-6.5 -77q0 -80 25 -138.5t70.5 -96t108.5 -55.5t140 -18q76 0 150 17.5t144.5 47t137 68t127.5 81.5q-21 15 -51.5 24t-65 15.5t-68.5 11t-62 10.5q-35 6 -74.5 20t-73.5 36.5t-55.5 54t-19.5 73.5q0 49 20.5 107
t55.5 116t81.5 113t99 97t108 67.5t108.5 25.5q37 -1 67 -17t50 -41.5t29.5 -59t5.5 -69.5q-26 -60 -41 -93t-22.5 -48t-10 -18t-3.5 -3t-5.5 13t-11.5 31t-16 37t-18 31q-31 39 -69.5 47.5t-80.5 -3.5t-83.5 -40t-78.5 -61.5t-66 -69t-45 -62.5q-3 -38 18.5 -69.5t55 -56
t72.5 -41t71 -23.5q54 -14 101 -21t81 -19t52.5 -34.5t15.5 -67.5q-8 -16 -17 -38t-18.5 -45t-18.5 -44t-17 -35l-3.5 -3.5t-3.5 -2.5q-67 -46 -141 -91.5t-153 -82t-162 -59t-167 -22.5q-82 0 -149 29t-115 80t-74 121t-26 151z" />
    <glyph glyph-name="sf269" unicode="&#x6d2;" horiz-adv-x="2203" 
d="M496 97q99 0 173 -0.5t134 -0.5t105.5 -0.5t87.5 -0.5q47 0 92.5 1t99.5 3t122.5 5t161.5 8t215.5 12t284.5 16q38 4 80.5 13t80.5 11q-6 -17 -29 -36.5t-53 -40t-62.5 -40.5t-56.5 -36q-1 -1 -8 -5q-37 -5 -117 -12.5t-187.5 -15.5t-236 -16.5t-261.5 -15.5t-264 -11.5
t-244.5 -5.5t-201.5 3t-135 14q-26 6 -52.5 11.5t-52 14.5t-48 23t-39.5 37q-5 6 -10 14t-5 17q0 6 5 14q45 66 83.5 114.5t68.5 81.5t49.5 51.5t27.5 25.5q30 28 66.5 49t76 37.5t79 30.5t75.5 28q51 21 91.5 45t75 55t64.5 71t59 93q20 30 44 35.5t47 -11.5q6 -10 9 -16.5
t10 -26t20 -61.5t39 -123q0 -4 -5.5 -20.5t-14.5 -39t-19.5 -47.5t-21 -45t-19.5 -31.5t-14 -7.5q-20 72 -33 117t-22 69.5t-15.5 33.5t-13.5 9q-12 0 -20.5 -8t-15.5 -18.5t-12.5 -22t-10.5 -18.5q-27 -42 -66.5 -81.5t-87 -72.5t-100.5 -56t-107 -31q-52 -6 -86 -10
t-58.5 -12t-44 -22t-41.5 -39q-4 -4 -1.5 -9t6.5 -9q24 -27 55 -43t65.5 -25t70 -13t68.5 -7z" />
    <glyph glyph-name="sf269.002" unicode="&#x6d3;" horiz-adv-x="2203" 
d="M679 1070q7 19 14.5 42t16.5 46t20.5 44t26.5 36q15 13 34 22.5t40 13t42 -0.5t40 -17q0 -6 -4 -18t-9.5 -26t-11.5 -27t-11 -22q-10 -12 -19 -3q-15 12 -32 15t-33.5 -1.5t-31 -14t-26.5 -22.5q4 -18 21.5 -30.5t39 -19.5t43 -10t33.5 -3q33 2 66.5 13t63.5 23
q14 5 8 -6q-12 -21 -24.5 -40.5t-29.5 -44.5q-35 -12 -72.5 -23t-72.5 -25.5t-66 -35.5t-53 -52q-2 -4 -6.5 -4.5t-2.5 5.5q4 29 16 53.5t27 51.5q2 3 -1 7q-18 13 -33 30.5t-13 43.5zM496 97q99 0 173 -0.5t134 -0.5t105.5 -0.5t87.5 -0.5q47 0 92.5 1t99.5 3t122.5 5
t161.5 8t215.5 12t284.5 16q38 4 80.5 13t80.5 11q-6 -17 -29 -36.5t-53 -40t-62.5 -40.5t-56.5 -36q-1 -1 -8 -5q-37 -5 -117 -12.5t-187.5 -15.5t-236 -16.5t-261.5 -15.5t-264 -11.5t-244.5 -5.5t-201.5 3t-135 14q-26 6 -52.5 11.5t-52 14.5t-48 23t-39.5 37
q-5 6 -10 14t-5 17q0 6 5 14q45 66 83.5 114.5t68.5 81.5t49.5 51.5t27.5 25.5q30 28 66.5 49t76 37.5t79 30.5t75.5 28q51 21 91.5 45t75 55t64.5 71t59 93q20 30 44 35.5t47 -11.5q6 -10 9 -16.5t10 -26t20 -61.5t39 -123q0 -4 -5.5 -20.5t-14.5 -39t-19.5 -47.5t-21 -45
t-19.5 -31.5t-14 -7.5q-20 72 -33 117t-22 69.5t-15.5 33.5t-13.5 9q-12 0 -20.5 -8t-15.5 -18.5t-12.5 -22t-10.5 -18.5q-27 -42 -66.5 -81.5t-87 -72.5t-100.5 -56t-107 -31q-52 -6 -86 -10t-58.5 -12t-44 -22t-41.5 -39q-4 -4 -1.5 -9t6.5 -9q24 -27 55 -43t65.5 -25
t70 -13t68.5 -7z" />
    <glyph glyph-name="glyph73" horiz-adv-x="367" 
d="M-26 -343q2 41 15 84t36 84t54.5 78t70.5 66q8 6 15 7t10.5 -2t2.5 -9t-9 -15q-29 -31 -61.5 -70t-53.5 -85q-7 -15 -12.5 -42.5t-3.5 -54.5t14.5 -46.5t42.5 -18.5q9 0 13.5 12.5t9 27t11.5 27t20 12.5q15 0 25.5 -16t14 -39t-1 -50t-18.5 -48q-23 -34 -57.5 -40
t-66 9.5t-53 49t-18.5 79.5zM195 216q1 39 -10.5 79t-28.5 79.5t-35.5 78t-30.5 74.5q-9 17 0 34q17 39 35 77.5t35 78.5q3 7 9 6t8 -6q12 -25 32.5 -70.5t40 -100t33.5 -112.5t13 -108q0 -39 -7 -71.5t-20 -65.5t-31 -70t-40 -85q-20 -10 -50.5 -17t-63.5 -11t-64.5 -5.5
t-54.5 -0.5v200q23 0 54 0.5t63 2.5t62 5t51 8z" />
    <glyph glyph-name="sf325.001" horiz-adv-x="1300" 
d="M265 762q-23 21 -55.5 56.5t-63.5 77.5t-53 85t-23 78q6 45 6 77v54q0 21 3.5 31t17.5 10q28 -7 63.5 -30.5t73 -56.5t76 -72.5t73 -78t63.5 -73t48 -57.5q43 -54 75.5 -120t52 -137t24.5 -143t-7 -137q-32 -173 -42 4q-5 67 -24 128t-45 113t-56.5 95.5t-57.5 77
t-48.5 56t-29.5 32.5q1 -44 -4 -67t-14.5 -29.5t-23 1.5t-29.5 25zM768 919q-12 72 -4 143.5t24 143.5q1 3 4 16t7 26.5t9 24t10 9.5t10 -18t9 -58q14 -102 29.5 -208t36 -213t47.5 -214.5t63 -212.5q15 -44 38.5 -73.5t61 -48t91.5 -26t131 -6.5v-199q-17 -2 -32.5 -3.5
t-30.5 -1.5q-14 0 -28 0.5t-28 1.5q-69 4 -121 18.5t-90 47.5t-64 89t-42 143q-2 11 -5 32.5t-6.5 45t-7 44.5t-7.5 31q-16 -76 -45.5 -147t-71.5 -131t-96.5 -106t-121.5 -72q-6 -4 -23 -9.5t-56.5 -14.5t-107 -23t-175.5 -35q-13 -2 -30 -3.5t-26 0t-4 8t37 21.5
q55 24 113.5 52t117.5 62t116 73.5t109 86.5q30 27 68.5 67t71.5 87t54 96.5t16 96.5q-4 38 -15.5 122.5t-35.5 234.5z" />
    <glyph glyph-name="sf268.001" horiz-adv-x="536" 
d="M394 1540q103 0 190.5 39t162.5 108q11 11 14.5 6.5t-0.5 -12.5q-37 -72 -78.5 -126.5t-89.5 -91t-104.5 -54.5t-124.5 -18q-49 0 -93.5 9.5t-92.5 22.5q-8 -28 -16 -55t-16 -55q-6 -15 -9 -18.5t-5 -0.5t-3 10t-3 13q-8 57 -32 105.5t-69 93.5q-5 7 -3 15t2 17
q6 23 11.5 46t11.5 46q2 12 7.5 20t17.5 -2q67 -61 149 -89.5t173 -28.5zM294 1062q6 31 14.5 66.5t17.5 68.5t19 60t19 42l6 10t10 6q0 -29 -0.5 -53t-0.5 -54q20 -188 34 -328t23.5 -241t15.5 -168t8.5 -108.5t3.5 -62.5t1 -31v-11q1 -88 -12.5 -170t-45.5 -148
q-4 -6 -6.5 -2.5t-3.5 12.5q-15 159 -24.5 282t-19.5 223q-13 124 -22.5 215t-16 156t-10.5 106.5t-6 67t-3 37.5t-1 18v7z" />
    <glyph glyph-name="sf308" unicode="&#x61f;" horiz-adv-x="683" 
d="M316 -269q-6 7 -4.5 12.5t6.5 14.5q6 7 19.5 23.5t28.5 35t29 35t20 22.5q8 11 14 10.5t12 -5.5q37 -33 74.5 -61t61.5 -53q5 -6 4 -10.5t-5 -10.5q-23 -33 -47.5 -62.5t-48.5 -60.5q-10 -19 -27 -7q-14 7 -34 22t-40 32t-37 34t-26 29zM439 36q-4 -6 -9.5 -13.5
t-10 -10.5t-6.5 1t1 21q7 39 17 81.5t12.5 84.5t-8 81.5t-44.5 71.5q-66 30 -128 62t-109.5 75t-75.5 101t-26 141q18 81 45.5 161t72 144t110 104t160.5 40q34 0 66.5 -11.5t60 -32.5t49 -49.5t34.5 -62.5q6 -18 -2 -48t-22 -61.5t-30 -59.5t-26 -43q-8 -14 -17 -14
q-12 0 -12 18q1 34 -14.5 65.5t-42 54.5t-61.5 36t-72 11q-21 -1 -50 -9t-59 -23t-57.5 -37t-46.5 -52q0 -47 20 -86.5t50 -72t66 -56.5t69 -40q49 -25 83.5 -39.5t56.5 -34t32 -51.5t10 -93q0 -26 -3.5 -64t-12.5 -84.5t-26 -99t-44 -106.5z" />
    <glyph glyph-name="sf333" unicode="&#x61b;" horiz-adv-x="432" 
d="M93 207q5 7 18.5 24.5t29.5 36.5t30 35.5t21 22.5q8 11 14.5 10.5t12.5 -6.5q37 -32 75 -61t63 -55q6 -5 4.5 -9.5t-6.5 -10.5q-23 -34 -47.5 -64t-48.5 -63q-11 -18 -28 -7q-14 7 -34.5 22.5t-41 33.5t-38 35.5t-25.5 28.5q-6 8 -5 13t6 14zM82 550q-18 54 -9.5 113.5
t33.5 119.5t62 116t76 102q12 11 24.5 18.5t20.5 7.5q7 0 6 -9.5t-16 -33.5q-20 -31 -40.5 -61.5t-37.5 -62t-28 -65t-12 -71.5q0 -14 2.5 -32t9.5 -34t19 -26t31 -8q9 8 17.5 26t17.5 37.5t19 35.5t21 19q10 0 21 -12.5t20 -29t14.5 -33.5t5.5 -26q0 -24 -15.5 -53.5
t-32.5 -64.5q-25 -33 -58.5 -46.5t-67 -9.5t-61.5 25t-42 58z" />
    <glyph glyph-name="sf272" unicode=":" horiz-adv-x="416" 
d="M77 -56q6 7 19.5 24t29 36t30 36t20.5 23q7 10 14 10t13 -6q37 -32 75 -61t63 -55q6 -6 4.5 -10t-6.5 -11q-23 -33 -47.5 -63t-48.5 -62q-11 -20 -28 -8q-14 8 -34.5 23.5t-41 33t-38 34.5t-25.5 29q-6 8 -5 13t6 14zM77 545q6 7 19.5 24t29 36t30 36t20.5 23
q8 10 14.5 9.5t12.5 -4.5q37 -33 75 -62t63 -55q6 -5 4.5 -10t-6.5 -11q-23 -34 -47.5 -64t-48.5 -62q-11 -21 -28 -7q-14 7 -34.5 22.5t-41.5 33.5t-38.5 35t-24.5 28q-6 9 -5 14.5t6 13.5z" />
    <glyph glyph-name="sf273" unicode="," horiz-adv-x="421" 
d="M346 10q11 -53 -4 -109.5t-46 -110.5t-73 -103t-85 -88q-14 -10 -27 -16t-19 -4q-7 1 -4.5 10t19.5 30q22 28 45 54.5t42.5 54.5t34.5 58.5t21 67.5q1 14 0.5 31.5t-5.5 33.5t-15 26.5t-28 10.5q-9 -6 -19.5 -22.5t-21.5 -34.5t-22.5 -32t-21.5 -14q-11 1 -19.5 14
t-15 29.5t-9.5 33.5t-2 26q2 23 20 49t40 57q27 30 59.5 39.5t63.5 1t56 -32.5t36 -60z" />
    <glyph glyph-name="sf275" horiz-adv-x="403" 
d="M91 -95q4 7 16 22.5t26 32.5t27 32t19 21q7 10 13 10t12 -6q33 -29 67.5 -55t55.5 -50q10 -8 0 -18q-21 -30 -43.5 -57.5t-44.5 -56.5q-9 -17 -24 -6q-12 6 -30.5 20t-37.5 30t-34.5 31.5t-22.5 25.5q-6 8 -5.5 12.5t6.5 11.5zM208 429q-1 66 -9 124.5t-24 113t-41 107.5
t-60 108q-2 4 -3 7t1 9q1 6 11 35.5t38 99.5q8 24 20 22t24.5 -14.5t23 -29t15.5 -21.5q48 -88 69.5 -184.5t21.5 -199.5t-19.5 -201t-55.5 -189q-5 -13 -10.5 -21.5t-8.5 -8.5q-8 0 -6 39q4 55 9 104t4 100z" />
    <glyph glyph-name="sf257" unicode="%" horiz-adv-x="1257" 
d="M897 -15q1 -23 9 -42.5t22 -34.5t33 -23.5t43 -8.5q20 0 39 7t34 20t25.5 30.5t12.5 37.5v70q0 21 0.5 42t0.5 42v24t-0.5 25.5t-0.5 24.5v22v62q-1 19 -8.5 36t-20.5 30t-29.5 22t-35.5 12q-4 0 -7.5 0.5t-7.5 0.5q-22 0 -41.5 -8t-34 -22t-23 -33t-9.5 -41
q-1 -21 -1.5 -46t-0.5 -53v-26v-28v-29v-26q1 -23 1 -45v-41v-1zM804 70q0 54 0.5 110t1.5 111q3 38 20.5 72t44.5 59.5t61.5 40t72.5 14.5q43 0 80 -16.5t64 -44.5t42.5 -66t15.5 -80v-154v-30.5v-29.5v-86q-3 -40 -20.5 -74t-45.5 -58.5t-64 -38.5t-74 -14q-41 0 -77 15.5
t-63 42.5t-43 63.5t-16 78.5v85zM143 671q1 -23 9 -42.5t22 -34.5t33 -23.5t43 -8.5q20 0 39 7t34 20t25.5 30.5t12.5 37.5v70q0 21 0.5 42t0.5 42v24t-0.5 25.5t-0.5 24.5v22v62q-1 19 -8.5 36t-20.5 30t-29.5 22t-35.5 12q-4 0 -7.5 0.5t-7.5 0.5q-22 0 -41.5 -8t-34 -22
t-23 -33t-9.5 -41q-1 -21 -1.5 -46t-0.5 -53v-26v-28v-29v-26q1 -23 1 -45v-41v-1zM50 756q0 54 0.5 110t1.5 111q3 38 20.5 72t44.5 59.5t61.5 40t72.5 14.5q43 0 80 -16.5t64 -44.5t42.5 -66t15.5 -80v-154v-30.5v-29.5v-86q-3 -40 -20.5 -74t-45.5 -58.5t-64 -38.5
t-74 -14q-41 0 -77 15.5t-63 42.5t-43 63.5t-16 78.5v85zM326 -216l-131 -1l733 1373l129 1z" />
    <glyph glyph-name="sf258.001" unicode="*" horiz-adv-x="776" 
d="M587 690q-45 9 -87.5 16.5t-87.5 15.5q36 -21 71.5 -42t69.5 -46q46 -38 61 -71t5 -48t-40.5 -6t-75.5 53q-28 32 -54.5 73t-50.5 79q10 -42 20.5 -82.5t18.5 -82.5q7 -53 -6 -88.5t-31 -42.5t-34.5 19.5t-16.5 97.5q10 48 18 90.5t17 88.5q-24 -38 -46 -75t-47 -75
q-23 -30 -46 -46.5t-41.5 -21t-30 1.5t-11.5 22q0 15 12.5 38.5t42.5 55.5q39 30 78.5 57t79.5 53q-46 -12 -99.5 -26t-101.5 -18q-55 1 -79.5 15.5t-22.5 31t29 30.5t77 14q4 0 12.5 -0.5t29 -3.5t57.5 -10t100 -20q-39 22 -76 44.5t-75 46.5q-40 34 -56.5 59.5t-16.5 42.5
t14 22.5t36 -2t49.5 -30t54.5 -61.5q4 -6 14.5 -21t22.5 -32t22.5 -32t15.5 -22q-14 52 -22.5 86.5t-12.5 56.5t-5 34t-1 20q0 52 13.5 76.5t30 22.5t31 -29.5t15.5 -79.5q-1 -5 -2 -17t-4.5 -33.5t-10 -55.5t-18.5 -83q24 38 46.5 73t44.5 71q40 49 73 63.5t47 3.5t4.5 -43
t-54.5 -75q-38 -29 -74.5 -55t-74.5 -48q46 11 88 21t84 19q3 0 7.5 0.5t10.5 0.5q13 0 31.5 -2t35.5 -6.5t29 -12.5t12 -20q0 -14 -15 -24t-35 -16t-39.5 -8.5t-29.5 -1.5z" />
    <glyph glyph-name="sf258.001" unicode="&#x66d;" horiz-adv-x="776" 
d="M587 690q-45 9 -87.5 16.5t-87.5 15.5q36 -21 71.5 -42t69.5 -46q46 -38 61 -71t5 -48t-40.5 -6t-75.5 53q-28 32 -54.5 73t-50.5 79q10 -42 20.5 -82.5t18.5 -82.5q7 -53 -6 -88.5t-31 -42.5t-34.5 19.5t-16.5 97.5q10 48 18 90.5t17 88.5q-24 -38 -46 -75t-47 -75
q-23 -30 -46 -46.5t-41.5 -21t-30 1.5t-11.5 22q0 15 12.5 38.5t42.5 55.5q39 30 78.5 57t79.5 53q-46 -12 -99.5 -26t-101.5 -18q-55 1 -79.5 15.5t-22.5 31t29 30.5t77 14q4 0 12.5 -0.5t29 -3.5t57.5 -10t100 -20q-39 22 -76 44.5t-75 46.5q-40 34 -56.5 59.5t-16.5 42.5
t14 22.5t36 -2t49.5 -30t54.5 -61.5q4 -6 14.5 -21t22.5 -32t22.5 -32t15.5 -22q-14 52 -22.5 86.5t-12.5 56.5t-5 34t-1 20q0 52 13.5 76.5t30 22.5t31 -29.5t15.5 -79.5q-1 -5 -2 -17t-4.5 -33.5t-10 -55.5t-18.5 -83q24 38 46.5 73t44.5 71q40 49 73 63.5t47 3.5t4.5 -43
t-54.5 -75q-38 -29 -74.5 -55t-74.5 -48q46 11 88 21t84 19q3 0 7.5 0.5t10.5 0.5q13 0 31.5 -2t35.5 -6.5t29 -12.5t12 -20q0 -14 -15 -24t-35 -16t-39.5 -8.5t-29.5 -1.5z" />
    <glyph glyph-name="sf259.001" unicode="@" horiz-adv-x="1325" 
d="M753 254q2 37 2.5 73.5t0.5 75.5q0 33 -0.5 66t-0.5 65v44q0 12 -0.5 23t-0.5 23v2q-3 25 -14 43.5t-27.5 30.5t-36.5 18.5t-41 6.5q-22 0 -43.5 -7t-38.5 -20.5t-27.5 -34t-11.5 -46.5v-43q0 -10 -0.5 -21t-0.5 -23q-1 -23 -1 -48v-49v-92q0 -23 0.5 -43t1.5 -38
q1 -27 12 -47t28 -33.5t37.5 -20t41.5 -6.5t41.5 6.5t37.5 19t28 31.5t13 44zM1216 853q8 -17 14 -49t10.5 -75.5t6.5 -94.5t2 -107q0 -53 -2 -107.5t-6.5 -107t-11.5 -102t-16 -91.5q-14 -40 -33.5 -77t-46.5 -67.5t-61.5 -53t-79.5 -33.5q-24 -6 -54 -6q-32 0 -62.5 8.5
t-55.5 27t-43.5 46t-25.5 63.5l-3 4l-7 2l-4 -1q-32 -29 -72.5 -45t-83.5 -16q-64 0 -116 33q-30 17 -55 42.5t-43.5 56t-30.5 64.5t-16 69q-2 44 -2 85v85v84q0 41 1 83v58q4 45 19 87t41 77.5t61 62t78 39.5h1q15 6 30.5 8t31.5 2q45 0 87 -17t75 -48h5l7 4l2 3v17
q0 1 -0.5 4t-0.5 4v30h92q9 0 17.5 -0.5t17.5 -0.5h51q2 -67 2.5 -128.5t0.5 -126.5v-46v-45v-256v-83v-83q3 -51 28.5 -74.5t58.5 -23.5q21 0 41.5 8.5t38.5 24.5t31 39.5t17 53.5q11 82 16 168t5 175q0 128 -11 250v2q-10 48 -33.5 95.5t-57.5 86t-78 65.5t-97 35h-1
q-26 0 -52 0.5t-52 1.5h-24h-25q-36 1 -71.5 1.5t-70.5 0.5q-50 0 -99 -1t-98 -6h-2q-48 -10 -85 -36t-65 -63t-48.5 -81.5t-33.5 -92.5q-10 -73 -13.5 -146.5t-3.5 -148.5q0 -56 1.5 -112t2.5 -111q1 -17 1 -33t1 -32q1 -15 1.5 -30.5t0.5 -30.5q3 -46 14.5 -97.5t34 -96
t57.5 -77.5t86 -43h2q111 -10 219 -17t219 -7q70 0 137 3.5t134 10.5q41 6 69.5 30t51.5 53q4 -2 8.5 -3t9.5 -3l12 -3v-1q13 -6 24.5 -10t16.5 -9q-13 -24 -31 -46.5t-40 -42t-48.5 -34t-56.5 -20.5q-14 -1 -28 -1q-13 0 -27 -1q-9 0 -17.5 -0.5t-17.5 -0.5q-14 -1 -27 -1
t-28 -1q-60 -1 -122.5 -2.5t-124.5 -1.5q-97 0 -193 5t-193 19q-60 22 -103 68t-71 105t-41.5 124t-14.5 125q2 30 2.5 61.5t0.5 64.5v44v23v23v28t-1 26q0 13 -1 26t-1 26q0 82 2.5 160.5t9.5 159.5q13 66 39.5 124t66.5 103.5t93 76t119 41.5q29 1 57.5 1.5t57.5 0.5
q33 0 66.5 -0.5t66.5 -1.5q17 0 33.5 -0.5t33.5 -0.5q49 0 98 -0.5t98 -0.5q56 -6 104 -31t86.5 -62.5t67.5 -84.5t46 -98z" />
    <glyph glyph-name="sf260.002" unicode="[" horiz-adv-x="564" 
d="M70 -701h1v2032h433v-131h-254v-1881h253v-131h-433v111z" />
    <glyph glyph-name="sf262.001" horiz-adv-x="796" 
d="M305 113q4 6 14.5 19t22.5 27.5t23 27.5t16 18q6 8 10 8q5 0 10 -5q29 -25 58 -47t49 -42q6 -8 -2 -16q-17 -26 -36 -49t-38 -48q-8 -14 -22 -6q-10 6 -25.5 17.5t-31.5 25t-29.5 27t-19.5 22.5q-5 7 -4.5 10.5t5.5 10.5zM304 597q4 6 14.5 19t22.5 27.5t23 27.5t16 18
q6 8 10 8q5 0 10 -5q29 -25 58 -47t49 -42q6 -8 -2 -16q-17 -26 -36 -49t-38 -48q-8 -14 -22 -6q-10 6 -25.5 17.5t-31.5 25t-29.5 27t-19.5 22.5q-5 7 -4.5 10.5t5.5 10.5zM70 385h656v-78h-656v78z" />
    <glyph glyph-name="sf263.001" unicode="$" horiz-adv-x="890" 
d="M388 1165h126v-107q22 -5 43 -12q57 -20 103.5 -55.5t80.5 -84.5t48 -108q8 -32 9.5 -60t1.5 -56h-161v19q0 41 -15.5 78t-42 65.5t-63.5 44.5l-4 2v-384l28 -14q40 -21 76.5 -45t69 -51.5t56.5 -61t37.5 -74t13.5 -88.5q0 -70 -30 -126.5t-79.5 -96.5t-112.5 -61
q-30 -10 -59 -15v-88h-126v87q-25 4 -50 12q-52 16 -96 46t-78 72.5t-52 93.5q-4 11 -8 22.5t-7 29t-5 42.5t-2 62h158v-17q0 -31 14 -67.5t40 -67t64 -51.5q10 -6 22 -10v362q-46 25 -110 60q-37 19 -71.5 48t-60.5 64t-41 75.5t-15 83.5q0 69 30 129.5t79 105.5t112 71
q38 16 77 22v104zM376 893q-32 -12 -60.5 -33t-46.5 -49.5t-18 -61.5q0 -38 40 -88q32 -39 97 -85v321q-6 -1 -12 -4zM551 53q23 12 40 30.5t26.5 41.5t9.5 52q0 41 -17.5 69t-46.5 56h-1q-5 4 -15 11q-9 6 -33 20v-296q20 6 37 16z" />
    <glyph glyph-name="sf264.001" unicode="=" horiz-adv-x="917" 
d="M837 241v-105h-757v105h757zM837 539v-106h-757v106h757z" />
    <glyph glyph-name="sf268.002" unicode="-" horiz-adv-x="627" 
d="M577 363v-104h-527v104h527z" />
    <glyph glyph-name="sf269.001" horiz-adv-x="725" 
d="M88 20h-6l-61 61l267 264l-268 275l64 64l272 -271l284 278l65 -67l-282 -279l279 -279l-66 -66l-282 279z" />
    <glyph glyph-name="sf270.005" unicode="(" horiz-adv-x="602" 
d="M495 -798q-226 227 -340.5 497t-106.5 595q7 299 114 547.5t333 455.5q17 14 32 15.5t24 -6t10 -22.5t-10 -34q-84 -94 -146 -208.5t-102.5 -241.5t-59.5 -262t-17 -269q2 -133 18.5 -265t53.5 -259.5t97.5 -249t150.5 -233.5q15 -19 15.5 -36.5t-8.5 -28t-24.5 -11
t-33.5 15.5z" />
    <glyph glyph-name="sf271.001" unicode="+" horiz-adv-x="1102" 
d="M501 259h-371v100h371v379h99v-379h372v-100h-372v-361h-99v361z" />
    <glyph glyph-name="sf273.001" unicode="/" horiz-adv-x="862" 
d="M131 -225l-131 -1l733 1373l129 1z" />
    <glyph glyph-name="sf274.001" unicode="&#x640;" horiz-adv-x="578" 
d="M101 200l476 -1l-80 -196q-17 0 -52.5 -0.5t-81 -1t-96.5 -1t-100 -0.5h-92h-72z" />
    <glyph glyph-name="sf274.001" unicode="&#x6d4;" horiz-adv-x="578" 
d="M101 200l476 -1l-80 -196q-17 0 -52.5 -0.5t-81 -1t-96.5 -1t-100 -0.5h-92h-72z" />
    <glyph glyph-name="sf264.002.24428116" unicode="#" horiz-adv-x="1422" 
d="M526 295l5 -5h294l5 5l26 290l-5 5h-296l-5 -5zM369 290l5 5l26 290l-5 5h-325v150h338l5 5l30 330l149 -14l-29 -316l5 -5h296l5 5l31 336l148 -13l-27 -323l5 -5h315v-150h-332l-5 -5l-22 -290l5 -5h354v-148h-368l-5 -5l-31 -343l-151 14l31 329l-5 5h-295l-5 -5
l-32 -352l-149 14l30 338l-6 5h-285v148h299z" />
    <glyph glyph-name="sf270.008" unicode=")" horiz-adv-x="602" 
d="M108 -798q-18 -16 -34 -15.5t-25 11.5t-8 28.5t16 35.5q90 113 150.5 234.5t97.5 249t53.5 259t18.5 264.5q1 136 -18 270.5t-59.5 261t-102 240.5t-145.5 209q-12 19 -11.5 34t9.5 22.5t24.5 6t33.5 -14.5q113 -104 196 -217.5t137.5 -238.5t82.5 -261.5t31 -286.5
q7 -324 -107 -594.5t-340 -497.5z" />
    <glyph glyph-name="sf260.003" unicode="]" horiz-adv-x="564" 
d="M494 1218h-1v-2032h-433v131h254v1881h-253v131h433v-111z" />
    <glyph glyph-name="a" unicode="a" horiz-adv-x="1001" 
d="M728 224q0 27 -1 53t-6 55q-5 38 -26.5 68.5t-52 51.5t-66.5 32t-71 11q-37 0 -70.5 -12.5t-61.5 -33.5t-50 -49.5t-35 -61.5q-9 -22 -12.5 -48t-3.5 -55q0 -34 4 -65t11 -56q10 -35 31.5 -64t50 -50t63 -32.5t70.5 -11.5q39 0 76 11t67.5 33t51.5 54t29 73v11
q1 22 1.5 43t0.5 43zM469 669q52 0 100 -17t86 -52l8 -8v-1q2 -2 2.5 -3t2.5 -3q11 -11 22.5 -22t16.5 -13l5 1l13 9l2 4v105h174v-888h-174v101l-3 5l-18 7l-6 -2q-41 -50 -95 -80.5t-120 -30.5q-68 0 -129.5 24.5t-111.5 66.5t-85.5 98.5t-50.5 120.5v2q-2 6 -3.5 18
t-2.5 35.5t-1.5 62t-0.5 98.5q0 69 32 134t84.5 115.5t118.5 81.5t134 31z" />
    <glyph glyph-name="b" unicode="b" horiz-adv-x="1000" 
d="M273 227q0 -26 1 -53t6 -54q6 -39 27 -69.5t51 -51.5t66 -32t72 -11q37 0 70.5 12t62 33.5t50 50t34.5 61.5q9 21 12.5 48t3.5 56q0 33 -4 64t-11 56q-10 36 -31 65t-49.5 49.5t-62.5 32t-70 11.5q-39 0 -76.5 -11.5t-68.5 -33t-52.5 -53.5t-28.5 -73v-17
q-1 -20 -1.5 -40t-0.5 -40zM532 -219q-105 0 -188 69l-10 11v1l-1 1q-4 4 -8.5 8l-4.5 4q-9 10 -17 18t-15 8l-4 -2l-10 -11l-1 -3v-104h-173v1362h173v-575l3 -5l18 -6l6 2q41 50 95.5 80.5t120.5 30.5q68 0 129.5 -25t111.5 -68t85.5 -100t52.5 -121q1 -5 1.5 -16
t1.5 -34.5t1.5 -62.5t0.5 -100q0 -69 -32 -134t-84 -115.5t-118 -81.5t-134 -31z" />
    <glyph glyph-name="c" unicode="c" horiz-adv-x="950" 
d="M75 228q0 53 7 102.5t27 97.5q23 55 62 100t88 76t106 48t117 17q71 0 138.5 -20.5t122 -59.5t91.5 -94.5t46 -124.5h-186q-26 59 -82.5 93t-123.5 34h-8q-35 -1 -69.5 -12.5t-64 -32t-51 -49.5t-30.5 -65q-6 -25 -10 -54t-4 -61q0 -59 14 -104l5 -4h-3q12 -36 33 -66
t49.5 -51t63.5 -33t74 -12q63 0 116.5 25t76.5 82l185 -1q-11 -59 -41.5 -108t-74.5 -85.5t-99.5 -58.5t-116.5 -26q-37 0 -63 1.5t-43.5 3t-27.5 3.5t-14 3q-50 12 -96 37.5t-84.5 61t-67 79.5t-41.5 94q-12 44 -16.5 83t-4.5 81z" />
    <glyph glyph-name="sf256.002" unicode="d" horiz-adv-x="953" 
d="M484 -44q36 0 72 11t66.5 32t51.5 51t26 69q5 28 6 55t1 53q0 20 -0.5 40t-1.5 40v17q-7 41 -28.5 73t-52.5 53.5t-68 33t-75 11.5q-36 0 -70.5 -11.5t-63 -32.5t-50 -50t-31.5 -64q-7 -25 -11 -56t-4 -64q0 -29 3.5 -56t12.5 -48q13 -33 35 -61.5t50 -50t61.5 -33.5
t70.5 -12zM448 -219q-68 0 -134 31t-118 81.5t-84 115.5t-32 134v100q0 80 28.5 157t79.5 137t121.5 96.5t154.5 36.5q66 0 120 -30t96 -81l6 -2l18 6l3 5v575h173v-1362h-173v104l-1 3l-10 11l-4 2q-26 -26 -53.5 -48t-57.5 -38.5t-63 -25.5t-70 -8z" />
    <glyph glyph-name="e" unicode="e" horiz-adv-x="985" 
d="M481 500q-37 0 -73.5 -12.5t-66 -35t-50 -54t-25.5 -69.5l1 -4l10 -12l4 -2h404l4 2l10 11l1 3q0 43 -19.5 75.5t-50 54.5t-69 32.5t-75.5 10.5h-5zM82 239q0 42 4 81t18 77h-3l5 4q18 60 56 110.5t88.5 86.5t110.5 56t123 20q118 0 214 -55t154 -160q11 -21 22 -50.5
t11 -54.5v-155h-617q0 -47 16.5 -91t46.5 -78t71.5 -54t92.5 -20q68 0 120 16t89 68h168q-13 -63 -49.5 -111.5t-88.5 -81t-115 -49.5t-128 -17q-64 0 -124 19.5t-110 54.5t-88.5 85t-59.5 111v1q-17 45 -22 92t-5 95z" />
    <glyph glyph-name="f" unicode="f" horiz-adv-x="647" 
d="M40 551v124h165l4 2l10 11l1 3v10q0 2 0.5 5t0.5 6q2 54 6.5 106t23.5 105q78 208 301 208h9t19 0.5t22.5 1.5t19.5 2v-176q-12 5 -33 6.5t-45 1.5q-29 0 -55 -15t-45.5 -38t-31 -52t-11.5 -57v-114l1 -3l10 -11l4 -2h206v-124h-221v-770h-176l-1 770h-184z" />
    <glyph glyph-name="g" unicode="g" horiz-adv-x="924" 
d="M661 330q-5 39 -26.5 69.5t-52 51.5t-67 32t-70.5 11q-36 0 -70 -12.5t-62.5 -33.5t-50.5 -49.5t-35 -60.5q-9 -22 -12.5 -48t-3.5 -55q0 -34 4 -65.5t11 -56.5q10 -35 31.5 -64t50 -50t63 -32.5t70.5 -11.5q39 0 76.5 11t67.5 33t51.5 54t29.5 73v11q1 21 1.5 41.5
t0.5 40.5q0 29 -1.5 55t-5.5 56zM408 668q64 3 115.5 -24t94.5 -70q8 -10 17 -17.5t17 -7.5l4 1l10 10l1 4v104h174l3 -1021v-1q0 -68 -37 -129t-94.5 -108t-128 -74.5t-137.5 -27.5q-68 0 -133.5 21.5t-119 60.5t-91 93t-49.5 119h182q10 -32 33 -54.5t52.5 -37t63.5 -21
t67 -6.5h22q36 7 71 23.5t62.5 41.5t44 58t16.5 74l-1 202l-3 5l-18 7l-6 -2q-42 -51 -96 -81t-120 -30q-67 0 -128.5 24.5t-111.5 66.5t-85.5 98.5t-50.5 120.5l-1 3l-1 1q-3 7 -4.5 30t-1.5 82v100q0 69 32 134.5t84 116t118 81t134 30.5z" />
    <glyph glyph-name="h" unicode="h" horiz-adv-x="989" 
d="M280 558l4 -5l19 -5l5 2q32 55 88 84t117 29q64 0 125.5 -21.5t113 -59.5t89 -91t54.5 -116q10 -40 12 -75t2 -76v-442h-179v497q0 43 -19 81t-50.5 66.5t-71 45.5t-79.5 17q-39 0 -79.5 -15.5t-73.5 -42.5t-54 -64.5t-21 -82.5v-503l-179 1l-1 1364h178v-588z" />
    <glyph glyph-name="i" unicode="i" horiz-adv-x="407" 
d="M102 943q0 23 9 43t24 34.5t35.5 22.5t43.5 8t43.5 -8t36 -22.5t24.5 -34t9 -42.5t-9 -43.5t-24 -35.5t-35 -24t-43 -9q-24 0 -44.5 8.5t-36 23.5t-24.5 35.5t-9 43.5zM303 680l1 -899h-174v899h173z" />
    <glyph glyph-name="j" unicode="j" horiz-adv-x="551" 
d="M217 945q1 24 11.5 43.5t27 33.5t37.5 22t44 8q22 0 43 -8.5t36.5 -23.5t25 -35t9.5 -43q0 -24 -9 -43.5t-24.5 -34t-36 -22.5t-43.5 -8t-44.5 7.5t-38.5 21.5t-27.5 33.5t-10.5 43.5v5zM19 -689q-37 0 -71 5t-60 19q17 30 33.5 58t29 49t19.5 33.5l7 12.5q9 0 23 -2
t26 -2q38 0 74.5 12t66.5 34.5t51.5 54.5t30.5 71v3q-1 120 -1.5 246t-0.5 244q0 138 -0.5 268t-1.5 269h183v-988q-3 -80 -36.5 -150t-88.5 -123t-128.5 -83.5t-155.5 -30.5z" />
    <glyph glyph-name="k" unicode="k" horiz-adv-x="939" 
d="M274 1145l3 -775l3 -5l18 -8l6 3l401 469h171l-413 -517l-1 -3v-12l1 -3l407 -513h-183l-384 447l-6 2l-18 -7l-3 -5l-2 -437l-173 1l-1 1364z" />
    <glyph glyph-name="l" unicode="l" horiz-adv-x="375" 
d="M100 1146h175v-1365h-175v1365z" />
    <glyph glyph-name="m" unicode="m" horiz-adv-x="1516" 
d="M100 659h172v-125l3 -5l18 -6l6 2q42 59 93.5 94t126.5 35q42 0 83.5 -14t77.5 -38t65 -57t47 -71l5 -3l18 -1l4 3q21 37 47.5 70.5t59.5 59t72.5 40t85.5 14.5q68 0 126 -29.5t101.5 -77.5t70 -109t32.5 -125q1 -34 1.5 -67.5t0.5 -68.5v-399h-173v507q0 41 -16.5 77.5
t-44.5 64t-65.5 43.5t-78.5 16q-37 0 -72 -15t-62.5 -40.5t-44 -59.5t-16.5 -72v-520l-170 -1v524q0 39 -18.5 72t-47.5 57t-65 37.5t-72 13.5q-34 0 -69 -13t-63.5 -36t-47 -55.5t-18.5 -71.5v-528h-172v878z" />
    <glyph glyph-name="n" unicode="n" horiz-adv-x="999" 
d="M275 669v-104l4 -5l19 -5l5 3q31 54 83.5 82.5t114.5 28.5q78 0 146 -28t120.5 -76.5t86 -115t43.5 -143.5q1 -36 1.5 -74t0.5 -80v-371h-173l-2 523v3q-8 39 -29 73.5t-51.5 60t-68 40t-78.5 14.5q-40 0 -80 -16t-71.5 -43.5t-51 -65.5t-19.5 -82l-1 -507h-174v888h175z
" />
    <glyph glyph-name="o" unicode="o" horiz-adv-x="971" 
d="M704 339q-11 36 -33 65.5t-51 50.5t-64 32.5t-72 11.5q-59 0 -101.5 -23.5t-71 -61.5t-42 -86.5t-13.5 -99.5q0 -36 6 -69q6 -44 24 -81.5t46.5 -64.5t67 -42t85.5 -15q60 0 103.5 23t72.5 61.5t43 88.5t14 103q0 29 -3.5 55t-10.5 52zM80 227q0 48 6.5 95t23.5 92
q22 58 60 106t86.5 82t107 53t121.5 19q76 0 147 -28.5t126.5 -78t91 -117.5t40.5 -146q1 -8 1 -16v-16v-32q0 -44 -4 -87.5t-16 -90.5q-17 -61 -55.5 -112.5t-91.5 -89t-115 -58.5t-125 -21q-64 0 -123 19t-109 54.5t-88 86t-59 112.5q-14 42 -19.5 85t-5.5 89z" />
    <glyph glyph-name="q" unicode="q" horiz-adv-x="970" 
d="M690 330q-5 39 -26.5 69.5t-52 51.5t-67 32t-71.5 11q-36 0 -70 -12.5t-62.5 -33.5t-50 -49.5t-34.5 -60.5q-9 -22 -12.5 -48.5t-3.5 -55.5q0 -33 4 -64.5t11 -55.5q9 -36 30.5 -65.5t50 -50t63.5 -32t71 -11.5q39 0 76 11.5t68 33.5t52 54t29 73v11q1 21 1.5 41.5
t0.5 40.5q0 29 -1.5 54.5t-5.5 55.5zM437 669q52 0 98.5 -18t88.5 -53l11 -11q3 -3 6 -6.5t6 -6.5q8 -10 17 -17.5t17 -7.5l4 1l10 10l1 4v105h173l1 -1362h-174v575l-3 5l-18 7l-6 -2q-41 -50 -95.5 -81t-120.5 -31q-68 0 -129.5 25t-111 67.5t-85 99t-51.5 120.5l-5 4h2
q-1 4 -2 14.5t-1.5 34t-0.5 62.5v99q0 70 32 135t84 115t118 81t134 32z" />
    <glyph glyph-name="p" unicode="p" horiz-adv-x="1001" 
d="M497 495q-35 0 -71.5 -11t-67 -32t-52 -51.5t-26.5 -69.5q-5 -28 -6 -54t-1 -53q0 -22 0.5 -43t1.5 -43v-11q7 -41 28.5 -73t52.5 -54t68.5 -33t76.5 -11q36 0 70.5 11t63 32t49.5 50t31 65q7 25 11 56t4 65q0 29 -3.5 55.5t-12.5 48.5q-13 32 -34.5 60.5t-50 49.5
t-62.5 33.5t-70 12.5zM533 669q68 0 134 -30.5t118 -81t84 -116t32 -134.5q0 -62 -0.5 -100.5t-1.5 -62t-2 -34t-2 -16.5q-17 -64 -52.5 -121t-85 -100t-111 -68t-129.5 -25q-66 0 -120.5 31t-95.5 81l-6 2l-18 -7l-3 -5v-575h-174l1 1362h173v-105l3 -5l17 -7l6 1l14 14
l11 11l11 11q3 3 4.5 5.5t3.5 4.5q42 35 89.5 52.5t99.5 17.5z" />
    <glyph glyph-name="r" unicode="r" horiz-adv-x="767" 
d="M661 472q-74 -6 -143 -28t-122 -62.5t-85 -102t-32 -146.5v-352h-178l-1 896h180l-1 -243l4 -5l19 -5l5 2q33 55 77.5 98t96 73.5t109 49.5t117.5 27z" />
    <glyph glyph-name="s" unicode="s" horiz-adv-x="848" 
d="M61 71q19 0 45 0.5t53 1t51 0.5h40q9 -39 36.5 -67t64.5 -43.5t79 -18t79 9t65.5 37.5t38.5 67q0 20 -11.5 35t-28.5 27q-53 23 -109.5 34.5t-113 22t-111.5 25.5t-106 45q-31 21 -47.5 54t-20.5 70t5.5 74.5t31.5 66.5q25 40 59.5 70.5t75 51t86 31t92.5 10.5
q51 0 100.5 -12t93.5 -35.5t80.5 -58t62.5 -78.5q13 -24 24.5 -49.5t13.5 -54.5q-14 0 -38.5 -0.5t-52.5 -0.5h-53h-44q-9 40 -37 67.5t-65.5 43t-79.5 17t-79.5 -11t-66 -39.5t-37.5 -70q0 -22 15 -36.5t35 -22.5q53 -17 111 -28t115 -25.5t110 -38t95 -65.5
q22 -24 37 -52.5t23 -63.5q4 -63 -27.5 -115.5t-81.5 -89t-112 -56t-119 -17.5q-56 0 -109.5 14t-100 41.5t-83.5 67.5t-60 91l-15 35t-9 39z" />
    <glyph glyph-name="t" unicode="t" horiz-adv-x="749" 
d="M556 -219q-69 0 -119 26t-84 70t-52.5 101.5t-24.5 120.5q-1 63 -1.5 124.5t-0.5 124.5t-0.5 122t-2.5 125h-211v125h198l4 1l10 10l1 4v225l179 1v-224l1 -4l10 -10l4 -1h216v-127h-230l-1 -450q0 -46 10 -83t31.5 -63.5t56 -41t82.5 -14.5q21 0 33 2t23 4l1 -139
q-33 -11 -66 -20t-67 -9v0z" />
    <glyph glyph-name="u" unicode="u" horiz-adv-x="998" 
d="M723 -219l1 103l-3 5l-19 6l-6 -2q-31 -52 -83 -82t-112 -30h-4q-78 0 -146 28t-120 77t-85.5 115t-43.5 143q0 15 -0.5 31t-1 35t-0.5 42v52v365l173 -1l1 -522v-3q8 -39 29 -73t52 -59.5t68.5 -40t78.5 -14.5t80.5 16t71 43.5t50.5 65t19 81.5l1 506h174v-887h-175z
" />
    <glyph glyph-name="v" unicode="v" horiz-adv-x="1007" 
d="M302 -58q-31 25 -65.5 55t-63.5 60.5t-49 59.5t-21 52q-2 83 -2.5 129t-0.5 75v96q0 8 0.5 16t0.5 18v104q0 14 0.5 28t0.5 35h177l2 -406v-1q0 -23 13 -45.5t34 -44.5t47 -43.5t52 -42.5q5 -5 11 -9t11 -9q11 -9 22 -17.5t22 -19.5l4 -1h15l3 1q11 10 25 21l28 22
q5 4 9.5 7t9.5 7q27 21 53 41.5t46.5 42t33 43.5t12.5 46v164q0 8 -0.5 14.5t-0.5 13.5v216h176v-482q0 -19 -10 -42t-32.5 -51.5t-59 -65t-88.5 -82.5q-30 -24 -55 -43.5t-45 -35.5q-6 -5 -12 -9.5t-11 -8.5q-44 -33 -62.5 -47t-24.5 -19q-6 4 -19 14t-37 28.5t-60.5 46.5
t-88.5 69v0z" />
    <glyph glyph-name="w" unicode="w" horiz-adv-x="1532" 
d="M853 667q1 -14 1 -25v-33v-150q0 -15 0.5 -31t0.5 -32q0 -17 -0.5 -33t-0.5 -32v-207q13 -80 65.5 -123.5t128.5 -45.5h4q37 0 70.5 13t60 36.5t44 55t22.5 68.5v2l1 537h181q1 -63 1 -120v-122q0 -130 -3 -257q-1 -40 -8.5 -79.5t-23.5 -79.5q-20 -47 -53 -88.5
t-75 -72.5t-90.5 -48.5t-99.5 -17.5h-9q-53 1 -93.5 16t-74 39.5t-62.5 58.5t-58 75l-10 5h-14l-4 -1l-3 -3v-1q-29 -41 -58 -75.5t-62.5 -59.5t-74.5 -39.5t-95 -15.5h-6q-51 0 -100 18t-91.5 49t-75.5 72.5t-52 88.5q-32 79 -33 159q-3 129 -3 257v121q0 57 1 121h182
v-539q5 -37 22.5 -68.5t44 -55t60 -36.5t70.5 -13h4q77 2 129 45.5t65 122.5v424v51t0.5 33t1 21t0.5 15h173z" />
    <glyph glyph-name="x" unicode="x" horiz-adv-x="978" 
d="M278 206v16l-212 134v306h182v-212l6 -9l211 -129l12 1l192 129l4 8v212h186v-305l-224 -134v-17l225 -140v-284l-187 -1v196l-4 8l-201 149h-13l-202 -149l-5 -8v-196h-182v291z" />
    <glyph glyph-name="y" unicode="y" horiz-adv-x="969" 
d="M41 -473q34 -4 66 8.5t66.5 49t72.5 101t83 165.5l-284 810h188l206 -626l280 626h183q-92 -198 -163 -350t-125 -266.5t-92 -195.5t-64.5 -136t-43 -88.5t-26.5 -53.5t-15 -29.5t-9 -17.5q-22 -42 -59.5 -76t-82.5 -56t-92.5 -30.5t-88.5 0.5v165z" />
    <glyph glyph-name="z" unicode="z" horiz-adv-x="1028" 
d="M107 493l1 178h630q55 0 91.5 -11.5t58.5 -30t31 -41t9 -44.5q0 -26 -7 -47t-17 -32l-591 -479l-2 -6l6 -18l5 -3l599 2l-1 -183l-654 3q-46 1 -77.5 10t-51 24.5t-28.5 35.5t-9 43q0 26 9 54t24 55t35.5 51t43.5 42l471 371l2 6l-6 18l-5 3z" />
    <glyph glyph-name="A" unicode="A" horiz-adv-x="1016" 
d="M504 983q-48 0 -88 -21t-69 -50t-45 -59t-16 -47v-290l10 -10h423l10 10v291q0 23 -18 53.5t-48.5 57.5t-71.5 46t-87 19zM100 798q7 77 43.5 144.5t93 117.5t127.5 79t147 29q77 0 146.5 -27t124 -75.5t89.5 -115t43 -144.5q0 -91 0.5 -176.5t0.5 -171.5q0 -69 0.5 -137
t0.5 -137q0 -97 -0.5 -199t-1.5 -203l-185 -1v534l-10 10h-423l-10 -10v-531l-186 -1v1015z" />
    <glyph glyph-name="B" unicode="B" horiz-adv-x="1059" 
d="M286 540l9 -11q7 -1 19.5 -1.5t29.5 -0.5h72q39 0 73.5 1t51.5 2h1q40 3 75 22t60.5 48.5t40 66.5t14.5 78q-2 75 -31.5 118t-77 64.5t-107 27.5t-121.5 6h-101l-10 -10zM288 -20l9 -10q26 -4 55.5 -6.5t62.5 -2.5q60 0 123 10t115 35.5t85 69.5t35 112v6q0 70 -27 113.5
t-71.5 66.5t-102 31t-119.5 8q-29 0 -59.5 -1t-59.5 -3q-10 -1 -19 -1.5t-18 -0.5l-10 -10zM781 487q83 -53 130.5 -128t47.5 -175v-3q-1 -79 -32.5 -149t-84 -123.5t-122.5 -86t-148 -36.5l-472 -1l3 1364q108 0 187.5 -0.5t136.5 -2t95.5 -4t65 -5.5t44 -7.5t33.5 -10.5h1
q56 -21 102.5 -59t79.5 -87t51.5 -105.5t18.5 -113.5q0 -73 -32.5 -138.5t-104.5 -112.5v-16z" />
    <glyph glyph-name="C" unicode="C" horiz-adv-x="1015" 
d="M501 982q-43 0 -81 -16.5t-67 -44.5t-47.5 -65t-22.5 -78v-616q0 -18 15 -51t43.5 -65.5t69.5 -56t94 -23.5h7q37 0 73 13t65.5 35.5t50 54t28.5 69.5v1q3 22 5 50.5t2 54.5v5h179v-106q0 -22 -4 -46t-10 -43q-21 -62 -60.5 -112t-91.5 -85t-113.5 -54.5t-125.5 -19.5
q-83 0 -155.5 29.5t-127.5 81.5t-88.5 122.5t-38.5 151.5v592q0 23 1 45.5t7 45.5q16 69 53 127t89.5 100.5t117 66t136.5 23.5q69 0 130 -21t111.5 -58.5t88.5 -90.5t62 -116q11 -32 13.5 -66t2.5 -68v-24h-186q-1 2 -1 14q0 22 -1.5 38t-4.5 42v1q-9 37 -30 67t-50.5 51.5
t-65 33t-72.5 11.5z" />
    <glyph glyph-name="D" unicode="D" horiz-adv-x="1038" 
d="M907 515v-180q0 -88 -1 -178q-4 -69 -33 -128.5t-75.5 -106t-107 -78t-126.5 -42.5q-44 -8 -101 -10.5t-120 -2.5q-38 0 -75 0.5t-72 1.5q-29 1 -50 1.5t-46 0.5l1 1351q22 1 38 1h39q48 0 96.5 -0.5t96.5 -1.5q46 -1 90 -1.5t87 -0.5q70 -10 132 -42t110 -80.5
t78 -110.5t38 -132q1 -66 1 -131v-130zM719 778q-6 32 -23 64t-42.5 58t-58 42t-68.5 17h-232l-10 -10l1 -963l10 -11h39t58 1q29 0 55.5 0.5t37.5 0.5h2q48 0 89 13.5t71.5 40t49.5 64.5t23 88v163q0 108 -0.5 213t-1.5 217v2z" />
    <glyph glyph-name="E" unicode="E" horiz-adv-x="1003" 
d="M287 544l10 -11h536v-180h-536l-10 -10v-368l10 -10h606v-182h-803v1365h803v-180l-606 1l-10 -11v-414z" />
    <glyph glyph-name="F" unicode="F" horiz-adv-x="1005" 
d="M905 961h-610l-10 -10l1 -406l10 -11h539v-181h-540l-10 -10v-560h-185v1365h805v-187z" />
    <glyph glyph-name="G" unicode="G" horiz-adv-x="1013" 
d="M715 -105q-20 -22 -44 -42.5t-50 -36t-54 -24.5t-56 -9q-83 0 -155 29.5t-127 81.5t-89 122.5t-40 151.5v582q0 26 1 50.5t7 50.5q16 69 53.5 127.5t90 100.5t117 65.5t135.5 23.5q70 0 131 -21t111 -58.5t88.5 -90.5t62.5 -116q11 -34 13.5 -70t2.5 -72v-16h-185l-8 94
v1q-9 37 -30 67t-51 51.5t-65.5 33t-72.5 11.5q-44 0 -81.5 -16.5t-66 -44.5t-46.5 -65t-23 -78v-616q0 -19 14.5 -51t42 -63.5t67 -55.5t89.5 -26h1q46 3 84 23t65.5 52.5t42.5 73.5t15 86q0 11 -1 22.5t-3 22.5l-10 9h-102q-1 11 -1.5 26t-0.5 35v65h326v-598h-129
l-10 166l-3 6l-1 1l-7 3l-11 -13t-21 -27h-1q-5 -9 -9.5 -16t-6.5 -9z" />
    <glyph glyph-name="H" unicode="H" horiz-adv-x="1016" 
d="M298 366l-10 -10v-573h-187l-1 1366h188v-588l10 -10h419l10 10v588h189v-1367l-189 1v573l-10 10h-419z" />
    <glyph glyph-name="I" unicode="I" horiz-adv-x="428" 
d="M125 1148h183v-1365h-183v1365z" />
    <glyph glyph-name="J" unicode="J" horiz-adv-x="853" 
d="M289 167v-81q1 -30 13 -53.5t30.5 -39t42 -23.5t47.5 -8q26 0 51.5 9t45.5 27t32.5 44t12.5 61v1045h189v-1074q-2 -63 -30 -116.5t-73 -92.5t-103 -60.5t-118 -21.5h-7q-58 0 -114 17.5t-101 52t-74 86.5t-32 121v107h188z" />
    <glyph glyph-name="K" unicode="K" horiz-adv-x="1018" 
d="M697 1148h220l-401 -681v-11l402 -673h-226l-385 614l-18 -6v-608h-189v1365h188v-625l19 -5z" />
    <glyph glyph-name="L" unicode="L" horiz-adv-x="930" 
d="M287 1148v-1169l10 -10h561l2 -186h-760v1365h187z" />
    <glyph glyph-name="M" unicode="M" horiz-adv-x="1200" 
d="M911 1148h188l1 -1365h-185v746l-19 3l-276 -750l-53 -1l-263 751l-19 -3l1 -746h-186l1 1365h188l293 -855h18z" />
    <glyph glyph-name="N" unicode="N" horiz-adv-x="1038" 
d="M752 1149h186l-2 -1366h-188l-445 904l-19 -4l2 -901l-186 1v1366h190l442 -903l20 4v899z" />
    <glyph glyph-name="O" unicode="O" horiz-adv-x="1006" 
d="M285 184q3 -46 19 -85.5t43.5 -69t66 -46.5t86.5 -17q40 0 77.5 14t68 39.5t51 60.5t25.5 76v139q0 42 0.5 84.5t0.5 84.5v47q0 26 -0.5 51.5t-0.5 49.5v44v124q-2 38 -17.5 71.5t-41 60t-59 44t-70.5 23.5q-8 1 -15 1.5t-15 0.5q-45 0 -84 -16t-68 -43.5t-46 -65.5
t-19 -82q-2 -42 -3 -92.5t-1 -106.5v-52q0 -27 0.5 -55.5t0.5 -57.5v-53q1 -45 1 -89v-83v-1zM100 353q0 109 0.5 220.5t2.5 221.5q7 76 41.5 144t88.5 119t123.5 80.5t145.5 29.5q86 0 160 -33t128 -89.5t85 -132t31 -159.5v-309q0 -30 -0.5 -60.5t-0.5 -59.5v-172
q-5 -80 -40.5 -147.5t-91.5 -117t-127.5 -77.5t-148.5 -28q-82 0 -154 31.5t-126 85.5t-85.5 127t-31.5 156v170z" />
    <glyph glyph-name="P" unicode="P" horiz-adv-x="1000" 
d="M291 549l8 -10q14 -3 49 -3.5t73 -0.5q39 0 73 1.5t50 2.5h1q40 3 75 22t60.5 48t40 66t14.5 78q0 75 -29 118.5t-76.5 65.5t-107.5 28t-123 6h-98l-10 -11v-411zM323 1149q61 0 121 -0.5t123 -2.5q76 -11 140.5 -45t112 -86.5t74 -120.5t26.5 -146q0 -69 -23.5 -131
t-65 -112.5t-98 -87t-121.5 -55.5q-23 -7 -58.5 -9t-73.5 -2q-16 0 -31.5 0.5t-30.5 0.5q-16 0 -31 0.5t-29 0.5q-21 0 -37 -1t-24 -3l-7 -10q0 -23 0.5 -45.5t0.5 -45.5q0 -60 0.5 -119t0.5 -119t-0.5 -114t-1.5 -113h-190v670q0 54 0.5 107.5t0.5 106.5v482h222z" />
    <glyph glyph-name="Q" unicode="Q" horiz-adv-x="1031" 
d="M287 176q6 -42 24 -79.5t46 -65t65 -44t82 -16.5h19q9 0 19.5 1t20 3.5t15.5 6.5t6 11l-1 5q-15 30 -36 46.5t-44.5 25.5t-49.5 11.5t-51 3.5q0 2 -0.5 -2t-0.5 -2q0 13 16 21.5t37 13.5t41.5 7t30.5 2h4q43 0 75 -16.5t62 -46.5l1 -1l7 -3q8 0 17 14.5t16.5 33.5t12 37
t4.5 25q3 76 4 150t1 149q0 45 -0.5 100t-0.5 101q0 24 -0.5 48.5t-0.5 48.5q0 46 -17.5 86.5t-47.5 71t-70.5 48t-86.5 17.5h-5q-52 -2 -92.5 -22.5t-68 -54.5t-41.5 -78.5t-14 -93.5v-53q0 -24 0.5 -53t0.5 -61v-335v-35t1 -26zM684 -175q-5 -2 -8.5 -3t-7.5 -3
q-38 -14 -74.5 -24t-80.5 -11h-9q-84 0 -156 32t-126 87.5t-86 129t-34 156.5v1q-1 11 -1 28v40v220v36q0 20 -0.5 40t-0.5 38v34v167q4 78 38 145.5t87.5 118t122.5 80.5t145 32h10q77 0 146 -26t123 -72.5t90 -111t48 -141.5q1 -29 2 -78.5t1.5 -108t1 -121.5t0.5 -120
t-0.5 -106t-1.5 -81q-2 -48 -11.5 -94t-26 -87t-38.5 -74.5t-49 -55.5l-4 -8v-2l3 -7q14 -12 32 -17.5t36 -5.5h5q19 0 34.5 9t27 23t20 29.5t15.5 29.5l13 26q3 0 5.5 -9t3.5 -21t1.5 -23t0.5 -15v-9q0 -32 -9 -62t-26.5 -53t-43 -37.5t-59.5 -15.5q-24 0 -44.5 8t-37.5 21
t-32 30.5t-28 35.5l-1 1q1 -2 1 -6l-11 12h-2z" />
    <glyph glyph-name="R" unicode="R" horiz-adv-x="1032" 
d="M286 545l8 -11q13 -2 48 -2.5t75 -0.5q39 0 74 1t51 2h1q39 4 72.5 22.5t57.5 46.5t38 64t14 75v6q0 75 -28.5 118.5t-74.5 65t-105.5 27.5t-120.5 6h-100l-10 -10v-410zM847 -219q-15 0 -30 0.5t-29 1.5q-28 23 -43.5 53.5t-23 65.5t-9.5 72.5t-3 74.5q0 8 -0.5 15
t-0.5 14q-2 63 -7 110.5t-24.5 80.5t-59.5 52.5t-112 25.5h-117h-46q-11 0 -22.5 -0.5t-23.5 -1.5l-9 -10v-550h-187v1363q105 0 181 -0.5t129 -1.5t86.5 -2t54.5 -2.5t33.5 -3.5t22.5 -4q69 -17 128 -49.5t102.5 -79.5t68 -108t24.5 -134q0 -105 -55 -187
q-53 -83 -149 -126l-1 -18q63 -38 105 -92.5t46 -127.5v-1q2 -37 3 -72t3 -72l3 -66v-1q9 -63 20.5 -116t26.5 -101q-13 0 -19.5 -0.5t-20.5 -0.5q-11 0 -22.5 -0.5t-22.5 -0.5z" />
    <glyph glyph-name="S" unicode="S" horiz-adv-x="1020" 
d="M283 229v-20q0 -36 16 -78t46 -77.5t74 -59.5t100 -24q27 0 57 6q31 7 57 21.5t45.5 35.5t30.5 48t11 60q0 47 -20 79.5t-54 64.5l-1 1q-5 4 -17 12t-45.5 27t-96.5 53.5t-169 91.5q-43 22 -82.5 55.5t-69.5 74t-47.5 87.5t-17.5 97q0 79 34.5 149t91 122t129.5 82.5
t150 30.5q69 0 134.5 -23t119.5 -64t93 -97.5t56 -124.5q9 -37 10.5 -69.5t1.5 -64.5h-186v22q0 47 -17.5 90t-48.5 75.5t-73 51.5t-91 19q-35 0 -73 -14t-70.5 -38.5t-53.5 -57.5t-21 -71q0 -44 46 -101t154 -125l1 -1q11 -5 22 -11t22 -11q45 -23 91 -47t88.5 -51.5
t80 -59.5t65 -71t43.5 -85.5t16 -102.5q0 -81 -35 -146t-92 -111t-130 -70.5t-148 -24.5q-63 0 -123 19t-111 54t-90.5 84t-60.5 108l-8.5 25.5t-8 33.5t-6 49t-2.5 72h183z" />
    <glyph glyph-name="T" unicode="T" horiz-adv-x="996" 
d="M100 969v179h796v-178h-296l-10 -11v-1176h-185v1175l-10 11h-295z" />
    <glyph glyph-name="U" unicode="U" horiz-adv-x="1009" 
d="M100 1148h187q0 -85 -0.5 -162t-0.5 -160q0 -69 -0.5 -136.5t-0.5 -135.5q0 -97 0.5 -192.5t1.5 -193.5v-1q6 -42 24.5 -78t46.5 -63t64.5 -42t78.5 -15q43 0 83 15.5t71 43t50.5 65t20.5 82.5q1 94 1.5 193.5t0.5 202.5q0 72 -0.5 144t-0.5 142q0 80 -0.5 150.5
t-0.5 140.5h183v-675v-118q0 -57 -1 -113v-18q-1 -37 -3 -72t-13 -73q-18 -65 -55.5 -119.5t-89 -93.5t-114.5 -61t-130 -22q-78 0 -147.5 28t-123 77t-88.5 115.5t-44 142.5v1002z" />
    <glyph glyph-name="V" unicode="V" horiz-adv-x="1019" 
d="M304 -58q-32 26 -67 56.5t-64 61.5t-49 60.5t-22 53.5q-1 94 -1.5 186t-0.5 189q0 67 0.5 134.5t0.5 136.5q0 85 0.5 163t0.5 165h189v-879q0 -22 13.5 -45t35.5 -46t49 -45.5t54 -44.5q16 -13 30.5 -24.5t27.5 -22.5h14q14 14 32.5 28t38.5 28q27 20 53 40.5t46.5 42
t33 43t12.5 43.5v663q0 57 0.5 108t0.5 111h186l1 -955q0 -19 -11 -42.5t-34.5 -53t-60.5 -66.5t-90 -83q-80 -62 -124 -95.5t-66 -49.5q-5 -3 -8 -6t-6 -5q-6 -5 -9 -6q-5 4 -17.5 13t-36 27t-60.5 46t-92 70z" />
    <glyph glyph-name="W" unicode="W" horiz-adv-x="1359" 
d="M71 1146h177l169 -954l5 -4h21l5 4l230 954h34l237 -945l5 -4l20 1l5 4l122 944h177l-194 -1365h-175l-202 612l-5 3h-19l-5 -3l-198 -612h-173z" />
    <glyph glyph-name="X" unicode="X" horiz-adv-x="1012" 
d="M912 740q-11 -25 -27 -46.5t-36 -41t-42 -37t-44 -35.5q-30 -23 -58 -46.5t-51 -49.5v-12q24 -28 51.5 -51t56.5 -46q45 -35 86 -72.5t64 -88.5v-432h-188v349q-8 25 -22 46t-31.5 39t-37.5 34l-40 32q-21 17 -41.5 33t-37.5 35h-14q-17 -19 -37.5 -35t-41.5 -33
q-42 -32 -78.5 -67t-53.5 -86v-218q0 -35 0.5 -64.5t0.5 -64.5h-189l-1 431q22 51 64.5 89t89.5 73q29 23 57.5 46t51.5 50v13q-22 25 -51.5 49t-59.5 48l-46 36t-43 37.5t-36.5 41t-26.5 46.5l1 407h187l1 -318v-3q8 -26 22 -48t32 -40.5t38.5 -35.5t41.5 -33
q20 -16 40.5 -31.5t36.5 -34.5h15q18 20 37.5 36t39.5 31q42 32 79 67t53 87v248q0 20 -0.5 36.5t-0.5 38.5h189v-409z" />
    <glyph glyph-name="Y" unicode="Y" horiz-adv-x="1044" 
d="M617 -217l-189 1v655l-1 4l-347 705h35q20 0 43.5 0.5t45.5 0.5q32 0 56.5 -0.5t34.5 -0.5l223 -483h18l212 483h216l-348 -704l-1 -4z" />
    <glyph glyph-name="Z" unicode="Z" horiz-adv-x="894" 
d="M624 -199h-234q-115 0 -217 2q-53 7 -85.5 36t-32.5 84q0 43 14.5 85t36.5 79l558 886h-614v182h650q26 0 51.5 -9t46 -24.5t33.5 -37.5t13 -49q0 -26 -11 -50t-28 -46l-1 -1l-2 -3l-591 -951h620v-184h-149q-14 0 -28.5 0.5t-29.5 0.5zM176 -214v11h-4l-1 -11h5z
M802 934l6 -1l-6 2v-1z" />
    <glyph glyph-name="sf256.001" unicode="." horiz-adv-x="316" 
d="M32 -63q5 7 18 23.5t28 35t29 34.5t20 22q8 10 14 9.5t12 -5.5q36 -31 72.5 -59t60.5 -53q5 -5 4 -9.5t-6 -10.5q-22 -32 -46 -61t-47 -60q-10 -18 -27 -7q-13 7 -32.5 22t-39 32t-36.5 33.5t-25 27.5q-6 8 -5 13t6 13z" />
    <glyph glyph-name="sf308.001" unicode="?" horiz-adv-x="705" 
d="M267 846q-1 -14 -1.5 -29t-0.5 -30q0 -30 -3 -58q-24 1 -50 0.5t-51.5 -1.5t-49 -1.5t-41.5 0.5q1 1 1 13v14v28q0 42 3 84.5t21 78.5q21 51 59.5 86t86.5 54.5t101 22.5t103 -10q58 -15 99.5 -46.5t66.5 -73t34.5 -91.5t5 -101.5t-22.5 -103t-48 -96.5
q-32 -55 -68.5 -107t-68.5 -105.5t-56.5 -111t-32.5 -123.5q-1 1 -11 1h-12h-25h-50q-25 0 -48.5 1.5t-43.5 6.5q0 60 18 118.5t51 109.5q40 53 85 109t79.5 116.5t52.5 126.5t4 139q-12 32 -40.5 45t-59 9t-56 -23t-31.5 -52zM148 -90q-6 7 -4.5 12.5t6.5 14.5
q6 7 19.5 23.5t28.5 35t29 35t20 22.5q8 11 14 10.5t12 -5.5q37 -33 74.5 -61t61.5 -53q5 -6 4 -10.5t-5 -10.5q-23 -33 -47.5 -62.5t-48.5 -60.5q-10 -19 -27 -7q-14 7 -34 22t-40 32t-37 34t-26 29z" />
    <glyph glyph-name="sf333.001" unicode=";" horiz-adv-x="433" 
d="M338 397q-5 -7 -19 -24.5t-29.5 -36.5t-29.5 -35.5t-20 -22.5q-9 -11 -15 -10.5t-12 6.5q-38 32 -76 61t-63 55q-9 9 3 21q22 33 47 63t49 63q11 18 28 7q13 -7 33.5 -22.5t41 -33.5t38 -35.5t25.5 -28.5q6 -8 5.5 -13t-6.5 -14zM349 54q19 -53 11 -113t-33.5 -119.5
t-62.5 -115.5t-76 -102q-13 -12 -25.5 -19.5t-19.5 -7.5t-6.5 9.5t16.5 33.5q20 31 40 61.5t37 62t28 65t13 71.5q0 14 -3 32.5t-10 34.5t-19 26t-30 7q-9 -8 -18 -26.5t-18 -38t-19 -35t-21 -17.5q-10 0 -20.5 12t-19.5 28.5t-14.5 33.5t-5.5 26q0 24 15 53.5t33 64.5
q25 34 58.5 47.5t66.5 9t61 -26t42 -57.5z" />
    <glyph glyph-name="sf273.002" unicode="&#x60c;" horiz-adv-x="402" 
d="M82 -24q-12 37 -12 72q0 46 14.5 94t38 95t53.5 91t62 82q12 11 23.5 18t19.5 7q7 0 6 -9.5t-16 -32.5q-16 -24 -35.5 -55t-36 -65.5t-28.5 -70.5t-12.5 -68.5t13 -60.5t46.5 -47q9 7 17 25t16.5 37t17.5 34t21 17q15 -13 26 -34t14 -46.5t-3 -53.5t-25 -55
q-24 -33 -56 -46t-63.5 -8.5t-58.5 25t-42 55.5z" />
    <glyph glyph-name="zero" unicode="0" horiz-adv-x="1019" 
d="M100 236v104t0.5 112t1 108.5t0.5 93.5v69v34q2 84 34.5 157t88 127t129 84.5t157.5 30.5q79 0 151 -31t126.5 -84t87.5 -124t35 -152q0 -73 0.5 -129t1 -102t1 -86.5t1 -82t1 -89t0.5 -107.5q-1 -83 -35 -153.5t-90 -122t-129.5 -81t-152.5 -29.5q-84 0 -158.5 31
t-130 86t-88 129t-32.5 161v46zM417 -15q39 -19 91 -19q35 0 67.5 11t60.5 31t48.5 48t31.5 62q3 12 5.5 53t4.5 98.5t3 125.5t1 135q0 50 -0.5 96.5t-2 84t-3 63.5t-3.5 35l-1 3l-357 -794q24 -20 54 -33zM285 198q0 -30 6 -55l353 782q-29 21 -61 33q-33 13 -69 13
q-42 0 -83 -15.5t-73.5 -43t-53.5 -64.5t-24 -80v-1q0 -12 0.5 -46.5t1 -83t1 -107t1 -118t1 -115.5t0.5 -99z" />
    <glyph glyph-name="one" unicode="1" horiz-adv-x="682" 
d="M180 856q0 92 1 93l9 6l-1 -1q0 -1 3 1t5 4q9 5 17.5 11.5t11.5 9.5q42 40 68.5 80t35.5 92h182l-2 -1369h-182v1063l-10 10h-138z" />
    <glyph glyph-name="two" unicode="2" horiz-adv-x="1020" 
d="M859 542q-2 -4 -8.5 -12t-23.5 -28.5t-49 -57.5t-85.5 -97.5t-132.5 -149t-190 -212.5l7 -17l542 -6v-179l-819 2v191l582 642h1q23 26 36 60t13 69q0 46 -18.5 86t-50 70t-72 47.5t-84.5 17.5q-27 0 -49.5 -5t-42 -14.5t-37.5 -24.5t-37 -34q-17 -19 -28 -40.5t-17 -44
t-8 -45.5t-2 -45l-181 -2q0 7 -0.5 8.5t-0.5 8.5q0 88 29.5 165t82.5 133.5t126.5 89.5t161.5 35q112 0 206.5 -53t151.5 -148h1q29 -45 43 -98.5t14 -108.5q0 -56 -14.5 -108t-46.5 -95z" />
    <glyph glyph-name="three" unicode="3" horiz-adv-x="1009" 
d="M100 196v10q0 8 1 11l181 -1q0 -4 -0.5 -3t-0.5 -3q0 -47 16.5 -91t46 -77.5t70.5 -53.5t91 -20q38 0 73.5 16.5t64.5 43.5t49 61t28 69q7 29 7 62q0 45 -16.5 79t-45 58.5t-68.5 39t-86 20.5h-3q-7 1 -13 1.5t-12 0.5h-11v89q43 9 88.5 29.5t83 52t61.5 73t24 92.5
q0 37 -12 73t-34 64.5t-54.5 46t-72.5 17.5q-66 0 -113 -38t-67 -98q-9 -27 -12 -52.5t-4 -48.5h-175v62q0 17 2 34t6 36q14 66 49 120t85 91.5t111.5 58t128.5 20.5q73 0 134.5 -24.5t106.5 -69t70.5 -106t25.5 -135.5q0 -96 -39 -167t-111 -134l-3 -8v-1q38 -26 67.5 -53
t49.5 -59.5t30.5 -71t10.5 -86.5q0 -84 -31.5 -163.5t-87 -142t-130 -100t-160.5 -37.5q-77 0 -148 29.5t-126 80.5t-89 119.5t-37 146.5v37z" />
    <glyph glyph-name="four" unicode="4" horiz-adv-x="1004" 
d="M540 280l10 10l-2 642l-20 3l-229 -642l9 -13h232zM914 279v-154h-164l-11 -10v-332h-188l-1 333l-10 10h-440v167l346 858h293v-862l11 -10h164z" />
    <glyph glyph-name="five" unicode="5" horiz-adv-x="1014" 
d="M290 129q25 -72 80 -116.5t135 -44.5q42 0 81.5 16.5t69.5 45.5t48.5 68t18.5 83q0 59 -1.5 94.5t-3.5 56t-4.5 30t-4.5 17.5h-1q-11 31 -32 56.5t-48.5 43.5t-59.5 27.5t-63 9.5q-70 0 -130 -31t-98 -87h-173l1 745h732v-182l-540 1l-10 -10v-296l14 -9q51 23 99.5 39
t103.5 16q64 0 125 -20t112 -56t89.5 -86.5t58.5 -111.5q14 -42 19.5 -81t5.5 -80q0 -27 -2 -54t-4 -58q-5 -79 -40 -147t-90 -118t-126 -78.5t-147 -28.5q-63 0 -123 17t-111 49.5t-90.5 80t-61.5 107.5q-8 23 -13.5 46.5t-5.5 45.5h190z" />
    <glyph glyph-name="six" unicode="6" horiz-adv-x="1024" 
d="M292 189q0 -47 17 -87.5t46.5 -70.5t69.5 -47.5t87 -17.5q46 0 86.5 17t70.5 47t47.5 70t17.5 86t-17.5 86t-47.5 69.5t-71 46t-87 16.5q-44 0 -83.5 -14t-69.5 -40.5t-48 -65.5t-18 -89v-6zM105 171v34q0 23 -0.5 51.5t-1 61.5t-0.5 68t-0.5 68.5t-1 63t-1 52t-0.5 34.5
q0 62 3 119t15 117q15 69 52.5 126.5t90.5 99t118.5 64.5t134.5 23q90 0 165.5 -32.5t130 -89t84.5 -132.5t30 -164q0 -7 -0.5 -8t-0.5 -8l-185 1q-1 23 -2.5 44t-6.5 41v1q-10 36 -31 66.5t-49.5 52.5t-63.5 34t-73 12q-41 0 -80.5 -17.5t-70.5 -47t-49.5 -67.5t-18.5 -80
q0 -32 -0.5 -63t-0.5 -61v-123l17 -7q45 47 101 65.5t119 18.5q85 0 156.5 -31.5t123.5 -86t81 -128t29 -156.5q0 -85 -31 -159.5t-86 -129.5t-129 -86.5t-160 -31.5q-62 0 -122.5 18.5t-111.5 52.5t-90 82.5t-59 109.5h-1q-11 31 -16.5 62t-7.5 66z" />
    <glyph glyph-name="seven" unicode="7" horiz-adv-x="949" 
d="M883 1138l-64 -198l-491 -1140h-210l520 1138l-9 14h-325l-9 -7l-19 -70h-176l1 263h782z" />
    <glyph glyph-name="eight" unicode="8" horiz-adv-x="1021" 
d="M500 389q-42 0 -80.5 -13t-67.5 -38t-46 -60t-17 -78v-13q2 -48 19 -88t46 -69t69 -45.5t87 -16.5q49 0 90 18.5t70 50.5t45 74t16 89q0 48 -17.5 84t-47.5 59t-70 34.5t-85 11.5h-11zM290 766q0 -36 21.5 -81t54.5 -85.5t73 -68t77 -27.5h1q20 0 43 13t46.5 33.5t45 47
t38 53.5t26.5 52t10 43v1q0 44 -16.5 84.5t-45.5 71.5t-68.5 49.5t-85.5 18.5q-41 0 -80.5 -15.5t-70.5 -43.5t-50 -65.5t-19 -80.5zM100 192q0 39 6.5 76.5t24.5 71.5t49.5 64t81.5 55l1 18q-89 62 -126 130t-37 148q0 82 32.5 154.5t88 127t129 86t155.5 31.5
q81 0 155 -31t130.5 -84t90 -125.5t33.5 -154.5q0 -88 -44.5 -161.5t-116.5 -122.5l2 -18q77 -37 121.5 -99t44.5 -153q0 -87 -30 -164t-84 -134t-129 -90.5t-164 -33.5q-83 0 -157.5 32.5t-131 88t-90 130t-35.5 158.5z" />
    <glyph glyph-name="nine" unicode="9" horiz-adv-x="1021" 
d="M731 748q0 46 -17 86.5t-46.5 71t-70 48.5t-87.5 18q-45 0 -85 -17.5t-70 -48t-47.5 -70.5t-17.5 -85q0 -47 17 -87.5t47 -69.5t70 -45.5t87 -16.5q45 0 85 14t70 41t47.5 66t17.5 89v6zM919 549q0 -24 0.5 -46.5t0.5 -44.5q0 -26 0.5 -49.5t0.5 -41.5v-68
q-1 -52 -3 -101t-13 -102q-15 -69 -52.5 -126.5t-90.5 -99t-118 -64.5t-135 -23q-90 0 -165 33t-129.5 90t-84.5 134t-30 164v12l184 -1q1 -20 2.5 -40t7.5 -44v-1q10 -36 31.5 -66t50 -52t63 -34t72.5 -12q41 0 80.5 17.5t70 46.5t49.5 67.5t19 80.5q1 32 1 62v61v61t1 62
l-17 7q-44 -45 -99.5 -64.5t-115.5 -19.5h-5q-84 0 -155 31t-123.5 84.5t-82 125.5t-29.5 155v6q0 85 31.5 159t86 129t128.5 87t159 32q64 0 124 -18.5t111 -53t90 -83.5t61 -109q11 -30 15.5 -61.5t7.5 -65.5v-216z" />
    <glyph glyph-name="sf261.001" unicode="&#x3c;" horiz-adv-x="795" 
d="M743 -1l-743 461l741 461v-156l-490 -300l494 -303z" />
    <glyph glyph-name="sf261.002" unicode="&#x3e;" horiz-adv-x="795" 
d="M49 161l494 303l-490 300v156l741 -461l-743 -461z" />
    <glyph glyph-name="a.001" horiz-adv-x="255" 
 />
    <glyph glyph-name="sf257.001" unicode="&#x651;" 
d="M-169 38q-1 23 -0.5 46.5t1.5 46.5q17 29 24 56q3 7 6.5 6.5t3.5 -7.5v-5q0 -3 0.5 -14.5t0.5 -33.5v-60q0 -29 16 -52.5t47 -23.5q17 0 29.5 7.5t14.5 25.5q1 24 -2 48.5t-1 46.5q0 21 8 51t16 49q5 12 7.5 9t4.5 -11q3 -20 5.5 -43.5t5.5 -47t7.5 -45.5t12.5 -39
q6 -17 24.5 -27.5t37.5 -10.5q14 0 26 6q-3 23 -6 47t-5 47q-3 10 -1 21.5t6 24t9.5 25t9.5 23.5q2 3 4 8.5t4.5 8.5t4.5 1.5t3 -12.5q1 -28 3 -48t4 -38t5 -37.5t6 -46.5q0 -1 -0.5 -3l-2.5 -10t-7 -23.5t-14 -43.5q-6 -17 -26 -26.5t-37 -9.5q-42 0 -61.5 20.5t-29.5 55.5
q-5 -14 -11 -31t-14.5 -31t-21 -23.5t-30.5 -9.5q-27 0 -44 13t-26.5 32.5t-13 43t-3.5 44.5z" />
    <glyph glyph-name="sf258.002" unicode="&#x650;" 
d="M206 61q-38 -20 -91 -46t-112.5 -54.5t-122 -57t-119.5 -54.5q-8 -4 -12 -0.5t1 11.5q13 26 28 52t32 48l90 40t114 52t120 56.5t108 53.5q10 1 10 -3q0 -9 -1 -10q-2 -3 -12.5 -23t-32.5 -65z" />
    <glyph glyph-name="sf256.003" unicode="&#x64f;" 
d="M173 52q9 -7 21.5 -16t14.5 -23q-8 -17 -14 -36t-17 -37q-5 -11 -15 -3q-4 5 -17.5 17t-18.5 17q-29 -35 -64.5 -61t-75 -45t-82 -33.5t-85.5 -27.5q-7 -2 -15 -3t-11 0.5t0.5 5.5t19.5 13q71 45 141 86t130 92q-15 11 -30 23.5t-30 23.5q-20 15 -30 37t-8 46q0 1 1 4
t4 11t9.5 23.5t18.5 42.5q7 15 21.5 29t31 23.5t34 13.5t31.5 1q37 -7 53.5 -31.5t18 -57t-9 -69t-27.5 -66.5zM34 165q19 -32 52.5 -56t64.5 -42q3 17 2.5 37.5t-6 39t-18 31.5t-33.5 15q-17 2 -35 -3t-27 -22z" />
    <glyph glyph-name="sf258.003" unicode="&#x64e;" 
d="M199 57q-38 -20 -91 -46t-112.5 -54.5t-122 -57t-119.5 -54.5q-8 -4 -12 -0.5t1 11.5q13 26 28 52t32 48l90 40t114 52t120 56.5t108 53.5q10 1 10 -3q0 -9 -1 -10q-2 -3 -12.5 -23t-32.5 -65z" />
    <glyph glyph-name="afii57453" unicode="&#x64b;" 
d="M-217 -74q-13 -5 -8 9q10 20 21.5 38.5t24.5 36.5q10 4 41 17.5t79 35.5t112.5 52.5t141.5 68.5q10 4 5 -10q-1 -2 -8.5 -18t-24.5 -49q-7 -5 -29 -16t-66.5 -32t-115 -53.5t-173.5 -79.5zM-213 -182q-15 -6 -9 10q10 21 21.5 39.5t24.5 34.5q10 4 41 17.5t79.5 35.5
t112.5 52.5t141 68.5q7 3 7 -7l-35 -69q-7 -5 -29 -16t-66.5 -32t-114.5 -53.5t-173 -80.5z" />
    <glyph glyph-name="afii57451" unicode="&#x64d;" 
d="M-211 -77q-13 -5 -8 9q10 20 21.5 38.5t24.5 36.5q10 4 41 17.5t79 35.5t112.5 52.5t141.5 68.5q10 3 5 -10q-1 -2 -8.5 -18t-24.5 -49q-7 -5 -29 -16t-66.5 -32t-115 -53.5t-173.5 -79.5zM-207 -185q-15 -6 -9 10q10 21 21.5 39.5t24.5 34.5q10 4 41 17.5t79.5 35.5
t112.5 52.5t141 68.5q7 3 7 -7l-35 -69q-7 -5 -29 -16t-66.5 -32t-114.5 -53.5t-173 -80.5z" />
    <glyph glyph-name="bar" unicode="|" horiz-adv-x="266" 
d="M70 1373h126v-1809h-126v1809z" />
    <glyph glyph-name="sf438.001" unicode="&#x652;" 
d="M-166 -147q-4 -1 -11 -2t-13 -1q-5 0 -5.5 3.5t9.5 12.5q84 54 133.5 85.5t76 48t34.5 22t9 8.5q-14 2 -28.5 4t-29.5 4q-28 3 -55.5 3.5t-53.5 -7.5q-8 -3 -14.5 -6t-11 -3.5t-6.5 3t0 14.5q7 20 14 38t14 37q4 10 13.5 15.5t21.5 8.5t25 4t25 1q33 0 69.5 -2t70.5 -5
q15 0 25 -9t0 -28q-18 -42 -43.5 -75t-53.5 -69q-23 -23 -42 -39.5t-49 -26.5q-28 -10 -63 -19.5t-61 -19.5z" />
    <glyph glyph-name="sf258.004" 
d="M10 -120q5 9 17.5 25t20.5 26q3 5 8.5 8.5t12.5 -1.5q4 -3 12.5 -9.5t17.5 -14t16.5 -15.5t10.5 -14q0 -2 -1 -3.5t-6 -7.5t-15.5 -19t-29.5 -38q-16 16 -32.5 31.5t-31.5 31.5zM-257 113q0 4 0.5 9.5t2.5 12.5q1 2 3 9t5 15.5t5 16t3 10.5q2 5 6.5 3.5t8.5 -6.5
q11 -18 24 -36.5t28 -34t33 -26.5t41 -15h21q18 0 50 7t91 33q-20 13 -41 23.5t-43 15t-44 1.5t-43 -16l-2 -2q-1 0 -1 2q0 13 3.5 25.5t8.5 25.5q11 28 24 41t45 13q7 0 17.5 -1t25 -5t35 -12t48.5 -21q18 -9 35.5 -20t37.5 -21.5t43 -19t52 -13.5q10 -4 8.5 -14.5
t-8.5 -22t-15 -22.5t-10 -16q-23 -2 -43.5 1t-43.5 3q-36 0 -71 -13.5t-70.5 -28t-71.5 -24.5t-73 -3q4 -30 6.5 -62t2.5 -63q0 -32 -5 -62t-17 -56q-2 -5 -6 -8t-4 5q2 75 -9.5 149t-46.5 143q-13 20 -24.5 39t-21.5 41z" />
    <glyph glyph-name="sf259.002" unicode="&#x611;" 
d="M-146 -258q-2 75 -11 148t-33 133q-8 17 -16 32.5t-12.5 32t-2.5 36t15 45.5q6 15 10.5 8t8.5 -18q7 -14 16.5 -31t22 -31.5t28 -24.5t35.5 -10q-5 32 0.5 64t21.5 58t41.5 42t60.5 16q21 0 39.5 -2t35.5 -9t34 -21t34 -37q-22 -2 -51 0t-55 2q-8 0 -15.5 -0.5
t-13.5 -1.5q-11 -1 -26 -3.5t-29 -8.5t-24 -16t-10 -25q0 -13 9.5 -25t23 -21.5t29 -15.5t26.5 -6q25 0 47 8t43 21q17 12 34.5 25.5t33.5 28.5q4 3 6 2.5t0 -6.5q-4 -30 -21.5 -57.5t-39.5 -47.5q-26 -23 -58 -39t-67 -24t-71 -7t-70 13q0 -29 1 -58t-1 -58t-8.5 -57
t-20.5 -54z" />
    <glyph glyph-name="sf260.001" unicode="&#x610;" 
d="M-17 98q-15 -14 -29 -29.5t-29 -32.5q7 -4 27 -4q22 0 54 3.5t61.5 8.5t51.5 10.5t25 10.5q-9 24 -28.5 39t-43 20t-47.5 -1t-42 -25zM-218 149q9 -14 19 -30t23 -31t27.5 -27.5t32.5 -18.5q15 15 35 42t46 54t57 47t69 21q22 0 42.5 -9t36.5 -24.5t25.5 -35.5t9.5 -42
q-5 -34 -21.5 -66t-49.5 -46q-67 -26 -139.5 -32.5t-144.5 11.5q-3 -26 -4.5 -52t-4 -51.5t-8 -50.5t-16.5 -50q-3 -8 -5 -6t0 7q1 52 0.5 93t-6 76.5t-16 68.5t-29.5 70q5 21 8 43t13 39z" />
    <glyph glyph-name="sf260.001" unicode="&#x6d6;" 
d="M-17 98q-15 -14 -29 -29.5t-29 -32.5q7 -4 27 -4q22 0 54 3.5t61.5 8.5t51.5 10.5t25 10.5q-9 24 -28.5 39t-43 20t-47.5 -1t-42 -25zM-218 149q9 -14 19 -30t23 -31t27.5 -27.5t32.5 -18.5q15 15 35 42t46 54t57 47t69 21q22 0 42.5 -9t36.5 -24.5t25.5 -35.5t9.5 -42
q-5 -34 -21.5 -66t-49.5 -46q-67 -26 -139.5 -32.5t-144.5 11.5q-3 -26 -4.5 -52t-4 -51.5t-8 -50.5t-16.5 -50q-3 -8 -5 -6t0 7q1 52 0.5 93t-6 76.5t-16 68.5t-29.5 70q5 21 8 43t13 39z" />
    <glyph glyph-name="sf277.007" unicode="&#x603;" horiz-adv-x="1342" 
d="M1085 179q-45 0 -95.5 -30t-110.5 -87q79 -11 159.5 -0.5t158.5 33.5q-9 15 -20 30.5t-25 27.5t-30.5 19.5t-36.5 6.5zM84 -6q68 6 137 9.5t137.5 9t136.5 16.5t134 32q38 13 61.5 34.5t35.5 38.5q5 6 10 6.5t3 -9.5q-3 -17 7 -28.5t26.5 -19t34.5 -11.5t32 -7
q33 44 71 82t77.5 65t79.5 39.5t77 6t69.5 -35t57.5 -84.5q-8 -23 -16 -44.5t-16 -43.5q-2 -6 -12.5 -14t-16.5 -10q-95 -41 -199.5 -50.5t-209.5 0.5q-8 -12 -17 -23.5t-17 -23.5q-6 -10 -12 -10q-5 0 -1 16q5 12 14 25t14 23q-29 8 -50.5 25t-26.5 40q-12 -26 -31.5 -44
t-43.5 -30t-50.5 -19t-52.5 -10q-112 -12 -222.5 -7.5t-219.5 40.5q-11 5 -14.5 9.5t13.5 6.5z" />
    <glyph glyph-name="sf263.002" unicode="&#x670;" 
d="M-84 126q5 19 11.5 35t17.5 42q7 15 20 2q30 -29 45 -78.5t17.5 -103.5t-7 -105.5t-27.5 -85.5q-8 -14 -12 -15.5t-1 17.5q5 39 6.5 77.5t-4.5 75.5t-21.5 72t-44.5 67z" />
    <glyph glyph-name="sf264.002" unicode="&#x66b;" horiz-adv-x="268" 
d="M121 318q-17 0 -21 -9t-10 -23q-3 -8 -9 -17.5t-15 -0.5q-11 14 -13.5 30.5t-2.5 32.5t4.5 36t13.5 37.5t23 29t34 11.5q25 0 42.5 -13t28.5 -32.5t16.5 -43t5.5 -43.5q-4 -85 -38 -161.5t-94 -136.5q-15 -15 -22 -12.5t7 23.5q16 27 32 54.5t29 56.5t21 59.5t8 62.5
q0 21 -7 40t-33 19z" />
    <glyph glyph-name="sf266.001" unicode="&#x22;" horiz-adv-x="542" 
d="M289 1403q38 7 75.5 6.5t77.5 -0.5l-26 -359l-103 16zM100 1395q13 2 32.5 3.5t41 2.5t42.5 1.5t37 0.5l-26 -340q-45 -11 -69 -15t-29 -4q-1 0 -1 1q-3 26 -5.5 54.5t-5.5 68t-7 94t-10 133.5z" />
    <glyph glyph-name="sf267" unicode="&#x614;" 
d="M-469 45q66 1 130 0t126.5 1.5t124 10t121.5 25.5q35 13 60.5 30t51.5 44q4 4 4 0q-2 -21 10 -38t32.5 -28t46 -14.5t49.5 1.5q5 2 5.5 4t0.5 6q0 9 -3.5 17.5l-7 17t-7 16.5t-3.5 14q5 20 15.5 35.5t19.5 33.5q4 7 7.5 4.5t5.5 -7.5q10 -33 18 -58.5t10 -59.5
q-6 -26 -11.5 -47t-16 -36t-28 -23t-47.5 -8q-49 0 -80.5 21.5t-42.5 72.5q-11 -20 -25.5 -37t-37.5 -28q-60 -28 -128 -38.5t-138.5 -7.5t-140.5 19t-133 41q-13 6 -9 10.5t21 5.5z" />
    <glyph glyph-name="sf268.004" unicode="&#x600;" horiz-adv-x="1134" 
d="M353 212q55 78 125 136.5t151 82.5q9 4 12 1t3 -9t-2.5 -13t-4.5 -10q-22 -26 -53.5 -61.5t-63 -74.5t-59 -79t-41.5 -76q-19 -46 -7.5 -86.5t43.5 -75.5t78 -63.5t96 -50t98 -35.5t84 -20q14 -2 16.5 -7t0.5 -12t-6.5 -14.5t-4.5 -14.5q-19 -23 -33.5 -35t-28 -22
t-28 -22t-33.5 -34q-3 -8 -7.5 -12.5t-19.5 -4.5q-44 7 -93.5 22t-101.5 27.5t-104 16.5t-101 -11q-149 -46 -283 -78.5t-260 -52.5t-247 -29.5t-245 -9.5q-126 0 -254 8t-273 22q-101 9 -192 19t-179.5 25t-178.5 38.5t-188 59.5q-68 25 -101 39t-31 21t40 8.5t112 0.5
q142 -3 266.5 -5.5t236 -5t212.5 -3.5t196 -1q105 0 206 2t202.5 7.5t207.5 13.5t222.5 20.5t245.5 29.5t277 39q-3 48 1 100t15.5 103.5t30.5 99t46 86.5z" />
    <glyph glyph-name="sf275.001" unicode="&#x60f;" horiz-adv-x="786" 
d="M580 122q-53 -2 -97 -26.5t-81.5 -60.5t-68.5 -79t-58 -82q56 -41 118 -39t119.5 30.5t105 75.5t74.5 97q0 22 -11 38t-27.5 26.5t-36 15.5t-37.5 4zM178 -216q-34 62 -41.5 130.5t5.5 137t42 133t67 118.5q5 5 0 5q-19 16 -38 33.5t-19 42.5q0 16 5 28.5t12.5 23.5
t16.5 22t17 24q12 18 24.5 39.5t28.5 40t36 31t46 12.5q10 0 23 -3t23.5 -9t16.5 -14.5t3 -18.5q-3 -27 -14 -33t-25 -2.5t-28 11t-24 7.5q-21 0 -46 -16q-25 -15 -25 -41q0 -17 13 -29.5t31.5 -20t38 -9.5t33.5 2q30 17 59 31t58 29q18 11 21.5 8.5t-1 -10.5t-14.5 -19
t-20 -18q-24 -18 -47 -35l-46 -34q-65 -44 -117 -95.5t-79.5 -111t-25 -126t46.5 -141.5q33 53 73 113t87.5 110.5t103.5 83t121 31.5q25 0 46 -11.5t36.5 -30t24.5 -42t9 -47.5q-5 -58 -30 -119.5t-64 -116.5t-90.5 -98.5t-109 -64t-119 -13.5t-121.5 52q-23 -42 -47 -82.5
t-48 -85.5q-9 -16 -23 -32t-34 -17q9 19 24 48.5t32.5 63.5t36 69t35.5 66z" />
    </font>
</defs>
</svg>
