<?xml version="1.0" standalone="no"?>
<!DOCTYPE svg PUBLIC "-//W3C//DTD SVG 1.1//EN" "http://www.w3.org/Graphics/SVG/1.1/DTD/svg11.dtd" >
<svg xmlns="http://www.w3.org/2000/svg" xmlns:xlink="http://www.w3.org/1999/xlink" version="1.1">
<metadata>
Created by FontForge 20170731 at Thu Mar 18 18:19:19 2021
 By Aleksey,,,
Copyright 2015-2021 The Aref Ruqaa Project Authors (https://github.com/alif-type/aref-ruqaa), with Reserved Font Name EURM10.
</metadata>
<defs>
<font id="ArefRuqaa-Regular" horiz-adv-x="0" >
  <font-face 
    font-family="Aref Ruqaa"
    font-weight="400"
    font-stretch="normal"
    units-per-em="1000"
    panose-1="2 0 5 3 0 0 0 0 0 0"
    ascent="800"
    descent="-200"
    x-height="462"
    cap-height="683"
    bbox="-199 -363.19 1459 1028"
    underline-thickness="73"
    underline-position="-140"
    unicode-range="U+0020-FD3F"
  />
<missing-glyph horiz-adv-x="500" 
d="M50 -200v1000h400v-1000h-400zM100 -150h300v900h-300v-900z" />
    <glyph glyph-name=".notdef" horiz-adv-x="500" 
d="M50 -200v1000h400v-1000h-400zM100 -150h300v900h-300v-900z" />
    <glyph glyph-name=".null" 
 />
    <glyph glyph-name="nonmarkingreturn" horiz-adv-x="333" 
 />
    <glyph glyph-name="space" unicode=" " horiz-adv-x="146" 
 />
    <glyph glyph-name="space" unicode="&#xa0;" horiz-adv-x="146" 
 />
    <glyph glyph-name="exclam" unicode="!" horiz-adv-x="253" 
d="M203 464q-5 77 -23.5 138t-43.5 115t-50 107q-15 -36 -30.5 -70.5t-29.5 -69.5q-1 -3 3.5 -12.5t10.5 -19t8 -13.5q28 -54 51 -121t31.5 -146.5t-6.5 -169.5q0 -1 0.5 -7t7.5 -1q10 8 15.5 20t11.5 24q22 44 35.5 98.5t8.5 127.5v0zM49 85q-5 -7 1 -12l72 -70q8 -6 13 0
l88 92q6 8 0 12l-73 70q-8 6 -12 0z" />
    <glyph glyph-name="quotedbl" unicode="&#x22;" horiz-adv-x="333" 
d="M97 432l-20 152q-2 18 -3.5 36.5t-1.5 36.5q0 16 7.5 27t26.5 11q11 0 22 -4.5t11 -15.5v-52l-21 -191h-21zM218 432l-22 193q-1 11 -3 25t-2 18q0 14 13 19t26 5q8 0 18.5 -4.5t10.5 -14.5v-24t-1 -23l-19 -194h-21z" />
    <glyph glyph-name="numbersign" unicode="#" horiz-adv-x="715" 
d="M6 249l8 10h178l59 209h-170l-6 10l-4 21l8 10h183l54 195l11 3l22 -2l7 -10l-52 -186h207l54 195l11 3l22 -2l7 -10l-52 -186h149l6 -33l-12 -8h-154l-58 -209h158l6 -33l-12 -8h-164l-59 -212l-33 3l-4 14l54 195h-207l-59 -212l-33 3l-4 14l54 195h-165l-6 10z
M235 259h206l59 209h-207z" />
    <glyph glyph-name="dollar" unicode="$" horiz-adv-x="476" 
d="M268 -99l-40 -8v114q-23 -4 -46 -4q-49 0 -93 22.5t-64 74.5l55 63l16 -1q15 -49 45.5 -82t80.5 -33h6v275q-79 35 -119 75t-40 107q0 51 21.5 88t58 59t79.5 29v110l40 8v-114h3q35 0 65 -6.5t56 -25.5t47 -59l-60 -53l-13 3q-11 43 -34 71.5t-64 33.5v-251
q10 -5 22 -10q75 -33 113.5 -73.5t38.5 -97.5q0 -48 -24 -87.5t-64 -68t-86 -43.5v-116zM145 537q0 -39 24 -68t59 -51v229q-37 -9 -60 -39.5t-23 -70.5zM358 186q0 34 -27 65t-63 51v-247q39 14 64.5 49t25.5 82z" />
    <glyph glyph-name="percent" unicode="%" horiz-adv-x="827" 
d="M228 795q38 -10 72 -34t55.5 -57.5t21.5 -71.5q0 -34 -16 -67.5t-42.5 -61.5t-59.5 -45t-67 -17q-44 0 -73.5 22t-44 56.5t-14.5 69.5q0 46 24.5 84.5t63 69.5t80.5 52zM723 766l1 -13l-621 -754l-28 18l1 14l616 746h11zM178 743q-34 -19 -46.5 -52t-12.5 -67
q0 -31 13.5 -63t39 -53t62.5 -21q36 0 54.5 17.5t25 43t6.5 50.5q0 36 -18 68t-49.5 53t-74.5 24zM624 342q38 -10 72 -34t55.5 -57.5t21.5 -71.5q0 -34 -16 -67.5t-42.5 -61.5t-59.5 -45t-67 -17q-44 0 -73.5 22t-44 56.5t-14.5 69.5q0 46 24.5 84.5t63 69.5t80.5 52z
M574 290q-34 -19 -46.5 -52t-12.5 -67q0 -31 13.5 -63t39 -53t62.5 -21q36 0 54.5 17.5t25 43t6.5 50.5q0 36 -18 68t-49.5 53t-74.5 24z" />
    <glyph glyph-name="ampersand" unicode="&#x26;" horiz-adv-x="738" 
d="M326 356l2 43q42 -2 96 -2.5t104 -0.5h56.5t57.5 1t42 2l-3 -48q-31 5 -70.5 6t-76.5 1q4 -16 6.5 -31.5t2.5 -31.5q0 -50 -21.5 -95t-52.5 -85l3 -3q20 -21 47.5 -40t57.5 -19q36 0 58.5 20.5t36.5 52t21 63.5l21 -5q-6 -33 -18 -67.5t-31.5 -63.5t-48.5 -46.5
t-70 -17.5q-37 0 -70.5 17t-59.5 42l-5 4q-30 -24 -69.5 -42t-83.5 -18q-45 0 -90 11.5t-77 43.5q-29 29 -45.5 68t-16.5 80q0 46 16.5 78.5t51.5 61t90 62.5q-12 29 -19 60.5t-7 62.5q0 46 19.5 86.5t56 66t87.5 25.5q25 0 48.5 -11.5t38.5 -32t15 -48.5q0 -33 -11 -60.5
t-36 -50.5q-15 -14 -40.5 -31t-48.5 -30.5t-32 -17.5q71 -157 196 -285q20 29 29 64t9 71q0 23 -10 43t-26 36q-12 12 -28 14t-33 2t-34.5 -1.5t-34.5 -3.5zM250 435q42 26 64.5 47t31 44.5t8.5 55.5q0 18 -10 36.5t-25.5 31.5t-31.5 13q-30 0 -43.5 -16.5t-17.5 -40.5
t-4 -47q0 -32 7.5 -63t20.5 -61zM396 68q-60 67 -112.5 146.5t-87.5 161.5q-51 -34 -70 -72.5t-19 -85.5q0 -46 21 -89t58.5 -70.5t86.5 -27.5q77 0 123 37z" />
    <glyph glyph-name="quotesingle" unicode="'" horiz-adv-x="210" 
d="M94 436l-18 193q-1 9 -1.5 18t-0.5 19q0 14 11 21.5t25 7.5q16 0 23 -9.5t7 -23.5q0 -8 -1 -19t-3 -21l-26 -186h-16z" />
    <glyph glyph-name="parenleft" unicode="(" horiz-adv-x="257" 
d="M246 -163v-24q-39 3 -68.5 25t-49.5 55t-33 71t-19 74q-10 60 -14 120.5t-4 121.5q0 58 4.5 116t15.5 114q10 48 29.5 97.5t53 85.5t85.5 45v-27q-38 -10 -63 -43t-40 -81t-22 -103.5t-9 -110t-2 -99.5q0 -51 2 -107.5t9 -112t21.5 -102t39.5 -77t64 -38.5z" />
    <glyph glyph-name="parenright" unicode=")" horiz-adv-x="259" 
d="M11 709v27q51 -10 85 -45t55 -85.5t32 -108.5t14.5 -116.5t3.5 -108.5q0 -51 -3 -110.5t-12.5 -118.5t-30 -109t-55.5 -83t-89 -40v24q35 9 62 31t42 67q27 80 30.5 169t3.5 174q0 59 -4 118t-15 117q-7 38 -19.5 78t-35.5 73t-64 47z" />
    <glyph glyph-name="asterisk" unicode="*" horiz-adv-x="301" 
d="M175 448h-40q5 29 6.5 54t2.5 57q-20 -16 -39.5 -33.5t-37.5 -38.5l-21 35q26 13 47 26.5t40 26.5q-22 16 -42.5 28.5t-42.5 23.5l27 28q17 -16 33 -30.5t35 -28.5q0 24 -1 47.5t-7 48.5h40q-5 -25 -7 -47.5t-4 -47.5q38 30 68 62l25 -31q-24 -11 -45.5 -24t-42.5 -28
q23 -17 45 -31.5t43 -24.5l-26 -29q-27 30 -67 61q1 -26 3 -51.5t8 -52.5z" />
    <glyph glyph-name="plus" unicode="+" horiz-adv-x="747" 
d="M392 276h313l-5 -40h-308v-303l-40 -7v310h-310l7 40h303v304l40 6v-310z" />
    <glyph glyph-name="comma" unicode="," horiz-adv-x="233" 
d="M77 -210l-19 14q26 35 46 70t20 65q0 11 -3 22.5t-10 19.5l-70 83q-7 9 -7 26q0 20 20 34t39 14q20 0 36 -20.5t27.5 -49t18 -55.5t6.5 -40q0 -37 -25.5 -79t-78.5 -104z" />
    <glyph glyph-name="hyphen" unicode="-" horiz-adv-x="353" 
d="M291 236h-236l7 40h235z" />
    <glyph glyph-name="period" unicode="." horiz-adv-x="272" 
d="M69 52q0 28 19.5 47.5t47.5 19.5t47.5 -19.5t19.5 -47.5t-19.5 -47.5t-47.5 -19.5t-47.5 19.5t-19.5 47.5z" />
    <glyph glyph-name="slash" unicode="/" horiz-adv-x="390" 
d="M402 715l5 -11l-389 -896l-32 8l-3 14l386 888l11 2z" />
    <glyph glyph-name="zero" unicode="0" horiz-adv-x="500" 
d="M290 704q61 -38 98 -94.5t54.5 -121.5t17.5 -132q0 -60 -14 -124.5t-43.5 -120t-78 -90.5t-117.5 -35q-43 0 -73.5 21.5t-50 57t-30.5 77.5t-15 84.5t-4 76.5q0 90 33 176t97 150q25 25 59 43.5t67 31.5zM234 640q-44 -27 -73.5 -71t-44.5 -95.5t-15 -102.5
q0 -43 4.5 -87t16.5 -85q10 -34 28.5 -68t44 -56.5t57.5 -22.5q46 0 74.5 22.5t44 58t21.5 76t6 76.5q0 68 -17.5 131.5t-50.5 122.5q-3 6 -17.5 27t-35 43t-43.5 31z" />
    <glyph glyph-name="one" unicode="1" horiz-adv-x="500" 
d="M308 712l6 -12q-4 -67 -5.5 -134t-1.5 -134v-110.5t0.5 -117t1 -105.5t1.5 -77l-84 -27l-12 5q4 104 6 209t2 210q0 56 1 99.5t-8 68.5t-40 25h-83v27z" />
    <glyph glyph-name="two" unicode="2" horiz-adv-x="500" 
d="M472 80l-23 -78h-437v16q43 44 84.5 88.5t81.5 90.5q39 46 74.5 95t58.5 103t23 113q0 26 -10.5 57t-35 53t-67.5 22q-41 0 -74.5 -20t-62.5 -44l-20 19q41 45 94.5 79t116.5 34q44 0 78 -20.5t53.5 -55.5t19.5 -79q0 -40 -14 -76.5t-34 -71.5q-44 -80 -106 -156
t-125 -150q-2 -2 -2 -4q0 -4 4.5 -5.5t8.5 -1.5h309z" />
    <glyph glyph-name="three" unicode="3" horiz-adv-x="500" 
d="M241 382v-8q95 -8 150 -46t55 -113q0 -51 -22.5 -93.5t-60.5 -73.5t-85 -48t-97 -17q-43 0 -82.5 14.5t-73.5 40.5l-7 11l42 72h10q23 -38 56.5 -68t79.5 -30q45 0 78 23t50.5 60t17.5 80q0 32 -13.5 61.5t-35.5 52.5q-19 21 -49.5 30.5t-64.5 12t-64 2.5l1 26
q91 21 141 61.5t50 107.5q0 47 -32 73t-77 26q-29 0 -61.5 -17.5t-60.5 -35.5l-14 22q26 22 56 43.5t62 36t63 14.5q61 0 103.5 -34.5t42.5 -99.5q0 -48 -21.5 -85.5t-57 -62.5t-79.5 -38z" />
    <glyph glyph-name="four" unicode="4" horiz-adv-x="500" 
d="M361 704l7 -6q0 -8 -0.5 -42t-0.5 -84.5v-108.5v-115v-104l7 -9h94l5 -7l-16 -37h-82l-8 -8v-59t1 -58.5t2 -37.5l-80 -33l-5 6q3 18 4 48.5t1 66v66.5l-7 9h-284v44l286 434zM290 243v342q0 8 -5 8q-3 0 -5 -2q-25 -29 -48 -62.5t-45 -67.5q-14 -22 -34.5 -55.5
t-40.5 -68t-34 -61t-14 -34.5l5 -7h215z" />
    <glyph glyph-name="five" unicode="5" horiz-adv-x="500" 
d="M125 594v-188q31 15 64.5 26t67.5 11q59 0 101.5 -24.5t66 -68t23.5 -99.5q0 -76 -37.5 -135.5t-98.5 -93t-134 -33.5q-47 0 -90.5 19t-74.5 56l-1 12l44 56h11q11 -24 27 -48.5t38.5 -41t53.5 -16.5q56 0 93 28t55 73t18 96q0 41 -13.5 80.5t-43.5 65.5t-82 26
q-33 0 -63 -15t-54 -38l-13 11v327l7 7h335l-27 -78q-43 -1 -95 -2t-97 -2t-69 -1q-12 0 -12 -10z" />
    <glyph glyph-name="six" unicode="6" horiz-adv-x="500" 
d="M471 688l-20 -54l-9 -4q-27 11 -58 11q-46 0 -85.5 -18t-70.5 -47q-59 -55 -78.5 -126.5t-20.5 -143.5l7 -1q40 32 86.5 52t98.5 20q46 0 79.5 -24t52 -61.5t18.5 -80.5q0 -44 -19.5 -84t-53 -71.5t-75.5 -50t-87 -18.5q-53 0 -89.5 23t-59 60t-32.5 81t-10 87
q0 94 33.5 182.5t100.5 155.5q31 33 69 61t81 45.5t87 17.5q11 0 27.5 -3.5t27.5 -8.5zM132 265q0 -34 5.5 -74t20 -76.5t40 -59.5t65.5 -23q64 0 96.5 41.5t32.5 98.5q0 37 -17.5 69.5t-48 52.5t-70.5 20q-20 0 -45 -8t-46.5 -19t-32.5 -22z" />
    <glyph glyph-name="seven" unicode="7" horiz-adv-x="500" 
d="M494 674l-154 -252q-58 -96 -104.5 -198t-70.5 -212l-84 -20l-6 8q9 31 28 72t42.5 86t48 88.5t44.5 77.5l10.5 18l28 48l38.5 66t42.5 72t40.5 66l-6 12h-336l-7 9l21 79q7 -2 34.5 -3.5t63.5 -2.5t68.5 -1.5t49.5 -0.5h208v-12z" />
    <glyph glyph-name="eight" unicode="8" horiz-adv-x="500" 
d="M312 385q53 -36 86 -63.5t48 -56t15 -68.5q0 -48 -20.5 -86.5t-55.5 -65.5t-78 -41t-88 -14q-36 0 -73.5 9.5t-63.5 35.5q-24 24 -33 56t-9 66q0 47 18 78.5t53.5 58.5t89.5 58v11q-27 19 -53 44.5t-42.5 56.5t-16.5 66q0 49 24.5 82t62.5 55.5t78 38.5h9q77 0 124.5 -38
t47.5 -100q0 -36 -18 -68.5t-46.5 -58.5t-58.5 -45v-11zM279 412q32 22 52 56.5t20 74.5q0 25 -14.5 52t-42.5 45.5t-71 18.5q-34 -22 -45.5 -45t-11.5 -52t17 -56.5t43 -51t53 -42.5zM238 334q-52 -27 -83.5 -63t-31.5 -94q0 -35 14 -68.5t41.5 -55t66.5 -21.5
q62 0 95.5 38.5t33.5 97.5q0 38 -17 65.5t-47.5 51t-71.5 49.5z" />
    <glyph glyph-name="nine" unicode="9" horiz-adv-x="500" 
d="M214 11l-85 -20l-10 8q15 35 47 80t66 88l13.5 18t33 45.5t39 56t31.5 49.5l-5 6q-37 -19 -74 -31t-76 -12q-34 0 -70 21.5t-60 59t-24 85.5q0 39 8.5 72.5t30.5 60.5q15 18 45 38t63.5 37.5t58.5 28.5q109 0 162.5 -47t53.5 -127q0 -42 -17 -87t-43 -88.5t-52 -82.5
q-27 -39 -56 -83.5t-51 -89t-29 -86.5zM351 384q19 19 25 45.5t6 52.5q0 42 -18 79t-54.5 60t-90.5 23q-28 0 -48.5 -21.5t-31 -51.5t-10.5 -56q0 -38 15 -76t44 -62.5t71 -24.5q25 0 49.5 7t42.5 25z" />
    <glyph glyph-name="colon" unicode=":" horiz-adv-x="184" 
d="M35 398q0 23 17 40t41 17q23 0 39.5 -17t16.5 -40t-16.5 -40t-39.5 -17q-24 0 -41 17t-17 40zM35 45q0 23 17 40t41 17q23 0 39.5 -17t16.5 -40t-16.5 -40t-39.5 -17q-24 0 -41 17t-17 40z" />
    <glyph glyph-name="semicolon" unicode=";" horiz-adv-x="193" 
d="M29 400q0 23 17 40t41 17q23 0 39.5 -17t16.5 -40t-16.5 -40t-39.5 -17q-24 0 -41 17t-17 40zM70 -190l-15 13q18 24 32.5 55t14.5 58q0 11 -4 20t-9 18l-34 51q-4 6 -6.5 12.5t-2.5 13.5q0 9 1.5 19t7.5 16l2 2q14 11 32 11q13 0 25.5 -13t23 -33t16.5 -40t6 -35
q0 -30 -14 -59.5t-35 -56.5t-41 -52z" />
    <glyph glyph-name="less" unicode="&#x3c;" horiz-adv-x="710" 
d="M662 505l-2 -9l-522 -241v-12l519 -241l5 -10l-11 -23l-10 -5l-600 280v12l601 275l11 -3z" />
    <glyph glyph-name="equal" unicode="=" horiz-adv-x="823" 
d="M739 329h-662l7 40h661zM739 132h-662l7 40h661z" />
    <glyph glyph-name="greater" unicode="&#x3e;" horiz-adv-x="711" 
d="M50 494l-2 10l10 24l10 3l602 -275v-12l-600 -280l-10 5l-8 24l4 9l518 243v9z" />
    <glyph glyph-name="question" unicode="?" horiz-adv-x="353" 
d="M162 211l-46 -32q-17 11 -29.5 30t-12.5 41q0 15 8 29t18 26q24 31 52 57t53.5 52t41.5 57.5t16 73.5q0 27 -14 54t-36.5 44.5t-47.5 17.5q-29 0 -55 -19t-26 -53q0 -18 9 -34t23 -27l-67 -40q-13 12 -20.5 31t-7.5 38q0 31 17.5 56t45 43t59.5 27.5t62 9.5q57 0 93 -35
t36 -93q0 -25 -8.5 -46t-21.5 -43q-18 -30 -46 -56.5t-56 -51t-47.5 -48t-19.5 -46.5q0 -32 27 -52v-11zM82 46q0 23 16.5 40t39.5 17q24 0 41 -17t17 -40t-17 -40t-41 -17q-23 0 -39.5 17t-16.5 40z" />
    <glyph glyph-name="at" unicode="@" horiz-adv-x="728" 
d="M472 371l42 22l4 -4q-3 -39 -3.5 -78t-0.5 -78q0 -20 0.5 -41t0.5 -41q0 -13 4.5 -29.5t24.5 -16.5q32 0 51 24.5t28 58.5t11 61q5 67 -20 120t-71 88.5t-105 49.5t-122 2q-40 -7 -76.5 -25.5t-68.5 -44.5q-34 -41 -52 -94t-18.5 -109t17 -108.5t54.5 -91.5
q32 -29 74.5 -48.5t92.5 -23.5l14 -15l-43 -42q-52 4 -96.5 26t-79 55t-56.5 71q-28 49 -35.5 104t4 108.5t39.5 99.5q26 43 66 83.5t89.5 70.5t103.5 40q66 13 129.5 -4t114.5 -57.5t79 -99t23 -127.5q-4 -47 -23 -86.5t-48 -68.5q-12 -13 -33.5 -27.5t-45 -24t-40.5 -9.5
q-22 0 -31.5 11.5t-12.5 29.5l-12 3q-29 -16 -61.5 -30t-67.5 -14q-44 0 -69.5 21t-36.5 53t-11 64q0 50 19.5 94.5t61 73t107.5 28.5q19 0 42.5 -6t42.5 -18zM455 138v161q0 14 -1.5 27t-11.5 22q-10 10 -24 16.5t-29 6.5q-44 0 -76 -27q-13 -11 -27.5 -41t-15.5 -83
q-1 -22 4.5 -44t18.5 -40q13 -17 34.5 -23t43.5 -6q24 0 45.5 10t38.5 21z" />
    <glyph glyph-name="A" unicode="A" horiz-adv-x="722" 
d="M514 76l-54 188q-4 9 -11 9h-225q-6 0 -10 -8l-117 -248l-91 -19l-3 10q89 150 174.5 303t164.5 309q1 3 1 7q0 2 -2.5 6t-9.5 5l-90 15v27h194q8 -41 23.5 -103.5t34.5 -131t35 -128.5q17 -61 37.5 -127t47.5 -111q10 -16 27 -23t37 -7q11 0 22 1t21 2l1 -26l-104 -30
q-22 -6 -45 -6q-25 0 -37 26.5t-21 59.5zM360 572l-116 -244q-1 -1 -1 -4.5v-4.5q0 -7 7 -7h188q7 0 7 7l-1 4t-1 5l-70 244q-2 4 -7 4q-6 0 -6 -4z" />
    <glyph glyph-name="B" unicode="B" horiz-adv-x="559" 
d="M335 378l-1 -8q110 -14 152 -54.5t42 -114.5q0 -58 -24 -97t-63 -62t-86 -33t-92 -10q-25 0 -58.5 0.5t-65 0.5t-53 0.5l-21.5 0.5l-1 10q10 15 15 19.5t6.5 13.5t1.5 37v530q0 17 -13 26.5t-32 14.5l-38 10l1 17l7 7h247q42 0 83 -5.5t74 -20t52.5 -40.5t19.5 -67
q0 -49 -21.5 -81.5t-56 -54.5t-75.5 -39zM169 391q2 -7 10.5 -8.5t23.5 -1.5q53 0 98.5 16.5t73.5 52.5t28 95q0 42 -22.5 64t-59 30.5t-79.5 8.5q-11 0 -27.5 -0.5t-29.5 -4t-16 -14.5v-238zM169 66q0 -17 12.5 -22t62.5 -5q51 0 95 18t71 55.5t27 95.5q0 45 -18 72
t-47.5 41.5t-66 19.5t-74.5 5h-42.5t-19.5 -8v-272z" />
    <glyph glyph-name="C" unicode="C" horiz-adv-x="633" 
d="M567 528l-14 1q-25 68 -71 98.5t-108 30.5q-68 0 -115 -27t-76 -73t-42 -101.5t-13 -112.5q0 -46 13.5 -91t32.5 -80t35 -52q41 -41 79.5 -62t99.5 -21q51 0 98 19.5t89 47.5l17 -29q-54 -37 -114 -64t-125 -27q-59 0 -117 15.5t-101 58.5q-52 53 -74 123.5t-22 143.5
q0 72 19.5 142t71.5 122q55 55 127.5 82t150.5 27q66 0 121.5 -24.5t94.5 -88.5z" />
    <glyph glyph-name="D" unicode="D" horiz-adv-x="737" 
d="M64 2v10q15 11 18 25t4 42v494q0 12 -0.5 24t-1.5 23q-1 13 -14 20t-30.5 11t-30.5 8v19l7 8h313q116 0 188.5 -22t111 -62t53 -95.5t14.5 -121.5q0 -95 -20.5 -163.5t-78.5 -130.5q-33 -36 -84.5 -55.5t-108.5 -26.5t-109 -7h-231zM170 575v-405q1 -20 2 -44.5t5 -44.5
t11 -28q10 -10 34.5 -11.5t44.5 -1.5q101 0 166.5 28.5t102.5 77t51.5 108.5t14.5 123q0 31 -6.5 70t-22.5 77.5t-44 66.5q-36 35 -108.5 44.5t-170.5 9.5q-32 0 -46.5 -1t-19.5 -3t-8 -3.5t-4.5 -14t-1.5 -48.5z" />
    <glyph glyph-name="E" unicode="E" horiz-adv-x="518" 
d="M411 336q-29 2 -59 4t-59 2h-59t-50 -3t-20 -12v-139q0 -28 2.5 -60.5t12.5 -51.5q11 -19 30.5 -25.5t65.5 -6.5q18 0 34 0.5t39 1.5t61.5 4t99.5 8l5 -5l-13 -53h-388q-15 8 -20.5 27t-5.5 39v492q0 11 -1 30t-8 34q-4 10 -22.5 18.5t-53.5 13.5l-1 20l7 7l148 1
q35 0 78 1.5l86 3t78 1.5h25t21 -1l-2 -50l-4 -7q-26 2 -60.5 3.5t-67.5 3t-55.5 2.5t-25.5 1h-40q-15 -3 -19.5 -26.5t-4.5 -49.5v-166q0 -13 19 -13.5t47 -0.5q40 0 90 2t90 5l6 -7z" />
    <glyph glyph-name="F" unicode="F" horiz-adv-x="441" 
d="M87 360l2 161v49.5t-6.5 49.5t-26.5 27l-55 13v21l7 7h115h121.5t108.5 0.5t76 1.5v-53l-8 -8q-54 4 -108 12t-108 8q-10 0 -19 -5t-13 -18q-1 -5 -2.5 -13.5t-2.5 -30.5t-1.5 -67t-0.5 -124q0 -4 3 -8.5t10 -4.5q55 0 118 5t117 7l-1 -49l-5 -5q-52 3 -114 4t-115 1
q-4 0 -8 -3t-4 -8q0 -76 1 -158.5t4 -158.5l-92 -15q3 91 5 181t2 181z" />
    <glyph glyph-name="G" unicode="G" horiz-adv-x="661" 
d="M325 296l276 11q1 -34 1.5 -80.5t1.5 -90.5t1.5 -73.5l0.5 -29.5q-44 -11 -92.5 -23t-94 -19.5t-82.5 -7.5q-57 0 -110.5 20t-94.5 60q-51 51 -72 120.5t-21 140.5q0 74 20 145.5t72 123.5q56 56 131 81t154 25q65 0 117 -26t92 -87l-58 -57l-12 1q-33 66 -78 93t-106 27
q-70 0 -117 -26.5t-74.5 -71.5t-39 -100t-11.5 -112q0 -55 16 -109t49.5 -98.5t86.5 -71t126 -26.5q50 0 94 10q13 3 17 18.5t3.5 35.5t-0.5 35q0 8 1 26.5t-0.5 40.5t-8 38t-20.5 17q-33 3 -77 5.5t-85 3.5l-6 5v26z" />
    <glyph glyph-name="H" unicode="H" horiz-adv-x="706" 
d="M700 14l-6 -14h-149l-11 21q2 73 3.5 156.5t1.5 156.5q0 4 -2.5 8t-9.5 4h-343q-13 0 -13 -12q0 -34 -0.5 -74.5t-0.5 -81.5q0 -43 1 -78.5t5 -73.5l-92 -28l-6 5q8 85 9 179t1 185q0 62 -0.5 124.5t-5.5 124.5q-1 14 -7.5 19t-21.5 9.5t-44 14.5l-1 19l7 7h162l5 -5
q-6 -34 -9 -82.5t-3.5 -101.5t-0.5 -99q0 -4 2.5 -8t9.5 -4h346q8 0 10 4t2 8q0 65 -1.5 138.5t-1.5 137.5l88 17l5 -6q-7 -91 -9 -181t-2 -181q0 -61 1 -121.5t3 -121.5q0 -13 10.5 -22.5t25 -14.5t26.5 -7.5t15 -2.5z" />
    <glyph glyph-name="I" unicode="I" horiz-adv-x="280" 
d="M273 -1h-265v26q37 7 55 13.5t24.5 17t7.5 29t2 49.5v363q0 29 -0.5 58t-2.5 57q-1 15 -6.5 20.5t-24 9.5t-58.5 13v22l7 6h250l6 -6v-21l-67 -15q-20 -5 -22 -26q-4 -29 -4.5 -74.5t0.5 -94t1 -87.5q0 -50 0.5 -97t1.5 -93q1 -21 0 -49.5t5 -51t27 -28.5q11 -3 26 -7
t27 -7l12 -3z" />
    <glyph glyph-name="J" unicode="J" horiz-adv-x="265" 
d="M175 608v-517q0 -116 -47.5 -194.5t-148.5 -130.5l-14 18q29 18 52.5 41t39.5 57.5t24.5 86t8.5 127.5v512q0 8 -3.5 21.5t-12.5 15.5l-72 18v21l7 6h250l7 -6l-2 -24l-68 -14q-9 -2 -15 -13t-6 -25z" />
    <glyph glyph-name="K" unicode="K" horiz-adv-x="593" 
d="M178 319l-9 -1q0 -73 1 -146.5t5 -146.5l-81 -29l-8 5v594q0 8 -1 16t-4 15q-4 9 -21.5 16.5t-34 12t-19.5 4.5l2 17l8 7h158l7 -7q-5 -16 -8.5 -52.5t-5 -100.5t-1.5 -165l8 -1l287 326h90l-1 -9l-291 -294q-2 -2 -5 -5.5t-3 -5.5q0 -4 5 -9l88 -88t95.5 -94.5t87 -84.5
t62.5 -58l-1 -11l-85 -31q-79 84 -161.5 164t-163.5 162z" />
    <glyph glyph-name="L" unicode="L" horiz-adv-x="494" 
d="M492 48l-14 -53q-28 3 -76 4.5t-106.5 2t-118.5 0.5h-112v14q12 17 17 52.5t5 74.5v478q0 11 -5 21t-16 12q-10 2 -23.5 5t-23.5 5t-11 2l1 17l7 7h237l6 -6v-21l-12 -2.5t-27 -5.5t-26 -6q-9 -1 -13 -9t-5 -16q-6 -109 -6 -231q0 -85 2 -170.5t5 -166.5q1 -4 5 -8.5
t8 -4.5q39 0 88 2t95 5t76.5 5.5t32.5 2.5z" />
    <glyph glyph-name="M" unicode="M" horiz-adv-x="962" 
d="M751 690h103v-12q-20 -10 -22.5 -36t-2.5 -59q0 -123 2.5 -240.5t15.5 -240.5q2 -22 17.5 -39t40.5 -17q10 0 26.5 2.5t29.5 3.5v-24q-33 -12 -69.5 -23t-66.5 -11q-22 0 -42.5 8t-20.5 27v182q0 8 -1 38t-2 72.5t-2.5 87t-2.5 82t-2 57.5q0 15 -8 15q-6 0 -11 -8
l-286 -554h-30q-28 68 -59 141.5t-61.5 146.5t-59 137t-52.5 112q-6 10 -11 10t-11 -32t-12.5 -84t-12.5 -113t-11.5 -120.5t-9 -106t-5.5 -69.5l-75 -26l-7 3q29 147 54.5 295t45.5 296q1 3 1 6v6q0 14 -7 24.5t-21 14.5l-68 19l2 22l7 7h176q28 -80 66 -171t81.5 -184.5
t84.5 -182.5q2 -3 5 -8.5t6 -5.5q8 0 12 9z" />
    <glyph glyph-name="N" unicode="N" horiz-adv-x="732" 
d="M657 694l6 -8q-10 -170 -12.5 -343t-2.5 -343h-36q-17 20 -30.5 36t-36.5 44l-159 198q-76 95 -136.5 165t-97.5 112q-2 3 -5 6t-6 3q-5 0 -6 -6.5t-1 -10.5q0 -48 2 -111t5.5 -133t8 -141.5t8.5 -136.5l-70 -30l-9 9q6 119 9.5 238t3.5 237q0 32 -0.5 64.5t-0.5 64.5
q0 11 -1.5 17t-18.5 13t-65 18l-4 27l8 7h162q50 -66 104 -137t108 -140.5t105 -131t95 -108.5l5 -5t6 -3q4 0 5 3.5t1 4.5q0 38 -1 79.5t-3.5 97t-7 135t-12.5 193.5z" />
    <glyph glyph-name="O" unicode="O" horiz-adv-x="737" 
d="M41 318q0 97 23 165.5t78 128.5q32 34 75 53t91.5 27t94.5 8q56 0 112 -17.5t96 -58.5q31 -31 49.5 -74.5t26.5 -91t8 -94.5q0 -49 -5.5 -100t-35.5 -112q-24 -49 -73 -87.5t-115.5 -60.5t-145.5 -22q-77 0 -130.5 29t-86 77.5t-47.5 108t-15 121.5zM134 348
q0 -70 16.5 -133.5t62.5 -114.5q45 -50 88 -63.5t72 -13.5q62 0 105.5 27.5t70.5 73t39.5 101t12.5 111.5q0 53 -12.5 110t-39.5 105.5t-71 78.5t-107 30q-65 0 -110 -27t-73 -72t-41 -100.5t-13 -112.5z" />
    <glyph glyph-name="P" unicode="P" horiz-adv-x="527" 
d="M172 22l-83 -28l-7 7q2 105 4.5 210.5t2.5 211.5q0 44 -1.5 88.5t-3.5 88.5q-2 30 -23.5 40t-50.5 14v18l7 7h257q123 0 177 -42.5t54 -122.5q0 -92 -64 -156q-33 -34 -83 -47.5t-99 -17.5q-14 -1 -36.5 -1.5t-40 -4t-17.5 -13.5q0 -12 1.5 -53t3.5 -94.5t2 -104.5z
M236 640h-56q-5 0 -7 -3.5t-2 -7.5q-3 -66 -4.5 -144.5t-1.5 -143.5q0 -7 4 -9.5t7 -2.5q104 0 168.5 47t64.5 130q0 52 -24 81t-63.5 41t-85.5 12z" />
    <glyph glyph-name="Q" unicode="Q" horiz-adv-x="740" 
d="M722 -174l7 -20q-29 -12 -73 -26.5t-82 -14.5q-43 0 -79.5 19.5t-67 52t-57 71t-49.5 76.5q-52 0 -105 16t-90 57q-42 47 -63.5 111.5t-21.5 131.5q0 104 23 178t78 131q51 53 119 71t139 18q58 0 114 -16t99 -60q32 -31 50 -75.5t25.5 -91.5t7.5 -89q0 -48 -2 -74.5
t-6 -43.5t-11 -38q-11 -33 -23.5 -60.5t-44.5 -62.5q-34 -37 -82.5 -60t-95.5 -34l-4 -10q12 -22 29.5 -53.5t32.5 -51.5q8 -10 25 -26t47 -28.5t74 -12.5q8 0 24.5 2.5t34 6t28.5 6.5zM365 22q70 0 115.5 29t72 76.5t37.5 103t11 107.5q0 59 -14 116t-42 103.5t-70 74.5
t-99 28q-72 0 -119 -29.5t-74 -78t-38 -106t-11 -112.5q0 -67 19.5 -130.5t65.5 -111.5q29 -30 67.5 -50t78.5 -20z" />
    <glyph glyph-name="R" unicode="R" horiz-adv-x="548" 
d="M275 331l-2 -8l263 -296v-9l-99 -26q-35 45 -74 94.5t-74.5 95t-62.5 78t-38 43.5q-9 9 -20 9q0 -72 0.5 -144.5t4.5 -144.5l-83 -29l-11 9q6 109 7.5 218t1.5 218q0 6 -0.5 25t-1 45t-1 53.5t-0.5 48.5q0 16 -17.5 26t-36 14.5t-23.5 4.5l1 17l6 6h272q92 0 147.5 -35
t55.5 -105q0 -69 -29 -113t-77.5 -66t-108.5 -29zM167 370q0 -4 2 -9.5t7 -5.5q55 0 104.5 17t80.5 54.5t31 96.5q0 48 -25.5 73.5t-64 34.5t-77.5 9h-40q-11 0 -12 -26q-1 -19 -1.5 -49t-1.5 -63t-1.5 -62.5t-1 -48.5t-0.5 -21z" />
    <glyph glyph-name="S" unicode="S" horiz-adv-x="484" 
d="M451 606l-63 -56l-13 3q-13 50 -42 81t-80 31q-48 0 -79.5 -34.5t-31.5 -83.5q0 -39 22 -68t57 -51t74 -39q79 -34 119 -77t40 -103q0 -49 -24.5 -90.5t-64.5 -71t-88 -46t-96 -16.5q-52 0 -98 23.5t-67 78.5l57 66l17 -1q16 -52 48 -86.5t85 -34.5q39 0 71.5 19.5
t52 52.5t19.5 75q0 28 -17.5 54.5t-45.5 47.5t-58 34q-60 26 -101 53t-61.5 61.5t-20.5 83.5q0 63 30.5 105t79 63.5t102.5 21.5q37 0 69 -6.5t59 -27t49 -62.5z" />
    <glyph glyph-name="T" unicode="T" horiz-adv-x="551" 
d="M549 689v-48l-8 -7q-63 3 -101 5t-59 3l-31.5 1.5t-18.5 0.5q-10 0 -11.5 -57.5t-1.5 -148.5q0 -60 2 -135t5 -150t6 -136l-100 -27l-9 9q6 95 9.5 190.5t3.5 190.5v70t-0.5 77.5t-1 68t-0.5 40.5q0 6 -9 6q-18 0 -74.5 -2t-139.5 -5l-8 7v48l7 7q29 -1 48.5 -2.5
t37.5 -3t41 -2.5t57.5 -2t87.5 -1q56 0 126 3.5t136 6.5z" />
    <glyph glyph-name="U" unicode="U" horiz-adv-x="712" 
d="M175 542l-8 -273q0 -84 24 -131t64 -66.5t88 -19.5q47 0 91.5 17.5t84.5 41.5q0 137 1.5 274.5t2.5 273.5l88 35l6 -7q-6 -43 -9 -101t-4.5 -123.5t-2 -132.5t-0.5 -128q0 -41 2 -76t12 -56.5t34 -21.5q15 0 29 3.5t29 4.5l4 -17l-5 -7q-25 -8 -55 -16.5t-56 -14.5
t-42 -6q-19 0 -26 11t-7 27v31l-8 6q-52 -34 -111.5 -56.5t-121.5 -22.5q-69 0 -107 21.5t-54.5 53.5t-22.5 61q-5 35 -6.5 85t-1.5 96q0 58 1 117t1 117v59q0 15 -11.5 25t-27.5 16t-30 8.5t-19 2.5l-2 20l8 7h169l7 -6q-1 -5 -2.5 -23.5t-2.5 -41.5t-2 -42t-1 -25z" />
    <glyph glyph-name="V" unicode="V" horiz-adv-x="707" 
d="M614 680l86 17l6 -19q-24 -30 -47 -63t-42 -63.5t-32 -53t-18 -30.5q-54 -100 -106.5 -217t-95.5 -241l-68 -26l-10 7l-143 482q-11 35 -22 69t-26 67q-12 25 -32.5 32.5t-62.5 13.5l-1 27l7 6l175 10q59 -288 165 -560q2 -3 4.5 -4.5t3.5 -2.5q5 2 22.5 39t48.5 104
l119 274q14 34 32 67t37 65z" />
    <glyph glyph-name="W" unicode="W" horiz-adv-x="1050" 
d="M965 675l81 14v-21l-115 -188q-18 -29 -46 -82.5t-61 -119.5t-65 -134.5t-56 -127.5l-60 -27l-12 8q-24 136 -51.5 270.5t-57.5 268.5l-2 8t-5 4q-2 0 -4.5 -4t-4.5 -8l-28 -63q-27 -60 -60.5 -136.5t-65.5 -158.5t-56 -160l-64 -29l-11 5q-17 96 -36 191.5t-42 189.5
q-15 61 -31 121t-39 118q-8 21 -28.5 29t-43.5 12l-2 24l8 7l156 3q5 -24 14 -68.5t21 -101t25.5 -119t27 -123.5t25.5 -114q1 -6 7 -6q5 0 7 4q13 25 34.5 71.5t47.5 104t52.5 118t49 114.5t35.5 92l76 29l7 -6q0 -31 9 -87.5t23.5 -127.5t29.5 -144q5 -21 10.5 -52
t12 -61.5t13 -51.5t13.5 -21t9.5 2.5t3.5 4.5l80 170l109 242q16 35 31.5 64t28.5 53z" />
    <glyph glyph-name="X" unicode="X" horiz-adv-x="624" 
d="M612 672l-187 -206q-15 -17 -29.5 -36t-25 -32.5t-12.5 -17.5q0 -4 12.5 -25.5t31.5 -53t40.5 -65.5t40.5 -62.5t31 -42.5l60 -72q5 -5 18 -13t19 -10l5 -4v-16l-110 -27l-14 6q-13 14 -24.5 30t-21.5 32l-143 239h-12q-16 -19 -42.5 -55t-55.5 -78.5t-53.5 -82.5
t-38.5 -69l-94 -11v16l271 329q-1 0 -12 17t-27.5 45.5t-35.5 61t-37.5 64.5t-32.5 57q-16 29 -45 40t-60 19v25l7 6q13 1 39 2t55.5 3t51.5 3l147 -266h9q10 10 30 36.5t44.5 60.5t47.5 67t39 57.5t19 30.5l95 13v-15z" />
    <glyph glyph-name="Y" unicode="Y" horiz-adv-x="592" 
d="M234 299l-149 295q-17 34 -36.5 43.5t-49.5 13.5v28l7 7h145l141 -325l4.5 -4.5t7.5 -3.5q3 0 14 15.5t26 40t30 51.5q3 5 18 31t35.5 61t41 69t33.5 55l85 17l4 -18q-55 -72 -100.5 -132t-85.5 -116.5t-82 -120.5l9 -288l-90 -29l-11 9q2 75 2.5 150.5t0.5 150.5z" />
    <glyph glyph-name="Z" unicode="Z" horiz-adv-x="603" 
d="M552 664q-51 -72 -106.5 -155.5t-110 -166.5t-101.5 -156t-81 -125l6 7h429l9 -9l-18 -71q-48 5 -116.5 7t-147.5 3.5t-159 1.5h-152l-1 21l424 606l-7 10q-140 0 -218 -3.5t-98 -5.5l-6 5v54l9 8q111 -7 222 -9.5t223 -2.5v-19z" />
    <glyph glyph-name="bracketleft" unicode="[" horiz-adv-x="258" 
d="M247 712l-119 -13v-782l119 -13v-24q-40 0 -80 -0.5t-79 -4.5v866q29 -4 74 -4.5t85 -0.5v-24z" />
    <glyph glyph-name="backslash" unicode="\" horiz-adv-x="390" 
d="M372 -192l-389 896l5 11l31 7l388 -893l-3 -13z" />
    <glyph glyph-name="bracketright" unicode="]" horiz-adv-x="258" 
d="M130 699l-119 13v24q41 0 85.5 0.5t73.5 4.5v-866q-39 4 -78.5 4.5t-80.5 0.5v24l119 13v782z" />
    <glyph glyph-name="asciicircum" unicode="^" horiz-adv-x="500" 
d="M272 692l157 -160l-39 -26l-121 124l-143 -131l-23 12z" />
    <glyph glyph-name="asciicircum" unicode="&#x2c6;" horiz-adv-x="500" 
d="M272 692l157 -160l-39 -26l-121 124l-143 -131l-23 12z" />
    <glyph glyph-name="underscore" unicode="_" horiz-adv-x="756" 
d="M756 -114h-756v40h756v-40z" />
    <glyph glyph-name="grave" unicode="`" horiz-adv-x="520" 
d="M232 511l-162 154l47 36l13 -2l120 -157z" />
    <glyph glyph-name="a" unicode="a" horiz-adv-x="548" 
d="M385 431l53 31l5 -5q-6 -109 -6 -218q0 -23 -1.5 -55t0.5 -62t11 -50t29 -20q11 0 30 6t35 12l7 -24q-20 -12 -43 -25.5t-45 -23t-38 -9.5q-28 0 -40 17t-17 42l-15 4q-37 -24 -78 -43.5t-85 -19.5q-42 0 -70 18t-45 47t-24.5 63.5t-7.5 68.5q0 53 13.5 103t42 90.5
t73.5 64t109 23.5q24 0 53.5 -9t53.5 -26zM363 99v230q0 20 -2 38t-14 31q-13 14 -31 23.5t-37 9.5q-55 0 -95 -38q-17 -16 -34.5 -59t-19.5 -119q-1 -31 5 -62.5t23 -57.5q16 -25 43.5 -33t55.5 -8q29 0 56.5 14t49.5 31z" />
    <glyph glyph-name="b" unicode="b" horiz-adv-x="522" 
d="M-14 661l6 5l169 18l6 -7q-6 -61 -10 -122t-4 -123v-33l9 -5q40 30 84 52t95 22q47 0 78 -22.5t47 -59t16 -78.5q0 -33 -4 -66t-15 -65q-17 -53 -58.5 -95.5t-96 -67t-111.5 -24.5q-25 0 -52.5 10t-46 39t-18.5 84v476q0 18 -5.5 24t-25.5 8.5t-63 8.5v21zM157 347
q-1 -25 -2.5 -57t-1.5 -61q0 -56 6.5 -99.5t27.5 -67.5t65 -24q53 0 85.5 28t47 71.5t14.5 89.5q0 55 -9.5 87.5t-20.5 48.5q-10 15 -28 29t-47 14q-40 0 -74 -16.5t-63 -42.5z" />
    <glyph glyph-name="c" unicode="c" horiz-adv-x="455" 
d="M434 114l11 -18q-46 -46 -101.5 -80.5t-122.5 -34.5q-61 0 -96 22.5t-51.5 58.5t-21 77t-4.5 78q0 75 32.5 133.5t89.5 91.5t131 33q49 0 80.5 -27.5t35.5 -70.5l-54 -53l-17 6q-7 50 -30 78t-55 28q-42 0 -71 -28.5t-44 -72t-15 -87.5q0 -32 6 -67t21 -65.5t42.5 -49.5
t71.5 -19t82 20.5t71 48.5z" />
    <glyph glyph-name="d" unicode="d" horiz-adv-x="551" 
d="M268 660l5 4l163 20l8 -9v-565q2 -22 9 -42t29 -20q8 0 27 6.5t34 12.5l8 -23q-29 -20 -64.5 -41.5t-64.5 -21.5t-43 23.5t-16 49.5q-38 -26 -84 -49t-90 -23q-43 0 -71.5 18t-45.5 47.5t-24.5 64.5t-7.5 68q0 53 14.5 103t43.5 90.5t73.5 64.5t105.5 24q22 0 42.5 -4
t40.5 -11l7 4q0 27 -0.5 57t-1.5 55.5t-5 38.5q-5 18 -20.5 25.5t-34.5 9t-36 1.5zM363 95l4 215q0 27 -6 54.5t-26 45.5t-62 18t-70 -21.5t-45 -55.5t-24 -73.5t-7 -74.5t11 -71t36.5 -60t70.5 -24q26 0 62 13.5t56 33.5z" />
    <glyph glyph-name="e" unicode="e" horiz-adv-x="462" 
d="M417 319l-282 -122q3 -31 16.5 -64t41 -55t71.5 -22q41 0 80.5 21t73.5 47l11 -2l13 -18q-31 -29 -67.5 -55.5t-77 -43.5t-83.5 -17q-50 0 -82.5 21t-50.5 55.5t-25.5 77t-7.5 84.5q0 44 11 86t40 76q37 43 88.5 66.5t108.5 23.5q65 0 103.5 -40t38.5 -98q0 -9 -6.5 -13
t-14.5 -8zM177 396q-29 -31 -37.5 -65t-8.5 -71q0 -4 0.5 -8.5t1.5 -9.5l4 -4l202 80q5 2 9 8t4 18q0 21 -11 43t-31.5 36.5t-48.5 14.5q-25 0 -46.5 -11t-37.5 -31z" />
    <glyph glyph-name="f" unicode="f" horiz-adv-x="329" 
d="M10 434h105l6 6q0 26 3 60.5t15 61.5q23 53 64.5 80t88.5 27q41 0 62 -17t31 -37l-58 -54l-12 4q-2 11 -6.5 26t-16 26.5t-35.5 11.5q-21 0 -34.5 -26t-19.5 -69t-6 -94l4 -6h124l5 -7l-7 -22l-7 -6h-115l-6 -6v-111q0 -70 2.5 -139.5t7.5 -130.5l-79 -24l-17 11
q5 74 9 145t4 139v108l-6 8h-112l-5 7l4 22z" />
    <glyph glyph-name="g" unicode="g" horiz-adv-x="511" 
d="M356 52q-39 -22 -81.5 -42.5t-89.5 -20.5q-41 0 -74 24.5t-52 68.5t-19 102q0 89 30.5 152t82.5 96t116 33q31 0 61.5 -7.5t55.5 -26.5l51 29l14 -6q-2 -34 -3.5 -67.5t-3 -74.5t-2 -96.5t-0.5 -133.5q0 -29 -3.5 -76.5t-18.5 -91.5q-12 -33 -35 -57.5t-38 -35.5
q-38 -29 -77 -41.5t-85 -12.5q-33 0 -67 11t-71 45l49 62h14q9 -18 26 -35.5t36.5 -29.5t37.5 -12q53 0 86.5 32t50 86t18.5 119zM365 99v264q-2 35 -29.5 51.5t-59.5 16.5q-44 0 -73 -22.5t-46 -58t-24 -74.5t-7 -73q0 -45 18 -79t44.5 -53t51.5 -19q23 0 47.5 8t45.5 19
t32 20z" />
    <glyph glyph-name="h" unicode="h" horiz-adv-x="592" 
d="M589 107l13 -10v-11q-33 -35 -72.5 -65.5t-84.5 -30.5q-35 0 -50.5 31t-15.5 68q0 27 1 61.5t2 66t1 49.5q0 38 -6 69.5t-24.5 50t-55.5 18.5q-41 0 -77 -19.5t-65 -40.5q0 -82 -1 -164.5t-1 -163.5l-72 -22l-6 10q5 99 9 198t5 198v132.5t-20 83.5q-7 9 -32 15.5
t-45 10.5v18l5 4l158 17l6 -7q-3 -64 -3.5 -135.5t-0.5 -140.5l8 -8q44 27 95 51.5t106 24.5q11 0 31 -7t34 -21q23 -21 23.5 -69.5t0.5 -108.5v-74q0 -15 -0.5 -36t2.5 -41t12.5 -33.5t29.5 -13.5q29 0 52.5 16t37.5 29z" />
    <glyph glyph-name="i" unicode="i" horiz-adv-x="323" 
d="M206 625q-1 -25 -18.5 -40.5t-41.5 -15.5t-41 17t-17 41q0 26 21 41t43 15q26 0 40 -17.5t14 -40.5zM192 392l-8 -210q0 -55 9 -86t35 -31q29 0 50.5 13.5t41.5 31.5l13 -10v-11q-17 -22 -39.5 -44.5t-48 -37.5t-53.5 -15q-21 0 -39.5 7.5t-29.5 31.5t-11 73l6 221
q0 39 -7.5 62t-27.5 23q-16 0 -39 -10.5t-41 -21.5l-13 18q34 27 72.5 51t67.5 24q34 0 48 -23t14 -56z" />
    <glyph glyph-name="j" unicode="j" horiz-adv-x="291" 
d="M159 683q23 0 40.5 -15t17.5 -39q0 -25 -17.5 -44.5t-43.5 -19.5q-25 0 -40.5 18t-15.5 42t17.5 41t41.5 17zM18 375l-13 18q21 16 45.5 33.5t49 29.5t46.5 12q36 0 47.5 -21t13.5 -46q3 -16 4.5 -51t2 -75t0.5 -73.5v-47.5v-33t-1.5 -58.5t-3.5 -61.5t-7 -42
q-22 -65 -75 -111.5t-121 -78.5l-16 16q56 33 87 67.5t41 71.5q6 23 10 55.5t6 66.5t3 63t1 45q0 91 -2 142.5t-6.5 75.5t-13 30t-22.5 6q-12 0 -34.5 -11.5t-41.5 -21.5z" />
    <glyph glyph-name="k" unicode="k" horiz-adv-x="516" 
d="M167 266l134 123q39 36 59 54t31 26.5t23 15.5l46 -29v-11q-56 -33 -109.5 -71t-103.5 -80q-5 -4 -11.5 -10t-6.5 -10t3 -8t5 -8q22 -28 49.5 -60t55.5 -60.5t52 -46.5t39 -18q25 0 43.5 11t34.5 28l19 -20q-12 -16 -31.5 -39.5t-44 -41.5t-51.5 -18q-22 0 -38 10.5
t-41 38.5l-14.5 19.5t-38.5 50.5t-52 65t-55 64l-12 -7v-221l-71 -20l-6 7q3 118 7.5 234t4.5 234q0 38 -2 72t-7 54q-7 23 -26.5 31.5t-59.5 12.5v21l5 4l160 23l-3 -7v-413h13z" />
    <glyph glyph-name="l" unicode="l" horiz-adv-x="301" 
d="M289 112h11l11 -12q-17 -26 -40 -52t-51 -42.5t-61 -16.5q-25 0 -43.5 11.5t-28.5 42t-10 87.5l7 378q0 25 -0.5 53.5t-4.5 46.5q-3 16 -18 21.5t-34 6.5t-35 2v23l6 5l165 20l6 -7q-3 -105 -8.5 -210t-5.5 -210q0 -49 -0.5 -93t9 -71.5t39.5 -29.5q25 0 46 15.5t40 31.5
z" />
    <glyph glyph-name="m" unicode="m" horiz-adv-x="873" 
d="M383 -4q0 16 2.5 59t5 100t2.5 114q0 62 -16 96.5t-66 34.5q-23 0 -48.5 -9.5t-44.5 -20.5t-24 -14q-2 -54 -3.5 -108t-1.5 -109q0 -31 0.5 -62.5t1.5 -62.5l-67 -24l-14 8q1 69 4 138t3 137q0 38 -1.5 69.5t-9.5 50.5t-29 19q-12 0 -35 -9.5t-40 -19.5l-12 19
q30 24 65 46t72 23q38 0 50 -23t12 -51l8 -6q39 21 83 44.5t89 23.5q28 0 52 -14t38 -38l16 -2q19 10 45 23t56 22.5t59 9.5q22 0 42.5 -5.5t36.5 -21.5q20 -20 20 -65v-120v-131q0 -13 3.5 -28.5t14.5 -26t33 -10.5q16 0 37.5 13.5t39.5 26.5h14l7 -21q-22 -20 -48 -41
t-54 -34.5t-58 -13.5q-35 0 -51.5 24.5t-16.5 52.5q0 6 1 29t1.5 54.5t1.5 65t1 61.5q0 62 -18 96.5t-67 34.5q-37 0 -64 -11t-48 -23q-1 -34 -1.5 -68.5t-0.5 -69.5q0 -106 6 -210l-74 -28z" />
    <glyph glyph-name="n" unicode="n" horiz-adv-x="631" 
d="M195 18l-70 -24l-15 7q1 19 2.5 56t3 81.5t2.5 87t1 72.5q0 50 -6 82.5t-31 32.5q-16 0 -34.5 -10.5t-40.5 -24.5l-17 22q21 15 45 31.5t48 28t42 11.5q38 0 53 -20t19 -48l8 -6q42 26 91.5 49t97.5 23q22 0 42.5 -6t34.5 -23q10 -12 14 -43.5t5 -70t1 -70.5
q0 -75 0.5 -118t10 -60.5t37.5 -17.5q17 0 39 13t41 27h13l9 -21q-34 -34 -77.5 -61.5t-79.5 -27.5q-41 0 -56.5 26t-15.5 62l5 171q0 75 -18.5 118t-71.5 43q-34 0 -68 -19.5t-61 -41.5q-2 -54 -4 -116t-2 -117q0 -21 1 -44.5t2 -53.5z" />
    <glyph glyph-name="o" unicode="o" horiz-adv-x="537" 
d="M242 -14q-69 0 -110.5 30.5t-60.5 78.5t-23 101q0 52 9.5 104t45.5 91q35 39 85.5 56.5t102.5 17.5q74 0 117 -33t62 -85t19 -108q0 -49 -12.5 -96t-45.5 -84q-35 -40 -85.5 -56.5t-103.5 -16.5zM142 316q-4 -19 -6 -38t-2 -39q0 -31 6 -68t20.5 -69.5t41 -53.5t67.5 -21
t66.5 18t39.5 47t19.5 63t5.5 65t-5 66.5t-18.5 67.5t-40 52t-68.5 20q-40 0 -76 -27t-50 -83z" />
    <glyph glyph-name="p" unicode="p" horiz-adv-x="562" 
d="M203 -206l-81 -31l-10 11q2 17 3 49.5t1.5 71.5t1 78.5t0.5 71.5v49v221q0 23 -3.5 45t-12 37t-23.5 15q-16 0 -35.5 -9t-37.5 -20l-14 19q30 24 66.5 46t69.5 22q34 0 48 -21t17 -54l8 -4q41 32 86.5 53t97.5 21q51 0 81 -26t43 -64.5t13 -76.5q0 -55 -18.5 -110
t-53 -100t-82.5 -72t-106 -27q-29 0 -59 8l-10 -8q1 -23 2 -59t3 -73t5 -63zM195 66q18 -16 40.5 -26.5t47.5 -10.5q45 0 75 19t47.5 50.5t25 68t7.5 72.5q0 44 -12.5 81t-35.5 60t-55 23q-38 0 -71 -15t-68 -43q0 -2 -0.5 -15t-1 -29.5t-1 -30.5t-0.5 -18q0 -41 0.5 -84
t1 -72t0.5 -30z" />
    <glyph glyph-name="q" unicode="q" horiz-adv-x="508" 
d="M370 -243l-16 16q1 15 2 47t2 73t2 83t2 78l-7 5q-38 -28 -81.5 -47t-90.5 -19q-39 0 -66.5 18t-44.5 47t-24.5 63t-7.5 65q0 52 14 102.5t43 92t74.5 66t108.5 24.5q23 0 50.5 -8.5t48.5 -19.5l9 2l44 59l21 -4q-7 -87 -10.5 -187.5t-3.5 -199.5q0 -91 3 -175.5
t9 -151.5zM362 105v226q0 19 -2 39t-14 32q-13 14 -30 23t-37 9q-56 0 -88.5 -32t-45.5 -82.5t-13 -106.5q0 -41 11.5 -77.5t36.5 -58.5t66 -22q29 0 60 14t56 36z" />
    <glyph glyph-name="r" unicode="r" horiz-adv-x="416" 
d="M352 339l-12 5q-4 21 -16 39.5t-37 18.5q-31 0 -50 -21t-27 -41q-7 -16 -8 -46t0 -63.5t1 -60.5q0 -75 3 -152l-70 -21l-15 9q5 53 8.5 115t3.5 122q0 39 -1 78t-10 65t-32 26q-17 0 -38 -10t-40 -21l-12 17q20 16 43.5 33t47.5 29.5t44 12.5q34 0 51 -20t21 -52l10 -4
q15 14 33.5 30.5t38.5 28t38 11.5q71 0 79 -79z" />
    <glyph glyph-name="s" unicode="s" horiz-adv-x="379" 
d="M342 383l-55 -37l-12 7q-2 33 -16.5 55.5t-48.5 22.5q-35 0 -58.5 -23t-23.5 -58q0 -30 27.5 -51.5t82.5 -44.5q58 -25 86.5 -53t28.5 -63q0 -51 -28.5 -85.5t-72 -52t-87.5 -17.5q-45 0 -83.5 18t-63.5 65l49 71l14 -1q3 -46 35 -80.5t79 -34.5q32 0 58.5 22.5
t26.5 53.5q0 26 -15 44t-37.5 31t-46.5 23q-31 13 -60 30t-47 41t-18 57q0 45 26 77t66 49t81 17q26 0 51.5 -8t43 -26t18.5 -49z" />
    <glyph glyph-name="t" unicode="t" horiz-adv-x="385" 
d="M121 582l84 29l7 -5q-4 -43 -7 -82.5t-4 -83.5l6 -5h128l5 -4l-8 -26l-6 -5h-119l-6 -6v-189q0 -35 4.5 -70t20 -57.5t46.5 -22.5q19 0 44 13.5t47 27.5l12 -2l7 -15q-34 -32 -77 -60t-87 -28q-17 0 -37.5 6.5t-34.5 24.5q-10 14 -15 30t-6.5 50t-1.5 101v190l-6 7h-112
l-5 5l7 24l6 6h104l6 6v80t-2 61z" />
    <glyph glyph-name="u" unicode="u" horiz-adv-x="638" 
d="M635 105l11 -19q-23 -20 -51 -42t-56 -37t-54 -15q-34 0 -50 20.5t-19 51.5l-8 1q-28 -17 -60.5 -34.5t-65 -29t-62.5 -11.5q-43 0 -65.5 19t-31 47t-8.5 56q0 12 0.5 35t1.5 48t1.5 47t0.5 33q0 46 -1.5 69.5t-5 34t-10.5 17.5q-8 9 -28 9q-10 0 -32 -10t-39 -20l-13 20
q20 15 43.5 32t47.5 29t45 12q38 0 51 -21t14 -69.5t1 -133.5q0 -51 3.5 -95t22 -71t64.5 -27q34 0 68 17.5t63 35.5q0 49 0.5 110.5t0.5 114.5v62.5t-1 43.5l77 35l13 -11q-12 -139 -12 -278q0 -30 2 -56.5t12.5 -43t34.5 -16.5q20 0 44 14t43 28z" />
    <glyph glyph-name="v" unicode="v" horiz-adv-x="493" 
d="M413 460q3 2 8 2q14 0 30 -28t16 -72q0 -41 -17 -78.5t-38 -71.5q-34 -54 -74.5 -102t-84.5 -93l-17 -17t-13 -11h-24l-69 258q-11 43 -23.5 79.5t-25.5 59t-29 22.5t-31 -5.5t-32 -15.5l-9 24q27 19 61.5 38.5t63.5 19.5q26 0 41 -21.5t26.5 -61t25.5 -93.5
q6 -22 14 -57.5t17.5 -70.5t19 -59t17.5 -24q4 0 11 8t13 14q25 30 49.5 64.5t41 71.5t16.5 72q0 24 -12 50t-25 50q-1 1 -1 5t4 8z" />
    <glyph glyph-name="w" unicode="w" horiz-adv-x="801" 
d="M668 416q-1 2 -1 6q0 6 2 7l57 35q1 1 6 1q13 0 22.5 -19t15 -42t5.5 -35q0 -41 -17.5 -79.5t-38.5 -73.5q-34 -55 -74 -105.5t-84 -97.5q-7 -7 -16 -14t-19 -7q-8 0 -16 7t-10 14q-6 18 -17 56.5t-24 87.5t-26 99.5t-24 93.5q-1 3 -3 6.5t-6 3.5q-9 0 -11 -5
q-42 -77 -90 -169t-89 -181l-42 -13l-7 6l-24 224q-8 72 -17.5 111t-19 55.5t-17 20t-11.5 3.5q-17 0 -40 -10t-43 -21l-9 20q20 14 43 30t47 27t44 11q27 0 42.5 -15.5t23.5 -37.5t12 -43q11 -60 16.5 -121t12.5 -122l11 -2q43 77 85 155.5t81 157.5l52 26l12 -3
q20 -94 42 -186.5t55 -181.5q2 -5 7 -10t11 -5q3 0 8 3.5t7 6.5q26 32 52 67.5t44 74.5t18 79q0 25 -12 53t-26 51z" />
    <glyph glyph-name="x" unicode="x" horiz-adv-x="490" 
d="M410 462l31 -29q3 -3 3 -4q0 -3 -3 -5q-42 -29 -87.5 -74t-84.5 -91q21 -45 46 -90.5t50.5 -75.5t47.5 -30q18 0 37 12.5t34 25.5h8l8 -19q-17 -19 -39 -41t-45 -37.5t-44 -15.5q-38 0 -69.5 53t-81.5 150h-7q-29 -45 -57.5 -93t-51.5 -106l-16 -4l-28 25v8
q32 52 68.5 103t73.5 99q-14 29 -30 61t-33.5 60t-35.5 45.5t-36 17.5q-16 0 -33 -8t-31 -17l-14 18q18 14 39 28.5t42 25t37 10.5q13 0 28.5 -4t25.5 -15q11 -11 26.5 -36.5t33 -56t31.5 -58.5l6 -1q18 24 42 53.5t49.5 60t47.5 55.5q1 2 6 2q4 0 6 -2z" />
    <glyph glyph-name="y" unicode="y" horiz-adv-x="572" 
d="M104 -182l-2 11l44 56h13q16 -28 43 -52.5t61 -24.5q40 0 66 16.5t41 41.5t22.5 52t11.5 48q5 25 6 49.5t2 48.5l-6 5q-42 -26 -91 -51.5t-97 -25.5q-36 0 -57 16t-31 41.5t-13 54t-3 53.5q0 34 2 67t2 70q0 54 -7.5 85t-38.5 31q-13 0 -33.5 -9.5t-37.5 -18.5l-11 19
q5 4 21 14.5t36.5 22.5t42.5 21t39 9q32 0 47.5 -21t15.5 -49q0 -42 -2 -85t-2 -87q2 -46 5.5 -74t9 -43.5t13.5 -26.5q11 -14 28 -20t35 -6q36 0 71 18t63 34q1 26 1.5 53t0.5 54q0 54 -2 107.5t-6 105.5l79 38l12 -4q-5 -76 -6 -152t-1.5 -144.5t-3 -123.5t-10.5 -91
q-18 -65 -55.5 -105.5t-87 -59.5t-103.5 -19q-35 0 -71 15t-56 36z" />
    <glyph glyph-name="z" unicode="z" horiz-adv-x="463" 
d="M402 462h6l14 -13q-41 -44 -89.5 -101t-99.5 -122t-101 -132l5 -8q49 -5 94.5 -8t76 -4t34.5 -1q43 0 67.5 25.5t41.5 52.5l22 -12l-41 -80q-15 -30 -37 -49t-60 -18q-5 0 -28 2t-51 5.5t-50 5.5l-117 11q-18 0 -34 -13t-28 -30h-6l-15 19l295 381q-7 -1 -14.5 -1.5
t-15.5 -0.5q-25 0 -59 9.5t-61 9.5q-28 0 -47 -19.5t-42 -51.5l-20 13l50 89q15 23 27.5 32t34.5 9q26 0 55.5 -7.5t60.5 -15.5t59 -8q22 0 39.5 9t33.5 22z" />
    <glyph glyph-name="braceleft" unicode="{" horiz-adv-x="313" 
d="M303 -154v-24q-29 0 -63.5 1t-52.5 5q-37 10 -51 39.5t-15 73t-1 93.5q0 35 -1 76.5t-6 76.5t-18 49q-14 16 -39 19.5t-48 3.5v26q29 0 49 3t36 17t21 45.5t5 74.5v89q0 81 6.5 125t25.5 63.5t55.5 23.5t96.5 4v-24q-22 0 -44.5 -1.5t-42.5 -6.5q-19 -5 -28.5 -24
t-13 -46t-4 -56t-0.5 -54q0 -100 -18.5 -163.5t-66.5 -80.5v-1q35 -12 52.5 -38.5t24.5 -61t7.5 -72t0.5 -71.5q0 -68 7 -106t23 -54.5t41.5 -20t61.5 -3.5z" />
    <glyph glyph-name="bar" unicode="|" horiz-adv-x="216" 
d="M128 -159l-40 -8v897l40 8v-897z" />
    <glyph glyph-name="braceright" unicode="}" horiz-adv-x="313" 
d="M10 -175v24q20 0 41.5 1t38.5 5q21 5 32 23.5t15.5 45t5 55.5t0.5 54q0 33 0.5 70t7.5 72t25 62t52 39v1q-28 10 -49.5 40t-28.5 81q-8 61 -6 121.5t-7 119.5q-7 37 -25.5 51.5t-44.5 16.5t-57 2v24q59 -1 98.5 -3.5t59.5 -28.5q16 -20 21 -40.5t5 -53.5v-90
q0 -72 2.5 -117.5t13 -69.5t33 -33t62.5 -9v-26q-26 1 -54 -5q-30 -7 -42 -40t-14 -80.5t-2 -99.5q0 -80 -8 -123.5t-28 -62.5t-55.5 -22.5t-91.5 -3.5z" />
    <glyph glyph-name="asciitilde" unicode="~" horiz-adv-x="672" 
d="M342 291l74 -46q17 -10 35.5 -18t38.5 -8q30 0 47.5 19.5t32.5 47.5l21 -11q-15 -36 -43 -66.5t-69 -30.5q-28 0 -55 10.5t-50 25.5l-99 63q-18 11 -38 19.5t-42 8.5q-30 0 -49 -18.5t-41 -58.5l-22 12q22 44 51 75.5t73 31.5q33 0 68.5 -18.5t66.5 -37.5z" />
    <glyph glyph-name="exclamdown" unicode="&#xa1;" horiz-adv-x="216" 
d="M54 442q0 23 17 40t41 17q23 0 39.5 -17t16.5 -40t-16.5 -40t-39.5 -17q-24 0 -41 17t-17 40zM96 304l16 -2l36 -371q2 -22 3.5 -43.5t1.5 -43.5q0 -15 -7 -30.5t-30 -15.5q-24 0 -37 13.5t-13 51.5q-1 13 0.5 28.5t2.5 29.5z" />
    <glyph glyph-name="cent" unicode="&#xa2;" horiz-adv-x="461" 
d="M263 -159l-40 -8v148h-9q-61 0 -96 22.5t-51.5 58.5t-21 77t-4.5 78q0 94 50 161t132 88v168l40 8v-169q15 2 31 2q49 0 80.5 -27.5t35.5 -70.5l-54 -53l-17 6q-6 47 -26.5 74.5t-49.5 30.5v-388h2q44 0 82 20.5t71 48.5l9 -2l11 -18q-38 -37 -81.5 -67.5t-93.5 -41.5
v-146zM124 248q0 -37 8 -78t29.5 -73t61.5 -44v378q-32 -10 -54.5 -39t-33.5 -67.5t-11 -76.5z" />
    <glyph glyph-name="sterling" unicode="&#xa3;" horiz-adv-x="649" 
d="M301 134q27 -18 61.5 -32t67.5 -22t55 -8q32 0 54 18t33.5 47.5t11.5 62.5q0 13 -1 29t-3 26l24 5q3 -13 4 -31.5t1 -26.5q0 -42 -7.5 -82.5t-36.5 -71.5q-22 -22 -43.5 -38.5t-53.5 -16.5q-61 0 -105 18t-71 40q-49 32 -86.5 48t-57.5 16q-33 0 -54 -20.5t-32.5 -49
t-19.5 -51.5l-20 17q4 48 38 105q17 28 44 44t50 39q15 15 27 47t21 70q-26 -1 -52.5 -1.5t-53.5 -1.5l8 45q32 -1 55.5 -2t50.5 -3q5 26 8 50q17 130 76.5 206t165.5 76q38 0 69.5 -18.5t31.5 -59.5q0 -30 -11.5 -43t-23 -15.5l-11.5 -2.5q-17 0 -26.5 8t-9.5 36
q0 24 -18.5 42.5t-44.5 18.5q-40 0 -62.5 -27t-34 -71t-19.5 -96.5t-20 -102.5l178 6l-4 -48q-45 1 -75 2t-55 1.5t-54 1.5q-3 -7 -5 -14q-8 -30 -25.5 -56t-36.5 -44.5t-35 -26.5l3 -6q40 0 69 -9t45 -18z" />
    <glyph glyph-name="currency" unicode="&#xa4;" horiz-adv-x="590" 
d="M122 531l48 -48q54 41 125 41q69 0 125 -41l48 48l47 -47l-49 -49q23 -25 32.5 -54t9.5 -68q0 -37 -9.5 -65.5t-32.5 -57.5l49 -49l-45 -45l-48 48q-28 -22 -57.5 -32t-69.5 -10t-69.5 10t-57.5 32l-48 -48l-45 45l49 49q-22 29 -32 57.5t-10 65.5q0 39 10 68t32 54
l-49 49zM298 465q-43 0 -79 -20.5t-57 -54.5t-21 -76t21 -77t56 -55.5t77 -20.5q43 0 77.5 20.5t55.5 55t21 76.5q0 41 -21 75.5t-55 55.5t-75 21z" />
    <glyph glyph-name="yen" unicode="&#xa5;" horiz-adv-x="623" 
d="M250 299l-15 30h-143l7 40h116l-114 225q-17 34 -36.5 43.5t-49.5 13.5v28l7 7h145l141 -325l4.5 -4.5t7.5 -3.5q3 0 14 15.5t26 40t30 51.5q3 5 18 31t35.5 61t41 69t33.5 55l85 17l4 -18q-69 -90 -122.5 -161t-103.5 -145h131l-6 -40h-152q-7 -11 -15 -23l2 -69h173
l-6 -40h-166l6 -179l-90 -29l-11 9q1 50 2 99.5t1 99.5h-156l7 40h149v31.5v30.5z" />
    <glyph glyph-name="brokenbar" unicode="&#xa6;" horiz-adv-x="208" 
d="M124 335l-40 -8v403l40 8v-403zM124 -159l-40 -8v403l40 8v-403z" />
    <glyph glyph-name="section" unicode="&#xa7;" horiz-adv-x="465" 
d="M35 23l70 27l8 -5q2 -51 33.5 -88.5t84.5 -37.5q31 0 54.5 18t37 47.5t13.5 63.5q0 31 -18.5 52t-50.5 38.5t-73 37.5q-43 19 -75.5 40t-50.5 50t-18 72q0 35 14.5 66.5t33.5 59.5q-4 15 -7 30t-3 31q0 49 21 88.5t59.5 63.5t89.5 24q25 0 52 -7t46.5 -24t19.5 -48
q0 -5 -2 -16.5t-4 -20.5l-59 -21l-15 11q0 45 -17.5 70.5t-50.5 25.5q-38 0 -60.5 -33t-22.5 -77q0 -37 18 -57.5t49 -35.5t68 -37q24 -13 50 -26t48.5 -28.5t37 -37.5t14.5 -54q0 -78 -52 -136q10 -16 14 -35t4 -39q0 -49 -24.5 -90.5t-65 -66.5t-90.5 -25q-40 0 -80 12
t-68 40.5t-33 77.5zM364 166l3 4q10 14 14 30t4 32q0 22 -10.5 40t-25.5 33q-19 20 -52 36t-69.5 31.5t-68 32t-46.5 37.5q-10 -13 -17 -32t-7 -37q0 -32 22 -56.5t56.5 -44t72.5 -36t71.5 -33.5t52.5 -37z" />
    <glyph glyph-name="dieresis" unicode="&#xa8;" horiz-adv-x="520" 
d="M420 595q-1 -25 -18.5 -40.5t-41.5 -15.5t-41 17t-17 41q0 26 21 41t43 15q26 0 40 -17.5t14 -40.5zM218 595q-1 -25 -18.5 -40.5t-41.5 -15.5t-41 17t-17 41q0 26 21 41t43 15q26 0 40 -17.5t14 -40.5z" />
    <glyph glyph-name="copyright" unicode="&#xa9;" horiz-adv-x="632" 
d="M45 437q0 56 21 105.5t58 86.5t86.5 58t105.5 21t105.5 -21t86.5 -58t58 -86.5t21 -105.5t-21 -105.5t-58 -86.5t-86.5 -58t-105.5 -21t-105.5 21t-86.5 58t-58 86.5t-21 105.5zM70 437q0 -68 33 -124t89 -89t124 -33t124 33t89 89t33 124t-33 124t-89 89t-124 33
t-124 -33t-89 -89t-33 -124zM449 534h-8q-15 34 -43 49.5t-65 15.5q-27 0 -53.5 -8t-46.5 -25q-27 -23 -37 -57t-10 -67q0 -34 16.5 -67t31.5 -45q25 -21 48 -31.5t60 -10.5q31 0 59 10t53 24l10 -14q-32 -18 -68 -32t-75 -14q-36 0 -70.5 8.5t-60.5 29.5q-31 26 -44.5 61
t-13.5 72q0 36 12 71t43 61q33 27 76.5 40.5t90.5 13.5q39 0 72.5 -12t56.5 -44z" />
    <glyph glyph-name="ordfeminine" unicode="&#xaa;" horiz-adv-x="366" 
d="M269 550l39 20l4 -3q-2 -36 -3.5 -72.5t-1.5 -72.5q0 -19 1 -38t1 -38q0 -12 4 -27t23 -15q8 0 22 4t26 8l5 -16q-22 -12 -49 -25t-44 -13q-20 0 -29 11.5t-12 27.5l-11 2q-27 -16 -57.5 -28.5t-62.5 -12.5q-40 0 -64 20t-34.5 50t-10.5 59q0 46 18 87.5t57 68t100 26.5
q17 0 39.5 -6t39.5 -17zM253 334v150q0 13 -1.5 25t-10.5 20q-10 9 -22.5 15t-26.5 6q-40 0 -71 -25q-13 -10 -25.5 -37.5t-13.5 -77.5q-1 -20 3.5 -40.5t17.5 -37.5q12 -16 32 -21.5t40 -5.5q22 0 42 9.5t36 19.5z" />
    <glyph glyph-name="guillemotleft" unicode="&#xab;" horiz-adv-x="416" 
d="M164 238l192 188l31 -46l-149 -146l150 -170l-14 -28zM12 238l192 188l31 -46l-149 -146l150 -170l-14 -28z" />
    <glyph glyph-name="logicalnot" unicode="&#xac;" horiz-adv-x="777" 
d="M660 409v-203h-40v163h-563v40h603z" />
    <glyph glyph-name="uni00AD" unicode="&#xad;" 
 />
    <glyph glyph-name="registered" unicode="&#xae;" horiz-adv-x="632" 
d="M45 437q0 56 21 105.5t58 86.5t86.5 58t105.5 21t105.5 -21t86.5 -58t58 -86.5t21 -105.5t-21 -105.5t-58 -86.5t-86.5 -58t-105.5 -21t-105.5 21t-86.5 58t-58 86.5t-21 105.5zM70 437q0 -68 33 -124t89 -89t124 -33t124 33t89 89t33 124t-33 124t-89 89t-124 33
t-124 -33t-89 -89t-33 -124zM327 436l-1 -4l158 -148v-5l-60 -13q-28 30 -59 63.5t-56 59.5t-34 33q-3 2 -6 3t-6 1q0 -36 0.5 -72t2.5 -72l-50 -15l-6 5q4 54 4.5 109t0.5 109q0 4 -0.5 19.5t-1 34t-0.5 32.5q0 8 -10.5 13t-21.5 7t-14 2l1 8l4 4h162q53 0 87.5 -17
t34.5 -53q0 -52 -37.5 -75.5t-91.5 -28.5zM262 455q0 -7 6 -7q33 0 62.5 8.5t48.5 27t19 48.5q0 25 -16 37.5t-39.5 16.5t-45.5 4h-24q-7 0 -7 -13q-1 -12 -1.5 -32t-1 -40.5t-1 -34.5t-0.5 -15z" />
    <glyph glyph-name="macron" unicode="&#xaf;" horiz-adv-x="520" 
d="M375 555h-236l7 40h235z" />
    <glyph glyph-name="degree" unicode="&#xb0;" horiz-adv-x="332" 
d="M69 575q0 41 28.5 69t68.5 28q41 0 69 -28t28 -69q0 -40 -28 -68.5t-69 -28.5q-40 0 -68.5 28.5t-28.5 68.5zM99 575q0 -28 19.5 -47.5t47.5 -19.5t47.5 19.5t19.5 47.5t-19.5 47.5t-47.5 19.5t-47.5 -19.5t-19.5 -47.5z" />
    <glyph glyph-name="plusminus" unicode="&#xb1;" horiz-adv-x="763" 
d="M399 276h313l-5 -40h-308v-271h314l-6 -40h-658l7 40h303v271h-310l7 40h303v304l40 6v-310z" />
    <glyph glyph-name="uni00B2" unicode="&#xb2;" horiz-adv-x="304" 
d="M312 322l-17 -51h-321v11q32 29 62.5 57.5t59.5 58.5t55 61.5t42.5 66.5t16.5 74q0 18 -8 38t-26 34t-48 14t-55.5 -13t-46.5 -29l-14 13q30 29 69.5 51t85.5 22q47 0 79 -28.5t32 -72.5q0 -34 -19.5 -71.5t-50 -76t-66.5 -76t-69 -71.5q-1 -1 -1 -2q0 -5 9 -5h227z" />
    <glyph glyph-name="uni00B3" unicode="&#xb3;" horiz-adv-x="299" 
d="M144 518v-5q68 -5 109.5 -29t41.5 -74q0 -45 -28.5 -79t-73.5 -53t-93 -19q-63 0 -115 36l-5 7l31 47h8q18 -25 42.5 -44.5t57.5 -19.5q49 0 78 31.5t29 74.5q0 21 -10.5 40t-26.5 34q-22 20 -59.5 24.5t-70.5 4.5v17q66 14 103.5 40t37.5 70q0 30 -23 47t-57 17
q-22 0 -45.5 -11t-44.5 -23l-10 14q29 22 64 41.5t69 19.5q43 0 75 -21.5t32 -65.5q0 -46 -34 -77.5t-82 -43.5z" />
    <glyph glyph-name="acute" unicode="&#xb4;" horiz-adv-x="520" 
d="M243 510l-18 31l120 157l13 2l47 -36z" />
    <glyph glyph-name="mu" unicode="&#xb5;" horiz-adv-x="682" 
d="M492 466l8 -11q-2 -31 -4 -65.5t-2 -57.5v-167q0 -17 3 -40.5t14.5 -41t34.5 -17.5q17 0 38 11t39 22l11 -2l8 -14q-20 -19 -45 -38.5t-52 -32.5t-55 -13q-39 0 -51.5 19t-17.5 50l-8 5q-29 -16 -62 -34t-64.5 -30t-56.5 -12q-24 0 -36.5 7.5t-25.5 22.5l-6 -2
q0 -49 4.5 -103t14.5 -101l-53 -20l-12 6q2 69 3 138t1 138v189q0 28 -3.5 61.5t-7.5 62t-6 40.5l83 26l9 -7v-269q0 -28 5.5 -58t25.5 -50.5t62 -20.5q27 0 64 17t64 46q1 24 1.5 53t1 54t0.5 35q0 44 -1 86.5t-3 85.5z" />
    <glyph glyph-name="paragraph" unicode="&#xb6;" horiz-adv-x="453" 
d="M294 13q0 38 1.5 79.5t2.5 79.5t2 65.5t1 36.5q0 10 -18 13.5t-40.5 4t-37.5 1.5q-64 5 -103.5 35t-57 72t-15.5 84q3 53 34 98.5t86 73.5t129 26l150 -3l7 -7v-18q-28 -4 -50 -14t-24 -40q-2 -44 -3.5 -88.5t-1.5 -88.5q0 -106 3 -211.5t4 -210.5l-7 -7z" />
    <glyph glyph-name="periodcentered" unicode="&#xb7;" horiz-adv-x="272" 
d="M69 257q0 28 19.5 47.5t47.5 19.5t47.5 -19.5t19.5 -47.5t-19.5 -47.5t-47.5 -19.5t-47.5 19.5t-19.5 47.5z" />
    <glyph glyph-name="cedilla" unicode="&#xb8;" horiz-adv-x="520" 
d="M240 6h36l-20 -47q10 -4 34 -16.5t38 -29.5q17 -21 21.5 -47t-15.5 -53q-16 -22 -43 -36t-57.5 -22.5t-57.5 -13.5l-6 15l5 10q20 8 41 18.5t31 23.5q14 19 6 35t-27 28t-38 17z" />
    <glyph glyph-name="uni00B9" unicode="&#xb9;" horiz-adv-x="178" 
d="M130 733l5 -8q-3 -43 -4 -86.5t-1 -87.5v-97t0.5 -99t1.5 -71l-62 -17l-9 3l4 136t2 136q0 37 1 65t-5.5 44.5t-29.5 16.5h-61v17z" />
    <glyph glyph-name="ordmasculine" unicode="&#xba;" horiz-adv-x="356" 
d="M159 261q-50 0 -80.5 19t-45 50.5t-17.5 66.5q0 34 7 68t33 59q26 26 63.5 37t75.5 11q26 0 51 -5t44 -21q28 -22 39 -55.5t11 -65.5q0 -31 -9 -62t-33 -55q-26 -25 -63.5 -36t-75.5 -11zM85 475q-6 -24 -6 -50q0 -27 8 -59t30 -55t62 -23t60.5 20t28 49t7.5 56t-7 58
t-27.5 53.5t-62.5 22.5q-29 0 -56 -18.5t-37 -53.5z" />
    <glyph glyph-name="guillemotright" unicode="&#xbb;" horiz-adv-x="416" 
d="M252 238l-210 -202l-14 28l150 170l-149 146l31 46zM404 238l-210 -202l-14 28l150 170l-149 146l31 46z" />
    <glyph glyph-name="onequarter" unicode="&#xbc;" horiz-adv-x="790" 
d="M614 695l3 -11l-437 -688l-31 13v14l433 680l11 1zM179 703l5 -8q-6 -79 -6 -160q0 -41 0.5 -89.5t1 -91t1.5 -65.5l-61 -17l-8 3q3 62 4 125.5t1 126.5q0 34 0.5 60t-6 41t-28.5 15h-60v16zM668 420l6 -3q0 -6 -0.5 -36t-1 -72t-0.5 -86v-79l6 -5h68l3 -4l-12 -23h-59
l-6 -4q0 -24 1 -53.5t2 -39.5l-58 -20l-3 3q3 16 3 48.5v60.5l-5 5h-204v27l206 260zM617 144v205q0 5 -3 5q-2 0 -4 -2q-19 -17 -35 -37.5t-32 -40.5q-10 -13 -24.5 -33t-29 -40.5t-24.5 -36.5t-10 -21l3 -4h155z" />
    <glyph glyph-name="onehalf" unicode="&#xbd;" horiz-adv-x="790" 
d="M610 695l3 -11l-437 -688l-31 13v14l433 680l11 1zM179 703l5 -8q-6 -79 -6 -160q0 -41 0.5 -89.5t1 -91t1.5 -65.5l-61 -17l-8 3q3 62 4 125.5t1 126.5q0 34 0.5 60t-6 41t-28.5 15h-60v16zM749 47l-17 -47h-315v10q31 26 61.5 52.5t58.5 54.5t54 57.5t42.5 62
t16.5 67.5q0 17 -8 35.5t-26 31t-48 12.5t-54 -12t-45 -26l-14 11q29 26 67.5 47t84.5 21q47 0 78 -26t31 -67q0 -32 -19 -67t-49.5 -70.5t-65.5 -70t-67 -65.5l-2 -2q0 -3 3.5 -3.5t6.5 -0.5h222z" />
    <glyph glyph-name="threequarters" unicode="&#xbe;" horiz-adv-x="790" 
d="M654 695l3 -11l-437 -688l-31 13v14l433 680l11 1zM179 507v-5q71 -5 109 -28t38 -67q0 -41 -27.5 -72.5t-71 -49t-91.5 -17.5q-63 0 -113 33l-4 6l30 44h7q17 -23 41.5 -41t56.5 -18q49 0 77 29.5t28 68.5q0 19 -10 37t-25 31q-21 19 -59 23t-70 4l1 16q65 13 101 36.5
t36 64.5q0 29 -23.5 44t-54.5 15q-22 0 -45 -10t-43 -21l-10 13q28 19 62.5 37.5t68.5 18.5q42 0 73.5 -20t31.5 -60q0 -43 -33.5 -72t-80.5 -40zM668 420l6 -3q0 -6 -0.5 -36t-1 -72t-0.5 -86v-79l6 -5h68l3 -4l-12 -23h-59l-6 -4q0 -24 1 -53.5t2 -39.5l-58 -20l-3 3
q3 16 3 48.5v60.5l-5 5h-204v27l206 260zM617 144v205q0 5 -3 5q-2 0 -4 -2q-19 -17 -35 -37.5t-32 -40.5q-10 -13 -24.5 -33t-29 -40.5t-24.5 -36.5t-10 -21l3 -4h155z" />
    <glyph glyph-name="questiondown" unicode="&#xbf;" horiz-adv-x="353" 
d="M271 442q0 -23 -16.5 -40t-39.5 -17q-24 0 -41 17t-17 40t17 40t41 17q23 0 39.5 -17t16.5 -40zM191 277l46 32q17 -10 29.5 -29t12.5 -42q0 -15 -8 -29t-18 -26q-24 -31 -52 -57t-53.5 -52t-41.5 -57.5t-16 -73.5q0 -27 14 -53.5t36.5 -44.5t47.5 -18q29 0 55 19t26 53
q0 18 -9 34t-23 27l67 40q14 -12 21 -30.5t7 -38.5q0 -31 -17.5 -56t-45 -43t-59.5 -27.5t-62 -9.5q-57 0 -93 35t-36 93q0 25 8.5 46t21.5 43q18 30 46 56.5t56 51t47.5 48t19.5 46.5q0 32 -27 52v11z" />
    <glyph glyph-name="Agrave" unicode="&#xc0;" horiz-adv-x="722" 
d="M514 76l-54 188q-4 9 -11 9h-225q-6 0 -10 -8l-117 -248l-91 -19l-3 10q89 150 174.5 303t164.5 309q1 3 1 7q0 2 -2.5 6t-9.5 5l-90 15v27h194q8 -41 23.5 -103.5t34.5 -131t35 -128.5q17 -61 37.5 -127t47.5 -111q10 -16 27 -23t37 -7q11 0 22 1t21 2l1 -26l-104 -30
q-22 -6 -45 -6q-25 0 -37 26.5t-21 59.5zM360 572l-116 -244q-1 -1 -1 -4.5v-4.5q0 -7 7 -7h188q7 0 7 7l-1 4t-1 5l-70 244q-2 4 -7 4q-6 0 -6 -4zM384 729l-162 154l47 36l13 -2l120 -157z" />
    <glyph glyph-name="Aacute" unicode="&#xc1;" horiz-adv-x="722" 
d="M514 76l-54 188q-4 9 -11 9h-225q-6 0 -10 -8l-117 -248l-91 -19l-3 10q89 150 174.5 303t164.5 309q1 3 1 7q0 2 -2.5 6t-9.5 5l-90 15v27h194q8 -41 23.5 -103.5t34.5 -131t35 -128.5q17 -61 37.5 -127t47.5 -111q10 -16 27 -23t37 -7q11 0 22 1t21 2l1 -26l-104 -30
q-22 -6 -45 -6q-25 0 -37 26.5t-21 59.5zM360 572l-116 -244q-1 -1 -1 -4.5v-4.5q0 -7 7 -7h188q7 0 7 7l-1 4t-1 5l-70 244q-2 4 -7 4q-6 0 -6 -4zM355 728l-18 31l120 157l13 2l47 -36z" />
    <glyph glyph-name="Acircumflex" unicode="&#xc2;" horiz-adv-x="722" 
d="M514 76l-54 188q-4 9 -11 9h-225q-6 0 -10 -8l-117 -248l-91 -19l-3 10q89 150 174.5 303t164.5 309q1 3 1 7q0 2 -2.5 6t-9.5 5l-90 15v27h194q8 -41 23.5 -103.5t34.5 -131t35 -128.5q17 -61 37.5 -127t47.5 -111q10 -16 27 -23t37 -7q11 0 22 1t21 2l1 -26l-104 -30
q-22 -6 -45 -6q-25 0 -37 26.5t-21 59.5zM360 572l-116 -244q-1 -1 -1 -4.5v-4.5q0 -7 7 -7h188q7 0 7 7l-1 4t-1 5l-70 244q-2 4 -7 4q-6 0 -6 -4zM358 910l157 -160l-39 -26l-121 124l-143 -131l-23 12z" />
    <glyph glyph-name="Atilde" unicode="&#xc3;" horiz-adv-x="722" 
d="M514 76l-54 188q-4 9 -11 9h-225q-6 0 -10 -8l-117 -248l-91 -19l-3 10q89 150 174.5 303t164.5 309q1 3 1 7q0 2 -2.5 6t-9.5 5l-90 15v27h194q8 -41 23.5 -103.5t34.5 -131t35 -128.5q17 -61 37.5 -127t47.5 -111q10 -16 27 -23t37 -7q11 0 22 1t21 2l1 -26l-104 -30
q-22 -6 -45 -6q-25 0 -37 26.5t-21 59.5zM360 572l-116 -244q-1 -1 -1 -4.5v-4.5q0 -7 7 -7h188q7 0 7 7l-1 4t-1 5l-70 244q-2 4 -7 4q-6 0 -6 -4zM350 838l47 -21q11 -4 22.5 -7t23.5 -2q18 2 26 12t15 27l13 -5q-1 -14 -8 -34.5t-19 -36.5t-28 -18t-32.5 1.5t-31.5 10.5
l-63 30q-11 5 -24 8t-26 1q-18 -2 -27.5 -12.5t-18.5 -35.5l-14 5q4 18 12 40t20.5 39t29.5 19q20 3 42 -4.5t41 -16.5z" />
    <glyph glyph-name="Adieresis" unicode="&#xc4;" horiz-adv-x="722" 
d="M514 76l-54 188q-4 9 -11 9h-225q-6 0 -10 -8l-117 -248l-91 -19l-3 10q89 150 174.5 303t164.5 309q1 3 1 7q0 2 -2.5 6t-9.5 5l-90 15v27h194q8 -41 23.5 -103.5t34.5 -131t35 -128.5q17 -61 37.5 -127t47.5 -111q10 -16 27 -23t37 -7q11 0 22 1t21 2l1 -26l-104 -30
q-22 -6 -45 -6q-25 0 -37 26.5t-21 59.5zM360 572l-116 -244q-1 -1 -1 -4.5v-4.5q0 -7 7 -7h188q7 0 7 7l-1 4t-1 5l-70 244q-2 4 -7 4q-6 0 -6 -4zM512 813q-1 -25 -18.5 -40.5t-41.5 -15.5t-41 17t-17 41q0 26 21 41t43 15q26 0 40 -17.5t14 -40.5zM310 813
q-1 -25 -18.5 -40.5t-41.5 -15.5t-41 17t-17 41q0 26 21 41t43 15q26 0 40 -17.5t14 -40.5z" />
    <glyph glyph-name="Aring" unicode="&#xc5;" horiz-adv-x="722" 
d="M514 76l-54 188q-4 9 -11 9h-225q-6 0 -10 -8l-117 -248l-91 -19l-3 10q89 150 174.5 303t164.5 309q1 3 1 7q0 2 -2.5 6t-9.5 5l-90 15v27h194q8 -41 23.5 -103.5t34.5 -131t35 -128.5q17 -61 37.5 -127t47.5 -111q10 -16 27 -23t37 -7q11 0 22 1t21 2l1 -26l-104 -30
q-22 -6 -45 -6q-25 0 -37 26.5t-21 59.5zM360 572l-116 -244q-1 -1 -1 -4.5v-4.5q0 -7 7 -7h188q7 0 7 7l-1 4t-1 5l-70 244q-2 4 -7 4q-6 0 -6 -4zM275 753q0 41 28.5 69t68.5 28q41 0 69 -28t28 -69q0 -40 -28 -68.5t-69 -28.5q-40 0 -68.5 28.5t-28.5 68.5zM305 753
q0 -28 19.5 -47.5t47.5 -19.5t47.5 19.5t19.5 47.5t-19.5 47.5t-47.5 19.5t-47.5 -19.5t-19.5 -47.5z" />
    <glyph glyph-name="AE" unicode="&#xc6;" horiz-adv-x="797" 
d="M366 273h-142q-6 0 -10 -8l-117 -248l-91 -19l-3 10q89 150 175 304t165 310q1 3 1 7q0 2 -2.5 6t-9.5 5l-91 15v27h194q35 0 78 1.5l86 3t78 1.5h25t21 -1l-2 -50l-4 -7q-26 2 -60.5 3.5t-67.5 3t-55.5 2.5t-25.5 1h-40q-15 -3 -19.5 -26.5t-4.5 -49.5v-166
q0 -13 19 -13.5t47 -0.5q40 0 90 2t90 5l6 -7l-6 -48q-29 2 -59 4t-59 2h-59t-50 -3t-20 -12v-139q0 -28 2.5 -60.5t12.5 -51.5q11 -19 30.5 -25.5t65.5 -6.5q18 0 34 0.5t39 1.5t61.5 4t99.5 8l5 -5l-13 -53h-388q-15 8 -20.5 27t-5.5 39v207zM366 568q0 7 -2 7.5t-4 -3.5
l-116 -244q-1 -1 -1 -4.5v-4.5q0 -7 7 -7h116v256z" />
    <glyph glyph-name="Ccedilla" unicode="&#xc7;" horiz-adv-x="633" 
d="M567 528l-14 1q-25 68 -71 98.5t-108 30.5q-68 0 -115 -27t-76 -73t-42 -101.5t-13 -112.5q0 -46 13.5 -91t32.5 -80t35 -52q41 -41 79.5 -62t99.5 -21q51 0 98 19.5t89 47.5l17 -29q-54 -37 -114 -64t-125 -27q-59 0 -117 15.5t-101 58.5q-52 53 -74 123.5t-22 143.5
q0 72 19.5 142t71.5 122q55 55 127.5 82t150.5 27q66 0 121.5 -24.5t94.5 -88.5zM337 6h36l-20 -47q10 -4 34 -16.5t38 -29.5q17 -21 21.5 -47t-15.5 -53q-16 -22 -43 -36t-57.5 -22.5t-57.5 -13.5l-6 15l5 10q20 8 41 18.5t31 23.5q14 19 6 35t-27 28t-38 17z" />
    <glyph glyph-name="Egrave" unicode="&#xc8;" horiz-adv-x="518" 
d="M411 336q-29 2 -59 4t-59 2h-59t-50 -3t-20 -12v-139q0 -28 2.5 -60.5t12.5 -51.5q11 -19 30.5 -25.5t65.5 -6.5q18 0 34 0.5t39 1.5t61.5 4t99.5 8l5 -5l-13 -53h-388q-15 8 -20.5 27t-5.5 39v492q0 11 -1 30t-8 34q-4 10 -22.5 18.5t-53.5 13.5l-1 20l7 7l148 1
q35 0 78 1.5l86 3t78 1.5h25t21 -1l-2 -50l-4 -7q-26 2 -60.5 3.5t-67.5 3t-55.5 2.5t-25.5 1h-40q-15 -3 -19.5 -26.5t-4.5 -49.5v-166q0 -13 19 -13.5t47 -0.5q40 0 90 2t90 5l6 -7zM302 732l-162 154l47 36l13 -2l120 -157z" />
    <glyph glyph-name="Eacute" unicode="&#xc9;" horiz-adv-x="518" 
d="M411 336q-29 2 -59 4t-59 2h-59t-50 -3t-20 -12v-139q0 -28 2.5 -60.5t12.5 -51.5q11 -19 30.5 -25.5t65.5 -6.5q18 0 34 0.5t39 1.5t61.5 4t99.5 8l5 -5l-13 -53h-388q-15 8 -20.5 27t-5.5 39v492q0 11 -1 30t-8 34q-4 10 -22.5 18.5t-53.5 13.5l-1 20l7 7l148 1
q35 0 78 1.5l86 3t78 1.5h25t21 -1l-2 -50l-4 -7q-26 2 -60.5 3.5t-67.5 3t-55.5 2.5t-25.5 1h-40q-15 -3 -19.5 -26.5t-4.5 -49.5v-166q0 -13 19 -13.5t47 -0.5q40 0 90 2t90 5l6 -7zM223 731l-18 31l120 157l13 2l47 -36z" />
    <glyph glyph-name="Ecircumflex" unicode="&#xca;" horiz-adv-x="518" 
d="M411 336q-29 2 -59 4t-59 2h-59t-50 -3t-20 -12v-139q0 -28 2.5 -60.5t12.5 -51.5q11 -19 30.5 -25.5t65.5 -6.5q18 0 34 0.5t39 1.5t61.5 4t99.5 8l5 -5l-13 -53h-388q-15 8 -20.5 27t-5.5 39v492q0 11 -1 30t-8 34q-4 10 -22.5 18.5t-53.5 13.5l-1 20l7 7l148 1
q35 0 78 1.5l86 3t78 1.5h25t21 -1l-2 -50l-4 -7q-26 2 -60.5 3.5t-67.5 3t-55.5 2.5t-25.5 1h-40q-15 -3 -19.5 -26.5t-4.5 -49.5v-166q0 -13 19 -13.5t47 -0.5q40 0 90 2t90 5l6 -7zM276 913l157 -160l-39 -26l-121 124l-143 -131l-23 12z" />
    <glyph glyph-name="Edieresis" unicode="&#xcb;" horiz-adv-x="518" 
d="M411 336q-29 2 -59 4t-59 2h-59t-50 -3t-20 -12v-139q0 -28 2.5 -60.5t12.5 -51.5q11 -19 30.5 -25.5t65.5 -6.5q18 0 34 0.5t39 1.5t61.5 4t99.5 8l5 -5l-13 -53h-388q-15 8 -20.5 27t-5.5 39v492q0 11 -1 30t-8 34q-4 10 -22.5 18.5t-53.5 13.5l-1 20l7 7l148 1
q35 0 78 1.5l86 3t78 1.5h25t21 -1l-2 -50l-4 -7q-26 2 -60.5 3.5t-67.5 3t-55.5 2.5t-25.5 1h-40q-15 -3 -19.5 -26.5t-4.5 -49.5v-166q0 -13 19 -13.5t47 -0.5q40 0 90 2t90 5l6 -7zM430 816q-1 -25 -18.5 -40.5t-41.5 -15.5t-41 17t-17 41q0 26 21 41t43 15
q26 0 40 -17.5t14 -40.5zM228 816q-1 -25 -18.5 -40.5t-41.5 -15.5t-41 17t-17 41q0 26 21 41t43 15q26 0 40 -17.5t14 -40.5z" />
    <glyph glyph-name="Igrave" unicode="&#xcc;" horiz-adv-x="280" 
d="M273 -1h-265v26q37 7 55 13.5t24.5 17t7.5 29t2 49.5v363q0 29 -0.5 58t-2.5 57q-1 15 -6.5 20.5t-24 9.5t-58.5 13v22l7 6h250l6 -6v-21l-67 -15q-20 -5 -22 -26q-4 -29 -4.5 -74.5t0.5 -94t1 -87.5q0 -50 0.5 -97t1.5 -93q1 -21 0 -49.5t5 -51t27 -28.5q11 -3 26 -7
t27 -7l12 -3zM169 732l-162 154l47 36l13 -2l120 -157z" />
    <glyph glyph-name="Iacute" unicode="&#xcd;" horiz-adv-x="280" 
d="M273 -1h-265v26q37 7 55 13.5t24.5 17t7.5 29t2 49.5v363q0 29 -0.5 58t-2.5 57q-1 15 -6.5 20.5t-24 9.5t-58.5 13v22l7 6h250l6 -6v-21l-67 -15q-20 -5 -22 -26q-4 -29 -4.5 -74.5t0.5 -94t1 -87.5q0 -50 0.5 -97t1.5 -93q1 -21 0 -49.5t5 -51t27 -28.5q11 -3 26 -7
t27 -7l12 -3zM90 731l-18 31l120 157l13 2l47 -36z" />
    <glyph glyph-name="Icircumflex" unicode="&#xce;" horiz-adv-x="280" 
d="M273 -1h-265v26q37 7 55 13.5t24.5 17t7.5 29t2 49.5v363q0 29 -0.5 58t-2.5 57q-1 15 -6.5 20.5t-24 9.5t-58.5 13v22l7 6h250l6 -6v-21l-67 -15q-20 -5 -22 -26q-4 -29 -4.5 -74.5t0.5 -94t1 -87.5q0 -50 0.5 -97t1.5 -93q1 -21 0 -49.5t5 -51t27 -28.5q11 -3 26 -7
t27 -7l12 -3zM143 913l157 -160l-39 -26l-121 124l-143 -131l-23 12z" />
    <glyph glyph-name="Idieresis" unicode="&#xcf;" horiz-adv-x="280" 
d="M273 -1h-265v26q37 7 55 13.5t24.5 17t7.5 29t2 49.5v363q0 29 -0.5 58t-2.5 57q-1 15 -6.5 20.5t-24 9.5t-58.5 13v22l7 6h250l6 -6v-21l-67 -15q-20 -5 -22 -26q-4 -29 -4.5 -74.5t0.5 -94t1 -87.5q0 -50 0.5 -97t1.5 -93q1 -21 0 -49.5t5 -51t27 -28.5q11 -3 26 -7
t27 -7l12 -3zM297 816q-1 -25 -18.5 -40.5t-41.5 -15.5t-41 17t-17 41q0 26 21 41t43 15q26 0 40 -17.5t14 -40.5zM95 816q-1 -25 -18.5 -40.5t-41.5 -15.5t-41 17t-17 41q0 26 21 41t43 15q26 0 40 -17.5t14 -40.5z" />
    <glyph glyph-name="Eth" unicode="&#xd0;" horiz-adv-x="746" 
d="M73 2v10q15 11 18 25t4 42v261h-76l7 40h69v193q0 12 -0.5 24t-1.5 23q-1 13 -14 20t-30.5 11t-30.5 8v19l7 8h313q116 0 188.5 -22t111 -62t53 -95.5t14.5 -121.5q0 -95 -20.5 -163.5t-78.5 -130.5q-33 -36 -84.5 -55.5t-108.5 -26.5t-109 -7h-231zM314 340h-135v-170
q1 -20 2 -44.5t5 -44.5t11 -28q10 -10 34.5 -11.5t44.5 -1.5q101 0 166.5 28.5t102.5 77t51.5 108.5t14.5 123q0 31 -6.5 70t-22.5 77.5t-44 66.5q-36 35 -108.5 44.5t-170.5 9.5q-32 0 -46.5 -1t-19.5 -3t-8 -3.5t-4.5 -14t-1.5 -48.5v-195h141z" />
    <glyph glyph-name="Ntilde" unicode="&#xd1;" horiz-adv-x="732" 
d="M657 694l6 -8q-10 -170 -12.5 -343t-2.5 -343h-36q-17 20 -30.5 36t-36.5 44l-159 198q-76 95 -136.5 165t-97.5 112q-2 3 -5 6t-6 3q-5 0 -6 -6.5t-1 -10.5q0 -48 2 -111t5.5 -133t8 -141.5t8.5 -136.5l-70 -30l-9 9q6 119 9.5 238t3.5 237q0 32 -0.5 64.5t-0.5 64.5
q0 11 -1.5 17t-18.5 13t-65 18l-4 27l8 7h162q50 -66 104 -137t108 -140.5t105 -131t95 -108.5l5 -5t6 -3q4 0 5 3.5t1 4.5q0 38 -1 79.5t-3.5 97t-7 135t-12.5 193.5zM393 841l47 -21q11 -4 22.5 -7t23.5 -2q18 2 26 12t15 27l13 -5q-1 -14 -8 -34.5t-19 -36.5t-28 -18
t-32.5 1.5t-31.5 10.5l-63 30q-11 5 -24 8t-26 1q-18 -2 -27.5 -12.5t-18.5 -35.5l-14 5q4 18 12 40t20.5 39t29.5 19q20 3 42 -4.5t41 -16.5z" />
    <glyph glyph-name="Ograve" unicode="&#xd2;" horiz-adv-x="737" 
d="M41 318q0 97 23 165.5t78 128.5q32 34 75 53t91.5 27t94.5 8q56 0 112 -17.5t96 -58.5q31 -31 49.5 -74.5t26.5 -91t8 -94.5q0 -49 -5.5 -100t-35.5 -112q-24 -49 -73 -87.5t-115.5 -60.5t-145.5 -22q-77 0 -130.5 29t-86 77.5t-47.5 108t-15 121.5zM134 348
q0 -70 16.5 -133.5t62.5 -114.5q45 -50 88 -63.5t72 -13.5q62 0 105.5 27.5t70.5 73t39.5 101t12.5 111.5q0 53 -12.5 110t-39.5 105.5t-71 78.5t-107 30q-65 0 -110 -27t-73 -72t-41 -100.5t-13 -112.5zM413 742l-162 154l47 36l13 -2l120 -157z" />
    <glyph glyph-name="Oacute" unicode="&#xd3;" horiz-adv-x="754" 
d="M395 764l-18 31l120 157l13 2l47 -36zM41 318q0 97 23 165.5t78 128.5q32 34 75 53t91.5 27t94.5 8q56 0 112 -17.5t96 -58.5q31 -31 49.5 -74.5t26.5 -91t8 -94.5q0 -49 -5.5 -100t-35.5 -112q-24 -49 -73 -87.5t-115.5 -60.5t-145.5 -22q-77 0 -130.5 29t-86 77.5
t-47.5 108t-15 121.5zM134 348q0 -70 16.5 -133.5t62.5 -114.5q45 -50 88 -63.5t72 -13.5q62 0 105.5 27.5t70.5 73t39.5 101t12.5 111.5q0 53 -12.5 110t-39.5 105.5t-71 78.5t-107 30q-65 0 -110 -27t-73 -72t-41 -100.5t-13 -112.5z" />
    <glyph glyph-name="Ocircumflex" unicode="&#xd4;" horiz-adv-x="737" 
d="M41 318q0 97 23 165.5t78 128.5q32 34 75 53t91.5 27t94.5 8q56 0 112 -17.5t96 -58.5q31 -31 49.5 -74.5t26.5 -91t8 -94.5q0 -49 -5.5 -100t-35.5 -112q-24 -49 -73 -87.5t-115.5 -60.5t-145.5 -22q-77 0 -130.5 29t-86 77.5t-47.5 108t-15 121.5zM134 348
q0 -70 16.5 -133.5t62.5 -114.5q45 -50 88 -63.5t72 -13.5q62 0 105.5 27.5t70.5 73t39.5 101t12.5 111.5q0 53 -12.5 110t-39.5 105.5t-71 78.5t-107 30q-65 0 -110 -27t-73 -72t-41 -100.5t-13 -112.5zM387 923l157 -160l-39 -26l-121 124l-143 -131l-23 12z" />
    <glyph glyph-name="Otilde" unicode="&#xd5;" horiz-adv-x="737" 
d="M41 318q0 97 23 165.5t78 128.5q32 34 75 53t91.5 27t94.5 8q56 0 112 -17.5t96 -58.5q31 -31 49.5 -74.5t26.5 -91t8 -94.5q0 -49 -5.5 -100t-35.5 -112q-24 -49 -73 -87.5t-115.5 -60.5t-145.5 -22q-77 0 -130.5 29t-86 77.5t-47.5 108t-15 121.5zM134 348
q0 -70 16.5 -133.5t62.5 -114.5q45 -50 88 -63.5t72 -13.5q62 0 105.5 27.5t70.5 73t39.5 101t12.5 111.5q0 53 -12.5 110t-39.5 105.5t-71 78.5t-107 30q-65 0 -110 -27t-73 -72t-41 -100.5t-13 -112.5zM379 851l47 -21q11 -4 22.5 -7t23.5 -2q18 2 26 12t15 27l13 -5
q-1 -14 -8 -34.5t-19 -36.5t-28 -18t-32.5 1.5t-31.5 10.5l-63 30q-11 5 -24 8t-26 1q-18 -2 -27.5 -12.5t-18.5 -35.5l-14 5q4 18 12 40t20.5 39t29.5 19q20 3 42 -4.5t41 -16.5z" />
    <glyph glyph-name="Odieresis" unicode="&#xd6;" horiz-adv-x="737" 
d="M41 318q0 97 23 165.5t78 128.5q32 34 75 53t91.5 27t94.5 8q56 0 112 -17.5t96 -58.5q31 -31 49.5 -74.5t26.5 -91t8 -94.5q0 -49 -5.5 -100t-35.5 -112q-24 -49 -73 -87.5t-115.5 -60.5t-145.5 -22q-77 0 -130.5 29t-86 77.5t-47.5 108t-15 121.5zM134 348
q0 -70 16.5 -133.5t62.5 -114.5q45 -50 88 -63.5t72 -13.5q62 0 105.5 27.5t70.5 73t39.5 101t12.5 111.5q0 53 -12.5 110t-39.5 105.5t-71 78.5t-107 30q-65 0 -110 -27t-73 -72t-41 -100.5t-13 -112.5zM541 826q-1 -25 -18.5 -40.5t-41.5 -15.5t-41 17t-17 41q0 26 21 41
t43 15q26 0 40 -17.5t14 -40.5zM339 826q-1 -25 -18.5 -40.5t-41.5 -15.5t-41 17t-17 41q0 26 21 41t43 15q26 0 40 -17.5t14 -40.5z" />
    <glyph glyph-name="multiply" unicode="&#xd7;" horiz-adv-x="603" 
d="M301 283l221 221l25 -32l-218 -217l214 -215l-23 -33l-219 219l-220 -219l-23 33l214 215l-215 215l24 32z" />
    <glyph glyph-name="Oslash" unicode="&#xd8;" horiz-adv-x="737" 
d="M41 318q0 97 23 165.5t78 128.5q32 34 75 53t91.5 27t94.5 8q24 0 49 -3t48 -10l44 100l11 2l22 -5l5 -11l-43 -100q42 -19 72 -49q31 -31 49.5 -74.5t26.5 -91t8 -94.5q0 -49 -5.5 -100t-35.5 -112q-24 -49 -73 -87.5t-116 -60.5t-145 -22q-41 0 -77 9l-50 -114l-32 8
l-3 14l46 106q-59 25 -95 74.5t-52 112t-16 126.5zM134 348q0 -70 16.5 -133.5t62.5 -114.5q11 -12 23 -23l240 554q-22 14 -48 21.5t-57 7.5q-65 0 -110 -27t-73 -72t-41 -100.5t-13 -112.5zM601 336q0 47 -9.5 96.5t-29.5 94.5t-53 78l-240 -553q30 -18 57 -23.5t47 -5.5
q62 0 105.5 27.5t70.5 73t39.5 101t12.5 111.5z" />
    <glyph glyph-name="Ugrave" unicode="&#xd9;" horiz-adv-x="712" 
d="M175 542l-8 -273q0 -84 24 -131t64 -66.5t88 -19.5q47 0 91.5 17.5t84.5 41.5q0 137 1.5 274.5t2.5 273.5l88 35l6 -7q-6 -43 -9 -101t-4.5 -123.5t-2 -132.5t-0.5 -128q0 -41 2 -76t12 -56.5t34 -21.5q15 0 29 3.5t29 4.5l4 -17l-5 -7q-25 -8 -55 -16.5t-56 -14.5
t-42 -6q-19 0 -26 11t-7 27v31l-8 6q-52 -34 -111.5 -56.5t-121.5 -22.5q-69 0 -107 21.5t-54.5 53.5t-22.5 61q-5 35 -6.5 85t-1.5 96q0 58 1 117t1 117v59q0 15 -11.5 25t-27.5 16t-30 8.5t-19 2.5l-2 20l8 7h169l7 -6q-1 -5 -2.5 -23.5t-2.5 -41.5t-2 -42t-1 -25z
M399 732l-162 154l47 36l13 -2l120 -157z" />
    <glyph glyph-name="Uacute" unicode="&#xda;" horiz-adv-x="712" 
d="M175 542l-8 -273q0 -84 24 -131t64 -66.5t88 -19.5q47 0 91.5 17.5t84.5 41.5q0 137 1.5 274.5t2.5 273.5l88 35l6 -7q-6 -43 -9 -101t-4.5 -123.5t-2 -132.5t-0.5 -128q0 -41 2 -76t12 -56.5t34 -21.5q15 0 29 3.5t29 4.5l4 -17l-5 -7q-25 -8 -55 -16.5t-56 -14.5
t-42 -6q-19 0 -26 11t-7 27v31l-8 6q-52 -34 -111.5 -56.5t-121.5 -22.5q-69 0 -107 21.5t-54.5 53.5t-22.5 61q-5 35 -6.5 85t-1.5 96q0 58 1 117t1 117v59q0 15 -11.5 25t-27.5 16t-30 8.5t-19 2.5l-2 20l8 7h169l7 -6q-1 -5 -2.5 -23.5t-2.5 -41.5t-2 -42t-1 -25z
M320 731l-18 31l120 157l13 2l47 -36z" />
    <glyph glyph-name="Ucircumflex" unicode="&#xdb;" horiz-adv-x="712" 
d="M175 542l-8 -273q0 -84 24 -131t64 -66.5t88 -19.5q47 0 91.5 17.5t84.5 41.5q0 137 1.5 274.5t2.5 273.5l88 35l6 -7q-6 -43 -9 -101t-4.5 -123.5t-2 -132.5t-0.5 -128q0 -41 2 -76t12 -56.5t34 -21.5q15 0 29 3.5t29 4.5l4 -17l-5 -7q-25 -8 -55 -16.5t-56 -14.5
t-42 -6q-19 0 -26 11t-7 27v31l-8 6q-52 -34 -111.5 -56.5t-121.5 -22.5q-69 0 -107 21.5t-54.5 53.5t-22.5 61q-5 35 -6.5 85t-1.5 96q0 58 1 117t1 117v59q0 15 -11.5 25t-27.5 16t-30 8.5t-19 2.5l-2 20l8 7h169l7 -6q-1 -5 -2.5 -23.5t-2.5 -41.5t-2 -42t-1 -25z
M373 913l157 -160l-39 -26l-121 124l-143 -131l-23 12z" />
    <glyph glyph-name="Udieresis" unicode="&#xdc;" horiz-adv-x="712" 
d="M175 542l-8 -273q0 -84 24 -131t64 -66.5t88 -19.5q47 0 91.5 17.5t84.5 41.5q0 137 1.5 274.5t2.5 273.5l88 35l6 -7q-6 -43 -9 -101t-4.5 -123.5t-2 -132.5t-0.5 -128q0 -41 2 -76t12 -56.5t34 -21.5q15 0 29 3.5t29 4.5l4 -17l-5 -7q-25 -8 -55 -16.5t-56 -14.5
t-42 -6q-19 0 -26 11t-7 27v31l-8 6q-52 -34 -111.5 -56.5t-121.5 -22.5q-69 0 -107 21.5t-54.5 53.5t-22.5 61q-5 35 -6.5 85t-1.5 96q0 58 1 117t1 117v59q0 15 -11.5 25t-27.5 16t-30 8.5t-19 2.5l-2 20l8 7h169l7 -6q-1 -5 -2.5 -23.5t-2.5 -41.5t-2 -42t-1 -25z
M527 816q-1 -25 -18.5 -40.5t-41.5 -15.5t-41 17t-17 41q0 26 21 41t43 15q26 0 40 -17.5t14 -40.5zM325 816q-1 -25 -18.5 -40.5t-41.5 -15.5t-41 17t-17 41q0 26 21 41t43 15q26 0 40 -17.5t14 -40.5z" />
    <glyph glyph-name="Yacute" unicode="&#xdd;" horiz-adv-x="592" 
d="M234 299l-149 295q-17 34 -36.5 43.5t-49.5 13.5v28l7 7h145l141 -325l4.5 -4.5t7.5 -3.5q3 0 14 15.5t26 40t30 51.5q3 5 18 31t35.5 61t41 69t33.5 55l85 17l4 -18q-55 -72 -100.5 -132t-85.5 -116.5t-82 -120.5l9 -288l-90 -29l-11 9q2 75 2.5 150.5t0.5 150.5z
M289 731l-18 31l120 157l13 2l47 -36z" />
    <glyph glyph-name="Thorn" unicode="&#xde;" horiz-adv-x="527" 
d="M175 673q-2 -9 -3 -27.5t-1.5 -38t-1.5 -33.5h105q123 0 177 -42.5t54 -122.5q0 -92 -64 -156q-33 -34 -83 -47.5t-99 -17.5q-14 -1 -36.5 -1.5t-40 -4t-17.5 -13.5q0 -12 1.5 -26.5t3.5 -42t2 -78.5l-83 -28l-7 7q2 105 4.5 210.5t2.5 211.5q0 44 -1.5 88.5t-3.5 88.5
q-2 30 -23.5 40t-50.5 14v18l7 7h151zM236 535h-58q-5 0 -7 -3.5t-2 -7.5q-3 -66 -4.5 -144.5t-1.5 -143.5q0 -7 4 -9.5t7 -2.5q70 0 122.5 21t82.5 61t30 95q0 52 -24 81t-63.5 41t-85.5 12z" />
    <glyph glyph-name="germandbls" unicode="&#xdf;" horiz-adv-x="453" 
d="M10 434h61l6 6q0 26 3 60.5t15 61.5q23 53 64.5 80t88.5 27q41 0 62 -17t31 -37l-58 -54l-12 4q-2 11 -6.5 26t-16 26.5t-35.5 11.5q-21 0 -34.5 -26t-19.5 -69t-6 -94l4 -6h242l5 -7l-7 -22l-83 -146q26 -20 54 -46.5t47.5 -62t19.5 -82.5q0 -64 -33 -115.5t-92.5 -82
t-140.5 -30.5l-5 24q43 8 80.5 29t65.5 50.5t39 62.5q22 64 -10 121q-21 37 -52 67.5t-53 47.5v24l76 133h-153l-6 -6v-111q0 -70 2.5 -139.5t7.5 -130.5l-79 -24l-17 11q5 74 9 145t4 139v108l-6 8h-68l-5 7l4 22z" />
    <glyph glyph-name="agrave" unicode="&#xe0;" horiz-adv-x="548" 
d="M385 431l53 31l5 -5q-6 -109 -6 -218q0 -23 -1.5 -55t0.5 -62t11 -50t29 -20q11 0 30 6t35 12l7 -24q-20 -12 -43 -25.5t-45 -23t-38 -9.5q-28 0 -40 17t-17 42l-15 4q-37 -24 -78 -43.5t-85 -19.5q-42 0 -70 18t-45 47t-24.5 63.5t-7.5 68.5q0 53 13.5 103t42 90.5
t73.5 64t109 23.5q24 0 53.5 -9t53.5 -26zM363 99v230q0 20 -2 38t-14 31q-13 14 -31 23.5t-37 9.5q-55 0 -95 -38q-17 -16 -34.5 -59t-19.5 -119q-1 -31 5 -62.5t23 -57.5q16 -25 43.5 -33t55.5 -8q29 0 56.5 14t49.5 31zM306 549l-162 154l47 36l13 -2l120 -157z" />
    <glyph glyph-name="aacute" unicode="&#xe1;" horiz-adv-x="548" 
d="M385 431l53 31l5 -5q-6 -109 -6 -218q0 -23 -1.5 -55t0.5 -62t11 -50t29 -20q11 0 30 6t35 12l7 -24q-20 -12 -43 -25.5t-45 -23t-38 -9.5q-28 0 -40 17t-17 42l-15 4q-37 -24 -78 -43.5t-85 -19.5q-42 0 -70 18t-45 47t-24.5 63.5t-7.5 68.5q0 53 13.5 103t42 90.5
t73.5 64t109 23.5q24 0 53.5 -9t53.5 -26zM363 99v230q0 20 -2 38t-14 31q-13 14 -31 23.5t-37 9.5q-55 0 -95 -38q-17 -16 -34.5 -59t-19.5 -119q-1 -31 5 -62.5t23 -57.5q16 -25 43.5 -33t55.5 -8q29 0 56.5 14t49.5 31zM227 548l-18 31l120 157l13 2l47 -36z" />
    <glyph glyph-name="acircumflex" unicode="&#xe2;" horiz-adv-x="548" 
d="M385 431l53 31l5 -5q-6 -109 -6 -218q0 -23 -1.5 -55t0.5 -62t11 -50t29 -20q11 0 30 6t35 12l7 -24q-20 -12 -43 -25.5t-45 -23t-38 -9.5q-28 0 -40 17t-17 42l-15 4q-37 -24 -78 -43.5t-85 -19.5q-42 0 -70 18t-45 47t-24.5 63.5t-7.5 68.5q0 53 13.5 103t42 90.5
t73.5 64t109 23.5q24 0 53.5 -9t53.5 -26zM363 99v230q0 20 -2 38t-14 31q-13 14 -31 23.5t-37 9.5q-55 0 -95 -38q-17 -16 -34.5 -59t-19.5 -119q-1 -31 5 -62.5t23 -57.5q16 -25 43.5 -33t55.5 -8q29 0 56.5 14t49.5 31zM280 730l157 -160l-39 -26l-121 124l-143 -131
l-23 12z" />
    <glyph glyph-name="atilde" unicode="&#xe3;" horiz-adv-x="548" 
d="M385 431l53 31l5 -5q-6 -109 -6 -218q0 -23 -1.5 -55t0.5 -62t11 -50t29 -20q11 0 30 6t35 12l7 -24q-20 -12 -43 -25.5t-45 -23t-38 -9.5q-28 0 -40 17t-17 42l-15 4q-37 -24 -78 -43.5t-85 -19.5q-42 0 -70 18t-45 47t-24.5 63.5t-7.5 68.5q0 53 13.5 103t42 90.5
t73.5 64t109 23.5q24 0 53.5 -9t53.5 -26zM363 99v230q0 20 -2 38t-14 31q-13 14 -31 23.5t-37 9.5q-55 0 -95 -38q-17 -16 -34.5 -59t-19.5 -119q-1 -31 5 -62.5t23 -57.5q16 -25 43.5 -33t55.5 -8q29 0 56.5 14t49.5 31zM272 658l47 -21q11 -4 22.5 -7t23.5 -2q18 2 26 12
t15 27l13 -5q-1 -14 -8 -34.5t-19 -36.5t-28 -18t-32.5 1.5t-31.5 10.5l-63 30q-11 5 -24 8t-26 1q-18 -2 -27.5 -12.5t-18.5 -35.5l-14 5q4 18 12 40t20.5 39t29.5 19q20 3 42 -4.5t41 -16.5z" />
    <glyph glyph-name="adieresis" unicode="&#xe4;" horiz-adv-x="548" 
d="M385 431l53 31l5 -5q-6 -109 -6 -218q0 -23 -1.5 -55t0.5 -62t11 -50t29 -20q11 0 30 6t35 12l7 -24q-20 -12 -43 -25.5t-45 -23t-38 -9.5q-28 0 -40 17t-17 42l-15 4q-37 -24 -78 -43.5t-85 -19.5q-42 0 -70 18t-45 47t-24.5 63.5t-7.5 68.5q0 53 13.5 103t42 90.5
t73.5 64t109 23.5q24 0 53.5 -9t53.5 -26zM363 99v230q0 20 -2 38t-14 31q-13 14 -31 23.5t-37 9.5q-55 0 -95 -38q-17 -16 -34.5 -59t-19.5 -119q-1 -31 5 -62.5t23 -57.5q16 -25 43.5 -33t55.5 -8q29 0 56.5 14t49.5 31zM434 633q-1 -25 -18.5 -40.5t-41.5 -15.5t-41 17
t-17 41q0 26 21 41t43 15q26 0 40 -17.5t14 -40.5zM232 633q-1 -25 -18.5 -40.5t-41.5 -15.5t-41 17t-17 41q0 26 21 41t43 15q26 0 40 -17.5t14 -40.5z" />
    <glyph glyph-name="aring" unicode="&#xe5;" horiz-adv-x="548" 
d="M385 431l53 31l5 -5q-6 -109 -6 -218q0 -23 -1.5 -55t0.5 -62t11 -50t29 -20q11 0 30 6t35 12l7 -24q-20 -12 -43 -25.5t-45 -23t-38 -9.5q-28 0 -40 17t-17 42l-15 4q-37 -24 -78 -43.5t-85 -19.5q-42 0 -70 18t-45 47t-24.5 63.5t-7.5 68.5q0 53 13.5 103t42 90.5
t73.5 64t109 23.5q24 0 53.5 -9t53.5 -26zM363 99v230q0 20 -2 38t-14 31q-13 14 -31 23.5t-37 9.5q-55 0 -95 -38q-17 -16 -34.5 -59t-19.5 -119q-1 -31 5 -62.5t23 -57.5q16 -25 43.5 -33t55.5 -8q29 0 56.5 14t49.5 31zM177 613q0 41 28.5 69t68.5 28q41 0 69 -28t28 -69
q0 -40 -28 -68.5t-69 -28.5q-40 0 -68.5 28.5t-28.5 68.5zM207 613q0 -28 19.5 -47.5t47.5 -19.5t47.5 19.5t19.5 47.5t-19.5 47.5t-47.5 19.5t-47.5 -19.5t-19.5 -47.5z" />
    <glyph glyph-name="ae" unicode="&#xe6;" horiz-adv-x="752" 
d="M707 319l-282 -122q3 -31 16.5 -64t41 -55t71.5 -22q41 0 80.5 21t73.5 47l11 -2l13 -18q-31 -29 -67.5 -55.5t-77 -43.5t-83.5 -17q-51 0 -83 22t-51 56q-38 -28 -85.5 -53t-97.5 -25q-42 0 -70 18t-45 47t-24.5 63.5t-7.5 68.5q0 53 13.5 103t42 90.5t73.5 64t109 23.5
q21 0 47 -6.5t48.5 -19.5t33.5 -33q36 35 82.5 53t96.5 18q65 0 103.5 -40t38.5 -98q0 -9 -6.5 -13t-14.5 -8zM467 396q-29 -31 -37.5 -65t-8.5 -71q0 -4 0.5 -8.5t1.5 -9.5l4 -4l202 80q5 2 9 8t4 18q0 21 -11 43t-31.5 36.5t-48.5 14.5q-25 0 -46.5 -11t-37.5 -31z
M363 348q-1 14 -4 27t-12 23q-13 14 -31 23.5t-37 9.5q-55 0 -95 -38q-17 -16 -34.5 -59t-19.5 -119q-1 -31 5 -62.5t23 -57.5q16 -25 43.5 -33t55.5 -8t53 12.5t47 28.5q-10 30 -14.5 63.5t-4.5 67.5q0 32 6 63t19 59z" />
    <glyph glyph-name="ccedilla" unicode="&#xe7;" horiz-adv-x="455" 
d="M434 114l11 -18q-46 -46 -101.5 -80.5t-122.5 -34.5q-61 0 -96 22.5t-51.5 58.5t-21 77t-4.5 78q0 75 32.5 133.5t89.5 91.5t131 33q49 0 80.5 -27.5t35.5 -70.5l-54 -53l-17 6q-7 50 -30 78t-55 28q-42 0 -71 -28.5t-44 -72t-15 -87.5q0 -32 6 -67t21 -65.5t42.5 -49.5
t71.5 -19t82 20.5t71 48.5zM232 -4h36l-20 -47q10 -4 34 -16.5t38 -29.5q17 -21 21.5 -47t-15.5 -53q-16 -22 -43 -36t-57.5 -22.5t-57.5 -13.5l-6 15l5 10q20 8 41 18.5t31 23.5q14 19 6 35t-27 28t-38 17z" />
    <glyph glyph-name="egrave" unicode="&#xe8;" horiz-adv-x="438" 
d="M417 319l-282 -122q3 -31 16.5 -64t41 -55t71.5 -22q41 0 80.5 21t73.5 47l11 -2l13 -18q-31 -29 -67.5 -55.5t-77 -43.5t-83.5 -17q-50 0 -82.5 21t-50.5 55.5t-25.5 77t-7.5 84.5q0 44 11 86t40 76q37 43 88.5 66.5t108.5 23.5q65 0 103.5 -40t38.5 -98q0 -9 -6.5 -13
t-14.5 -8zM177 396q-29 -31 -37.5 -65t-8.5 -71q0 -4 0.5 -8.5t1.5 -9.5l4 -4l202 80q5 2 9 8t4 18q0 21 -11 43t-31.5 36.5t-48.5 14.5q-25 0 -46.5 -11t-37.5 -31zM271 562l-162 154l47 36l13 -2l120 -157z" />
    <glyph glyph-name="eacute" unicode="&#xe9;" horiz-adv-x="438" 
d="M417 319l-282 -122q3 -31 16.5 -64t41 -55t71.5 -22q41 0 80.5 21t73.5 47l11 -2l13 -18q-31 -29 -67.5 -55.5t-77 -43.5t-83.5 -17q-50 0 -82.5 21t-50.5 55.5t-25.5 77t-7.5 84.5q0 44 11 86t40 76q37 43 88.5 66.5t108.5 23.5q65 0 103.5 -40t38.5 -98q0 -9 -6.5 -13
t-14.5 -8zM177 396q-29 -31 -37.5 -65t-8.5 -71q0 -4 0.5 -8.5t1.5 -9.5l4 -4l202 80q5 2 9 8t4 18q0 21 -11 43t-31.5 36.5t-48.5 14.5q-25 0 -46.5 -11t-37.5 -31zM192 560l-18 31l120 157l13 2l47 -36z" />
    <glyph glyph-name="ecircumflex" unicode="&#xea;" horiz-adv-x="438" 
d="M417 319l-282 -122q3 -31 16.5 -64t41 -55t71.5 -22q41 0 80.5 21t73.5 47l11 -2l13 -18q-31 -29 -67.5 -55.5t-77 -43.5t-83.5 -17q-50 0 -82.5 21t-50.5 55.5t-25.5 77t-7.5 84.5q0 44 11 86t40 76q37 43 88.5 66.5t108.5 23.5q65 0 103.5 -40t38.5 -98q0 -9 -6.5 -13
t-14.5 -8zM177 396q-29 -31 -37.5 -65t-8.5 -71q0 -4 0.5 -8.5t1.5 -9.5l4 -4l202 80q5 2 9 8t4 18q0 21 -11 43t-31.5 36.5t-48.5 14.5q-25 0 -46.5 -11t-37.5 -31zM245 742l157 -160l-39 -26l-121 124l-143 -131l-23 12z" />
    <glyph glyph-name="edieresis" unicode="&#xeb;" horiz-adv-x="438" 
d="M417 319l-282 -122q3 -31 16.5 -64t41 -55t71.5 -22q41 0 80.5 21t73.5 47l11 -2l13 -18q-31 -29 -67.5 -55.5t-77 -43.5t-83.5 -17q-50 0 -82.5 21t-50.5 55.5t-25.5 77t-7.5 84.5q0 44 11 86t40 76q37 43 88.5 66.5t108.5 23.5q65 0 103.5 -40t38.5 -98q0 -9 -6.5 -13
t-14.5 -8zM177 396q-29 -31 -37.5 -65t-8.5 -71q0 -4 0.5 -8.5t1.5 -9.5l4 -4l202 80q5 2 9 8t4 18q0 21 -11 43t-31.5 36.5t-48.5 14.5q-25 0 -46.5 -11t-37.5 -31zM399 615q-1 -25 -18.5 -40.5t-41.5 -15.5t-41 17t-17 41q0 26 21 41t43 15q26 0 40 -17.5t14 -40.5z
M197 615q-1 -25 -18.5 -40.5t-41.5 -15.5t-41 17t-17 41q0 26 21 41t43 15q26 0 40 -17.5t14 -40.5z" />
    <glyph glyph-name="igrave" unicode="&#xec;" horiz-adv-x="258" 
d="M192 392l-8 -210q0 -55 9 -86t35 -31q29 0 50.5 13.5t41.5 31.5l13 -10v-11q-17 -22 -39.5 -44.5t-48 -37.5t-53.5 -15q-21 0 -39.5 7.5t-29.5 31.5t-11 73l6 221q0 39 -7.5 62t-27.5 23q-16 0 -39 -10.5t-41 -21.5l-13 18q34 27 72.5 51t67.5 24q34 0 48 -23t14 -56z
M92 554l-162 154l47 36l13 -2l120 -157z" />
    <glyph glyph-name="iacute" unicode="&#xed;" horiz-adv-x="258" 
d="M192 392l-8 -210q0 -55 9 -86t35 -31q29 0 50.5 13.5t41.5 31.5l13 -10v-11q-17 -22 -39.5 -44.5t-48 -37.5t-53.5 -15q-21 0 -39.5 7.5t-29.5 31.5t-11 73l6 221q0 39 -7.5 62t-27.5 23q-16 0 -39 -10.5t-41 -21.5l-13 18q34 27 72.5 51t67.5 24q34 0 48 -23t14 -56z
M117 553l-18 31l120 157l13 2l47 -36z" />
    <glyph glyph-name="icircumflex" unicode="&#xee;" horiz-adv-x="258" 
d="M192 392l-8 -210q0 -55 9 -86t35 -31q29 0 50.5 13.5t41.5 31.5l13 -10v-11q-17 -22 -39.5 -44.5t-48 -37.5t-53.5 -15q-21 0 -39.5 7.5t-29.5 31.5t-11 73l6 221q0 39 -7.5 62t-27.5 23q-16 0 -39 -10.5t-41 -21.5l-13 18q34 27 72.5 51t67.5 24q34 0 48 -23t14 -56z
M118 743l157 -160l-39 -26l-121 124l-143 -131l-23 12z" />
    <glyph glyph-name="idieresis" unicode="&#xef;" horiz-adv-x="258" 
d="M192 392l-8 -210q0 -55 9 -86t35 -31q29 0 50.5 13.5t41.5 31.5l13 -10v-11q-17 -22 -39.5 -44.5t-48 -37.5t-53.5 -15q-21 0 -39.5 7.5t-29.5 31.5t-11 73l6 221q0 39 -7.5 62t-27.5 23q-16 0 -39 -10.5t-41 -21.5l-13 18q34 27 72.5 51t67.5 24q34 0 48 -23t14 -56z
M272 607q-1 -25 -18.5 -40.5t-41.5 -15.5t-41 17t-17 41q0 26 21 41t43 15q26 0 40 -17.5t14 -40.5zM70 607q-1 -25 -18.5 -40.5t-41.5 -15.5t-41 17t-17 41q0 26 21 41t43 15q26 0 40 -17.5t14 -40.5z" />
    <glyph glyph-name="eth" unicode="&#xf0;" horiz-adv-x="461" 
d="M158 684q49 -17 96 -55l112 59l13 -39l-92 -49q47 -46 82 -109t46 -135q8 -50 9 -102.5t-12.5 -102t-48.5 -90.5q-44 -52 -107 -63q-43 -7 -82 -3.5t-70 30.5q-20 18 -35 44t-24 54.5t-13 51.5q-10 64 5.5 125t60 105t119.5 56q16 2 34.5 2.5t46.5 -2.5l3 5
q-28 66 -60 110l-122 -65l-13 39l108 57q-30 32 -70 55zM345 145q8 40 6.5 81.5t-7.5 81.5q-9 61 -30 116q-19 5 -40 7.5t-41 -0.5q-43 -7 -69.5 -32.5t-38.5 -61t-13.5 -74.5t3.5 -73q3 -18 12.5 -45t27 -53.5t44 -42.5t63.5 -10q39 6 58 38.5t25 67.5z" />
    <glyph glyph-name="ntilde" unicode="&#xf1;" horiz-adv-x="631" 
d="M195 18l-70 -24l-15 7q1 19 2.5 56t3 81.5t2.5 87t1 72.5q0 50 -6 82.5t-31 32.5q-16 0 -34.5 -10.5t-40.5 -24.5l-17 22q21 15 45 31.5t48 28t42 11.5q38 0 53 -20t19 -48l8 -6q42 26 91.5 49t97.5 23q22 0 42.5 -6t34.5 -23q10 -12 14 -43.5t5 -70t1 -70.5
q0 -75 0.5 -118t10 -60.5t37.5 -17.5q17 0 39 13t41 27h13l9 -21q-34 -34 -77.5 -61.5t-79.5 -27.5q-41 0 -56.5 26t-15.5 62l5 171q0 75 -18.5 118t-71.5 43q-34 0 -68 -19.5t-61 -41.5q-2 -54 -4 -116t-2 -117q0 -21 1 -44.5t2 -53.5zM315 620l47 -21q11 -4 22.5 -7
t23.5 -2q18 2 26 12t15 27l13 -5q-1 -14 -8 -34.5t-19 -36.5t-28 -18t-32.5 1.5t-31.5 10.5l-63 30q-11 5 -24 8t-26 1q-18 -2 -27.5 -12.5t-18.5 -35.5l-14 5q4 18 12 40t20.5 39t29.5 19q20 3 42 -4.5t41 -16.5z" />
    <glyph glyph-name="ograve" unicode="&#xf2;" horiz-adv-x="501" 
d="M242 -14q-69 0 -110.5 30.5t-60.5 78.5t-23 101q0 52 9.5 104t45.5 91q35 39 85.5 56.5t102.5 17.5q74 0 117 -33t62 -85t19 -108q0 -49 -12.5 -96t-45.5 -84q-35 -40 -85.5 -56.5t-103.5 -16.5zM142 316q-4 -19 -6 -38t-2 -39q0 -31 6 -68t20.5 -69.5t41 -53.5t67.5 -21
t66.5 18t39.5 47t19.5 63t5.5 65t-5 66.5t-18.5 67.5t-40 52t-68.5 20q-40 0 -76 -27t-50 -83zM283 541l-162 154l47 36l13 -2l120 -157z" />
    <glyph glyph-name="oacute" unicode="&#xf3;" horiz-adv-x="501" 
d="M242 -14q-69 0 -110.5 30.5t-60.5 78.5t-23 101q0 52 9.5 104t45.5 91q35 39 85.5 56.5t102.5 17.5q74 0 117 -33t62 -85t19 -108q0 -49 -12.5 -96t-45.5 -84q-35 -40 -85.5 -56.5t-103.5 -16.5zM142 316q-4 -19 -6 -38t-2 -39q0 -31 6 -68t20.5 -69.5t41 -53.5t67.5 -21
t66.5 18t39.5 47t19.5 63t5.5 65t-5 66.5t-18.5 67.5t-40 52t-68.5 20q-40 0 -76 -27t-50 -83zM204 540l-18 31l120 157l13 2l47 -36z" />
    <glyph glyph-name="ocircumflex" unicode="&#xf4;" horiz-adv-x="501" 
d="M242 -14q-69 0 -110.5 30.5t-60.5 78.5t-23 101q0 52 9.5 104t45.5 91q35 39 85.5 56.5t102.5 17.5q74 0 117 -33t62 -85t19 -108q0 -49 -12.5 -96t-45.5 -84q-35 -40 -85.5 -56.5t-103.5 -16.5zM142 316q-4 -19 -6 -38t-2 -39q0 -31 6 -68t20.5 -69.5t41 -53.5t67.5 -21
t66.5 18t39.5 47t19.5 63t5.5 65t-5 66.5t-18.5 67.5t-40 52t-68.5 20q-40 0 -76 -27t-50 -83zM257 736l157 -160l-39 -26l-121 124l-143 -131l-23 12z" />
    <glyph glyph-name="otilde" unicode="&#xf5;" horiz-adv-x="537" 
d="M242 -14q-69 0 -110.5 30.5t-60.5 78.5t-23 101q0 52 9.5 104t45.5 91q35 39 85.5 56.5t102.5 17.5q74 0 117 -33t62 -85t19 -108q0 -49 -12.5 -96t-45.5 -84q-35 -40 -85.5 -56.5t-103.5 -16.5zM142 316q-4 -19 -6 -38t-2 -39q0 -31 6 -68t20.5 -69.5t41 -53.5t67.5 -21
t66.5 18t39.5 47t19.5 63t5.5 65t-5 66.5t-18.5 67.5t-40 52t-68.5 20q-40 0 -76 -27t-50 -83zM267 620l47 -21q11 -4 22.5 -7t23.5 -2q18 2 26 12t15 27l13 -5q-1 -14 -8 -34.5t-19 -36.5t-28 -18t-32.5 1.5t-31.5 10.5l-63 30q-11 5 -24 8t-26 1q-18 -2 -27.5 -12.5
t-18.5 -35.5l-14 5q4 18 12 40t20.5 39t29.5 19q20 3 42 -4.5t41 -16.5z" />
    <glyph glyph-name="odieresis" unicode="&#xf6;" horiz-adv-x="537" 
d="M242 -14q-69 0 -110.5 30.5t-60.5 78.5t-23 101q0 52 9.5 104t45.5 91q35 39 85.5 56.5t102.5 17.5q74 0 117 -33t62 -85t19 -108q0 -49 -12.5 -96t-45.5 -84q-35 -40 -85.5 -56.5t-103.5 -16.5zM142 316q-4 -19 -6 -38t-2 -39q0 -31 6 -68t20.5 -69.5t41 -53.5t67.5 -21
t66.5 18t39.5 47t19.5 63t5.5 65t-5 66.5t-18.5 67.5t-40 52t-68.5 20q-40 0 -76 -27t-50 -83zM429 595q-1 -25 -18.5 -40.5t-41.5 -15.5t-41 17t-17 41q0 26 21 41t43 15q26 0 40 -17.5t14 -40.5zM227 595q-1 -25 -18.5 -40.5t-41.5 -15.5t-41 17t-17 41q0 26 21 41t43 15
q26 0 40 -17.5t14 -40.5z" />
    <glyph glyph-name="divide" unicode="&#xf7;" horiz-adv-x="824" 
d="M471 514q-1 -25 -18.5 -40.5t-41.5 -15.5t-41 17t-17 41q0 26 21 41t43 15q26 0 40 -17.5t14 -40.5zM738 236h-658l7 40h657zM471 -2q-1 -25 -18.5 -40.5t-41.5 -15.5t-41 17t-17 41q0 26 21 41t43 15q26 0 40 -17.5t14 -40.5z" />
    <glyph glyph-name="oslash" unicode="&#xf8;" horiz-adv-x="520" 
d="M242 -14q-36 0 -65 9l-37 -85l-32 8l-2 14l34 79q-46 28 -67 78.5t-25 106.5q0 52 9.5 104t45.5 91q35 39 85.5 56.5t102.5 17.5q23 0 44 -4l29 68l10 2l22 -5l6 -11l-28 -65q42 -17 67 -50t36.5 -75t11.5 -86q0 -49 -12.5 -96t-45.5 -84q-35 -40 -85.5 -56.5
t-103.5 -16.5zM142 316q-4 -19 -6 -38t-2 -39q0 -36 8 -79.5t29 -76.5l145 334q-22 9 -48 9q-40 0 -76 -27t-50 -83zM400 220q0 28 -4 60.5t-15 62.5t-31 51l-150 -345q14 -10 31 -16t38 -6q41 0 66.5 18t39.5 47t19.5 63t5.5 65z" />
    <glyph glyph-name="ugrave" unicode="&#xf9;" horiz-adv-x="633" 
d="M635 105l11 -19q-23 -20 -51 -42t-56 -37t-54 -15q-34 0 -50 20.5t-19 51.5l-8 1q-28 -17 -60.5 -34.5t-65 -29t-62.5 -11.5q-43 0 -65.5 19t-31 47t-8.5 56q0 12 0.5 35t1.5 48t1.5 47t0.5 33q0 46 -1.5 69.5t-5 34t-10.5 17.5q-8 9 -28 9q-10 0 -32 -10t-39 -20l-13 20
q20 15 43.5 32t47.5 29t45 12q38 0 51 -21t14 -69.5t1 -133.5q0 -51 3.5 -95t22 -71t64.5 -27q34 0 68 17.5t63 35.5q0 49 0.5 110.5t0.5 114.5v62.5t-1 43.5l77 35l13 -11q-12 -139 -12 -278q0 -30 2 -56.5t12.5 -43t34.5 -16.5q20 0 44 14t43 28zM349 551l-162 154l47 36
l13 -2l120 -157z" />
    <glyph glyph-name="uacute" unicode="&#xfa;" horiz-adv-x="633" 
d="M635 105l11 -19q-23 -20 -51 -42t-56 -37t-54 -15q-34 0 -50 20.5t-19 51.5l-8 1q-28 -17 -60.5 -34.5t-65 -29t-62.5 -11.5q-43 0 -65.5 19t-31 47t-8.5 56q0 12 0.5 35t1.5 48t1.5 47t0.5 33q0 46 -1.5 69.5t-5 34t-10.5 17.5q-8 9 -28 9q-10 0 -32 -10t-39 -20l-13 20
q20 15 43.5 32t47.5 29t45 12q38 0 51 -21t14 -69.5t1 -133.5q0 -51 3.5 -95t22 -71t64.5 -27q34 0 68 17.5t63 35.5q0 49 0.5 110.5t0.5 114.5v62.5t-1 43.5l77 35l13 -11q-12 -139 -12 -278q0 -30 2 -56.5t12.5 -43t34.5 -16.5q20 0 44 14t43 28zM280 550l-18 31l120 157
l13 2l47 -36z" />
    <glyph glyph-name="ucircumflex" unicode="&#xfb;" horiz-adv-x="633" 
d="M635 105l11 -19q-23 -20 -51 -42t-56 -37t-54 -15q-34 0 -50 20.5t-19 51.5l-8 1q-28 -17 -60.5 -34.5t-65 -29t-62.5 -11.5q-43 0 -65.5 19t-31 47t-8.5 56q0 12 0.5 35t1.5 48t1.5 47t0.5 33q0 46 -1.5 69.5t-5 34t-10.5 17.5q-8 9 -28 9q-10 0 -32 -10t-39 -20l-13 20
q20 15 43.5 32t47.5 29t45 12q38 0 51 -21t14 -69.5t1 -133.5q0 -51 3.5 -95t22 -71t64.5 -27q34 0 68 17.5t63 35.5q0 49 0.5 110.5t0.5 114.5v62.5t-1 43.5l77 35l13 -11q-12 -139 -12 -278q0 -30 2 -56.5t12.5 -43t34.5 -16.5q20 0 44 14t43 28zM323 742l157 -160
l-39 -26l-121 124l-143 -131l-23 12z" />
    <glyph glyph-name="udieresis" unicode="&#xfc;" horiz-adv-x="633" 
d="M635 105l11 -19q-23 -20 -51 -42t-56 -37t-54 -15q-34 0 -50 20.5t-19 51.5l-8 1q-28 -17 -60.5 -34.5t-65 -29t-62.5 -11.5q-43 0 -65.5 19t-31 47t-8.5 56q0 12 0.5 35t1.5 48t1.5 47t0.5 33q0 46 -1.5 69.5t-5 34t-10.5 17.5q-8 9 -28 9q-10 0 -32 -10t-39 -20l-13 20
q20 15 43.5 32t47.5 29t45 12q38 0 51 -21t14 -69.5t1 -133.5q0 -51 3.5 -95t22 -71t64.5 -27q34 0 68 17.5t63 35.5q0 49 0.5 110.5t0.5 114.5v62.5t-1 43.5l77 35l13 -11q-12 -139 -12 -278q0 -30 2 -56.5t12.5 -43t34.5 -16.5q20 0 44 14t43 28zM477 606
q-1 -25 -18.5 -40.5t-41.5 -15.5t-41 17t-17 41q0 26 21 41t43 15q26 0 40 -17.5t14 -40.5zM275 606q-1 -25 -18.5 -40.5t-41.5 -15.5t-41 17t-17 41q0 26 21 41t43 15q26 0 40 -17.5t14 -40.5z" />
    <glyph glyph-name="yacute" unicode="&#xfd;" horiz-adv-x="552" 
d="M104 -182l-2 11l44 56h13q16 -28 43 -52.5t61 -24.5q40 0 66 16.5t41 41.5t22.5 52t11.5 48q5 25 6 49.5t2 48.5l-6 5q-42 -26 -91 -51.5t-97 -25.5q-36 0 -57 16t-31 41.5t-13 54t-3 53.5q0 34 2 67t2 70q0 54 -7.5 85t-38.5 31q-13 0 -33.5 -9.5t-37.5 -18.5l-11 19
q5 4 21 14.5t36.5 22.5t42.5 21t39 9q32 0 47.5 -21t15.5 -49q0 -42 -2 -85t-2 -87q2 -46 5.5 -74t9 -43.5t13.5 -26.5q11 -14 28 -20t35 -6q36 0 71 18t63 34q1 26 1.5 53t0.5 54q0 54 -2 107.5t-6 105.5l79 38l12 -4q-5 -76 -6 -152t-1.5 -144.5t-3 -123.5t-10.5 -91
q-18 -65 -55.5 -105.5t-87 -59.5t-103.5 -19q-35 0 -71 15t-56 36zM279 545l-18 31l120 157l13 2l47 -36z" />
    <glyph glyph-name="thorn" unicode="&#xfe;" horiz-adv-x="543" 
d="M199 -206l-81 -31l-10 11q2 17 3 49.5t1.5 71.5t1 78.5t0.5 71.5v49v221q0 23 -3.5 45t-12 37t-23.5 15q-16 0 -35.5 -9t-37.5 -20l-14 19q30 24 66.5 46t69.5 22q27 0 46 -19t20 -71q1 -23 1 -42v-27l8 -4q41 32 85.5 53t96.5 21q51 0 81 -26t43 -64.5t13 -76.5
q0 -55 -18.5 -110t-53 -100t-82.5 -72t-106 -27q-15 0 -28.5 2t-27.5 6l-10 -8q1 -23 1.5 -38t2 -31t3.5 -42zM191 -18q18 -16 40.5 -26.5t47.5 -10.5q45 0 75 19t47.5 50.5t25 68t7.5 72.5q0 44 -12.5 81t-35.5 60t-55 23q-38 0 -71 -15t-68 -43q0 -2 -0.5 -18.5
t-0.5 -37.5t-0.5 -38t-0.5 -21q0 -41 0.5 -78.5t0.5 -61v-24.5z" />
    <glyph glyph-name="ydieresis" unicode="&#xff;" horiz-adv-x="552" 
d="M104 -182l-2 11l44 56h13q16 -28 43 -52.5t61 -24.5q40 0 66 16.5t41 41.5t22.5 52t11.5 48q5 25 6 49.5t2 48.5l-6 5q-42 -26 -91 -51.5t-97 -25.5q-36 0 -57 16t-31 41.5t-13 54t-3 53.5q0 34 2 67t2 70q0 54 -7.5 85t-38.5 31q-13 0 -33.5 -9.5t-37.5 -18.5l-11 19
q5 4 21 14.5t36.5 22.5t42.5 21t39 9q32 0 47.5 -21t15.5 -49q0 -42 -2 -85t-2 -87q2 -46 5.5 -74t9 -43.5t13.5 -26.5q11 -14 28 -20t35 -6q36 0 71 18t63 34q1 26 1.5 53t0.5 54q0 54 -2 107.5t-6 105.5l79 38l12 -4q-5 -76 -6 -152t-1.5 -144.5t-3 -123.5t-10.5 -91
q-18 -65 -55.5 -105.5t-87 -59.5t-103.5 -19q-35 0 -71 15t-56 36zM456 605q-1 -25 -18.5 -40.5t-41.5 -15.5t-41 17t-17 41q0 26 21 41t43 15q26 0 40 -17.5t14 -40.5zM254 605q-1 -25 -18.5 -40.5t-41.5 -15.5t-41 17t-17 41q0 26 21 41t43 15q26 0 40 -17.5t14 -40.5z
" />
    <glyph glyph-name="dotlessi" unicode="&#x131;" horiz-adv-x="323" 
d="M192 392l-8 -210q0 -55 9 -86t35 -31q29 0 50.5 13.5t41.5 31.5l13 -10v-11q-17 -22 -39.5 -44.5t-48 -37.5t-53.5 -15q-21 0 -39.5 7.5t-29.5 31.5t-11 73l6 221q0 39 -7.5 62t-27.5 23q-16 0 -39 -10.5t-41 -21.5l-13 18q34 27 72.5 51t67.5 24q34 0 48 -23t14 -56z
" />
    <glyph glyph-name="OE" unicode="&#x152;" horiz-adv-x="997" 
d="M890 336q-29 2 -59 4t-59 2h-59t-50 -3t-20 -12v-139q0 -28 2.5 -60.5t12.5 -51.5q11 -19 30.5 -25.5t65.5 -6.5q18 0 34 0.5t39 1.5t61.5 4t99.5 8l5 -5l-13 -53h-528q-63 -18 -132 -18q-77 0 -130.5 29t-86 77.5t-47.5 108t-15 121.5q0 97 23 165.5t78 128.5
q32 34 75 53t91.5 27t94.5 8q29 0 58 -4.5t57 -14.5l117 1q35 0 78 1.5l86 3t78 1.5h25t21 -1l-2 -50l-4 -7q-26 2 -60.5 3.5t-67.5 3t-55.5 2.5t-25.5 1h-40q-15 -3 -19.5 -26.5t-4.5 -49.5v-166q0 -13 19 -13.5t47 -0.5q40 0 90 2t90 5l6 -7zM134 348q0 -70 16.5 -133.5
t62.5 -114.5q45 -50 88 -63.5t72 -13.5q73 0 120 37.5t73 94.5v363q-26 60 -73.5 101t-121.5 41q-65 0 -110 -27t-73 -72t-41 -100.5t-13 -112.5z" />
    <glyph glyph-name="oe" unicode="&#x153;" horiz-adv-x="815" 
d="M770 319l-282 -122q3 -31 16.5 -64t41 -55t71.5 -22q41 0 80.5 21t73.5 47l11 -2l13 -18q-31 -29 -67.5 -55.5t-77 -43.5t-83.5 -17q-50 0 -82 21t-50 54l-4 -4q-35 -40 -85.5 -56.5t-103.5 -16.5q-69 0 -110.5 30.5t-60.5 78.5t-23 101q0 52 9.5 104t45.5 91
q35 39 85.5 56.5t102.5 17.5q59 0 97.5 -22t61.5 -57l2 2q37 43 88.5 66.5t108.5 23.5q65 0 103.5 -40t38.5 -98q0 -9 -6.5 -13t-14.5 -8zM530 396q-29 -31 -37.5 -65t-8.5 -71q0 -4 0.5 -8.5t1.5 -9.5l4 -4l202 80q5 2 9 8t4 18q0 21 -11 43t-31.5 36.5t-48.5 14.5
q-25 0 -46.5 -11t-37.5 -31zM142 316q-4 -19 -6 -38t-2 -39q0 -31 6 -68t20.5 -69.5t41 -53.5t67.5 -21t66.5 18t39.5 47t19.5 63t5.5 65t-5 66.5t-18.5 67.5t-40 52t-68.5 20q-40 0 -76 -27t-50 -83z" />
    <glyph glyph-name="uni0237" unicode="&#x237;" horiz-adv-x="288" 
d="M18 375l-13 18q21 16 45.5 33.5t49 29.5t46.5 12q36 0 47.5 -21t13.5 -46q3 -16 4.5 -51t2 -75t0.5 -73.5v-47.5v-33t-1.5 -58.5t-3.5 -61.5t-7 -42q-22 -65 -75 -111.5t-121 -78.5l-16 16q56 33 87 67.5t41 71.5q6 23 10 55.5t6 66.5t3 63t1 45q0 91 -2 142.5t-6.5 75.5
t-13 30t-22.5 6q-12 0 -34.5 -11.5t-41.5 -21.5z" />
    <glyph glyph-name="ring" unicode="&#x2da;" horiz-adv-x="500" 
d="M153 575q0 41 28.5 69t68.5 28q41 0 69 -28t28 -69q0 -40 -28 -68.5t-69 -28.5q-40 0 -68.5 28.5t-28.5 68.5zM183 575q0 -28 19.5 -47.5t47.5 -19.5t47.5 19.5t19.5 47.5t-19.5 47.5t-47.5 19.5t-47.5 -19.5t-19.5 -47.5z" />
    <glyph glyph-name="tilde" unicode="&#x2dc;" horiz-adv-x="500" 
d="M249 620l47 -21q11 -4 22.5 -7t23.5 -2q18 2 26 12t15 27l13 -5q-1 -14 -8 -34.5t-19 -36.5t-28 -18t-32.5 1.5t-31.5 10.5l-63 30q-11 5 -24 8t-26 1q-18 -2 -27.5 -12.5t-18.5 -35.5l-14 5q4 18 12 40t20.5 39t29.5 19q20 3 42 -4.5t41 -16.5z" />
    <glyph glyph-name="gravecomb" unicode="&#x300;" 
d="M32 511l-162 154l47 36l13 -2l120 -157z" />
    <glyph glyph-name="acutecomb" unicode="&#x301;" 
d="M-47 510l-18 31l120 157l13 2l47 -36z" />
    <glyph glyph-name="uni0302" unicode="&#x302;" 
d="M6 692l157 -160l-39 -26l-121 124l-143 -131l-23 12z" />
    <glyph glyph-name="tildecomb" unicode="&#x303;" 
d="M-2 620l47 -21q11 -4 22.5 -7t23.5 -2q18 2 26 12t15 27l13 -5q-1 -14 -8 -34.5t-19 -36.5t-28 -18t-32.5 1.5t-31.5 10.5l-63 30q-11 5 -24 8t-26 1q-18 -2 -27.5 -12.5t-18.5 -35.5l-14 5q4 18 12 40t20.5 39t29.5 19q20 3 42 -4.5t41 -16.5z" />
    <glyph glyph-name="uni0304" unicode="&#x304;" 
d="M115 555h-236l7 40h235z" />
    <glyph glyph-name="uni0308" unicode="&#x308;" 
d="M160 595q-1 -25 -18.5 -40.5t-41.5 -15.5t-41 17t-17 41q0 26 21 41t43 15q26 0 40 -17.5t14 -40.5zM-42 595q-1 -25 -18.5 -40.5t-41.5 -15.5t-41 17t-17 41q0 26 21 41t43 15q26 0 40 -17.5t14 -40.5z" />
    <glyph glyph-name="uni030A" unicode="&#x30a;" 
d="M-97 575q0 41 28.5 69t68.5 28q41 0 69 -28t28 -69q0 -40 -28 -68.5t-69 -28.5q-40 0 -68.5 28.5t-28.5 68.5zM-67 575q0 -28 19.5 -47.5t47.5 -19.5t47.5 19.5t19.5 47.5t-19.5 47.5t-47.5 19.5t-47.5 -19.5t-19.5 -47.5z" />
    <glyph glyph-name="uni0327" unicode="&#x327;" 
d="M-20 6h36l-20 -47q10 -4 34 -16.5t38 -29.5q17 -21 21.5 -47t-15.5 -53q-16 -22 -43 -36t-57.5 -22.5t-57.5 -13.5l-6 15l5 10q20 8 41 18.5t31 23.5q14 19 6 35t-27 28t-38 17z" />
    <glyph glyph-name="uni060C" unicode="&#x60c;" horiz-adv-x="278" 
d="M127 0q45 0 67.5 37.5t25.5 105.5q0 6 -5 9t-10 -2q-31 -30 -49.5 -30.5t-27 18.5t-9.5 49t3 63t11 58q13 48 20 76t8 35l-31 -30q-25 -70 -44 -138.5t-24 -122.5q-6 -58 14 -93t51 -35z" />
    <glyph glyph-name="uni061B" unicode="&#x61b;" horiz-adv-x="278" 
d="M57 85q-6 -6 0 -12l73 -71q6 -5 12 1l89 92q6 6 -1 12l-72 70q-6 6 -12 0zM127 229q45 0 67.5 37.5t25.5 105.5q0 6 -5 9t-10 -2q-31 -30 -49.5 -30.5t-27 18.5t-9.5 49t3 63t11 58q13 48 20 76t8 35l-31 -30q-25 -70 -44 -138.5t-24 -122.5q-6 -58 14 -93t51 -35z" />
    <glyph glyph-name="uni061F" unicode="&#x61f;" horiz-adv-x="345" 
d="M320 755q-4 4 -4.5 7.5t-2.5 5.5q-12 21 -31.5 37.5t-49.5 18.5q-52 3 -91.5 -24.5t-64.5 -72t-34.5 -94t-2.5 -89.5q14 -34 36 -61t47 -50q27 -24 48 -60t29 -80.5t-8 -95.5q-1 -5 4 -5t6 3q21 41 41 84t22 101q-7 63 -35.5 105.5t-63.5 77.5q-22 23 -45 48.5t-31 62.5
q34 27 84 25q34 -1 57 -21t25 -53q1 -10 10.5 -6t12.5 10q14 30 23.5 62t18.5 64zM106 85q-5 -7 1 -12l72 -70q8 -6 13 0l88 92q6 8 0 12l-73 70q-8 6 -12 0z" />
    <glyph glyph-name="uni0621" unicode="&#x621;" horiz-adv-x="431" 
d="M84 0q29 0 60 4.5t50 13.5q26 12 48.5 38t44.5 57q21 29 37.5 52.5t14.5 37.5q-2 19 -14.5 28t-29.5 14.5t-33 13.5t-26 25q21 18 41 26.5t48 15.5q6 11 21 30t22 32q8 13 13.5 26.5t-5.5 13.5q-10 0 -31.5 -11.5t-32.5 -19.5q-34 -24 -66 -55.5t-56 -64.5t-34 -61t0 -45
q8 -14 27.5 -27t45.5 -19q13 -3 17.5 -10t-13.5 -16q-24 -12 -56 -25t-63 -27t-53 -28q-19 -12 -9 -15.5t32 -3.5z" />
    <glyph glyph-name="uni0622" unicode="&#x622;" horiz-adv-x="248" 
d="M293 845q0 1 -1 2.5t-3 -0.5q-23 -20 -61 -33.5t-81 -13.5t-81 19q-7 4 -8.5 5.5t-9.5 -2.5q-27 -13 -45 -30t-33 -43t-14.5 -30t9.5 4t20.5 19.5t18.5 15.5t15 9.5t17 0.5q36 -18 76 -18.5t76.5 11t60.5 27.5zM73 569l28 -425l74 118l-28 425z" />
    <glyph glyph-name="uni0623" unicode="&#x623;" horiz-adv-x="248" 
d="M179 943v0q0 -1 0 -0.5v0.5q-7 -3 -13.5 -6t-12.5 -8q-10 -7 -27.5 -26t-33 -42t-19 -43t15.5 -31q8 -4 19 -9t19 -10q5 -3 1 -6t-6 -5q-22 -12 -46 -22t-47 -21q27 5 53 9.5t49 20.5q28 20 39 47t-10 40q-11 8 -26.5 11.5t-24.5 13.5q11 16 27 22.5t22 19.5zM73 569
l28 -425l74 118l-28 425z" />
    <glyph glyph-name="uni0624" unicode="&#x624;" horiz-adv-x="491" 
d="M444 758v0q0 -1 0 -0.5v0.5q-7 -3 -13.5 -6t-12.5 -8q-10 -7 -27.5 -26t-33 -42t-19 -43t15.5 -31q8 -4 19 -9t19 -10q5 -3 1 -6t-6 -5q-22 -12 -46 -22t-47 -21q27 5 53 9.5t49 20.5q28 20 39 47t-10 40q-11 8 -26.5 11.5t-24.5 13.5q11 16 27 22.5t22 19.5zM230 8v0
q54 10 103.5 46.5t87 87.5t56 108t12.5 110.5t-45 92.5q-9 9 -26.5 15t-28.5 -7q-24 -27 -38.5 -61t-31.5 -67q-7 -15 -8 -31.5t10 -29.5q13 -14 40.5 -16.5t51.5 2.5q5 -7 8.5 -19.5t-1.5 -17.5q-15 -17 -34 -31t-42 -23q-86 -35 -174 -68t-166 -77q-4 -2 -4 -7.5t5 -6.5
q55 -5 112.5 -7.5t112.5 7.5z" />
    <glyph glyph-name="uni0625" unicode="&#x625;" horiz-adv-x="248" 
d="M186 130v0q0 -1 0 -0.5v0.5q-7 -3 -13.5 -6t-12.5 -8q-10 -7 -27.5 -26t-33 -42t-19 -43t15.5 -31q8 -4 19 -9t19 -10q5 -3 1 -6t-6 -5q-22 -12 -46 -22t-47 -21q27 5 53 9.5t49 20.5q28 20 39 47t-10 40q-11 8 -26.5 11.5t-24.5 13.5q11 16 27 22.5t22 19.5zM73 569
l28 -425l74 118l-28 425z" />
    <glyph glyph-name="uni0626" unicode="&#x626;" horiz-adv-x="615" 
d="M344 772v0q0 -1 0 -0.5v0.5q-7 -3 -13.5 -6t-12.5 -8q-10 -7 -27.5 -26t-33 -42t-19 -43t15.5 -31q8 -4 19 -9t19 -10q5 -3 1 -6t-6 -5q-22 -12 -46 -22t-47 -21q27 5 53 9.5t49 20.5q28 20 39 47t-10 40q-11 8 -26.5 11.5t-24.5 13.5q11 16 27 22.5t22 19.5zM78 24
q47 -26 105 -24t119 24t118 57t102 76t70 80q20 29 23.5 56.5t-15.5 47.5q-13 14 -35.5 17t-43.5 9q-48 14 -66 29.5t-15.5 30.5t18 26.5t35 16.5t34.5 0q15 24 25 52t23 55q3 7 -4 8.5t-10 1.5q-26 -1 -47 -17.5t-35 -30.5q-16 -15 -37 -44.5t-39.5 -64.5t-28.5 -67.5
t-4 -53.5q11 -40 53.5 -58t92.5 -23q-45 -29 -97.5 -51t-114.5 -33q-34 -6 -73 -7t-73.5 6.5t-57.5 24.5q-31 24 -39.5 55.5t-2 66t21 69.5t31.5 66.5t29 55.5q3 6 -1.5 7t-6.5 -3q-17 -23 -39 -59.5t-43 -80.5t-35 -90t-15 -90t17 -80.5t61 -60.5z" />
    <glyph glyph-name="uni0627" unicode="&#x627;" horiz-adv-x="248" 
d="M73 569l28 -425l74 118l-28 425z" />
    <glyph glyph-name="uni0628" unicode="&#x628;" horiz-adv-x="801" 
d="M387 -123l-71 66q-20 -25 -41 -51t-41 -52l71 -66q21 26 41.5 51.5t40.5 51.5zM619 342q7 -17 14 -41t12.5 -46t4.5 -34l-21 -10t-56.5 -24t-80.5 -28.5t-93 -24.5t-93 -10q-43 0 -81 11.5t-60.5 37t-20.5 67.5q2 30 12 57.5t21 47.5t15 27q3 6 -2 7.5t-13 -10.5
q-40 -61 -65.5 -118.5t-25.5 -98.5q0 -49 18 -79t45 -45.5t55 -21t48 -5.5h23q62 0 128 18t126 48.5t105 69t65 78.5q23 45 25.5 88t-4.5 77.5t-15.5 55l-8.5 20.5z" />
    <glyph glyph-name="uni0629" unicode="&#x629;" horiz-adv-x="247" 
d="M210 521l60 119l-96 -18l-96 -18l-60 -119l96 18zM138 265q5 -3 13 -17t15 -31t9 -31.5t-4 -18.5q-22 -13 -53.5 -22t-60.5 4q-4 2 -9 7t-4 8q2 6 10 26.5t20.5 42t29 33t34.5 -0.5zM217 167q15 68 11 123.5t-22 88.5t-46 31.5t-61.5 -46t-67.5 -144.5q-15 -43 -24 -86.5
t-6.5 -77t23.5 -49.5t66 -4q42 11 67 35.5t38.5 58t21.5 70.5z" />
    <glyph glyph-name="uni062A" unicode="&#x62a;" horiz-adv-x="801" 
d="M462 468l60 119l-96 -18l-96 -18l-60 -119l96 18zM619 342q7 -17 14 -41t12.5 -46t4.5 -34l-21 -10t-56.5 -24t-80.5 -28.5t-93 -24.5t-93 -10q-43 0 -81 11.5t-60.5 37t-20.5 67.5q2 30 12 57.5t21 47.5t15 27q3 6 -2 7.5t-13 -10.5q-40 -61 -65.5 -118.5t-25.5 -98.5
q0 -49 18 -79t45 -45.5t55 -21t48 -5.5h23q62 0 128 18t126 48.5t105 69t65 78.5q23 45 25.5 88t-4.5 77.5t-15.5 55l-8.5 20.5z" />
    <glyph glyph-name="uni062B" unicode="&#x62b;" horiz-adv-x="801" 
d="M544 579q-7 14 -15.5 26t-19.5 22q-24 23 -47.5 19t-45.5 -24.5t-43 -48.5q-31 -42 -57 -86t-39 -69l-1 -1l1 -44q6 9 17.5 29t26.5 44t32.5 44t35 29t35 -1t32.5 -47q5 -11 8.5 -10t6.5 5q20 26 39 54t34 59zM619 342q7 -17 14 -41t12.5 -46t4.5 -34l-21 -10t-56.5 -24
t-80.5 -28.5t-93 -24.5t-93 -10q-43 0 -81 11.5t-60.5 37t-20.5 67.5q2 30 12 57.5t21 47.5t15 27q3 6 -2 7.5t-13 -10.5q-40 -61 -65.5 -118.5t-25.5 -98.5q0 -49 18 -79t45 -45.5t55 -21t48 -5.5h23q62 0 128 18t126 48.5t105 69t65 78.5q23 45 25.5 88t-4.5 77.5
t-15.5 55l-8.5 20.5z" />
    <glyph glyph-name="uni062C" unicode="&#x62c;" horiz-adv-x="683" 
d="M461 37l-71 66q-20 -25 -41 -51t-41 -52l71 -66q21 26 41.5 51.5t40.5 51.5zM387 398q-25 -24 -60.5 -47.5t-66.5 -46.5q-12 27 -29.5 51.5t-28.5 52.5q11 9 38 17t58 9.5t56.5 -6.5t32.5 -30v0zM648 -186v0q3 3 -3 2t-10 -2q-52 -14 -113 -25t-124.5 -15t-124.5 4.5
t-114.5 33t-94.5 70.5q-19 22 -14.5 52.5t25.5 65.5t51 70.5t62 67t59 55.5t41 36q30 26 60.5 54.5t54.5 62.5q10 14 24 43.5t23.5 62.5t6 60t-28.5 37q-32 14 -74 13t-81 -11t-61 -26q-25 -18 -43 -52t-25 -76t1.5 -83t36.5 -72q-34 -31 -69.5 -82t-64.5 -112t-42 -123
t-2 -115q14 -65 55 -104t100 -55t126.5 -11t135.5 27.5t127 60t100 86.5z" />
    <glyph glyph-name="uni062D" unicode="&#x62d;" horiz-adv-x="683" 
d="M387 398q-25 -24 -60.5 -47.5t-66.5 -46.5q-12 27 -29.5 51.5t-28.5 52.5q11 9 38 17t58 9.5t56.5 -6.5t32.5 -30v0zM648 -186v0q3 3 -3 2t-10 -2q-52 -14 -113 -25t-124.5 -15t-124.5 4.5t-114.5 33t-94.5 70.5q-19 22 -14.5 52.5t25.5 65.5t51 70.5t62 67t59 55.5
t41 36q30 26 60.5 54.5t54.5 62.5q10 14 24 43.5t23.5 62.5t6 60t-28.5 37q-32 14 -74 13t-81 -11t-61 -26q-25 -18 -43 -52t-25 -76t1.5 -83t36.5 -72q-34 -31 -69.5 -82t-64.5 -112t-42 -123t-2 -115q14 -65 55 -104t100 -55t126.5 -11t135.5 27.5t127 60t100 86.5z" />
    <glyph glyph-name="uni062E" unicode="&#x62e;" horiz-adv-x="683" 
d="M387 752l-71 66q-20 -25 -41 -51t-41 -52l71 -66q21 26 41.5 51.5t40.5 51.5zM387 398q-25 -24 -60.5 -47.5t-66.5 -46.5q-12 27 -29.5 51.5t-28.5 52.5q11 9 38 17t58 9.5t56.5 -6.5t32.5 -30v0zM648 -186v0q3 3 -3 2t-10 -2q-52 -14 -113 -25t-124.5 -15t-124.5 4.5
t-114.5 33t-94.5 70.5q-19 22 -14.5 52.5t25.5 65.5t51 70.5t62 67t59 55.5t41 36q30 26 60.5 54.5t54.5 62.5q10 14 24 43.5t23.5 62.5t6 60t-28.5 37q-32 14 -74 13t-81 -11t-61 -26q-25 -18 -43 -52t-25 -76t1.5 -83t36.5 -72q-34 -31 -69.5 -82t-64.5 -112t-42 -123
t-2 -115q14 -65 55 -104t100 -55t126.5 -11t135.5 27.5t127 60t100 86.5z" />
    <glyph glyph-name="uni062F" unicode="&#x62f;" horiz-adv-x="367" 
d="M242 311q11 -30 21.5 -65.5t9.5 -55.5v0q-25 -11 -60 -22t-72 -20t-67 -15l-74 -133q28 8 68 17.5t78 20.5t61 23q22 11 40.5 27t34.5 34q37 43 51.5 86.5t14.5 82.5t-7 69t-14.5 47.5l-7.5 17.5z" />
    <glyph glyph-name="uni0630" unicode="&#x630;" horiz-adv-x="367" 
d="M312 575l-71 66q-20 -25 -41 -51t-41 -52l71 -66q21 26 41.5 51.5t40.5 51.5zM242 311q11 -30 21.5 -65.5t9.5 -55.5v0q-25 -11 -60 -22t-72 -20t-67 -15l-74 -133q28 8 68 17.5t78 20.5t61 23q22 11 40.5 27t34.5 34q37 43 51.5 86.5t14.5 82.5t-7 69t-14.5 47.5
l-7.5 17.5z" />
    <glyph glyph-name="uni0631" unicode="&#x631;" horiz-adv-x="469" 
d="M448 272q-1 5 -6 5.5t-7 -5.5q-24 -53 -69 -83q-48 -32 -105.5 -54t-118.5 -41q-71 -22 -104.5 -37.5t-37 -26t16.5 -16.5t57 -9.5t84 -4.5q76 -2 127.5 21t85.5 63q16 19 31 50.5t27.5 68t18.5 69.5z" />
    <glyph glyph-name="uni0632" unicode="&#x632;" horiz-adv-x="469" 
d="M439 470l-71 66q-20 -25 -41 -51t-41 -52l71 -66q21 26 41.5 51.5t40.5 51.5zM448 272q-1 5 -6 5.5t-7 -5.5q-24 -53 -69 -83q-48 -32 -105.5 -54t-118.5 -41q-71 -22 -104.5 -37.5t-37 -26t16.5 -16.5t57 -9.5t84 -4.5q76 -2 127.5 21t85.5 63q16 19 31 50.5t27.5 68
t18.5 69.5z" />
    <glyph glyph-name="uni0633" unicode="&#x633;" horiz-adv-x="933" 
d="M426 289l41 14q53 15 110.5 29t114 30t104.5 38q-5 -15 -12.5 -29t-12.5 -29q-2 -7 -3.5 -15t4.5 -13q6 -4 12.5 -1.5t9.5 8.5q26 56 50 115.5t44 120.5v0q1 2 -1.5 3.5t-4.5 -0.5q-10 -16 -27.5 -26.5t-37.5 -18.5q-79 -31 -170 -51.5t-183 -40.5q-21 -4 -31 6.5
t-17 30.5t-19 43l-53 -132q11 -35 18 -67.5t6 -70.5q-32 -29 -75 -52t-95 -32.5t-111 0.5q-32 14 -43 37t-8 51t14.5 57t25.5 56t23 48q7 18 0.5 20.5t-12.5 -9.5q-55 -100 -74.5 -173.5t-11.5 -123t35.5 -77t67.5 -33.5t84.5 6.5t87 42.5t73.5 75q21 31 33.5 55t22 49.5
t21.5 58.5z" />
    <glyph glyph-name="uni0634" unicode="&#x634;" horiz-adv-x="1000" 
d="M973 504q2 3 -0.5 1.5l-2.5 -1.5q-24 -21 -51 -38.5t-59 -29.5q-69 -26 -140.5 -50t-151.5 -40q-45 26 -74.5 20t-51.5 -31.5t-47 -60.5q-25 -36 -50.5 -71t-61.5 -60q-13 -10 -31 -7t-26 17q-16 31 -14 57t1 60q-1 24 -6.5 43.5t-20.5 28.5q-10 6 -25.5 -1t-32.5 -19
q-41 -30 -63 -60.5t-35.5 -66.5t-29.5 -83q6 5 9.5 10.5t7.5 11.5q16 26 37 48.5t53 32.5q15 5 25.5 -2.5t16.5 -16.5q9 -13 12.5 -39t6.5 -54.5t8 -48.5q6 -22 21 -37t41 -17q31 10 56 40t48 68.5t45.5 74.5t49.5 57q16 12 26 11t18.5 -8.5t19 -14.5t27.5 -6
q94 27 179.5 55t161.5 72q-10 -25 -21.5 -43.5t-21.5 -43.5q-2 -5 3 -8.5t16 10.5q36 56 67.5 117t60.5 123z" />
    <glyph glyph-name="uni0635" unicode="&#x635;" horiz-adv-x="881" 
d="M349 126q26 37 44 78.5t27 84.5q25 4 58.5 11t63.5 14q65 17 127.5 54t102.5 90q17 23 33.5 49t20.5 53t-17 52q-17 20 -44.5 22t-54.5 -7t-43 -24q-55 -52 -95.5 -95.5t-63 -69.5l-22.5 -26v0q-29 -6 -42 2t-21.5 31t-25.5 59l-54 -125q11 -33 19 -68t6 -77
q-24 -22 -57.5 -42.5t-72 -34.5t-77.5 -17t-74 9q-31 11 -42 33t-8 50.5t14.5 59t25 58t22.5 48.5q7 18 0.5 21t-12.5 -9q-55 -100 -74.5 -173.5t-11.5 -123.5t35.5 -77t67.5 -33.5t84.5 6t87 42.5t73.5 75zM721 499q3 -6 5 -14t-6 -12q-43 -20 -92.5 -32t-102.5 -23
q27 28 54.5 55t62.5 46q21 11 45.5 4t33.5 -24z" />
    <glyph glyph-name="uni0636" unicode="&#x636;" horiz-adv-x="881" 
d="M689 794l-71 66q-20 -25 -41 -51t-41 -52l71 -66q21 26 41.5 51.5t40.5 51.5zM349 126q26 37 44 78.5t27 84.5q25 4 58.5 11t63.5 14q65 17 127.5 54t102.5 90q17 23 33.5 49t20.5 53t-17 52q-17 20 -44.5 22t-54.5 -7t-43 -24q-55 -52 -95.5 -95.5t-63 -69.5l-22.5 -26
v0q-29 -6 -42 2t-21.5 31t-25.5 59l-54 -125q11 -33 19 -68t6 -77q-24 -22 -57.5 -42.5t-72 -34.5t-77.5 -17t-74 9q-31 11 -42 33t-8 50.5t14.5 59t25 58t22.5 48.5q7 18 0.5 21t-12.5 -9q-55 -100 -74.5 -173.5t-11.5 -123.5t35.5 -77t67.5 -33.5t84.5 6t87 42.5t73.5 75z
M721 499q3 -6 5 -14t-6 -12q-43 -20 -92.5 -32t-102.5 -23q27 28 54.5 55t62.5 46q21 11 45.5 4t33.5 -24z" />
    <glyph glyph-name="uni0637" unicode="&#x637;" horiz-adv-x="681" 
d="M532 212q3 -6 4.5 -14.5t-6.5 -12.5q-43 -20 -92.5 -32t-102.5 -23q27 28 54.5 55t62.5 46q21 11 46 4.5t34 -23.5zM581 190q17 23 34 44t21 43t-17 47q-17 20 -44.5 22t-54.5 -7t-43 -24q-49 -46 -94 -94.5t-89 -98.5q-66 -11 -138 -16.5t-149 -3.5q-4 0 -6 -5t2 -7
q37 -22 64.5 -41t53.5 -32t58 -16q40 -4 105 12q98 26 172.5 68t124.5 109zM295 479l22 -321l74 118l-22 321z" />
    <glyph glyph-name="uni0638" unicode="&#x638;" horiz-adv-x="681" 
d="M589 488l-71 66q-20 -25 -41 -51t-41 -52l71 -66q21 26 41.5 51.5t40.5 51.5zM532 212q3 -6 4.5 -14.5t-6.5 -12.5q-43 -20 -92.5 -32t-102.5 -23q27 28 54.5 55t62.5 46q21 11 46 4.5t34 -23.5zM581 190q17 23 34 44t21 43t-17 47q-17 20 -44.5 22t-54.5 -7t-43 -24
q-49 -46 -94 -94.5t-89 -98.5q-66 -11 -138 -16.5t-149 -3.5q-4 0 -6 -5t2 -7q37 -22 64.5 -41t53.5 -32t58 -16q40 -4 105 12q98 26 172.5 68t124.5 109zM295 479l22 -321l74 118l-22 321z" />
    <glyph glyph-name="uni0639" unicode="&#x639;" horiz-adv-x="683" 
d="M206 262v0q-44 -34 -84.5 -89t-71 -119.5t-43.5 -128.5t-2 -117q14 -65 55 -104t99.5 -55t126.5 -11t135.5 27.5t126.5 60t100 86.5q3 3 -3 2t-10 -2q-52 -14 -113 -25t-124.5 -14.5t-124.5 5t-114.5 33t-94.5 70.5q-19 22 -14.5 52.5t25.5 65.5t51 70t62 66.5t59 55.5
t41 36q20 18 45 37t46 38.5t28 37.5l45 116q-22 -22 -50 -42t-57 -32.5t-54 -13t-43 16.5q-24 20 -37 42t-19 59q58 -6 105 -21l42 130q-25 6 -48 11t-49 6q-30 1 -53.5 -20.5t-38.5 -57.5t-18.5 -78.5t7 -84.5t37.5 -76q14 -18 30 -33z" />
    <glyph glyph-name="uni063A" unicode="&#x63a;" horiz-adv-x="683" 
d="M272 769l-71 66q-20 -25 -41 -51t-41 -52l71 -66q21 26 41.5 51.5t40.5 51.5zM206 262v0q-44 -34 -84.5 -89t-71 -119.5t-43.5 -128.5t-2 -117q14 -65 55 -104t99.5 -55t126.5 -11t135.5 27.5t126.5 60t100 86.5q3 3 -3 2t-10 -2q-52 -14 -113 -25t-124.5 -14.5t-124.5 5
t-114.5 33t-94.5 70.5q-19 22 -14.5 52.5t25.5 65.5t51 70t62 66.5t59 55.5t41 36q20 18 45 37t46 38.5t28 37.5l45 116q-22 -22 -50 -42t-57 -32.5t-54 -13t-43 16.5q-24 20 -37 42t-19 59q58 -6 105 -21l42 130q-25 6 -48 11t-49 6q-30 1 -53.5 -20.5t-38.5 -57.5
t-18.5 -78.5t7 -84.5t37.5 -76q14 -18 30 -33z" />
    <glyph glyph-name="uni0640" unicode="&#x640;" 
 />
    <glyph glyph-name="uni0641" unicode="&#x641;" horiz-adv-x="679" 
d="M562 663l-71 66q-20 -25 -41 -51t-41 -52l71 -66q21 26 41.5 51.5t40.5 51.5zM88 34q33 -22 83 -29.5t108 -2t115 23t105.5 45t79.5 64.5q34 40 56 86.5t25.5 95t-19.5 92.5q-12 25 -30.5 43.5t-37.5 22t-36 -19.5q-20 -28 -35.5 -60t-32.5 -63q-7 -14 -6.5 -34.5
t14.5 -27.5q24 -12 49.5 -4t41.5 21q4 5 9.5 -4t10.5 -23t8.5 -25l3.5 -11q-15 -15 -51 -32t-84 -31t-101 -23.5t-103 -10t-90 10t-62.5 35.5t-18.5 68q3 40 18 72t30 59q-8 -2 -12 -8l-8 -12q-57 -87 -74 -149.5t-3.5 -104t47.5 -64.5z" />
    <glyph glyph-name="uni0642" unicode="&#x642;" horiz-adv-x="634" 
d="M500 125q17 24 33.5 61.5t29.5 79.5t19 81.5t3 69.5q-3 22 -14.5 48.5t-28.5 46.5t-35.5 23.5t-35.5 -19.5q-20 -28 -35.5 -60.5t-32.5 -63.5q-7 -14 -6.5 -34.5t14.5 -27.5q24 -12 49 -4t41 21q5 5 7.5 -0.5t3.5 -7.5q4 -10 5.5 -31t2 -42t-0.5 -34q-22 -20 -59.5 -41.5
t-80.5 -36t-82.5 -15.5t-66 19.5t-31.5 70.5q-4 39 5 82t10 77q0 6 -6 11t-12 4q-45 -7 -78 -25.5t-61 -44.5q-14 -35 -26.5 -71t-24.5 -73q24 32 59 55.5t83 30.5q8 2 10.5 -8t2.5 -17q1 -15 -1 -28.5t-4 -27.5q-14 -76 5.5 -121t60.5 -62t92 -8.5t100.5 39.5t85.5 83z" />
    <glyph glyph-name="uni0643" unicode="&#x643;" horiz-adv-x="568" 
d="M488 217q-27 -14 -65 -30t-82 -29.5t-88 -19.5t-83 -0.5t-67 27.5q-33 26 -40.5 52t2.5 52.5t28 52.5t35 51q18 26 45 48t55 30t50 -7.5t30 -63.5q-17 -8 -27.5 -13t-22 -9t-30.5 -8l-43 -131q60 22 101 59.5t64.5 82t29.5 88t-3 77t-32.5 48.5t-59.5 3t-84 -59
t-107 -138q-18 -29 -38 -64t-35.5 -72t-20 -74.5t7.5 -70.5q18 -48 54.5 -71.5t84.5 -27t100.5 9t102.5 37.5t91.5 58.5t65.5 70.5q25 38 44 79.5t16 87.5l-30 387l-73 -122l28 -369q1 -10 1 -14.5t-5 -7.5z" />
    <glyph glyph-name="uni0644" unicode="&#x644;" horiz-adv-x="445" 
d="M328 666l28 -443q-48 -40 -117.5 -64.5t-152.5 -9.5q-32 14 -43 37t-8 51t14.5 57t25.5 56t23 48q7 18 1 20.5t-12 -9.5q-55 -100 -74.5 -173.5t-11.5 -123t35.5 -77t67.5 -33.5t84.5 6.5t87 42.5t73.5 75q37 53 58 114.5t21 125.5l-1.5 25t-4 66t-5.5 89t-6 95.5
t-5.5 85.5t-3.5 57z" />
    <glyph glyph-name="uni0645" unicode="&#x645;" horiz-adv-x="505" 
d="M475 468q2 10 -0.5 21t-16.5 12q-27 3 -57 5.5t-47 -12.5q-7 -6 -12 -12t-12 -18t-18 -36t-31 -67l-70 -18q-55 -15 -98 -33.5t-69 -57.5q-19 -42 -30 -93.5t-11 -106.5q1 -73 12.5 -140t26.5 -133.5t24 -136.5q12 42 16 96t-2 103l-42 261q-5 32 13 48.5t37 26.5
q33 18 71.5 28.5t78 21.5t71.5 27q48 25 80.5 51.5t53 65t32.5 97.5z" />
    <glyph glyph-name="uni0646" unicode="&#x646;" horiz-adv-x="463" 
d="M368 242v-9q-48 -43 -120 -72q-46 -18 -99 -18q-30 0 -62 6q-52 22 -52 65q0 17 7 34q14 37 28.5 68t27.5 61l74 -50q8 14 12 21.5t8 14.5l12 21t16 28.5t16 29.5q-20 14 -40 27.5t-40 26.5l-15 8q-13 -22 -27.5 -47t-26.5 -48q-44 -80 -65.5 -143.5t-21.5 -110.5
q0 -53 18.5 -89t49.5 -51q14 -7 30 -11t33 -4q18 0 38 4.5t42 11.5q84 32 139 110q56 82 74 183q3 14 4 29t1 29q0 69 -32 136l-54 -125q10 -31 17.5 -63t7.5 -73z" />
    <glyph glyph-name="uni0647" unicode="&#x647;" horiz-adv-x="247" 
d="M138 265q5 -3 13 -17t15 -31t9 -31.5t-4 -18.5q-22 -13 -53.5 -22t-60.5 4q-4 2 -9 7t-4 8q2 6 10 26.5t20.5 42t29 33t34.5 -0.5zM217 167q15 68 11 123.5t-22 88.5t-46 31.5t-61.5 -46t-67.5 -144.5q-15 -43 -24 -86.5t-6.5 -77t23.5 -49.5t66 -4q42 11 67 35.5
t38.5 58t21.5 70.5z" />
    <glyph glyph-name="uni0648" unicode="&#x648;" horiz-adv-x="491" 
d="M230 8v0q54 10 103.5 46.5t87 87.5t56 108t12.5 110.5t-45 92.5q-9 9 -26.5 15t-28.5 -7q-24 -27 -38.5 -61t-31.5 -67q-7 -15 -8 -31.5t10 -29.5q13 -14 40.5 -16.5t51.5 2.5q5 -7 8.5 -19.5t-1.5 -17.5q-15 -17 -34 -31t-42 -23q-86 -35 -174 -68t-166 -77
q-4 -2 -4 -7.5t5 -6.5q55 -5 112.5 -7.5t112.5 7.5z" />
    <glyph glyph-name="uni0649" unicode="&#x649;" horiz-adv-x="615" 
d="M78 24q47 -26 105 -24t119 24t118 57t102 76t70 80q20 29 23.5 56.5t-15.5 47.5q-13 14 -35.5 17t-43.5 9q-48 14 -66 29.5t-15.5 30.5t18 26.5t35 16.5t34.5 0q15 24 25 52t23 55q3 7 -4 8.5t-10 1.5q-26 -1 -47 -17.5t-35 -30.5q-16 -15 -37 -44.5t-39.5 -64.5
t-28.5 -67.5t-4 -53.5q11 -40 53.5 -58t92.5 -23q-45 -29 -97.5 -51t-114.5 -33q-34 -6 -73 -7t-73.5 6.5t-57.5 24.5q-31 24 -39.5 55.5t-2 66t21 69.5t31.5 66.5t29 55.5q3 6 -1.5 7t-6.5 -3q-17 -23 -39 -59.5t-43 -80.5t-35 -90t-15 -90t17 -80.5t61 -60.5z" />
    <glyph glyph-name="uni064A" unicode="&#x64a;" horiz-adv-x="615" 
d="M324 -134l60 119l-96 -18l-96 -18l-60 -119l96 18zM78 24q47 -26 105 -24t119 24t118 57t102 76t70 80q20 29 23.5 56.5t-15.5 47.5q-13 14 -35.5 17t-43.5 9q-48 14 -66 29.5t-15.5 30.5t18 26.5t35 16.5t34.5 0q15 24 25 52t23 55q3 7 -4 8.5t-10 1.5q-26 -1 -47 -17.5
t-35 -30.5q-16 -15 -37 -44.5t-39.5 -64.5t-28.5 -67.5t-4 -53.5q11 -40 53.5 -58t92.5 -23q-45 -29 -97.5 -51t-114.5 -33q-34 -6 -73 -7t-73.5 6.5t-57.5 24.5q-31 24 -39.5 55.5t-2 66t21 69.5t31.5 66.5t29 55.5q3 6 -1.5 7t-6.5 -3q-17 -23 -39 -59.5t-43 -80.5
t-35 -90t-15 -90t17 -80.5t61 -60.5z" />
    <glyph glyph-name="uni064B" unicode="&#x64b;" 
d="M-99 -20l-33 -52q46 23 102.5 43.5t108.5 38.5l29 46q-50 -18 -104.5 -37t-102.5 -39v0zM-99 45l-33 -52q46 23 102.5 43.5t108.5 38.5l29 46q-50 -18 -104.5 -37t-102.5 -39v0z" />
    <glyph glyph-name="uni064C" unicode="&#x64c;" 
d="M47 280q-59 -19 -105.5 -57t-71.5 -92q-14 -24 -15.5 -57.5t20.5 -51.5q18 -15 40 -11t38 15l23 49q-11 -6 -31 -13t-37 -4.5t-21 23.5q-3 12 3 27q8 18 21.5 34.5t28.5 29.5q22 20 50.5 39t61.5 26q39 8 55.5 -4.5t7.5 -51.5q-1 -4 -1.5 -7t-0.5 -5q1 -4 4.5 -1.5
t4.5 4.5q8 9 14.5 21t8.5 27q5 32 -9.5 47t-38.5 18t-50 -5zM79 80q11 35 11 54q0 17 -6.5 29t-21.5 12q-4 0 -7.5 -1t-7.5 -3q-16 -7 -35 -28t-19 -43q0 -21 16.5 -33.5t30.5 -20.5q-4 -4 -10 -9.5t-14 -10.5q-31 -22 -66.5 -45t-67.5 -43q-9 -5 -9 -7l6 1q61 15 104 38.5
t75 66.5q5 -4 9.5 -6t8.5 -7q6 9 10.5 18t4.5 19v1q-1 7 -4 11t-8 7zM42 134h3q9 0 13 -7t4 -18v-9t-2 -11q-7 4 -22 11.5t-15 17.5q0 7 6.5 11t12.5 5z" />
    <glyph glyph-name="uni064D" unicode="&#x64d;" 
d="M-99 -20l-33 -52q46 23 102.5 43.5t108.5 38.5l29 46q-50 -18 -104.5 -37t-102.5 -39v0zM-99 45l-33 -52q46 23 102.5 43.5t108.5 38.5l29 46q-50 -18 -104.5 -37t-102.5 -39v0z" />
    <glyph glyph-name="uni064E" unicode="&#x64e;" 
d="M-99 -23l-33 -52q46 23 102.5 43.5t108.5 38.5l29 46q-50 -18 -104.5 -37t-102.5 -39v0z" />
    <glyph glyph-name="uni064F" unicode="&#x64f;" 
d="M79 80q11 35 11 54q0 17 -6.5 29t-21.5 12q-4 0 -7.5 -1t-7.5 -3q-16 -7 -35 -28t-19 -43q0 -21 16.5 -33.5t30.5 -20.5q-4 -4 -10 -9.5t-14 -10.5q-31 -22 -66.5 -45t-67.5 -43q-9 -5 -9 -7l6 1q61 15 104 38.5t75 66.5q5 -4 9.5 -6t8.5 -7q6 9 10.5 18t4.5 19v1
q-1 7 -4 11t-8 7zM42 134h3q9 0 13 -7t4 -18v-9t-2 -11q-7 4 -22 11.5t-15 17.5q0 7 6.5 11t12.5 5z" />
    <glyph glyph-name="uni0650" unicode="&#x650;" 
d="M-99 46l-33 -52q46 23 102.5 43.5t108.5 38.5l29 46q-50 -18 -104.5 -37t-102.5 -39v0z" />
    <glyph glyph-name="uni0651" unicode="&#x651;" 
d="M-12 -22q6 -11 16.5 -22t28.5 -11q13 0 22 9q20 20 26 56.5t9 72.5l-18 -17v-4q0 -19 -7.5 -35.5t-23.5 -18.5h-2q-9 0 -22 13q-11 11 -11 35v6v6q0 2 0.5 2.5t0.5 1.5v1l-15 -15q-2 -32 -19 -53q-5 -7 -16 -10.5t-21 -3.5q-13 0 -20 8t-8 20v5q0 11 2.5 21t2.5 19v1
q-6 0 -9.5 -8t-5.5 -12q0 -1 -0.5 -1.5t-0.5 -1.5t-0.5 -1t-0.5 -1q-3 -11 -7 -27.5t-4 -31.5q0 -23 10 -37t34 -16q20 2 38 16.5t21 33.5z" />
    <glyph glyph-name="uni0652" unicode="&#x652;" 
d="M62 11q-16 -19 -75 -48t-62 -36l10 -1q127 9 171 96q14 28 14 45q0 15 -10 25q-16 16 -79 19h-18q-49 0 -61 -15q-23 -29 -37 -61q-13 -30 -13 -38h1q2 1 4.5 3t6.5 6q12 11 22.5 16t35.5 5h13.5t14.5 -1q54 -6 62 -13v-2z" />
    <glyph glyph-name="uni0652" unicode="&#x6e1;" 
d="M62 11q-16 -19 -75 -48t-62 -36l10 -1q127 9 171 96q14 28 14 45q0 15 -10 25q-16 16 -79 19h-18q-49 0 -61 -15q-23 -29 -37 -61q-13 -30 -13 -38h1q2 1 4.5 3t6.5 6q12 11 22.5 16t35.5 5h13.5t14.5 -1q54 -6 62 -13v-2z" />
    <glyph glyph-name="uni0653" unicode="&#x653;" 
d="M172 54q0 1 -1 2.5t-3 -0.5q-23 -20 -61 -33.5t-81 -13.5t-81 19q-7 4 -8.5 5.5t-9.5 -2.5q-27 -13 -45 -30t-33 -43t-14.5 -30t9.5 4t20.5 19.5t18.5 15.5t15 9.5t17 0.5q36 -18 76 -18.5t76.5 11t60.5 27.5z" />
    <glyph glyph-name="uni0654" unicode="&#x654;" 
d="M58 152v0q0 -1 0 -0.5v0.5q-7 -3 -13.5 -6t-12.5 -8q-10 -7 -27.5 -26t-33 -42t-19 -43t15.5 -31q8 -4 19 -9t19 -10q5 -3 1 -6t-6 -5q-22 -12 -46 -22t-47 -21q27 5 53 9.5t49 20.5q28 20 39 47t-10 40q-11 8 -26.5 11.5t-24.5 13.5q11 16 27 22.5t22 19.5z" />
    <glyph glyph-name="uni0655" unicode="&#x655;" 
d="M58 152v0q0 -1 0 -0.5v0.5q-7 -3 -13.5 -6t-12.5 -8q-10 -7 -27.5 -26t-33 -42t-19 -43t15.5 -31q8 -4 19 -9t19 -10q5 -3 1 -6t-6 -5q-22 -12 -46 -22t-47 -21q27 5 53 9.5t49 20.5q28 20 39 47t-10 40q-11 8 -26.5 11.5t-24.5 13.5q11 16 27 22.5t22 19.5z" />
    <glyph glyph-name="uni0656" unicode="&#x656;" 
d="M-24 150q-4 -8 -8 -17t-8 -17q2 -9 5 -18q11 -28 23 -55.5t13 -65.5v-8q0 -16 -3 -36q0 -1 -0.5 -1h-0.5q0 -3 2 -3h1q1 0 4 3q13 14 20 31.5t7 40.5v2q0 10 -1.5 19t-3.5 19q-7 29 -19 55.5t-22 52.5q-1 3 -4 3h-1q-4 -1 -4 -5z" />
    <glyph glyph-name="uni0657" unicode="&#x657;" 
d="M-36 26q-11 -35 -11 -54q0 -17 6.5 -29t21.5 -12q4 0 7.5 1t7.5 3q16 7 35 28t19 43q0 21 -16.5 33.5t-30.5 20.5q4 4 10 9.5t14 10.5q31 22 66.5 45t67.5 43q9 5 9 7l-6 -1q-61 -15 -104 -38.5t-75 -66.5q-5 4 -9.5 6t-8.5 7q-6 -9 -10.5 -18t-4.5 -19v-1q1 -7 4 -11
t8 -7zM1 -28h-3q-9 0 -13 7t-4 18v9t2 11q7 -4 22 -11.5t15 -17.5q0 -7 -6.5 -11t-12.5 -5z" />
    <glyph glyph-name="uni0658" unicode="&#x658;" 
d="M3 -72q13 -1 27 8q20 12 31 31t21 43q2 5 1 7.5t-5 -2.5q-11 -13 -24 -17q-7 -3 -14.5 -3.5t-14.5 0.5q-15 0 -26 10q-12 8 -18 22q-6 13 -1 34q4 16 23 43v1.5v1.5t-2 1q-5 0 -13 -11q-11 -16 -18.5 -33.5t-15.5 -41.5q-6 -22 -4 -42q3 -48 53 -52z" />
    <glyph glyph-name="uni065A" unicode="&#x65a;" 
d="M18 -10q-16 28 -35.5 57t-43.5 57q-6 -10 -11.5 -21t-10.5 -22q25 -30 48.5 -62t36.5 -73q0 -1 1 -1q11 0 14.5 12.5t6.5 19.5q13 29 27.5 55.5t34.5 49.5q0 10 2 20.5t5 20.5h-1.5h-0.5h-1v0q-20 -26 -38.5 -53.5t-33.5 -59.5z" />
    <glyph glyph-name="uni0660" unicode="&#x660;" horiz-adv-x="231" 
d="M30 263q-3 -3 -3 -5q0 -5 5 -8l83 -70q3 -3 7 -3q1 0 5 4l75 91q3 3 3 6q0 4 -5 7l-83 70q-3 3 -7 3q-3 0 -6 -3z" />
    <glyph glyph-name="uni0660" unicode="&#x6f0;" horiz-adv-x="231" 
d="M30 263q-3 -3 -3 -5q0 -5 5 -8l83 -70q3 -3 7 -3q1 0 5 4l75 91q3 3 3 6q0 4 -5 7l-83 70q-3 3 -7 3q-3 0 -6 -3z" />
    <glyph glyph-name="uni0661" unicode="&#x661;" horiz-adv-x="188" 
d="M156 281q0 3 -1 10t-1 10q-10 81 -30.5 150.5t-46.5 133.5q-14 -34 -27.5 -70.5t-24.5 -69.5q41 -88 62 -201.5t5 -243.5q6 -2 10 4t6 10q25 52 40.5 118.5t7.5 148.5v0z" />
    <glyph glyph-name="uni0661" unicode="&#x6f1;" horiz-adv-x="188" 
d="M156 281q0 3 -1 10t-1 10q-10 81 -30.5 150.5t-46.5 133.5q-14 -34 -27.5 -70.5t-24.5 -69.5q41 -88 62 -201.5t5 -243.5q6 -2 10 4t6 10q25 52 40.5 118.5t7.5 148.5v0z" />
    <glyph glyph-name="uni0662" unicode="&#x662;" horiz-adv-x="286" 
d="M262 571q0 2 -1 2.5l-1 0.5q-31 8 -63.5 13.5t-68.5 0.5q-34 -4 -55.5 -28.5t-32.5 -61.5t-12 -78.5t7 -80t24 -65.5q20 -33 40 -76.5t32 -93.5t6 -104q8 6 10 14q9 32 19.5 64.5t17.5 67t2 73.5q-11 40 -30.5 80t-39.5 79.5t-35 75.5q34 10 70.5 5.5t67.5 -13.5
q4 -1 8 3.5t5 9.5z" />
    <glyph glyph-name="uni0663" unicode="&#x663;" horiz-adv-x="414" 
d="M389 580q1 6 -3.5 -2.5t-5.5 -11.5q-5 -27 -28 -44.5t-55 -10.5q-10 2 -17.5 13.5t-5.5 27.5q1 2 -2 7t-5 0q-4 -6 -8.5 -21t-8.5 -20q-10 -14 -31.5 -24t-45 -10.5t-42.5 12.5q-20 14 -33 40t-24 49q-14 -30 -26 -61.5t-23 -62.5q16 -39 39 -71t43 -66q26 -42 52 -90.5
t41 -106.5t8 -129q0 -1 5 1t6 5q36 56 44 119t-6.5 126.5t-46.5 118.5q-3 5 7.5 14.5t17.5 15.5q4 -4 7.5 -8.5t8.5 -7.5q21 -13 44 -3.5t36 20.5q31 29 42.5 77.5t15.5 103.5v0z" />
    <glyph glyph-name="uni0663" unicode="&#x6f3;" horiz-adv-x="414" 
d="M389 580q1 6 -3.5 -2.5t-5.5 -11.5q-5 -27 -28 -44.5t-55 -10.5q-10 2 -17.5 13.5t-5.5 27.5q1 2 -2 7t-5 0q-4 -6 -8.5 -21t-8.5 -20q-10 -14 -31.5 -24t-45 -10.5t-42.5 12.5q-20 14 -33 40t-24 49q-14 -30 -26 -61.5t-23 -62.5q16 -39 39 -71t43 -66q26 -42 52 -90.5
t41 -106.5t8 -129q0 -1 5 1t6 5q36 56 44 119t-6.5 126.5t-46.5 118.5q-3 5 7.5 14.5t17.5 15.5q4 -4 7.5 -8.5t8.5 -7.5q21 -13 44 -3.5t36 20.5q31 29 42.5 77.5t15.5 103.5v0z" />
    <glyph glyph-name="uni0664" unicode="&#x664;" horiz-adv-x="358" 
d="M333 149q-4 2 -5.5 2h-1.5q-28 -17 -64 -27t-78 -3q-28 5 -53.5 18t-30.5 40q22 35 41.5 64.5t27.5 56t-4 52t-53 50.5q-14 9 -9 24q8 24 31 36t41 25q11 26 22 51t25 47q-7 -2 -12.5 -5t-10.5 -6q-48 -30 -83.5 -80.5t-61.5 -99.5q-22 -41 -26 -63t3 -33t20 -17.5
t26.5 -17t21.5 -31.5q-12 -37 -29.5 -66t-34.5 -58q-10 -19 -5 -42t18 -35q20 -18 50 -25.5t62.5 -5.5t61.5 11.5t47 26.5q17 27 32.5 55.5t31.5 55.5v0z" />
    <glyph glyph-name="uni0665" unicode="&#x665;" horiz-adv-x="338" 
d="M255 177q3 -9 -16 -19t-48 -15.5t-59 -3.5t-51 15q-15 10 -13 34t14 52.5t27 52.5t25 34q9 8 21.5 9.5t22.5 -6.5q16 -11 31.5 -40.5t28 -61.5t17.5 -51zM223 43q63 65 76.5 145.5t-19.5 162.5q-15 36 -34 68.5t-41 50.5t-44.5 10t-43.5 -53q-7 -16 -19 -48t-24.5 -73.5
t-23.5 -85.5t-17 -84.5t-4 -70.5t15 -42q24 -22 59 -23t68.5 11.5t51.5 31.5z" />
    <glyph glyph-name="uni0666" unicode="&#x666;" horiz-adv-x="379" 
d="M355 124q0 1 -2 4t-3 4q-24 49 -36.5 115.5t-12.5 139.5t11 142q-74 -3 -133 13.5t-106 42.5q-8 -25 -19.5 -52.5t-21.5 -53.5q-2 -6 -2.5 -13.5t6.5 -11.5q44 -23 95.5 -37.5t117.5 -16.5q-1 -6 -1.5 -16t-1.5 -15q-10 -106 4.5 -199t44.5 -167q2 -4 7.5 -3t6.5 4
q13 29 24.5 59t21.5 61v0z" />
    <glyph glyph-name="uni0667" unicode="&#x667;" horiz-adv-x="376" 
d="M352 584q-5 2 -6 -2q-37 -85 -71.5 -176t-61.5 -192q-27 88 -64 184t-81 187q-11 -35 -22.5 -70.5t-20.5 -68.5q49 -103 92.5 -209.5t65.5 -233.5q2 -6 8 -1.5t8 8.5q11 20 15 46t10 50q24 92 51.5 179t64.5 164q0 36 3.5 70t8.5 65v0z" />
    <glyph glyph-name="uni0668" unicode="&#x668;" horiz-adv-x="376" 
d="M24 1q5 -2 6 2q38 86 72 177t61 191q27 -88 65 -184t81 -187q11 35 22 70.5t20 68.5q-49 104 -92 209.5t-66 232.5q-1 6 -7.5 2t-8.5 -8q-11 -20 -15 -46.5t-10 -50.5q-24 -92 -51 -179t-65 -164q0 -36 -3.5 -69.5t-8.5 -64.5v0z" />
    <glyph glyph-name="uni0668" unicode="&#x6f8;" horiz-adv-x="376" 
d="M24 1q5 -2 6 2q38 86 72 177t61 191q27 -88 65 -184t81 -187q11 35 22 70.5t20 68.5q-49 104 -92 209.5t-66 232.5q-1 6 -7.5 2t-8.5 -8q-11 -20 -15 -46.5t-10 -50.5q-24 -92 -51 -179t-65 -164q0 -36 -3.5 -69.5t-8.5 -64.5v0z" />
    <glyph glyph-name="uni0669" unicode="&#x669;" horiz-adv-x="317" 
d="M183 411q-1 0 2 -6t1 -7q-17 -12 -46 -15t-46 10q-10 9 -4 20q8 16 19 31t36 11q14 -2 24 -17t14 -27v0zM293 134l-3 5q-17 56 -23.5 113t-8 119.5t-4.5 134.5q-2 51 -43 73q-19 11 -38.5 3t-30.5 -19q-12 -13 -32 -43.5t-40.5 -69.5t-33 -78.5t-9 -70t30.5 -42.5
t53 -6.5t46.5 21t32.5 32.5q1 -63 6 -113.5t15.5 -97.5t24.5 -97z" />
    <glyph glyph-name="uni0669" unicode="&#x6f9;" horiz-adv-x="317" 
d="M183 411q-1 0 2 -6t1 -7q-17 -12 -46 -15t-46 10q-10 9 -4 20q8 16 19 31t36 11q14 -2 24 -17t14 -27v0zM293 134l-3 5q-17 56 -23.5 113t-8 119.5t-4.5 134.5q-2 51 -43 73q-19 11 -38.5 3t-30.5 -19q-12 -13 -32 -43.5t-40.5 -69.5t-33 -78.5t-9 -70t30.5 -42.5
t53 -6.5t46.5 21t32.5 32.5q1 -63 6 -113.5t15.5 -97.5t24.5 -97z" />
    <glyph glyph-name="uni066A" unicode="&#x66a;" horiz-adv-x="440" 
d="M24 429l83 -50l68 115l-83 48zM266 10l83 -51l68 115l-83 49zM62 -62l70 32l264 544l-71 -34z" />
    <glyph glyph-name="uni066E" unicode="&#x66e;" horiz-adv-x="801" 
d="M619 342q7 -17 14 -41t12.5 -46t4.5 -34l-21 -10t-56.5 -24t-80.5 -28.5t-93 -24.5t-93 -10q-43 0 -81 11.5t-60.5 37t-20.5 67.5q2 30 12 57.5t21 47.5t15 27q3 6 -2 7.5t-13 -10.5q-40 -61 -65.5 -118.5t-25.5 -98.5q0 -49 18 -79t45 -45.5t55 -21t48 -5.5h23
q62 0 128 18t126 48.5t105 69t65 78.5q23 45 25.5 88t-4.5 77.5t-15.5 55l-8.5 20.5z" />
    <glyph glyph-name="uni066F" unicode="&#x66f;" horiz-adv-x="488" 
d="M103 414q0 -3 -1 -6t-3 -8q-7 -17 -19 -40.5t-22.5 -47.5t-15.5 -45q-5 -22 -5 -38q0 -15 3 -29q6 -24 28 -38.5t53.5 -18.5t64.5 1q35 6 70.5 19.5t66.5 32t50 36.5q0 21 -3.5 50t-11.5 42q-24 -6 -51.5 -3.5t-40.5 16.5q-21 24 -2 61q17 33 32 68t38 61q12 14 29.5 7
t25.5 -15q70 -72 43 -196q-22 -106 -65.5 -180.5t-123.5 -114.5q-66 -33 -124 -27q-119 11 -119 156q0 44 21.5 108t65.5 147q5 9 10 9q6 0 6 -7z" />
    <glyph glyph-name="uni0670" unicode="&#x670;" 
d="M-24 150q-4 -8 -8 -17t-8 -17q2 -9 5 -18q11 -28 23 -55.5t13 -65.5v-8q0 -16 -3 -36q0 -1 -0.5 -1h-0.5q0 -3 2 -3h1q1 0 4 3q13 14 20 31.5t7 40.5v2q0 10 -1.5 19t-3.5 19q-7 29 -19 55.5t-22 52.5q-1 3 -4 3h-1q-4 -1 -4 -5z" />
    <glyph glyph-name="uni0671" unicode="&#x671;" horiz-adv-x="248" 
d="M211 847q4 -6 -1 -9q-15 -7 -32.5 -11.5t-36.5 -8.5l19.5 19.5t22.5 16.5q8 4 16.5 1.5t11.5 -8.5zM120 815v0q-13 16 -29 14t-30.5 -14.5t-25.5 -29.5t-15 -32q-1 -3 3.5 0t5.5 4q23 22 33.5 27.5t16 2t12.5 -9t22.5 -6t45.5 12.5v0q21 8 39.5 20t30.5 28q9 12 16.5 27
t-3.5 28q-9 11 -25.5 7.5t-24.5 -11.5q-17 -16 -33.5 -32.5t-31.5 -34.5q-3 -1 -7 -1zM73 569l28 -425l74 118l-28 425z" />
    <glyph glyph-name="uni0674" unicode="&#x674;" horiz-adv-x="431" 
d="M84 254q29 0 60 4.5t50 13.5q26 12 48.5 38t44.5 57q21 29 37.5 52.5t14.5 37.5q-2 19 -14.5 28t-29.5 14.5t-33 13.5t-26 25q21 18 41 26.5t48 15.5q6 11 21 30t22 32q8 13 13.5 26.5t-5.5 13.5q-10 0 -31.5 -11.5t-32.5 -19.5q-34 -24 -66 -55.5t-56 -64.5t-34 -61
t0 -45q8 -14 27.5 -27t45.5 -19q13 -3 17.5 -10t-13.5 -16q-24 -12 -56 -25t-63 -27t-53 -28q-19 -12 -9 -15.5t32 -3.5z" />
    <glyph glyph-name="uni0679" unicode="&#x679;" horiz-adv-x="801" 
d="M463 544q2 -2 2.5 -5.5t-2.5 -5.5q-16 -8 -36 -12.5t-40 -8.5l21.5 21.5t23.5 17.5q8 5 17.5 2.5t13.5 -9.5zM482 535q10 14 18.5 26t-3.5 27q-10 12 -28 8t-27 -12q-19 -18 -36.5 -36.5t-34.5 -38.5q-25 -4 -53.5 -6.5t-58.5 -1.5q-1 0 -2 -2t0 -3q22 -13 36 -22.5
t33 -11.5q17 -2 41 4q38 10 67 26.5t48 42.5zM371 648l8 -125l29 46l-8 125zM619 342q7 -17 14 -41t12.5 -46t4.5 -34l-21 -10t-56.5 -24t-80.5 -28.5t-93 -24.5t-93 -10q-43 0 -81 11.5t-60.5 37t-20.5 67.5q2 30 12 57.5t21 47.5t15 27q3 6 -2 7.5t-13 -10.5
q-40 -61 -65.5 -118.5t-25.5 -98.5q0 -49 18 -79t45 -45.5t55 -21t48 -5.5h23q62 0 128 18t126 48.5t105 69t65 78.5q23 45 25.5 88t-4.5 77.5t-15.5 55l-8.5 20.5z" />
    <glyph glyph-name="uni067E" unicode="&#x67e;" horiz-adv-x="801" 
d="M455 -111q-7 14 -15.5 26t-19.5 22q-24 23 -47.5 19t-45.5 -24.5t-43 -48.5q-31 -42 -57 -86t-39 -69l-1 -1l1 -44q6 9 17.5 29t26.5 44t32.5 44t35 29t35 -1t32.5 -47q5 -11 8.5 -10t6.5 5q20 26 39 54t34 59zM619 342q7 -17 14 -41t12.5 -46t4.5 -34l-21 -10t-56.5 -24
t-80.5 -28.5t-93 -24.5t-93 -10q-43 0 -81 11.5t-60.5 37t-20.5 67.5q2 30 12 57.5t21 47.5t15 27q3 6 -2 7.5t-13 -10.5q-40 -61 -65.5 -118.5t-25.5 -98.5q0 -49 18 -79t45 -45.5t55 -21t48 -5.5h23q62 0 128 18t126 48.5t105 69t65 78.5q23 45 25.5 88t-4.5 77.5
t-15.5 55l-8.5 20.5z" />
    <glyph glyph-name="uni0686" unicode="&#x686;" horiz-adv-x="683" 
d="M529 50q-7 14 -15.5 26t-19.5 22q-24 23 -47.5 19t-45.5 -24.5t-43 -48.5q-31 -42 -57 -86t-39 -69l-1 -1l1 -44q6 9 17.5 29t26.5 44t32.5 44t35 29t35 -1t32.5 -47q5 -11 8.5 -10t6.5 5q20 26 39 54t34 59zM387 398q-25 -24 -60.5 -47.5t-66.5 -46.5q-12 27 -29.5 51.5
t-28.5 52.5q11 9 38 17t58 9.5t56.5 -6.5t32.5 -30v0zM648 -186v0q3 3 -3 2t-10 -2q-52 -14 -113 -25t-124.5 -15t-124.5 4.5t-114.5 33t-94.5 70.5q-19 22 -14.5 52.5t25.5 65.5t51 70.5t62 67t59 55.5t41 36q30 26 60.5 54.5t54.5 62.5q10 14 24 43.5t23.5 62.5t6 60
t-28.5 37q-32 14 -74 13t-81 -11t-61 -26q-25 -18 -43 -52t-25 -76t1.5 -83t36.5 -72q-34 -31 -69.5 -82t-64.5 -112t-42 -123t-2 -115q14 -65 55 -104t100 -55t126.5 -11t135.5 27.5t127 60t100 86.5z" />
    <glyph glyph-name="uni0688" unicode="&#x688;" horiz-adv-x="367" 
d="M299 601q2 -2 2.5 -5.5t-2.5 -5.5q-16 -8 -36 -12.5t-40 -8.5l21.5 21.5t23.5 17.5q8 5 17.5 2.5t13.5 -9.5zM318 592q10 14 18.5 26t-3.5 27q-10 12 -28 8t-27 -12q-19 -18 -36.5 -36.5t-34.5 -38.5q-25 -4 -53.5 -6.5t-58.5 -1.5q-1 0 -2 -2t0 -3q22 -13 36 -22.5
t33 -11.5q17 -2 41 4q38 10 67 26.5t48 42.5zM207 705l8 -125l29 46l-8 125zM242 311q11 -30 21.5 -65.5t9.5 -55.5v0q-25 -11 -60 -22t-72 -20t-67 -15l-74 -133q28 8 68 17.5t78 20.5t61 23q22 11 40.5 27t34.5 34q37 43 51.5 86.5t14.5 82.5t-7 69t-14.5 47.5l-7.5 17.5z
" />
    <glyph glyph-name="uni068E" unicode="&#x68e;" horiz-adv-x="367" 
d="M380 636q-7 14 -15.5 26t-19.5 22q-24 23 -47.5 19t-45.5 -24.5t-43 -48.5q-31 -42 -57 -86t-39 -69l-1 -1l1 -44q6 9 17.5 29t26.5 44t32.5 44t35 29t35 -1t32.5 -47q5 -11 8.5 -10t6.5 5q20 26 39 54t34 59zM242 311q11 -30 21.5 -65.5t9.5 -55.5v0q-25 -11 -60 -22
t-72 -20t-67 -15l-74 -133q28 8 68 17.5t78 20.5t61 23q22 11 40.5 27t34.5 34q37 43 51.5 86.5t14.5 82.5t-7 69t-14.5 47.5l-7.5 17.5z" />
    <glyph glyph-name="uni0691" unicode="&#x691;" horiz-adv-x="469" 
d="M426 496q2 -2 2.5 -5.5t-2.5 -5.5q-16 -8 -36 -12.5t-40 -8.5l21.5 21.5t23.5 17.5q8 5 17.5 2.5t13.5 -9.5zM445 487q10 14 18.5 26t-3.5 27q-10 12 -28 8t-27 -12q-19 -18 -36.5 -36.5t-34.5 -38.5q-25 -4 -53.5 -6.5t-58.5 -1.5q-1 0 -2 -2t0 -3q22 -13 36 -22.5
t33 -11.5q17 -2 41 4q38 10 67 26.5t48 42.5zM334 600l8 -125l29 46l-8 125zM448 272q-1 5 -6 5.5t-7 -5.5q-24 -53 -69 -83q-48 -32 -105.5 -54t-118.5 -41q-71 -22 -104.5 -37.5t-37 -26t16.5 -16.5t57 -9.5t84 -4.5q76 -2 127.5 21t85.5 63q16 19 31 50.5t27.5 68
t18.5 69.5z" />
    <glyph glyph-name="uni0695" unicode="&#x695;" horiz-adv-x="469" 
d="M251 -234q-16 28 -35.5 57t-43.5 57q-6 -10 -11.5 -21t-10.5 -22q25 -30 48.5 -62t36.5 -73q0 -1 1 -1q11 0 14.5 12.5t6.5 19.5q13 29 27.5 55.5t34.5 49.5q0 10 2 20.5t5 20.5h-1.5h-0.5h-1v0q-20 -26 -38.5 -53.5t-33.5 -59.5zM448 272q-1 5 -6 5.5t-7 -5.5
q-24 -53 -69 -83q-48 -32 -105.5 -54t-118.5 -41q-71 -22 -104.5 -37.5t-37 -26t16.5 -16.5t57 -9.5t84 -4.5q76 -2 127.5 21t85.5 63q16 19 31 50.5t27.5 68t18.5 69.5z" />
    <glyph glyph-name="uni0698" unicode="&#x698;" horiz-adv-x="469" 
d="M507 531q-7 14 -15.5 26t-19.5 22q-24 23 -47.5 19t-45.5 -24.5t-43 -48.5q-31 -42 -57 -86t-39 -69l-1 -1l1 -44q6 9 17.5 29t26.5 44t32.5 44t35 29t35 -1t32.5 -47q5 -11 8.5 -10t6.5 5q20 26 39 54t34 59zM448 272q-1 5 -6 5.5t-7 -5.5q-24 -53 -69 -83
q-48 -32 -105.5 -54t-118.5 -41q-71 -22 -104.5 -37.5t-37 -26t16.5 -16.5t57 -9.5t84 -4.5q76 -2 127.5 21t85.5 63q16 19 31 50.5t27.5 68t18.5 69.5z" />
    <glyph glyph-name="uni06A0" unicode="&#x6a0;" horiz-adv-x="683" 
d="M340 830q-7 14 -15.5 26t-19.5 22q-24 23 -47.5 19t-45.5 -24.5t-43 -48.5q-31 -42 -57 -86t-39 -69l-1 -1l1 -44q6 9 17.5 29t26.5 44t32.5 44t35 29t35 -1t32.5 -47q5 -11 8.5 -10t6.5 5q20 26 39 54t34 59zM206 262v0q-44 -34 -84.5 -89t-71 -119.5t-43.5 -128.5
t-2 -117q14 -65 55 -104t99.5 -55t126.5 -11t135.5 27.5t126.5 60t100 86.5q3 3 -3 2t-10 -2q-52 -14 -113 -25t-124.5 -14.5t-124.5 5t-114.5 33t-94.5 70.5q-19 22 -14.5 52.5t25.5 65.5t51 70t62 66.5t59 55.5t41 36q20 18 45 37t46 38.5t28 37.5l45 116q-22 -22 -50 -42
t-57 -32.5t-54 -13t-43 16.5q-24 20 -37 42t-19 59q58 -6 105 -21l42 130q-25 6 -48 11t-49 6q-30 1 -53.5 -20.5t-38.5 -57.5t-18.5 -78.5t7 -84.5t37.5 -76q14 -18 30 -33z" />
    <glyph glyph-name="uni06A1" unicode="&#x6a1;" horiz-adv-x="679" 
d="M88 34q33 -22 83 -29.5t108 -2t115 23t105.5 45t79.5 64.5q34 40 56 86.5t25.5 95t-19.5 92.5q-12 25 -30.5 43.5t-37.5 22t-36 -19.5q-20 -28 -35.5 -60t-32.5 -63q-7 -14 -6.5 -34.5t14.5 -27.5q24 -12 49.5 -4t41.5 21q4 5 9.5 -4t10.5 -23t8.5 -25l3.5 -11
q-15 -15 -51 -32t-84 -31t-101 -23.5t-103 -10t-90 10t-62.5 35.5t-18.5 68q3 40 18 72t30 59q-8 -2 -12 -8l-8 -12q-57 -87 -74 -149.5t-3.5 -104t47.5 -64.5z" />
    <glyph glyph-name="uni06A4" unicode="&#x6a4;" horiz-adv-x="679" 
d="M630 724q-7 14 -15.5 26t-19.5 22q-24 23 -47.5 19t-45.5 -24.5t-43 -48.5q-31 -42 -57 -86t-39 -69l-1 -1l1 -44q6 9 17.5 29t26.5 44t32.5 44t35 29t35 -1t32.5 -47q5 -11 8.5 -10t6.5 5q20 26 39 54t34 59zM88 34q33 -22 83 -29.5t108 -2t115 23t105.5 45t79.5 64.5
q34 40 56 86.5t25.5 95t-19.5 92.5q-12 25 -30.5 43.5t-37.5 22t-36 -19.5q-20 -28 -35.5 -60t-32.5 -63q-7 -14 -6.5 -34.5t14.5 -27.5q24 -12 49.5 -4t41.5 21q4 5 9.5 -4t10.5 -23t8.5 -25l3.5 -11q-15 -15 -51 -32t-84 -31t-101 -23.5t-103 -10t-90 10t-62.5 35.5
t-18.5 68q3 40 18 72t30 59q-8 -2 -12 -8l-8 -12q-57 -87 -74 -149.5t-3.5 -104t47.5 -64.5z" />
    <glyph glyph-name="uni06A9" unicode="&#x6a9;" horiz-adv-x="944" 
d="M487 148q20 24 36 53.5t25.5 51.5l9.5 22q6 21 6.5 37t-1.5 47l-16 257l160 94t159 93l33 117q1 5 -3 6.5t-8 -0.5q-81 -47 -162 -94.5t-162 -94.5l-32 -117l-60 -95q5 -75 12 -150.5t7 -152.5q-91 -46 -170.5 -69t-141 -16.5t-97.5 48.5q-24 27 -24 56t15 63.5t38 75.5
q-18 -5 -27 -19q-56 -86 -71.5 -147.5t-7.5 -100.5q10 -44 43 -74.5t94 -36.5q65 -7 131 13t122.5 55.5t91.5 77.5z" />
    <glyph glyph-name="uni06AC" unicode="&#x6ac;" horiz-adv-x="568" 
d="M387 782l-71 66q-20 -25 -41 -51t-41 -52l71 -66q21 26 41.5 51.5t40.5 51.5zM488 217q-27 -14 -65 -30t-82 -29.5t-88 -19.5t-83 -0.5t-67 27.5q-33 26 -40.5 52t2.5 52.5t28 52.5t35 51q18 26 45 48t55 30t50 -7.5t30 -63.5q-17 -8 -27.5 -13t-22 -9t-30.5 -8l-43 -131
q60 22 101 59.5t64.5 82t29.5 88t-3 77t-32.5 48.5t-59.5 3t-84 -59t-107 -138q-18 -29 -38 -64t-35.5 -72t-20 -74.5t7.5 -70.5q18 -48 54.5 -71.5t84.5 -27t100.5 9t102.5 37.5t91.5 58.5t65.5 70.5q25 38 44 79.5t16 87.5l-30 387l-73 -122l28 -369q1 -10 1 -14.5
t-5 -7.5z" />
    <glyph glyph-name="uni06AF" unicode="&#x6af;" horiz-adv-x="944" 
d="M562 856l-31 -52l300 172l31 52zM487 148q20 24 36 53.5t25.5 51.5l9.5 22q6 21 6.5 37t-1.5 47l-16 257l160 94t159 93l33 117q1 5 -3 6.5t-8 -0.5q-81 -47 -162 -94.5t-162 -94.5l-32 -117l-60 -95q5 -75 12 -150.5t7 -152.5q-91 -46 -170.5 -69t-141 -16.5t-97.5 48.5
q-24 27 -24 56t15 63.5t38 75.5q-18 -5 -27 -19q-56 -86 -71.5 -147.5t-7.5 -100.5q10 -44 43 -74.5t94 -36.5q65 -7 131 13t122.5 55.5t91.5 77.5z" />
    <glyph glyph-name="uni06B5" unicode="&#x6b5;" horiz-adv-x="445" 
d="M260 838q-16 28 -35.5 57t-43.5 57q-6 -10 -11.5 -21t-10.5 -22q25 -30 48.5 -62t36.5 -73q0 -1 1 -1q11 0 14.5 12.5t6.5 19.5q13 29 27.5 55.5t34.5 49.5q0 10 2 20.5t5 20.5h-1.5h-0.5h-1v0q-20 -26 -38.5 -53.5t-33.5 -59.5zM328 666l28 -443q-48 -40 -117.5 -64.5
t-152.5 -9.5q-32 14 -43 37t-8 51t14.5 57t25.5 56t23 48q7 18 1 20.5t-12 -9.5q-55 -100 -74.5 -173.5t-11.5 -123t35.5 -77t67.5 -33.5t84.5 6.5t87 42.5t73.5 75q37 53 58 114.5t21 125.5l-1.5 25t-4 66t-5.5 89t-6 95.5t-5.5 85.5t-3.5 57z" />
    <glyph glyph-name="uni06BA" unicode="&#x6ba;" horiz-adv-x="463" 
d="M349 125q38 55 59 119t20 130.5t-31 128.5l-54 -125q11 -33 19 -68t6 -77q-32 -29 -75 -52.5t-95 -33t-111 0.5q-32 14 -43 37t-8 51t14.5 57t25.5 56t23 48q7 18 0.5 21t-12.5 -9q-55 -100 -74.5 -173.5t-11.5 -123.5t35.5 -77t67.5 -33.5t84.5 6t87 42.5t73.5 75z" />
    <glyph glyph-name="uni06BB" unicode="&#x6bb;" horiz-adv-x="463" 
d="M290 615q2 -2 2.5 -5.5t-2.5 -5.5q-16 -8 -36 -12.5t-40 -8.5l21.5 21.5t23.5 17.5q8 5 17.5 2.5t13.5 -9.5zM309 606q10 14 18.5 26t-3.5 27q-10 12 -28 8t-27 -12q-19 -18 -36.5 -36.5t-34.5 -38.5q-25 -4 -53.5 -6.5t-58.5 -1.5q-1 0 -2 -2t0 -3q22 -13 36 -22.5
t33 -11.5q17 -2 41 4q38 10 67 26.5t48 42.5zM198 719l8 -125l29 46l-8 125zM349 125q38 55 59 119t20 130.5t-31 128.5l-54 -125q11 -33 19 -68t6 -77q-32 -29 -75 -52.5t-95 -33t-111 0.5q-32 14 -43 37t-8 51t14.5 57t25.5 56t23 48q7 18 0.5 21t-12.5 -9
q-55 -100 -74.5 -173.5t-11.5 -123.5t35.5 -77t67.5 -33.5t84.5 6t87 42.5t73.5 75z" />
    <glyph glyph-name="uni06BD" unicode="&#x6bd;" horiz-adv-x="463" 
d="M371 650q-7 14 -15.5 26t-19.5 22q-24 23 -47.5 19t-45.5 -24.5t-43 -48.5q-31 -42 -57 -86t-39 -69l-1 -1l1 -44q6 9 17.5 29t26.5 44t32.5 44t35 29t35 -1t32.5 -47q5 -11 8.5 -10t6.5 5q20 26 39 54t34 59zM349 125q38 55 59 119t20 130.5t-31 128.5l-54 -125
q11 -33 19 -68t6 -77q-32 -29 -75 -52.5t-95 -33t-111 0.5q-32 14 -43 37t-8 51t14.5 57t25.5 56t23 48q7 18 0.5 21t-12.5 -9q-55 -100 -74.5 -173.5t-11.5 -123.5t35.5 -77t67.5 -33.5t84.5 6t87 42.5t73.5 75z" />
    <glyph glyph-name="uni06BE" unicode="&#x6be;" horiz-adv-x="741" 
d="M493 350q-22 0 -52 -34q-70 -81 -120 -203l-317 -11q-5 -1 -5 -5t9 -9l138 -62q30 -13 54 -19.5t41 -6.5q2 0 4.5 -0.5t4.5 0.5q16 2 37.5 3t48.5 1h17q76 0 130 20.5t94.5 58.5t73.5 88q45 69 51 126q1 8 1.5 16t0.5 16q0 13 -1.5 25.5t-3.5 25.5q-4 21 -7 43t-7 45
q-10 67 -39 86q-18 12 -37 12q-13 0 -24 -4q-24 -8 -47.5 -26t-44 -40t-35.5 -41q-19 -25 -38.5 -51t-30.5 -58q0 -1 -0.5 -1.5l-0.5 -0.5q0 -4 8 -4h1q11 0 16 5q22 25 43 55t53 46q12 5 19 5q15 0 27 -11t16 -20q21 -43 31 -95t10 -112v-16.5t-1 -16.5
q-25 -16 -55.5 -27.5t-68.5 -18.5q14 26 26 49.5t22 45.5q9 18 9 37q0 14 -6.5 34t-17.5 35t-27 15zM378 164q0 2 0.5 4t1.5 4q17 37 42 46q3 1 7 1q20 0 34 -40l2 -3q-13 -10 -30 -19t-38 -15q-1 0 -1 -0.5v-0.5q-4 0 -11 8t-7 15z" />
    <glyph glyph-name="uni06C0" unicode="&#x6c0;" horiz-adv-x="247" 
d="M203 710v0q0 -1 0 -0.5v0.5q-7 -3 -13.5 -6t-12.5 -8q-10 -7 -27.5 -26t-33 -42t-19 -43t15.5 -31q8 -4 19 -9t19 -10q5 -3 1 -6t-6 -5q-22 -12 -46 -22t-47 -21q27 5 53 9.5t49 20.5q28 20 39 47t-10 40q-11 8 -26.5 11.5t-24.5 13.5q11 16 27 22.5t22 19.5zM138 265
q5 -3 13 -17t15 -31t9 -31.5t-4 -18.5q-22 -13 -53.5 -22t-60.5 4q-4 2 -9 7t-4 8q2 6 10 26.5t20.5 42t29 33t34.5 -0.5zM217 167q15 68 11 123.5t-22 88.5t-46 31.5t-61.5 -46t-67.5 -144.5q-15 -43 -24 -86.5t-6.5 -77t23.5 -49.5t66 -4q42 11 67 35.5t38.5 58t21.5 70.5
z" />
    <glyph glyph-name="uni06C1" unicode="&#x6c1;" horiz-adv-x="247" 
d="M138 265q5 -3 13 -17t15 -31t9 -31.5t-4 -18.5q-22 -13 -53.5 -22t-60.5 4q-4 2 -9 7t-4 8q2 6 10 26.5t20.5 42t29 33t34.5 -0.5zM217 167q15 68 11 123.5t-22 88.5t-46 31.5t-61.5 -46t-67.5 -144.5q-15 -43 -24 -86.5t-6.5 -77t23.5 -49.5t66 -4q42 11 67 35.5
t38.5 58t21.5 70.5z" />
    <glyph glyph-name="uni06C6" unicode="&#x6c6;" horiz-adv-x="491" 
d="M414 623q-16 28 -35.5 57t-43.5 57q-6 -10 -11.5 -21t-10.5 -22q25 -30 48.5 -62t36.5 -73q0 -1 1 -1q11 0 14.5 12.5t6.5 19.5q13 29 27.5 55.5t34.5 49.5q0 10 2 20.5t5 20.5h-1.5h-0.5h-1v0q-20 -26 -38.5 -53.5t-33.5 -59.5zM230 8v0q54 10 103.5 46.5t87 87.5
t56 108t12.5 110.5t-45 92.5q-9 9 -26.5 15t-28.5 -7q-24 -27 -38.5 -61t-31.5 -67q-7 -15 -8 -31.5t10 -29.5q13 -14 40.5 -16.5t51.5 2.5q5 -7 8.5 -19.5t-1.5 -17.5q-15 -17 -34 -31t-42 -23q-86 -35 -174 -68t-166 -77q-4 -2 -4 -7.5t5 -6.5q55 -5 112.5 -7.5t112.5 7.5
z" />
    <glyph glyph-name="uni06CC" unicode="&#x6cc;" horiz-adv-x="615" 
d="M78 24q47 -26 105 -24t119 24t118 57t102 76t70 80q20 29 23.5 56.5t-15.5 47.5q-13 14 -35.5 17t-43.5 9q-48 14 -66 29.5t-15.5 30.5t18 26.5t35 16.5t34.5 0q15 24 25 52t23 55q3 7 -4 8.5t-10 1.5q-26 -1 -47 -17.5t-35 -30.5q-16 -15 -37 -44.5t-39.5 -64.5
t-28.5 -67.5t-4 -53.5q11 -40 53.5 -58t92.5 -23q-45 -29 -97.5 -51t-114.5 -33q-34 -6 -73 -7t-73.5 6.5t-57.5 24.5q-31 24 -39.5 55.5t-2 66t21 69.5t31.5 66.5t29 55.5q3 6 -1.5 7t-6.5 -3q-17 -23 -39 -59.5t-43 -80.5t-35 -90t-15 -90t17 -80.5t61 -60.5z" />
    <glyph glyph-name="uni06CE" unicode="&#x6ce;" horiz-adv-x="615" 
d="M339 671q-16 28 -35.5 57t-43.5 57q-6 -10 -11.5 -21t-10.5 -22q25 -30 48.5 -62t36.5 -73q0 -1 1 -1q11 0 14.5 12.5t6.5 19.5q13 29 27.5 55.5t34.5 49.5q0 10 2 20.5t5 20.5h-1.5h-0.5h-1v0q-20 -26 -38.5 -53.5t-33.5 -59.5zM78 24q47 -26 105 -24t119 24t118 57
t102 76t70 80q20 29 23.5 56.5t-15.5 47.5q-13 14 -35.5 17t-43.5 9q-48 14 -66 29.5t-15.5 30.5t18 26.5t35 16.5t34.5 0q15 24 25 52t23 55q3 7 -4 8.5t-10 1.5q-26 -1 -47 -17.5t-35 -30.5q-16 -15 -37 -44.5t-39.5 -64.5t-28.5 -67.5t-4 -53.5q11 -40 53.5 -58t92.5 -23
q-45 -29 -97.5 -51t-114.5 -33q-34 -6 -73 -7t-73.5 6.5t-57.5 24.5q-31 24 -39.5 55.5t-2 66t21 69.5t31.5 66.5t29 55.5q3 6 -1.5 7t-6.5 -3q-17 -23 -39 -59.5t-43 -80.5t-35 -90t-15 -90t17 -80.5t61 -60.5z" />
    <glyph glyph-name="uni06CF" unicode="&#x6cf;" horiz-adv-x="491" 
d="M465 619l-71 66q-20 -25 -41 -51t-41 -52l71 -66q21 26 41.5 51.5t40.5 51.5zM230 8v0q54 10 103.5 46.5t87 87.5t56 108t12.5 110.5t-45 92.5q-9 9 -26.5 15t-28.5 -7q-24 -27 -38.5 -61t-31.5 -67q-7 -15 -8 -31.5t10 -29.5q13 -14 40.5 -16.5t51.5 2.5q5 -7 8.5 -19.5
t-1.5 -17.5q-15 -17 -34 -31t-42 -23q-86 -35 -174 -68t-166 -77q-4 -2 -4 -7.5t5 -6.5q55 -5 112.5 -7.5t112.5 7.5z" />
    <glyph glyph-name="uni06D2" unicode="&#x6d2;" horiz-adv-x="699" 
d="M344 463q-20 47 -48 35q-27 -12 -43 -38q-14 -25 -28.5 -48t-30.5 -46q-31 -45 -78 -72q-31 -18 -56.5 -44t-39.5 -62q-5 -12 -9.5 -34.5t-6.5 -47t0 -43.5q5 -35 37 -48q33 -13 76.5 -14.5t84.5 5.5q122 19 218.5 62.5t169.5 107.5q22 20 42.5 41t28.5 55
q-62 -35 -128 -64.5t-142 -49t-168 -25.5q-41 -2 -80.5 2.5t-77.5 17.5q0 6 10 12q84 45 138 150q11 20 25 35.5t38 21.5q22 -3 32 -21.5t11 -40.5q0 -11 10 -4q8 5 11 12q13 31 12.5 71.5t-8.5 73.5z" />
    <glyph glyph-name="uni06D3" unicode="&#x6d3;" horiz-adv-x="699" 
d="M339 811v0q0 -1 0 -0.5v0.5q-7 -3 -13.5 -6t-12.5 -8q-10 -7 -27.5 -26t-33 -42t-19 -43t15.5 -31q8 -4 19 -9t19 -10q5 -3 1 -6t-6 -5q-22 -12 -46 -22t-47 -21q27 5 53 9.5t49 20.5q28 20 39 47t-10 40q-11 8 -26.5 11.5t-24.5 13.5q11 16 27 22.5t22 19.5zM344 463
q-20 47 -48 35q-27 -12 -43 -38q-14 -25 -28.5 -48t-30.5 -46q-31 -45 -78 -72q-31 -18 -56.5 -44t-39.5 -62q-5 -12 -9.5 -34.5t-6.5 -47t0 -43.5q5 -35 37 -48q33 -13 76.5 -14.5t84.5 5.5q122 19 218.5 62.5t169.5 107.5q22 20 42.5 41t28.5 55q-62 -35 -128 -64.5
t-142 -49t-168 -25.5q-41 -2 -80.5 2.5t-77.5 17.5q0 6 10 12q84 45 138 150q11 20 25 35.5t38 21.5q22 -3 32 -21.5t11 -40.5q0 -11 10 -4q8 5 11 12q13 31 12.5 71.5t-8.5 73.5z" />
    <glyph glyph-name="uni06D4" unicode="&#x6d4;" horiz-adv-x="253" 
d="M62 99l-40 -99l165 20l45 99z" />
    <glyph glyph-name="uni06D5" unicode="&#x6d5;" horiz-adv-x="247" 
d="M138 265q5 -3 13 -17t15 -31t9 -31.5t-4 -18.5q-22 -13 -53.5 -22t-60.5 4q-4 2 -9 7t-4 8q2 6 10 26.5t20.5 42t29 33t34.5 -0.5zM217 167q15 68 11 123.5t-22 88.5t-46 31.5t-61.5 -46t-67.5 -144.5q-15 -43 -24 -86.5t-6.5 -77t23.5 -49.5t66 -4q42 11 67 35.5
t38.5 58t21.5 70.5z" />
    <glyph glyph-name="uni06F2" unicode="&#x6f2;" horiz-adv-x="392" 
d="M210 372q86 -27 125 50t32 159q0 7 -5 -3t-5 -11q-60 -102 -147 -91q-86 10 -136 113q-14 -29 -26.5 -60.5t-23.5 -63.5q8 -19 18 -37.5t21 -34.5q35 -49 63 -98.5t56 -108.5q36 -79 26 -184q-1 -2 5 2l6 4q53 85 46 182q-7 99 -55 182z" />
    <glyph glyph-name="uni06F4" unicode="&#x6f4;" horiz-adv-x="414" 
d="M390 551q1 6 -4 -2t-6 -11q-3 -13 -20.5 -30t-42.5 -28.5t-49 -7.5t-40 32q-4 8 4 23.5t28 23.5t52 -7q15 -7 24.5 1.5t10.5 22t-9.5 24.5t-36.5 9q-13 -1 -34 -14t-42 -34.5t-35 -46t-13 -47.5q-37 7 -53 17.5t-25 29.5t-25 50q-14 -28 -26 -58.5t-23 -59.5
q16 -37 39 -68t43 -63q26 -40 52 -86t41.5 -100.5t8.5 -122.5q0 -1 4.5 1t5.5 5q36 53 44 113t-6.5 120.5t-46.5 112.5q-1 2 5.5 4.5t16.5 0.5q54 -9 86.5 14t49.5 70.5t22 111.5v0z" />
    <glyph glyph-name="uni06F5" unicode="&#x6f5;" horiz-adv-x="444" 
d="M401 310q-22 49 -62.5 92t-86.5 81.5t-87 72.5q-10 -34 -16.5 -57.5t-12.5 -59.5q6 -5 9 -8t10 -8q-13 -21 -31 -55.5t-37 -76t-33.5 -84t-20.5 -79.5t1 -62q12 -41 28.5 -55.5t36.5 -12.5t42 13.5t43.5 23t41.5 16t37 -8.5q23 -17 48 -8.5t48 35.5t37.5 66.5t17 84.5
t-12.5 90zM376 177q-8 -12 -25 -23.5t-32 -6.5q-37 13 -56.5 11t-33 -11.5t-30 -19.5t-46.5 -14q-37 -5 -53.5 10.5t-17.5 44.5t8.5 64t24.5 70.5t31 64t26 43.5q41 -35 80.5 -68.5t72.5 -73t51 -91.5z" />
    <glyph glyph-name="uni06F6" unicode="&#x6f6;" horiz-adv-x="476" 
d="M377 335q26 29 46 56.5t28 65.5q-28 -10 -52 -25.5t-51 -30.5q-33 -19 -65 -17.5t-56.5 17.5t-36.5 38q-4 8 1 24.5t20 31t39 18t57 -13.5q17 -8 28.5 -1.5t17 21t1.5 30.5t-19 26.5t-44 8.5q-16 -1 -42.5 -18.5t-53.5 -45t-47.5 -60.5t-26.5 -66.5t10 -62t62 -47.5
q-22 -24 -51 -58t-56 -74t-44.5 -79.5t-17.5 -73.5l1 -1q3 0 7 5t5 7q41 59 69.5 98.5t53 66.5t52 49.5t67 48t98.5 62.5z" />
    <glyph glyph-name="uni06F7" unicode="&#x6f7;" horiz-adv-x="376" 
d="M352 584q-5 2 -6 -2q-37 -85 -71.5 -176t-61.5 -192q-27 88 -64 184t-81 187q-11 -35 -22.5 -70.5t-20.5 -68.5q49 -103 92.5 -209.5t65.5 -233.5q2 -6 8 -1.5t8 8.5q11 20 15 46t10 50q24 92 51.5 179t64.5 164q0 36 3.5 70t8.5 65v0z" />
    <glyph glyph-name="uni0762" unicode="&#x762;" horiz-adv-x="944" 
d="M773 927l-71 66q-20 -25 -41 -51t-41 -52l71 -66q21 26 41.5 51.5t40.5 51.5zM487 148q20 24 36 53.5t25.5 51.5l9.5 22q6 21 6.5 37t-1.5 47l-16 257l160 94t159 93l33 117q1 5 -3 6.5t-8 -0.5q-81 -47 -162 -94.5t-162 -94.5l-32 -117l-60 -95q5 -75 12 -150.5
t7 -152.5q-91 -46 -170.5 -69t-141 -16.5t-97.5 48.5q-24 27 -24 56t15 63.5t38 75.5q-18 -5 -27 -19q-56 -86 -71.5 -147.5t-7.5 -100.5q10 -44 43 -74.5t94 -36.5q65 -7 131 13t122.5 55.5t91.5 77.5z" />
    <glyph glyph-name="uni08F1" unicode="&#x8f1;" 
d="M104 41q5 13 6.5 23.5t1.5 17.5v5q-1 11 -5 18t-15 7t-23 -9t-20 -22t-8 -25q0 -16 12 -25t23 -15q-6 -6 -18 -15q-23 -16 -50 -32.5t-50 -32.5q-8 -5 -8 -6q14 2 26 5.5t22 7.5q31 11 52 26.5t39 39.5q4 -2 7.5 -3.5t6.5 -5.5q5 7 7.5 13t2.5 14v1q-1 7 -9 13zM78 82h1
q13 0 13 -18q0 -3 -0.5 -7t-1.5 -9q-7 4 -14 7.5t-12 8.5q-1 2 -1 5q0 5 5.5 8.5t9.5 4.5zM19 41q5 13 6.5 23.5t1.5 17.5q0 13 -4.5 21.5t-15.5 8.5q-18 0 -35 -19.5t-17 -36.5q0 -16 12 -25t23 -15q-6 -6 -18 -15q-23 -16 -50 -32.5t-50 -32.5q-7 -4 -7 -6l6 1
q45 13 76.5 29t55.5 49q5 -2 7.5 -3.5t6.5 -5.5q4 7 7.5 13t3.5 14v1q-1 7 -9 13zM-8 82h2q7 0 10 -5.5t3 -13.5q0 -3 -0.5 -6.5t-1.5 -8.5q-6 3 -16.5 8.5t-10.5 13.5q0 5 5 8t9 4z" />
    <glyph glyph-name="endash" unicode="&#x2013;" horiz-adv-x="541" 
d="M27 205h487v58h-487v-58z" />
    <glyph glyph-name="emdash" unicode="&#x2014;" horiz-adv-x="1000" 
d="M0 205h1000v58h-1000v-58z" />
    <glyph glyph-name="quoteleft" unicode="&#x2018;" horiz-adv-x="271" 
d="M156 496l58 61v21q-63 21 -63 78q8 73 42 93v21q-33 0 -68 -57q-34 -56 -34 -111q0 -41 22 -74q21 -32 43 -32z" />
    <glyph glyph-name="quoteright" unicode="&#x2019;" horiz-adv-x="271" 
d="M116 770l-58 -61v-21q63 -21 63 -78q-8 -73 -42 -93v-21q33 0 67 57q35 58 35 111q0 41 -22 74q-21 32 -43 32z" />
    <glyph glyph-name="quotesinglbase" unicode="&#x201a;" horiz-adv-x="271" 
d="M116 137l-58 -61v-20q63 -21 63 -79q-8 -73 -42 -93v-21q32 0 67 58t35 110q0 41 -22 74q-21 32 -43 32z" />
    <glyph glyph-name="quotedblleft" unicode="&#x201c;" horiz-adv-x="444" 
d="M156 496l58 61v21q-63 21 -63 78q8 73 42 93v21q-33 0 -68 -57q-34 -56 -34 -111q0 -41 22 -74q21 -32 43 -32zM328 496l58 61v21q-63 21 -63 78q8 72 43 93v21q-33 0 -68 -57q-35 -58 -35 -111q0 -41 22 -74q21 -32 43 -32z" />
    <glyph glyph-name="quotedblright" unicode="&#x201d;" horiz-adv-x="444" 
d="M116 770l-58 -61v-21q63 -21 63 -78q-8 -73 -42 -93v-21q33 0 67 57q35 58 35 111q0 41 -22 74q-21 32 -43 32zM289 770l-59 -61v-21q63 -21 63 -78q-8 -73 -42 -93v-21q34 0 68 57q35 58 35 111q0 41 -22 74q-21 32 -43 32z" />
    <glyph glyph-name="quotedblbase" unicode="&#x201e;" horiz-adv-x="444" 
d="M116 137l-58 -61v-20q63 -21 63 -79q-8 -73 -42 -93v-21q32 0 67 58t35 110q0 41 -22 74q-21 32 -43 32zM289 137l-59 -61v-20q63 -21 63 -79q-8 -73 -42 -93v-21q33 0 68 58t35 110q0 41 -22 74q-21 32 -43 32z" />
    <glyph glyph-name="bullet" unicode="&#x2022;" horiz-adv-x="332" 
d="M69 265q0 41 28.5 69t68.5 28q41 0 69 -28t28 -69q0 -40 -28 -68.5t-69 -28.5q-40 0 -68.5 28.5t-28.5 68.5z" />
    <glyph glyph-name="ellipsis" unicode="&#x2026;" horiz-adv-x="1000" 
d="M71 82q-8 -8 -8 -16q0 -5 5 -12l43 -50q5 -6 14 -6q5 0 14 9l39 43q7 7 7 15t-6 15l-39 42q-8 7 -15 7q-8 0 -14 -6zM404 82q-8 -8 -8 -16q0 -5 5 -12l43 -50q5 -6 14 -6q6 0 15 9l39 43q7 7 7 15t-6 15l-39 42q-8 7 -16 7t-14 -6zM738 82q-8 -8 -8 -16q0 -5 5 -12
l43 -50q5 -6 14 -6q5 0 14 9l39 43q7 7 7 15t-6 15l-39 42q-8 7 -15 7q-8 0 -14 -6z" />
    <glyph glyph-name="guilsinglleft" unicode="&#x2039;" horiz-adv-x="264" 
d="M12 238l192 188l31 -46l-149 -146l150 -170l-14 -28z" />
    <glyph glyph-name="guilsinglright" unicode="&#x203a;" horiz-adv-x="264" 
d="M252 238l-210 -202l-14 28l150 170l-149 146l31 46z" />
    <glyph glyph-name="fraction" unicode="&#x2044;" horiz-adv-x="70" 
d="M266 695l3 -11l-437 -688l-31 13v14l433 680l11 1z" />
    <glyph glyph-name="fraction" unicode="&#x2215;" horiz-adv-x="70" 
d="M266 695l3 -11l-437 -688l-31 13v14l433 680l11 1z" />
    <glyph glyph-name="uni2074" unicode="&#x2074;" horiz-adv-x="476" 
d="M263 697l5 -3v-36v-72v-86v-79l4 -5h64l3 -4l-11 -22h-56l-4 -5v-53.5t1 -39.5l-54 -20l-3 4q3 16 3 48v60l-5 6h-192v26l194 260zM215 421v205q0 5 -3 5t-4 -1q-17 -17 -32.5 -37.5t-30.5 -40.5q-10 -13 -24 -33t-27.5 -41t-22.5 -37t-9 -21l3 -4h146z" />
    <glyph glyph-name="Euro" unicode="&#x20ac;" horiz-adv-x="638" 
d="M425 270h-209q10 -49 33 -92t54 -69q39 -32 84 -38t89 5t79 29l17 -29q-20 -19 -52.5 -37.5t-72.5 -31t-82 -11.5q-39 0 -77.5 14.5t-72.5 48.5q-42 42 -64.5 97t-28.5 114h-97l10 40h84v16q0 22 2 44h-70l10 40h65q9 49 29.5 95t54.5 85q38 44 86.5 68.5t101.5 26.5
t106 -22t100 -77l-57 -58l-14 1q-19 50 -53.5 75t-76 25.5t-81.5 -23.5t-69.5 -73t-40.5 -123h249l-10 -40h-242q-1 -13 -1 -26q0 -17 2 -34h225z" />
    <glyph glyph-name="uni2113" unicode="&#x2113;" horiz-adv-x="380" 
d="M328 122l17 -13l-28 -40q-8 -14 -24.5 -32.5t-38.5 -32t-50 -13.5q-40 0 -62.5 19t-33 48t-13.5 61t-5 58l-9 3l-46 -44l-15 18l66 74q-1 20 -1.5 41t-0.5 42q0 50 4 99.5t14 97.5q6 31 17.5 65t29.5 64t44.5 48.5t63.5 18.5q40 0 55.5 -26t15.5 -70q0 -62 -26.5 -125.5
t-66.5 -122.5t-80 -110q3 -34 7 -69t13 -64.5t25 -47.5t41 -18q14 0 31.5 13t23.5 20zM160 302q59 79 89 152.5t30 151.5q0 42 -10.5 54t-27.5 12q-18 0 -31.5 -21t-21.5 -48.5t-12 -47.5q-5 -27 -10.5 -69t-9.5 -89.5t-4 -92.5z" />
    <glyph glyph-name="weierstrass" unicode="&#x2118;" horiz-adv-x="591" 
d="M182 464l14 -10q-19 -25 -35 -52.5t-16 -59.5q0 -20 7 -40t15 -37h9l18 26q15 23 37 54t51.5 60t66.5 48t81 19q37 0 60.5 -15.5t36.5 -40.5t18 -54t5 -56q0 -69 -20.5 -137t-70.5 -118q-21 -21 -48.5 -39t-55.5 -18q-22 0 -42 10t-35 26q6 -22 6 -44q0 -41 -14.5 -83
t-44 -70.5t-75.5 -28.5q-37 0 -60.5 20t-34.5 50.5t-11 60.5q0 29 9.5 63.5t23 70t28.5 66t25 49.5q-15 28 -28 59t-13 63q0 50 27.5 90t65.5 68zM269 59l47 43l7 -1q13 -52 56 -52q33 0 54.5 18.5t34 48t17.5 65.5t5 70q0 24 -5 52t-16 52t-31 39.5t-50 15.5
q-14 0 -25 -2.5t-32 -10.5q-19 -8 -45 -37t-51.5 -65.5t-45.5 -67.5q23 -40 44.5 -83t35.5 -85zM145 144q-22 -39 -36.5 -87.5t-14.5 -86.5q0 -23 6.5 -51t22 -47.5t43.5 -19.5q29 0 46 15t24 37.5t7 44.5q0 30 -14.5 63.5t-35 67.5t-39.5 64h-9z" />
    <glyph glyph-name="Omega" unicode="&#x2126;" horiz-adv-x="905" 
d="M853 60l9 -9l-25 -53q-44 4 -89 5.5t-89 1.5q-84 0 -168 -6l9 58q77 18 120 65.5t60 112t17 133.5q0 51 -13.5 102t-41.5 92.5t-72.5 66.5t-107.5 25q-71 0 -120.5 -28t-80 -74.5t-44 -104.5t-13.5 -118q0 -59 17.5 -117t58.5 -101.5t113 -57.5l-21 -55q-52 5 -104 7.5
t-104 2.5q-31 0 -61 -1t-60 -3l17 61q46 -2 98 -4.5t92 -6.5l6 15q-55 30 -85.5 71t-42.5 91.5t-12 106.5q0 72 22.5 139t73.5 118q53 53 124 73.5t145 20.5q89 0 148 -25.5t94 -69t49.5 -98t14.5 -111.5q0 -64 -18 -128t-58.5 -115t-108.5 -79v-12q64 3 131.5 6t119.5 3z
" />
    <glyph glyph-name="partialdiff" unicode="&#x2202;" horiz-adv-x="567" 
d="M100 548l-18 7q21 62 64 103t110 41q53 0 91.5 -23.5t64.5 -63.5t42 -89t23 -101.5t7 -99.5q0 -50 -7 -102.5t-28 -99t-62 -81.5q-25 -21 -54.5 -33.5t-61.5 -12.5q-43 0 -81.5 10t-64.5 41q-17 21 -27.5 49t-15 57.5t-4.5 52.5q0 65 25 123t75.5 94.5t126.5 36.5
q16 0 34.5 -2.5t45.5 -10.5l4 4q-12 50 -34.5 94.5t-55.5 72t-80 27.5q-48 0 -75.5 -29t-43.5 -65zM382 125q14 38 19.5 79.5t5.5 81.5q0 61 -12 119q-19 8 -39 14t-40 6q-44 0 -73.5 -21t-47.5 -54.5t-25.5 -72t-7.5 -72.5q0 -18 5.5 -46.5t18.5 -57.5t37 -48.5t61 -19.5
q40 0 63.5 29t34.5 63z" />
    <glyph glyph-name="Delta" unicode="&#x2206;" horiz-adv-x="751" 
d="M379 671l58 25q56 -168 121.5 -331.5t146.5 -320.5l-1 -16l-61 -32q-94 6 -187 10t-187 4q-55 0 -110.5 -1.5t-110.5 -5.5l-2 42zM578 50l6 9q-10 24 -28.5 69t-41.5 100.5t-46 112.5t-42 105.5t-31 78l-12 29.5h-11q-71 -123 -133 -243t-122 -247l3 -12q26 1 52.5 1
h52.5q89 0 177 -1.5t176 -1.5z" />
    <glyph glyph-name="minus" unicode="&#x2212;" horiz-adv-x="892" 
d="M772 236h-658l7 40h657z" />
    <glyph glyph-name="uniFD3E" unicode="&#xfd3e;" horiz-adv-x="485" 
d="M244 33q-23 0 -46 14t-31 14q-13 0 -18 -5l5 -9q4 2 6 2q10 0 16.5 -8t11.5 -16q13 -20 30 -35.5t36 -15.5q35 0 48 34l2 -1q-10 -21 -10 -47q0 -39 51 -90q5 -5 12.5 -12t16.5 -15l27 -25q18 -16 24 -29q-18 -4 -18 -19q0 -19 20 -19q19 0 19 20q0 12 -17 38
q-13 17 -21.5 31t-13.5 24q-46 86 -46 200q0 115 -70 131v1q70 16 70 131t46 201q5 10 13.5 24t21.5 31q17 26 17 38q0 19 -19 19q-20 0 -20 -18q0 -14 18 -19q-6 -13 -24 -29l-27 -26q-9 -8 -16.5 -15t-12.5 -12q-51 -51 -51 -90q0 -25 10 -46l-2 -2q-14 35 -48 35
q-30 0 -57 -38q-7 -8 -15 -22.5t-22 -14.5q-4 0 -6 1l-5 -8q5 -5 18 -5q8 0 31 14t46 14q34 0 56 -20.5t22 -54.5q0 -40 -31 -68l-4 2q5 7 5 15q0 24 -32 33q-40 11 -40 45q0 10 5 25l-8 4q-45 -42 -45 -92q-14 14 -31 14q-24 0 -40.5 -14t-32.5 -33q-16 -17 -29 -24l4 -10
q5 3 16 3q9 0 18 -11q10 -10 14.5 -15.5l4.5 -5.5q22 -20 45 -20q21 0 31 12q0 -51 45 -93l8 4q-5 15 -5 26q0 33 40 44q32 9 32 34q0 8 -5 15l4 1q31 -28 31 -67q0 -34 -22 -54.5t-56 -20.5zM215 197v-2q-22 -12 -31 -30q-36 8 -36 31q0 24 36 31q9 -18 31 -30z" />
    <glyph glyph-name="uniFD3F" unicode="&#xfd3f;" horiz-adv-x="485" 
d="M241 359q24 0 47 -14t31 -14q12 0 17 5l-4 8q-2 -1 -6 -1q-10 0 -17 8t-12 16q-13 20 -30 35.5t-36 15.5q-34 0 -48 -35l-2 2q10 21 10 46q0 39 -51 90l-12 12t-16 15l-28 26q-9 8 -14.5 15.5t-8.5 13.5q17 4 17 19q0 18 -19 18q-20 0 -20 -19q0 -12 17 -38
q13 -17 22 -31t14 -24q45 -84 45 -201q0 -114 71 -131v-1q-71 -17 -71 -131q0 -116 -45 -200q-5 -10 -14 -24t-22 -31q-17 -26 -17 -38q0 -20 20 -20q19 0 19 19q0 15 -17 19q3 6 8.5 13.5t14.5 15.5l28 25q9 8 16 15l12 12q51 51 51 90q0 26 -10 47l2 1q13 -34 48 -34
q30 0 57 37q7 8 16 23t22 15q2 0 6 -2l4 9q-5 5 -17 5q-8 0 -31 -14t-47 -14q-34 0 -55.5 20.5t-21.5 54.5q0 39 31 67l4 -1q-5 -7 -5 -15q0 -25 32 -34q39 -10 39 -44q0 -14 -4 -26l8 -4q44 41 44 93q15 -15 32 -15q24 0 40 14t32 33q13 16 29 24l-4 10q-3 -2 -15 -2
q-10 0 -19 11l-18 20q-21 21 -45 21q-21 0 -32 -12q0 51 -44 92l-8 -4q4 -12 4 -25q0 -34 -39 -45q-32 -9 -32 -33q0 -8 5 -15l-4 -2q-31 28 -31 68q0 34 21.5 54.5t55.5 20.5zM271 195v2q22 12 31 30q35 -7 35 -31t-35 -31q-9 18 -31 30z" />
    <glyph glyph-name="glyph121" 
d="M79 13l-71 66q-20 -25 -41 -51t-41 -52l71 -66q21 26 41.5 51.5t40.5 51.5z" />
    <glyph glyph-name="glyph122" 
d="M65 -37l60 119l-96 -18l-96 -18l-60 -119l96 18z" />
    <glyph glyph-name="glyph123" 
d="M147 74q-7 14 -15.5 26t-19.5 22q-24 23 -47.5 19t-45.5 -24.5t-43 -48.5q-31 -42 -57 -86t-39 -69l-1 -1l1 -44q6 9 17.5 29t26.5 44t32.5 44t35 29t35 -1t32.5 -47q5 -11 8.5 -10t6.5 5q20 26 39 54t34 59z" />
    <glyph glyph-name="glyph124" 
d="M79 13l-71 66q-20 -25 -41 -51t-41 -52l71 -66q21 26 41.5 51.5t40.5 51.5z" />
    <glyph glyph-name="glyph125" 
d="M65 -37l60 119l-96 -18l-96 -18l-60 -119l96 18z" />
    <glyph glyph-name="glyph126" 
d="M147 74q-7 14 -15.5 26t-19.5 22q-24 23 -47.5 19t-45.5 -24.5t-43 -48.5q-31 -42 -57 -86t-39 -69l-1 -1l1 -44q6 9 17.5 29t26.5 44t32.5 44t35 29t35 -1t32.5 -47q5 -11 8.5 -10t6.5 5q20 26 39 54t34 59z" />
    <glyph glyph-name="glyph127" 
d="M-132 -58l-31 -52l300 172l31 52z" />
    <glyph glyph-name="uni06F4.locl" horiz-adv-x="398" 
d="M263 346v1q11 15 29 53.5t40 94t42 119.5l-103 -35l-34 -96q-18 25 -37.5 49.5t-38 41t-33.5 14.5q-34 -4 -55.5 -28.5t-32.5 -61.5t-12 -78.5t7 -80t24 -65.5q20 -33 40 -76.5t32 -93.5t6 -104q8 6 10 14q9 32 19.5 64.5t17.5 67t2 73.5q-11 40 -30.5 80t-39.5 79.5
t-35 75.5q15 21 33.5 17t37.5 -22.5t38 -42t35.5 -42.5t28.5 -23q3 -1 9 5z" />
    <glyph glyph-name="uni06F7.locl" horiz-adv-x="545" 
d="M498 582v0q-26 -16 -56.5 -32.5t-63.5 -30.5q-7 -81 -35 -149.5t-68 -124t-83.5 -98t-81.5 -71.5q-20 -15 -42.5 -29t-36.5 -32q-3 -4 -4.5 -11t4.5 -6q63 0 108.5 1t84.5 1.5t82 0t100 -2.5q27 21 55 45.5t56 48.5q-67 3 -116 3t-95.5 -3t-107.5 -9q24 19 59.5 56.5
t74.5 86.5t75 102t62 102.5t35 89.5t-6 62v0z" />
    <glyph glyph-name="glyph130" horiz-adv-x="112" 
d="M73 570l39 -570l62 118l-38 569z" />
    <glyph glyph-name="glyph131" horiz-adv-x="490" 
d="M489 43q-1 -4 -1.5 -7t-0.5 -5q0 -5 3 -5h1q37 39 60 92q11 26 20.5 49t13.5 39q0 1 0.5 7t-0.5 10t-4 -3q-7 -15 -18.5 -28.5t-25.5 -21.5q-26 -13 -62.5 -21.5t-74.5 -13.5t-68 -6.5t-44 -1.5q-87 0 -134.5 14t-65.5 40.5t-17 61.5q2 31 11.5 60.5t27.5 63.5
q7 17 -2.5 21t-17.5 -9q-18 -29 -36 -62.5t-35 -71.5q-19 -44 -19 -86q0 -48 21 -78.5t53.5 -47t67 -23.5t63 -8.5t40.5 -1.5q42 0 87.5 6t87 16t69.5 21z" />
    <glyph glyph-name="glyph132" horiz-adv-x="294" 
d="M252 393l-77 -113q26 -89 26 -108q-28 -19 -64 -28q-18 -4 -46.5 -9t-67.5 -10h-1l-22 -125q62 6 103 18q50 14 83 46.5t58 75.5q32 52 31.5 121.5t-23.5 131.5z" />
    <glyph glyph-name="glyph133" horiz-adv-x="206" 
d="M205 24h1q25 27 43 60t30.5 65.5t19.5 55.5q2 2 1 11.5t-5 1.5q-5 -13 -17.5 -28.5t-31.5 -23.5q-20 -9 -53.5 -15.5t-69.5 -11.5t-64.5 -8t-37.5 -4l-21 -127q29 3 67.5 9t75.5 14t60 18q-1 -5 -1.5 -11.5t3.5 -5.5z" />
    <glyph glyph-name="glyph134" horiz-adv-x="188" 
d="M387 395q-25 -24 -61 -48.5t-65 -45.5l-79 -61q-66 -60 -133 -194q-66 -133 -44 -238q21 -98 101 -137q61 -29 127 -33t131 11.5t123 42.5q99 46 161 120q4 4 -3 2q-3 -1 -5.5 -1t-4.5 -1q-27 -10 -144 -30q-39 -7 -78 -9t-78 -1q-88 3 -156 29.5t-114 78.5q-30 33 -6 85
q26 55 71 107t89 92q24 22 42 38t28 25q30 26 60.5 54.5t54.5 61.5q21 30 47 105q27 77 -22 98q-19 8 -48 11t-69 3q-81 0 -105 -6q-8 -12 -20 -33t-23 -44.5t-16 -44.5q-5 -23 13 -19q35 6 103 6q71 0 115 -10q4 -2 8 -14z" />
    <glyph glyph-name="glyph135" horiz-adv-x="558" 
d="M374 198q1 -2 1 -6t-6 -6l-142 -28q11 26 22 49.5t31 41.5q14 12 28 12q15 0 29 -11q22 -17 37 -52zM21 124l-21 -124q6 1 11 2.5t11 2.5v0q2 0 3 0.5t2 0.5q17 5 35 8t35 6v1q16 3 30 6t26 5q-1 -7 -4.5 -18.5t-3.5 -19.5q0 -6 6 -6q10 0 15 10.5t8 23t6 18.5
q79 20 146.5 34.5t141.5 37.5l64 138q-13 -7 -26 -7q-18 0 -32 15q-5 19 -12.5 36t-15.5 33q-10 20 -30 36.5t-48 16.5q-18 0 -36 -12q-30 -21 -54.5 -56.5t-43 -76.5t-32.5 -79l-90 -16l-90 -16h-1z" />
    <glyph glyph-name="glyph136" horiz-adv-x="281" 
d="M393 238q-135 -78 -366 -108v-1h-2h-1l-24 -129q3 1 9 2.5t14 2.5q317 81 390 192q22 34 39 64t34 70q12 27 -7 41q-26 20 -96 31q-69 11 -101 9v0q-13 -28 -27 -55.5t-27 -56.5q-7 -18 1 -19q20 -5 64 -6q18 0 43 -2t45 -8t23 -18q-3 -5 -11 -9z" />
    <glyph glyph-name="glyph137" horiz-adv-x="390" 
d="M374 164q-8 0 -14 -6q-21 -19 -49 -24q-74 -12 -152.5 -17.5t-148.5 -22.5q-10 -3 -10 -8q0 -2 3 -5q13 -11 75 -38q32 -13 51.5 -21t27.5 -10q38 -12 70 -12q34 0 54.5 14t39.5 42q11 18 25 36t30 30q14 5 14 25q0 7 -4 12t-12 5z" />
    <glyph glyph-name="glyph138" horiz-adv-x="410" 
d="M375 139q11 6 12 23t-14 19q-9 1 -17 -8v1q-19 -21 -46 -29q-72 -19 -150 -32t-146 -37q-14 -6 -6 -13q12 -10 78 -30q33 -10 53.5 -16t28.5 -8q64 -13 100 1.5t59 58.5q10 20 21 38.5t27 31.5z" />
    <glyph glyph-name="glyph139" horiz-adv-x="507" 
d="M606 361q25 32 35.5 78.5t15.5 96.5q0 2 -1.5 1t-2.5 -6q-17 -68 -93 -82q3 12 5 26t1 27q0 6 -1 4.5t-3 -3.5q-6 -10 -11 -23t-15 -21q-44 -28 -67.5 -34t-34.5 4t-17.5 30.5t-18.5 44.5l-53 -132q11 -35 18 -67.5t6 -70.5q-32 -29 -75 -52.5t-95 -33t-111 0.5
q-32 14 -43 37t-8 51t14.5 57t25.5 56t23 48q7 18 0.5 21t-12.5 -9q-55 -100 -74.5 -173.5t-11.5 -123.5t35.5 -77t67.5 -33.5t84.5 6t87 42.5t73.5 75q21 31 33.5 55t22 50t21.5 59q37 12 51 19t20 11q2 -6 5 -6.5t7 0.5q30 8 55 17.5t41 29.5z" />
    <glyph glyph-name="glyph140" horiz-adv-x="685" 
d="M652 304q1 2 -1.5 4t-4.5 0q-10 -16 -27.5 -27t-37.5 -19q-31 -12 -72 -24t-94 -23q-103 -22 -195.5 -41.5t-198.5 -38.5l-21 -135l231 50q53 15 111.5 29.5t115 30.5t103.5 37q-5 -14 -14 -29q-2 -4 -7.5 -16t-7.5 -23.5t4 -16.5q13 -10 22 7q26 56 50 115t44 120z" />
    <glyph glyph-name="glyph141" horiz-adv-x="318" 
d="M201 57v0q2 -10 13.5 -14.5t23.5 -1.5q16 5 28.5 11t25.5 12q3 2 7.5 4.5t8.5 2.5q2 -7 8 -7q13 0 33.5 8t39.5 19.5t27 21.5q25 32 36 78t16 96q0 2 -2 1t-3 -6q-17 -68 -92 -82q3 12 5 26.5t1 27.5q0 6 -1.5 4t-3.5 -4q-6 -10 -10.5 -23t-14.5 -21q-33 -25 -58 -30
t-30 -4q2 10 4 19.5t0 18.5q-1 3 -2 10.5t-3 2.5q-8 -26 -33 -42t-57 -24.5t-62.5 -13t-50.5 -7.5l-55 -140v0q68 22 115.5 31t85.5 26z" />
    <glyph glyph-name="glyph142" horiz-adv-x="563" 
d="M550 416q-4 -1 -13.5 -2.5t-26.5 -4.5q-32 -6 -56 0q-20 4 -29 28q-4 12 -11 28.5t-17 37.5l-54 -125q10 -33 18 -67.5t7 -77.5q-48 -43 -120 -72t-161 -12q-67 28 -45 115q8 33 26.5 69.5t30.5 63.5q6 17 0 20.5t-12 -8.5q-96 -174 -87 -270q9 -97 68 -125q61 -29 143 2
q84 32 139 110q52 76 70 163q57 8 114 18.5t112 23.5q111 25 189 131q13 17 25 35.5t22 39.5q21 43 -9 79q-26 30 -73 21q-46 -9 -70 -30q-22 -22 -49.5 -50.5t-54.5 -57.5t-49 -53q-25 -28 -27 -30zM785 504q10 -20 -2 -26q-43 -20 -92.5 -32.5t-102.5 -23.5q27 28 55 55
t63 46q22 12 46.5 4t32.5 -23z" />
    <glyph glyph-name="glyph143" horiz-adv-x="721" 
d="M573 213q0 -7 -6 -10q-43 -21 -92.5 -33t-102.5 -23q27 27 54.5 55t62.5 47q6 4 13 5t14 1q22 0 39.5 -11.5t17.5 -30.5zM242 16q10 0 21 1t23 3q20 3 45 9t49.5 12.5t40.5 10.5v0q30 11 58 25t53 30q46 29 77.5 67.5t56.5 87.5q8 15 8 33q0 28 -20.5 49t-49.5 21
q-28 0 -53 -10.5t-38 -22.5q-48 -45 -92.5 -93t-87.5 -98q-29 -6 -62 -9l-1 1q11 24 18 41.5t11 29.5q1 2 1 12q0 5 -1 5t-4 -3q-14 -33 -43 -49q-45 -25 -230 -37l-22 -132q27 3 67 9.5t78.5 15.5t58.5 17q-1 -3 -1 -9q0 -11 12.5 -14t26.5 -3z" />
    <glyph glyph-name="glyph144" horiz-adv-x="331" 
d="M573 213q0 -7 -6 -10q-43 -21 -92.5 -33t-102.5 -23q27 27 54.5 55t62.5 47q6 4 13 5t14 1q22 0 39.5 -11.5t17.5 -30.5zM242 16q10 0 21 1t23 3q20 3 45 9t49.5 12.5t40.5 10.5v0q30 11 58 25t53 30q46 29 77.5 67.5t56.5 87.5q8 15 8 33q0 28 -20.5 49t-49.5 21
q-28 0 -53 -10.5t-38 -22.5q-48 -45 -92.5 -93t-87.5 -98q-29 -6 -62 -9l-1 1q11 24 18 41.5t11 29.5q1 2 1 12q0 5 -1 5t-4 -3q-14 -33 -43 -49q-45 -25 -230 -37l-22 -132q27 3 67 9.5t78.5 15.5t58.5 17q-1 -3 -1 -9q0 -11 12.5 -14t26.5 -3z" />
    <glyph glyph-name="glyph145" horiz-adv-x="320" 
d="M531 212q3 -6 4.5 -14.5t-6.5 -12.5q-43 -20 -92.5 -32t-102.5 -23q27 28 54.5 55t62.5 46q21 11 46 4.5t34 -23.5zM580 190q17 23 34 44t21 43t-17 47q-17 20 -44.5 22t-54.5 -7t-43 -24q-49 -46 -94 -94.5t-89 -98.5q-66 -11 -138 -16.5t-149 -3.5q-4 0 -6 -5t2 -7
q37 -22 64.5 -41t53.5 -32t58 -16q40 -4 105 12q98 26 172.5 68t124.5 109zM294 479l22 -321l74 118l-22 321z" />
    <glyph glyph-name="glyph146" horiz-adv-x="574" 
d="M197 504l21 -320l74 117l-21 321zM469 373q-28 0 -53 -10.5t-38 -22.5q-48 -45 -92.5 -93t-88.5 -98q-20 -4 -64 -9.5t-112 -10.5v-1v0l-21 -128q3 0 5 1v-1q61 6 127 19t136 34q141 42 216 142q13 17 24.5 35.5t21.5 39.5q9 17 9 33q0 27 -20.5 48.5t-49.5 21.5z
M438 221q0 -8 -6 -11q-43 -20 -92.5 -32t-102.5 -23q27 28 54.5 55t62.5 46q11 7 26 7q22 0 40 -11.5t18 -30.5z" />
    <glyph glyph-name="glyph147" horiz-adv-x="206" 
d="M197 504l21 -320l74 117l-21 321zM469 373q-28 0 -53 -10.5t-38 -22.5q-48 -45 -92.5 -93t-88.5 -98q-20 -4 -64 -9.5t-112 -10.5v-1v0l-21 -128q3 0 5 1v-1q61 6 127 19t136 34q141 42 216 142q13 17 24.5 35.5t21.5 39.5q9 17 9 33q0 27 -20.5 48.5t-49.5 21.5z
M438 221q0 -8 -6 -11q-43 -20 -92.5 -32t-102.5 -23q27 28 54.5 55t62.5 46q11 7 26 7q22 0 40 -11.5t18 -30.5z" />
    <glyph glyph-name="glyph148" horiz-adv-x="341" 
d="M389 548h-10q-34 0 -57 -6q-4 -4 -17 -17.5t-33 -38.5q-38 -46 -38 -61q0 -1 0.5 -1.5t0.5 -1.5l14 -90l-116 -114q-73 -78 -109 -197q-24 -76 -24 -144q0 -76 27.5 -126.5t78.5 -76.5q68 -33 151 -33q64 0 117.5 14t110.5 40q99 46 161 120v1.5v0.5q0 1 -1 1
q-4 0 -13 -3q-58 -14 -129.5 -27t-143.5 -13q-99 0 -173 27t-124 82q-18 21 -18 49q0 17 7 35q8 26 21.5 51.5t31.5 51.5q19 26 44 55.5t51.5 57t46.5 45.5q14 12 31 25t37 27q41 29 55 53q4 5 8 11t9 13l51 79q6 9 11 20.5t10 25.5q3 9 3 18q0 26 -20.5 36t-51.5 11z" />
    <glyph glyph-name="glyph149" horiz-adv-x="520" 
d="M274 317q27 -2 53.5 -7.5t51.5 -13.5l42 130q-24 6 -46 11t-50 6h-1q-33 0 -58 -31q-25 -30 -42 -77t-17 -100q0 -44 18 -71q-46 -13 -94 -19.5t-108 -14.5l-23 -130q53 11 108 23.5t113 25.5q116 27 223 84q1 2 3.5 7.5t7.5 15.5q9 18 19 41t16 42q3 8 3 12q0 3 -2 3
h-0.5h-1.5q-18 -7 -35 -15l-34 -16q-33 -17 -79 -18q-23 20 -42 47.5t-25 64.5z" />
    <glyph glyph-name="glyph150" horiz-adv-x="286" 
d="M372 351h-10q-17 0 -31.5 -2t-25.5 -5q-4 -4 -16.5 -17t-33.5 -38q-38 -46 -38 -61q0 -1 0.5 -1.5t0.5 -1.5l19 -66q-54 -9 -107.5 -18t-107.5 -18l-1 -1l-21 -122q35 6 81.5 15.5t90.5 21.5t70 22q11 4 26.5 11.5t34.5 20.5q20 13 36 30t30 39l51 79q6 9 11 21t10 26
q3 9 3 17q0 26 -20.5 36.5t-51.5 11.5z" />
    <glyph glyph-name="glyph151" horiz-adv-x="567" 
d="M103 386q-7 0 -13 -9q-18 -28 -36 -61.5t-35 -71.5q-20 -46 -20 -86q0 -29 10 -55q16 -48 63 -74q51 -29 128 -29q86 0 165.5 21.5t137.5 49.5v0l16 4q86 24 138 90q53 67 83 147q4 15 6 28t2 24q0 29 -15.5 50t-44.5 21q-36 0 -77 -48q-71 -83 -126 -205
q-28 -10 -64 -19.5t-81 -18.5q-28 -6 -55 -9.5t-53 -3.5q-14 0 -27 1t-26 3q-73 10 -103 61q-9 17 -9 39q0 51 43 131q3 8 3 11q0 9 -10 9zM547 234q0 9 6 16q14 18 27.5 36t36.5 26q11 -4 24.5 -24t13.5 -42q0 -16 -15 -24q-40 -19 -71 -20q-7 3 -14.5 12.5t-7.5 19.5z" />
    <glyph glyph-name="glyph152" horiz-adv-x="390" 
d="M208 255q19 0 34.5 8t25.5 16q2 2 3 2q8 0 18 -29l12 -36q-48 -37 -279 -87l-22 -129q147 31 198 57q25 13 47.5 31.5t42.5 41.5q22 25 38 57.5t26 72.5q4 16 6 31t2 29q0 47 -20 83t-48 56q-12 9 -22 9q-17 0 -32 -21q-20 -27 -35.5 -59.5t-32.5 -63.5q-7 -13 -7 -32
q0 -20 13 -28.5t32 -8.5z" />
    <glyph glyph-name="glyph153" horiz-adv-x="283" 
d="M262 214q0 9 6 16q14 18 27.5 37t37.5 26q10 -4 24 -24t14 -42q0 -16 -16 -24q-39 -18 -70 -21q-7 3 -15 12.5t-8 19.5zM404 415q-36 0 -77 -48q-38 -45 -70 -99t-58 -112l-180 -27l-19 -129l97 21l137 34q86 24 139 91q26 33 46.5 69.5t35.5 76.5q8 32 8 53
q0 29 -15 49.5t-44 20.5z" />
    <glyph glyph-name="glyph154" horiz-adv-x="634" 
d="M500 125q17 24 33.5 61.5t29.5 79.5t19 81.5t3 69.5q-3 22 -14.5 48.5t-28.5 46.5t-35.5 23.5t-35.5 -19.5q-20 -28 -33 -59.5t-30 -62.5q-7 -14 -6 -33t17 -30q13 -8 30 -10t32.5 -0.5t23.5 3.5q6 -8 9 -25.5t4.5 -35.5t0.5 -31q-22 -20 -59.5 -41.5t-80.5 -36
t-82.5 -15.5t-66 19.5t-31.5 70.5q-4 39 5 82t10 77q0 6 -6 11t-12 4q-45 -7 -78 -25.5t-61 -44.5q-14 -35 -26.5 -71t-24.5 -73q24 32 59 55.5t83 30.5q8 2 10.5 -8t2.5 -17q1 -15 -1 -28.5t-4 -27.5q-14 -76 5.5 -121t60.5 -62t92 -8.5t100.5 39.5t85.5 83z" />
    <glyph glyph-name="glyph155" horiz-adv-x="511" 
d="M309 580q-12 0 -24 -3q-73 -13 -191 -196q-19 -28 -37 -62.5t-36 -73.5q-22 -45 -22 -90q0 -29 10 -55q36 -99 161 -99q37 0 74 9q50 12 99.5 37t91 58.5t65.5 69.5l12 -175l70 110l-41 620l-74 -122l32 -381q-16 -9 -38 -19t-48 -21q-45 -19 -101.5 -34.5t-115.5 -15.5
h-4q-53 0 -88 29q-47 36 -47 72q0 18 8 33q14 26 30.5 52t33.5 51q36 53 100 78q7 3 13 4t11 1q44 0 56 -76q-18 -8 -28 -13t-20.5 -8.5t-31.5 -8.5l-43 -131q120 44 165 142q31 69 31 123q0 42 -18 68.5t-55 26.5z" />
    <glyph glyph-name="glyph156" horiz-adv-x="498" 
d="M244 182q-24 -12 -51.5 -20.5t-58.5 -14.5t-58.5 -10.5t-53.5 -8.5l-22 -128q53 13 100.5 27.5t90.5 31.5q84 34 116 162q5 18 8.5 41.5t3.5 48.5v9.5v8.5l-16 256q80 47 159.5 93.5t158.5 92.5l33 117v2v2q0 5 -4 5t-7 -2q-6 -3 -34.5 -20t-69 -40.5t-84 -49t-80 -47
t-55.5 -32.5l-32 -117l-61 -95q5 -73 11 -154t6 -158z" />
    <glyph glyph-name="glyph157" horiz-adv-x="259" 
d="M214 501l32 -324q-47 -25 -224 -49l-22 -128q41 9 76.5 17.5t63.5 15.5q58 15 110 92l9 -125l71 113l-38 461q79 46 147 84t147 84l33 117q0 1 0.5 2t0.5 2q0 5 -4 5q-3 0 -8 -3q-55 -32 -104 -59.5t-98 -55.5t-104 -60l-23 -81z" />
    <glyph glyph-name="glyph158" horiz-adv-x="428" 
d="M328 666l28 -443q-48 -40 -117.5 -64.5t-152.5 -9.5q-32 14 -43 37t-8 51t14.5 57t25.5 56t23 48q7 18 1 20.5t-12 -9.5q-55 -100 -74.5 -173.5t-11.5 -123t35.5 -77t67.5 -33.5t84.5 6.5t87 42.5t73.5 75q37 53 58 114.5t21 125.5l-1.5 25t-4 66t-5.5 89t-6 95.5
t-5.5 85.5t-3.5 57z" />
    <glyph glyph-name="glyph159" horiz-adv-x="333" 
d="M243 182q-44 -19 -89 -30q-22 -5 -54.5 -10.5t-76.5 -12.5l-22 -125l-1 -4v0q140 34 176 53q101 54 130 168q6 22 9.5 50.5t1.5 57.5l-18 333l-74 -118q4 -73 8 -129.5t7 -111t3 -121.5z" />
    <glyph glyph-name="glyph160" horiz-adv-x="246" 
d="M211 482l22 -305q-48 -25 -211 -48l-22 -129q42 11 75.5 19t58.5 15q51 13 103 91l10 -125l72 106l-34 498z" />
    <glyph glyph-name="glyph161" horiz-adv-x="350" 
d="M475 468q2 10 -0.5 21t-16.5 12q-27 3 -57 5.5t-47 -12.5q-7 -6 -12 -12t-12 -18t-18 -36t-31 -67l-70 -18q-55 -15 -98 -33.5t-69 -57.5q-19 -42 -30 -93.5t-11 -106.5q1 -73 12.5 -140t26.5 -133.5t24 -136.5q12 42 16 96t-2 103l-42 261q-5 32 13 48.5t37 26.5
q33 18 71.5 28.5t78 21.5t71.5 27q48 25 80.5 51.5t53 65t32.5 97.5z" />
    <glyph glyph-name="glyph162" horiz-adv-x="405" 
d="M196 165q-82 -25 -174 -36l-22 -129q67 16 125.5 31t113.5 43q62 31 91 66q19 23 29 38t16.5 35t13.5 57q8 38 -39 39q-48 2 -65 -4q-26 0 -51 -55q-13 -28 -22 -49.5t-16 -35.5z" />
    <glyph glyph-name="glyph163" horiz-adv-x="405" 
d="M196 165q-82 -25 -174 -36l-22 -129q67 16 125.5 31t113.5 43q62 31 91 66q19 23 29 38t16.5 35t13.5 57q8 38 -39 39q-48 2 -65 -4q-26 0 -51 -55q-13 -28 -22 -49.5t-16 -35.5z" />
    <glyph glyph-name="glyph164" horiz-adv-x="428" 
d="M368 242v-9q-48 -43 -120 -72q-46 -18 -99 -18q-30 0 -62 6q-52 22 -52 65q0 17 7 34q14 37 28.5 68t27.5 61l74 -50q8 14 12 21.5t8 14.5l12 21t16 28.5t16 29.5q-20 14 -40 27.5t-40 26.5l-15 8q-13 -22 -27.5 -47t-26.5 -48q-44 -80 -65.5 -143.5t-21.5 -110.5
q0 -53 18.5 -89t49.5 -51q14 -7 30 -11t33 -4q18 0 38 4.5t42 11.5q84 32 139 110q56 82 74 183q3 14 4 29t1 29q0 69 -32 136l-54 -125q10 -31 17.5 -63t7.5 -73z" />
    <glyph glyph-name="glyph165" horiz-adv-x="196" 
d="M78 135q14 0 26 4q48 14 80 50l13 -189l74 138l-18 263q0 65 -37 80q-4 2 -9 3t-10 1q-29 0 -67 -35q-13 -12 -41 -52q-25 -35 -49.5 -81t-35.5 -92q-1 -7 -2.5 -13.5t-1.5 -12.5q0 -20 13 -34.5t31 -22t34 -7.5zM171 288q0 -5 -0.5 -10t-1.5 -10q-8 -2 -15.5 -3.5
t-15.5 -1.5q-24 0 -42.5 9.5t-26.5 24.5q-5 8 -5 14q0 7 6 14q6 8 13.5 15t16.5 14q11 10 26 10q29 0 37 -23t8 -53z" />
    <glyph glyph-name="glyph166" horiz-adv-x="585" 
d="M343 391q-22 0 -52 -35q-71 -81 -120 -202l-148 -24l-23 -130q45 12 90.5 21.5t90.5 21.5v-1q2 2 6 2h5h11q76 0 130 21t94.5 59t73.5 88q45 69 51 125q1 8 1.5 16.5t0.5 16.5q0 13 -1.5 25t-3.5 25q-4 21 -7 43.5t-7 45.5q-11 68 -38 86q-16 11 -38 11q-13 0 -24 -4
q-24 -8 -47.5 -26t-43.5 -40t-35 -41q-19 -25 -39 -51t-31 -58q0 -1 -0.5 -1h-0.5q0 -5 9 -5l1 1q10 0 15 5l22 26t21 28q21 30 53 46q12 5 19 5q15 0 27 -10.5t16 -19.5q21 -43 31 -95.5t10 -112.5v-16.5t-1 -16.5q-50 -32 -124 -45q14 26 26 49.5t22 45.5q9 18 9 36
q0 14 -6.5 34t-17.5 35.5t-27 15.5zM226 190q0 3 2 9q17 37 42 46q3 1 7 1q20 0 34 -40l2 -3q-26 -23 -68 -35h-1q-4 0 -11 7.5t-7 14.5z" />
    <glyph glyph-name="glyph167" horiz-adv-x="314" 
d="M178 42q62 -15 113 -15q70 0 121 30q88 51 145 138q35 53 38 105v5q0 46 -54 73q-20 8 -46 20.5t-56 28.5q-39 21 -69 21q-18 0 -32 -7q-25 -13 -50 -48q-22 -31 -22 -37v0q-36 -43 -68.5 -97.5t-57.5 -110.5l-119 -21l-21 -127q3 1 7 1.5t7 1.5zM206 208q0 8 6 17
q14 18 27.5 36t36.5 26q11 -4 24.5 -24t13.5 -42q0 -16 -15 -24q-19 -9 -36.5 -14.5t-33.5 -6.5q-7 4 -15 12.5t-8 19.5zM511 221q0 -6 -7 -13q-16 -16 -51 -28q-23 -8 -59 -17.5t-64 -9.5h-4q22 30 41 63t32 70q18 -7 30.5 -12t19.5 -8q3 -1 18 -8.5t29.5 -17.5t14.5 -19z
" />
    <glyph glyph-name="glyph168" horiz-adv-x="212" 
d="M217 -273q11 0 31 43l1.5 3t0.5 2l16 137l-8 -16l41 291v2q0 6 -4 6q-1 0 -2.5 -0.5t-3.5 -1.5q-45 -18 -85 -29t-84 -18t-101 -15l-19 -131q30 8 71.5 18l83 20t70.5 17l-19 -232q-1 -11 -1.5 -21.5t-0.5 -19.5q0 -14 2 -34.5t11 -20.5z" />
    <glyph glyph-name="glyph169" horiz-adv-x="491" 
d="M230 8v0q54 10 103.5 46.5t87 87.5t56 108t12.5 110.5t-45 92.5q-9 9 -26.5 15t-28.5 -7q-24 -27 -38.5 -61t-31.5 -67q-7 -15 -8 -31.5t10 -29.5q13 -14 40.5 -16.5t51.5 2.5q5 -7 8.5 -19.5t-1.5 -17.5q-15 -17 -34 -31t-42 -23q-86 -35 -174 -68t-166 -77
q-4 -2 -4 -7.5t5 -6.5q55 -5 112.5 -7.5t112.5 7.5z" />
    <glyph glyph-name="glyph170" horiz-adv-x="414" 
d="M136 487q-3 0 -4 -2q-13 -17 -28 -42t-33 -57q-37 -65 -56 -132q-7 -24 -10.5 -46t-3.5 -45q0 -52 17.5 -84.5t59.5 -55.5q22 -12 46.5 -17.5t50.5 -5.5q9 0 18 0.5t19 1.5q74 10 149 47q43 21 87 51t82 65.5t61 71.5q24 36 24 63q0 23 -15 39t-37 19q-50 7 -92.5 29
t-56.5 65q-22 -37 -37 -79q-10 -26 -10 -47q0 -9 3 -18q12 -40 53 -58q43 -19 93 -23q-97 -62 -213 -83q-19 -4 -38.5 -5.5t-39.5 -1.5q-47 0 -85.5 12t-61 38.5t-22.5 70.5q0 16 2.5 33t7.5 33q12 39 35 81t39 75q1 2 1 4q0 3 -5 3z" />
    <glyph glyph-name="glyph171" horiz-adv-x="674" 
d="M627 600q-13 -31 -28.5 -60.5t-29.5 -60.5q8 -42 14.5 -86.5t12.5 -88.5v0q0 -6 -14 -18q-22 -19 -46.5 -35.5t-50.5 -30.5q-32 -17 -64.5 -31.5t-66.5 -31.5l-215 -94q-32 -13 -67.5 -26t-66.5 -27q-5 -5 -5 -7q0 -3 10 -3t20 1t14 1q88 2 173 8.5t149 31.5
q79 30 144 86t105 136t43 181q-5 41 -13.5 79.5t-17.5 75.5z" />
    <glyph glyph-name="glyph172" horiz-adv-x="732" 
d="M764 565q-5 0 -7 -1q-25 -13 -46 -36.5t-33 -48.5q-21 -43 -39 -79t-33 -67q-31 -63 -110 -107q-28 -16 -58.5 -30.5t-61.5 -28.5l-22 -10l-215 -94q-32 -13 -67.5 -26t-66.5 -27q-5 -5 -5 -7q0 -3 10 -3t20 1t14 1q88 2 173 8.5t149 31.5q118 45 195 139
q24 30 41.5 59.5t27.5 60.5q21 62 62 126q7 10 10 10q5 0 7 -5t2 -7l21 -425l62 93l-15 464q0 8 -15 8z" />
    <glyph glyph-name="glyph173" horiz-adv-x="511" 
d="M581 138q-8 119 -15.5 239.5t-15.5 238.5q80 47 160 93.5t159 92.5l33 117q1 5 -3 6.5t-8 -0.5q-81 -47 -162 -94.5t-162 -94.5l-32 -116l-60 -96q5 -75 10 -148t9 -150q-11 -7 -40 -20.5t-69 -28.5t-84.5 -26.5t-87.5 -15t-77.5 5.5t-54.5 36t-19 76q1 40 17 72t31 59
q-16 -4 -23 -16q-48 -74 -68 -128.5t-19 -93.5t15.5 -65t33.5 -43q34 -30 82.5 -36t102.5 6.5t106 38t94 59t66 68.5l11 -174z" />
    <glyph glyph-name="glyph174" horiz-adv-x="463" 
d="M349 125q38 55 59 119t20 130.5t-31 128.5l-54 -125q11 -33 19 -68t6 -77q-32 -29 -75 -52.5t-95 -33t-111 0.5q-32 14 -43 37t-8 51t14.5 57t25.5 56t23 48q7 18 0.5 21t-12.5 -9q-55 -100 -74.5 -173.5t-11.5 -123.5t35.5 -77t67.5 -33.5t84.5 6t87 42.5t73.5 75z" />
    <glyph glyph-name="glyph175" horiz-adv-x="176" 
d="M114 142h-2q-13 0 -21 -18l-91 -237l32 21l46 109q17 -6 40.5 -11.5t48.5 -5.5q17 0 37.5 2t45.5 6l36 129q-43 -6 -76 -6q-31 0 -52 4t-44 7z" />
    <glyph glyph-name="glyph176" horiz-adv-x="396" 
d="M298 208v-2q-65 -28 -131.5 -42t-144.5 -31l-22 -133l100 28q26 8 69 24q35 13 53 21t40 24q-1 -1 -2 -4t-3 -7q-11 -22 -22 -47t-22 -55q-11 -31 -11 -60q0 -16 3 -31t8 -31q5 -14 16.5 -28t30.5 -14q34 0 53.5 23t32.5 45q14 24 20 55.5t12 61.5q-15 -18 -31 -35
t-50 -17q-20 0 -31.5 16t-11.5 34q0 4 0.5 7t1.5 7q6 32 15 57q3 11 8 21.5t8 21.5q40 40 62.5 87.5t22.5 114.5q0 27 -5 53t-12 42l-11 26l-77 -113q5 -14 12.5 -35.5t13 -44t5.5 -39.5z" />
    <glyph glyph-name="glyph177" horiz-adv-x="501" 
d="M684 201q0 -7 -6 -13q-8 -8 -21.5 -15t-30.5 -13q-23 -8 -59 -17.5t-64 -9.5h-4q22 30 41 63t32 70q18 -7 31 -12t20 -8q3 -1 18 -8.5t29 -17.5t14 -19zM379 188q0 8 6 17l28 36t37 26q10 -4 23.5 -24t13.5 -42q0 -16 -15 -24q-19 -9 -36.5 -14.5t-33.5 -6.5
q-7 4 -15 12.5t-8 19.5zM352 22q62 -15 112 -15q71 0 122 30q44 26 80 60t64 78q36 55 39 105v5q0 46 -55 73q-20 8 -46 20.5t-56 28.5q-39 21 -69 21q-18 0 -31 -7q-27 -13 -51 -48q-22 -31 -22 -37v0q-37 -43 -69 -97.5t-57 -110.5q-49 -8 -83.5 -12.5t-65 -6.5
t-67.5 -3.5t-93 -3.5q-5 -1 -5 -5t9 -9l138 -62q31 -13 54.5 -19.5t39.5 -6.5q3 0 6 -0.5t5 0.5q17 3 42 8.5t59 13.5z" />
    <glyph glyph-name="glyph178" horiz-adv-x="699" 
d="M67 158l-46 33q-8 -15 -15 -59q-7 -42 -1.5 -73.5t36.5 -44.5q33 -13 76.5 -14.5t84.5 5.5q121 19 218 63t170 108q22 20 42 41t28 55q-62 -35 -128 -64.5t-141.5 -49t-167.5 -25.5q-41 -2 -80.5 2.5t-77.5 17.5q0 1 2 5z" />
    <glyph glyph-name="glyph179" horiz-adv-x="423" 
d="M1 0h73q11 11 22 22.5t23 21.5q49 43 115 65v0q27 7 62 4q8 -1 16 -1t12 7q14 26 25 54l22 56l-5 6q-45 18 -103 -9h-1v0q-6 -2 -7 -2q-79 -32 -139 -89q-58 -55 -85 -91q-27 -35 -30 -44z" />
    <glyph glyph-name="glyph180" horiz-adv-x="514" 
d="M0 5q0 -4 5 -4.5t7 1.5q6 10 18 26t31 37q38 43 161 105q62 32 106 64.5t70 65.5q52 66 72 143q19 76 -29 96q-50 20 -116 10q-34 -5 -58.5 -14t-41.5 -20q-49 -34 -70 -126q-21 -90 12 -119q-42 -25 -76 -57q-37 -36 -58 -92t-33 -116zM399 388l-2.5 -2.5l-0.5 -0.5
q-32 -23 -64.5 -39.5t-69.5 -31.5q-2 2 -2 3q-10 21 -23.5 39.5t-21.5 41.5q22 17 88 26q37 5 62 -3.5t34 -32.5z" />
    <glyph glyph-name="glyph181" horiz-adv-x="749" 
d="M713 425q1 2 -2 4t-5 0q-10 -16 -27 -27t-37 -19q-38 -15 -105 -32q-62 -16 -131.5 -33t-131.5 -32q-29 -7 -49.5 -13.5t-31.5 -11.5q-24 -11 -45 -26t-39 -38q-19 -25 -36 -52.5t-31 -57.5t-22 -50.5t-10 -31.5q0 -4 4.5 -4.5t6.5 1.5q14 22 36 46q26 29 51 50t67 32
q25 7 52.5 14t56.5 14q33 8 78 21.5t102 29.5q112 33 170 59l-62 -140l22 18q11 23 27.5 59.5t34.5 77.5t33.5 79t23.5 63z" />
    <glyph glyph-name="glyph182" horiz-adv-x="833" 
d="M439 300q-18 -4 -45 -6q-27 -1 -28 27q-3 28 -25 36.5t-54 -2.5q-18 -6 -36.5 -16t-37.5 -23q-25 -17 -58 -45t-63 -58t-46 -54q-6 -7 -10 -12.5t-6 -8.5q-6 -16 -12.5 -40t-11 -49t-6.5 -44q0 -4 5 -4.5t7 1.5q11 17 19 31t15 26q34 57 89 99q29 21 65.5 46.5t70.5 32.5
q32 8 27 -29q-5 -32 27 -37q30 -4 70 3q20 4 45 11t49 14.5t39 11.5v0q30 11 58 25t53 30q45 29 76.5 67.5t56.5 87.5q21 43 -9 79q-26 30 -73 21q-48 -9 -70 -30q-48 -45 -93 -93t-88 -98zM680 388q11 -21 -1 -27q-43 -20 -92.5 -32t-102.5 -23l54.5 54.5t62.5 46.5
q22 12 46.5 4.5t32.5 -23.5z" />
    <glyph glyph-name="glyph183" horiz-adv-x="676" 
d="M290 657l22 -321l73 118l-22 321zM569 341q13 17 25 36.5t25 41.5q26 46 -5 83q-25 30 -72 21t-71 -30q-48 -45 -92.5 -93t-87.5 -98q-57 -13 -105.5 -39.5t-86.5 -68.5q-76 -84 -99 -189q0 -4 5 -4.5t7 1.5q53 83 124 118q72 35 150 59.5t153 55.5t130 106zM526 390
q11 -21 -1 -27q-43 -20 -92.5 -32t-102.5 -23q27 28 54.5 55.5t62.5 46.5q22 12 46.5 3t32.5 -23z" />
    <glyph glyph-name="glyph184" horiz-adv-x="486" 
d="M242 421q27 -2 53.5 -7.5t51.5 -13.5l42 130q-24 6 -46.5 11t-50.5 6q-26 1 -46 -17.5t-33.5 -44t-21.5 -47.5q-8 -26 -13 -57.5t-2 -61t17 -51.5q-59 -16 -92 -40q-16 -11 -32 -34.5t-31 -58.5t-22.5 -63.5t-15.5 -66.5q0 -4 5 -4.5t7 1.5q28 44 57.5 74.5t67.5 52
t91 36.5q50 14 95.5 31.5t88.5 40.5q1 2 3.5 7.5t7.5 15.5q9 18 18.5 41t16.5 42q6 18 -1 15q-18 -7 -35 -15l-34 -16q-33 -17 -79 -18q-24 20 -42.5 47.5t-24.5 64.5z" />
    <glyph glyph-name="glyph185" horiz-adv-x="212" 
d="M138 87q-16 -13 -46 -25t-52 -20l-7 -17l98 -25q14 19 29.5 47t23.5 52q18 45 18 94v9q-1 27 -7 51.5t-17 46.5q-10 18 -22 33t-27 25q-11 8 -22 8q-18 0 -32 -20q-20 -27 -35.5 -60t-32.5 -64q-7 -13 -7 -32v-2q1 -19 13.5 -27t30.5 -8q19 0 35 8.5t26 16.5q1 1 3 1
q7 0 18 -37q6 -22 9 -34.5t4 -15.5q-1 -2 -1 -5z" />
    <glyph glyph-name="glyph186" horiz-adv-x="329" 
d="M101 88v-1q-1 -4 -45 -24t-49 -21l-7 -17l98 -25q20 26 39 56.5t28 66.5q3 11 5 23t4 26q1 9 1.5 18.5t0.5 19.5v10.5v10.5l-16 257q80 47 159.5 93.5t159.5 92.5l32 117v1.5v1.5q0 5 -4 5q-1 0 -7 -2q-80 -47 -161.5 -94.5t-161.5 -94.5l-32 -116l-61 -96
q5 -72 11 -151.5t6 -156.5z" />
    <glyph glyph-name="glyph187" horiz-adv-x="176" 
d="M91 77q-16 -10 -40.5 -19.5t-43.5 -15.5l-7 -17l98 -25q41 55 56 114q7 26 10.5 53t1.5 55l-17 290l-74 -117q5 -73 10 -157t6 -161z" />
    <glyph glyph-name="glyph188" horiz-adv-x="514" 
d="M402 251q15 14 26.5 27t19.5 26q14 22 21.5 45t13.5 53q8 38 -39 39q-23 1 -39.5 0.5t-25.5 -3.5q-14 0 -30 -22q-17 -25 -31 -57.5t-28 -61.5q-5 -1 -10 -2.5t-10 -3.5q-43 -16 -90.5 -30.5t-80.5 -38.5q-45 -32 -64.5 -88.5t-34.5 -128.5q0 -4 5 -4.5t7 1.5
q25 46 68 79q27 20 70.5 40t83.5 35q47 17 90.5 40.5t77.5 54.5z" />
    <glyph glyph-name="glyph189" horiz-adv-x="627" 
d="M454 217q46 35 90 103q44 67 50 126q5 46 -2.5 87.5t-14.5 83.5q-10 67 -39 86q-27 18 -61 7q-24 -8 -47.5 -26t-44 -40t-34.5 -41q-19 -25 -39 -51t-31 -58q-2 -7 10 -4.5t14 4.5l22 26t21 28q21 30 53 46q23 11 39.5 -0.5t22.5 -24.5q24 -49 34 -109.5t7 -131.5
q-50 -32 -124 -45q14 26 26 49t22 45q20 42 -10 97q-30 54 -85 -10q-69 -79 -119 -202q-34 -6 -65.5 -20t-51.5 -27q-40 -28 -59 -73q-20 -48 -38 -137q0 -4 5 -4.5t7 1.5q18 29 36 51.5t41 41.5q24 18 57 32.5t67 21.5q9 2 16.5 3t12.5 1q127 -1 212 64zM357 325
q-27 -23 -67 -35q-5 -2 -14 9q-9 10 -3 22q17 36 41 45q25 9 42 -38v-0.5t1 -2.5z" />
    <glyph glyph-name="glyph190" horiz-adv-x="548" 
d="M443 299v0q-54 -23 -116.5 -38t-120.5 -35q-98 -29 -136 -97q-19 -34 -35.5 -66t-31.5 -64l14 1q95 83 145 100q25 8 62.5 19.5t87.5 27.5q32 10 51.5 17t44.5 25q-1 -3 -2.5 -5.5t-3.5 -4.5q-8 -13 -19 -39t-25 -64q-21 -61 1 -121q6 -16 18.5 -30t35.5 -11
q30 5 47.5 25t30.5 42q14 23 20 54.5t12 62.5q-7 -10 -14.5 -19t-16.5 -17q-8 -7 -22.5 -12.5t-29 -4.5t-24.5 11q-13 15 -14.5 34.5t3.5 40t11 36.5q3 11 8 21.5t8 21.5q27 25 48.5 62t28.5 68q10 46 7.5 89.5t-16.5 77.5l-11 27l-76 -114q5 -14 12.5 -36.5t13 -45
t4.5 -39.5z" />
    <glyph glyph-name="glyph191" horiz-adv-x="452" 
d="M12 2q17 27 31 49t24 38q11 16 29.5 36t46.5 42q53 44 114 66q23 9 38 -2t22 -25q8 -24 33 -23q3 1 8 2.5t11 2.5l62 134l-33 -5q-3 0 -5 1q-9 11 -18.5 27t-29.5 16q-38 0 -85 -21q-44 -21 -86 -54.5t-74 -67.5q-19 -19 -36.5 -39.5t-33.5 -40.5q-6 -16 -12.5 -40
t-11 -49t-6.5 -44q0 -4 5 -4.5t7 1.5z" />
    <glyph glyph-name="glyph192" horiz-adv-x="268" 
d="M174 261q-49 -12 -86 -46q-26 -25 -44 -63q-12 -25 -22.5 -61.5t-21.5 -85.5q0 -4 5 -4.5t7 1.5q20 37 48.5 62.5t63.5 44.5q39 21 82.5 37t79.5 40q32 20 60 49.5t53 66.5q22 35 39.5 64.5t33.5 69.5q11 28 -6 41q-25 20 -95 26q-34 3 -59.5 6.5t-42.5 7.5h-1
q-13 -28 -27.5 -55t-26.5 -57q-8 -18 1 -19q19 -4 65 -6q23 -1 42.5 -2.5t35.5 -5.5q29 -8 33 -19q-2 -4 -11 -10q-55 -28 -100.5 -47.5t-105.5 -34.5z" />
    <glyph glyph-name="glyph193" horiz-adv-x="447" 
d="M501 390q-6 -46 -64 -74q-59 -29 -62 18q-2 26 -20 35q-23 11 -63 -4q-19 -7 -39 -19t-40 -26q-34 -24 -73 -58.5t-64 -63.5l-24 -28t-22 -32q-6 -16 -12.5 -40t-11 -49t-6.5 -44q0 -4 5 -4.5t7 1.5q21 33 34 55.5t29 42.5t43 45v0q25 22 60 48t65 42q14 8 30 13t27 0.5
t8 -27.5q-6 -50 42 -41q47 9 71 20q13 7 16 7q0 -7 8 -7q88 0 116 78t36 145q-1 6 -2 4.5t-3 -9.5q-4 -17 -17 -39.5t-32 -36.5t-43 -6q4 14 5 27.5t0 26.5q0 5 -2 3.5t-2 -3.5z" />
    <glyph glyph-name="glyph194" horiz-adv-x="439" 
d="M439 300q-18 -4 -45 -6q-27 -1 -28 27q-3 28 -25 36.5t-54 -2.5q-18 -6 -36.5 -16t-37.5 -23q-25 -17 -58 -45t-63 -58t-46 -54q-6 -7 -10 -12.5t-6 -8.5q-6 -16 -12.5 -40t-11 -49t-6.5 -44q0 -4 5 -4.5t7 1.5q11 17 19 31t15 26q34 57 89 99q29 21 65.5 46.5t70.5 32.5
q32 8 27 -29q-5 -32 27 -37q30 -4 70 3q20 4 45 11t49 14.5t39 11.5v0q30 11 58 25t53 30q45 29 76.5 67.5t56.5 87.5q21 43 -9 79q-26 30 -73 21q-48 -9 -70 -30q-48 -45 -93 -93t-88 -98zM680 388q11 -21 -1 -27q-43 -20 -92.5 -32t-102.5 -23l54.5 54.5t62.5 46.5
q22 12 46.5 4.5t32.5 -23.5z" />
    <glyph glyph-name="glyph195" horiz-adv-x="299" 
d="M290 657l22 -321l73 118l-22 321zM569 341q13 17 25 36.5t25 41.5q26 46 -5 83q-25 30 -72 21t-71 -30q-48 -45 -92.5 -93t-87.5 -98q-57 -13 -105.5 -39.5t-86.5 -68.5q-76 -84 -99 -189q0 -4 5 -4.5t7 1.5q53 83 124 118q72 35 150 59.5t153 55.5t130 106zM526 390
q11 -21 -1 -27q-43 -20 -92.5 -32t-102.5 -23q27 28 54.5 55.5t62.5 46.5q22 12 46.5 3t32.5 -23z" />
    <glyph glyph-name="glyph196" horiz-adv-x="334" 
d="M291 174q11 3 26 11t34 21q20 13 36 30t30 39l51 79q6 9 12 21t10 26q9 29 -11 49q-18 16 -58 16q-43 0 -67 -7q-10 -7 -51 -55q-42 -49 -37 -64l20 -66q-46 -9 -77.5 -17t-51.5 -16q-39 -15 -94 -100q-52 -79 -63 -136q0 -4 5 -4.5t7 1.5q23 37 55.5 66.5t73.5 50.5
q32 16 53 23t43 13t54 19z" />
    <glyph glyph-name="glyph197" horiz-adv-x="319" 
d="M271 159q86 24 138 90q52 65 82 147q24 91 -24 116q-48 26 -104 -41q-37 -43 -69 -94.5t-59 -113.5q-63 -12 -96 -34q-16 -11 -35.5 -33t-40.5 -55q-52 -79 -63 -136q0 -4 5 -4.5t7 1.5q23 37 55.5 66.5t73.5 50.5q26 14 44 19.5t37 9.5t49 11zM369 397q20 -8 33 -43
q14 -37 -10 -47q-19 -9 -36.5 -14.5t-34.5 -6.5q-10 5 -18.5 19t2.5 29q14 18 27 36.5t37 26.5z" />
    <glyph glyph-name="glyph198" horiz-adv-x="358" 
d="M327 358q3 -39 5.5 -67t5 -54t5 -57t6.5 -74t10 -106l73 102l-40 472q79 46 147 84t147 84l33 117q3 14 -11 6q-55 -32 -104 -59.5t-98.5 -55.5t-104.5 -60l-22 -81l-65 -108l5 -54q-37 -13 -81 -33.5t-94 -49.5q-100 -58 -144 -222l23 -5q53 74 133 132t171 89z" />
    <glyph glyph-name="glyph199" horiz-adv-x="355" 
d="M327 358l28 -358l72 107l-43 581l-73 -122l9 -118q-37 -13 -81.5 -34t-94.5 -50q-100 -58 -144 -222l23 -5q53 74 133 132t171 89z" />
    <glyph glyph-name="glyph200" horiz-adv-x="358" 
d="M402 251q15 14 26.5 27t19.5 26q14 22 21.5 45t13.5 53q8 38 -39 39q-23 1 -39.5 0.5t-25.5 -3.5q-14 0 -30 -22q-17 -25 -31 -57.5t-28 -61.5q-5 -1 -10 -2.5t-10 -3.5q-43 -16 -90.5 -30.5t-80.5 -38.5q-45 -32 -64.5 -88.5t-34.5 -128.5q0 -4 5 -4.5t7 1.5
q25 46 68 79q27 20 70.5 40t83.5 35q47 17 90.5 40.5t77.5 54.5z" />
    <glyph glyph-name="glyph201" horiz-adv-x="367" 
d="M230 159q147 -38 235 14q87 51 145 139q35 53 38 104t-55 79q-20 8 -46 20t-56 28q-56 32 -90 18t-61 -52q-24 -35 -22 -36q-37 -44 -68.5 -98t-56.5 -110l-3 -1h-1v-1q-51 -10 -86 -35q-35 -24 -65 -93q-16 -35 -23 -63t-15 -67q0 -4 5 -4.5t7 1.5q64 102 156 142v0z
M547 358q16 -10 15.5 -19.5t-10.5 -17.5t-23.5 -14t-23.5 -10q-15 -5 -38.5 -11.5t-47 -11t-41.5 -4.5q22 30 41 62.5t32 70.5q26 -10 38.5 -15t24 -10.5t33.5 -19.5zM329 403q20 -8 33 -43q14 -37 -10 -47q-39 -18 -71 -21q-10 5 -18.5 19.5t2.5 29.5q14 19 27 36.5
t37 25.5z" />
    <glyph glyph-name="glyph202" horiz-adv-x="399" 
d="M375 -20l-1 -1v-1l-4 -51q-3 -31 -1.5 -53t5.5 -35q9 -26 38 35l2 6l15 136l-8 -16q6 43 12.5 85t12.5 85v0l1 4q2 23 3 40.5t-4 40.5q-12 63 -68 57q-57 -6 -120 -40q-30 -16 -69 -41.5t-74 -52.5t-56 -47q-16 -28 -30.5 -59.5t-28.5 -62.5q0 -1 4 -6t6 -3q8 14 18.5 26
t21.5 22q19 17 33.5 30t31.5 26t41 29q30 20 72.5 39.5t88.5 14.5q38 -5 53 -47q11 -34 10.5 -76.5t-5.5 -83.5z" />
    <glyph glyph-name="glyph203" horiz-adv-x="373" 
d="M355 253q0 2 -1 3t-2 -1q-12 -32 -41.5 -57t-69 -41t-81 -20.5t-76.5 4.5q-20 5 -28.5 28t-4.5 46q0 5 -3 0q-16 -21 -29 -50t-17.5 -58.5t3.5 -54.5t33 -37q38 -18 81 -14.5t84 25t75.5 56t55 78.5t21.5 93z" />
    <glyph glyph-name="glyph204" horiz-adv-x="636" 
d="M277 144q-60 -10 -95 -13t-53.5 -2t-28.5 4q-25 8 -39.5 30.5t-10.5 50.5q0 2 -1.5 2t-2.5 -2q-31 -60 -42.5 -106.5t5.5 -75t69.5 -33t148.5 20.5q-1 -8 -3.5 -18t-4.5 -16q-1 -4 2.5 -7.5t6.5 -2.5q10 3 14 12.5t6.5 20.5t5.5 17q80 17 155.5 37t133.5 39l63 136
q-16 -7 -31.5 -5t-25.5 13q-9 38 -26 68.5t-46 46.5t-55 5t-49 -38t-42 -61.5t-32.5 -67.5t-21.5 -55zM447 186q2 -5 2 -7.5t-8 -4.5l-140 -28l24 52t33 43q13 11 28.5 9t26.5 -12q12 -10 20 -23t14 -29z" />
    <glyph glyph-name="glyph205" horiz-adv-x="696" 
d="M682 286q1 3 -0.5 5t-3.5 0q-7 -6 -13 -13.5t-14 -12.5q-26 -15 -70 -32.5t-99 -34.5t-113 -31.5t-113 -24.5t-99 -13t-71 4q-19 5 -28.5 27t-5.5 45q0 2 -1 2t-3 -2q-16 -21 -28.5 -49.5t-16.5 -58.5t4 -54.5t33 -36.5q17 -8 58.5 -6.5t99.5 11.5t125 27.5t136 41
t133 51.5l-26 -59q-5 -12 -1 -20.5t11.5 -9.5t12.5 9q20 41 39.5 88t34.5 87t19 60z" />
    <glyph glyph-name="glyph206" horiz-adv-x="721" 
d="M569 210q3 -6 4.5 -14.5t-6.5 -12.5q-43 -20 -92.5 -32t-102.5 -23q27 28 54.5 55t62.5 46q21 11 46 4.5t34 -23.5zM262 119q20 44 29 72q2 2 1.5 11.5t-5.5 1.5q-6 -16 -17.5 -28.5t-25.5 -20.5q-19 -10 -48.5 -16.5t-59.5 -7.5t-52 4q-19 5 -28.5 26.5t-5.5 43.5
q1 2 -1 2.5t-4 -2.5q-16 -21 -28.5 -49.5t-16.5 -58t4 -53.5t33 -36q22 -11 52 -8.5t59 11.5t48 17q-4 -15 9.5 -21t38 -6t53.5 4.5t56 10.5q77 17 148 52.5t119 99.5q17 23 33.5 49t20.5 53t-17 52q-17 20 -45 22t-55 -7t-43 -24q-48 -45 -93 -93t-88 -98q-13 -3 -36 -6
t-35 3z" />
    <glyph glyph-name="glyph207" horiz-adv-x="635" 
d="M251 499l21 -321l74 118l-21 321zM536 209v0q17 23 34 44t21.5 43.5t-16.5 47.5q-17 20 -44.5 22t-54.5 -7t-43 -24q-48 -45 -93 -93t-88 -98q-38 -8 -74 -10.5t-61 -1.5t-32 2q-22 5 -30 27t-4 45q0 2 -1 2t-3 -2q-16 -21 -28.5 -49.5t-17 -58t3.5 -54t33 -36.5
q14 -7 29.5 -8t26.5 0l11 1q78 11 160 37t154 68.5t117 102.5zM488 232q3 -6 4.5 -14.5t-6.5 -12.5q-43 -20 -92.5 -32t-102.5 -23q27 28 54.5 55t62.5 46q21 11 46 4.5t34 -23.5z" />
    <glyph glyph-name="glyph208" horiz-adv-x="552" 
d="M475 121q1 2 7.5 15.5t15.5 32t16 36t10 28t-3 8.5q-36 -13 -69 -30t-80 -19q-24 20 -42 47.5t-24 64.5q30 -3 56 -7.5t49 -12.5l42 130q-25 6 -48 11t-49 6t-48 -20t-38.5 -55t-24.5 -72.5t-6 -74t17 -58.5q-19 -5 -52 -11t-66 -8.5t-53 2.5q-19 5 -28.5 25.5t-6.5 42.5
q0 2 -2 2.5t-4 -2.5q-15 -21 -27 -49.5t-16 -57.5t4 -52.5t33 -35.5q19 -9 55 -6.5t81 13t92.5 26t90 31.5t74 29.5t44.5 20.5z" />
    <glyph glyph-name="glyph209" horiz-adv-x="429" 
d="M328 118q29 32 48 79.5t21.5 98.5t-18.5 91q-12 25 -30 43.5t-37 21.5t-36 -20q-20 -28 -35.5 -60t-32.5 -63q-7 -14 -6.5 -34.5t14.5 -27.5q24 -12 49 -4t41 21q4 5 9 -3t10.5 -21t9 -24.5t4.5 -14.5q-11 -6 -42 -19t-71 -26.5t-78 -20.5t-63 -1q-18 5 -27 24t-8 41
q0 3 -2.5 4t-5.5 -4q-15 -22 -26.5 -49.5t-15 -55.5t5 -51t32.5 -35q20 -10 51 -6.5t66.5 16t69.5 30t61.5 36t41.5 34.5z" />
    <glyph glyph-name="glyph210" horiz-adv-x="519" 
d="M224 49q51 27 83.5 70.5t47 96.5t10.5 109l-16 257q80 47 160 93.5t159 92.5l32 117q1 5 -2.5 7t-7.5 0q-81 -47 -162 -94.5t-162 -94.5l-32 -117l-60 -96q5 -75 11 -155t6 -157q-10 -4 -33 -13t-52 -17.5t-59 -13.5t-54.5 -1.5t-37 18.5t-7.5 47q0 2 -2 2.5t-4 -2.5
q-15 -22 -26.5 -50t-15.5 -56t4.5 -51t32.5 -35q18 -9 45 -5.5t55.5 12.5t52 19.5t34.5 16.5z" />
    <glyph glyph-name="glyph211" horiz-adv-x="351" 
d="M321 205q6 21 9.5 49t1.5 59l-17 348l-74 -118q3 -37 6 -86t5.5 -101.5t4 -102t1.5 -87.5q-22 -9 -53 -19.5t-62.5 -15.5t-58.5 2q-17 5 -26 22t-9 37q-1 4 -4 5t-8 -5q-19 -29 -30.5 -66.5t-5.5 -70t37 -48.5q23 -11 51.5 -6.5t56 16t45.5 20.5q50 26 83 68t47 100z" />
    <glyph glyph-name="glyph212" horiz-adv-x="469" 
d="M446 279q1 5 -13 15t-34.5 18t-38.5 10.5t-26 -7.5l-69 -91q-10 -12 -17 -32.5t7 -34.5q-22 -6 -52.5 -14t-62 -11.5t-56.5 2.5q-18 5 -26.5 23.5t-7.5 40.5q0 3 -3.5 3.5t-5.5 -3.5q-15 -22 -26.5 -49.5t-14.5 -55.5t5.5 -51t32.5 -35q18 -9 40.5 -7.5t41.5 5.5
q53 12 106 36.5t98.5 60.5t77.5 81t44 96z" />
    <glyph glyph-name="glyph213" horiz-adv-x="601" 
d="M429 95v0q30 23 61 62.5t53 84t26 82.5q5 41 -2 83t-15 88q-9 54 -28.5 77t-45 22t-53.5 -17.5t-54 -42.5t-46 -52q-19 -25 -38.5 -51t-30.5 -58q-2 -6 8.5 -5.5t14.5 4.5q23 26 43.5 55.5t53.5 45.5q22 11 38.5 -0.5t23.5 -25.5q47 -97 41 -240q-25 -16 -56.5 -27.5
t-68.5 -18.5q12 23 24.5 47t23.5 48q11 22 7.5 49.5t-17 47.5t-35.5 21t-49 -31q-37 -43 -67 -95t-53 -108v0v1q-25 -5 -52 -10.5t-52 1.5q-18 5 -27 24t-8 41q1 3 -2 4t-6 -4q-15 -22 -26.5 -49.5t-14.5 -55.5t5.5 -51t32.5 -35q20 -9 49.5 -4.5t59.5 14t48 13.5v0
q5 1 10.5 1.5t10.5 0.5q68 -1 120.5 16t92.5 48zM332 203q-13 -11 -31 -20t-37 -15q-4 -1 -13 9.5t-4 21.5q12 25 27 37.5t30 7t26 -37.5l0.5 -0.5t1.5 -2.5v0z" />
    <glyph glyph-name="glyph214" horiz-adv-x="468" 
d="M367 194v-3q-37 -16 -71.5 -28.5t-68.5 -22.5q-36 -11 -71 -11q-17 0 -35.5 3t-36.5 7q-16 4 -25.5 21t-9.5 37q0 4 0.5 7.5t1.5 7.5q0 2 -0.5 2h-0.5q-1 0 -2 -2q-16 -21 -27.5 -48t-18.5 -60q-3 -13 -3 -27q0 -39 30 -58.5t71 -19.5q33 0 72 12q53 17 89.5 32t70.5 39
q-13 -25 -25 -52t-24 -61q-5 -15 -8.5 -30t-3.5 -30q0 -16 3.5 -31t8.5 -31q5 -14 16 -28t30 -14q34 0 53.5 23t32.5 45q13 24 20 55.5t12 62.5q-15 -18 -30.5 -35.5t-49.5 -17.5q-20 0 -31.5 16t-11.5 34v7t1 7q6 32 15 57q3 11 8 22t8 22q27 23 48.5 60.5t28.5 68.5
q4 20 6 38t2 34q0 28 -5 53t-12 41l-11 27l-77 -113q5 -14 12.5 -35.5t13 -43.5t5.5 -39z" />
    <glyph glyph-name="glyph215" horiz-adv-x="228" 
d="M226 35q-5 -17 3 -17.5t13 8.5q24 45 46.5 92t32.5 79q2 2 1.5 12t-5.5 2q-12 -32 -42 -49q-11 -6 -34.5 -13t-52.5 -12.5t-56.5 -7t-45.5 2.5q-19 5 -26.5 26.5t-7.5 43.5v5.5t-5 -4.5q-17 -20 -29.5 -48t-16.5 -58t5 -54.5t34 -36.5q16 -7 42.5 -5.5t55 8t53 14.5
t35.5 12z" />
    <glyph glyph-name="glyph216" horiz-adv-x="291" 
d="M47 9q24 -13 70 -7.5t100 26.5t105.5 54t86.5 74q28 33 52.5 73t36.5 77q10 31 -6 44q-13 11 -37.5 17t-58.5 9t-59 6.5t-42 7.5h-1q-13 -28 -27.5 -55.5t-26.5 -56.5q-7 -18 1 -19q19 -4 65 -6q47 -2 78 -9q27 -7 30.5 -14.5t-12.5 -17.5q-70 -37 -133 -59t-110.5 -25.5
t-72.5 13.5t-19 59q0 11 -7 0q-12 -16 -25 -42t-20 -55t-1 -54t33 -40z" />
    <glyph glyph-name="glyph217" horiz-adv-x="333" 
d="M217 33q2 -10 13.5 -14.5t23.5 -1.5q16 5 28.5 10.5t25.5 11.5l7.5 5t8.5 3q2 -7 8 -7q13 0 33.5 7.5t39.5 19t27 21.5q25 32 36 78.5t16 96.5q0 2 -2 1t-3 -6q-17 -68 -92 -82q3 12 5 26t1 27q0 9 -5 1q-6 -10 -10.5 -23t-14.5 -21q-16 -12 -38.5 -23t-47.5 -12
q-1 0 -1 0.5t-1 0.5q2 10 4 19t0 18q-1 3 -2 11t-3 3q-5 -16 -25 -31t-47 -25.5t-55 -14t-51 2t-34 23.5q-10 16 -10 45v5l-5 -5q-17 -20 -29.5 -48t-16.5 -57.5t4.5 -54t33.5 -36.5q22 -10 56.5 -6.5t68.5 13.5t53 19z" />
    <glyph glyph-name="glyph218" horiz-adv-x="333" 
d="M569 210q3 -6 4.5 -14.5t-6.5 -12.5q-43 -20 -92.5 -32t-102.5 -23q27 28 54.5 55t62.5 46q21 11 46 4.5t34 -23.5zM262 119q20 44 29 72q2 2 1.5 11.5t-5.5 1.5q-6 -16 -17.5 -28.5t-25.5 -20.5q-19 -10 -48.5 -16.5t-59.5 -7.5t-52 4q-19 5 -28.5 26.5t-5.5 43.5
q1 2 -1 2.5t-4 -2.5q-16 -21 -28.5 -49.5t-16.5 -58t4 -53.5t33 -36q22 -11 52 -8.5t59 11.5t48 17q-4 -15 9.5 -21t38 -6t53.5 4.5t56 10.5q77 17 148 52.5t119 99.5q17 23 33.5 49t20.5 53t-17 52q-17 20 -45 22t-55 -7t-43 -24q-48 -45 -93 -93t-88 -98q-13 -3 -36 -6
t-35 3z" />
    <glyph glyph-name="glyph219" horiz-adv-x="260" 
d="M251 499l21 -321l74 118l-21 321zM536 209v0q17 23 34 44t21.5 43.5t-16.5 47.5q-17 20 -44.5 22t-54.5 -7t-43 -24q-48 -45 -93 -93t-88 -98q-38 -8 -74 -10.5t-61 -1.5t-32 2q-22 5 -30 27t-4 45q0 2 -1 2t-3 -2q-16 -21 -28.5 -49.5t-17 -58t3.5 -54t33 -36.5
q14 -7 29.5 -8t26.5 0l11 1q78 11 160 37t154 68.5t117 102.5zM488 232q3 -6 4.5 -14.5t-6.5 -12.5q-43 -20 -92.5 -32t-102.5 -23q27 28 54.5 55t62.5 46q21 11 46 4.5t34 -23.5z" />
    <glyph glyph-name="glyph220" horiz-adv-x="286" 
d="M38 7q22 -11 57.5 -7t76 18.5t80.5 35.5t71 45.5t46 48.5l51 79q8 12 15 29.5t8 35.5t-13 31q-10 10 -34 13.5t-49 2t-42 -6.5q-4 -3 -19 -19t-31.5 -36.5t-28 -38.5t-9.5 -25l20 -66q-19 -3 -47.5 -8.5t-57 -8t-48.5 2.5q-19 5 -28.5 27.5t-5.5 45.5q0 3 -3 0
q-16 -21 -28.5 -49.5t-17 -58.5t3.5 -54.5t33 -36.5z" />
    <glyph glyph-name="glyph221" horiz-adv-x="289" 
d="M241 38q57 16 99 51.5t72 84t49 101.5q12 45 4 75t-28.5 41t-48 1.5t-55.5 -42.5q-38 -45 -70 -97t-58 -111q-30 -5 -60 -11t-61 1q-19 5 -28.5 25.5t-6.5 42.5q0 9 -6 0q-15 -21 -27 -49.5t-15.5 -57t4.5 -52t33 -35.5q17 -8 44.5 -6t58.5 10t58 16t42 12zM339 276
q13 -5 24.5 -24t13 -39t-14.5 -28q-34 -17 -71 -20q-11 6 -19 20.5t2 27.5q14 18 27.5 36.5t37.5 26.5z" />
    <glyph glyph-name="glyph222" horiz-adv-x="286" 
d="M241 501l31 -324q-12 -6 -41 -16.5t-63.5 -19t-64.5 -7.5t-46 17.5t-7 56.5q0 2 -2 0q-16 -21 -29 -50t-17.5 -58.5t3.5 -54.5t33 -37q24 -12 58 -3.5t70 28.5t65.5 45t44.5 46l10 -124l72 106l-39 468q77 45 147 83.5t148 84.5l32 117q1 5 -3 7t-8 0q-81 -47 -153 -88
t-153 -88l-23 -81z" />
    <glyph glyph-name="glyph223" horiz-adv-x="285" 
d="M250 484l22 -307q-20 -10 -54 -20.5t-70 -15t-63 1.5q-20 5 -30 28.5t-4 47.5q0 1 -1 0q-16 -21 -29.5 -50t-18.5 -59.5t2.5 -55.5t33.5 -38q29 -14 64 -7t70 26.5t62.5 44t41.5 45.5l10 -125l71 104l-33 502z" />
    <glyph glyph-name="glyph224" horiz-adv-x="360" 
d="M35 9q20 -11 55 -9.5t78 11.5t86 26t79 34q30 15 58.5 35t48.5 45q21 26 30.5 52.5t16.5 63.5q8 38 -39 39q-23 1 -34.5 0.5t-30.5 -3.5q-10 -1 -15.5 -5.5t-13.5 -15.5q-18 -25 -32 -58t-28 -62q-29 -14 -68.5 -23t-77.5 -11t-61 5q-17 5 -26 25t-6 42q2 13 -8 0
q-2 -3 -12 -19t-20 -39t-14.5 -48.5t2.5 -48t32 -36.5z" />
    <glyph glyph-name="glyph225" horiz-adv-x="385" 
d="M248 36v0q99 -25 169.5 -9t121.5 60t89 102q24 36 34 71t-1 65t-50 48q-20 8 -46.5 22t-55 27t-54.5 18.5t-46 -4.5q-17 -8 -34.5 -28.5t-28.5 -38.5t-10 -19q-37 -44 -68.5 -98t-57.5 -110q-25 -4 -62 -10.5t-64 0.5q-20 5 -29.5 29t-3.5 48v0q0 1 -1 0v0
q-16 -21 -29.5 -50t-18.5 -59.5t2.5 -55.5t33.5 -38q18 -9 47 -6.5t61 9.5t59.5 15.5t42.5 11.5zM347 281q13 -5 24 -24t12.5 -38.5t-14.5 -27.5t-34.5 -13.5t-36.5 -7.5q-11 6 -18.5 21t2.5 28q14 18 27.5 36t37.5 26zM565 235q21 -13 14.5 -26t-30.5 -24.5t-54.5 -20
t-58 -13t-40.5 -4.5q22 30 41 63t32 70q25 -9 38 -14.5t25.5 -11.5t32.5 -19z" />
    <glyph glyph-name="glyph226" horiz-adv-x="257" 
d="M258 -244l14 137l-7 -16l41 291q1 5 -2.5 6.5t-8.5 -0.5q-36 -14 -71 -24.5t-73 -18.5v0q-19 -2 -36.5 -2t-29.5 3q-19 5 -29 27t-6 44q0 6 -4 0q-16 -21 -28.5 -49.5t-16.5 -58t4 -53.5t33 -36q17 -8 43.5 -6t55.5 9t54.5 15t40.5 12l-19 -232q-3 -41 -0.5 -68t13 -26.5
t29.5 40.5q1 2 1.5 3.5t1.5 2.5z" />
    <glyph glyph-name="glyph227" horiz-adv-x="323" 
d="M308 229q-13 -12 -33 -19t-40 -10q-21 -4 -41.5 -7.5t-39.5 -6.5q-46 -7 -75.5 -31t-45.5 -64q-5 -8 -9.5 -17l-9.5 -19v-1q-23 -28 -10 -47q14 -19 30 6q15 15 33 24t35 12q18 3 40.5 8t48.5 12q57 14 84.5 54.5t32.5 105.5z" />
    <glyph glyph-name="glyph228" horiz-adv-x="544" 
d="M337 262q-16 20 -28 43t-22 48q23 19 96 26t88 -37q-25 -24 -62 -44.5t-72 -35.5zM18 0q7 0 18 14q14 14 42 28.5t68 30.5q38 12 84 32t77 33q77 33 135 94t86 143q6 18 9.5 36t3.5 35q0 35 -28 47q-50 20 -116 10q-34 -5 -58.5 -14t-41.5 -20q-25 -18 -45 -57t-25.5 -87
t11.5 -93q-34 -15 -66.5 -30.5t-65.5 -31.5q-65 -31 -91 -115v-1q-15 -18 -15 -31q0 -7 5.5 -15t12.5 -8z" />
    <glyph glyph-name="glyph229" horiz-adv-x="706" 
d="M181 190q-4 -1 -8 -1.5t-9 -1.5q-90 -13 -122 -95q-5 -8 -9.5 -17l-9.5 -19v-1q-23 -27 -10 -46q14 -19 30 6q15 15 33.5 24t35.5 12q20 4 49.5 10t54.5 14q66 14 138 32t140 39.5t120 44.5q-3 -7 -6 -14.5t-7 -14.5q-2 -4 -7.5 -16t-8 -24t3.5 -17q14 -11 23 8
q26 56 50 115t44 120q0 1 -2.5 3.5t-4.5 0.5q-17 -27 -64 -45q-22 -9 -61 -21.5t-85 -25.5t-90 -24t-77 -18q-48 -10 -77 -16t-38 -8q-10 -1 -13 -1.5t-13 -2.5v0z" />
    <glyph glyph-name="glyph230" horiz-adv-x="674" 
d="M561 367q-28 0 -53 -10.5t-38 -22.5q-48 -45 -93 -93t-88 -98q-6 -1 -11.5 -1.5t-10.5 -0.5q-14 0 -19.5 5t-5.5 23v5v5v1q0 9 -13 9h-2.5h-3.5q-77 -8 -137 -34q-27 -12 -43 -43q-8 -16 -15.5 -29.5t-13.5 -27.5v-1q-15 -18 -15 -32q0 -7 5 -15t12 -8t18 14
q23 23 58.5 34t73.5 15h1q5 0 5 -4v-1q0 -1 -0.5 -2.5t-0.5 -2.5q0 -14 12 -19.5t26 -5.5q7 0 11 1v0h5q92 0 192 42q76 32 123 79t82 115q8 15 8 33q0 27 -20 48.5t-49 21.5zM472 257q22 0 40 -11.5t18 -30.5q0 -6 -7 -10q-43 -21 -92.5 -33t-102.5 -23q27 28 54.5 55
t62.5 46q11 7 27 7z" />
    <glyph glyph-name="glyph231" horiz-adv-x="586" 
d="M214 550l22 -321l74 118l-22 321zM486 419q-28 0 -52.5 -10.5t-37.5 -22.5q-48 -45 -93 -92.5t-88 -97.5v-1l-2 -2q-26 -4 -51.5 -11.5t-49.5 -18.5q-33 -15 -57.5 -43.5t-40.5 -64.5v-1q-15 -18 -15 -32q0 -7 5 -15t12 -8t18 14q21 21 49.5 34.5t59.5 19.5q48 9 97.5 24
t100.5 34q103 39 161 117q10 13 19 27t19 30q16 27 16 51q0 2 -0.5 4.5t-0.5 4.5v1v-1q-2 24 -22.5 42t-46.5 18zM456 267q0 -6 -7 -10q-43 -21 -92.5 -33t-102.5 -23q27 28 54.5 55.5t62.5 46.5q11 7 27 7q22 0 40 -12t18 -31z" />
    <glyph glyph-name="glyph232" horiz-adv-x="536" 
d="M290 358q51 -4 105 -21l42 130q-24 5 -46.5 10.5t-50.5 6.5h-1q-32 0 -58 -32q-25 -30 -42 -76.5t-17 -99.5q0 -44 18 -71q-11 -4 -26.5 -7t-35.5 -6l-1 -1h-2h-1v-1q-31 -7 -58.5 -19t-46.5 -32q-34 -35 -55 -84v-1q-15 -18 -15 -32q0 -7 5 -15t12 -8t18 14
q26 26 54 36.5t64 20.5q86 20 160.5 43t146.5 61q1 2 3.5 7.5t7.5 15.5q9 18 19 41t16 42q3 8 3 12q0 3 -2 3h-0.5h-1.5q-18 -7 -35 -15l-34 -16q-33 -17 -79 -18q-23 20 -41.5 47.5t-24.5 64.5z" />
    <glyph glyph-name="glyph233" horiz-adv-x="382" 
d="M285 149q39 44 59 130q20 87 -8 142q-10 18 -22 33t-27 25q-30 21 -55 -12q-20 -27 -35 -59.5t-32 -63.5q-7 -13 -6.5 -34t13.5 -28q25 -13 51 -4t40 21q4 5 9.5 -3.5t10.5 -22.5t8.5 -25t3.5 -12q-12 -8 -28.5 -12.5t-33.5 -7.5q-45 -11 -78 -20t-54 -17
q-42 -15 -63 -50q-14 -24 -24 -70v-1q-23 -28 -10 -47q14 -19 30 6h1q24 23 60 40q33 15 68.5 26t67.5 26t54 40z" />
    <glyph glyph-name="glyph234" horiz-adv-x="513" 
d="M284 226q-1 -1 -2.5 -1t-3.5 -1v0q-5 -2 -11 -3.5t-12 -3.5q-44 -10 -88.5 -22t-65.5 -20q-42 -15 -63 -50q-7 -12 -13 -29t-11 -41v-1q-23 -28 -10 -47q14 -19 30 6q24 24 57.5 38.5t69.5 26.5t69 27.5t55 40.5l2 2.5t7 8.5v1q10 11 17.5 23.5t14.5 26.5
q16 35 25.5 74.5t6.5 90.5l-16 256l160 94t159 93l32 117q3 14 -11 6q-80 -46 -161.5 -94t-161.5 -95l-32 -116l-60 -96q5 -73 10.5 -154t6.5 -158z" />
    <glyph glyph-name="glyph235" horiz-adv-x="378" 
d="M285 227q-12 -6 -26 -9q-29 -7 -60 -15t-57 -15.5t-41 -12.5q-42 -15 -63 -50q-7 -12 -13 -29t-11 -41v-1q-23 -28 -10 -47q14 -19 30 6q14 14 32.5 25t40.5 21q28 12 57 21t56 21q50 23 82.5 66t45.5 98q6 22 9.5 51t1.5 58l-18 281l-73 -116q5 -73 10.5 -154t6.5 -158z
" />
    <glyph glyph-name="glyph236" horiz-adv-x="448" 
d="M283 128q59 29 90 67q19 23 29 38t16.5 35t13.5 56q8 38 -39 40q-46 1 -65 -5q-26 0 -51 -55q-13 -28 -22 -49.5t-16 -35.5q-23 -8 -43 -14t-36 -11q-15 -4 -38.5 -13t-45 -20.5t-30.5 -25.5q-11 -18 -16.5 -39t-15.5 -41v-1q-23 -28 -10 -47q14 -19 30 6l1 1
q30 28 73.5 46t89.5 33.5t85 34.5z" />
    <glyph glyph-name="glyph237" horiz-adv-x="588" 
d="M236 230q0 3 2 9q17 36 42 45q3 1 7 1q21 0 34 -39l2 -4q-13 -10 -30 -19t-38 -15h-1v0q-4 0 -11 7.5t-7 14.5zM348 425q-23 0 -51 -34q-34 -40 -63.5 -89t-54.5 -108v1q-1 -1 -1 -2.5t-1 -3.5h-1v1q-3 -1 -6.5 -1t-6.5 -1h-1q-30 -9 -53 -19.5t-40 -29.5
q-34 -35 -55 -84v-1q-15 -18 -15 -32q0 -7 5 -15t12 -8t18 14q26 26 55 36.5t66 21.5q3 1 10.5 2.5t18.5 4.5q2 0 4 0.5t4 0.5v0q4 1 7 1h6h5q125 0 207 64q46 35 90 103q45 69 51 126q1 8 1 15v14q0 13 -1 26.5t-3 26.5q-4 21 -7 43t-7 45q-10 67 -39 86q-18 12 -37 12
q-13 0 -24 -4q-24 -8 -47.5 -26t-44 -40t-35.5 -41q-19 -25 -38.5 -51t-30.5 -58q0 -1 -0.5 -1.5l-0.5 -0.5q0 -4 8 -4l1 1q12 0 16 4q22 25 43 55t53 46q12 5 19 5q15 0 26.5 -10.5t15.5 -19.5q42 -87 42 -208v-16.5t-1 -16.5q-25 -16 -55.5 -27.5t-68.5 -18.5
q14 26 26 49.5t22 45.5q8 15 8 36q0 14 -6.5 34t-17.5 35.5t-27 15.5z" />
    <glyph glyph-name="glyph238" horiz-adv-x="434" 
d="M333 231v-3h1q-28 -12 -69 -24.5t-76 -20.5q-60 -12 -96 -21t-60 -71q-5 -8 -9.5 -17l-9.5 -19v-1q-15 -18 -15 -32q0 -7 5 -15t12 -8t18 14q15 15 33 24t35 12q18 3 40.5 8t48.5 12q15 4 39.5 14t37.5 17q14 6 30 18l-5 -10v0q-21 -42 -43 -103q-5 -15 -8.5 -30
t-3.5 -30q0 -20 5.5 -44t18 -41.5t34.5 -17.5q34 0 53.5 23t32.5 45q14 23 20.5 54.5t11.5 62.5q-13 -19 -30.5 -36t-50.5 -17q-20 0 -31 16t-11 35v6.5t1 7.5q6 29 15 56q3 11 8 22t8 22q26 26 48 62t29 68q4 20 6 38t2 34q0 28 -5 53.5t-12 41.5l-12 26l-76 -113
q8 -22 19 -57t11 -61z" />
    <glyph glyph-name="glyph239" horiz-adv-x="324" 
d="M307 31l2 123q-22 -3 -37.5 5t-12.5 31q0 11 -13 12.5t-33 -2t-41.5 -9t-37.5 -10.5q-78 -24 -94 -55q-9 -17 -15 -36.5t-14 -37.5q-1 -1 -6 -9.5t-4 -10.5q-5 -21 7.5 -29.5t25.5 10.5q17 17 36 28q16 6 36 11.5t42 10.5q44 10 43 -5q-7 -46 34 -40q20 3 41 6t41 7z" />
    <glyph glyph-name="glyph240" horiz-adv-x="279" 
d="M392 288q-27 -14 -51.5 -25.5t-44.5 -19.5q-40 -17 -82 -29.5t-83 -28.5q-21 -8 -47 -21t-37 -29q-12 -17 -17.5 -38.5t-15.5 -41.5v-1q-23 -28 -10 -47q14 -19 30 6q29 29 75.5 47.5t89.5 34.5q74 28 123.5 60t88.5 92q22 34 39.5 64t33.5 70q11 28 -6 41
q-13 11 -37.5 17t-58.5 9t-59.5 6.5t-42.5 7.5v0q-13 -28 -27 -55.5t-27 -56.5q-7 -18 1 -19q19 -4 65 -6q18 0 42.5 -2t44.5 -8t23 -18q-1 -3 -10 -9z" />
    <glyph glyph-name="glyph241" horiz-adv-x="330" 
d="M237 203q-35 0 -103 -21q-77 -24 -94 -56q-9 -17 -15 -36.5t-14 -37.5q-1 -1 -5.5 -9t-4.5 -10v-1q-1 -3 -1 -6v-5q0 -7 4.5 -14t11.5 -7q9 0 18 13q17 17 36 28q32 12 78 26q20 7 32 7q11 0 11 -8v-1v-5.5v-4.5q0 -32 30 -32h6t7 1q47 9 71 20q13 7 15 7q2 -6 9 -6
q15 0 36 8.5t39.5 20t24.5 19.5q25 32 35.5 78t15.5 97q0 1 -0.5 1h-0.5q-2 0 -4 -6q-16 -68 -92 -82q6 23 6 45v8q0 4 -1 4t-3 -4q-6 -10 -11.5 -23.5t-14.5 -20.5q-21 -16 -63 -33q-9 -4 -19 -4q-18 0 -18 26v5.5v5.5v1q0 8 -6.5 10t-15.5 2z" />
    <glyph glyph-name="glyph242" horiz-adv-x="289" 
d="M561 367q-28 0 -53 -10.5t-38 -22.5q-48 -45 -93 -93t-88 -98q-6 -1 -11.5 -1.5t-10.5 -0.5q-14 0 -19.5 5t-5.5 23v5v5v1q0 9 -13 9h-2.5h-3.5q-77 -8 -137 -34q-27 -12 -43 -43q-8 -16 -15.5 -29.5t-13.5 -27.5v-1q-15 -18 -15 -32q0 -7 5 -15t12 -8t18 14
q23 23 58.5 34t73.5 15h1q5 0 5 -4v-1q0 -1 -0.5 -2.5t-0.5 -2.5q0 -14 12 -19.5t26 -5.5q7 0 11 1v0h5q92 0 192 42q76 32 123 79t82 115q8 15 8 33q0 27 -20 48.5t-49 21.5zM472 257q22 0 40 -11.5t18 -30.5q0 -6 -7 -10q-43 -21 -92.5 -33t-102.5 -23q27 28 54.5 55
t62.5 46q11 7 27 7z" />
    <glyph glyph-name="glyph243" horiz-adv-x="213" 
d="M214 550l22 -321l74 118l-22 321zM486 419q-28 0 -52.5 -10.5t-37.5 -22.5q-48 -45 -93 -92.5t-88 -97.5v-1l-2 -2q-26 -4 -51.5 -11.5t-49.5 -18.5q-33 -15 -57.5 -43.5t-40.5 -64.5v-1q-15 -18 -15 -32q0 -7 5 -15t12 -8t18 14q21 21 49.5 34.5t59.5 19.5q48 9 97.5 24
t100.5 34q103 39 161 117q10 13 19 27t19 30q16 27 16 51q0 2 -0.5 4.5t-0.5 4.5v1v-1q-2 24 -22.5 42t-46.5 18zM456 267q0 -6 -7 -10q-43 -21 -92.5 -33t-102.5 -23q27 28 54.5 55.5t62.5 46.5q11 7 27 7q22 0 40 -12t18 -31z" />
    <glyph glyph-name="glyph244" horiz-adv-x="287" 
d="M373 378h-10q-35 0 -58 -6q-4 -4 -17 -17.5t-33 -38.5q-37 -44 -37 -61v-1.5v-1.5l20 -65l-31 -6l1 1q-25 -4 -48 -8t-43 -6q-40 -4 -84 -77q-5 -8 -9.5 -17l-9.5 -19v-1q-15 -18 -15 -32q0 -7 5 -15t12 -8t18 14q16 16 67 30q38 11 72 20t69 23q21 7 61 33q38 25 67 69
l50 79q11 17 22 46q3 9 3 18q0 26 -20.5 36t-51.5 11z" />
    <glyph glyph-name="glyph245" horiz-adv-x="314" 
d="M435 444q-36 0 -77 -48q-75 -85 -128 -207l-20 -4h-1q-1 -3 -8.5 -3.5t-10.5 -1.5h-2v-1q-43 -4 -69 -10.5t-44.5 -23.5t-41.5 -54q-5 -8 -9.5 -17l-9.5 -19v-1q-15 -18 -15 -32q0 -7 5 -15t12 -8t18 14q20 20 71 31q25 5 48 11t45 12v1h1q8 2 16.5 4.5t16.5 3.5
q56 13 98 36t74 63q26 33 46.5 69.5t35.5 76.5q8 32 8 53q0 29 -15 49.5t-44 20.5zM294 244q0 9 6 16q14 18 27 36t37 26q10 -4 24 -24t14 -42q0 -16 -15 -24q-37 -18 -71 -21q-7 3 -14.5 12.5t-7.5 20.5z" />
    <glyph glyph-name="glyph246" horiz-adv-x="312" 
d="M11 76q7 0 18 14q9 9 27.5 17t46.5 15v1q32 7 61 15.5t56 18.5q46 17 72 67l20 -224l71 106l-38 468q79 46 147 84t147 84l33 117v1.5v1.5q0 6 -4 6t-7 -2q-55 -32 -104 -60t-98.5 -56t-104.5 -60l-22 -81l-65 -108l19 -213q-64 -14 -107 -24t-64 -17q-20 -7 -43 -25
q-16 -13 -34 -38.5t-29 -51.5v-1q-15 -18 -15 -31q0 -7 5 -15.5t12 -8.5z" />
    <glyph glyph-name="glyph247" horiz-adv-x="312" 
d="M11 76q7 0 18 14q9 9 27.5 17t46.5 15v1q32 7 61 15.5t56 18.5q46 17 72 67l20 -224l72 108l-43 516l-74 -123l19 -213q-64 -14 -107 -24t-64 -17q-20 -7 -43 -25q-16 -13 -34 -38.5t-29 -51.5v-1q-15 -18 -15 -31q0 -7 5 -15.5t12 -8.5z" />
    </font>
</defs>
</svg>
