<?xml version="1.0" standalone="no"?>
<!DOCTYPE svg PUBLIC "-//W3C//DTD SVG 1.1//EN" "http://www.w3.org/Graphics/SVG/1.1/DTD/svg11.dtd" >
<svg xmlns="http://www.w3.org/2000/svg" xmlns:xlink="http://www.w3.org/1999/xlink" version="1.1">
<metadata>
Created by FontForge 20170731 at Tue Aug 10 01:54:24 2021
 By Aleksey,,,
Copyright 2015-2021 The Reem Kufi Project Authors (https://github.com/alif-type/reem-kufi).
</metadata>
<defs>
<font id="ReemKufi-Medium" horiz-adv-x="0" >
  <font-face 
    font-family="Reem Kufi Medium"
    font-weight="500"
    font-stretch="normal"
    units-per-em="1000"
    panose-1="0 0 0 0 0 0 0 0 0 0"
    ascent="800"
    descent="-200"
    x-height="424"
    cap-height="729"
    bbox="-435 -400 1357 1208"
    underline-thickness="50"
    underline-position="-375"
    unicode-range="U+0020-25CC"
  />
<missing-glyph horiz-adv-x="500" 
 />
    <glyph glyph-name=".notdef" horiz-adv-x="500" 
 />
    <glyph glyph-name=".null" 
 />
    <glyph glyph-name="nonmarkingreturn" horiz-adv-x="333" 
 />
    <glyph glyph-name="space" unicode=" " horiz-adv-x="130" 
 />
    <glyph glyph-name="space" unicode="&#xa0;" horiz-adv-x="130" 
 />
    <glyph glyph-name="exclam" unicode="!" horiz-adv-x="202" 
d="M48 762h102v-570h-102v570zM102 -4q-31 0 -50.5 17t-19.5 44q0 26 20 44t50 18t49 -18t19 -44q0 -27 -19 -44t-49 -17z" />
    <glyph glyph-name="quotedbl" unicode="&#x22;" horiz-adv-x="351" 
d="M165 731q-1 -63 -2 -125.5t-2 -126.5h-97v252h101zM300 731q-1 -63 -2 -125.5t-2 -126.5h-97v252h101z" />
    <glyph glyph-name="numbersign" unicode="#" horiz-adv-x="580" 
d="M271 653q-6 -47 -11.5 -92.5t-12.5 -93.5h85q5 48 11.5 93.5t11.5 92.5h103q-6 -47 -11.5 -92.5t-11.5 -93.5h94q-2 -25 -4 -49.5t-5 -49.5h-96q-3 -21 -5.5 -43t-4.5 -44h95q-3 -25 -6.5 -49.5t-5.5 -50.5h-96q-4 -45 -10 -90t-11 -91h-103q5 46 10.5 91t10.5 90h-83
q-5 -45 -11 -90t-10 -91h-104q5 46 11 91t10 90h-87q3 26 6.5 50.5t5.5 49.5h88q2 22 4.5 44t5.5 43h-87q3 25 5.5 49.5t5.5 49.5h87q6 48 11.5 93.5t11.5 92.5h103zM237 368q-2 -21 -5 -43l-6 -44h84q3 22 5.5 44t4.5 43h-83z" />
    <glyph glyph-name="dollar" unicode="$" horiz-adv-x="567" 
d="M248 -68v436l29 39v389h69v-409l-29 -50v-405h-69zM483 578q-40 21 -83.5 35.5t-83.5 14.5q-54 0 -85 -23.5t-31 -66.5q0 -29 21.5 -51t55.5 -39t72 -31q44 -16 85.5 -40.5t68 -66t26.5 -110.5q0 -57 -29 -104.5t-83 -75.5t-132 -28q-67 0 -130.5 21.5t-113.5 55.5l53 93
q36 -27 86.5 -46.5t93.5 -19.5q32 0 62 10t50 33t20 61q0 30 -17.5 52t-46 38t-61.5 29q-34 13 -69.5 29t-65.5 39.5t-49 58t-19 83.5q0 61 28 105.5t78 70t114 28.5q78 0 132.5 -19t96.5 -45z" />
    <glyph glyph-name="percent" unicode="%" horiz-adv-x="793" 
d="M201 279q-50 0 -83.5 23t-50.5 63.5t-17 92.5t17 92t50.5 63.5t83.5 23.5t83.5 -23.5t50.5 -63.5t17 -92t-17.5 -92.5t-50.5 -63.5t-83 -23zM150 458q0 -45 12 -72t39 -27t38.5 27t11.5 72q0 50 -11.5 73.5t-38.5 23.5t-39 -23t-12 -74zM595 -21q-49 0 -83 23t-50.5 63.5
t-16.5 92.5t16.5 92t50.5 63.5t83 23.5q50 0 83.5 -23.5t50.5 -63.5t17 -92t-17.5 -92.5t-50.5 -63.5t-83 -23zM544 158q0 -45 12.5 -72t38.5 -27q27 0 38.5 27t11.5 72q0 49 -11.5 73t-38.5 24q-26 0 -38.5 -23.5t-12.5 -73.5zM686 638l-447 -640l-113 2l446 638h114z" />
    <glyph glyph-name="ampersand" unicode="&#x26;" horiz-adv-x="732" 
d="M691 0h-33.5h-46h-40.5h-17l-336 449q-10 14 -23 36.5t-23 50t-10 56.5q0 42 21 80t62 63t101 25q64 0 114 -26t80 -61l-59 -79q-31 30 -59.5 48t-57.5 18q-39 0 -59.5 -23t-20.5 -55q0 -16 7.5 -34t15.5 -31.5t10 -17.5zM308 342q-35 0 -65.5 -17.5t-49.5 -46.5t-19 -64
t18.5 -62t49.5 -42t68 -15q53 0 85 23.5t48 55.5l75 -65q-26 -50 -82.5 -85t-141.5 -35q-68 0 -123 28.5t-87 78t-32 112.5q0 48 21.5 88.5t58 71t82 48.5t92.5 19zM544 435h109l-121 -306l-85 52z" />
    <glyph glyph-name="quotesingle" unicode="'" horiz-adv-x="169" 
d="M138 731q-1 -63 -2 -125.5t-2 -126.5h-98v252h102z" />
    <glyph glyph-name="parenleft" unicode="(" horiz-adv-x="405" 
d="M90 295q0 102 24 190t62.5 157.5t80.5 114.5l92 -47q-58 -67 -99 -171.5t-41 -243.5q0 -138 41 -242.5t99 -171.5l-92 -48q-42 46 -80.5 115t-62.5 157.5t-24 189.5v0z" />
    <glyph glyph-name="parenright" unicode=")" horiz-adv-x="406" 
d="M322 295q0 -101 -24.5 -189.5t-62.5 -158t-81 -114.5l-91 47q58 68 99 172.5t41 242.5q0 93 -19 170t-50.5 138.5t-70.5 105.5l91 48q43 -45 81 -114.5t62.5 -157.5t24.5 -190v0z" />
    <glyph glyph-name="asterisk" unicode="*" horiz-adv-x="335" 
d="M134 516q-18 -10 -35.5 -20.5t-35.5 -20.5q-9 15 -17.5 30.5t-17.5 30.5q18 10 36 20.5t36 19.5q-18 10 -36 21.5t-35 21.5q8 14 16 28.5t16 28.5q19 -10 37 -21t36 -21v86h71q0 -22 -0.5 -43.5t-0.5 -42.5q18 10 37 20.5t37 20.5q8 -14 16.5 -28.5t16.5 -28.5
q-19 -10 -37.5 -21.5t-37.5 -21.5v0q19 -10 37 -21t36 -21q-9 -15 -17.5 -30.5t-17.5 -30.5q-18 10 -36 21.5t-36 21.5q0 -20 -0.5 -40.5t-0.5 -40.5h-67v82z" />
    <glyph glyph-name="plus" unicode="+" horiz-adv-x="552" 
d="M219 417h103v-133h131v-99h-131v-133h-103v133h-131v99h131v133z" />
    <glyph glyph-name="comma" unicode="," horiz-adv-x="204" 
d="M175 88q-22 -53 -43.5 -105t-43.5 -105h-92q20 53 39.5 105t38.5 105h101z" />
    <glyph glyph-name="hyphen" unicode="-" horiz-adv-x="305" 
d="M54 271h187v-100h-187v100z" />
    <glyph glyph-name="period" unicode="." horiz-adv-x="170" 
d="M26 61q0 27 19 45t42 18q22 0 40.5 -18t18.5 -45t-18.5 -44t-40.5 -17q-23 0 -42 17t-19 44v0z" />
    <glyph glyph-name="slash" unicode="/" horiz-adv-x="400" 
d="M402 748q-70 -192 -140.5 -383.5t-141.5 -383.5h-103q71 192 141.5 383.5t141.5 383.5h102z" />
    <glyph glyph-name="zero" unicode="0" horiz-adv-x="625" 
d="M313 -2q-80 0 -142.5 38.5t-99 113.5t-36.5 183q0 119 35 192.5t98 108.5t145 34q79 1 142 -38t99 -114t36 -183q0 -112 -36.5 -186.5t-99 -111.5t-141.5 -37zM312 111q54 0 88.5 29t50.5 80t16 116q0 64 -16 113t-50.5 77t-88.5 28t-88 -28.5t-50 -78t-16 -114.5
q0 -63 16 -113.5t50 -79.5t88 -29z" />
    <glyph glyph-name="one" unicode="1" horiz-adv-x="336" 
d="M52 660h184v-660h-119v546h-65v114z" />
    <glyph glyph-name="two" unicode="2" horiz-adv-x="562" 
d="M54 0q62 63 120 122t104 114t72.5 107.5t26.5 100.5q0 37 -15.5 61.5t-41.5 36.5t-57 12q-38 0 -62 -15t-36 -37t-12 -43q0 -33 10.5 -58.5t28.5 -44.5l-73 -66q-25 14 -43.5 44t-28 63.5t-9.5 57.5q0 55 28.5 103.5t83 79t133.5 30.5q66 0 114 -30t75.5 -78.5
t27.5 -105.5q0 -64 -30.5 -123.5t-76.5 -117t-96 -115.5l-53 16h272v-114h-462z" />
    <glyph glyph-name="three" unicode="3" horiz-adv-x="525" 
d="M445 660l-164 -285l-67 34q24 11 53 11q36 1 71 -8.5t63 -32.5t45 -62t17 -97q0 -71 -32.5 -122t-86 -78.5t-116.5 -27.5q-49 0 -99 20t-82 53l60 97q17 -21 49.5 -38.5t68.5 -17.5q46 0 81 32t35 89q0 51 -29.5 81t-81.5 30q-29 0 -47 -3.5t-34 -8.5l-3 4l139 231
l35 -15h-227v114h352z" />
    <glyph glyph-name="four" unicode="4" horiz-adv-x="543" 
d="M11 153v1l411 514h1v-425h83v-90h-83v-153h-118v153h-294zM311 405l-128 -167l-15 5h137v175z" />
    <glyph glyph-name="five" unicode="5" horiz-adv-x="521" 
d="M243 -8q-55 0 -107 20.5t-82 50.5l62 93q19 -22 52.5 -36.5t65.5 -14.5q47 0 78 30t31 81q0 54 -30.5 88.5t-87.5 34.5q-33 0 -62 -9t-64 -28h-1v358h322v-114h-220v-141l-15 25q16 4 33.5 6.5t34.5 2.5q69 0 116 -30.5t71.5 -80t24.5 -109.5q0 -64 -29 -115.5
t-79.5 -81.5t-113.5 -30z" />
    <glyph glyph-name="six" unicode="6" horiz-adv-x="552" 
d="M279 -8q-68 0 -124 32.5t-88.5 94.5t-32.5 149q0 62 24 119t65.5 108t95 95.5t111.5 80.5l79 -86q-80 -36 -133.5 -85.5t-81 -101.5t-30.5 -97l-29 4q27 59 70 91t114 32q50 0 95 -27t73.5 -74.5t28.5 -109.5q0 -70 -34 -120.5t-87.5 -77.5t-115.5 -27zM275 98
q49 0 83.5 31.5t34.5 86.5q0 53 -34.5 83t-83.5 30q-34 0 -60.5 -13t-42.5 -35.5t-16 -49.5v-21q0 -29 15.5 -54.5t42.5 -41.5t61 -16z" />
    <glyph glyph-name="seven" unicode="7" horiz-adv-x="496" 
d="M473 660l-256 -660h-133l223 562l40 -16h-312v114h438z" />
    <glyph glyph-name="eight" unicode="8" horiz-adv-x="527" 
d="M22 211q0 51 19 87.5t48 61.5t56 38q-26 21 -44 47.5t-18 70.5t24 78.5t65 54t92 19.5q50 0 91 -19.5t65.5 -52.5t24.5 -75q0 -48 -18 -75t-46 -48q28 -14 56.5 -39t48 -61.5t19.5 -86.5q0 -57 -32 -107t-86.5 -81t-124.5 -31q-69 0 -123.5 31t-85.5 81t-31 107v0z
M143 216q0 -34 16 -62t43.5 -45.5t60.5 -17.5t61.5 17.5t45.5 45.5t17 62q0 33 -16 60.5t-43 44.5t-61 18q-32 1 -60.5 -15t-46 -44.5t-17.5 -63.5v0zM198 502q0 -26 21.5 -45t46.5 -19t45.5 19t20.5 45q0 28 -20 47.5t-46 19.5t-47 -19.5t-21 -47.5v0z" />
    <glyph glyph-name="nine" unicode="9" horiz-adv-x="541" 
d="M231 212q-49 0 -94.5 27t-74 74.5t-28.5 109.5q0 75 34 128.5t88 82t115 28.5q70 0 125 -31t87.5 -85t32.5 -123q0 -80 -29 -144.5t-77 -116.5t-106 -95.5t-116 -81.5l-79 86q82 39 143 84t95.5 92t37.5 90l31 -2q-28 -59 -69.5 -91t-115.5 -32zM276 312q51 0 84.5 31
t33.5 75v21q0 32 -16 58t-42.5 42.5t-59.5 16.5q-51 0 -85 -33.5t-34 -90.5t34.5 -88.5t84.5 -31.5z" />
    <glyph glyph-name="colon" unicode=":" horiz-adv-x="178" 
d="M26 339q0 26 18.5 44t42.5 18q21 0 40 -18t19 -44q0 -28 -19 -44.5t-40 -16.5q-24 0 -42.5 16.5t-18.5 44.5v0zM26 61q0 27 18.5 45t42.5 18q21 0 40 -18t19 -45t-19 -44t-40 -17q-24 0 -42.5 17t-18.5 44v0z" />
    <glyph glyph-name="semicolon" unicode=";" horiz-adv-x="204" 
d="M59 315q0 26 19.5 44t41.5 18t41 -18t19 -44q0 -28 -19 -44.5t-41 -16.5t-41.5 16.5t-19.5 44.5v0zM161 88q-22 -53 -43.5 -105t-43.5 -105h-92q20 53 39 105t39 105h101z" />
    <glyph glyph-name="less" unicode="&#x3c;" horiz-adv-x="581" 
d="M491 373l-225 -132l225 -132v-123l-444 255l444 256v-124z" />
    <glyph glyph-name="equal" unicode="=" horiz-adv-x="719" 
d="M102 401h513v-100h-513v100zM102 203h513v-99h-513v99z" />
    <glyph glyph-name="greater" unicode="&#x3e;" horiz-adv-x="574" 
d="M87 110l226 132l-226 132v123l444 -255l-444 -256v0v124z" />
    <glyph glyph-name="question" unicode="?" horiz-adv-x="461" 
d="M156 190v59q0 49 13 80.5t33 53t41 40.5q30 26 51.5 53t21.5 70q0 28 -13.5 48.5t-34.5 32t-43 11.5q-31 0 -54 -13.5t-38 -36.5t-25 -48l-94 43q7 20 22.5 47.5t42.5 53.5t66 43t92 17q56 0 101.5 -21t72 -62.5t26.5 -104.5q0 -51 -14 -84t-36 -57t-46 -46
q-19 -18 -35.5 -37t-26 -44t-9.5 -65v-33h-114zM213 -4q-30 0 -49.5 17t-19.5 44q0 26 20 44t49 18q30 0 49 -18t19 -44q0 -27 -18.5 -44t-49.5 -17z" />
    <glyph glyph-name="at" unicode="@" horiz-adv-x="1042" 
d="M447 -222q-82 0 -155 23.5t-129.5 72t-89 122t-32.5 173.5q0 63 20 131.5t61.5 132.5t108 115.5t159 82t214.5 30.5q127 0 215 -48.5t134.5 -130t46.5 -181.5q0 -63 -18.5 -118.5t-52.5 -98t-81 -67.5t-104 -25q-41 0 -72 20t-45 55.5t-7 81.5l20 -52q-15 -24 -45 -49
t-68.5 -42t-79.5 -17q-55 0 -98.5 23.5t-68 68t-24.5 105.5q0 72 31 130.5t86.5 92.5t127.5 34q44 0 72.5 -11t46.5 -29t30 -40l16 61h109l-38 -267q-4 -28 4 -44.5t32 -16.5q30 0 58 26.5t46 72.5t18 106q0 74 -34.5 135t-103 98t-170.5 37q-106 0 -182.5 -29.5t-127 -76
t-79.5 -101t-41 -105t-12 -87.5q0 -80 24.5 -138t68 -94.5t101.5 -54.5t125 -18q59 0 115 18t105 49l46 -66q-39 -31 -88 -51t-99 -29.5t-96 -9.5zM492 83q45 0 77.5 23t52.5 65l13 93q-7 38 -38 62t-77 24q-41 0 -73.5 -21t-51 -55t-18.5 -73q0 -50 32 -84t83 -34z" />
    <glyph glyph-name="A" unicode="A" horiz-adv-x="699" 
d="M23 0l323 758h7l323 -758h-137l-225 573l85 57l-259 -630h-117zM227 270h247l41 -101h-324z" />
    <glyph glyph-name="B" unicode="B" horiz-adv-x="631" 
d="M300 729q111 0 176 -45.5t65 -138.5q0 -62 -29.5 -105.5t-81 -67t-119.5 -25.5l-17 63q81 -1 144.5 -25.5t100.5 -69t37 -106.5q0 -57 -20.5 -96.5t-56 -64.5t-79.5 -36.5t-92 -11.5h-228v729h200zM318 419q52 0 76.5 30.5t24.5 70.5q0 49 -31 72t-83 23h-87v-196h100z
M322 110q56 0 94 23.5t38 74.5q0 38 -20.5 58.5t-52.5 29.5t-67 9h-96v-195h104z" />
    <glyph glyph-name="C" unicode="C" horiz-adv-x="695" 
d="M640 57q-15 -11 -47 -27t-76 -27.5t-96 -10.5q-86 1 -153.5 30.5t-115 80t-72.5 116t-25 140.5q0 82 26.5 151t74 120t113.5 79t144 28q69 0 124 -19t92 -42l-47 -111q-28 20 -70 39t-95 19q-64 0 -118.5 -34.5t-87.5 -92.5t-33 -131q0 -75 30 -133.5t85.5 -92
t129.5 -33.5q57 0 99.5 17.5t67.5 39.5z" />
    <glyph glyph-name="D" unicode="D" horiz-adv-x="761" 
d="M100 0v729h208q109 0 185 -33t123 -87.5t68.5 -121t21.5 -133.5q0 -82 -28.5 -147.5t-79.5 -111.5t-116.5 -70.5t-138.5 -24.5h-243zM218 114h103q78 0 137 28.5t92.5 84t33.5 135.5q0 69 -22.5 117t-59 78t-79 44t-82.5 14h-123v-501z" />
    <glyph glyph-name="E" unicode="E" horiz-adv-x="659" 
d="M100 729h484v-114h-366v-192h326v-114h-326v-195h380v-114h-498v729z" />
    <glyph glyph-name="F" unicode="F" horiz-adv-x="594" 
d="M100 729h443v-114h-325v-203h283v-113h-283v-299h-118v729z" />
    <glyph glyph-name="G" unicode="G" horiz-adv-x="756" 
d="M680 67q-14 -13 -41.5 -26.5t-62 -24.5t-70.5 -17.5t-68 -6.5q-117 0 -203 46.5t-133 126.5t-47 182q0 96 30 168.5t82 122t119.5 74.5t142.5 25q67 0 123 -15.5t97 -38.5l-39 -109q-19 11 -48.5 21.5t-61 16.5t-56.5 6q-83 0 -142.5 -31t-92 -89t-32.5 -141
q0 -74 33.5 -129.5t93 -86.5t137.5 -31q34 0 65.5 6t53.5 19v119h-136v114h256v-301z" />
    <glyph glyph-name="H" unicode="H" horiz-adv-x="793" 
d="M693 729v-729h-118v309h-357v-309h-118v729h118v-307h357v307h118z" />
    <glyph glyph-name="I" unicode="I" horiz-adv-x="318" 
d="M100 729h118v-729h-118v729z" />
    <glyph glyph-name="J" unicode="J" horiz-adv-x="381" 
d="M280 142q0 -92 -35 -156.5t-97.5 -99t-143.5 -37.5v0v115q69 4 113.5 46t44.5 135v584h118v-587z" />
    <glyph glyph-name="K" unicode="K" horiz-adv-x="690" 
d="M220 451l-3 -37l16 23l271 292h153l-301 -320l311 -409h-150l-248 335l-50 -49l1 -286h-120v729h120v-278z" />
    <glyph glyph-name="L" unicode="L" horiz-adv-x="630" 
d="M100 729h118v-615h358v-114h-476v729z" />
    <glyph glyph-name="M" unicode="M" horiz-adv-x="936" 
d="M100 0v755h1l393 -557l-51 11l391 546h2v-755h-117v488l7 -61l-262 -372h-2l-268 372l20 56v-483h-114z" />
    <glyph glyph-name="N" unicode="N" horiz-adv-x="844" 
d="M741 -27l-559 540l35 -14l2 -499h-119v754h5l550 -540l-27 9l-2 506h118v-756h-3z" />
    <glyph glyph-name="O" unicode="O" horiz-adv-x="855" 
d="M55 364q0 75 29 142.5t80 119t118.5 81.5t143.5 30q77 0 144.5 -30t119.5 -81.5t81 -119t29 -142.5q0 -78 -29 -145t-81 -118.5t-119.5 -80t-144.5 -28.5q-76 0 -143.5 28.5t-118.5 79t-80 118.5t-29 146zM177 363q0 -71 33.5 -129.5t91 -93t128.5 -34.5q70 0 126 34.5
t89 93t33 130.5t-33.5 131t-90.5 93.5t-127 34.5t-127 -35t-90 -94t-33 -131z" />
    <glyph glyph-name="P" unicode="P" horiz-adv-x="613" 
d="M307 729q125 0 195 -62.5t70 -172.5q0 -44 -13.5 -87t-42 -78.5t-76 -56.5t-116.5 -21h-106v-251h-118v729h207zM323 366q38 0 64 13t40.5 32.5t20.5 41.5t6 38q0 17 -5.5 38.5t-19.5 40.5t-39 32t-63 13h-109v-249h105z" />
    <glyph glyph-name="Q" unicode="Q" horiz-adv-x="890" 
d="M596 115h239v-115h-395zM55 364q0 75 29 142.5t80 119t118.5 81.5t143.5 30q77 0 144.5 -30t119.5 -81.5t81 -119t29 -142.5q0 -78 -29 -145t-81 -118.5t-119.5 -80t-144.5 -28.5q-76 0 -143.5 28.5t-118.5 79t-80 118.5t-29 146zM177 363q0 -70 33.5 -128.5t91 -93
t128.5 -34.5q70 0 126 34.5t89 93t33 129.5q0 52 -19.5 98.5t-53.5 81.5t-79.5 55t-98.5 20q-70 0 -127 -34.5t-90 -93t-33 -128.5z" />
    <glyph glyph-name="R" unicode="R" horiz-adv-x="671" 
d="M306 729q82 0 142.5 -28t94 -80t33.5 -127q0 -44 -13 -87t-42.5 -78t-77.5 -56t-119 -21h-106v-252h-118v729h206zM322 366q52 0 80.5 20.5t40 49.5t11.5 54q0 17 -6 38t-20 41t-38.5 33t-62.5 13h-109v-249h104zM449 295l186 -295h-138l-189 292z" />
    <glyph glyph-name="S" unicode="S" horiz-adv-x="582" 
d="M483 578q-40 21 -83.5 35.5t-83.5 14.5q-54 0 -85 -23.5t-31 -66.5q0 -29 21.5 -51t55.5 -39t72 -31q44 -16 85.5 -40.5t68 -66t26.5 -110.5q0 -57 -29 -104.5t-83 -75.5t-132 -28q-67 0 -130.5 21.5t-113.5 55.5l53 93q36 -27 86.5 -46.5t93.5 -19.5q32 0 62 10t50 33
t20 61q0 30 -17.5 52t-46 38t-61.5 29q-34 13 -69.5 29t-65.5 39.5t-49 58t-19 83.5q0 61 28 105.5t78 70t114 28.5q78 0 132.5 -19t96.5 -45z" />
    <glyph glyph-name="T" unicode="T" horiz-adv-x="583" 
d="M48 729h488v-114h-188v-615h-118v615h-182v114z" />
    <glyph glyph-name="U" unicode="U" horiz-adv-x="742" 
d="M206 263q0 -42 22 -77.5t59.5 -57t82.5 -21.5q49 0 86.5 21.5t59.5 57t22 77.5v466h116v-469q0 -79 -38 -139.5t-102.5 -94.5t-143.5 -34v0q-78 0 -142.5 34t-102 94.5t-37.5 139.5v469h118v-466z" />
    <glyph glyph-name="V" unicode="V" horiz-adv-x="727" 
d="M178 729l228 -568l-68 13l212 555h140l-327 -763l-326 763h141z" />
    <glyph glyph-name="W" unicode="W" horiz-adv-x="1014" 
d="M37 724h138l179 -512l-20 8l140 358l55 -161l-201 -451zM394 724h118l198 -501l-23 4l164 497h127l-284 -756z" />
    <glyph glyph-name="X" unicode="X" horiz-adv-x="696" 
d="M40 729h150l475 -729h-152zM30 0l256 401l56 -116l-166 -285h-146zM348 445l166 284h142l-246 -385z" />
    <glyph glyph-name="Y" unicode="Y" horiz-adv-x="705" 
d="M291 236l-269 493h146l204 -392l-36 -2l201 394h145l-272 -493v-236h-119v236z" />
    <glyph glyph-name="Z" unicode="Z" horiz-adv-x="717" 
d="M48 0l26 39t49.5 75t64.5 99.5t72 111t72 110.5t64 99t49 75t27 38l14 -32h-303q-20 0 -40.5 8t-34 23t-13.5 35v84h109v-13q0 -20 7 -21.5t24 -1.5h423l-416 -629l-7 14h429v-114h-616z" />
    <glyph glyph-name="bracketleft" unicode="[" horiz-adv-x="367" 
d="M100 758h220v-106h-101v-698h101v-105h-220v909z" />
    <glyph glyph-name="backslash" unicode="\" horiz-adv-x="407" 
d="M111 748q71 -192 142 -383.5t141 -383.5h-116q-70 192 -141 383.5t-142 383.5h116z" />
    <glyph glyph-name="bracketright" unicode="]" horiz-adv-x="367" 
d="M268 -151h-220v106h101v698h-101v105h220v-909z" />
    <glyph glyph-name="asciicircum" unicode="^" horiz-adv-x="477" 
d="M287 487q-4 5 -15 19t-22 28.5t-15 20.5q-3 -6 -14 -20.5t-22 -28.5t-15 -19h-70q30 46 60.5 91.5t60.5 91.5v0q31 -46 61.5 -91.5t61.5 -91.5h-71z" />
    <glyph glyph-name="underscore" unicode="_" horiz-adv-x="609" 
d="M102 99h406v-99h-406v99z" />
    <glyph glyph-name="grave" unicode="`" horiz-adv-x="293" 
d="M21 621h126l68 -134h-70z" />
    <glyph glyph-name="a" unicode="a" horiz-adv-x="599" 
d="M255 -11q-60 0 -108.5 25t-77 74.5t-28.5 123.5q0 71 30 123t78.5 80t104.5 28q62 0 99 -24t59 -56l-6 -16l11 77h105v-424h-114v102l10 -26q-3 -6 -15 -19.5t-32.5 -29t-49.5 -27t-66 -11.5zM286 83q46 0 77.5 23t44.5 65v93q-12 38 -46 62t-80 24q-34 0 -62.5 -16.5
t-45.5 -46.5t-17 -69t18 -69.5t47.5 -48t63.5 -17.5z" />
    <glyph glyph-name="b" unicode="b" horiz-adv-x="607" 
d="M345 -11q-57 0 -97.5 22t-67.5 57l11 29v-97h-114v781h113v-443l-2 40q26 28 70.5 46.5t101.5 18.5q56 0 102.5 -26.5t74.5 -76.5t28 -120q0 -72 -30.5 -123.5t-80.5 -79.5t-109 -28zM320 85q36 0 65.5 18t46.5 48.5t17 68.5q0 39 -17 68.5t-46.5 47t-65.5 17.5
q-47 0 -82 -23.5t-47 -63.5v-94q14 -39 47.5 -63t81.5 -24z" />
    <glyph glyph-name="c" unicode="c" horiz-adv-x="466" 
d="M428 39q-28 -23 -69 -36.5t-81 -13.5q-71 0 -124.5 27.5t-83 77t-29.5 118.5q0 70 32 120t83.5 76.5t109.5 26.5q54 0 95 -14.5t71 -40.5l-56 -73q-16 13 -41.5 24t-58.5 11t-61 -17t-44 -46t-16 -67q0 -36 17 -65.5t46.5 -46.5t68.5 -17q25 0 46.5 7.5t37.5 19.5z" />
    <glyph glyph-name="d" unicode="d" horiz-adv-x="607" 
d="M250 -11q-60 0 -107 28t-74.5 80t-27.5 122q0 71 29.5 121t80 76.5t113.5 26.5q46 0 88 -17.5t67 -49.5l-3 -38v443h114v-781h-115v95l11 -28q-31 -33 -75.5 -55.5t-100.5 -22.5zM286 85q49 0 82 24t47 66v91q-11 38 -46.5 62.5t-82.5 24.5q-34 0 -63.5 -17t-47.5 -47
t-18 -69q0 -37 18 -68t47.5 -49t63.5 -18z" />
    <glyph glyph-name="e" unicode="e" horiz-adv-x="534" 
d="M279 -11q-75 0 -128 29t-81.5 80.5t-28.5 117.5q0 63 32.5 114.5t87 82t120.5 30.5q88 0 145 -50.5t76 -143.5l-341 -115l-26 64l264 94l-23 -13q-11 30 -35 52t-68 22q-53 0 -86 -36.5t-33 -94.5q0 -63 36.5 -99.5t90.5 -36.5q26 0 50 9t45 24l52 -84
q-33 -21 -72.5 -33.5t-76.5 -12.5z" />
    <glyph glyph-name="f" unicode="f" horiz-adv-x="404" 
d="M114 0v324h-72v101h72v165q0 88 45 139t131 51q24 0 53 -7t52 -23l-49 -82q-9 11 -21 14.5t-24 3.5q-33 0 -53 -23t-20 -76v-162h132v-101h-132v-324h-114z" />
    <glyph glyph-name="g" unicode="g" horiz-adv-x="614" 
d="M288 -212q-52 0 -89.5 12.5t-65.5 31.5t-53 41l67 78q29 -27 61.5 -45t77.5 -18q62 0 99 30t38 82v105l6 -21q-17 -40 -61.5 -67.5t-111.5 -27.5q-58 0 -107 29.5t-78.5 80.5t-29.5 115q0 67 31 118.5t81.5 81t107.5 29.5q56 0 99.5 -19.5t64.5 -49.5l-5 -16l12 66h105
v-426q0 -59 -32 -106.5t-88 -75.5t-129 -28zM156 218q0 -39 18 -69.5t48 -48t67 -17.5q50 0 84.5 23.5t49.5 63.5v93q-13 39 -49 63t-85 24q-37 0 -67 -17t-48 -46.5t-18 -68.5z" />
    <glyph glyph-name="h" unicode="h" horiz-adv-x="571" 
d="M77 0v781h111v-449l-1 17q22 41 64.5 67t103.5 26q60 0 99 -35t40 -92v-315h-114v274q-1 31 -18 50.5t-53 20.5q-52 0 -85 -45t-33 -113v-187h-114z" />
    <glyph glyph-name="i" unicode="i" horiz-adv-x="267" 
d="M77 424h114v-424h-114v424zM72 576q0 26 20.5 43.5t44.5 17.5t44 -17.5t20 -43.5q0 -27 -20 -43.5t-44 -16.5t-44.5 16.5t-20.5 43.5z" />
    <glyph glyph-name="j" unicode="j" horiz-adv-x="275" 
d="M93 -204l-67 70q29 23 45.5 57t16.5 81v420h114v-425q0 -74 -25.5 -124t-83.5 -79zM81 576q0 26 20.5 43.5t44.5 17.5t44 -17.5t20 -43.5q0 -27 -20 -43.5t-44 -16.5t-44.5 16.5t-20.5 43.5z" />
    <glyph glyph-name="k" unicode="k" horiz-adv-x="519" 
d="M77 0v781h114v-781h-114zM296 285l194 -285h-133l-137 220zM156 127l-11 109l257 198l69 -61z" />
    <glyph glyph-name="l" unicode="l" horiz-adv-x="267" 
d="M77 781h114v-781h-114v781z" />
    <glyph glyph-name="m" unicode="m" horiz-adv-x="842" 
d="M180 424l9 -86l-4 7q24 46 65.5 72t96.5 26q52 0 87.5 -23.5t44.5 -67.5l-5 -3q26 43 67 68.5t86 25.5q63 0 100 -35t38 -92v-316h-113v271q-1 31 -12.5 51.5t-44.5 22.5q-36 0 -62 -22.5t-40 -58t-15 -75.5v-189h-114v271q-1 31 -14 51.5t-46 22.5q-34 0 -60 -22.5
t-39.5 -58.5t-13.5 -75v-189h-114v424h103z" />
    <glyph glyph-name="n" unicode="n" horiz-adv-x="571" 
d="M180 424l9 -90l-3 11q21 44 64.5 70.5t104.5 26.5q60 0 99 -35t40 -92v-315h-114v274q-1 31 -18 50.5t-53 20.5q-52 0 -85 -44.5t-33 -113.5v-187h-114v424h103z" />
    <glyph glyph-name="o" unicode="o" horiz-adv-x="556" 
d="M41 217q0 64 30.5 115.5t85 81t124.5 29.5q71 0 123.5 -29.5t81.5 -81t29 -115.5q0 -65 -29 -116.5t-82 -81.5t-125 -30q-68 0 -122 27.5t-85 79t-31 121.5zM156 216q0 -38 16 -68t44 -47.5t62 -17.5q54 0 88 38t34 95q0 56 -34 94.5t-88 38.5q-35 0 -62.5 -18t-43.5 -48
t-16 -67z" />
    <glyph glyph-name="p" unicode="p" horiz-adv-x="607" 
d="M335 -11q-44 0 -85 18.5t-65 51.5l5 35v-298h-113v636h98l16 -97l-11 30q32 34 76 56t101 22q59 0 106.5 -28t74.5 -79.5t27 -122.5q0 -70 -30 -120t-82 -77t-118 -27zM312 79q37 0 68.5 17t50 47.5t18.5 68.5q0 40 -17 70.5t-46.5 47.5t-65.5 17q-49 0 -82 -24t-47 -66
v-86q9 -40 42.5 -66t78.5 -26z" />
    <glyph glyph-name="q" unicode="q" horiz-adv-x="607" 
d="M247 -11q-56 0 -102.5 27t-75 77t-28.5 119q0 71 31 122.5t81.5 80t110.5 28.5q56 0 96 -21.5t66 -56.5l-11 -30v97h115v-636h-114v301l4 -42q-26 -28 -71 -47t-102 -19zM286 79q49 0 84 25.5t45 66.5v86q-14 42 -47 66t-82 24q-34 0 -63.5 -18t-47.5 -48.5t-18 -68.5
t18 -68t47.5 -47.5t63.5 -17.5z" />
    <glyph glyph-name="r" unicode="r" horiz-adv-x="391" 
d="M179 424l11 -120l-4 17q18 38 49 65.5t64.5 42t54.5 14.5l-6 -113q-48 4 -83 -17.5t-55 -57t-20 -74.5v-181h-113v424h102z" />
    <glyph glyph-name="s" unicode="s" horiz-adv-x="425" 
d="M205 -9q-49 0 -92.5 17.5t-73.5 49.5l48 64q28 -26 56 -39t52 -13q28 0 48.5 10.5t20.5 34.5q0 20 -14 31.5t-36 19t-46 14.5q-55 17 -82 50.5t-27 76.5q0 33 16.5 63.5t52 50.5t89.5 20q48 0 84 -10.5t67 -35.5l-44 -68q-18 17 -42 26.5t-44 10.5q-27 1 -45.5 -11
t-18.5 -31q0 -20 14.5 -32t37.5 -19t46 -15q46 -15 75.5 -42.5t29.5 -76.5q0 -39 -18.5 -72t-57 -53.5t-96.5 -20.5z" />
    <glyph glyph-name="t" unicode="t" horiz-adv-x="375" 
d="M117 610h115v-186h110v-89h-110v-335h-115v335h-72v89h72v186z" />
    <glyph glyph-name="u" unicode="u" horiz-adv-x="563" 
d="M213 -18q-58 0 -96 35.5t-40 91.5v315h114v-274q2 -32 17.5 -51t50.5 -20q33 0 58.5 20.5t40 56.5t14.5 82v186h114v-424h-103l-9 92l3 -14q-20 -42 -63 -69t-101 -27z" />
    <glyph glyph-name="v" unicode="v" horiz-adv-x="511" 
d="M259 -11l-244 435h135l153 -317l-70 3l137 314h127l-233 -435h-5z" />
    <glyph glyph-name="w" unicode="w" horiz-adv-x="679" 
d="M363 424l110 -255l-21 -2l100 257h111l-193 -449l-136 286l-124 -286l-195 449h111l119 -270l-40 6l89 202l-29 62h98z" />
    <glyph glyph-name="x" unicode="x" horiz-adv-x="492" 
d="M251 277l93 147h113l-165 -230zM477 0h-137l-325 424h140zM238 148l-104 -148h-114l165 224z" />
    <glyph glyph-name="y" unicode="y" horiz-adv-x="511" 
d="M112 -204l281 628h104l-274 -628h-111zM221 -3l-206 427h128l166 -369z" />
    <glyph glyph-name="z" unicode="z" horiz-adv-x="489" 
d="M129 331q-34 0 -58 22.5t-24 62.5v49h86v-14q0 -18 8 -22.5t26 -4.5h270l-245 -354l-22 23h264v-93h-409l251 364l17 -33h-164z" />
    <glyph glyph-name="braceleft" unicode="{" horiz-adv-x="374" 
d="M285 658q-21 0 -32 -7t-15.5 -29t-4.5 -66v-109q0 -43 -11 -71.5t-26 -45.5t-29 -26q12 -9 27.5 -25t27 -41.5t11.5 -61.5v-127q0 -43 4.5 -65t15.5 -29t32 -7h41v-100h-70q-26 0 -51 1.5t-45.5 11.5t-32.5 36.5t-12 77.5v161q0 29 -8.5 56.5t-26.5 45.5t-46 19v0v97
q28 1 46 18.5t26.5 45t8.5 57.5v162q0 48 12 73t32 35t45.5 11.5t51.5 1.5h70v-100h-41z" />
    <glyph glyph-name="bar" unicode="|" horiz-adv-x="288" 
d="M90 711h103v-947h-103v947z" />
    <glyph glyph-name="braceright" unicode="}" horiz-adv-x="384" 
d="M99 -52q21 0 32.5 7t16 29t4.5 66v117q0 40 11.5 67t27 43.5t27.5 24.5q-12 9 -27.5 25.5t-27 42t-11.5 61.5v126q0 44 -4.5 65.5t-16 28.5t-32.5 7h-41v100h70q26 0 51 -1t45.5 -11t33 -35t12.5 -73v-161q0 -28 7.5 -57.5t25 -49.5t47.5 -21v0v-97q-30 0 -47.5 -20.5
t-25 -49.5t-7.5 -58v-156q0 -47 -12 -72t-32.5 -35t-45.5 -11.5t-52 -1.5h-70v100h41z" />
    <glyph glyph-name="asciitilde" unicode="~" horiz-adv-x="437" 
d="M306 429q-39 0 -64.5 17.5t-46.5 34.5q-13 12 -26.5 21.5t-28.5 9.5q-23 0 -33 -24.5t-9 -57.5h-70q-4 46 9 84.5t41.5 61.5t68.5 23q29 0 52 -16t43 -34q16 -14 30.5 -25.5t29.5 -11.5q16 0 23.5 11.5t11 31.5t1.5 43h71q7 -49 -6 -87.5t-39 -60t-58 -21.5z" />
    <glyph glyph-name="exclamdown" unicode="&#xa1;" horiz-adv-x="203" 
d="M48 -213h102v570h-102v-570zM102 553q-31 0 -50.5 -17t-19.5 -45q0 -26 20 -44t50 -18t49 18t19 44q0 28 -19 45t-49 17z" />
    <glyph glyph-name="cent" unicode="&#xa2;" horiz-adv-x="466" 
d="M238 492h70v-560h-70v560zM428 39q-28 -23 -69 -36.5t-81 -13.5q-71 0 -124.5 27.5t-83 77t-29.5 118.5q0 70 32 120t83.5 76.5t109.5 26.5q54 0 95 -14.5t71 -40.5l-56 -73q-16 13 -41.5 24t-58.5 11t-61 -17t-44 -46t-16 -67q0 -36 17 -65.5t46.5 -46.5t68.5 -17
q25 0 46.5 7.5t37.5 19.5z" />
    <glyph glyph-name="sterling" unicode="&#xa3;" horiz-adv-x="650" 
d="M421 399v-114h-325v114h325zM162 548q0 48 28 86t78 60t116 22q72 0 122.5 -28t76.5 -78l-86 -58q-12 17 -36 33.5t-75 16.5q-56 0 -81 -24.5t-25 -73.5v-288v-21q0 -24 -4.5 -50.5t-21.5 -40.5l-17 10h208q29 0 43.5 10t14.5 32v38h103v-71q0 -54 -31 -88.5t-106 -34.5
h-405v114h45q21 0 32.5 6t16 25t4.5 58v345z" />
    <glyph glyph-name="currency" unicode="&#xa4;" horiz-adv-x="505" 
d="M384 442q24 -37 24 -81q0 -23 -7 -44t-19 -39l27 -27l-49 -49l-14 14l-14 14q-17 -11 -38 -17t-43 -6t-42.5 6t-37.5 16v0l-28 -28l-49 49l27 27q-11 18 -17.5 39.5t-6.5 44.5v0q0 23 6 43t17 37q-6 7 -12.5 13.5l-13.5 13.5l49 49l27 -27q19 10 39 17t42 7t43 -6.5
t39 -18.5v0l27 28l49 -49zM166 360q0 -35 25.5 -60.5t60.5 -25.5q36 0 61 25.5t25 60.5q0 36 -25 61.5t-61 25.5q-35 0 -60.5 -25.5t-25.5 -61.5v0z" />
    <glyph glyph-name="yen" unicode="&#xa5;" horiz-adv-x="705" 
d="M169 307h377v-92h-377v92zM170 164h376v-93h-376v93zM291 306l-269 423h146l204 -322l-36 -3l201 325h145l-272 -423v-306h-119v306z" />
    <glyph glyph-name="brokenbar" unicode="&#xa6;" horiz-adv-x="218" 
d="M62 711h102v-355h-102v355zM62 119h102v-356h-102v356z" />
    <glyph glyph-name="section" unicode="&#xa7;" horiz-adv-x="575" 
d="M377 138l-45 43q48 -2 86 -20.5t61.5 -51.5t23.5 -82q0 -56 -29 -102.5t-79 -74.5t-116 -28q-62 0 -122.5 19t-106.5 57l59 97q44 -34 84 -50.5t79 -16.5q45 0 76 21.5t31 61.5q0 26 -17.5 42.5t-46 27t-60.5 18.5t-65.5 21t-61.5 32.5t-45.5 48t-17.5 68.5
q0 54 26.5 88.5t67.5 50t83 13.5l-9 -42q-54 17 -86.5 43t-46.5 58t-14 68q0 33 12.5 66t38 60t66 43t97.5 16q60 0 110.5 -19t88.5 -50l-51 -87q-38 29 -70.5 41t-65.5 13q-53 0 -77.5 -20.5t-24.5 -46.5q0 -25 17.5 -41.5t47.5 -27.5t65 -20q32 -9 64.5 -20.5t60 -31
t44 -48.5t16.5 -72q0 -57 -38 -103.5t-110 -61.5zM409 282q1 24 -17 41.5t-45 28.5t-54 15q-50 2 -80.5 -18.5t-31.5 -50.5q-1 -27 15.5 -46t43.5 -31.5t58 -21.5q26 2 51 12t42.5 28t17.5 43z" />
    <glyph glyph-name="dieresis" unicode="&#xa8;" horiz-adv-x="427" 
d="M57 533q0 27 19 45t42 18q22 0 41 -18t19 -45t-19 -44t-41 -17q-23 0 -42 17t-19 44v0zM249 533q0 27 19.5 45t42.5 18q21 0 40.5 -18t19.5 -45t-19.5 -44t-40.5 -17q-23 0 -42.5 17t-19.5 44v0z" />
    <glyph glyph-name="copyright" unicode="&#xa9;" horiz-adv-x="861" 
d="M587 193q-23 -23 -63 -43.5t-92 -20.5q-52 2 -95 29t-68 71t-25 96q0 58 24.5 103t69 70.5t103.5 25.5q20 0 44 -4t46 -12t36 -22l-45 -87q-16 15 -34.5 20.5t-37.5 5.5q-40 0 -64 -29t-24 -68t24 -67t65 -28q22 0 44 9.5t39 28.5zM431 -32q-75 0 -140.5 27t-115.5 75
t-78 113t-28 141q0 78 28 143t78 113.5t115.5 75t140.5 26.5q74 0 139.5 -26.5t116 -75t78.5 -113.5t28 -143q0 -76 -27.5 -141t-77.5 -113t-115.5 -75t-141.5 -27zM431 60q74 0 133.5 34t94.5 94t35 136q0 77 -35 137t-94.5 94.5t-133.5 34.5t-134.5 -34.5t-95 -94.5
t-34.5 -137q0 -76 33.5 -136t93.5 -94t137 -34z" />
    <glyph glyph-name="ordfeminine" unicode="&#xaa;" horiz-adv-x="395" 
d="M159 424q-54 0 -92 38t-38 113q0 47 17.5 82t46.5 53.5t63 18.5q39 0 62.5 -14t36.5 -34l-4 -15l6 53h82v-288h-87v62l7 -15q-3 -5 -16 -18.5t-34 -24.5t-50 -11zM186 495q26 0 43 15t23 41v54q-7 24 -24.5 39t-42.5 15q-29 0 -48.5 -22.5t-19.5 -58.5q0 -35 20.5 -59
t48.5 -24z" />
    <glyph glyph-name="guillemotleft" unicode="&#xab;" horiz-adv-x="607" 
d="M36 243q3 2 20.5 16.5t43.5 36t54.5 45t54.5 44.5t43.5 35.5t20.5 17.5v-103q-4 -3 -18.5 -16.5t-33.5 -29.5t-34 -29t-18 -17q3 -4 18 -17t34 -30t33.5 -30t18.5 -17v-102zM270 243q3 2 20.5 16.5t43.5 36t54.5 45t54.5 44.5t43.5 35.5t20.5 17.5v-103
q-4 -3 -18.5 -16.5t-33.5 -29.5t-34 -29t-18 -17q3 -4 18 -17t34 -30t33.5 -30t18.5 -17v-102z" />
    <glyph glyph-name="logicalnot" unicode="&#xac;" horiz-adv-x="486" 
d="M61 311h365v-208h-118v94h-247v114z" />
    <glyph glyph-name="uni00AD" unicode="&#xad;" horiz-adv-x="600" 
d="M54 271h187v-100h-187v100z" />
    <glyph glyph-name="registered" unicode="&#xae;" horiz-adv-x="521" 
d="M260 271q-63 0 -115.5 29.5t-84.5 81t-32 117.5t32 117.5t84.5 81t115.5 29.5q65 0 117.5 -29.5t84 -81t31.5 -117.5t-31.5 -117.5t-84 -81t-117.5 -29.5zM260 333q47 0 84.5 21.5t59 59t21.5 85.5t-21.5 85t-59 59t-84.5 22q-46 0 -83 -22t-59 -59t-22 -85t22 -85.5
t59 -59t83 -21.5zM178 615h94q41 0 61.5 -20t20.5 -55q0 -28 -18.5 -52.5t-58.5 -24.5h-36v-75h-63v227zM259 511q17 0 23 7.5t6 19.5t-6.5 20.5t-20.5 8.5h-20v-56h18zM314 478l40 -90h-71l-33 88z" />
    <glyph glyph-name="macron" unicode="&#xaf;" horiz-adv-x="364" 
d="M57 545h250v-79h-250v79z" />
    <glyph glyph-name="degree" unicode="&#xb0;" horiz-adv-x="286" 
d="M30 569q0 30 14.5 54.5t40 38.5t55.5 14t54 -14t38.5 -38.5t14.5 -54.5t-14.5 -54.5t-38.5 -39t-54 -14.5t-55.5 14.5t-40 39t-14.5 54.5v0zM140 522q19 0 32.5 13.5t13.5 32.5t-13 32.5t-33 13.5q-19 0 -32 -13.5t-13 -32.5t13 -32.5t32 -13.5v0z" />
    <glyph glyph-name="plusminus" unicode="&#xb1;" horiz-adv-x="533" 
d="M219 580h103v-134h131v-99h-131v-133h-103v133h-131v99h131v134zM88 176h365v-100h-365v100z" />
    <glyph glyph-name="uni00B2" unicode="&#xb2;" horiz-adv-x="405" 
d="M58 630q18 28 59 46t85 17q65 -1 105 -36.5t40 -97.5q0 -42 -22 -79t-56 -68.5t-69.5 -57.5t-61.5 -48l17 76h206v-94h-291v64q23 15 50 34t51.5 42t40.5 48.5t16 51.5q0 37 -15 53.5t-43 16.5q-23 0 -45 -12.5t-33 -29.5z" />
    <glyph glyph-name="uni00B3" unicode="&#xb3;" horiz-adv-x="384" 
d="M164 284q-42 0 -71.5 16t-44.5 32l33 67q8 -10 26.5 -26t44.5 -15q25 1 42.5 16.5t17.5 48.5q0 36 -19 51t-46 15q-16 0 -27 -2.5t-18 -6.5l-6 10l83 130l24 -18h-139v82h237l-104 -190l-74 21q13 11 30.5 19t41.5 8q28 0 55.5 -12.5t46 -38t18.5 -64.5
q0 -40 -18.5 -72.5t-52.5 -51.5t-80 -19z" />
    <glyph glyph-name="acute" unicode="&#xb4;" horiz-adv-x="294" 
d="M250 621l-136 -134h-70l80 134h126z" />
    <glyph glyph-name="uni00B5" unicode="&#xb5;" horiz-adv-x="563" 
d="M213 -18q-56 0 -92 34.5t-40 87.5l110 -13v-292h-114v311v314h114v-274q2 -32 17.5 -51t50.5 -20q33 0 58.5 20.5t40 56.5t14.5 82v186h114v-424h-103l-11 98l5 -20q-20 -42 -63 -69t-101 -27z" />
    <glyph glyph-name="paragraph" unicode="&#xb6;" horiz-adv-x="571" 
d="M204 429q-46 0 -83.5 22.5t-59.5 60t-22 83.5q0 47 22 84.5t59.5 60t83.5 22.5h267v-762h-101v663h-64v-663h-102v429z" />
    <glyph glyph-name="periodcentered" unicode="&#xb7;" horiz-adv-x="172" 
d="M26 287q0 27 19 45t42 18q22 0 40.5 -18t18.5 -45t-18.5 -44t-40.5 -17q-23 0 -42 17t-19 44v0z" />
    <glyph glyph-name="cedilla" unicode="&#xb8;" horiz-adv-x="389" 
d="M104 -146q10 -11 26.5 -18.5t36.5 -7.5q22 0 42 10t20 31q0 14 -12.5 27t-46.5 13q-16 0 -33 -4t-30 -8l-18 54l69 59l88 -2l-75 -85l-23 28q11 4 24 5.5t26 2.5q55 2 90.5 -21t35.5 -68q0 -35 -20.5 -58t-53.5 -34t-71 -11q-41 0 -67.5 12t-43.5 29z" />
    <glyph glyph-name="uni00B9" unicode="&#xb9;" horiz-adv-x="276" 
d="M36 662h170v-391h-106v288h-64v103z" />
    <glyph glyph-name="ordmasculine" unicode="&#xba;" horiz-adv-x="375" 
d="M29 575q0 44 20.5 78.5t56.5 54.5t83 20t82.5 -20t55 -54.5t19.5 -78.5q0 -43 -19.5 -77.5t-55 -54.5t-83.5 -20q-69 0 -114 41t-45 111zM118 575q0 -32 20 -54.5t49 -22.5q31 0 50.5 22.5t19.5 54.5t-19.5 54.5t-50.5 22.5q-30 0 -49.5 -22.5t-19.5 -54.5z" />
    <glyph glyph-name="guillemotright" unicode="&#xbb;" horiz-adv-x="607" 
d="M558 243q-3 2 -20.5 16.5t-43.5 36t-54 45t-54 44.5t-43.5 35.5t-21.5 17.5v-103q4 -3 19 -16.5t33.5 -29.5t33 -29t18.5 -17q-4 -4 -18.5 -17t-33 -30t-33.5 -30t-19 -17v-102zM325 243q-3 2 -21 16.5t-44 36t-54 45t-54 44.5t-43.5 35.5t-21.5 17.5v-103q4 -3 19 -16.5
t33.5 -29.5t33.5 -29t18 -17q-3 -4 -18 -17t-33.5 -30t-33.5 -30t-19 -17v-102z" />
    <glyph glyph-name="onequarter" unicode="&#xbc;" horiz-adv-x="833" 
d="M662 691l-407 -691h-106l407 691h106zM38 662h170v-391h-106v288h-64v103zM805 162v-65h-320l-1 29l204 273h71v-399h-98v281l24 4l-120 -164l-14 41h254z" />
    <glyph glyph-name="onehalf" unicode="&#xbd;" horiz-adv-x="899" 
d="M38 664h170v-391h-106v288h-64v103zM535 334q18 28 59 46t85 17q65 -1 105 -36.5t40 -97.5q0 -42 -22 -79t-56 -68.5t-69.5 -57.5t-61.5 -48l17 76h206v-94h-291v64q23 15 50 34t51.5 42t40.5 48.5t16 51.5q0 37 -15 53.5t-43 16.5q-23 0 -45 -12.5t-33 -29.5zM649 691
l-407 -691h-107l407 691h107z" />
    <glyph glyph-name="threequarters" unicode="&#xbe;" horiz-adv-x="860" 
d="M166 284q-42 0 -71.5 16t-44.5 32l33 67q8 -10 26.5 -26t44.5 -15q25 1 42.5 16.5t17.5 48.5q0 36 -19 51t-46 15q-16 0 -27 -2.5t-18 -6.5l-6 10l83 130l24 -18h-139v82h237l-104 -190l-74 21q13 11 30.5 19t41.5 8q28 0 55.5 -12.5t46 -38t18.5 -64.5
q0 -40 -18.5 -72.5t-52.5 -51.5t-80 -19zM689 691l-407 -691h-107l407 691h107zM807 162v-64h-319l-2 28l205 274h70v-400h-98v281l25 5l-120 -164l-15 40h254z" />
    <glyph glyph-name="questiondown" unicode="&#xbf;" horiz-adv-x="443" 
d="M309 349v-59q0 -49 -13.5 -80.5t-33 -52.5t-41.5 -41q-29 -25 -51 -52t-22 -71q0 -28 13.5 -48.5t34.5 -32t43 -11.5q32 0 54.5 14t38 36.5t24.5 47.5l94 -43q-7 -20 -22.5 -47.5t-42.5 -53.5t-66 -43t-92 -17q-56 1 -101.5 21.5t-72 62t-26.5 104.5q0 51 14 84t36 57
t46 46q20 18 36 37t26 44.5t10 64.5v33h114zM251 543q30 0 50 -17t20 -44q0 -26 -20.5 -44t-49.5 -18q-30 0 -49 18t-19 44q0 27 18.5 44t49.5 17z" />
    <glyph glyph-name="Agrave" unicode="&#xc0;" horiz-adv-x="699" 
d="M23 0l323 758h7l323 -758h-137l-225 573l85 57l-259 -630h-117zM227 270h247l41 -101h-324zM183 930h126l68 -134h-70z" />
    <glyph glyph-name="Aacute" unicode="&#xc1;" horiz-adv-x="699" 
d="M23 0l323 758h7l323 -758h-137l-225 573l85 57l-259 -630h-117zM227 270h247l41 -101h-324zM517 925l-136 -134h-70l80 134h126z" />
    <glyph glyph-name="Acircumflex" unicode="&#xc2;" horiz-adv-x="699" 
d="M23 0l323 758h7l323 -758h-137l-225 573l85 57l-259 -630h-117zM227 270h247l41 -101h-324zM415 805l-87 87l30 9l-87 -96h-104l174 177h1l177 -177h-104z" />
    <glyph glyph-name="Atilde" unicode="&#xc3;" horiz-adv-x="699" 
d="M23 0l323 758h7l323 -758h-137l-225 573l85 57l-259 -630h-117zM227 270h247l41 -101h-324zM426 828q-33 0 -55 14t-39 30q-12 10 -23.5 18.5t-24.5 8.5q-20 0 -29 -21t-7 -50h-59q-4 39 7.5 72t35.5 52.5t58 19.5q26 0 45.5 -14t35.5 -29q14 -13 26.5 -22.5t26.5 -9.5
q19 0 25.5 22t5.5 52h59q6 -42 -5 -74.5t-33 -50.5t-50 -18z" />
    <glyph glyph-name="Adieresis" unicode="&#xc4;" horiz-adv-x="699" 
d="M23 0l323 758h7l323 -758h-137l-225 573l85 57l-259 -630h-117zM227 270h247l41 -101h-324zM187 854q0 27 19 45t42 18q22 0 41 -18t19 -45t-19 -44t-41 -17q-23 0 -42 17t-19 44v0zM379 854q0 27 19.5 45t42.5 18q21 0 40.5 -18t19.5 -45t-19.5 -44t-40.5 -17
q-23 0 -42.5 17t-19.5 44v0z" />
    <glyph glyph-name="Aring" unicode="&#xc5;" horiz-adv-x="699" 
d="M23 0l323 758h7l323 -758h-137l-225 573l85 57l-259 -630h-117zM227 270h247l41 -101h-324zM251 886q0 43 29 69.5t73 26.5q43 0 72 -26.5t29 -69.5q0 -42 -29 -69t-72 -27q-44 0 -73 26.5t-29 69.5zM311 885q0 -19 11.5 -31t30.5 -12q18 0 29.5 12t11.5 31
q0 20 -11.5 31.5t-29.5 11.5q-19 0 -30.5 -11.5t-11.5 -31.5z" />
    <glyph glyph-name="AE" unicode="&#xc6;" horiz-adv-x="958" 
d="M481 729h402v-114h-284v-194h244v-114h-244v-193h298v-114h-416v729zM496 593q-2 -10 -6 -23t-5 -15l-339 -555h-137l472 729zM249 265h247v-94h-283z" />
    <glyph glyph-name="Ccedilla" unicode="&#xc7;" horiz-adv-x="695" 
d="M640 57q-15 -11 -47 -27t-76 -27.5t-96 -10.5q-86 1 -153.5 30.5t-115 80t-72.5 116t-25 140.5q0 82 26.5 151t74 120t113.5 79t144 28q69 0 124 -19t92 -42l-47 -111q-28 20 -70 39t-95 19q-64 0 -118.5 -34.5t-87.5 -92.5t-33 -131q0 -75 30 -133.5t85.5 -92
t129.5 -33.5q57 0 99.5 17.5t67.5 39.5zM321 -146q10 -11 26.5 -18.5t36.5 -7.5q22 0 42 10t20 31q0 14 -12.5 27t-46.5 13q-16 0 -33 -4t-30 -8l-18 54l69 59l88 -2l-75 -85l-23 28q11 4 24 5.5t26 2.5q55 2 90.5 -21t35.5 -68q0 -35 -20.5 -58t-53.5 -34t-71 -11
q-41 0 -67.5 12t-43.5 29z" />
    <glyph glyph-name="Egrave" unicode="&#xc8;" horiz-adv-x="659" 
d="M100 729h484v-114h-366v-192h326v-114h-326v-195h380v-114h-498v729zM173 914h126l68 -134h-70z" />
    <glyph glyph-name="Eacute" unicode="&#xc9;" horiz-adv-x="659" 
d="M100 729h484v-114h-366v-192h326v-114h-326v-195h380v-114h-498v729zM507 909l-136 -134h-70l80 134h126z" />
    <glyph glyph-name="Ecircumflex" unicode="&#xca;" horiz-adv-x="659" 
d="M100 729h484v-114h-366v-192h326v-114h-326v-195h380v-114h-498v729zM405 789l-87 87l30 9l-87 -96h-104l174 177h1l177 -177h-104z" />
    <glyph glyph-name="Edieresis" unicode="&#xcb;" horiz-adv-x="659" 
d="M100 729h484v-114h-366v-192h326v-114h-326v-195h380v-114h-498v729zM178 839q0 27 19 45t42 18q22 0 41 -18t19 -45t-19 -44t-41 -17q-23 0 -42 17t-19 44v0zM370 839q0 27 19.5 45t42.5 18q21 0 40.5 -18t19.5 -45t-19.5 -44t-40.5 -17q-23 0 -42.5 17t-19.5 44v0z" />
    <glyph glyph-name="Igrave" unicode="&#xcc;" horiz-adv-x="318" 
d="M100 729h118v-729h-118v729zM-7 914h126l68 -134h-70z" />
    <glyph glyph-name="Iacute" unicode="&#xcd;" horiz-adv-x="318" 
d="M100 729h118v-729h-118v729zM328 909l-136 -134h-70l80 134h126z" />
    <glyph glyph-name="Icircumflex" unicode="&#xce;" horiz-adv-x="318" 
d="M100 729h118v-729h-118v729zM225 789l-87 87l30 9l-87 -96h-104l174 177h1l177 -177h-104z" />
    <glyph glyph-name="Idieresis" unicode="&#xcf;" horiz-adv-x="318" 
d="M100 729h118v-729h-118v729zM-2 839q0 27 19 45t42 18q22 0 41 -18t19 -45t-19 -44t-41 -17q-23 0 -42 17t-19 44v0zM190 839q0 27 19.5 45t42.5 18q21 0 40.5 -18t19.5 -45t-19.5 -44t-40.5 -17q-23 0 -42.5 17t-19.5 44v0z" />
    <glyph glyph-name="Eth" unicode="&#xd0;" horiz-adv-x="761" 
d="M100 0v729h208q109 0 185 -33t123 -87.5t68.5 -121t21.5 -133.5q0 -82 -28.5 -147.5t-79.5 -111.5t-116.5 -70.5t-138.5 -24.5h-243zM218 114h103q78 0 137 28.5t92.5 84t33.5 135.5q0 69 -22.5 117t-59 78t-79 44t-82.5 14h-123v-501zM18 415h295v-106h-295v106z" />
    <glyph glyph-name="Ntilde" unicode="&#xd1;" horiz-adv-x="844" 
d="M741 -27l-559 540l35 -14l2 -499h-119v754h5l550 -540l-27 9l-2 506h118v-756h-3zM484 796q-33 0 -55 14t-39 30q-12 10 -23.5 18.5t-24.5 8.5q-20 0 -29 -21t-7 -50h-59q-4 39 7.5 72t35.5 52.5t58 19.5q26 0 45.5 -14t35.5 -29q14 -13 26.5 -22.5t26.5 -9.5
q19 0 25.5 22t5.5 52h59q6 -42 -5 -74.5t-33 -50.5t-50 -18z" />
    <glyph glyph-name="Ograve" unicode="&#xd2;" horiz-adv-x="855" 
d="M55 364q0 75 29 142.5t80 119t118.5 81.5t143.5 30q77 0 144.5 -30t119.5 -81.5t81 -119t29 -142.5q0 -78 -29 -145t-81 -118.5t-119.5 -80t-144.5 -28.5q-76 0 -143.5 28.5t-118.5 79t-80 118.5t-29 146zM177 363q0 -71 33.5 -129.5t91 -93t128.5 -34.5q70 0 126 34.5
t89 93t33 130.5t-33.5 131t-90.5 93.5t-127 34.5t-127 -35t-90 -94t-33 -131zM261 906h126l68 -134h-70z" />
    <glyph glyph-name="Oacute" unicode="&#xd3;" horiz-adv-x="855" 
d="M55 364q0 75 29 142.5t80 119t118.5 81.5t143.5 30q77 0 144.5 -30t119.5 -81.5t81 -119t29 -142.5q0 -78 -29 -145t-81 -118.5t-119.5 -80t-144.5 -28.5q-76 0 -143.5 28.5t-118.5 79t-80 118.5t-29 146zM177 363q0 -71 33.5 -129.5t91 -93t128.5 -34.5q70 0 126 34.5
t89 93t33 130.5t-33.5 131t-90.5 93.5t-127 34.5t-127 -35t-90 -94t-33 -131zM595 901l-136 -134h-70l80 134h126z" />
    <glyph glyph-name="Ocircumflex" unicode="&#xd4;" horiz-adv-x="855" 
d="M55 364q0 75 29 142.5t80 119t118.5 81.5t143.5 30q77 0 144.5 -30t119.5 -81.5t81 -119t29 -142.5q0 -78 -29 -145t-81 -118.5t-119.5 -80t-144.5 -28.5q-76 0 -143.5 28.5t-118.5 79t-80 118.5t-29 146zM177 363q0 -71 33.5 -129.5t91 -93t128.5 -34.5q70 0 126 34.5
t89 93t33 130.5t-33.5 131t-90.5 93.5t-127 34.5t-127 -35t-90 -94t-33 -131zM493 781l-87 87l30 9l-87 -96h-104l174 177h1l177 -177h-104z" />
    <glyph glyph-name="Otilde" unicode="&#xd5;" horiz-adv-x="855" 
d="M55 364q0 75 29 142.5t80 119t118.5 81.5t143.5 30q77 0 144.5 -30t119.5 -81.5t81 -119t29 -142.5q0 -78 -29 -145t-81 -118.5t-119.5 -80t-144.5 -28.5q-76 0 -143.5 28.5t-118.5 79t-80 118.5t-29 146zM177 363q0 -71 33.5 -129.5t91 -93t128.5 -34.5q70 0 126 34.5
t89 93t33 130.5t-33.5 131t-90.5 93.5t-127 34.5t-127 -35t-90 -94t-33 -131zM504 804q-33 0 -55 14t-39 30q-12 10 -23.5 18.5t-24.5 8.5q-20 0 -29 -21t-7 -50h-59q-4 39 7.5 72t35.5 52.5t58 19.5q26 0 45.5 -14t35.5 -29q14 -13 26.5 -22.5t26.5 -9.5q19 0 25.5 22
t5.5 52h59q6 -42 -5 -74.5t-33 -50.5t-50 -18z" />
    <glyph glyph-name="Odieresis" unicode="&#xd6;" horiz-adv-x="855" 
d="M55 364q0 75 29 142.5t80 119t118.5 81.5t143.5 30q77 0 144.5 -30t119.5 -81.5t81 -119t29 -142.5q0 -78 -29 -145t-81 -118.5t-119.5 -80t-144.5 -28.5q-76 0 -143.5 28.5t-118.5 79t-80 118.5t-29 146zM177 363q0 -71 33.5 -129.5t91 -93t128.5 -34.5q70 0 126 34.5
t89 93t33 130.5t-33.5 131t-90.5 93.5t-127 34.5t-127 -35t-90 -94t-33 -131zM265 831q0 27 19 45t42 18q22 0 41 -18t19 -45t-19 -44t-41 -17q-23 0 -42 17t-19 44v0zM457 831q0 27 19.5 45t42.5 18q21 0 40.5 -18t19.5 -45t-19.5 -44t-40.5 -17q-23 0 -42.5 17t-19.5 44v0
z" />
    <glyph glyph-name="multiply" unicode="&#xd7;" horiz-adv-x="522" 
d="M282 265q22 23 43.5 44t44.5 44q21 -21 42 -43.5t43 -44.5q-21 -20 -43 -42.5t-42 -44.5q22 -21 43 -43.5t45 -46.5l-90 -88q-22 22 -45 44t-45 44l-43 -43l-43 -43q-22 22 -44 43.5t-43 42.5l43.5 43.5t43.5 44.5l-91 90l89 90z" />
    <glyph glyph-name="Oslash" unicode="&#xd8;" horiz-adv-x="858" 
d="M761 682l-601 -700l-75 67l603 701zM55 364q0 75 29 142.5t80 119t118.5 81.5t143.5 30q77 0 144.5 -30t119.5 -81.5t81 -119t29 -142.5q0 -78 -29 -145t-81 -118.5t-119.5 -80t-144.5 -28.5q-76 0 -143.5 28.5t-118.5 79t-80 118.5t-29 146zM177 363q0 -71 33.5 -129.5
t91 -93t128.5 -34.5q70 0 126 34.5t89 93t33 130.5t-33.5 131t-90.5 93.5t-127 34.5t-127 -35t-90 -94t-33 -131z" />
    <glyph glyph-name="Ugrave" unicode="&#xd9;" horiz-adv-x="742" 
d="M206 263q0 -42 22 -77.5t59.5 -57t82.5 -21.5q49 0 86.5 21.5t59.5 57t22 77.5v466h116v-469q0 -79 -38 -139.5t-102.5 -94.5t-143.5 -34v0q-78 0 -142.5 34t-102 94.5t-37.5 139.5v469h118v-466zM205 914h126l68 -134h-70z" />
    <glyph glyph-name="Uacute" unicode="&#xda;" horiz-adv-x="742" 
d="M206 263q0 -42 22 -77.5t59.5 -57t82.5 -21.5q49 0 86.5 21.5t59.5 57t22 77.5v466h116v-469q0 -79 -38 -139.5t-102.5 -94.5t-143.5 -34v0q-78 0 -142.5 34t-102 94.5t-37.5 139.5v469h118v-466zM539 909l-136 -134h-70l80 134h126z" />
    <glyph glyph-name="Ucircumflex" unicode="&#xdb;" horiz-adv-x="742" 
d="M206 263q0 -42 22 -77.5t59.5 -57t82.5 -21.5q49 0 86.5 21.5t59.5 57t22 77.5v466h116v-469q0 -79 -38 -139.5t-102.5 -94.5t-143.5 -34v0q-78 0 -142.5 34t-102 94.5t-37.5 139.5v469h118v-466zM437 789l-87 87l30 9l-87 -96h-104l174 177h1l177 -177h-104z" />
    <glyph glyph-name="Udieresis" unicode="&#xdc;" horiz-adv-x="742" 
d="M206 263q0 -42 22 -77.5t59.5 -57t82.5 -21.5q49 0 86.5 21.5t59.5 57t22 77.5v466h116v-469q0 -79 -38 -139.5t-102.5 -94.5t-143.5 -34v0q-78 0 -142.5 34t-102 94.5t-37.5 139.5v469h118v-466zM209 839q0 27 19 45t42 18q22 0 41 -18t19 -45t-19 -44t-41 -17
q-23 0 -42 17t-19 44v0zM401 839q0 27 19.5 45t42.5 18q21 0 40.5 -18t19.5 -45t-19.5 -44t-40.5 -17q-23 0 -42.5 17t-19.5 44v0z" />
    <glyph glyph-name="Yacute" unicode="&#xdd;" horiz-adv-x="705" 
d="M291 236l-269 493h146l204 -392l-36 -2l201 394h145l-272 -493v-236h-119v236zM536 907l-136 -134h-70l80 134h126z" />
    <glyph glyph-name="Thorn" unicode="&#xde;" horiz-adv-x="613" 
d="M330 599q80 0 133.5 -27.5t81 -80t27.5 -126.5q0 -44 -12 -87t-39.5 -78.5t-73.5 -56.5t-115 -21h-110v-122h-122v724h122v-125h108zM320 237q46 0 74.5 18.5t42 47.5t13.5 59t-12.5 58.5t-41 46.5t-75.5 18h-99v-248h98z" />
    <glyph glyph-name="germandbls" unicode="&#xdf;" horiz-adv-x="612" 
d="M107 459q0 66 29 112.5t78 71.5t106 24q66 0 110.5 -19t67 -51.5t22.5 -70.5q0 -42 -17 -77t-53 -53q51 -21 83 -67.5t32 -131.5q0 -102 -55 -154.5t-142 -52.5q-44 0 -73.5 12.5t-41.5 25.5l44 68q15 -12 29.5 -16t30.5 -4q48 0 71 37t23 90q0 65 -29.5 100.5
t-79.5 33.5h-5l-1 99q31 0 50 17.5t19 46.5q0 33 -21.5 53.5t-61.5 20.5q-56 0 -78.5 -39.5t-22.5 -113.5v-421h-114v336h-65v93h65v30z" />
    <glyph glyph-name="agrave" unicode="&#xe0;" horiz-adv-x="599" 
d="M255 -11q-60 0 -108.5 25t-77 74.5t-28.5 123.5q0 71 30 123t78.5 80t104.5 28q62 0 99 -24t59 -56l-6 -16l11 77h105v-424h-114v102l10 -26q-3 -6 -15 -19.5t-32.5 -29t-49.5 -27t-66 -11.5zM286 83q46 0 77.5 23t44.5 65v93q-12 38 -46 62t-80 24q-34 0 -62.5 -16.5
t-45.5 -46.5t-17 -69t18 -69.5t47.5 -48t63.5 -17.5zM156 637h126l68 -134h-70z" />
    <glyph glyph-name="aacute" unicode="&#xe1;" horiz-adv-x="599" 
d="M255 -11q-60 0 -108.5 25t-77 74.5t-28.5 123.5q0 71 30 123t78.5 80t104.5 28q62 0 99 -24t59 -56l-6 -16l11 77h105v-424h-114v102l10 -26q-3 -6 -15 -19.5t-32.5 -29t-49.5 -27t-66 -11.5zM286 83q46 0 77.5 23t44.5 65v93q-12 38 -46 62t-80 24q-34 0 -62.5 -16.5
t-45.5 -46.5t-17 -69t18 -69.5t47.5 -48t63.5 -17.5zM443 633l-136 -134h-70l80 134h126z" />
    <glyph glyph-name="acircumflex" unicode="&#xe2;" horiz-adv-x="599" 
d="M255 -11q-60 0 -108.5 25t-77 74.5t-28.5 123.5q0 71 30 123t78.5 80t104.5 28q62 0 99 -24t59 -56l-6 -16l11 77h105v-424h-114v102l10 -26q-3 -6 -15 -19.5t-32.5 -29t-49.5 -27t-66 -11.5zM286 83q46 0 77.5 23t44.5 65v93q-12 38 -46 62t-80 24q-34 0 -62.5 -16.5
t-45.5 -46.5t-17 -69t18 -69.5t47.5 -48t63.5 -17.5zM386 503l-87 87l30 9l-87 -96h-104l174 177h1l177 -177h-104z" />
    <glyph glyph-name="atilde" unicode="&#xe3;" horiz-adv-x="599" 
d="M255 -11q-60 0 -108.5 25t-77 74.5t-28.5 123.5q0 71 30 123t78.5 80t104.5 28q62 0 99 -24t59 -56l-6 -16l11 77h105v-424h-114v102l10 -26q-3 -6 -15 -19.5t-32.5 -29t-49.5 -27t-66 -11.5zM286 83q46 0 77.5 23t44.5 65v93q-12 38 -46 62t-80 24q-34 0 -62.5 -16.5
t-45.5 -46.5t-17 -69t18 -69.5t47.5 -48t63.5 -17.5zM393 478q-33 0 -54.5 14.5t-40.5 30.5q-11 10 -22.5 18.5t-24.5 8.5q-19 0 -28.5 -21.5t-8.5 -49.5h-58q-4 39 7 72t35.5 52.5t58.5 19.5q26 0 45 -14t36 -29q14 -13 26.5 -22.5t25.5 -9.5q20 0 26.5 21.5t5.5 52.5h59
q6 -42 -5 -74.5t-33 -51t-50 -18.5z" />
    <glyph glyph-name="adieresis" unicode="&#xe4;" horiz-adv-x="599" 
d="M255 -11q-60 0 -108.5 25t-77 74.5t-28.5 123.5q0 71 30 123t78.5 80t104.5 28q62 0 99 -24t59 -56l-6 -16l11 77h105v-424h-114v102l10 -26q-3 -6 -15 -19.5t-32.5 -29t-49.5 -27t-66 -11.5zM286 83q46 0 77.5 23t44.5 65v93q-12 38 -46 62t-80 24q-34 0 -62.5 -16.5
t-45.5 -46.5t-17 -69t18 -69.5t47.5 -48t63.5 -17.5zM157 549q0 27 19 45t42 18q22 0 41 -18t19 -45t-19 -44t-41 -17q-23 0 -42 17t-19 44v0zM349 549q0 27 19.5 45t42.5 18q21 0 40.5 -18t19.5 -45t-19.5 -44t-40.5 -17q-23 0 -42.5 17t-19.5 44v0z" />
    <glyph glyph-name="aring" unicode="&#xe5;" horiz-adv-x="599" 
d="M255 -11q-60 0 -108.5 25t-77 74.5t-28.5 123.5q0 71 30 123t78.5 80t104.5 28q62 0 99 -24t59 -56l-6 -16l11 77h105v-424h-114v102l10 -26q-3 -6 -15 -19.5t-32.5 -29t-49.5 -27t-66 -11.5zM286 83q46 0 77.5 23t44.5 65v93q-12 38 -46 62t-80 24q-34 0 -62.5 -16.5
t-45.5 -46.5t-17 -69t18 -69.5t47.5 -48t63.5 -17.5zM203 568q0 43 29 69.5t73 26.5q43 0 72 -26.5t29 -69.5q0 -42 -29 -69t-72 -27q-44 0 -73 26.5t-29 69.5zM263 567q0 -19 11.5 -31t30.5 -12q18 0 29.5 12t11.5 31q0 20 -11.5 31.5t-29.5 11.5q-19 0 -30.5 -11.5
t-11.5 -31.5z" />
    <glyph glyph-name="ae" unicode="&#xe6;" horiz-adv-x="830" 
d="M208 -11q-86 0 -126.5 38t-40.5 95q0 41 25.5 70.5t67 45t86.5 15.5q46 0 89.5 -13.5t67.5 -32.5l-19 -66q-29 20 -52.5 29t-58.5 9q-34 0 -57 -12.5t-23 -41.5q0 -26 19 -41.5t54 -15.5q28 0 59 15t47 35v52h46v-102q-31 -40 -80.5 -59.5t-103.5 -19.5zM337 210v53
q0 35 -16.5 53.5t-37.5 25.5t-36 7q-40 0 -70.5 -20t-50.5 -45l-57 73q32 34 80 59.5t114 25.5q52 0 93.5 -16.5t66 -49.5t24.5 -82v-26zM574 -11q-74 0 -127.5 29t-81.5 80.5t-28 117.5q0 63 32 114.5t86.5 82t121.5 30.5q87 0 144 -50.5t76 -143.5l-341 -115l-26 64
l265 94l-24 -13q-11 30 -35 52t-68 22q-53 0 -86 -36.5t-33 -94.5q0 -63 36.5 -99.5t91.5 -36.5q25 0 49 9t46 24l51 -84q-33 -21 -72 -33.5t-77 -12.5z" />
    <glyph glyph-name="ccedilla" unicode="&#xe7;" horiz-adv-x="466" 
d="M428 39q-28 -23 -69 -36.5t-81 -13.5q-71 0 -124.5 27.5t-83 77t-29.5 118.5q0 70 32 120t83.5 76.5t109.5 26.5q54 0 95 -14.5t71 -40.5l-56 -73q-16 13 -41.5 24t-58.5 11t-61 -17t-44 -46t-16 -67q0 -36 17 -65.5t46.5 -46.5t68.5 -17q25 0 46.5 7.5t37.5 19.5z
M152 -145q10 -11 26.5 -18.5t36.5 -7.5q22 0 42 10t20 31q0 14 -12.5 27t-46.5 13q-16 0 -33 -4t-30 -8l-18 54l69 59l88 -2l-75 -85l-23 28q11 4 24 5.5t26 2.5q55 2 90.5 -21t35.5 -68q0 -35 -20.5 -58t-53.5 -34t-71 -11q-41 0 -67.5 12t-43.5 29z" />
    <glyph glyph-name="egrave" unicode="&#xe8;" horiz-adv-x="534" 
d="M279 -11q-75 0 -128 29t-81.5 80.5t-28.5 117.5q0 63 32.5 114.5t87 82t120.5 30.5q88 0 145 -50.5t76 -143.5l-341 -115l-26 64l264 94l-23 -13q-11 30 -35 52t-68 22q-53 0 -86 -36.5t-33 -94.5q0 -63 36.5 -99.5t90.5 -36.5q26 0 50 9t45 24l52 -84
q-33 -21 -72.5 -33.5t-76.5 -12.5zM119 638h126l68 -134h-70z" />
    <glyph glyph-name="eacute" unicode="&#xe9;" horiz-adv-x="534" 
d="M279 -11q-75 0 -128 29t-81.5 80.5t-28.5 117.5q0 63 32.5 114.5t87 82t120.5 30.5q88 0 145 -50.5t76 -143.5l-341 -115l-26 64l264 94l-23 -13q-11 30 -35 52t-68 22q-53 0 -86 -36.5t-33 -94.5q0 -63 36.5 -99.5t90.5 -36.5q26 0 50 9t45 24l52 -84
q-33 -21 -72.5 -33.5t-76.5 -12.5zM406 633l-136 -134h-70l80 134h126z" />
    <glyph glyph-name="ecircumflex" unicode="&#xea;" horiz-adv-x="534" 
d="M279 -11q-75 0 -128 29t-81.5 80.5t-28.5 117.5q0 63 32.5 114.5t87 82t120.5 30.5q88 0 145 -50.5t76 -143.5l-341 -115l-26 64l264 94l-23 -13q-11 30 -35 52t-68 22q-53 0 -86 -36.5t-33 -94.5q0 -63 36.5 -99.5t90.5 -36.5q26 0 50 9t45 24l52 -84
q-33 -21 -72.5 -33.5t-76.5 -12.5zM349 503l-87 87l30 9l-87 -96h-104l174 177h1l177 -177h-104z" />
    <glyph glyph-name="edieresis" unicode="&#xeb;" horiz-adv-x="534" 
d="M279 -11q-75 0 -128 29t-81.5 80.5t-28.5 117.5q0 63 32.5 114.5t87 82t120.5 30.5q88 0 145 -50.5t76 -143.5l-341 -115l-26 64l264 94l-23 -13q-11 30 -35 52t-68 22q-53 0 -86 -36.5t-33 -94.5q0 -63 36.5 -99.5t90.5 -36.5q26 0 50 9t45 24l52 -84
q-33 -21 -72.5 -33.5t-76.5 -12.5zM120 550q0 27 19 45t42 18q22 0 41 -18t19 -45t-19 -44t-41 -17q-23 0 -42 17t-19 44v0zM312 550q0 27 19.5 45t42.5 18q21 0 40.5 -18t19.5 -45t-19.5 -44t-40.5 -17q-23 0 -42.5 17t-19.5 44v0z" />
    <glyph glyph-name="igrave" unicode="&#xec;" horiz-adv-x="267" 
d="M77 424h114v-424h-114v424zM-24 621h126l68 -134h-70z" />
    <glyph glyph-name="iacute" unicode="&#xed;" horiz-adv-x="267" 
d="M77 424h114v-424h-114v424zM263 617l-136 -134h-70l80 134h126z" />
    <glyph glyph-name="icircumflex" unicode="&#xee;" horiz-adv-x="267" 
d="M77 424h114v-424h-114v424zM207 487l-87 87l30 9l-87 -96h-104l174 177h1l177 -177h-104z" />
    <glyph glyph-name="idieresis" unicode="&#xef;" horiz-adv-x="267" 
d="M77 424h114v-424h-114v424zM-23 533q0 27 19 45t42 18q22 0 41 -18t19 -45t-19 -44t-41 -17q-23 0 -42 17t-19 44v0zM169 533q0 27 19.5 45t42.5 18q21 0 40.5 -18t19.5 -45t-19.5 -44t-40.5 -17q-23 0 -42.5 17t-19.5 44v0z" />
    <glyph glyph-name="eth" unicode="&#xf0;" horiz-adv-x="556" 
d="M268 -11q-63 0 -114.5 27.5t-82 79t-30.5 121.5q0 64 28.5 115.5t76 81t105.5 29.5q44 0 78.5 -19t58.5 -49.5t37.5 -67t16.5 -72.5l-43 19q-1 78 -18.5 140.5t-49.5 115.5t-77.5 99.5t-103.5 91.5l84 75q60 -39 111.5 -97.5t89 -128t59 -144.5t21.5 -149
q0 -50 -16 -97.5t-47.5 -86t-77.5 -61.5t-106 -23zM278 83q54 0 88 38t34 95q0 56 -34 94.5t-88 38.5q-35 0 -62.5 -18t-43.5 -48t-16 -67q0 -38 16 -68t44 -47.5t62 -17.5zM455 671l-255 -157l-38 75l255 157z" />
    <glyph glyph-name="ntilde" unicode="&#xf1;" horiz-adv-x="571" 
d="M180 424l9 -90l-3 11q21 44 64.5 70.5t104.5 26.5q60 0 99 -35t40 -92v-315h-114v274q-1 31 -18 50.5t-53 20.5q-52 0 -85 -44.5t-33 -113.5v-187h-114v424h103zM363 470q-33 0 -54.5 14.5t-40.5 30.5q-11 10 -22.5 18.5t-24.5 8.5q-19 0 -28.5 -21.5t-8.5 -49.5h-58
q-4 39 7 72t35.5 52.5t58.5 19.5q26 0 45 -14t36 -29q14 -13 26.5 -22.5t25.5 -9.5q20 0 26.5 21.5t5.5 52.5h59q6 -42 -5 -74.5t-33 -51t-50 -18.5z" />
    <glyph glyph-name="ograve" unicode="&#xf2;" horiz-adv-x="556" 
d="M41 217q0 64 30.5 115.5t85 81t124.5 29.5q71 0 123.5 -29.5t81.5 -81t29 -115.5q0 -65 -29 -116.5t-82 -81.5t-125 -30q-68 0 -122 27.5t-85 79t-31 121.5zM156 216q0 -38 16 -68t44 -47.5t62 -17.5q54 0 88 38t34 95q0 56 -34 94.5t-88 38.5q-35 0 -62.5 -18t-43.5 -48
t-16 -67zM120 637h126l68 -134h-70z" />
    <glyph glyph-name="oacute" unicode="&#xf3;" horiz-adv-x="556" 
d="M41 217q0 64 30.5 115.5t85 81t124.5 29.5q71 0 123.5 -29.5t81.5 -81t29 -115.5q0 -65 -29 -116.5t-82 -81.5t-125 -30q-68 0 -122 27.5t-85 79t-31 121.5zM156 216q0 -38 16 -68t44 -47.5t62 -17.5q54 0 88 38t34 95q0 56 -34 94.5t-88 38.5q-35 0 -62.5 -18t-43.5 -48
t-16 -67zM407 633l-136 -134h-70l80 134h126z" />
    <glyph glyph-name="ocircumflex" unicode="&#xf4;" horiz-adv-x="556" 
d="M41 217q0 64 30.5 115.5t85 81t124.5 29.5q71 0 123.5 -29.5t81.5 -81t29 -115.5q0 -65 -29 -116.5t-82 -81.5t-125 -30q-68 0 -122 27.5t-85 79t-31 121.5zM156 216q0 -38 16 -68t44 -47.5t62 -17.5q54 0 88 38t34 95q0 56 -34 94.5t-88 38.5q-35 0 -62.5 -18t-43.5 -48
t-16 -67zM350 503l-87 87l30 9l-87 -96h-104l174 177h1l177 -177h-104z" />
    <glyph glyph-name="otilde" unicode="&#xf5;" horiz-adv-x="556" 
d="M41 217q0 64 30.5 115.5t85 81t124.5 29.5q71 0 123.5 -29.5t81.5 -81t29 -115.5q0 -65 -29 -116.5t-82 -81.5t-125 -30q-68 0 -122 27.5t-85 79t-31 121.5zM156 216q0 -38 16 -68t44 -47.5t62 -17.5q54 0 88 38t34 95q0 56 -34 94.5t-88 38.5q-35 0 -62.5 -18t-43.5 -48
t-16 -67zM357 478q-33 0 -54.5 14.5t-40.5 30.5q-11 10 -22.5 18.5t-24.5 8.5q-19 0 -28.5 -21.5t-8.5 -49.5h-58q-4 39 7 72t35.5 52.5t58.5 19.5q26 0 45 -14t36 -29q14 -13 26.5 -22.5t25.5 -9.5q20 0 26.5 21.5t5.5 52.5h59q6 -42 -5 -74.5t-33 -51t-50 -18.5z" />
    <glyph glyph-name="odieresis" unicode="&#xf6;" horiz-adv-x="556" 
d="M41 217q0 64 30.5 115.5t85 81t124.5 29.5q71 0 123.5 -29.5t81.5 -81t29 -115.5q0 -65 -29 -116.5t-82 -81.5t-125 -30q-68 0 -122 27.5t-85 79t-31 121.5zM156 216q0 -38 16 -68t44 -47.5t62 -17.5q54 0 88 38t34 95q0 56 -34 94.5t-88 38.5q-35 0 -62.5 -18t-43.5 -48
t-16 -67zM121 549q0 27 19 45t42 18q22 0 41 -18t19 -45t-19 -44t-41 -17q-23 0 -42 17t-19 44v0zM313 549q0 27 19.5 45t42.5 18q21 0 40.5 -18t19.5 -45t-19.5 -44t-40.5 -17q-23 0 -42.5 17t-19.5 44v0z" />
    <glyph glyph-name="divide" unicode="&#xf7;" horiz-adv-x="508" 
d="M194 411q0 26 19 44t42 18q21 0 40.5 -18t19.5 -44q0 -28 -19.5 -44.5t-40.5 -16.5q-23 0 -42 16.5t-19 44.5v0zM194 109q0 27 19 44.5t42 17.5q21 0 40.5 -17.5t19.5 -44.5t-19.5 -44t-40.5 -17q-23 0 -42 17t-19 44v0zM69 308h365v-100h-365v100z" />
    <glyph glyph-name="oslash" unicode="&#xf8;" horiz-adv-x="532" 
d="M493 414l-387 -444l-55 51l385 440zM41 217q0 64 30.5 115.5t85 81t124.5 29.5q71 0 123.5 -29.5t81.5 -81t29 -115.5q0 -65 -29 -116.5t-82 -81.5t-125 -30q-68 0 -122 27.5t-85 79t-31 121.5zM156 216q0 -38 16 -68t44 -47.5t62 -17.5q54 0 88 38t34 95q0 56 -34 94.5
t-88 38.5q-35 0 -62.5 -18t-43.5 -48t-16 -67z" />
    <glyph glyph-name="ugrave" unicode="&#xf9;" horiz-adv-x="563" 
d="M213 -18q-58 0 -96 35.5t-40 91.5v315h114v-274q2 -32 17.5 -51t50.5 -20q33 0 58.5 20.5t40 56.5t14.5 82v186h114v-424h-103l-9 92l3 -14q-20 -42 -63 -69t-101 -27zM124 637h126l68 -134h-70z" />
    <glyph glyph-name="uacute" unicode="&#xfa;" horiz-adv-x="563" 
d="M213 -18q-58 0 -96 35.5t-40 91.5v315h114v-274q2 -32 17.5 -51t50.5 -20q33 0 58.5 20.5t40 56.5t14.5 82v186h114v-424h-103l-9 92l3 -14q-20 -42 -63 -69t-101 -27zM411 633l-136 -134h-70l80 134h126z" />
    <glyph glyph-name="ucircumflex" unicode="&#xfb;" horiz-adv-x="563" 
d="M213 -18q-58 0 -96 35.5t-40 91.5v315h114v-274q2 -32 17.5 -51t50.5 -20q33 0 58.5 20.5t40 56.5t14.5 82v186h114v-424h-103l-9 92l3 -14q-20 -42 -63 -69t-101 -27zM355 503l-87 87l30 9l-87 -96h-104l174 177h1l177 -177h-104z" />
    <glyph glyph-name="udieresis" unicode="&#xfc;" horiz-adv-x="563" 
d="M213 -18q-58 0 -96 35.5t-40 91.5v315h114v-274q2 -32 17.5 -51t50.5 -20q33 0 58.5 20.5t40 56.5t14.5 82v186h114v-424h-103l-9 92l3 -14q-20 -42 -63 -69t-101 -27zM125 549q0 27 19 45t42 18q22 0 41 -18t19 -45t-19 -44t-41 -17q-23 0 -42 17t-19 44v0zM317 549
q0 27 19.5 45t42.5 18q21 0 40.5 -18t19.5 -45t-19.5 -44t-40.5 -17q-23 0 -42.5 17t-19.5 44v0z" />
    <glyph glyph-name="yacute" unicode="&#xfd;" horiz-adv-x="511" 
d="M112 -204l281 628h104l-274 -628h-111zM221 -3l-206 427h128l166 -369zM392 617l-136 -134h-70l80 134h126z" />
    <glyph glyph-name="thorn" unicode="&#xfe;" horiz-adv-x="602" 
d="M335 -11q-44 0 -84 18t-62 51l1 39v-301h-113v985h114v-444l-11 25q30 35 75.5 58t101.5 23q60 0 107 -28t74 -79.5t27 -122.5q0 -70 -30 -120t-81.5 -77t-118.5 -27zM312 79q38 0 69 17.5t50 47.5t19 68q0 39 -18 69.5t-47.5 48t-64.5 17.5q-48 0 -81 -24t-48 -66v-87
q10 -40 43.5 -65.5t77.5 -25.5z" />
    <glyph glyph-name="ydieresis" unicode="&#xff;" horiz-adv-x="511" 
d="M112 -204l281 628h104l-274 -628h-111zM221 -3l-206 427h128l166 -369zM106 533q0 27 19 45t42 18q22 0 41 -18t19 -45t-19 -44t-41 -17q-23 0 -42 17t-19 44v0zM298 533q0 27 19.5 45t42.5 18q21 0 40.5 -18t19.5 -45t-19.5 -44t-40.5 -17q-23 0 -42.5 17t-19.5 44v0z
" />
    <glyph glyph-name="Amacron" unicode="&#x100;" horiz-adv-x="699" 
d="M23 0l323 758h7l323 -758h-137l-225 573l85 57l-259 -630h-117zM227 270h247l41 -101h-324zM221 878h250v-79h-250v79z" />
    <glyph glyph-name="amacron" unicode="&#x101;" horiz-adv-x="599" 
d="M255 -11q-60 0 -108.5 25t-77 74.5t-28.5 123.5q0 71 30 123t78.5 80t104.5 28q62 0 99 -24t59 -56l-6 -16l11 77h105v-424h-114v102l10 -26q-3 -6 -15 -19.5t-32.5 -29t-49.5 -27t-66 -11.5zM286 83q46 0 77.5 23t44.5 65v93q-12 38 -46 62t-80 24q-34 0 -62.5 -16.5
t-45.5 -46.5t-17 -69t18 -69.5t47.5 -48t63.5 -17.5zM190 569h250v-79h-250v79z" />
    <glyph glyph-name="Abreve" unicode="&#x102;" horiz-adv-x="699" 
d="M23 0l323 758h7l323 -758h-137l-225 573l85 57l-259 -630h-117zM227 270h247l41 -101h-324zM350 793q-66 0 -105.5 46t-53.5 135h76q8 -46 27 -75t56 -29t55 29t25 75h77q-12 -91 -51.5 -136t-105.5 -45z" />
    <glyph glyph-name="abreve" unicode="&#x103;" horiz-adv-x="599" 
d="M255 -11q-60 0 -108.5 25t-77 74.5t-28.5 123.5q0 71 30 123t78.5 80t104.5 28q62 0 99 -24t59 -56l-6 -16l11 77h105v-424h-114v102l10 -26q-3 -6 -15 -19.5t-32.5 -29t-49.5 -27t-66 -11.5zM286 83q46 0 77.5 23t44.5 65v93q-12 38 -46 62t-80 24q-34 0 -62.5 -16.5
t-45.5 -46.5t-17 -69t18 -69.5t47.5 -48t63.5 -17.5zM317 484q-66 0 -105.5 46t-53.5 135h76q8 -46 27 -75t56 -29t55 29t25 75h77q-12 -91 -51.5 -136t-105.5 -45z" />
    <glyph glyph-name="Aogonek" unicode="&#x104;" horiz-adv-x="699" 
d="M23 0l323 758h7l323 -758h-137l-225 573l85 57l-259 -630h-117zM227 270h247l41 -101h-324zM591 -223q-55 0 -92.5 32.5t-37.5 85.5q0 34 23.5 66t63.5 49l128 -10q-55 -23 -88 -45t-33 -51q0 -26 14 -36t32 -10q40 0 70 48l42 -58q-20 -31 -54.5 -51t-67.5 -20z" />
    <glyph glyph-name="aogonek" unicode="&#x105;" horiz-adv-x="604" 
d="M254 -11q-58 0 -105.5 25t-75.5 74.5t-28 123.5q0 71 29 123t77 80t103 28q43 0 72.5 -11t50.5 -29t35 -40l7 61h106v-424q-46 -20 -74 -42t-28 -54q0 -26 13.5 -36t32.5 -10q38 0 70 48l41 -58q-19 -31 -54 -51t-68 -20q-54 0 -92 32.5t-38 85.5q0 34 23 66t64 49
l10 -15l-14 -16v123l9 -26q-12 -15 -33.5 -35.5t-54 -36t-78.5 -15.5zM286 83q46 0 79 23t46 65v93q-12 38 -46 62t-79 24q-34 0 -62.5 -16.5t-46 -46.5t-17.5 -69t17.5 -69.5t46 -48t62.5 -17.5z" />
    <glyph glyph-name="Cacute" unicode="&#x106;" horiz-adv-x="695" 
d="M640 57q-15 -11 -47 -27t-76 -27.5t-96 -10.5q-86 1 -153.5 30.5t-115 80t-72.5 116t-25 140.5q0 82 26.5 151t74 120t113.5 79t144 28q69 0 124 -19t92 -42l-47 -111q-28 20 -70 39t-95 19q-64 0 -118.5 -34.5t-87.5 -92.5t-33 -131q0 -75 30 -133.5t85.5 -92
t129.5 -33.5q57 0 99.5 17.5t67.5 39.5zM562 911l-136 -134h-70l80 134h126z" />
    <glyph glyph-name="cacute" unicode="&#x107;" horiz-adv-x="466" 
d="M428 39q-28 -23 -69 -36.5t-81 -13.5q-71 0 -124.5 27.5t-83 77t-29.5 118.5q0 70 32 120t83.5 76.5t109.5 26.5q54 0 95 -14.5t71 -40.5l-56 -73q-16 13 -41.5 24t-58.5 11t-61 -17t-44 -46t-16 -67q0 -36 17 -65.5t46.5 -46.5t68.5 -17q25 0 46.5 7.5t37.5 19.5z
M383 625l-136 -134h-70l80 134h126z" />
    <glyph glyph-name="Ccircumflex" unicode="&#x108;" horiz-adv-x="695" 
d="M640 57q-15 -11 -47 -27t-76 -27.5t-96 -10.5q-86 1 -153.5 30.5t-115 80t-72.5 116t-25 140.5q0 82 26.5 151t74 120t113.5 79t144 28q69 0 124 -19t92 -42l-47 -111q-28 20 -70 39t-95 19q-64 0 -118.5 -34.5t-87.5 -92.5t-33 -131q0 -75 30 -133.5t85.5 -92
t129.5 -33.5q57 0 99.5 17.5t67.5 39.5zM460 791l-87 87l30 9l-87 -96h-104l174 177h1l177 -177h-104z" />
    <glyph glyph-name="ccircumflex" unicode="&#x109;" horiz-adv-x="466" 
d="M428 39q-28 -23 -69 -36.5t-81 -13.5q-71 0 -124.5 27.5t-83 77t-29.5 118.5q0 70 32 120t83.5 76.5t109.5 26.5q54 0 95 -14.5t71 -40.5l-56 -73q-16 13 -41.5 24t-58.5 11t-61 -17t-44 -46t-16 -67q0 -36 17 -65.5t46.5 -46.5t68.5 -17q25 0 46.5 7.5t37.5 19.5z
M326 495l-87 87l30 9l-87 -96h-104l174 177h1l177 -177h-104z" />
    <glyph glyph-name="Cdotaccent" unicode="&#x10a;" horiz-adv-x="695" 
d="M640 57q-15 -11 -47 -27t-76 -27.5t-96 -10.5q-86 1 -153.5 30.5t-115 80t-72.5 116t-25 140.5q0 82 26.5 151t74 120t113.5 79t144 28q69 0 124 -19t92 -42l-47 -111q-28 20 -70 39t-95 19q-64 0 -118.5 -34.5t-87.5 -92.5t-33 -131q0 -75 30 -133.5t85.5 -92
t129.5 -33.5q57 0 99.5 17.5t67.5 39.5zM330 839q0 26 20.5 43.5t44.5 17.5t44 -17.5t20 -43.5q0 -27 -20 -43.5t-44 -16.5t-44.5 16.5t-20.5 43.5z" />
    <glyph glyph-name="cdotaccent" unicode="&#x10b;" horiz-adv-x="466" 
d="M428 39q-28 -23 -69 -36.5t-81 -13.5q-71 0 -124.5 27.5t-83 77t-29.5 118.5q0 70 32 120t83.5 76.5t109.5 26.5q54 0 95 -14.5t71 -40.5l-56 -73q-16 13 -41.5 24t-58.5 11t-61 -17t-44 -46t-16 -67q0 -36 17 -65.5t46.5 -46.5t68.5 -17q25 0 46.5 7.5t37.5 19.5z
M191 584q0 26 20.5 43.5t44.5 17.5t44 -17.5t20 -43.5q0 -27 -20 -43.5t-44 -16.5t-44.5 16.5t-20.5 43.5z" />
    <glyph glyph-name="Ccaron" unicode="&#x10c;" horiz-adv-x="695" 
d="M640 57q-15 -11 -47 -27t-76 -27.5t-96 -10.5q-86 1 -153.5 30.5t-115 80t-72.5 116t-25 140.5q0 82 26.5 151t74 120t113.5 79t144 28q69 0 124 -19t92 -42l-47 -111q-28 20 -70 39t-95 19q-64 0 -118.5 -34.5t-87.5 -92.5t-33 -131q0 -75 30 -133.5t85.5 -92
t129.5 -33.5q57 0 99.5 17.5t67.5 39.5zM321 945l86 -88l-30 -8l87 96h104l-173 -177h-1l-177 177h104z" />
    <glyph glyph-name="ccaron" unicode="&#x10d;" horiz-adv-x="466" 
d="M428 39q-28 -23 -69 -36.5t-81 -13.5q-71 0 -124.5 27.5t-83 77t-29.5 118.5q0 70 32 120t83.5 76.5t109.5 26.5q54 0 95 -14.5t71 -40.5l-56 -73q-16 13 -41.5 24t-58.5 11t-61 -17t-44 -46t-16 -67q0 -36 17 -65.5t46.5 -46.5t68.5 -17q25 0 46.5 7.5t37.5 19.5z
M191 661l86 -88l-30 -8l87 96h104l-173 -177h-1l-177 177h104z" />
    <glyph glyph-name="Dcaron" unicode="&#x10e;" horiz-adv-x="761" 
d="M100 0v729h208q109 0 185 -33t123 -87.5t68.5 -121t21.5 -133.5q0 -82 -28.5 -147.5t-79.5 -111.5t-116.5 -70.5t-138.5 -24.5h-243zM218 114h103q78 0 137 28.5t92.5 84t33.5 135.5q0 69 -22.5 117t-59 78t-79 44t-82.5 14h-123v-501zM238 927l86 -88l-30 -8l87 96h104
l-173 -177h-1l-177 177h104z" />
    <glyph glyph-name="dcaron" unicode="&#x10f;" horiz-adv-x="712" 
d="M250 -11q-60 0 -107 28t-74.5 80t-27.5 122q0 71 29.5 121t80 76.5t113.5 26.5q46 0 88 -17.5t67 -49.5l-3 -38v443h114v-781h-115v95l11 -28q-31 -33 -75.5 -55.5t-100.5 -22.5zM286 85q49 0 82 24t47 66v91q-11 38 -46.5 62.5t-82.5 24.5q-34 0 -63.5 -17t-47.5 -47
t-18 -69q0 -37 18 -68t47.5 -49t63.5 -18zM651 618l-59 26q22 20 35 56t6 71l89 7q6 -28 -3 -60t-27.5 -59t-40.5 -41v0z" />
    <glyph glyph-name="Dcroat" unicode="&#x110;" horiz-adv-x="771" 
d="M110 0v729h208q109 0 185 -33t123 -87.5t68.5 -121t21.5 -133.5q0 -82 -28.5 -147.5t-79.5 -111.5t-116.5 -70.5t-138.5 -24.5h-243zM228 114h103q78 0 137 28.5t92.5 84t33.5 135.5q0 69 -22.5 117t-59 78t-79 44t-82.5 14h-123v-501zM28 415h295v-106h-295v106z" />
    <glyph glyph-name="dcroat" unicode="&#x111;" horiz-adv-x="607" 
d="M250 -11q-60 0 -107 28t-74.5 80t-27.5 122q0 71 29.5 121t80 76.5t113.5 26.5q46 0 88 -17.5t67 -49.5l-3 -38v443h114v-781h-115v95l11 -28q-31 -33 -75.5 -55.5t-100.5 -22.5zM286 85q49 0 82 24t47 66v91q-11 38 -46.5 62.5t-82.5 24.5q-34 0 -63.5 -17t-47.5 -47
t-18 -69q0 -37 18 -68t47.5 -49t63.5 -18zM319 689h295v-106h-295v106z" />
    <glyph glyph-name="Emacron" unicode="&#x112;" horiz-adv-x="659" 
d="M100 729h484v-114h-366v-192h326v-114h-326v-195h380v-114h-498v729zM211 862h250v-79h-250v79z" />
    <glyph glyph-name="emacron" unicode="&#x113;" horiz-adv-x="534" 
d="M279 -11q-75 0 -128 29t-81.5 80.5t-28.5 117.5q0 63 32.5 114.5t87 82t120.5 30.5q88 0 145 -50.5t76 -143.5l-341 -115l-26 64l264 94l-23 -13q-11 30 -35 52t-68 22q-53 0 -86 -36.5t-33 -94.5q0 -63 36.5 -99.5t90.5 -36.5q26 0 50 9t45 24l52 -84
q-33 -21 -72.5 -33.5t-76.5 -12.5zM153 569h250v-79h-250v79z" />
    <glyph glyph-name="Ebreve" unicode="&#x114;" horiz-adv-x="659" 
d="M100 729h484v-114h-366v-192h326v-114h-326v-195h380v-114h-498v729zM340 778q-66 0 -105.5 46t-53.5 135h76q8 -46 27 -75t56 -29t55 29t25 75h77q-12 -91 -51.5 -136t-105.5 -45z" />
    <glyph glyph-name="ebreve" unicode="&#x115;" horiz-adv-x="534" 
d="M279 -11q-75 0 -128 29t-81.5 80.5t-28.5 117.5q0 63 32.5 114.5t87 82t120.5 30.5q88 0 145 -50.5t76 -143.5l-341 -115l-26 64l264 94l-23 -13q-11 30 -35 52t-68 22q-53 0 -86 -36.5t-33 -94.5q0 -63 36.5 -99.5t90.5 -36.5q26 0 50 9t45 24l52 -84
q-33 -21 -72.5 -33.5t-76.5 -12.5zM280 484q-66 0 -105.5 46t-53.5 135h76q8 -46 27 -75t56 -29t55 29t25 75h77q-12 -91 -51.5 -136t-105.5 -45z" />
    <glyph glyph-name="Edotaccent" unicode="&#x116;" horiz-adv-x="659" 
d="M100 729h484v-114h-366v-192h326v-114h-326v-195h380v-114h-498v729zM275 837q0 26 20.5 43.5t44.5 17.5t44 -17.5t20 -43.5q0 -27 -20 -43.5t-44 -16.5t-44.5 16.5t-20.5 43.5z" />
    <glyph glyph-name="edotaccent" unicode="&#x117;" horiz-adv-x="534" 
d="M279 -11q-75 0 -128 29t-81.5 80.5t-28.5 117.5q0 63 32.5 114.5t87 82t120.5 30.5q88 0 145 -50.5t76 -143.5l-341 -115l-26 64l264 94l-23 -13q-11 30 -35 52t-68 22q-53 0 -86 -36.5t-33 -94.5q0 -63 36.5 -99.5t90.5 -36.5q26 0 50 9t45 24l52 -84
q-33 -21 -72.5 -33.5t-76.5 -12.5zM215 593q0 26 20.5 43.5t44.5 17.5t44 -17.5t20 -43.5q0 -27 -20 -43.5t-44 -16.5t-44.5 16.5t-20.5 43.5z" />
    <glyph glyph-name="Eogonek" unicode="&#x118;" horiz-adv-x="659" 
d="M100 729h484v-114h-366v-192h326v-114h-326v-195h380v-114h-498v729zM514 -223q-55 0 -92.5 32.5t-37.5 85.5q0 34 23.5 66t63.5 49l128 -10q-55 -23 -88 -45t-33 -51q0 -26 14 -36t32 -10q40 0 70 48l42 -58q-20 -31 -54.5 -51t-67.5 -20z" />
    <glyph glyph-name="eogonek" unicode="&#x119;" horiz-adv-x="538" 
d="M325 -223q-62 0 -98.5 33t-36.5 87q0 32 20 63.5t58 49.5l119 17q-9 -11 -29.5 -19.5t-41.5 -13.5t-34 -5q-74 0 -127.5 29t-81.5 80.5t-28 117.5q0 63 32 114.5t86.5 82t121.5 30.5q87 0 144 -50.5t75 -143.5l-340 -115l-25 63l264 94l-24 -12q-11 30 -35.5 52t-67.5 22
q-53 0 -86 -36.5t-33 -94.5q0 -63 37 -99.5t91 -36.5q25 0 48.5 9t45.5 24l52 -84q-25 -15 -51 -26.5t-47.5 -23.5t-35 -28.5t-13.5 -41.5q0 -27 17 -42t35 -15q20 0 36 11.5t32 33.5l41 -60q-20 -28 -54 -47t-66 -19z" />
    <glyph glyph-name="Ecaron" unicode="&#x11a;" horiz-adv-x="659" 
d="M100 729h484v-114h-366v-192h326v-114h-326v-195h380v-114h-498v729zM266 943l86 -88l-30 -8l87 96h104l-173 -177h-1l-177 177h104z" />
    <glyph glyph-name="ecaron" unicode="&#x11b;" horiz-adv-x="534" 
d="M279 -11q-75 0 -128 29t-81.5 80.5t-28.5 117.5q0 63 32.5 114.5t87 82t120.5 30.5q88 0 145 -50.5t76 -143.5l-341 -115l-26 64l264 94l-23 -13q-11 30 -35 52t-68 22q-53 0 -86 -36.5t-33 -94.5q0 -63 36.5 -99.5t90.5 -36.5q26 0 50 9t45 24l52 -84
q-33 -21 -72.5 -33.5t-76.5 -12.5zM215 670l86 -88l-30 -8l87 96h104l-173 -177h-1l-177 177h104z" />
    <glyph glyph-name="Gcircumflex" unicode="&#x11c;" horiz-adv-x="756" 
d="M680 67q-14 -13 -41.5 -26.5t-62 -24.5t-70.5 -17.5t-68 -6.5q-117 0 -203 46.5t-133 126.5t-47 182q0 96 30 168.5t82 122t119.5 74.5t142.5 25q67 0 123 -15.5t97 -38.5l-39 -109q-19 11 -48.5 21.5t-61 16.5t-56.5 6q-83 0 -142.5 -31t-92 -89t-32.5 -141
q0 -74 33.5 -129.5t93 -86.5t137.5 -31q34 0 65.5 6t53.5 19v119h-136v114h256v-301zM475 774l-87 87l30 9l-87 -96h-104l174 177h1l177 -177h-104z" />
    <glyph glyph-name="gcircumflex" unicode="&#x11d;" horiz-adv-x="614" 
d="M288 -212q-52 0 -89.5 12.5t-65.5 31.5t-53 41l67 78q29 -27 61.5 -45t77.5 -18q62 0 99 30t38 82v105l6 -21q-17 -40 -61.5 -67.5t-111.5 -27.5q-58 0 -107 29.5t-78.5 80.5t-29.5 115q0 67 31 118.5t81.5 81t107.5 29.5q56 0 99.5 -19.5t64.5 -49.5l-5 -16l12 66h105
v-426q0 -59 -32 -106.5t-88 -75.5t-129 -28zM156 218q0 -39 18 -69.5t48 -48t67 -17.5q50 0 84.5 23.5t49.5 63.5v93q-13 39 -49 63t-85 24q-37 0 -67 -17t-48 -46.5t-18 -68.5zM378 503l-87 87l30 9l-87 -96h-104l174 177h1l177 -177h-104z" />
    <glyph glyph-name="Gbreve" unicode="&#x11e;" horiz-adv-x="756" 
d="M680 67q-14 -13 -41.5 -26.5t-62 -24.5t-70.5 -17.5t-68 -6.5q-117 0 -203 46.5t-133 126.5t-47 182q0 96 30 168.5t82 122t119.5 74.5t142.5 25q67 0 123 -15.5t97 -38.5l-39 -109q-19 11 -48.5 21.5t-61 16.5t-56.5 6q-83 0 -142.5 -31t-92 -89t-32.5 -141
q0 -74 33.5 -129.5t93 -86.5t137.5 -31q34 0 65.5 6t53.5 19v119h-136v114h256v-301zM409 762q-66 0 -105.5 46t-53.5 135h76q8 -46 27 -75t56 -29t55 29t25 75h77q-12 -91 -51.5 -136t-105.5 -45z" />
    <glyph glyph-name="gbreve" unicode="&#x11f;" horiz-adv-x="614" 
d="M288 -212q-52 0 -89.5 12.5t-65.5 31.5t-53 41l67 78q29 -27 61.5 -45t77.5 -18q62 0 99 30t38 82v105l6 -21q-17 -40 -61.5 -67.5t-111.5 -27.5q-58 0 -107 29.5t-78.5 80.5t-29.5 115q0 67 31 118.5t81.5 81t107.5 29.5q56 0 99.5 -19.5t64.5 -49.5l-5 -16l12 66h105
v-426q0 -59 -32 -106.5t-88 -75.5t-129 -28zM156 218q0 -39 18 -69.5t48 -48t67 -17.5q50 0 84.5 23.5t49.5 63.5v93q-13 39 -49 63t-85 24q-37 0 -67 -17t-48 -46.5t-18 -68.5zM309 484q-66 0 -105.5 46t-53.5 135h76q8 -46 27 -75t56 -29t55 29t25 75h77
q-12 -91 -51.5 -136t-105.5 -45z" />
    <glyph glyph-name="Gdotaccent" unicode="&#x120;" horiz-adv-x="756" 
d="M680 67q-14 -13 -41.5 -26.5t-62 -24.5t-70.5 -17.5t-68 -6.5q-117 0 -203 46.5t-133 126.5t-47 182q0 96 30 168.5t82 122t119.5 74.5t142.5 25q67 0 123 -15.5t97 -38.5l-39 -109q-19 11 -48.5 21.5t-61 16.5t-56.5 6q-83 0 -142.5 -31t-92 -89t-32.5 -141
q0 -74 33.5 -129.5t93 -86.5t137.5 -31q34 0 65.5 6t53.5 19v119h-136v114h256v-301zM344 821q0 26 20.5 43.5t44.5 17.5t44 -17.5t20 -43.5q0 -27 -20 -43.5t-44 -16.5t-44.5 16.5t-20.5 43.5z" />
    <glyph glyph-name="gdotaccent" unicode="&#x121;" horiz-adv-x="614" 
d="M288 -212q-52 0 -89.5 12.5t-65.5 31.5t-53 41l67 78q29 -27 61.5 -45t77.5 -18q62 0 99 30t38 82v105l6 -21q-17 -40 -61.5 -67.5t-111.5 -27.5q-58 0 -107 29.5t-78.5 80.5t-29.5 115q0 67 31 118.5t81.5 81t107.5 29.5q56 0 99.5 -19.5t64.5 -49.5l-5 -16l12 66h105
v-426q0 -59 -32 -106.5t-88 -75.5t-129 -28zM156 218q0 -39 18 -69.5t48 -48t67 -17.5q50 0 84.5 23.5t49.5 63.5v93q-13 39 -49 63t-85 24q-37 0 -67 -17t-48 -46.5t-18 -68.5zM243 592q0 26 20.5 43.5t44.5 17.5t44 -17.5t20 -43.5q0 -27 -20 -43.5t-44 -16.5t-44.5 16.5
t-20.5 43.5z" />
    <glyph glyph-name="uni0122" unicode="&#x122;" horiz-adv-x="756" 
d="M680 67q-14 -13 -41.5 -26.5t-62 -24.5t-70.5 -17.5t-68 -6.5q-117 0 -203 46.5t-133 126.5t-47 182q0 96 30 168.5t82 122t119.5 74.5t142.5 25q67 0 123 -15.5t97 -38.5l-39 -109q-19 11 -48.5 21.5t-61 16.5t-56.5 6q-83 0 -142.5 -31t-92 -89t-32.5 -141
q0 -74 33.5 -129.5t93 -86.5t137.5 -31q34 0 65.5 6t53.5 19v119h-136v114h256v-301zM353 -223l-58 39q23 21 32.5 60t3.5 76l101 -1q5 -28 -3 -61.5t-27.5 -64t-48.5 -48.5z" />
    <glyph glyph-name="uni0123" unicode="&#x123;" horiz-adv-x="581" 
d="M228 507q23 53 44.5 105t43.5 104h92q-20 -52 -39.5 -104t-39.5 -105h-101zM288 -212q-52 0 -89.5 12.5t-65.5 31.5t-53 41l67 78q29 -27 61.5 -45t77.5 -18q62 0 99 30t38 82v105l6 -21q-17 -40 -61.5 -67.5t-111.5 -27.5q-58 0 -107 29.5t-78.5 80.5t-29.5 115
q0 67 31 118.5t81.5 81t107.5 29.5q56 0 99.5 -19.5t64.5 -49.5l-5 -16l12 66h105v-426q0 -59 -32 -106.5t-88 -75.5t-129 -28zM156 218q0 -39 18 -69.5t48 -48t67 -17.5q50 0 84.5 23.5t49.5 63.5v93q-13 39 -49 63t-85 24q-37 0 -67 -17t-48 -46.5t-18 -68.5z" />
    <glyph glyph-name="Hcircumflex" unicode="&#x124;" horiz-adv-x="793" 
d="M693 729v-729h-118v309h-357v-309h-118v729h118v-307h357v307h118zM463 774l-87 87l30 9l-87 -96h-104l174 177h1l177 -177h-104z" />
    <glyph glyph-name="hcircumflex" unicode="&#x125;" horiz-adv-x="571" 
d="M77 0v781h111v-449l-1 17q22 41 64.5 67t103.5 26q60 0 99 -35t40 -92v-315h-114v274q-1 31 -18 50.5t-53 20.5q-52 0 -85 -45t-33 -113v-187h-114zM197 823l-87 87l30 9l-87 -96h-104l174 177h1l177 -177h-104z" />
    <glyph glyph-name="Hbar" unicode="&#x126;" horiz-adv-x="958" 
d="M100 585h757v-87h-757v87zM777 729v-729h-119v309h-357v-309h-117v729h117v-307h357v307h119z" />
    <glyph glyph-name="hbar" unicode="&#x127;" horiz-adv-x="571" 
d="M77 0v781h111v-449l-1 17q22 41 64.5 67t103.5 26q60 0 99 -35t40 -92v-315h-114v274q-1 31 -18 50.5t-53 20.5q-52 0 -85 -45t-33 -113v-187h-114zM-6 662h295v-106h-295v106z" />
    <glyph glyph-name="Itilde" unicode="&#x128;" horiz-adv-x="318" 
d="M100 729h118v-729h-118v729zM237 812q-33 0 -55 14t-39 30q-12 10 -23.5 18.5t-24.5 8.5q-20 0 -29 -21t-7 -50h-59q-4 39 7.5 72t35.5 52.5t58 19.5q26 0 45.5 -14t35.5 -29q14 -13 26.5 -22.5t26.5 -9.5q19 0 25.5 22t5.5 52h59q6 -42 -5 -74.5t-33 -50.5t-50 -18z" />
    <glyph glyph-name="itilde" unicode="&#x129;" horiz-adv-x="267" 
d="M77 424h114v-424h-114v424zM213 462q-33 0 -54.5 14.5t-40.5 30.5q-11 10 -22.5 18.5t-24.5 8.5q-19 0 -28.5 -21.5t-8.5 -49.5h-58q-4 39 7 72t35.5 52.5t58.5 19.5q26 0 45 -14t36 -29q14 -13 26.5 -22.5t25.5 -9.5q20 0 26.5 21.5t5.5 52.5h59q6 -42 -5 -74.5t-33 -51
t-50 -18.5z" />
    <glyph glyph-name="Imacron" unicode="&#x12a;" horiz-adv-x="318" 
d="M100 729h118v-729h-118v729zM31 862h250v-79h-250v79z" />
    <glyph glyph-name="imacron" unicode="&#x12b;" horiz-adv-x="267" 
d="M77 424h114v-424h-114v424zM10 553h250v-79h-250v79z" />
    <glyph glyph-name="Ibreve" unicode="&#x12c;" horiz-adv-x="318" 
d="M100 729h118v-729h-118v729zM160 778q-66 0 -105.5 46t-53.5 135h76q8 -46 27 -75t56 -29t55 29t25 75h77q-12 -91 -51.5 -136t-105.5 -45z" />
    <glyph glyph-name="ibreve" unicode="&#x12d;" horiz-adv-x="267" 
d="M77 424h114v-424h-114v424zM138 467q-66 0 -105.5 46t-53.5 135h76q8 -46 27 -75t56 -29t55 29t25 75h77q-12 -91 -51.5 -136t-105.5 -45z" />
    <glyph glyph-name="Iogonek" unicode="&#x12e;" horiz-adv-x="278" 
d="M141 -223q-54 0 -92 28.5t-38 81.5q0 34 23.5 66t64.5 50l94 3l21 -6q-50 -21 -79.5 -43t-29.5 -53q0 -26 14.5 -36t32.5 -10q38 0 69 48l42 -58q-20 -31 -54.5 -51t-67.5 -20zM100 729h118v-729h-118v729z" />
    <glyph glyph-name="iogonek" unicode="&#x12f;" horiz-adv-x="273" 
d="M127 -223q-54 0 -92 32.5t-38 85.5q0 34 23.5 66t64.5 49l86 -1l22 -9q-47 -21 -74.5 -42.5t-27.5 -53.5q0 -26 14.5 -36t31.5 -10q39 0 70 48l42 -58q-20 -31 -54.5 -51t-67.5 -20zM77 424h114v-424h-114v424zM70 573q0 26 20.5 43.5t44.5 17.5t44 -17.5t20 -43.5
q0 -27 -20 -43.5t-44 -16.5t-44.5 16.5t-20.5 43.5z" />
    <glyph glyph-name="Idotaccent" unicode="&#x130;" horiz-adv-x="318" 
d="M100 729h118v-729h-118v729zM95 837q0 26 20.5 43.5t44.5 17.5t44 -17.5t20 -43.5q0 -27 -20 -43.5t-44 -16.5t-44.5 16.5t-20.5 43.5z" />
    <glyph glyph-name="dotlessi" unicode="&#x131;" horiz-adv-x="267" 
d="M77 424h114v-424h-114v424z" />
    <glyph glyph-name="IJ" unicode="&#x132;" horiz-adv-x="698" 
d="M100 729h118v-729h-118v729zM598 142q0 -92 -35 -156.5t-97.5 -99t-143.5 -37.5v0v115q69 4 113.5 46t44.5 135v584h118v-587z" />
    <glyph glyph-name="ij" unicode="&#x133;" horiz-adv-x="529" 
d="M77 424h114v-424h-114v424zM72 576q0 26 20.5 43.5t44.5 17.5t44 -17.5t20 -43.5q0 -27 -20 -43.5t-44 -16.5t-44.5 16.5t-20.5 43.5zM339 -204l-67 70q29 23 45.5 57t16.5 81v420h114v-425q0 -74 -25.5 -124t-83.5 -79zM327 576q0 26 20.5 43.5t44.5 17.5t44 -17.5
t20 -43.5q0 -27 -20 -43.5t-44 -16.5t-44.5 16.5t-20.5 43.5z" />
    <glyph glyph-name="Jcircumflex" unicode="&#x134;" horiz-adv-x="381" 
d="M280 142q0 -92 -35 -156.5t-97.5 -99t-143.5 -37.5v0v115q69 4 113.5 46t44.5 135v584h118v-587zM290 789l-87 87l30 9l-87 -96h-104l174 177h1l177 -177h-104z" />
    <glyph glyph-name="jcircumflex" unicode="&#x135;" horiz-adv-x="275" 
d="M93 -204l-67 70q29 23 45.5 57t16.5 81v420h114v-425q0 -74 -25.5 -124t-83.5 -79zM216 487l-87 87l30 9l-87 -96h-104l174 177h1l177 -177h-104z" />
    <glyph glyph-name="uni0136" unicode="&#x136;" horiz-adv-x="690" 
d="M220 451l-3 -37l16 23l271 292h153l-301 -320l311 -409h-150l-248 335l-50 -49l1 -286h-120v729h120v-278zM295 -223l-58 39q23 21 32.5 60t3.5 76l101 -1q5 -28 -3 -61.5t-27.5 -64t-48.5 -48.5z" />
    <glyph glyph-name="uni0137" unicode="&#x137;" horiz-adv-x="519" 
d="M77 0v781h114v-781h-114zM296 285l194 -285h-133l-137 220zM156 127l-11 109l257 198l69 -61zM230 -207l-58 39q23 21 32.5 60t3.5 76l101 -1q5 -28 -3 -61.5t-27.5 -64t-48.5 -48.5z" />
    <glyph glyph-name="kgreenlandic" unicode="&#x138;" horiz-adv-x="531" 
d="M182 121l-17 101l188 202h137zM191 0h-114v424h114v-424zM294 245l195 -245h-132l-150 195z" />
    <glyph glyph-name="Lacute" unicode="&#x139;" horiz-adv-x="630" 
d="M100 729h118v-615h358v-114h-476v729zM325 909l-136 -134h-70l80 134h126z" />
    <glyph glyph-name="lacute" unicode="&#x13a;" horiz-adv-x="267" 
d="M77 781h114v-781h-114v781zM303 960l-136 -134h-70l80 134h126z" />
    <glyph glyph-name="uni013B" unicode="&#x13b;" horiz-adv-x="630" 
d="M100 729h118v-615h358v-114h-476v729zM294 -223l-58 39q23 21 32.5 60t3.5 76l101 -1q5 -28 -3 -61.5t-27.5 -64t-48.5 -48.5z" />
    <glyph glyph-name="uni013C" unicode="&#x13c;" horiz-adv-x="267" 
d="M77 781h114v-781h-114v781zM105 -207l-58 39q23 21 32.5 60t3.5 76l101 -1q5 -28 -3 -61.5t-27.5 -64t-48.5 -48.5z" />
    <glyph glyph-name="Lcaron" unicode="&#x13d;" horiz-adv-x="626" 
d="M100 729h118v-615h358v-114h-476v729zM452 562l-59 26q22 20 35 56t6 71l89 7q6 -28 -3 -60t-27.5 -59t-40.5 -41v0z" />
    <glyph glyph-name="lcaron" unicode="&#x13e;" horiz-adv-x="387" 
d="M77 781h114v-781h-114v781zM314 610l-59 26q22 20 35 56t6 71l89 7q6 -28 -3 -60t-27.5 -59t-40.5 -41v0z" />
    <glyph glyph-name="Ldot" unicode="&#x13f;" horiz-adv-x="631" 
d="M100 729h118v-615h358v-114h-476v729zM465 388q0 27 19 45t42 18q22 0 40.5 -18t18.5 -45t-18.5 -44t-40.5 -17q-23 0 -42 17t-19 44v0z" />
    <glyph glyph-name="ldot" unicode="&#x140;" horiz-adv-x="370" 
d="M77 781h114v-781h-114v781zM260 326q0 27 19 45t42 18q22 0 40.5 -18t18.5 -45t-18.5 -44t-40.5 -17q-23 0 -42 17t-19 44v0z" />
    <glyph glyph-name="Lslash" unicode="&#x141;" horiz-adv-x="626" 
d="M398 477l24 -93l-387 -124l-24 93zM100 729h118v-615h358v-114h-476v729z" />
    <glyph glyph-name="lslash" unicode="&#x142;" horiz-adv-x="288" 
d="M275 400v-99l-257 -65v99zM85 781h114v-781h-114v781z" />
    <glyph glyph-name="Nacute" unicode="&#x143;" horiz-adv-x="844" 
d="M741 -27l-559 540l35 -14l2 -499h-119v754h5l550 -540l-27 9l-2 506h118v-756h-3zM575 893l-136 -134h-70l80 134h126z" />
    <glyph glyph-name="nacute" unicode="&#x144;" horiz-adv-x="571" 
d="M180 424l9 -90l-3 11q21 44 64.5 70.5t104.5 26.5q60 0 99 -35t40 -92v-315h-114v274q-1 31 -18 50.5t-53 20.5q-52 0 -85 -44.5t-33 -113.5v-187h-114v424h103zM414 625l-136 -134h-70l80 134h126z" />
    <glyph glyph-name="uni0145" unicode="&#x145;" horiz-adv-x="844" 
d="M741 -27l-559 540l35 -14l2 -499h-119v754h5l550 -540l-27 9l-2 506h118v-756h-3zM393 -223l-58 39q23 21 32.5 60t3.5 76l101 -1q5 -28 -3 -61.5t-27.5 -64t-48.5 -48.5z" />
    <glyph glyph-name="uni0146" unicode="&#x146;" horiz-adv-x="571" 
d="M180 424l9 -90l-3 11q21 44 64.5 70.5t104.5 26.5q60 0 99 -35t40 -92v-315h-114v274q-1 31 -18 50.5t-53 20.5q-52 0 -85 -44.5t-33 -113.5v-187h-114v424h103zM256 -207l-58 39q23 21 32.5 60t3.5 76l101 -1q5 -28 -3 -61.5t-27.5 -64t-48.5 -48.5z" />
    <glyph glyph-name="Ncaron" unicode="&#x147;" horiz-adv-x="844" 
d="M741 -27l-559 540l35 -14l2 -499h-119v754h5l550 -540l-27 9l-2 506h118v-756h-3zM333 927l86 -88l-30 -8l87 96h104l-173 -177h-1l-177 177h104z" />
    <glyph glyph-name="ncaron" unicode="&#x148;" horiz-adv-x="571" 
d="M180 424l9 -90l-3 11q21 44 64.5 70.5t104.5 26.5q60 0 99 -35t40 -92v-315h-114v274q-1 31 -18 50.5t-53 20.5q-52 0 -85 -44.5t-33 -113.5v-187h-114v424h103zM222 661l86 -88l-30 -8l87 96h104l-173 -177h-1l-177 177h104z" />
    <glyph glyph-name="napostrophe" unicode="&#x149;" horiz-adv-x="590" 
d="M3 416l-58 39q23 21 32.5 60t3.5 76l101 -1q5 -28 -3 -61.5t-27.5 -64t-48.5 -48.5zM199 424l9 -90l-3 11q21 44 64.5 70.5t104.5 26.5q60 0 99 -35t40 -92v-315h-114v274q-1 31 -18 50.5t-53 20.5q-52 0 -85 -44.5t-33 -113.5v-187h-114v424h103z" />
    <glyph glyph-name="Eng" unicode="&#x14a;" horiz-adv-x="805" 
d="M721 -27l-559 541l35 -15l3 -499h-119v754h4l550 -540l-26 9l-3 506h118v-728zM724 37v-38q0 -69 -26.5 -120t-81.5 -83l-66 70q29 23 45 57t16 81v138z" />
    <glyph glyph-name="eng" unicode="&#x14b;" horiz-adv-x="571" 
d="M494 4q0 -68 -26.5 -122t-81.5 -86l-66 70q29 23 44.5 57t15.5 81v270q-1 31 -18 50.5t-53 20.5q-52 0 -85 -44.5t-33 -113.5v-187h-114v424h103l8 -79q22 44 64 70.5t103 26.5q60 0 99 -35t40 -92v-311z" />
    <glyph glyph-name="Omacron" unicode="&#x14c;" horiz-adv-x="855" 
d="M55 364q0 75 29 142.5t80 119t118.5 81.5t143.5 30q77 0 144.5 -30t119.5 -81.5t81 -119t29 -142.5q0 -78 -29 -145t-81 -118.5t-119.5 -80t-144.5 -28.5q-76 0 -143.5 28.5t-118.5 79t-80 118.5t-29 146zM177 363q0 -71 33.5 -129.5t91 -93t128.5 -34.5q70 0 126 34.5
t89 93t33 130.5t-33.5 131t-90.5 93.5t-127 34.5t-127 -35t-90 -94t-33 -131zM299 854h250v-79h-250v79z" />
    <glyph glyph-name="omacron" unicode="&#x14d;" horiz-adv-x="556" 
d="M41 217q0 64 30.5 115.5t85 81t124.5 29.5q71 0 123.5 -29.5t81.5 -81t29 -115.5q0 -65 -29 -116.5t-82 -81.5t-125 -30q-68 0 -122 27.5t-85 79t-31 121.5zM156 216q0 -38 16 -68t44 -47.5t62 -17.5q54 0 88 38t34 95q0 56 -34 94.5t-88 38.5q-35 0 -62.5 -18t-43.5 -48
t-16 -67zM154 569h250v-79h-250v79z" />
    <glyph glyph-name="Obreve" unicode="&#x14e;" horiz-adv-x="855" 
d="M55 364q0 75 29 142.5t80 119t118.5 81.5t143.5 30q77 0 144.5 -30t119.5 -81.5t81 -119t29 -142.5q0 -78 -29 -145t-81 -118.5t-119.5 -80t-144.5 -28.5q-76 0 -143.5 28.5t-118.5 79t-80 118.5t-29 146zM177 363q0 -71 33.5 -129.5t91 -93t128.5 -34.5q70 0 126 34.5
t89 93t33 130.5t-33.5 131t-90.5 93.5t-127 34.5t-127 -35t-90 -94t-33 -131zM428 769q-66 0 -105.5 46t-53.5 135h76q8 -46 27 -75t56 -29t55 29t25 75h77q-12 -91 -51.5 -136t-105.5 -45z" />
    <glyph glyph-name="obreve" unicode="&#x14f;" horiz-adv-x="556" 
d="M41 217q0 64 30.5 115.5t85 81t124.5 29.5q71 0 123.5 -29.5t81.5 -81t29 -115.5q0 -65 -29 -116.5t-82 -81.5t-125 -30q-68 0 -122 27.5t-85 79t-31 121.5zM156 216q0 -38 16 -68t44 -47.5t62 -17.5q54 0 88 38t34 95q0 56 -34 94.5t-88 38.5q-35 0 -62.5 -18t-43.5 -48
t-16 -67zM281 484q-66 0 -105.5 46t-53.5 135h76q8 -46 27 -75t56 -29t55 29t25 75h77q-12 -91 -51.5 -136t-105.5 -45z" />
    <glyph glyph-name="Ohungarumlaut" unicode="&#x150;" horiz-adv-x="855" 
d="M55 364q0 75 29 142.5t80 119t118.5 81.5t143.5 30q77 0 144.5 -30t119.5 -81.5t81 -119t29 -142.5q0 -78 -29 -145t-81 -118.5t-119.5 -80t-144.5 -28.5q-76 0 -143.5 28.5t-118.5 79t-80 118.5t-29 146zM177 363q0 -71 33.5 -129.5t91 -93t128.5 -34.5q70 0 126 34.5
t89 93t33 130.5t-33.5 131t-90.5 93.5t-127 34.5t-127 -35t-90 -94t-33 -131zM482 910l-136 -134h-70l80 134h126zM647 908l-136 -134h-70l80 134h126z" />
    <glyph glyph-name="ohungarumlaut" unicode="&#x151;" horiz-adv-x="556" 
d="M41 217q0 64 30.5 115.5t85 81t124.5 29.5q71 0 123.5 -29.5t81.5 -81t29 -115.5q0 -65 -29 -116.5t-82 -81.5t-125 -30q-68 0 -122 27.5t-85 79t-31 121.5zM156 216q0 -38 16 -68t44 -47.5t62 -17.5q54 0 88 38t34 95q0 56 -34 94.5t-88 38.5q-35 0 -62.5 -18t-43.5 -48
t-16 -67zM347 637l-136 -134h-70l80 134h126zM512 635l-136 -134h-70l80 134h126z" />
    <glyph glyph-name="OE" unicode="&#x152;" horiz-adv-x="1018" 
d="M490 613q-27 6 -55 6q-52 0 -97 -20t-79.5 -55t-54 -81.5t-19.5 -99.5t19.5 -99.5t54.5 -81.5t81 -55t99 -20q28 0 55 6l32 -109q-45 -12 -91 -12q-77 0 -144.5 28.5t-118.5 80t-80 118.5t-29 145q0 75 29 142.5t80 119t118.5 81.5t144.5 30q24 0 48 -3.5t46 -9.5z
M483 729h454v-111h-332v-197h292v-112h-292v-196h346v-113h-468v729z" />
    <glyph glyph-name="oe" unicode="&#x153;" horiz-adv-x="824" 
d="M428 39q-28 -23 -69 -36.5t-81 -13.5q-71 0 -124.5 27.5t-83 77t-29.5 118.5q0 70 32 120t83.5 76.5t109.5 26.5q54 0 95 -14.5t71 -40.5l-56 -73q-16 13 -41.5 24t-58.5 11t-61 -17t-44 -46t-16 -67q0 -36 17 -65.5t46.5 -46.5t68.5 -17q25 0 46.5 7.5t37.5 19.5z
M568 -11q-75 0 -128 29t-81.5 80.5t-28.5 117.5q0 63 32.5 114.5t87 82t120.5 30.5q88 0 145 -50.5t76 -143.5l-341 -115l-26 64l264 94l-23 -13q-11 30 -35 52t-68 22q-53 0 -86 -36.5t-33 -94.5q0 -63 36.5 -99.5t90.5 -36.5q26 0 50 9t45 24l52 -84q-33 -21 -72.5 -33.5
t-76.5 -12.5z" />
    <glyph glyph-name="Racute" unicode="&#x154;" horiz-adv-x="671" 
d="M306 729q82 0 142.5 -28t94 -80t33.5 -127q0 -44 -13 -87t-42.5 -78t-77.5 -56t-119 -21h-106v-252h-118v729h206zM322 366q52 0 80.5 20.5t40 49.5t11.5 54q0 17 -6 38t-20 41t-38.5 33t-62.5 13h-109v-249h104zM449 295l186 -295h-138l-189 292zM477 909l-136 -134h-70
l80 134h126z" />
    <glyph glyph-name="racute" unicode="&#x155;" horiz-adv-x="391" 
d="M179 424l11 -120l-4 17q18 38 49 65.5t64.5 42t54.5 14.5l-6 -113q-48 4 -83 -17.5t-55 -57t-20 -74.5v-181h-113v424h102zM315 617l-136 -134h-70l80 134h126z" />
    <glyph glyph-name="uni0156" unicode="&#x156;" horiz-adv-x="671" 
d="M306 729q82 0 142.5 -28t94 -80t33.5 -127q0 -44 -13 -87t-42.5 -78t-77.5 -56t-119 -21h-106v-252h-118v729h206zM322 366q52 0 80.5 20.5t40 49.5t11.5 54q0 17 -6 38t-20 41t-38.5 33t-62.5 13h-109v-249h104zM449 295l186 -295h-138l-189 292zM311 -223l-58 39
q23 21 32.5 60t3.5 76l101 -1q5 -28 -3 -61.5t-27.5 -64t-48.5 -48.5z" />
    <glyph glyph-name="uni0157" unicode="&#x157;" horiz-adv-x="391" 
d="M179 424l11 -120l-4 17q18 38 49 65.5t64.5 42t54.5 14.5l-6 -113q-48 4 -83 -17.5t-55 -57t-20 -74.5v-181h-113v424h102zM105 -207l-58 39q23 21 32.5 60t3.5 76l101 -1q5 -28 -3 -61.5t-27.5 -64t-48.5 -48.5z" />
    <glyph glyph-name="Rcaron" unicode="&#x158;" horiz-adv-x="671" 
d="M306 729q82 0 142.5 -28t94 -80t33.5 -127q0 -44 -13 -87t-42.5 -78t-77.5 -56t-119 -21h-106v-252h-118v729h206zM322 366q52 0 80.5 20.5t40 49.5t11.5 54q0 17 -6 38t-20 41t-38.5 33t-62.5 13h-109v-249h104zM449 295l186 -295h-138l-189 292zM235 943l86 -88l-30 -8
l87 96h104l-173 -177h-1l-177 177h104z" />
    <glyph glyph-name="rcaron" unicode="&#x159;" horiz-adv-x="391" 
d="M179 424l11 -120l-4 17q18 38 49 65.5t64.5 42t54.5 14.5l-6 -113q-48 4 -83 -17.5t-55 -57t-20 -74.5v-181h-113v424h102zM123 653l86 -88l-30 -8l87 96h104l-173 -177h-1l-177 177h104z" />
    <glyph glyph-name="Sacute" unicode="&#x15a;" horiz-adv-x="582" 
d="M483 578q-40 21 -83.5 35.5t-83.5 14.5q-54 0 -85 -23.5t-31 -66.5q0 -29 21.5 -51t55.5 -39t72 -31q44 -16 85.5 -40.5t68 -66t26.5 -110.5q0 -57 -29 -104.5t-83 -75.5t-132 -28q-67 0 -130.5 21.5t-113.5 55.5l53 93q36 -27 86.5 -46.5t93.5 -19.5q32 0 62 10t50 33
t20 61q0 30 -17.5 52t-46 38t-61.5 29q-34 13 -69.5 29t-65.5 39.5t-49 58t-19 83.5q0 61 28 105.5t78 70t114 28.5q78 0 132.5 -19t96.5 -45zM457 897l-136 -134h-70l80 134h126z" />
    <glyph glyph-name="sacute" unicode="&#x15b;" horiz-adv-x="425" 
d="M205 -9q-49 0 -92.5 17.5t-73.5 49.5l48 64q28 -26 56 -39t52 -13q28 0 48.5 10.5t20.5 34.5q0 20 -14 31.5t-36 19t-46 14.5q-55 17 -82 50.5t-27 76.5q0 33 16.5 63.5t52 50.5t89.5 20q48 0 84 -10.5t67 -35.5l-44 -68q-18 17 -42 26.5t-44 10.5q-27 1 -45.5 -11
t-18.5 -31q0 -20 14.5 -32t37.5 -19t46 -15q46 -15 75.5 -42.5t29.5 -76.5q0 -39 -18.5 -72t-57 -53.5t-96.5 -20.5zM342 625l-136 -134h-70l80 134h126z" />
    <glyph glyph-name="Scircumflex" unicode="&#x15c;" horiz-adv-x="582" 
d="M483 578q-40 21 -83.5 35.5t-83.5 14.5q-54 0 -85 -23.5t-31 -66.5q0 -29 21.5 -51t55.5 -39t72 -31q44 -16 85.5 -40.5t68 -66t26.5 -110.5q0 -57 -29 -104.5t-83 -75.5t-132 -28q-67 0 -130.5 21.5t-113.5 55.5l53 93q36 -27 86.5 -46.5t93.5 -19.5q32 0 62 10t50 33
t20 61q0 30 -17.5 52t-46 38t-61.5 29q-34 13 -69.5 29t-65.5 39.5t-49 58t-19 83.5q0 61 28 105.5t78 70t114 28.5q78 0 132.5 -19t96.5 -45zM355 778l-87 87l30 9l-87 -96h-104l174 177h1l177 -177h-104z" />
    <glyph glyph-name="scircumflex" unicode="&#x15d;" horiz-adv-x="425" 
d="M205 -9q-49 0 -92.5 17.5t-73.5 49.5l48 64q28 -26 56 -39t52 -13q28 0 48.5 10.5t20.5 34.5q0 20 -14 31.5t-36 19t-46 14.5q-55 17 -82 50.5t-27 76.5q0 33 16.5 63.5t52 50.5t89.5 20q48 0 84 -10.5t67 -35.5l-44 -68q-18 17 -42 26.5t-44 10.5q-27 1 -45.5 -11
t-18.5 -31q0 -20 14.5 -32t37.5 -19t46 -15q46 -15 75.5 -42.5t29.5 -76.5q0 -39 -18.5 -72t-57 -53.5t-96.5 -20.5zM285 495l-87 87l30 9l-87 -96h-104l174 177h1l177 -177h-104z" />
    <glyph glyph-name="Scedilla" unicode="&#x15e;" horiz-adv-x="582" 
d="M483 578q-40 21 -83.5 35.5t-83.5 14.5q-54 0 -85 -23.5t-31 -66.5q0 -29 21.5 -51t55.5 -39t72 -31q44 -16 85.5 -40.5t68 -66t26.5 -110.5q0 -57 -29 -104.5t-83 -75.5t-132 -28q-67 0 -130.5 21.5t-113.5 55.5l53 93q36 -27 86.5 -46.5t93.5 -19.5q32 0 62 10t50 33
t20 61q0 30 -17.5 52t-46 38t-61.5 29q-34 13 -69.5 29t-65.5 39.5t-49 58t-19 83.5q0 61 28 105.5t78 70t114 28.5q78 0 132.5 -19t96.5 -45zM209 -154q10 -11 26.5 -18.5t36.5 -7.5q22 0 42 10t20 31q0 14 -12.5 27t-46.5 13q-16 0 -33 -4t-30 -8l-18 54l69 59l88 -2
l-75 -85l-23 28q11 4 24 5.5t26 2.5q55 2 90.5 -21t35.5 -68q0 -35 -20.5 -58t-53.5 -34t-71 -11q-41 0 -67.5 12t-43.5 29z" />
    <glyph glyph-name="scedilla" unicode="&#x15f;" horiz-adv-x="425" 
d="M205 -9q-49 0 -92.5 17.5t-73.5 49.5l48 64q28 -26 56 -39t52 -13q28 0 48.5 10.5t20.5 34.5q0 20 -14 31.5t-36 19t-46 14.5q-55 17 -82 50.5t-27 76.5q0 33 16.5 63.5t52 50.5t89.5 20q48 0 84 -10.5t67 -35.5l-44 -68q-18 17 -42 26.5t-44 10.5q-27 1 -45.5 -11
t-18.5 -31q0 -20 14.5 -32t37.5 -19t46 -15q46 -15 75.5 -42.5t29.5 -76.5q0 -39 -18.5 -72t-57 -53.5t-96.5 -20.5zM129 -153q10 -11 26.5 -18.5t36.5 -7.5q22 0 42 10t20 31q0 14 -12.5 27t-46.5 13q-16 0 -33 -4t-30 -8l-18 54l69 59l88 -2l-75 -85l-23 28q11 4 24 5.5
t26 2.5q55 2 90.5 -21t35.5 -68q0 -35 -20.5 -58t-53.5 -34t-71 -11q-41 0 -67.5 12t-43.5 29z" />
    <glyph glyph-name="Scaron" unicode="&#x160;" horiz-adv-x="582" 
d="M483 578q-40 21 -83.5 35.5t-83.5 14.5q-54 0 -85 -23.5t-31 -66.5q0 -29 21.5 -51t55.5 -39t72 -31q44 -16 85.5 -40.5t68 -66t26.5 -110.5q0 -57 -29 -104.5t-83 -75.5t-132 -28q-67 0 -130.5 21.5t-113.5 55.5l53 93q36 -27 86.5 -46.5t93.5 -19.5q32 0 62 10t50 33
t20 61q0 30 -17.5 52t-46 38t-61.5 29q-34 13 -69.5 29t-65.5 39.5t-49 58t-19 83.5q0 61 28 105.5t78 70t114 28.5q78 0 132.5 -19t96.5 -45zM216 931l86 -88l-30 -8l87 96h104l-173 -177h-1l-177 177h104z" />
    <glyph glyph-name="scaron" unicode="&#x161;" horiz-adv-x="425" 
d="M205 -9q-49 0 -92.5 17.5t-73.5 49.5l48 64q28 -26 56 -39t52 -13q28 0 48.5 10.5t20.5 34.5q0 20 -14 31.5t-36 19t-46 14.5q-55 17 -82 50.5t-27 76.5q0 33 16.5 63.5t52 50.5t89.5 20q48 0 84 -10.5t67 -35.5l-44 -68q-18 17 -42 26.5t-44 10.5q-27 1 -45.5 -11
t-18.5 -31q0 -20 14.5 -32t37.5 -19t46 -15q46 -15 75.5 -42.5t29.5 -76.5q0 -39 -18.5 -72t-57 -53.5t-96.5 -20.5zM150 661l86 -88l-30 -8l87 96h104l-173 -177h-1l-177 177h104z" />
    <glyph glyph-name="uni0162" unicode="&#x162;" horiz-adv-x="583" 
d="M48 729h488v-114h-188v-615h-118v615h-182v114zM211 -146q10 -11 26.5 -18.5t36.5 -7.5q22 0 42 10t20 31q0 14 -12.5 27t-46.5 13q-16 0 -33 -4t-30 -8l-18 54l69 59l88 -2l-75 -85l-23 28q11 4 24 5.5t26 2.5q55 2 90.5 -21t35.5 -68q0 -35 -20.5 -58t-53.5 -34
t-71 -11q-41 0 -67.5 12t-43.5 29z" />
    <glyph glyph-name="uni0163" unicode="&#x163;" horiz-adv-x="375" 
d="M117 610h115v-186h110v-89h-110v-335h-115v335h-72v89h72v186zM89 -145q10 -11 26.5 -18.5t36.5 -7.5q22 0 42 10t20 31q0 14 -12.5 27t-46.5 13q-16 0 -33 -4t-30 -8l-18 54l69 59l88 -2l-75 -85l-23 28q11 4 24 5.5t26 2.5q55 2 90.5 -21t35.5 -68q0 -35 -20.5 -58
t-53.5 -34t-71 -11q-41 0 -67.5 12t-43.5 29z" />
    <glyph glyph-name="Tcaron" unicode="&#x164;" horiz-adv-x="583" 
d="M48 729h488v-114h-188v-615h-118v615h-182v114zM218 927l86 -88l-30 -8l87 96h104l-173 -177h-1l-177 177h104z" />
    <glyph glyph-name="tcaron" unicode="&#x165;" horiz-adv-x="375" 
d="M117 610h115v-186h110v-89h-110v-335h-115v335h-72v89h72v186zM324 495l-58 39q23 21 32.5 60t3.5 76l101 -1q5 -28 -3 -61.5t-27.5 -64t-48.5 -48.5z" />
    <glyph glyph-name="Tbar" unicode="&#x166;" horiz-adv-x="583" 
d="M48 729h488v-114h-188v-615h-118v615h-182v114zM141 415h295v-106h-295v106z" />
    <glyph glyph-name="tbar" unicode="&#x167;" horiz-adv-x="375" 
d="M117 610h115v-186h110v-89h-110v-335h-115v335h-72v89h72v186zM29 243h295v-106h-295v106z" />
    <glyph glyph-name="Utilde" unicode="&#x168;" horiz-adv-x="742" 
d="M206 263q0 -42 22 -77.5t59.5 -57t82.5 -21.5q49 0 86.5 21.5t59.5 57t22 77.5v466h116v-469q0 -79 -38 -139.5t-102.5 -94.5t-143.5 -34v0q-78 0 -142.5 34t-102 94.5t-37.5 139.5v469h118v-466zM448 812q-33 0 -55 14t-39 30q-12 10 -23.5 18.5t-24.5 8.5
q-20 0 -29 -21t-7 -50h-59q-4 39 7.5 72t35.5 52.5t58 19.5q26 0 45.5 -14t35.5 -29q14 -13 26.5 -22.5t26.5 -9.5q19 0 25.5 22t5.5 52h59q6 -42 -5 -74.5t-33 -50.5t-50 -18z" />
    <glyph glyph-name="utilde" unicode="&#x169;" horiz-adv-x="563" 
d="M213 -18q-58 0 -96 35.5t-40 91.5v315h114v-274q2 -32 17.5 -51t50.5 -20q33 0 58.5 20.5t40 56.5t14.5 82v186h114v-424h-103l-9 92l3 -14q-20 -42 -63 -69t-101 -27zM361 478q-33 0 -54.5 14.5t-40.5 30.5q-11 10 -22.5 18.5t-24.5 8.5q-19 0 -28.5 -21.5t-8.5 -49.5
h-58q-4 39 7 72t35.5 52.5t58.5 19.5q26 0 45 -14t36 -29q14 -13 26.5 -22.5t25.5 -9.5q20 0 26.5 21.5t5.5 52.5h59q6 -42 -5 -74.5t-33 -51t-50 -18.5z" />
    <glyph glyph-name="Umacron" unicode="&#x16a;" horiz-adv-x="742" 
d="M206 263q0 -42 22 -77.5t59.5 -57t82.5 -21.5q49 0 86.5 21.5t59.5 57t22 77.5v466h116v-469q0 -79 -38 -139.5t-102.5 -94.5t-143.5 -34v0q-78 0 -142.5 34t-102 94.5t-37.5 139.5v469h118v-466zM242 862h250v-79h-250v79z" />
    <glyph glyph-name="umacron" unicode="&#x16b;" horiz-adv-x="563" 
d="M213 -18q-58 0 -96 35.5t-40 91.5v315h114v-274q2 -32 17.5 -51t50.5 -20q33 0 58.5 20.5t40 56.5t14.5 82v186h114v-424h-103l-9 92l3 -14q-20 -42 -63 -69t-101 -27zM158 569h250v-79h-250v79z" />
    <glyph glyph-name="Ubreve" unicode="&#x16c;" horiz-adv-x="742" 
d="M206 263q0 -42 22 -77.5t59.5 -57t82.5 -21.5q49 0 86.5 21.5t59.5 57t22 77.5v466h116v-469q0 -79 -38 -139.5t-102.5 -94.5t-143.5 -34v0q-78 0 -142.5 34t-102 94.5t-37.5 139.5v469h118v-466zM372 778q-66 0 -105.5 46t-53.5 135h76q8 -46 27 -75t56 -29t55 29t25 75
h77q-12 -91 -51.5 -136t-105.5 -45z" />
    <glyph glyph-name="ubreve" unicode="&#x16d;" horiz-adv-x="563" 
d="M213 -18q-58 0 -96 35.5t-40 91.5v315h114v-274q2 -32 17.5 -51t50.5 -20q33 0 58.5 20.5t40 56.5t14.5 82v186h114v-424h-103l-9 92l3 -14q-20 -42 -63 -69t-101 -27zM286 484q-66 0 -105.5 46t-53.5 135h76q8 -46 27 -75t56 -29t55 29t25 75h77q-12 -91 -51.5 -136
t-105.5 -45z" />
    <glyph glyph-name="Uring" unicode="&#x16e;" horiz-adv-x="742" 
d="M206 263q0 -42 22 -77.5t59.5 -57t82.5 -21.5q49 0 86.5 21.5t59.5 57t22 77.5v466h116v-469q0 -79 -38 -139.5t-102.5 -94.5t-143.5 -34v0q-78 0 -142.5 34t-102 94.5t-37.5 139.5v469h118v-466zM273 871q0 43 29 69.5t73 26.5q43 0 72 -26.5t29 -69.5q0 -42 -29 -69
t-72 -27q-44 0 -73 26.5t-29 69.5zM333 870q0 -19 11.5 -31t30.5 -12q18 0 29.5 12t11.5 31q0 20 -11.5 31.5t-29.5 11.5q-19 0 -30.5 -11.5t-11.5 -31.5z" />
    <glyph glyph-name="uring" unicode="&#x16f;" horiz-adv-x="563" 
d="M213 -18q-58 0 -96 35.5t-40 91.5v315h114v-274q2 -32 17.5 -51t50.5 -20q33 0 58.5 20.5t40 56.5t14.5 82v186h114v-424h-103l-9 92l3 -14q-20 -42 -63 -69t-101 -27zM171 568q0 43 29 69.5t73 26.5q43 0 72 -26.5t29 -69.5q0 -42 -29 -69t-72 -27q-44 0 -73 26.5
t-29 69.5zM231 567q0 -19 11.5 -31t30.5 -12q18 0 29.5 12t11.5 31q0 20 -11.5 31.5t-29.5 11.5q-19 0 -30.5 -11.5t-11.5 -31.5z" />
    <glyph glyph-name="Uhungarumlaut" unicode="&#x170;" horiz-adv-x="742" 
d="M206 263q0 -42 22 -77.5t59.5 -57t82.5 -21.5q49 0 86.5 21.5t59.5 57t22 77.5v466h116v-469q0 -79 -38 -139.5t-102.5 -94.5t-143.5 -34v0q-78 0 -142.5 34t-102 94.5t-37.5 139.5v469h118v-466zM426 919l-136 -134h-70l80 134h126zM591 917l-136 -134h-70l80 134h126z
" />
    <glyph glyph-name="uhungarumlaut" unicode="&#x171;" horiz-adv-x="563" 
d="M213 -18q-58 0 -96 35.5t-40 91.5v315h114v-274q2 -32 17.5 -51t50.5 -20q33 0 58.5 20.5t40 56.5t14.5 82v186h114v-424h-103l-9 92l3 -14q-20 -42 -63 -69t-101 -27zM352 637l-136 -134h-70l80 134h126zM517 635l-136 -134h-70l80 134h126z" />
    <glyph glyph-name="Uogonek" unicode="&#x172;" horiz-adv-x="742" 
d="M476 -223q-53 0 -91.5 32.5t-38.5 85.5q0 33 21.5 65.5t59.5 49.5l34 47l12 -48q-48 -17 -103 -17q-84 0 -148 34t-99 94.5t-35 139.5v469h118v-466q0 -42 22 -77.5t59.5 -57t82.5 -21.5q49 0 86.5 21.5t59.5 57t22 77.5v466h116v-476q0 -57 -19 -99t-48.5 -72.5
t-60.5 -54.5q-35 -29 -60 -57.5t-25 -65.5q0 -26 14 -36t32 -10q39 0 70 48l42 -58q-20 -31 -55 -51t-68 -20z" />
    <glyph glyph-name="uogonek" unicode="&#x173;" horiz-adv-x="568" 
d="M430 -223q-54 0 -92 32.5t-38 85.5q0 34 23 66t63 49l63 9l40 -19q-43 -20 -69 -42t-26 -54q0 -26 14 -36t33 -10q39 0 69 48l43 -58q-20 -31 -55 -51t-68 -20zM213 -18q-58 0 -96 35.5t-40 91.5v315h114v-274q2 -32 17.5 -51t50.5 -20q33 0 58.5 20.5t40 56.5t14.5 82
v186h114v-424h-103l-9 92l3 -14q-20 -42 -63 -69t-101 -27z" />
    <glyph glyph-name="Wcircumflex" unicode="&#x174;" horiz-adv-x="1014" 
d="M37 724h138l179 -512l-20 8l140 358l55 -161l-201 -451zM394 724h118l198 -501l-23 4l164 497h127l-284 -756zM574 781l-87 87l30 9l-87 -96h-104l174 177h1l177 -177h-104z" />
    <glyph glyph-name="wcircumflex" unicode="&#x175;" horiz-adv-x="679" 
d="M363 424l110 -255l-21 -2l100 257h111l-193 -449l-136 286l-124 -286l-195 449h111l119 -270l-40 6l89 202l-29 62h98zM411 487l-87 87l30 9l-87 -96h-104l174 177h1l177 -177h-104z" />
    <glyph glyph-name="Ycircumflex" unicode="&#x176;" horiz-adv-x="705" 
d="M291 236l-269 493h146l204 -392l-36 -2l201 394h145l-272 -493v-236h-119v236zM434 788l-87 87l30 9l-87 -96h-104l174 177h1l177 -177h-104z" />
    <glyph glyph-name="ycircumflex" unicode="&#x177;" horiz-adv-x="511" 
d="M112 -204l281 628h104l-274 -628h-111zM221 -3l-206 427h128l166 -369zM335 487l-87 87l30 9l-87 -96h-104l174 177h1l177 -177h-104z" />
    <glyph glyph-name="Ydieresis" unicode="&#x178;" horiz-adv-x="705" 
d="M291 236l-269 493h146l204 -392l-36 -2l201 394h145l-272 -493v-236h-119v236zM206 838q0 27 19 45t42 18q22 0 41 -18t19 -45t-19 -44t-41 -17q-23 0 -42 17t-19 44v0zM398 838q0 27 19.5 45t42.5 18q21 0 40.5 -18t19.5 -45t-19.5 -44t-40.5 -17q-23 0 -42.5 17
t-19.5 44v0z" />
    <glyph glyph-name="Zacute" unicode="&#x179;" horiz-adv-x="717" 
d="M48 0l26 39t49.5 75t64.5 99.5t72 111t72 110.5t64 99t49 75t27 38l14 -32h-303q-20 0 -40.5 8t-34 23t-13.5 35v84h109v-13q0 -20 7 -21.5t24 -1.5h423l-416 -629l-7 14h429v-114h-616zM526 893l-136 -134h-70l80 134h126z" />
    <glyph glyph-name="zacute" unicode="&#x17a;" horiz-adv-x="489" 
d="M129 331q-34 0 -58 22.5t-24 62.5v49h86v-14q0 -18 8 -22.5t26 -4.5h270l-245 -354l-22 23h264v-93h-409l251 364l17 -33h-164zM374 617l-136 -134h-70l80 134h126z" />
    <glyph glyph-name="Zdotaccent" unicode="&#x17b;" horiz-adv-x="717" 
d="M48 0l26 39t49.5 75t64.5 99.5t72 111t72 110.5t64 99t49 75t27 38l14 -32h-303q-20 0 -40.5 8t-34 23t-13.5 35v84h109v-13q0 -20 7 -21.5t24 -1.5h423l-416 -629l-7 14h429v-114h-616zM294 821q0 26 20.5 43.5t44.5 17.5t44 -17.5t20 -43.5q0 -27 -20 -43.5t-44 -16.5
t-44.5 16.5t-20.5 43.5z" />
    <glyph glyph-name="zdotaccent" unicode="&#x17c;" horiz-adv-x="489" 
d="M129 331q-34 0 -58 22.5t-24 62.5v49h86v-14q0 -18 8 -22.5t26 -4.5h270l-245 -354l-22 23h264v-93h-409l251 364l17 -33h-164zM182 576q0 26 20.5 43.5t44.5 17.5t44 -17.5t20 -43.5q0 -27 -20 -43.5t-44 -16.5t-44.5 16.5t-20.5 43.5z" />
    <glyph glyph-name="Zcaron" unicode="&#x17d;" horiz-adv-x="717" 
d="M48 0l26 39t49.5 75t64.5 99.5t72 111t72 110.5t64 99t49 75t27 38l14 -32h-303q-20 0 -40.5 8t-34 23t-13.5 35v84h109v-13q0 -20 7 -21.5t24 -1.5h423l-416 -629l-7 14h429v-114h-616zM285 927l86 -88l-30 -8l87 96h104l-173 -177h-1l-177 177h104z" />
    <glyph glyph-name="zcaron" unicode="&#x17e;" horiz-adv-x="489" 
d="M129 331q-34 0 -58 22.5t-24 62.5v49h86v-14q0 -18 8 -22.5t26 -4.5h270l-245 -354l-22 23h264v-93h-409l251 364l17 -33h-164zM182 653l86 -88l-30 -8l87 96h104l-173 -177h-1l-177 177h104z" />
    <glyph glyph-name="uni018F" unicode="&#x18f;" horiz-adv-x="790" 
d="M376 736q82 0 148.5 -27t113.5 -76t72.5 -114.5t25.5 -141.5q0 -81 -28.5 -150t-79 -120.5t-115.5 -80t-140 -28.5q-130 0 -215 83t-114 226l583 200l26 -86l-507 -180l37 36q22 -75 72 -124t127 -49q61 0 113 35.5t83.5 95.5t31.5 136q0 74 -33.5 130t-88 87.5
t-115.5 31.5q-35 0 -73 -11t-70.5 -31t-54.5 -44l-58 96q29 29 74 53t94.5 38.5t90.5 14.5z" />
    <glyph glyph-name="florin" unicode="&#x192;" horiz-adv-x="349" 
d="M97 516q0 89 33.5 146.5t93.5 87t138 31.5v-114q-78 -4 -112.5 -44t-34.5 -110v-88h132v-109h-132v-217q0 -133 -65 -197t-200 -68v113q79 4 113 45t34 111v213h-73v109h73v91z" />
    <glyph glyph-name="uni019D" unicode="&#x19d;" horiz-adv-x="825" 
d="M721 -27l-559 541l35 -15l3 -499h-119v754h4l550 -540l-26 9l-3 506h118v-728zM200 37v-38q0 -69 -26.5 -120t-81.5 -83l-73 70q29 23 45.5 57t16.5 81v138z" />
    <glyph glyph-name="Ohorn" unicode="&#x1a0;" horiz-adv-x="855" 
d="M55 364q0 75 29 142.5t80 119t118.5 81.5t143.5 30q77 0 144.5 -30t119.5 -81.5t81 -119t29 -142.5q0 -78 -29 -145t-81 -118.5t-119.5 -80t-144.5 -28.5q-76 0 -143.5 28.5t-118.5 79t-80 118.5t-29 146zM177 363q0 -71 33.5 -129.5t91 -93t128.5 -34.5q70 0 126 34.5
t89 93t33 130.5t-33.5 131t-90.5 93.5t-127 34.5t-127 -35t-90 -94t-33 -131zM499 730q39 0 54 17.5t22 65.5h85q-9 -64 -30 -96.5t-54 -44t-77 -11.5v69z" />
    <glyph glyph-name="ohorn" unicode="&#x1a1;" horiz-adv-x="556" 
d="M41 217q0 64 30.5 115.5t85 81t124.5 29.5q71 0 123.5 -29.5t81.5 -81t29 -115.5q0 -65 -29 -116.5t-82 -81.5t-125 -30q-68 0 -122 27.5t-85 79t-31 121.5zM156 216q0 -38 16 -68t44 -47.5t62 -17.5q54 0 88 38t34 95q0 56 -34 94.5t-88 38.5q-35 0 -62.5 -18t-43.5 -48
t-16 -67zM362 425q39 0 60.5 21.5t28.5 68.5h85q-9 -63 -33 -97t-60 -48t-81 -14v69z" />
    <glyph glyph-name="Uhorn" unicode="&#x1af;" horiz-adv-x="768" 
d="M206 263q0 -42 22 -77.5t59.5 -57t82.5 -21.5q49 0 86.5 21.5t59.5 57t22 77.5v466h116v-469q0 -79 -38 -139.5t-102.5 -94.5t-143.5 -34v0q-78 0 -142.5 34t-102 94.5t-37.5 139.5v469h118v-466zM634 673q39 0 54 17.5t22 65.5h85q-9 -64 -30 -96.5t-54 -44t-77 -11.5
v69z" />
    <glyph glyph-name="uhorn" unicode="&#x1b0;" horiz-adv-x="570" 
d="M213 -18q-58 0 -96 35.5t-40 91.5v315h114v-274q2 -32 17.5 -51t50.5 -20q33 0 58.5 20.5t40 56.5t14.5 82v186h114v-424h-103l-9 92l3 -14q-20 -42 -63 -69t-101 -27zM421 425q39 0 60.5 21.5t28.5 68.5h85q-9 -63 -33 -97t-60 -48t-81 -14v69z" />
    <glyph glyph-name="uni01C4" unicode="&#x1c4;" horiz-adv-x="1409" 
d="M100 0v729h208q109 0 185 -33t123 -87.5t68.5 -121t21.5 -133.5q0 -82 -28.5 -147.5t-79.5 -111.5t-116.5 -70.5t-138.5 -24.5h-243zM218 114h103q78 0 137 28.5t92.5 84t33.5 135.5q0 69 -22.5 117t-59 78t-79 44t-82.5 14h-123v-501zM741 0l26 39t49.5 75t64.5 99.5
t72 111t72 110.5t64 99t49 75t27 38l14 -32h-303q-20 0 -40.5 8t-34 23t-13.5 35v84h109v-13q0 -20 7 -21.5t24 -1.5h423l-416 -629l-7 14h429v-114h-616zM977 927l86 -88l-30 -8l87 96h104l-173 -177h-1l-177 177h104z" />
    <glyph glyph-name="uni01C5" unicode="&#x1c5;" horiz-adv-x="1250" 
d="M100 0v729h208q109 0 185 -33t123 -87.5t68.5 -121t21.5 -133.5q0 -82 -28.5 -147.5t-79.5 -111.5t-116.5 -70.5t-138.5 -24.5h-243zM218 114h103q78 0 137 28.5t92.5 84t33.5 135.5q0 69 -22.5 117t-59 78t-79 44t-82.5 14h-123v-501zM890 331q-34 0 -58 22.5t-24 62.5
v49h86v-14q0 -18 8 -22.5t26 -4.5h270l-245 -354l-22 23h264v-93h-409l251 364l17 -33h-164zM943 653l86 -88l-30 -8l87 96h104l-173 -177h-1l-177 177h104z" />
    <glyph glyph-name="uni01C6" unicode="&#x1c6;" horiz-adv-x="1095" 
d="M250 -11q-60 0 -107 28t-74.5 80t-27.5 122q0 71 29.5 121t80 76.5t113.5 26.5q46 0 88 -17.5t67 -49.5l-3 -38v443h114v-781h-115v95l11 -28q-31 -33 -75.5 -55.5t-100.5 -22.5zM286 85q49 0 82 24t47 66v91q-11 38 -46.5 62.5t-82.5 24.5q-34 0 -63.5 -17t-47.5 -47
t-18 -69q0 -37 18 -68t47.5 -49t63.5 -18zM736 331q-34 0 -58 22.5t-24 62.5v49h86v-14q0 -18 8 -22.5t26 -4.5h270l-245 -354l-22 23h264v-93h-409l251 364l17 -33h-164zM789 653l86 -88l-30 -8l87 96h104l-173 -177h-1l-177 177h104z" />
    <glyph glyph-name="uni01C7" unicode="&#x1c7;" horiz-adv-x="1011" 
d="M100 729h118v-615h358v-114h-476v729zM910 142q0 -92 -35 -156.5t-97.5 -99t-143.5 -37.5v0v115q69 4 113.5 46t44.5 135v584h118v-587z" />
    <glyph glyph-name="uni01C8" unicode="&#x1c8;" horiz-adv-x="905" 
d="M100 729h118v-615h358v-114h-476v729zM723 -204l-67 70q29 23 45.5 57t16.5 81v420h114v-425q0 -74 -25.5 -124t-83.5 -79zM711 576q0 26 20.5 43.5t44.5 17.5t44 -17.5t20 -43.5q0 -27 -20 -43.5t-44 -16.5t-44.5 16.5t-20.5 43.5z" />
    <glyph glyph-name="uni01C9" unicode="&#x1c9;" horiz-adv-x="542" 
d="M77 781h114v-781h-114v781zM360 -204l-67 70q29 23 45.5 57t16.5 81v420h114v-425q0 -74 -25.5 -124t-83.5 -79zM348 576q0 26 20.5 43.5t44.5 17.5t44 -17.5t20 -43.5q0 -27 -20 -43.5t-44 -16.5t-44.5 16.5t-20.5 43.5z" />
    <glyph glyph-name="uni01CA" unicode="&#x1ca;" horiz-adv-x="1225" 
d="M741 -27l-559 540l35 -14l2 -499h-119v754h5l550 -540l-27 9l-2 506h118v-756h-3zM1124 142q0 -92 -35 -156.5t-97.5 -99t-143.5 -37.5v0v115q69 4 113.5 46t44.5 135v584h118v-587z" />
    <glyph glyph-name="uni01CB" unicode="&#x1cb;" horiz-adv-x="1119" 
d="M741 -27l-559 540l35 -14l2 -499h-119v754h5l550 -540l-27 9l-2 506h118v-756h-3zM937 -204l-67 70q29 23 45.5 57t16.5 81v420h114v-425q0 -74 -25.5 -124t-83.5 -79zM925 576q0 26 20.5 43.5t44.5 17.5t44 -17.5t20 -43.5q0 -27 -20 -43.5t-44 -16.5t-44.5 16.5
t-20.5 43.5z" />
    <glyph glyph-name="uni01CC" unicode="&#x1cc;" horiz-adv-x="835" 
d="M180 424l9 -90l-3 11q21 44 64.5 70.5t104.5 26.5q60 0 99 -35t40 -92v-315h-114v274q-1 31 -18 50.5t-53 20.5q-52 0 -85 -44.5t-33 -113.5v-187h-114v424h103zM645 -204l-67 70q29 23 45.5 57t16.5 81v420h114v-425q0 -74 -25.5 -124t-83.5 -79zM633 576
q0 26 20.5 43.5t44.5 17.5t44 -17.5t20 -43.5q0 -27 -20 -43.5t-44 -16.5t-44.5 16.5t-20.5 43.5z" />
    <glyph glyph-name="uni01D3" unicode="&#x1d3;" horiz-adv-x="742" 
d="M206 263q0 -42 22 -77.5t59.5 -57t82.5 -21.5q49 0 86.5 21.5t59.5 57t22 77.5v466h116v-469q0 -79 -38 -139.5t-102.5 -94.5t-143.5 -34v0q-78 0 -142.5 34t-102 94.5t-37.5 139.5v469h118v-466zM298 943l86 -88l-30 -8l87 96h104l-173 -177h-1l-177 177h104z" />
    <glyph glyph-name="Gcaron" unicode="&#x1e6;" horiz-adv-x="756" 
d="M680 67q-14 -13 -41.5 -26.5t-62 -24.5t-70.5 -17.5t-68 -6.5q-117 0 -203 46.5t-133 126.5t-47 182q0 96 30 168.5t82 122t119.5 74.5t142.5 25q67 0 123 -15.5t97 -38.5l-39 -109q-19 11 -48.5 21.5t-61 16.5t-56.5 6q-83 0 -142.5 -31t-92 -89t-32.5 -141
q0 -74 33.5 -129.5t93 -86.5t137.5 -31q34 0 65.5 6t53.5 19v119h-136v114h256v-301zM335 927l86 -88l-30 -8l87 96h104l-173 -177h-1l-177 177h104z" />
    <glyph glyph-name="gcaron" unicode="&#x1e7;" horiz-adv-x="614" 
d="M288 -212q-52 0 -89.5 12.5t-65.5 31.5t-53 41l67 78q29 -27 61.5 -45t77.5 -18q62 0 99 30t38 82v105l6 -21q-17 -40 -61.5 -67.5t-111.5 -27.5q-58 0 -107 29.5t-78.5 80.5t-29.5 115q0 67 31 118.5t81.5 81t107.5 29.5q56 0 99.5 -19.5t64.5 -49.5l-5 -16l12 66h105
v-426q0 -59 -32 -106.5t-88 -75.5t-129 -28zM156 218q0 -39 18 -69.5t48 -48t67 -17.5q50 0 84.5 23.5t49.5 63.5v93q-13 39 -49 63t-85 24q-37 0 -67 -17t-48 -46.5t-18 -68.5zM243 669l86 -88l-30 -8l87 96h104l-173 -177h-1l-177 177h104z" />
    <glyph glyph-name="uni01EA" unicode="&#x1ea;" horiz-adv-x="855" 
d="M426 -8q-76 0 -143.5 28.5t-118.5 79t-80 118.5t-29 146q0 75 29 142.5t80 119t118.5 81.5t143.5 30q77 0 144.5 -30t119.5 -81.5t81 -119t29 -142.5t-20 -131t-52 -97.5t-68 -71.5q-39 -33 -76.5 -57.5t-61.5 -47.5t-24 -53q0 -28 14.5 -38t31.5 -10q40 0 70 48l42 -58
q-20 -31 -54.5 -51t-67.5 -20q-54 0 -92 28.5t-38 81.5q0 38 25.5 69.5t66.5 47.5l104 36q-39 -22 -82.5 -35t-91.5 -13zM430 107q70 0 126 34.5t89 93t33 129.5q0 52 -19.5 98.5t-53.5 81.5t-79.5 55t-98.5 20q-70 0 -127 -34.5t-90 -93t-33 -128.5t33.5 -128.5t91 -93
t128.5 -34.5z" />
    <glyph glyph-name="uni01EB" unicode="&#x1eb;" horiz-adv-x="562" 
d="M349 -223q-32 0 -60 13.5t-45.5 40.5t-17.5 67q0 37 24 69t64 50l37 -2q-11 -10 -31.5 -18t-37.5 -8q-68 0 -122 27.5t-84.5 79t-30.5 121.5q0 64 30.5 115t84.5 81t124 30q71 0 123.5 -29.5t81.5 -81t29 -115.5t-31.5 -116.5t-83.5 -88.5q-36 -26 -59 -48t-23 -57
q0 -24 14 -36.5t32 -12.5q39 0 70 48l42 -58q-20 -31 -56 -51t-74 -20zM280 83q55 0 89 38t34 95q0 56 -34 94.5t-89 38.5q-34 0 -61.5 -18t-43.5 -48t-16 -67q0 -38 16 -68t43.5 -47.5t61.5 -17.5z" />
    <glyph glyph-name="uni01F3" unicode="&#x1f3;" horiz-adv-x="1095" 
d="M250 -11q-60 0 -107 28t-74.5 80t-27.5 122q0 71 29.5 121t80 76.5t113.5 26.5q46 0 88 -17.5t67 -49.5l-3 -38v443h114v-781h-115v95l11 -28q-31 -33 -75.5 -55.5t-100.5 -22.5zM286 85q49 0 82 24t47 66v91q-11 38 -46.5 62.5t-82.5 24.5q-34 0 -63.5 -17t-47.5 -47
t-18 -69q0 -37 18 -68t47.5 -49t63.5 -18zM736 331q-34 0 -58 22.5t-24 62.5v49h86v-14q0 -18 8 -22.5t26 -4.5h270l-245 -354l-22 23h264v-93h-409l251 364l17 -33h-164z" />
    <glyph glyph-name="Aringacute" unicode="&#x1fa;" horiz-adv-x="699" 
d="M23 0l323 758h7l323 -758h-137l-225 573l85 57l-259 -630h-117zM227 270h247l41 -101h-324zM251 886q0 43 29 69.5t73 26.5q43 0 72 -26.5t29 -69.5q0 -42 -29 -69t-72 -27q-44 0 -73 26.5t-29 69.5zM311 885q0 -19 11.5 -31t30.5 -12q18 0 29.5 12t11.5 31
q0 20 -11.5 31.5t-29.5 11.5q-19 0 -30.5 -11.5t-11.5 -31.5zM517 1154l-136 -134h-70l80 134h126z" />
    <glyph glyph-name="aringacute" unicode="&#x1fb;" horiz-adv-x="599" 
d="M255 -11q-60 0 -108.5 25t-77 74.5t-28.5 123.5q0 71 30 123t78.5 80t104.5 28q62 0 99 -24t59 -56l-6 -16l11 77h105v-424h-114v102l10 -26q-3 -6 -15 -19.5t-32.5 -29t-49.5 -27t-66 -11.5zM286 83q46 0 77.5 23t44.5 65v93q-12 38 -46 62t-80 24q-34 0 -62.5 -16.5
t-45.5 -46.5t-17 -69t18 -69.5t47.5 -48t63.5 -17.5zM203 568q0 43 29 69.5t73 26.5q43 0 72 -26.5t29 -69.5q0 -42 -29 -69t-72 -27q-44 0 -73 26.5t-29 69.5zM263 567q0 -19 11.5 -31t30.5 -12q18 0 29.5 12t11.5 31q0 20 -11.5 31.5t-29.5 11.5q-19 0 -30.5 -11.5
t-11.5 -31.5zM443 857l-136 -134h-70l80 134h126z" />
    <glyph glyph-name="AEacute" unicode="&#x1fc;" horiz-adv-x="958" 
d="M481 729h402v-114h-284v-194h244v-114h-244v-193h298v-114h-416v729zM496 593q-2 -10 -6 -23t-5 -15l-339 -555h-137l472 729zM249 265h247v-94h-283zM830 909l-136 -134h-70l80 134h126z" />
    <glyph glyph-name="aeacute" unicode="&#x1fd;" horiz-adv-x="830" 
d="M208 -11q-86 0 -126.5 38t-40.5 95q0 41 25.5 70.5t67 45t86.5 15.5q46 0 89.5 -13.5t67.5 -32.5l-19 -66q-29 20 -52.5 29t-58.5 9q-34 0 -57 -12.5t-23 -41.5q0 -26 19 -41.5t54 -15.5q28 0 59 15t47 35v52h46v-102q-31 -40 -80.5 -59.5t-103.5 -19.5zM337 210v53
q0 35 -16.5 53.5t-37.5 25.5t-36 7q-40 0 -70.5 -20t-50.5 -45l-57 73q32 34 80 59.5t114 25.5q52 0 93.5 -16.5t66 -49.5t24.5 -82v-26zM574 -11q-74 0 -127.5 29t-81.5 80.5t-28 117.5q0 63 32 114.5t86.5 82t121.5 30.5q87 0 144 -50.5t76 -143.5l-341 -115l-26 64
l265 94l-24 -13q-11 30 -35 52t-68 22q-53 0 -86 -36.5t-33 -94.5q0 -63 36.5 -99.5t91.5 -36.5q25 0 49 9t46 24l51 -84q-33 -21 -72 -33.5t-77 -12.5zM542 617l-136 -134h-70l80 134h126z" />
    <glyph glyph-name="Oslashacute" unicode="&#x1fe;" horiz-adv-x="858" 
d="M761 682l-601 -700l-75 67l603 701zM55 364q0 75 29 142.5t80 119t118.5 81.5t143.5 30q77 0 144.5 -30t119.5 -81.5t81 -119t29 -142.5q0 -78 -29 -145t-81 -118.5t-119.5 -80t-144.5 -28.5q-76 0 -143.5 28.5t-118.5 79t-80 118.5t-29 146zM177 363q0 -71 33.5 -129.5
t91 -93t128.5 -34.5q70 0 126 34.5t89 93t33 130.5t-33.5 131t-90.5 93.5t-127 34.5t-127 -35t-90 -94t-33 -131zM594 901l-136 -134h-70l80 134h126z" />
    <glyph glyph-name="oslashacute" unicode="&#x1ff;" horiz-adv-x="532" 
d="M493 414l-387 -444l-55 51l385 440zM41 217q0 64 30.5 115.5t85 81t124.5 29.5q71 0 123.5 -29.5t81.5 -81t29 -115.5q0 -65 -29 -116.5t-82 -81.5t-125 -30q-68 0 -122 27.5t-85 79t-31 121.5zM156 216q0 -38 16 -68t44 -47.5t62 -17.5q54 0 88 38t34 95q0 56 -34 94.5
t-88 38.5q-35 0 -62.5 -18t-43.5 -48t-16 -67zM394 617l-136 -134h-70l80 134h126z" />
    <glyph glyph-name="uni0200" unicode="&#x200;" horiz-adv-x="699" 
d="M23 0l323 758h7l323 -758h-137l-225 573l85 57l-259 -630h-117zM227 270h247l41 -101h-324zM133 936h126l68 -134h-70zM288 936h126l68 -134h-70z" />
    <glyph glyph-name="uni0201" unicode="&#x201;" horiz-adv-x="599" 
d="M255 -11q-60 0 -108.5 25t-77 74.5t-28.5 123.5q0 71 30 123t78.5 80t104.5 28q62 0 99 -24t59 -56l-6 -16l11 77h105v-424h-114v102l10 -26q-3 -6 -15 -19.5t-32.5 -29t-49.5 -27t-66 -11.5zM286 83q46 0 77.5 23t44.5 65v93q-12 38 -46 62t-80 24q-34 0 -62.5 -16.5
t-45.5 -46.5t-17 -69t18 -69.5t47.5 -48t63.5 -17.5zM88 637h126l68 -134h-70zM243 637h126l68 -134h-70z" />
    <glyph glyph-name="uni0202" unicode="&#x202;" horiz-adv-x="699" 
d="M23 0l323 758h7l323 -758h-137l-225 573l85 57l-259 -630h-117zM227 270h247l41 -101h-324zM344 950q67 0 106.5 -46t52.5 -135h-77q-8 46 -26.5 75t-55.5 29t-55 -29t-26 -75h-76q13 91 52 136t105 45z" />
    <glyph glyph-name="uni0203" unicode="&#x203;" horiz-adv-x="599" 
d="M255 -11q-60 0 -108.5 25t-77 74.5t-28.5 123.5q0 71 30 123t78.5 80t104.5 28q62 0 99 -24t59 -56l-6 -16l11 77h105v-424h-114v102l10 -26q-3 -6 -15 -19.5t-32.5 -29t-49.5 -27t-66 -11.5zM286 83q46 0 77.5 23t44.5 65v93q-12 38 -46 62t-80 24q-34 0 -62.5 -16.5
t-45.5 -46.5t-17 -69t18 -69.5t47.5 -48t63.5 -17.5zM319 661q67 0 106 -46t52 -135h-76q-8 46 -26.5 75t-55.5 29t-55.5 -29t-25.5 -75h-77q13 91 52.5 136t105.5 45z" />
    <glyph glyph-name="uni0204" unicode="&#x204;" horiz-adv-x="659" 
d="M100 729h484v-114h-366v-192h326v-114h-326v-195h380v-114h-498v729zM123 921h126l68 -134h-70zM278 921h126l68 -134h-70z" />
    <glyph glyph-name="uni0205" unicode="&#x205;" horiz-adv-x="534" 
d="M279 -11q-75 0 -128 29t-81.5 80.5t-28.5 117.5q0 63 32.5 114.5t87 82t120.5 30.5q88 0 145 -50.5t76 -143.5l-341 -115l-26 64l264 94l-23 -13q-11 30 -35 52t-68 22q-53 0 -86 -36.5t-33 -94.5q0 -63 36.5 -99.5t90.5 -36.5q26 0 50 9t45 24l52 -84
q-33 -21 -72.5 -33.5t-76.5 -12.5zM51 638h126l68 -134h-70zM206 638h126l68 -134h-70z" />
    <glyph glyph-name="uni0206" unicode="&#x206;" horiz-adv-x="659" 
d="M100 729h484v-114h-366v-192h326v-114h-326v-195h380v-114h-498v729zM334 934q67 0 106.5 -46t52.5 -135h-77q-8 46 -26.5 75t-55.5 29t-55 -29t-26 -75h-76q13 91 52 136t105 45z" />
    <glyph glyph-name="uni0207" unicode="&#x207;" horiz-adv-x="534" 
d="M279 -11q-75 0 -128 29t-81.5 80.5t-28.5 117.5q0 63 32.5 114.5t87 82t120.5 30.5q88 0 145 -50.5t76 -143.5l-341 -115l-26 64l264 94l-23 -13q-11 30 -35 52t-68 22q-53 0 -86 -36.5t-33 -94.5q0 -63 36.5 -99.5t90.5 -36.5q26 0 50 9t45 24l52 -84
q-33 -21 -72.5 -33.5t-76.5 -12.5zM282 661q67 0 106 -46t52 -135h-76q-8 46 -26.5 75t-55.5 29t-55.5 -29t-25.5 -75h-77q13 91 52.5 136t105.5 45z" />
    <glyph glyph-name="uni0208" unicode="&#x208;" horiz-adv-x="318" 
d="M100 729h118v-729h-118v729zM-57 921h126l68 -134h-70zM98 921h126l68 -134h-70z" />
    <glyph glyph-name="uni0209" unicode="&#x209;" horiz-adv-x="267" 
d="M77 424h114v-424h-114v424zM-92 621h126l68 -134h-70zM63 621h126l68 -134h-70z" />
    <glyph glyph-name="uni020A" unicode="&#x20a;" horiz-adv-x="318" 
d="M100 729h118v-729h-118v729zM154 934q67 0 106.5 -46t52.5 -135h-77q-8 46 -26.5 75t-55.5 29t-55 -29t-26 -75h-76q13 91 52 136t105 45z" />
    <glyph glyph-name="uni020B" unicode="&#x20b;" horiz-adv-x="267" 
d="M77 424h114v-424h-114v424zM140 645q67 0 106 -46t52 -135h-76q-8 46 -26.5 75t-55.5 29t-55.5 -29t-25.5 -75h-77q13 91 52.5 136t105.5 45z" />
    <glyph glyph-name="uni020C" unicode="&#x20c;" horiz-adv-x="855" 
d="M55 364q0 75 29 142.5t80 119t118.5 81.5t143.5 30q77 0 144.5 -30t119.5 -81.5t81 -119t29 -142.5q0 -78 -29 -145t-81 -118.5t-119.5 -80t-144.5 -28.5q-76 0 -143.5 28.5t-118.5 79t-80 118.5t-29 146zM177 363q0 -71 33.5 -129.5t91 -93t128.5 -34.5q70 0 126 34.5
t89 93t33 130.5t-33.5 131t-90.5 93.5t-127 34.5t-127 -35t-90 -94t-33 -131zM211 913h126l68 -134h-70zM366 913h126l68 -134h-70z" />
    <glyph glyph-name="uni020D" unicode="&#x20d;" horiz-adv-x="556" 
d="M41 217q0 64 30.5 115.5t85 81t124.5 29.5q71 0 123.5 -29.5t81.5 -81t29 -115.5q0 -65 -29 -116.5t-82 -81.5t-125 -30q-68 0 -122 27.5t-85 79t-31 121.5zM156 216q0 -38 16 -68t44 -47.5t62 -17.5q54 0 88 38t34 95q0 56 -34 94.5t-88 38.5q-35 0 -62.5 -18t-43.5 -48
t-16 -67zM52 637h126l68 -134h-70zM206 637h126l68 -134h-70z" />
    <glyph glyph-name="uni020E" unicode="&#x20e;" horiz-adv-x="855" 
d="M55 364q0 75 29 142.5t80 119t118.5 81.5t143.5 30q77 0 144.5 -30t119.5 -81.5t81 -119t29 -142.5q0 -78 -29 -145t-81 -118.5t-119.5 -80t-144.5 -28.5q-76 0 -143.5 28.5t-118.5 79t-80 118.5t-29 146zM177 363q0 -71 33.5 -129.5t91 -93t128.5 -34.5q70 0 126 34.5
t89 93t33 130.5t-33.5 131t-90.5 93.5t-127 34.5t-127 -35t-90 -94t-33 -131zM422 926q67 0 106.5 -46t52.5 -135h-77q-8 46 -26.5 75t-55.5 29t-55 -29t-26 -75h-76q13 91 52 136t105 45z" />
    <glyph glyph-name="uni020F" unicode="&#x20f;" horiz-adv-x="556" 
d="M41 217q0 64 30.5 115.5t85 81t124.5 29.5q71 0 123.5 -29.5t81.5 -81t29 -115.5q0 -65 -29 -116.5t-82 -81.5t-125 -30q-68 0 -122 27.5t-85 79t-31 121.5zM156 216q0 -38 16 -68t44 -47.5t62 -17.5q54 0 88 38t34 95q0 56 -34 94.5t-88 38.5q-35 0 -62.5 -18t-43.5 -48
t-16 -67zM283 661q67 0 106 -46t52 -135h-76q-8 46 -26.5 75t-55.5 29t-55.5 -29t-25.5 -75h-77q13 91 52.5 136t105.5 45z" />
    <glyph glyph-name="uni0210" unicode="&#x210;" horiz-adv-x="671" 
d="M306 729q82 0 142.5 -28t94 -80t33.5 -127q0 -44 -13 -87t-42.5 -78t-77.5 -56t-119 -21h-106v-252h-118v729h206zM322 366q52 0 80.5 20.5t40 49.5t11.5 54q0 17 -6 38t-20 41t-38.5 33t-62.5 13h-109v-249h104zM449 295l186 -295h-138l-189 292zM93 921h126l68 -134
h-70zM247 921h126l68 -134h-70z" />
    <glyph glyph-name="uni0211" unicode="&#x211;" horiz-adv-x="391" 
d="M179 424l11 -120l-4 17q18 38 49 65.5t64.5 42t54.5 14.5l-6 -113q-48 4 -83 -17.5t-55 -57t-20 -74.5v-181h-113v424h102zM-40 621h126l68 -134h-70zM114 621h126l68 -134h-70z" />
    <glyph glyph-name="uni0212" unicode="&#x212;" horiz-adv-x="671" 
d="M306 729q82 0 142.5 -28t94 -80t33.5 -127q0 -44 -13 -87t-42.5 -78t-77.5 -56t-119 -21h-106v-252h-118v729h206zM322 366q52 0 80.5 20.5t40 49.5t11.5 54q0 17 -6 38t-20 41t-38.5 33t-62.5 13h-109v-249h104zM449 295l186 -295h-138l-189 292zM303 934
q67 0 106.5 -46t52.5 -135h-77q-8 46 -26.5 75t-55.5 29t-55 -29t-26 -75h-76q13 91 52 136t105 45z" />
    <glyph glyph-name="uni0213" unicode="&#x213;" horiz-adv-x="391" 
d="M179 424l11 -120l-4 17q18 38 49 65.5t64.5 42t54.5 14.5l-6 -113q-48 4 -83 -17.5t-55 -57t-20 -74.5v-181h-113v424h102zM191 645q67 0 106 -46t52 -135h-76q-8 46 -26.5 75t-55.5 29t-55.5 -29t-25.5 -75h-77q13 91 52.5 136t105.5 45z" />
    <glyph glyph-name="uni0214" unicode="&#x214;" horiz-adv-x="742" 
d="M206 263q0 -42 22 -77.5t59.5 -57t82.5 -21.5q49 0 86.5 21.5t59.5 57t22 77.5v466h116v-469q0 -79 -38 -139.5t-102.5 -94.5t-143.5 -34v0q-78 0 -142.5 34t-102 94.5t-37.5 139.5v469h118v-466zM155 921h126l68 -134h-70zM310 921h126l68 -134h-70z" />
    <glyph glyph-name="uni0215" unicode="&#x215;" horiz-adv-x="563" 
d="M213 -18q-58 0 -96 35.5t-40 91.5v315h114v-274q2 -32 17.5 -51t50.5 -20q33 0 58.5 20.5t40 56.5t14.5 82v186h114v-424h-103l-9 92l3 -14q-20 -42 -63 -69t-101 -27zM56 637h126l68 -134h-70zM210 637h126l68 -134h-70z" />
    <glyph glyph-name="uni0216" unicode="&#x216;" horiz-adv-x="742" 
d="M206 263q0 -42 22 -77.5t59.5 -57t82.5 -21.5q49 0 86.5 21.5t59.5 57t22 77.5v466h116v-469q0 -79 -38 -139.5t-102.5 -94.5t-143.5 -34v0q-78 0 -142.5 34t-102 94.5t-37.5 139.5v469h118v-466zM366 934q67 0 106.5 -46t52.5 -135h-77q-8 46 -26.5 75t-55.5 29t-55 -29
t-26 -75h-76q13 91 52 136t105 45z" />
    <glyph glyph-name="uni0217" unicode="&#x217;" horiz-adv-x="563" 
d="M213 -18q-58 0 -96 35.5t-40 91.5v315h114v-274q2 -32 17.5 -51t50.5 -20q33 0 58.5 20.5t40 56.5t14.5 82v186h114v-424h-103l-9 92l3 -14q-20 -42 -63 -69t-101 -27zM287 661q67 0 106 -46t52 -135h-76q-8 46 -26.5 75t-55.5 29t-55.5 -29t-25.5 -75h-77
q13 91 52.5 136t105.5 45z" />
    <glyph glyph-name="uni0218" unicode="&#x218;" horiz-adv-x="582" 
d="M483 578q-40 21 -83.5 35.5t-83.5 14.5q-54 0 -85 -23.5t-31 -66.5q0 -29 21.5 -51t55.5 -39t72 -31q44 -16 85.5 -40.5t68 -66t26.5 -110.5q0 -57 -29 -104.5t-83 -75.5t-132 -28q-67 0 -130.5 21.5t-113.5 55.5l53 93q36 -27 86.5 -46.5t93.5 -19.5q32 0 62 10t50 33
t20 61q0 30 -17.5 52t-46 38t-61.5 29q-34 13 -69.5 29t-65.5 39.5t-49 58t-19 83.5q0 61 28 105.5t78 70t114 28.5q78 0 132.5 -19t96.5 -45zM260 -231l-58 39q23 21 32.5 60t3.5 76l101 -1q5 -28 -3 -61.5t-27.5 -64t-48.5 -48.5z" />
    <glyph glyph-name="uni0219" unicode="&#x219;" horiz-adv-x="425" 
d="M205 -9q-49 0 -92.5 17.5t-73.5 49.5l48 64q28 -26 56 -39t52 -13q28 0 48.5 10.5t20.5 34.5q0 20 -14 31.5t-36 19t-46 14.5q-55 17 -82 50.5t-27 76.5q0 33 16.5 63.5t52 50.5t89.5 20q48 0 84 -10.5t67 -35.5l-44 -68q-18 17 -42 26.5t-44 10.5q-27 1 -45.5 -11
t-18.5 -31q0 -20 14.5 -32t37.5 -19t46 -15q46 -15 75.5 -42.5t29.5 -76.5q0 -39 -18.5 -72t-57 -53.5t-96.5 -20.5zM180 -215l-58 39q23 21 32.5 60t3.5 76l101 -1q5 -28 -3 -61.5t-27.5 -64t-48.5 -48.5z" />
    <glyph glyph-name="uni021A" unicode="&#x21a;" horiz-adv-x="583" 
d="M48 729h488v-114h-188v-615h-118v615h-182v114zM262 -223l-58 39q23 21 32.5 60t3.5 76l101 -1q5 -28 -3 -61.5t-27.5 -64t-48.5 -48.5z" />
    <glyph glyph-name="uni021B" unicode="&#x21b;" horiz-adv-x="375" 
d="M117 610h115v-186h110v-89h-110v-335h-115v335h-72v89h72v186zM139 -207l-58 39q23 21 32.5 60t3.5 76l101 -1q5 -28 -3 -61.5t-27.5 -64t-48.5 -48.5z" />
    <glyph glyph-name="uni022A" unicode="&#x22a;" horiz-adv-x="855" 
d="M55 364q0 75 29 142.5t80 119t118.5 81.5t143.5 30q77 0 144.5 -30t119.5 -81.5t81 -119t29 -142.5q0 -78 -29 -145t-81 -118.5t-119.5 -80t-144.5 -28.5q-76 0 -143.5 28.5t-118.5 79t-80 118.5t-29 146zM177 363q0 -71 33.5 -129.5t91 -93t128.5 -34.5q70 0 126 34.5
t89 93t33 130.5t-33.5 131t-90.5 93.5t-127 34.5t-127 -35t-90 -94t-33 -131zM265 831q0 27 19 45t42 18q22 0 41 -18t19 -45t-19 -44t-41 -17q-23 0 -42 17t-19 44v0zM457 831q0 27 19.5 45t42.5 18q21 0 40.5 -18t19.5 -45t-19.5 -44t-40.5 -17q-23 0 -42.5 17t-19.5 44v0
zM299 1011h250v-79h-250v79z" />
    <glyph glyph-name="uni022B" unicode="&#x22b;" horiz-adv-x="556" 
d="M41 217q0 64 30.5 115.5t85 81t124.5 29.5q71 0 123.5 -29.5t81.5 -81t29 -115.5q0 -65 -29 -116.5t-82 -81.5t-125 -30q-68 0 -122 27.5t-85 79t-31 121.5zM156 216q0 -38 16 -68t44 -47.5t62 -17.5q54 0 88 38t34 95q0 56 -34 94.5t-88 38.5q-35 0 -62.5 -18t-43.5 -48
t-16 -67zM121 549q0 27 19 45t42 18q22 0 41 -18t19 -45t-19 -44t-41 -17q-23 0 -42 17t-19 44v0zM313 549q0 27 19.5 45t42.5 18q21 0 40.5 -18t19.5 -45t-19.5 -44t-40.5 -17q-23 0 -42.5 17t-19.5 44v0zM154 740h250v-79h-250v79z" />
    <glyph glyph-name="uni022C" unicode="&#x22c;" horiz-adv-x="855" 
d="M55 364q0 75 29 142.5t80 119t118.5 81.5t143.5 30q77 0 144.5 -30t119.5 -81.5t81 -119t29 -142.5q0 -78 -29 -145t-81 -118.5t-119.5 -80t-144.5 -28.5q-76 0 -143.5 28.5t-118.5 79t-80 118.5t-29 146zM177 363q0 -71 33.5 -129.5t91 -93t128.5 -34.5q70 0 126 34.5
t89 93t33 130.5t-33.5 131t-90.5 93.5t-127 34.5t-127 -35t-90 -94t-33 -131zM504 804q-33 0 -55 14t-39 30q-12 10 -23.5 18.5t-24.5 8.5q-20 0 -29 -21t-7 -50h-59q-4 39 7.5 72t35.5 52.5t58 19.5q26 0 45.5 -14t35.5 -29q14 -13 26.5 -22.5t26.5 -9.5q19 0 25.5 22
t5.5 52h59q6 -42 -5 -74.5t-33 -50.5t-50 -18zM299 1087h250v-79h-250v79z" />
    <glyph glyph-name="uni022D" unicode="&#x22d;" horiz-adv-x="556" 
d="M41 217q0 64 30.5 115.5t85 81t124.5 29.5q71 0 123.5 -29.5t81.5 -81t29 -115.5q0 -65 -29 -116.5t-82 -81.5t-125 -30q-68 0 -122 27.5t-85 79t-31 121.5zM156 216q0 -38 16 -68t44 -47.5t62 -17.5q54 0 88 38t34 95q0 56 -34 94.5t-88 38.5q-35 0 -62.5 -18t-43.5 -48
t-16 -67zM357 478q-33 0 -54.5 14.5t-40.5 30.5q-11 10 -22.5 18.5t-24.5 8.5q-19 0 -28.5 -21.5t-8.5 -49.5h-58q-4 39 7 72t35.5 52.5t58.5 19.5q26 0 45 -14t36 -29q14 -13 26.5 -22.5t25.5 -9.5q20 0 26.5 21.5t5.5 52.5h59q6 -42 -5 -74.5t-33 -51t-50 -18.5zM165 763
h250v-79h-250v79z" />
    <glyph glyph-name="uni0230" unicode="&#x230;" horiz-adv-x="855" 
d="M55 364q0 75 29 142.5t80 119t118.5 81.5t143.5 30q77 0 144.5 -30t119.5 -81.5t81 -119t29 -142.5q0 -78 -29 -145t-81 -118.5t-119.5 -80t-144.5 -28.5q-76 0 -143.5 28.5t-118.5 79t-80 118.5t-29 146zM177 363q0 -71 33.5 -129.5t91 -93t128.5 -34.5q70 0 126 34.5
t89 93t33 130.5t-33.5 131t-90.5 93.5t-127 34.5t-127 -35t-90 -94t-33 -131zM363 829q0 26 20.5 43.5t44.5 17.5t44 -17.5t20 -43.5q0 -27 -20 -43.5t-44 -16.5t-44.5 16.5t-20.5 43.5zM299 1007h250v-79h-250v79z" />
    <glyph glyph-name="uni0231" unicode="&#x231;" horiz-adv-x="556" 
d="M41 217q0 64 30.5 115.5t85 81t124.5 29.5q71 0 123.5 -29.5t81.5 -81t29 -115.5q0 -65 -29 -116.5t-82 -81.5t-125 -30q-68 0 -122 27.5t-85 79t-31 121.5zM156 216q0 -38 16 -68t44 -47.5t62 -17.5q54 0 88 38t34 95q0 56 -34 94.5t-88 38.5q-35 0 -62.5 -18t-43.5 -48
t-16 -67zM215 592q0 26 20.5 43.5t44.5 17.5t44 -17.5t20 -43.5q0 -27 -20 -43.5t-44 -16.5t-44.5 16.5t-20.5 43.5zM154 781h250v-79h-250v79z" />
    <glyph glyph-name="uni0232" unicode="&#x232;" horiz-adv-x="705" 
d="M291 236l-269 493h146l204 -392l-36 -2l201 394h145l-272 -493v-236h-119v236zM240 861h250v-79h-250v79z" />
    <glyph glyph-name="uni0233" unicode="&#x233;" horiz-adv-x="511" 
d="M112 -204l281 628h104l-274 -628h-111zM221 -3l-206 427h128l166 -369zM139 553h250v-79h-250v79z" />
    <glyph glyph-name="uni0237" unicode="&#x237;" horiz-adv-x="275" 
d="M93 -204l-67 70q29 23 45.5 57t16.5 81v420h114v-425q0 -74 -25.5 -124t-83.5 -79z" />
    <glyph glyph-name="uni0259" unicode="&#x259;" horiz-adv-x="534" 
d="M255 435q75 0 128 -29.5t81.5 -80.5t28.5 -116q0 -63 -32.5 -115t-86.5 -82.5t-121 -30.5q-87 0 -144 51t-76 143l340 115l27 -64l-265 -94l24 13q10 -29 34.5 -51.5t68.5 -22.5q53 0 85.5 36t32.5 95q0 63 -36 99.5t-91 36.5q-26 0 -49.5 -9t-44.5 -24l-52 84
q33 21 72.5 33.5t75.5 12.5z" />
    <glyph glyph-name="uni0272" unicode="&#x272;" horiz-adv-x="571" 
d="M84 -204l-66 70q30 23 45.5 57t15.5 81v38h114v-43q0 -71 -29.5 -121t-79.5 -82zM180 424l9 -90l-3 11q21 44 64.5 70.5t104.5 26.5q60 0 99 -35t40 -92v-315h-114v274q-1 31 -18 50.5t-53 20.5q-52 0 -85 -44.5t-33 -113.5v-187h-114v424h103z" />
    <glyph glyph-name="uni02BC" unicode="&#x2bc;" horiz-adv-x="204" 
d="M185 658q-22 -53 -43.5 -105t-43.5 -105h-92q20 53 39.5 105t38.5 105h101z" />
    <glyph glyph-name="circumflex" unicode="&#x2c6;" horiz-adv-x="414" 
d="M277 493l-87 87l30 9l-87 -96h-104l174 177h1l177 -177h-104z" />
    <glyph glyph-name="caron" unicode="&#x2c7;" horiz-adv-x="413" 
d="M133 664l86 -88l-30 -8l87 96h104l-173 -177h-1l-177 177h104z" />
    <glyph glyph-name="uni02C9" unicode="&#x2c9;" horiz-adv-x="343" 
d="M35 632h250v-79h-250v79z" />
    <glyph glyph-name="breve" unicode="&#x2d8;" horiz-adv-x="416" 
d="M209 476q-66 0 -105.5 46t-53.5 135h76q8 -46 27 -75t56 -29t55 29t25 75h77q-12 -91 -51.5 -136t-105.5 -45z" />
    <glyph glyph-name="dotaccent" unicode="&#x2d9;" horiz-adv-x="227" 
d="M48 589q0 26 20.5 43.5t44.5 17.5t44 -17.5t20 -43.5q0 -27 -20 -43.5t-44 -16.5t-44.5 16.5t-20.5 43.5z" />
    <glyph glyph-name="ring" unicode="&#x2da;" horiz-adv-x="317" 
d="M53 546q0 43 29 69.5t73 26.5q43 0 72 -26.5t29 -69.5q0 -42 -29 -69t-72 -27q-44 0 -73 26.5t-29 69.5zM113 545q0 -19 11.5 -31t30.5 -12q18 0 29.5 12t11.5 31q0 20 -11.5 31.5t-29.5 11.5q-19 0 -30.5 -11.5t-11.5 -31.5z" />
    <glyph glyph-name="ogonek" unicode="&#x2db;" horiz-adv-x="359" 
d="M185 -223q-55 0 -92.5 32.5t-37.5 85.5q0 34 23.5 66t63.5 49l128 -10q-55 -23 -88 -45t-33 -51q0 -26 14 -36t32 -10q40 0 70 48l42 -58q-20 -31 -54.5 -51t-67.5 -20z" />
    <glyph glyph-name="tilde" unicode="&#x2dc;" horiz-adv-x="464" 
d="M321 456q-39 0 -64.5 17.5t-46.5 34.5q-13 12 -26.5 21.5t-28.5 9.5q-23 0 -33 -24.5t-9 -57.5h-70q-4 46 9 84.5t41.5 61.5t68.5 23q29 0 52 -16t43 -34q16 -14 30.5 -25.5t29.5 -11.5q16 0 23.5 11.5t11 31.5t1.5 43h71q7 -49 -6 -87.5t-39 -60t-58 -21.5z" />
    <glyph glyph-name="hungarumlaut" unicode="&#x2dd;" horiz-adv-x="459" 
d="M250 621l-136 -134h-70l80 134h126zM415 619l-136 -134h-70l80 134h126z" />
    <glyph glyph-name="gravecomb" unicode="&#x300;" 
d="M21 621h126l68 -134h-70z" />
    <glyph glyph-name="acutecomb" unicode="&#x301;" 
d="M308 621l-136 -134h-70l80 134h126z" />
    <glyph glyph-name="uni0302" unicode="&#x302;" 
d="M277 493l-87 87l30 9l-87 -96h-104l174 177h1l177 -177h-104z" />
    <glyph glyph-name="tildecomb" unicode="&#x303;" 
d="M308 462q-33 0 -54.5 14.5t-40.5 30.5q-11 10 -22.5 18.5t-24.5 8.5q-19 0 -28.5 -21.5t-8.5 -49.5h-58q-4 39 7 72t35.5 52.5t58.5 19.5q26 0 45 -14t36 -29q14 -13 26.5 -22.5t25.5 -9.5q20 0 26.5 21.5t5.5 52.5h59q6 -42 -5 -74.5t-33 -51t-50 -18.5z" />
    <glyph glyph-name="uni0304" unicode="&#x304;" 
d="M35 545h250v-79h-250v79z" />
    <glyph glyph-name="uni0306" unicode="&#x306;" 
d="M209 476q-66 0 -105.5 46t-53.5 135h76q8 -46 27 -75t56 -29t55 29t25 75h77q-12 -91 -51.5 -136t-105.5 -45z" />
    <glyph glyph-name="uni0307" unicode="&#x307;" 
d="M48 589q0 26 20.5 43.5t44.5 17.5t44 -17.5t20 -43.5q0 -27 -20 -43.5t-44 -16.5t-44.5 16.5t-20.5 43.5z" />
    <glyph glyph-name="uni0308" unicode="&#x308;" 
d="M72 533q0 27 19 45t42 18q22 0 41 -18t19 -45t-19 -44t-41 -17q-23 0 -42 17t-19 44v0zM264 533q0 27 19.5 45t42.5 18q21 0 40.5 -18t19.5 -45t-19.5 -44t-40.5 -17q-23 0 -42.5 17t-19.5 44v0z" />
    <glyph glyph-name="hookabovecomb" unicode="&#x309;" 
d="M157 597q19 13 30.5 26t11.5 31q0 15 -7.5 24.5t-23.5 9.5q-15 0 -25.5 -8t-18.5 -21l-41 26q17 34 44 50t56 16q28 0 45.5 -11.5t26 -30.5t8.5 -40q0 -36 -24 -60.5t-57 -44.5z" />
    <glyph glyph-name="uni030A" unicode="&#x30a;" 
d="M75 546q0 43 29 69.5t73 26.5q43 0 72 -26.5t29 -69.5q0 -42 -29 -69t-72 -27q-44 0 -73 26.5t-29 69.5zM135 545q0 -19 11.5 -31t30.5 -12q18 0 29.5 12t11.5 31q0 20 -11.5 31.5t-29.5 11.5q-19 0 -30.5 -11.5t-11.5 -31.5z" />
    <glyph glyph-name="uni030B" unicode="&#x30b;" 
d="M248 621l-136 -134h-70l80 134h126zM413 619l-136 -134h-70l80 134h126z" />
    <glyph glyph-name="uni030C" unicode="&#x30c;" 
d="M106 664l86 -88l-30 -8l87 96h104l-173 -177h-1l-177 177h104z" />
    <glyph glyph-name="uni030F" unicode="&#x30f;" 
d="M119 621h126l68 -134h-70zM273 621h126l68 -134h-70z" />
    <glyph glyph-name="uni0311" unicode="&#x311;" 
d="M208 681q67 0 106 -46t52 -135h-76q-8 46 -26.5 75t-55.5 29t-55.5 -29t-25.5 -75h-77q13 91 52.5 136t105.5 45z" />
    <glyph glyph-name="uni0312" unicode="&#x312;" 
d="M132 668l59 -39q-24 -21 -33.5 -59.5t-3.5 -75.5l-101 1q-4 28 3.5 61.5t27 64t48.5 47.5z" />
    <glyph glyph-name="uni031B" unicode="&#x31b;" 
d="M63 729q39 0 60.5 21.5t28.5 68.5h85q-9 -63 -33 -97t-60 -48t-81 -14v69z" />
    <glyph glyph-name="dotbelowcomb" unicode="&#x323;" 
d="M59 -106q0 22 17 36t38 14q20 0 36.5 -14t16.5 -36q0 -23 -16.5 -37t-36.5 -14q-21 0 -38 14.5t-17 36.5z" />
    <glyph glyph-name="uni0324" unicode="&#x324;" 
d="M72 -106q0 27 19 45t42 18q22 0 41 -18t19 -45t-19 -44t-41 -17q-23 0 -42 17t-19 44v0zM264 -106q0 27 19.5 45t42.5 18q21 0 40.5 -18t19.5 -45t-19.5 -44t-40.5 -17q-23 0 -42.5 17t-19.5 44v0z" />
    <glyph glyph-name="uni0326" unicode="&#x326;" 
d="M110 -207l-58 39q23 21 32.5 60t3.5 76l101 -1q5 -28 -3 -61.5t-27.5 -64t-48.5 -48.5z" />
    <glyph glyph-name="uni0327" unicode="&#x327;" 
d="M62 -146q10 -11 26.5 -18.5t36.5 -7.5q22 0 42 10t20 31q0 14 -12.5 27t-46.5 13q-16 0 -33 -4t-30 -8l-18 54l69 59l88 -2l-75 -85l-23 28q11 4 24 5.5t26 2.5q55 2 90.5 -21t35.5 -68q0 -35 -20.5 -58t-53.5 -34t-71 -11q-41 0 -67.5 12t-43.5 29z" />
    <glyph glyph-name="uni0328" unicode="&#x328;" 
d="M202 -223q-55 0 -92.5 32.5t-37.5 85.5q0 34 23.5 66t63.5 49l128 -10q-55 -23 -88 -45t-33 -51q0 -26 14 -36t32 -10q40 0 70 48l42 -58q-20 -31 -54.5 -51t-67.5 -20z" />
    <glyph glyph-name="uni032E" unicode="&#x32e;" 
d="M209 -227q-66 0 -105.5 46t-53.5 135h76q8 -46 27 -75t56 -29t55 29t25 75h77q-12 -91 -51.5 -136t-105.5 -45z" />
    <glyph glyph-name="uni0331" unicode="&#x331;" 
d="M35 -88h250v-79h-250v79z" />
    <glyph glyph-name="uni0335" unicode="&#x335;" 
d="M35 395h295v-106h-295v106z" />
    <glyph glyph-name="uni0394" unicode="&#x394;" horiz-adv-x="736" 
d="M23 0l344 758h5l341 -758h-690zM565 61l-248 558l100 -16l-252 -555l-69 66h530z" />
    <glyph glyph-name="uni03BC" unicode="&#x3bc;" horiz-adv-x="563" 
d="M213 -18q-58 0 -96 35.5t-40 91.5v315h114v-274q2 -32 17.5 -51t50.5 -20q33 0 58.5 20.5t40 56.5t14.5 82v186h114v-424h-103l-9 92l3 -14q-20 -42 -63 -69t-101 -27zM77 382h103v-618h-103v618z" />
    <glyph glyph-name="pi" unicode="&#x3c0;" horiz-adv-x="409" 
d="M8 358h390v-99h-58v-259h-101v259h-72v-259h-102v259h-57v99z" />
    <glyph glyph-name="uni060C" unicode="&#x60c;" horiz-adv-x="210" 
d="M180 222q-27 -15 -44 -38t-22 -45.5t3 -34.5l-24 9q17 11 38 7t36.5 -20t15.5 -41q0 -29 -19 -47.5t-47 -18.5q-26 0 -42.5 14.5t-24 37t-7.5 48.5q0 25 10 55t33 60t64 54z" />
    <glyph glyph-name="uni0615" unicode="&#x615;" 
d="M0 0l24 50h226q-1 17 -4.5 28.5t-26.5 11.5h-137v50h142q31 0 47 -13.5t22 -34t6.5 -43t0.5 -40.5q0 -7 -8 -8l-8 -1h-284zM64 20v271l50 9v-280h-50z" />
    <glyph glyph-name="uni061B" unicode="&#x61b;" horiz-adv-x="210" 
d="M121 0q-27 0 -46 19t-19 46q0 26 19 45t46 19q26 0 45 -19t19 -45q0 -27 -19 -46t-45 -19zM180 417q-27 -14 -44 -37.5t-22 -45.5t3 -35l-24 10q17 11 38 7t36.5 -20t15.5 -41q0 -30 -19 -48t-47 -18q-26 0 -42.5 14t-24 37t-7.5 49q0 25 10 55t33 60t64 54z" />
    <glyph glyph-name="uni061F" unicode="&#x61f;" horiz-adv-x="498" 
d="M193 187v39q0 38 -9.5 61.5t-25.5 41t-37 35.5q-42 38 -69.5 82.5t-26.5 107.5q1 49 28.5 94.5t73.5 75t103 29.5q45 1 81 -14t64 -38.5t48 -52.5q10 -14 27.5 -25.5t37.5 -18.5l-129 -86q-2 19 -9 38.5t-13 29.5q-17 27 -41 43t-56 16q-46 0 -78 -28t-32 -72
q0 -28 13 -49.5t33 -38.5l40 -34q22 -19 41.5 -41t31.5 -53.5t12 -80.5v-61h-108zM247 0q-27 0 -46 19t-19 46q0 26 19 45t46 19t46 -19t19 -45q0 -27 -19 -46t-46 -19z" />
    <glyph glyph-name="uni0621" unicode="&#x621;" horiz-adv-x="520" 
d="M151 46v77q0 54 17.5 95.5t48.5 65t72 23.5q42 0 69.5 -14.5t42.5 -37.5t19 -49q-13 12 -36 22.5t-50 10.5q-25 0 -44.5 -17t-19.5 -47q0 -22 11.5 -35.5t29.5 -20t37 -6.5h40l1 -67h-238zM25 0l68 113h402l-68 -113h-402z" />
    <glyph glyph-name="uni0622" unicode="&#x622;" horiz-adv-x="1000" 
 />
    <glyph glyph-name="uni0623" unicode="&#x623;" horiz-adv-x="1000" 
 />
    <glyph glyph-name="uni0624" unicode="&#x624;" horiz-adv-x="1000" 
 />
    <glyph glyph-name="uni0625" unicode="&#x625;" horiz-adv-x="1000" 
 />
    <glyph glyph-name="uni0626" unicode="&#x626;" horiz-adv-x="1000" 
 />
    <glyph glyph-name="uni0627" unicode="&#x627;" horiz-adv-x="233" 
d="M233 58q-6 -22 -28.5 -38t-53 -22t-59 0.5t-48 28t-19.5 60.5v688l113 25v-713q0 -21 11 -29.5t27 -10t32 2.5t25 8z" />
    <glyph glyph-name="uni0628" unicode="&#x628;" horiz-adv-x="1000" 
 />
    <glyph glyph-name="uni0629" unicode="&#x629;" horiz-adv-x="1000" 
 />
    <glyph glyph-name="uni062A" unicode="&#x62a;" horiz-adv-x="1000" 
 />
    <glyph glyph-name="uni062B" unicode="&#x62b;" horiz-adv-x="1000" 
 />
    <glyph glyph-name="uni062C" unicode="&#x62c;" horiz-adv-x="1000" 
 />
    <glyph glyph-name="uni062D" unicode="&#x62d;" horiz-adv-x="515" 
d="M132 -200q-43 14 -75 51.5t-32 96.5q0 35 12 62t31.5 47t42.5 35q-16 12 -33 31t-32 39.5t-25 37.5l59 114q36 -55 78 -101t83 -73t74 -27h175l-60 -113h-226q-12 0 -29 -9t-29.5 -24.5t-12.5 -38.5q0 -32 18 -51.5t47 -28t61.5 -9.5t62.5 3t49 11q-23 -27 -65 -43
t-89 -18.5t-85 8.5z" />
    <glyph glyph-name="uni062E" unicode="&#x62e;" horiz-adv-x="1000" 
 />
    <glyph glyph-name="uni062F" unicode="&#x62f;" horiz-adv-x="870" 
d="M25 0l68 113h639q1 37 -16.5 62t-73.5 25h-507l140 233l10 -7l-52 -113h409q66 0 106 -18t60.5 -49t28.5 -69t8 -78v-76q0 -12 -10 -17t-20 -5.5l-10 -0.5h-780z" />
    <glyph glyph-name="uni0630" unicode="&#x630;" horiz-adv-x="1000" 
 />
    <glyph glyph-name="uni0631" unicode="&#x631;" horiz-adv-x="225" 
d="M-85 -150q53 -14 86.5 -11.5t52.5 16.5t26 35t7 43v355l113 25v-373q0 -53 -22.5 -86.5t-58.5 -49t-75.5 -14.5t-74 16.5t-54.5 43.5z" />
    <glyph glyph-name="uni0632" unicode="&#x632;" horiz-adv-x="1000" 
 />
    <glyph glyph-name="uni0633" unicode="&#x633;" horiz-adv-x="870" 
d="M425 113h107v175l113 25v-200h87v175l113 25v-290q0 -12 -10 -17t-20 -5.5l-10 -0.5h-380v113zM216 -200q-61 0 -99 22t-58 55t-27 66.5t-7 56.5q0 44 18.5 84t47.5 71.5t60 51.5q2 -19 -2 -36t-18 -36q11 -5 18.5 -16t10.5 -24t0 -25q-15 11 -27 13.5t-26 -2.5
q-24 -5 -36 -29t-12 -52q0 -39 15.5 -71t49 -52t86.5 -20q47 0 73.5 22.5t37.5 64t11 96.5v248l113 25v-313q0 -56 -26 -101.5t-76.5 -72t-126.5 -26.5z" />
    <glyph glyph-name="uni0634" unicode="&#x634;" horiz-adv-x="1000" 
 />
    <glyph glyph-name="uni0635" unicode="&#x635;" horiz-adv-x="1170" 
d="M332 240v148l113 25v-173h-113zM216 -200q-61 0 -99 22t-58 55t-27 66.5t-7 56.5q0 44 18.5 84t47.5 71.5t60 51.5q2 -19 -2 -36t-18 -36q11 -5 18.5 -16t10.5 -24t0 -25q-15 11 -27 13.5t-26 -2.5q-24 -5 -36 -29t-12 -52q0 -39 15.5 -71t49 -52t86.5 -20
q47 0 73.5 22.5t37.5 64t11 96.5v248l113 25v-313q0 -56 -26 -101.5t-76.5 -72t-126.5 -26.5zM390 0v113h642q1 37 -16.5 62t-73.5 25h-552v113h552q66 0 106 -18t60.5 -49t28.5 -69t8 -78v-76q0 -12 -10 -17t-20 -5.5l-10 -0.5h-715z" />
    <glyph glyph-name="uni0636" unicode="&#x636;" horiz-adv-x="1000" 
 />
    <glyph glyph-name="uni0637" unicode="&#x637;" horiz-adv-x="1010" 
d="M185 50v725l113 25v-750h-113zM25 0l68 113h252v-113h-320zM230 0v113h642q1 37 -16.5 62t-73.5 25h-552v113h552q66 0 106 -18t60.5 -49t28.5 -69t8 -78v-76q0 -12 -10 -17t-20 -5.5l-10 -0.5h-715z" />
    <glyph glyph-name="uni0638" unicode="&#x638;" horiz-adv-x="1000" 
 />
    <glyph glyph-name="uni0639" unicode="&#x639;" horiz-adv-x="376" 
d="M135 -200q-43 14 -75.5 50t-32.5 91q0 37 13 61t30 44q-30 26 -40.5 60t-4.5 69t25.5 65t49 48.5t65.5 18.5q28 0 50.5 -11.5t39 -30t24.5 -41.5q-23 19 -47 26.5t-45 3.5q-22 -3 -38.5 -22t-16.5 -41q0 -23 12.5 -40.5t34 -27.5t45.5 -10h122l-60 -113h-75q-13 0 -30 -9
t-29.5 -24.5t-12.5 -38.5q0 -32 18.5 -51.5t47 -28t61 -9.5t62 3t48.5 11q-17 -21 -46 -35t-63.5 -21t-68.5 -6.5t-63 9.5z" />
    <glyph glyph-name="uni063A" unicode="&#x63a;" horiz-adv-x="1000" 
 />
    <glyph glyph-name="uni0640" unicode="&#x640;" horiz-adv-x="300" 
d="M-20 0v113h340v-113h-340z" />
    <glyph glyph-name="uni0641" unicode="&#x641;" horiz-adv-x="1000" 
 />
    <glyph glyph-name="uni0642" unicode="&#x642;" horiz-adv-x="1000" 
 />
    <glyph glyph-name="uni0643" unicode="&#x643;" horiz-adv-x="1010" 
d="M25 0l68 113h779q1 37 -16.5 62t-73.5 25h-617l114 113h503q66 0 106 -18t60.5 -49t28.5 -69t8 -78v-76q0 -12 -10 -17t-20 -5.5l-10 -0.5h-920zM329 218l-67 78l342 338v-179q-6 11 -13.5 10.5t-12.5 -5.5z" />
    <glyph glyph-name="uni0644" unicode="&#x644;" horiz-adv-x="470" 
d="M332 40v735l113 25v-800zM216 -200q-61 0 -99 22t-58 55t-27 66.5t-7 56.5q0 44 18.5 84t47.5 71.5t60 51.5q2 -19 -2 -36t-18 -36q11 -5 18.5 -16t10.5 -24t0 -25q-15 11 -27 13.5t-26 -2.5q-24 -5 -36 -29t-12 -52q0 -39 15.5 -71t49 -52t86.5 -20q47 0 73.5 22.5
t37.5 64t11 96.5v248l113 25v-313q0 -56 -26 -101.5t-76.5 -72t-126.5 -26.5z" />
    <glyph glyph-name="uni0645" unicode="&#x645;" horiz-adv-x="613" 
d="M25 0l92 153q10 -20 30 -30t38 -10h188l60 -113h-408zM433 0q-43 0 -78.5 21t-57 57t-21.5 79q0 42 19.5 76t52 55t69.5 25q5 19 15 31.5t18 20.5q71 -43 104.5 -95t33.5 -113q0 -43 -21 -79t-56 -57t-78 -21zM433 113q18 0 30.5 12.5t12.5 31.5q0 18 -12.5 30.5
t-30.5 12.5q-19 0 -31.5 -12.5t-12.5 -30.5q0 -19 12.5 -31.5t31.5 -12.5z" />
    <glyph glyph-name="uni0646" unicode="&#x646;" horiz-adv-x="1000" 
 />
    <glyph glyph-name="uni0647" unicode="&#x647;" horiz-adv-x="363" 
d="M224 335v117l114 51v-112q-9 -16 -27.5 -28.5t-41.5 -19.5t-45 -8zM224 476v299l114 25v-273zM338 157l-156 156q13 0 35 0.5t46 5t44.5 15t30.5 29.5v-206zM182 0q-43 0 -78.5 21t-57 57t-21.5 79t21.5 78.5t57 56.5t78.5 21t78.5 -21t56.5 -56.5t21 -78.5t-21 -79
t-56.5 -57t-78.5 -21zM182 113q18 0 30.5 12.5t12.5 31.5q0 18 -12.5 30.5t-30.5 12.5t-31 -12.5t-13 -30.5q0 -19 13 -31.5t31 -12.5z" />
    <glyph glyph-name="uni0648" unicode="&#x648;" horiz-adv-x="363" 
d="M46 -132q57 -15 92.5 -11.5t54 19t25 35.5t6.5 37v180l114 29v-192q0 -55 -23.5 -90t-60.5 -51t-77.5 -15.5t-75.5 16t-55 43.5zM338 157l-156 156q13 0 35 0.5t46 5t44.5 15t30.5 29.5v-206zM182 0q-43 0 -78.5 21t-57 57t-21.5 79t21.5 78.5t57 56.5t78.5 21t78.5 -21
t56.5 -56.5t21 -78.5t-21 -79t-56.5 -57t-78.5 -21zM182 113q18 0 30.5 12.5t12.5 31.5q0 18 -12.5 30.5t-30.5 12.5t-31 -12.5t-13 -30.5q0 -19 13 -31.5t31 -12.5z" />
    <glyph glyph-name="uni0649" unicode="&#x649;" horiz-adv-x="725" 
d="M393 -200l-231 403q-41 71 -39 125t31 94.5t69 70.5q31 23 48 41t17 57l339 -591h-129l-223 387q-27 -17 -32.5 -53.5t16.5 -74.5l262 -459h-128zM526 0l-44 113h58q18 0 38 10t30 30l92 -153h-174zM25 -200l92 153q10 -20 30 -30t38 -10h188l60 -113h-408z" />
    <glyph glyph-name="uni064A" unicode="&#x64a;" horiz-adv-x="1000" 
 />
    <glyph glyph-name="uni064B" unicode="&#x64b;" 
d="M51 64l-17 30l225 130l17 -30zM17 121l-17 30l225 130l17 -30z" />
    <glyph glyph-name="uni064C" unicode="&#x64c;" 
d="M23 63l-23 132l33 6l24 -131zM205 156q-30 -17 -64.5 -7.5t-52.5 40.5q-18 32 -9.5 67t38.5 52q32 19 67.5 9.5t54.5 -41.5q17 -31 7.5 -66.5t-41.5 -53.5zM57 70l-17 30l150 86l15 -30zM190 186q20 11 25 32.5t-6 40.5q-11 20 -31.5 25.5t-41.5 -5.5
q-19 -10 -23.5 -31.5t5.5 -41.5q11 -19 32 -25t40 5z" />
    <glyph glyph-name="uni064D" unicode="&#x64d;" 
d="M51 -17l-17 30l225 130l17 -30zM17 40l-17 30l225 130l17 -30z" />
    <glyph glyph-name="uni064E" unicode="&#x64e;" 
d="M17 64l-17 30l225 130l17 -30z" />
    <glyph glyph-name="uni064F" unicode="&#x64f;" 
d="M165 150q-30 -17 -64.5 -7.5t-52.5 40.5q-18 32 -9.5 67t38.5 52q32 19 67.5 9.5t54.5 -41.5q17 -31 7.5 -66.5t-41.5 -53.5zM17 64l-17 30l150 86l15 -30zM150 180q20 11 25 32.5t-6 40.5q-11 20 -31.5 25.5t-41.5 -5.5q-19 -10 -23.5 -31.5t5.5 -41.5q11 -19 32 -25
t40 5z" />
    <glyph glyph-name="uni0650" unicode="&#x650;" 
d="M17 40l-17 30l225 130l17 -30z" />
    <glyph glyph-name="uni0651" unicode="&#x651;" 
d="M185 74q-29 0 -50.5 22t-21.5 52h34q0 -16 12 -28t27 -12q16 0 28 12t12 28h34q0 -30 -21.5 -52t-53.5 -22zM72 74q-29 0 -50.5 22t-21.5 52h34q0 -16 12 -28t27 -12q16 0 28 12t12 28h34q0 -30 -21.5 -52t-53.5 -22zM0 148v52h34v-52h-34zM113 148v52h34v-52h-34z
M226 148v52h34v-52h-34z" />
    <glyph glyph-name="uni0652" unicode="&#x652;" 
d="M98 74q-40 0 -69 29.5t-29 70.5t29 70.5t69 29.5q41 0 70.5 -29.5t29.5 -70.5t-29.5 -70.5t-70.5 -29.5zM99 109q28 0 47 19t19 47t-18.5 47t-47.5 20q-28 1 -47 -19t-19 -48t19 -47t47 -19z" />
    <glyph glyph-name="uni0653" unicode="&#x653;" 
d="M0 -38q23 3 25.5 18t2.5 36v56l50 8v-64q0 -27 -10 -39.5t-24 -16t-26.5 -1.5t-17.5 3zM46 0v50h188v-50h-188zM215 0v50h35q8 0 15.5 4t11.5 12l38 -66h-100z" />
    <glyph glyph-name="uni0653" unicode="&#x6e4;" 
d="M0 -38q23 3 25.5 18t2.5 36v56l50 8v-64q0 -27 -10 -39.5t-24 -16t-26.5 -1.5t-17.5 3zM46 0v50h188v-50h-188zM215 0v50h35q8 0 15.5 4t11.5 12l38 -66h-100z" />
    <glyph glyph-name="uni0654" unicode="&#x654;" 
d="M73 9v33q0 19 1 30.5t5 26.5q8 30 27 49.5t58 19.5q14 0 33.5 -8.5t29.5 -31.5q-6 3 -26 8t-34 1q-16 -4 -23 -14.5t-8 -20t-1 -13.5q0 -20 10.5 -28t25 -9.5t26.5 -1.5h26l1 -41h-151zM0 0l30 50h240l-30 -50h-240z" />
    <glyph glyph-name="uni0655" unicode="&#x655;" 
d="M73 -159v33q0 19 1 30.5t5 26.5q8 30 27 49.5t58 19.5q14 0 33.5 -8.5t29.5 -31.5q-6 3 -26 8t-34 1q-16 -4 -23 -14.5t-8 -20t-1 -13.5q0 -20 10.5 -28t25 -9.5t26.5 -1.5h26l1 -41h-151zM0 -168l30 50h240l-30 -50h-240z" />
    <glyph glyph-name="uni0656" unicode="&#x656;" 
d="M21 -230v155q0 7 -5.5 11t-15.5 -1l69 68v-233h-48z" />
    <glyph glyph-name="uni065A" unicode="&#x65a;" 
d="M0 77l47 47l91 -95l-29 -7l92 102l47 -48l-123 -126z" />
    <glyph glyph-name="uni0660" unicode="&#x660;" horiz-adv-x="500" 
d="M250 219q-34 0 -57.5 23.5t-23.5 57.5t23.5 57.5t57.5 23.5t57.5 -23.5t23.5 -57.5t-23.5 -57.5t-57.5 -23.5z" />
    <glyph glyph-name="uni0660" unicode="&#x6f0;" horiz-adv-x="500" 
d="M250 219q-34 0 -57.5 23.5t-23.5 57.5t23.5 57.5t57.5 23.5t57.5 -23.5t23.5 -57.5t-23.5 -57.5t-57.5 -23.5z" />
    <glyph glyph-name="uni0661" unicode="&#x661;" horiz-adv-x="500" 
d="M193 0v575l114 25v-600h-114z" />
    <glyph glyph-name="uni0661" unicode="&#x6f1;" horiz-adv-x="500" 
d="M193 0v575l114 25v-600h-114z" />
    <glyph glyph-name="uni0662" unicode="&#x662;" horiz-adv-x="500" 
d="M103 0v403q0 66 19 105t50 59t70 26.5t79 6.5h76v-113h-87q-28 0 -49 -7t-32.5 -25t-11.5 -52v-403h-114z" />
    <glyph glyph-name="uni0663" unicode="&#x663;" horiz-adv-x="500" 
d="M50 293v114h143v167l114 26v-193h60v168l113 25v-284q0 -12 -10 -17t-20 -5.5l-10 -0.5h-390zM20 0v575l113 25v-600h-113z" />
    <glyph glyph-name="uni0663" unicode="&#x6f3;" horiz-adv-x="500" 
d="M50 293v114h143v167l114 26v-193h60v168l113 25v-284q0 -12 -10 -17t-20 -5.5l-10 -0.5h-390zM20 0v575l113 25v-600h-113z" />
    <glyph glyph-name="uni0664" unicode="&#x664;" horiz-adv-x="500" 
d="M140 0q-28 0 -45.5 12t-26 30.5t-8.5 35.5q0 25 12 48.5t28 39.5l99 100l-77 60q-16 12 -30 34.5t-14 50.5q0 27 13.5 47t34.5 36l174 128l68 -91l-209 -154l2 66l198 -167l-191 -202l-14 39h293v-113h-307z" />
    <glyph glyph-name="uni0665" unicode="&#x665;" horiz-adv-x="500" 
d="M250 50q-42 0 -77.5 21t-56.5 57t-21 79v186q0 44 21 79.5t56.5 56.5t77.5 21q43 0 78 -21t56 -56.5t21 -79.5v-186q0 -43 -21 -79t-56 -57t-78 -21zM135 50l-10 0.5t-20 5.5t-10 17v208l155 -231h-115zM207 163h43q18 0 30.5 12.5t12.5 31.5v230h-43q-18 0 -30.5 -12.5
t-12.5 -31.5v-230zM405 393l-155 157q13 0 35 1t46 5.5t44 15.5t30 30v-209z" />
    <glyph glyph-name="uni0665" unicode="&#x6f5;" horiz-adv-x="500" 
d="M250 50q-42 0 -77.5 21t-56.5 57t-21 79v186q0 44 21 79.5t56.5 56.5t77.5 21q43 0 78 -21t56 -56.5t21 -79.5v-186q0 -43 -21 -79t-56 -57t-78 -21zM135 50l-10 0.5t-20 5.5t-10 17v208l155 -231h-115zM207 163h43q18 0 30.5 12.5t12.5 31.5v230h-43q-18 0 -30.5 -12.5
t-12.5 -31.5v-230zM405 393l-155 157q13 0 35 1t46 5.5t44 15.5t30 30v-209z" />
    <glyph glyph-name="uni0666" unicode="&#x666;" horiz-adv-x="500" 
d="M314 -7v494h-217l-25 113h325q14 0 20 -9.5t8 -20.5t2 -17v-560h-113z" />
    <glyph glyph-name="uni0667" unicode="&#x667;" horiz-adv-x="500" 
d="M301 0l-109 30l158 582l101 -53zM199 0v19h102v-19h-102zM199 0l-150 558l102 54l157 -582z" />
    <glyph glyph-name="uni0668" unicode="&#x668;" horiz-adv-x="500" 
d="M345 0l-154 570l109 30l162 -600h-117zM38 0l160 600l110 -30l-153 -570h-117zM198 581v19h102v-19h-102z" />
    <glyph glyph-name="uni0668" unicode="&#x6f8;" horiz-adv-x="500" 
d="M345 0l-154 570l109 30l162 -600h-117zM38 0l160 600l110 -30l-153 -570h-117zM198 581v19h102v-19h-102z" />
    <glyph glyph-name="uni0669" unicode="&#x669;" horiz-adv-x="500" 
d="M333 0v232q-10 -1 -25 -2t-32 -1q-65 0 -115.5 23.5t-79 66.5t-28.5 102q0 55 26.5 99t72.5 69.5t103 25.5q56 0 99 -24t68 -66t25 -97v-428h-114zM333 345v80q0 37 -22 56t-58 19q-40 0 -63.5 -23.5t-23.5 -57.5q0 -39 32 -58t81 -19q18 0 33 1.5t21 1.5z" />
    <glyph glyph-name="uni0669" unicode="&#x6f9;" horiz-adv-x="500" 
d="M333 0v232q-10 -1 -25 -2t-32 -1q-65 0 -115.5 23.5t-79 66.5t-28.5 102q0 55 26.5 99t72.5 69.5t103 25.5q56 0 99 -24t68 -66t25 -97v-428h-114zM333 345v80q0 37 -22 56t-58 19q-40 0 -63.5 -23.5t-23.5 -57.5q0 -39 32 -58t81 -19q18 0 33 1.5t21 1.5z" />
    <glyph glyph-name="uni066E" unicode="&#x66e;" horiz-adv-x="850" 
d="M25 0l68 113h619v-113h-687zM605 0v113h107v175l113 25v-290q0 -12 -10 -17t-20 -5.5l-10 -0.5h-180z" />
    <glyph glyph-name="uni066F" unicode="&#x66f;" horiz-adv-x="522" 
d="M253 -215q-58 0 -101 19.5t-70 51t-40 68.5t-13 71q0 66 23 118.5t59 84.5q2 -19 3 -36.5t-13 -36.5q8 1 24.5 -8t21.5 -37q-21 3 -33.5 1.5t-23.5 -8.5q-14 -9 -21 -31t-7 -47q0 -38 21.5 -70.5t62 -52.5t97.5 -20q77 0 109 37.5t32 120.5v68l113 79v-107
q0 -16 -3.5 -47.5t-16 -68.5t-39 -71t-71.5 -56t-114 -22zM342 0q-43 0 -78.5 21t-56 57t-20.5 79t20.5 78.5t56 56.5t78.5 21t78 -21t56 -56.5t21 -78.5t-21 -79t-56 -57t-78 -21zM342 113q18 0 31 12.5t13 31.5q0 18 -13 30.5t-31 12.5t-31 -12.5t-13 -30.5
q0 -19 13 -31.5t31 -12.5z" />
    <glyph glyph-name="uni0670" unicode="&#x670;" 
d="M21 0v155q0 7 -5.5 11t-15.5 -1l69 68v-233h-48z" />
    <glyph glyph-name="uni0671" unicode="&#x671;" horiz-adv-x="1000" 
 />
    <glyph glyph-name="uni0674" unicode="&#x674;" horiz-adv-x="520" 
d="M151 446v77q0 54 17.5 95.5t48.5 65t72 23.5q42 0 69.5 -14.5t42.5 -37.5t19 -49q-13 12 -36 22.5t-50 10.5q-25 0 -44.5 -17t-19.5 -47q0 -22 11.5 -35.5t29.5 -20t37 -6.5h40l1 -67h-238zM25 400l68 113h402l-68 -113h-402z" />
    <glyph glyph-name="uni0679" unicode="&#x679;" horiz-adv-x="1000" 
 />
    <glyph glyph-name="uni067A" unicode="&#x67a;" horiz-adv-x="1000" 
 />
    <glyph glyph-name="uni067E" unicode="&#x67e;" horiz-adv-x="1000" 
 />
    <glyph glyph-name="uni0686" unicode="&#x686;" horiz-adv-x="1000" 
 />
    <glyph glyph-name="uni0688" unicode="&#x688;" horiz-adv-x="1000" 
 />
    <glyph glyph-name="uni068E" unicode="&#x68e;" horiz-adv-x="1000" 
 />
    <glyph glyph-name="uni0691" unicode="&#x691;" horiz-adv-x="1000" 
 />
    <glyph glyph-name="uni0695" unicode="&#x695;" horiz-adv-x="225" 
d="M-85 -150q53 -14 86.5 -11.5t52.5 16.5t26 35t7 43v355l113 25v-373q0 -53 -22.5 -86.5t-58.5 -49t-75.5 -14.5t-74 16.5t-54.5 43.5zM-14 -273l47 47l91 -95l-29 -7l92 102l47 -48l-123 -126z" />
    <glyph glyph-name="uni0698" unicode="&#x698;" horiz-adv-x="1000" 
 />
    <glyph glyph-name="uni06A0" unicode="&#x6a0;" horiz-adv-x="1000" 
 />
    <glyph glyph-name="uni06A1" unicode="&#x6a1;" horiz-adv-x="850" 
d="M25 0l60 113h350v-113h-410zM405 0v113h307v128l113 72v-290q0 -12 -10 -17t-20 -5.5l-10 -0.5h-380zM669 157q-42 0 -78 21t-57.5 57t-21.5 78q0 44 21.5 79.5t57.5 56.5t79 21q42 0 77.5 -21t56.5 -56.5t21 -79.5q0 -43 -21 -78.5t-56.5 -56.5t-78.5 -21zM669 270
q19 0 31 12.5t12 30.5q0 19 -12 31.5t-31 12.5q-18 0 -30.5 -12.5t-12.5 -31.5q0 -18 12.5 -30.5t30.5 -12.5z" />
    <glyph glyph-name="uni06A4" unicode="&#x6a4;" horiz-adv-x="1000" 
 />
    <glyph glyph-name="uni06A9" unicode="&#x6a9;" horiz-adv-x="1000" 
 />
    <glyph glyph-name="uni06AC" unicode="&#x6ac;" horiz-adv-x="1000" 
 />
    <glyph glyph-name="uni06AF" unicode="&#x6af;" horiz-adv-x="1000" 
 />
    <glyph glyph-name="uni06B5" unicode="&#x6b5;" horiz-adv-x="470" 
d="M332 40v735l113 25v-800zM216 -200q-61 0 -99 22t-58 55t-27 66.5t-7 56.5q0 44 18.5 84t47.5 71.5t60 51.5q2 -19 -2 -36t-18 -36q11 -5 18.5 -16t10.5 -24t0 -25q-15 11 -27 13.5t-26 -2.5q-24 -5 -36 -29t-12 -52q0 -39 15.5 -71t49 -52t86.5 -20q47 0 73.5 22.5
t37.5 64t11 96.5v248l113 25v-313q0 -56 -26 -101.5t-76.5 -72t-126.5 -26.5zM262 938l47 47l91 -95l-29 -7l92 102l47 -48l-123 -126z" />
    <glyph glyph-name="uni06BA" unicode="&#x6ba;" horiz-adv-x="460" 
d="M222 -204q-52 0 -89 19t-61 50t-35.5 66.5t-11.5 68.5q0 44 18.5 84t47.5 71.5t60 51.5q2 -19 -2.5 -36.5t-17.5 -35.5q11 -5 18.5 -16.5t10.5 -24t0 -23.5q-13 8 -23 11.5t-23 2.5q-26 -2 -40.5 -28.5t-14.5 -56.5q0 -37 16.5 -68t49 -48.5t80.5 -17.5q45 0 75 21
t44.5 55.5t12.5 72.5q-1 27 -11.5 52t-23 46t-22.5 34l57 115q38 -46 68 -107.5t30 -149.5q0 -60 -27.5 -107.5t-75.5 -74.5t-110 -27z" />
    <glyph glyph-name="uni06BB" unicode="&#x6bb;" horiz-adv-x="1000" 
 />
    <glyph glyph-name="uni06BC" unicode="&#x6bc;" horiz-adv-x="460" 
d="M222 -372q-40 0 -69 29.5t-29 70.5t29 70.5t69 29.5q41 0 70.5 -29.5t29.5 -70.5t-29.5 -70.5t-70.5 -29.5zM223 -337q28 0 47 19t19 47t-18.5 47t-47.5 20q-28 1 -47 -19t-19 -48t19 -47t47 -19z" />
    <glyph glyph-name="uni06BD" unicode="&#x6bd;" horiz-adv-x="1000" 
 />
    <glyph glyph-name="uni06BE" unicode="&#x6be;" horiz-adv-x="1000" 
 />
    <glyph glyph-name="uni06C0" unicode="&#x6c0;" horiz-adv-x="1000" 
 />
    <glyph glyph-name="uni06C1" unicode="&#x6c1;" horiz-adv-x="1000" 
 />
    <glyph glyph-name="uni06C2" unicode="&#x6c2;" horiz-adv-x="1000" 
 />
    <glyph glyph-name="uni06C3" unicode="&#x6c3;" horiz-adv-x="1000" 
 />
    <glyph glyph-name="uni06C6" unicode="&#x6c6;" horiz-adv-x="363" 
d="M46 -132q57 -15 92.5 -11.5t54 19t25 35.5t6.5 37v180l114 29v-192q0 -55 -23.5 -90t-60.5 -51t-77.5 -15.5t-75.5 16t-55 43.5zM338 157l-156 156q13 0 35 0.5t46 5t44.5 15t30.5 29.5v-206zM182 0q-43 0 -78.5 21t-57 57t-21.5 79t21.5 78.5t57 56.5t78.5 21t78.5 -21
t56.5 -56.5t21 -78.5t-21 -79t-56.5 -57t-78.5 -21zM182 113q18 0 30.5 12.5t12.5 31.5q0 18 -12.5 30.5t-30.5 12.5t-31 -12.5t-13 -30.5q0 -19 13 -31.5t31 -12.5zM57 577l47 47l91 -95l-29 -7l92 102l47 -48l-123 -126z" />
    <glyph glyph-name="uni06CA" unicode="&#x6ca;" horiz-adv-x="363" 
d="M46 -132q57 -15 92.5 -11.5t54 19t25 35.5t6.5 37v180l114 29v-192q0 -55 -23.5 -90t-60.5 -51t-77.5 -15.5t-75.5 16t-55 43.5zM338 157l-156 156q13 0 35 0.5t46 5t44.5 15t30.5 29.5v-206zM182 0q-43 0 -78.5 21t-57 57t-21.5 79t21.5 78.5t57 56.5t78.5 21t78.5 -21
t56.5 -56.5t21 -78.5t-21 -79t-56.5 -57t-78.5 -21zM182 113q18 0 30.5 12.5t12.5 31.5q0 18 -12.5 30.5t-30.5 12.5t-31 -12.5t-13 -30.5q0 -19 13 -31.5t31 -12.5zM267 442q-24 0 -41 17t-17 41t17 41t41 17t41 -17t17 -41t-17 -41t-41 -17zM94 442q-24 0 -41 17t-17 41
t17 41t41 17t41 -17t17 -41t-17 -41t-41 -17z" />
    <glyph glyph-name="uni06CB" unicode="&#x6cb;" horiz-adv-x="363" 
d="M46 -132q57 -15 92.5 -11.5t54 19t25 35.5t6.5 37v180l114 29v-192q0 -55 -23.5 -90t-60.5 -51t-77.5 -15.5t-75.5 16t-55 43.5zM338 157l-156 156q13 0 35 0.5t46 5t44.5 15t30.5 29.5v-206zM182 0q-43 0 -78.5 21t-57 57t-21.5 79t21.5 78.5t57 56.5t78.5 21t78.5 -21
t56.5 -56.5t21 -78.5t-21 -79t-56.5 -57t-78.5 -21zM182 113q18 0 30.5 12.5t12.5 31.5q0 18 -12.5 30.5t-30.5 12.5t-31 -12.5t-13 -30.5q0 -19 13 -31.5t31 -12.5zM181 592q-24 0 -41 17t-17 41t17 41t41 17t41 -17t17 -41t-17 -41t-41 -17zM267 442q-24 0 -41 17t-17 41
t17 41t41 17t41 -17t17 -41t-17 -41t-41 -17zM94 442q-24 0 -41 17t-17 41t17 41t41 17t41 -17t17 -41t-17 -41t-41 -17z" />
    <glyph glyph-name="uni06CC" unicode="&#x6cc;" horiz-adv-x="1000" 
 />
    <glyph glyph-name="uni06CE" unicode="&#x6ce;" horiz-adv-x="725" 
d="M393 -200l-231 403q-41 71 -39 125t31 94.5t69 70.5q31 23 48 41t17 57l339 -591h-129l-223 387q-27 -17 -32.5 -53.5t16.5 -74.5l262 -459h-128zM526 0l-44 113h58q18 0 38 10t30 30l92 -153h-174zM25 -200l92 153q10 -20 30 -30t38 -10h188l60 -113h-408zM164 753
l47 47l91 -95l-29 -7l92 102l47 -48l-123 -126z" />
    <glyph glyph-name="uni06CF" unicode="&#x6cf;" horiz-adv-x="1000" 
 />
    <glyph glyph-name="uni06D0" unicode="&#x6d0;" horiz-adv-x="765" 
d="M318 0l-116 203q-40 71 -38.5 125t30.5 94.5t69 70.5q31 23 48 41t17 57l339 -591h-129l-223 387q-27 -17 -32.5 -53.5t16.5 -74.5l148 -259h-129zM25 0l92 153q10 -20 30 -30t38 -10h136l58 -113h-354zM566 0l-44 113h58q18 0 38 10t30 30l92 -153h-174zM240 -207
q-24 0 -41 17t-17 41t17 41t41 17t41 -17t17 -41t-17 -41t-41 -17zM240 -377q-24 0 -41 17t-17 41t17 41t41 17t41 -17t17 -41t-17 -41t-41 -17z" />
    <glyph glyph-name="uni06D2" unicode="&#x6d2;" horiz-adv-x="1045" 
d="M295 -200l-231 403q-41 71 -39 125t31 94.5t69 70.5q31 23 48 41t17 57l339 -591h-129l-224 387q-26 -17 -31.5 -53.5t16.5 -74.5l261 -459h-127zM320 -200v113h640l60 -113h-700zM428 0l-44 113h58q18 0 38 10t30 30l92 -153h-174z" />
    <glyph glyph-name="uni06D3" unicode="&#x6d3;" horiz-adv-x="1000" 
 />
    <glyph glyph-name="uni06D5" unicode="&#x6d5;" horiz-adv-x="363" 
d="M338 157l-156 156q13 0 35 0.5t46 5t44.5 15t30.5 29.5v-206zM182 0q-43 0 -78.5 21t-57 57t-21.5 79t21.5 78.5t57 56.5t78.5 21t78.5 -21t56.5 -56.5t21 -78.5t-21 -79t-56.5 -57t-78.5 -21zM182 113q18 0 30.5 12.5t12.5 31.5q0 18 -12.5 30.5t-30.5 12.5t-31 -12.5
t-13 -30.5q0 -19 13 -31.5t31 -12.5z" />
    <glyph glyph-name="uni06E1" unicode="&#x6e1;" 
d="M31 239v35h198v-35h-198zM31 196l-31 15l31 63l31 -15zM33 77l-6 35q33 6 66 26t60.5 50t43.5 65l32 -14q-17 -37 -47.5 -71.5t-69 -59t-79.5 -31.5z" />
    <glyph glyph-name="uni06F2" unicode="&#x6f2;" horiz-adv-x="500" 
d="M100 343v114h223v118l114 25v-234q0 -12 -10 -17t-20 -5.5l-10 -0.5h-297zM63 0v575l114 25v-600h-114z" />
    <glyph glyph-name="uni06F4" unicode="&#x6f4;" horiz-adv-x="500" 
d="M188 333v76q0 54 17.5 95.5t49 65.5t71.5 24q39 0 64 -14t39 -35.5t19 -44.5q-11 8 -31.5 17t-45.5 9t-45 -17t-20 -47q0 -23 12 -36.5t30 -19.5t37 -6h39l1 -67h-237zM50 287v113h430l-25 -113h-405zM20 0v575l113 25v-600h-113z" />
    <glyph glyph-name="uni06F6" unicode="&#x6f6;" horiz-adv-x="500" 
d="M60 0q0 11 2 47.5t12.5 87.5t36 107.5t71.5 106.5q-35 24 -49 57.5t-10.5 68t22 65t48 49t66.5 18.5q43 0 73.5 -24.5t43.5 -64.5q-23 20 -48.5 26.5t-46.5 2.5q-22 -3 -38.5 -22t-16.5 -41q0 -23 12.5 -42.5t31.5 -30t36 -5.5l137 42l-43 -115q-66 -17 -121 -52
t-99 -81.5t-74 -98t-46 -101.5z" />
    <glyph glyph-name="uni06F7" unicode="&#x6f7;" horiz-adv-x="500" 
d="M301 0l-109 30l158 582l101 -53zM199 0v19h102v-19h-102zM199 0l-150 558l102 54l157 -582z" />
    <glyph glyph-name="uni0762" unicode="&#x762;" horiz-adv-x="1000" 
 />
    <glyph glyph-name="Wgrave" unicode="&#x1e80;" horiz-adv-x="1014" 
d="M37 724h138l179 -512l-20 8l140 358l55 -161l-201 -451zM394 724h118l198 -501l-23 4l164 497h127l-284 -756zM342 906h126l68 -134h-70z" />
    <glyph glyph-name="wgrave" unicode="&#x1e81;" horiz-adv-x="679" 
d="M363 424l110 -255l-21 -2l100 257h111l-193 -449l-136 286l-124 -286l-195 449h111l119 -270l-40 6l89 202l-29 62h98zM180 621h126l68 -134h-70z" />
    <glyph glyph-name="Wacute" unicode="&#x1e82;" horiz-adv-x="1014" 
d="M37 724h138l179 -512l-20 8l140 358l55 -161l-201 -451zM394 724h118l198 -501l-23 4l164 497h127l-284 -756zM676 901l-136 -134h-70l80 134h126z" />
    <glyph glyph-name="wacute" unicode="&#x1e83;" horiz-adv-x="679" 
d="M363 424l110 -255l-21 -2l100 257h111l-193 -449l-136 286l-124 -286l-195 449h111l119 -270l-40 6l89 202l-29 62h98zM467 617l-136 -134h-70l80 134h126z" />
    <glyph glyph-name="Wdieresis" unicode="&#x1e84;" horiz-adv-x="1014" 
d="M37 724h138l179 -512l-20 8l140 358l55 -161l-201 -451zM394 724h118l198 -501l-23 4l164 497h127l-284 -756zM346 831q0 27 19 45t42 18q22 0 41 -18t19 -45t-19 -44t-41 -17q-23 0 -42 17t-19 44v0zM538 831q0 27 19.5 45t42.5 18q21 0 40.5 -18t19.5 -45t-19.5 -44
t-40.5 -17q-23 0 -42.5 17t-19.5 44v0z" />
    <glyph glyph-name="wdieresis" unicode="&#x1e85;" horiz-adv-x="679" 
d="M363 424l110 -255l-21 -2l100 257h111l-193 -449l-136 286l-124 -286l-195 449h111l119 -270l-40 6l89 202l-29 62h98zM181 533q0 27 19 45t42 18q22 0 41 -18t19 -45t-19 -44t-41 -17q-23 0 -42 17t-19 44v0zM373 533q0 27 19.5 45t42.5 18q21 0 40.5 -18t19.5 -45
t-19.5 -44t-40.5 -17q-23 0 -42.5 17t-19.5 44v0z" />
    <glyph glyph-name="uni1E9E" unicode="&#x1e9e;" horiz-adv-x="839" 
d="M570 -8q-63 0 -124 18t-112 54l52 92q37 -26 84.5 -43t89.5 -17q24 0 49 9.5t41.5 30t16.5 55.5q0 26 -15.5 44.5t-40 34t-52.5 31.5q-37 19 -74 46t-62 64.5t-25 89.5q0 79 46.5 127t129.5 54q26 0 42.5 -6.5t27.5 -17.5l-37 -58q-38 39 -88 57.5t-103 18.5
q-90 0 -143.5 -65.5t-53.5 -209.5v-401h-119v405q0 108 35.5 190.5t103 128.5t165.5 46q55 0 110 -15t100 -38t68 -49l-32 -87q-7 6 -22 13.5t-36 7.5q-34 0 -55 -23t-21 -58q0 -30 16.5 -51.5t42 -38t52.5 -32.5q28 -16 57 -34t53 -41t38.5 -55t14.5 -78q0 -53 -25.5 -98
t-74.5 -73t-120 -28z" />
    <glyph glyph-name="uni1EA0" unicode="&#x1ea0;" horiz-adv-x="699" 
d="M23 0l323 758h7l323 -758h-137l-225 573l85 57l-259 -630h-117zM227 270h247l41 -101h-324zM283 -109q0 26 20.5 43.5t44.5 17.5t44 -17.5t20 -43.5q0 -27 -20 -43.5t-44 -16.5t-44.5 16.5t-20.5 43.5z" />
    <glyph glyph-name="uni1EA1" unicode="&#x1ea1;" horiz-adv-x="599" 
d="M255 -11q-60 0 -108.5 25t-77 74.5t-28.5 123.5q0 71 30 123t78.5 80t104.5 28q62 0 99 -24t59 -56l-6 -16l11 77h105v-424h-114v102l10 -26q-3 -6 -15 -19.5t-32.5 -29t-49.5 -27t-66 -11.5zM286 83q46 0 77.5 23t44.5 65v93q-12 38 -46 62t-80 24q-34 0 -62.5 -16.5
t-45.5 -46.5t-17 -69t18 -69.5t47.5 -48t63.5 -17.5zM245 -106q0 22 17 36t38 14q20 0 36.5 -14t16.5 -36q0 -23 -16.5 -37t-36.5 -14q-21 0 -38 14.5t-17 36.5z" />
    <glyph glyph-name="uni1EA2" unicode="&#x1ea2;" horiz-adv-x="699" 
d="M23 0l323 758h7l323 -758h-137l-225 573l85 57l-259 -630h-117zM227 270h247l41 -101h-324zM342 834q19 13 30.5 26t11.5 31q0 15 -7.5 24.5t-23.5 9.5q-15 0 -25.5 -8t-18.5 -21l-41 26q17 34 44 50t56 16q28 0 45.5 -11.5t26 -30.5t8.5 -40q0 -36 -24 -60.5t-57 -44.5z
" />
    <glyph glyph-name="uni1EA3" unicode="&#x1ea3;" horiz-adv-x="599" 
d="M255 -11q-60 0 -108.5 25t-77 74.5t-28.5 123.5q0 71 30 123t78.5 80t104.5 28q62 0 99 -24t59 -56l-6 -16l11 77h105v-424h-114v102l10 -26q-3 -6 -15 -19.5t-32.5 -29t-49.5 -27t-66 -11.5zM286 83q46 0 77.5 23t44.5 65v93q-12 38 -46 62t-80 24q-34 0 -62.5 -16.5
t-45.5 -46.5t-17 -69t18 -69.5t47.5 -48t63.5 -17.5zM291 520q19 13 30.5 26t11.5 31q0 15 -7.5 24.5t-23.5 9.5q-15 0 -25.5 -8t-18.5 -21l-41 26q17 34 44 50t56 16q28 0 45.5 -11.5t26 -30.5t8.5 -40q0 -36 -24 -60.5t-57 -44.5z" />
    <glyph glyph-name="uni1EA4" unicode="&#x1ea4;" horiz-adv-x="699" 
d="M23 0l323 758h7l323 -758h-137l-225 573l85 57l-259 -630h-117zM227 270h247l41 -101h-324zM425 821l-87 87l30 9l-87 -96h-104l174 177h1l177 -177h-104zM645 1056l-136 -134h-70l80 134h126z" />
    <glyph glyph-name="uni1EA5" unicode="&#x1ea5;" horiz-adv-x="599" 
d="M255 -11q-60 0 -108.5 25t-77 74.5t-28.5 123.5q0 71 30 123t78.5 80t104.5 28q62 0 99 -24t59 -56l-6 -16l11 77h105v-424h-114v102l10 -26q-3 -6 -15 -19.5t-32.5 -29t-49.5 -27t-66 -11.5zM286 83q46 0 77.5 23t44.5 65v93q-12 38 -46 62t-80 24q-34 0 -62.5 -16.5
t-45.5 -46.5t-17 -69t18 -69.5t47.5 -48t63.5 -17.5zM390 500l-87 87l30 9l-87 -96h-104l174 177h1l177 -177h-104zM610 736l-136 -134h-70l80 134h126z" />
    <glyph glyph-name="uni1EA6" unicode="&#x1ea6;" horiz-adv-x="699" 
d="M23 0l323 758h7l323 -758h-137l-225 573l85 57l-259 -630h-117zM227 270h247l41 -101h-324zM417 819l-87 87l30 9l-87 -96h-104l174 177h1l177 -177h-104zM22 1062h126l68 -134h-70z" />
    <glyph glyph-name="uni1EA7" unicode="&#x1ea7;" horiz-adv-x="599" 
d="M255 -11q-60 0 -108.5 25t-77 74.5t-28.5 123.5q0 71 30 123t78.5 80t104.5 28q62 0 99 -24t59 -56l-6 -16l11 77h105v-424h-114v102l10 -26q-3 -6 -15 -19.5t-32.5 -29t-49.5 -27t-66 -11.5zM286 83q46 0 77.5 23t44.5 65v93q-12 38 -46 62t-80 24q-34 0 -62.5 -16.5
t-45.5 -46.5t-17 -69t18 -69.5t47.5 -48t63.5 -17.5zM383 498l-87 87l30 9l-87 -96h-104l174 177h1l177 -177h-104zM-12 741h126l68 -134h-70z" />
    <glyph glyph-name="uni1EA8" unicode="&#x1ea8;" horiz-adv-x="699" 
d="M23 0l323 758h7l323 -758h-137l-225 573l85 57l-259 -630h-117zM227 270h247l41 -101h-324zM421 821l-87 87l30 9l-87 -96h-104l174 177h1l177 -177h-104zM518 928q19 13 30.5 26t11.5 31q0 15 -7.5 24.5t-23.5 9.5q-15 0 -25.5 -8t-18.5 -21l-41 26q17 34 44 50t56 16
q28 0 45.5 -11.5t26 -30.5t8.5 -40q0 -36 -24 -60.5t-57 -44.5z" />
    <glyph glyph-name="uni1EA9" unicode="&#x1ea9;" horiz-adv-x="599" 
d="M255 -11q-60 0 -108.5 25t-77 74.5t-28.5 123.5q0 71 30 123t78.5 80t104.5 28q62 0 99 -24t59 -56l-6 -16l11 77h105v-424h-114v102l10 -26q-3 -6 -15 -19.5t-32.5 -29t-49.5 -27t-66 -11.5zM286 83q46 0 77.5 23t44.5 65v93q-12 38 -46 62t-80 24q-34 0 -62.5 -16.5
t-45.5 -46.5t-17 -69t18 -69.5t47.5 -48t63.5 -17.5zM386 500l-87 87l30 9l-87 -96h-104l174 177h1l177 -177h-104zM484 607q19 13 30.5 26t11.5 31q0 15 -7.5 24.5t-23.5 9.5q-15 0 -25.5 -8t-18.5 -21l-41 26q17 34 44 50t56 16q28 0 45.5 -11.5t26 -30.5t8.5 -40
q0 -36 -24 -60.5t-57 -44.5z" />
    <glyph glyph-name="uni1EAA" unicode="&#x1eaa;" horiz-adv-x="699" 
d="M23 0l323 758h7l323 -758h-137l-225 573l85 57l-259 -630h-117zM227 270h247l41 -101h-324zM415 817l-87 87l30 9l-87 -96h-104l174 177h1l177 -177h-104zM422 1020q-33 0 -54.5 14.5t-40.5 30.5q-11 10 -22.5 18.5t-24.5 8.5q-19 0 -28.5 -21.5t-8.5 -49.5h-58
q-4 39 7 72t35.5 52.5t58.5 19.5q26 0 45 -14t36 -29q14 -13 26.5 -22.5t25.5 -9.5q20 0 26.5 21.5t5.5 52.5h59q6 -42 -5 -74.5t-33 -51t-50 -18.5z" />
    <glyph glyph-name="uni1EAB" unicode="&#x1eab;" horiz-adv-x="599" 
d="M255 -11q-60 0 -108.5 25t-77 74.5t-28.5 123.5q0 71 30 123t78.5 80t104.5 28q62 0 99 -24t59 -56l-6 -16l11 77h105v-424h-114v102l10 -26q-3 -6 -15 -19.5t-32.5 -29t-49.5 -27t-66 -11.5zM286 83q46 0 77.5 23t44.5 65v93q-12 38 -46 62t-80 24q-34 0 -62.5 -16.5
t-45.5 -46.5t-17 -69t18 -69.5t47.5 -48t63.5 -17.5zM381 496l-87 87l30 9l-87 -96h-104l174 177h1l177 -177h-104zM388 700q-33 0 -54.5 14.5t-40.5 30.5q-11 10 -22.5 18.5t-24.5 8.5q-19 0 -28.5 -21.5t-8.5 -49.5h-58q-4 39 7 72t35.5 52.5t58.5 19.5q26 0 45 -14
t36 -29q14 -13 26.5 -22.5t25.5 -9.5q20 0 26.5 21.5t5.5 52.5h59q6 -42 -5 -74.5t-33 -51t-50 -18.5z" />
    <glyph glyph-name="uni1EAC" unicode="&#x1eac;" horiz-adv-x="699" 
d="M23 0l323 758h7l323 -758h-137l-225 573l85 57l-259 -630h-117zM227 270h247l41 -101h-324zM283 -109q0 26 20.5 43.5t44.5 17.5t44 -17.5t20 -43.5q0 -27 -20 -43.5t-44 -16.5t-44.5 16.5t-20.5 43.5zM415 805l-87 87l30 9l-87 -96h-104l174 177h1l177 -177h-104z" />
    <glyph glyph-name="uni1EAD" unicode="&#x1ead;" horiz-adv-x="599" 
d="M255 -11q-60 0 -108.5 25t-77 74.5t-28.5 123.5q0 71 30 123t78.5 80t104.5 28q62 0 99 -24t59 -56l-6 -16l11 77h105v-424h-114v102l10 -26q-3 -6 -15 -19.5t-32.5 -29t-49.5 -27t-66 -11.5zM286 83q46 0 77.5 23t44.5 65v93q-12 38 -46 62t-80 24q-34 0 -62.5 -16.5
t-45.5 -46.5t-17 -69t18 -69.5t47.5 -48t63.5 -17.5zM245 -106q0 22 17 36t38 14q20 0 36.5 -14t16.5 -36q0 -23 -16.5 -37t-36.5 -14q-21 0 -38 14.5t-17 36.5zM386 503l-87 87l30 9l-87 -96h-104l174 177h1l177 -177h-104z" />
    <glyph glyph-name="uni1EAE" unicode="&#x1eae;" horiz-adv-x="699" 
d="M23 0l323 758h7l323 -758h-137l-225 573l85 57l-259 -630h-117zM227 270h247l41 -101h-324zM350 793q-66 0 -105.5 46t-53.5 135h76q8 -46 27 -75t56 -29t55 29t25 75h77q-12 -91 -51.5 -136t-105.5 -45zM516 1145l-136 -134h-70l80 134h126z" />
    <glyph glyph-name="uni1EAF" unicode="&#x1eaf;" horiz-adv-x="599" 
d="M255 -11q-60 0 -108.5 25t-77 74.5t-28.5 123.5q0 71 30 123t78.5 80t104.5 28q62 0 99 -24t59 -56l-6 -16l11 77h105v-424h-114v102l10 -26q-3 -6 -15 -19.5t-32.5 -29t-49.5 -27t-66 -11.5zM286 83q46 0 77.5 23t44.5 65v93q-12 38 -46 62t-80 24q-34 0 -62.5 -16.5
t-45.5 -46.5t-17 -69t18 -69.5t47.5 -48t63.5 -17.5zM317 484q-66 0 -105.5 46t-53.5 135h76q8 -46 27 -75t56 -29t55 29t25 75h77q-12 -91 -51.5 -136t-105.5 -45zM431 821l-136 -134h-70l80 134h126z" />
    <glyph glyph-name="uni1EB0" unicode="&#x1eb0;" horiz-adv-x="699" 
d="M23 0l323 758h7l323 -758h-137l-225 573l85 57l-259 -630h-117zM227 270h247l41 -101h-324zM350 793q-66 0 -105.5 46t-53.5 135h76q8 -46 27 -75t56 -29t55 29t25 75h77q-12 -91 -51.5 -136t-105.5 -45zM182 1150h126l68 -134h-70z" />
    <glyph glyph-name="uni1EB1" unicode="&#x1eb1;" horiz-adv-x="599" 
d="M255 -11q-60 0 -108.5 25t-77 74.5t-28.5 123.5q0 71 30 123t78.5 80t104.5 28q62 0 99 -24t59 -56l-6 -16l11 77h105v-424h-114v102l10 -26q-3 -6 -15 -19.5t-32.5 -29t-49.5 -27t-66 -11.5zM286 83q46 0 77.5 23t44.5 65v93q-12 38 -46 62t-80 24q-34 0 -62.5 -16.5
t-45.5 -46.5t-17 -69t18 -69.5t47.5 -48t63.5 -17.5zM317 484q-66 0 -105.5 46t-53.5 135h76q8 -46 27 -75t56 -29t55 29t25 75h77q-12 -91 -51.5 -136t-105.5 -45zM161 820h126l68 -134h-70z" />
    <glyph glyph-name="uni1EB2" unicode="&#x1eb2;" horiz-adv-x="699" 
d="M23 0l323 758h7l323 -758h-137l-225 573l85 57l-259 -630h-117zM227 270h247l41 -101h-324zM350 793q-66 0 -105.5 46t-53.5 135h76q8 -46 27 -75t56 -29t55 29t25 75h77q-12 -91 -51.5 -136t-105.5 -45zM341 1054q19 13 30.5 26t11.5 31q0 15 -7.5 24.5t-23.5 9.5
q-15 0 -25.5 -8t-18.5 -21l-41 26q17 34 44 50t56 16q28 0 45.5 -11.5t26 -30.5t8.5 -40q0 -36 -24 -60.5t-57 -44.5z" />
    <glyph glyph-name="uni1EB3" unicode="&#x1eb3;" horiz-adv-x="599" 
d="M255 -11q-60 0 -108.5 25t-77 74.5t-28.5 123.5q0 71 30 123t78.5 80t104.5 28q62 0 99 -24t59 -56l-6 -16l11 77h105v-424h-114v102l10 -26q-3 -6 -15 -19.5t-32.5 -29t-49.5 -27t-66 -11.5zM286 83q46 0 77.5 23t44.5 65v93q-12 38 -46 62t-80 24q-34 0 -62.5 -16.5
t-45.5 -46.5t-17 -69t18 -69.5t47.5 -48t63.5 -17.5zM317 484q-66 0 -105.5 46t-53.5 135h76q8 -46 27 -75t56 -29t55 29t25 75h77q-12 -91 -51.5 -136t-105.5 -45zM312 706q19 13 30.5 26t11.5 31q0 15 -7.5 24.5t-23.5 9.5q-15 0 -25.5 -8t-18.5 -21l-41 26q17 34 44 50
t56 16q28 0 45.5 -11.5t26 -30.5t8.5 -40q0 -36 -24 -60.5t-57 -44.5z" />
    <glyph glyph-name="uni1EB4" unicode="&#x1eb4;" horiz-adv-x="699" 
d="M23 0l323 758h7l323 -758h-137l-225 573l85 57l-259 -630h-117zM227 270h247l41 -101h-324zM350 793q-66 0 -105.5 46t-53.5 135h76q8 -46 27 -75t56 -29t55 29t25 75h77q-12 -91 -51.5 -136t-105.5 -45zM425 1048q-33 0 -55 14t-39 30q-12 10 -23.5 18.5t-24.5 8.5
q-20 0 -29 -21t-7 -50h-59q-4 39 7.5 72t35.5 52.5t58 19.5q26 0 45.5 -14t35.5 -29q14 -13 26.5 -22.5t26.5 -9.5q19 0 25.5 22t5.5 52h59q6 -42 -5 -74.5t-33 -50.5t-50 -18z" />
    <glyph glyph-name="uni1EB5" unicode="&#x1eb5;" horiz-adv-x="599" 
d="M255 -11q-60 0 -108.5 25t-77 74.5t-28.5 123.5q0 71 30 123t78.5 80t104.5 28q62 0 99 -24t59 -56l-6 -16l11 77h105v-424h-114v102l10 -26q-3 -6 -15 -19.5t-32.5 -29t-49.5 -27t-66 -11.5zM286 83q46 0 77.5 23t44.5 65v93q-12 38 -46 62t-80 24q-34 0 -62.5 -16.5
t-45.5 -46.5t-17 -69t18 -69.5t47.5 -48t63.5 -17.5zM317 484q-66 0 -105.5 46t-53.5 135h76q8 -46 27 -75t56 -29t55 29t25 75h77q-12 -91 -51.5 -136t-105.5 -45zM402 697q-33 0 -54.5 14.5t-40.5 30.5q-11 10 -22.5 18.5t-24.5 8.5q-19 0 -28.5 -21.5t-8.5 -49.5h-58
q-4 39 7 72t35.5 52.5t58.5 19.5q26 0 45 -14t36 -29q14 -13 26.5 -22.5t25.5 -9.5q20 0 26.5 21.5t5.5 52.5h59q6 -42 -5 -74.5t-33 -51t-50 -18.5z" />
    <glyph glyph-name="uni1EB6" unicode="&#x1eb6;" horiz-adv-x="699" 
d="M23 0l323 758h7l323 -758h-137l-225 573l85 57l-259 -630h-117zM227 270h247l41 -101h-324zM283 -109q0 26 20.5 43.5t44.5 17.5t44 -17.5t20 -43.5q0 -27 -20 -43.5t-44 -16.5t-44.5 16.5t-20.5 43.5zM350 793q-66 0 -105.5 46t-53.5 135h76q8 -46 27 -75t56 -29t55 29
t25 75h77q-12 -91 -51.5 -136t-105.5 -45z" />
    <glyph glyph-name="uni1EB7" unicode="&#x1eb7;" horiz-adv-x="599" 
d="M255 -11q-60 0 -108.5 25t-77 74.5t-28.5 123.5q0 71 30 123t78.5 80t104.5 28q62 0 99 -24t59 -56l-6 -16l11 77h105v-424h-114v102l10 -26q-3 -6 -15 -19.5t-32.5 -29t-49.5 -27t-66 -11.5zM286 83q46 0 77.5 23t44.5 65v93q-12 38 -46 62t-80 24q-34 0 -62.5 -16.5
t-45.5 -46.5t-17 -69t18 -69.5t47.5 -48t63.5 -17.5zM245 -106q0 22 17 36t38 14q20 0 36.5 -14t16.5 -36q0 -23 -16.5 -37t-36.5 -14q-21 0 -38 14.5t-17 36.5zM317 484q-66 0 -105.5 46t-53.5 135h76q8 -46 27 -75t56 -29t55 29t25 75h77q-12 -91 -51.5 -136t-105.5 -45z
" />
    <glyph glyph-name="uni1EB8" unicode="&#x1eb8;" horiz-adv-x="659" 
d="M100 729h484v-114h-366v-192h326v-114h-326v-195h380v-114h-498v729zM273 -109q0 26 20.5 43.5t44.5 17.5t44 -17.5t20 -43.5q0 -27 -20 -43.5t-44 -16.5t-44.5 16.5t-20.5 43.5z" />
    <glyph glyph-name="uni1EB9" unicode="&#x1eb9;" horiz-adv-x="534" 
d="M279 -11q-75 0 -128 29t-81.5 80.5t-28.5 117.5q0 63 32.5 114.5t87 82t120.5 30.5q88 0 145 -50.5t76 -143.5l-341 -115l-26 64l264 94l-23 -13q-11 30 -35 52t-68 22q-53 0 -86 -36.5t-33 -94.5q0 -63 36.5 -99.5t90.5 -36.5q26 0 50 9t45 24l52 -84
q-33 -21 -72.5 -33.5t-76.5 -12.5zM214 -106q0 22 17 36t38 14q20 0 36.5 -14t16.5 -36q0 -23 -16.5 -37t-36.5 -14q-21 0 -38 14.5t-17 36.5z" />
    <glyph glyph-name="uni1EBA" unicode="&#x1eba;" horiz-adv-x="659" 
d="M100 729h484v-114h-366v-192h326v-114h-326v-195h380v-114h-498v729zM332 818q19 13 30.5 26t11.5 31q0 15 -7.5 24.5t-23.5 9.5q-15 0 -25.5 -8t-18.5 -21l-41 26q17 34 44 50t56 16q28 0 45.5 -11.5t26 -30.5t8.5 -40q0 -36 -24 -60.5t-57 -44.5z" />
    <glyph glyph-name="uni1EBB" unicode="&#x1ebb;" horiz-adv-x="534" 
d="M279 -11q-75 0 -128 29t-81.5 80.5t-28.5 117.5q0 63 32.5 114.5t87 82t120.5 30.5q88 0 145 -50.5t76 -143.5l-341 -115l-26 64l264 94l-23 -13q-11 30 -35 52t-68 22q-53 0 -86 -36.5t-33 -94.5q0 -63 36.5 -99.5t90.5 -36.5q26 0 50 9t45 24l52 -84
q-33 -21 -72.5 -33.5t-76.5 -12.5zM254 520q19 13 30.5 26t11.5 31q0 15 -7.5 24.5t-23.5 9.5q-15 0 -25.5 -8t-18.5 -21l-41 26q17 34 44 50t56 16q28 0 45.5 -11.5t26 -30.5t8.5 -40q0 -36 -24 -60.5t-57 -44.5z" />
    <glyph glyph-name="uni1EBC" unicode="&#x1ebc;" horiz-adv-x="659" 
d="M100 729h484v-114h-366v-192h326v-114h-326v-195h380v-114h-498v729zM417 812q-33 0 -55 14t-39 30q-12 10 -23.5 18.5t-24.5 8.5q-20 0 -29 -21t-7 -50h-59q-4 39 7.5 72t35.5 52.5t58 19.5q26 0 45.5 -14t35.5 -29q14 -13 26.5 -22.5t26.5 -9.5q19 0 25.5 22t5.5 52h59
q6 -42 -5 -74.5t-33 -50.5t-50 -18z" />
    <glyph glyph-name="uni1EBD" unicode="&#x1ebd;" horiz-adv-x="534" 
d="M279 -11q-75 0 -128 29t-81.5 80.5t-28.5 117.5q0 63 32.5 114.5t87 82t120.5 30.5q88 0 145 -50.5t76 -143.5l-341 -115l-26 64l264 94l-23 -13q-11 30 -35 52t-68 22q-53 0 -86 -36.5t-33 -94.5q0 -63 36.5 -99.5t90.5 -36.5q26 0 50 9t45 24l52 -84
q-33 -21 -72.5 -33.5t-76.5 -12.5zM356 479q-33 0 -54.5 14.5t-40.5 30.5q-11 10 -22.5 18.5t-24.5 8.5q-19 0 -28.5 -21.5t-8.5 -49.5h-58q-4 39 7 72t35.5 52.5t58.5 19.5q26 0 45 -14t36 -29q14 -13 26.5 -22.5t25.5 -9.5q20 0 26.5 21.5t5.5 52.5h59q6 -42 -5 -74.5
t-33 -51t-50 -18.5z" />
    <glyph glyph-name="uni1EBE" unicode="&#x1ebe;" horiz-adv-x="659" 
d="M100 729h484v-114h-366v-192h326v-114h-326v-195h380v-114h-498v729zM415 805l-87 87l30 9l-87 -96h-104l174 177h1l177 -177h-104zM635 1040l-136 -134h-70l80 134h126z" />
    <glyph glyph-name="uni1EBF" unicode="&#x1ebf;" horiz-adv-x="534" 
d="M279 -11q-75 0 -128 29t-81.5 80.5t-28.5 117.5q0 63 32.5 114.5t87 82t120.5 30.5q88 0 145 -50.5t76 -143.5l-341 -115l-26 64l264 94l-23 -13q-11 30 -35 52t-68 22q-53 0 -86 -36.5t-33 -94.5q0 -63 36.5 -99.5t90.5 -36.5q26 0 50 9t45 24l52 -84
q-33 -21 -72.5 -33.5t-76.5 -12.5zM353 501l-87 87l30 9l-87 -96h-104l174 177h1l177 -177h-104zM573 737l-136 -134h-70l80 134h126z" />
    <glyph glyph-name="uni1EC0" unicode="&#x1ec0;" horiz-adv-x="659" 
d="M100 729h484v-114h-366v-192h326v-114h-326v-195h380v-114h-498v729zM407 803l-87 87l30 9l-87 -96h-104l174 177h1l177 -177h-104zM13 1046h126l68 -134h-70z" />
    <glyph glyph-name="uni1EC1" unicode="&#x1ec1;" horiz-adv-x="534" 
d="M279 -11q-75 0 -128 29t-81.5 80.5t-28.5 117.5q0 63 32.5 114.5t87 82t120.5 30.5q88 0 145 -50.5t76 -143.5l-341 -115l-26 64l264 94l-23 -13q-11 30 -35 52t-68 22q-53 0 -86 -36.5t-33 -94.5q0 -63 36.5 -99.5t90.5 -36.5q26 0 50 9t45 24l52 -84
q-33 -21 -72.5 -33.5t-76.5 -12.5zM345 499l-87 87l30 9l-87 -96h-104l174 177h1l177 -177h-104zM-49 742h126l68 -134h-70z" />
    <glyph glyph-name="uni1EC2" unicode="&#x1ec2;" horiz-adv-x="659" 
d="M100 729h484v-114h-366v-192h326v-114h-326v-195h380v-114h-498v729zM411 805l-87 87l30 9l-87 -96h-104l174 177h1l177 -177h-104zM508 912q19 13 30.5 26t11.5 31q0 15 -7.5 24.5t-23.5 9.5q-15 0 -25.5 -8t-18.5 -21l-41 26q17 34 44 50t56 16q28 0 45.5 -11.5
t26 -30.5t8.5 -40q0 -36 -24 -60.5t-57 -44.5z" />
    <glyph glyph-name="uni1EC3" unicode="&#x1ec3;" horiz-adv-x="534" 
d="M279 -11q-75 0 -128 29t-81.5 80.5t-28.5 117.5q0 63 32.5 114.5t87 82t120.5 30.5q88 0 145 -50.5t76 -143.5l-341 -115l-26 64l264 94l-23 -13q-11 30 -35 52t-68 22q-53 0 -86 -36.5t-33 -94.5q0 -63 36.5 -99.5t90.5 -36.5q26 0 50 9t45 24l52 -84
q-33 -21 -72.5 -33.5t-76.5 -12.5zM349 501l-87 87l30 9l-87 -96h-104l174 177h1l177 -177h-104zM447 608q19 13 30.5 26t11.5 31q0 15 -7.5 24.5t-23.5 9.5q-15 0 -25.5 -8t-18.5 -21l-41 26q17 34 44 50t56 16q28 0 45.5 -11.5t26 -30.5t8.5 -40q0 -36 -24 -60.5
t-57 -44.5z" />
    <glyph glyph-name="uni1EC4" unicode="&#x1ec4;" horiz-adv-x="659" 
d="M100 729h484v-114h-366v-192h326v-114h-326v-195h380v-114h-498v729zM405 801l-87 87l30 9l-87 -96h-104l174 177h1l177 -177h-104zM412 1004q-33 0 -54.5 14.5t-40.5 30.5q-11 10 -22.5 18.5t-24.5 8.5q-19 0 -28.5 -21.5t-8.5 -49.5h-58q-4 39 7 72t35.5 52.5
t58.5 19.5q26 0 45 -14t36 -29q14 -13 26.5 -22.5t25.5 -9.5q20 0 26.5 21.5t5.5 52.5h59q6 -42 -5 -74.5t-33 -51t-50 -18.5z" />
    <glyph glyph-name="uni1EC5" unicode="&#x1ec5;" horiz-adv-x="534" 
d="M279 -11q-75 0 -128 29t-81.5 80.5t-28.5 117.5q0 63 32.5 114.5t87 82t120.5 30.5q88 0 145 -50.5t76 -143.5l-341 -115l-26 64l264 94l-23 -13q-11 30 -35 52t-68 22q-53 0 -86 -36.5t-33 -94.5q0 -63 36.5 -99.5t90.5 -36.5q26 0 50 9t45 24l52 -84
q-33 -21 -72.5 -33.5t-76.5 -12.5zM343 497l-87 87l30 9l-87 -96h-104l174 177h1l177 -177h-104zM350 700q-33 0 -54.5 14.5t-40.5 30.5q-11 10 -22.5 18.5t-24.5 8.5q-19 0 -28.5 -21.5t-8.5 -49.5h-58q-4 39 7 72t35.5 52.5t58.5 19.5q26 0 45 -14t36 -29
q14 -13 26.5 -22.5t25.5 -9.5q20 0 26.5 21.5t5.5 52.5h59q6 -42 -5 -74.5t-33 -51t-50 -18.5z" />
    <glyph glyph-name="uni1EC6" unicode="&#x1ec6;" horiz-adv-x="659" 
d="M100 729h484v-114h-366v-192h326v-114h-326v-195h380v-114h-498v729zM273 -109q0 26 20.5 43.5t44.5 17.5t44 -17.5t20 -43.5q0 -27 -20 -43.5t-44 -16.5t-44.5 16.5t-20.5 43.5zM405 789l-87 87l30 9l-87 -96h-104l174 177h1l177 -177h-104z" />
    <glyph glyph-name="uni1EC7" unicode="&#x1ec7;" horiz-adv-x="534" 
d="M279 -11q-75 0 -128 29t-81.5 80.5t-28.5 117.5q0 63 32.5 114.5t87 82t120.5 30.5q88 0 145 -50.5t76 -143.5l-341 -115l-26 64l264 94l-23 -13q-11 30 -35 52t-68 22q-53 0 -86 -36.5t-33 -94.5q0 -63 36.5 -99.5t90.5 -36.5q26 0 50 9t45 24l52 -84
q-33 -21 -72.5 -33.5t-76.5 -12.5zM214 -106q0 22 17 36t38 14q20 0 36.5 -14t16.5 -36q0 -23 -16.5 -37t-36.5 -14q-21 0 -38 14.5t-17 36.5zM349 503l-87 87l30 9l-87 -96h-104l174 177h1l177 -177h-104z" />
    <glyph glyph-name="uni1EC8" unicode="&#x1ec8;" horiz-adv-x="318" 
d="M100 729h118v-729h-118v729zM152 818q19 13 30.5 26t11.5 31q0 15 -7.5 24.5t-23.5 9.5q-15 0 -25.5 -8t-18.5 -21l-41 26q17 34 44 50t56 16q28 0 45.5 -11.5t26 -30.5t8.5 -40q0 -36 -24 -60.5t-57 -44.5z" />
    <glyph glyph-name="uni1EC9" unicode="&#x1ec9;" horiz-adv-x="267" 
d="M77 424h114v-424h-114v424zM111 504q19 13 30.5 26t11.5 31q0 15 -7.5 24.5t-23.5 9.5q-15 0 -25.5 -8t-18.5 -21l-41 26q17 34 44 50t56 16q28 0 45.5 -11.5t26 -30.5t8.5 -40q0 -36 -24 -60.5t-57 -44.5z" />
    <glyph glyph-name="uni1ECA" unicode="&#x1eca;" horiz-adv-x="318" 
d="M100 729h118v-729h-118v729zM93 -109q0 26 20.5 43.5t44.5 17.5t44 -17.5t20 -43.5q0 -27 -20 -43.5t-44 -16.5t-44.5 16.5t-20.5 43.5z" />
    <glyph glyph-name="uni1ECB" unicode="&#x1ecb;" horiz-adv-x="267" 
d="M77 424h114v-424h-114v424zM72 576q0 26 20.5 43.5t44.5 17.5t44 -17.5t20 -43.5q0 -27 -20 -43.5t-44 -16.5t-44.5 16.5t-20.5 43.5zM79 -106q0 22 17 36t38 14q20 0 36.5 -14t16.5 -36q0 -23 -16.5 -37t-36.5 -14q-21 0 -38 14.5t-17 36.5z" />
    <glyph glyph-name="uni1ECC" unicode="&#x1ecc;" horiz-adv-x="855" 
d="M55 364q0 75 29 142.5t80 119t118.5 81.5t143.5 30q77 0 144.5 -30t119.5 -81.5t81 -119t29 -142.5q0 -78 -29 -145t-81 -118.5t-119.5 -80t-144.5 -28.5q-76 0 -143.5 28.5t-118.5 79t-80 118.5t-29 146zM177 363q0 -71 33.5 -129.5t91 -93t128.5 -34.5q70 0 126 34.5
t89 93t33 130.5t-33.5 131t-90.5 93.5t-127 34.5t-127 -35t-90 -94t-33 -131zM361 -109q0 26 20.5 43.5t44.5 17.5t44 -17.5t20 -43.5q0 -27 -20 -43.5t-44 -16.5t-44.5 16.5t-20.5 43.5z" />
    <glyph glyph-name="uni1ECD" unicode="&#x1ecd;" horiz-adv-x="556" 
d="M41 217q0 64 30.5 115.5t85 81t124.5 29.5q71 0 123.5 -29.5t81.5 -81t29 -115.5q0 -65 -29 -116.5t-82 -81.5t-125 -30q-68 0 -122 27.5t-85 79t-31 121.5zM156 216q0 -38 16 -68t44 -47.5t62 -17.5q54 0 88 38t34 95q0 56 -34 94.5t-88 38.5q-35 0 -62.5 -18t-43.5 -48
t-16 -67zM224 -106q0 22 17 36t38 14q20 0 36.5 -14t16.5 -36q0 -23 -16.5 -37t-36.5 -14q-21 0 -38 14.5t-17 36.5z" />
    <glyph glyph-name="uni1ECE" unicode="&#x1ece;" horiz-adv-x="855" 
d="M55 364q0 75 29 142.5t80 119t118.5 81.5t143.5 30q77 0 144.5 -30t119.5 -81.5t81 -119t29 -142.5q0 -78 -29 -145t-81 -118.5t-119.5 -80t-144.5 -28.5q-76 0 -143.5 28.5t-118.5 79t-80 118.5t-29 146zM177 363q0 -71 33.5 -129.5t91 -93t128.5 -34.5q70 0 126 34.5
t89 93t33 130.5t-33.5 131t-90.5 93.5t-127 34.5t-127 -35t-90 -94t-33 -131zM420 810q19 13 30.5 26t11.5 31q0 15 -7.5 24.5t-23.5 9.5q-15 0 -25.5 -8t-18.5 -21l-41 26q17 34 44 50t56 16q28 0 45.5 -11.5t26 -30.5t8.5 -40q0 -36 -24 -60.5t-57 -44.5z" />
    <glyph glyph-name="uni1ECF" unicode="&#x1ecf;" horiz-adv-x="556" 
d="M41 217q0 64 30.5 115.5t85 81t124.5 29.5q71 0 123.5 -29.5t81.5 -81t29 -115.5q0 -65 -29 -116.5t-82 -81.5t-125 -30q-68 0 -122 27.5t-85 79t-31 121.5zM156 216q0 -38 16 -68t44 -47.5t62 -17.5q54 0 88 38t34 95q0 56 -34 94.5t-88 38.5q-35 0 -62.5 -18t-43.5 -48
t-16 -67zM255 520q19 13 30.5 26t11.5 31q0 15 -7.5 24.5t-23.5 9.5q-15 0 -25.5 -8t-18.5 -21l-41 26q17 34 44 50t56 16q28 0 45.5 -11.5t26 -30.5t8.5 -40q0 -36 -24 -60.5t-57 -44.5z" />
    <glyph glyph-name="uni1ED0" unicode="&#x1ed0;" horiz-adv-x="855" 
d="M55 364q0 75 29 142.5t80 119t118.5 81.5t143.5 30q77 0 144.5 -30t119.5 -81.5t81 -119t29 -142.5q0 -78 -29 -145t-81 -118.5t-119.5 -80t-144.5 -28.5q-76 0 -143.5 28.5t-118.5 79t-80 118.5t-29 146zM177 363q0 -71 33.5 -129.5t91 -93t128.5 -34.5q70 0 126 34.5
t89 93t33 130.5t-33.5 131t-90.5 93.5t-127 34.5t-127 -35t-90 -94t-33 -131zM503 797l-87 87l30 9l-87 -96h-104l174 177h1l177 -177h-104zM723 1032l-136 -134h-70l80 134h126z" />
    <glyph glyph-name="uni1ED1" unicode="&#x1ed1;" horiz-adv-x="556" 
d="M41 217q0 64 30.5 115.5t85 81t124.5 29.5q71 0 123.5 -29.5t81.5 -81t29 -115.5q0 -65 -29 -116.5t-82 -81.5t-125 -30q-68 0 -122 27.5t-85 79t-31 121.5zM156 216q0 -38 16 -68t44 -47.5t62 -17.5q54 0 88 38t34 95q0 56 -34 94.5t-88 38.5q-35 0 -62.5 -18t-43.5 -48
t-16 -67zM354 500l-87 87l30 9l-87 -96h-104l174 177h1l177 -177h-104zM574 736l-136 -134h-70l80 134h126z" />
    <glyph glyph-name="uni1ED2" unicode="&#x1ed2;" horiz-adv-x="855" 
d="M55 364q0 75 29 142.5t80 119t118.5 81.5t143.5 30q77 0 144.5 -30t119.5 -81.5t81 -119t29 -142.5q0 -78 -29 -145t-81 -118.5t-119.5 -80t-144.5 -28.5q-76 0 -143.5 28.5t-118.5 79t-80 118.5t-29 146zM177 363q0 -71 33.5 -129.5t91 -93t128.5 -34.5q70 0 126 34.5
t89 93t33 130.5t-33.5 131t-90.5 93.5t-127 34.5t-127 -35t-90 -94t-33 -131zM495 795l-87 87l30 9l-87 -96h-104l174 177h1l177 -177h-104zM100 1038h126l68 -134h-70z" />
    <glyph glyph-name="uni1ED3" unicode="&#x1ed3;" horiz-adv-x="556" 
d="M41 217q0 64 30.5 115.5t85 81t124.5 29.5q71 0 123.5 -29.5t81.5 -81t29 -115.5q0 -65 -29 -116.5t-82 -81.5t-125 -30q-68 0 -122 27.5t-85 79t-31 121.5zM156 216q0 -38 16 -68t44 -47.5t62 -17.5q54 0 88 38t34 95q0 56 -34 94.5t-88 38.5q-35 0 -62.5 -18t-43.5 -48
t-16 -67zM346 498l-87 87l30 9l-87 -96h-104l174 177h1l177 -177h-104zM-49 741h126l68 -134h-70z" />
    <glyph glyph-name="uni1ED4" unicode="&#x1ed4;" horiz-adv-x="855" 
d="M55 364q0 75 29 142.5t80 119t118.5 81.5t143.5 30q77 0 144.5 -30t119.5 -81.5t81 -119t29 -142.5q0 -78 -29 -145t-81 -118.5t-119.5 -80t-144.5 -28.5q-76 0 -143.5 28.5t-118.5 79t-80 118.5t-29 146zM177 363q0 -71 33.5 -129.5t91 -93t128.5 -34.5q70 0 126 34.5
t89 93t33 130.5t-33.5 131t-90.5 93.5t-127 34.5t-127 -35t-90 -94t-33 -131zM499 797l-87 87l30 9l-87 -96h-104l174 177h1l177 -177h-104zM596 904q19 13 30.5 26t11.5 31q0 15 -7.5 24.5t-23.5 9.5q-15 0 -25.5 -8t-18.5 -21l-41 26q17 34 44 50t56 16q28 0 45.5 -11.5
t26 -30.5t8.5 -40q0 -36 -24 -60.5t-57 -44.5z" />
    <glyph glyph-name="uni1ED5" unicode="&#x1ed5;" horiz-adv-x="556" 
d="M41 217q0 64 30.5 115.5t85 81t124.5 29.5q71 0 123.5 -29.5t81.5 -81t29 -115.5q0 -65 -29 -116.5t-82 -81.5t-125 -30q-68 0 -122 27.5t-85 79t-31 121.5zM156 216q0 -38 16 -68t44 -47.5t62 -17.5q54 0 88 38t34 95q0 56 -34 94.5t-88 38.5q-35 0 -62.5 -18t-43.5 -48
t-16 -67zM350 500l-87 87l30 9l-87 -96h-104l174 177h1l177 -177h-104zM447 607q19 13 30.5 26t11.5 31q0 15 -7.5 24.5t-23.5 9.5q-15 0 -25.5 -8t-18.5 -21l-41 26q17 34 44 50t56 16q28 0 45.5 -11.5t26 -30.5t8.5 -40q0 -36 -24 -60.5t-57 -44.5z" />
    <glyph glyph-name="uni1ED6" unicode="&#x1ed6;" horiz-adv-x="855" 
d="M55 364q0 75 29 142.5t80 119t118.5 81.5t143.5 30q77 0 144.5 -30t119.5 -81.5t81 -119t29 -142.5q0 -78 -29 -145t-81 -118.5t-119.5 -80t-144.5 -28.5q-76 0 -143.5 28.5t-118.5 79t-80 118.5t-29 146zM177 363q0 -71 33.5 -129.5t91 -93t128.5 -34.5q70 0 126 34.5
t89 93t33 130.5t-33.5 131t-90.5 93.5t-127 34.5t-127 -35t-90 -94t-33 -131zM493 793l-87 87l30 9l-87 -96h-104l174 177h1l177 -177h-104zM500 996q-33 0 -54.5 14.5t-40.5 30.5q-11 10 -22.5 18.5t-24.5 8.5q-19 0 -28.5 -21.5t-8.5 -49.5h-58q-4 39 7 72t35.5 52.5
t58.5 19.5q26 0 45 -14t36 -29q14 -13 26.5 -22.5t25.5 -9.5q20 0 26.5 21.5t5.5 52.5h59q6 -42 -5 -74.5t-33 -51t-50 -18.5z" />
    <glyph glyph-name="uni1ED7" unicode="&#x1ed7;" horiz-adv-x="556" 
d="M41 217q0 64 30.5 115.5t85 81t124.5 29.5q71 0 123.5 -29.5t81.5 -81t29 -115.5q0 -65 -29 -116.5t-82 -81.5t-125 -30q-68 0 -122 27.5t-85 79t-31 121.5zM156 216q0 -38 16 -68t44 -47.5t62 -17.5q54 0 88 38t34 95q0 56 -34 94.5t-88 38.5q-35 0 -62.5 -18t-43.5 -48
t-16 -67zM345 496l-87 87l30 9l-87 -96h-104l174 177h1l177 -177h-104zM351 700q-33 0 -54.5 14.5t-40.5 30.5q-11 10 -22.5 18.5t-24.5 8.5q-19 0 -28.5 -21.5t-8.5 -49.5h-58q-4 39 7 72t35.5 52.5t58.5 19.5q26 0 45 -14t36 -29q14 -13 26.5 -22.5t25.5 -9.5
q20 0 26.5 21.5t5.5 52.5h59q6 -42 -5 -74.5t-33 -51t-50 -18.5z" />
    <glyph glyph-name="uni1ED8" unicode="&#x1ed8;" horiz-adv-x="855" 
d="M55 364q0 75 29 142.5t80 119t118.5 81.5t143.5 30q77 0 144.5 -30t119.5 -81.5t81 -119t29 -142.5q0 -78 -29 -145t-81 -118.5t-119.5 -80t-144.5 -28.5q-76 0 -143.5 28.5t-118.5 79t-80 118.5t-29 146zM177 363q0 -71 33.5 -129.5t91 -93t128.5 -34.5q70 0 126 34.5
t89 93t33 130.5t-33.5 131t-90.5 93.5t-127 34.5t-127 -35t-90 -94t-33 -131zM361 -109q0 26 20.5 43.5t44.5 17.5t44 -17.5t20 -43.5q0 -27 -20 -43.5t-44 -16.5t-44.5 16.5t-20.5 43.5zM493 781l-87 87l30 9l-87 -96h-104l174 177h1l177 -177h-104z" />
    <glyph glyph-name="uni1ED9" unicode="&#x1ed9;" horiz-adv-x="556" 
d="M41 217q0 64 30.5 115.5t85 81t124.5 29.5q71 0 123.5 -29.5t81.5 -81t29 -115.5q0 -65 -29 -116.5t-82 -81.5t-125 -30q-68 0 -122 27.5t-85 79t-31 121.5zM156 216q0 -38 16 -68t44 -47.5t62 -17.5q54 0 88 38t34 95q0 56 -34 94.5t-88 38.5q-35 0 -62.5 -18t-43.5 -48
t-16 -67zM224 -106q0 22 17 36t38 14q20 0 36.5 -14t16.5 -36q0 -23 -16.5 -37t-36.5 -14q-21 0 -38 14.5t-17 36.5zM350 503l-87 87l30 9l-87 -96h-104l174 177h1l177 -177h-104z" />
    <glyph glyph-name="uni1EDA" unicode="&#x1eda;" horiz-adv-x="855" 
d="M55 364q0 75 29 142.5t80 119t118.5 81.5t143.5 30q77 0 144.5 -30t119.5 -81.5t81 -119t29 -142.5q0 -78 -29 -145t-81 -118.5t-119.5 -80t-144.5 -28.5q-76 0 -143.5 28.5t-118.5 79t-80 118.5t-29 146zM177 363q0 -71 33.5 -129.5t91 -93t128.5 -34.5q70 0 126 34.5
t89 93t33 130.5t-33.5 131t-90.5 93.5t-127 34.5t-127 -35t-90 -94t-33 -131zM499 730q39 0 54 17.5t22 65.5h85q-9 -64 -30 -96.5t-54 -44t-77 -11.5v69zM595 901l-136 -134h-70l80 134h126z" />
    <glyph glyph-name="uni1EDB" unicode="&#x1edb;" horiz-adv-x="556" 
d="M41 217q0 64 30.5 115.5t85 81t124.5 29.5q71 0 123.5 -29.5t81.5 -81t29 -115.5q0 -65 -29 -116.5t-82 -81.5t-125 -30q-68 0 -122 27.5t-85 79t-31 121.5zM156 216q0 -38 16 -68t44 -47.5t62 -17.5q54 0 88 38t34 95q0 56 -34 94.5t-88 38.5q-35 0 -62.5 -18t-43.5 -48
t-16 -67zM362 425q39 0 60.5 21.5t28.5 68.5h85q-9 -63 -33 -97t-60 -48t-81 -14v69zM407 618l-136 -134h-70l80 134h126z" />
    <glyph glyph-name="uni1EDC" unicode="&#x1edc;" horiz-adv-x="855" 
d="M55 364q0 75 29 142.5t80 119t118.5 81.5t143.5 30q77 0 144.5 -30t119.5 -81.5t81 -119t29 -142.5q0 -78 -29 -145t-81 -118.5t-119.5 -80t-144.5 -28.5q-76 0 -143.5 28.5t-118.5 79t-80 118.5t-29 146zM177 363q0 -71 33.5 -129.5t91 -93t128.5 -34.5q70 0 126 34.5
t89 93t33 130.5t-33.5 131t-90.5 93.5t-127 34.5t-127 -35t-90 -94t-33 -131zM499 730q39 0 54 17.5t22 65.5h85q-9 -64 -30 -96.5t-54 -44t-77 -11.5v69zM288 906h126l68 -134h-70z" />
    <glyph glyph-name="uni1EDD" unicode="&#x1edd;" horiz-adv-x="556" 
d="M41 217q0 64 30.5 115.5t85 81t124.5 29.5q71 0 123.5 -29.5t81.5 -81t29 -115.5q0 -65 -29 -116.5t-82 -81.5t-125 -30q-68 0 -122 27.5t-85 79t-31 121.5zM156 216q0 -38 16 -68t44 -47.5t62 -17.5q54 0 88 38t34 95q0 56 -34 94.5t-88 38.5q-35 0 -62.5 -18t-43.5 -48
t-16 -67zM362 425q39 0 60.5 21.5t28.5 68.5h85q-9 -63 -33 -97t-60 -48t-81 -14v69zM120 637h126l68 -134h-70z" />
    <glyph glyph-name="uni1EDE" unicode="&#x1ede;" horiz-adv-x="855" 
d="M55 364q0 75 29 142.5t80 119t118.5 81.5t143.5 30q77 0 144.5 -30t119.5 -81.5t81 -119t29 -142.5q0 -78 -29 -145t-81 -118.5t-119.5 -80t-144.5 -28.5q-76 0 -143.5 28.5t-118.5 79t-80 118.5t-29 146zM177 363q0 -71 33.5 -129.5t91 -93t128.5 -34.5q70 0 126 34.5
t89 93t33 130.5t-33.5 131t-90.5 93.5t-127 34.5t-127 -35t-90 -94t-33 -131zM499 730q39 0 54 17.5t22 65.5h85q-9 -64 -30 -96.5t-54 -44t-77 -11.5v69zM420 810q19 13 30.5 26t11.5 31q0 15 -7.5 24.5t-23.5 9.5q-15 0 -25.5 -8t-18.5 -21l-41 26q17 34 44 50t56 16
q28 0 45.5 -11.5t26 -30.5t8.5 -40q0 -36 -24 -60.5t-57 -44.5z" />
    <glyph glyph-name="uni1EDF" unicode="&#x1edf;" horiz-adv-x="556" 
d="M41 217q0 64 30.5 115.5t85 81t124.5 29.5q71 0 123.5 -29.5t81.5 -81t29 -115.5q0 -65 -29 -116.5t-82 -81.5t-125 -30q-68 0 -122 27.5t-85 79t-31 121.5zM156 216q0 -38 16 -68t44 -47.5t62 -17.5q54 0 88 38t34 95q0 56 -34 94.5t-88 38.5q-35 0 -62.5 -18t-43.5 -48
t-16 -67zM362 425q39 0 60.5 21.5t28.5 68.5h85q-9 -63 -33 -97t-60 -48t-81 -14v69zM255 520q19 13 30.5 26t11.5 31q0 15 -7.5 24.5t-23.5 9.5q-15 0 -25.5 -8t-18.5 -21l-41 26q17 34 44 50t56 16q28 0 45.5 -11.5t26 -30.5t8.5 -40q0 -36 -24 -60.5t-57 -44.5z" />
    <glyph glyph-name="uni1EE0" unicode="&#x1ee0;" horiz-adv-x="855" 
d="M55 364q0 75 29 142.5t80 119t118.5 81.5t143.5 30q77 0 144.5 -30t119.5 -81.5t81 -119t29 -142.5q0 -78 -29 -145t-81 -118.5t-119.5 -80t-144.5 -28.5q-76 0 -143.5 28.5t-118.5 79t-80 118.5t-29 146zM177 363q0 -71 33.5 -129.5t91 -93t128.5 -34.5q70 0 126 34.5
t89 93t33 130.5t-33.5 131t-90.5 93.5t-127 34.5t-127 -35t-90 -94t-33 -131zM499 730q39 0 54 17.5t22 65.5h85q-9 -64 -30 -96.5t-54 -44t-77 -11.5v69zM504 804q-33 0 -55 14t-39 30q-12 10 -23.5 18.5t-24.5 8.5q-20 0 -29 -21t-7 -50h-59q-4 39 7.5 72t35.5 52.5
t58 19.5q26 0 45.5 -14t35.5 -29q14 -13 26.5 -22.5t26.5 -9.5q19 0 25.5 22t5.5 52h59q6 -42 -5 -74.5t-33 -50.5t-50 -18z" />
    <glyph glyph-name="uni1EE1" unicode="&#x1ee1;" horiz-adv-x="556" 
d="M325 485q-28 0 -47 12.5t-34 26.5q-10 9 -19.5 16t-21.5 7q-17 0 -25.5 -18t-7.5 -44h-49q-2 34 7 62t29.5 45t50.5 17q22 0 38.5 -12t31.5 -26q11 -10 22 -18.5t23 -8.5q16 0 22 18.5t6 45.5h49q5 -37 -4.5 -64.5t-28 -43t-42.5 -15.5zM41 217q0 64 30.5 115.5t85 81
t124.5 29.5q71 0 123.5 -29.5t81.5 -81t29 -115.5q0 -65 -29 -116.5t-82 -81.5t-125 -30q-68 0 -122 27.5t-85 79t-31 121.5zM156 216q0 -38 16 -68t44 -47.5t62 -17.5q54 0 88 38t34 95q0 56 -34 94.5t-88 38.5q-35 0 -62.5 -18t-43.5 -48t-16 -67zM362 424q39 0 60 21.5
t28 68.5h85q-8 -62 -32 -96.5t-60.5 -48t-80.5 -13.5v68z" />
    <glyph glyph-name="uni1EE2" unicode="&#x1ee2;" horiz-adv-x="855" 
d="M55 364q0 75 29 142.5t80 119t118.5 81.5t143.5 30q77 0 144.5 -30t119.5 -81.5t81 -119t29 -142.5q0 -78 -29 -145t-81 -118.5t-119.5 -80t-144.5 -28.5q-76 0 -143.5 28.5t-118.5 79t-80 118.5t-29 146zM177 363q0 -71 33.5 -129.5t91 -93t128.5 -34.5q70 0 126 34.5
t89 93t33 130.5t-33.5 131t-90.5 93.5t-127 34.5t-127 -35t-90 -94t-33 -131zM499 730q39 0 54 17.5t22 65.5h85q-9 -64 -30 -96.5t-54 -44t-77 -11.5v69zM361 -109q0 26 20.5 43.5t44.5 17.5t44 -17.5t20 -43.5q0 -27 -20 -43.5t-44 -16.5t-44.5 16.5t-20.5 43.5z" />
    <glyph glyph-name="uni1EE3" unicode="&#x1ee3;" horiz-adv-x="556" 
d="M41 217q0 64 30.5 115.5t85 81t124.5 29.5q71 0 123.5 -29.5t81.5 -81t29 -115.5q0 -65 -29 -116.5t-82 -81.5t-125 -30q-68 0 -122 27.5t-85 79t-31 121.5zM156 216q0 -38 16 -68t44 -47.5t62 -17.5q54 0 88 38t34 95q0 56 -34 94.5t-88 38.5q-35 0 -62.5 -18t-43.5 -48
t-16 -67zM362 425q39 0 60.5 21.5t28.5 68.5h85q-9 -63 -33 -97t-60 -48t-81 -14v69zM224 -106q0 22 17 36t38 14q20 0 36.5 -14t16.5 -36q0 -23 -16.5 -37t-36.5 -14q-21 0 -38 14.5t-17 36.5z" />
    <glyph glyph-name="uni1EE4" unicode="&#x1ee4;" horiz-adv-x="742" 
d="M206 263q0 -42 22 -77.5t59.5 -57t82.5 -21.5q49 0 86.5 21.5t59.5 57t22 77.5v466h116v-469q0 -79 -38 -139.5t-102.5 -94.5t-143.5 -34v0q-78 0 -142.5 34t-102 94.5t-37.5 139.5v469h118v-466zM305 -109q0 26 20.5 43.5t44.5 17.5t44 -17.5t20 -43.5q0 -27 -20 -43.5
t-44 -16.5t-44.5 16.5t-20.5 43.5z" />
    <glyph glyph-name="uni1EE5" unicode="&#x1ee5;" horiz-adv-x="563" 
d="M213 -18q-58 0 -96 35.5t-40 91.5v315h114v-274q2 -32 17.5 -51t50.5 -20q33 0 58.5 20.5t40 56.5t14.5 82v186h114v-424h-103l-9 92l3 -14q-20 -42 -63 -69t-101 -27zM227 -106q0 22 17 36t38 14q20 0 36.5 -14t16.5 -36q0 -23 -16.5 -37t-36.5 -14q-21 0 -38 14.5
t-17 36.5z" />
    <glyph glyph-name="uni1EE6" unicode="&#x1ee6;" horiz-adv-x="742" 
d="M206 263q0 -42 22 -77.5t59.5 -57t82.5 -21.5q49 0 86.5 21.5t59.5 57t22 77.5v466h116v-469q0 -79 -38 -139.5t-102.5 -94.5t-143.5 -34v0q-78 0 -142.5 34t-102 94.5t-37.5 139.5v469h118v-466zM364 818q19 13 30.5 26t11.5 31q0 15 -7.5 24.5t-23.5 9.5
q-15 0 -25.5 -8t-18.5 -21l-41 26q17 34 44 50t56 16q28 0 45.5 -11.5t26 -30.5t8.5 -40q0 -36 -24 -60.5t-57 -44.5z" />
    <glyph glyph-name="uni1EE7" unicode="&#x1ee7;" horiz-adv-x="563" 
d="M213 -18q-58 0 -96 35.5t-40 91.5v315h114v-274q2 -32 17.5 -51t50.5 -20q33 0 58.5 20.5t40 56.5t14.5 82v186h114v-424h-103l-9 92l3 -14q-20 -42 -63 -69t-101 -27zM259 520q19 13 30.5 26t11.5 31q0 15 -7.5 24.5t-23.5 9.5q-15 0 -25.5 -8t-18.5 -21l-41 26
q17 34 44 50t56 16q28 0 45.5 -11.5t26 -30.5t8.5 -40q0 -36 -24 -60.5t-57 -44.5z" />
    <glyph glyph-name="uni1EE8" unicode="&#x1ee8;" horiz-adv-x="768" 
d="M206 263q0 -42 22 -77.5t59.5 -57t82.5 -21.5q49 0 86.5 21.5t59.5 57t22 77.5v466h116v-469q0 -79 -38 -139.5t-102.5 -94.5t-143.5 -34v0q-78 0 -142.5 34t-102 94.5t-37.5 139.5v469h118v-466zM634 673q39 0 54 17.5t22 65.5h85q-9 -64 -30 -96.5t-54 -44t-77 -11.5
v69zM539 909l-136 -134h-70l80 134h126z" />
    <glyph glyph-name="uni1EE9" unicode="&#x1ee9;" horiz-adv-x="570" 
d="M213 -18q-58 0 -96 35.5t-40 91.5v315h114v-274q2 -32 17.5 -51t50.5 -20q33 0 58.5 20.5t40 56.5t14.5 82v186h114v-424h-103l-9 92l3 -14q-20 -42 -63 -69t-101 -27zM421 425q39 0 60.5 21.5t28.5 68.5h85q-9 -63 -33 -97t-60 -48t-81 -14v69zM411 633l-136 -134h-70
l80 134h126z" />
    <glyph glyph-name="uni1EEA" unicode="&#x1eea;" horiz-adv-x="768" 
d="M206 263q0 -42 22 -77.5t59.5 -57t82.5 -21.5q49 0 86.5 21.5t59.5 57t22 77.5v466h116v-469q0 -79 -38 -139.5t-102.5 -94.5t-143.5 -34v0q-78 0 -142.5 34t-102 94.5t-37.5 139.5v469h118v-466zM634 673q39 0 54 17.5t22 65.5h85q-9 -64 -30 -96.5t-54 -44t-77 -11.5
v69zM205 914h126l68 -134h-70z" />
    <glyph glyph-name="uni1EEB" unicode="&#x1eeb;" horiz-adv-x="570" 
d="M213 -18q-58 0 -96 35.5t-40 91.5v315h114v-274q2 -32 17.5 -51t50.5 -20q33 0 58.5 20.5t40 56.5t14.5 82v186h114v-424h-103l-9 92l3 -14q-20 -42 -63 -69t-101 -27zM421 425q39 0 60.5 21.5t28.5 68.5h85q-9 -63 -33 -97t-60 -48t-81 -14v69zM124 637h126l68 -134h-70
z" />
    <glyph glyph-name="uni1EEC" unicode="&#x1eec;" horiz-adv-x="768" 
d="M206 263q0 -42 22 -77.5t59.5 -57t82.5 -21.5q49 0 86.5 21.5t59.5 57t22 77.5v466h116v-469q0 -79 -38 -139.5t-102.5 -94.5t-143.5 -34v0q-78 0 -142.5 34t-102 94.5t-37.5 139.5v469h118v-466zM634 673q39 0 54 17.5t22 65.5h85q-9 -64 -30 -96.5t-54 -44t-77 -11.5
v69zM364 818q19 13 30.5 26t11.5 31q0 15 -7.5 24.5t-23.5 9.5q-15 0 -25.5 -8t-18.5 -21l-41 26q17 34 44 50t56 16q28 0 45.5 -11.5t26 -30.5t8.5 -40q0 -36 -24 -60.5t-57 -44.5z" />
    <glyph glyph-name="uni1EED" unicode="&#x1eed;" horiz-adv-x="570" 
d="M213 -18q-58 0 -96 35.5t-40 91.5v315h114v-274q2 -32 17.5 -51t50.5 -20q33 0 58.5 20.5t40 56.5t14.5 82v186h114v-424h-103l-9 92l3 -14q-20 -42 -63 -69t-101 -27zM421 425q39 0 60.5 21.5t28.5 68.5h85q-9 -63 -33 -97t-60 -48t-81 -14v69zM259 520q19 13 30.5 26
t11.5 31q0 15 -7.5 24.5t-23.5 9.5q-15 0 -25.5 -8t-18.5 -21l-41 26q17 34 44 50t56 16q28 0 45.5 -11.5t26 -30.5t8.5 -40q0 -36 -24 -60.5t-57 -44.5z" />
    <glyph glyph-name="uni1EEE" unicode="&#x1eee;" horiz-adv-x="768" 
d="M206 263q0 -42 22 -77.5t59.5 -57t82.5 -21.5q49 0 86.5 21.5t59.5 57t22 77.5v466h116v-469q0 -79 -38 -139.5t-102.5 -94.5t-143.5 -34v0q-78 0 -142.5 34t-102 94.5t-37.5 139.5v469h118v-466zM634 673q39 0 54 17.5t22 65.5h85q-9 -64 -30 -96.5t-54 -44t-77 -11.5
v69zM448 812q-33 0 -55 14t-39 30q-12 10 -23.5 18.5t-24.5 8.5q-20 0 -29 -21t-7 -50h-59q-4 39 7.5 72t35.5 52.5t58 19.5q26 0 45.5 -14t35.5 -29q14 -13 26.5 -22.5t26.5 -9.5q19 0 25.5 22t5.5 52h59q6 -42 -5 -74.5t-33 -50.5t-50 -18z" />
    <glyph glyph-name="uni1EEF" unicode="&#x1eef;" horiz-adv-x="570" 
d="M213 -18q-58 0 -96 35.5t-40 91.5v315h114v-274q2 -32 17.5 -51t50.5 -20q33 0 58.5 20.5t40 56.5t14.5 82v186h114v-424h-103l-9 92l3 -14q-20 -42 -63 -69t-101 -27zM421 425q39 0 60.5 21.5t28.5 68.5h85q-9 -63 -33 -97t-60 -48t-81 -14v69zM361 478
q-33 0 -54.5 14.5t-40.5 30.5q-11 10 -22.5 18.5t-24.5 8.5q-19 0 -28.5 -21.5t-8.5 -49.5h-58q-4 39 7 72t35.5 52.5t58.5 19.5q26 0 45 -14t36 -29q14 -13 26.5 -22.5t25.5 -9.5q20 0 26.5 21.5t5.5 52.5h59q6 -42 -5 -74.5t-33 -51t-50 -18.5z" />
    <glyph glyph-name="uni1EF0" unicode="&#x1ef0;" horiz-adv-x="768" 
d="M206 263q0 -42 22 -77.5t59.5 -57t82.5 -21.5q49 0 86.5 21.5t59.5 57t22 77.5v466h116v-469q0 -79 -38 -139.5t-102.5 -94.5t-143.5 -34v0q-78 0 -142.5 34t-102 94.5t-37.5 139.5v469h118v-466zM634 673q39 0 54 17.5t22 65.5h85q-9 -64 -30 -96.5t-54 -44t-77 -11.5
v69zM305 -109q0 26 20.5 43.5t44.5 17.5t44 -17.5t20 -43.5q0 -27 -20 -43.5t-44 -16.5t-44.5 16.5t-20.5 43.5z" />
    <glyph glyph-name="uni1EF1" unicode="&#x1ef1;" horiz-adv-x="570" 
d="M213 -18q-58 0 -96 35.5t-40 91.5v315h114v-274q2 -32 17.5 -51t50.5 -20q33 0 58.5 20.5t40 56.5t14.5 82v186h114v-424h-103l-9 92l3 -14q-20 -42 -63 -69t-101 -27zM421 425q39 0 60.5 21.5t28.5 68.5h85q-9 -63 -33 -97t-60 -48t-81 -14v69zM227 -106q0 22 17 36
t38 14q20 0 36.5 -14t16.5 -36q0 -23 -16.5 -37t-36.5 -14q-21 0 -38 14.5t-17 36.5z" />
    <glyph glyph-name="Ygrave" unicode="&#x1ef2;" horiz-adv-x="705" 
d="M291 236l-269 493h146l204 -392l-36 -2l201 394h145l-272 -493v-236h-119v236zM202 913h126l68 -134h-70z" />
    <glyph glyph-name="ygrave" unicode="&#x1ef3;" horiz-adv-x="511" 
d="M112 -204l281 628h104l-274 -628h-111zM221 -3l-206 427h128l166 -369zM105 621h126l68 -134h-70z" />
    <glyph glyph-name="uni1EF4" unicode="&#x1ef4;" horiz-adv-x="705" 
d="M291 236l-269 493h146l204 -392l-36 -2l201 394h145l-272 -493v-236h-119v236zM286 -109q0 26 20.5 43.5t44.5 17.5t44 -17.5t20 -43.5q0 -27 -20 -43.5t-44 -16.5t-44.5 16.5t-20.5 43.5z" />
    <glyph glyph-name="uni1EF5" unicode="&#x1ef5;" horiz-adv-x="511" 
d="M112 -204l281 628h104l-274 -628h-111zM221 -3l-206 427h128l166 -369zM359 -114q0 22 17 36t38 14q20 0 36.5 -14t16.5 -36q0 -23 -16.5 -37t-36.5 -14q-21 0 -38 14.5t-17 36.5z" />
    <glyph glyph-name="uni1EF6" unicode="&#x1ef6;" horiz-adv-x="705" 
d="M291 236l-269 493h146l204 -392l-36 -2l201 394h145l-272 -493v-236h-119v236zM361 817q19 13 30.5 26t11.5 31q0 15 -7.5 24.5t-23.5 9.5q-15 0 -25.5 -8t-18.5 -21l-41 26q17 34 44 50t56 16q28 0 45.5 -11.5t26 -30.5t8.5 -40q0 -36 -24 -60.5t-57 -44.5z" />
    <glyph glyph-name="uni1EF7" unicode="&#x1ef7;" horiz-adv-x="511" 
d="M112 -204l281 628h104l-274 -628h-111zM221 -3l-206 427h128l166 -369zM240 504q19 13 30.5 26t11.5 31q0 15 -7.5 24.5t-23.5 9.5q-15 0 -25.5 -8t-18.5 -21l-41 26q17 34 44 50t56 16q28 0 45.5 -11.5t26 -30.5t8.5 -40q0 -36 -24 -60.5t-57 -44.5z" />
    <glyph glyph-name="uni1EF8" unicode="&#x1ef8;" horiz-adv-x="705" 
d="M291 236l-269 493h146l204 -392l-36 -2l201 394h145l-272 -493v-236h-119v236zM445 810q-33 0 -55 14t-39 30q-12 10 -23.5 18.5t-24.5 8.5q-20 0 -29 -21t-7 -50h-59q-4 39 7.5 72t35.5 52.5t58 19.5q26 0 45.5 -14t35.5 -29q14 -13 26.5 -22.5t26.5 -9.5q19 0 25.5 22
t5.5 52h59q6 -42 -5 -74.5t-33 -50.5t-50 -18z" />
    <glyph glyph-name="uni1EF9" unicode="&#x1ef9;" horiz-adv-x="511" 
d="M112 -204l281 628h104l-274 -628h-111zM221 -3l-206 427h128l166 -369zM342 462q-33 0 -54.5 14.5t-40.5 30.5q-11 10 -22.5 18.5t-24.5 8.5q-19 0 -28.5 -21.5t-8.5 -49.5h-58q-4 39 7 72t35.5 52.5t58.5 19.5q26 0 45 -14t36 -29q14 -13 26.5 -22.5t25.5 -9.5
q20 0 26.5 21.5t5.5 52.5h59q6 -42 -5 -74.5t-33 -51t-50 -18.5z" />
    <glyph glyph-name="endash" unicode="&#x2013;" horiz-adv-x="517" 
d="M102 267h305v-99h-305v99z" />
    <glyph glyph-name="emdash" unicode="&#x2014;" horiz-adv-x="711" 
d="M101 267h509v-99h-509v99z" />
    <glyph glyph-name="quoteleft" unicode="&#x2018;" horiz-adv-x="186" 
d="M101 738l59 -26q-22 -22 -35 -58t-7 -69l-88 -7q-7 35 1.5 65.5t27.5 55t42 39.5z" />
    <glyph glyph-name="quoteright" unicode="&#x2019;" horiz-adv-x="190" 
d="M87 562l-59 26q22 20 35 56t6 71l89 7q6 -28 -3 -60t-27.5 -59t-40.5 -41v0z" />
    <glyph glyph-name="quotesinglbase" unicode="&#x201a;" horiz-adv-x="190" 
d="M87 -79l-59 26q22 20 35 56t6 71l89 7q6 -28 -3 -60t-27.5 -59t-40.5 -41v0z" />
    <glyph glyph-name="quotedblleft" unicode="&#x201c;" horiz-adv-x="310" 
d="M235 738l59 -26q-22 -22 -35 -58t-7 -69l-88 -7q-7 35 1.5 65.5t27.5 55t42 39.5zM104 738l59 -26q-22 -22 -35 -58t-7 -69l-88 -7q-7 35 1.5 65.5t27.5 55t42 39.5z" />
    <glyph glyph-name="quotedblright" unicode="&#x201d;" horiz-adv-x="309" 
d="M87 562l-59 26q22 20 35 56t6 71l89 7q6 -28 -3 -60t-27.5 -59t-40.5 -41v0zM215 562l-59 26q22 20 35 56t6 71l89 7q6 -28 -3 -60t-27.5 -59t-40.5 -41v0z" />
    <glyph glyph-name="quotedblbase" unicode="&#x201e;" horiz-adv-x="317" 
d="M87 -74l-59 26q22 20 35 56t6 71l89 7q6 -28 -3 -60t-27.5 -59t-40.5 -41v0zM215 -74l-59 26q22 20 35 56t6 71l89 7q6 -28 -3 -60t-27.5 -59t-40.5 -41v0z" />
    <glyph glyph-name="dagger" unicode="&#x2020;" horiz-adv-x="300" 
d="M26 474h247v-100h-247v100zM98 621h104v-629h-104v629z" />
    <glyph glyph-name="daggerdbl" unicode="&#x2021;" horiz-adv-x="303" 
d="M12 302h278v-100h-278v100zM29 474h246v-100h-246v100zM101 621h103v-629h-103v629z" />
    <glyph glyph-name="bullet" unicode="&#x2022;" horiz-adv-x="486" 
d="M99 305q0 40 19.5 73t52.5 53t72 20q40 0 73.5 -20t53 -53t19.5 -73t-19.5 -73t-53 -52t-73.5 -19q-39 0 -72 19t-52.5 52t-19.5 73v0z" />
    <glyph glyph-name="ellipsis" unicode="&#x2026;" horiz-adv-x="534" 
d="M26 61q0 27 19 45t42 18q22 0 40.5 -18t18.5 -45t-18.5 -44t-40.5 -17q-23 0 -42 17t-19 44v0zM207 61q0 27 19.5 45t42.5 18q21 0 40.5 -18t19.5 -45t-19.5 -44t-40.5 -17q-23 0 -42.5 17t-19.5 44v0zM390 61q0 27 18.5 45t42.5 18q22 0 40.5 -18t18.5 -45t-18.5 -44
t-40.5 -17q-24 0 -42.5 17t-18.5 44v0z" />
    <glyph glyph-name="perthousand" unicode="&#x2030;" horiz-adv-x="1133" 
d="M201 279q-50 0 -83.5 23t-50.5 63.5t-17 92.5t17 92t50.5 63.5t83.5 23.5t83.5 -23.5t50.5 -63.5t17 -92t-17.5 -92.5t-50.5 -63.5t-83 -23zM150 458q0 -45 12 -72t39 -27t38.5 27t11.5 72q0 50 -11.5 73.5t-38.5 23.5t-39 -23t-12 -74zM595 -21q-49 0 -83 23t-50.5 63.5
t-16.5 92.5t16.5 92t50.5 63.5t83 23.5q50 0 83.5 -23.5t50.5 -63.5t17 -92t-17.5 -92.5t-50.5 -63.5t-83 -23zM544 158q0 -45 12.5 -72t38.5 -27q27 0 38.5 27t11.5 72q0 49 -11.5 73t-38.5 24q-26 0 -38.5 -23.5t-12.5 -73.5zM686 638l-447 -640l-113 2l446 638h114z
M936 -21q-49 0 -83 23t-50.5 63.5t-16.5 92.5t16.5 92t50.5 63.5t83 23.5q50 0 83.5 -23.5t50.5 -63.5t17 -92t-17 -92.5t-50.5 -63.5t-83.5 -23zM885 158q0 -45 12.5 -72t38.5 -27q27 0 38.5 27t11.5 72q0 49 -11.5 73t-38.5 24q-26 0 -38.5 -23.5t-12.5 -73.5z" />
    <glyph glyph-name="guilsinglleft" unicode="&#x2039;" horiz-adv-x="366" 
d="M36 243q3 2 20.5 16.5t43.5 36t54.5 45t54.5 44.5t43.5 35.5t20.5 17.5v-103q-4 -3 -18.5 -16.5t-33.5 -29.5t-34 -29t-18 -17q3 -4 18 -17t34 -30t33.5 -30t18.5 -17v-102z" />
    <glyph glyph-name="guilsinglright" unicode="&#x203a;" horiz-adv-x="358" 
d="M325 243q-3 2 -21 16.5t-44 36t-54 45t-54 44.5t-43.5 35.5t-21.5 17.5v-103q4 -3 19 -16.5t33.5 -29.5t33.5 -29t18 -17q-3 -4 -18 -17t-33.5 -30t-33.5 -30t-19 -17v-102z" />
    </font>
</defs>
</svg>
