<?xml version="1.0" standalone="no"?>
<!DOCTYPE svg PUBLIC "-//W3C//DTD SVG 1.1//EN" "http://www.w3.org/Graphics/SVG/1.1/DTD/svg11.dtd" >
<svg xmlns="http://www.w3.org/2000/svg" xmlns:xlink="http://www.w3.org/1999/xlink" version="1.1">
<metadata>
Created by FontForge 20170731 at Tue Jul 11 16:09:11 2017
 By Aleksey,,,
Copyright (c) 2015-2016 The Mada Project Authors, with Reserved Font Name "Source". Source is a trademark of Adobe Systems Incorporated in the United States and/or other countries.
</metadata>
<defs>
<font id="Mada-Medium" horiz-adv-x="0" >
  <font-face 
    font-family="Mada Medium"
    font-weight="500"
    font-stretch="normal"
    units-per-em="1000"
    panose-1="0 0 0 0 0 0 0 0 0 0"
    ascent="800"
    descent="-200"
    x-height="489"
    cap-height="655"
    bbox="-184 -291.025 980.118 885"
    underline-thickness="50"
    underline-position="-175"
    unicode-range="U+0020-25CC"
  />
<missing-glyph horiz-adv-x="500" 
d="M50 -200h400v1000h-400v-1000zM100 -150v900h300v-900h-300z" />
    <glyph glyph-name="arAlef.fina" unicode="&#x627;" horiz-adv-x="292" arabic-form="final" 
d="M312 105h-30v-105h30v105zM292 0v105h-137v519h-105v-520q0 -45 31.5 -74.5t74.5 -29.5h136z" />
    <glyph glyph-name="arAlef.isol" unicode="&#x627;" horiz-adv-x="205" arabic-form="isolated" 
d="M50 0v624h105v-514q0 -47 -27.5 -78.5t-77.5 -31.5z" />
    <glyph glyph-name="arHah.init" unicode="&#x62d;" horiz-adv-x="612" arabic-form="initial" 
d="M0 0v105h367q-8 7 -14 13q-31 29 -64 62.5t-61 53.5q-34 25 -68 35.5t-65 18.5l24 102q31 -8 76 -22t93 -48q44 -32 80.5 -70t65.5 -63q26 -23 41 -32t33 -10t51 -1l3 -49q2 -26 -15 -60.5t-64 -34.5h-483z" />
    <glyph glyph-name="arHah.medi" unicode="&#x62d;" horiz-adv-x="562" arabic-form="medial" 
d="M0 0v105h367q-8 7 -14 13q-31 29 -64 62.5t-61 53.5q-34 25 -68 35.5t-65 18.5l24 102q31 -8 76 -22t93 -48q44 -32 80.5 -70t65.5 -63q26 -23 41 -32t33 -10t51 -1l3 -49q2 -26 -15 -60.5t-64 -34.5h-483z" />
    <glyph glyph-name="arHah.fina" unicode="&#x62d;" horiz-adv-x="518" arabic-form="final" 
d="M186 -185h241v-106h-241q-58 -1 -97 38t-39 95v125q0 54 38 96t102 42h137q-2 3 -3.5 4.5l-3.5 3.5q-34 38 -68.5 79.5t-105.5 68.5l38 98q64 -24 105.5 -58.5t67 -67.5t41.5 -50q24 -27 38 -36.5t31 -10t51 -0.5v-53q0 -17 -16 -50t-63 -33h-250q-13 0 -24 -9t-11 -24
v-125q0 -27 32 -27z" />
    <glyph glyph-name="arHah.isol" unicode="&#x62d;" horiz-adv-x="568" arabic-form="isolated" 
d="M186 -185h241v-106h-241q-58 -1 -97 38t-39 95v125q0 54 38 96t102 42h137q-2 3 -3.5 4.5l-3.5 3.5q-34 38 -68.5 79.5t-105.5 68.5l38 98q64 -24 105.5 -58.5t67 -67.5t41.5 -50q24 -27 38 -36.5t31 -10t51 -0.5v-53q0 -17 -16 -50t-63 -33h-250q-13 0 -24 -9t-11 -24
v-125q0 -27 32 -27z" />
    <glyph glyph-name="arDal.fina" unicode="&#x62f;" horiz-adv-x="419" arabic-form="final" 
d="M50 0v105h263q-6 73 -56 113t-100 65l46 94q34 -17 85 -50t91 -87.5t40 -135.5q0 -44 -30.5 -74t-74.5 -30h-264z" />
    <glyph glyph-name="arDal.isol" unicode="&#x62f;" horiz-adv-x="499" arabic-form="isolated" 
d="M50 0v105h263q-6 73 -56 113t-100 65l46 94q34 -17 85 -50t91 -87.5t40 -135.5q0 -44 -30.5 -74t-74.5 -30h-264z" />
    <glyph glyph-name="arReh.fina" unicode="&#x631;" horiz-adv-x="396" arabic-form="final" 
d="M271 105h145v-105h-145v105zM188 -1v188h106v-188q0 -80 -54 -139.5t-138 -59.5h-102v104h102q38 0 62 26t24 69z" />
    <glyph glyph-name="arReh.isol" unicode="&#x631;" horiz-adv-x="344" arabic-form="isolated" 
d="M188 -1v188h106v-188q0 -80 -54 -139.5t-138 -59.5h-102v104h102q38 0 62 26t24 69z" />
    <glyph glyph-name="arSeen.init" unicode="&#x633;" horiz-adv-x="699" arabic-form="initial" 
d="M179 0h-179v105h180v271h105v-271h77v271h105v-271h77v271h105v-272q0 -45 -31.5 -74.5t-74.5 -29.5h-82v69q-11 -31 -38.5 -50t-61.5 -19h-82v69q-11 -31 -38.5 -50t-61.5 -19z" />
    <glyph glyph-name="arSeen.medi" unicode="&#x633;" horiz-adv-x="649" arabic-form="medial" 
d="M179 0h-179v105h180v271h105v-271h77v271h105v-271h77v271h105v-272q0 -45 -31.5 -74.5t-74.5 -29.5h-82v69q-11 -31 -38.5 -50t-61.5 -19h-82v69q-11 -31 -38.5 -50t-61.5 -19z" />
    <glyph glyph-name="arSeen.fina" unicode="&#x633;" horiz-adv-x="892" arabic-form="final" 
d="M152 -202q-46 0 -74 34.5t-28 74.5v278h105v-282h264v475h105v-273h79v271h105v-271h79v271h105v-272q0 -45 -31.5 -74.5t-74.5 -29.5h-82v75q-10 -33 -38 -54t-64 -21h-78v-97q0 -44 -31 -74.5t-74 -30.5h-267z" />
    <glyph glyph-name="arSeen.isol" unicode="&#x633;" horiz-adv-x="942" arabic-form="isolated" 
d="M152 -202q-46 0 -74 34.5t-28 74.5v278h105v-282h264v475h105v-273h79v271h105v-271h79v271h105v-272q0 -45 -31.5 -74.5t-74.5 -29.5h-82v75q-10 -33 -38 -54t-64 -21h-78v-97q0 -44 -31 -74.5t-74 -30.5h-267z" />
    <glyph glyph-name="arSad.init" unicode="&#x635;" horiz-adv-x="697" arabic-form="initial" 
d="M0 0v105h86v172h104v-179h-43v-98h-147zM496 270q-34 12 -84 -23t-126 -142h254v65q0 54 -12.5 73t-31.5 27zM139 0v105h17q34 49 74.5 104t87 99.5t100.5 63.5t117 -4q57 -24 83 -76t27 -120l2 -66q1 -45 -31 -75.5t-75 -30.5h-402z" />
    <glyph glyph-name="arSad.medi" unicode="&#x635;" horiz-adv-x="647" arabic-form="medial" 
d="M0 0v105h86v172h104v-179h-43v-98h-147zM496 270q-34 12 -84 -23t-126 -142h254v65q0 54 -12.5 73t-31.5 27zM139 0v105h17q34 49 74.5 104t87 99.5t100.5 63.5t117 -4q57 -24 83 -76t27 -120l2 -66q1 -45 -31 -75.5t-75 -30.5h-402z" />
    <glyph glyph-name="arSad.fina" unicode="&#x635;" horiz-adv-x="980" arabic-form="final" 
d="M152 -202q-46 0 -74 34.5t-28 74.5v278h105v-282h264v374h105v-374q0 -44 -31 -74.5t-74 -30.5h-267zM829 270q-34 12 -84 -23t-126 -142h254v65q0 54 -12.5 73t-31.5 27zM472 0v105h17q34 49 74.5 104t87 99.5t100.5 63.5t117 -4q57 -24 82.5 -76t27.5 -120l2 -66
q2 -45 -30 -75.5t-76 -30.5h-402z" />
    <glyph glyph-name="arSad.isol" unicode="&#x635;" horiz-adv-x="1030" arabic-form="isolated" 
d="M152 -202q-46 0 -74 34.5t-28 74.5v278h105v-282h264v374h105v-374q0 -44 -31 -74.5t-74 -30.5h-267zM829 270q-34 12 -84 -23t-126 -142h254v65q0 54 -12.5 73t-31.5 27zM472 0v105h17q34 49 74.5 104t87 99.5t100.5 63.5t117 -4q57 -24 82.5 -76t27.5 -120l2 -66
q2 -45 -30 -75.5t-76 -30.5h-402z" />
    <glyph glyph-name="arTah.init" unicode="&#x637;" horiz-adv-x="620" arabic-form="initial" 
d="M79 88v536h106v-536h-106zM70 0h-70v105h70v-105zM419 270q-34 12 -84 -23t-126 -142h254v65q0 54 -12.5 73t-31.5 27zM62 0v105h17q34 49 74.5 104t87 99.5t100.5 63.5t117 -4q57 -24 82.5 -76t27.5 -120l2 -66q2 -45 -30 -75.5t-76 -30.5h-402z" />
    <glyph glyph-name="arTah.medi" unicode="&#x637;" horiz-adv-x="570" arabic-form="medial" 
d="M79 88v536h106v-536h-106zM70 0h-70v105h70v-105zM419 270q-34 12 -84 -23t-126 -142h254v65q0 54 -12.5 73t-31.5 27zM62 0v105h17q34 49 74.5 104t87 99.5t100.5 63.5t117 -4q57 -24 82.5 -76t27.5 -120l2 -66q2 -45 -30 -75.5t-76 -30.5h-402z" />
    <glyph glyph-name="arTah.fina" unicode="&#x637;" horiz-adv-x="620" arabic-form="final" 
d="M129 88v536h106v-536h-106zM120 0h-70v105h70v-105zM469 270q-34 12 -84 -23t-126 -142h254v65q0 54 -12.5 73t-31.5 27zM112 0v105h17q34 49 74.5 104t87 99.5t100.5 63.5t117 -4q57 -24 82.5 -76t27.5 -120l2 -66q2 -45 -30 -75.5t-76 -30.5h-402z" />
    <glyph glyph-name="arTah.isol" unicode="&#x637;" horiz-adv-x="670" arabic-form="isolated" 
d="M129 88v536h106v-536h-106zM120 0h-70v105h70v-105zM469 270q-34 12 -84 -23t-126 -142h254v65q0 54 -12.5 73t-31.5 27zM112 0v105h17q34 49 74.5 104t87 99.5t100.5 63.5t117 -4q57 -24 82.5 -76t27.5 -120l2 -66q2 -45 -30 -75.5t-76 -30.5h-402z" />
    <glyph glyph-name="arAin.init" unicode="&#x639;" horiz-adv-x="518" arabic-form="initial" 
d="M0 0v105h135q-43 61 -52.5 122t36.5 108q48 49 130.5 51t183.5 -29l-30 -100q-97 29 -148 22t-61 -17q-4 -4 -4.5 -22t16.5 -51.5t69 -83.5h193v-105h-468z" />
    <glyph glyph-name="arAin.medi" unicode="&#x639;" horiz-adv-x="468" arabic-form="medial" 
d="M0 0v105h135q-43 61 -52.5 122t36.5 108q48 49 130.5 51t183.5 -29l-30 -100q-97 29 -148 22t-61 -17q-4 -4 -4.5 -22t16.5 -51.5t69 -83.5h193v-105h-468zM458 105h30v-105h-30v105z" />
    <glyph glyph-name="arAin.fina" unicode="&#x639;" horiz-adv-x="432" arabic-form="final" 
d="M144 -273q-41 0 -67.5 30t-26.5 70v178q0 40 26.5 70t69.5 30h14q-30 54 -31.5 105t39.5 88q36 33 86.5 36.5t104.5 -11.5q13 -4 27 -9t27 -10l-40 -98q-24 10 -42 15q-43 12 -65 8t-27 -8l-2.5 -11.5t7 -37t45.5 -67.5h143v-105h-277v-168h277v-105h-288zM422 105h30
v-105h-30v105z" />
    <glyph glyph-name="arAin.isol" unicode="&#x639;" horiz-adv-x="482" arabic-form="isolated" 
d="M144 -273q-41 0 -67.5 30t-26.5 70v178q0 40 26.5 70t69.5 30h14q-30 54 -31.5 105t39.5 88q36 33 86.5 36.5t104.5 -11.5q13 -4 27 -9t27 -10l-40 -98q-24 10 -42 15q-43 12 -65 8t-27 -8l-2.5 -11.5t7 -37t45.5 -67.5h143v-105h-277v-168h277v-105h-288z" />
    <glyph glyph-name="arKaf.init" unicode="&#x643;" horiz-adv-x="613" arabic-form="initial" 
d="M0 0v105h452l-273 279q-35 35 -36.5 89.5t44.5 82.5q57 35 133.5 61t143 40.5t93.5 14.5l2 -104q-8 0 -44 -8t-85.5 -21.5t-99.5 -31t-86 -38.5l291 -297q31 -32 29 -72.5t-30 -70t-72 -29.5h-462z" />
    <glyph glyph-name="arKaf.medi" unicode="&#x643;" horiz-adv-x="564" arabic-form="medial" 
d="M0 0v105h452l-273 279q-35 35 -36.5 89.5t44.5 82.5q57 35 133.5 61t143 40.5t93.5 14.5l2 -104q-8 0 -44 -8t-85.5 -21.5t-99.5 -31t-86 -38.5l291 -297q31 -32 29 -72.5t-30 -70t-72 -29.5h-462z" />
    <glyph glyph-name="arLam.init" unicode="&#x644;" horiz-adv-x="292" arabic-form="initial" 
d="M0 0v105h137v519h105v-520q0 -45 -31.5 -74.5t-74.5 -29.5h-136z" />
    <glyph glyph-name="arLam.medi" unicode="&#x644;" horiz-adv-x="242" arabic-form="medial" 
d="M0 0v105h137v519h105v-520q0 -45 -31.5 -74.5t-74.5 -29.5h-136z" />
    <glyph glyph-name="arLam.fina" unicode="&#x644;" horiz-adv-x="523" arabic-form="final" 
d="M157 -148q-43 0 -75 29.5t-32 75.5v189h105v-190h263v668h105v-666q0 -41 -29.5 -73.5t-76.5 -32.5h-260z" />
    <glyph glyph-name="arLam.isol" unicode="&#x644;" horiz-adv-x="573" arabic-form="isolated" 
d="M157 -148q-43 0 -75 29.5t-32 75.5v189h105v-190h263v668h105v-666q0 -41 -29.5 -73.5t-76.5 -32.5h-260z" />
    <glyph glyph-name="arMeem.init" unicode="&#x645;" horiz-adv-x="522" arabic-form="initial" 
d="M205 238v-133h60q55 0 78.5 19t23.5 38q0 14 -11.5 40t-46.5 63q-21 22 -49 21.5t-42 -13.5q-13 -13 -13 -35zM99 0h-99v105h100v133q0 67 45 110q48 46 119.5 43.5t120.5 -54.5q87 -92 87 -174q0 -58 -32.5 -94t-80.5 -52.5t-94 -16.5h-65v72q-10 -32 -38 -52t-63 -20z
" />
    <glyph glyph-name="arMeem.medi" unicode="&#x645;" horiz-adv-x="472" arabic-form="medial" 
d="M205 238v-133h60q55 0 78.5 19t23.5 38q0 14 -11.5 40t-46.5 63q-21 22 -49 21.5t-42 -13.5q-13 -13 -13 -35zM99 0h-99v105h100v133q0 67 45 110q48 46 119.5 43.5t120.5 -54.5q87 -92 87 -174q0 -58 -32.5 -94t-80.5 -52.5t-94 -16.5h-65v72q-10 -32 -38 -52t-63 -20z
" />
    <glyph glyph-name="arMeem.fina" unicode="&#x645;" horiz-adv-x="624" arabic-form="final" 
d="M50 105h102l87 -105h-102zM357 238v-133h60q55 0 78.5 19t23.5 38q0 14 -11.5 40t-46.5 63q-21 22 -49 21.5t-42 -13.5q-13 -13 -13 -35zM251 0h-99v105h100v133q0 67 45 110q48 46 119.5 43.5t120.5 -54.5q87 -92 87 -174q0 -58 -32.5 -94t-80.5 -52.5t-94 -16.5h-65v72
q-10 -32 -38 -52t-63 -20z" />
    <glyph glyph-name="arMeem.isol" unicode="&#x645;" horiz-adv-x="674" arabic-form="isolated" 
d="M50 105h102l87 -105h-102zM357 238v-133h60q55 0 78.5 19t23.5 38q0 14 -11.5 40t-46.5 63q-21 22 -49 21.5t-42 -13.5q-13 -13 -13 -35zM251 0h-99v105h100v133q0 67 45 110q48 46 119.5 43.5t120.5 -54.5q87 -92 87 -174q0 -58 -32.5 -94t-80.5 -52.5t-94 -16.5h-65v72
q-10 -32 -38 -52t-63 -20z" />
    <glyph glyph-name="arHeh.init" unicode="&#x647;" horiz-adv-x="719" arabic-form="initial" 
d="M321 105q21 0 31.5 10.5t10.5 22.5q0 6 -3.5 17t-13.5 26q-32 48 -64.5 53.5t-43.5 -2.5q-5 -4 -9.5 -10.5t-4.5 -21.5v-95h97zM0 0v105h120v95q0 81 60 120q59 39 133 15.5t121 -96.5q33 -51 34 -99q0 -18 -4 -35h99q-1 72 -34 138t-102 108.5t-179 44.5l2 104
q145 -2 238.5 -64t138 -152.5t42.5 -178.5q-1 -44 -31 -74.5t-74 -30.5h-564z" />
    <glyph glyph-name="arHeh.medi" unicode="&#x647;" horiz-adv-x="669" arabic-form="medial" 
d="M321 105q21 0 31.5 10.5t10.5 22.5q0 6 -3.5 17t-13.5 26q-32 48 -64.5 53.5t-43.5 -2.5q-5 -4 -9.5 -10.5t-4.5 -21.5v-95h97zM0 0v105h120v95q0 81 60 120q59 39 133 15.5t121 -96.5q33 -51 34 -99q0 -18 -4 -35h99q-1 72 -34 138t-102 108.5t-179 44.5l2 104
q145 -2 238.5 -64t138 -152.5t42.5 -178.5q-1 -44 -31 -74.5t-74 -30.5h-564z" />
    <glyph glyph-name="arHeh.fina" unicode="&#x647;" horiz-adv-x="432" arabic-form="final" 
d="M173 0q-56 0 -96 37q-37 33 -41.5 89.5t38.5 97.5q37 35 65 60t50.5 54t42.5 77l100 -41q-3 -5 -5 -10h90v-259q0 -45 -30 -75t-74 -30h-140zM173 105h139v232q-44 -77 -85 -114.5t-79 -73.5q-16 -20 0 -35q9 -9 25 -9z" />
    <glyph glyph-name="arHeh.isol" unicode="&#x647;" horiz-adv-x="482" arabic-form="isolated" 
d="M173 0q-56 0 -96 37q-37 33 -41.5 89.5t38.5 97.5q37 35 65 60t50.5 54t42.5 77l100 -41q-3 -5 -5 -10h90v-259q0 -45 -30 -75t-74 -30h-140zM173 105h139v232q-44 -77 -85 -114.5t-79 -73.5q-16 -20 0 -35q9 -9 25 -9z" />
    <glyph glyph-name="arWaw.fina" unicode="&#x648;" horiz-adv-x="495" arabic-form="final" 
d="M370 105h145v-105h-145v105zM35 -200v106h193q37 0 61.5 28t24.5 66h-108q-68 0 -114 47t-42 112q6 69 41 117t84.5 74t98.5 26q55 1 99 -36t45 -107v-234q0 -73 -51 -136t-139 -63h-193zM206 105h108v108q0 24 -9.5 41t-29.5 17q-35 0 -75 -31t-46 -89
q-1 -15 13.5 -30.5t38.5 -15.5z" />
    <glyph glyph-name="arWaw.isol" unicode="&#x648;" horiz-adv-x="468" arabic-form="isolated" 
d="M35 -200v106h193q37 0 61.5 28t24.5 66h-108q-68 0 -114 47t-42 112q6 69 41 117t84.5 74t98.5 26q55 1 99 -36t45 -107v-234q0 -73 -51 -136t-139 -63h-193zM206 105h108v108q0 24 -9.5 41t-29.5 17q-35 0 -75 -31t-46 -89q-1 -15 13.5 -30.5t38.5 -15.5z" />
    <glyph glyph-name="arBeh.init" unicode="&#x649;" horiz-adv-x="445" 
d="M0 0v105h290v271h105v-272q0 -45 -31.5 -74.5t-74.5 -29.5h-289z" />
    <glyph glyph-name="arBeh.medi" unicode="&#x649;" horiz-adv-x="395" 
d="M0 0v105h290v271h105v-272q0 -45 -31.5 -74.5t-74.5 -29.5h-289z" />
    <glyph glyph-name="arYeh.fina" unicode="&#x649;" horiz-adv-x="581" arabic-form="final" 
d="M242 -234q-39 0 -84 17t-77 56t-32 104v196h105v-196q0 -38 27.5 -55.5t70.5 -17.5h204l-92 111q-29 36 -26.5 73.5t30.5 63.5t74 26h138v-104h-129l105 -127q28 -34 20 -68t-37.5 -56.5t-66.5 -22.5h-230z" />
    <glyph glyph-name="arYeh.isol" unicode="&#x649;" horiz-adv-x="631" arabic-form="isolated" 
d="M242 -104q-39 0 -84 17t-77 56t-32 104v196h105v-196q0 -38 27.5 -55.5t70.5 -17.5h204l-92 111q-29 36 -26.5 73.5t30.5 63.5t74 26h138v-104h-129l105 -127q28 -34 20 -68t-37.5 -56.5t-66.5 -22.5h-230z" />
    <glyph glyph-name="arBeh.fina" unicode="&#x66e;" horiz-adv-x="717" 
d="M221 0q-65 0 -118 45t-53 115v140h105v-140q0 -20 18.5 -37.5t47.5 -17.5h391v195h105v-195q0 -43 -30.5 -74t-73.5 -31h-392z" />
    <glyph glyph-name="arBeh.isol" unicode="&#x66e;" horiz-adv-x="767" 
d="M221 0q-65 0 -118 45t-53 115v140h105v-140q0 -20 18.5 -37.5t47.5 -17.5h391v195h105v-195q0 -43 -30.5 -74t-73.5 -31h-392z" />
    <glyph glyph-name="arFeh.init" unicode="&#x66f;" horiz-adv-x="510" 
d="M194 284q18 -30 45.5 -41t114.5 -9v97q0 28 -17 47.5t-42 26.5q-40 10 -74 -11q-22 -14 -32.5 -48.5t5.5 -61.5zM0 0v105h354v52q-48 -4 -95.5 -3.5t-88 16.5t-66.5 60q-29 48 -25.5 97.5t27.5 91t59 63.5q39 24 90 29t99 -14t79 -67q27 -44 27 -99v-224q0 -41 -30.5 -74
t-77.5 -33h-352z" />
    <glyph glyph-name="arFeh.medi" unicode="&#x66f;" horiz-adv-x="460" 
d="M194 284q18 -30 45.5 -41t114.5 -9v97q0 28 -17 47.5t-42 26.5q-40 10 -74 -11q-22 -14 -32.5 -48.5t5.5 -61.5zM0 0v105h354v52q-48 -4 -95.5 -3.5t-88 16.5t-66.5 60q-29 48 -25.5 97.5t27.5 91t59 63.5q39 24 90 29t99 -14t79 -67q27 -44 27 -99v-224q0 -41 -30.5 -74
t-77.5 -33h-352z" />
    <glyph glyph-name="arQaf.fina" unicode="&#x66f;" horiz-adv-x="805" 
d="M201 -200q-61 0 -106 40t-45 107v242h104v-242q0 -41 47 -41h425v94q-42 0 -88 1t-89 19t-74 70q-29 48 -25.5 97.5t28 91t58.5 63.5q38 24 89.5 29t100 -14t78.5 -67q26 -43 26 -99v-86h95v-105h-95v-93q0 -41 -30 -74t-77 -33h-422zM465 144q20 -34 51 -36.5t110 -2.5
v86q0 43 -39 65q-48 27 -95 -2q-22 -14 -33 -48.5t6 -61.5z" />
    <glyph glyph-name="arQaf.isol" unicode="&#x66f;" horiz-adv-x="781" 
d="M465 144q18 -30 45.5 -41t115.5 -9v97q0 28 -17 47.5t-42 26.5q-40 10 -74 -11q-22 -14 -33.5 -48.5t5.5 -61.5zM201 -200q-61 0 -106 40t-45 107v242h105v-242q0 -41 46 -41h425v111q-48 -4 -95.5 -3.5t-88 16.5t-66.5 60q-29 48 -26 97.5t27.5 91t58.5 63.5
q38 24 89.5 29t100 -14t78.5 -67q27 -44 27 -99v-284q0 -41 -30.5 -74t-77.5 -33h-422z" />
    <glyph glyph-name="arFeh.fina" unicode="&#x6a1;" horiz-adv-x="875" 
d="M535 144q20 -34 51 -36.5t110 -2.5v86q0 43 -39 65q-48 27 -95 -2q-22 -14 -33 -48.5t6 -61.5zM201 -200q-61 0 -106 40t-45 107v152h104v-152q0 -41 47 -41h495v94q-42 0 -88 1t-89 19t-74 70q-29 48 -25.5 97.5t28 91t58.5 63.5q38 24 89.5 29t100 -14t78.5 -67
q26 -43 26 -99v-86h95v-105h-95v-93q0 -41 -30 -74t-77 -33h-492z" />
    <glyph glyph-name="arFeh.isol" unicode="&#x6a1;" horiz-adv-x="851" 
d="M535 143q18 -30 45.5 -41t115.5 -9v97q0 28 -17 47.5t-42 26.5q-40 10 -74 -11q-22 -14 -33.5 -48.5t5.5 -61.5zM201 -200q-61 0 -106 40t-45 107v152h105v-152q0 -41 46 -41h495v110q-48 -4 -95.5 -3.5t-88 16.5t-66.5 60q-29 48 -26 97.5t27.5 90.5t58.5 64
q38 25 89.5 29.5t100 -14.5t78.5 -67q27 -44 27 -99v-283q0 -41 -30.5 -74t-77.5 -33h-492z" />
    <glyph glyph-name="arGaf.fina" unicode="&#x6a9;" horiz-adv-x="701" arabic-form="final" 
d="M50 105h102l87 -105h-102zM137 0v105h452l-273 279q-34 35 -36 89.5t44 82.5q57 35 133.5 61t143.5 40.5t93 14.5l2 -104q-8 0 -44 -8t-85.5 -21.5t-99.5 -31t-86 -38.5l291 -297q32 -32 29.5 -72.5t-30 -70t-72.5 -29.5h-462z" />
    <glyph glyph-name="arGaf.isol" unicode="&#x6a9;" horiz-adv-x="750" arabic-form="isolated" 
d="M50 105h102l87 -105h-102zM137 0v105h452l-273 279q-34 35 -36 89.5t44 82.5q57 35 133.5 61t143.5 40.5t93 14.5l2 -104q-8 0 -44 -8t-85.5 -21.5t-99.5 -31t-86 -38.5l291 -297q32 -32 29.5 -72.5t-30 -70t-72.5 -29.5h-462z" />
    <glyph glyph-name="arNoon.fina" unicode="&#x6ba;" horiz-adv-x="620" arabic-form="final" 
d="M499 105h141v-105h-141v105zM277 -188q-96 0 -161.5 49.5t-65.5 135.5v190h105v-190q0 -19 25.5 -49t96.5 -30h137v270h105v-271q0 -43 -29.5 -74t-74.5 -31h-138z" />
    <glyph glyph-name="arNoon.isol" unicode="&#x6ba;" horiz-adv-x="569" arabic-form="isolated" 
d="M277 -188q-96 0 -161.5 49.5t-65.5 135.5v190h105v-190q0 -19 25.5 -49t96.5 -30h137v270h105v-271q0 -43 -29.5 -74t-74.5 -31h-138z" />
    <glyph glyph-name="arHeh.init2" unicode="&#x6c1;" horiz-adv-x="382" arabic-form="initial" 
d="M332 -177q-50 -55 -95.5 -59.5t-69.5 13.5q-20 16 -30 43t-3 64q13 70 45 116h-179v105h210v151h105v-152q0 -44 -32 -74l1 -1q-27 -26 -42.5 -49t-23.5 -66q-6 -30 10.5 -57t55.5 2z" />
    <glyph glyph-name="arHeh.medi2" unicode="&#x6c1;" horiz-adv-x="589" arabic-form="medial" 
d="M344 -271v17l-93 -18q-9 45 -20.5 63t-28 34t-40.5 55q-22 35 -27 69.5t-10 50.5h-125v105h138q40 0 61 -22.5t30.5 -53t13 -57.5t9.5 -36q16 -25 44 -53.5t48 -91.5v210q0 45 31.5 74.5t74.5 29.5h159v-105h-160v-271h-105z" />
    <glyph glyph-name="arHeh.fina2" unicode="&#x6c1;" horiz-adv-x="370" arabic-form="final" 
d="M105 -81v82q0 45 31.5 74.5t74.5 29.5h179v-105h-180v-81h-105z" />
    <glyph glyph-name="arYeh.fina2" unicode="&#x6d2;" horiz-adv-x="708" arabic-form="final" 
d="M264 -170h438v-106h-438q-86 0 -142.5 36t-72.5 95q-17 65 19 124t106 78q46 12 58 20.5t14 22.5t18 42q22 38 59 64t90 27q43 1 83 -22t63 -66q13 -25 26 -32.5t43 -7.5h94v-105h-94q-51 0 -93.5 24t-68.5 73q-18 34 -55 31q-20 -2 -32.5 -12.5t-23.5 -27.5
q-5 -8 -16.5 -33.5t-43 -54t-94.5 -45.5q-31 -8 -43 -30.5t-7 -42.5q4 -14 26 -33t87 -19z" />
    <glyph glyph-name="arYeh.isol2" unicode="&#x6d2;" horiz-adv-x="946" arabic-form="isolated" 
d="M267 223q37 53 81.5 71.5t88 15.5t80 -17.5t58.5 -28.5l-56 -88q-37 24 -84.5 30.5t-82.5 -43.5q-2 -3 -13.5 -29t-43 -56t-94.5 -46q-31 -8 -43 -31t-7 -42q4 -14 26 -32.5t87 -18.5h626v-106h-626q-86 0 -142.5 36t-72.5 95q-17 65 19 124t106 77q46 12 56.5 21t13 23
t23.5 45z" />
    <glyph glyph-name=".notdef" horiz-adv-x="500" 
d="M50 -200h400v1000h-400v-1000zM100 -150v900h300v-900h-300z" />
    <glyph glyph-name=".null" 
 />
    <glyph glyph-name="nonmarkingreturn" horiz-adv-x="333" 
 />
    <glyph glyph-name="space" unicode=" " horiz-adv-x="200" 
 />
    <glyph glyph-name="space" unicode="&#xa0;" horiz-adv-x="200" 
 />
    <glyph glyph-name="exclam" unicode="!" horiz-adv-x="306" 
d="M118 209l-14 354l-3 107h105l-4 -107l-14 -354h-70zM153 -12q-29 0 -49 20.5t-20 51.5q0 32 20 53t49 21t49 -21t20 -53q0 -31 -20 -51.5t-49 -20.5z" />
    <glyph glyph-name="quotedbl" unicode="&#x22;" horiz-adv-x="463" 
d="M102 406l-20 177l-3 106h107l-3 -106l-20 -177h-61zM299 406l-20 177l-3 106h107l-3 -106l-20 -177h-61z" />
    <glyph glyph-name="numbersign" unicode="#" horiz-adv-x="507" 
d="M185 268h123l17 135h-123zM89 0l24 198h-78v70h86l17 135h-83v70h91l23 177h63l-22 -177h123l23 177h63l-22 -177h80v-70h-88l-17 -135h85v-70h-93l-24 -198h-64l24 198h-123l-24 -198h-64z" />
    <glyph glyph-name="dollar" unicode="$" horiz-adv-x="507" 
d="M292 -110h-72v99q-100 11 -173 77l48 71q34 -28 71 -46t79 -18q102 0 102 92q0 43 -28 69t-68.5 46t-81.5 43t-69 58t-28 92q0 69 40.5 115t107.5 58v101h72v-100q48 -5 82 -26.5t62 -50.5l-54 -61q-28 26 -54 40.5t-63 14.5q-43 0 -67.5 -23t-24.5 -63q0 -39 27.5 -62
t68.5 -42t82 -42t68.5 -60.5t27.5 -99.5q0 -71 -41 -119.5t-114 -60.5v-102z" />
    <glyph glyph-name="percent" unicode="%" horiz-adv-x="835" 
d="M185 253q-68 0 -110.5 54.5t-42.5 153.5q0 98 42.5 152t110.5 54t111 -54t43 -152q0 -99 -43 -153.5t-111 -54.5zM185 314q34 0 56 36t22 111t-22 110t-56 35t-56 -35t-22 -110t22 -111t56 -36zM206 -12l358 679h66l-359 -679h-65zM650 -12q-68 0 -110.5 54.5
t-42.5 153.5q0 98 42.5 152t110.5 54t111 -54t43 -152q0 -99 -43 -153.5t-111 -54.5zM650 49q34 0 56 36t22 111t-22 110t-56 35t-56 -35t-22 -110t22 -111t56 -36z" />
    <glyph glyph-name="ampersand" unicode="&#x26;" horiz-adv-x="629" 
d="M585 -12q-77 19 -156 72q-39 -33 -87.5 -52.5t-107.5 -19.5q-95 0 -150 52.5t-55 130.5q0 67 38 110.5t87 77.5q-20 38 -31 75.5t-11 71.5q0 67 44 114t117 47q64 0 101.5 -37.5t37.5 -98.5q0 -65 -45.5 -109.5t-99.5 -82.5q31 -43 71.5 -84.5t83.5 -76.5q58 76 87 181
h96q-19 -63 -47 -121t-67 -110q68 -43 120 -55zM200 507q0 -46 28 -102q42 27 72 56t30 69q0 27 -13 46t-43 19q-33 0 -53.5 -24.5t-20.5 -63.5zM247 69q29 0 57 12t55 32q-96 80 -162 175q-30 -24 -49.5 -51t-19.5 -60q0 -49 34 -78.5t85 -29.5z" />
    <glyph glyph-name="quotesingle" unicode="'" horiz-adv-x="266" 
d="M102 406l-20 177l-3 106h107l-3 -106l-20 -177h-61z" />
    <glyph glyph-name="parenleft" unicode="(" horiz-adv-x="317" 
d="M211 -177q-62 101 -97 212t-35 243t35 243t97 212l64 -29q-56 -96 -83.5 -205t-27.5 -221t27.5 -221t83.5 -205z" />
    <glyph glyph-name="parenright" unicode=")" horiz-adv-x="317" 
d="M106 -177l-65 29q57 96 84.5 205t27.5 221t-27.5 221t-84.5 205l65 29q62 -101 97 -212t35 -243t-35 -243t-97 -212z" />
    <glyph glyph-name="asterisk" unicode="*" horiz-adv-x="431" 
d="M141 396l-47 35l58 96l-101 44l18 55l107 -25l10 111h58l11 -111l107 25l18 -55l-101 -44l57 -96l-47 -35l-73 87z" />
    <glyph glyph-name="plus" unicode="+" horiz-adv-x="507" 
d="M214 101v191h-180v76h180v191h80v-191h179v-76h-179v-191h-80z" />
    <glyph glyph-name="comma" unicode="," horiz-adv-x="266" 
d="M70 -178l-23 58q99 40 97 122q-4 -1 -9 -1q-28 0 -48.5 17.5t-20.5 48.5t21 49t50 18q38 0 59.5 -29.5t21.5 -81.5q0 -71 -39 -123t-109 -78z" />
    <glyph glyph-name="hyphen" unicode="-" horiz-adv-x="318" 
d="M42 213v77h235v-77h-235z" />
    <glyph glyph-name="period" unicode="." horiz-adv-x="266" 
d="M133 -12q-29 0 -49 20.5t-20 51.5q0 32 20 53t49 21t49 -21t20 -53q0 -31 -20 -51.5t-49 -20.5z" />
    <glyph glyph-name="slash" unicode="/" horiz-adv-x="346" 
d="M11 -160l245 870h72l-245 -870h-72z" />
    <glyph glyph-name="zero" unicode="0" horiz-adv-x="507" 
d="M254 -12q-98 0 -155 86t-57 247t57 244.5t155 83.5t155 -83.5t57 -244.5t-57 -247t-155 -86zM254 70q50 0 81 57t31 194t-31 191.5t-81 54.5t-81.5 -54.5t-31.5 -191.5t31.5 -194t81.5 -57z" />
    <glyph glyph-name="one" unicode="1" horiz-adv-x="507" 
d="M76 0v85h143v436h-117v65q86 17 143 51h78v-552h128v-85h-375z" />
    <glyph glyph-name="two" unicode="2" horiz-adv-x="507" 
d="M39 0v61q137 133 214.5 224.5t77.5 165.5q0 52 -28 83.5t-83 31.5q-38 0 -70 -21.5t-58 -51.5l-58 58q42 46 89 72t111 26q90 0 143.5 -52.5t53.5 -140.5q0 -86 -70 -177t-171 -197q26 2 54.5 4t52.5 2h165v-88h-423z" />
    <glyph glyph-name="three" unicode="3" horiz-adv-x="507" 
d="M238 -12q-76 0 -128 26.5t-85 63.5l50 67q29 -29 66.5 -50.5t88.5 -21.5q54 0 88.5 27.5t34.5 75.5q0 52 -41.5 83.5t-151.5 31.5v77q96 0 133.5 30.5t37.5 76.5q0 42 -26.5 66.5t-73.5 24.5q-38 0 -69.5 -17t-60.5 -45l-54 65q39 35 85 57.5t103 22.5q89 0 145 -43.5
t56 -122.5q0 -55 -30.5 -92t-82.5 -56v-4q57 -14 95.5 -54.5t38.5 -105.5q0 -86 -64 -134.5t-155 -48.5z" />
    <glyph glyph-name="four" unicode="4" horiz-adv-x="507" 
d="M122 249h179v158q0 27 1.5 64.5t3.5 64.5h-4q-12 -24 -25 -47t-27 -49zM481 168h-83v-168h-97v168h-283v70l259 399h121v-388h83v-81z" />
    <glyph glyph-name="five" unicode="5" horiz-adv-x="507" 
d="M239 -12q-77 0 -129 27t-86 61l49 67q29 -28 65.5 -49t87.5 -21q55 0 92 34.5t37 95.5q0 60 -34.5 93t-89.5 33q-31 0 -53 -8.5t-51 -27.5l-51 32l20 312h332v-88h-242l-15 -166q21 11 42 16.5t47 5.5q82 0 140.5 -48t58.5 -151q0 -104 -67 -161t-153 -57z" />
    <glyph glyph-name="six" unicode="6" horiz-adv-x="507" 
d="M469 195q0 -94 -58.5 -150.5t-137.5 -56.5q-94 0 -160.5 76t-66.5 233q0 125 35 203t91 113.5t121 35.5q55 0 96 -20.5t69 -50.5l-57 -63q-41 49 -102 49q-62 0 -107.5 -55t-49.5 -193q29 36 67.5 56t74.5 20q82 0 133.5 -48.5t51.5 -148.5zM271 68q43 0 72 33.5t29 93.5
q0 121 -106 121q-29 0 -62 -18t-59 -59q8 -88 41.5 -129.5t84.5 -41.5z" />
    <glyph glyph-name="seven" unicode="7" horiz-adv-x="507" 
d="M171 0q5 116 24 207.5t56.5 173t99.5 168.5h-307v88h421v-64q-75 -94 -113 -177.5t-54 -177.5t-21 -218h-106z" />
    <glyph glyph-name="eight" unicode="8" horiz-adv-x="507" 
d="M255 -12q-92 0 -153 49t-61 126q0 61 36 101.5t81 64.5v4q-37 25 -62.5 61.5t-25.5 86.5q0 77 53.5 122.5t134.5 45.5q85 0 134.5 -47.5t49.5 -123.5q0 -49 -27.5 -88t-58.5 -61v-4q44 -25 77 -63t33 -102q0 -73 -58 -122.5t-153 -49.5zM297 355q58 55 58 116
q0 44 -26 73.5t-73 29.5q-40 0 -66.5 -25t-26.5 -68q0 -51 40 -77.5t94 -48.5zM257 63q49 0 80 27t31 73q0 55 -46.5 82.5t-112.5 54.5q-33 -23 -54.5 -55t-21.5 -72q0 -49 35.5 -79.5t88.5 -30.5z" />
    <glyph glyph-name="nine" unicode="9" horiz-adv-x="507" 
d="M241 320q29 0 61.5 18.5t58.5 59.5q-8 87 -41.5 129t-84.5 42q-42 0 -71.5 -34t-29.5 -93q0 -122 107 -122zM213 -12q-55 0 -96 20.5t-68 49.5l56 64q41 -49 103 -49t107 54.5t49 193.5q-28 -36 -67 -56t-75 -20q-82 0 -133 48.5t-51 148.5q0 94 58 150.5t138 56.5
q94 0 160.5 -75.5t66.5 -233.5q0 -126 -35 -203.5t-91.5 -113t-121.5 -35.5z" />
    <glyph glyph-name="colon" unicode=":" horiz-adv-x="266" 
d="M133 336q-29 0 -49 20.5t-20 51.5q0 32 20 53t49 21t49 -21t20 -53q0 -31 -20 -51.5t-49 -20.5zM133 -12q-29 0 -49 20.5t-20 51.5q0 32 20 53t49 21t49 -21t20 -53q0 -31 -20 -51.5t-49 -20.5z" />
    <glyph glyph-name="semicolon" unicode=";" horiz-adv-x="266" 
d="M70 -178l-23 58q99 40 97 122q-4 -1 -9 -1q-28 0 -48.5 17.5t-20.5 48.5t21 49t50 18q38 0 59.5 -29.5t21.5 -81.5q0 -71 -39 -123t-109 -78zM133 336q-29 0 -49 20.5t-20 51.5q0 32 20 53t49 21t49 -21t20 -53q0 -31 -20 -51.5t-49 -20.5z" />
    <glyph glyph-name="less" unicode="&#x3c;" horiz-adv-x="507" 
d="M473 122l-439 171v78l439 171v-88l-199 -71l-134 -49v-4l134 -49l199 -71v-88z" />
    <glyph glyph-name="equal" unicode="=" horiz-adv-x="507" 
d="M34 402v76h439v-76h-439zM34 182v76h439v-76h-439z" />
    <glyph glyph-name="greater" unicode="&#x3e;" horiz-adv-x="507" 
d="M34 122v88l199 71l135 49v4l-135 49l-199 71v88l439 -171v-78z" />
    <glyph glyph-name="question" unicode="?" horiz-adv-x="438" 
d="M158 209q-8 56 11 97.5t47.5 74.5t51.5 63.5t23 66.5q0 37 -22.5 61.5t-63.5 24.5q-31 0 -58 -14.5t-49 -39.5l-59 54q33 37 78 61t100 24q77 0 126 -42.5t49 -121.5q0 -48 -23.5 -84t-53.5 -68.5t-51 -69.5t-15 -87h-91zM205 -12q-29 0 -49 20.5t-20 51.5q0 32 20 53
t49 21t49 -21t20 -53q0 -31 -20 -51.5t-49 -20.5z" />
    <glyph glyph-name="at" unicode="@" horiz-adv-x="865" 
d="M411 -161q-99 0 -181 41t-131 122.5t-49 201.5q0 136 59 237t156 157t213 56q155 0 246.5 -94.5t91.5 -245.5q0 -88 -32.5 -148t-81 -90t-96.5 -30q-41 0 -71 19t-36 57h-2q-23 -30 -56 -49t-65 -19q-54 0 -89.5 38t-35.5 106q0 56 25 110.5t69 90.5t102 36q53 0 79 -49
h2l12 41h66l-41 -207q-27 -107 52 -107q47 0 88 53t41 145q0 116 -68 196.5t-208 80.5q-88 0 -167 -47t-129 -133t-50 -201q0 -147 85.5 -224t209.5 -77q43 0 84.5 12t74.5 30l25 -59q-87 -50 -192 -50zM397 122q39 0 83 55l27 151q-23 37 -58 37q-36 0 -62.5 -25.5
t-40.5 -63t-14 -72.5q0 -43 18 -62.5t47 -19.5z" />
    <glyph glyph-name="A" unicode="A" horiz-adv-x="553" 
d="M212 354l-26 -86h178l-26 86q-16 53 -31.5 108t-29.5 110h-4q-14 -56 -29.5 -110.5t-31.5 -107.5zM443 0l-55 185h-227l-55 -185h-106l216 655h121l217 -655h-111z" />
    <glyph glyph-name="B" unicode="B" horiz-adv-x="594" 
d="M85 0v655h205q100 0 165 -36.5t65 -124.5q0 -47 -24 -87t-68 -55v-4q56 -12 92 -50.5t36 -105.5q0 -98 -70.5 -145t-179.5 -47h-221zM190 382h88q74 0 107 26t33 71q0 51 -35 72.5t-102 21.5h-91v-191zM190 82h104q76 0 117.5 28t41.5 87q0 106 -159 106h-104v-221z" />
    <glyph glyph-name="C" unicode="C" horiz-adv-x="574" 
d="M342 -12q-124 0 -208 88t-84 250q0 160 86 250.5t210 90.5q62 0 109 -25t77 -57l-56 -68q-26 26 -57 42t-70 16q-85 0 -138 -66t-53 -180q0 -116 51 -183t137 -67q44 0 79.5 19t64.5 51l56 -66q-40 -46 -90.5 -70.5t-113.5 -24.5z" />
    <glyph glyph-name="D" unicode="D" horiz-adv-x="622" 
d="M85 0v655h171q151 0 233.5 -82.5t82.5 -242.5t-82 -245t-228 -85h-177zM190 85h59q215 0 215 245q0 240 -215 240h-59v-485z" />
    <glyph glyph-name="E" unicode="E" horiz-adv-x="534" 
d="M85 0v655h389v-89h-284v-180h240v-89h-240v-209h294v-88h-399z" />
    <glyph glyph-name="F" unicode="F" horiz-adv-x="504" 
d="M85 0v655h390v-89h-285v-197h242v-89h-242v-280h-105z" />
    <glyph glyph-name="G" unicode="G" horiz-adv-x="624" 
d="M354 -12q-132 0 -218 88t-86 250q0 160 88 250.5t218 90.5q70 0 117.5 -25.5t77.5 -56.5l-56 -68q-25 25 -57 41.5t-78 16.5q-92 0 -147 -66t-55 -180q0 -116 53 -183t153 -67q66 0 102 33v151h-129v86h223v-284q-32 -33 -85.5 -55t-120.5 -22z" />
    <glyph glyph-name="H" unicode="H" horiz-adv-x="659" 
d="M85 0v655h105v-267h279v267h105v-655h-105v296h-279v-296h-105z" />
    <glyph glyph-name="I" unicode="I" horiz-adv-x="276" 
d="M85 0v655h105v-655h-105z" />
    <glyph glyph-name="J" unicode="J" horiz-adv-x="489" 
d="M217 -12q-129 0 -191 109l73 53q40 -71 106 -71q48 0 72.5 30t24.5 101v445h105v-454q0 -88 -45 -150.5t-145 -62.5z" />
    <glyph glyph-name="K" unicode="K" horiz-adv-x="591" 
d="M85 0v655h105v-308h3l247 308h117l-203 -254l236 -401h-116l-183 319l-101 -122v-197h-105z" />
    <glyph glyph-name="L" unicode="L" horiz-adv-x="496" 
d="M85 0v655h105v-567h277v-88h-382z" />
    <glyph glyph-name="M" unicode="M" horiz-adv-x="739" 
d="M85 0v655h121l119 -331q11 -32 22 -65l22 -66h4q11 33 21 66t21 65l117 331h121v-655h-96v321q0 44 4.5 101t8.5 102h-4l-53 -151l-113 -310h-64l-113 310l-52 151h-4q4 -45 8.5 -102t4.5 -101v-321h-95z" />
    <glyph glyph-name="N" unicode="N" horiz-adv-x="653" 
d="M85 0v655h108l215 -383l69 -139h4q-4 50 -8.5 107.5t-4.5 111.5v303h99v-655h-107l-216 384l-68 137h-4q4 -51 8.5 -106.5t4.5 -108.5v-306h-100z" />
    <glyph glyph-name="O" unicode="O" horiz-adv-x="671" 
d="M335 -12q-126 0 -205.5 92t-79.5 250t79.5 247.5t205.5 89.5q127 0 206.5 -89.5t79.5 -247.5t-79.5 -250t-206.5 -92zM335 79q81 0 129.5 68t48.5 183q0 114 -48.5 179.5t-129.5 65.5q-80 0 -128.5 -65.5t-48.5 -179.5q0 -115 48.5 -183t128.5 -68z" />
    <glyph glyph-name="P" unicode="P" horiz-adv-x="576" 
d="M85 0v655h200q109 0 180 -43.5t71 -155.5q0 -107 -70 -158t-177 -51h-99v-247h-105zM190 331h89q153 0 153 125q0 64 -39.5 89.5t-117.5 25.5h-85v-240z" />
    <glyph glyph-name="Q" unicode="Q" horiz-adv-x="671" 
d="M541 -171q-95 0 -160 46.5t-95 116.5q-106 18 -171 107t-65 231q0 158 79.5 247.5t205.5 89.5q127 0 206.5 -89.5t79.5 -247.5q0 -138 -61.5 -226t-162.5 -110q23 -40 64.5 -59.5t90.5 -19.5q22 0 39.5 3t31.5 7l19 -78q-16 -7 -42.5 -12.5t-58.5 -5.5zM335 74
q81 0 129.5 69t48.5 187q0 114 -48.5 179.5t-129.5 65.5q-80 0 -128.5 -65.5t-48.5 -179.5q0 -118 48.5 -187t128.5 -69z" />
    <glyph glyph-name="R" unicode="R" horiz-adv-x="584" 
d="M190 347h99q145 0 145 117q0 59 -37 83t-108 24h-99v-224zM190 0h-105v655h216q101 0 169 -42t68 -149q0 -75 -37.5 -121.5t-99.5 -65.5l160 -277h-118l-146 263h-107v-263z" />
    <glyph glyph-name="S" unicode="S" horiz-adv-x="541" 
d="M273 -12q-67 0 -127.5 25.5t-105.5 70.5l61 72q35 -34 81 -55.5t93 -21.5q59 0 90.5 25.5t31.5 66.5q0 44 -29.5 63.5t-74.5 39.5l-91 40q-47 20 -90 60t-43 112q0 77 61 129t155 52q57 0 109 -22.5t89 -60.5l-54 -67q-31 28 -66 43t-78 15q-49 0 -79.5 -22t-30.5 -61
q0 -41 33 -61.5t73 -36.5l90 -38q58 -25 95.5 -65t37.5 -111q0 -80 -61.5 -136t-169.5 -56z" />
    <glyph glyph-name="T" unicode="T" horiz-adv-x="543" 
d="M219 0v566h-192v89h489v-89h-192v-566h-105z" />
    <glyph glyph-name="U" unicode="U" horiz-adv-x="652" 
d="M326 -12q-109 0 -176.5 66.5t-67.5 226.5v374h105v-380q0 -111 39 -153.5t100 -42.5q62 0 102.5 42.5t40.5 153.5v380h100v-374q0 -160 -66.5 -226.5t-176.5 -66.5z" />
    <glyph glyph-name="V" unicode="V" horiz-adv-x="529" 
d="M203 0l-205 655h111l96 -338q17 -56 30 -107t30 -107h4q17 56 30 107t29 107l96 338h107l-204 -655h-124z" />
    <glyph glyph-name="W" unicode="W" horiz-adv-x="795" 
d="M153 0l-133 655h107l61 -340q9 -53 18 -105t17 -105h4q11 53 22 105.5t22 104.5l84 340h92l84 -340q11 -51 22.5 -104t22.5 -106h4q16 107 33 210l61 340h101l-129 -655h-129l-88 362q-8 38 -15.5 75t-13.5 75h-4q-8 -38 -15.5 -75t-15.5 -75l-86 -362h-126z" />
    <glyph glyph-name="X" unicode="X" horiz-adv-x="531" 
d="M14 0l187 338l-175 317h116l78 -153q12 -22 23.5 -46t26.5 -53h4q13 29 23.5 53t21.5 46l76 153h111l-176 -322l188 -333h-117l-85 162q-13 25 -26 50.5t-28 55.5h-4q-14 -30 -26 -55.5t-24 -50.5l-83 -162h-111z" />
    <glyph glyph-name="Y" unicode="Y" horiz-adv-x="492" 
d="M194 0v247l-197 408h112l76 -174q14 -36 28.5 -71t31.5 -72h4q16 37 31.5 72t30.5 71l75 174h109l-197 -408v-247h-104z" />
    <glyph glyph-name="Z" unicode="Z" horiz-adv-x="540" 
d="M42 0v63l326 503h-297v89h427v-63l-327 -504h329v-88h-458z" />
    <glyph glyph-name="bracketleft" unicode="[" horiz-adv-x="317" 
d="M92 -152v860h189v-57h-111v-746h111v-57h-189z" />
    <glyph glyph-name="backslash" unicode="\" horiz-adv-x="346" 
d="M264 -160l-245 870h71l245 -870h-71z" />
    <glyph glyph-name="bracketright" unicode="]" horiz-adv-x="317" 
d="M36 -152v57h111v746h-111v57h189v-860h-189z" />
    <glyph glyph-name="asciicircum" unicode="^" horiz-adv-x="507" 
d="M57 281l153 389h88l153 -389h-88l-59 159l-48 135h-4l-48 -135l-59 -159h-88z" />
    <glyph glyph-name="underscore" unicode="_" horiz-adv-x="500" 
d="M12 -131v65h476v-65h-476z" />
    <glyph glyph-name="grave" unicode="`" horiz-adv-x="547" 
d="M279 573l-165 154l72 69l145 -172z" />
    <glyph glyph-name="a" unicode="a" horiz-adv-x="512" 
d="M225 70q31 0 58.5 15t57.5 42v119q-108 -14 -150 -41t-42 -67q0 -36 22 -52t54 -16zM193 -12q-64 0 -104 39t-40 103q0 79 69.5 122.5t222.5 59.5q-1 42 -20.5 73.5t-72.5 31.5q-39 0 -74.5 -14.5t-66.5 -34.5l-39 69q38 25 89 44.5t109 19.5q92 0 135.5 -54.5
t43.5 -153.5v-293h-86l-8 56h-3q-34 -28 -72.5 -48t-82.5 -20z" />
    <glyph glyph-name="b" unicode="b" horiz-adv-x="560" 
d="M306 -12q-70 0 -135 63h-3l-10 -51h-82v708h104v-186l-3 -84q31 28 69 45.5t77 17.5q92 0 142.5 -67.5t50.5 -180.5q0 -126 -64 -195.5t-146 -69.5zM285 74q53 0 88.5 46t35.5 131q0 76 -26.5 120t-87.5 44q-56 0 -115 -59v-238q28 -24 55.5 -34t49.5 -10z" />
    <glyph glyph-name="c" unicode="c" horiz-adv-x="460" 
d="M276 -12q-99 0 -166 67t-67 189t72.5 189.5t169.5 67.5q47 0 82 -16t61 -39l-51 -68q-43 38 -87 38q-62 0 -101.5 -47.5t-39.5 -124.5t38.5 -124t99.5 -47q30 0 57 13t49 32l43 -69q-70 -61 -160 -61z" />
    <glyph glyph-name="d" unicode="d" horiz-adv-x="561" 
d="M271 74q57 0 110 59v238q-28 24 -54 34t-53 10q-50 0 -86 -45.5t-36 -124.5q0 -171 119 -171zM246 -12q-92 0 -146.5 67t-54.5 189q0 119 63.5 188t144.5 69q42 0 72 -14.5t60 -39.5l-4 80v181h104v-708h-86l-8 55h-3q-28 -28 -65 -47.5t-77 -19.5z" />
    <glyph glyph-name="e" unicode="e" horiz-adv-x="503" 
d="M281 -12q-100 0 -169 67.5t-69 188.5q0 80 32 137.5t83 88.5t108 31q98 0 149 -63.5t51 -167.5q0 -33 -5 -53h-317q7 -69 47.5 -108.5t103.5 -39.5q32 0 60.5 10t55.5 27l36 -66q-34 -22 -76 -37t-90 -15zM143 289h233q0 131 -108 131q-46 0 -82 -34t-43 -97z" />
    <glyph glyph-name="f" unicode="f" horiz-adv-x="308" 
d="M296 406h-98v-406h-104v406h-66v78l66 5v60q0 76 37 123.5t119 47.5q25 0 47.5 -5t38.5 -12l-20 -78q-27 12 -54 12q-64 0 -64 -87v-61h98v-83z" />
    <glyph glyph-name="g" unicode="g" horiz-adv-x="514" 
d="M248 222q38 0 65 27.5t27 76.5t-26.5 76t-65.5 27q-38 0 -64.5 -27t-26.5 -76t26.5 -76.5t64.5 -27.5zM245 -219q-89 0 -146 32t-57 96q0 63 70 107v4q-19 12 -31.5 32t-12.5 49t17 53t37 38v4q-25 19 -44.5 52.5t-19.5 77.5q0 83 57 129t133 46q38 0 72 -12h173v-77h-93
q14 -15 23 -38.5t9 -50.5q0 -80 -53.5 -124t-130.5 -44q-34 0 -68 14q-12 -10 -19.5 -21.5t-7.5 -28.5q0 -22 17.5 -35t64.5 -13h90q176 0 176 -119q0 -71 -69 -121t-187 -50zM260 -151q63 0 102 26t39 60q0 31 -23.5 42t-67.5 11h-73q-38 0 -65 7q-42 -29 -42 -70
q0 -35 34.5 -55.5t95.5 -20.5z" />
    <glyph glyph-name="h" unicode="h" horiz-adv-x="553" 
d="M76 0v708h104v-186l-4 -97q32 31 70.5 53.5t88.5 22.5q78 0 114 -50t36 -143v-308h-104v295q0 63 -19.5 90t-62.5 27q-34 0 -60.5 -17t-58.5 -49v-346h-104z" />
    <glyph glyph-name="i" unicode="i" horiz-adv-x="256" 
d="M129 580q-29 0 -48 17.5t-19 43.5q0 28 19 44.5t48 16.5q28 0 47 -16.5t19 -44.5q0 -26 -19 -43.5t-47 -17.5zM76 0v489h104v-489h-104z" />
    <glyph glyph-name="j" unicode="j" horiz-adv-x="257" 
d="M130 580q-28 0 -47.5 17.5t-19.5 43.5q0 28 19.5 44.5t47.5 16.5t47 -16.5t19 -44.5q0 -26 -19 -43.5t-47 -17.5zM33 -210q-25 0 -44 4t-33 9l20 78q10 -3 21 -5.5t23 -2.5q34 0 45.5 23.5t11.5 66.5v526h104v-524q0 -77 -32.5 -126t-115.5 -49z" />
    <glyph glyph-name="k" unicode="k" horiz-adv-x="512" 
d="M76 0v708h102v-455h3l191 236h114l-167 -198l185 -291h-113l-131 220l-82 -94v-126h-102z" />
    <glyph glyph-name="l" unicode="l" horiz-adv-x="265" 
d="M179 -12q-55 0 -79 34t-24 94v592h104v-598q0 -37 24 -37q9 0 18 2l14 -78q-10 -4 -24 -6.5t-33 -2.5z" />
    <glyph glyph-name="m" unicode="m" horiz-adv-x="838" 
d="M76 0v489h86l8 -68h3q31 34 68 57t83 23q54 0 86 -23.5t49 -65.5q36 38 74.5 63.5t84.5 25.5q76 0 113 -50t37 -143v-308h-104v295q0 63 -20 90t-61 27q-49 0 -109 -66v-346h-104v295q0 63 -19.5 90t-61.5 27q-49 0 -109 -66v-346h-104z" />
    <glyph glyph-name="n" unicode="n" horiz-adv-x="555" 
d="M76 0v489h86l8 -67h3q34 33 73 56t89 23q78 0 114 -50t36 -143v-308h-104v295q0 63 -19.5 90t-62.5 27q-34 0 -60.5 -17t-58.5 -49v-346h-104z" />
    <glyph glyph-name="o" unicode="o" horiz-adv-x="547" 
d="M273 -12q-91 0 -160.5 67t-69.5 189t69.5 189.5t160.5 67.5t161 -67.5t70 -189.5t-70 -189t-161 -67zM273 73q57 0 90.5 47t33.5 124t-33.5 124.5t-90.5 47.5t-90.5 -47.5t-33.5 -124.5t33.5 -124t90.5 -47z" />
    <glyph glyph-name="p" unicode="p" horiz-adv-x="561" 
d="M285 74q53 0 88.5 46t35.5 131q0 76 -26.5 120t-87.5 44q-55 0 -115 -59v-238q28 -24 55.5 -34t49.5 -10zM76 -198v687h86l8 -53h3q31 27 70 46t80 19q93 0 143 -68t50 -181q0 -125 -64 -194.5t-146 -69.5q-63 0 -129 55l3 -83v-158h-104z" />
    <glyph glyph-name="q" unicode="q" horiz-adv-x="561" 
d="M381 -198v165l4 84q-28 -26 -64 -44.5t-75 -18.5q-92 0 -146.5 67t-54.5 189q0 119 63.5 188t144.5 69q42 0 73.5 -14.5t63.5 -44.5h3l9 47h83v-687h-104zM271 74q57 0 110 59v238q-28 24 -54 34t-53 10q-50 0 -86 -45.5t-36 -124.5q0 -171 119 -171z" />
    <glyph glyph-name="r" unicode="r" horiz-adv-x="364" 
d="M76 0v489h86l8 -87h3q53 99 139 99q33 0 54 -10l-18 -90q-13 4 -23.5 6t-26.5 2q-29 0 -62 -23.5t-56 -81.5v-304h-104z" />
    <glyph glyph-name="s" unicode="s" horiz-adv-x="427" 
d="M210 -12q-51 0 -100 19.5t-84 48.5l49 67q32 -25 65 -40.5t73 -15.5q43 0 64 18.5t21 46.5q0 33 -34 50.5t-74 32.5q-50 19 -95 50t-45 93t46.5 102.5t128.5 40.5q49 0 89.5 -17t69.5 -40l-48 -64q-26 19 -52.5 30.5t-56.5 11.5q-41 0 -60 -17t-19 -42q0 -31 32 -46.5
t73 -30.5q51 -20 97 -49.5t46 -98.5q0 -62 -47.5 -106t-138.5 -44z" />
    <glyph glyph-name="t" unicode="t" horiz-adv-x="353" 
d="M242 -12q-82 0 -116 48t-34 124v246h-70v78l76 5l12 135h86v-135h128v-83h-128v-246q0 -89 72 -89q13 0 27.5 3.5t24.5 8.5l19 -77q-20 -7 -45 -12.5t-52 -5.5z" />
    <glyph glyph-name="u" unicode="u" horiz-adv-x="552" 
d="M221 -12q-79 0 -115 50t-36 143v308h104v-294q0 -63 19.5 -90.5t62.5 -27.5q34 0 60 17.5t56 55.5v339h104v-489h-85l-9 74h-3q-32 -39 -70 -62.5t-88 -23.5z" />
    <glyph glyph-name="v" unicode="v" horiz-adv-x="485" 
d="M185 0l-173 489h106l83 -262q10 -36 20.5 -73t21.5 -73h4q11 36 22 73t21 73l83 262h100l-168 -489h-120z" />
    <glyph glyph-name="w" unicode="w" horiz-adv-x="738" 
d="M156 0l-132 489h105l64 -263q7 -35 13 -70t13 -70h4q7 35 15 70.5t17 69.5l68 263h96l69 -263q9 -35 17 -70l16 -70h4l14 70l14 70l63 263h98l-127 -489h-124l-62 240q-8 34 -15.5 69t-15.5 73h-4q-8 -38 -15 -73t-15 -70l-60 -239h-120z" />
    <glyph glyph-name="x" unicode="x" horiz-adv-x="469" 
d="M14 0l157 255l-146 234h112l58 -97q22 -43 46 -83h4q10 20 20 41.5t20 41.5l51 97h108l-146 -245l157 -244h-112l-64 103q-12 22 -24.5 44t-26.5 43h-4q-11 -21 -22.5 -43t-22.5 -44l-57 -103h-108z" />
    <glyph glyph-name="y" unicode="y" horiz-adv-x="485" 
d="M100 -204q-33 0 -61 10l19 81q8 -2 17.5 -4.5t18.5 -2.5q40 0 64 25.5t38 65.5l10 33l-194 485h106l90 -250q10 -32 21.5 -67.5t22.5 -70.5h4q10 34 19.5 69.5t19.5 68.5l78 250h100l-179 -517q-29 -80 -72.5 -128t-121.5 -48z" />
    <glyph glyph-name="z" unicode="z" horiz-adv-x="437" 
d="M33 0v56l240 350h-213v83h344v-55l-240 -351h248v-83h-379z" />
    <glyph glyph-name="braceleft" unicode="{" horiz-adv-x="317" 
d="M230 -152q-62 0 -91 28.5t-29 107.5q0 54 4.5 95t4.5 90q0 29 -18 52.5t-68 24.5v64q50 1 68 24.5t18 51.5q0 50 -4.5 91t-4.5 95q0 79 29 107.5t91 28.5h51v-57h-24q-37 0 -50 -19t-13 -65q0 -44 2.5 -85.5t2.5 -90.5q0 -51 -15.5 -76.5t-49.5 -34.5v-4q65 -17 65 -111
q0 -49 -2.5 -90.5t-2.5 -85.5q0 -46 13 -65t50 -19h24v-57h-51z" />
    <glyph glyph-name="bar" unicode="|" horiz-adv-x="250" 
d="M90 -250v1000h70v-1000h-70z" />
    <glyph glyph-name="braceright" unicode="}" horiz-adv-x="317" 
d="M36 -152v57h23q37 0 50.5 19t13.5 65q0 44 -2.5 85.5t-2.5 90.5q0 94 64 111v4q-34 9 -49 34.5t-15 76.5q0 49 2.5 90.5t2.5 85.5q0 46 -13.5 65t-50.5 19h-23v57h50q62 0 91.5 -28.5t29.5 -107.5q0 -54 -4.5 -95t-4.5 -91q0 -28 18 -51.5t68 -24.5v-64q-50 -1 -68 -24.5
t-18 -52.5q0 -49 4.5 -90t4.5 -95q0 -79 -29.5 -107.5t-91.5 -28.5h-50z" />
    <glyph glyph-name="asciitilde" unicode="~" horiz-adv-x="507" 
d="M341 251q-41 0 -69.5 20.5t-53.5 41t-53 20.5q-43 0 -75 -60l-56 41q30 51 64.5 73t68.5 22q40 0 69 -20.5t54 -41t53 -20.5q42 0 74 60l57 -42q-31 -50 -65 -72t-68 -22z" />
    <glyph glyph-name="exclamdown" unicode="&#xa1;" horiz-adv-x="306" 
d="M153 356q-29 0 -49 20.5t-20 52.5q0 31 20 51.5t49 20.5t49 -20.5t20 -51.5q0 -32 -20 -52.5t-49 -20.5zM101 -181l3 107l14 354h70l14 -354l4 -107h-105z" />
    <glyph glyph-name="cent" unicode="&#xa2;" horiz-adv-x="507" 
d="M465 126q-60 -54 -137 -62v-99h-61v100q-92 11 -149 74t-57 170q0 104 59 166.5t147 76.5v102h61v-100q42 -2 74 -18.5t55 -38.5l-50 -65q-36 34 -79 37v-320q28 2 51.5 14.5t41.5 28.5zM163 309q0 -59 27 -100t77 -55v308q-104 -30 -104 -153z" />
    <glyph glyph-name="sterling" unicode="&#xa3;" horiz-adv-x="507" 
d="M468 88v-88h-416v64q49 25 77.5 70.5t28.5 100.5q0 21 -5 45h-100v64l67 4h14q-8 28 -15.5 55.5t-7.5 54.5q0 88 54.5 139.5t140.5 51.5q54 0 93 -21.5t68 -55.5l-58 -58q-19 22 -41.5 36t-52.5 14q-49 0 -76 -30t-27 -80q0 -27 6 -53t13 -53h156v-68h-141q4 -24 4 -46
q0 -47 -14 -79.5t-42 -62.5v-4h274z" />
    <glyph glyph-name="currency" unicode="&#xa4;" horiz-adv-x="507" 
d="M78 96l-54 55l63 64q-35 49 -35 114q0 66 35 115l-63 64l54 55l68 -70q49 33 108 33q58 0 107 -33l68 70l54 -55l-63 -64q16 -23 26 -52t10 -63t-10 -62.5t-26 -51.5l63 -64l-54 -55l-68 70q-47 -33 -107 -33t-108 33zM254 208q44 0 75.5 33t31.5 88t-31.5 88.5
t-75.5 33.5q-45 0 -76.5 -33.5t-31.5 -88.5t31.5 -88t76.5 -33z" />
    <glyph glyph-name="yen" unicode="&#xa5;" horiz-adv-x="507" 
d="M201 0v154h-158v56h158v61h-158v55h134l-157 311h107l69 -158l28 -66t29 -68h4q15 35 29 68l28 66l69 158h105l-158 -311h135v-55h-160v-61h160v-56h-160v-154h-104z" />
    <glyph glyph-name="brokenbar" unicode="&#xa6;" horiz-adv-x="250" 
d="M90 298v452h70v-452h-70zM90 -250v461h70v-461h-70z" />
    <glyph glyph-name="section" unicode="&#xa7;" horiz-adv-x="507" 
d="M131 344q0 -39 31 -62t76 -41t85 -42q51 26 51 77q0 40 -31 63.5t-75 41.5t-85 41q-52 -30 -52 -78zM236 -71q-53 0 -101 19.5t-79 56.5l62 55q25 -25 53.5 -38.5t64.5 -13.5q37 0 57 17t20 43q0 31 -27.5 50t-68 35.5t-80.5 38t-67.5 55.5t-27.5 90q0 41 23 74.5
t60 54.5q-30 34 -30 82q0 57 41 97.5t119 40.5q50 0 92 -18.5t71 -41.5l-49 -66q-24 20 -51 33.5t-58 13.5q-37 0 -54 -16t-17 -39q0 -29 28 -47.5t69 -35.5t81.5 -39t68.5 -56.5t28 -89.5q0 -46 -22.5 -77t-61.5 -54q28 -34 28 -80q0 -61 -46.5 -102.5t-125.5 -41.5z" />
    <glyph glyph-name="dieresis" unicode="&#xa8;" horiz-adv-x="547" 
d="M374 581q-25 0 -41 16.5t-16 40.5t16 40.5t41 16.5t41 -16.5t16 -40.5t-16 -40.5t-41 -16.5zM172 581q-25 0 -41 16.5t-16 40.5t16 40.5t41 16.5t41 -16.5t16 -40.5t-16 -40.5t-41 -16.5z" />
    <glyph glyph-name="copyright" unicode="&#xa9;" horiz-adv-x="746" 
d="M373 -10q-87 0 -161 41t-119 116t-45 177t45 176t119 114t161 40t161 -40t119 -114t45 -176t-45 -177t-119 -116t-161 -41zM373 38q75 0 136.5 36t98 100t36.5 150q0 128 -79 205t-192 77t-192 -77t-79 -205q0 -86 36.5 -150t98 -100t136.5 -36zM382 126
q-78 0 -131.5 52.5t-53.5 144.5q0 88 56.5 139t130.5 51q44 0 74 -16.5t54 -40.5l-42 -47q-19 19 -37.5 29t-43.5 10q-53 0 -83 -35.5t-30 -89.5q0 -61 30 -96.5t79 -35.5q30 0 52.5 12t42.5 29l36 -51q-28 -24 -59.5 -39.5t-74.5 -15.5z" />
    <glyph glyph-name="ordfeminine" unicode="&#xaa;" horiz-adv-x="350" 
d="M158 439q35 0 71 36v75q-67 -8 -94 -25.5t-27 -41.5q0 -44 50 -44zM134 380q-45 0 -72 27t-27 69q0 52 46 80.5t148 38.5q-1 29 -13 46.5t-44 17.5q-25 0 -50.5 -10t-47.5 -23l-27 51q27 17 62.5 30t74.5 13q121 0 121 -138v-194h-61l-8 36h-4q-20 -18 -44 -31t-54 -13z
" />
    <glyph glyph-name="guillemotleft" unicode="&#xab;" horiz-adv-x="446" 
d="M182 63l-136 151v76l136 151l42 -34l-116 -155l116 -156zM350 63l-136 151v76l136 151l42 -34l-116 -155l116 -156z" />
    <glyph glyph-name="logicalnot" unicode="&#xac;" horiz-adv-x="507" 
d="M394 101v191h-360v76h439v-267h-79z" />
    <glyph glyph-name="uni00AD" unicode="&#xad;" horiz-adv-x="318" 
d="M42 213v77h235v-77h-235z" />
    <glyph glyph-name="registered" unicode="&#xae;" horiz-adv-x="436" 
d="M218 317q-79 0 -135.5 55t-56.5 143t56.5 143.5t135.5 55.5t135 -55.5t56 -143.5t-56 -143t-135 -55zM218 357q63 0 105 43.5t42 114.5t-42 115t-105 44t-105 -44t-42 -115t42 -114.5t105 -43.5zM189 518h24q39 0 39 32q0 31 -37 31h-26v-63zM142 417v201h81
q32 0 55.5 -15t23.5 -50q0 -41 -37 -55l45 -81h-51l-33 67h-37v-67h-47z" />
    <glyph glyph-name="macron" unicode="&#xaf;" horiz-adv-x="547" 
d="M135 598v69h276v-69h-276z" />
    <glyph glyph-name="degree" unicode="&#xb0;" horiz-adv-x="342" 
d="M172 419q-54 0 -93 36.5t-39 95.5q0 61 39 97.5t93 36.5q53 0 92.5 -36.5t39.5 -97.5q0 -59 -39.5 -95.5t-92.5 -36.5zM172 473q32 0 52 22t20 56q0 35 -20 57.5t-52 22.5t-52.5 -22.5t-20.5 -57.5q0 -34 20.5 -56t52.5 -22z" />
    <glyph glyph-name="plusminus" unicode="&#xb1;" horiz-adv-x="507" 
d="M214 137v164h-180v75h180v183h80v-183h179v-75h-179v-164h-80zM34 0v76h439v-76h-439z" />
    <glyph glyph-name="two.sups" unicode="&#xb2;" horiz-adv-x="370" 
d="M50 388v44q86 75 133 125.5t47 91.5q0 75 -69 75q-23 0 -43 -15t-37 -38l-46 42q25 35 60.5 56t76.5 21q61 0 98 -33t37 -95q0 -53 -38 -101t-93 -106h149v-67h-275z" />
    <glyph glyph-name="three.sups" unicode="&#xb3;" horiz-adv-x="370" 
d="M182 376q-49 0 -87.5 21t-61.5 56l50 39q38 -55 93 -55q29 0 50 16.5t21 45.5q0 64 -112 64v47q46 0 71.5 18t25.5 46q0 25 -17 40t-46 15q-21 0 -40 -12.5t-34 -32.5l-46 41q27 31 58.5 48t73.5 17q53 0 91 -28t38 -78q0 -34 -18 -57t-47 -37q32 -10 56 -34t24 -62
q0 -54 -42.5 -86t-100.5 -32z" />
    <glyph glyph-name="acute" unicode="&#xb4;" horiz-adv-x="547" 
d="M267 573l-52 51l145 172l72 -69z" />
    <glyph glyph-name="uni00B5" unicode="&#xb5;" horiz-adv-x="572" 
d="M76 -178v667h104v-294q0 -118 80 -118q30 0 57.5 16.5t56.5 68.5v327h105q-2 -95 -4.5 -196t-2.5 -180q0 -40 38 -40q14 0 30 6l13 -78q-12 -5 -28 -9t-40 -4q-86 0 -101 90h-3q-47 -87 -124 -87q-26 0 -47 7.5t-37 31.5q1 -66 2 -109t6 -99h-105z" />
    <glyph glyph-name="paragraph" unicode="&#xb6;" horiz-adv-x="585" 
d="M294 217q-108 0 -181 54t-73 167q0 121 71 169t175 48h44v-438h-36zM385 -80v735h104v-735h-104z" />
    <glyph glyph-name="periodcentered" unicode="&#xb7;" horiz-adv-x="266" 
d="M133 249q-29 0 -49 20.5t-20 51.5q0 32 20 53t49 21t49 -21t20 -53q0 -31 -20 -51.5t-49 -20.5z" />
    <glyph glyph-name="cedilla" unicode="&#xb8;" horiz-adv-x="547" 
d="M186 -231l-9 47q61 4 84 15t23 33q0 18 -17 29t-60 17l45 93h65l-29 -66q35 -8 54.5 -24.5t19.5 -47.5q0 -46 -46 -69t-130 -27z" />
    <glyph glyph-name="one.sups" unicode="&#xb9;" horiz-adv-x="370" 
d="M170 388v299h-86v50q35 6 57 15.5t44 25.5h64v-390h-79z" />
    <glyph glyph-name="ordmasculine" unicode="&#xba;" horiz-adv-x="367" 
d="M183 380q-62 0 -108.5 45t-46.5 125q0 81 46.5 125.5t108.5 44.5t109 -44.5t47 -125.5q0 -80 -47 -125t-109 -45zM183 442q37 0 57.5 29.5t20.5 78.5q0 50 -20.5 79.5t-57.5 29.5t-57 -29.5t-20 -79.5q0 -49 20 -78.5t57 -29.5z" />
    <glyph glyph-name="guillemotright" unicode="&#xbb;" horiz-adv-x="446" 
d="M96 63l-42 33l116 156l-116 155l42 34l136 -151v-76zM264 63l-42 33l116 156l-116 155l42 34l136 -151v-76z" />
    <glyph glyph-name="onequarter" unicode="&#xbc;" horiz-adv-x="790" 
d="M144 265v299h-86v50q35 6 57 15.5t44 25.5h64v-390h-79zM182 -12l358 679h66l-359 -679h-65zM537 152h101v61l5 111h-4l-47 -79zM766 98h-58v-98h-70v98h-178v40l156 252h92v-238h58v-54z" />
    <glyph glyph-name="onehalf" unicode="&#xbd;" horiz-adv-x="821" 
d="M144 265v299h-86v50q35 6 57 15.5t44 25.5h64v-390h-79zM164 -12l358 679h66l-359 -679h-65zM500 0v44q86 75 133 125.5t47 91.5q0 75 -69 75q-23 0 -43 -15t-37 -38l-46 42q25 35 60.5 56t76.5 21q61 0 98 -33t37 -95q0 -53 -38 -101t-93 -106h149v-67h-275z" />
    <glyph glyph-name="threequarters" unicode="&#xbe;" horiz-adv-x="803" 
d="M180 253q-49 0 -87.5 21t-61.5 56l50 39q38 -55 93 -55q29 0 50 16.5t21 45.5q0 64 -112 64v47q46 0 71.5 18t25.5 46q0 25 -17 40t-46 15q-21 0 -40 -12.5t-34 -32.5l-46 41q27 31 58.5 48t73.5 17q53 0 91 -28t38 -78q0 -34 -18 -57t-47 -37q32 -10 56 -34t24 -62
q0 -54 -42.5 -86t-100.5 -32zM215 -12l358 679h66l-359 -679h-65zM550 152h101v61l5 111h-4l-47 -79zM779 98h-58v-98h-70v98h-178v40l156 252h92v-238h58v-54z" />
    <glyph glyph-name="questiondown" unicode="&#xbf;" horiz-adv-x="438" 
d="M233 356q-29 0 -49 20.5t-20 52.5q0 31 20 51.5t49 20.5t49 -20.5t20 -51.5q0 -32 -20 -52.5t-49 -20.5zM221 -193q-78 0 -126.5 42.5t-48.5 121.5q0 48 23.5 84.5t53 68.5t50.5 69t15 87h92q8 -56 -11 -97t-48 -74t-52 -64t-23 -67q0 -37 22.5 -61t64.5 -24
q31 0 58 14.5t49 38.5l59 -53q-34 -37 -78.5 -61.5t-99.5 -24.5z" />
    <glyph glyph-name="Agrave" unicode="&#xc0;" horiz-adv-x="553" 
d="M212 354l-26 -86h178l-26 86q-16 53 -31.5 108t-29.5 110h-4q-14 -56 -29.5 -110.5t-31.5 -107.5zM443 0l-55 185h-227l-55 -185h-106l216 655h121l217 -655h-111zM290 691l-163 116l58 69l151 -132z" />
    <glyph glyph-name="Aacute" unicode="&#xc1;" horiz-adv-x="553" 
d="M212 354l-26 -86h178l-26 86q-16 53 -31.5 108t-29.5 110h-4q-14 -56 -29.5 -110.5t-31.5 -107.5zM443 0l-55 185h-227l-55 -185h-106l216 655h121l217 -655h-111zM260 691l-46 53l151 132l58 -69z" />
    <glyph glyph-name="Acircumflex" unicode="&#xc2;" horiz-adv-x="553" 
d="M212 354l-26 -86h178l-26 86q-16 53 -31.5 108t-29.5 110h-4q-14 -56 -29.5 -110.5t-31.5 -107.5zM443 0l-55 185h-227l-55 -185h-106l216 655h121l217 -655h-111zM120 725l99 112h112l99 -112l-45 -31l-108 90h-4l-108 -90z" />
    <glyph glyph-name="Atilde" unicode="&#xc3;" horiz-adv-x="553" 
d="M212 354l-26 -86h178l-26 86q-16 53 -31.5 108t-29.5 110h-4q-14 -56 -29.5 -110.5t-31.5 -107.5zM443 0l-55 185h-227l-55 -185h-106l216 655h121l217 -655h-111zM349 703q-37 0 -61 16.5t-43.5 33.5t-40.5 17q-38 0 -44 -61l-69 6q3 63 33 96t77 33q37 0 61 -16.5
t43.5 -33t40.5 -16.5q37 0 44 60l69 -5q-3 -63 -33 -96.5t-77 -33.5z" />
    <glyph glyph-name="Adieresis" unicode="&#xc4;" horiz-adv-x="553" 
d="M212 354l-26 -86h178l-26 86q-16 53 -31.5 108t-29.5 110h-4q-14 -56 -29.5 -110.5t-31.5 -107.5zM443 0l-55 185h-227l-55 -185h-106l216 655h121l217 -655h-111zM380 710q-24 0 -40 16t-16 40q0 25 16 40.5t40 15.5q25 0 40.5 -15.5t15.5 -40.5q0 -24 -15.5 -40
t-40.5 -16zM170 710q-25 0 -40.5 16t-15.5 40q0 25 15.5 40.5t40.5 15.5q24 0 40 -15.5t16 -40.5q0 -24 -16 -40t-40 -16z" />
    <glyph glyph-name="Aring" unicode="&#xc5;" horiz-adv-x="553" 
d="M275 698q-45 0 -74 25.5t-29 67.5q0 43 29 68.5t74 25.5q44 0 73.5 -25.5t29.5 -68.5q0 -42 -29.5 -67.5t-73.5 -25.5zM275 741q19 0 33.5 13t14.5 37q0 23 -14.5 37t-33.5 14q-20 0 -34.5 -14t-14.5 -37q0 -24 14.5 -37t34.5 -13zM212 354l-26 -86h178l-26 86
q-16 53 -31.5 108t-29.5 110h-4q-14 -56 -29.5 -110.5t-31.5 -107.5zM443 0l-55 185h-227l-55 -185h-106l216 655h121l217 -655h-111z" />
    <glyph glyph-name="AE" unicode="&#xc6;" horiz-adv-x="830" 
d="M295 369l-54 -109h155v314h-4q-24 -52 -48.5 -103.5t-48.5 -101.5zM396 0v177h-197l-88 -177h-110l333 655h436v-89h-269v-180h225v-89h-225v-209h279v-88h-384z" />
    <glyph glyph-name="Ccedilla" unicode="&#xc7;" horiz-adv-x="574" 
d="M429 -135q0 -46 -46 -69t-130 -27l-9 47q62 4 84.5 15t22.5 33q0 18 -16.5 29t-60.5 17l38 79q-112 11 -187 98t-75 239q0 160 86 250.5t210 90.5q62 0 109 -25t77 -57l-56 -68q-26 26 -57 42t-70 16q-85 0 -138 -66t-53 -180q0 -116 51 -183t137 -67q44 0 79.5 19
t64.5 51l56 -66q-70 -80 -168 -93l-23 -53q35 -8 54.5 -24.5t19.5 -47.5z" />
    <glyph glyph-name="Egrave" unicode="&#xc8;" horiz-adv-x="534" 
d="M85 0v655h389v-89h-284v-180h240v-89h-240v-209h294v-88h-399zM301 691l-163 116l58 69l151 -132z" />
    <glyph glyph-name="Eacute" unicode="&#xc9;" horiz-adv-x="534" 
d="M85 0v655h389v-89h-284v-180h240v-89h-240v-209h294v-88h-399zM271 691l-46 53l151 132l58 -69z" />
    <glyph glyph-name="Ecircumflex" unicode="&#xca;" horiz-adv-x="534" 
d="M85 0v655h389v-89h-284v-180h240v-89h-240v-209h294v-88h-399zM131 725l99 112h112l99 -112l-45 -31l-108 90h-4l-108 -90z" />
    <glyph glyph-name="Edieresis" unicode="&#xcb;" horiz-adv-x="534" 
d="M85 0v655h389v-89h-284v-180h240v-89h-240v-209h294v-88h-399zM391 710q-24 0 -40 16t-16 40q0 25 16 40.5t40 15.5q25 0 40.5 -15.5t15.5 -40.5q0 -24 -15.5 -40t-40.5 -16zM181 710q-25 0 -40.5 16t-15.5 40q0 25 15.5 40.5t40.5 15.5q24 0 40 -15.5t16 -40.5
q0 -24 -16 -40t-40 -16z" />
    <glyph glyph-name="Igrave" unicode="&#xcc;" horiz-adv-x="276" 
d="M85 0v655h105v-655h-105zM153 691l-163 116l58 69l151 -132z" />
    <glyph glyph-name="Iacute" unicode="&#xcd;" horiz-adv-x="276" 
d="M85 0v655h105v-655h-105zM123 691l-46 53l151 132l58 -69z" />
    <glyph glyph-name="Icircumflex" unicode="&#xce;" horiz-adv-x="276" 
d="M85 0v655h105v-655h-105zM-17 725l99 112h112l99 -112l-45 -31l-108 90h-4l-108 -90z" />
    <glyph glyph-name="Idieresis" unicode="&#xcf;" horiz-adv-x="276" 
d="M85 0v655h105v-655h-105zM243 710q-24 0 -40 16t-16 40q0 25 16 40.5t40 15.5q25 0 40.5 -15.5t15.5 -40.5q0 -24 -15.5 -40t-40.5 -16zM33 710q-25 0 -40.5 16t-15.5 40q0 25 15.5 40.5t40.5 15.5q24 0 40 -15.5t16 -40.5q0 -24 -16 -40t-40 -16z" />
    <glyph glyph-name="Eth" unicode="&#xd0;" horiz-adv-x="645" 
d="M285 0h-177v314h-77v51l77 4v286h171q151 0 233.5 -82.5t82.5 -242.5t-82 -245t-228 -85zM213 85h59q215 0 215 245q0 240 -215 240h-59v-201h141v-55h-141v-229z" />
    <glyph glyph-name="Ntilde" unicode="&#xd1;" horiz-adv-x="653" 
d="M85 0v655h108l215 -383l69 -139h4q-4 50 -8.5 107.5t-4.5 111.5v303h99v-655h-107l-216 384l-68 137h-4q4 -51 8.5 -106.5t4.5 -108.5v-306h-100zM403 703q-37 0 -61 16.5t-43 33.5t-41 17q-38 0 -44 -61l-69 6q3 63 33 96t77 33q37 0 61 -16.5t43 -33t41 -16.5
q36 0 44 60l69 -5q-3 -63 -33 -96.5t-77 -33.5z" />
    <glyph glyph-name="Ograve" unicode="&#xd2;" horiz-adv-x="671" 
d="M335 -12q-126 0 -205.5 92t-79.5 250t79.5 247.5t205.5 89.5q127 0 206.5 -89.5t79.5 -247.5t-79.5 -250t-206.5 -92zM335 79q81 0 129.5 68t48.5 183q0 114 -48.5 179.5t-129.5 65.5q-80 0 -128.5 -65.5t-48.5 -179.5q0 -115 48.5 -183t128.5 -68zM350 691l-163 116
l58 69l151 -132z" />
    <glyph glyph-name="Oacute" unicode="&#xd3;" horiz-adv-x="671" 
d="M335 -12q-126 0 -205.5 92t-79.5 250t79.5 247.5t205.5 89.5q127 0 206.5 -89.5t79.5 -247.5t-79.5 -250t-206.5 -92zM335 79q81 0 129.5 68t48.5 183q0 114 -48.5 179.5t-129.5 65.5q-80 0 -128.5 -65.5t-48.5 -179.5q0 -115 48.5 -183t128.5 -68zM320 691l-46 53
l151 132l58 -69z" />
    <glyph glyph-name="Ocircumflex" unicode="&#xd4;" horiz-adv-x="671" 
d="M335 -12q-126 0 -205.5 92t-79.5 250t79.5 247.5t205.5 89.5q127 0 206.5 -89.5t79.5 -247.5t-79.5 -250t-206.5 -92zM335 79q81 0 129.5 68t48.5 183q0 114 -48.5 179.5t-129.5 65.5q-80 0 -128.5 -65.5t-48.5 -179.5q0 -115 48.5 -183t128.5 -68zM180 725l99 112h112
l99 -112l-45 -31l-108 90h-4l-108 -90z" />
    <glyph glyph-name="Otilde" unicode="&#xd5;" horiz-adv-x="671" 
d="M335 -12q-126 0 -205.5 92t-79.5 250t79.5 247.5t205.5 89.5q127 0 206.5 -89.5t79.5 -247.5t-79.5 -250t-206.5 -92zM335 79q81 0 129.5 68t48.5 183q0 114 -48.5 179.5t-129.5 65.5q-80 0 -128.5 -65.5t-48.5 -179.5q0 -115 48.5 -183t128.5 -68zM409 703
q-37 0 -61 16.5t-43.5 33.5t-40.5 17q-38 0 -44 -61l-69 6q3 63 33 96t77 33q37 0 61 -16.5t43.5 -33t40.5 -16.5q37 0 44 60l69 -5q-3 -63 -33 -96.5t-77 -33.5z" />
    <glyph glyph-name="Odieresis" unicode="&#xd6;" horiz-adv-x="671" 
d="M335 -12q-126 0 -205.5 92t-79.5 250t79.5 247.5t205.5 89.5q127 0 206.5 -89.5t79.5 -247.5t-79.5 -250t-206.5 -92zM335 79q81 0 129.5 68t48.5 183q0 114 -48.5 179.5t-129.5 65.5q-80 0 -128.5 -65.5t-48.5 -179.5q0 -115 48.5 -183t128.5 -68zM440 710q-24 0 -40 16
t-16 40q0 25 16 40.5t40 15.5q25 0 40.5 -15.5t15.5 -40.5q0 -24 -15.5 -40t-40.5 -16zM230 710q-25 0 -40.5 16t-15.5 40q0 25 15.5 40.5t40.5 15.5q24 0 40 -15.5t16 -40.5q0 -24 -16 -40t-40 -16z" />
    <glyph glyph-name="multiply" unicode="&#xd7;" horiz-adv-x="507" 
d="M103 121l-54 55l151 153l-151 154l54 55l151 -155l150 155l54 -55l-151 -154l151 -153l-54 -55l-150 155z" />
    <glyph glyph-name="Oslash" unicode="&#xd8;" horiz-adv-x="671" 
d="M103 -34l-56 44l529 678l57 -43zM337 -12q-126 0 -205.5 92t-79.5 250t79.5 247.5t205.5 89.5q127 0 206.5 -89.5t79.5 -247.5t-79.5 -250t-206.5 -92zM337 79q81 0 129.5 68t48.5 183q0 114 -48.5 179.5t-129.5 65.5q-80 0 -128.5 -65.5t-48.5 -179.5q0 -115 48.5 -183
t128.5 -68z" />
    <glyph glyph-name="Ugrave" unicode="&#xd9;" horiz-adv-x="652" 
d="M326 -12q-109 0 -176.5 66.5t-67.5 226.5v374h105v-380q0 -111 39 -153.5t100 -42.5q62 0 102.5 42.5t40.5 153.5v380h100v-374q0 -160 -66.5 -226.5t-176.5 -66.5zM341 691l-163 116l58 69l151 -132z" />
    <glyph glyph-name="Uacute" unicode="&#xda;" horiz-adv-x="652" 
d="M326 -12q-109 0 -176.5 66.5t-67.5 226.5v374h105v-380q0 -111 39 -153.5t100 -42.5q62 0 102.5 42.5t40.5 153.5v380h100v-374q0 -160 -66.5 -226.5t-176.5 -66.5zM311 691l-46 53l151 132l58 -69z" />
    <glyph glyph-name="Ucircumflex" unicode="&#xdb;" horiz-adv-x="652" 
d="M326 -12q-109 0 -176.5 66.5t-67.5 226.5v374h105v-380q0 -111 39 -153.5t100 -42.5q62 0 102.5 42.5t40.5 153.5v380h100v-374q0 -160 -66.5 -226.5t-176.5 -66.5zM171 725l99 112h112l99 -112l-45 -31l-108 90h-4l-108 -90z" />
    <glyph glyph-name="Udieresis" unicode="&#xdc;" horiz-adv-x="652" 
d="M326 -12q-109 0 -176.5 66.5t-67.5 226.5v374h105v-380q0 -111 39 -153.5t100 -42.5q62 0 102.5 42.5t40.5 153.5v380h100v-374q0 -160 -66.5 -226.5t-176.5 -66.5zM431 710q-24 0 -40 16t-16 40q0 25 16 40.5t40 15.5q25 0 40.5 -15.5t15.5 -40.5q0 -24 -15.5 -40
t-40.5 -16zM221 710q-25 0 -40.5 16t-15.5 40q0 25 15.5 40.5t40.5 15.5q24 0 40 -15.5t16 -40.5q0 -24 -16 -40t-40 -16z" />
    <glyph glyph-name="Yacute" unicode="&#xdd;" horiz-adv-x="492" 
d="M194 0v247l-197 408h112l76 -174q14 -36 28.5 -71t31.5 -72h4q16 37 31.5 72t30.5 71l75 174h109l-197 -408v-247h-104zM231 691l-46 53l151 132l58 -69z" />
    <glyph glyph-name="Thorn" unicode="&#xde;" horiz-adv-x="594" 
d="M85 0v655h105v-107h109q108 0 177.5 -43.5t69.5 -154.5q0 -108 -70 -158.5t-177 -50.5h-109v-141h-105zM190 225h99q153 0 153 125q0 64 -38 89t-115 25h-99v-239z" />
    <glyph glyph-name="germandbls" unicode="&#xdf;" horiz-adv-x="594" 
d="M398 -12q-42 0 -77 13t-67 35l39 72q51 -41 102 -41q36 0 55.5 20.5t19.5 49.5q0 38 -28.5 59t-66.5 39t-66.5 45.5t-28.5 78.5q0 43 20.5 71.5t41 56t20.5 67.5q0 35 -19.5 58t-57.5 23q-106 0 -106 -145v-490h-103v506q0 94 53.5 153t156.5 59q86 0 131.5 -45.5
t45.5 -106.5q0 -50 -21.5 -81t-43.5 -56t-22 -57q0 -33 29 -51t66.5 -37t66.5 -50.5t29 -91.5q0 -65 -44.5 -109.5t-124.5 -44.5z" />
    <glyph glyph-name="agrave" unicode="&#xe0;" horiz-adv-x="512" 
d="M225 70q31 0 58.5 15t57.5 42v119q-108 -14 -150 -41t-42 -67q0 -36 22 -52t54 -16zM193 -12q-64 0 -104 39t-40 103q0 79 69.5 122.5t222.5 59.5q-1 42 -20.5 73.5t-72.5 31.5q-39 0 -74.5 -14.5t-66.5 -34.5l-39 69q38 25 89 44.5t109 19.5q92 0 135.5 -54.5
t43.5 -153.5v-293h-86l-8 56h-3q-34 -28 -72.5 -48t-82.5 -20zM273 573l-165 154l72 69l145 -172z" />
    <glyph glyph-name="aacute" unicode="&#xe1;" horiz-adv-x="512" 
d="M225 70q31 0 58.5 15t57.5 42v119q-108 -14 -150 -41t-42 -67q0 -36 22 -52t54 -16zM193 -12q-64 0 -104 39t-40 103q0 79 69.5 122.5t222.5 59.5q-1 42 -20.5 73.5t-72.5 31.5q-39 0 -74.5 -14.5t-66.5 -34.5l-39 69q38 25 89 44.5t109 19.5q92 0 135.5 -54.5
t43.5 -153.5v-293h-86l-8 56h-3q-34 -28 -72.5 -48t-82.5 -20zM261 573l-52 51l145 172l72 -69z" />
    <glyph glyph-name="acircumflex" unicode="&#xe2;" horiz-adv-x="512" 
d="M225 70q31 0 58.5 15t57.5 42v119q-108 -14 -150 -41t-42 -67q0 -36 22 -52t54 -16zM193 -12q-64 0 -104 39t-40 103q0 79 69.5 122.5t222.5 59.5q-1 42 -20.5 73.5t-72.5 31.5q-39 0 -74.5 -14.5t-66.5 -34.5l-39 69q38 25 89 44.5t109 19.5q92 0 135.5 -54.5
t43.5 -153.5v-293h-86l-8 56h-3q-34 -28 -72.5 -48t-82.5 -20zM103 605l112 136h104l112 -136l-42 -39l-120 106h-4l-120 -106z" />
    <glyph glyph-name="atilde" unicode="&#xe3;" horiz-adv-x="512" 
d="M225 70q31 0 58.5 15t57.5 42v119q-108 -14 -150 -41t-42 -67q0 -36 22 -52t54 -16zM193 -12q-64 0 -104 39t-40 103q0 79 69.5 122.5t222.5 59.5q-1 42 -20.5 73.5t-72.5 31.5q-39 0 -74.5 -14.5t-66.5 -34.5l-39 69q38 25 89 44.5t109 19.5q92 0 135.5 -54.5
t43.5 -153.5v-293h-86l-8 56h-3q-34 -28 -72.5 -48t-82.5 -20zM337 576q-34 0 -57 19t-42 38.5t-40 19.5q-37 0 -42 -71l-68 4q2 64 28.5 102.5t80.5 38.5q34 0 57 -19.5t42 -38.5t40 -19q37 0 42 71l68 -4q-2 -65 -28.5 -103t-80.5 -38z" />
    <glyph glyph-name="adieresis" unicode="&#xe4;" horiz-adv-x="512" 
d="M225 70q31 0 58.5 15t57.5 42v119q-108 -14 -150 -41t-42 -67q0 -36 22 -52t54 -16zM193 -12q-64 0 -104 39t-40 103q0 79 69.5 122.5t222.5 59.5q-1 42 -20.5 73.5t-72.5 31.5q-39 0 -74.5 -14.5t-66.5 -34.5l-39 69q38 25 89 44.5t109 19.5q92 0 135.5 -54.5
t43.5 -153.5v-293h-86l-8 56h-3q-34 -28 -72.5 -48t-82.5 -20zM368 581q-25 0 -41 16.5t-16 40.5t16 40.5t41 16.5t41 -16.5t16 -40.5t-16 -40.5t-41 -16.5zM166 581q-25 0 -41 16.5t-16 40.5t16 40.5t41 16.5t41 -16.5t16 -40.5t-16 -40.5t-41 -16.5z" />
    <glyph glyph-name="aring" unicode="&#xe5;" horiz-adv-x="512" 
d="M225 70q31 0 58.5 15t57.5 42v119q-108 -14 -150 -41t-42 -67q0 -36 22 -52t54 -16zM193 -12q-64 0 -104 39t-40 103q0 79 69.5 122.5t222.5 59.5q-1 42 -20.5 73.5t-72.5 31.5q-39 0 -74.5 -14.5t-66.5 -34.5l-39 69q38 25 89 44.5t109 19.5q92 0 135.5 -54.5
t43.5 -153.5v-293h-86l-8 56h-3q-34 -28 -72.5 -48t-82.5 -20zM267 557q-56 0 -86.5 29t-30.5 72t30.5 71.5t86.5 28.5t86.5 -28.5t30.5 -71.5t-30.5 -72t-86.5 -29zM267 600q22 0 37 16t15 42t-15 41.5t-37 15.5t-37 -15.5t-15 -41.5t15 -42t37 -16z" />
    <glyph glyph-name="ae" unicode="&#xe6;" horiz-adv-x="785" 
d="M199 -12q-64 0 -104.5 39t-40.5 103q0 79 69.5 122.5t219.5 59.5q-1 42 -20 73.5t-72 31.5q-37 0 -72 -14.5t-66 -34.5l-39 69q38 25 87 44.5t103 19.5q52 0 87 -25t52 -68q29 44 68.5 68.5t87.5 24.5q92 0 140.5 -64.5t48.5 -168.5q0 -31 -5 -51h-305q5 -67 44.5 -106.5
t96.5 -39.5q32 0 59 11t54 28l37 -70q-34 -22 -75 -37t-89 -15q-59 0 -100.5 25.5t-70.5 60.5q-99 -86 -195 -86zM438 284h220q0 64 -26 100t-77 36q-45 0 -77.5 -36t-39.5 -100zM231 70q67 0 129 64q-15 35 -17 89l-1 23q-101 -14 -144 -41t-43 -67q0 -36 21.5 -52
t54.5 -16z" />
    <glyph glyph-name="ccedilla" unicode="&#xe7;" horiz-adv-x="460" 
d="M276 -12q-99 0 -166 67t-67 189t72.5 189.5t169.5 67.5q47 0 82 -16t61 -39l-51 -68q-43 38 -87 38q-62 0 -101.5 -47.5t-39.5 -124.5t38.5 -124t99.5 -47q30 0 57 13t49 32l43 -69q-70 -61 -160 -61zM183 -231l-9 47q62 4 84.5 15t22.5 33q0 18 -16.5 29t-60.5 17l45 93
h65l-29 -66q35 -8 54.5 -24.5t19.5 -47.5q0 -46 -46 -69t-130 -27z" />
    <glyph glyph-name="egrave" unicode="&#xe8;" horiz-adv-x="503" 
d="M281 -12q-100 0 -169 67.5t-69 188.5q0 80 32 137.5t83 88.5t108 31q98 0 149 -63.5t51 -167.5q0 -33 -5 -53h-317q7 -69 47.5 -108.5t103.5 -39.5q32 0 60.5 10t55.5 27l36 -66q-34 -22 -76 -37t-90 -15zM143 289h233q0 131 -108 131q-46 0 -82 -34t-43 -97zM272 573
l-165 154l72 69l145 -172z" />
    <glyph glyph-name="eacute" unicode="&#xe9;" horiz-adv-x="503" 
d="M281 -12q-100 0 -169 67.5t-69 188.5q0 80 32 137.5t83 88.5t108 31q98 0 149 -63.5t51 -167.5q0 -33 -5 -53h-317q7 -69 47.5 -108.5t103.5 -39.5q32 0 60.5 10t55.5 27l36 -66q-34 -22 -76 -37t-90 -15zM143 289h233q0 131 -108 131q-46 0 -82 -34t-43 -97zM260 573
l-52 51l145 172l72 -69z" />
    <glyph glyph-name="ecircumflex" unicode="&#xea;" horiz-adv-x="503" 
d="M281 -12q-100 0 -169 67.5t-69 188.5q0 80 32 137.5t83 88.5t108 31q98 0 149 -63.5t51 -167.5q0 -33 -5 -53h-317q7 -69 47.5 -108.5t103.5 -39.5q32 0 60.5 10t55.5 27l36 -66q-34 -22 -76 -37t-90 -15zM143 289h233q0 131 -108 131q-46 0 -82 -34t-43 -97zM102 605
l112 136h104l112 -136l-42 -39l-120 106h-4l-120 -106z" />
    <glyph glyph-name="edieresis" unicode="&#xeb;" horiz-adv-x="503" 
d="M281 -12q-100 0 -169 67.5t-69 188.5q0 80 32 137.5t83 88.5t108 31q98 0 149 -63.5t51 -167.5q0 -33 -5 -53h-317q7 -69 47.5 -108.5t103.5 -39.5q32 0 60.5 10t55.5 27l36 -66q-34 -22 -76 -37t-90 -15zM143 289h233q0 131 -108 131q-46 0 -82 -34t-43 -97zM367 581
q-25 0 -41 16.5t-16 40.5t16 40.5t41 16.5t41 -16.5t16 -40.5t-16 -40.5t-41 -16.5zM165 581q-25 0 -41 16.5t-16 40.5t16 40.5t41 16.5t41 -16.5t16 -40.5t-16 -40.5t-41 -16.5z" />
    <glyph glyph-name="igrave" unicode="&#xec;" horiz-adv-x="256" 
d="M76 0v489h104v-489h-104zM134 573l-165 154l72 69l145 -172z" />
    <glyph glyph-name="iacute" unicode="&#xed;" horiz-adv-x="256" 
d="M76 0v489h104v-489h-104zM122 573l-52 51l145 172l72 -69z" />
    <glyph glyph-name="icircumflex" unicode="&#xee;" horiz-adv-x="256" 
d="M76 0v489h104v-489h-104zM-36 605l112 136h104l112 -136l-42 -39l-120 106h-4l-120 -106z" />
    <glyph glyph-name="idieresis" unicode="&#xef;" horiz-adv-x="256" 
d="M76 0v489h104v-489h-104zM229 581q-25 0 -41 16.5t-16 40.5t16 40.5t41 16.5t41 -16.5t16 -40.5t-16 -40.5t-41 -16.5zM27 581q-25 0 -41 16.5t-16 40.5t16 40.5t41 16.5t41 -16.5t16 -40.5t-16 -40.5t-41 -16.5z" />
    <glyph glyph-name="eth" unicode="&#xf0;" horiz-adv-x="550" 
d="M270 -12q-87 0 -153.5 63t-66.5 173q0 104 60 164.5t144 60.5q35 0 68 -13.5t57 -43.5q-14 54 -39 95.5t-60 76.5l-142 -73l-29 49l124 64q-23 17 -49.5 33.5t-55.5 31.5l47 64q36 -19 71 -41t67 -48l142 73l29 -49l-126 -65q59 -60 97 -143.5t38 -199.5
q0 -121 -60.5 -196.5t-162.5 -75.5zM273 73q59 0 90.5 49t31.5 133q0 28 -2 53q-29 37 -59 49.5t-61 12.5q-59 0 -93 -40t-34 -106q0 -70 37.5 -110.5t89.5 -40.5z" />
    <glyph glyph-name="ntilde" unicode="&#xf1;" horiz-adv-x="555" 
d="M76 0v489h86l8 -67h3q34 33 73 56t89 23q78 0 114 -50t36 -143v-308h-104v295q0 63 -19.5 90t-62.5 27q-34 0 -60.5 -17t-58.5 -49v-346h-104zM367 576q-34 0 -57 19t-42 38.5t-40 19.5q-37 0 -42 -71l-68 4q2 64 28.5 102.5t80.5 38.5q34 0 57 -19.5t42 -38.5t40 -19
q37 0 42 71l68 -4q-2 -65 -28.5 -103t-80.5 -38z" />
    <glyph glyph-name="ograve" unicode="&#xf2;" horiz-adv-x="547" 
d="M273 -12q-91 0 -160.5 67t-69.5 189t69.5 189.5t160.5 67.5t161 -67.5t70 -189.5t-70 -189t-161 -67zM273 73q57 0 90.5 47t33.5 124t-33.5 124.5t-90.5 47.5t-90.5 -47.5t-33.5 -124.5t33.5 -124t90.5 -47zM279 573l-165 154l72 69l145 -172z" />
    <glyph glyph-name="oacute" unicode="&#xf3;" horiz-adv-x="547" 
d="M273 -12q-91 0 -160.5 67t-69.5 189t69.5 189.5t160.5 67.5t161 -67.5t70 -189.5t-70 -189t-161 -67zM273 73q57 0 90.5 47t33.5 124t-33.5 124.5t-90.5 47.5t-90.5 -47.5t-33.5 -124.5t33.5 -124t90.5 -47zM267 573l-52 51l145 172l72 -69z" />
    <glyph glyph-name="ocircumflex" unicode="&#xf4;" horiz-adv-x="547" 
d="M273 -12q-91 0 -160.5 67t-69.5 189t69.5 189.5t160.5 67.5t161 -67.5t70 -189.5t-70 -189t-161 -67zM273 73q57 0 90.5 47t33.5 124t-33.5 124.5t-90.5 47.5t-90.5 -47.5t-33.5 -124.5t33.5 -124t90.5 -47zM109 605l112 136h104l112 -136l-42 -39l-120 106h-4l-120 -106
z" />
    <glyph glyph-name="otilde" unicode="&#xf5;" horiz-adv-x="547" 
d="M273 -12q-91 0 -160.5 67t-69.5 189t69.5 189.5t160.5 67.5t161 -67.5t70 -189.5t-70 -189t-161 -67zM273 73q57 0 90.5 47t33.5 124t-33.5 124.5t-90.5 47.5t-90.5 -47.5t-33.5 -124.5t33.5 -124t90.5 -47zM343 576q-34 0 -57 19t-42 38.5t-40 19.5q-37 0 -42 -71l-68 4
q2 64 28.5 102.5t80.5 38.5q34 0 57 -19.5t42 -38.5t40 -19q37 0 42 71l68 -4q-2 -65 -28.5 -103t-80.5 -38z" />
    <glyph glyph-name="odieresis" unicode="&#xf6;" horiz-adv-x="547" 
d="M273 -12q-91 0 -160.5 67t-69.5 189t69.5 189.5t160.5 67.5t161 -67.5t70 -189.5t-70 -189t-161 -67zM273 73q57 0 90.5 47t33.5 124t-33.5 124.5t-90.5 47.5t-90.5 -47.5t-33.5 -124.5t33.5 -124t90.5 -47zM374 581q-25 0 -41 16.5t-16 40.5t16 40.5t41 16.5t41 -16.5
t16 -40.5t-16 -40.5t-41 -16.5zM172 581q-25 0 -41 16.5t-16 40.5t16 40.5t41 16.5t41 -16.5t16 -40.5t-16 -40.5t-41 -16.5z" />
    <glyph glyph-name="divide" unicode="&#xf7;" horiz-adv-x="507" 
d="M254 448q-27 0 -45.5 17t-18.5 45q0 27 18.5 44t45.5 17q26 0 44.5 -17t18.5 -44q0 -28 -18.5 -45t-44.5 -17zM34 292v76h439v-76h-439zM254 88q-27 0 -45.5 17t-18.5 45q0 27 18.5 44t45.5 17q26 0 44.5 -17t18.5 -44q0 -28 -18.5 -45t-44.5 -17z" />
    <glyph glyph-name="oslash" unicode="&#xf8;" horiz-adv-x="547" 
d="M144 249q0 -57 17 -98l193 235q-33 33 -81 33q-57 0 -93 -47t-36 -123zM273 70q57 0 93 46.5t36 122.5q0 57 -17 99l-193 -236q33 -32 81 -32zM273 -12q-77 0 -137 46l-47 -58l-43 34l51 63q-25 32 -39.5 75t-14.5 96q0 122 69.5 189.5t160.5 67.5q77 0 137 -46l48 59
l43 -34l-52 -63q26 -33 40.5 -76t14.5 -97q0 -122 -70 -189t-161 -67z" />
    <glyph glyph-name="ugrave" unicode="&#xf9;" horiz-adv-x="552" 
d="M221 -12q-79 0 -115 50t-36 143v308h104v-294q0 -63 19.5 -90.5t62.5 -27.5q34 0 60 17.5t56 55.5v339h104v-489h-85l-9 74h-3q-32 -39 -70 -62.5t-88 -23.5zM283 573l-165 154l72 69l145 -172z" />
    <glyph glyph-name="uacute" unicode="&#xfa;" horiz-adv-x="552" 
d="M221 -12q-79 0 -115 50t-36 143v308h104v-294q0 -63 19.5 -90.5t62.5 -27.5q34 0 60 17.5t56 55.5v339h104v-489h-85l-9 74h-3q-32 -39 -70 -62.5t-88 -23.5zM271 573l-52 51l145 172l72 -69z" />
    <glyph glyph-name="ucircumflex" unicode="&#xfb;" horiz-adv-x="552" 
d="M221 -12q-79 0 -115 50t-36 143v308h104v-294q0 -63 19.5 -90.5t62.5 -27.5q34 0 60 17.5t56 55.5v339h104v-489h-85l-9 74h-3q-32 -39 -70 -62.5t-88 -23.5zM113 605l112 136h104l112 -136l-42 -39l-120 106h-4l-120 -106z" />
    <glyph glyph-name="udieresis" unicode="&#xfc;" horiz-adv-x="552" 
d="M221 -12q-79 0 -115 50t-36 143v308h104v-294q0 -63 19.5 -90.5t62.5 -27.5q34 0 60 17.5t56 55.5v339h104v-489h-85l-9 74h-3q-32 -39 -70 -62.5t-88 -23.5zM378 581q-25 0 -41 16.5t-16 40.5t16 40.5t41 16.5t41 -16.5t16 -40.5t-16 -40.5t-41 -16.5zM176 581
q-25 0 -41 16.5t-16 40.5t16 40.5t41 16.5t41 -16.5t16 -40.5t-16 -40.5t-41 -16.5z" />
    <glyph glyph-name="yacute" unicode="&#xfd;" horiz-adv-x="485" 
d="M100 -204q-33 0 -61 10l19 81q8 -2 17.5 -4.5t18.5 -2.5q40 0 64 25.5t38 65.5l10 33l-194 485h106l90 -250q10 -32 21.5 -67.5t22.5 -70.5h4q10 34 19.5 69.5t19.5 68.5l78 250h100l-179 -517q-29 -80 -72.5 -128t-121.5 -48zM245 573l-52 51l145 172l72 -69z" />
    <glyph glyph-name="thorn" unicode="&#xfe;" horiz-adv-x="561" 
d="M285 74q53 0 88.5 46t35.5 131q0 76 -26.5 120t-87.5 44q-55 0 -115 -59v-238q28 -24 55.5 -34t49.5 -10zM76 -198v906h104v-186l-2 -79q30 25 66 41.5t74 16.5q95 0 146.5 -68t51.5 -181q0 -125 -64 -194.5t-146 -69.5q-35 0 -66 13.5t-62 38.5l2 -80v-158h-104z" />
    <glyph glyph-name="ydieresis" unicode="&#xff;" horiz-adv-x="485" 
d="M100 -204q-33 0 -61 10l19 81q8 -2 17.5 -4.5t18.5 -2.5q40 0 64 25.5t38 65.5l10 33l-194 485h106l90 -250q10 -32 21.5 -67.5t22.5 -70.5h4q10 34 19.5 69.5t19.5 68.5l78 250h100l-179 -517q-29 -80 -72.5 -128t-121.5 -48zM352 581q-25 0 -41 16.5t-16 40.5t16 40.5
t41 16.5t41 -16.5t16 -40.5t-16 -40.5t-41 -16.5zM150 581q-25 0 -41 16.5t-16 40.5t16 40.5t41 16.5t41 -16.5t16 -40.5t-16 -40.5t-41 -16.5z" />
    <glyph glyph-name="dotlessi" unicode="&#x131;" horiz-adv-x="256" 
d="M76 0v489h104v-489h-104z" />
    <glyph glyph-name="OE" unicode="&#x152;" horiz-adv-x="855" 
d="M370 0q-146 0 -233 85t-87 245t88 242.5t237 82.5h420v-89h-268v-180h224v-89h-224v-209h278v-88h-435zM382 85h40v485h-40q-107 0 -165.5 -58.5t-58.5 -181.5t58.5 -184t165.5 -61z" />
    <glyph glyph-name="oe" unicode="&#x153;" horiz-adv-x="833" 
d="M265 -12q-90 0 -156 67t-66 189t67 189.5t157 67.5q115 0 171 -110q29 52 72.5 81t94.5 29q92 0 141.5 -64.5t49.5 -168.5q0 -15 -1 -28.5t-3 -22.5h-308q4 -67 44.5 -106.5t96.5 -39.5q33 0 60.5 11t54.5 28l37 -70q-34 -22 -76 -37t-89 -15q-111 0 -172 110
q-61 -110 -175 -110zM484 284h222q0 64 -27 100t-77 36q-45 0 -78 -36t-40 -100zM267 73q54 0 87 47t33 124t-33 124.5t-87 47.5q-53 0 -86 -47.5t-33 -124.5t33 -124t86 -47z" />
    <glyph glyph-name="circumflex" unicode="&#x2c6;" horiz-adv-x="547" 
d="M109 605l112 136h104l112 -136l-42 -39l-120 106h-4l-120 -106z" />
    <glyph glyph-name="ring" unicode="&#x2da;" horiz-adv-x="547" 
d="M273 557q-56 0 -86.5 29t-30.5 72t30.5 71.5t86.5 28.5t86.5 -28.5t30.5 -71.5t-30.5 -72t-86.5 -29zM273 600q22 0 37 16t15 42t-15 41.5t-37 15.5t-37 -15.5t-15 -41.5t15 -42t37 -16z" />
    <glyph glyph-name="tilde" unicode="&#x2dc;" horiz-adv-x="547" 
d="M343 576q-34 0 -57 19t-42 38.5t-40 19.5q-37 0 -42 -71l-68 4q2 64 28.5 102.5t80.5 38.5q34 0 57 -19.5t42 -38.5t40 -19q37 0 42 71l68 -4q-2 -65 -28.5 -103t-80.5 -38z" />
    <glyph glyph-name="uni060C" unicode="&#x60c;" horiz-adv-x="266" 
d="M196 300l23 -58q-99 -40 -97 -122q4 1 9 1q28 0 48.5 -17.5t20.5 -48.5t-21 -49t-50 -18q-38 0 -59.5 29.5t-21.5 81.5q0 71 39 123t109 78z" />
    <glyph glyph-name="uni061B" unicode="&#x61b;" horiz-adv-x="266" 
d="M196 648l23 -58q-99 -40 -97 -122q4 1 9 1q28 0 48.5 -17.5t20.5 -48.5t-21 -49t-50 -18q-38 0 -59.5 29.5t-21.5 81.5q0 71 39 123t109 78zM133 134q29 0 49 -20.5t20 -51.5q0 -32 -20 -53t-49 -21t-49 21t-20 53q0 31 20 51.5t49 20.5z" />
    <glyph glyph-name="uni061F" unicode="&#x61f;" horiz-adv-x="438" 
d="M280 209q8 56 -11 97.5t-47.5 74.5t-51.5 63.5t-23 66.5q0 37 22.5 61.5t63.5 24.5q31 0 58 -14.5t49 -39.5l59 54q-33 37 -78 61t-100 24q-77 0 -126 -42.5t-49 -121.5q0 -48 23.5 -84t53.5 -68.5t51 -69.5t15 -87h91zM233 -12q29 0 49 20.5t20 51.5q0 32 -20 53t-49 21
t-49 -21t-20 -53q0 -31 20 -51.5t49 -20.5z" />
    <glyph glyph-name="uni0621" unicode="&#x621;" horiz-adv-x="498" 
d="M244 272h150v-105h-96l32 -67q5 -13 11.5 -32.5t-8.5 -40.5q-14 -19 -33 -23t-30 -4h-165v105h106l-31 66l-9 24t5 47q8 12 25 21t43 9z" />
    <glyph glyph-name="uni0622" unicode="&#x622;" horiz-adv-x="205" 
d="M50 0v624h105v-514q0 -47 -27.5 -78.5t-77.5 -31.5zM-73 664v53q0 32 21.5 52t52.5 20h239v-70h-243v-55h-70z" />
    <glyph glyph-name="uni0623" unicode="&#x623;" horiz-adv-x="205" 
d="M50 0v624h105v-514q0 -47 -27.5 -78.5t-77.5 -31.5zM97 845h100v-70h-63l21 -45q4 -9 8 -21.5t-6 -26.5q-9 -13 -22 -15.5t-20 -2.5h-110v70h71l-21 44l-6.5 15t3.5 31q13 21 45 21z" />
    <glyph glyph-name="uni0624" unicode="&#x624;" horiz-adv-x="468" 
d="M35 -200v106h193q37 0 61.5 28t24.5 66h-108q-68 0 -114 47t-42 112q6 69 41 117t84.5 74t98.5 26q55 1 99 -36t45 -107v-234q0 -73 -51 -136t-139 -63h-193zM206 105h108v108q0 24 -9.5 41t-29.5 17q-35 0 -75 -31t-46 -89q-1 -15 13.5 -30.5t38.5 -15.5zM259 665h100
v-70h-63l21 -45q4 -9 8 -21.5t-6 -26.5q-9 -13 -22 -15.5t-20 -2.5h-110v70h71l-21 44l-6.5 15t3.5 31q13 21 45 21z" />
    <glyph glyph-name="uni0625" unicode="&#x625;" horiz-adv-x="205" 
d="M50 0v624h105v-514q0 -47 -27.5 -78.5t-77.5 -31.5zM97 -29h100v-70h-63l21 -45q4 -9 8 -21.5t-6 -26.5q-9 -13 -22 -15.5t-20 -2.5h-110v70h71l-21 44l-6.5 15t3.5 31q13 21 45 21z" />
    <glyph glyph-name="uni0626" unicode="&#x626;" horiz-adv-x="631" 
d="M242 -104q-39 0 -84 17t-77 56t-32 104v196h105v-196q0 -38 27.5 -55.5t70.5 -17.5h204l-92 111q-29 36 -26.5 73.5t30.5 63.5t74 26h138v-104h-129l105 -127q28 -34 20 -68t-37.5 -56.5t-66.5 -22.5h-230zM248 513h100v-70h-63l21 -45q4 -9 8 -21.5t-6 -26.5
q-9 -13 -22 -15.5t-20 -2.5h-110v70h71l-21 44l-6.5 15t3.5 31q13 21 45 21z" />
    <glyph glyph-name="uni0627" unicode="&#x627;" horiz-adv-x="205" 
d="M50 0v624h105v-514q0 -47 -27.5 -78.5t-77.5 -31.5z" />
    <glyph glyph-name="uni0628" unicode="&#x628;" horiz-adv-x="767" 
d="M221 0q-65 0 -118 45t-53 115v140h105v-140q0 -20 18.5 -37.5t47.5 -17.5h391v195h105v-195q0 -43 -30.5 -74t-73.5 -31h-392zM402 -161q-22 0 -37 15t-15 37t15 37t37 15t37 -15t15 -37t-15 -37t-37 -15z" />
    <glyph glyph-name="uni0629" unicode="&#x629;" horiz-adv-x="482" 
d="M173 0q-56 0 -96 37q-37 33 -41.5 89.5t38.5 97.5q37 35 65 60t50.5 54t42.5 77l100 -41q-3 -5 -5 -10h90v-259q0 -45 -30 -75t-74 -30h-140zM173 105h139v232q-44 -77 -85 -114.5t-79 -73.5q-16 -20 0 -35q9 -9 25 -9zM197 453q-22 0 -37 15t-15 37t15 37t37 15t37 -15
t15 -37t-15 -37t-37 -15zM373 453q-22 0 -37 15t-15 37t15 37t37 15t37 -15t15 -37t-15 -37t-37 -15z" />
    <glyph glyph-name="uni062A" unicode="&#x62a;" horiz-adv-x="767" 
d="M221 0q-65 0 -118 45t-53 115v140h105v-140q0 -20 18.5 -37.5t47.5 -17.5h391v195h105v-195q0 -43 -30.5 -74t-73.5 -31h-392zM294 342q-22 0 -37 15t-15 37t15 37t37 15t37 -15t15 -37t-15 -37t-37 -15zM470 342q-22 0 -37 15t-15 37t15 37t37 15t37 -15t15 -37t-15 -37
t-37 -15z" />
    <glyph glyph-name="uni062B" unicode="&#x62b;" horiz-adv-x="767" 
d="M221 0q-65 0 -118 45t-53 115v140h105v-140q0 -20 18.5 -37.5t47.5 -17.5h391v195h105v-195q0 -43 -30.5 -74t-73.5 -31h-392zM294 342q-22 0 -37 15t-15 37t15 37t37 15t37 -15t15 -37t-15 -37t-37 -15zM470 342q-22 0 -37 15t-15 37t15 37t37 15t37 -15t15 -37t-15 -37
t-37 -15zM382 467q-22 0 -37 15t-15 37t15 37t37 15t37 -15t15 -37t-15 -37t-37 -15z" />
    <glyph glyph-name="uni062C" unicode="&#x62c;" horiz-adv-x="568" 
d="M186 -185h241v-106h-241q-58 -1 -97 38t-39 95v125q0 54 38 96t102 42h137q-2 3 -3.5 4.5l-3.5 3.5q-34 38 -68.5 79.5t-105.5 68.5l38 98q64 -24 105.5 -58.5t67 -67.5t41.5 -50q24 -27 38 -36.5t31 -10t51 -0.5v-53q0 -17 -16 -50t-63 -33h-250q-13 0 -24 -9t-11 -24
v-125q0 -27 32 -27zM273 -147q-22 0 -37 15t-15 37t15 37t37 15t37 -15t15 -37t-15 -37t-37 -15z" />
    <glyph glyph-name="uni062D" unicode="&#x62d;" horiz-adv-x="568" 
d="M186 -185h241v-106h-241q-58 -1 -97 38t-39 95v125q0 54 38 96t102 42h137q-2 3 -3.5 4.5l-3.5 3.5q-34 38 -68.5 79.5t-105.5 68.5l38 98q64 -24 105.5 -58.5t67 -67.5t41.5 -50q24 -27 38 -36.5t31 -10t51 -0.5v-53q0 -17 -16 -50t-63 -33h-250q-13 0 -24 -9t-11 -24
v-125q0 -27 32 -27z" />
    <glyph glyph-name="uni062E" unicode="&#x62e;" horiz-adv-x="568" 
d="M186 -185h241v-106h-241q-58 -1 -97 38t-39 95v125q0 54 38 96t102 42h137q-2 3 -3.5 4.5l-3.5 3.5q-34 38 -68.5 79.5t-105.5 68.5l38 98q64 -24 105.5 -58.5t67 -67.5t41.5 -50q24 -27 38 -36.5t31 -10t51 -0.5v-53q0 -17 -16 -50t-63 -33h-250q-13 0 -24 -9t-11 -24
v-125q0 -27 32 -27zM253 405q-22 0 -37 15t-15 37t15 37t37 15t37 -15t15 -37t-15 -37t-37 -15z" />
    <glyph glyph-name="uni062F" unicode="&#x62f;" horiz-adv-x="499" 
d="M50 0v105h263q-6 73 -56 113t-100 65l46 94q34 -17 85 -50t91 -87.5t40 -135.5q0 -44 -30.5 -74t-74.5 -30h-264z" />
    <glyph glyph-name="uni0630" unicode="&#x630;" horiz-adv-x="499" 
d="M50 0v105h263q-6 73 -56 113t-100 65l46 94q34 -17 85 -50t91 -87.5t40 -135.5q0 -44 -30.5 -74t-74.5 -30h-264zM193 428q-22 0 -37 15t-15 37t15 37t37 15t37 -15t15 -37t-15 -37t-37 -15z" />
    <glyph glyph-name="uni0631" unicode="&#x631;" horiz-adv-x="344" 
d="M188 -1v188h106v-188q0 -80 -54 -139.5t-138 -59.5h-102v104h102q38 0 62 26t24 69z" />
    <glyph glyph-name="uni0632" unicode="&#x632;" horiz-adv-x="344" 
d="M188 -1v188h106v-188q0 -80 -54 -139.5t-138 -59.5h-102v104h102q38 0 62 26t24 69zM236 299q-22 0 -37 15t-15 37t15 37t37 15t37 -15t15 -37t-15 -37t-37 -15z" />
    <glyph glyph-name="uni0633" unicode="&#x633;" horiz-adv-x="942" 
d="M152 -202q-46 0 -74 34.5t-28 74.5v278h105v-282h264v475h105v-273h79v271h105v-271h79v271h105v-272q0 -45 -31.5 -74.5t-74.5 -29.5h-82v75q-10 -33 -38 -54t-64 -21h-78v-97q0 -44 -31 -74.5t-74 -30.5h-267z" />
    <glyph glyph-name="uni0634" unicode="&#x634;" horiz-adv-x="942" 
d="M152 -202q-46 0 -74 34.5t-28 74.5v278h105v-282h264v475h105v-273h79v271h105v-271h79v271h105v-272q0 -45 -31.5 -74.5t-74.5 -29.5h-82v75q-10 -33 -38 -54t-64 -21h-78v-97q0 -44 -31 -74.5t-74 -30.5h-267zM555 460q-22 0 -37 15t-15 37t15 37t37 15t37 -15t15 -37
t-15 -37t-37 -15zM731 460q-22 0 -37 15t-15 37t15 37t37 15t37 -15t15 -37t-15 -37t-37 -15zM643 585q-22 0 -37 15t-15 37t15 37t37 15t37 -15t15 -37t-15 -37t-37 -15z" />
    <glyph glyph-name="uni0635" unicode="&#x635;" horiz-adv-x="1030" 
d="M152 -202q-46 0 -74 34.5t-28 74.5v278h105v-282h264v374h105v-374q0 -44 -31 -74.5t-74 -30.5h-267zM829 270q-34 12 -84 -23t-126 -142h254v65q0 54 -12.5 73t-31.5 27zM472 0v105h17q34 49 74.5 104t87 99.5t100.5 63.5t117 -4q57 -24 82.5 -76t27.5 -120l2 -66
q2 -45 -30 -75.5t-76 -30.5h-402z" />
    <glyph glyph-name="uni0636" unicode="&#x636;" horiz-adv-x="1030" 
d="M152 -202q-46 0 -74 34.5t-28 74.5v278h105v-282h264v374h105v-374q0 -44 -31 -74.5t-74 -30.5h-267zM829 270q-34 12 -84 -23t-126 -142h254v65q0 54 -12.5 73t-31.5 27zM472 0v105h17q34 49 74.5 104t87 99.5t100.5 63.5t117 -4q57 -24 82.5 -76t27.5 -120l2 -66
q2 -45 -30 -75.5t-76 -30.5h-402zM608 395q-22 0 -37 15t-15 37t15 37t37 15t37 -15t15 -37t-15 -37t-37 -15z" />
    <glyph glyph-name="uni0637" unicode="&#x637;" horiz-adv-x="670" 
d="M129 88v536h106v-536h-106zM120 0h-70v105h70v-105zM469 270q-34 12 -84 -23t-126 -142h254v65q0 54 -12.5 73t-31.5 27zM112 0v105h17q34 49 74.5 104t87 99.5t100.5 63.5t117 -4q57 -24 82.5 -76t27.5 -120l2 -66q2 -45 -30 -75.5t-76 -30.5h-402z" />
    <glyph glyph-name="uni0638" unicode="&#x638;" horiz-adv-x="670" 
d="M129 88v536h106v-536h-106zM120 0h-70v105h70v-105zM469 270q-34 12 -84 -23t-126 -142h254v65q0 54 -12.5 73t-31.5 27zM112 0v105h17q34 49 74.5 104t87 99.5t100.5 63.5t117 -4q57 -24 82.5 -76t27.5 -120l2 -66q2 -45 -30 -75.5t-76 -30.5h-402zM391 433
q-22 0 -37 15t-15 37t15 37t37 15t37 -15t15 -37t-15 -37t-37 -15z" />
    <glyph glyph-name="uni0639" unicode="&#x639;" horiz-adv-x="482" 
d="M144 -273q-41 0 -67.5 30t-26.5 70v178q0 40 26.5 70t69.5 30h14q-30 54 -31.5 105t39.5 88q36 33 86.5 36.5t104.5 -11.5q13 -4 27 -9t27 -10l-40 -98q-24 10 -42 15q-43 12 -65 8t-27 -8l-2.5 -11.5t7 -37t45.5 -67.5h143v-105h-277v-168h277v-105h-288z" />
    <glyph glyph-name="uni063A" unicode="&#x63a;" horiz-adv-x="482" 
d="M144 -273q-41 0 -67.5 30t-26.5 70v178q0 40 26.5 70t69.5 30h14q-30 54 -31.5 105t39.5 88q36 33 86.5 36.5t104.5 -11.5q13 -4 27 -9t27 -10l-40 -98q-24 10 -42 15q-43 12 -65 8t-27 -8l-2.5 -11.5t7 -37t45.5 -67.5h143v-105h-277v-168h277v-105h-288zM258 411
q-22 0 -37 15t-15 37t15 37t37 15t37 -15t15 -37t-15 -37t-37 -15z" />
    <glyph glyph-name="uni0640" unicode="&#x640;" horiz-adv-x="260" 
d="M265 105v-105h-270v105h270z" />
    <glyph glyph-name="uni0641" unicode="&#x641;" horiz-adv-x="851" 
d="M535 143q18 -30 45.5 -41t115.5 -9v97q0 28 -17 47.5t-42 26.5q-40 10 -74 -11q-22 -14 -33.5 -48.5t5.5 -61.5zM201 -200q-61 0 -106 40t-45 107v152h105v-152q0 -41 46 -41h495v110q-48 -4 -95.5 -3.5t-88 16.5t-66.5 60q-29 48 -26 97.5t27.5 90.5t58.5 64
q38 25 89.5 29.5t100 -14.5t78.5 -67q27 -44 27 -99v-283q0 -41 -30.5 -74t-77.5 -33h-492zM604 427q-22 0 -37 15t-15 37t15 37t37 15t37 -15t15 -37t-15 -37t-37 -15z" />
    <glyph glyph-name="uni0642" unicode="&#x642;" horiz-adv-x="781" 
d="M465 144q18 -30 45.5 -41t115.5 -9v97q0 28 -17 47.5t-42 26.5q-40 10 -74 -11q-22 -14 -33.5 -48.5t5.5 -61.5zM201 -200q-61 0 -106 40t-45 107v242h105v-242q0 -41 46 -41h425v111q-48 -4 -95.5 -3.5t-88 16.5t-66.5 60q-29 48 -26 97.5t27.5 91t58.5 63.5
q38 24 89.5 29t100 -14t78.5 -67q27 -44 27 -99v-284q0 -41 -30.5 -74t-77.5 -33h-422zM446 427q-22 0 -37 15t-15 37t15 37t37 15t37 -15t15 -37t-15 -37t-37 -15zM622 427q-22 0 -37 15t-15 37t15 37t37 15t37 -15t15 -37t-15 -37t-37 -15z" />
    <glyph glyph-name="uni0643" unicode="&#x643;" horiz-adv-x="615" 
d="M137 0l-87 105h410v519h105v-520q0 -45 -31.5 -74.5t-74.5 -29.5h-322zM261 452h100v-70h-63l21 -45q4 -9 8 -21.5t-6 -26.5q-9 -13 -22 -15.5t-20 -2.5h-110v70h71l-21 44l-6.5 15t3.5 31q13 21 45 21z" />
    <glyph glyph-name="uni0644" unicode="&#x644;" horiz-adv-x="573" 
d="M157 -148q-43 0 -75 29.5t-32 75.5v189h105v-190h263v668h105v-666q0 -41 -29.5 -73.5t-76.5 -32.5h-260z" />
    <glyph glyph-name="uni0645" unicode="&#x645;" horiz-adv-x="674" 
d="M50 105h102l87 -105h-102zM357 238v-133h60q55 0 78.5 19t23.5 38q0 14 -11.5 40t-46.5 63q-21 22 -49 21.5t-42 -13.5q-13 -13 -13 -35zM251 0h-99v105h100v133q0 67 45 110q48 46 119.5 43.5t120.5 -54.5q87 -92 87 -174q0 -58 -32.5 -94t-80.5 -52.5t-94 -16.5h-65v72
q-10 -32 -38 -52t-63 -20z" />
    <glyph glyph-name="uni0646" unicode="&#x646;" horiz-adv-x="569" 
d="M277 -188q-96 0 -161.5 49.5t-65.5 135.5v190h105v-190q0 -19 25.5 -49t96.5 -30h137v270h105v-271q0 -43 -29.5 -74t-74.5 -31h-138zM293 250q-22 0 -37 15t-15 37t15 37t37 15t37 -15t15 -37t-15 -37t-37 -15z" />
    <glyph glyph-name="uni0647" unicode="&#x647;" horiz-adv-x="482" 
d="M173 0q-56 0 -96 37q-37 33 -41.5 89.5t38.5 97.5q37 35 65 60t50.5 54t42.5 77l100 -41q-3 -5 -5 -10h90v-259q0 -45 -30 -75t-74 -30h-140zM173 105h139v232q-44 -77 -85 -114.5t-79 -73.5q-16 -20 0 -35q9 -9 25 -9z" />
    <glyph glyph-name="uni0648" unicode="&#x648;" horiz-adv-x="468" 
d="M35 -200v106h193q37 0 61.5 28t24.5 66h-108q-68 0 -114 47t-42 112q6 69 41 117t84.5 74t98.5 26q55 1 99 -36t45 -107v-234q0 -73 -51 -136t-139 -63h-193zM206 105h108v108q0 24 -9.5 41t-29.5 17q-35 0 -75 -31t-46 -89q-1 -15 13.5 -30.5t38.5 -15.5z" />
    <glyph glyph-name="uni0649" unicode="&#x649;" horiz-adv-x="631" 
d="M242 -104q-39 0 -84 17t-77 56t-32 104v196h105v-196q0 -38 27.5 -55.5t70.5 -17.5h204l-92 111q-29 36 -26.5 73.5t30.5 63.5t74 26h138v-104h-129l105 -127q28 -34 20 -68t-37.5 -56.5t-66.5 -22.5h-230z" />
    <glyph glyph-name="uni064A" unicode="&#x64a;" horiz-adv-x="631" 
d="M242 -104q-39 0 -84 17t-77 56t-32 104v196h105v-196q0 -38 27.5 -55.5t70.5 -17.5h204l-92 111q-29 36 -26.5 73.5t30.5 63.5t74 26h138v-104h-129l105 -127q28 -34 20 -68t-37.5 -56.5t-66.5 -22.5h-230zM236 -246q-22 0 -37 15t-15 37t15 37t37 15t37 -15t15 -37
t-15 -37t-37 -15zM412 -246q-22 0 -37 15t-15 37t15 37t37 15t37 -15t15 -37t-15 -37t-37 -15z" />
    <glyph glyph-name="uni064B" unicode="&#x64b;" 
d="M-86 -20q-10 -3 -20.5 0.5t-13.5 14.5q-8 27 16 34l198 72q10 3 20.5 -1t13.5 -14q8 -26 -16 -33zM-86 86q-10 -3 -20.5 0.5t-13.5 14.5q-8 27 16 34l198 72q10 3 20.5 -1t13.5 -14q8 -26 -16 -33z" />
    <glyph glyph-name="uni064C" unicode="&#x64c;" 
d="M44 90l12 -31l39 15q8 3 5 10q-3 10 -17.5 19t-32.5 4q-11 -3 -6 -17zM-43 23l50 18l-12 33q-9 26 3 51t37 33q41 11 72 -8.5t42 -47.5q7 -22 -1 -45t-35 -33l-138 -51q-29 -11 -60 1t-43 46l-15 39q-8 27 16 34q26 8 33 -16l15 -39q3 -10 14 -15t22 0z" />
    <glyph glyph-name="uni064D" unicode="&#x64d;" 
d="M-86 -251q-10 -3 -20.5 0.5t-13.5 14.5q-8 27 16 34l198 72q10 3 20.5 -1t13.5 -14q8 -26 -16 -33zM-86 -145q-10 -3 -20.5 0.5t-13.5 14.5q-8 27 16 34l198 72q10 3 20.5 -1t13.5 -14q8 -26 -16 -33z" />
    <glyph glyph-name="uni064E" unicode="&#x64e;" 
d="M-86 -18q-10 -3 -20.5 0.5t-13.5 14.5q-8 27 16 34l198 72q10 3 20.5 -1t13.5 -14q8 -26 -16 -33z" />
    <glyph glyph-name="uni064F" unicode="&#x64f;" 
d="M-100 17l78 29l-10 33q-9 25 2.5 51t37.5 33q40 11 71 -8t42 -48q7 -21 -1 -44t-35 -34l-167 -60q-27 -8 -33 15q-8 27 15 33zM17 95l11 -31l39 15q9 3 6 10q-3 11 -18 19t-33 4q-9 -6 -5 -17z" />
    <glyph glyph-name="uni0650" unicode="&#x650;" 
d="M-86 -144q-10 -3 -20.5 0.5t-13.5 14.5q-8 27 16 34l198 72q10 3 20.5 -1t13.5 -14q8 -26 -16 -33z" />
    <glyph glyph-name="uni0651" unicode="&#x651;" 
d="M-64 -35q-4 -1 -7 -1q-28 -4 -43 13q-8 9 -9 18t-1 16v99q0 27 25 27t25 -27v-91l46 16v95q0 25 26 25q28 0 28 -25v-77q3 2 6 3l42 15v95q0 25 25 25t25 -25v-99q0 -20 -12 -31.5t-24 -16.5l-38 -14q-17 -5 -29 7q-11 -23 -39 -31z" />
    <glyph glyph-name="uni0652" unicode="&#x652;" 
d="M0 -36q-45 0 -76.5 32t-31.5 77t31.5 76.5t76.5 31.5t76.5 -31.5t31.5 -76.5t-31.5 -77t-76.5 -32zM0 129q-24 0 -40.5 -16t-16.5 -40t16.5 -40.5t40.5 -16.5t40.5 16.5t16.5 40.5t-16.5 40t-40.5 16z" />
    <glyph glyph-name="uni0653" unicode="&#x653;" 
d="M-174 0v53q0 32 21.5 52t52.5 20h239v-70h-243v-55h-70z" />
    <glyph glyph-name="uni0654" unicode="&#x654;" 
d="M-4 181h100v-70h-63l21 -45q4 -9 8 -21.5t-6 -26.5q-9 -13 -22 -15.5t-20 -2.5h-110v70h71l-21 44l-6.5 15t3.5 31q13 21 45 21z" />
    <glyph glyph-name="uni0655" unicode="&#x655;" 
d="M-4 0h100v-70h-63l21 -45q4 -9 8 -21.5t-6 -26.5q-9 -13 -22 -15.5t-20 -2.5h-110v70h71l-21 44l-6.5 15t3.5 31q13 21 45 21z" />
    <glyph glyph-name="uni0656" unicode="&#x656;" 
d="M18 -145q0 -3 -4.5 -18t-31.5 -15v178h36v-145z" />
    <glyph glyph-name="uni0660" unicode="&#x660;" horiz-adv-x="350" 
d="M175 254q-31 0 -53 22t-22 53t22 53t53 22t53 -22t22 -53t-22 -53t-53 -22z" />
    <glyph glyph-name="uni0661" unicode="&#x661;" horiz-adv-x="305" 
d="M100 0v659h105v-659h-105z" />
    <glyph glyph-name="uni0662" unicode="&#x662;" horiz-adv-x="378" 
d="M50 0v553q0 45 31.5 74.5t74.5 29.5h172v-105h-173v-552h-105z" />
    <glyph glyph-name="uni0663" unicode="&#x663;" horiz-adv-x="572" 
d="M155 0h-105v660h105v-182h79v182h104v-182h80v182h104v-183q0 -45 -31.5 -74.5t-74.5 -29.5h-82v75q-9 -33 -37.5 -54t-64.5 -21h-77v-373z" />
    <glyph glyph-name="uni0664" unicode="&#x664;" horiz-adv-x="464" 
d="M409 0h-283q-30 0 -55.5 21.5t-25.5 54.5q0 34 15 58.5t25 38.5l104 150l-84 58q-49 33 -42.5 78t48.5 75l157 116l63 -84l-150 -110l98 -68q28 -19 28.5 -48t-16.5 -53l-125 -182l244 -1z" />
    <glyph glyph-name="uni0665" unicode="&#x665;" horiz-adv-x="577" 
d="M199 608q40 26 86.5 27.5t87.5 -23.5q46 -29 80.5 -86.5t53.5 -128.5t19 -141q1 -63 -19.5 -125t-72.5 -102.5t-144 -40.5q-136 -1 -190 79.5t-51 200.5q2 70 22.5 138.5t54 122t73.5 79.5zM421 256q0 57 -17.5 114t-41.5 98.5t-44 53.5q-31 19 -62 -2
q-22 -14 -43.5 -55.5t-36.5 -95.5t-18 -107q-3 -75 24.5 -122t106.5 -48q75 0 104 44t28 120z" />
    <glyph glyph-name="uni0666" unicode="&#x666;" horiz-adv-x="471" 
d="M316 0v551h-266v105h265q43 0 74.5 -29.5t31.5 -74.5v-552h-105z" />
    <glyph glyph-name="uni0667" unicode="&#x667;" horiz-adv-x="588" 
d="M310 -9q-24 0 -45.5 14.5t-29.5 40.5l-185 576l100 32l158 -495l129 492l102 -26l-151 -577q-6 -24 -26.5 -40.5t-51.5 -16.5z" />
    <glyph glyph-name="uni0668" unicode="&#x668;" horiz-adv-x="588" 
d="M310 655q-24 0 -45.5 -14.5t-29.5 -40.5l-185 -576l100 -32l158 495l129 -492l102 26l-151 577q-6 24 -26.5 40.5t-51.5 16.5z" />
    <glyph glyph-name="uni0669" unicode="&#x669;" horiz-adv-x="484" 
d="M297 0v283q-46 0 -92.5 0.5t-87 17.5t-70.5 65q-32 50 -31 102.5t26.5 95t64.5 65.5q36 23 86.5 28t99.5 -13.5t81 -67.5q28 -43 28 -101v-475h-105zM136 422q21 -31 53 -32t108 -1v86q0 28 -12 46q-18 26 -59.5 29.5t-63.5 -11.5q-22 -11 -35.5 -44.5t9.5 -72.5z" />
    <glyph glyph-name="uni066A" unicode="&#x66a;" horiz-adv-x="522" 
d="M124 -12h-85l358 679h86zM107 517q-31 0 -53 22t-22 53t22 53t53 22t53 -22t22 -53t-22 -53t-53 -22zM415 -12q-31 0 -53 22t-22 53t22 53t53 22t53 -22t22 -53t-22 -53t-53 -22z" />
    <glyph glyph-name="uni066B" unicode="&#x66b;" horiz-adv-x="143" 
d="M0 -2v107h79v-107q0 -60 -40.5 -105t-103.5 -45h-76v78h76q29 0 47 20t18 52z" />
    <glyph glyph-name="uni066E" unicode="&#x66e;" horiz-adv-x="767" 
d="M221 0q-65 0 -118 45t-53 115v140h105v-140q0 -20 18.5 -37.5t47.5 -17.5h391v195h105v-195q0 -43 -30.5 -74t-73.5 -31h-392z" />
    <glyph glyph-name="uni066F" unicode="&#x66f;" horiz-adv-x="781" 
d="M465 144q18 -30 45.5 -41t115.5 -9v97q0 28 -17 47.5t-42 26.5q-40 10 -74 -11q-22 -14 -33.5 -48.5t5.5 -61.5zM201 -200q-61 0 -106 40t-45 107v242h105v-242q0 -41 46 -41h425v111q-48 -4 -95.5 -3.5t-88 16.5t-66.5 60q-29 48 -26 97.5t27.5 91t58.5 63.5
q38 24 89.5 29t100 -14t78.5 -67q27 -44 27 -99v-284q0 -41 -30.5 -74t-77.5 -33h-422z" />
    <glyph glyph-name="uni0670" unicode="&#x670;" 
d="M18 33q0 -3 -4.5 -18t-31.5 -15v178h36v-145z" />
    <glyph glyph-name="uni0671" unicode="&#x671;" horiz-adv-x="205" 
d="M50 0v624h105v-514q0 -47 -27.5 -78.5t-77.5 -31.5zM175 799q-17 6 -42 -11.5t-63 -71.5h127v33q0 27 -6.5 36t-15.5 14zM-48 664v52h53q22 32 50.5 69t63 58t76.5 5q28 -12 41 -38t14 -60l1 -33q1 -23 -15 -38t-38 -15h-246z" />
    <glyph glyph-name="uni0679" unicode="&#x679;" horiz-adv-x="767" 
d="M221 0q-65 0 -118 45t-53 115v140h105v-140q0 -20 18.5 -37.5t47.5 -17.5h391v195h105v-195q0 -43 -30.5 -74t-73.5 -31h-392zM449 529q-17 6 -42 -11.5t-63 -71.5h127v33q0 27 -6.5 36t-15.5 14zM240 394v52h39v1v259h53v-187q28 33 61.5 53.5t74.5 5.5q28 -12 41.5 -38
t14.5 -60v-33q1 -23 -14.5 -38t-37.5 -15h-232z" />
    <glyph glyph-name="uni067E" unicode="&#x67e;" horiz-adv-x="767" 
d="M221 0q-65 0 -118 45t-53 115v140h105v-140q0 -20 18.5 -37.5t47.5 -17.5h391v195h105v-195q0 -43 -30.5 -74t-73.5 -31h-392zM402 -276q-22 0 -37 15t-15 37t15 37t37 15t37 -15t15 -37t-15 -37t-37 -15zM314 -161q-22 0 -37 15t-15 37t15 37t37 15t37 -15t15 -37
t-15 -37t-37 -15zM490 -161q-22 0 -37 15t-15 37t15 37t37 15t37 -15t15 -37t-15 -37t-37 -15z" />
    <glyph glyph-name="uni0686" unicode="&#x686;" horiz-adv-x="568" 
d="M156 -267q-50 0 -78 31t-28 78v125q0 54 38 96t102 42h137q-5 5 -7 8q-34 38 -68.5 79.5t-105.5 68.5l38 98q64 -24 105.5 -58.5t67 -67.5t41.5 -50q24 -27 38 -36.5t31 -10t51 -0.5v-53q0 -17 -16 -50t-63 -33h-248q-13 0 -24 -9t-11 -24v-234zM333 -261q-22 0 -37 15
t-15 37t15 37t37 15t37 -15t15 -37t-15 -37t-37 -15zM245 -146q-22 0 -37 15t-15 37t15 37t37 15t37 -15t15 -37t-15 -37t-37 -15zM421 -146q-22 0 -37 15t-15 37t15 37t37 15t37 -15t15 -37t-15 -37t-37 -15z" />
    <glyph glyph-name="uni0688" unicode="&#x688;" horiz-adv-x="499" 
d="M50 0v105h263q-6 73 -56 113t-100 65l46 94q34 -17 85 -50t91 -87.5t40 -135.5q0 -44 -30.5 -74t-74.5 -30h-264zM260 615q-17 6 -42 -11.5t-63 -71.5h127v33q0 27 -6.5 36t-15.5 14zM51 480v52h39v1v259h53v-187q28 33 61.5 53.5t74.5 5.5q28 -12 41.5 -38t14.5 -60v-33
q1 -23 -14.5 -38t-37.5 -15h-232z" />
    <glyph glyph-name="uni068E" unicode="&#x68e;" horiz-adv-x="499" 
d="M50 0v105h263q-6 73 -56 113t-100 65l46 94q34 -17 85 -50t91 -87.5t40 -135.5q0 -44 -30.5 -74t-74.5 -30h-264zM105 428q-22 0 -37 15t-15 37t15 37t37 15t37 -15t15 -37t-15 -37t-37 -15zM281 428q-22 0 -37 15t-15 37t15 37t37 15t37 -15t15 -37t-15 -37t-37 -15z
M193 553q-22 0 -37 15t-15 37t15 37t37 15t37 -15t15 -37t-15 -37t-37 -15z" />
    <glyph glyph-name="uni0691" unicode="&#x691;" horiz-adv-x="344" 
d="M188 -1v188h106v-188q0 -80 -54 -139.5t-138 -59.5h-102v104h102q38 0 62 26t24 69zM303 486q-17 6 -42 -11.5t-63 -71.5h127v33q0 27 -6.5 36t-15.5 14zM94 351v52h39v1v259h53v-187q28 33 61.5 53.5t74.5 5.5q28 -12 41.5 -38t14.5 -60v-33q1 -23 -14.5 -38t-37.5 -15
h-232z" />
    <glyph glyph-name="uni0698" unicode="&#x698;" horiz-adv-x="344" 
d="M188 -1v188h106v-188q0 -80 -54 -139.5t-138 -59.5h-102v104h102q38 0 62 26t24 69zM148 299q-22 0 -37 15t-15 37t15 37t37 15t37 -15t15 -37t-15 -37t-37 -15zM324 299q-22 0 -37 15t-15 37t15 37t37 15t37 -15t15 -37t-15 -37t-37 -15zM236 424q-22 0 -37 15t-15 37
t15 37t37 15t37 -15t15 -37t-15 -37t-37 -15z" />
    <glyph glyph-name="uni06A1" unicode="&#x6a1;" horiz-adv-x="851" 
d="M535 143q18 -30 45.5 -41t115.5 -9v97q0 28 -17 47.5t-42 26.5q-40 10 -74 -11q-22 -14 -33.5 -48.5t5.5 -61.5zM201 -200q-61 0 -106 40t-45 107v152h105v-152q0 -41 46 -41h495v110q-48 -4 -95.5 -3.5t-88 16.5t-66.5 60q-29 48 -26 97.5t27.5 90.5t58.5 64
q38 25 89.5 29.5t100 -14.5t78.5 -67q27 -44 27 -99v-283q0 -41 -30.5 -74t-77.5 -33h-492z" />
    <glyph glyph-name="uni06A4" unicode="&#x6a4;" horiz-adv-x="851" 
d="M535 143q18 -30 45.5 -41t115.5 -9v97q0 28 -17 47.5t-42 26.5q-40 10 -74 -11q-22 -14 -33.5 -48.5t5.5 -61.5zM201 -200q-61 0 -106 40t-45 107v152h105v-152q0 -41 46 -41h495v110q-48 -4 -95.5 -3.5t-88 16.5t-66.5 60q-29 48 -26 97.5t27.5 90.5t58.5 64
q38 25 89.5 29.5t100 -14.5t78.5 -67q27 -44 27 -99v-283q0 -41 -30.5 -74t-77.5 -33h-492zM516 427q-22 0 -37 15t-15 37t15 37t37 15t37 -15t15 -37t-15 -37t-37 -15zM692 427q-22 0 -37 15t-15 37t15 37t37 15t37 -15t15 -37t-15 -37t-37 -15zM604 552q-22 0 -37 15
t-15 37t15 37t37 15t37 -15t15 -37t-15 -37t-37 -15z" />
    <glyph glyph-name="uni06A9" unicode="&#x6a9;" horiz-adv-x="750" 
d="M50 105h102l87 -105h-102zM137 0v105h452l-273 279q-34 35 -36 89.5t44 82.5q57 35 133.5 61t143.5 40.5t93 14.5l2 -104q-8 0 -44 -8t-85.5 -21.5t-99.5 -31t-86 -38.5l291 -297q32 -32 29.5 -72.5t-30 -70t-72.5 -29.5h-462z" />
    <glyph glyph-name="uni06AF" unicode="&#x6af;" horiz-adv-x="750" 
d="M50 105h102l87 -105h-102zM137 0v105h452l-273 279q-34 35 -36 89.5t44 82.5q57 35 133.5 61t143.5 40.5t93 14.5l2 -104q-8 0 -44 -8t-85.5 -21.5t-99.5 -31t-86 -38.5l291 -297q32 -32 29.5 -72.5t-30 -70t-72.5 -29.5h-462zM690 723q-10 0 -49 -8.5t-91 -23t-103 -33
t-84 -39.5l-37 59q54 34 130 59t142 40t90 15z" />
    <glyph glyph-name="uni06BA" unicode="&#x6ba;" horiz-adv-x="569" 
d="M277 -188q-96 0 -161.5 49.5t-65.5 135.5v190h105v-190q0 -19 25.5 -49t96.5 -30h137v270h105v-271q0 -43 -29.5 -74t-74.5 -31h-138z" />
    <glyph glyph-name="uni06BB" unicode="&#x6bb;" horiz-adv-x="569" 
d="M277 -188q-96 0 -161.5 49.5t-65.5 135.5v190h105v-190q0 -19 25.5 -49t96.5 -30h137v270h105v-271q0 -43 -29.5 -74t-74.5 -31h-138zM360 437q-17 6 -42 -11.5t-63 -71.5h127v33q0 27 -6.5 36t-15.5 14zM151 302v52h39v1v259h53v-187q28 33 61.5 53.5t74.5 5.5
q28 -12 41.5 -38t14.5 -60v-33q1 -23 -14.5 -38t-37.5 -15h-232z" />
    <glyph glyph-name="uni06BE" unicode="&#x6be;" horiz-adv-x="719" 
d="M321 105q21 0 31.5 10.5t10.5 22.5q0 6 -3.5 17t-13.5 26q-32 48 -64.5 53.5t-43.5 -2.5q-5 -4 -9.5 -10.5t-4.5 -21.5v-95h97zM0 0v105h120v95q0 81 60 120q59 39 133 15.5t121 -96.5q33 -51 34 -99q0 -18 -4 -35h99q-1 72 -34 138t-102 108.5t-179 44.5l2 104
q145 -2 238.5 -64t138 -152.5t42.5 -178.5q-1 -44 -31 -74.5t-74 -30.5h-564z" />
    <glyph glyph-name="uni06C0" unicode="&#x6c0;" horiz-adv-x="482" 
d="M173 0q-56 0 -96 37q-37 33 -41.5 89.5t38.5 97.5q37 35 65 60t50.5 54t42.5 77l100 -41q-3 -5 -5 -10h90v-259q0 -45 -30 -75t-74 -30h-140zM173 105h139v232q-44 -77 -85 -114.5t-79 -73.5q-16 -20 0 -35q9 -9 25 -9zM281 631h100v-70h-63l21 -45q4 -9 8 -21.5
t-6 -26.5q-9 -13 -22 -15.5t-20 -2.5h-110v70h71l-21 44l-6.5 15t3.5 31q13 21 45 21z" />
    <glyph glyph-name="uni06C1" unicode="&#x6c1;" horiz-adv-x="482" 
d="M173 0q-56 0 -96 37q-37 33 -41.5 89.5t38.5 97.5q37 35 65 60t50.5 54t42.5 77l100 -41q-3 -5 -5 -10h90v-259q0 -45 -30 -75t-74 -30h-140zM173 105h139v232q-44 -77 -85 -114.5t-79 -73.5q-16 -20 0 -35q9 -9 25 -9z" />
    <glyph glyph-name="uni06CC" unicode="&#x6cc;" horiz-adv-x="631" 
d="M242 -104q-39 0 -84 17t-77 56t-32 104v196h105v-196q0 -38 27.5 -55.5t70.5 -17.5h204l-92 111q-29 36 -26.5 73.5t30.5 63.5t74 26h138v-104h-129l105 -127q28 -34 20 -68t-37.5 -56.5t-66.5 -22.5h-230z" />
    <glyph glyph-name="uni06D2" unicode="&#x6d2;" horiz-adv-x="946" 
d="M267 223q37 53 81.5 71.5t88 15.5t80 -17.5t58.5 -28.5l-56 -88q-37 24 -84.5 30.5t-82.5 -43.5q-2 -3 -13.5 -29t-43 -56t-94.5 -46q-31 -8 -43 -31t-7 -42q4 -14 26 -32.5t87 -18.5h626v-106h-626q-86 0 -142.5 36t-72.5 95q-17 65 19 124t106 77q46 12 56.5 21t13 23
t23.5 45z" />
    <glyph glyph-name="uni06D3" unicode="&#x6d3;" horiz-adv-x="946" 
d="M267 223q37 53 81.5 71.5t88 15.5t80 -17.5t58.5 -28.5l-56 -88q-37 24 -84.5 30.5t-82.5 -43.5q-2 -3 -13.5 -29t-43 -56t-94.5 -46q-31 -8 -43 -31t-7 -42q4 -14 26 -32.5t87 -18.5h626v-106h-626q-86 0 -142.5 36t-72.5 95q-17 65 19 124t106 77q46 12 56.5 21t13 23
t23.5 45zM425 589h100v-70h-63l21 -45q4 -9 8 -21.5t-6 -26.5q-9 -13 -22 -15.5t-20 -2.5h-110v70h71l-21 44l-6.5 15t3.5 31q13 21 45 21z" />
    <glyph glyph-name="uni06D4" unicode="&#x6d4;" horiz-adv-x="387" 
d="M64 0l87 105h172l-87 -105h-172z" />
    <glyph glyph-name="endash" unicode="&#x2013;" horiz-adv-x="480" 
d="M42 217v70h396v-70h-396z" />
    <glyph glyph-name="emdash" unicode="&#x2014;" horiz-adv-x="800" 
d="M42 217v70h716v-70h-716z" />
    <glyph glyph-name="quoteleft" unicode="&#x2018;" horiz-adv-x="266" 
d="M129 398q-73 0 -73 104q0 125 118 189l27 -47q-41 -24 -61 -53t-20 -72q4 1 9 1q25 0 43 -15t18 -43q0 -29 -17 -46.5t-44 -17.5z" />
    <glyph glyph-name="quoteright" unicode="&#x2019;" horiz-adv-x="266" 
d="M92 405l-27 47q41 24 61 53t20 72q-4 -1 -9 -1q-25 0 -43 15t-18 43q0 29 17 46.5t44 17.5q73 0 73 -104q0 -125 -118 -189z" />
    <glyph glyph-name="quotesinglbase" unicode="&#x201a;" horiz-adv-x="266" 
d="M92 -153l-27 47q41 24 61 53t20 72q-4 -1 -9 -1q-25 0 -43 15t-18 43q0 29 17 46.5t44 17.5q73 0 73 -104q0 -125 -118 -189z" />
    <glyph glyph-name="quotedblleft" unicode="&#x201c;" horiz-adv-x="463" 
d="M129 398q-73 0 -73 104q0 125 118 189l27 -47q-41 -24 -61 -53t-20 -72q4 1 9 1q25 0 43 -15t18 -43q0 -29 -17 -46.5t-44 -17.5zM326 398q-73 0 -73 104q0 125 118 189l27 -47q-41 -24 -61 -53t-20 -72q4 1 9 1q25 0 43 -15t18 -43q0 -29 -17 -46.5t-44 -17.5z" />
    <glyph glyph-name="quotedblright" unicode="&#x201d;" horiz-adv-x="463" 
d="M92 405l-27 47q41 24 61 53t20 72q-4 -1 -9 -1q-25 0 -43 15t-18 43q0 29 17 46.5t44 17.5q73 0 73 -104q0 -125 -118 -189zM289 405l-27 47q41 24 61 53t20 72q-4 -1 -9 -1q-25 0 -43 15t-18 43q0 29 17 46.5t44 17.5q73 0 73 -104q0 -125 -118 -189z" />
    <glyph glyph-name="quotedblbase" unicode="&#x201e;" horiz-adv-x="463" 
d="M92 -153l-27 47q41 24 61 53t20 72q-4 -1 -9 -1q-25 0 -43 15t-18 43q0 29 17 46.5t44 17.5q73 0 73 -104q0 -125 -118 -189zM289 -153l-27 47q41 24 61 53t20 72q-4 -1 -9 -1q-25 0 -43 15t-18 43q0 29 17 46.5t44 17.5q73 0 73 -104q0 -125 -118 -189z" />
    <glyph glyph-name="bullet" unicode="&#x2022;" horiz-adv-x="318" 
d="M159 136q-49 0 -84 36t-35 91t35 91t84 36t84 -36t35 -91t-35 -91t-84 -36z" />
    <glyph glyph-name="ellipsis" unicode="&#x2026;" horiz-adv-x="958" 
d="M157 -12q-29 0 -49 20.5t-20 51.5q0 32 20 53t49 21t49 -21t20 -53q0 -31 -20 -51.5t-49 -20.5zM491 -12q-29 0 -49 20.5t-20 51.5q0 32 20 53t49 21t49 -21t20 -53q0 -31 -20 -51.5t-49 -20.5zM825 -12q-29 0 -49 20.5t-20 51.5q0 32 20 53t49 21t49 -21t20 -53
q0 -31 -20 -51.5t-49 -20.5z" />
    <glyph glyph-name="guilsinglleft" unicode="&#x2039;" horiz-adv-x="278" 
d="M182 63l-136 151v76l136 151l42 -34l-116 -155l116 -156z" />
    <glyph glyph-name="guilsinglright" unicode="&#x203a;" horiz-adv-x="278" 
d="M96 63l-42 33l116 156l-116 155l42 34l136 -151v-76z" />
    <glyph glyph-name="fraction" unicode="&#x2044;" horiz-adv-x="89" 
d="M-168 -12l358 679h66l-359 -679h-65z" />
    <glyph glyph-name="four.sups" unicode="&#x2074;" horiz-adv-x="370" 
d="M117 540h101v61l5 111h-4l-47 -79zM346 486h-58v-98h-70v98h-178v40l156 252h92v-238h58v-54z" />
    <glyph glyph-name="Euro" unicode="&#x20ac;" horiz-adv-x="507" 
d="M500 81q-34 -44 -77 -68.5t-98 -24.5q-92 0 -156 62.5t-83 177.5h-64v52l58 4q-1 16 -1 33q0 15 1 30h-58v52l64 4q19 117 86 181.5t166 64.5q45 0 85 -21.5t68 -56.5l-59 -58q-20 24 -44 39t-53 15q-58 0 -95 -43t-50 -120h242v-57h-247q-1 -13 -1 -27q0 -18 1 -35h207
v-57h-201q14 -75 49.5 -116.5t90.5 -41.5q62 0 110 65z" />
    <glyph glyph-name="minus" unicode="&#x2212;" horiz-adv-x="507" 
d="M34 292v76h439v-76h-439z" />
    <glyph glyph-name="uni2215" unicode="&#x2215;" horiz-adv-x="89" 
d="M-168 -12l358 679h66l-359 -679h-65z" />
    <glyph glyph-name="uni25CC" unicode="&#x25cc;" horiz-adv-x="583" 
d="M291 423q-36 0 -36 40q0 38 36 38q38 0 38 -38q0 -40 -38 -40zM185 397q-15 0 -26 10.5t-11 28.5q0 20 11 29.5t26 9.5q38 0 38 -39t-38 -39zM396 396q-14 0 -25 10.5t-11 29.5t11 28.5t25 9.5q16 0 27.5 -9.5t11.5 -28.5q0 -40 -39 -40zM107 315q-14 0 -25 11t-11 30
t11 28.5t25 9.5q38 0 38 -38q0 -41 -38 -41zM476 315q-15 0 -26.5 10.5t-11.5 28.5q0 19 11.5 28.5t26.5 9.5t26 -9.5t11 -28.5q0 -39 -37 -39zM503 205q-38 0 -38 40q0 38 38 38q14 0 26 -9.5t12 -28.5q0 -40 -38 -40zM79 205q-14 0 -25 10.5t-11 29.5t11 28.5t25 9.5
q39 0 39 -38q0 -40 -39 -40zM476 96q-15 0 -26.5 10.5t-11.5 28.5q0 19 11.5 29.5t26.5 10.5t26 -10.5t11 -29.5q0 -39 -37 -39zM107 96q-14 0 -25 10.5t-11 28.5q0 19 11 29.5t25 10.5q38 0 38 -40q0 -39 -38 -39zM396 14q-14 0 -25 11t-11 30q0 18 11 27.5t25 9.5
q16 0 27.5 -9.5t11.5 -27.5q0 -41 -39 -41zM185 14q-15 0 -26 11t-11 30q0 18 11 27.5t26 9.5q38 0 38 -37q0 -41 -38 -41zM291 -13q-36 0 -36 40q0 38 36 38q38 0 38 -38q0 -40 -38 -40z" />
    <glyph glyph-name="arKaf.isol" horiz-adv-x="615" 
d="M137 0l-87 105h410v519h105v-520q0 -45 -31.5 -74.5t-74.5 -29.5h-322z" />
    <glyph glyph-name="arLam.init.1" horiz-adv-x="218" 
d="M-170 0v105h233v519h105v-520q0 -45 -31.5 -74.5t-74.5 -29.5h-232z" />
    <glyph glyph-name="arAlef.fina.1" horiz-adv-x="220" 
d="M60 90q51 25 86.5 60.5t33.5 112.5v0l-107 369l100 30l121 -416l-16 -5q-12 -41 -43.5 -79t-91.5 -72h-83z" />
    <glyph glyph-name="arHah.isol2" horiz-adv-x="568" 
d="M156 -267q-50 0 -78 31t-28 78v125q0 54 38 96t102 42h137q-5 5 -7 8q-34 38 -68.5 79.5t-105.5 68.5l38 98q64 -24 105.5 -58.5t67 -67.5t41.5 -50q24 -27 38 -36.5t31 -10t51 -0.5v-53q0 -17 -16 -50t-63 -33h-248q-13 0 -24 -9t-11 -24v-234z" />
    <glyph glyph-name="arHah.fina2" horiz-adv-x="518" 
d="M156 -267q-50 0 -78 31t-28 78v125q0 54 38 96t102 42h137q-5 5 -7 8q-34 38 -68.5 79.5t-105.5 68.5l38 98q64 -24 105.5 -58.5t67 -67.5t41.5 -50q24 -27 38 -36.5t31 -10t51 -0.5v-53q0 -17 -16 -50t-63 -33h-248q-13 0 -24 -9t-11 -24v-234z" />
    <glyph glyph-name="arLam.medi.1" horiz-adv-x="169" 
d="M-170 0v105h233v519h105v-520q0 -45 -31.5 -74.5t-74.5 -29.5h-232z" />
    <glyph glyph-name="ar1Dot.above" 
d="M0 -52q-22 0 -37 15t-15 37t15 37t37 15t37 -15t15 -37t-15 -37t-37 -15z" />
    <glyph glyph-name="ar2Dot.above" 
d="M-88 -52q-22 0 -37 15t-15 37t15 37t37 15t37 -15t15 -37t-15 -37t-37 -15zM88 -52q-22 0 -37 15t-15 37t15 37t37 15t37 -15t15 -37t-15 -37t-37 -15z" />
    <glyph glyph-name="ar3Dot.above" 
d="M-88 -52q-22 0 -37 15t-15 37t15 37t37 15t37 -15t15 -37t-15 -37t-37 -15zM88 -52q-22 0 -37 15t-15 37t15 37t37 15t37 -15t15 -37t-15 -37t-37 -15zM0 73q-22 0 -37 15t-15 37t15 37t37 15t37 -15t15 -37t-15 -37t-37 -15z" />
    <glyph glyph-name="ar3IDot.above" 
d="M0 -52q-22 0 -37 15t-15 37t15 37t37 15t37 -15t15 -37t-15 -37t-37 -15zM-88 63q-22 0 -37 15t-15 37t15 37t37 15t37 -15t15 -37t-15 -37t-37 -15zM88 63q-22 0 -37 15t-15 37t15 37t37 15t37 -15t15 -37t-15 -37t-37 -15z" />
    <glyph glyph-name="ar1Dot.below" 
d="M0 -52q-22 0 -37 15t-15 37t15 37t37 15t37 -15t15 -37t-15 -37t-37 -15z" />
    <glyph glyph-name="ar2Dot.below" 
d="M-88 -52q-22 0 -37 15t-15 37t15 37t37 15t37 -15t15 -37t-15 -37t-37 -15zM88 -52q-22 0 -37 15t-15 37t15 37t37 15t37 -15t15 -37t-15 -37t-37 -15z" />
    <glyph glyph-name="ar3IDot.below" 
d="M0 -167q-22 0 -37 15t-15 37t15 37t37 15t37 -15t15 -37t-15 -37t-37 -15zM-88 -52q-22 0 -37 15t-15 37t15 37t37 15t37 -15t15 -37t-15 -37t-37 -15zM88 -52q-22 0 -37 15t-15 37t15 37t37 15t37 -15t15 -37t-15 -37t-37 -15z" />
    <glyph glyph-name="arKaf.above" 
d="M-4 181h100v-70h-63l21 -45q4 -9 8 -21.5t-6 -26.5q-9 -13 -22 -15.5t-20 -2.5h-110v70h71l-21 44l-6.5 15t3.5 31q13 21 45 21z" />
    <glyph glyph-name="arSad.above" 
d="M74 135q-17 6 -42 -11.5t-63 -71.5h127v33q0 27 -6.5 36t-15.5 14zM-149 0v52h53q22 32 50.5 69t63 58t76.5 5q28 -12 41 -38t14 -60l1 -33q1 -23 -15 -38t-38 -15h-246z" />
    <glyph glyph-name="arTah.above" 
d="M67 135q-17 6 -42 -11.5t-63 -71.5h127v33q0 27 -6.5 36t-15.5 14zM-142 0v52h39v1v259h53v-187q28 33 61.5 53.5t74.5 5.5q28 -12 41.5 -38t14.5 -60v-33q1 -23 -14.5 -38t-37.5 -15h-232z" />
    <glyph glyph-name="arGaf.above" 
d="M182 45q-10 0 -49 -8.5t-91 -23t-103 -33t-84 -39.5l-37 59q54 34 130 59t142 40t90 15z" />
    <glyph glyph-name="arKaf.fina" horiz-adv-x="565" 
d="M137 0l-87 105h410v519h105v-520q0 -45 -31.5 -74.5t-74.5 -29.5h-322z" />
    <glyph glyph-name="extender" 
d="M-15 105h30v-105h-30v105z" />
    <glyph glyph-name="uni0302" 
d="M-164 605l112 136h104l112 -136l-42 -39l-120 106h-4l-120 -106z" />
    <glyph glyph-name="uni0300.cap" 
d="M15 691l-163 116l58 69l151 -132z" />
    <glyph glyph-name="uni0327" 
d="M-92 -231l-9 47q61 4 84 15t23 33q0 18 -17 29t-60 17l45 93h65l-29 -66q35 -8 54.5 -24.5t19.5 -47.5q0 -46 -46 -69t-130 -27z" />
    <glyph glyph-name="one.dnom" horiz-adv-x="370" 
d="M170 0v299h-86v50q35 6 57 15.5t44 25.5h64v-390h-79z" />
    <glyph glyph-name="uni0301.cap" 
d="M-15 691l-46 53l151 132l58 -69z" />
    <glyph glyph-name="uni0303" 
d="M70 576q-34 0 -57 19t-42 38.5t-40 19.5q-37 0 -42 -71l-68 4q2 64 28.5 102.5t80.5 38.5q34 0 57 -19.5t42 -38.5t40 -19q37 0 42 71l68 -4q-2 -65 -28.5 -103t-80.5 -38z" />
    <glyph glyph-name="uni0302.cap" 
d="M-155 725l99 112h112l99 -112l-45 -31l-108 90h-4l-108 -90z" />
    <glyph glyph-name="four.dnom" horiz-adv-x="370" 
d="M117 152h101v61l5 111h-4l-47 -79zM346 98h-58v-98h-70v98h-178v40l156 252h92v-238h58v-54z" />
    <glyph glyph-name="uni0300" 
d="M6 573l-165 154l72 69l145 -172z" />
    <glyph glyph-name="three.dnom" horiz-adv-x="370" 
d="M182 -12q-49 0 -87.5 21t-61.5 56l50 39q38 -55 93 -55q29 0 50 16.5t21 45.5q0 64 -112 64v47q46 0 71.5 18t25.5 46q0 25 -17 40t-46 15q-21 0 -40 -12.5t-34 -32.5l-46 41q27 31 58.5 48t73.5 17q53 0 91 -28t38 -78q0 -34 -18 -57t-47 -37q32 -10 56 -34t24 -62
q0 -54 -42.5 -86t-100.5 -32z" />
    <glyph glyph-name="uni030A" 
d="M0 557q-56 0 -86.5 29t-30.5 72t30.5 71.5t86.5 28.5t86.5 -28.5t30.5 -71.5t-30.5 -72t-86.5 -29zM0 600q22 0 37 16t15 42t-15 41.5t-37 15.5t-37 -15.5t-15 -41.5t15 -42t37 -16z" />
    <glyph glyph-name="uni0308" 
d="M101 581q-25 0 -41 16.5t-16 40.5t16 40.5t41 16.5t41 -16.5t16 -40.5t-16 -40.5t-41 -16.5zM-101 581q-25 0 -41 16.5t-16 40.5t16 40.5t41 16.5t41 -16.5t16 -40.5t-16 -40.5t-41 -16.5z" />
    <glyph glyph-name="two.dnom" horiz-adv-x="370" 
d="M50 0v44q86 75 133 125.5t47 91.5q0 75 -69 75q-23 0 -43 -15t-37 -38l-46 42q25 35 60.5 56t76.5 21q61 0 98 -33t37 -95q0 -53 -38 -101t-93 -106h149v-67h-275z" />
    <glyph glyph-name="uni0308.cap" 
d="M105 710q-24 0 -40 16t-16 40q0 25 16 40.5t40 15.5q25 0 40.5 -15.5t15.5 -40.5q0 -24 -15.5 -40t-40.5 -16zM-105 710q-25 0 -40.5 16t-15.5 40q0 25 15.5 40.5t40.5 15.5q24 0 40 -15.5t16 -40.5q0 -24 -16 -40t-40 -16z" />
    <glyph glyph-name="uni0303.cap" 
d="M74 703q-37 0 -61 16.5t-43.5 33.5t-40.5 17q-38 0 -44 -61l-69 6q3 63 33 96t77 33q37 0 61 -16.5t43.5 -33t40.5 -16.5q37 0 44 60l69 -5q-3 -63 -33 -96.5t-77 -33.5z" />
    <glyph glyph-name="uni0301" 
d="M-6 573l-52 51l145 172l72 -69z" />
    <glyph glyph-name="zero.dnom" horiz-adv-x="370" 
d="M185 -12q-68 0 -110.5 54.5t-42.5 153.5q0 98 42.5 152t110.5 54t111 -54t43 -152q0 -99 -43 -153.5t-111 -54.5zM185 49q34 0 56 36t22 111t-22 110t-56 35t-56 -35t-22 -110t22 -111t56 -36z" />
    </font>
</defs>
</svg>
