<?xml version="1.0" standalone="no"?>
<!DOCTYPE svg PUBLIC "-//W3C//DTD SVG 1.1//EN" "http://www.w3.org/Graphics/SVG/1.1/DTD/svg11.dtd" >
<svg xmlns="http://www.w3.org/2000/svg" xmlns:xlink="http://www.w3.org/1999/xlink" version="1.1">
<metadata>
Created by FontForge 20170731 at Wed Dec 23 02:50:18 2009
 By Aleksey,,,
AA Sameer Khashab 
</metadata>
<defs>
<font id="AASameerKhashab-Bold-Bold" horiz-adv-x="0" >
  <font-face 
    font-family="AA Sameer Khashab-Bold"
    font-weight="400"
    font-stretch="normal"
    units-per-em="750"
    panose-1="2 0 0 0 0 0 0 0 0 0"
    ascent="600"
    descent="-150"
    bbox="-1033 -484 1112 1702"
    underline-thickness="30"
    underline-position="-475"
    unicode-range="U+0020-FEFC"
  />
<missing-glyph horiz-adv-x="600" 
d="M100 0v500h400v-500h-400zM113 13h374v474h-374v-474z" />
    <glyph glyph-name="uni0622" unicode="&#x627;&#x653;" horiz-adv-x="272" 
d="M298 626l-79 -55l-108 45l-83 -67v115l80 58l108 -45l82 65v-116zM261 660l7 17q12 28 17 10l-30 -18l1 -4q0 -5 -16 -16l-19 9l24 -48l-14 49l-26 -24l-14 20l-8 10q-8 8 -1 4l-1 -8q-2 -12 -16 -30q-4 -5 -4 -9q0 -16 -19 3l33 -6l16 -3q6 0 -6 -48q0 54 15 64
q11 -7 7 3q-1 -6 26 8l9 -22l8 -20q-24 -4 -10.5 8t18.5 22l3 9l1 9v6q0 4 -1 5zM151 682v5h-11q0 1 -14 -18q-19 10 -17 8.5t-6 23.5q-8 -32 -20 -43l-42 45q36 -23 27 -33q-13 -16 -12 -16v-38l-6 -8l10 16v8l2 8q0 3 11 14l13 -6l5 -3q3 -1 -5 5q0 -8 27 20l13 -33
q3 -7 2 -6l3 2l5 3q7 4 11 12l4 9l1 11v8q0 5 -1 6zM226 554l2 -548l-176 -20l18 585zM197 31l-2 500l-13 1l-27 -80l-17 85h-1l-16 -96l-20 100h1l-16 -526l21 4l3 105l37 -102l12 3l15 112l19 -106h4z" />
    <glyph glyph-name="uni0623" unicode="&#x627;&#x654;" horiz-adv-x="199" 
d="M188 601v-587l-176 -21l21 624zM158 36l-1 541l-13 1l-27 -80l-17 85h-1l-15 -96l-21 101h-1l-18 -569l24 3l1 119l35 -111l14 1l17 115l17 -110h6zM12 785q0 29 33 50q28 14 63 14q23 0 49 -9l-2 -14q-1 -4 -1.5 -7.5t-3.5 -10.5l-4 -14l-4 -18q-15 0 -25 3l-14 2
q-1 0 -1 -1q0 -5 8 -18q17 -27 33 -27h4l30 3l1 -36l4 -28q-23 0 -45 -2q-6 0 -15.5 -1t-27.5 -4l-66 -8l-5 62l41 3l-7 5q-16 9 -22 15q-23 19 -23 41zM35 785q0 -17 23 -35q10 -8 21 -13q10 -4 15 -4l10 -1h12h6q19 0 0 -9l-12 5l-13 6q-2 0 -17 12l11 4l-1 2
q-14 15 -14 29q0 21 31 21l10 -1v0v0v-1q-1 0 -35 12l28 5l-27 11l26 3q-2 1 -11 1q-15 0 -39 -14q-24 -15 -24 -33zM130 698h-1h1v0v0zM27 789q0 12 16 22l10 -11l-1 -6l-2 -5q0 -4 7 -14l-14 -11l-8 9l-5 6zM39 791q0 13 16 19l9 -10l-1 -5l-1 -4q0 -4 7 -16l-7 -7
q-15 0 -20 10zM153 689l-2 -5l-34 3l24 10l-25 5l36 12v-2l-101 -7v0l52 -3l-53 -15v2l36 -2l-11 -5z" />
    <glyph glyph-name="uni0624" unicode="&#x648;&#x654;" horiz-adv-x="395" 
d="M78 97q10 62 76 93q39 17 84 17q23 0 41 -4q64 -10 96 -40t32 -74q0 -10 -2 -25q-7 -39 -21 -71q-18 -42 -53 -85q-16 -20 -59 -53l-78 -58q-47 -34 -72 -54l-103 96l53 41l60 44q32 24 35 28q-34 12 -65 58q-13 18 -19 37.5t-6 34.5zM109 97l-1 -10q0 -14 5.5 -34
t17 -37.5t37.5 -36.5l15 -10l9 8q-19 8 -39 75l41 -48q2 -2 15 -8l-1 1l5 4q-8 7 -15 16q-6 9 -14 42l43 -39l5 8l-1 1l-3 4l-9 11q-9 12 -9 20q3 16 16 27q8 6 16 8l18 1q28 -5 28 -26v-9l-1 -5q-4 -20 -75 -100l-34 -27l-63 -49l-56 -44l4 -4l108 54l-84 -80l6 -5l91 65
l-66 -89l4 -3l33 24q31 21 50 35q22 17 35 28q45 36 66 59q28 33 50 84q16 40 22 75v9q0 33 -25.5 54.5t-81.5 32.5q-18 3 -35 3q-39 0 -64 -11.5t-40.5 -28t-22.5 -45.5zM240 67l2 -7l6 -9l5 -7l-4 5l10 16v3q0 4 -2 7v2l-9 -2l-3.5 -3t-4.5 -5zM147 87q3 21 19.5 42.5
t78.5 34.5q-47 -28 -60 -53l-35 -89l-4 44v4v8zM263 -36l31 26l15 -24l-23 -20zM181 88q6 34 59 43l-26 -36l-9 -15l-18 -45l-6 44v9zM51 395q0 28 33 49q27 15 63 15q23 0 48 -9l-1 -14q-1 -5 -2 -8t-4 -10l-4 -15l-3 -18q-15 0 -25 3l-14 3q-1 0 -1 -1q0 -5 7 -18
q17 -27 33 -27h4l30 2l2 -36l3 -27q-22 0 -44 -3q-6 0 -15.5 -1t-28.5 -4l-66 -7l-4 61l41 4l-8 5q-15 9 -21 14q-23 19 -23 42zM74 394q0 -16 22 -34q11 -9 21 -14q10 -4 16 -4h9h13h6q18 0 0 -9l-12 5l-14 6q-1 0 -16 11l10 4v2q-14 16 -14 30q0 20 31 20h10v0v-1l-1 -1
l-34 13l27 5l-27 11l26 3h-10q-15 0 -40 -13q-23 -15 -23 -34zM168 308v0v-1v1v0zM66 399q0 11 15 22l11 -11l-2 -6l-1 -5q0 -4 6 -14l-13 -12l-9 9l-4 7zM78 401q0 12 15 18l9 -9l-1 -5l-1 -4q0 -4 8 -16l-8 -7q-15 0 -19 10zM191 299l-1 -6l-35 4l25 9l-26 6l36 12l1 -2
l-101 -7v0l52 -3l-53 -15v2l35 -2l-11 -5z" />
    <glyph glyph-name="uni0625" unicode="&#x627;&#x655;" horiz-adv-x="199" 
d="M188 601v-587l-176 -21l21 624zM158 36l-1 541l-13 1l-27 -80l-17 85h-1l-15 -96l-21 101h-1l-18 -569l24 3l1 119l35 -111l14 1l17 115l17 -110h6zM8 -134q0 29 33 50q28 14 63 14q23 0 49 -9l-2 -14q-1 -4 -1.5 -7.5t-3.5 -10.5l-4 -14l-4 -18q-15 0 -25 3l-14 2
q-1 0 -1 -1q0 -5 8 -18q17 -27 33 -27h4l30 3l1 -36l4 -28q-23 0 -45 -2q-6 0 -15.5 -1t-27.5 -4l-66 -8l-5 62l41 3l-7 5q-16 9 -22 15q-23 19 -23 41zM31 -134q0 -17 23 -35q10 -8 21 -13q10 -4 15 -4l10 -1h12h6q19 0 0 -9l-12 5l-13 6q-2 0 -17 12l11 4l-1 2
q-14 15 -14 29q0 21 31 21l10 -1v0v0v-1q-1 0 -35 12l28 5l-27 11l26 3q-2 1 -11 1q-15 0 -39 -14q-24 -15 -24 -33zM126 -221h-1h1v0v0zM23 -130q0 12 16 22l10 -11l-1 -6l-2 -5q0 -4 7 -14l-14 -11l-8 9l-5 6zM35 -128q0 13 16 19l9 -10l-1 -5l-1 -4q0 -4 7 -16l-7 -7
q-15 0 -20 10zM149 -230l-2 -5l-34 3l24 10l-25 5l36 12v-2l-101 -7v0l52 -3l-53 -15v2l36 -2l-11 -5z" />
    <glyph glyph-name="uni0626" unicode="&#x649;&#x654;" horiz-adv-x="643" 
d="M19 222q0 28 33 49q28 15 63 15q23 0 48 -9l-1 -14q-1 -5 -2 -8t-4 -10l-4 -15l-3 -18q-15 0 -25 3l-14 3q-1 0 -1 -1q0 -5 8 -18q16 -27 32 -27h4l31 2l1 -36l3 -27q-22 0 -44 -3q-6 0 -15.5 -1t-28.5 -4l-66 -7l-4 61l41 4l-8 5q-15 9 -21 14q-23 19 -23 42zM42 221
q0 -16 23 -34q10 -9 20 -14q10 -4 16 -4h9h13h6q18 0 0 -9l-12 5l-14 6q-1 0 -16 11l10 4v2q-14 16 -14 30q0 20 31 20h10v0v-1l-1 -1l-34 13l27 5l-27 11l26 3h-10q-15 0 -40 -13q-23 -15 -23 -34zM136 135v0v-1v1v0zM34 226q0 11 15 22l11 -11l-2 -6l-1 -5q0 -4 6 -14
l-13 -12l-9 9l-4 7zM46 228q0 12 15 18l9 -9l-1 -5v-4q0 -4 7 -16l-7 -7q-15 0 -20 10zM159 126l-1 -6l-35 4l25 9l-26 6l36 12l1 -2l-101 -7v0l52 -3l-53 -15v2l35 -2l-11 -5zM171 -3h6l-31 -83l-6 87h2l-28 -130l-7 140l-21 5l-11 -89h81zM143 -225l-99 -2l-5 -5v-18
l27 -2l20 44l14 -45h4l27 49l5 -53l2 -1zM125 -148l-19 -18l-19 18l19 18zM453 43l17 51h114l1 14l-66 23l65 5l1 35l-31 11l30 14l2 14h-5l-12 1l-40 -2l-16 -1h-7.5t-10.5 -2q-46 -6 -65 -22.5t-32 -49.5q-5 -16 -8 -32l-2 -16l-1 -19q0 -37 11.5 -66.5t32.5 -41.5l15 -4
l17 -1h7h5l4 1l21 3l-4 -25q-4 -16 -11 -33q-21 -47 -61 -75q-10 -8 -21 -14l-22 -9q-11 -4 -25 -6l-18 -2l-9 -1q-22 0 -37 4q-51 12 -81.5 39.5t-37.5 66.5l-129 1l-1 -9l79 -14l-82 -14l-2 -30l88 -18l-91 -13l-1 -4l173 1q8 -28 25 -43q12 -10 38 -22l52 -19l8 -2l15 -4
q8 -1 11 -1h7q59 0 122 54q55 48 83 108q14 31 14 53q0 20 -14 40q-11 13 -43 34q-16 11 -72 42zM615 -87l-7 -18q-8 -24 -19 -44l-7 -14l-7 -12l-7 -10l-7 -11q-41 -52 -88 -83q-26 -15 -54 -24l-28 -6q-14 -3 -29 -3q-19 0 -35 3l-8 1q-6 0 -11 3l-8 1l-9 3q-18 5 -31 13
q-11 5 -30 18q-24 16 -45 35l-2 2l-8 -54l-173 12l4 47l-14 3l9 152l39 -1l15 119l159 -26l-3 -21q-5 -40 -12 -66q6 -39 31 -73q30 -38 70 -38q59 0 101 28q28 19 49 54l10 25h-9q-22 3 -40 10q-28 14 -45 53q-7 19 -11 36q-2 7 -3 17t-1 19q0 24 6 40l7 32l6 21
q7 29 36 49q20 15 62 26q36 6 70 6h79v-164h-123l-7 -19q63 -37 80 -50q50 -39 50 -75q0 -11 -2 -16zM471 -41l-5 1q-18 5 -31 18q-15 18 -15 31l12 26q17 -34 27 -45q2 -3 9 -9l27 -25zM511 -189q0 -3 -6 -9l-9 -7l-11 -11q-5 -7 -19 -12q-1 -1 -4 -3.5t-7.5 -5.5t-8.5 -5
t-12 -4l-29 -4q21 19 59 44q23 14 35 49zM461 -168q0 -13 -16 -31q-12 -13 -30 -19l-6 -1l-24 -3l27 26q8 6 10 9q9 11 26 45z" />
    <glyph glyph-name="uni06C0" unicode="&#x647;&#x654;" horiz-adv-x="305" 
d="M272 45q-4 -5 -9.5 -10t-12.5 -11q-12 -9 -28 -16q-13 -5 -30 -10l-15 -2l-16 -1q-25 0 -52.5 9.5t-47.5 27.5q-24 21 -36.5 49t-12.5 58q0 7 0.5 13.5t2 15.5t5.5 21q10 22 29 44.5t49.5 36t61.5 13.5q26 0 51.5 -9t48 -28t35.5 -49t13 -59q0 -24 -9 -48.5t-27 -44.5z
M241 63q14 16 21 35l6 21q2 11 2 21q0 25 -10 47.5t-29 39.5q-15 13 -34 20l-19 6q-10 2 -19 2q-23 0 -44 -9.5t-38 -28.5q-14 -16 -21.5 -36t-7.5 -40q0 -25 9.5 -47.5t29.5 -40.5q15 -13 34 -20t38 -7q21 0 43.5 9t38.5 28zM219 188q-38 24 -58 24l-15 -1q0 20 22 20
q14 0 31 -8t20 -35zM207 104q-17 -21 -47 -21q-25 0 -42 15q-20 18 -20 43q0 20 14 36q19 21 47 21q22 0 42 -16q20 -17 20 -42q0 -18 -14 -36zM220 112q0 -33 -11 -42q-11 -11 -30 -11l-22 4l19 9l6 4l9 8zM245 130q0 -64 -22.5 -82.5t-69.5 -18.5l41 23q7 4 9 6
q17 13 42 72zM113 243q-42 -64 -59 -169l-10 64l-1 9q0 36 70 96zM78 104q-21 31 -21 43l3 14l3 13q9 25 36 25q-14 -26 -21 -95zM180 116l7 11l1 5l1 7q0 15 -12 28q-8 7 -18 7q-12 0 -22 -11q-4 -3 -6 -8l-1 -7l-1 -6q0 -17 12 -28l9 -6q4 -1 9 -1q12 0 21 9zM66 451
q0 29 33 50q28 14 63 14q23 0 49 -9l-2 -14q-1 -4 -2 -7.5l-3 -10.5l-4 -14l-4 -18q-15 0 -25 3l-14 2q-1 0 -1 -1q0 -5 8 -18q17 -27 33 -27h4l30 3l1 -36l3 -28q-22 0 -44 -2q-6 0 -15.5 -1t-27.5 -4l-66 -8l-5 62l41 3l-7 5q-16 9 -22 15q-23 19 -23 41zM89 451
q0 -17 23 -35q10 -8 21 -13q9 -4 15 -4l10 -1h12h6q18 0 0 -9l-12 5q-14 6 -13 6q-2 0 -17 12l11 4l-1 2q-14 15 -14 29q0 21 31 21l10 -1v0v0v-1q-1 0 -35 12l28 5l-27 11l26 3q-2 1 -11 1q-15 0 -39 -14q-24 -15 -24 -33zM183 364v0v0v0v0zM81 455q0 12 16 22l10 -11
l-2 -6l-1 -5q0 -4 7 -14l-14 -11l-8 9l-5 6zM93 457q0 13 16 19l9 -10l-2 -5v-4q0 -4 7 -16l-7 -7q-15 0 -20 10zM206 355l-1 -5l-34 3l24 10l-25 5l35 12l1 -2l-101 -7v0l52 -3l-53 -15v2l35 -2l-11 -5z" />
    <glyph glyph-name="uni06D3" unicode="&#x654;&#x6d2;" horiz-adv-x="984" 
d="M188 29q-22 27 -27 41l-3 12l-1 15q0 30 27 47l-6 -27l-1 -12l1 -21l1 -10v-3zM178 3q-39 41 -44 57t-5 33q0 32 33 52q-14 -35 -14 -56v-12l1 -7l1 -6l2 -10q0 -1 0.5 -2.5t25.5 -48.5zM335 158h11l12 -1h5h4l84 2l-2 26l-45 4l43 12l-2 23l-48 4l46 15l-2 18h-103h-23
l-36 -2q-36 0 -57.5 -3.5t-41.5 -9.5q-50 -17 -82 -57q-15 -21 -21.5 -41.5t-6.5 -45.5q0 -22 3.5 -41.5t9.5 -36.5q12 -31 33.5 -56t52.5 -42t81 -27h29l210 1h84l126 2l156 1l-4 21q-12 3 -41 14l-14 5l53 -1l-2 10l3 7l-8 2l-10 4q-11 5 -35 11l25 3l25 1l-3 36h-535
q-49 4 -74 30q-17 20 -17 47l1 12l2 9q11 22 51 36q33 8 63 8zM320 40h542l17 -158l-606 -3q-105 0 -169 66q-59 60 -59 147q0 57 27 100q22 36 69 65q20 10 73 19l53 5h22l36 2h13h6h5h4h5l10 1l109 1l6 -152l-115 1h-34q-43 0 -52 -3q-25 -5 -36 -22l-4 -9v-9
q0 -19 20 -35t58 -16zM177 442q0 28 33 49q28 15 63 15q23 0 48 -9l-1 -14q-1 -5 -2 -8t-4 -10l-4 -15l-3 -18q-15 0 -25 3l-14 3q-1 0 -1 -1q0 -5 8 -18q16 -27 32 -27h4l31 2l1 -36l3 -27q-22 0 -44 -3q-6 0 -15.5 -1t-28.5 -4l-66 -7l-4 61l41 4l-8 5q-15 9 -21 14
q-23 19 -23 42zM200 441q0 -16 23 -34q10 -9 20 -14q10 -4 16 -4h9h13h6q18 0 0 -9l-12 5l-14 6q-1 0 -16 11l10 4v2q-14 16 -14 30q0 20 31 20h10v0v-1l-1 -1l-34 13l27 5l-27 11l26 3h-10q-15 0 -40 -13q-23 -15 -23 -34zM294 355v0v-1v1v0zM192 446q0 11 15 22l11 -11
l-2 -6l-1 -5q0 -4 6 -14l-13 -12l-9 9l-4 7zM204 448q0 12 15 18l9 -9l-1 -5v-4q0 -4 7 -16l-7 -7q-15 0 -20 10zM317 346l-1 -6l-35 4l25 9l-26 6l36 12l1 -2l-101 -7v0l52 -3l-53 -15v2l35 -2l-11 -5z" />
    <glyph glyph-name="uniFEF5" unicode="&#xfedf;&#xfe82;" horiz-adv-x="588" arabic-form="isolated" 
d="M288 582l-79 -55l-108 45l-83 -67v115l80 58l108 -45l82 65v-116zM251 616l7 17q12 28 17 10l-30 -18l1 -4q0 -5 -16 -16l-19 9l24 -48l-14 49l-26 -24l-14 20l-8 10q-8 8 -1 4l-1 -8q-2 -12 -16 -30q-4 -5 -4 -9q0 -15 -19 3l33 -6l16 -3q6 0 -6 -48q0 54 15 64
q11 -7 7 3q-1 -6 26 8l9 -22l8 -20q-24 -4 -10.5 8t18.5 22l3 9l1 9v6q0 4 -1 5zM141 638v5h-11q0 1 -14 -18q-19 10 -17 8.5t-6 23.5q-8 -32 -20 -43l-42 46q36 -24 27 -34q-13 -16 -12 -16v-38l-6 -8l10 16v8l2 8q0 3 11 14l13 -6l5 -3q3 -1 -5 5q0 -8 27 20l13 -33
q3 -7 2 -6l3 2l5 3q7 4 11 12l4 9l1 11v8q0 5 -1 6zM532 -95l-195 -1l15 117h-24l27 -116h-171l-11 114h-71l15 166l23 1l-93 314l176 -18l87 -296h54l33 418l175 8zM501 -71l38 657h-13v-147l-38 142l-4 -1l-19 -108l-33 107h-6l-52 -653h18l10 142l28 -141l13 1l27 123
l15 -121zM276 186l-80 275l-7 1l-19 -94l-16 97h-6l-16 -80l-29 85l-15 1l82 -285h106zM352 40l12 123l-217 -1l1 -22l84 -6l-88 -26l-5 -26l109 -21l-110 -7l-2 -15zM317 -75l-22 92h-91l10 -91h9l4 68l28 -68h4l14 61l20 -60zM460 72l-20 -18l-18 18l18 18zM235 100
l-19 -21l-18 21l18 19z" />
    <glyph glyph-name="uniFEF6" unicode="&#xfee0;&#xfe82;" horiz-adv-x="525" arabic-form="final" 
d="M280 590l-79 -55l-108 45l-83 -68v116l80 58l108 -46l82 65v-115zM243 623l7 17q12 28 17 11l-30 -19l1 -3q0 -6 -16 -17l-19 9l24 -48l-14 50l-26 -25l-14 20l-8 10q-8 8 -1 5l-1 -9q-2 -12 -16 -29q-4 -6 -4 -10q0 -15 -19 4l33 -7l16 -2q6 0 -6 -49q0 54 15 64
q11 -7 7 4q-1 -6 26 8l9 -23l8 -19q-24 -5 -10.5 7t18.5 22l3 9l1 9v7q0 3 -1 4zM133 646v5h-11l-14 -18q-19 9 -17 7.5t-6 23.5q-8 -31 -20 -43l-42 46q36 -24 27 -33q-13 -17 -12 -17v-37l-6 -9l10 17v7l2 9q0 3 11 13l13 -6l5 -3q3 -1 -5 5q0 -7 27 20l13 -33q3 -7 2 -5
l3 1l5 3q7 5 11 12l4 10l1 11v7q0 6 -1 7zM532 -38l-174 12l-4 21h-12l14 -61l-180 -5l-9 65l-128 1l13 164h88l-61 394l174 -20l57 -374h36l-9 456l179 8l2 -463l28 -1v-164h-18zM493 -10l2 47l20 11l-24 17v18l17 14l-20 4v17l24 16l-26 14l-2 447l-18 -5v-148l-33 143h1
l-11 -135l-29 134l-26 4l17 -583l5 -2l18 106l20 -114l25 -1l24 118l19 -122h-3zM277 159l-54 351l-12 2l-30 -100l-7 102v0l-42 -84l-2 96l-17 1l63 -368h101zM352 19l-3 117l-266 1v-16l87 -14l-89 -16v-33l94 -20l-98 -13l-2 -7zM313 -42l-7 37l-106 -1l5 -38h10l4 56
l28 -54h4l14 49l20 -49h28zM460 72l-20 -18l-19 18l19 18zM172 75l-19 -20l-18 20l18 19z" />
    <glyph glyph-name="uniFEF7" unicode="&#xfedf;&#xfe84;" horiz-adv-x="568" arabic-form="isolated" 
d="M34 650q0 29 33 49q28 15 63 15q23 0 49 -9l-2 -14q-1 -5 -1.5 -8t-3.5 -10l-4 -15l-4 -17q-15 0 -25 2l-14 3q-1 0 -1 -1q0 -5 8 -18q17 -27 33 -27h4l30 2l1 -35l4 -28q-23 0 -45 -3q-6 0 -15.5 -1t-27.5 -4l-66 -7l-5 62l41 3l-7 5q-16 9 -22 14q-23 19 -23 42z
M57 649q0 -16 23 -34q10 -9 21 -14q10 -4 15 -4h10h12h6q19 0 0 -9l-12 5l-13 6q-2 0 -17 11l11 5l-1 1q-14 16 -14 30q0 21 31 21l10 -1v0v-1v-1q-1 0 -35 13l28 5l-27 11l26 3q-2 1 -11 1q-15 0 -39 -14q-24 -15 -24 -34zM152 563h-1h1v0v0zM49 654q0 11 16 22l10 -11
l-1 -6l-2 -5q0 -4 7 -14l-14 -12l-8 10l-5 6zM61 656q0 12 16 19l9 -10l-1 -5l-1 -4q0 -4 7 -16l-7 -7q-15 0 -20 10zM175 554l-2 -5l-34 3l24 9l-25 6l36 12v-2l-101 -7v0l52 -3l-53 -15v2l36 -2l-11 -5zM532 -95l-195 -1l14 114l-27 -1l31 -112h-171l-11 114h-71l15 166
l23 1l-93 314l176 -18l86 -296h55l33 418l175 8zM501 -71l38 657h-14v-147l-37 142l-4 -1l-19 -108l-33 107h-6l-53 -653h18l11 142l28 -141l13 1l27 123l15 -121zM276 186l-80 275l-7 1l-20 -94l-15 97h-6l-16 -80l-29 85l-15 1l82 -285h106zM352 40l12 123l-217 -1l1 -22
l83 -6l-88 -26l-4 -26l109 -21l-110 -7l-2 -15zM317 -75l-22 92h-91l10 -91h9l4 68l27 -68h4l14 61l21 -60zM460 72l-20 -18l-18 18l18 18zM235 100l-19 -21l-18 21l18 19z" />
    <glyph glyph-name="uniFEF8" unicode="&#xfee0;&#xfe84;" horiz-adv-x="525" arabic-form="final" 
d="M38 672q0 29 33 49q28 15 63 15q23 0 49 -9l-2 -14q-1 -5 -1.5 -8t-3.5 -10l-4 -15l-4 -18q-15 0 -25 3l-14 3q-1 0 -1 -1q0 -5 8 -18q17 -27 33 -27h4l30 2l1 -35l4 -28q-23 0 -45 -3q-6 0 -15.5 -1t-27.5 -4l-66 -7l-5 62l41 3l-7 5q-16 9 -22 14q-23 19 -23 42z
M61 671q0 -16 23 -34q10 -9 21 -14q10 -4 15 -4h10h12h6q19 0 0 -9l-12 5l-13 6q-2 0 -17 11l11 4l-1 2q-14 16 -14 30q0 20 31 20h10v0v-1v-1q-1 0 -35 13l28 5l-27 11l26 3q-2 1 -11 1q-15 0 -39 -14q-24 -15 -24 -34zM156 585h-1l1 -1v1v0zM53 676q0 11 16 22l10 -11
l-1 -6l-2 -5q0 -4 7 -14l-14 -12l-8 10l-5 6zM65 678q0 12 16 19l9 -10l-1 -5l-1 -4q0 -4 7 -16l-7 -7q-15 0 -20 10zM179 576l-2 -5l-34 3l24 9l-25 6l36 12v-2l-101 -7v0l52 -3l-53 -15v2l36 -2l-11 -5zM532 -38l-174 12l-4 21h-12l15 -61l-181 -5l-9 65l-128 1l13 164h89
l-62 394l174 -20l57 -374h36l-9 456l180 8l1 -463l29 -1v-164h-19zM494 -10l1 47l21 11l-25 17v18l18 14l-21 4v17l24 16l-26 14l-2 447l-18 -5v-148l-33 143h1l-11 -135l-29 134l-26 4l17 -583l5 -2l19 106l19 -114l25 -1l24 118l19 -122h-2zM277 159l-54 351l-12 2
l-30 -100l-7 102v0l-42 -84l-2 96l-17 1l63 -368h101zM352 19l-3 117l-266 1v-16l87 -14l-89 -16l1 -33l93 -20l-98 -13l-2 -7zM313 -42l-7 37l-106 -1l5 -38h10l5 56l27 -54h4l14 49l20 -49h28zM460 72l-20 -18l-19 18l19 18zM172 75l-19 -20l-18 20l18 19z" />
    <glyph glyph-name="uniFEF9" unicode="&#xfedf;&#xfe88;" horiz-adv-x="536" arabic-form="isolated" 
d="M247 -185q0 29 33 50q28 14 63 14q23 0 48 -9l-1 -14q-1 -5 -2 -8t-4 -10l-3 -14l-4 -18q-15 0 -25 2l-14 3q-1 0 -1 -1q0 -5 8 -18q16 -27 32 -27h5l30 2l1 -35l3 -28q-22 0 -44 -2q-6 0 -15.5 -1.5l-28.5 -4.5l-65 -7l-5 62l41 3l-8 5q-15 9 -21 14q-23 19 -23 42z
M270 -186q0 -16 23 -34q10 -9 20 -13.5t16 -4.5h9h13h6q18 0 0 -9l-12 5l-14 6q-1 0 -16 12l10 4v1q-14 16 -14 30q0 21 31 21l10 -1v0v-1l-1 -1l-34 13l27 5l-27 11l26 3q-1 1 -10 1q-15 0 -40 -14q-23 -15 -23 -34zM364 -272v0v0v0v0zM262 -181q0 11 15 22l11 -11l-2 -6
l-1 -5q0 -4 6 -14l-13 -12l-9 10l-4 6zM274 -179q0 12 15 19l10 -10l-2 -5v-4q0 -4 7 -16l-7 -7q-15 0 -20 10zM387 -281l-1 -5l-35 3l25 9l-26 6l36 12l1 -2l-101 -7v0l52 -3l-53 -15v2l35 -2l-11 -5zM533 -95l-194 -1l15 117h-25l28 -116h-171l-11 114h-71l15 166l23 1
l-93 314l176 -18l86 -296h54l33 418l176 8zM503 -71l38 657h-14v-147l-37 142l-4 -1l-20 -108l-32 107h-6l-53 -653h18l10 142l29 -141l13 1l27 123l15 -121zM278 186l-80 275l-8 1l-19 -94l-15 97h-6l-16 -80l-29 85l-15 1l82 -285h106zM354 40l11 123l-217 -1l1 -22l84 -6
l-88 -26l-4 -26l109 -21l-111 -7l-1 -15zM319 -75l-22 92h-92l11 -91h9l4 68l27 -68h4l14 61l21 -60zM462 72l-20 -18l-19 18l19 18zM237 100l-20 -21l-17 21l17 19z" />
    <glyph glyph-name="uniFEFA" unicode="&#xfee0;&#xfe88;" horiz-adv-x="525" arabic-form="final" 
d="M241 -163q0 29 33 49q28 15 63 15q23 0 48 -9l-1 -14q-1 -5 -2 -8t-3 -10l-4 -14l-4 -18q-15 0 -25 2l-14 3q-1 0 -1 -1q0 -5 8 -18q17 -27 32 -27h5l30 2l1 -35l3 -28q-22 0 -44 -2q-6 0 -15.5 -1.5t-27.5 -4.5l-67 -7l-4 62l41 3l-7 5q-16 9 -22 14q-23 19 -23 42z
M264 -164q0 -16 23 -34q10 -9 20 -13.5t16 -4.5h10h12h6q18 0 0 -9l-12 5q-14 6 -13 6q-2 0 -17 11l10 5v1q-14 16 -14 30q0 21 31 21l11 -1h-1v-1v-1q-1 0 -35 13l27 5l-26 11l26 3q-2 1 -11 1q-15 0 -39 -14q-24 -15 -24 -34zM358 -250v0v0h1h-1zM256 -159q0 11 15 22
l11 -11l-2 -6l-1 -5q0 -4 7 -14l-13 -12l-10 10l-4 6zM268 -157q0 12 16 19l9 -10l-2 -5l-1 -4q0 -4 8 -16l-8 -7q-15 0 -19 10zM382 -259l-2 -5l-35 3l25 9l-26 6l36 12l1 -2l-101 -7v0l52 -3l-53 -15v2l35 -2l-11 -5zM533 -38l-174 12l-5 21h-12l15 -61l-181 -5l-8 65
l-128 1l13 164h88l-61 394l174 -20l56 -374h37l-9 456l179 8l1 -463l29 -1v-164h-18zM494 -10l2 47l20 11l-24 17v18l17 14l-20 4v17l24 16l-27 14l-1 447l-18 -5v-148l-33 143v0l-10 -135l-29 134l-27 4l17 -583l6 -2l18 106l20 -114l24 -1l25 118l18 -122h-2zM277 159
l-54 351l-11 2l-30 -100l-8 102v0l-41 -84l-2 96l-17 1l63 -368h100zM353 19l-3 117l-266 1v-16l86 -14l-89 -16l1 -33l93 -20l-98 -13l-1 -7zM314 -42l-7 37l-106 -1l5 -38h10l4 56l28 -54h3l15 49l20 -49h28zM460 72l-20 -18l-18 18l18 18zM173 75l-19 -20l-18 20l18 19z
" />
    <glyph glyph-name="uniFEFB" unicode="&#x644;&#x627;" horiz-adv-x="536" arabic-form="isolated" 
d="M508 -95l-194 -1l15 117h-25l28 -116h-171l-11 114h-71l15 166l23 1l-93 314l176 -18l86 -296h54l33 418l176 8zM478 -71l38 657h-14v-147l-37 142l-4 -1l-20 -108l-32 107h-6l-51 -653h16l10 142l29 -141l13 1l27 123l15 -121zM253 186l-80 275l-8 1l-19 -94l-15 97h-6
l-16 -80l-29 85l-15 1l85 -285h103zM329 40l11 123l-217 -1l1 -22l84 -6l-88 -26l-4 -26l109 -21l-111 -7l-1 -15zM294 -75l-22 92h-92l11 -91h9l4 68l27 -68h4l14 61l21 -60zM437 72l-20 -18l-19 18l19 18zM212 100l-20 -21l-17 21l17 19z" />
    <glyph glyph-name="uniFEFC" unicode="&#xfee0;&#xfe8e;" horiz-adv-x="525" arabic-form="final" 
d="M533 -38l-174 12l-5 21h-12l15 -61l-181 -5l-8 65l-128 1l13 164h88l-61 394l174 -20l56 -374h37l-9 456l179 8l1 -463l29 -1v-164h-18zM494 -10l2 47l20 11l-24 17v18l17 14l-20 4v17l24 16l-27 14l-1 447l-18 -5v-148l-33 143v0l-10 -135l-29 134l-27 4l17 -583l6 -2
l18 106l20 -114l24 -1l25 118l18 -122h-2zM277 159l-54 351l-11 2l-30 -100l-8 102v0l-41 -84l-2 96l-17 1l63 -368h100zM353 19l-3 117l-266 1v-16l86 -14l-89 -16l1 -33l93 -20l-98 -13l-1 -7zM314 -42l-7 37l-106 -1l5 -38h10l4 56l28 -54h3l15 49l20 -49h28zM460 72
l-20 -18l-18 18l18 18zM173 75l-19 -20l-18 20l18 19z" />
    <glyph glyph-name="uni0627_uni064B.liga" unicode="&#x627;&#x64b;" horiz-adv-x="199" 
d="M188 601v-587l-176 -21l21 624zM158 36l-1 541l-13 1l-27 -80l-17 85h-1l-16 -96l-20 101h-1l-18 -569l24 3l1 119l35 -111l14 1l17 115l17 -110h6zM279 833q0 -22 -18 -30l-220 -78q-31 -5 -31 25q0 21 19 27l222 81q28 0 28 -25zM237 831v51l20 -50l-200 -75v-6
q0 7 -6 2l188 70q-2 0 -2 8zM303 758q0 -23 -18 -30l-220 -79q-31 -4 -31 25q0 21 20 28l222 80q27 0 27 -24zM262 756v51l20 -50l-201 -75v-7q0 8 -6 3l189 70q-2 0 -2 8z" />
    <glyph glyph-name="uni0651_uni064B.liga" unicode="&#x651;&#x64b;" 
d="M184 613q0 -26 -18.5 -47.5t-37.5 -21.5t-23 7q-18 -36 -51 -36q-21 0 -35 16q-10 15 -10 36v8v9l1 6l3 8q7 22 19 22q16 0 16 -14l-1 -11l-1 -11q0 -9 5 -9q18 0 29 50q4 18 14 23q19 0 21 -20t14 -20q9 0 13 39q4 31 19 31q11 0 17 -23t6 -42zM175 749q0 -17 -12 -22
l-139 -59q-19 -4 -19 18q0 16 12 21l140 60q18 0 18 -18zM177 706q0 -17 -12 -22l-138 -59q-20 -4 -20 18q0 16 12 21l141 60q17 0 17 -18zM154 603v11l3 18l-1 8l-2 12q0 9 17 6l-2 -4l-3 -8q-2 -10 -2 -17q-2 -22 -9 -32q-8 -14 -24 -14q-14 0 -25.5 7t-15.5 22
q0 10 16 10v-7v-5q-5 -24 -23 -41q-18 -15 -36 -15q-25 0 -25 23v5l1 6l2 19l5 -2l16 20l-10 -33l-2 -9l-1 -7l-1 -12q0 -8 3 -12q1 -3 5.5 -9t9.5 -6q7 0 19 10t34 50q13 -26 21 -30q3 -2 7 -3q2 0 12.5 11t10.5 28zM149 747v39l12 -38l-126 -56v-5q0 6 -4 2l119 53
q-1 -1 -1 5zM151 705v38l12 -38l-126 -56v-5q0 6 -4 2l119 53q-1 -1 -1 6z" />
    <glyph glyph-name="uni0651_uni064E.liga" unicode="&#x651;&#x64e;" 
d="M184 634q0 -26 -18.5 -47.5t-38.5 -21.5q-18 0 -22 7q-19 -37 -51 -37q-21 0 -35 17q-11 14 -11 36v7l1 9l1 6l3 9q6 21 19 21q16 0 16 -14l-1 -10l-2 -12q0 -9 6 -9q18 0 29 50q4 19 13 24q20 0 22 -20.5t14 -20.5q9 0 13 39q3 32 18 32q12 0 18 -23t6 -42zM177 727
q0 -17 -12 -23l-139 -59q-19 -3 -19 19q0 16 12 21l140 60q18 0 18 -18zM153 623q0 9 1 11l3 18l-1 8l-2 12q0 10 17 6l-2 -3l-3 -8q-2 -10 -2 -18q-2 -21 -9 -32q-8 -14 -24 -14q-14 0 -26 7t-15 23q0 10 16 10v-8v-4q-5 -25 -24 -41q-17 -15 -35 -15q-25 0 -25 23v4l1 7
l2 18l5 -1l16 20l-10 -34l-2 -8l-1 -7l-1 -12q0 -8 3 -12q1 -4 5.5 -9.5t8.5 -5.5q7 0 19.5 10t34.5 49q13 -25 21 -30q2 -1 7 -3q2 0 12 11.5t10 27.5zM151 725v38l12 -37l-126 -56v-5q0 6 -4 2l119 52q-1 0 -1 6z" />
    <glyph glyph-name="uni0651_uni064D.liga" unicode="&#x651;&#x64d;" horiz-adv-x="5" 
d="M164 795q0 -82 -51 -82q-16 0 -31 10q-3 -17 -18 -29.5t-33 -12.5q-19 0 -28.5 13.5t-10.5 39.5v2q0 15 10 47l11 2q0 -54 19 -54q30 0 44 79l9 3q6 -27 12.5 -37.5t15.5 -10.5q33 0 33 72l11 5q2 -9 6 -26q1 -8 1 -21zM147 662q0 -27 -14 -33l-118 -47q0 17 6 24
q3 5 20 16zM147 710q0 -27 -14 -33l-118 -47q0 17 6 24q3 5 20 16z" />
    <glyph glyph-name="uni0651_uni064F.liga" unicode="&#x651;&#x64f;" 
d="M204 656l-5 -33q-30 0 -58 14q-22 -33 -58.5 -57t-59.5 -24h-5l-8 1l-13 6v11l111 80q-30 18 -30 52q0 28 28 62t53 34q19 0 29.5 -18t10.5 -38q0 -30 -19 -62q15 -8 18 -12q6 -4 6 -16zM183 550q0 -26 -19 -47.5t-38 -21.5q-18 0 -22 7q-19 -36 -51 -36q-21 0 -35 16
q-11 15 -11 36v8l1 9l1 6l3 8q6 22 19 22q16 0 16 -14l-1 -11l-2 -11q0 -9 6 -9q18 0 29 50q4 18 13 23q20 0 22 -20t13 -20q10 0 14 39l1 10l3 9q5 9 16 9q8 0 13 -8l4 -13q5 -25 5 -41zM176 654q0 4 -1 5.5t-22 12.5q7 11 12 37q2 15 2 32q0 10 -1.5 15.5t-4.5 8.5l-6 12
l-1 2q-4 0 -9 -4q-8 -3 -15.5 -12.5t-10.5 -25.5l-2 -22v-7q0 -18 3 -26q3 -14 18 -23q-10 -15 -40 -36l-27 -21l-21 -13l-21 -14v2q-2 1 2 1q5 0 11 2l10 5l13 8l17 12l18 15q18 16 39 42l14 -11l12 -8q7 -2 9 -2zM155 575l-2 14q0 9 16 6l-1 -4l-3 -8q-2 -10 -2 -17
q-2 -22 -9 -32q-8 -14 -24 -14q-14 0 -26 7t-15 22q0 10 16 10v-7v-5q-5 -24 -24 -41q-17 -15 -35 -15q-26 0 -26 23v5l2 6l1 19l6 -2l16 21l-11 -34l-1 -9l-2 -7v-12q0 -8 3 -12q1 -3 5.5 -9t8.5 -6q7 0 19.5 10t34.5 50q13 -26 21 -30q2 -2 7 -3q2 0 12 11t10 28q0 9 1 11
l3 18zM170 725q0 -9 -1.5 -15t-3.5 -10.5t-9 -17.5q-47 18 -47 49q0 32 29 32q32 0 32 -38zM144 725q0 16 -6 16q-3 0 -3 -12q0 -15 6 -17l1 3l1 5z" />
    <glyph glyph-name="uni0651_uni0650.liga" unicode="&#x651;&#x650;" 
d="M179 700q0 -27 -19 -48t-38 -21q-18 0 -23 7q-18 -37 -51 -37q-20 0 -34 17q-11 14 -11 36v7l1 9l1 6l2 9q7 21 20 21q16 0 16 -14l-2 -10l-1 -12q0 -9 5 -9q19 0 30 50q3 18 13 24q19 0 21.5 -20.5t13.5 -20.5q9 0 13 39q4 32 19 32q11 0 17.5 -23t6.5 -42zM186 629
q0 -17 -11 -23l-139 -59q-19 -3 -19 19q0 16 12 21l140 60q17 0 17 -18zM148 689q0 9 1 11l2 18l-1 8l-2 12q0 9 17 6l-1 -3l-3 -8q-2 -10 -2 -18q-3 -21 -10 -32q-7 -14 -23 -14q-14 0 -26 7t-16 23q0 10 16 10l1 -8l-1 -4q-4 -25 -23 -41q-18 -15 -36 -15q-25 0 -25 23v4
l1 7l2 18l6 -1l16 20l-11 -34l-2 -8l-1 -7v-12q0 -8 2 -12q1 -4 6 -9.5t9 -5.5q7 0 19.5 10t33.5 49q14 -25 21 -30q3 -2 7 -3q3 0 13 11.5t10 27.5zM160 627v38l13 -37l-126 -56v-5q0 6 -4 2l119 52q-2 0 -2 6z" />
    <glyph glyph-name="uni0651_uni064C.liga" unicode="&#x651;&#x64c;" 
d="M219 810l-5 -33q-30 0 -58 15q-22 -33 -58.5 -57.5t-58.5 -24.5h-6l-8 2l-13 6v11l19 11q2 6 8 30l2 19l1 18q0 17 14 3l-5 -2q-5 -2 -11 -2h-3l-6 -4q-2 -1 -5 -4q-3 -1 -4 -4q-4 -7 -12 -8q-10 0 -15 8q0 13 22.5 34.5t43.5 21.5q33 0 33 -33q0 -27 -14 -53q16 8 45 44
q-31 19 -31 53q0 28 28 61.5t52 33.5q19 0 29.5 -18t10.5 -38q0 -30 -19 -62q15 -7 19 -11q5 -4 5 -17zM198 705q0 -26 -18.5 -47.5t-38.5 -21.5q-18 0 -22 7q-19 -37 -51 -37q-21 0 -35 17q-11 14 -11 36v7l1 9l1 6l3 9q6 21 19 21q16 0 16 -14l-1 -10l-2 -12q0 -9 6 -9
q18 0 29 50q4 19 13 24q20 0 22 -20.5t14 -20.5q9 0 13 39l1 11l4 9q4 8 15 8q8 0 13 -8l4 -12q5 -26 5 -41zM191 809q0 4 -1 5.5t-22 12.5q7 10 12 37q3 15 3 32q0 10 -2 15.5t-5 8.5l-6 12l-1 1q-3 0 -8 -3q-4 -2 -7.5 -5t-9.5 -9q-7 -9 -14 -26q-5 -17 -5 -26
q0 -13 6 -27t23 -24q-14 -18 -44 -44q-25 -20 -75 -46l17 35l10 27l6 20q2 10 2 15q0 14 -7 14q-9 0 -20 -11l-19 -17q-15 -16 -13 3l5 3l7 3l8 5q6 7 20 7l3 -10q14 7 14 -17v-16l-1 -12l-2 -9q-2 -14 -9 -26l-12 -8v3q-1 0 2 0q5 0 12 3l9 4l13 9l17 12l18 14q18 17 39 43
l15 -11l11 -8q7 -3 9 -3zM170 729l-2 14q0 10 17 6l-2 -3l-3 -8q-2 -10 -2 -18q-2 -21 -9 -32q-8 -14 -24 -14q-14 0 -26 7t-15 23q0 10 16 10v-8v-4q-5 -25 -24 -41q-17 -15 -35 -15q-25 0 -25 23v4l1 7l2 18l5 -1l16 20l-10 -34l-2 -8l-1 -7l-1 -12q0 -8 3 -12
q1 -3 5.5 -9t8.5 -6q7 0 19.5 10t34.5 49q13 -25 21 -30q2 -1 7 -3q2 0 12 11.5t10 27.5q0 9 1 11l3 18zM185 880q0 -10 -1.5 -15.5t-3.5 -10t-9 -18.5q-47 18 -47 50t29 32q32 0 32 -38zM159 880q0 15 -5 15q-4 0 -4 -11q0 -16 6 -18l2 3l1 6v5z" />
    <glyph glyph-name="uni0651_uni0670.liga" unicode="&#x651;&#x670;" horiz-adv-x="8" 
d="M350 1314q0 -51 -36 -93t-72 -42q-35 0 -43 14q-35 -72 -97 -72q-39 0 -66 33q-20 28 -20 70v14l1 18l2 12l5 17q13 41 37 41q30 0 30 -27l-2 -20l-3 -23q0 -18 11 -18q35 0 55 98q7 36 25 46q37 0 41.5 -39.5t25.5 -39.5q18 0 25 76q7 62 36 62q21 0 33 -45t12 -82z
M292 1294q0 17 1 21l5 35l-2 16l-4 23q0 18 32 12l-3 -7l-5 -15q-4 -20 -4 -35q-4 -42 -18 -63q-14 -27 -45 -27q-26 0 -49 14t-30 44q0 19 31 19l1 -15l-1 -8q-9 -47 -44 -80q-34 -30 -68 -30q-48 0 -48 45v9l2 13l4 36l10 -2l31 39l-21 -66l-3 -16l-2 -14l-1 -24
q0 -15 5 -23q2 -7 11 -18.5t17 -11.5q13 0 36.5 20t65.5 97q25 -50 39 -59q5 -3 13 -6q5 0 24.5 22t19.5 55zM155 1673l13 -234l-79 28l-13 235zM154 1467l-11 188l-8 4l-13 -55l-5 64h-1l-6 -47l-15 53l-6 2l11 -189l9 -3l-1 42l14 -47l5 -2l-3 55l17 -60zM123 1529l-10 16
l6 13l10 -14z" />
    <glyph glyph-name="uni0621" unicode="&#x621;" horiz-adv-x="313" arabic-form="isolated" 
d="M13 232q0 49 54 81q47 24 102 24h12q9 0 11 -1l14 -2l8 -1q7 0 11 -2q5 -1 8 -3l11 -5q0 -9 -1 -11l-2 -11l-4 -15l-1 -6l-3 -8l-6 -26q-4 -12 -6 -27l-20 2l-16 5l-13 2l-11 1q-8 0 -9 -5q0 -16 24 -46q27 -34 51 -34h8l44 4l1 -35v-10l1 -13l5 -42q-39 0 -68 -3
l-77 -10l-102 -12l-7 97l75 7l-21 13l-17 11l-18 13q-38 31 -38 68zM40 231q0 -28 39 -60l18 -14q9 -5 18 -9l17 -6l14 -2l19 -1h18q28 0 13 -9l-20 9q-23 10 -25 12q-4 0 -20 14l15 5l-1 7q-24 25 -24 49q0 31 46 31l7 -1l10 -1h6l1 3v1q-7 1 -51 18l46 8l-44 18l46 5
q-19 7 -36 7q-15 0 -33 -6.5t-38 -17.5q-20 -14 -30.5 -28.5t-10.5 -31.5zM192 85l11 17l16 -17l-16 -14zM39 240q0 23 21 27l9 -10q0 -5 -2 -9l-1 -6l-1 -3q0 -7 1 -10t10 -13l-17 -13l-9 10l-7 9q-4 12 -4 18zM59 244q0 13 1.5 16t16.5 8l11 -11l-2 -8l-2 -6q0 -12 12 -27
l-9 -9q-14 0 -24 17l-3 11zM250 67l-1 -3l-49 5l39 14l-42 10l53 17l-2 4l-183 -14l2 -7l70 -4l-72 -20l-1 -2l50 -3l-24 -11z" />
    <glyph glyph-name="uni0627" unicode="&#x627;" horiz-adv-x="199" arabic-form="isolated" 
d="M188 601v-587l-176 -21l21 624zM158 36l-1 541l-13 1l-27 -80l-17 85h-1l-16 -96l-20 101h-1l-18 -569l24 3l1 119l35 -111l13 1l18 115l17 -110h6z" />
    <glyph glyph-name="uni0628" unicode="&#x628;" horiz-adv-x="794" arabic-form="isolated" 
d="M463 -186q0 -22 -13.5 -38.5t-40.5 -16.5q-29 0 -47.5 19.5t-18.5 46.5q0 23 14 39t41 16t46 -20t19 -46zM435 -182q0 16 -11 24.5t-24 8.5l-12 -2q-1 0 -6 -3q-7 -5 -7 -16q0 -19 5 -26q0 20 4 28l14 -49q3 -3 8 -3q9 0 18 10q5 7 8 13.5t3 14.5zM701 161l-18 174
l-21 -5l-5 -112l-29 106l-3 -1v-120l-33 116h-5l19 -158h95zM732 -38l-2 27l-1 6h-112l5 -33h11l4 57l27 -55h4l15 50l20 -51zM211 315h-3l-31 -93l-5 97h2l-29 -145l-7 156l-21 5l-16 -175h92zM181 -5h-113l-4 -31h33l20 50l14 -50h4l27 55l5 -57h10zM681 82l-19 -21
l-18 21l18 19zM156 82l-19 -21l-18 21l18 19zM575 160l-20 178l159 29l16 -208h61v-164h-28l11 -54l-181 -5l-7 59h-372l-8 -59l-180 5l11 52l-14 3l15 165l32 -1l15 207l160 -29l-19 -178h349zM758 16l1 16l-125 12l123 23v32l-122 13l121 18l1 6h-684l1 -8l76 -15l-79 -15
l-2 -34l86 -19l-93 -15v-12z" />
    <glyph glyph-name="uni0629" unicode="&#x629;" horiz-adv-x="305" arabic-form="isolated" 
d="M286 333q0 -23 -13 -37q-14 -18 -41 -18q-29 0 -47.5 20t-18.5 46q0 23 14 39t40 16q29 0 47.5 -20t18.5 -46zM258 337q0 16 -12 24q-5 4 -10 6l-8 2l-7 1q-9 0 -16 -5q-8 -5 -8 -16q0 -18 -4 -12v-15q1 3 16 24l12 -44q3 -3 7 -3q10 0 19 10q11 14 11 28zM145 344
q0 -22 -12 -38q-14 -17 -42 -17q-29 0 -47 19.5t-18 46.5q0 22 13.5 38.5t40.5 16.5q28 0 46.5 -20t18.5 -46zM117 348q0 15 -11 23.5t-24 8.5q-7 0 -10 -1q-5 -1 -8 -3q-7 -5 -7 -17q0 -18 6 -26q0 20 4 29l13 -50q3 -3 8 -3q9 0 18 11q5 6 8 13t3 15zM272 45
q-4 -5 -9.5 -10t-12.5 -11q-12 -9 -28 -16q-13 -5 -30 -10l-15 -2l-16 -1q-25 0 -52.5 9.5t-47.5 27.5q-24 21 -36.5 49t-12.5 58q0 7 0.5 13.5t2 15.5t5.5 21q10 22 29 44.5t49.5 36t61.5 13.5q26 0 51.5 -9t48 -28t35.5 -49t13 -59q0 -24 -9 -48.5t-27 -44.5zM241 63
q14 16 21 35l6 21q2 11 2 21q0 25 -10 47.5t-29 39.5q-15 13 -34 20l-19 6q-10 2 -19 2q-23 0 -44 -9.5t-38 -28.5q-14 -16 -21.5 -36t-7.5 -40q0 -25 9.5 -47.5t29.5 -40.5q15 -13 34 -20t38 -7q21 0 43.5 9t38.5 28zM219 210q-30 18 -92 31l49 3h10q5 0 15 -4
q18 -7 18 -30zM219 188q-38 24 -58 24l-15 -1q0 20 22 20q14 0 31 -8t20 -35zM207 104q-17 -21 -47 -21q-25 0 -42 15q-20 18 -20 43q0 20 14 36q19 21 47 21q22 0 42 -16q20 -17 20 -42q0 -18 -14 -36zM220 112q0 -33 -11 -42q-11 -11 -30 -11l-22 4l19 9l6 4l9 8zM245 130
q0 -64 -22.5 -82.5t-69.5 -18.5l41 23q7 4 9 6q17 13 42 72zM113 243q-42 -64 -59 -169l-10 64l-1 9q0 36 70 96zM78 104q-21 31 -21 43l3 14l3 13q9 25 36 25q-14 -26 -21 -95zM180 116l7 11l1 5l1 7q0 15 -12 28q-8 7 -18 7q-12 0 -22 -11q-4 -3 -6 -8l-1 -7l-1 -6
q0 -17 12 -28l9 -6q4 -1 9 -1q12 0 21 9z" />
    <glyph glyph-name="uni062A" unicode="&#x62a;" horiz-adv-x="794" arabic-form="isolated" 
d="M365 416q0 -22 -13.5 -38.5t-40.5 -16.5q-29 0 -47.5 19.5t-18.5 46.5q0 23 14 39t41 16t46 -20t19 -46zM337 420q0 16 -11 24.5t-24 8.5l-12 -2q-1 0 -6 -3q-7 -5 -7 -16q0 -19 5 -26q0 20 4 28l14 -49q3 -3 8 -3q9 0 18 10q5 7 8 13.5t3 14.5zM701 161l-18 174l-21 -5
l-5 -112l-29 106l-3 -1v-120l-33 116h-5l19 -158h95zM732 -38l-2 27l-1 6h-112l5 -33h11l4 57l27 -55h4l15 50l20 -51zM211 315h-3l-31 -93l-5 97h2l-29 -145l-7 156l-21 5l-16 -175h92zM181 -5h-113l-4 -31h33l20 50l14 -50h4l27 55l5 -57h10zM681 82l-19 -21l-18 21l18 19
zM156 82l-19 -21l-18 21l18 19zM575 160l-20 178l159 29l16 -208h61v-164h-28l11 -54l-181 -5l-7 59h-372l-8 -59l-180 5l11 52l-14 3l15 165l32 -1l15 207l160 -29l-19 -178h349zM758 16l1 16l-125 12l123 23v32l-122 13l121 18l1 6h-684l1 -8l76 -15l-79 -15l-2 -34
l86 -19l-93 -15v-12zM501 416q0 -22 -13.5 -38.5t-40.5 -16.5q-29 0 -47.5 19.5t-18.5 46.5q0 23 14 39t41 16t46 -20t19 -46zM473 420q0 16 -11 24.5t-24 8.5l-12 -2q-1 0 -6 -3q-7 -5 -7 -16q0 -19 5 -26q0 20 4 28l14 -49q3 -3 8 -3q9 0 18 10q5 7 8 13.5t3 14.5z" />
    <glyph glyph-name="uni062B" unicode="&#x62b;" horiz-adv-x="794" arabic-form="isolated" 
d="M701 161l-18 174l-21 -5l-5 -112l-29 106l-3 -1v-120l-33 116h-5l19 -158h95zM732 -38l-2 27l-1 6h-112l5 -33h11l4 57l27 -55h4l15 50l20 -51zM211 315h-3l-31 -93l-5 97h2l-29 -145l-7 156l-21 5l-16 -175h92zM181 -5h-113l-4 -31h33l20 50l14 -50h4l27 55l5 -57h10z
M681 82l-19 -21l-18 21l18 19zM156 82l-19 -21l-18 21l18 19zM575 160l-20 178l159 29l16 -208h61v-164h-28l11 -54l-181 -5l-7 59h-372l-8 -59l-180 5l11 52l-14 3l15 165l32 -1l15 207l160 -29l-19 -178h349zM758 16l1 16l-125 12l123 23v32l-122 13l121 18l1 6h-684l1 -8
l76 -15l-79 -15l-2 -34l86 -19l-93 -15v-12zM379 381q-19 -20 -46 -20t-41 16.5t-14 38.5q0 27 18.5 46.5t47.5 19.5q27 0 40.5 -16.5t13.5 -38.5q0 -26 -19 -46zM367 438q-3 7 -8 13q-9 11 -18 11q-5 0 -8 -4l-14 -49q-4 8 -4 29q-5 -8 -5 -26q0 -12 7 -17q5 -3 6 -3l12 -1
q13 0 24 8.5t11 23.5q0 8 -3 15zM519 381q-19 -20 -46 -20t-41 16.5t-14 38.5q0 27 18.5 46.5t47.5 19.5q27 0 40.5 -16.5t13.5 -38.5q0 -26 -19 -46zM507 438q-3 7 -8 13q-9 11 -18 11q-5 0 -8 -4l-14 -49q-4 8 -4 29q-5 -8 -5 -26q0 -12 7 -17q5 -3 6 -3l12 -1
q13 0 24 8.5t11 23.5q0 8 -3 15zM451 568q-3 7 -8 13q-9 11 -18 11q-5 0 -8 -4l-14 -49q-4 8 -4 29q-5 -8 -5 -26q0 -12 7 -17q5 -3 6 -3l12 -1q13 0 24 8.5t11 23.5q0 8 -3 15zM463 511q-19 -20 -46 -20t-41 16.5t-14 38.5q0 27 18.5 46.5t47.5 19.5q27 0 40.5 -16.5
t13.5 -38.5q0 -26 -19 -46z" />
    <glyph glyph-name="uni062C" unicode="&#x62c;" horiz-adv-x="531" arabic-form="isolated" 
d="M409 -128q0 -22 -12 -38q-14 -17 -42 -17q-29 0 -47 20t-18 46q0 23 13.5 39t40.5 16q28 0 46.5 -20t18.5 -46zM381 -124q0 16 -11 24t-24 8q-7 0 -10 -1q-5 0 -8 -3q-7 -5 -7 -16q0 -19 6 -26q0 20 4 28l13 -49q3 -4 8 -4q9 0 18 11q5 7 8 13.5t3 14.5zM484 -263h-177
q-72 0 -106 44q-22 29 -22 81l1 102q0 31 33 47q10 4 32 6h136l-23 28h-28l-82 5l91 23l-15 23l-96 9l70 17l-21 25l-37 -1q-34 0 -57 -11q-37 -17 -77 -68q-10 -14 -16 -52l-5 -33l-2 -38l-1 -48v-34v-40l1 -25v-9t1.5 -11.5t2 -12t3.5 -11.5q13 -58 57 -90q52 -37 156 -37
l169 2l1 8l-64 19l63 14l1 16l-71 25l81 5zM182 -56l-11 -64l-3 -23l1 -9v-6l1 -5l8 -35q-29 18 -35 28q-7 12 -7 24q0 13 8 34q6 16 38 56zM166 -57l-15 -41l-5 -9q-8 -16 -8 -27v-11l1 -18l1 -13q2 -5 14 -30q-35 21 -43 39q-4 8 -6 15t-2 14q0 16 14 31zM218 75l-16 -16
l-21 20l17 16zM465 156l-2 -6l6 1zM491 85l-271 310l-19 -15l72 -92l-68 50l38 -64l-85 77l-7 -6l260 -310l11 5l-37 59l63 -41l3 3l-45 64l74 -48zM423 103h-28v19l27 3zM261 171l-152 175l118 92l225 -261h43v-53l44 -43l-131 -86l-158 -1q-17 0 -26 -13q-14 -19 -14 -68
v-26l1 -19q0 -33 20 -64q20 -33 63 -41l221 1l-14 -163h-220q-95 0 -151 36q-48 33 -68 95q-6 22 -11 57q-2 14 -3.5 35t-1.5 39l1 80v13l1 14l3 24q10 73 45 114q45 52 137 63h28z" />
    <glyph glyph-name="uni062D" unicode="&#x62d;" horiz-adv-x="531" arabic-form="isolated" 
d="M484 -263h-177q-72 0 -106 44q-22 29 -22 81l1 102q0 31 33 47q10 4 32 6h136l-23 28h-28l-82 5l91 23l-15 23l-96 9l70 17l-21 25l-37 -1q-34 0 -57 -11q-37 -17 -77 -68q-10 -14 -16 -52l-5 -33l-2 -38l-1 -48v-34v-40l1 -25v-9t1.5 -11.5t2 -12t3.5 -11.5
q13 -58 57 -90q52 -37 156 -37l169 2l1 8l-64 19l63 14l1 16l-71 25l81 5zM182 -56l-11 -64l-3 -23l1 -9v-6l1 -5l8 -35q-29 18 -35 28q-7 12 -7 24q0 13 8 34q6 16 38 56zM166 -57l-15 -41l-5 -9q-8 -16 -8 -27v-11l1 -18l1 -13q2 -5 14 -30q-35 21 -43 39q-4 8 -6 15
t-2 14q0 16 14 31zM218 75l-16 -16l-21 20l17 16zM465 156l-2 -6l6 1zM491 85l-271 310l-19 -15l72 -92l-68 50l38 -64l-85 77l-7 -6l260 -310l11 5l-37 59l63 -41l3 3l-45 64l74 -48zM423 103h-28v19l27 3zM261 171l-152 175l118 92l225 -261h43v-53l44 -43l-131 -86
l-158 -1q-17 0 -26 -13q-14 -19 -14 -68v-26l1 -19q0 -33 20 -64q20 -33 63 -41l221 1l-14 -163h-220q-95 0 -151 36q-48 33 -68 95q-6 22 -11 57q-2 14 -3.5 35t-1.5 39l1 80v13l1 14l3 24q10 73 45 114q45 52 137 63h28z" />
    <glyph glyph-name="uni062E" unicode="&#x62e;" horiz-adv-x="531" arabic-form="isolated" 
d="M474 417q0 -22 -12 -38q-14 -17 -42 -17q-29 0 -47 20t-18 46q0 23 13.5 39t40.5 16q28 0 46.5 -20t18.5 -46zM446 421q0 16 -11 24t-24 8q-7 0 -10 -1q-5 0 -8 -3q-7 -5 -7 -16q0 -19 6 -26q0 20 4 28l13 -49q3 -4 8 -4q9 0 18 11q5 7 8 13.5t3 14.5zM484 -263h-177
q-72 0 -106 44q-22 29 -22 81l1 102q0 31 33 47q10 4 32 6h136l-23 28h-28l-82 5l91 23l-15 23l-96 9l70 17l-21 25l-37 -1q-34 0 -57 -11q-37 -17 -77 -68q-10 -14 -16 -52l-5 -33l-2 -38l-1 -48v-34v-40l1 -25v-9t1.5 -11.5t2 -12t3.5 -11.5q13 -58 57 -90q52 -37 156 -37
l169 2l1 8l-64 19l63 14l1 16l-71 25l81 5zM182 -56l-11 -64l-3 -23l1 -9v-6l1 -5l8 -35q-29 18 -35 28q-7 12 -7 24q0 13 8 34q6 16 38 56zM166 -57l-15 -41l-5 -9q-8 -16 -8 -27v-11l1 -18l1 -13q2 -5 14 -30q-35 21 -43 39q-4 8 -6 15t-2 14q0 16 14 31zM218 75l-16 -16
l-21 20l17 16zM465 156l-2 -6l6 1zM491 85l-271 310l-19 -15l72 -92l-68 50l38 -64l-85 77l-7 -6l260 -310l11 5l-37 59l63 -41l3 3l-45 64l74 -48zM423 103h-28v19l27 3zM261 171l-152 175l118 92l225 -261h43v-53l44 -43l-131 -86l-158 -1q-17 0 -26 -13q-14 -19 -14 -68
v-26l1 -19q0 -33 20 -64q20 -33 63 -41l221 1l-14 -163h-220q-95 0 -151 36q-48 33 -68 95q-6 22 -11 57q-2 14 -3.5 35t-1.5 39l1 80v13l1 14l3 24q10 73 45 114q45 52 137 63h28z" />
    <glyph glyph-name="uni062F" unicode="&#x62f;" horiz-adv-x="435" arabic-form="isolated" 
d="M445 -5h-16l9 -41l-182 -5v40l-207 -5l9 167l187 4l-22 245l159 29l15 -268h35zM363 161l-16 239l-8 -2l-12 -82l-25 72l-5 -1l-7 -86l-28 80h-3l20 -222zM402 -25l-3 17l-111 -1l-1 -17h8l12 23l24 -22h4l18 28l16 -28h33zM408 19v15l-103 10l102 22l-1 31l-97 5l94 23
l-1 11l-310 -7l-2 -31l131 -32l-132 6l-2 -16l125 -26l-123 1l-2 -23zM349 82l-18 -21l-19 21l19 19z" />
    <glyph glyph-name="uni0630" unicode="&#x630;" horiz-adv-x="435" arabic-form="isolated" 
d="M367 538q0 -28 -16 -47.5t-49 -19.5q-35 0 -57.5 24t-22.5 57q0 28 16.5 47.5t48.5 19.5q36 0 59 -25q7 -8 16 -26q5 -14 5 -30zM336 543q0 18 -15 31q-7 5 -16 8t-15 3q-10 0 -13 -1q-4 -1 -11 -5q-10 -7 -10 -21q0 -24 -2 -21q0 -11 18 12l14 -51q5 -4 12 -4
q12 0 24 14q7 9 10.5 17.5t3.5 17.5zM445 -5h-16l9 -41l-182 -5v40l-207 -5l9 167l187 4l-22 245l159 29l15 -268h35zM363 161l-16 239l-8 -2l-12 -82l-25 72l-5 -1l-7 -86l-28 80h-3l20 -222zM402 -25l-3 17l-111 -1l-1 -17h8l12 23l24 -22h4l18 28l16 -28h33zM408 19v15
l-103 10l102 22l-1 31l-97 5l94 23l-1 11l-310 -7l-2 -31l131 -32l-132 6l-2 -16l125 -26l-123 1l-2 -23zM349 82l-18 -21l-19 21l19 19z" />
    <glyph glyph-name="uni0631" unicode="&#x631;" horiz-adv-x="346" arabic-form="isolated" 
d="M343 6q-30 -115 -112 -192q-81 -73 -173 -73q-15 0 -32 2l-25 5l-21 6l-52 11q14 44 27 82l6 17l5 15l8 19l8 19l25 -8l13 -3l11 -1q32 0 72 38q26 24 59 73l23 40q5 29 8 52l2 22l1 27l160 -30l-2 -45q0 -18 -3 -38.5t-8 -37.5zM318 107l-18 2l-39 -118l7 124l5 -1
l-33 -168l2 174l-12 3q0 -11 -3 -27l-7 -32q-7 -37 -39 -81q-6 -8 -13.5 -16t-16.5 -18q-16 -17 -35 -32q-34 -25 -60 -32l-54 -1l-4 -14q0 -3 7 -5l14 -4l54 -10l-46 -8l-16 -1h-8l-8 1l-2 1l-5 -16q17 -13 92 -29l-46 -3q-23 0 -56 6v-2l-3 -12l-3 -7q13 -4 35 -7l21 -3
l22 -1q61 0 114 29q47 25 77 68q16 20 28 42t22 46q15 40 22 80q2 16 3.5 38t1.5 34zM130 -113q-2 -12 -24 -27q-18 -11 -35 -11l-5 1l-21 2l32 18q8 4 11 6q14 9 37 38zM179 -155q-1 -7 -18 -12q-31 -8 -33 -10q-25 -15 -41 -15l-30 4l73 26q26 8 45 42z" />
    <glyph glyph-name="uni0632" unicode="&#x632;" horiz-adv-x="346" arabic-form="isolated" 
d="M314 298q0 -22 -12 -38q-14 -17 -42 -17q-29 0 -47.5 20t-18.5 46q0 22 14 38.5t40 16.5q29 0 47.5 -20t18.5 -46zM286 302q0 16 -11.5 24t-24.5 8q-7 0 -10 -1q-4 0 -7 -3q-8 -5 -8 -17q0 -18 6 -26q0 21 4 29l14 -49q3 -4 7 -4q10 0 19 11q5 7 8 13.5t3 14.5zM343 6
q-30 -115 -112 -192q-81 -73 -173 -73q-15 0 -32 2l-25 5l-21 6l-52 11q14 44 27 82l6 17l5 15l8 19l8 19l25 -8l13 -3l11 -1q32 0 72 38q26 24 59 73l23 40q5 29 8 52l2 22l1 27l160 -30l-2 -45q0 -18 -3 -38.5t-8 -37.5zM318 107l-18 2l-39 -118l7 124l5 -1l-33 -168
l2 174l-12 3q0 -11 -3 -27l-7 -32q-7 -37 -39 -81q-6 -8 -13.5 -16t-16.5 -18q-16 -17 -35 -32q-34 -25 -60 -32l-54 -1l-4 -14q0 -3 7 -5l14 -4l54 -10l-46 -8l-16 -1h-8l-8 1l-2 1l-5 -16q17 -13 92 -29l-46 -3q-23 0 -56 6v-2l-3 -12l-3 -7q13 -4 35 -7l21 -3l22 -1
q61 0 114 29q47 25 77 68q16 20 28 42t22 46q15 40 22 80q2 16 3.5 38t1.5 34zM130 -113q-2 -12 -24 -27q-18 -11 -35 -11l-5 1l-21 2l32 18q8 4 11 6q14 9 37 38zM179 -155q-1 -7 -18 -12q-31 -8 -33 -10q-25 -15 -41 -15l-30 4l73 26q26 8 45 42z" />
    <glyph glyph-name="uni0633" unicode="&#x633;" horiz-adv-x="931" arabic-form="isolated" 
d="M830 -52l-140 63l3 10l-15 -10l-83 114l-52 -83l-40 -52l-7 -8q-12 -15 -27 -42q-30 -55 -83 -85q-26 -16 -57 -24t-67 -8h-6h-5h-4h-4q-15 0 -24 2h-10l-8 1l-16 4q-39 8 -74 33q-42 30 -68 63q-29 39 -29 79l-1 226h188v-230q7 -20 25 -34t36 -14q15 0 29.5 12t25.5 42
q3 8 4 20l2 28q0 25 -2.5 46.5t-7.5 40.5q-4 24 -18 55l-34 74l166 -11l42 -89l121 184l47 -36l17 40l97 -177l48 123l136 -41zM894 242v0l-54 -114l20 124v0l-41 -95l6 111l-7 3l-91 -247l9 -5l62 93l-35 -103l14 -8l48 66l-15 -83l-1 1l74 229l7 18zM738 144l-58 101
l-24 -38l64 -137l-88 104l-15 -23l56 -82l2 46l20 -28v1l22 -4zM783 76l-1 1q-3 0 -4 -4q2 -4 4 -4q3 1 5 4q-1 1 -4 3zM632 226l-16 -13l-17 13l17 14zM419 -47q0 -22 -23 -43.5t-71 -27.5l51 44q14 16 22 68q21 -31 21 -41zM376 -41q0 -16 -18 -32q-9 -7 -19 -11.5
t-35 -4.5l32 32q9 12 22 41q14 -14 18 -25zM510 156l-13 -26l43 27l-44 -68v-4l87 79l-87 -120v-13l166 246l-7 9l-55 -74l23 83l3 -2l-57 -67l31 85l-3 1l-105 -164zM448 235l-90 6q-1 -10 -22 -52l-11 30l-6 13l-4 8q0 4 1 2h-9l6 -12l9 -18l9 -21q6 -12 9 -23l6 -20
l4 -18l2 -26l2 -24v-13q0 -33 -2 -51.5t-7 -25.5q-15 -29 -38 -44.5t-49 -15.5q-29 0 -52 17t-36 52l-1 209l-6 -1l-17 -90l-26 83h1l-20 -66l-27 66h5l-10 -101l-23 103h-2l1 -198q6 -33 33 -67q21 -28 51 -52q24 -18 56.5 -26.5t65.5 -8.5q19 0 35.5 2t33.5 6
q30 7 59 24.5t51 54.5q17 30 29 81l3 14v16q0 39 -17 89q-12 40 -31 74q-18 37 34 24z" />
    <glyph glyph-name="uni0634" unicode="&#x634;" horiz-adv-x="931" arabic-form="isolated" 
d="M604 444q0 -22 -12 -37q-14 -18 -41 -18q-30 0 -48 20t-18 47q0 22 13.5 38t40.5 16q28 0 46.5 -20t18.5 -46zM576 448q0 16 -11 24.5t-24 8.5q-7 0 -10 -1q-5 -1 -7 -4q-8 -4 -8 -16q0 -18 6 -26q0 20 4 29l13 -50q4 -3 8 -3q9 0 18 10q5 7 8 14t3 14zM671 571
q0 -22 -13.5 -38.5t-40.5 -16.5q-28 0 -47 20t-19 46q0 13 3 20q2 10 10 18q15 17 42 17q29 0 48 -21q4 -4 6.5 -9t6.5 -12l3 -12zM643 575q0 15 -11 24t-24 9q-11 0 -18.5 -5t-7.5 -16q0 -19 6 -26q0 22 4 29l14 -51q3 -3 8 -3q9 0 18 11q3 4 8 13q2 9 3 15zM762 444
q0 -22 -13 -37q-13 -18 -41 -18q-29 0 -47.5 20t-18.5 47q0 22 14 38t40 16q29 0 47.5 -20t18.5 -46zM734 448q0 16 -11.5 24.5t-24.5 8.5q-7 0 -10 -1q-4 -1 -7 -4q-8 -4 -8 -16q0 -18 6 -26q0 20 4 29l14 -50q3 -3 7 -3q10 0 18 10q5 7 8.5 14t3.5 14zM830 -52l-140 63
l3 10l-15 -10l-83 114l-52 -83l-40 -52l-7 -8q-12 -15 -27 -42q-30 -55 -83 -85q-26 -16 -57 -24t-67 -8h-6h-5h-4h-4q-15 0 -24 2h-10l-8 1l-16 4q-39 8 -74 33q-42 30 -68 63q-29 39 -29 79l-1 226h188v-230q7 -20 25 -34t36 -14q15 0 29.5 12t25.5 42q3 8 4 20l2 28
q0 25 -2.5 46.5t-7.5 40.5q-4 24 -18 55l-34 74l166 -11l42 -89l121 184l47 -36l17 40l97 -177l48 123l136 -41zM894 242v0l-54 -114l20 124v0l-41 -95l6 111l-7 3l-91 -247l9 -5l62 93l-35 -103l14 -8l48 66l-15 -83l-1 1l74 229l7 18zM738 144l-58 101l-24 -38l64 -137
l-88 104l-15 -23l56 -82l2 46l20 -28v1l22 -4zM783 76l-1 1q-3 0 -4 -4q2 -4 4 -4q3 1 5 4q-1 1 -4 3zM632 226l-16 -13l-17 13l17 14zM419 -47q0 -22 -23 -43.5t-71 -27.5l51 44q14 16 22 68q21 -31 21 -41zM376 -41q0 -16 -18 -32q-9 -7 -19 -11.5t-35 -4.5l32 32
q9 12 22 41q14 -14 18 -25zM510 156l-13 -26l43 27l-44 -68v-4l87 79l-87 -120v-13l166 246l-7 9l-55 -74l23 83l3 -2l-57 -67l31 85l-3 1l-105 -164zM448 235l-90 6q-1 -10 -22 -52l-11 30l-6 13l-4 8q0 4 1 2h-9l6 -12l9 -18l9 -21q6 -12 9 -23l6 -20l4 -18l2 -26l2 -24
v-13q0 -33 -2 -51.5t-7 -25.5q-15 -29 -38 -44.5t-49 -15.5q-29 0 -52 17t-36 52l-1 209l-6 -1l-17 -90l-26 83h1l-20 -66l-27 66h5l-10 -101l-23 103h-2l1 -198q6 -33 33 -67q21 -28 51 -52q24 -18 56.5 -26.5t65.5 -8.5q19 0 35.5 2t33.5 6q30 7 59 24.5t51 54.5
q17 30 29 81l3 14v16q0 39 -17 89q-12 40 -31 74q-18 37 34 24z" />
    <glyph glyph-name="uni0635" unicode="&#x635;" horiz-adv-x="1083" arabic-form="isolated" 
d="M427 -47q0 -22 -23 -43.5t-71 -27.5l51 44q14 16 22 68q21 -31 21 -41zM384 -41q0 -16 -18 -32q-9 -7 -19 -11.5t-35 -4.5l32 32q9 12 22 41q14 -14 18 -25zM416 246l-31 2q0 1 -2 -8l-6 -20q-1 -9 -15 -26l-30 57h-19l38 -108l-5 -150q-11 -31 -31 -48.5t-51 -17.5
t-60 21q-6 5 -17 23l-11 28l1 204l-5 -1l-20 -82l-24 80h1l-20 -66l-27 66h5l-10 -96l-23 92h3l11 -196q8 -35 26 -64q11 -18 20 -28l10 -11l14 -12q12 -9 27 -17.5t35 -15.5q38 -15 70 -15q37 0 69 9.5t63 29.5q19 10 33 33q5 7 10 20l11 30l7 24l8 35l2 15l1 16
q0 43 -16 91l-6 18q-2 6 -2.5 8t-4.5 11l-9 24l-8 17q-14 30 -12 28zM1038 195q0 53 -37 98q-32 37 -85 57.5t-97 20.5q-70 0 -141 -47q-67 -44 -102 -103q-6 -10 -13 -30.5t-7 -33.5v2h81q14 43 43 71q25 24 61 33q27 7 60 7t68 -21q42 -25 42 -54v-6l-5 -32h17l28 73
l9 -74h9l29 74l9 -74h26l2 11l2 16zM778 240q-37 0 -63.5 -19t-41.5 -62h201q4 8 4 20q0 25 -30 43q-16 9 -32.5 13.5t-37.5 4.5zM1019 -5h-143v-29l134 -17zM942 267q-73 29 -150 42l26 10l13 3l13 2h7q28 0 46.5 -10t44.5 -47zM926 220q-27 24 -47 36l-29 12l-17 6l-53 15
l25 7l6 1l15 1q29 0 52 -15q17 -9 25 -17q13 -11 23 -46zM504 -5v-5l-2 -9l-1 -8l-4 -10q-2 -10 -7 -20l-4 -10l-5 -10q-61 -112 -202 -112q-84 0 -160 51q-80 56 -80 138l-18 222l190 12l-2 -233q10 -26 19 -36q11 -10 30 -10h5h5q19 2 34 24q13 21 13 33v131q0 4 -0.5 8.5
t-2 11.5t-2.5 11l-4 12l-7 18l-5 11l-8 16l-15 36q29 10 60 10h15q10 0 13 -1h12l15 -2l11 -2q6 0 18 -2l27 -6l42 -105h21q38 114 133 179q88 59 197 59q99 0 168 -56q73 -57 73 -143l-1 -23q0 -5 -2 -11l-2 -11l-14 -154l-17 -84l-199 27v53h-337zM1025 99q-2 -15 -22 -15
q-17 3 -22 15q1 5 4.5 9t15.5 6q18 -2 24 -15zM1032 81l7 51l-533 -1l43 -22l-40 -9l52 -15l-50 -12l73 -25l-74 -9l-3 -18l519 -1l-1 20l-44 23z" />
    <glyph glyph-name="uni0636" unicode="&#x636;" horiz-adv-x="1083" arabic-form="isolated" 
d="M710 442q0 -22 -13.5 -38.5t-40.5 -16.5q-28 0 -47 20t-19 46q0 13 3 21q2 9 10 17q15 17 41 17q30 0 49 -21q4 -4 6.5 -8.5t5.5 -12.5l4 -12zM682 446q0 15 -11 24t-25 9q-10 0 -17.5 -5t-7.5 -16q0 -19 6 -26q0 22 4 29l14 -50q3 -3 8 -3q9 0 18 10q3 4 7 13q3 9 4 15z
M427 -47q0 -22 -23 -43.5t-71 -27.5l51 44q14 16 22 68q21 -31 21 -41zM384 -41q0 -16 -18 -32q-9 -7 -19 -11.5t-35 -4.5l32 32q9 12 22 41q14 -14 18 -25zM416 246l-31 2q0 1 -2 -8l-6 -20q-1 -9 -15 -26l-30 57h-19l38 -108l-5 -150q-11 -31 -31 -48.5t-51 -17.5t-60 21
q-6 5 -17 23l-11 28l1 204l-5 -1l-20 -82l-24 80h1l-20 -66l-27 66h5l-10 -96l-23 92h3l11 -196q8 -35 26 -64q11 -18 20 -28l10 -11l14 -12q12 -9 27 -17.5t35 -15.5q38 -15 70 -15q37 0 69 9.5t63 29.5q19 10 33 33q5 7 10 20l11 30l7 24l8 35l2 15l1 16q0 43 -16 91
l-6 18q-2 6 -2.5 8t-4.5 11l-9 24l-8 17q-14 30 -12 28zM1038 195q0 53 -37 98q-32 37 -85 57.5t-97 20.5q-70 0 -141 -47q-67 -44 -102 -103q-6 -10 -13 -30.5t-7 -33.5v2h81q14 43 43 71q25 24 61 33q27 7 60 7t68 -21q42 -25 42 -54v-6l-5 -32h17l28 73l9 -74h9l29 74
l9 -74h26l2 11l2 16zM778 240q-37 0 -63.5 -19t-41.5 -62h201q4 8 4 20q0 25 -30 43q-16 9 -32.5 13.5t-37.5 4.5zM1019 -5h-143v-29l134 -17zM942 267q-73 29 -150 42l26 10l13 3l13 2h7q28 0 46.5 -10t44.5 -47zM926 220q-27 24 -47 36l-29 12l-17 6l-53 15l25 7l6 1l15 1
q29 0 52 -15q17 -9 25 -17q13 -11 23 -46zM504 -5v-5l-2 -9l-1 -8l-4 -10q-2 -10 -7 -20l-4 -10l-5 -10q-61 -112 -202 -112q-84 0 -160 51q-80 56 -80 138l-18 222l190 12l-2 -233q10 -26 19 -36q11 -10 30 -10h5h5q19 2 34 24q13 21 13 33v131q0 4 -0.5 8.5t-2 11.5
t-2.5 11l-4 12l-7 18l-5 11l-8 16l-15 36q29 10 60 10h15q10 0 13 -1h12l15 -2l11 -2q6 0 18 -2l27 -6l42 -105h21q38 114 133 179q88 59 197 59q99 0 168 -56q73 -57 73 -143l-1 -23q0 -5 -2 -11l-2 -11l-14 -154l-17 -84l-199 27v53h-337zM1025 99q-2 -15 -22 -15
q-17 3 -22 15q1 5 4.5 9t15.5 6q18 -2 24 -15zM1032 81l7 51l-533 -1l43 -22l-40 -9l52 -15l-50 -12l73 -25l-74 -9l-3 -18l519 -1l-1 20l-44 23z" />
    <glyph glyph-name="uni0637" unicode="&#x637;" horiz-adv-x="817" arabic-form="isolated" 
d="M206 64q-2 -15 -21 -15q-17 3 -23 14q1 6 4.5 10t15.5 5q18 -1 24 -14zM49 131l8 -17l66 2l-56 -27l1 -3l87 -2l-73 -20l3 -8l76 -3l-70 -24l4 -10h655l6 17l-82 11l87 15l1 6l-98 21h104l1 7l-129 24l130 -1l4 11zM783 209q0 55 -34 95q-28 33 -79 51q-23 7 -47.5 11.5
t-46.5 4.5q-69 0 -144 -42q-70 -41 -104 -98q-17 -29 -27 -50l-7 -17v-5h96q22 66 64 94q16 10 39 15.5t45 5.5q33 0 73 -23q48 -27 48 -59v-33h13l27 75l10 -75h9l28 72l10 -72h25l1 27zM533 245l-14 1q-30 0 -53 -23t-36 -64h192q1 6 1 15q0 35 -29 52q-22 14 -61 19z
M739 -5h-136v-26l128 -19zM689 271l-48 18l-27 8l-23 5l-49 10q21 9 32 11l14 3l11 1q52 0 90 -56zM684 214q-37 33 -57 45l-12 5l-8 3l-9 4l-69 21l30 8l15 1q29 0 53 -15q18 -11 27 -20q3 -3 6.5 -8t23.5 -44zM365 593l13 -273l-21 -22l-27 -32l-12 -18l-13 -23l-21 -37
l-23 -44l-53 464zM350 327l-24 230l-6 -1l-26 -91l-12 91l4 -1l-17 -95l-26 108l14 -3l28 -328l9 15l-31 144l54 -103l3 4l-29 104l52 -82zM253 159q38 115 134 181q88 60 196 60q98 0 169 -57q72 -58 72 -145l-1 -22q0 -5 -2 -11l-2 -12l-38 -153l-17 -84l-199 27v52h-504
l-57 164h249z" />
    <glyph glyph-name="uni0638" unicode="&#x638;" horiz-adv-x="817" arabic-form="isolated" 
d="M206 64q-2 -15 -21 -15q-17 3 -23 14q1 6 4.5 10t15.5 5q18 -1 24 -14zM49 131l8 -17l66 2l-56 -27l1 -3l87 -2l-73 -20l3 -8l76 -3l-70 -24l4 -10h655l6 17l-82 11l87 15l1 6l-98 21h104l1 7l-129 24l130 -1l4 11zM530 491q0 -22 -13 -37q-13 -17 -41 -17
q-29 0 -47.5 19.5t-18.5 46.5q0 22 14 38.5t40 16.5q28 0 47 -20.5t19 -46.5zM501 495q0 16 -11 24.5t-24 8.5q-7 0 -10 -1q-4 -1 -7 -3q-8 -5 -8 -17q0 -18 6 -26q0 20 4 29l14 -50q3 -3 7 -3q10 0 18 11q5 6 8 13t3 14zM783 209q0 55 -34 95q-28 33 -79 51
q-23 7 -47.5 11.5t-46.5 4.5q-69 0 -144 -42q-70 -41 -104 -98q-17 -29 -27 -50l-7 -17v-5h96q22 66 64 94q16 10 39 15.5t45 5.5q33 0 73 -23q48 -27 48 -59v-33h13l27 75l10 -75h9l28 72l10 -72h25l1 27zM533 245l-14 1q-30 0 -53 -23t-36 -64h192q1 6 1 15q0 35 -29 52
q-22 14 -61 19zM739 -5h-136v-26l128 -19zM689 271l-48 18l-27 8l-23 5l-49 10q21 9 32 11l14 3l11 1q52 0 90 -56zM684 214q-37 33 -57 45l-12 5l-8 3l-9 4l-69 21l30 8l15 1q29 0 53 -15q18 -11 27 -20q3 -3 6.5 -8t23.5 -44zM365 593l13 -273l-21 -22l-27 -32l-12 -18
l-13 -23l-21 -37l-23 -44l-53 464zM350 327l-24 230l-6 -1l-26 -91l-12 91l4 -1l-17 -95l-26 108l14 -3l28 -328l9 15l-31 144l54 -103l3 4l-29 104l52 -82zM253 159q38 115 134 181q88 60 196 60q98 0 169 -57q72 -58 72 -145l-1 -22q0 -5 -2 -11l-2 -12l-38 -153l-17 -84
l-199 27v52h-504l-57 164h249z" />
    <glyph glyph-name="uni0639" unicode="&#x639;" horiz-adv-x="487" arabic-form="isolated" 
d="M156 -193q-32 48 -37 61l-2 13l-1 16q0 29 34 53l-6 -31l-1 -13l1 -25l1 -11q0 -4 1 -7zM159 -246q-57 82 -60.5 88t-7.5 16q-4 16 -4 34q0 31 40 59q-13 -38 -13 -64v-14v-9l2 -11q0 -5 43 -99zM116 74q-29 -21 -52 -70q-24 -52 -24 -100t11 -108t23 -82q37 -70 133 -92
l32 -5l19 -2h21l52 -1l56 -1h58h17h7l-1 14l-38 9l-100 25l133 -2q1 -3 1 3l1 8v2l-29 11l-59 20l51 9l34 3l-1 21l-72 3h-17l-24 -1l-27 1l-25 1h-10l-12 1l-21 4q-58 11 -81 64q-15 33 -15 81q0 46 18 80q25 45 70 45h163l-1 14l-100 7l99 27l2 14l-70 12l71 26l-3 23h-70
l-23 52l-38 7l30 19l-15 46l14 17l46 -3l31 63l4 -66l71 -3v5l-28 17h31v2l-113 39l-78 -91l11 -90q-37 0 -77 -19q-28 -14 -59 -37zM246 170l-10 77l96 113l159 -52l-14 -59l-153 7l31 -97h83v-164h-207q-23 -16 -36 -45q-6 -23 -6 -53v-15q0 -27 3 -44q5 -27 24 -46
t63 -26l75 -4l87 -3l48 -1l17 -170l-42 -1l-67 -1l-69 1h-53h-34q-97 10 -151 57q-45 39 -64 107q-14 54 -14 130q0 64 21 119t61 89l18 14l17 13l31 19q18 9 40 18q10 4 23 9t23 8z" />
    <glyph glyph-name="uni063A" unicode="&#x63a;" horiz-adv-x="487" arabic-form="isolated" 
d="M393 446q0 -22 -13 -38q-14 -17 -41 -17q-29 0 -47.5 20t-18.5 46q0 22 14 38.5t40 16.5q29 0 47.5 -20t18.5 -46zM365 450q0 15 -11.5 23.5t-24.5 8.5q-7 0 -10 -1q-5 -1 -7 -3q-8 -5 -8 -17q0 -18 6 -26q0 21 4 29l14 -49q3 -4 7 -4q10 0 18 11q5 6 8.5 13t3.5 15z
M156 -193q-32 48 -37 61l-2 13l-1 16q0 29 34 53l-6 -31l-1 -13l1 -25l1 -11q0 -4 1 -7zM159 -246q-57 82 -60.5 88t-7.5 16q-4 16 -4 34q0 31 40 59q-13 -38 -13 -64v-14v-9l2 -11q0 -5 43 -99zM116 74q-29 -21 -52 -70q-24 -52 -24 -100t11 -108t23 -82q37 -70 133 -92
l32 -5l19 -2h21l52 -1l56 -1h58h17h7l-1 14l-38 9l-100 25l133 -2q1 -3 1 3l1 8v2l-29 11l-59 20l51 9l34 3l-1 21l-72 3h-17l-24 -1l-27 1l-25 1h-10l-12 1l-21 4q-58 11 -81 64q-15 33 -15 81q0 46 18 80q25 45 70 45h163l-1 14l-100 7l99 27l2 14l-70 12l71 26l-3 23h-70
l-23 52l-38 7l30 19l-15 46l14 17l46 -3l31 63l4 -66l71 -3v5l-28 17h31v2l-113 39l-78 -91l11 -90q-37 0 -77 -19q-28 -14 -59 -37zM246 170l-10 77l96 113l159 -52l-14 -59l-153 7l31 -97h83v-164h-207q-23 -16 -36 -45q-6 -23 -6 -53v-15q0 -27 3 -44q5 -27 24 -46
t63 -26l75 -4l87 -3l48 -1l17 -170l-42 -1l-67 -1l-69 1h-53h-34q-97 10 -151 57q-45 39 -64 107q-14 54 -14 130q0 64 21 119t61 89l18 14l17 13l31 19q18 9 40 18q10 4 23 9t23 8z" />
    <glyph glyph-name="uni0641" unicode="&#x641;" horiz-adv-x="631" arabic-form="isolated" 
d="M559 455q0 -22 -12 -38q-14 -17 -41 -17q-30 0 -48 20t-18 46q0 23 13.5 39t40.5 16q28 0 46.5 -20t18.5 -46zM531 459q0 16 -11 24t-24 8q-7 0 -11 -1q-4 0 -7 -3q-7 -5 -7 -16q0 -19 6 -26q0 20 4 28l13 -49q3 -4 8 -4q9 0 18 11q5 7 8 13.5t3 14.5zM474 159l1 1l-10 1
q-22 2 -40 11q-29 15 -43.5 40.5t-14.5 55.5q0 18 7 41q11 35 37.5 55t69.5 29l18 1q30 0 59 -15q11 -5 23 -15q13 -9 26 -21q18 -16 26 -49q7 -27 7 -60q0 -38 -5 -67l-3 -14l-29 -158h-408l-6 -73l-180 14l11 51l-14 3l10 170l37 -2l13 140l160 -29l-17 -110h265zM184 245
h5l-31 -93l-6 98l2 -1l-28 -145l-7 156l-20 6l-8 -107l79 -1zM157 -9l-98 -2l-6 -6v-21l27 -2l20 48l14 -49h4l27 54l5 -58l2 -2zM139 76l-19 -20l-18 20l18 19zM566 20l7 20l-38 18l48 20l6 18l-35 3l40 31l-15 7l10 21l6 16q6 19 10 40q1 9 2 19t1 18q0 27 -6.5 46
t-24.5 34q-12 11 -20 15l-18 12q-18 9 -38 9h-5h-6q-44 -5 -67 -36q1 0 20.5 -22.5t16.5 -27.5q-7 -7 -39 11l-14 7l1 2q0 -6 -1 -7l-2 -14l-1 -14q0 -25 10.5 -44t30.5 -29l13 -3l18 -1h17l22 4l-15 -60l-442 1l-1 -12l76 -14l-79 -16l-2 -33l85 -19l-88 -15l-1 -6z
M553 269q0 -10 -1.5 -14t-3.5 -8t-5 -7q-12 -14 -32 -14q-24 0 -38 15.5t-14 35.5q0 17 10.5 30t32.5 13q23 0 38 -17q13 -13 13 -34zM527 272q0 11 -8 17q-4 3 -7.5 4.5t-7.5 1.5l-9 -1q-1 0 -4 -3q-4 -2 -4 -10q0 -15 2 -18q0 22 3 28l12 -45q2 -2 4 -2q4 0 11 7q5 6 8 21
z" />
    <glyph glyph-name="uni0642" unicode="&#x642;" horiz-adv-x="660" arabic-form="isolated" 
d="M475 160l-10 1q-22 2 -40 11q-28 15 -42.5 40.5t-14.5 55.5q0 18 6 41q11 35 38 55t69 29l19 1q29 0 58 -15q11 -5 23 -15q13 -9 26 -21q23 -20 37 -51l6 -16l3 -13l2 -15l1 -16q0 -48 -23 -104q-19 -50 -55 -102q-14 -23 -27.5 -40.5t-31.5 -38.5q-36 -39 -72 -60
q-42 -25 -86 -25q-10 0 -14.5 0.5t-17 2.5t-25.5 8q-27 9 -61 41l-22 24l-22 29l-3 4l-7 -49l-180 14l13 57l-17 2l11 165l38 -2l15 132l159 -29l-5 -59q0 -24 -3 -41l-1 -10q0 -4 -2 -6q0 -7 2 -16t9 -24q14 -28 36 -51q25 -23 50 -23q59 0 100 34q27 22 50 65zM193 238h-2
l-31 -93l-5 97h1l-28 -145l-7 156l-23 7l-11 -101h97zM166 -6h-113l-7 -38l30 -3l20 48l14 -50h4l28 55l4 -57l14 -2zM139 76l-19 -20l-18 20l18 19zM566 339l-18 14l-15 9q-3 2 -10 4l-10 2l-8 1l-17 -1q-33 -4 -54 -19q-24 -16 -32 -47l-2 -15l-1 -16q0 -14 2.5 -26
t7.5 -23q9 -19 30 -29l8 -3l15 -2l29 -2h4h11l2 -19v-11l-1 -16v-5q0 -3 -4 -9q-21 -52 -70.5 -88.5t-100.5 -36.5q-17 0 -27 3q-48 11 -80 47.5t-40 82.5l-138 1l3 -16l107 -11l-111 -12l-5 -36l105 -22l-107 -9l-4 -12h171q17 -36 46.5 -66.5t68.5 -47.5l23 -7l11 -1
l11 -1q54 0 110 53q49 46 87 121l28 58l12 26l11 29q9 30 9 50q0 29 -13 55t-44 53zM473 493q0 -22 -13 -37q-13 -18 -41 -18q-29 0 -47.5 20t-18.5 47q0 22 14 38.5t40 16.5q29 0 47.5 -20.5t18.5 -46.5zM445 497q0 16 -11.5 24.5t-24.5 8.5q-7 0 -10 -1q-4 -1 -7 -3
q-8 -5 -8 -17q0 -18 6 -26q0 20 4 29l14 -50q3 -3 8 -3q9 0 17 10q6 7 9 14t3 14zM601 493q0 -22 -13 -37q-13 -18 -41 -18q-29 0 -47.5 20t-18.5 47q0 22 14 38.5t41 16.5q28 0 46.5 -20.5t18.5 -46.5zM573 497q0 16 -11 24.5t-25 8.5q-6 0 -10 -1t-7 -3q-7 -5 -7 -17
q0 -18 5 -26q0 20 4 29l14 -50q3 -3 8 -3q9 0 18 10q5 7 8 14t3 14zM552 268q0 -17 -11 -29q-10 -13 -32 -13t-38 16q-13 15 -13 34q0 17 10.5 30t32.5 13q24 0 38 -17q13 -15 13 -34zM521 271q0 7 -7 14q-5 4 -12 4q-5 0 -9 -2.5t-4 -8.5q0 -13 2 -14q0 10 5 15l8 -30
q1 -1 2 -1q2 0 9 5l5 9q1 3 1 9zM527 7q0 -4 -6 -10l-9 -7l-11 -11q-5 -6 -20 -12q-1 -1 -4 -3t-7 -5t-8 -5t-13 -5l-28 -3q21 18 59 43q23 15 34 50zM476 27q0 -12 -15 -31q-13 -12 -30 -18l-6 -1l-24 -3l27 25q7 6 9 9q10 11 27 45z" />
    <glyph glyph-name="uni0643" unicode="&#x643;" horiz-adv-x="730" arabic-form="isolated" 
d="M456 216q-22 0 -44 -2q-6 0 -15.5 -1.5t-27.5 -4.5l-66 -7l-5 62l41 3l-7 5q-16 9 -22 14q-23 19 -23 42q0 29 33 49q28 15 63 15q23 0 48 -9l-1 -14q-1 -5 -2 -8t-3 -10l-4 -15l-4 -17q-15 0 -25 2l-14 3q-1 0 -1 -1q0 -5 8 -18q17 -27 32 -27h5l30 2l1 -35zM733 -35
l-174 9l-2 21h-355l-8 -66l-180 5l14 61l-17 1l13 163h34l8 134l159 -29l-11 -105h341l-16 447l176 7zM404 240v0v0v0v0zM698 -8l-12 592l-17 -1l-15 -107l-21 105l-12 -1l3 -108l-42 105l-10 -1l21 -577h-2l19 110l20 -114l24 -2l25 119l18 -120h1zM384 373q-2 1 -11 1
q-15 0 -39 -14q-24 -15 -24 -34q0 -16 23 -34q10 -9 20 -14q10 -4 16 -4h10h12h6q18 0 0 -9l-12 5q-14 6 -13 6q-2 0 -17 11l10 5v1q-14 16 -14 30q0 21 31 21l11 -1h-1v-1v-1q-1 0 -35 13l28 5l-27 11zM426 226l-35 3l25 9l-26 6l36 12l1 -2l-101 -7v0l52 -3l-53 -15v2
l35 -2l-11 -5l79 7zM557 18l-1 117h-496l-1 -19l81 -7l-84 -23l-4 -30l97 -18l-100 -13l-1 -7h509zM189 240v0l-32 -93l-5 98h1l-28 -102l-6 112l-21 6l-8 -102h90zM170 -6l-110 1l-9 -37h34l20 49l14 -49h4l28 54l4 -56h11zM661 72l-20 -18l-18 18l18 18zM344 317l-7 -7
q-15 0 -20 10l-3 13q0 12 16 19l9 -10l-2 -5v-4q0 -4 7 -16zM331 317l-12 -12l-10 10l-4 6l-3 10q0 11 16 22l10 -11l-2 -6l-1 -5q0 -4 6 -14zM144 75l-19 -20l-18 20l18 19zM893 756l60 -143l-439 -254l-60 144zM895 664l-9 17l-82 -30l69 60v2l-378 -217l5 -12l80 26
l-63 -54l10 -18l76 21l-69 -48l4 -10l374 217l-4 10l-85 -34zM757 599l12 -57l-42 39l9 25z" />
    <glyph glyph-name="uni0644" unicode="&#x644;" horiz-adv-x="471" arabic-form="isolated" 
d="M305 -87q-30 -22 -45 -27l-14 -3l-17 -1q-33 0 -53 27l31 -6l13 -1l24 1l11 1h3zM335 -97q-46 -39 -64 -44t-37 -5q-36 0 -59 33q39 -14 63 -14h14l7 1l7 1l11 2q2 0 3.5 0.5t54.5 25.5zM161 60v11l1 12v5v4l-2 4l-30 -2l-4 -65l-14 63l-26 -2l-4 -58l-17 56l-20 -2v-23
v-23l2 -36q0 -36 4 -57.5t11 -41.5q19 -50 64 -82q23 -15 46.5 -21.5t50.5 -6.5q25 0 47 3.5t41 9.5q35 12 63 33.5t47 52.5t30 81v29l-1 210v84l-2 126l-1 156l-24 -4q-3 -12 -15 -41l-6 -14l1 53l-11 -2h-31l21 -5l-5 -10q-5 -11 -12 -35l-3 25l-1 25l-41 -3v-535
q-4 -49 -34 -74q-22 -17 -52 -17l-14 1l-10 2q-25 11 -40 51q-9 33 -9 63zM293 45v542l178 17l3 -606q0 -105 -74 -169q-68 -59 -165 -59q-64 0 -113 27q-40 22 -72 69q-12 20 -22 73l-6 53v22l-2 36v13v6v5v4v5l-1 10l-1 19l171 6l-1 -25v-34q0 -43 3 -52q6 -25 25 -36
l10 -4h10q21 0 39 20t18 58z" />
    <glyph glyph-name="uni0645" unicode="&#x645;" horiz-adv-x="515" arabic-form="isolated" 
d="M43 18l416 1v6l-70 19l75 7l1 12l-65 11l71 18v9l-71 13l76 19v0h-415l1 -6l54 -21l-60 -7l-2 -16l56 -14l-62 -18l-1 -4l60 -13l-63 -13zM373 159l1 6l1 14q0 22 -4 36q-5 17 -15 19h-6q-10 0 -19 -13.5t-9 -36.5q0 -12 3 -25h48zM479 159l3 42q0 71 -34.5 114t-87.5 43
t-85 -38q-26 -34 -39 -108l-2 -26v-17v-10h58q-3 12 -3 26q0 29 18.5 50.5t49.5 21.5q47 0 47 -71l-2 -27h1l25 57l10 -57h-1l29 53l5 -53h8zM129 66q-13 2 -17 11q2 7 14 13q15 -3 18 -12q-2 -11 -15 -12zM445 218l-32 27l-8 6l-18 11l-15 6l-42 15l23 8l14 1
q24 0 44 -14.5t34 -59.5zM452 270q-43 21 -64.5 28t-64.5 16l32 12q9 3 20 3q41 0 77 -59zM162 -386l17 378h-6l-24 -40l-15 39h-7l-18 -53l-18 53h-2l-24 -389h8l25 105l14 -101l8 1l19 90l24 -82zM7 -5l22 164h167q0 109 40 168q41 61 121 61q75 0 118.5 -49t43.5 -133
v-20v-15l-2 -10l-1 -8l-27 -158l-276 -1l-20 -402l-161 -17l25 420h-50z" />
    <glyph glyph-name="uni0646" unicode="&#x646;" horiz-adv-x="380" arabic-form="isolated" 
d="M254 -62q-27 -18 -39 -22t-26 -4q-26 0 -49 26q30 -7 41 -7q12 0 73 7zM279 -69q-51 -41 -86 -41q-31 0 -49 32q27 -12 33.5 -13.5t9.5 -1.5h9h10t10 1q10 1 63 23zM258 241q0 -22 -13 -37q-13 -18 -41 -18t-48 21q-18 19 -18 45q0 23 14 39t41 16q28 0 46.5 -20
t18.5 -46zM230 245q0 16 -11 24.5t-24 8.5q-10 0 -17.5 -5t-7.5 -16q0 -19 -5 -13q0 -12 15 11l13 -45q3 -3 8 -3q9 0 18 11q5 5 8 12.5t3 14.5zM358 154h5q-4 -17 -7 -29l-30 -119l1 144l3 1h-8l4 -1l-23 -113l-8 94l-1 18l-9 -2v-12l1 -17q0 -77 -31 -126q-28 -44 -64 -44
q-39 0 -58 41q-12 29 -12 64q0 8 1 24.5t1 26.5l3 29v4v1l-4 -1q-4 0 -12 -2l-20 -147l-16 140h-1l5 -174l-37 175v0q0 -78 4 -122q2 -23 6.5 -43.5t11.5 -41.5q14 -37 44 -56q27 -17 67 -17q36 0 66 10q24 9 46 25.5t41 56.5q15 32 22 68l3 38l4 65zM374 -3
q-8 -71 -62 -121t-124 -50q-54 0 -87.5 15t-56.5 51q-12 20 -20 75q-4 26 -6 47.5t-2 41.5l-2 94l144 14l1 -13v-5l-4 -49q0 -9 -1 -26t-1 -24q0 -29 12 -54q10 -21 24 -21q17 0 35 26q21 31 28 87l2 22q0 19 -3 38q0 6 -4 22l142 15l-4 -67q0 -28 -4 -63q0 -2 -7 -55z" />
    <glyph glyph-name="uni0647" unicode="&#x647;" horiz-adv-x="305" arabic-form="isolated" 
d="M272 45q-4 -5 -9.5 -10t-12.5 -11q-12 -9 -28 -16q-13 -5 -30 -10l-15 -2l-16 -1q-25 0 -52.5 9.5t-47.5 27.5q-24 21 -36.5 49t-12.5 58q0 7 0.5 13.5t2 15.5t5.5 21q10 22 29 44.5t49.5 36t61.5 13.5q26 0 51.5 -9t48 -28t35.5 -49t13 -59q0 -24 -9 -48.5t-27 -44.5z
M241 63q14 16 21 35l6 21q2 11 2 21q0 25 -10 47.5t-29 39.5q-15 13 -34 20l-19 6q-10 2 -19 2q-23 0 -44 -9.5t-38 -28.5q-14 -16 -21.5 -36t-7.5 -40q0 -25 9.5 -47.5t29.5 -40.5q15 -13 34 -20t38 -7q21 0 43.5 9t38.5 28zM219 210q-30 18 -92 31l49 3h10q5 0 15 -4
q18 -7 18 -30zM219 188q-38 24 -58 24l-15 -1q0 20 22 20q14 0 31 -8t20 -35zM207 104q-17 -21 -47 -21q-25 0 -42 15q-20 18 -20 43q0 20 14 36q19 21 47 21q22 0 42 -16q20 -17 20 -42q0 -18 -14 -36zM220 112q0 -33 -11 -42q-11 -11 -30 -11l-22 4l19 9l6 4l9 8zM245 130
q0 -64 -22.5 -82.5t-69.5 -18.5l41 23q7 4 9 6q17 13 42 72zM113 243q-42 -64 -59 -169l-10 64l-1 9q0 36 70 96zM78 104q-21 31 -21 43l3 14l3 13q9 25 36 25q-14 -26 -21 -95zM180 116l7 11l1 5l1 7q0 15 -12 28q-8 7 -18 7q-12 0 -22 -11q-4 -3 -6 -8l-1 -7l-1 -6
q0 -17 12 -28l9 -6q4 -1 9 -1q12 0 21 9z" />
    <glyph glyph-name="uni0648" unicode="&#x648;" horiz-adv-x="395" arabic-form="isolated" 
d="M78 97q10 62 76 93q39 17 84 17q23 0 41 -4q64 -10 96 -40t32 -74q0 -10 -2 -25q-7 -39 -21 -71q-18 -42 -53 -85q-16 -20 -59 -53l-78 -58q-47 -34 -72 -54l-103 96l53 41l60 44q32 24 35 28q-34 12 -65 58q-13 18 -19 37.5t-6 34.5zM109 97l-1 -10q0 -14 5.5 -34
t17 -37.5t37.5 -36.5l15 -10l9 8q-19 8 -39 75l41 -48q2 -2 15 -8l-1 1l5 4q-8 7 -15 16q-6 9 -14 42l43 -39l5 8l-1 1l-3 4l-9 11q-9 12 -9 20q3 16 16 27q8 6 16 8l18 1q28 -5 28 -26v-9l-1 -5q-4 -20 -75 -100l-34 -27l-63 -49l-56 -44l4 -4l108 54l-84 -80l6 -5l91 65
l-66 -89l4 -3l33 24q31 21 50 35q22 17 35 28q45 36 66 59q28 33 50 84q16 40 22 75v9q0 33 -25.5 54.5t-81.5 32.5q-18 3 -35 3q-39 0 -64 -11.5t-40.5 -28t-22.5 -45.5zM240 67l2 -7l6 -9l5 -7l-4 5l10 16v3q0 4 -2 7v2l-9 -2l-3.5 -3t-4.5 -5zM147 87q3 21 19.5 42.5
t78.5 34.5q-47 -28 -60 -53l-35 -89l-4 44v4v8zM263 -36l31 26l15 -24l-23 -20zM181 88q6 34 59 43l-26 -36l-9 -15l-18 -45l-6 44v9z" />
    <glyph glyph-name="uni0649" unicode="&#x649;" horiz-adv-x="653" arabic-form="isolated" 
d="M171 -3h6l-31 -83l-6 87h2l-28 -130l-7 140l-21 5l-11 -89h81zM143 -225l-99 -2l-5 -5v-18l27 -2l20 44l14 -45h4l27 49l5 -53l2 -1zM125 -148l-19 -18l-19 18l19 18zM453 43l17 51h114l1 14l-66 23l65 5l1 35l-31 11l30 14l2 14h-5l-12 1l-40 -2l-16 -1h-7.5t-10.5 -2
q-46 -6 -65 -22.5t-32 -49.5q-5 -16 -8 -32l-2 -16l-1 -19q0 -37 11.5 -66.5t32.5 -41.5l15 -4l17 -1h7h5l4 1l21 3l-4 -25q-4 -16 -11 -33q-21 -48 -62 -78q-43 -33 -96 -33q-18 0 -35 4q-51 12 -81.5 41t-37.5 69l-129 1l-1 -9l79 -14l-82 -14l-2 -30l88 -18l-91 -13
l-1 -4l173 1q9 -30 19 -40t31 -20l47 -17q22 -8 45 -8q62 0 130 52q63 47 89 104q14 31 14 53q0 20 -14 40q-11 13 -43 34q-16 11 -72 42zM615 -87l-7 -18q-8 -24 -19 -44l-7 -14l-7 -12l-7 -10l-7 -11q-41 -52 -88 -83q-26 -15 -54 -24l-28 -6q-14 -3 -29 -3q-19 0 -35 3
l-8 1q-6 0 -11 3l-8 1l-9 3q-18 5 -31 13q-11 5 -30 18q-24 16 -45 35l-2 2l-8 -54l-173 12l4 47l-14 3l9 152l39 -1l15 119l159 -26l-3 -21q-5 -40 -12 -66q6 -39 31 -73q30 -38 70 -38q59 0 101 28q28 19 49 54l10 25h-9q-22 3 -40 10q-28 14 -45 53q-7 19 -11 36
q-2 7 -3 17t-1 19q0 24 6 40l7 32l6 21q7 29 36 49q20 15 62 26q36 6 70 6h79v-164h-123l-7 -19q63 -37 80 -50q50 -39 50 -75q0 -11 -2 -16zM471 -38l-5 1q-18 6 -31 19q-15 18 -15 31l12 26q17 -34 27 -46q2 -3 9 -8l27 -26zM511 -185q0 -4 -6 -9l-9 -8l-11 -10
q-5 -7 -19 -12q-1 -2 -4 -4l-7.5 -5t-8.5 -5t-12 -4l-29 -4q21 19 59 43q23 15 35 50zM461 -164q0 -13 -16 -32q-12 -12 -30 -18l-6 -1l-24 -3l27 25q8 6 10 9q9 12 26 46z" />
    <glyph glyph-name="uni064A" unicode="&#x64a;" horiz-adv-x="614" arabic-form="isolated" 
d="M465 -387q0 -24 -13 -38q-14 -17 -41 -17q-29 0 -47.5 19.5t-18.5 46.5q0 22 14 38.5t41 16.5t46 -20t19 -46zM437 -383q0 15 -11 24l-13 7l-5 1l-7 1q-11 0 -17 -6q-7 -4 -7 -15q0 -19 -5 -13v-14q0 3 16 23l12 -44q3 -3 8 -3q8 0 18 11q11 14 11 28zM325 -377
q0 -21 -13.5 -38t-40.5 -17q-30 0 -48 19.5t-18 47.5q0 22 13.5 38t40.5 16t46.5 -19.5t19.5 -46.5zM296 -373q0 16 -11 24.5t-24 8.5l-12 -1q-1 -1 -6 -4q-7 -4 -7 -16q0 -18 6 -26q0 20 4 28l13 -49q4 -3 8 -3q9 0 18 10q5 7 8 14t3 14zM171 -3h6l-31 -83l-6 87h2
l-28 -130l-7 140l-21 5l-11 -89h81zM143 -225l-99 -2l-5 -5v-18l27 -2l20 44l14 -45h4l27 49l5 -53l2 -1zM125 -148l-19 -18l-19 18l19 18zM453 43l17 51h114l1 14l-66 23l65 5l1 35l-31 11l30 14l2 14h-5l-12 1l-40 -2l-16 -1h-7.5t-10.5 -2q-46 -6 -65 -22.5t-32 -49.5
q-5 -16 -8 -32l-2 -16l-1 -19q0 -37 11.5 -66.5t32.5 -41.5l15 -4l17 -1h7h5l4 1l21 3l-4 -25q-4 -16 -11 -33q-21 -48 -62 -78q-43 -33 -96 -33q-18 0 -35 4q-51 12 -81.5 41t-37.5 69l-129 1l-1 -9l79 -14l-82 -14l-2 -30l88 -18l-91 -13l-1 -4l173 1q9 -30 19 -40t31 -20
l47 -17q22 -8 45 -8q62 0 130 52q63 47 89 104q14 31 14 53q0 20 -14 40q-11 13 -43 34q-16 11 -72 42zM615 -87l-7 -18q-8 -24 -19 -44l-7 -14l-7 -12l-7 -10l-7 -11q-41 -52 -88 -83q-26 -15 -54 -24l-28 -6q-14 -3 -29 -3q-19 0 -35 3l-8 1q-6 0 -11 3l-8 1l-9 3
q-18 5 -31 13q-11 5 -30 18q-24 16 -45 35l-2 2l-8 -54l-173 12l4 47l-14 3l9 152l39 -1l15 119l159 -26l-3 -21q-5 -40 -12 -66q6 -39 31 -73q30 -38 70 -38q59 0 101 28q28 19 49 54l10 25h-9q-22 3 -40 10q-28 14 -45 53q-7 19 -11 36q-2 7 -3 17t-1 19q0 24 6 40l7 32
l6 21q7 29 36 49q20 15 62 26q36 6 70 6h79v-164h-123l-7 -19q63 -37 80 -50q50 -39 50 -75q0 -11 -2 -16zM471 -41l-5 1q-18 5 -31 18q-15 18 -15 31l12 26q17 -34 27 -45q2 -3 9 -9l27 -25zM511 -189q0 -3 -6 -9l-9 -7l-11 -11q-5 -7 -19 -12q-1 -1 -4 -3.5t-7.5 -5.5
t-8.5 -5t-12 -4l-29 -4q21 19 59 44q23 14 35 49zM461 -168q0 -13 -16 -31q-12 -13 -30 -19l-6 -1l-24 -3l27 26q8 6 10 9q9 11 26 45z" />
    <glyph glyph-name="uni064B" unicode="&#xfe70;" arabic-form="isolated" 
d="M175 680q0 -17 -12 -22l-139 -59q-19 -4 -19 18q0 16 12 21l140 60q18 0 18 -18zM149 679v38l12 -38l-126 -56v-5q0 6 -4 2l119 53q-1 -1 -1 6zM190 624q0 -17 -11 -23l-139 -59q-20 -3 -20 19q0 16 12 21l141 60q17 0 17 -18zM164 622v38l12 -37l-126 -56v-5q0 6 -4 2
l119 52q-1 0 -1 6z" />
    <glyph glyph-name="uni064C" unicode="&#xfe72;" arabic-form="isolated" 
d="M200 618l-5 -33q-30 0 -58 14q-22 -32 -58.5 -56.5t-58.5 -24.5h-6l-8 1l-13 7v10l19 12q2 6 8 30l2 19l1 18q0 16 14 3l-5 -2q-5 -2 -11 -2q-1 0 -2 -1l-6 -3l-7 -5q-2 -1 -3 -4q-4 -6 -12 -7q-10 0 -15 8q0 13 22.5 34.5t43.5 21.5q33 0 33 -34q0 -27 -14 -52
q16 7 45 44q-31 18 -31 52q0 29 28 62.5t52 33.5q19 0 29.5 -18t10.5 -38q0 -30 -19 -62q15 -7 19 -12q5 -4 5 -16zM172 616q0 4 -1 6t-22 12q7 11 12 38q3 15 3 31q0 10 -2 16t-5 9l-6 11l-1 2q-3 0 -8 -3q-4 -2 -7.5 -5t-9.5 -9q-7 -9 -14 -26q-5 -17 -5 -26q0 -13 6 -27
t23 -24q-14 -19 -44 -44q-25 -21 -75 -46l17 35l10 27l6 20q2 10 2 15q0 14 -7 14q-9 0 -20 -11l-19 -17q-15 -16 -13 2l5 4l7 3l8 5q6 6 20 6l3 -9q14 7 14 -17v-17l-1 -11l-2 -9q-2 -15 -9 -26l-12 -8v2q-1 1 2 1q5 0 12 3l9 4l13 9l17 12l18 14q18 16 39 43l15 -12l11 -7
q7 -3 9 -3zM166 687q0 -9 -1.5 -14.5t-3.5 -10t-9 -18.5q-47 18 -47 50q0 31 29 31q32 0 32 -38zM140 687q0 16 -5 16q-4 0 -4 -11q0 -16 6 -18l2 3l1 5v5z" />
    <glyph glyph-name="uni064D" unicode="&#xfe74;" arabic-form="isolated" 
d="M185 -28q0 -17 -12 -22l-139 -59q-19 -4 -19 18q0 16 12 21l140 60q18 0 18 -18zM159 -29v38l12 -38l-126 -56v-5q0 6 -4 2l119 53q-1 -1 -1 6zM200 -84q0 -17 -11 -23l-139 -59q-20 -3 -20 19q0 16 12 21l141 60q17 0 17 -18zM174 -86v38l12 -37l-126 -56v-5q0 6 -4 2
l119 52q-1 0 -1 6z" />
    <glyph glyph-name="uni064E" unicode="&#xfe76;" arabic-form="isolated" 
d="M180 787q0 -17 -12 -22l-139 -59q-19 -4 -19 18q0 16 12 21l140 60q18 0 18 -18zM154 786v38l12 -38l-126 -56v-5q0 6 -4 2l119 53q-1 -1 -1 6z" />
    <glyph glyph-name="uni064F" unicode="&#xfe78;" arabic-form="isolated" 
d="M203 738l-5 -32q-30 0 -58 14q-22 -33 -58.5 -57t-59.5 -24h-5l-8 1l-13 6v11l111 80q-30 18 -30 52q0 28 28 61.5t53 33.5q19 0 29.5 -17.5t10.5 -38.5q0 -30 -19 -62q15 -7 18 -11q6 -4 6 -17zM175 737q0 4 -1 5.5t-22 12.5q7 10 12 37q2 15 2 32q0 10 -1.5 15.5
t-4.5 8.5l-6 12l-1 2q-4 0 -9 -4q-8 -4 -15.5 -13.5t-10.5 -24.5l-2 -22v-7q0 -18 3 -26q3 -15 18 -23q-10 -15 -40 -37l-27 -20l-21 -14l-21 -14v3q-2 1 2 1q5 0 11 2l10 5l13 8l17 12l18 14q18 17 39 43l14 -11l12 -8q7 -3 9 -3zM169 808q0 -9 -1.5 -15t-3.5 -10.5
t-9 -18.5q-47 19 -47 50q0 32 29 32q32 0 32 -38zM143 808q0 16 -6 16q-3 0 -3 -12q0 -15 6 -18l1 4l1 5z" />
    <glyph glyph-name="uni0650" unicode="&#xfe7a;" arabic-form="isolated" 
d="M190 -80q0 -17 -12 -22l-139 -59q-19 -4 -19 18q0 16 12 21l140 60q18 0 18 -18zM164 -81v38l12 -38l-126 -56v-5q0 6 -4 2l119 53q-1 -1 -1 6z" />
    <glyph glyph-name="uni0651" unicode="&#xfe7c;" arabic-form="isolated" 
d="M171 751q0 -26 -19 -47.5t-38 -21.5q-18 0 -23 7q-18 -37 -51 -37q-20 0 -34 17q-11 14 -11 36v7l1 9l1 6l2 9q7 21 20 21q16 0 16 -14l-2 -10l-1 -12q0 -9 5 -9q19 0 30 50q3 19 13 24q19 0 21.5 -20.5t13.5 -20.5q9 0 13 39q4 32 19 32q11 0 17.5 -23t6.5 -42zM140 740
q0 10 1 11l2 18l-1 8l-2 13q0 9 17 5l-1 -3l-3 -8q-2 -10 -2 -18q-3 -21 -10 -32q-7 -14 -23 -14q-14 0 -26 7.5t-16 22.5q0 10 16 10l1 -8l-1 -4q-4 -24 -23 -41q-18 -15 -36 -15q-25 0 -25 23v4l1 7l2 18l6 -1l16 20l-11 -34l-2 -8l-1 -7v-12q0 -8 2 -12q1 -3 6 -9t9 -6
q7 0 19.5 10t33.5 50q14 -26 21 -31q3 -1 7 -3q3 0 13 11.5t10 27.5z" />
    <glyph glyph-name="uni0652" unicode="&#xfe7e;" horiz-adv-x="2" arabic-form="isolated" 
d="M224 612q0 -37 -24 -62.5t-70 -25.5q-49 0 -82 31t-33 75q0 37 23.5 62.5t70.5 25.5q51 0 83 -32t32 -74zM180 618q0 16 -5 24q-4 10 -15 16q-12 8 -23 11l-12 3l-13 2q-19 0 -34 -9q-14 -9 -14 -27q0 -34 -2 -32q0 -10 24 20l21 -66q8 -7 16 -7q18 0 36 20q9 10 15 21.5
t6 23.5z" />
    <glyph glyph-name="uni0678.fina" unicode="&#x678;" horiz-adv-x="596" 
d="M28 124q0 29 32 50q28 15 64 15q23 0 48 -10l-2 -13q0 -5 -1 -8t-4 -10l-4 -15l-3 -18q-15 0 -25 3l-15 2v-1q0 -5 7 -18q17 -27 33 -27l4 1l30 2l2 -36l3 -28q-23 0 -45 -2q-5 0 -15 -1t-28 -4l-66 -8l-4 62l41 4l-8 4q-16 10 -21 15q-23 19 -23 41zM51 124
q0 -16 22 -35q11 -8 21 -13q10 -4 16 -4l9 -1h13h5q19 0 0 -9l-11 5q-14 7 -14 6q-1 0 -16 12l10 4v2q-14 15 -14 29q0 21 31 21l10 -1v0v0l-1 -1l-35 13l28 4l-27 11l26 3q-2 1 -10 1q-15 0 -40 -14q-23 -15 -23 -33zM145 38l-1 -1h1v0v1zM43 128q0 12 15 23l11 -11l-2 -6
l-1 -6q0 -3 6 -14l-13 -11l-9 9l-5 6zM55 131q0 12 15 18l9 -9l-1 -6l-1 -3q0 -5 8 -16l-8 -8q-15 0 -19 10zM168 28l-1 -5l-35 4l24 9l-25 5l36 12v-1l-101 -8v0l52 -3l-52 -15v3l35 -2l-11 -5zM125 -226l-19 -18l-19 18l19 18zM453 -35l17 51h114l1 14l-66 23l65 5l1 35
l-31 11l30 14l2 14h-5l-12 1l-40 -2l-16 -1h-7.5t-10.5 -2q-46 -6 -65 -22.5t-32 -49.5q-5 -16 -8 -32l-2 -16l-1 -19q0 -37 11.5 -66.5t32.5 -41.5l15 -4l17 -1h7h5l4 1l21 3l-4 -25q-4 -16 -11 -33q-22 -48 -61 -77q-43 -32 -94 -32q-11 0 -19 1t-18 3q-50 12 -82 40
t-38 68l-129 1l-1 -9l79 -14l-82 -14l-2 -30l88 -18l-91 -13l-1 -4l173 1q8 -29 24 -43q13 -12 36 -21l51 -20l8 -2l14 -4q9 -1 12 -1h7q39 0 84 26q40 23 76 62q31 37 49 74q14 31 14 53q0 20 -14 40q-11 13 -43 34q-16 11 -72 42zM615 -165l-7 -18q-8 -24 -19 -44l-7 -14
l-7 -12l-7 -10l-7 -11q-41 -52 -88 -83q-26 -15 -54 -24l-28 -6q-14 -3 -29 -3q-19 0 -35 3l-8 1q-6 0 -11 3l-8 1l-9 3q-18 5 -31 13q-11 5 -30 18q-24 16 -45 35l-2 2l-8 -54l-173 12l4 47l-14 3l9 152l39 -1l15 119l159 -26l-3 -21q-5 -40 -12 -66q6 -39 31 -73
q30 -38 70 -38q59 0 101 28q28 19 49 54l10 25h-9q-22 3 -40 10q-28 14 -45 53q-8 19 -11 36q-2 7 -3 17t-1 19q0 24 6 40l7 32l6 21q7 29 36 49q20 15 62 26q36 6 70 6h79v-164h-123l-7 -19q63 -37 80 -50q50 -39 50 -75q0 -11 -2 -16zM171 -81h6l-26 -83l-10 87h1
l-28 -130l-7 140l-21 5l-11 -89h81zM143 -303l-99 -2l-5 -5v-18l27 -2l20 44l14 -45h4l27 49l5 -53l2 -1zM471 -118l-5 1q-18 5 -31 18q-15 18 -15 31l12 26q17 -34 27 -45q2 -3 9 -9l27 -25zM511 -266q0 -3 -6 -9l-9 -7l-11 -11q-5 -7 -19 -12q-1 -1 -4 -3.5t-7.5 -5.5
t-8.5 -4.5l-12 -4.5l-29 -4q21 19 59 44q23 14 35 49zM461 -245q0 -13 -16 -31q-12 -13 -30 -18l-6 -2l-24 -2l27 25q8 6 10 9q9 11 26 45z" />
    <glyph glyph-name="uni0679" unicode="&#x679;" horiz-adv-x="794" arabic-form="isolated" 
d="M701 161l-18 174l-21 -5l-5 -112l-29 106l-3 -1v-120l-33 116h-5l19 -158h95zM732 -38l-2 27l-1 6h-112l5 -33h11l4 57l27 -55h4l15 50l20 -51zM211 315h-3l-31 -93l-5 97h2l-29 -145l-7 156l-21 5l-16 -175h92zM181 -5h-113l-4 -31h33l20 50l14 -50h4l27 55l5 -57h10z
M681 82l-19 -21l-18 21l18 19zM156 82l-19 -21l-18 21l18 19zM575 160l-20 178l159 29l16 -208h61v-164h-28l11 -54l-181 -5l-7 59h-372l-8 -59l-180 5l11 52l-14 3l15 165l32 -1l15 207l160 -29l-19 -178h349zM758 16l1 16l-125 12l123 23v32l-122 13l121 18l1 6h-684l1 -8
l76 -15l-79 -15l-2 -34l86 -19l-93 -15v-12zM499 452q0 17 -9 29q-7 10 -20 17q-6 3 -12 4q-2 1 -5 1h-5q-17 0 -33 -12q-15 -12 -24 -30l-5 -14l-4 -9h23q3 13 9 22q5 7 13 10q5 2 13 2t18 -6q11 -8 11 -18v-10h3l7 23l2 -23h2l7 22l2 -22h7v14zM439 465h-3q-7 0 -13.5 -7
t-9.5 -20h48v1v2q0 10 -7 17q-6 6 -15 7zM489 388h-34v-9l32 -6zM494 408v2l-24 6l25 1v3l-22 5l23 2l1 4h-159l2 -6h16l-13 -8v0l20 -1l-17 -6l1 -3h18l-16 -8v-4l142 1l2 5l-27 2zM476 472l-11 5l-6 2l-6 2l-11 3q5 3 7 4h3l3 1q12 0 21 -17zM475 454q-8 10 -13 14l-3 1
l-2 1l-2 2l-16 6l7 3h3q7 0 13 -5q4 -3 6 -6q1 -1 2 -2.5t5 -13.5zM342 388l-14 50h46q9 35 32 55q20 18 45 18q23 0 40 -17q17 -18 17 -44v-7q0 -2 -1 -3v-4l-9 -47l-4 -25l-47 8v16h-105zM375 410q0 -5 -5 -5q-4 1 -5 4q0 2 1 3.5t4 1.5q4 0 5 -4zM400 569l3 -83l-5 -6
l-6 -10l-3 -5l-3 -7l-5 -11l-5 -14l-12 141zM397 489l-4 74h-3l-8 -31v32h-1l-3 -35l-5 36h-1l9 -104l3 5l-5 36l10 -24l1 1l-5 30l10 -23z" />
    <glyph glyph-name="uni067E" unicode="&#x67e;" horiz-adv-x="794" arabic-form="isolated" 
d="M701 161l-18 174l-21 -5l-5 -112l-29 106l-3 -1v-120l-33 116h-5l19 -158h95zM732 -38l-2 27l-1 6h-112l5 -33h11l4 57l27 -55h4l15 50l20 -51zM211 315h-3l-31 -93l-5 97h2l-29 -145l-7 156l-21 5l-16 -175h92zM181 -5h-113l-4 -31h33l20 50l14 -50h4l27 55l5 -57h10z
M681 82l-19 -21l-18 21l18 19zM156 82l-19 -21l-18 21l18 19zM575 160l-20 178l159 29l16 -208h61v-164h-28l11 -54l-181 -5l-7 59h-372l-8 -59l-180 5l11 52l-14 3l15 165l32 -1l15 207l160 -29l-19 -178h349zM758 16l1 16l-125 12l123 23v32l-122 13l121 18l1 6h-684l1 -8
l76 -15l-79 -15l-2 -34l86 -19l-93 -15v-12zM463 -186q0 -22 -13.5 -38.5t-40.5 -16.5q-29 0 -47.5 19.5t-18.5 46.5q0 23 14 39t41 16t46 -20t19 -46zM435 -182q0 16 -11 24.5t-24 8.5l-12 -2q-1 0 -6 -3q-7 -5 -7 -16q0 -19 5 -26q0 20 4 28l14 -49q3 -3 8 -3q9 0 18 10
q5 7 8 13.5t3 14.5zM603 -186q0 -22 -13.5 -38.5t-40.5 -16.5q-29 0 -47.5 19.5t-18.5 46.5q0 23 14 39t41 16t46 -20t19 -46zM575 -182q0 16 -11 24.5t-24 8.5l-12 -2q-1 0 -6 -3q-7 -5 -7 -16q0 -19 5 -26q0 20 4 28l14 -49q3 -3 8 -3q9 0 18 10q5 7 8 13.5t3 14.5z
M519 -312q0 16 -11 24.5t-24 8.5l-12 -2q-1 0 -6 -3q-7 -5 -7 -16q0 -19 5 -26q0 20 4 28l14 -49q3 -3 8 -3q9 0 18 10q5 7 8 13.5t3 14.5zM547 -316q0 -22 -13.5 -38.5t-40.5 -16.5q-29 0 -47.5 19.5t-18.5 46.5q0 23 14 39t41 16t46 -20t19 -46z" />
    <glyph glyph-name="uni0686" unicode="&#x686;" horiz-adv-x="531" arabic-form="isolated" 
d="M409 -128q0 -22 -12 -38q-14 -17 -42 -17q-29 0 -47 20t-18 46q0 23 13.5 39t40.5 16q28 0 46.5 -20t18.5 -46zM381 -124q0 16 -11 24t-24 8q-7 0 -10 -1q-5 0 -8 -3q-7 -5 -7 -16q0 -19 6 -26q0 20 4 28l13 -49q3 -4 8 -4q9 0 18 11q5 7 8 13.5t3 14.5zM484 -263h-177
q-72 0 -106 44q-22 29 -22 81l1 102q0 31 33 47q10 4 32 6h136l-23 28h-28l-82 5l91 23l-15 23l-96 9l70 17l-21 25l-37 -1q-34 0 -57 -11q-37 -17 -77 -68q-10 -14 -16 -52l-5 -33l-2 -38l-1 -48v-34v-40l1 -25v-9t1.5 -11.5t2 -12t3.5 -11.5q13 -58 57 -90q52 -37 156 -37
l169 2l1 8l-64 19l63 14l1 16l-71 25l81 5zM182 -56l-11 -64l-3 -23l1 -9v-6l1 -5l8 -35q-29 18 -35 28q-7 12 -7 24q0 13 8 34q6 16 38 56zM166 -57l-15 -41l-5 -9q-8 -16 -8 -27v-11l1 -18l1 -13q2 -5 14 -30q-35 21 -43 39q-4 8 -6 15t-2 14q0 16 14 31zM218 75l-16 -16
l-21 20l17 16zM465 156l-2 -6l6 1zM491 85l-271 310l-19 -15l72 -92l-68 50l38 -64l-85 77l-7 -6l260 -310l11 5l-37 59l63 -41l3 3l-45 64l74 -48zM423 103h-28v19l27 3zM261 171l-152 175l118 92l225 -261h43v-53l44 -43l-131 -86l-158 -1q-17 0 -26 -13q-14 -19 -14 -68
v-26l1 -19q0 -33 20 -64q20 -33 63 -41l221 1l-14 -163h-220q-95 0 -151 36q-48 33 -68 95q-6 22 -11 57q-2 14 -3.5 35t-1.5 39l1 80v13l1 14l3 24q10 73 45 114q45 52 137 63h28zM516 -53q0 -22 -12 -38q-14 -17 -42 -17q-29 0 -47 20t-18 46q0 23 13.5 39t40.5 16
q28 0 46.5 -20t18.5 -46zM488 -49q0 16 -11 24t-24 8q-7 0 -10 -1q-5 0 -8 -3q-7 -5 -7 -16q0 -19 6 -26q0 20 4 28l13 -49q3 -4 8 -4q9 0 18 11q5 7 8 13.5t3 14.5zM516 -180q0 16 -11 24t-24 8q-7 0 -10 -1q-5 0 -8 -3q-7 -5 -7 -16q0 -19 6 -26q0 20 4 28l13 -49
q3 -4 8 -4q9 0 18 11q5 7 8 13.5t3 14.5zM544 -184q0 -22 -12 -38q-14 -17 -42 -17q-29 0 -47 20t-18 46q0 23 13.5 39t40.5 16q28 0 46.5 -20t18.5 -46z" />
    <glyph glyph-name="uni0688" unicode="&#x688;" horiz-adv-x="435" arabic-form="isolated" 
d="M445 -5h-16l9 -41l-182 -5v40l-207 -5l9 167l187 4l-22 245l159 29l15 -268h35zM363 161l-16 239l-8 -2l-12 -82l-25 72l-5 -1l-7 -86l-28 80h-3l20 -222zM402 -25l-3 17l-111 -1l-1 -17h8l12 23l24 -22h4l18 28l16 -28h33zM408 19v15l-103 10l102 22l-1 31l-97 5l94 23
l-1 11l-310 -7l-2 -31l131 -32l-132 6l-2 -16l125 -26l-123 1l-2 -23zM349 82l-18 -21l-19 21l19 19zM271 536q0 17 -9 29q-7 10 -20 17q-6 3 -12 4q-2 1 -5 1h-5q-17 0 -33 -12q-15 -12 -24 -30l-5 -14l-4 -9h23q3 13 9 22q5 7 13 10q5 2 13 2t18 -6q11 -8 11 -18v-10h3
l7 23l2 -23h2l7 22l2 -22h7v14zM211 549h-3q-7 0 -13.5 -7t-9.5 -20h48v1v2q0 10 -7 17q-6 6 -15 7zM261 472h-34v-9l32 -6zM266 492v2l-24 6l25 1v3l-22 5l23 2l1 4h-159l2 -6h16l-13 -8v0l20 -1l-17 -6l1 -3h18l-16 -8v-4l142 1l2 5l-27 2zM248 556l-11 5l-6 2l-6 2l-11 3
q5 3 7 4h3l3 1q12 0 21 -17zM247 538q-8 10 -13 14l-3 1l-2 1l-2 2l-16 6l7 3h3q7 0 13 -5q4 -3 6 -6q1 -1 2 -2.5t5 -13.5zM114 472l-14 50h46q9 35 32 55q20 18 45 18q23 0 40 -17q17 -18 17 -44v-7q0 -2 -1 -3v-4l-9 -47l-4 -25l-47 8v16h-105zM147 494q0 -5 -5 -5
q-4 1 -5 4q0 2 1 3.5t4 1.5q4 0 5 -4zM172 653l3 -83l-5 -6l-6 -10l-3 -5l-3 -7l-5 -11l-5 -14l-12 141zM169 573l-4 74h-3l-8 -31v32h-1l-3 -35l-5 36h-1l9 -104l3 5l-5 36l10 -24l1 1l-5 30l10 -23z" />
    <glyph glyph-name="uni0691" unicode="&#x691;" horiz-adv-x="346" arabic-form="isolated" 
d="M343 6q-30 -115 -112 -192q-81 -73 -173 -73q-15 0 -32 2l-25 5l-21 6l-52 11q14 44 27 82l6 17l5 15l8 19l8 19l25 -8l13 -3l11 -1q32 0 72 38q26 24 59 73l23 40q5 29 8 52l2 22l1 27l160 -30l-2 -45q0 -18 -3 -38.5t-8 -37.5zM318 107l-18 2l-39 -118l7 124l5 -1
l-33 -168l2 174l-12 3q0 -11 -3 -27l-7 -32q-7 -37 -39 -81q-6 -8 -13.5 -16t-16.5 -18q-16 -17 -35 -32q-34 -25 -60 -32l-54 -1l-4 -14q0 -3 7 -5l14 -4l54 -10l-46 -8l-16 -1h-8l-8 1l-2 1l-5 -16q17 -13 92 -29l-46 -3q-23 0 -56 6v-2l-3 -12l-3 -7q13 -4 35 -7l21 -3
l22 -1q61 0 114 29q47 25 77 68q16 20 28 42t22 46q15 40 22 80q2 16 3.5 38t1.5 34zM130 -113q-2 -12 -24 -27q-18 -11 -35 -11l-5 1l-21 2l32 18q8 4 11 6q14 9 37 38zM179 -155q-1 -7 -18 -12q-31 -8 -33 -10q-25 -15 -41 -15l-30 4l73 26q26 8 45 42zM251 326
q0 17 -9 29q-7 10 -20 17q-6 3 -12 4q-2 1 -5 1h-5q-17 0 -33 -12q-15 -12 -24 -30l-5 -14l-4 -9h23q3 13 9 22q5 7 13 10q5 2 13 2t18 -6q11 -8 11 -18v-10h3l7 23l2 -23h2l7 22l2 -22h7v14zM191 339h-3q-7 0 -13.5 -7t-9.5 -20h48v1v2q0 10 -7 17q-6 6 -15 7zM241 262h-34
v-9l32 -6zM246 282v2l-24 6l25 1v3l-22 5l23 2l1 4h-159l2 -6h16l-13 -8v0l20 -1l-17 -6l1 -3h18l-16 -8v-4l142 1l2 5l-27 2zM228 346l-11 5l-6 2l-6 2l-11 3q5 3 7 4h3l3 1q12 0 21 -17zM227 328q-8 10 -13 14l-3 1l-2 1l-2 2l-16 6l7 3h3q7 0 13 -5q4 -3 6 -6
q1 -1 2 -2.5t5 -13.5zM94 262l-14 50h46q9 35 32 55q20 18 45 18q23 0 40 -17q17 -18 17 -44v-7q0 -2 -1 -3v-4l-9 -47l-4 -25l-47 8v16h-105zM127 284q0 -5 -5 -5q-4 1 -5 4q0 2 1 3.5t4 1.5q4 0 5 -4zM152 443l3 -83l-5 -6l-6 -10l-3 -5l-3 -7l-5 -11l-5 -14l-12 141z
M149 363l-4 74h-3l-8 -31v32h-1l-3 -35l-5 36h-1l9 -104l3 5l-5 36l10 -24l1 1l-5 30l10 -23z" />
    <glyph glyph-name="uni06A9" unicode="&#x6a9;" horiz-adv-x="730" arabic-form="isolated" 
d="M456 216q-22 0 -44 -2q-6 0 -15.5 -1.5t-27.5 -4.5l-66 -7l-5 62l41 3l-7 5q-16 9 -22 14q-23 19 -23 42q0 29 33 49q28 15 63 15q23 0 48 -9l-1 -14q-1 -5 -2 -8t-3 -10l-4 -15l-4 -17q-15 0 -25 2l-14 3q-1 0 -1 -1q0 -5 8 -18q17 -27 32 -27h5l30 2l1 -35zM733 -35
l-174 9l-2 21h-355l-8 -66l-180 5l14 61l-17 1l13 163h34l8 134l159 -29l-11 -105h341l-16 447l176 7zM404 240v0v0v0v0zM698 -8l-12 592l-17 -1l-15 -107l-21 105l-12 -1l3 -108l-42 105l-10 -1l21 -577h-2l19 110l20 -114l24 -2l25 119l18 -120h1zM384 373q-2 1 -11 1
q-15 0 -39 -14q-24 -15 -24 -34q0 -16 23 -34q10 -9 20 -14q10 -4 16 -4h10h12h6q18 0 0 -9l-12 5q-14 6 -13 6q-2 0 -17 11l10 5v1q-14 16 -14 30q0 21 31 21l11 -1h-1v-1v-1q-1 0 -35 13l28 5l-27 11zM426 226l-35 3l25 9l-26 6l36 12l1 -2l-101 -7v0l52 -3l-53 -15v2
l35 -2l-11 -5l79 7zM557 18l-1 117h-496l-1 -19l81 -7l-84 -23l-4 -30l97 -18l-100 -13l-1 -7h509zM189 240v0l-32 -93l-5 98h1l-28 -102l-6 112l-21 6l-8 -102h90zM170 -6l-110 1l-9 -37h34l20 49l14 -49h4l28 54l4 -56h11zM661 72l-20 -18l-18 18l18 18zM344 317l-7 -7
q-15 0 -20 10l-3 13q0 12 16 19l9 -10l-2 -5v-4q0 -4 7 -16zM331 317l-12 -12l-10 10l-4 6l-3 10q0 11 16 22l10 -11l-2 -6l-1 -5q0 -4 6 -14zM144 75l-19 -20l-18 20l18 19zM893 756l60 -143l-439 -254l-60 144zM895 664l-9 17l-82 -30l69 60v2l-378 -217l5 -12l80 26
l-63 -54l10 -18l76 21l-69 -48l4 -10l374 217l-4 10l-85 -34zM757 599l12 -57l-42 39l9 25z" />
    <glyph glyph-name="uni06AF" unicode="&#x6af;" horiz-adv-x="730" arabic-form="isolated" 
d="M456 216q-22 0 -44 -2q-6 0 -15.5 -1.5t-27.5 -4.5l-66 -7l-5 62l41 3l-7 5q-16 9 -22 14q-23 19 -23 42q0 29 33 49q28 15 63 15q23 0 48 -9l-1 -14q-1 -5 -2 -8t-3 -10l-4 -15l-4 -17q-15 0 -25 2l-14 3q-1 0 -1 -1q0 -5 8 -18q17 -27 32 -27h5l30 2l1 -35zM733 -35
l-174 9l-2 21h-355l-8 -66l-180 5l14 61l-17 1l13 163h34l8 134l159 -29l-11 -105h341l-16 447l176 7zM404 240v0v0v0v0zM698 -8l-12 592l-17 -1l-15 -107l-21 105l-12 -1l3 -108l-42 105l-10 -1l21 -577h-2l19 110l20 -114l24 -2l25 119l18 -120h1zM384 373q-2 1 -11 1
q-15 0 -39 -14q-24 -15 -24 -34q0 -16 23 -34q10 -9 20 -14q10 -4 16 -4h10h12h6q18 0 0 -9l-12 5q-14 6 -13 6q-2 0 -17 11l10 5v1q-14 16 -14 30q0 21 31 21l11 -1h-1v-1v-1q-1 0 -35 13l28 5l-27 11zM426 226l-35 3l25 9l-26 6l36 12l1 -2l-101 -7v0l52 -3l-53 -15v2
l35 -2l-11 -5l79 7zM557 18l-1 117h-496l-1 -19l81 -7l-84 -23l-4 -30l97 -18l-100 -13l-1 -7h509zM189 240v0l-32 -93l-5 98h1l-28 -102l-6 112l-21 6l-8 -102h90zM170 -6l-110 1l-9 -37h34l20 49l14 -49h4l28 54l4 -56h11zM661 72l-20 -18l-18 18l18 18zM344 317l-7 -7
q-15 0 -20 10l-3 13q0 12 16 19l9 -10l-2 -5v-4q0 -4 7 -16zM331 317l-12 -12l-10 10l-4 6l-3 10q0 11 16 22l10 -11l-2 -6l-1 -5q0 -4 6 -14zM144 75l-19 -20l-18 20l18 19zM893 756l60 -143l-439 -254l-60 144zM895 664l-9 17l-82 -30l69 60v2l-378 -217l5 -12l80 26
l-63 -54l10 -18l76 21l-69 -48l4 -10l374 217l-4 10l-85 -34zM757 599l12 -57l-42 39l9 25zM813 946l60 -143l-439 -254l-60 144zM815 854l-9 17l-82 -30l69 60v2l-378 -217l5 -12l80 26l-63 -54l10 -18l76 21l-69 -48l4 -10l374 217l-4 10l-85 -34zM677 789l12 -57l-42 39
l9 25z" />
    <glyph glyph-name="uni06BA" unicode="&#x6ba;" horiz-adv-x="380" arabic-form="isolated" 
d="M254 -62q-27 -18 -39 -22t-26 -4q-26 0 -49 26q30 -7 41 -7q12 0 73 7zM279 -69q-51 -41 -86 -41q-31 0 -49 32q27 -12 33.5 -13.5t9.5 -1.5h9h10t10 1q10 1 63 23zM258 241q0 -22 -13 -37q-13 -18 -41 -18t-48 21q-18 19 -18 45q0 23 14 39t41 16q28 0 46.5 -20
t18.5 -46zM230 245q0 16 -11 24.5t-24 8.5q-10 0 -17.5 -5t-7.5 -16q0 -19 -5 -13q0 -12 15 11l13 -45q3 -3 8 -3q9 0 18 11q5 5 8 12.5t3 14.5zM358 154h5q-4 -17 -7 -29l-30 -119l1 144l3 1h-8l4 -1l-23 -113l-8 94l-1 18l-9 -2v-12l1 -17q0 -77 -31 -126q-28 -44 -64 -44
q-39 0 -58 41q-12 29 -12 64q0 8 1 24.5t1 26.5l3 29v4v1l-4 -1q-4 0 -12 -2l-20 -147l-16 140h-1l5 -174l-37 175v0q0 -78 4 -122q2 -23 6.5 -43.5t11.5 -41.5q14 -37 44 -56q27 -17 67 -17q36 0 66 10q24 9 46 25.5t41 56.5q15 32 22 68l3 38l4 65zM374 -3
q-8 -71 -62 -121t-124 -50q-54 0 -87.5 15t-56.5 51q-12 20 -20 75q-4 26 -6 47.5t-2 41.5l-2 94l144 14l1 -13v-5l-4 -49q0 -9 -1 -26t-1 -24q0 -29 12 -54q10 -21 24 -21q17 0 35 26q21 31 28 87l2 22q0 19 -3 38q0 6 -4 22l142 15l-4 -67q0 -28 -4 -63q0 -2 -7 -55z" />
    <glyph glyph-name="uni06BE" unicode="&#x6be;" horiz-adv-x="933" arabic-form="isolated" 
d="M905 -5h-855v164h160q-5 13 -5 37q0 27 11.5 53.5t33.5 41.5q16 10 35.5 15t36.5 5h11q9 0 15 -2q7 -1 18 -8q28 -13 41 -23q18 -15 35 -42q10 -16 17 -38.5t7 -41.5h75l-291 260l196 19l309 -279zM714 157l-278 254l-22 -1l32 -42l-72 36l-11 -1l70 -71l-114 67h-13
l275 -242h133zM737 132h-278v-1l1 -7l-1 -8v-4l41 -16l-48 -9q0 -6 -6 -15q-1 -4 -2 -6l41 -22l-68 -8l-30 -19h453l-28 29l-129 1l107 23l-13 16l-110 7l85 22zM339 160q3 4 3 10t-3.5 9t-5.5 3q-1 0 -5 -3q-3 -5 -3 -10t4 -10q2 -2 4 -2q3 0 6 3zM414 229q-8 14 -33 33
q-11 8 -37 20q-14 6 -26 6q-24 0 -50 -17q-7 -3 -15 -14q-10 -13 -15 -32l-2 -10v-10q0 -16 4 -28t7 -18h-3v1v8t3 10t32 40l-6 -37v-11l1 -14l-1 3h-1v4v7l1 4q2 5 25 37l1 -52h-4l-2 11q0 9 4 16l6 7l8 6l8 4q5 1 13 2q12 0 22.5 -5.5t17.5 -17.5l2 -11q0 -11 -9.5 -23
t-25.5 -12h-259l2 -20l83 -13l-82 -20l-1 -15l93 -6l-94 -26v-19l169 1h10h8h6h6h4q15 0 21 1q40 4 77 26q21 14 35.5 46t14.5 67q0 22 -5 38l-2 8l-3 8l-2 7zM699 82l-19 -20l-18 20l18 19zM384 233l-32 6l-9 1q-17 0 -92 -25l29 27l7 6q7 4 18 8l13 3l11 1q16 0 25 -3
q11 -3 30 -24zM365 222l-36 -5q-22 -3 -46 -15q11 25 23 31q15 7 25 7q16 0 34 -18zM181 87l-5 -19l-31 5l5 19z" />
    <glyph glyph-name="uni06C1" unicode="&#x6c1;" horiz-adv-x="305" arabic-form="isolated" 
d="M272 45q-4 -5 -9.5 -10t-12.5 -11q-12 -9 -28 -16q-13 -5 -30 -10l-15 -2l-16 -1q-25 0 -52.5 9.5t-47.5 27.5q-24 21 -36.5 49t-12.5 58q0 7 0.5 13.5t2 15.5t5.5 21q10 22 29 44.5t49.5 36t61.5 13.5q26 0 51.5 -9t48 -28t35.5 -49t13 -59q0 -24 -9 -48.5t-27 -44.5z
M241 63q14 16 21 35l6 21q2 11 2 21q0 25 -10 47.5t-29 39.5q-15 13 -34 20l-19 6q-10 2 -19 2q-23 0 -44 -9.5t-38 -28.5q-14 -16 -21.5 -36t-7.5 -40q0 -25 9.5 -47.5t29.5 -40.5q15 -13 34 -20t38 -7q21 0 43.5 9t38.5 28zM219 210q-30 18 -92 31l49 3h10q5 0 15 -4
q18 -7 18 -30zM219 188q-38 24 -58 24l-15 -1q0 20 22 20q14 0 31 -8t20 -35zM207 104q-17 -21 -47 -21q-25 0 -42 15q-20 18 -20 43q0 20 14 36q19 21 47 21q22 0 42 -16q20 -17 20 -42q0 -18 -14 -36zM220 112q0 -33 -11 -42q-11 -11 -30 -11l-22 4l19 9l6 4l9 8zM245 130
q0 -64 -22.5 -82.5t-69.5 -18.5l41 23q7 4 9 6q17 13 42 72zM113 243q-42 -64 -59 -169l-10 64l-1 9q0 36 70 96zM78 104q-21 31 -21 43l3 14l3 13q9 25 36 25q-14 -26 -21 -95zM180 116l7 11l1 5l1 7q0 15 -12 28q-8 7 -18 7q-12 0 -22 -11q-4 -3 -6 -8l-1 -7l-1 -6
q0 -17 12 -28l9 -6q4 -1 9 -1q12 0 21 9z" />
    <glyph glyph-name="uni06CC" unicode="&#x6cc;" horiz-adv-x="653" arabic-form="isolated" 
d="M171 -3h6l-31 -83l-6 87h2l-28 -130l-7 140l-21 5l-11 -89h81zM143 -225l-99 -2l-5 -5v-18l27 -2l20 44l14 -45h4l27 49l5 -53l2 -1zM125 -148l-19 -18l-19 18l19 18zM453 43l17 51h114l1 14l-66 23l65 5l1 35l-31 11l30 14l2 14h-5l-12 1l-40 -2l-16 -1h-7.5t-10.5 -2
q-46 -6 -65 -22.5t-32 -49.5q-5 -16 -8 -32l-2 -16l-1 -19q0 -37 11.5 -66.5t32.5 -41.5l15 -4l17 -1h7h5l4 1l21 3l-4 -25q-4 -16 -11 -33q-21 -48 -62 -78q-43 -33 -96 -33q-18 0 -35 4q-51 12 -81.5 41t-37.5 69l-129 1l-1 -9l79 -14l-82 -14l-2 -30l88 -18l-91 -13
l-1 -4l173 1q9 -30 19 -40t31 -20l47 -17q22 -8 45 -8q62 0 130 52q63 47 89 104q14 31 14 53q0 20 -14 40q-11 13 -43 34q-16 11 -72 42zM615 -87l-7 -18q-8 -24 -19 -44l-7 -14l-7 -12l-7 -10l-7 -11q-41 -52 -88 -83q-26 -15 -54 -24l-28 -6q-14 -3 -29 -3q-19 0 -35 3
l-8 1q-6 0 -11 3l-8 1l-9 3q-18 5 -31 13q-11 5 -30 18q-24 16 -45 35l-2 2l-8 -54l-173 12l4 47l-14 3l9 152l39 -1l15 119l159 -26l-3 -21q-5 -40 -12 -66q6 -39 31 -73q30 -38 70 -38q59 0 101 28q28 19 49 54l10 25h-9q-22 3 -40 10q-28 14 -45 53q-7 19 -11 36
q-2 7 -3 17t-1 19q0 24 6 40l7 32l6 21q7 29 36 49q20 15 62 26q36 6 70 6h79v-164h-123l-7 -19q63 -37 80 -50q50 -39 50 -75q0 -11 -2 -16zM471 -38l-5 1q-18 6 -31 19q-15 18 -15 31l12 26q17 -34 27 -46q2 -3 9 -8l27 -26zM511 -185q0 -4 -6 -9l-9 -8l-11 -10
q-5 -7 -19 -12q-1 -2 -4 -4l-7.5 -5t-8.5 -5t-12 -4l-29 -4q21 19 59 43q23 15 35 50zM461 -164q0 -13 -16 -32q-12 -12 -30 -18l-6 -1l-24 -3l27 25q8 6 10 9q9 12 26 46z" />
    <glyph glyph-name="uni06D2" unicode="&#x6d2;" horiz-adv-x="984" arabic-form="isolated" 
d="M188 29q-22 27 -27 41l-3 12l-1 15q0 30 27 47l-6 -27l-1 -12l1 -21l1 -10v-3zM178 3q-39 41 -44 57t-5 33q0 32 33 52q-14 -35 -14 -56v-12l1 -7l1 -6l2 -10q0 -1 0.5 -2.5t25.5 -48.5zM335 158h11l12 -1h5h4l84 2l-2 26l-45 4l43 12l-2 23l-48 4l46 15l-2 18h-103h-23
l-36 -2q-36 0 -57.5 -3.5t-41.5 -9.5q-50 -17 -82 -57q-15 -21 -21.5 -41.5t-6.5 -45.5q0 -22 3.5 -41.5t9.5 -36.5q12 -31 33.5 -56t52.5 -42t81 -27h29l210 1h84l126 2l156 1l-4 21q-12 3 -41 14l-14 5l53 -1l-2 10l3 7l-8 2l-10 4q-11 5 -35 11l25 3l25 1l-3 36h-535
q-49 4 -74 30q-17 20 -17 47l1 12l2 9q11 22 51 36q33 8 63 8zM320 40h542l17 -158l-606 -3q-105 0 -169 66q-59 60 -59 147q0 57 27 100q22 36 69 65q20 10 73 19l53 5h22l36 2h13h6h5h4h5l10 1l109 1l6 -152l-115 1h-34q-43 0 -52 -3q-25 -5 -36 -22l-4 -9v-9
q0 -19 20 -35t58 -16z" />
    <glyph glyph-name="uniFB57" unicode="&#x67e;" horiz-adv-x="762" arabic-form="final" 
d="M463 -186q0 -22 -13.5 -38.5t-40.5 -16.5q-29 0 -47.5 19.5t-18.5 46.5q0 23 14 39t41 16t46 -20t19 -46zM435 -182q0 16 -11 24.5t-24 8.5l-12 -2q-1 0 -6 -3q-7 -5 -7 -16q0 -19 5 -26q0 20 4 28l14 -49q3 -3 8 -3q9 0 18 10q5 7 8 13.5t3 14.5zM701 161l-18 174
l-21 -5l-5 -112l-29 106l-3 -1v-120l-33 116h-5l19 -158h95zM732 -38l-2 27l-1 6h-112l5 -33h11l4 57l27 -55h4l15 50l20 -51zM211 315h-3l-31 -93l-5 97h2l-29 -145l-7 156l-21 5l-16 -175h92zM181 -5h-113l-4 -31h33l20 50l14 -50h4l27 55l5 -57h10zM681 82l-19 -21
l-18 21l18 19zM156 82l-19 -21l-18 21l18 19zM575 160l-20 178l159 29l16 -208h61v-164h-28l11 -54l-181 -5l-7 59h-372l-8 -59l-180 5l11 52l-14 3l15 165l32 -1l15 207l160 -29l-19 -178h349zM758 16l1 16l-125 12l123 23v32l-122 13l121 18l1 6h-684l1 -8l76 -15l-79 -15
l-2 -34l86 -19l-93 -15v-12zM603 -186q0 -22 -13.5 -38.5t-40.5 -16.5q-29 0 -47.5 19.5t-18.5 46.5q0 23 14 39t41 16t46 -20t19 -46zM575 -182q0 16 -11 24.5t-24 8.5l-12 -2q-1 0 -6 -3q-7 -5 -7 -16q0 -19 5 -26q0 20 4 28l14 -49q3 -3 8 -3q9 0 18 10q5 7 8 13.5
t3 14.5zM519 -312q0 16 -11 24.5t-24 8.5l-12 -2q-1 0 -6 -3q-7 -5 -7 -16q0 -19 5 -26q0 20 4 28l14 -49q3 -3 8 -3q9 0 18 10q5 7 8 13.5t3 14.5zM547 -316q0 -22 -13.5 -38.5t-40.5 -16.5q-29 0 -47.5 19.5t-18.5 46.5q0 23 14 39t41 16t46 -20t19 -46zM499 452
q0 17 -9 29q-7 10 -20 17q-6 3 -12 4q-2 1 -5 1h-5q-17 0 -33 -12q-15 -12 -24 -30l-5 -14l-4 -9h23q3 13 9 22q5 7 13 10q5 2 13 2t18 -6q11 -8 11 -18v-10h3l7 23l2 -23h2l7 22l2 -22h7v14zM439 465h-3q-7 0 -13.5 -7t-9.5 -20h48v1v2q0 10 -7 17q-6 6 -15 7zM489 388h-34
v-9l32 -6zM494 408v2l-24 6l25 1v3l-22 5l23 2l1 4h-159l2 -6h16l-13 -8v0l20 -1l-17 -6l1 -3h18l-16 -8v-4l142 1l2 5l-27 2zM476 472l-11 5l-6 2l-6 2l-11 3q5 3 7 4h3l3 1q12 0 21 -17zM475 454q-8 10 -13 14l-3 1l-2 1l-2 2l-16 6l7 3h3q7 0 13 -5q4 -3 6 -6
q1 -1 2 -2.5t5 -13.5zM342 388l-14 50h46q9 35 32 55q20 18 45 18q23 0 40 -17q17 -18 17 -44v-7q0 -2 -1 -3v-4l-9 -47l-4 -25l-47 8v16h-105zM375 410q0 -5 -5 -5q-4 1 -5 4q0 2 1 3.5t4 1.5q4 0 5 -4zM400 569l3 -83l-5 -6l-6 -10l-3 -5l-3 -7l-5 -11l-5 -14l-12 141z
M397 489l-4 74h-3l-8 -31v32h-1l-3 -35l-5 36h-1l9 -104l3 5l-5 36l10 -24l1 1l-5 30l10 -23z" />
    <glyph glyph-name="uniFB58" unicode="&#x67e;" horiz-adv-x="404" arabic-form="initial" 
d="M319 346l15 -205l35 -2l13 -166h-15l12 -54l-181 -5l-1 70l-204 11v164h29l157 -8l-19 166zM217 149l80 -4l-10 169l-20 -6l-7 -155l-29 145h2l-5 -98l-31 93l4 1zM31 134l1 -27l106 -24l-107 -8l-1 -7l111 -26h-113l1 -23l316 -19v9l-85 14l82 22l-2 30l-78 18l76 12v10
zM227 -18l1 -45l9 1l8 54l26 -53l10 1l13 55l22 -54l24 1l-6 33zM275 79l18 -19l-18 -20l-19 20zM202 -191q0 -22 -13.5 -38.5t-40.5 -16.5q-30 0 -48 19.5t-18 46.5q0 23 13.5 39t40.5 16t46.5 -20t19.5 -46zM173 -187q0 16 -11 24.5t-24 8.5l-11 -2q-2 0 -7 -3
q-7 -5 -7 -16q0 -19 6 -26q0 20 4 28l13 -49q4 -3 8 -3q9 0 18 10q5 7 8 13.5t3 14.5zM342 -191q0 -22 -13.5 -38.5t-40.5 -16.5q-30 0 -48 19.5t-18 46.5q0 23 13.5 39t40.5 16t46.5 -20t19.5 -46zM313 -187q0 16 -11 24.5t-24 8.5l-11 -2q-2 0 -7 -3q-7 -5 -7 -16
q0 -19 6 -26q0 20 4 28l13 -49q4 -3 8 -3q9 0 18 10q5 7 8 13.5t3 14.5zM257 -317q0 16 -11 24.5t-24 8.5l-11 -2q-2 0 -7 -3q-7 -5 -7 -16q0 -19 6 -26q0 20 4 28l13 -49q4 -3 8 -3q9 0 18 10q5 7 8 13.5t3 14.5zM286 -321q0 -22 -13.5 -38.5t-40.5 -16.5q-30 0 -48 19.5
t-18 46.5q0 23 13.5 39t40.5 16t46.5 -20t19.5 -46z" />
    <glyph glyph-name="uniFB59" unicode="&#x67e;" horiz-adv-x="399" arabic-form="medial" 
d="M316 346l15 -187h93l7 -164h-70l15 -65l-181 -5l-1 70h-204v164h187l-20 158zM214 159h80l-10 155l-20 -6l-7 -155l-29 145h2l-5 -98l-31 93l4 1zM20 138v-31l120 -24l-120 -8l-1 -12l120 -16l-118 -11l-1 -20h381v4l-86 14l82 22l-1 30l-79 18l77 12l-1 22h-373zM224 -5
l1 -47l9 1l8 54l26 -53l10 1l13 55l22 -54l24 1l-6 42h-107zM331 90l18 -19l-18 -20l-19 20zM226 -177q0 -22 -13 -38.5t-41 -16.5q-29 0 -47.5 19.5t-18.5 46.5q0 23 14 39t41 16t46 -20t19 -46zM198 -173q0 16 -11 24.5t-24 8.5l-11 -2q-2 0 -7 -3q-7 -5 -7 -16
q0 -19 5 -26q0 20 5 28l13 -49q3 -3 8 -3q9 0 18 10q5 7 8 13.5t3 14.5zM366 -177q0 -22 -13 -38.5t-41 -16.5q-29 0 -47.5 19.5t-18.5 46.5q0 23 14 39t41 16t46 -20t19 -46zM338 -173q0 16 -11 24.5t-24 8.5l-11 -2q-2 0 -7 -3q-7 -5 -7 -16q0 -19 5 -26q0 20 5 28l13 -49
q3 -3 8 -3q9 0 18 10q5 7 8 13.5t3 14.5zM282 -303q0 16 -11 24.5t-24 8.5l-11 -2q-2 0 -7 -3q-7 -5 -7 -16q0 -19 5 -26q0 20 5 28l13 -49q3 -3 8 -3q9 0 18 10q5 7 8 13.5t3 14.5zM310 -307q0 -22 -13 -38.5t-41 -16.5q-29 0 -47.5 19.5t-18.5 46.5q0 23 14 39t41 16
t46 -20t19 -46z" />
    <glyph glyph-name="uniFB67" unicode="&#x679;" horiz-adv-x="762" arabic-form="final" 
d="M701 161l-18 174l-21 -5l-5 -112l-29 106l-3 -1v-120l-33 116h-5l19 -158h95zM732 -38l-2 27l-1 6h-112l5 -33h11l4 57l27 -55h4l15 50l20 -51zM211 315h-3l-31 -93l-5 97h2l-29 -145l-7 156l-21 5l-16 -175h92zM181 -5h-113l-4 -31h33l20 50l14 -50h4l27 55l5 -57h10z
M681 82l-19 -21l-18 21l18 19zM156 82l-19 -21l-18 21l18 19zM575 160l-20 178l159 29l16 -208h61v-164h-28l11 -54l-181 -5l-7 59h-372l-8 -59l-180 5l11 52l-14 3l15 165l32 -1l15 207l160 -29l-19 -178h349zM758 16l1 16l-125 12l123 23v32l-122 13l121 18l1 6h-684l1 -8
l76 -15l-79 -15l-2 -34l86 -19l-93 -15v-12zM499 452q0 17 -9 29q-7 10 -20 17q-6 3 -12 4q-2 1 -5 1h-5q-17 0 -33 -12q-15 -12 -24 -30l-5 -14l-4 -9h23q3 13 9 22q5 7 13 10q5 2 13 2t18 -6q11 -8 11 -18v-10h3l7 23l2 -23h2l7 22l2 -22h7v14zM439 465h-3q-7 0 -13.5 -7
t-9.5 -20h48v1v2q0 10 -7 17q-6 6 -15 7zM489 388h-34v-9l32 -6zM494 408v2l-24 6l25 1v3l-22 5l23 2l1 4h-159l2 -6h16l-13 -8v0l20 -1l-17 -6l1 -3h18l-16 -8v-4l142 1l2 5l-27 2zM476 472l-11 5l-6 2l-6 2l-11 3q5 3 7 4h3l3 1q12 0 21 -17zM475 454q-8 10 -13 14l-3 1
l-2 1l-2 2l-16 6l7 3h3q7 0 13 -5q4 -3 6 -6q1 -1 2 -2.5t5 -13.5zM342 388l-14 50h46q9 35 32 55q20 18 45 18q23 0 40 -17q17 -18 17 -44v-7q0 -2 -1 -3v-4l-9 -47l-4 -25l-47 8v16h-105zM375 410q0 -5 -5 -5q-4 1 -5 4q0 2 1 3.5t4 1.5q4 0 5 -4zM400 569l3 -83l-5 -6
l-6 -10l-3 -5l-3 -7l-5 -11l-5 -14l-12 141zM397 489l-4 74h-3l-8 -31v32h-1l-3 -35l-5 36h-1l9 -104l3 5l-5 36l10 -24l1 1l-5 30l10 -23z" />
    <glyph glyph-name="uniFB68" unicode="&#x679;" horiz-adv-x="404" arabic-form="initial" 
d="M319 346l15 -205l35 -2l13 -166h-15l12 -54l-181 -5l-1 70l-204 11v164h29l157 -8l-19 166zM217 149l80 -4l-10 169l-20 -6l-7 -155l-29 145h2l-5 -98l-31 93l4 1zM31 134l1 -27l106 -24l-107 -8l-1 -7l111 -26h-113l1 -23l316 -19v9l-85 14l82 22l-2 30l-78 18l76 12v10
zM227 -18l1 -45l9 1l8 54l26 -53l10 1l13 55l22 -54l24 1l-6 33zM275 79l18 -19l-18 -20l-19 20zM252 461q0 17 -9 29q-7 10 -20 17q-6 3 -12 4q-2 1 -5 1h-5q-17 0 -33 -12q-15 -12 -24 -30l-5 -14l-4 -9h23q3 13 9 22q5 7 13 10q5 2 13 2t18 -6q11 -8 11 -18v-10h3l7 23
l2 -23h2l7 22l2 -22h7v14zM192 474h-3q-7 0 -13.5 -7t-9.5 -20h48v1v2q0 10 -7 17q-6 6 -15 7zM242 397h-34v-9l32 -6zM247 417v2l-24 6l25 1v3l-22 5l23 2l1 4h-159l2 -6h16l-13 -8v0l20 -1l-17 -6l1 -3h18l-16 -8v-4l142 1l2 5l-27 2zM229 481l-11 5l-6 2l-6 2l-11 3
q5 3 7 4h3l3 1q12 0 21 -17zM228 463q-8 10 -13 14l-3 1l-2 1l-2 2l-16 6l7 3h3q7 0 13 -5q4 -3 6 -6q1 -1 2 -2.5t5 -13.5zM95 397l-14 50h46q9 35 32 55q20 18 45 18q23 0 40 -17q17 -18 17 -44v-7q0 -2 -1 -3v-4l-9 -47l-4 -25l-47 8v16h-105zM128 419q0 -5 -5 -5
q-4 1 -5 4q0 2 1 3.5t4 1.5q4 0 5 -4zM153 578l3 -83l-5 -6l-6 -10l-3 -5l-3 -7l-5 -11l-5 -14l-12 141zM150 498l-4 74h-3l-8 -31v32h-1l-3 -35l-5 36h-1l9 -104l3 5l-5 36l10 -24l1 1l-5 30l10 -23z" />
    <glyph glyph-name="uniFB69" unicode="&#x679;" horiz-adv-x="399" arabic-form="medial" 
d="M316 346l15 -187h93l7 -164h-70l15 -65l-181 -5l-1 70h-204v164h187l-20 158zM214 159h80l-10 155l-20 -6l-7 -155l-29 145h2l-5 -98l-31 93l4 1zM20 138v-31l120 -24l-120 -8l-1 -12l120 -16l-118 -11l-1 -20h381v4l-86 14l82 22l-1 30l-79 18l77 12l-1 22h-373zM224 -5
l1 -47l9 1l8 54l26 -53l10 1l13 55l22 -54l24 1l-6 42h-107zM331 90l18 -19l-18 -20l-19 20zM284 489q0 17 -9 29q-7 10 -20 17q-6 3 -12 4q-2 1 -5 1h-5q-17 0 -33 -12q-15 -12 -24 -30l-5 -14l-4 -9h23q3 13 9 22q5 7 13 10q5 2 13 2t18 -6q11 -8 11 -18v-10h3l7 23l2 -23
h2l7 22l2 -22h7v14zM224 502h-3q-7 0 -13.5 -7t-9.5 -20h48v1v2q0 10 -7 17q-6 6 -15 7zM274 425h-34v-9l32 -6zM279 445v2l-24 6l25 1v3l-22 5l23 2l1 4h-159l2 -6h16l-13 -8v0l20 -1l-17 -6l1 -3h18l-16 -8v-4l142 1l2 5l-27 2zM261 509l-11 5l-6 2l-6 2l-11 3q5 3 7 4h3
l3 1q12 0 21 -17zM260 491q-8 10 -13 14l-3 1l-2 1l-2 2l-16 6l7 3h3q7 0 13 -5q4 -3 6 -6q1 -1 2 -2.5t5 -13.5zM127 425l-14 50h46q9 35 32 55q20 18 45 18q23 0 40 -17q17 -18 17 -44v-7q0 -2 -1 -3v-4l-9 -47l-4 -25l-47 8v16h-105zM160 447q0 -5 -5 -5q-4 1 -5 4
q0 2 1 3.5t4 1.5q4 0 5 -4zM185 606l3 -83l-5 -6l-6 -10l-3 -5l-3 -7l-5 -11l-5 -14l-12 141zM182 526l-4 74h-3l-8 -31v32h-1l-3 -35l-5 36h-1l9 -104l3 5l-5 36l10 -24l1 1l-5 30l10 -23z" />
    <glyph glyph-name="uniFB7B" unicode="&#x686;" horiz-adv-x="573" arabic-form="final" 
d="M394 -118q0 -22 -13.5 -38.5t-40.5 -16.5q-29 0 -47.5 19.5t-18.5 46.5q0 23 14 39t41 16t46 -20t19 -46zM366 -114q0 16 -11 24.5t-24 8.5l-11 -1q-2 -1 -7 -4q-7 -4 -7 -16q0 -18 5 -26q0 20 4 28l14 -49q3 -3 8 -3q9 0 18 10q5 7 8 13.5t3 14.5zM567 21v114h-81
l47 -13l-33 -11l54 -5l-48 -27l58 -58h3zM149 -56l-11 -64l-3 -23l1 -9v-6l1 -5l8 -35q-29 18 -35 28q-7 12 -7 24q0 13 8 34q6 16 38 56zM133 -57l-15 -41l-5 -9q-8 -16 -8 -27v-11l1 -18l1 -13q2 -5 14 -30q-35 21 -43 39q-4 8 -6 15t-2 14q0 16 14 31zM185 75l-16 -16
l-21 20l17 16zM390 103h-28v19l27 3zM374 -5l-157 -1l-9 1q-17 0 -28 -27q-7 -22 -7 -63v-24v-9l1 -10q0 -30 28 -65.5t59 -35.5l221 1l-14 -161h-220q-95 0 -151 36q-48 33 -68 95q-6 22 -11 57q-2 14 -3.5 35t-1.5 39l1 80v13l1 14l3 24q10 73 45 114q45 52 137 63h28
l-152 175l118 92l244 -279h159v-164h-42l-71 64zM451 -263h-177q-73 0 -108 44q-23 30 -23 81l1 104q0 31 35 46l14 4l18 1h136l-22 28h-29l-82 5l91 23l-15 23l-96 9l70 17l-21 25l-37 -1q-34 0 -57 -11q-36 -17 -76 -68q-11 -14 -17 -52l-5 -33l-1 -38l-1 -48l-1 -34
l1 -40l1 -25v-9t1 -11.5t2 -12t3 -11.5q14 -58 57 -90q53 -37 157 -37l169 2v8l-64 19l63 14l1 16l-71 25l81 5zM461 87l-273 310l-20 -17l71 -92l-68 50l39 -64l-85 76l-4 -4l256 -314l12 8l-37 59l62 -41l3 3l-45 64l74 -48zM511 -57q0 -22 -13.5 -38.5t-40.5 -16.5
q-29 0 -47.5 19.5t-18.5 46.5q0 23 14 39t41 16t46 -20t19 -46zM483 -53q0 16 -11 24.5t-24 8.5l-11 -1q-2 -1 -7 -4q-7 -4 -7 -16q0 -18 5 -26q0 20 4 28l14 -49q3 -3 8 -3q9 0 18 10q5 7 8 13.5t3 14.5zM492 -179q0 16 -11 24.5t-24 8.5l-11 -1q-2 -1 -7 -4q-7 -4 -7 -16
q0 -18 5 -26q0 20 4 28l14 -49q3 -3 8 -3q9 0 18 10q5 7 8 13.5t3 14.5zM520 -183q0 -22 -13.5 -38.5t-40.5 -16.5q-29 0 -47.5 19.5t-18.5 46.5q0 23 14 39t41 16t46 -20t19 -46z" />
    <glyph glyph-name="uniFB7C" unicode="&#x686;" horiz-adv-x="531" arabic-form="initial" 
d="M532 65q-7 -9 -35 -29l-77 -57l-23 16h-404v164h259l-114 123l117 91l177 -205h52v-50zM454 144v0v0v0zM480 70l-232 256l-21 -15l89 -98l-82 60l33 -56l-76 61l-4 -2l232 -253v0l-46 62l70 -45l4 3l-58 71l83 -50zM376 23l-99 108h-251v-9l111 -25l-110 -14l1 -11
l114 -18l-113 -14v-17h347zM415 87h-28v18l26 4zM321 -133q0 -22 -13.5 -38.5t-40.5 -16.5q-29 0 -47.5 19.5t-18.5 46.5q0 23 14 39t41 16t46 -20t19 -46zM293 -129q0 16 -11 24.5t-24 8.5l-12 -1q-1 -1 -7 -4q-6 -4 -6 -16q0 -18 5 -26q0 20 4 28l14 -49q3 -3 8 -3
q9 0 18 10q5 7 8 13.5t3 14.5zM204 67l-31 -5l-5 19l30 5zM461 -128q0 -22 -13.5 -38.5t-40.5 -16.5q-29 0 -47.5 19.5t-18.5 46.5q0 23 14 39t41 16t46 -20t19 -46zM433 -124q0 16 -11 24.5t-24 8.5l-12 -1q-1 -1 -7 -4q-6 -4 -6 -16q0 -18 5 -26q0 20 4 28l14 -49
q3 -3 8 -3q9 0 18 10q5 7 8 13.5t3 14.5zM372 -240q0 16 -11 24.5t-24 8.5l-12 -1q-1 -1 -7 -4q-6 -4 -6 -16q0 -18 5 -26q0 20 4 28l14 -49q3 -3 8 -3q9 0 18 10q5 7 8 13.5t3 14.5zM400 -244q0 -22 -13.5 -38.5t-40.5 -16.5q-29 0 -47.5 19.5t-18.5 46.5q0 23 14 39t41 16
t46 -20t19 -46z" />
    <glyph glyph-name="uniFB7D" unicode="&#x686;" horiz-adv-x="549" arabic-form="medial" 
d="M321 -133q0 -22 -13.5 -38.5t-40.5 -16.5q-29 0 -47.5 19.5t-18.5 46.5q0 23 14 39t41 16t46 -20t19 -46zM293 -129q0 16 -11 24.5t-24 8.5l-12 -1q-1 -1 -7 -4q-6 -4 -6 -16q0 -18 5 -26q0 20 4 28l14 -49q3 -3 8 -3q9 0 18 10q5 7 8 13.5t3 14.5zM500 44l-80 -72
l-23 23h-404v164h257l-112 123l117 91l186 -214h134v-164h-44zM545 18v116l-58 -1l41 -12l-31 -9l25 -7l-10 -22l37 -64zM482 66l-235 267l-15 -12l49 -77l-57 43l27 -53l-63 54l-8 -8l242 -268l2 3l-42 61l65 -43l8 5l-53 55l71 -37zM373 20l-102 113h-247v-17l104 -24
l-105 -11l1 -14l130 -16l-131 -16v-15h350zM415 87h-28v18l26 4zM456 -128q0 -22 -13.5 -38.5t-40.5 -16.5q-29 0 -47.5 19.5t-18.5 46.5q0 23 14 39t41 16t46 -20t19 -46zM428 -124q0 16 -11 24.5t-24 8.5l-12 -1q-1 -1 -7 -4q-6 -4 -6 -16q0 -18 5 -26q0 20 4 28l14 -49
q3 -3 8 -3q9 0 18 10q5 7 8 13.5t3 14.5zM372 -245q0 16 -11 24.5t-24 8.5l-12 -1q-1 -1 -7 -4q-6 -4 -6 -16q0 -18 5 -26q0 20 4 28l14 -49q3 -3 8 -3q9 0 18 10q5 7 8 13.5t3 14.5zM400 -249q0 -22 -13.5 -38.5t-40.5 -16.5q-29 0 -47.5 19.5t-18.5 46.5q0 23 14 39t41 16
t46 -20t19 -46z" />
    </font>
</defs>
</svg>
