<?xml version="1.0" standalone="no"?>
<!DOCTYPE svg PUBLIC "-//W3C//DTD SVG 1.1//EN" "http://www.w3.org/Graphics/SVG/1.1/DTD/svg11.dtd" >
<svg>
<metadata>
Created by FontForge 20110222 at Wed Aug 27 12:34:16 2014
 By Orthosie Webhosting
Copyright (c) www.crulp.org, 2003. All rights reserved.
</metadata>
<defs>
<font id="NafeesNastaleeq" horiz-adv-x="0" >
  <font-face 
    font-family="Nafees Nastaleeq"
    font-weight="400"
    font-stretch="normal"
    units-per-em="2048"
    panose-1="2 0 5 0 0 0 0 2 0 2"
    ascent="1638"
    descent="-410"
    bbox="-3666 -1626 7993 3290.26"
    underline-thickness="102"
    underline-position="-154"
    unicode-range="U+0006-FEFB"
  />
<missing-glyph horiz-adv-x="1024" 
 />
    <glyph glyph-name="Aagg" unicode="&#x622;&#x6af;" horiz-adv-x="2576" 
d="M1589 2441q117 92 229.5 174t229.5 168q55 41 105.5 73t91.5 58q4 4 8 4t0 -10q-35 -53 -77 -106.5t-89 -94.5q-152 -108 -249 -182t-165 -129q-65 -53 -112.5 -93t-71.5 -62q-25 -21 -32 -26t-13 -9q-4 -2 -5 3t11 25q4 11 10 25t10 22q29 54 51.5 89.5t67.5 70.5z
M143 186q0 88 19.5 180.5t48.5 178.5q6 14 18 14q13 0 7 -24q-9 -35 -9 -84q0 -68 32 -116t82 -78t110.5 -45t117.5 -19q193 -17 364 15t343 107q78 33 103.5 84.5t25.5 130.5v1147q0 52 13.5 123.5t38 144t58 137t72.5 103.5q78 70 132.5 116t100.5 84t95 73.5t113.5 83
t155.5 113t224 163.5q2 2 11.5 10t18.5 16.5t18.5 15.5t13.5 9q14 10 17 6t-7 -20q-35 -57 -79 -120.5t-85 -111.5q-37 -40 -86 -82t-124.5 -100.5t-185.5 -141.5t-265 -202q-47 -37 -92 -82t-56 -108v-146q0 -219 6.5 -434t6.5 -434q0 -16 -2 -56t-5.5 -84t-5.5 -85t-2 -56
q-20 -133 -52 -241.5t-89 -192.5t-147.5 -144.5t-227.5 -96.5q-98 -27 -201.5 -39.5t-207.5 -12.5q-76 0 -154 12.5t-140.5 46t-102.5 92t-40 150.5zM2183 2271q31 0 56.5 -11t51.5 -24q76 -30 157 -21t153.5 46t131 94.5t93.5 124.5q12 12 14 0q0 -43 -14 -84t-33 -82
q-35 -76 -86 -148.5t-115.5 -130t-142.5 -92t-168 -34.5q-63 0 -115.5 24.5t-105.5 55.5q-39 12 -71.5 -3.5t-59.5 -43t-49.5 -60.5t-38.5 -55q-8 -15 -19 -15q0 58 33 137t85 150.5t116.5 121.5t126.5 50zM2257 111q-7 -11 -12 -9t-3 19l11 153q-3 193 -4 339.5t-2 255
t-2 182t-3 118.5q-4 25 -2 64l4 78t5.5 69.5t3.5 34.5q2 25 15 67t29.5 88t31 89t20.5 70q10 34 17 38.5t3 -22.5q4 -291 5 -566.5t1 -566.5q0 -131 -31.5 -257t-86.5 -244z" />
    <glyph glyph-name="uniFEFB" unicode="&#xfefb;" horiz-adv-x="913" arabic-form="isolated" 
d="M178 45q-35 55 -4 61q23 -2 37 -11t43 -13q41 84 58.5 194.5t22.5 229.5t2 237.5t-3 219.5q0 41 2 77.5t6 69.5q25 78 49.5 152.5t46.5 150.5q4 12 11.5 14.5t7.5 -28.5v-56q0 -36 1 -79t1 -82v-56v-106v-125v-129v-117q0 -41 -3 -97t-20.5 -128t-53.5 -160t-101 -192
q65 -13 129.5 -3.5t119.5 44.5q35 20 64 46.5t35 69.5q6 58 10 144t7 184t4 199.5t3 190.5t3 155.5t3 95.5q23 80 46.5 161t46.5 161q8 8 9 0.5t5 -41.5q0 -11 1 -44.5t1 -74.5v-80v-59q0 -115 1 -198t0 -157.5t-5 -153.5t-12 -186q-9 -92 -24 -182t-52 -172
q-10 -25 -25.5 -53.5t-35 -59t-44 -59.5t-51.5 -51q-22 -23 -52 -42.5t-65 -19.5q-36 0 -69 13.5t-62.5 36t-53 51t-40.5 57.5z" />
    <glyph glyph-name="uniFDF2" unicode="&#xfdf2;" horiz-adv-x="1843" arabic-form="isolated" 
d="M977 989q0 37 1 84t3 78q4 59 12 121.5t29 120.5q6 12 16 12v-29q-4 -71 -4 -149q0 -76 -16 -148q-4 -16 -11.5 -44.5t-13.5 -48t-6 -23.5l-6 -7q0 2 -4 7v26zM885 778q0 6 2 29.5t6 48.5t11 45.5t19 20.5q9 0 9 -13q0 -22 -6.5 -41.5t-6.5 -42.5q0 -10 3.5 -24.5
t17.5 -14.5q20 0 26.5 22.5t7.5 50.5t4 50.5t17 22.5q4 0 8 -6t4 -11v-96q0 -14 14.5 -20t24.5 -6q2 0 8.5 1t6.5 5v127q0 8 6 15t12 7q8 0 12.5 -11t5.5 -24.5t0 -27t-1 -17.5q0 -16 -2.5 -39.5t-9.5 -46t-20.5 -39t-35.5 -16.5q-10 0 -19.5 2t-19.5 2q-4 0 -22.5 -13
t-26.5 -18h-4q-33 0 -42 25t-9 53zM1018 434q12 -22 48 -34.5t76 -9.5t71.5 21.5t35.5 57.5q0 55 -8 110.5t-8 110.5q0 19 1 29t9 33q6 18 17.5 58t24.5 82t24.5 79t15.5 53q8 25 13 15.5t8 -43t5.5 -89t4.5 -125.5q0 -63 -1 -127.5t-16 -128.5q-10 -53 -32.5 -128.5
t-58.5 -146.5t-87 -120t-121 -49q-45 0 -77.5 18.5t-63.5 46.5q-41 -90 -102.5 -133t-122 -37.5t-107.5 60.5t-57 162q-2 -2 -2 0t-6 -9q-17 -36 -31 -65t-30.5 -51.5t-37 -42t-51.5 -37.5q-57 -29 -113.5 -56.5t-113.5 -56.5q-41 -18 -42 -13t34 34q139 125 255.5 256
t202.5 295q23 47 30 59t7 -10q-4 -31 -7 -59.5t3 -59.5q12 -45 55 -76t88 -31q66 0 107 37t67.5 81t40 81t23.5 37q4 -20 10 -41.5t19 -36.5zM1577 408q0 180 -8.5 358t-8.5 358q0 60 -1 130.5t18 129.5l90 293q4 -4 7 -46t5 -107.5t4 -147.5t3 -166t3 -161.5t4 -135.5v-182
q0 -133 -13 -261t-62 -259l-21 -48t-27 -44q0 71 3.5 144t3.5 145z" />
    <glyph glyph-name="uniFDFA" unicode="&#xfdfa;" horiz-adv-x="3682" arabic-form="isolated" 
d="M637 2271q4 4 4 6t4 2q0 -18 -3 -36.5t-3 -36.5q0 -19 6 -37.5t29 -18.5q22 2 25 16.5t8 35.5q2 16 5 32.5t7 28.5q10 23 20 31q0 -17 -2 -34t-2 -34q0 -20 4 -42.5t35 -29.5q12 0 19 9q2 22 1 39.5t7 42.5q4 18 12 36.5t12 22.5q2 -20 2 -47t-4 -57q-2 -13 -6 -33.5
t-12 -39t-20.5 -32.5t-30.5 -14q-17 0 -27 11t-16 26q-11 -17 -23 -30t-33 -13q-22 0 -34.5 18t-12.5 45q0 16 2 43t8 45q11 33 19 45zM2947 1968q4 10 6 8q0 -16 -2 -34.5t-2 -36.5q0 -21 5 -38.5t28 -17.5q22 0 25.5 14.5t7.5 37.5q4 16 7 31.5t7 27.5q6 20 18 31
q0 -17 -2 -34.5t-2 -33.5q0 -20 4.5 -42.5t34.5 -29.5q13 0 21 11q0 22 -1 39.5t7 42.5q6 18 13 35.5t11 21.5q2 -19 2 -47q0 -27 -4 -58q-2 -12 -6 -31.5t-12 -39t-20.5 -32.5t-28.5 -13q-17 0 -27 10t-18 27q-10 -17 -21.5 -30t-34.5 -13q-22 0 -33.5 18t-11.5 43
q-2 16 1 43t10 45q6 31 18 45zM3031 2376q10 32 20.5 68t20.5 69l5 10t9 6q0 -4 -1 -16t-1 -16v-54v-84t-1 -85t-1 -52q-2 -12 -8 -35.5t-14 -48t-16.5 -46t-12.5 -30.5q0 -8 -8 -8q2 31 3 74t2 88t2 88t1 72zM3150 1149q22 14 38.5 22.5t35.5 18.5q-17 -21 -34.5 -39
t-33.5 -41q-35 -20 -75 -43t-81 -45q-4 -2 -12 -8t-19.5 -12.5t-20.5 -12.5t-15 -8q10 16 20 33.5t21 34.5q39 28 81 49.5t95 50.5zM2497 1581q22 14 38.5 22.5t32.5 18.5q-14 -20 -31.5 -38.5t-33.5 -41.5q-35 -20 -76 -42.5t-80 -45.5q-4 -2 -12 -8t-19.5 -12.5
t-20.5 -12.5t-16 -8q11 17 21 34l20 34q37 28 80 49.5t97 50.5zM678 199q0 26 -29 26q-16 0 -32.5 -8t-34.5 -8q-50 0 -91.5 33.5t-41.5 83.5q0 32 13 68t25 71q15 35 23 63.5t12 38.5q10 23 28.5 39.5t45.5 16.5q43 0 73.5 -32t49 -77t27 -93t8.5 -81q0 -49 -13.5 -94
t-33 -88t-44 -85t-47.5 -83q-65 -23 -129.5 -44.5l-130.5 -43.5q-22 -6 -20 2t10 14q72 53 143.5 108.5t143.5 110.5q16 13 30.5 27t14.5 35zM1739 1776q2 4 5 9t7 5q-2 -205 -4 -409.5t-18 -409.5q-13 -107 -62 -209q-4 -8 -12 -25.5t-15 -15.5q5 96 8 201.5t4 212t2 211
t1 196.5q16 62 39.5 118t44.5 116zM1495 2099q92 0 169 48t132 116q10 14 24.5 34.5t22.5 39.5q10 18 13.5 12t-1.5 -22q-4 -27 -16 -59t-22 -50q-23 -59 -58 -112.5t-80 -94.5t-102 -66.5t-125 -27.5q-47 0 -71.5 7t-40 14.5t-29 13.5t-35.5 6q-19 0 -38 -11.5t-37.5 -30
t-35 -40t-28.5 -37.5q-4 -10 -9 0q0 35 20.5 84t51.5 95t68 78t71 32q39 0 77 -14.5t79 -14.5zM2290 1876q0 10 -9.5 17.5t-19.5 7.5q-18 0 -34.5 -8.5t-35.5 -8.5q-24 0 -47.5 9.5t-42 24.5t-31 37.5t-12.5 47.5q0 33 13.5 67.5t27.5 69.5q12 35 20.5 64.5t12.5 40.5
q10 22 29.5 37.5t44.5 15.5q43 0 73.5 -32t49 -76t26.5 -93t8 -82q0 -49 -13 -94t-32.5 -88t-44 -85t-47.5 -83q-65 -23 -129.5 -44.5l-130.5 -43.5q-22 -6 -19 2t9 14q72 56 143.5 111t143.5 108q16 13 31.5 27t15.5 37zM2458 1219q71 73 142 153t124 170l41 82q2 4 8 19.5
t8 19.5q2 6 10 6q-2 -22 -4 -46t2 -46q2 -14 14.5 -26.5t28 -21.5t30.5 -14.5t28 -5.5q32 0 56 14.5t40 37t27.5 50t21.5 54.5q2 4 4 9t4 5q6 0 8.5 -9t7.5 -21.5t14 -25.5t30 -19q20 -7 36.5 -6t34.5 6q17 4 33.5 17t18.5 30q0 41 -9.5 83t-9.5 83q0 12 7.5 39.5t15.5 58.5
t16 58.5t10 39.5q6 29 11.5 34t9.5 -30q6 -53 11 -112.5t5 -96.5q2 -41 -7 -110.5t-32.5 -138t-62.5 -119.5t-94 -56q-58 -2 -95 41l-25.5 -42.5t-30.5 -42t-39.5 -33t-51.5 -13.5q-33 2 -55.5 17.5t-37 37t-23.5 46t-15 45.5q-23 -43 -46.5 -81t-66.5 -63
q-16 -10 -40.5 -23t-49 -26.5t-59.5 -32.5q-4 -4 -6 -2t2 7zM3527 2238q2 5 5 10t7 5l-4 -410t-19 -409q-12 -107 -61 -209q-4 -8 -12.5 -25.5t-14.5 -15.5q4 96 7.5 201.5t4.5 212t2 211t1 196.5q16 61 39.5 117.5t44.5 115.5zM3404 887q-23 0 -49.5 -9.5t-42.5 -27.5
q-35 -33 -66 -65.5t-61 -67.5q32 -2 82.5 9t95.5 29.5t76.5 41t31.5 41.5q0 28 -22.5 38.5t-44.5 10.5zM1141 805q26 0 53 -15.5t66 -15.5q18 0 43.5 7t48 19.5t39 30t16.5 39.5v549q-2 78 24.5 143.5t53.5 137.5q4 8 7 16t11 10q0 -192 -3 -382.5t-15 -380.5
q-4 -45 -25.5 -112t-57.5 -129.5t-86 -107.5t-112 -45q-18 0 -33.5 7.5t-30 16.5t-29.5 16t-34 7q-28 -2 -57 -14t-55.5 -30.5t-51 -41t-43.5 -43.5q-6 -4 -6 0q2 45 31 100.5t70 103.5t88 81t88 33zM1499 535q35 0 63.5 -18.5t63.5 -18.5q39 0 81 19.5t75 41.5
q10 6 29.5 25.5t31.5 36.5q17 20 21 14t0 -21q-6 -20 -15.5 -38.5t-15.5 -38.5q18 0 47 2t56.5 9t49 21.5t25.5 40.5v584q0 16 8.5 39.5t12.5 36.5q2 8 10 27.5t16 40t16.5 39t12.5 26.5l4 8t8 4q-4 -104 -7 -213.5t-3 -212.5q0 -37 2 -67.5t10 -55t26.5 -46t53.5 -42.5
q8 8 20.5 28.5t24.5 45.5t22.5 46.5t16.5 33.5q23 41 58.5 81t86.5 40q31 0 65 -20.5t34 -55.5q0 -16 -13.5 -30.5t-29.5 -14.5q-27 0 -51.5 11t-51.5 11q-32 0 -64 -25.5t-32 -60.5q0 -18 13.5 -34.5t32 -28.5t39 -19.5t36.5 -7.5q22 0 45 12.5t43.5 30t37.5 38t30 36.5
q8 12 11 11t2 -9t-5 -18.5t-8 -18.5q-4 -6 -14.5 -23.5t-21.5 -36t-21.5 -34.5t-14.5 -23q-18 -28 -44 -60t-57.5 -59.5t-69.5 -45t-77 -17.5q-47 0 -83 19.5t-64 42.5q-4 -7 -11.5 -20t-15.5 -28.5t-15 -31t-12 -21.5q-6 -10 -18 -27.5t-26.5 -34t-29 -28.5t-24.5 -12
q-14 0 -31.5 7t-34 17.5t-30.5 20.5t-23 16q-20 -32 -44.5 -64t-54.5 -57.5t-65.5 -42t-78.5 -16.5q-41 0 -78 22.5t-78 22.5q-64 -4 -103.5 -41t-74.5 -74q-17 -20 -29 -33.5t-8 3.5q14 51 41 108.5t64.5 107.5t88 82.5t113.5 35.5zM1413 129l5 5t3 1l2 -2q4 -4 16.5 -13
t25 -19.5t24.5 -19.5t16 -13q2 -2 17.5 -12.5t23.5 -14.5q10 -4 13.5 -7t11.5 -3t10 6l90 135l156 -115l6 -6v-2v-2q0 -4 -6 -10l-96 -139q-5 -4 -11 -4q-8 0 -16 4l-133 98l-92 -129q-4 -4 -11 -4q-14 0 -34.5 13t-30.5 22q-8 6 -25.5 19t-21.5 17q-8 7 -35 35v17z
M1036 -35q0 51 -19.5 99.5t-58.5 68.5q3 23 14 52.5t13 29.5q21 -6 35 -21.5t22 -23.5q21 -29 29 -66.5t8 -72.5q0 -60 -20.5 -116t-48.5 -110q-6 -10 -11.5 -11t-1.5 13q17 46 28 79.5t11 78.5zM1978 -90q0 43 3.5 80t9.5 71.5t15 71.5t22 78q8 31 16 53.5t16 43t18.5 44
t24.5 58.5q11 20 17 19t-2 -26q-27 -94 -46.5 -183t-19.5 -187q0 -64 14.5 -123.5t46 -106.5t82 -75.5t121.5 -28.5q56 0 108 20.5t97 53t83 75.5t62 91q19 32 28 53.5t9 54.5q-4 43 -31.5 69.5t-59.5 47t-56.5 40t-20.5 48.5q0 35 15.5 67.5t29.5 65.5q23 61 39.5 127
t26.5 133q4 105 3 217.5t5 218.5q8 29 20.5 66t22.5 68.5t19.5 54t15.5 20.5q4 -119 4 -239q0 -121 2 -242q-2 -55 16.5 -96t52.5 -62.5t78 -19.5t95 35q12 10 23.5 24.5t20.5 28.5t18.5 23.5t19.5 9.5q22 0 40.5 -16.5t41.5 -12.5q45 49 86 95t88 89q20 17 46.5 34t55.5 17
q37 0 62.5 -22.5t25.5 -58.5q0 -29 -10 -62t-23 -57q-45 -92 -135 -151.5t-194 -59.5q-54 0 -83.5 17.5t-47.5 66.5q-19 -29 -39.5 -61.5t-46 -59.5t-57 -44t-70.5 -17q-92 0 -131 92q-5 -6 -11 -21.5t-12 -33l-12 -35t-10 -25.5q0 -8 4 -14q6 -13 31.5 -33.5t54 -50
t49 -67.5t18.5 -87q-2 -63 -19.5 -140t-48 -153t-74.5 -146.5t-98.5 -124.5t-119 -86t-137.5 -30q-93 0 -152 36t-95 95.5t-49.5 133t-11.5 151.5zM168 -639q-10 184 -17.5 361.5t-7.5 359.5v201q2 90 17.5 179t48.5 171t89 150.5t142 117.5q31 19 68 31t72 22q-5 9 -17 8
t-12 9q0 26 15.5 45.5t25.5 56.5q2 17 9 49.5t13.5 68.5t12.5 66.5t8 42.5q8 52 8 103t2 102q0 35 1 88.5t2 103.5t1 85v37q19 55 37.5 110.5t34.5 108.5q4 8 6 0q4 -113 7 -224.5t7 -226.5q2 -26 15.5 -53t33 -47.5t44 -33.5t51.5 -13q16 0 35.5 4t31.5 16q29 29 57.5 56.5
t57.5 56.5q14 14 34.5 21.5t41.5 7.5q10 0 20.5 -4.5t22.5 -4.5q16 0 25.5 12.5t15.5 27t11 26.5t11 12q6 2 11.5 -2t11.5 -4q12 0 21.5 9t17.5 22.5t14 28t10 24.5q11 16 16 11t3 -23q-11 -66 -52.5 -126.5t-87.5 -101.5q-4 -2 -13 -11t-21.5 -18.5t-25.5 -18.5t-24 -11
q-14 0 -24 4t-27 2q-20 0 -39 -12q-20 -21 -41.5 -57.5t-49 -71.5t-64.5 -62.5t-88 -29.5q-29 0 -56.5 13t-50.5 30q-10 -21 -20.5 -45.5t-14.5 -46.5q27 -13 57.5 -27t56.5 -34.5t43 -46.5t17 -60q0 -39 -18 -75t-47 -64.5t-65.5 -50t-73.5 -32.5q-37 -10 -97.5 -19
t-115.5 -26q-72 -28 -125.5 -83.5t-61.5 -147.5q-10 -309 -19 -599t-18 -599q-6 -2 -9 5t-5 16.5t-4 18.5t-2 11z" />
    <glyph glyph-name="uniFDFB" unicode="&#xfdfb;" horiz-adv-x="2438" arabic-form="isolated" 
d="M2259 910q-5 -9 -9.5 -17.5t-9.5 -18.5q-25 -50 -57.5 -105t-74.5 -98.5t-95.5 -67t-119.5 -10.5q-41 10 -71 46q-6 -56 -10 -106.5t-9.5 -100.5t-14.5 -101t-24 -108q-17 -61 -41 -126.5t-57 -128.5t-75.5 -119.5t-95 -99.5t-115.5 -69t-138 -27q-48 0 -87 14
t-71.5 38.5t-59.5 58t-51 72.5q-14 23 -23.5 49t-12.5 55q-2 30 -4 57.5t-2 54.5q0 126 37 242t93 225q0 2 2.5 3.5t4.5 1.5t3 -4.5t-3 -17.5q-25 -73 -38.5 -125t-20 -88t-8 -58.5t-1.5 -37.5q0 -66 17 -127.5t51.5 -108t88 -74.5t127.5 -28q110 0 195 45t152 136
q38 51 61 107t36 115t19 120.5t9 123.5q3 81 4 158.5t0.5 153.5t-1 152.5t-0.5 156.5q6 25 11 44.5t10.5 37.5t12.5 36.5t18 43.5q8 18 14.5 36t14.5 38q6 30 13 27.5t3 -31.5q-1 -17 -2 -35.5t-2 -35.5q-3 -68 -7 -146t3 -151q2 -33 9 -67.5t22.5 -62.5t41.5 -46.5
t65 -18.5q4 21 10.5 46.5t15 51.5t20.5 51t28 43q9 13 23.5 22t30.5 12.5t32.5 1t30.5 -11.5q12 -6 24.5 -11.5t28.5 -5.5q14 0 25 9q6 7 14.5 8.5t15.5 -1t9.5 -10t-3.5 -18.5q-5 -18 -14.5 -36t-17.5 -33zM1605 1080q-11 -18 -21 -39q-23 -44 -50.5 -93t-62.5 -90
t-79.5 -68.5t-101.5 -28.5q-35 -2 -62 7t-50 32q-1 -1 -1 -1.5t-1 -1.5q-15 -29 -26.5 -54t-23.5 -50.5t-27.5 -51.5t-39.5 -56q-13 -16 -28 -30t-30.5 -25t-32 -17t-32.5 -5q-31 4 -56 21t-43.5 38.5t-31 44t-18.5 37.5q0 12 11 12q11 -4 24 -12t27 -10h3q28 57 37.5 118
t11.5 123q3 55 4.5 101t2 89.5t1 89t3.5 100.5l70 212q3 10 6 3q1 -66 2.5 -122.5t2 -111t-1.5 -111.5t-6 -124q-3 -67 -12.5 -132.5t-41.5 -125.5q-4 -6 -13.5 -22t-20 -33.5t-19 -33.5t-11.5 -23q26 -5 54 -4.5t54.5 7.5t49.5 22t40 38q5 5 9 12t7.5 20.5t7 35.5t7.5 57
q3 54 5.5 107t4.5 107q1 43 2.5 77.5t3.5 67t4 67t2 78.5l72 211l2 2q1 0 1 1h3q1 -20 1 -39v-38q0 -58 -1.5 -99.5t-2.5 -83.5q0 -24 -1.5 -59t0 -73.5t6.5 -76t18 -65.5q12 -27 42.5 -36.5t68.5 -10.5q3 0 4 1q1 0 1 1q8 33 20 78.5t33 83.5q9 23 26.5 39t39.5 22.5
t45.5 3t43.5 -18.5q8 -4 16.5 -6.5t19.5 -2.5q16 0 25 9q12 10 21 10t13.5 -7t4 -18t-7.5 -22q-5 -14 -13 -27.5t-14 -26.5zM98 455q12 42 38 88t61.5 87t78 73.5t89.5 46.5q8 2 15 4.5t15 2.5q16 0 30.5 -6t30.5 -11q26 -7 54 -3t52 14q37 16 60.5 46t28.5 73v438
q16 59 33 116l34 114q2 3 4.5 4t2.5 -4q5 -82 8.5 -158.5t3.5 -160.5q0 -70 -2 -130t-9.5 -116t-21 -109.5t-36.5 -110.5q-15 -34 -36.5 -72.5t-49.5 -71.5t-63 -54.5t-75 -21.5q-24 0 -40 7t-29.5 16t-26.5 16.5t-30 8.5q-31 -5 -58 -16q-23 -9 -44 -23.5t-40 -30
t-35.5 -32t-29.5 -30.5q-11 -11 -13 -9.5t0 15.5zM1474 1120q-36 0 -56.5 -21t-34.5 -52q-6 -16 -13.5 -33.5t-16.5 -53.5q31 1 63 12t61 28.5t54 39.5t42 45v3q-24 10 -49.5 20t-49.5 12zM2127 949q-35 0 -56 -21t-34 -51q-6 -15 -13.5 -33.5t-16.5 -53.5q28 1 56.5 10
t55.5 23t50.5 32t41.5 39q17 17 17 20v3q-26 11 -50.5 20.5t-50.5 11.5zM2209 287q-11 -11 -28.5 -30.5t-36 -40.5t-36 -39.5t-26.5 -27.5q-8 -12 -14 -11t-17 7q-18 16 -33 28.5t-28.5 25t-27.5 26.5t-32 33q-9 8 -8.5 20.5t10.5 19.5q32 32 63 64t63 64q6 11 16 8t18 -10
q11 -10 26.5 -23t32 -27.5t32 -28.5t26.5 -26q7 -5 6.5 -16t-6.5 -16zM1564 556q-11 -11 -28.5 -30.5t-36 -40.5t-36 -39.5t-26.5 -27.5q-8 -12 -14 -11t-17 7q-18 16 -33 28.5t-28.5 25t-27.5 26.5t-32 33q-9 8 -8.5 20.5t10.5 19.5q32 32 63 64t63 64q6 11 16 8t18 -10
q11 -10 26.5 -23t32 -27.5t32 -28.5t26.5 -26q7 -5 6.5 -16t-6.5 -16z" />
    <glyph glyph-name=".notdef" horiz-adv-x="1024" 
 />
    <glyph glyph-name=".null" 
 />
    <glyph glyph-name="nonmarkingreturn" horiz-adv-x="256" 
 />
    <glyph glyph-name="space" unicode=" " horiz-adv-x="203" 
 />
    <glyph glyph-name="uni0622" unicode="&#x622;" horiz-adv-x="465" 
d="M123 2271q31 0 56.5 -11t51.5 -24q76 -30 157 -21t153.5 46t131 94.5t93.5 124.5q12 12 14 0q0 -43 -14 -84t-33 -82q-35 -76 -86 -148.5t-115.5 -130t-142.5 -92t-168 -34.5q-63 0 -115.5 24.5t-105.5 55.5q-39 12 -71.5 -3.5t-59.5 -43t-49.5 -60.5t-38.5 -55
q-8 -15 -19 -15q0 58 33 137t85 150.5t116.5 121.5t126.5 50zM197 111q-7 -11 -12 -9t-3 19l11 153q-3 193 -4 339.5t-2 255t-2 182t-3 118.5q-4 25 -2 64l4 78t5.5 69.5t3.5 34.5q2 25 15 67t29.5 88t31 89t20.5 70q10 34 17 38.5t3 -22.5q4 -291 5 -566.5t1 -566.5
q0 -131 -31.5 -257t-86.5 -244z" />
    <glyph glyph-name="uni0627" unicode="&#x627;" horiz-adv-x="420" 
d="M154 408q0 180 -8.5 358t-8.5 358q0 60 -1 130.5t18 129.5l90 293q4 -4 7 -46t5 -107.5t4 -147.5t3 -166t3 -161.5t4 -135.5v-182q0 -133 -13 -261t-62 -259l-21 -48t-27 -44q0 71 3.5 144t3.5 145z" />
    <glyph glyph-name="uni0628" unicode="&#x628;" horiz-adv-x="2306" 
d="M510 -86q-158 20 -239 69.5t-108.5 130.5t-11 195.5t55.5 265.5q4 13 12 16t8 -11q-8 -78 3.5 -133.5t39 -93.5t70.5 -61.5t98 -39.5q80 -23 190.5 -37t236.5 -20.5t261.5 -3t263.5 12.5t241.5 26.5t199.5 41.5q61 19 108.5 38.5t84 47t65.5 68.5t53 102q12 23 20.5 15
t0.5 -35q-37 -205 -142.5 -326t-285.5 -182q-115 -45 -275 -68.5t-329.5 -32t-333.5 -3t-287 17.5zM1278 -500q8 -8 9 -10t-7 -12q-43 -47 -87 -94.5t-87 -94.5q-10 -10 -12 -11t-13 9q-41 39 -78.5 78t-76.5 78q-11 10 -11 16q0 4 11 15q43 47 87 94t87 94q6 8 14 0
q41 -41 82 -81t82 -81z" />
    <glyph glyph-name="uni067E" unicode="&#x67e;" horiz-adv-x="2306" 
d="M510 -86q-158 20 -239 69.5t-108.5 130.5t-11 195.5t55.5 265.5q4 13 12 16t8 -11q-8 -78 3.5 -133.5t39 -93.5t70.5 -61.5t98 -39.5q80 -23 190.5 -37t236.5 -20.5t261.5 -3t263.5 12.5t241.5 26.5t199.5 41.5q61 19 108.5 38.5t84 47t65.5 68.5t53 102q12 23 20.5 15
t0.5 -35q-37 -205 -142.5 -326t-285.5 -182q-115 -45 -275 -68.5t-329.5 -32t-333.5 -3t-287 17.5zM774 -561q-8 8 -7 12t7 12q51 52 100.5 104t102.5 103q8 8 8 6q0 -6 8 -14q62 -92 154 -160q43 45 86 88t86 88q10 11 12 12t15 -12q40 -40 77 -78t78 -79q12 -8 2 -19
q-45 -47 -89 -94t-87 -94q-10 -10 -13 -11t-14 9q-36 37 -83.5 81t-75.5 68q-43 -45 -86 -89t-88 -91q-9 -8 -21 -2q-41 33 -90 79t-82 81zM1315 -801q8 -8 9 -10t-7 -10q-45 -47 -88 -94.5t-88 -94.5q-11 -10 -13 -11t-12 9l-153 154q-11 10 -11 16q0 4 11 15l86 94l86 94
q6 8 8 8t8 -6z" />
    <glyph glyph-name="uni062A" unicode="&#x62a;" horiz-adv-x="2306" 
d="M510 -86q-158 20 -239 69.5t-108.5 130.5t-11 195.5t55.5 265.5q4 13 12 16t8 -11q-8 -78 3.5 -133.5t39 -93.5t70.5 -61.5t98 -39.5q80 -23 190.5 -37t236.5 -20.5t261.5 -3t263.5 12.5t241.5 26.5t199.5 41.5q61 19 108.5 38.5t84 47t65.5 68.5t53 102q12 23 20.5 15
t0.5 -35q-37 -205 -142.5 -326t-285.5 -182q-115 -45 -275 -68.5t-329.5 -32t-333.5 -3t-287 17.5zM817 645q-12 12 0 25q51 51 100.5 103t102.5 106q8 8 8 4t8 -13q33 -45 71 -86t83 -75q43 45 86 89t86 87q10 10 12 11t15 -11q41 -41 77.5 -79t77.5 -79q12 -8 2 -18
q-45 -47 -89 -94.5t-87 -94.5q-10 -10 -13 -11t-14 9q-18 19 -39.5 40.5t-44 43t-42 38.5t-33.5 28q-43 -45 -86 -89t-88 -90q-13 -12 -21 -2q-41 33 -90 78t-82 80z" />
    <glyph glyph-name="uni0679" unicode="&#x679;" horiz-adv-x="2306" 
d="M1272 866q-45 -4 -65.5 -23.5t-39 -46t-31 -60.5t-18.5 -70q25 12 59.5 32.5t66.5 42t51.5 44t25.5 44.5q-6 27 -18.5 32t-30.5 5zM1118 827q0 13 1 43.5t5 61.5t5 58.5t1 41.5q19 41 36.5 86t31.5 72q8 31 14 31q0 -74 -1 -116t-2 -75t-2 -56.5t-3 -64.5q21 27 39.5 36
t56.5 13q39 -6 58.5 -33.5t17.5 -45.5q-16 -52 -37 -91q-16 -26 -34.5 -60t-46 -61.5t-48 -49t-34.5 -25.5q-9 0 -34.5 -6t-64.5 -13.5t-64.5 -13.5t-33.5 -6q-29 -6 -41 -2t12 18q41 23 66.5 39.5t52.5 38.5q21 39 35 91.5t14 88.5zM510 -86q-104 14 -174 41t-113 66.5
t-61.5 93t-17.5 122t18.5 152.5t44.5 186q2 7 5 11t6 5t6 -2t3 -9q-8 -78 3.5 -133.5t39 -93.5t70.5 -61.5t98 -39.5q60 -16 137.5 -28.5t168 -20.5t187.5 -11.5t196.5 -1t198.5 8.5t189.5 16t171 24.5t144.5 32.5q41 13 76 25t64.5 27.5t53 34t44 42t39 55t34.5 72.5
q6 13 11.5 16t8.5 -1t4 -12.5t-3 -22.5q-19 -100 -55.5 -181t-90 -142.5t-124 -107.5t-158.5 -77q-58 -23 -128.5 -39t-147.5 -28.5t-161 -20.5t-167.5 -12t-168.5 -5t-164 1t-153 7t-135 11z" />
    <glyph glyph-name="uni062B" unicode="&#x62b;" horiz-adv-x="2306" 
d="M510 -86q-158 20 -239 69.5t-108.5 130.5t-11 195.5t55.5 265.5q4 13 12 16t8 -11q-8 -78 3.5 -133.5t39 -93.5t70.5 -61.5t98 -39.5q80 -23 190.5 -37t236.5 -20.5t261.5 -3t263.5 12.5t241.5 26.5t199.5 41.5q61 19 108.5 38.5t84 47t65.5 68.5t53 102q12 23 20.5 15
t0.5 -35q-37 -205 -142.5 -326t-285.5 -182q-115 -45 -275 -68.5t-329.5 -32t-333.5 -3t-287 17.5zM815 694q-12 11 0 23q51 53 100.5 104t102.5 105q8 8 8 6q0 -6 8 -14q62 -93 154 -160q43 43 86 87t86 89q10 10 12 10t14 -12l156 -156q8 -8 8 -12q0 -2 -6 -8
q-45 -47 -89 -93.5t-87 -93.5q-10 -10 -13 -11t-14 9q-36 37 -83.5 81t-75.5 69q-86 -92 -174 -180q-9 -9 -21 -2q-41 32 -90 78t-82 81zM1376 1073q8 -8 9 -10t-7 -10q-43 -47 -87 -94.5t-87 -94.5q-10 -10 -13 -11t-13 9l-154 154q-16 14 0 31l86 94t88 94q6 10 14 2z" />
    <glyph glyph-name="uni062C" unicode="&#x62c;" horiz-adv-x="1587" 
d="M1026 338q8 -8 9 -10t-7 -13q-43 -47 -87 -94t-87 -94q-10 -10 -12 -11t-13 9q-41 39 -78.5 78t-76.5 78q-10 10 -10 14q0 6 10 16q43 47 87 94.5t87 94.5q6 10 14 0q41 -41 82 -81t82 -81zM158 -39q0 66 9 136.5t25.5 143t40 145.5t55 141.5t69.5 129t83 107.5
q6 8 20.5 24.5t37 39t52.5 51t68 59.5q13 8 15 14t0 11.5t-10.5 7.5t-18.5 4q-26 4 -53 6t-53 2q-27 0 -53.5 -1t-55.5 -3q-49 -4 -82 -19.5t-58.5 -36t-46 -45t-44.5 -49.5q-11 -6 -13 -4t1.5 9.5t8.5 17.5t11 20.5t11 18.5t7 12q35 47 63.5 82t55.5 60.5t56.5 41
t64.5 25.5t78 13t100 3h29h45q26 0 54 -3t51.5 -8t39 -15t15.5 -25q0 -14 -5.5 -27.5t-13.5 -25.5t-18.5 -22.5t-20.5 -22.5q-67 -55 -130.5 -112.5t-121 -117t-106.5 -123t-84 -135t-55.5 -151.5t-20.5 -172q0 -94 20.5 -171t57.5 -135.5t87 -100.5t109.5 -64.5t124 -28.5
t131 6.5t132 41t125.5 75.5q40 31 79 73t76 90t70 101.5t60.5 105.5t49 102t35.5 91q13 17 19 17t7 -10.5t-1 -30t-7 -43t-11.5 -50t-13.5 -50t-13 -44t-11 -34.5q-49 -156 -122.5 -285t-167.5 -234q-64 -71 -137.5 -120.5t-150.5 -77t-155 -31.5t-149.5 16.5t-134 65.5
t-108.5 117.5t-73.5 172t-29.5 228.5z" />
    <glyph glyph-name="uni0686" unicode="&#x686;" horiz-adv-x="1587" 
d="M1032 127q8 -8 9 -10t-7 -11q-45 -47 -88 -94t-88 -94q-10 -10 -12 -11t-12 9l-154 154q-10 10 -10 14q0 6 10 16q43 47 86 94.5t86 94.5q6 8 8 8t8 -6zM492 367q-9 8 -8 12t8 12q51 51 100 103.5t102 103.5q8 10 8 6t9 -14q32 -47 69 -86t84 -74q43 45 86 88t86 88
q11 10 13 11t14 -11q41 -41 78 -79t78 -78q12 -9 2 -19q-45 -47 -89.5 -94t-87.5 -94q-10 -11 -13 -12t-13 10q-19 18 -40.5 39.5t-44 42t-42 39t-33.5 28.5q-43 -45 -86 -89t-88 -91q-8 -8 -20 -2q-41 33 -90.5 79t-81.5 81zM158 -39q0 66 9 136.5t25.5 143t40 145.5
t55 141.5t69.5 129t83 107.5q6 8 20.5 24.5t37 39t52.5 51t68 59.5q13 8 15 14t0 11.5t-10.5 7.5t-18.5 4q-26 4 -53 6t-53 2q-27 0 -53.5 -1t-55.5 -3q-49 -4 -82 -19.5t-58.5 -36t-46 -45t-44.5 -49.5q-11 -6 -13 -4t1.5 9.5t8.5 17.5t11 20.5t11 18.5t7 12q35 47 63.5 82
t55.5 60.5t56.5 41t64.5 25.5t78 13t100 3h29h45q26 0 54 -3t51.5 -8t39 -15t15.5 -25q0 -14 -5.5 -27.5t-13.5 -25.5t-18.5 -22.5t-20.5 -22.5q-67 -55 -130.5 -112.5t-121 -117t-106.5 -123t-84 -135t-55.5 -151.5t-20.5 -172q0 -94 20.5 -171t57.5 -135.5t87 -100.5
t109.5 -64.5t124 -28.5t131 6.5t132 41t125.5 75.5q40 31 79 73t76 90t70 101.5t60.5 105.5t49 102t35.5 91q13 17 19 17t7 -10.5t-1 -30t-7 -43t-11.5 -50t-13.5 -50t-13 -44t-11 -34.5q-49 -156 -122.5 -285t-167.5 -234q-64 -71 -137.5 -120.5t-150.5 -77t-155 -31.5
t-149.5 16.5t-134 65.5t-108.5 117.5t-73.5 172t-29.5 228.5z" />
    <glyph glyph-name="uni062D" unicode="&#x62d;" horiz-adv-x="1587" 
d="M158 -39q0 66 9 136.5t25.5 143t40 145.5t55 141.5t69.5 129t83 107.5q6 8 20.5 24.5t37 39t52.5 51t68 59.5q13 8 15 14t0 11.5t-10.5 7.5t-18.5 4q-26 4 -53 6t-53 2q-27 0 -53.5 -1t-55.5 -3q-49 -4 -82 -19.5t-58.5 -36t-46 -45t-44.5 -49.5q-11 -6 -13 -4t1.5 9.5
t8.5 17.5t11 20.5t11 18.5t7 12q35 47 63.5 82t55.5 60.5t56.5 41t64.5 25.5t78 13t100 3h29h45q26 0 54 -3t51.5 -8t39 -15t15.5 -25q0 -14 -5.5 -27.5t-13.5 -25.5t-18.5 -22.5t-20.5 -22.5q-67 -55 -130.5 -112.5t-121 -117t-106.5 -123t-84 -135t-55.5 -151.5
t-20.5 -172q0 -94 20.5 -171t57.5 -135.5t87 -100.5t109.5 -64.5t124 -28.5t131 6.5t132 41t125.5 75.5q40 31 79 73t76 90t70 101.5t60.5 105.5t49 102t35.5 91q13 17 19 17t7 -10.5t-1 -30t-7 -43t-11.5 -50t-13.5 -50t-13 -44t-11 -34.5q-49 -156 -122.5 -285
t-167.5 -234q-64 -71 -137.5 -120.5t-150.5 -77t-155 -31.5t-149.5 16.5t-134 65.5t-108.5 117.5t-73.5 172t-29.5 228.5z" />
    <glyph glyph-name="uni062E" unicode="&#x62e;" horiz-adv-x="1587" 
d="M758 1591q8 -8 9 -10t-7 -12q-43 -47 -87 -94.5t-87 -94.5q-11 -10 -13 -11t-12 9q-41 39 -79 78l-76 78q-11 10 -11 14q0 6 11 17q43 47 87 94t87 94q6 10 14 0q41 -41 82 -81t82 -81zM158 -39q0 66 9 136.5t25.5 143t40 145.5t55 141.5t69.5 129t83 107.5
q6 8 20.5 24.5t37 39t52.5 51t68 59.5q13 8 15 14t0 11.5t-10.5 7.5t-18.5 4q-26 4 -53 6t-53 2q-27 0 -53.5 -1t-55.5 -3q-49 -4 -82 -19.5t-58.5 -36t-46 -45t-44.5 -49.5q-11 -6 -13 -4t1.5 9.5t8.5 17.5t11 20.5t11 18.5t7 12q35 47 63.5 82t55.5 60.5t56.5 41
t64.5 25.5t78 13t100 3h29h45q26 0 54 -3t51.5 -8t39 -15t15.5 -25q0 -14 -5.5 -27.5t-13.5 -25.5t-18.5 -22.5t-20.5 -22.5q-67 -55 -130.5 -112.5t-121 -117t-106.5 -123t-84 -135t-55.5 -151.5t-20.5 -172q0 -94 20.5 -171t57.5 -135.5t87 -100.5t109.5 -64.5t124 -28.5
t131 6.5t132 41t125.5 75.5q40 31 79 73t76 90t70 101.5t60.5 105.5t49 102t35.5 91q13 17 19 17t7 -10.5t-1 -30t-7 -43t-11.5 -50t-13.5 -50t-13 -44t-11 -34.5q-49 -156 -122.5 -285t-167.5 -234q-64 -71 -137.5 -120.5t-150.5 -77t-155 -31.5t-149.5 16.5t-134 65.5
t-108.5 117.5t-73.5 172t-29.5 228.5z" />
    <glyph glyph-name="uni062F" unicode="&#x62f;" horiz-adv-x="672" 
d="M385 244q6 65 -12.5 117.5t-53 93.5t-84 71.5t-106.5 55.5q-4 2 -4 6v8q2 6 9 20.5t14.5 31t13.5 30.5t8 20q2 4 6 14.5t8 25t9.5 30.5t10.5 30.5t8 25t5 14.5q2 8 5 16t16 8q41 -8 79.5 -25.5t72.5 -43t61.5 -58.5t47 -70.5t31 -79.5t11.5 -87q-2 -45 -13.5 -87t-29 -84
t-41 -82t-45.5 -79q-2 -2 -11.5 -16.5t-25 -36t-33.5 -46t-37 -51.5q-16 -4 -45 -12t-62.5 -17.5t-69.5 -18.5t-67.5 -18t-54 -14.5t-31.5 -7.5q-2 0 -13 -2t-19 -2q-9 0 -11 4t15 15q12 12 39.5 30.5t65.5 43t82 53t89 58.5t87 59.5t75 56.5z" />
    <glyph glyph-name="uni0688" unicode="&#x688;" horiz-adv-x="672" 
d="M412 1419q-45 -4 -65.5 -23.5t-39 -46t-31 -60.5t-18.5 -70q25 12 59.5 32.5t66.5 42t51.5 44t25.5 44.5q-6 27 -18.5 32t-30.5 5zM258 1380q0 13 1 43.5t5 61.5t5 58.5t1 41.5q19 41 36.5 86t31.5 72q8 31 14 31q0 -74 -1 -116t-2 -75t-2 -56.5t-3 -64.5q21 27 39 36
t57 13q39 -6 58.5 -33.5t17.5 -45.5q-16 -52 -37 -91q-16 -26 -34.5 -60t-46 -61.5t-48 -49t-35.5 -25.5q-8 0 -33.5 -6t-64.5 -13.5t-64.5 -13.5t-33.5 -6q-29 -6 -41 -2t12 18q41 23 66.5 39.5t52.5 38.5q20 39 34.5 91t14.5 89zM385 244q6 65 -12.5 117.5t-53 93.5
t-84 71.5t-106.5 55.5q-4 2 -4 6v8q2 6 9 20.5t14.5 31t13.5 30.5t8 20q2 4 6 14.5t8 25t9.5 30.5t10.5 30.5t8 25t5 14.5q2 8 5 16t16 8q41 -8 79.5 -25.5t72.5 -43t61.5 -58.5t47 -70.5t31 -79.5t11.5 -87q-2 -45 -13.5 -87t-29 -84t-41 -82t-45.5 -79q-2 -2 -11.5 -16.5
t-25 -36t-33.5 -46t-37 -51.5q-16 -4 -45 -12t-62.5 -17.5t-69.5 -18.5t-67.5 -18t-54 -14.5t-31.5 -7.5q-2 0 -13 -2t-19 -2q-9 0 -11 4t15 15q12 12 39.5 30.5t65.5 43t82 53t89 58.5t87 59.5t75 56.5z" />
    <glyph glyph-name="uni0630" unicode="&#x630;" horiz-adv-x="672" 
d="M553 1378q8 -8 9 -10t-7 -12q-43 -47 -87 -94.5t-87 -94.5q-10 -10 -12 -11t-13 9q-41 39 -78.5 78t-76.5 78q-11 10 -11 14q0 6 11 17q43 47 87 94t87 94q6 10 14 0q41 -41 82 -81t82 -81zM385 244q6 65 -12.5 117.5t-53 93.5t-84 71.5t-106.5 55.5q-4 2 -4 6v8
q2 6 9 20.5t14.5 31t13.5 30.5t8 20q2 4 6 14.5t8 25t9.5 30.5t10.5 30.5t8 25t5 14.5q2 8 5 16t16 8q41 -8 79.5 -25.5t72.5 -43t61.5 -58.5t47 -70.5t31 -79.5t11.5 -87q-2 -45 -13.5 -87t-29 -84t-41 -82t-45.5 -79q-2 -2 -11.5 -16.5t-25 -36t-33.5 -46t-37 -51.5
q-16 -4 -45 -12t-62.5 -17.5t-69.5 -18.5t-67.5 -18t-54 -14.5t-31.5 -7.5q-2 0 -13 -2t-19 -2q-9 0 -11 4t15 15q12 12 39.5 30.5t65.5 43t82 53t89 58.5t87 59.5t75 56.5z" />
    <glyph glyph-name="uni0631" unicode="&#x631;" horiz-adv-x="575" 
d="M422 709q12 28 22.5 24t10.5 -26q-2 -72 -10.5 -138.5t-20.5 -132.5q-18 -100 -48 -205.5t-81 -199.5q-12 -25 -44 -38t-54 -22q-31 -10 -77 -24.5t-89 -28.5t-76 -23.5t-35 -9.5q-22 -8 -10 11q74 61 146.5 124.5t135 134t111.5 151.5t74 177q12 56 21.5 113t23.5 113z
" />
    <glyph glyph-name="uni0691" unicode="&#x691;" horiz-adv-x="575" 
d="M319 1298q0 15 2.5 43.5t4.5 60.5t4 60.5t2 40.5q18 41 35.5 86t31.5 72q9 31 15 31q0 -72 -1 -116t-2 -75t-2 -57.5t-3 -63.5q20 27 38.5 36t57.5 14q39 -7 58.5 -34.5t17.5 -45.5q-15 -47 -37 -90q-13 -29 -35.5 -62t-47 -61.5t-47 -49t-34.5 -24.5q-4 0 -34 -6
t-64.5 -13.5t-64.5 -13.5t-34 -6q-28 -6 -40.5 -2t12.5 18q41 23 66.5 39.5t51.5 38.5q21 39 35 91.5t14 88.5zM473 1337q-45 -4 -65.5 -23.5t-38.5 -45.5q-19 -27 -31 -60.5t-19 -70.5q27 14 61 33.5t64.5 41t53 44t24.5 44.5q-6 27 -18 32t-31 5zM422 709q12 28 22.5 24
t10.5 -26q-2 -72 -10.5 -138.5t-20.5 -132.5q-18 -100 -48 -205.5t-81 -199.5q-12 -25 -44 -38t-54 -22q-31 -10 -77 -24.5t-89 -28.5t-76 -23.5t-35 -9.5q-24 -8 -10 11q74 61 146.5 124.5t135 134t111.5 151.5t74 177q12 56 21.5 113t23.5 113z" />
    <glyph glyph-name="uni0632" unicode="&#x632;" horiz-adv-x="575" 
d="M604 1272q8 -8 9 -10t-7 -13q-43 -47 -87 -94t-87 -94q-10 -10 -12 -11t-12 9q-41 39 -79 78t-77 77q-10 11 -10 15q0 6 10 16q43 47 87 94t87 95q6 8 14 0q41 -41 82 -81t82 -81zM422 709q12 28 22.5 24t10.5 -26q-2 -72 -10.5 -138.5t-20.5 -132.5q-18 -100 -48 -205.5
t-81 -199.5q-12 -25 -44 -38t-54 -22q-31 -10 -77 -24.5t-89 -28.5t-76 -23.5t-35 -9.5q-22 -8 -10 11q74 61 146.5 124.5t135 134t111.5 151.5t74 177q12 56 21.5 113t23.5 113z" />
    <glyph glyph-name="uni0698" unicode="&#x698;" horiz-adv-x="692" 
d="M2 1210q-12 11 0 23q51 53 100.5 104.5t102.5 104.5q8 8 8 6q0 -6 8 -14q62 -93 154 -160q43 43 86 87t86 89q10 10 12 10t14 -12l156 -156q8 -8 8 -12q0 -2 -6 -8q-45 -47 -89 -93t-87 -94q-10 -10 -13 -11t-14 9q-36 37 -83.5 81t-75.5 69q-86 -92 -174 -180
q-9 -9 -21 -2q-41 32 -90 78.5t-82 80.5zM563 1589q8 -8 9 -10t-7 -10q-43 -47 -87 -94.5t-87 -94.5q-10 -10 -13 -11t-13 9l-154 154q-16 14 0 31l86 94t88 94q4 6 6 7t8 -5zM422 709q12 28 22.5 24t10.5 -26q-2 -72 -10.5 -138.5t-20.5 -132.5q-18 -100 -48 -205.5
t-81 -199.5q-12 -25 -44 -38t-54 -22q-31 -10 -77 -24.5t-89 -28.5t-76 -23.5t-35 -9.5q-22 -8 -10 11q74 61 146.5 124.5t135 134t111.5 151.5t74 177q12 56 21.5 113t23.5 113z" />
    <glyph glyph-name="uni0633" unicode="&#x633;" horiz-adv-x="1980" 
d="M147 -4q0 160 32 314.5t87 303.5q4 9 10.5 12t9.5 -1t2 -18.5t-7 -39.5q-13 -43 -22 -85t-16 -84t-10.5 -84t-3.5 -85q0 -133 28 -233t76 -170t112.5 -110t138 -53t151.5 -2t155 46t146.5 91.5t127 131t96 166.5t53.5 199q4 37 5 81t0 92t-4 99t-8.5 99.5t-10.5 92.5
t-11 81q0 2 -2 13t-5 24.5t-5 24.5t-2 13q-2 9 -3 22t0 29.5t3 33t7 29.5t12 21.5t18 8.5q4 0 9 -4t10 -9.5t10 -10.5t10 -7q28 -8 54.5 -7t50.5 9t44.5 21.5t32.5 27.5q16 17 30.5 32t29 26.5t30.5 18.5t39 7q12 0 22.5 -3t21.5 -6t21.5 -6t22.5 -3q16 0 27.5 6t18.5 16.5
t11 21.5t8 23q5 11 9 18t8 8t7 -4t3 -17q0 -15 -4 -35.5t-11 -44t-17.5 -47t-25 -42t-29.5 -29.5t-34 -11q-14 0 -28.5 6t-30 12t-30.5 11t-32 3q-10 0 -18 -5t-16.5 -12t-14.5 -15.5t-14 -18.5q-14 -26 -26.5 -44.5t-26 -33t-33 -29t-47.5 -32.5q2 -129 -3 -262t-24 -260
q-18 -181 -64 -326t-112 -258t-145.5 -191.5t-166.5 -124.5t-177.5 -59.5t-172 4t-154.5 65.5t-125 126t-82 186.5t-26 245.5z" />
    <glyph glyph-name="uni0634" unicode="&#x634;" horiz-adv-x="1980" 
d="M1288 1944q8 -9 9 -11t-7 -10q-43 -47 -87 -94t-87 -94q-10 -11 -13 -12t-13 10l-154 153q-16 15 0 31l86 94t88 94q4 6 6 7.5t8 -5.5zM727 1565q-12 10 0 22q51 53 100.5 104.5t102.5 104.5q8 10 8 6t8 -14q33 -47 70 -86t84 -74q43 43 86 87t86 89q10 11 12 11t14 -13
l156 -155q8 -9 8 -13q0 -2 -6 -8q-45 -47 -89 -93t-87 -93q-10 -10 -13 -11.5t-14 9.5l-39.5 39.5t-44 42t-42 39t-33.5 28.5q-86 -92 -174 -180q-9 -8 -21 -2q-41 33 -90 79t-82 81zM147 -4q0 160 32 314.5t87 303.5q4 9 10.5 12t9.5 -1t2 -18.5t-7 -39.5q-13 -43 -22 -85
t-16 -84t-10.5 -84t-3.5 -85q0 -133 28 -233t76 -170t112.5 -110t138 -53t151.5 -2t155 46t146.5 91.5t127 131t96 166.5t53.5 199q4 37 5 81t0 92t-4 99t-8.5 99.5t-10.5 92.5t-11 81q0 2 -2 13t-5 24.5t-5 24.5t-2 13q-2 9 -3 22t0 29.5t3 33t7 29.5t12 21.5t18 8.5
q4 0 9 -4t10 -9.5t10 -10.5t10 -7q28 -8 54.5 -7t50.5 9t44.5 21.5t32.5 27.5q16 17 30.5 32t29 26.5t30.5 18.5t39 7q12 0 22.5 -3t21.5 -6t21.5 -6t22.5 -3q16 0 27.5 6t18.5 16.5t11 21.5t8 23q5 11 9 18t8 8t7 -4t3 -17q0 -15 -4 -35.5t-11 -44t-17.5 -47t-25 -42
t-29.5 -29.5t-34 -11q-14 0 -28.5 6t-30 12t-30.5 11t-32 3q-10 0 -18 -5t-16.5 -12t-14.5 -15.5t-14 -18.5q-14 -26 -26.5 -44.5t-26 -33t-33 -29t-47.5 -32.5q2 -129 -3 -262t-24 -260q-18 -181 -64 -326t-112 -258t-145.5 -191.5t-166.5 -124.5t-177.5 -59.5t-172 4
t-154.5 65.5t-125 126t-82 186.5t-26 245.5z" />
    <glyph glyph-name="uni0635" unicode="&#x635;" horiz-adv-x="2263" 
d="M1935 1270q-55 0 -101 -31t-85 -65q-43 -41 -96.5 -97.5t-91.5 -103.5q61 -4 130.5 8t135 37.5t126 63.5t103.5 85q4 27 -7 46.5t-29.5 31.5t-41 18.5t-43.5 6.5zM141 -39q0 176 44 340t116 324q2 4 9 20.5t12 20.5q2 6 6 10t7 3t3 -11q0 -9 -6 -33
q-37 -117 -62.5 -222.5t-25.5 -228.5q0 -98 25.5 -192t77.5 -166t131 -116t188 -44q190 0 331.5 98.5t239.5 255.5q76 121 97.5 247t21.5 259q0 84 -3 167t-14 169q-6 17 -4 41.5t8.5 48t18.5 41t29 21.5q18 -35 58 -40t75 -1q57 78 122.5 150.5t129.5 142.5q41 45 98 80.5
t121 35.5q65 0 97 -47t26 -106q-13 -119 -71 -225.5t-144 -178.5q-95 -77 -213.5 -113t-237.5 -46q-4 -39 -8 -83l-8 -88t-10.5 -86t-14.5 -75q-18 -96 -51 -206t-81 -217.5t-113.5 -205.5t-147.5 -174t-183.5 -121t-222.5 -45q-116 0 -205.5 54.5t-147.5 140.5t-88 192.5
t-30 208.5z" />
    <glyph glyph-name="uni0636" unicode="&#x636;" horiz-adv-x="2263" 
d="M1763 1735q9 -9 10 -11t-8 -12q-43 -47 -87 -94t-87 -94q-10 -11 -12 -12t-12 10q-41 39 -79 77.5t-77 77.5q-10 11 -10 15q0 6 10 16q43 47 87 94t87 94q6 11 14 0q41 -41 82 -80.5t82 -80.5zM1935 1270q-55 0 -101 -31t-85 -65q-43 -41 -96.5 -97.5t-91.5 -103.5
q61 -4 130.5 8t135 37.5t126 63.5t103.5 85q4 27 -7 46.5t-29.5 31.5t-41 18.5t-43.5 6.5zM141 -39q0 176 44 340t116 324q2 4 9 20.5t12 20.5q2 6 6 10t7 3t3 -11q0 -9 -6 -33q-37 -117 -62.5 -222.5t-25.5 -228.5q0 -98 25.5 -192t77.5 -166t131 -116t188 -44
q190 0 331.5 98.5t239.5 255.5q76 121 97.5 247t21.5 259q0 84 -3 167t-14 169q-6 17 -4 41.5t8.5 48t18.5 41t29 21.5q18 -35 58 -40t75 -1q57 78 122.5 150.5t129.5 142.5q41 45 98 80.5t121 35.5q65 0 97 -47t26 -106q-13 -119 -71 -225.5t-144 -178.5
q-95 -77 -213.5 -113t-237.5 -46q-4 -39 -8 -83l-8 -88t-10.5 -86t-14.5 -75q-18 -96 -51 -206t-81 -217.5t-113.5 -205.5t-147.5 -174t-183.5 -121t-222.5 -45q-116 0 -205.5 54.5t-147.5 140.5t-88 192.5t-30 208.5z" />
    <glyph glyph-name="uni0637" unicode="&#x637;" horiz-adv-x="885" 
d="M201 61q2 0 30.5 16.5t65.5 39l74 45t59 37.5q64 41 119 82t102 98q21 27 22 56.5t-13.5 54t-39 41t-57.5 16.5q-35 0 -69.5 -13.5t-65.5 -37t-55.5 -53t-38.5 -60.5q-45 -84 -83 -169t-73 -163zM129 31q18 43 36.5 92t35 102.5t28 106.5t17.5 102q8 184 14 364.5
t12 362.5q2 8 3 14.5t1 12.5q21 63 48.5 130.5t64.5 170.5q10 29 13.5 16.5t3.5 -37.5q-7 -198 -13 -393.5t-14 -394.5q0 -10 -2 -31.5t-5 -46t-7.5 -48.5t-6.5 -38q25 29 50.5 58.5t53 53t61.5 39t75 15.5q72 0 108.5 -50t36.5 -118q0 -51 -29.5 -123t-72.5 -142.5
t-93 -131t-91 -86.5q-13 -11 -39.5 -19t-38.5 -12q-111 -31 -222.5 -61.5t-222.5 -61.5q-16 -4 -24 -1t10 20q14 14 46 33.5t64.5 38t60.5 34.5t38 29z" />
    <glyph glyph-name="uni0638" unicode="&#x638;" horiz-adv-x="889" 
d="M903 1153q8 -8 9 -10t-7 -13q-43 -47 -87 -94t-87 -94q-10 -10 -12 -11t-12 9q-41 39 -79 78t-77 78q-10 10 -10 14q0 6 10 16q43 48 87 95t87 94q6 10 14 0q41 -41 82 -81t82 -81zM201 61q2 0 30.5 16.5t65.5 39l74 45t59 37.5q64 41 119 82t102 98q21 27 22 56.5
t-13.5 54t-39 41t-57.5 16.5q-35 0 -69.5 -13.5t-65.5 -37t-55.5 -53t-38.5 -60.5q-45 -84 -83 -169t-73 -163zM129 31q18 43 36.5 92t35 102.5t28 106.5t17.5 102q8 184 14 364.5t12 362.5q2 8 3 14.5t1 12.5q21 63 48.5 130.5t64.5 170.5q10 29 13.5 16.5t3.5 -37.5
q-7 -198 -13 -393.5t-14 -394.5q0 -10 -2 -31.5t-5 -46t-7.5 -48.5t-6.5 -38q25 29 50.5 58.5t53 53t61.5 39t75 15.5q72 0 108.5 -50t36.5 -118q0 -51 -29.5 -123t-72.5 -142.5t-93 -131t-91 -86.5q-13 -11 -39.5 -19t-38.5 -12q-111 -31 -222.5 -61.5t-222.5 -61.5
q-16 -4 -24 -1t10 20q14 14 46 33.5t64.5 38t60.5 34.5t38 29z" />
    <glyph glyph-name="uni0639" unicode="&#x639;" horiz-adv-x="1559" 
d="M145 -45q0 186 56.5 364.5t167.5 329.5q0 2 3 6t-7 9q-19 14 -39.5 29.5t-38 33.5t-28.5 41t-11 49q0 19 10 35q4 4 13.5 15.5t20.5 25.5t19 25.5t13 15.5q36 51 69 107.5t70 105.5t82 81t106 32q21 0 44.5 -6.5t44 -18.5t34.5 -30.5t17 -41.5q2 -26 -20.5 -40.5
t-45.5 -14.5q-25 0 -42 5t-32.5 10t-31 10.5t-33.5 5.5q-23 0 -58.5 -14.5t-72.5 -57.5q-19 -20 -16 -37.5t18 -32.5q32 -41 77.5 -73.5t94.5 -32.5q16 0 30.5 2t28.5 10q12 8 36 22.5t47.5 29t40.5 24.5t19 12q7 4 23 16.5t34.5 26t36 24.5t23.5 15q19 10 23 4t1 -13
t-16.5 -22.5t-21.5 -25.5q-6 -4 -14.5 -13.5t-17.5 -18.5l-16 -16t-9 -7q-23 -21 -39.5 -34.5t-30.5 -25.5t-28.5 -23.5t-35.5 -27.5q-41 -31 -71.5 -53.5t-61 -47t-65.5 -52t-82 -70.5q-105 -88 -159 -200t-52 -253q0 -104 25.5 -198.5t79 -164t135 -110.5t196.5 -37
q141 4 254 57.5t200 141.5t149.5 200.5t103.5 237.5q6 18 12 13t8 -25q0 -10 -2 -25.5t-5 -32l-6 -33t-7 -26.5q-29 -94 -67 -190.5t-89 -185.5t-114.5 -168t-143.5 -137t-174 -91t-205 -33q-76 0 -136 22.5t-122 65.5q-59 41 -98 99.5t-61.5 124t-31 136t-8.5 140.5z" />
    <glyph glyph-name="uni063A" unicode="&#x63a;" horiz-adv-x="1559" 
d="M475 1583q8 -8 9 -10t-7 -12q-43 -48 -87 -95t-87 -94q-10 -10 -12 -11t-12 9q-41 39 -79 78t-77 78q-10 10 -10 14q0 6 10 16q43 48 87 95t87 94q6 10 14 0q41 -41 82 -81t82 -81zM145 -45q0 186 56.5 364.5t167.5 329.5q0 2 3 6t-7 9q-19 14 -39.5 29.5t-38 33.5
t-28.5 41t-11 49q0 19 10 35q4 4 13.5 15.5t20.5 25.5t19 25.5t13 15.5q36 51 69 107.5t70 105.5t82 81t106 32q21 0 44.5 -6.5t44 -18.5t34.5 -30.5t17 -41.5q2 -26 -20.5 -40.5t-45.5 -14.5q-25 0 -42 5t-32.5 10t-31 10.5t-33.5 5.5q-23 0 -58.5 -14.5t-72.5 -57.5
q-19 -20 -16 -37.5t18 -32.5q32 -41 77.5 -73.5t94.5 -32.5q16 0 30.5 2t28.5 10q12 8 36 22.5t47.5 29t40.5 24.5t19 12q7 4 23 16.5t34.5 26t36 24.5t23.5 15q19 10 23 4t1 -13t-16.5 -22.5t-21.5 -25.5q-6 -4 -14.5 -13.5t-17.5 -18.5l-16 -16t-9 -7q-23 -21 -39.5 -34.5
t-30.5 -25.5t-28.5 -23.5t-35.5 -27.5q-41 -31 -71.5 -53.5t-61 -47t-65.5 -52t-82 -70.5q-105 -88 -159 -200t-52 -253q0 -104 25.5 -198.5t79 -164t135 -110.5t196.5 -37q141 4 254 57.5t200 141.5t149.5 200.5t103.5 237.5q6 18 12 13t8 -25q0 -10 -2 -25.5t-5 -32
l-6 -33t-7 -26.5q-29 -94 -67 -190.5t-89 -185.5t-114.5 -168t-143.5 -137t-174 -91t-205 -33q-76 0 -136 22.5t-122 65.5q-59 41 -98 99.5t-61.5 124t-31 136t-8.5 140.5z" />
    <glyph glyph-name="uni0641" unicode="&#x641;" horiz-adv-x="2263" 
d="M150 123q-13 110 3.5 203.5t36.5 195.5q5 29 15 30t10 -20v-22v-35v-37v-22q2 -66 47 -107t107.5 -65.5t130 -37.5t114.5 -22q64 -12 171.5 -15t234.5 3t265 19.5t264 35t229.5 49t163.5 62.5q12 8 32.5 19.5t39 25.5t31.5 30.5t13 35.5q0 8 -8 18t-20.5 19.5t-24.5 15.5
t-20 6h-3q-38 -51 -104 -51q-57 0 -102 43t-45 100v10v11q4 10 12 35.5t16 53t16.5 53t12.5 36.5q6 22 11 52t16.5 55.5t30 44t52.5 18.5q58 0 99 -47.5t68.5 -112t41 -132t13.5 -108.5q0 -61 -12.5 -119.5t-32.5 -115.5q-62 -152 -188 -237t-279 -122q-172 -43 -342 -66.5
t-326 -30.5t-291 0t-239 26q-39 8 -84 24.5t-84 43t-65.5 64.5t-26.5 87zM1243 907q8 -8 9 -10t-7 -12q-43 -47 -87 -94.5t-87 -94.5q-10 -10 -12 -11t-12 9q-41 39 -79 78t-77 78q-10 10 -10 14q0 6 10 17q43 47 87 94t87 94q6 8 14 0q41 -41 82 -81t82 -81z" />
    <glyph glyph-name="uni0642" unicode="&#x642;" horiz-adv-x="1556" 
d="M358 1356q-12 12 0 24q52 52 101 104t102 105q8 8 8 4q0 -2 9 -12q65 -94 153 -162q43 45 86 89t86 87q10 11 12.5 12t14.5 -12q41 -41 77.5 -78.5t77.5 -78.5q13 -8 2 -19q-45 -47 -89 -94t-87 -94q-10 -10 -13 -11t-13 9q-19 18 -40.5 39.5t-44 43t-42 39t-33.5 27.5
q-43 -45 -86 -89t-88 -89q-8 -10 -21 -2q-41 33 -90 78t-82 80zM143 -37q4 141 31 269t72 255q0 2 8 20.5t17.5 43t19.5 50.5t16 40q17 43 27 39t-2 -39q-35 -117 -63.5 -223.5t-28.5 -229.5q0 -102 26.5 -196t81.5 -166t138 -115t198 -43q96 0 180 32t155 85t129 124
t105 148q41 72 64.5 137.5t23.5 149.5q0 47 -7 92t-44 82q-12 10 -22 10q-23 0 -42.5 -13t-47.5 -13q-72 0 -121 49t-49 119v22q22 64 43.5 127.5t44.5 128.5q12 35 37.5 60.5t64.5 25.5q66 0 104.5 -44t61 -105.5t33 -128t13.5 -89t3 -42.5q0 -21 -1 -48.5t-2 -57.5t-1 -48
q-2 -98 -24.5 -218t-65.5 -243t-106.5 -239.5t-148.5 -206.5t-190.5 -144.5t-230.5 -54.5q-127 0 -220 50t-155.5 133t-93.5 190.5t-31 224.5z" />
    <glyph glyph-name="uni06A9" unicode="&#x6a9;" horiz-adv-x="1661" 
d="M143 186q0 88 19.5 181.5t48.5 177.5q6 14 18 14q13 0 7 -24q-5 -21 -7 -41.5t-2 -42.5q0 -70 32 -116t82 -77t110.5 -46t117.5 -19q191 -17 364 15t343 107q39 17 63.5 37.5t39 47t20.5 58t6 72.5v1147q0 52 14.5 123.5t38 144t57 137t72.5 103.5q78 70 132.5 116
t101.5 83t95 72.5t113.5 83t155.5 114t223 164.5q5 4 13 11t18 15.5t18.5 15.5t12.5 9q14 10 17 6t-7 -20q-35 -57 -79 -120.5t-85 -111.5q-37 -40 -86 -83t-124.5 -100.5t-185.5 -140.5t-265 -202q-23 -18 -47.5 -38.5t-45 -43t-36 -50.5t-19.5 -58v-146q0 -166 2 -327.5
t2 -327.5v-213q0 -14 -2 -55t-4 -85t-5 -85t-3 -56q-20 -133 -51 -241.5t-87 -192.5t-144.5 -144.5t-225.5 -96.5q-98 -27 -201.5 -39.5t-207.5 -12.5q-76 0 -154 12.5t-140.5 46t-102.5 92t-40 150.5z" />
    <glyph glyph-name="uni06AF" unicode="&#x6af;" horiz-adv-x="1661" 
d="M1589 2441q117 92 229.5 174t229.5 168q55 41 105.5 73t91.5 58q4 4 8 4t0 -10q-35 -53 -77 -106.5t-89 -94.5q-152 -108 -249 -182t-165 -129q-65 -53 -112.5 -93t-71.5 -62q-25 -21 -32 -26t-13 -9q-4 -2 -5 3t11 25q4 11 10 25t10 22q29 54 51.5 89.5t67.5 70.5z
M143 186q0 88 19.5 180.5t48.5 178.5q6 14 18 14q13 0 7 -24q-9 -35 -9 -84q0 -68 32 -116t82 -78t110.5 -45t117.5 -19q193 -17 364 15t343 107q78 33 103.5 84.5t25.5 130.5v1147q0 52 13.5 123.5t38 144t58 137t72.5 103.5q78 70 132.5 116t100.5 84t95 73.5t113.5 83
t155.5 113t224 163.5q2 2 11.5 10t18.5 16.5t18.5 15.5t13.5 9q14 10 17 6t-7 -20q-35 -57 -79 -120.5t-85 -111.5q-37 -40 -86 -82t-124.5 -100.5t-185.5 -141.5t-265 -202q-47 -37 -92 -82t-56 -108v-146q0 -219 6.5 -434t6.5 -434q0 -16 -2 -56t-5.5 -84t-5.5 -85t-2 -56
q-20 -133 -52 -241.5t-89 -192.5t-147.5 -144.5t-227.5 -96.5q-98 -27 -201.5 -39.5t-207.5 -12.5q-76 0 -154 12.5t-140.5 46t-102.5 92t-40 150.5z" />
    <glyph glyph-name="uni0644" unicode="&#x644;" horiz-adv-x="1614" 
d="M143 -33q2 109 22.5 211.5t45.5 196.5q35 110 59.5 172.5t40 88.5t19.5 17.5t-2 -39.5q-15 -53 -30 -103t-26.5 -99.5t-18.5 -99.5t-7 -103q0 -100 23.5 -196.5t72.5 -173.5t129 -125t193 -52q112 -2 216.5 41t192.5 117t154.5 171t103.5 204q17 45 23 92t7 95t0 97
t1 101q0 245 -10.5 490t-10.5 493q0 12 1 41.5t6 54.5q12 37 22 67.5t20.5 60.5t20.5 59.5t25 66.5q4 18 10 32.5t11 17.5t8 -9t1 -43q4 -78 1 -172t-3 -183v-768q-2 -16 -4 -59t-5 -91t-6 -91t-5 -60q-8 -90 -26.5 -182t-45.5 -176q-22 -86 -58 -176t-86 -174t-113.5 -160
t-139.5 -132t-164 -89t-186 -33q-125 0 -215.5 53.5t-149.5 137.5t-88 192.5t-29 218.5z" />
    <glyph glyph-name="uni0645" unicode="&#x645;" horiz-adv-x="1237" 
d="M180 -1513q-12 227 -24.5 452t-12.5 453q0 174 5.5 349t52.5 343q30 109 78.5 205t116 173t156.5 129t204 75q-13 12 -29 16t-8 27q22 47 48 91t48 87q10 20 21.5 41.5t27.5 21.5q35 0 76 -18.5t76 -49t58.5 -67.5t23.5 -74q0 -34 -10.5 -65t-26.5 -60q-47 -86 -131 -137
t-180 -67q-7 0 -26 -3t-42 -7.5t-42 -7.5t-24 -3q-55 -10 -112.5 -35.5t-107.5 -64.5t-85 -90t-43 -113q-10 -51 -14 -99t-6 -100q0 -2 -1 -54t-3 -124.5t-4 -150.5t-2 -127q-5 -242 -9 -481.5t-8 -481.5q-2 -22 -4 -48t-6 -48l-4 4q-12 29 -17.5 53.5t-9.5 55.5z" />
    <glyph glyph-name="uni0646" unicode="&#x646;" horiz-adv-x="1561" 
d="M995 477q9 -8 10 -10t-8 -12q-43 -47 -87 -94.5t-87 -94.5q-10 -10 -12 -11t-12 9q-41 39 -79 78t-77 78q-10 10 -10 14q0 6 10 17q43 47 87 94t87 94q6 10 14 0q41 -41 82 -81t82 -81zM143 0q0 156 40 306.5t104 293.5q16 35 25.5 43t12.5 0t0 -28.5t-12 -45.5
q-12 -32 -25.5 -77.5t-23.5 -96.5t-17 -104t-7 -103q0 -98 26.5 -191t78.5 -167t133 -118t190 -44q86 0 161.5 21.5t142 60.5t124 95.5t106.5 125.5q41 56 75 121.5t38 134.5q0 9 1 27t1 39v37v28q0 131 -10.5 261.5t-6.5 263.5q17 75 35.5 152t36.5 155q2 12 7 14t7 -10
q3 -16 5 -57t4 -87t5 -88t3 -59v-26q0 -7 1 -29.5t3 -51t4 -62.5t3 -63.5t2 -52t1 -28.5v-2q0 -70 -3 -140.5t-17 -138.5q-23 -114 -54.5 -218.5t-78.5 -211.5q-39 -92 -102.5 -182t-145.5 -164t-179.5 -120t-205.5 -46q-68 0 -134.5 21.5t-124 60.5t-102.5 92t-71 117
q-33 82 -44.5 169t-11.5 173z" />
    <glyph glyph-name="uni06BA" unicode="&#x6ba;" horiz-adv-x="1561" 
d="M143 0q0 156 40 306.5t104 293.5q16 35 25.5 43t12.5 0t0 -28.5t-12 -45.5q-12 -32 -25.5 -77.5t-23.5 -96.5t-17 -104t-7 -103q0 -98 26.5 -191t78.5 -167t133 -118t190 -44q86 0 161.5 21.5t142 60.5t124 95.5t106.5 125.5q41 56 75 121.5t38 134.5q0 9 1 27t1 39v37
v28q0 131 -10.5 261.5t-6.5 263.5q17 75 35.5 152t36.5 155q2 12 7 14t7 -10q3 -16 5 -57t4 -87t5 -88t3 -59v-26q0 -7 1 -29.5t3 -51t4 -62.5t3 -63.5t2 -52t1 -28.5v-2q0 -70 -3 -140.5t-17 -138.5q-23 -114 -54.5 -218.5t-78.5 -211.5q-39 -92 -102.5 -182t-145.5 -164
t-179.5 -120t-205.5 -46q-68 0 -134.5 21.5t-124 60.5t-102.5 92t-71 117q-33 82 -44.5 169t-11.5 173z" />
    <glyph glyph-name="uni0648" unicode="&#x648;" horiz-adv-x="606" 
d="M293 16q-10 -22 -27 -26q-86 -27 -172 -52.5t-176 -54.5q-14 0 -15 4t5 11.5t15 14.5t16 11q47 37 101 75t109.5 78t109.5 83t101 90q17 31 0.5 48t-43.5 21q-22 -10 -40.5 -18t-43.5 -8q-30 0 -61 13t-53.5 34.5t-36.5 50.5t-14 60v24t4 23q22 65 45.5 127.5t46.5 128.5
q10 28 37.5 49.5t60.5 21.5q55 0 93 -41t62.5 -99t35 -120.5t10.5 -103.5q0 -33 -3 -64.5t-14 -62.5q-16 -47 -32.5 -85t-35 -75t-40 -75t-45.5 -83z" />
    <glyph glyph-name="uni0624" unicode="&#x624;" horiz-adv-x="610" 
d="M293 16q-10 -22 -27 -26q-86 -27 -172 -52.5t-176 -54.5q-14 0 -15 4t5 11.5t15 14.5t16 11q47 37 101 75t109.5 78t109.5 83t101 90q17 31 0.5 48t-43.5 21q-22 -10 -40.5 -18t-43.5 -8q-30 0 -61 13t-53.5 34.5t-36.5 50.5t-14 60v24t4 23q22 65 45.5 127.5t46.5 128.5
q10 28 37.5 49.5t60.5 21.5q55 0 93 -41t62.5 -99t35 -120.5t10.5 -103.5q0 -33 -3 -64.5t-14 -62.5q-16 -47 -32.5 -85t-35 -75t-40 -75t-45.5 -83zM157 1248q37 0 56.5 33.5t40 75.5t49 77t87.5 35q9 0 24 -4t28 -14q-13 -31 -29 -65t-33 -60q-18 0 -43.5 -5.5
t-50.5 -23.5q-18 -18 -32.5 -46t-33 -52.5t-44 -43t-62.5 -18.5q-25 0 -43 14.5t-31 26.5q6 25 15.5 50.5t21.5 54.5q14 -11 35.5 -23t44.5 -12z" />
    <glyph glyph-name="uni06C1" unicode="&#x6c1;" horiz-adv-x="651" 
d="M94 27q0 45 5 84t20 82q2 2 7 17t11 32.5t11.5 33t7.5 19.5q2 6 6 19.5t4 15.5q10 71 19.5 142t11.5 144q6 21 29.5 29t45.5 8h29q115 0 169 -74.5t54 -179.5q2 -77 -18.5 -168.5t-62.5 -170t-100 -131t-128 -50.5q-61 2 -91 48t-30 100zM166 131q0 -41 19.5 -74.5
t66.5 -33.5q31 0 61.5 17t54 44t39 58.5t15.5 62.5t-20.5 60.5t-50 50t-64.5 27.5t-66 -7q-10 -8 -20.5 -35t-18.5 -59.5t-12 -63.5t-4 -47z" />
    <glyph glyph-name="uni06C3" unicode="&#x6c3;" horiz-adv-x="651" 
d="M-20 1262q-13 12 0 24q51 51 100 103.5t102 105.5q8 8 8 4q0 -2 9 -12q65 -94 153 -162q43 45 86 89t86 87q11 10 13 11t14 -11q41 -41 78 -79t78 -79q12 -8 2 -18q-45 -47 -89.5 -94t-87.5 -94q-10 -11 -13 -12t-13 10q-19 18 -40.5 39.5t-44 43t-42 39t-33.5 27.5
q-43 -45 -86 -89t-88 -89q-8 -10 -20 -2q-41 33 -90.5 78t-81.5 80zM166 131q0 -20 4 -39.5t15.5 -35t27.5 -24.5t39 -9q31 0 61.5 17t54 44t39 58.5t15.5 62.5t-20.5 60.5t-50 50t-64.5 27.5t-66 -7q-10 -8 -20.5 -35t-18.5 -59.5t-12 -63.5t-4 -47zM94 27q0 45 5 84t20 82
q2 2 7 17t11 32.5t11.5 33t7.5 19.5q2 6 6 19.5t4 15.5q10 71 19.5 142t11.5 144q4 15 16 22t28.5 11t30.5 4h29q57 0 99 -20.5t70 -54t41 -79.5t13 -100v-49q-2 -31 -15 -78t-33.5 -99t-48.5 -105.5t-61.5 -94.5t-71.5 -67.5t-79 -26.5q-31 0 -53.5 13.5t-37.5 34t-22.5 46
t-7.5 54.5z" />
    <glyph glyph-name="uni06BE" unicode="&#x6be;" horiz-adv-x="915" 
d="M625 305q-39 0 -74 -22.5t-57 -53.5q-39 -49 -76 -97t-76 -97q31 8 91.5 22.5t121.5 37t110.5 56t55.5 80.5q0 41 -32 57.5t-64 16.5zM403 383q-47 0 -95 -47t-90 -110.5t-73.5 -130t-46.5 -101.5q13 6 40.5 23.5t58 35t56.5 35.5t38 25q16 12 49 34.5t65.5 50t56 58.5
t23.5 57q0 37 -23.5 53.5t-58.5 16.5zM449 553q61 0 88.5 -42t29.5 -101h2q27 12 57.5 32.5t75.5 20.5q54 0 83.5 -40t25.5 -89q-6 -78 -54 -148.5t-102 -138.5q-24 -31 -55 -56.5t-65 -35.5q-142 -25 -280 -50.5t-280 -49.5q-8 -2 -33.5 -6.5t-45.5 -4.5q-19 0 -28 5.5
t13 19.5q29 25 62.5 40t64.5 36q60 96 114 196.5t116 198.5q18 31 38.5 66.5t45 67.5t55.5 54.5t72 24.5z" />
    <glyph glyph-name="uni0621" unicode="&#x621;" horiz-adv-x="985" 
d="M276 172q-18 10 -55 31.5t-63 66.5q-35 58 0 115q10 16 30.5 51t48 77t50 75t32.5 47q31 43 82.5 88t114.5 45q39 0 84 -25.5t45 -72.5q0 -35 -30.5 -57.5t-63.5 -22.5q-25 0 -49.5 18.5t-65.5 18.5q-39 0 -76.5 -20.5t-44.5 -69.5q-4 -19 14.5 -42.5t46 -45t62.5 -32.5
t66 -11q76 12 138.5 58t119.5 89q100 61 14 -51q-51 -70 -114.5 -124t-128 -104.5t-132 -106.5t-127.5 -132q-12 -17 -33.5 -44.5t-43.5 -82.5q-9 -27 -26 -42.5t-26 1.5q-8 86 37 161.5t94 143.5z" />
    <glyph glyph-name="uni06CC" unicode="&#x6cc;" horiz-adv-x="1778" 
d="M143 -2q2 92 10.5 170t26 154.5t46 161.5t75.5 196q12 33 26.5 39t6.5 -35q-35 -117 -66.5 -243t-31.5 -251q0 -92 25.5 -186t77.5 -169t131 -122t183 -47q181 0 311 88t230 230q16 24 39.5 60t37 72t5.5 65.5t-57 41.5q-54 4 -102 17.5t-83 40t-55.5 69.5t-20.5 109
q0 116 30 227t83 212t129 188.5t168 156.5q6 6 27.5 20.5t51.5 30t62.5 29.5t60 19.5t46 -3t18.5 -34.5v-7q-14 -61 -34.5 -119.5t-43.5 -119.5q-6 -27 -13 -30t-17 3t-23.5 14.5t-29.5 6.5q-54 -6 -109 -38t-108.5 -77t-99.5 -97.5t-81 -99.5q-10 -16 -20.5 -34.5
t-10.5 -36.5q0 -43 26 -69t62.5 -41t77.5 -21.5t70 -8.5q27 -18 43 -53t25.5 -75t12.5 -79.5t3 -66.5q0 -59 -12.5 -113.5t-30.5 -109.5q-37 -111 -100.5 -228.5t-149.5 -216t-196.5 -162t-243.5 -63.5q-131 0 -220 55.5t-155 145.5q-53 86 -81 194.5t-32 239.5z" />
    <glyph glyph-name="uni06D2" unicode="&#x6d2;" horiz-adv-x="2513" 
d="M143 264q4 6 25.5 35t40.5 51q49 60 102.5 111t128.5 82q43 18 89 31.5t91.5 30t86.5 39t71 58.5q4 5 12.5 14t16.5 19t15 18.5t7 10.5q2 2 7.5 12t11.5 20.5t11 20.5t7 12q2 5 7.5 10t7.5 7q0 -2 1 -7t1 -8q0 -38 -28 -81t-46 -74q-39 -66 -106.5 -127.5t-143.5 -81.5
l-160 -41q-41 -10 -73.5 -29.5t-61.5 -46.5q-10 -14 -25.5 -29.5t1.5 -35.5q34 -43 94.5 -70t129 -40t137.5 -19t120 -9q180 -12 354 -17t355 -5h38q25 0 68 2t110.5 5t168 9t239.5 15.5t326 21.5q30 4 40.5 2t10.5 -6t-10 -12q-140 -115 -294.5 -164t-330.5 -72
q-248 -16 -493.5 -20t-493.5 -4q-154 -2 -307.5 10t-282.5 41q-24 6 -60 16.5t-68 27.5t-54.5 41.5t-22.5 59.5q6 25 20.5 47.5t33 42t39 39t36.5 37.5z" />
    <glyph glyph-name="glyph47" horiz-adv-x="213" 
d="M147 504q0 8 3.5 45t6.5 84l6 94t5 76q2 39 5 80t9 97t13.5 131t19.5 181q0 2 8 17.5t13 23.5q32 60 61 115t51 117q6 16 10 6v-53q-22 -187 -43.5 -371t-44.5 -371q-4 -41 -4 -80v-78q0 -40 -4 -83t4 -84q-28 -66 -50.5 -131.5t-51.5 -131.5q-6 23 -9 45.5t-8 45.5
q0 6 -1 22t-2 34.5t-1 33.5v22q0 10 1 28.5t1 37.5q0 18 1 31.5t1 15.5z" />
    <glyph glyph-name="glyph48" horiz-adv-x="2103" 
d="M1270 -526q8 -9 9 -11t-7 -12q-43 -47 -87 -94t-87 -94q-11 -11 -13 -12t-12 10q-41 39 -79 77.5t-76 77.5q-11 11 -11 17q0 4 11 14q43 47 87 94t87 94q6 9 14 0q41 -41 82 -80.5t82 -80.5zM2111 332q-16 -33 -35.5 -64.5t-25.5 -42.5q-84 -121 -218 -186.5t-288.5 -96
t-313.5 -37.5t-294 -14h-152q-102 0 -212.5 10.5t-204 46.5t-154.5 102.5t-68 176.5q-2 74 13.5 169.5t42.5 174.5q2 4 5 10.5t7 6.5q6 0 7 -7.5t1 -11.5q2 -22 -1 -43.5t-3 -44.5q2 -71 39 -118.5t92 -77t121 -46t123 -24.5q49 -10 118.5 -16t141.5 -10.5t134.5 -5.5
t96.5 -1h88q68 0 164.5 7.5t213 23.5t239.5 49q70 19 129 39.5t106 50.5q25 17 48.5 40.5t39.5 45.5v-106z" />
    <glyph glyph-name="glyph49" horiz-adv-x="2103" 
d="M1253 -836q9 -8 10 -10t-8 -10q-45 -47 -88 -94t-88 -94q-10 -11 -12 -12t-12 9l-154 154q-10 10 -10 16q0 5 10 15l86 94l86 94q6 8 8 8t9 -6zM713 -596q-8 8 -7 12t7 13q51 51 100 103t102 103q9 9 9 7q0 -7 8 -15q61 -92 153 -159q43 45 86 88t86 88q11 10 13 11
t14 -11q41 -41 78 -79t78 -79q12 -8 2 -18q-45 -48 -89 -95t-87 -94q-11 -10 -14 -11t-13 9l-39.5 39.5t-43 43.5t-42 39t-35.5 28q-43 -45 -86 -89.5t-88 -91.5q-8 -8 -20 -2q-41 33 -90.5 79t-81.5 81zM2111 332q-16 -33 -35.5 -64.5t-25.5 -42.5q-84 -121 -218 -186.5
t-288.5 -96t-313.5 -37.5t-294 -14h-152q-102 0 -212.5 10.5t-204 46.5t-154.5 102.5t-68 176.5q-2 74 13.5 169.5t42.5 174.5q2 4 5 10.5t7 6.5q6 0 7 -7.5t1 -11.5q2 -22 -1 -43.5t-3 -44.5q2 -71 39 -118.5t92 -77t121 -46t123 -24.5q49 -10 118.5 -16t141.5 -10.5
t134.5 -5.5t96.5 -1h88q68 0 164.5 7.5t213 23.5t239.5 49q70 19 129 39.5t106 50.5q25 17 48.5 40.5t39.5 45.5v-106z" />
    <glyph glyph-name="glyph50" horiz-adv-x="2103" 
d="M815 680q-12 12 0 25q51 51 100.5 103t102.5 105q8 9 8 5q0 -5 8 -13q64 -92 154 -162q43 45 86 89.5t86 87.5q10 10 12 11t14 -11q41 -41 78 -79t78 -79q12 -8 2 -19q-45 -47 -89 -94t-87 -94q-10 -10 -13 -11t-14 9l-39.5 39.5t-44 43t-42 39t-33.5 27.5
q-43 -45 -86 -89t-88 -89q-11 -10 -21 -2q-41 33 -90 78t-82 80zM2111 332q-16 -33 -35.5 -64.5t-25.5 -42.5q-84 -121 -218 -186.5t-288.5 -96t-313.5 -37.5t-294 -14h-152q-102 0 -212.5 10.5t-204 46.5t-154.5 102.5t-68 176.5q-2 74 13.5 169.5t42.5 174.5q2 4 5 10.5
t7 6.5q6 0 7 -7.5t1 -11.5q2 -22 -1 -43.5t-3 -44.5q2 -71 39 -118.5t92 -77t121 -46t123 -24.5q49 -10 118.5 -16t141.5 -10.5t134.5 -5.5t96.5 -1h88q68 0 164.5 7.5t213 23.5t239.5 49q70 19 129 39.5t106 50.5q25 17 48.5 40.5t39.5 45.5v-106z" />
    <glyph glyph-name="glyph51" horiz-adv-x="2103" 
d="M1272 887q-45 -4 -65.5 -23.5t-39.5 -46.5q-18 -26 -30.5 -60t-18.5 -71q27 14 60.5 33.5t64.5 41t53.5 44t24.5 45.5q-6 27 -18.5 32t-30.5 5zM1118 848q0 14 2 43t4 60.5t4 60t2 41.5q19 41 36.5 86t31.5 71q8 31 14 31q0 -72 -1 -116t-2 -74.5t-2 -57t-3 -63.5
q21 26 39.5 35.5t56.5 13.5q39 -6 58.5 -33.5t17.5 -46.5q-14 -47 -37 -90q-12 -29 -34.5 -61.5t-47 -61.5t-47 -49.5t-34.5 -24.5q-5 0 -34.5 -6t-64.5 -13t-64.5 -13.5t-33.5 -6.5q-29 -6 -41 -2t12 19q41 22 66.5 38.5t52.5 39.5q21 39 35 91t14 89zM2111 332
q-16 -33 -35.5 -64.5t-25.5 -42.5q-84 -121 -218 -186.5t-288.5 -96t-313.5 -37.5t-294 -14h-152q-102 0 -212.5 10.5t-204 46.5t-154.5 102.5t-68 176.5q-2 74 13.5 169.5t42.5 174.5q2 4 5 10.5t7 6.5q6 0 7 -7.5t1 -11.5q2 -22 -1 -43.5t-3 -44.5q2 -71 39 -118.5t92 -77
t121 -46t123 -24.5q49 -10 118.5 -16t141.5 -10.5t134.5 -5.5t96.5 -1h88q68 0 164.5 7.5t213 23.5t239.5 49q70 19 129 39.5t106 50.5q25 17 48.5 40.5t39.5 45.5v-106z" />
    <glyph glyph-name="glyph52" horiz-adv-x="2103" 
d="M1378 1075q8 -8 9.5 -10t-7.5 -10q-43 -47 -87 -94.5t-87 -94.5q-10 -10 -13 -11t-13 9l-154 154q-16 14 0 31l86 94t88 94q6 10 14 2zM817 696q-12 11 0 23q51 53 100.5 104t102.5 105q8 8 8 6q0 -6 8 -14q62 -93 154 -160q43 43 86 87t86 89q10 10 12 10t15 -12
l155 -156q8 -8 8 -12q0 -2 -6 -8q-45 -47 -89 -93.5t-87 -93.5q-10 -10 -13 -11t-14 9q-18 19 -39.5 40.5l-43 43t-42 39t-34.5 27.5q-86 -92 -174 -180q-9 -9 -21 -2q-41 32 -90 78.5t-82 80.5zM2111 332q-16 -33 -35.5 -64.5t-25.5 -42.5q-84 -121 -218 -186.5t-288.5 -96
t-313.5 -37.5t-294 -14h-152q-102 0 -212.5 10.5t-204 46.5t-154.5 102.5t-68 176.5q-2 74 13.5 169.5t42.5 174.5q2 4 5 10.5t7 6.5q6 0 7 -7.5t1 -11.5q2 -22 -1 -43.5t-3 -44.5q2 -71 39 -118.5t92 -77t121 -46t123 -24.5q49 -10 118.5 -16t141.5 -10.5t134.5 -5.5
t96.5 -1h88q68 0 164.5 7.5t213 23.5t239.5 49q70 19 129 39.5t106 50.5q25 17 48.5 40.5t39.5 45.5v-106z" />
    <glyph glyph-name="glyph53" horiz-adv-x="2089" 
d="M510 -106q-158 20 -239 69t-108.5 130t-11 195.5t55.5 266.5q4 12 12 15t8 -11q-8 -78 3.5 -133t39 -93t70.5 -61.5t98 -40.5q80 -22 190.5 -36.5t236.5 -20.5t261.5 -3t263.5 12.5t241.5 26.5t199.5 42q61 18 108.5 37.5t84 47.5t65.5 68.5t53 102.5q12 22 20.5 14
t0.5 -35q-37 -204 -142.5 -325t-285.5 -182q-115 -46 -275 -69.5t-329.5 -31.5t-333.5 -3t-287 18zM1266 -539q8 -8 9 -10t-7 -12q-43 -47 -87 -94t-87 -95q-11 -10 -13 -11t-12 9q-41 39 -79 78t-77 78q-10 10 -10 16q0 5 10 15q43 47 87 94t87 94q7 8 15 0q41 -41 82 -81
t82 -81z" />
    <glyph glyph-name="glyph54" horiz-adv-x="2089" 
d="M510 -106q-158 20 -239 69t-108.5 130t-11 195.5t55.5 266.5q4 12 12 15t8 -11q-8 -78 3.5 -133t39 -93t70.5 -61.5t98 -40.5q80 -22 190.5 -36.5t236.5 -20.5t261.5 -3t263.5 12.5t241.5 26.5t199.5 42q61 18 108.5 37.5t84 47.5t65.5 68.5t53 102.5q12 22 20.5 14
t0.5 -35q-37 -204 -142.5 -325t-285.5 -182q-115 -46 -275 -69.5t-329.5 -31.5t-333.5 -3t-287 18zM758 -604q-8 8 -7 12t7 12q51 52 100 104t103 103q8 8 8 6q0 -6 8 -14q61 -92 153 -160q44 45 87 88t86 88q10 11 12 12t14 -12q41 -41 78 -78.5t78 -78.5q12 -8 2 -19
q-45 -47 -89 -94t-87 -94q-11 -10 -14 -11t-13 9q-37 37 -84 81t-76 68q-43 -45 -86 -89t-88 -91q-8 -8 -20 -2q-41 33 -90 79t-82 81zM1298 -844q9 -8 10 -10t-8 -10q-45 -47 -88 -94.5t-88 -94.5q-10 -10 -12 -11t-12 9l-154 154q-10 10 -10 16q0 4 10 15l86 94l86 94
q6 8 8 8t9 -6z" />
    <glyph glyph-name="glyph55" horiz-adv-x="2089" 
d="M510 -106q-158 20 -239 69t-108.5 130t-11 195.5t55.5 266.5q4 12 12 15t8 -11q-8 -78 3.5 -133t39 -93t70.5 -61.5t98 -40.5q80 -22 190.5 -36.5t236.5 -20.5t261.5 -3t263.5 12.5t241.5 26.5t199.5 42q61 18 108.5 37.5t84 47.5t65.5 68.5t53 102.5q12 22 20.5 14
t0.5 -35q-37 -204 -142.5 -325t-285.5 -182q-115 -46 -275 -69.5t-329.5 -31.5t-333.5 -3t-287 18zM823 733q-12 12 0 25q51 51 100.5 103t102.5 106q8 8 8 4t8 -13q33 -45 71 -86t83 -75q43 45 86 89t86 87q10 10 12 11t15 -11q41 -41 77.5 -79t77.5 -79q13 -8 2 -18
q-45 -47 -89 -94.5t-87 -94.5q-10 -10 -13 -11t-13 9l-40.5 40.5t-44 43t-42 38.5t-33.5 28q-43 -45 -86 -89t-88 -89q-12 -13 -21 -3q-41 33 -90 78t-82 80z" />
    <glyph glyph-name="glyph56" horiz-adv-x="2089" 
d="M1251 825q-45 -4 -65.5 -23.5t-39 -46t-30.5 -60t-18 -70.5q24 12 59 32.5t66.5 42t51 44t25.5 44.5q-6 27 -18 32t-31 5zM1098 786q0 13 1 43.5t5 61.5t5 58.5t1 41.5q18 41 35.5 86t32.5 72q8 31 14 31q0 -74 -1 -116t-2 -75t-2 -56.5t-3 -64.5q20 27 38.5 36t57.5 14
q39 -7 58.5 -34.5t17.5 -45.5q-17 -52 -37 -90q-16 -27 -34.5 -61t-46.5 -61.5t-48.5 -49t-34.5 -25.5q-8 0 -33.5 -6t-64.5 -13.5t-64.5 -13.5t-34.5 -6q-28 -6 -40.5 -2t12.5 18q41 23 66.5 39.5t52.5 38.5q20 39 34.5 91.5t14.5 88.5zM510 -106q-104 14 -174 40.5
t-113 66.5t-61.5 93t-17.5 122t18.5 153t44.5 186q2 6 5 10t6 5t6 -2t3 -9q-8 -78 3.5 -133t39 -93t70.5 -61.5t98 -40.5q60 -16 137.5 -28.5t168 -20.5t187.5 -11t196.5 -1t198.5 8t189.5 16.5t171 24.5t144.5 33q41 12 76 24.5t64.5 27.5t53 33.5t44 42t39 55.5t34.5 73
q6 12 11.5 15t8.5 -1t4 -12t-3 -23q-19 -100 -55.5 -181t-90 -142.5t-124 -107.5t-158.5 -76q-58 -23 -128.5 -39.5t-147.5 -28.5t-161 -20.5t-167.5 -12.5t-168.5 -5t-164 1t-153 7t-135 12z" />
    <glyph glyph-name="glyph57" horiz-adv-x="2089" 
d="M510 -106q-158 20 -239 69t-108.5 130t-11 195.5t55.5 266.5q4 12 12 15t8 -11q-8 -78 3.5 -133t39 -93t70.5 -61.5t98 -40.5q80 -22 190.5 -36.5t236.5 -20.5t261.5 -3t263.5 12.5t241.5 26.5t199.5 42q61 18 108.5 37.5t84 47.5t65.5 68.5t53 102.5q12 22 20.5 14
t0.5 -35q-37 -204 -142.5 -325t-285.5 -182q-115 -46 -275 -69.5t-329.5 -31.5t-333.5 -3t-287 18zM807 743q-12 11 0 23q51 53 100 104.5t103 104.5q8 8 8 6q0 -6 8 -14q61 -93 154 -160q43 43 86 87t86 89q10 10 12 10t14 -12l156 -156q8 -8 8 -12q0 -2 -6 -8
q-45 -47 -89 -93t-87 -94q-10 -10 -13.5 -11t-13.5 9q-37 37 -84 81t-75 69q-87 -92 -175 -180q-8 -8 -20 -2q-41 32 -90 78.5t-82 80.5zM1368 1122q8 -8 9 -10t-7 -10q-43 -47 -87 -94t-87 -95q-10 -10 -13 -11t-14 9l-153 154q-17 14 0 31l86 94t88 94q6 10 14 2z" />
    <glyph glyph-name="glyph58" horiz-adv-x="240" 
d="M1018 367q8 -9 9 -11t-7 -12q-43 -47 -87 -94t-87 -94q-10 -11 -12.5 -12t-12.5 10q-41 39 -78.5 77.5t-76.5 77.5q-11 10 -11 15q0 6 11 16q43 47 87 94t87 94q6 11 14 0q41 -41 82 -80.5t82 -80.5zM268 1059v-4q90 18 177 29.5t178 11.5q43 2 75.5 -3.5t51 -19.5
t18.5 -37q0 -20 -25 -53q-108 -106 -201 -197.5t-161 -183.5t-106.5 -196.5t-38.5 -235.5q0 -98 25.5 -190.5t77.5 -165t133 -115.5t190 -43q129 0 235.5 48t192.5 129t150.5 185.5t107.5 217.5q2 4 8 24.5t14 44t14.5 44t8.5 24.5q4 16 10 21t10 -4t4 -32q0 -22 -8 -61
q-18 -90 -51 -196.5t-81 -212t-111.5 -203t-144.5 -172t-177 -119.5t-211 -45q-129 0 -221.5 51t-151.5 136t-88 193.5t-29 225.5q0 98 15.5 201.5t46.5 205t78 196.5t112 175q39 47 90.5 99.5t98.5 99.5q4 6 -3.5 10t-11.5 4q-28 6 -55 6h-55q-78 0 -150.5 -9t-150.5 -38
q12 78 43 144z" />
    <glyph glyph-name="glyph59" horiz-adv-x="240" 
d="M956 45q9 -8 10 -10t-8 -10q-45 -48 -88 -95t-88 -94q-10 -10 -12 -11t-12 9l-154 154q-10 10 -10 14q0 6 10 16q43 48 86 95l86 94q6 8 8 8t9 -6zM416 285q-8 8 -7 12t7 12q51 51 100 103.5t102 103.5q9 10 9 6t8 -14q33 -47 69.5 -86t83.5 -74q43 45 86.5 88t86.5 88
q10 11 12 12t14 -12q41 -41 78 -78.5t78 -78.5q12 -9 2 -19q-45 -47 -89 -94t-87 -94q-11 -10 -14 -11.5t-13 9.5l-39.5 39.5t-44 42t-42 39t-34.5 28.5q-43 -45 -86 -89t-88 -91q-8 -8 -20 -2q-41 33 -90 79t-82 81zM268 1059v-4q90 18 177 29.5t178 11.5q43 2 75.5 -3.5
t51 -19.5t18.5 -37q0 -20 -25 -53q-108 -106 -201 -197.5t-161 -183.5t-106.5 -196.5t-38.5 -235.5q0 -98 25.5 -190.5t77.5 -165t133 -115.5t190 -43q129 0 235.5 48t192.5 129t150.5 185.5t107.5 217.5q2 4 8 24.5t14 44t14.5 44t8.5 24.5q4 16 10 21t10 -4t4 -32
q0 -22 -8 -61q-18 -90 -51 -196.5t-81 -212t-111.5 -203t-144.5 -172t-177 -119.5t-211 -45q-129 0 -221.5 51t-151.5 136t-88 193.5t-29 225.5q0 98 15.5 201.5t46.5 205t78 196.5t112 175q39 47 90.5 99.5t98.5 99.5q4 6 -3.5 10t-11.5 4q-28 6 -55 6h-55q-78 0 -150.5 -9
t-150.5 -38q12 78 43 144z" />
    <glyph glyph-name="glyph60" horiz-adv-x="240" 
d="M268 1059v-4q90 18 177 29.5t178 11.5q43 2 75.5 -3.5t51 -19.5t18.5 -37q0 -20 -25 -53q-108 -106 -201 -197.5t-161 -183.5t-106.5 -196.5t-38.5 -235.5q0 -98 25.5 -190.5t77.5 -165t133 -115.5t190 -43q129 0 235.5 48t192.5 129t150.5 185.5t107.5 217.5q2 4 8 24.5
t14 44t14.5 44t8.5 24.5q4 16 10 21t10 -4t4 -32q0 -22 -8 -61q-18 -90 -51 -196.5t-81 -212t-111.5 -203t-144.5 -172t-177 -119.5t-211 -45q-129 0 -221.5 51t-151.5 136t-88 193.5t-29 225.5q0 98 15.5 201.5t46.5 205t78 196.5t112 175q39 47 90.5 99.5t98.5 99.5
q4 6 -3.5 10t-11.5 4q-28 6 -55 6h-55q-78 0 -150.5 -9t-150.5 -38q12 78 43 144z" />
    <glyph glyph-name="glyph61" horiz-adv-x="449" 
d="M453 1513q8 -8 9 -10t-7 -12q-43 -47 -87 -94t-87 -94q-11 -11 -13 -12t-12 9q-41 39 -79 78t-77 78q-10 10 -10 14q0 7 10 17q43 47 87 94t87 94q7 11 15 0q41 -41 82 -81t82 -81zM477 1059v-4q90 18 177 29.5t177 11.5q43 2 76 -3.5t51.5 -19.5t18.5 -37q0 -20 -25 -53
q-108 -106 -201.5 -197.5t-161 -183.5t-106.5 -196.5t-39 -235.5q0 -98 26 -190.5t78 -165t133 -115.5t189 -43q129 0 235.5 48t192.5 129t150.5 185.5t107.5 217.5q3 4 9 24.5t14 44t14 44t9 24.5q4 16 10 21t10 -4t4 -32q0 -22 -8 -61q-19 -90 -51.5 -196.5t-80.5 -212
t-111.5 -203t-144.5 -172t-177.5 -119.5t-210.5 -45q-129 0 -221.5 51t-151.5 136t-88 193.5t-29 225.5q0 98 15.5 201.5t46 205t78 196.5t112.5 175q39 47 90 99.5t99 99.5q4 6 -3.5 10t-11.5 4q-28 6 -55 6h-55q-78 0 -151 -9t-150 -38q12 78 43 144z" />
    <glyph glyph-name="glyph62" horiz-adv-x="453" 
d="M494 557q-7 -41 -0.5 -78t16.5 -71l-119 -162q-2 2 -2 8v-2l-2 -2q-14 -27 -27.5 -65t-30 -74.5t-36 -66.5t-43.5 -38q-19 -6 -64 -20.5t-95 -29.5l-95 -28.5t-64 -19.5q-38 -12 -49.5 -9t29.5 40q108 79 196.5 158t159 171t127 203t101.5 254q8 23 17 13.5t5 -23.5
q-4 -35 -11 -75t-13 -83z" />
    <glyph glyph-name="glyph63" horiz-adv-x="453" 
d="M494 557q-7 -41 -0.5 -78t16.5 -71l-119 -162q-2 6 -2 8t-2 -4q-14 -27 -28.5 -65t-30 -74.5t-35 -66.5t-43.5 -38q-19 -6 -64 -20.5t-95 -29.5l-95 -28.5t-64 -19.5q-38 -12 -49.5 -9t29.5 40q108 79 196.5 158t160 171t127 203t100.5 254q8 23 17 13.5t5 -23.5
q-4 -35 -11 -75t-13 -83zM399 1055q-45 -4 -65.5 -23.5t-39 -46.5t-30.5 -60.5t-18 -70.5q24 12 59 32.5t66.5 42t51 44t26.5 45.5q-7 26 -19 31.5t-31 5.5zM246 1016q0 12 1 43t5 61.5t5 58t1 42.5q18 41 35.5 86t32.5 71q8 31 14 31q0 -74 -1 -116t-2 -74.5t-2 -56
t-3 -64.5q20 26 38.5 35.5t57.5 13.5q39 -6 58.5 -34t17.5 -46q-17 -51 -37 -90q-16 -27 -34.5 -60.5t-46.5 -61.5t-48.5 -49.5t-34.5 -25.5q-8 0 -33.5 -6t-64.5 -13t-64.5 -13.5t-34.5 -6.5q-28 -6 -40.5 -2t12.5 19q41 22 66.5 38.5t52.5 39.5q20 38 34.5 90.5t14.5 89.5
z" />
    <glyph glyph-name="glyph64" horiz-adv-x="453" 
d="M494 557q-7 -41 -0.5 -78t16.5 -71l-119 -162q-2 2 -2 8v-2l-2 -2q-14 -27 -27.5 -65t-30 -74.5t-36 -66.5t-43.5 -38q-19 -6 -64 -20.5t-95 -29.5l-95 -28.5t-64 -19.5q-38 -12 -49.5 -9t29.5 40q108 79 196.5 158t159 171t127 203t101.5 254q8 23 17 13.5t5 -23.5
q-4 -35 -11 -75t-13 -83zM479 1079q8 -8 9 -10t-7 -12q-43 -47 -87 -94.5t-87 -94.5q-10 -10 -12 -11t-12 9q-41 39 -79 78t-77 78q-10 10 -10 14q0 6 10 17q43 47 87 94t87 94q6 8 14 0q41 -41 82 -81t82 -81z" />
    <glyph glyph-name="glyph65" horiz-adv-x="455" 
d="M301 137q35 33 74 76t63 90h45q-18 -45 -34.5 -103.5t-34 -111.5t-39 -95t-53.5 -54q-19 -7 -64 -21t-95 -29.5t-95 -29t-64 -19.5q-39 -12 -50 -9t30 40q79 66 158 132.5t159 133.5z" />
    <glyph glyph-name="uni0691.1" horiz-adv-x="520" 
d="M330 764q-45 -4 -65.5 -23.5t-39 -46t-31 -60.5t-18.5 -71q25 12 59.5 32.5t66.5 42t51.5 44.5t25.5 45q-6 27 -18.5 32t-30.5 5zM176 725q0 12 1 43t5 61.5t5 58t1 42.5q19 41 36.5 86t31.5 71q8 31 14 31q0 -74 -1 -115.5t-2 -74.5t-2 -56.5t-3 -64.5q21 27 39 36
t57 13q39 -6 58.5 -33.5t17.5 -46.5q-16 -51 -37 -90q-16 -27 -34.5 -60.5t-46 -61t-48 -49t-35.5 -26.5q-8 0 -33.5 -6t-64.5 -13t-64.5 -13t-33.5 -6q-29 -7 -41 -2.5t12 18.5q41 22 66.5 38.5t52.5 39.5q20 39 34.5 91t14.5 89zM367 137q34 33 73 76t64 90h45
q-19 -45 -35 -103.5t-33.5 -111.5t-39 -95t-54.5 -54q-18 -7 -63 -21t-95.5 -29.5t-95.5 -29t-63 -19.5q-39 -12 -50.5 -9t29.5 40q80 66 159 132.5t159 133.5z" />
    <glyph glyph-name="a.001" horiz-adv-x="455" 
d="M301 137q35 33 74 76t63 90h45q-18 -47 -34.5 -104.5t-34 -111.5t-40 -95t-52.5 -53q-19 -7 -64 -21t-95 -29.5t-95 -29t-64 -19.5q-39 -12 -50 -9t30 40q79 66 158 132.5t159 133.5zM375 762q8 -8 9 -10t-7 -13q-43 -47 -87 -94t-87 -94q-10 -10 -12.5 -11t-12.5 9
q-41 39 -79 78l-76 78q-11 10 -11 14q0 6 11 16q43 47 87 94.5t87 94.5q6 8 14 0q41 -41 82 -81t82 -81z" />
    <glyph glyph-name="a.002" horiz-adv-x="723" 
d="M569 137q35 33 74 76t64 90h45q-19 -47 -35.5 -104.5t-33.5 -111.5t-39.5 -95t-53.5 -53q-19 -7 -64 -21t-95 -29.5t-95 -29t-64 -19.5q-39 -12 -50 -9t30 40q80 66 158.5 132.5t158.5 133.5zM-29 655q-12 11 0 23q52 53 101 104.5t102 104.5q8 8 8 6q0 -6 8 -14
q62 -93 154 -160q43 43 86 87t86 89q10 10 12 10t15 -12l155 -156q9 -8 9 -12q0 -2 -7 -8q-45 -47 -89 -93t-87 -94q-10 -10 -13 -11t-13 9q-37 37 -84 81t-76 69q-86 -92 -174 -180q-8 -9 -21 -2q-41 32 -90 78.5t-82 80.5zM532 1034q9 -8 10 -10t-7 -10
q-43 -47 -87.5 -94.5t-87.5 -94.5q-10 -10 -13 -11t-13 9l-154 154q-16 14 0 31l86 94t88 94q4 6 6 7t9 -5z" />
    <glyph glyph-name="a.003" horiz-adv-x="444" 
d="M498 195q-119 -35 -195 -134q-98 -133 -192.5 -266t-200.5 -262q-19 -22 -35 -39.5t-31.5 -34t-34 -34t-42.5 -39.5q-25 -23 -46.5 -39.5t-37 -23.5t-22.5 -6t-3 11q12 13 40 43.5t58.5 66.5t58 67.5t38.5 43.5q30 39 68 91.5t76 109.5t76 117.5t68 118.5q35 65 66 122.5
t45 79.5q45 78 106.5 146.5t139.5 114.5v-254z" />
    <glyph glyph-name="a.004" horiz-adv-x="512" 
d="M223 629q-45 -4 -65.5 -23.5t-39 -46.5t-30.5 -60.5t-18 -70.5q24 12 59 32.5t66.5 42t51 44t25.5 45.5q-6 26 -18 31.5t-31 5.5zM70 590q0 12 1 43t5 61.5t5 58t1 42.5q18 41 35.5 86t32.5 71q8 31 14 31q0 -74 -1 -116t-2 -74.5t-2 -56t-3 -64.5q20 26 38.5 35.5
t57.5 13.5q39 -6 58.5 -34t17.5 -46q-17 -51 -37 -90q-17 -27 -35 -60.5t-46 -61.5t-48.5 -49.5t-34.5 -25.5q-8 0 -33.5 -6t-64.5 -13t-64.5 -13.5t-34.5 -6.5q-28 -6 -40.5 -2t12.5 19q41 22 66.5 38.5t51.5 39.5q21 39 35.5 91t14.5 89zM565 195q-119 -35 -194 -134
q-99 -133 -193 -266t-201 -262q-18 -22 -34.5 -39.5t-31.5 -34t-33.5 -34t-43.5 -39.5q-24 -23 -45.5 -39.5t-37 -23.5t-23 -6t-2.5 11q12 13 39.5 43.5t58.5 66.5t58.5 67.5t37.5 43.5q31 39 69 91.5t75.5 109.5t75.5 117.5t69 118.5q35 65 65.5 122.5t44.5 79.5
q46 78 107 146.5t139 114.5v-254z" />
    <glyph glyph-name="a.005" horiz-adv-x="444" 
d="M498 449v-254q-121 -35 -195 -134q-98 -135 -192.5 -267t-200.5 -261q-37 -45 -65.5 -73.5t-77.5 -73.5q-25 -23 -46.5 -39.5t-37 -23.5t-22.5 -6t-3 11q12 13 40 43.5t58.5 66.5t58 67.5t38.5 43.5q30 39 68 90.5t77 109.5t76 118.5t67 118.5q35 65 66 122.5t45 79.5
q45 78 106.5 146.5t139.5 114.5zM334 680q8 -8 9 -10t-7 -13q-43 -47 -87 -94t-87 -94q-10 -10 -12.5 -11t-12.5 9q-41 39 -79 78l-76 78q-11 10 -11 14q0 6 11 16q43 47 87 94.5t87 94.5q6 8 14 0q41 -41 82 -81t82 -81z" />
    <glyph glyph-name="a.006" horiz-adv-x="672" 
d="M725 449v-254q-121 -35 -195 -134q-98 -135 -192 -267t-201 -261q-37 -45 -65.5 -73.5t-77.5 -73.5q-25 -23 -46.5 -39.5t-36.5 -23.5t-22.5 -6t-3.5 11q13 13 40.5 43.5t58 66.5t58.5 67.5t38 43.5q31 39 68.5 90.5t76.5 109.5t76 118.5t68 118.5q34 65 65 122.5
t45 79.5q45 78 106.5 146.5t139.5 114.5zM-106 547q-13 10 0 22q51 54 100 105t102 104q8 8 8 6q0 -6 9 -14q61 -92 153 -160q43 43 86 87t86 89q11 11 13 11t14 -13l156 -155q8 -8 8 -13q0 -2 -6 -8q-45 -47 -89.5 -93t-87.5 -93q-10 -10 -13 -11t-13 9q-37 37 -84 81
t-76 68q-86 -92 -174 -180q-8 -8 -20 -2q-41 33 -90.5 79t-81.5 81zM455 926q8 -8 9 -10.5t-7 -10.5q-43 -47 -87 -94t-87 -94q-11 -10 -14 -11t-13 9l-154 153q-16 15 0 31l86 94t88 94q5 7 7 8t8 -5z" />
    <glyph glyph-name="uni0631.1" horiz-adv-x="352" 
d="M375 141q-6 -4 -11.5 -10t-11.5 -10q-57 -49 -104 -107.5t-90 -120t-86 -124t-92 -123.5q-25 -29 -54.5 -65t-60.5 -72.5t-61.5 -69.5t-55.5 -55q-10 -11 -26.5 -24t-33 -23.5t-29.5 -14.5t-17 6q22 25 52 56.5t50 56.5q88 110 182 227t168 240q33 57 66 116.5t66.5 118
t69.5 113.5t79 104v-219z" />
    <glyph glyph-name="h.001" horiz-adv-x="444" 
d="M330 866q-45 -4 -65.5 -23.5t-39 -46t-31 -60.5t-18.5 -70q25 12 59.5 32.5t66.5 42t51.5 44t25.5 44.5q-6 27 -18.5 32t-30.5 5zM176 827q0 13 1 43.5t5 61.5t5 58.5t1 41.5q19 41 36.5 86t31.5 72q8 31 14 31q0 -74 -1 -116t-2 -75t-2 -56.5t-3 -64.5q21 27 39 36
t57 13q39 -6 58.5 -33.5t17.5 -45.5q-16 -52 -37 -91q-16 -26 -34.5 -60t-46 -61.5t-48 -49t-35.5 -25.5q-8 0 -33.5 -6t-64.5 -13.5t-64.5 -13.5t-33.5 -6q-29 -6 -41 -2t12 18q41 23 66.5 39.5t52.5 38.5q20 39 34.5 91.5t14.5 88.5zM467 141q-6 -4 -11 -10t-12 -10
q-57 -49 -104 -107.5t-90 -120t-86 -124t-92 -123.5q-25 -29 -54.5 -65t-60.5 -72.5t-61.5 -69.5t-55.5 -55q-10 -11 -26.5 -24t-33 -23.5t-29.5 -14.5t-17 6q22 25 52 56.5t50 56.5q88 110 182.5 227t167.5 240q33 57 66 116.5t66.5 118t69.5 113.5t79 104v-219z" />
    <glyph glyph-name="h.002" horiz-adv-x="352" 
d="M375 360v-219q-6 -4 -11.5 -10t-11.5 -10q-57 -49 -104 -106.5t-90 -119t-86 -125t-92 -124.5q-25 -29 -55.5 -65t-61.5 -72.5t-60.5 -69.5t-54.5 -55q-10 -11 -26.5 -24t-33 -23.5t-29.5 -14.5t-17 6q22 25 52 56.5t50 56.5q88 110 182 227t168 240q66 117 130.5 235.5
t150.5 216.5zM346 797q8 -9 9 -11t-7 -12q-43 -47 -87 -94t-87 -94q-10 -11 -12 -12t-12 10q-41 39 -79 77.5t-77 77.5q-10 11 -10 15q0 6 10 16q43 47 87 94t87 94q6 9 14 0l82 -80t82 -81z" />
    <glyph glyph-name="h.003" horiz-adv-x="592" 
d="M614 360v-219q-6 -4 -11 -10t-11 -10q-57 -49 -104.5 -106.5t-90.5 -119t-86 -125t-92 -124.5q-24 -29 -55 -65t-61.5 -72.5t-60.5 -69.5t-54 -55q-11 -11 -27 -24t-32.5 -23.5t-30 -14.5t-17.5 6q23 25 52.5 56.5t50.5 56.5q88 110 182 227t168 240q65 117 129.5 235.5
t150.5 216.5zM-76 754q-12 10 0 22q51 53 100.5 104.5t102.5 104.5q8 8 8 6q0 -6 8 -14q62 -92 154 -160q43 43 86 87t86 89q10 11 12 11t15 -13l155 -155q8 -9 8 -13q0 -2 -6 -8q-45 -47 -89 -93t-87 -93q-10 -11 -13 -12t-13 10q-37 37 -84.5 81t-75.5 68
q-86 -92 -174 -180q-8 -8 -21 -2q-41 33 -90 79t-82 81zM485 1133q9 -9 10 -11t-8 -10q-43 -47 -87 -94t-87 -94q-10 -11 -13 -12t-13 10l-154 153q-16 15 0 31l86 94t88 94q4 6 6 7.5t9 -5.5z" />
    <glyph glyph-name="uni0691.2" horiz-adv-x="422" 
d="M473 354q-59 -28 -107.5 -78.5t-82.5 -99.5q-50 -70 -95 -169t-102 -211.5t-131 -228.5t-180 -216q-47 -39 -68.5 -41t14.5 33q78 96 147 195.5t128 217.5q53 135 109.5 270.5t115.5 272.5q19 41 43.5 87t56 90t70.5 83t82 64v-269z" />
    <glyph glyph-name="glyph78" horiz-adv-x="422" 
d="M350 1092q-45 -5 -65.5 -24t-39 -46t-30.5 -60.5t-18 -70.5q24 12 59 32.5t66.5 42t51 44t25.5 45.5q-6 26 -18 31.5t-31 5.5zM197 1053q0 12 1 42.5t5 61.5t5 58.5t1 41.5q18 41 35.5 86.5t31.5 71.5q9 31 15 31q0 -74 -1 -116t-2 -74.5t-2 -56t-3 -64.5
q20 26 38.5 35.5t57.5 13.5q39 -6 58.5 -34t17.5 -46q-17 -51 -37 -90q-17 -27 -35 -60.5t-46 -61.5t-48.5 -49.5t-34.5 -25.5q-8 0 -33.5 -6t-64.5 -13t-64.5 -13.5t-34.5 -6.5q-28 -6 -40.5 -2t12.5 19q41 22 66.5 38.5t51.5 38.5q21 39 35.5 91.5t14.5 89.5zM473 354
q-59 -28 -107.5 -78.5t-82.5 -99.5q-50 -70 -95 -169t-102 -211.5t-131 -228.5t-180 -216q-47 -39 -68.5 -41t14.5 33q78 96 147 195.5t128 217.5q53 135 109.5 270.5t115.5 272.5q19 41 43.5 87t56 90t70.5 83t82 64v-269z" />
    <glyph glyph-name="glyph79" horiz-adv-x="768" 
d="M819 623v-269q-59 -28 -107 -78.5t-83 -99.5q-49 -67 -95.5 -167.5t-102.5 -213t-130 -228.5t-180 -216q-47 -39 -68.5 -41t15.5 33q77 98 146 196.5t128 216.5q53 135 109.5 270.5t115.5 272.5q19 39 43.5 86t56 91t69.5 83t83 64zM817 1174q8 -9 9 -11t-7 -12
q-43 -47 -87 -94t-87 -94q-10 -11 -12 -12t-12 10q-41 38 -79 77t-77 78q-10 10 -10 14q0 7 10 17q43 47 87 94t87 94q6 8 14 0q41 -41 82 -81z" />
    <glyph glyph-name="glyph80" horiz-adv-x="768" 
d="M819 623v-269q-59 -28 -107 -78.5t-83 -99.5q-49 -67 -95.5 -167.5t-102.5 -213t-130 -228.5t-180 -216q-47 -39 -68.5 -41t15.5 33q77 98 146 196.5t128 216.5q53 135 109.5 270.5t115.5 272.5q19 39 43.5 86t56 91t69.5 83t83 64zM178 1055q-12 10 0 22
q51 53 100.5 104.5t102.5 104.5q8 8 8 6q0 -6 8 -14q62 -92 154 -160q43 43 86 87t86 89q10 11 12 11t15 -13l155 -155q8 -9 8 -13q0 -2 -6 -8q-45 -47 -89 -93t-87 -93q-10 -10 -13 -11t-13 9q-37 37 -84.5 81t-75.5 68q-86 -92 -174 -180q-9 -8 -21 -2q-41 33 -90 79
t-82 81zM739 1434q9 -9 10 -11t-8 -10q-43 -47 -87 -94t-87 -94q-10 -11 -13 -12t-13 10l-154 153q-16 15 0 31l86 94t88 94q4 7 6 8t8 -6z" />
    <glyph glyph-name="glyph81" horiz-adv-x="1860" 
d="M1884 938q-10 -4 -21.5 -18.5t-21.5 -18.5q-94 -35 -184 -64.5t-184 -58.5l-7 -4q-12 -205 -48 -395.5t-99 -382.5q-37 -113 -97.5 -215.5t-138.5 -190.5q-94 -108 -212.5 -171.5t-264.5 -63.5q-123 0 -210 56.5t-143 145.5t-83 198.5t-25 213.5q0 156 45.5 303.5
t98.5 290.5q2 4 13 31t17 41q5 8 11 10t6 -10t-6 -42t-11 -40q-28 -98 -51.5 -187.5t-23.5 -193.5q0 -100 24.5 -193.5t74.5 -165t129 -114.5t190 -43q116 0 218.5 40t186.5 108.5t147.5 161.5t104.5 198q35 88 36 179t1 187q0 60 -1 133.5t-5 135.5q0 4 -2 14t-3.5 22.5
t-3.5 21.5t-2 13q0 43 13.5 83t38.5 40q6 0 16 -13t14 -17q15 -13 36.5 -16t45 -1t45 8.5t37.5 14.5q8 2 21.5 14t26 24.5l32.5 32.5q8 0 8 -10q0 -6 -3 -12t-3 -12q0 -11 14.5 -15t22.5 -4q84 0 117 78q4 10 10 0q6 -8 12 -17.5t23 -9.5q4 0 10 1t14 1z" />
    <glyph glyph-name="glyph82" horiz-adv-x="1860" 
d="M1446 1718q8 -8 9 -10t-7 -10q-43 -47 -87 -94.5t-87 -94.5q-10 -10 -13.5 -11t-13.5 9l-153 154q-17 14 0 31l86 94t88 94q4 6 6 7t8 -5zM885 1339q-13 11 0 23q51 53 100 104.5t102 104.5q9 10 9 6t8 -14q33 -47 69.5 -86t83.5 -74q43 43 86 87t87 89q10 10 12 10
t14 -12l156 -156q8 -8 8 -12q0 -2 -6 -8q-45 -47 -89 -93t-87 -94q-11 -10 -14 -11t-13 9q-18 19 -39.5 40.5t-44 42t-42 39t-34.5 28.5q-86 -92 -174 -180q-8 -8 -20 -2q-41 32 -90 78.5t-82 80.5zM1884 938q-10 -4 -21.5 -18.5t-21.5 -18.5q-94 -35 -184 -64.5t-184 -58.5
l-7 -4q-12 -205 -48 -395.5t-99 -382.5q-37 -113 -97.5 -215.5t-138.5 -190.5q-94 -108 -212.5 -171.5t-264.5 -63.5q-123 0 -210 56.5t-143 145.5t-83 198.5t-25 213.5q0 156 45.5 303.5t98.5 290.5q2 4 13 31t17 41q5 8 11 10t6 -10t-6 -42t-11 -40q-28 -98 -51.5 -187.5
t-23.5 -193.5q0 -100 24.5 -193.5t74.5 -165t129 -114.5t190 -43q116 0 218.5 40t186.5 108.5t147.5 161.5t104.5 198q35 88 36 179t1 187q0 60 -1 133.5t-5 135.5q0 4 -2 14t-3.5 22.5t-3.5 21.5t-2 13q0 43 13.5 83t38.5 40q6 0 16 -13t14 -17q15 -13 36.5 -16t45 -1
t45 8.5t37.5 14.5q8 2 21.5 14t26 24.5l32.5 32.5q8 0 8 -10q0 -6 -3 -12t-3 -12q0 -11 14.5 -15t22.5 -4q84 0 117 78q4 10 10 0q6 -8 12 -17.5t23 -9.5q4 0 10 1t14 1z" />
    <glyph glyph-name="glyph83" horiz-adv-x="1741" 
d="M1937 1257q-55 0 -101 -30.5t-85 -65.5q-43 -41 -94 -97t-90 -103q61 -5 129.5 7.5t134 38t125 63.5t102.5 85q4 27 -7 46.5t-29.5 31.5t-41 18t-43.5 6zM143 -51q0 178 44 341t116 322q2 4 9 20.5t12 20.5q4 11 10 15t6 -13q0 -8 -6 -32q-37 -117 -62.5 -222.5
t-25.5 -228.5q0 -98 25.5 -192.5t77.5 -166t131 -115.5t188 -44q190 0 331.5 98t239.5 256q76 123 97.5 247t21.5 259q0 86 -3 168t-14 168q-6 16 -5 40.5t9.5 48.5t19.5 41t28 21q18 -34 55 -39.5t72 -0.5q53 77 116.5 150t130.5 142q43 43 104.5 80t125.5 37q65 0 97 -47
t26 -106q-13 -119 -71 -225.5t-144 -178.5q-95 -78 -213.5 -113.5t-237.5 -46.5q-4 -39 -8 -83l-8 -88t-10.5 -86t-14.5 -74q-18 -97 -51 -206.5t-81 -217t-113.5 -206t-147.5 -174t-183.5 -120.5t-222.5 -45q-116 0 -205.5 54t-147.5 140t-88 192.5t-30 209.5z" />
    <glyph glyph-name="glyph84" horiz-adv-x="1741" 
d="M1726 1651q9 -9 10 -11t-7 -12q-43 -47 -87.5 -94t-87.5 -94q-10 -10 -12 -11.5t-12 9.5q-41 39 -79 77.5t-77 77.5q-10 11 -10 15q0 6 10 16q43 47 87 94t87 94q6 11 15 0l82 -80t81 -81zM1937 1257q-55 0 -101 -30.5t-85 -65.5q-43 -41 -94 -97t-90 -103
q61 -5 129.5 7.5t134 38t125 63.5t102.5 85q4 27 -7 46.5t-29.5 31.5t-41 18t-43.5 6zM143 -51q0 178 44 341t116 322q2 4 9 20.5t12 20.5q4 11 10 15t6 -13q0 -8 -6 -32q-37 -117 -62.5 -222.5t-25.5 -228.5q0 -98 25.5 -192.5t77.5 -166t131 -115.5t188 -44
q190 0 331.5 98t239.5 256q76 123 97.5 247t21.5 259q0 86 -3 168t-14 168q-6 16 -5 40.5t9.5 48.5t19.5 41t28 21q18 -34 55 -39.5t72 -0.5q53 77 116.5 150t130.5 142q43 43 104.5 80t125.5 37q65 0 97 -47t26 -106q-13 -119 -71 -225.5t-144 -178.5
q-95 -78 -213.5 -113.5t-237.5 -46.5q-4 -39 -8 -83l-8 -88t-10.5 -86t-14.5 -74q-18 -97 -51 -206.5t-81 -217t-113.5 -206t-147.5 -174t-183.5 -120.5t-222.5 -45q-116 0 -205.5 54t-147.5 140t-88 192.5t-30 209.5z" />
    <glyph glyph-name="glyph85" horiz-adv-x="598" 
d="M201 61q2 0 30.5 16.5t65.5 39l74 45t59 37.5q64 41 119 82t102 98q21 27 22 56.5t-13.5 54t-39 41t-57.5 16.5q-35 0 -69.5 -13.5t-65.5 -37t-55.5 -53t-38.5 -60.5q-45 -84 -83 -169t-73 -163zM129 31q18 43 36.5 92t35 102.5t28 106.5t17.5 102q8 184 14 364.5
t12 362.5q2 8 3 14.5t1 12.5q21 63 48.5 130.5t64.5 170.5q10 29 13.5 16.5t3.5 -37.5q-7 -198 -13 -393.5t-14 -394.5q0 -10 -2 -31.5t-5 -46t-7.5 -48.5t-6.5 -38q25 29 50.5 58.5t53 53t61.5 39t75 15.5q72 0 108.5 -50t36.5 -118q0 -51 -29.5 -123t-72.5 -142.5
t-93 -131t-91 -86.5q-13 -11 -39.5 -19t-38.5 -12q-111 -31 -222.5 -61.5t-222.5 -61.5q-16 -4 -24 -1t10 20q14 14 46 33.5t64.5 38t60.5 34.5t38 29z" />
    <glyph glyph-name="glyph86" horiz-adv-x="598" 
d="M825 1118q9 -8 10 -10t-8 -12q-43 -47 -87 -94.5t-87 -94.5q-10 -10 -12 -11t-12 9q-41 39 -79 78t-77 78q-10 10 -10 14q0 6 10 17q43 47 87 94t87 94q6 10 15 0q40 -41 81 -81t82 -81zM201 61q2 0 30.5 16.5t65.5 39l74 45t59 37.5q64 41 119 82t102 98q21 27 22 56.5
t-13.5 54t-39 41t-57.5 16.5q-35 0 -69.5 -13.5t-65.5 -37t-55.5 -53t-38.5 -60.5q-45 -84 -83 -169t-73 -163zM129 31q18 43 36.5 92t35 102.5t28 106.5t17.5 102q8 184 14 364.5t12 362.5q2 8 3 14.5t1 12.5q21 63 48.5 130.5t64.5 170.5q10 29 13.5 16.5t3.5 -37.5
q-7 -198 -13 -393.5t-14 -394.5q0 -10 -2 -31.5t-5 -46t-7.5 -48.5t-6.5 -38q25 29 50.5 58.5t53 53t61.5 39t75 15.5q72 0 108.5 -50t36.5 -118q0 -51 -29.5 -123t-72.5 -142.5t-93 -131t-91 -86.5q-13 -11 -39.5 -19t-38.5 -12q-111 -31 -222.5 -61.5t-222.5 -61.5
q-16 -4 -24 -1t10 20q14 14 46 33.5t64.5 38t60.5 34.5t38 29z" />
    <glyph glyph-name="glyph87" horiz-adv-x="580" 
d="M535 756q-5 -4 -16 -13.5t-15 -13.5q-64 -61 -113 -121.5t-82 -127t-50 -141.5t-17 -167q0 -98 27.5 -189.5t82 -161t134 -111.5t186.5 -42q141 0 255.5 56.5t204 148.5t155 209t108.5 237q10 17 13 10t3 -28q0 -35 -9 -75t-22.5 -83t-30 -85t-30.5 -76
q-41 -101 -109.5 -210.5t-157.5 -200.5t-198 -150.5t-227 -59.5q-129 0 -221.5 51t-151.5 135t-87 193.5t-26 224.5q0 117 22.5 234.5t65.5 228.5t105.5 212t142.5 185q-18 49 -38.5 82t-39.5 54q-28 22 -46.5 33.5t-36 12.5t-35 -3.5t-30.5 -8.5t-20 -4q-4 0 -6 6.5t1 17.5
t18 32q59 75 129.5 111t179.5 44q168 8 168 -160q0 -53 -20.5 -99t-57.5 -85z" />
    <glyph glyph-name="glyph88" horiz-adv-x="586" 
d="M596 1501q8 -8 9 -10t-7 -12q-43 -47 -87 -94.5t-87 -94.5q-10 -10 -12 -11t-13 9q-41 39 -78.5 78t-76.5 78q-11 10 -11 14q0 6 11 17q43 47 87 94t87 94q6 10 14 0q41 -41 82 -81t82 -81zM541 756q-4 -4 -15.5 -13.5t-15.5 -13.5q-64 -61 -113 -121.5t-81.5 -127
t-50 -141.5t-17.5 -167q0 -98 27.5 -189.5t82 -161t134 -111.5t186.5 -42q141 0 256 56.5t204 148.5t154.5 209t108.5 237q10 17 13 10t3 -28q0 -35 -9 -75t-22.5 -83t-30 -85t-30.5 -76q-41 -101 -109.5 -210.5t-157.5 -200.5t-197.5 -150.5t-227.5 -59.5q-129 0 -221.5 51
t-151.5 135t-87 193.5t-26 224.5q0 117 23 234.5t66 228.5t105 212t142 185q-18 49 -38.5 82t-38.5 54q-29 22 -47.5 33.5t-36 12.5t-35 -3.5t-30.5 -8.5t-19 -4q-5 0 -7 6.5t1.5 17.5t17.5 32q59 75 130 111t179 44q168 8 168 -160q0 -53 -20.5 -99t-57.5 -85z" />
    <glyph glyph-name="glyph89" horiz-adv-x="2335" 
d="M1350 887q8 -8 9 -10.5t-7 -12.5q-43 -47 -87 -94t-87 -94q-11 -10 -13 -11t-12 9q-41 39 -79 78t-77 77q-10 11 -10 15q0 6 10 16q43 47 87 94t87 95q7 10 15 0q41 -41 82 -81t82 -81zM1925 459q0 -41 13.5 -74t48.5 -59q28 0 67 20.5t62 30.5q14 8 32.5 18.5t35 24.5
t27.5 30.5t11 36.5q0 62 -43 102t-102 40q-35 0 -62.5 -15.5t-47 -39t-31 -54.5t-11.5 -61zM2175 287q-29 -47 -64.5 -82t-72.5 -66q-74 -59 -193 -106t-270.5 -80t-331.5 -50.5t-373 -17.5q-59 2 -138 4t-161 10.5t-160.5 28t-139 57.5t-96.5 97t-32 149q0 86 14.5 175.5
t43.5 171.5q4 10 8 10t6 -10v-134q0 -65 50 -110t126 -74t169 -45t182 -23.5t164 -8.5t114 -1q98 0 206.5 4t219 16.5t217 32t201.5 50.5v2q-11 45 -11 94t21.5 114.5t60.5 125t90.5 100.5t110.5 41q41 0 67.5 -19.5t42 -49t21.5 -66.5t6 -70q0 -74 -31.5 -141.5
t-66.5 -128.5z" />
    <glyph glyph-name="glyph90" horiz-adv-x="1425" 
d="M268 1143q-12 12 0 24q51 52 100.5 104t102.5 105q8 8 8 4q0 -2 8 -12q66 -94 154 -162q43 45 86 89t86 87q10 11 12 12t15 -12q41 -41 77.5 -78.5t77.5 -78.5q13 -8 2 -19q-45 -47 -89 -94t-87 -94q-10 -10 -13 -11t-13 9q-19 18 -40.5 39.5t-44 43t-42 39t-33.5 27.5
q-43 -45 -86 -89t-88 -89q-8 -10 -21 -2q-41 33 -90 78t-82 80zM1501 909l-82 -241q-4 -21 -5 -41.5t-2 -48t-2 -57t-1 -48.5q-4 -131 -37 -280.5t-96.5 -292t-158.5 -263t-220 -192.5q-61 -37 -120.5 -57.5t-131.5 -20.5q-127 0 -220 50.5t-155.5 133t-93.5 190t-31 224.5
q5 141 31.5 269t71.5 255q0 3 8 21t17.5 43t19.5 50.5t16 39.5q17 43 27 39t-2 -39q-35 -117 -63.5 -223.5t-28.5 -229.5q0 -102 26.5 -196t82 -166t138 -115t197.5 -43q96 0 180 32t155 85t129 124t105 148q41 72 64.5 137.5t23.5 149.5q0 47 -7 92t-44 82q-12 10 -22 10
q-23 0 -42.5 -13t-47.5 -13q-72 0 -121 49t-49 119v22q22 64 43.5 127.5t44.5 128.5q12 35 37.5 60.5t64.5 25.5q37 0 66.5 -20.5t53 -49t40 -63.5t29.5 -61h4q20 0 32.5 22.5t14.5 44.5h61z" />
    <glyph glyph-name="uni0642.001" horiz-adv-x="1425" 
d="M346 1184q-12 12 0 24q51 52 100.5 104t102.5 105q8 8 8 4q0 -2 8 -12q66 -94 154 -162q43 45 86 89t86 87q10 11 12 12t15 -12q40 -41 77 -78.5t78 -78.5q12 -9 2 -19q-45 -47 -89 -94t-87 -94q-10 -10 -13 -11t-14 9l-39.5 39.5t-44 43t-42 39t-33.5 27.5
q-43 -45 -86 -89t-88 -89q-9 -10 -21 -2q-41 33 -90 78t-82 80zM145 -37q5 141 31.5 269t71.5 255q0 2 8 20.5t17.5 43t19.5 50.5t16 40q17 43 27 39t-2 -39q-35 -117 -63.5 -223.5t-28.5 -229.5q0 -102 26.5 -196t82 -166t138 -115t197.5 -43q96 0 180 32t155 85t129 124
t105 148q41 72 64.5 137.5t23.5 149.5q0 47 -7 92t-44 82q-12 10 -22 10q-23 0 -42.5 -13t-47.5 -13q-72 0 -121 49t-49 119v22q22 64 43.5 127.5t44.5 128.5q12 35 37.5 60.5t64.5 25.5q66 0 104.5 -44t61.5 -105.5t33 -128t13 -89t3 -42.5q0 -21 -1 -48.5t-2 -57.5t-1 -48
q-2 -98 -24.5 -218t-65.5 -243t-106.5 -239.5t-148.5 -206.5t-190.5 -144.5t-230.5 -54.5q-127 0 -220 50t-155.5 133t-93.5 190.5t-31 224.5z" />
    <glyph glyph-name="glyph92" horiz-adv-x="2198" 
d="M2241 516l-113 -145q-51 -127 -128 -210t-174 -135.5t-212 -80t-244 -41.5q-166 -17 -336 -26t-329 -5q-87 10 -186 20.5t-183 42t-139.5 95t-55.5 180.5q4 84 19.5 179t42.5 169q8 14 13 11t3 -25q-2 -21 -4 -40.5t-2 -41.5q0 -107 88 -174q47 -35 129 -59.5t180.5 -39
t204 -20.5t197.5 -6q80 0 167 3t177 9t179 17.5t169 27.5q53 12 125 32.5t137.5 57.5t111.5 92.5t46 135.5q10 153 22.5 304.5t22.5 305.5q0 4 20 86q11 37 35.5 102.5t69.5 143.5q49 80 116 135q175 158 364 288t378 265q33 24 54.5 42.5t41.5 35.5q14 10 12 0.5t-6 -23.5
q-26 -47 -63 -97t-79 -97.5t-86 -88t-83 -69.5q-160 -113 -306.5 -222.5t-297.5 -238.5q-17 -14 -32 -38.5t-19 -61.5l-43 -633q-4 -41 -4 -82v-80z" />
    <glyph glyph-name="glyph93" horiz-adv-x="2198" 
d="M2388 1855q117 91 229.5 173.5t229.5 169.5q55 40 105 72t91 59q2 4 9 4q4 0 0 -11q-35 -53 -77 -106t-89 -94q-152 -109 -249 -182.5t-164 -128t-114 -94.5t-71.5 -61.5t-31.5 -26.5t-12.5 -8t-6.5 2t12 26q4 10 10 24.5t10 22.5q29 53 51.5 89t67.5 70zM2241 516
l-113 -145q-51 -127 -128 -210t-174 -135.5t-212 -80t-244 -41.5q-166 -17 -336 -26t-329 -5q-87 10 -186 20.5t-183 42t-139.5 95t-55.5 180.5q4 84 19.5 179t42.5 169q8 14 13 11t3 -25q-2 -21 -4 -40.5t-2 -41.5q0 -107 88 -174q47 -35 129 -59.5t180.5 -39t204 -20.5
t197.5 -6q80 0 167 3t177 9t179 17.5t169 27.5q53 12 125 32.5t137.5 57.5t111.5 92.5t46 135.5q10 153 22.5 304.5t22.5 305.5q0 4 20 86q11 37 35.5 102.5t69.5 143.5q49 80 116 135q175 158 364 288t378 265q33 24 54.5 42.5t41.5 35.5q14 10 12 0.5t-6 -23.5
q-26 -47 -63 -97t-79 -97.5t-86 -88t-83 -69.5q-160 -113 -306.5 -222.5t-297.5 -238.5q-17 -14 -32 -38.5t-19 -61.5l-43 -633q-4 -41 -4 -82v-80z" />
    <glyph glyph-name="glyph94" horiz-adv-x="1460" 
d="M1485 895q-2 -10 -4 -28.5t0 -28.5q-11 -93 -20 -184t-19 -183q0 -10 -6 -42t-14.5 -69.5t-16.5 -73.5t-12 -53q-25 -92 -62 -190t-86 -193.5t-112.5 -179.5t-143.5 -148.5t-174 -103.5t-207 -41q-71 0 -129.5 20.5t-107.5 57.5t-90 87t-76 108q-43 71 -52.5 158.5
t-9.5 168.5q0 187 55.5 363t139.5 338q0 2 4 5t6 3q4 0 5 -7t-5 -26q-37 -110 -57.5 -188t-30.5 -132t-12 -88t-2 -57q0 -100 25.5 -191t77.5 -162t132 -112.5t191 -41.5q166 0 294 67.5t228 202.5q63 84 99 179t55.5 195.5t25.5 204t12 205.5v49v86q0 48 1.5 86.5t1.5 49.5
v114t-1.5 174t-1.5 174v117q0 12 8.5 41t14.5 45q6 23 11 41.5t10 28.5q4 14 34.5 88t61.5 160q6 4 6 -13v-26q-6 -127 -11 -249t-5 -247v-104q2 -2 2 -4z" />
    <glyph glyph-name="glyph95" horiz-adv-x="881" 
d="M182 -1513q-12 227 -24.5 452t-12.5 453q0 174 5.5 349t52.5 343q30 109 78.5 205t116 173t156.5 129t204 75q-13 12 -29 16t-8 27q22 47 48 91t48 87q10 20 21.5 41.5t27.5 21.5q35 0 76 -18.5t76 -49t58.5 -67.5t23.5 -74q0 -34 -10.5 -65t-26.5 -60q-47 -86 -131 -137
t-180 -67q-7 0 -26 -3t-41.5 -7.5t-42 -7.5t-24.5 -3q-55 -10 -112 -35.5t-107.5 -64.5t-85 -90t-43.5 -113q-10 -51 -14 -99t-6 -100q0 -2 -1 -54t-3 -124.5t-4 -150.5t-2 -127q-4 -242 -8.5 -481.5t-8.5 -481.5q-2 -22 -4 -48t-6 -48l-4 4q-12 29 -17.5 53.5t-9.5 55.5z
" />
    <glyph glyph-name="glyph96" horiz-adv-x="1446" 
d="M1061 467q8 -8 9 -10t-7 -13q-43 -47 -87 -94t-87 -94q-10 -10 -12.5 -11t-12.5 9q-41 39 -78.5 78t-76.5 78q-11 10 -11 14q0 6 11 16q43 47 87 94.5t87 94.5q6 8 14 0q41 -41 82 -81t82 -81zM1513 819h-2l-14 -139q-16 -166 -41.5 -329t-77.5 -322q-35 -113 -98 -232
t-152.5 -217t-202 -160.5t-245.5 -62.5q-129 0 -220 57.5t-148.5 147.5t-84 202.5t-26.5 223.5q0 71 5 139t17.5 135.5t31.5 136t48 144.5q10 28 22.5 59t28.5 55q8 11 17.5 5.5t-0.5 -33.5q-37 -92 -57.5 -197.5t-20.5 -212.5q0 -108 21.5 -207.5t68.5 -177.5t122 -125
t183 -49q176 0 309 73.5t222.5 193.5t134.5 273.5t45 315.5v84q0 53 -2 99t-8 118q0 2 -1.5 12.5t-1.5 20.5q0 12 -1 22.5t-1 12.5q0 6 1 27.5t5.5 46t12.5 44t22 19.5q7 0 12 -6t11 -12q14 -19 37 -25z" />
    <glyph glyph-name="glyph97" horiz-adv-x="1446" 
d="M1513 819h-2l-14 -139q-16 -166 -41.5 -329t-77.5 -322q-35 -113 -98 -232t-152.5 -217t-202 -160.5t-245.5 -62.5q-129 0 -220 57.5t-148.5 147.5t-84 202.5t-26.5 223.5q0 71 5 139t17.5 135.5t31.5 136t48 144.5q10 28 22.5 59t28.5 55q8 11 17.5 5.5t-0.5 -33.5
q-37 -90 -57.5 -196.5t-20.5 -213.5q0 -106 21.5 -206.5t68.5 -178.5t123 -125t182 -49q176 0 309 73.5t222.5 193.5t134.5 273.5t45 315.5v84t-1 67.5t-3 67.5t-6 82q0 2 -1.5 12.5t-1.5 20.5q0 12 -1 22.5t-1 12.5q0 6 1 27.5t5.5 46t12.5 44t22 19.5q7 0 12 -6t11 -12
q16 -19 37 -25z" />
    <glyph glyph-name="glyph98" horiz-adv-x="535" 
d="M578 651l-150 -364q-29 -70 -59.5 -128.5t-73.5 -133.5q-10 -23 -27 -27q-92 -27 -179 -53.5t-179 -55.5q-8 -2 -8 7q0 8 8 10q115 86 204 151.5t175 130.5q53 43 68.5 69t13.5 32q-2 14 -13.5 27.5t-27.5 11.5q-37 -23 -81 -22t-82 21.5t-63.5 56.5t-25.5 81
q0 12 1 21.5t5 19.5q6 14 20.5 49t31 74t30.5 73.5t20 49.5q15 32 39.5 60t63.5 28q43 0 77.5 -33t59.5 -73t39 -72.5t16 -32.5h2q4 4 11.5 10t13.5 12h70z" />
    <glyph glyph-name="uni0648.001" horiz-adv-x="473" 
d="M293 29q-10 -23 -27 -27q-86 -27 -171 -52.5t-177 -53.5q-14 0 -15 5t5 11t15 13t16 12q96 73 211.5 152t209.5 173q17 31 0.5 48.5t-43.5 21.5q-36 -29 -80 -28t-81 22.5t-62.5 57.5t-25.5 79v24q0 5 1 10t3 13q22 65 45.5 127.5t46.5 128.5q10 29 37.5 50.5t60.5 21.5
q55 0 93 -41t62.5 -99.5t35 -121t10.5 -103.5q0 -33 -3 -64.5t-14 -62.5q-16 -47 -32.5 -85t-35 -74.5t-40 -74.5t-45.5 -83z" />
    <glyph glyph-name="uni06C1.1" horiz-adv-x="502" 
d="M477 -23q-45 -2 -90 -22.5t-87 -50t-76 -63.5t-58 -60q-16 -17 -19.5 -14.5t0.5 22.5q21 70 66 147.5t106.5 143t136 112t152.5 54.5h2z" />
    <glyph glyph-name="uni06C1.2" horiz-adv-x="502" 
d="M610 246l-133 -269q-47 -2 -92 -23.5t-86 -50t-75 -62.5t-58 -60q-16 -17 -19.5 -14.5t0.5 22.5q21 70 66 147.5t106.5 143t135 112t153.5 54.5h2zM-70 477q-12 12 0 25q52 51 101 103t102 106q8 8 8 4t9 -13q32 -45 70 -86t83 -75q43 45 86 89t86 87q10 10 12 11t15 -11
q41 -41 77.5 -79t77.5 -79q13 -8 2 -18q-45 -47 -89 -94.5t-87 -94.5q-10 -10 -13 -11t-13 9l-40.5 40.5t-44 43t-42 38.5t-33.5 28q-43 -45 -86 -89t-88 -89q-12 -13 -21 -3q-41 33 -90 78t-82 80z" />
    <glyph glyph-name="uni06C1.3" horiz-adv-x="457" 
d="M463 -45q-57 -6 -110.5 -39t-96.5 -63q-6 -5 -24.5 -22t-37 -36.5t-49.5 -50.5q-2 -2 -2 0q0 4 1 15.5t3 15.5q21 63 61 142t96 148.5t125 118.5t149 52z" />
    <glyph glyph-name="uni06C1.4" horiz-adv-x="457" 
d="M578 236l-115 -281q-57 -6 -110.5 -39t-96.5 -63q-14 -11 -42 -39.5t-69 -69.5q-2 -2 -2 0q0 4 1 15.5t3 15.5q21 63 61 142t95 148.5t125 118.5t150 52zM186 596q-12 12 0 25q52 51 101 103t102 105q8 9 8 5q0 -5 9 -13q32 -45 70 -86t83 -76q43 46 86 90t86 87
q10 10 12 11t15 -11q41 -41 77.5 -79t77.5 -79q13 -8 2 -19q-45 -47 -89 -94t-87 -94q-10 -10 -13 -11t-13 9q-19 18 -40.5 39.5t-44 43t-42 39t-33.5 27.5q-43 -45 -86 -89t-88 -89q-12 -12 -21 -2q-41 33 -90 78t-82 80z" />
    <glyph glyph-name="uni06BE.1" horiz-adv-x="530" 
d="M606 289q-39 0 -73.5 -22.5t-57.5 -53.5q-39 -49 -76 -97t-75 -98q30 9 90.5 23t122 36.5t110.5 56.5t55 81q0 41 -31.5 57.5t-64.5 16.5zM385 367q-47 -9 -91 -55t-83 -107.5t-72 -125t-57 -102.5q12 7 40 24t57.5 35.5t55 36t37.5 23.5q17 13 49.5 35.5t64.5 50
t56.5 57t24.5 58.5q0 37 -23.5 53.5t-58.5 16.5zM430 537q62 0 89.5 -42t29.5 -102h2q27 13 57.5 33t75.5 20q53 0 83 -39.5t26 -89.5q-7 -77 -55 -148t-101 -138q-25 -31 -55.5 -56.5t-65.5 -35.5q-141 -25 -279.5 -50.5t-279.5 -50.5q-8 -2 -33.5 -6t-46.5 -4
q-18 0 -27.5 5t13.5 20q28 24 62 39.5t65 35.5q59 99 109.5 198t111.5 198q18 30 39.5 66t48.5 67.5t58.5 54.5t72.5 25z" />
    <glyph glyph-name="glyph105" horiz-adv-x="668" 
d="M737 694q0 -71 11.5 -133.5t33.5 -103.5q-47 -74 -74.5 -133.5t-58.5 -124.5v2q-14 -37 -45 -91.5t-70.5 -103.5t-88 -83t-97.5 -32q-45 7 -83 31.5t-65.5 57t-47 66.5t-27.5 56q0 17 16 17q19 -6 36.5 -17.5t39.5 -13.5h6q43 84 56.5 176t17.5 185q10 165 9 329t7 330
l105 317q4 15 10 5q4 -199 6 -394.5t-12 -398.5q-4 -100 -18.5 -199.5t-61.5 -187.5q-6 -10 -20.5 -33.5t-30 -50.5t-28.5 -50.5t-17 -33.5q39 -8 81 -7t82 12t74.5 32.5t59.5 56.5q8 8 14 18.5t11 31t10.5 53t11.5 86.5q10 180 15 356t16 356v17q-3 14 -0.5 28.5t2.5 28.5
v57l106 318q4 4 6 4h4q2 -111 1 -216.5t-5 -221.5q0 -17 -1 -58t-2 -96t0 -118.5t5 -125.5z" />
    <glyph glyph-name="glyph106" horiz-adv-x="1061" 
d="M1047 653q2 -16 12 -32q16 -27 42.5 -43.5t58.5 -26.5t63.5 -14.5t58.5 -6.5q45 -51 63.5 -113.5t20.5 -129t-11.5 -132t-31.5 -122.5q-37 -111 -100.5 -228.5t-149.5 -216t-196.5 -162t-243.5 -63.5q-107 0 -186.5 38t-136 101.5t-92.5 146.5t-54 173q-49 229 -1 469.5
t159 476.5q12 33 26 39t6 -35q-16 -57 -36.5 -132t-38 -153.5t-29.5 -156.5t-12 -140q0 -92 25.5 -186t77.5 -169t131 -122t183 -47q181 0 311 88t230 230q14 22 40 63t40 80t6 67.5t-57 28.5q-54 2 -102 14.5t-83.5 40t-57 71.5t-21.5 110q0 49 5 98t15 96h66z" />
    <glyph glyph-name="glyph107" horiz-adv-x="1135" 
d="M168 -168q-49 229 -1 470t159 476q12 33 26.5 39t5.5 -35q-16 -57 -36.5 -132t-38 -153.5t-29.5 -156.5t-12 -139q0 -92 25.5 -186.5t77.5 -169t131 -122t183 -47.5q181 0 311 88.5t230 229.5q12 18 29.5 46t34 59.5t28 63.5t11.5 58q0 25 -13.5 48.5t-34 46t-42 40
t-39.5 29.5q-7 4 -23 15.5t-35.5 23.5t-36 23.5t-22.5 15.5q-35 22 -36 62t9 75q2 14 14.5 46t27.5 67t29.5 67.5t22.5 50.5l58 -22q-6 -16 -9.5 -21.5t1.5 -17.5q32 -41 72 -74.5t75 -69.5t59.5 -79t24.5 -105q0 -98 -23.5 -214.5t-68.5 -235.5t-111.5 -230.5
t-151.5 -197.5t-188.5 -138.5t-224.5 -52.5q-107 0 -186.5 38t-136 101.5t-92.5 146.5t-54 173z" />
    <glyph glyph-name="glyph108" horiz-adv-x="2705" 
d="M340 342h57q-10 -10 -24.5 -19.5t-14.5 -25.5q0 -4 11 -21q34 -43 94.5 -68.5t129.5 -39.5t137.5 -20.5t119.5 -8.5q180 -12 354 -17t355 -5h38q31 0 90.5 2t164 8t264 16.5t393.5 26.5q31 4 41 2t10 -6q0 -2 -10 -12q-140 -115 -294.5 -164t-330.5 -72
q-248 -16 -493.5 -20t-493.5 -4q-154 -3 -307.5 9.5t-282.5 41.5q-24 6 -60 16t-68 27.5t-54.5 42t-22.5 59.5q7 25 22 48.5t39.5 51t58.5 64.5t77 88z" />
    <glyph glyph-name="glyph109" horiz-adv-x="592" 
d="M444 356q-12 -65 -35.5 -134.5t-60.5 -128t-86 -95.5t-112 -35q-54 4 -93 33t-75 84q-31 55 -42.5 120.5t-7.5 121.5q0 8 1 32.5t1 32.5q19 55 45.5 128t67.5 122v-10q0 -45 2 -103.5t19 -105.5q8 -27 25.5 -54.5t42 -50t54 -36t64.5 -11.5q37 0 63.5 13.5t45 34t31 47
t18.5 51.5q14 59 22 66t12.5 -12.5t3.5 -53t-6 -56.5z" />
    <glyph glyph-name="glyph110" horiz-adv-x="616" 
d="M180 750q23 -11 46.5 -19t49.5 -8q66 0 105 45t53 100q15 60 23 67t12 -12.5t3 -53t-5 -56.5q-10 -57 -32.5 -127t-57.5 -129t-86 -99t-119 -38q-53 2 -92 31q-29 20 -52.5 48.5t-39.5 59.5q-2 -2 -10.5 -5t-55.5 -7q8 14 8 37q0 26 2 37q5 71 6 138.5t13 137.5
q24 61 52 127t54 123q4 16 13.5 20t9.5 -18q0 -53 -4 -108.5t2 -107.5t28.5 -99.5t73.5 -83.5z" />
    <glyph glyph-name="glyph111" horiz-adv-x="567" 
d="M221 334q-35 2 -66.5 21.5t-68.5 19.5q-25 0 -44 -14.5t-36.5 -36t-33 -49t-29.5 -52.5l2 142q20 22 33.5 36.5t29.5 36.5q31 41 69 71t91 30q27 0 50.5 -13.5t49.5 -13.5q47 0 78 43t53 86q7 14 16 18.5t5 -22.5q-6 -29 -19.5 -63.5t-31 -70.5t-39 -70t-43.5 -58
q-37 -45 -66 -41z" />
    <glyph glyph-name="glyph112" horiz-adv-x="905" 
d="M215 1393q18 20 64.5 55t97.5 71.5t97 68.5t65 46q36 23 80.5 51.5t88.5 58.5t85 58.5t69 50.5q10 0 4 -14q-57 -84 -116.5 -174t-135.5 -149q-98 -66 -198.5 -132.5t-204.5 -144.5q-70 -57 -135.5 -121.5t-110.5 -152.5q-6 -11 -16 -25t-18.5 -22.5t-12.5 -4t0 28.5
q2 10 7 27.5t11.5 34t12.5 31t10 20.5q41 104 105.5 185t150.5 153z" />
    <glyph glyph-name="uni0628.1" horiz-adv-x="547" 
d="M399 834q4 -56 -9 -105t-40 -102q-22 -47 -50 -94.5t-64 -81.5q-41 -43 -89.5 -70t-83.5 -55q-22 -19 -29 -32t-20 -32q-2 -4 -10 -5t-14 -1q-8 0 -14.5 1t-4.5 5l2 4q0 2 4 13q13 51 24 99t27.5 92t42 82t70.5 71q39 28 81 47.5t83 48.5q21 16 32 29.5t17 26.5
t11.5 27.5t11.5 33.5q4 8 11 11t11 -13z" />
    <glyph glyph-name="glyph114" horiz-adv-x="449" 
d="M12 1042q47 5 77 21t46.5 40.5t22.5 55.5t6 64q-2 77 -3 155t3 156q4 22 12 47q2 8 15.5 38t30 68.5t31.5 77.5t26 66q4 10 12 18.5t10 -14.5q-2 -104 1 -211.5t-7 -212.5q-10 -92 -26.5 -157.5t-45 -119t-73 -100.5t-107.5 -98q-37 -23 -73 -41t-70 -18q2 12 6 36.5
t11 52t18.5 54.5t27.5 43q8 -10 18.5 -16.5t30.5 -4.5z" />
    <glyph glyph-name="glyph115" horiz-adv-x="844" 
d="M-72 682q-30 -2 -28 6t8 19q6 12 14 21t19 11q79 19 177.5 55.5t190.5 92t167 127t106 162.5q4 65 0 123.5t-4 121.5q0 33 1 62.5t5 58.5q0 60 32.5 136.5t63.5 179.5q4 10 7 6t4 -13.5t2 -18.5t1 -11q0 -35 1 -75t2 -81t2 -81t1 -71q0 -147 -38.5 -281t-118.5 -242.5
t-201 -184.5t-283 -107q-26 -4 -67 -10t-64 -6z" />
    <glyph glyph-name="glyph116" horiz-adv-x="645" 
d="M-612 -74q22 11 49.5 33.5t62.5 32.5q111 35 224.5 67.5t222 74.5t207 99.5t178.5 139.5q6 28 13 49.5t12 45.5t9.5 51.5t4.5 68.5q0 47 1 88t1 57q0 35 3 69t17 64q23 54 54.5 121.5t48.5 114.5q0 -12 1 -44t2 -68t2 -68.5t1 -44.5v-84q0 -78 -13.5 -154t-33.5 -152
q-25 -96 -83.5 -165.5t-135 -122t-164.5 -90t-170 -68.5q-113 -37 -242 -74t-266 -59q-8 -2 -12.5 6t6.5 12z" />
    <glyph glyph-name="glyph117" horiz-adv-x="627" 
d="M477 1583q0 -12 1 -44t2 -67.5t2 -68.5t1 -45v-84q0 -78 -13 -154t-34 -151q-20 -66 -53 -129q-115 -195 -290 -330t-392 -207q-41 -14 -81 -27.5t-81 -23.5l109 88q35 14 67.5 28.5t65.5 30.5q69 33 156.5 92.5t167 129t141 140t78.5 126.5q4 14 9 58t10 95.5t8 100.5
t3 73q0 35 3 69t18 65q22 53 54 120.5t48 114.5z" />
    <glyph glyph-name="glyph118" horiz-adv-x="684" 
d="M125 672q-33 0 -87 23.5t-95 76.5q2 6 9 18.5t16 25.5t18.5 25.5t13.5 16.5q31 -12 60.5 -25.5t70.5 -11.5q37 2 75 18.5t72.5 41t62.5 57.5t42 68q2 4 6 22.5t4 22.5q10 92 9 181t4 181q22 68 55 134.5t61 144.5q8 20 13.5 19t5.5 -19v-60q0 -24 -1 -54t-1 -56
q0 -25 -1 -46.5t-1 -29.5q0 -10 -2.5 -41t-5.5 -65.5t-5 -67.5t-2 -47q-4 -72 -36.5 -165t-86 -178t-124 -145.5t-150.5 -64.5z" />
    <glyph glyph-name="glyph119" horiz-adv-x="428" 
d="M115 367q-66 -101 -154 -164.5t-217 -65.5q-33 0 -76 6q0 11 8.5 32.5t19.5 44t21.5 41t14.5 22.5q61 -9 125.5 0.5t119 39t92 82t46.5 132.5q4 88 10 174t10 174q0 6 7.5 26.5t9.5 24.5q28 59 60 128t56 128q4 4 8.5 7t8.5 -7q0 -148 -9.5 -295t-42.5 -295
q-16 -63 -48.5 -122.5t-69.5 -112.5z" />
    <glyph glyph-name="glyph120" horiz-adv-x="279" 
d="M-207 485q19 15 35 27t33.5 27.5t38 35t47.5 48.5q22 26 33.5 60t14.5 71t3 71v68v37v57q0 31 -1 58.5t-1 37.5q2 15 4 23t8 24q6 15 21.5 51t33 74.5t30.5 73.5t18 51q6 15 12 19t10 -19q-2 -88 0 -177t-3 -178t-19.5 -176t-51.5 -171q-6 -10 -20 -36t-30.5 -55.5
t-31 -56t-20.5 -36.5q-2 -5 -8 -14t-13.5 -20t-14.5 -22.5t-9 -15.5q-6 -10 -18.5 -25.5t-28.5 -34.5z" />
    <glyph glyph-name="glyph121" horiz-adv-x="707" 
d="M563 1559q23 22 25 15t-8 -24l-191 -276q-4 -4 -15.5 -18.5t-19.5 -22.5q-12 -10 -39.5 -32.5t-59.5 -48.5t-60.5 -48.5t-40.5 -30.5q-4 -4 -22.5 -19.5t-22.5 -21.5q-5 -2 -19 -15t-32.5 -31.5t-36 -37t-25.5 -28.5q-8 -9 -17.5 -20t-23.5 -32q-23 -34 -28 -20t12 47
q41 76 88 161t116 146q99 86 192 164t187 154z" />
    <glyph glyph-name="uni0628.2" horiz-adv-x="455" 
d="M-51 786q0 11 -1 19t-1 18q0 2 -1 12.5t-1 20.5t-1 20.5t-1 12.5q0 6 1 28.5t5 47t11 44t22 19.5q8 0 13 -6t11 -14q14 -17 27.5 -22t44.5 -5q47 0 84 18.5t64.5 49t46 70.5t30.5 83q2 6 7 9t9 -9v-18q-2 -51 -19 -109.5t-49 -113t-79 -99.5t-109 -69v-7h-114z" />
    <glyph glyph-name="uni0628.3" horiz-adv-x="752" 
d="M23 225q2 0 4 1t4 1q32 13 65 17q33 2 50.5 -7.5t46.5 -25.5q34 -18 60 -26.5t64 -8.5q80 0 142.5 51.5t105.5 112.5q25 41 34 47t8 -7t-8 -39t-13 -48q-19 -64 -51.5 -131.5t-79.5 -122.5t-108.5 -90t-137.5 -35q-31 0 -57.5 10t-53 21.5t-52.5 21.5t-56 10h-17l-2 -2
q-12 0 -25.5 -2t-27.5 -6z" />
    <glyph glyph-name="glyph124" horiz-adv-x="688" 
d="M369 571q-58 -10 -113 -40.5t-101 -74.5t-79 -99.5t-43 -112.5q-2 -4 -6 -22.5t-9.5 -43t-10.5 -50.5t-7 -44q-2 -12 -7 -27.5t-10.5 -23.5t-9.5 -5t-4 29q0 80 13.5 173.5t46.5 181.5q28 75 70 151t97.5 137.5t125 104.5t155.5 55q12 0 15 2q14 4 32.5 3t18.5 -9
q-2 -18 -12.5 -49t-34 -88t-68.5 -152q-16 2 -23.5 3t-35.5 1z" />
    <glyph glyph-name="glyph125" horiz-adv-x="774" 
d="M-49 291q8 22 17 43.5t16 34.5q41 90 94 179t127 159.5t171 112.5t224 36q4 -2 16 -2q15 0 15 -4t-10.5 -21.5t-12.5 -19.5q-37 -61 -72.5 -117.5t-70.5 -118.5q0 -6 -6 -6q-15 4 -29 8.5t-31 4.5q-69 -2 -140 -34t-132 -81q-47 -41 -79 -84t-75 -105q-18 -28 -28.5 -27
t6.5 42z" />
    <glyph glyph-name="glyph126" horiz-adv-x="426" 
d="M147 1067q-34 -115 -80.5 -215t-103.5 -209q-29 -55 -47 -47t2 61q41 101 69.5 164.5t46 112.5t26 95t8.5 112q0 98 -59.5 171.5t-139.5 121.5q27 71 52.5 138.5t47.5 139.5q49 -24 91 -65t73 -91.5t48.5 -107.5t17.5 -119q0 -69 -15.5 -131.5t-36.5 -130.5z" />
    <glyph glyph-name="glyph127" 
d="M-1884 604q33 14 56.5 38t31.5 58q8 99 2 204.5t6 203.5q16 57 43 115.5t55 148.5q4 12 10.5 18.5t10.5 -8.5q2 -55 4 -129.5t2 -126.5q0 -98 -7 -201.5t-39 -196.5t-95.5 -169t-175.5 -119q-15 -4 -49.5 -14t-73.5 -20.5t-74 -19.5t-49 -13q-70 -17 -103 -47
q-26 -23 -43.5 -36.5t-33.5 -35.5q-11 -4 -33.5 -23.5t-38.5 -21.5q61 102 146 187t202 126z" />
    <glyph glyph-name="glyph128" horiz-adv-x="424" 
d="M0 1264q25 -2 40 -8.5t28.5 -13.5t25.5 -13t29 -6q27 0 47 15t35.5 35.5t29 41t23.5 33.5q14 20 18.5 18t1 -17.5t-10.5 -38t-15 -40.5q-10 -23 -31.5 -61t-49.5 -73.5t-59.5 -62t-58.5 -26.5q-16 0 -27.5 6t-25.5 14v197z" />
    <glyph glyph-name="glyph129" horiz-adv-x="436" 
d="M86 496q43 0 78 27.5t60.5 59t41 59.5t19.5 28q8 0 8 -6v-11q0 -43 -30 -118.5t-76 -150.5t-101 -130t-106 -55q-39 0 -57.5 49t-19.5 107.5t11 107.5t37 49q35 0 67.5 -8t67.5 -8z" />
    <glyph glyph-name="glyph130" horiz-adv-x="565" 
d="M-102 995q4 15 16 49.5t26.5 73.5t27 74t16.5 49q2 6 9 22.5t15 35t15.5 34t11.5 21.5q4 4 8 4q10 0 9 -10.5t-1 -14.5q-10 -57 -20.5 -110.5t-10.5 -110.5q0 -45 13.5 -92t39 -86t64.5 -65.5t88 -30.5q37 0 63.5 13t45 33.5t31 47t18.5 51.5q14 59 22.5 66.5t12.5 -12
t3 -53.5t-5 -56q-13 -64 -36.5 -133.5t-59 -127t-85 -95t-112.5 -37.5q-60 0 -105 29.5t-75.5 75.5t-46 100.5t-15.5 105.5q0 37 3 74.5t14 74.5z" />
    <glyph glyph-name="glyph131" horiz-adv-x="729" 
 />
    <glyph glyph-name="glyph132" horiz-adv-x="618" 
d="M201 700q47 31 97 58.5t97 62.5q64 49 70 53.5t-25 -53.5q-32 -47 -68 -91t-79 -83q-21 -16 -48.5 -37.5t-58 -43t-60.5 -43t-54 -40.5q-17 -12 -39.5 -31.5t-20.5 -45.5q-22 -5 -33.5 -8t-21.5 -7q33 94 92.5 172t151.5 137z" />
    <glyph glyph-name="glyph133" horiz-adv-x="350" 
d="M-160 1112q0 66 21.5 127t56.5 116.5t78 105.5t86 93q16 17 22.5 12t-8.5 -26q-41 -55 -78.5 -122.5t-42.5 -143.5q0 -37 10.5 -73t24 -69.5t23.5 -66.5t8 -64v-28q-6 -10 -19.5 -30.5t-31 -44.5t-37 -43t-35.5 -26q-16 33 -29.5 64t-23.5 63.5t-16.5 69.5t-8.5 86z" />
    <glyph glyph-name="glyph134" horiz-adv-x="682" 
d="M-25 1073q17 -8 47.5 -30.5t62.5 -48t62.5 -50t47.5 -37.5q26 -16 53.5 -15t54.5 12t51.5 27.5t44.5 33.5q4 2 21.5 15t36 27.5t35 27t20.5 16.5q23 16 25 9t-11 -32q-20 -37 -43.5 -66.5t-52.5 -64.5q-18 -23 -43 -50.5t-52.5 -52t-59 -41t-64.5 -16.5q-37 0 -63.5 17.5
t-55.5 40.5q-4 2 -18.5 14t-30.5 26.5t-32.5 29t-24.5 22.5q-4 2 -11 10v176z" />
    <glyph glyph-name="glyph135" horiz-adv-x="862" 
d="M471 504q-53 0 -85 -31t-52 -78q-8 -22 -19.5 -49t-25.5 -80q59 0 126.5 29t112.5 65q11 9 27 23t30.5 29.5t25 27t10.5 13.5v4q-37 16 -75 30.5t-75 16.5zM668 446q-35 -67 -79 -150t-101.5 -156.5t-130 -124t-162.5 -50.5q-72 -2 -121 23.5t-92 91.5
q-31 55 -42.5 120.5t-7.5 121.5q0 8 1 32.5t1 32.5q19 55 45.5 128t67.5 122v-10q0 -45 2 -103.5t19 -105.5q10 -37 41.5 -77t72.5 -60q15 -5 29 -9t39 -4q8 0 8 2q8 35 19.5 80t28 90t39 84t56.5 64q33 24 80 24q21 0 38.5 -7t33.5 -14t33.5 -14.5t38.5 -7.5
q22 0 37.5 13.5t37.5 13.5h13q6 -6 6 -21q0 -32 -18.5 -66t-32.5 -63z" />
    <glyph glyph-name="glyph136" horiz-adv-x="883" 
d="M492 952q-54 0 -85.5 -30.5t-52.5 -77.5q-8 -23 -19 -50.5t-26 -78.5q60 0 127.5 28.5t112.5 65.5q10 8 26.5 22.5t31 30t24.5 26.5t10 13v4q-49 21 -77.5 31t-44 14t-20.5 3t-7 -1zM-49 897q24 61 52 127t54 123q4 16 13.5 20t9.5 -18q0 -57 -7 -120.5t7 -121.5
q4 -18 10 -38.5t16 -37.5q27 -47 64 -81.5t92 -34.5h8q13 37 25 81t28.5 88t39 83t55.5 67q33 27 84 27q20 0 37.5 -7t34 -14.5t34 -14.5t37.5 -7q23 0 38 13t38 13h12q6 -6 6 -20q0 -33 -18.5 -66.5t-32.5 -62.5q-35 -68 -79 -150.5t-101 -156.5t-130 -124t-163 -50
q-86 0 -141.5 41t-85.5 104q-2 -2 -10.5 -5t-55.5 -7q8 14 8 37q0 26 2 37q5 71 6 138.5t13 137.5z" />
    </font>
</defs>
</svg>
