<?xml version="1.0" standalone="no"?>
<!DOCTYPE svg PUBLIC "-//W3C//DTD SVG 1.1//EN" "http://www.w3.org/Graphics/SVG/1.1/DTD/svg11.dtd" >
<svg xmlns="http://www.w3.org/2000/svg" xmlns:xlink="http://www.w3.org/1999/xlink" version="1.1">
<metadata>
Created by FontForge 20201107 at Mon Aug 28 17:04:29 2023
 By 
Copyright (c) 1994-2023 SIL International.
</metadata>
<defs>
<font id="Lateef-Regular" horiz-adv-x="0" >
  <font-face 
    font-family="Lateef"
    font-weight="400"
    font-stretch="normal"
    units-per-em="2048"
    panose-1="1 0 5 6 2 0 0 2 0 3"
    ascent="1638"
    descent="-410"
    x-height="694"
    cap-height="942"
    bbox="-759 -993 4997 2151"
    underline-thickness="9"
    underline-position="-62"
    unicode-range="U+0020-10EFF"
  />
<missing-glyph horiz-adv-x="1135" 
d="M1050 996h-965v-1224h965v1224zM1075 1021v-1274h-1015v1274h1015zM726 310q0 -82 -22.5 -156t-75.5 -120t-146 -46q-76 0 -111 44.5t-35 117.5q0 40 11.5 93t31.5 87q1 2 5 7.5t8 5.5q1 0 1 -1q0 -30 -8 -60t-8 -61q0 -57 43 -81t92 -24q23 0 58 8t66 25t41 43l-36 528
l-32 40l45 127q8 8 10 -2q-1 -10 -1 -24q0 -31 14 -53t48 -24l-19 -105l-18 11q10 -86 24 -189t14 -191z" />
    <glyph glyph-name="uni0624" unicode="&#x648;&#x654;" horiz-adv-x="685" 
d="M625 123q0 -142 -40 -231t-100 -137.5t-122 -66.5t-106 -18q-83 0 -169.5 40t-138.5 80l7 14q81 -15 162 -15q107 0 201.5 28t163 87t96.5 152zM564 -17q10 42 10 100q0 50 -9 99.5t-30 82.5t-57 33q-28 0 -46.5 -27t-18.5 -54q0 -15 11.5 -31.5t51.5 -16.5q37 0 55 20.5
t22 51.5l35 -100q-9 -42 -46 -82t-83 -40q-44 0 -72.5 41t-28.5 104q0 26 6 73t20.5 95.5t39.5 82t62 33.5q44 0 75 -47.5t47.5 -122t16.5 -155.5q-9 -48 -25 -81.5t-36 -58.5zM405 623q-50 27 -50 68q0 109 39 157.5t83 48.5q28 0 55.5 -12.5t42.5 -35.5l-13 -25
q-17 7 -40 7q-40 0 -85.5 -21.5t-59.5 -60.5l4 23q3 -28 29.5 -49.5t72.5 -21.5q22 0 49 6zM646 718l-51 -82q-56 0 -120 -13t-141 -83l-35 25q68 70 145.5 111.5t201.5 41.5z" />
    <glyph glyph-name="uni0626" unicode="&#x64a;&#x654;" horiz-adv-x="1012" 
d="M908 632q26 0 45 -15.5t19 -43.5t-20.5 -76.5t-43.5 -79.5q-4 41 -51 41q-40 0 -94.5 -25t-95.5 -63t-41 -78q0 -37 33 -53t81.5 -21t97.5 -9t82 -17.5t33 -46.5q0 -81 -33 -165t-101.5 -154t-175.5 -113t-256 -43q-150 0 -248.5 67.5t-98.5 218.5q0 68 24 152.5
t90 192.5l12 -6q-25 -62 -32.5 -115t-7.5 -95q0 -97 43.5 -147.5t110 -69t136.5 -18.5q216 0 332.5 54t132.5 108q5 16 -27.5 19.5t-83.5 6t-103 12.5t-87.5 36.5t-35.5 79.5q0 55 34.5 133.5t89.5 154.5t118.5 127t121.5 51zM388 776q-50 27 -50 68q0 109 39 157.5t83 48.5
q28 0 55.5 -12.5t42.5 -35.5l-13 -25q-17 7 -40 7q-40 0 -85.5 -21.5t-59.5 -60.5l4 23q3 -28 29.5 -49.5t72.5 -21.5q22 0 49 6zM629 871l-51 -82q-56 0 -120 -13t-141 -83l-35 25q68 70 145.5 111.5t201.5 41.5z" />
    <glyph glyph-name="uni06C0" unicode="&#x6d5;&#x654;" horiz-adv-x="442" 
d="M182 400q-32 -40 -49.5 -87t-17.5 -65q0 -22 24 -52.5t74 -30.5q60 0 90.5 29t30.5 46q0 26 -33 50.5t-75.5 48.5t-75.5 47.5t-33 47.5q0 27 6.5 68t18 81.5t24.5 62.5q9 -53 46 -84.5t81 -58.5t76.5 -63.5t32.5 -99.5q0 -94 -26.5 -175t-74 -130.5t-112.5 -49.5
q-51 0 -84 27t-49 66.5t-16 77.5q0 51 28.5 132.5t80.5 144.5zM107 810q-50 27 -50 68q0 109 39 157.5t83 48.5q28 0 55.5 -12.5t42.5 -35.5l-13 -25q-17 7 -40 7q-40 0 -85.5 -21.5t-59.5 -60.5l4 23q3 -28 29.5 -49.5t72.5 -21.5q22 0 49 6zM348 905l-51 -82
q-56 0 -120 -13t-141 -83l-35 25q68 70 145.5 111.5t201.5 41.5z" />
    <glyph glyph-name="uni06C2" unicode="&#x6c1;&#x654;" horiz-adv-x="442" 
d="M182 400q-32 -40 -49.5 -87t-17.5 -65q0 -22 24 -52.5t74 -30.5q60 0 90.5 29t30.5 46q0 26 -33 50.5t-75.5 48.5t-75.5 47.5t-33 47.5q0 27 6.5 68t18 81.5t24.5 62.5q9 -53 46 -84.5t81 -58.5t76.5 -63.5t32.5 -99.5q0 -94 -26.5 -175t-74 -130.5t-112.5 -49.5
q-51 0 -84 27t-49 66.5t-16 77.5q0 51 28.5 132.5t80.5 144.5zM107 810q-50 27 -50 68q0 109 39 157.5t83 48.5q28 0 55.5 -12.5t42.5 -35.5l-13 -25q-17 7 -40 7q-40 0 -85.5 -21.5t-59.5 -60.5l4 23q3 -28 29.5 -49.5t72.5 -21.5q22 0 49 6zM348 905l-51 -82
q-56 0 -120 -13t-141 -83l-35 25q68 70 145.5 111.5t201.5 41.5z" />
    <glyph glyph-name="uni06510670" unicode="&#x651;&#x670;" 
d="M18 1298q0 -112 -26 -172t-59.5 -69.5t-59.5 30t-26 126.5l36 18q0 -74 25 -87t49.5 24t24.5 112zM153 1365q0 -112 -26 -172t-59.5 -69.5t-59.5 30t-26 126.5l36 18q0 -74 24.5 -87t49.5 24t25 112zM-22 1346q2 62 -6 139t-4 146l61 80q-7 -94 -3.5 -187.5t-7.5 -140.5
q-7 -31 -40 -37z" />
    <glyph glyph-name="uni0651064B" unicode="&#x64b;&#x651;" 
d="M18 1298q0 -112 -26 -172t-59.5 -69.5t-59.5 30t-26 126.5l36 18q0 -74 25 -87t49.5 24t24.5 112zM153 1365q0 -112 -26 -172t-59.5 -69.5t-59.5 30t-26 126.5l36 18q0 -74 24.5 -87t49.5 24t25 112zM-155 1420l31 86l302 152l-29 -86zM-155 1280l31 86l302 152l-29 -86z
" />
    <glyph glyph-name="uni0651064C" unicode="&#x64c;&#x651;" 
d="M-176 1262q29 34 46.5 74t18.5 71t-20.5 40.5t-71.5 -18.5l18 61q54 36 88 27.5t47 -42t2 -75t-48 -72.5l-1 -29q-33 -18 -79 -37zM-103 1296l-26 41q61 28 124 77t106 103t43 96q0 20 -12 30.5t-26 10.5q-11 0 -31.5 -16t-20.5 -52q0 -26 29.5 -48t126.5 -75l-46 -67
q-77 46 -127 88.5t-50 95.5q0 51 22.5 78.5t55 37.5t60.5 10q35 0 55.5 -16.5t20.5 -49.5q0 -63 -47 -130t-117.5 -123.5t-139.5 -90.5zM18 1298q0 -112 -26 -172t-59.5 -69.5t-59.5 30t-26 126.5l36 18q0 -74 25 -87t49.5 24t24.5 112zM153 1365q0 -112 -26 -172
t-59.5 -69.5t-59.5 30t-26 126.5l36 18q0 -74 24.5 -87t49.5 24t25 112z" />
    <glyph glyph-name="uni0651064D" unicode="&#x64d;&#x34f;&#x651;" 
d="M18 1608q0 -112 -26 -172t-59.5 -69.5t-59.5 30t-26 126.5l36 18q0 -74 25 -87t49.5 24t24.5 112zM153 1675q0 -112 -26 -172t-59.5 -69.5t-59.5 30t-26 126.5l36 18q0 -74 24.5 -87t49.5 24t25 112zM-173 1181l31 86l302 152l-29 -86zM-173 1041l31 86l302 152l-29 -86z
" />
    <glyph glyph-name="uni0651064E" unicode="&#x64e;&#x651;" 
d="M18 1298q0 -112 -26 -172t-59.5 -69.5t-59.5 30t-26 126.5l36 18q0 -74 25 -87t49.5 24t24.5 112zM153 1365q0 -112 -26 -172t-59.5 -69.5t-59.5 30t-26 126.5l36 18q0 -74 24.5 -87t49.5 24t25 112zM-153 1280l31 86l302 152l-29 -86z" />
    <glyph glyph-name="uni0651064F" unicode="&#x64f;&#x651;" 
d="M-149 1292l-26 41q61 28 124 77t106 103t43 96q0 20 -12 30.5t-26 10.5q-11 0 -31.5 -16t-20.5 -52q0 -26 29.5 -48t126.5 -75l-46 -67q-77 46 -127 88.5t-50 95.5q0 51 22.5 78.5t55 37.5t60.5 10q35 0 55.5 -16.5t20.5 -49.5q0 -63 -47 -130t-117.5 -123.5
t-139.5 -90.5zM18 1298q0 -112 -26 -172t-59.5 -69.5t-59.5 30t-26 126.5l36 18q0 -74 25 -87t49.5 24t24.5 112zM153 1365q0 -112 -26 -172t-59.5 -69.5t-59.5 30t-26 126.5l36 18q0 -74 24.5 -87t49.5 24t25 112z" />
    <glyph glyph-name="uni06510650" unicode="&#x650;&#x34f;&#x651;" 
d="M12 1467q0 -112 -26 -172t-59.5 -69.5t-59.5 30t-26 126.5l36 18q0 -74 25 -87t49.5 24t24.5 112zM147 1534q0 -112 -26 -172t-59.5 -69.5t-59.5 30t-26 126.5l36 18q0 -74 24.5 -87t49.5 24t25 112zM-189 1044l31 86l302 152l-29 -86z" />
    <glyph glyph-name="uni0620.init" unicode="&#x620;" horiz-adv-x="353" 
d="M0 180h63q90 0 134.5 16t44.5 31q0 30 -9 57.5t-32 51.5l57 145q29 -38 42 -87.5t13 -98.5q0 -124 -70.5 -209.5t-201.5 -85.5h-41q-25 0 -37 29t-12 64t12 61t37 26zM190 -345q-62 0 -84.5 33t-22.5 83q0 46 29 94.5t78 48.5q50 0 79.5 -48.5t29.5 -94.5
q0 -50 -23.5 -83t-85.5 -33zM190 -275q28 0 48.5 9.5t20.5 43.5q0 35 -20.5 57.5t-48.5 22.5t-47.5 -22.5t-19.5 -57.5q0 -37 19.5 -45t47.5 -8z" />
    <glyph glyph-name="uni0620.medi" unicode="&#x620;" horiz-adv-x="440" 
d="M0 0q-23 0 -35 27.5t-12 62.5t12 62.5t35 27.5h5q85 0 127.5 13.5t64 51t42.5 108.5l15 -3q-4 -25 -4 -50q0 -76 44.5 -98t139.5 -22h5q25 0 35.5 -27.5t10.5 -62.5t-10 -62.5t-36 -27.5h-19q-100 0 -149 37t-71 90l9 -3q-30 -51 -77.5 -87.5t-111.5 -36.5h-20zM194 -345
q-62 0 -84.5 33t-22.5 83q0 46 29 94.5t78 48.5q50 0 79.5 -48.5t29.5 -94.5q0 -50 -23.5 -83t-85.5 -33zM194 -275q28 0 48.5 9.5t20.5 43.5q0 35 -20.5 57.5t-48.5 22.5t-47.5 -22.5t-19.5 -57.5q0 -37 19.5 -45t47.5 -8z" />
    <glyph glyph-name="uni0620.fina" unicode="&#x620;" horiz-adv-x="943" 
d="M884 -178q0 -89 -57 -160t-152 -121t-211.5 -76t-235.5 -26l-188 111l5 34q36 -10 82.5 -15t98.5 -5q92 0 196.5 14.5t198 42t152.5 67t59 89.5q0 15 -31 17t-77 2t-92 8t-77 34.5t-31 82.5t36.5 116t111 101.5t187.5 41.5h84q23 0 35.5 -27.5t12.5 -62.5t-12 -62.5
t-36 -27.5h-232q-89 0 -115 -9.5t-26 -20.5q0 -16 31.5 -20t78.5 -6t94 -10.5t78.5 -34t31.5 -77.5z" />
    <glyph glyph-name="uni0622.fina" unicode="&#x622;" horiz-adv-x="422" arabic-form="final" 
d="M423 0q-137 0 -213.5 99t-86.5 336l-23 551l81 107l19 -627q4 -119 33.5 -180.5t79 -83.5t110.5 -22q30 0 45 -27.5t15 -62.5t-15 -62.5t-45 -27.5zM2 1432q42 -32 86 -49.5t93 -17.5q95 0 230 74l15 -19q-49 -79 -126.5 -124t-158.5 -45q-86 0 -156 52l52 56
q-8 -21 -31.5 -53.5t-50.5 -62t-46 -42.5l-15 11q37 53 64.5 113t43.5 107z" />
    <glyph glyph-name="uni0623.fina" unicode="&#x623;" horiz-adv-x="422" arabic-form="final" 
d="M423 0q-137 0 -213.5 99t-86.5 336l-23 551l81 107l19 -627q4 -119 33.5 -180.5t79 -83.5t110.5 -22q30 0 45 -27.5t15 -62.5t-15 -62.5t-45 -27.5zM101 1308q-50 27 -50 68q0 109 39 157.5t83 48.5q28 0 55.5 -12.5t42.5 -35.5l-13 -25q-17 7 -40 7q-40 0 -85.5 -21.5
t-59.5 -60.5l4 23q3 -28 29.5 -49.5t72.5 -21.5q22 0 49 6zM342 1403l-51 -82q-56 0 -120 -13t-141 -83l-35 25q68 70 145.5 111.5t201.5 41.5z" />
    <glyph glyph-name="uni0625.fina" unicode="&#x625;" horiz-adv-x="422" arabic-form="final" 
d="M423 0q-137 0 -213.5 99t-86.5 336l-23 551l81 107l19 -627q4 -119 33.5 -180.5t79 -83.5t110.5 -22q30 0 45 -27.5t15 -62.5t-15 -62.5t-45 -27.5zM171 -382q-50 27 -50 68q0 109 39 157.5t83 48.5q28 0 55.5 -12.5t42.5 -35.5l-13 -25q-17 7 -40 7q-40 0 -85.5 -21.5
t-59.5 -60.5l4 23q3 -28 29.5 -49.5t72.5 -21.5q22 0 49 6zM412 -287l-51 -82q-56 0 -120 -13t-141 -83l-35 25q68 70 145.5 111.5t201.5 41.5z" />
    <glyph glyph-name="uni0627.fina" unicode="&#x627;" horiz-adv-x="422" arabic-form="final" 
d="M423 0q-137 0 -213.5 99t-86.5 336l-23 551l81 107l19 -627q4 -119 33.5 -180.5t79 -83.5t110.5 -22q30 0 45 -27.5t15 -62.5t-15 -62.5t-45 -27.5z" />
    <glyph glyph-name="uni0628.init" unicode="&#x628;" horiz-adv-x="353" arabic-form="initial" 
d="M0 180h63q90 0 134.5 16t44.5 31q0 30 -9 57.5t-32 51.5l57 145q29 -38 42 -87.5t13 -98.5q0 -124 -70.5 -209.5t-201.5 -85.5h-41q-25 0 -37 29t-12 64t12 61t37 26zM199 -146q64 -45 104 -104l-104 -104q-20 31 -46.5 56.5t-57.5 47.5z" />
    <glyph glyph-name="uni0628.medi" unicode="&#x628;" horiz-adv-x="440" arabic-form="medial" 
d="M0 0q-23 0 -35 27.5t-12 62.5t12 62.5t35 27.5h5q85 0 127.5 13.5t64 51t42.5 108.5l15 -3q-4 -25 -4 -50q0 -76 44.5 -98t139.5 -22h5q25 0 35.5 -27.5t10.5 -62.5t-10 -62.5t-36 -27.5h-19q-100 0 -149 37t-71 90l9 -3q-30 -51 -77.5 -87.5t-111.5 -36.5h-20zM203 -146
q64 -45 104 -104l-104 -104q-20 31 -46.5 56.5t-57.5 47.5z" />
    <glyph glyph-name="uni0628.fina" unicode="&#x628;" horiz-adv-x="1175" arabic-form="final" 
d="M1027 353l15 -3q0 -91 30 -130.5t103 -39.5q29 0 43 -27.5t14 -62.5t-14 -62.5t-43 -27.5q-172 0 -191 163l7 -5q-70 -87 -204 -130t-294 -43q-124 0 -227 30t-164.5 91.5t-61.5 153.5q0 67 36.5 131t77.5 103l14 -7q-12 -19 -29 -60t-17 -81q0 -65 60 -105t159 -58
t216 -18q130 0 217 20.5t146.5 62.5t106.5 105zM498 -146q64 -45 104 -104l-104 -104q-20 31 -46.5 56.5t-57.5 47.5z" />
    <glyph glyph-name="uni0629.fina" unicode="&#x629;" horiz-adv-x="642" arabic-form="final" 
d="M642 0q-92 0 -143.5 34t-79 109.5t-45.5 199.5t-43 303l62 82q15 -169 30.5 -276.5t40.5 -166.5t67 -82t111 -23q27 0 41.5 -27.5t14.5 -62.5q0 -37 -16.5 -63.5t-39.5 -26.5zM174 50q-17 0 -49.5 4t-58.5 17t-26 38q0 101 44.5 172.5t119 118t164.5 72.5l9 -74
q-46 -8 -93 -34t-79 -56t-32 -50q0 -13 15 -15.5t49 -2.5q27 0 62 9.5t60.5 24t23.5 28.5l30 -94q-71 -158 -239 -158zM265 1082q64 -45 104 -104l-104 -104q-20 31 -46.5 56.5t-57.5 47.5zM463 1082q64 -45 104 -104l-104 -104q-20 31 -46.5 56.5t-57.5 47.5z" />
    <glyph glyph-name="uni062A.init" unicode="&#x62a;" horiz-adv-x="353" arabic-form="initial" 
d="M0 180h63q90 0 134.5 16t44.5 31q0 30 -9 57.5t-32 51.5l57 145q29 -38 42 -87.5t13 -98.5q0 -124 -70.5 -209.5t-201.5 -85.5h-41q-25 0 -37 29t-12 64t12 61t37 26zM107 814q64 -45 104 -104l-104 -104q-20 31 -46.5 56.5t-57.5 47.5zM305 814q64 -45 104 -104
l-104 -104q-20 31 -46.5 56.5t-57.5 47.5z" />
    <glyph glyph-name="uni062A.medi" unicode="&#x62a;" horiz-adv-x="440" arabic-form="medial" 
d="M0 0q-23 0 -35 27.5t-12 62.5t12 62.5t35 27.5h5q85 0 127.5 13.5t64 51t42.5 108.5l15 -3q-4 -25 -4 -50q0 -76 44.5 -98t139.5 -22h5q25 0 35.5 -27.5t10.5 -62.5t-10 -62.5t-36 -27.5h-19q-100 0 -149 37t-71 90l9 -3q-30 -51 -77.5 -87.5t-111.5 -36.5h-20zM113 680
q64 -45 104 -104l-104 -104q-20 31 -46.5 56.5t-57.5 47.5zM311 680q64 -45 104 -104l-104 -104q-20 31 -46.5 56.5t-57.5 47.5z" />
    <glyph glyph-name="uni062A.fina" unicode="&#x62a;" horiz-adv-x="1175" arabic-form="final" 
d="M1027 353l15 -3q0 -91 30 -130.5t103 -39.5q29 0 43 -27.5t14 -62.5t-14 -62.5t-43 -27.5q-172 0 -191 163l7 -5q-70 -87 -204 -130t-294 -43q-124 0 -227 30t-164.5 91.5t-61.5 153.5q0 67 36.5 131t77.5 103l14 -7q-12 -19 -29 -60t-17 -81q0 -65 60 -105t159 -58
t216 -18q130 0 217 20.5t146.5 62.5t106.5 105zM480 627q64 -45 104 -104l-104 -104q-20 31 -46.5 56.5t-57.5 47.5zM678 627q64 -45 104 -104l-104 -104q-20 31 -46.5 56.5t-57.5 47.5z" />
    <glyph glyph-name="uni062B.init" unicode="&#x62b;" horiz-adv-x="353" arabic-form="initial" 
d="M0 180h63q90 0 134.5 16t44.5 31q0 30 -9 57.5t-32 51.5l57 145q29 -38 42 -87.5t13 -98.5q0 -124 -70.5 -209.5t-201.5 -85.5h-41q-25 0 -37 29t-12 64t12 61t37 26zM203 1022q64 -45 104 -104l-104 -104q-20 31 -46.5 56.5t-57.5 47.5zM107 818q64 -45 104 -104
l-104 -104q-20 31 -46.5 56.5t-57.5 47.5zM305 818q64 -45 104 -104l-104 -104q-20 31 -46.5 56.5t-57.5 47.5z" />
    <glyph glyph-name="uni062B.medi" unicode="&#x62b;" horiz-adv-x="440" arabic-form="medial" 
d="M0 0q-23 0 -35 27.5t-12 62.5t12 62.5t35 27.5h5q85 0 127.5 13.5t64 51t42.5 108.5l15 -3q-4 -25 -4 -50q0 -76 44.5 -98t139.5 -22h5q25 0 35.5 -27.5t10.5 -62.5t-10 -62.5t-36 -27.5h-19q-100 0 -149 37t-71 90l9 -3q-30 -51 -77.5 -87.5t-111.5 -36.5h-20zM209 888
q64 -45 104 -104l-104 -104q-20 31 -46.5 56.5t-57.5 47.5zM113 684q64 -45 104 -104l-104 -104q-20 31 -46.5 56.5t-57.5 47.5zM311 684q64 -45 104 -104l-104 -104q-20 31 -46.5 56.5t-57.5 47.5z" />
    <glyph glyph-name="uni062B.fina" unicode="&#x62b;" horiz-adv-x="1175" arabic-form="final" 
d="M1027 353l15 -3q0 -91 30 -130.5t103 -39.5q29 0 43 -27.5t14 -62.5t-14 -62.5t-43 -27.5q-172 0 -191 163l7 -5q-70 -87 -204 -130t-294 -43q-124 0 -227 30t-164.5 91.5t-61.5 153.5q0 67 36.5 131t77.5 103l14 -7q-12 -19 -29 -60t-17 -81q0 -65 60 -105t159 -58
t216 -18q130 0 217 20.5t146.5 62.5t106.5 105zM576 835q64 -45 104 -104l-104 -104q-20 31 -46.5 56.5t-57.5 47.5zM480 631q64 -45 104 -104l-104 -104q-20 31 -46.5 56.5t-57.5 47.5zM678 631q64 -45 104 -104l-104 -104q-20 31 -46.5 56.5t-57.5 47.5z" />
    <glyph glyph-name="uni062C.init" unicode="&#x62c;" horiz-adv-x="767" arabic-form="initial" 
d="M0 0q-23 0 -29.5 27.5t-6.5 62.5t10 62.5t26 27.5q101 0 161 9t97 23t68 29.5t72.5 29.5t109.5 23t180 9l-31 -101q-85 0 -154 25t-125.5 58.5t-104 58.5t-88.5 25q-46 0 -78.5 -16t-52.5 -36l-14 6q10 48 34.5 96t63 79.5t88.5 31.5q53 0 99 -25t99 -58.5t125 -58.5
t178 -25l-51 -173q-104 0 -172.5 -19t-119.5 -47.5t-101.5 -57t-116.5 -47.5t-166 -19zM344 -76q64 -45 104 -104l-104 -104q-20 31 -46.5 56.5t-57.5 47.5z" />
    <glyph glyph-name="uni062C.medi" unicode="&#x62c;" horiz-adv-x="817" arabic-form="medial" 
d="M0 0q-23 0 -34.5 27.5t-11.5 62.5t11.5 62.5t34.5 27.5q94 0 153.5 8.5t101 24.5t80 37.5t89 46.5t127 53t196.5 56l-44 -125q-111 -23 -191 -13t-138 34t-103 45.5t-86 21.5q-46 0 -78.5 -16t-52.5 -36l-14 6q10 48 34.5 96t63 79.5t88.5 31.5q53 0 103.5 -23t111 -48.5
t141.5 -35.5t195 17l-52 -173q-104 -21 -177 -54t-131.5 -69.5t-116.5 -69.5t-129 -53.5t-171 -20.5zM817 0q-107 0 -163 64t-65 228l45 12q9 -81 52 -102.5t131 -21.5q27 0 40 -27.5t13 -62.5t-13 -62.5t-40 -27.5zM354 -76q64 -45 104 -104l-104 -104q-20 31 -46.5 56.5
t-57.5 47.5z" />
    <glyph glyph-name="uni062C.fina" unicode="&#x62c;" horiz-adv-x="889" arabic-form="final" 
d="M549 348q0 -94 43 -131t128 -37h169q32 0 47 -27.5t15 -62.5t-15 -62.5t-47 -27.5h-149q-99 0 -150 41.5t-69.5 119.5t-18.5 187h47zM659 -743q-223 0 -359.5 73.5t-198 191.5t-61.5 252q0 101 35 208.5t108.5 205.5t190.5 171l2 -7q-30 3 -59 12t-64 9
q-46 0 -81.5 -21.5t-57.5 -48t-28 -42.5l-14 6q6 66 38.5 126t86.5 98.5t124 38.5q49 0 95.5 -15t105 -30t143.5 -15q68 0 135 6l-69 -167q-29 4 -66 4q-103 0 -202.5 -40t-180 -110t-128.5 -161t-48 -193q0 -149 81 -230t218 -112t305 -31h153v-29zM444 -98
q64 -45 104 -104l-104 -104q-20 31 -46.5 56.5t-57.5 47.5z" />
    <glyph glyph-name="uni062D.init" unicode="&#x62d;" horiz-adv-x="767" arabic-form="initial" 
d="M0 0q-23 0 -29.5 27.5t-6.5 62.5t10 62.5t26 27.5q101 0 161 9t97 23t68 29.5t72.5 29.5t109.5 23t180 9l-31 -101q-85 0 -154 25t-125.5 58.5t-104 58.5t-88.5 25q-46 0 -78.5 -16t-52.5 -36l-14 6q10 48 34.5 96t63 79.5t88.5 31.5q53 0 99 -25t99 -58.5t125 -58.5
t178 -25l-51 -173q-104 0 -172.5 -19t-119.5 -47.5t-101.5 -57t-116.5 -47.5t-166 -19z" />
    <glyph glyph-name="uni062D.medi" unicode="&#x62d;" horiz-adv-x="817" arabic-form="medial" 
d="M0 0q-23 0 -34.5 27.5t-11.5 62.5t11.5 62.5t34.5 27.5q94 0 153.5 8.5t101 24.5t80 37.5t89 46.5t127 53t196.5 56l-44 -125q-111 -23 -191 -13t-138 34t-103 45.5t-86 21.5q-46 0 -78.5 -16t-52.5 -36l-14 6q10 48 34.5 96t63 79.5t88.5 31.5q53 0 103.5 -23t111 -48.5
t141.5 -35.5t195 17l-52 -173q-104 -21 -177 -54t-131.5 -69.5t-116.5 -69.5t-129 -53.5t-171 -20.5zM817 0q-107 0 -163 64t-65 228l45 12q9 -81 52 -102.5t131 -21.5q27 0 40 -27.5t13 -62.5t-13 -62.5t-40 -27.5z" />
    <glyph glyph-name="uni062D.fina" unicode="&#x62d;" horiz-adv-x="889" arabic-form="final" 
d="M549 348q0 -94 43 -131t128 -37h169q32 0 47 -27.5t15 -62.5t-15 -62.5t-47 -27.5h-149q-99 0 -150 41.5t-69.5 119.5t-18.5 187h47zM659 -743q-223 0 -359.5 73.5t-198 191.5t-61.5 252q0 101 35 208.5t108.5 205.5t190.5 171l2 -7q-30 3 -59 12t-64 9
q-46 0 -81.5 -21.5t-57.5 -48t-28 -42.5l-14 6q6 66 38.5 126t86.5 98.5t124 38.5q49 0 95.5 -15t105 -30t143.5 -15q68 0 135 6l-69 -167q-29 4 -66 4q-103 0 -202.5 -40t-180 -110t-128.5 -161t-48 -193q0 -149 81 -230t218 -112t305 -31h153v-29z" />
    <glyph glyph-name="uni062E.init" unicode="&#x62e;" horiz-adv-x="767" arabic-form="initial" 
d="M0 0q-23 0 -29.5 27.5t-6.5 62.5t10 62.5t26 27.5q101 0 161 9t97 23t68 29.5t72.5 29.5t109.5 23t180 9l-31 -101q-85 0 -154 25t-125.5 58.5t-104 58.5t-88.5 25q-46 0 -78.5 -16t-52.5 -36l-14 6q10 48 34.5 96t63 79.5t88.5 31.5q53 0 99 -25t99 -58.5t125 -58.5
t178 -25l-51 -173q-104 0 -172.5 -19t-119.5 -47.5t-101.5 -57t-116.5 -47.5t-166 -19zM440 853q64 -45 104 -104l-104 -104q-20 31 -46.5 56.5t-57.5 47.5z" />
    <glyph glyph-name="uni062E.medi" unicode="&#x62e;" horiz-adv-x="817" arabic-form="medial" 
d="M0 0q-23 0 -34.5 27.5t-11.5 62.5t11.5 62.5t34.5 27.5q94 0 153.5 8.5t101 24.5t80 37.5t89 46.5t127 53t196.5 56l-44 -125q-111 -23 -191 -13t-138 34t-103 45.5t-86 21.5q-46 0 -78.5 -16t-52.5 -36l-14 6q10 48 34.5 96t63 79.5t88.5 31.5q53 0 103.5 -23t111 -48.5
t141.5 -35.5t195 17l-52 -173q-104 -21 -177 -54t-131.5 -69.5t-116.5 -69.5t-129 -53.5t-171 -20.5zM817 0q-107 0 -163 64t-65 228l45 12q9 -81 52 -102.5t131 -21.5q27 0 40 -27.5t13 -62.5t-13 -62.5t-40 -27.5zM440 853q64 -45 104 -104l-104 -104q-20 31 -46.5 56.5
t-57.5 47.5z" />
    <glyph glyph-name="uni062E.fina" unicode="&#x62e;" horiz-adv-x="889" arabic-form="final" 
d="M549 348q0 -94 43 -131t128 -37h169q32 0 47 -27.5t15 -62.5t-15 -62.5t-47 -27.5h-149q-99 0 -150 41.5t-69.5 119.5t-18.5 187h47zM659 -743q-223 0 -359.5 73.5t-198 191.5t-61.5 252q0 101 35 208.5t108.5 205.5t190.5 171l2 -7q-30 3 -59 12t-64 9
q-46 0 -81.5 -21.5t-57.5 -48t-28 -42.5l-14 6q6 66 38.5 126t86.5 98.5t124 38.5q49 0 95.5 -15t105 -30t143.5 -15q68 0 135 6l-69 -167q-29 4 -66 4q-103 0 -202.5 -40t-180 -110t-128.5 -161t-48 -193q0 -149 81 -230t218 -112t305 -31h153v-29zM486 857
q64 -45 104 -104l-104 -104q-20 31 -46.5 56.5t-57.5 47.5z" />
    <glyph glyph-name="uni062F.fina" unicode="&#x62f;" horiz-adv-x="644" arabic-form="final" 
d="M618 0q-61 0 -103 28.5t-75.5 102.5t-70.5 209.5t-88 349.5l70 80l96 -440q16 -71 40 -103t62 -39.5t95 -7.5q27 0 40.5 -27.5t13.5 -62.5t-13.5 -62.5t-40.5 -27.5h-26zM168 -15q-77 0 -128 48l11 180q30 -31 72.5 -43t88.5 -12q49 0 93 13.5t70.5 35t19.5 43.5l49 -10
q0 -109 -75.5 -182t-200.5 -73z" />
    <glyph glyph-name="uni0630.fina" unicode="&#x630;" horiz-adv-x="644" arabic-form="final" 
d="M618 0q-61 0 -103 28.5t-75.5 102.5t-70.5 209.5t-88 349.5l70 80l96 -440q16 -71 40 -103t62 -39.5t95 -7.5q27 0 40.5 -27.5t13.5 -62.5t-13.5 -62.5t-40.5 -27.5h-26zM168 -15q-77 0 -128 48l11 180q30 -31 72.5 -43t88.5 -12q49 0 93 13.5t70.5 35t19.5 43.5l49 -10
q0 -109 -75.5 -182t-200.5 -73zM349 1107q64 -45 104 -104l-104 -104q-20 31 -46.5 56.5t-57.5 47.5z" />
    <glyph glyph-name="uni0631.fina" unicode="&#x631;" horiz-adv-x="542" arabic-form="final" 
d="M-114 -297l7 14q14 -4 31 -7.5t44 -3.5q109 0 191.5 36t137.5 87t82.5 97.5t27.5 67.5q0 26 -41.5 64.5t-88.5 62.5l46 176q62 -40 95.5 -99t33.5 -136q0 -108 -37 -209.5t-102 -167t-148 -65.5q-69 0 -151.5 24.5t-127.5 58.5zM542 180q31 0 46.5 -27.5t15.5 -62.5
t-15.5 -62.5t-46.5 -27.5q-48 0 -88 21.5t-69 51.5v171q41 -43 79 -53.5t78 -10.5z" />
    <glyph glyph-name="uni0632.fina" unicode="&#x632;" horiz-adv-x="542" arabic-form="final" 
d="M-114 -297l7 14q14 -4 31 -7.5t44 -3.5q109 0 191.5 36t137.5 87t82.5 97.5t27.5 67.5q0 26 -41.5 64.5t-88.5 62.5l46 176q62 -40 95.5 -99t33.5 -136q0 -108 -37 -209.5t-102 -167t-148 -65.5q-69 0 -151.5 24.5t-127.5 58.5zM542 180q31 0 46.5 -27.5t15.5 -62.5
t-15.5 -62.5t-46.5 -27.5q-48 0 -88 21.5t-69 51.5v171q41 -43 79 -53.5t78 -10.5zM323 636q64 -45 104 -104l-104 -104q-20 31 -46.5 56.5t-57.5 47.5z" />
    <glyph glyph-name="uni0633.init" unicode="&#x633;" horiz-adv-x="849" arabic-form="initial" 
d="M0 0q-25 -1 -37.5 26.5t-12.5 62.5t12.5 63t37.5 28q69 0 105 13.5t58.5 46t52.5 89.5h15q-25 -74 20.5 -111.5t118.5 -37.5q48 0 89.5 30.5t69 66.5t33.5 52h15q-14 -59 9 -87t61.5 -36t69.5 -8q15 0 27 2.5t12 15.5q0 17 -7.5 47t-19.5 40l59 115q14 -13 17.5 -50.5
t3.5 -54.5q0 -27 -6 -75.5t-20 -99t-38.5 -85.5t-62.5 -35q-47 0 -86.5 26t-66.5 65l14 1q-84 -110 -185 -110q-67 0 -112 29.5t-71 55.5l12 5q-37 -55 -77.5 -72.5t-109.5 -17.5z" />
    <glyph glyph-name="uni0633.medi" unicode="&#x633;" horiz-adv-x="1032" arabic-form="medial" 
d="M1032 0q-71 0 -109 5t-58 21t-37 47l9 4q-15 -26 -52 -51.5t-83 -25.5q-88 0 -121 68l9 -2q-21 -25 -64.5 -45.5t-118.5 -20.5q-53 0 -95 15t-76 62l10 2q-36 -33 -66 -50t-70.5 -23t-109.5 -6q-21 0 -31 27.5t-10 62.5t10 62.5t31 27.5q97 0 148 12t78 44t51 93h15
q-11 -55 7.5 -87.5t53.5 -47t73 -14.5q72 0 128 26.5t95 122.5h15q-16 -82 1 -115.5t72 -33.5q42 0 70 28t45 63.5t26 57.5h15q-13 -68 -9 -99.5t38.5 -40.5t109.5 -9q29 0 42.5 -27.5t13.5 -62.5t-13.5 -62.5t-42.5 -27.5z" />
    <glyph glyph-name="uni0633.fina" unicode="&#x633;" horiz-adv-x="1471" arabic-form="final" 
d="M1161 0q-44 0 -91.5 27.5t-70.5 55.5l85 155q17 -27 42 -39.5t50 -12.5q50 0 79.5 26.5t45 60.5t21.5 56h15q-15 -73 -10 -104t39 -38t105 -7q27 0 40.5 -27.5t13.5 -62.5t-13.5 -62.5t-40.5 -27.5q-76 0 -134 9t-88 56l9 1q-14 -21 -40.5 -43.5t-56.5 -22.5zM864 -15
q-25 0 -65 12t-65 29l-24 192q41 -32 73 -42.5t89 -10.5q48 0 96.5 32.5t82.5 78.5t37 86l18 -6q0 -53 -13.5 -116.5t-42.5 -121.5t-75 -95.5t-111 -37.5zM681 328q38 -76 56.5 -151.5t18.5 -145.5q0 -123 -52.5 -221t-150 -155.5t-232.5 -57.5q-133 0 -207 68.5t-74 204.5
q0 64 15.5 127.5t38.5 114.5t45 78l18 -8q-18 -45 -30.5 -94t-12.5 -100q0 -119 71.5 -165t180.5 -46q55 0 122 14t126 44t88 79l-5 -20q2 85 -25.5 153t-71.5 136z" />
    <glyph glyph-name="uni0634.init" unicode="&#x634;" horiz-adv-x="849" arabic-form="initial" 
d="M0 0q-25 -1 -37.5 26.5t-12.5 62.5t12.5 63t37.5 28q69 0 105 13.5t58.5 46t52.5 89.5h15q-25 -74 20.5 -111.5t118.5 -37.5q48 0 89.5 30.5t69 66.5t33.5 52h15q-14 -59 9 -87t61.5 -36t69.5 -8q15 0 27 2.5t12 15.5q0 17 -7.5 47t-19.5 40l59 115q14 -13 17.5 -50.5
t3.5 -54.5q0 -27 -6 -75.5t-20 -99t-38.5 -85.5t-62.5 -35q-47 0 -86.5 26t-66.5 65l14 1q-84 -110 -185 -110q-67 0 -112 29.5t-71 55.5l12 5q-37 -55 -77.5 -72.5t-109.5 -17.5zM483 910q64 -45 104 -104l-104 -104q-20 31 -46.5 56.5t-57.5 47.5zM387 706
q64 -45 104 -104l-104 -104q-20 31 -46.5 56.5t-57.5 47.5zM585 706q64 -45 104 -104l-104 -104q-20 31 -46.5 56.5t-57.5 47.5z" />
    <glyph glyph-name="uni0634.medi" unicode="&#x634;" horiz-adv-x="1032" arabic-form="medial" 
d="M1032 0q-71 0 -109 5t-58 21t-37 47l9 4q-15 -26 -52 -51.5t-83 -25.5q-88 0 -121 68l9 -2q-21 -25 -64.5 -45.5t-118.5 -20.5q-53 0 -95 15t-76 62l10 2q-36 -33 -66 -50t-70.5 -23t-109.5 -6q-21 0 -31 27.5t-10 62.5t10 62.5t31 27.5q97 0 148 12t78 44t51 93h15
q-11 -55 7.5 -87.5t53.5 -47t73 -14.5q72 0 128 26.5t95 122.5h15q-16 -82 1 -115.5t72 -33.5q42 0 70 28t45 63.5t26 57.5h15q-13 -68 -9 -99.5t38.5 -40.5t109.5 -9q29 0 42.5 -27.5t13.5 -62.5t-13.5 -62.5t-42.5 -27.5zM583 910q64 -45 104 -104l-104 -104
q-20 31 -46.5 56.5t-57.5 47.5zM487 706q64 -45 104 -104l-104 -104q-20 31 -46.5 56.5t-57.5 47.5zM685 706q64 -45 104 -104l-104 -104q-20 31 -46.5 56.5t-57.5 47.5z" />
    <glyph glyph-name="uni0634.fina" unicode="&#x634;" horiz-adv-x="1471" arabic-form="final" 
d="M1161 0q-44 0 -91.5 27.5t-70.5 55.5l85 155q17 -27 42 -39.5t50 -12.5q50 0 79.5 26.5t45 60.5t21.5 56h15q-15 -73 -10 -104t39 -38t105 -7q27 0 40.5 -27.5t13.5 -62.5t-13.5 -62.5t-40.5 -27.5q-76 0 -134 9t-88 56l9 1q-14 -21 -40.5 -43.5t-56.5 -22.5zM864 -15
q-25 0 -65 12t-65 29l-24 192q41 -32 73 -42.5t89 -10.5q48 0 96.5 32.5t82.5 78.5t37 86l18 -6q0 -53 -13.5 -116.5t-42.5 -121.5t-75 -95.5t-111 -37.5zM681 328q38 -76 56.5 -151.5t18.5 -145.5q0 -123 -52.5 -221t-150 -155.5t-232.5 -57.5q-133 0 -207 68.5t-74 204.5
q0 64 15.5 127.5t38.5 114.5t45 78l18 -8q-18 -45 -30.5 -94t-12.5 -100q0 -119 71.5 -165t180.5 -46q55 0 122 14t126 44t88 79l-5 -20q2 85 -25.5 153t-71.5 136zM1016 910q64 -45 104 -104l-104 -104q-20 31 -46.5 56.5t-57.5 47.5zM920 706q64 -45 104 -104l-104 -104
q-20 31 -46.5 56.5t-57.5 47.5zM1118 706q64 -45 104 -104l-104 -104q-20 31 -46.5 56.5t-57.5 47.5z" />
    <glyph glyph-name="uni0635.init" unicode="&#x635;" horiz-adv-x="1171" arabic-form="initial" 
d="M437 165l24 -180q-127 0 -202 33.5t-98 92.5l12 10q-35 -69 -69.5 -95t-93.5 -26h-15q-25 0 -37 29t-12 64t12 61t37 26h5q77 0 114.5 41t55.5 108h15q14 -103 83 -133.5t169 -30.5zM971 557q74 0 117 -40t43 -105q0 -95 -62 -173.5t-162 -135t-218 -87.5t-230 -31
l-25 180q110 0 213 8t185.5 24.5t131 42.5t48.5 63q0 43 -44 75t-111 32q-31 0 -102.5 -37t-154.5 -96.5t-150 -128.5l-62 5q43 47 114.5 115t155.5 134t166.5 110.5t146.5 44.5z" />
    <glyph glyph-name="uni0635.medi" unicode="&#x635;" horiz-adv-x="1171" arabic-form="medial" 
d="M437 165l24 -180q-127 0 -202 33.5t-98 92.5l12 10q-35 -69 -69.5 -95t-93.5 -26h-15q-25 0 -37 29t-12 64t12 61t37 26h5q77 0 114.5 41t55.5 108h15q14 -103 83 -133.5t169 -30.5zM971 557q74 0 117 -40t43 -105q0 -95 -62 -173.5t-162 -135t-218 -87.5t-230 -31
l-25 180q110 0 213 8t185.5 24.5t131 42.5t48.5 63q0 43 -44 75t-111 32q-31 0 -102.5 -37t-154.5 -96.5t-150 -128.5l-62 5q43 47 114.5 115t155.5 134t166.5 110.5t146.5 44.5zM904 155q67 17 136 21t131 4q15 0 26.5 -25t11.5 -65q0 -43 -12 -66.5t-26 -23.5
q-121 0 -216 15t-194 57z" />
    <glyph glyph-name="uni0635.fina" unicode="&#x635;" horiz-adv-x="1604" arabic-form="final" 
d="M869 165l25 -180q-60 0 -92.5 6.5t-67.5 24.5l-22 183q41 -22 68 -28t89 -6zM681 331q38 -76 56.5 -151.5t18.5 -145.5q0 -123 -52.5 -221t-150 -155.5t-232.5 -57.5q-133 0 -207 68.5t-74 204.5q0 64 15.5 127.5t38.5 114.5t45 78l18 -8q-18 -45 -30.5 -94t-12.5 -100
q0 -119 71.5 -165t180.5 -46q55 0 122 14t126 44t88 79l-5 -20q2 85 -25.5 153t-71.5 136zM1404 557q74 0 117 -40t43 -105q0 -95 -62 -173.5t-162 -135t-218 -87.5t-230 -31l-25 180q110 0 213 8t185.5 24.5t131 42.5t48.5 63q0 43 -44 75t-111 32q-31 0 -102.5 -37
t-154.5 -96.5t-150 -128.5l-62 5q43 47 114.5 115t155.5 134t166.5 110.5t146.5 44.5zM1336 155q67 17 136 21t131 4q15 0 26.5 -25t11.5 -65q0 -43 -12 -66.5t-26 -23.5q-121 0 -216 15t-194 57z" />
    <glyph glyph-name="uni0636.init" unicode="&#x636;" horiz-adv-x="1171" arabic-form="initial" 
d="M437 165l24 -180q-127 0 -202 33.5t-98 92.5l12 10q-35 -69 -69.5 -95t-93.5 -26h-15q-25 0 -37 29t-12 64t12 61t37 26h5q77 0 114.5 41t55.5 108h15q14 -103 83 -133.5t169 -30.5zM971 557q74 0 117 -40t43 -105q0 -95 -62 -173.5t-162 -135t-218 -87.5t-230 -31
l-25 180q110 0 213 8t185.5 24.5t131 42.5t48.5 63q0 43 -44 75t-111 32q-31 0 -102.5 -37t-154.5 -96.5t-150 -128.5l-62 5q43 47 114.5 115t155.5 134t166.5 110.5t146.5 44.5zM571 764q64 -45 104 -104l-104 -104q-20 31 -46.5 56.5t-57.5 47.5z" />
    <glyph glyph-name="uni0636.medi" unicode="&#x636;" horiz-adv-x="1171" arabic-form="medial" 
d="M437 165l24 -180q-127 0 -202 33.5t-98 92.5l12 10q-35 -69 -69.5 -95t-93.5 -26h-15q-25 0 -37 29t-12 64t12 61t37 26h5q77 0 114.5 41t55.5 108h15q14 -103 83 -133.5t169 -30.5zM971 557q74 0 117 -40t43 -105q0 -95 -62 -173.5t-162 -135t-218 -87.5t-230 -31
l-25 180q110 0 213 8t185.5 24.5t131 42.5t48.5 63q0 43 -44 75t-111 32q-31 0 -102.5 -37t-154.5 -96.5t-150 -128.5l-62 5q43 47 114.5 115t155.5 134t166.5 110.5t146.5 44.5zM904 155q67 17 136 21t131 4q15 0 26.5 -25t11.5 -65q0 -43 -12 -66.5t-26 -23.5
q-121 0 -216 15t-194 57zM571 764q64 -45 104 -104l-104 -104q-20 31 -46.5 56.5t-57.5 47.5z" />
    <glyph glyph-name="uni0636.fina" unicode="&#x636;" horiz-adv-x="1604" arabic-form="final" 
d="M869 165l25 -180q-60 0 -92.5 6.5t-67.5 24.5l-22 183q41 -22 68 -28t89 -6zM681 331q38 -76 56.5 -151.5t18.5 -145.5q0 -123 -52.5 -221t-150 -155.5t-232.5 -57.5q-133 0 -207 68.5t-74 204.5q0 64 15.5 127.5t38.5 114.5t45 78l18 -8q-18 -45 -30.5 -94t-12.5 -100
q0 -119 71.5 -165t180.5 -46q55 0 122 14t126 44t88 79l-5 -20q2 85 -25.5 153t-71.5 136zM1404 557q74 0 117 -40t43 -105q0 -95 -62 -173.5t-162 -135t-218 -87.5t-230 -31l-25 180q110 0 213 8t185.5 24.5t131 42.5t48.5 63q0 43 -44 75t-111 32q-31 0 -102.5 -37
t-154.5 -96.5t-150 -128.5l-62 5q43 47 114.5 115t155.5 134t166.5 110.5t146.5 44.5zM1336 155q67 17 136 21t131 4q15 0 26.5 -25t11.5 -65q0 -43 -12 -66.5t-26 -23.5q-121 0 -216 15t-194 57zM1004 764q64 -45 104 -104l-104 -104q-20 31 -46.5 56.5t-57.5 47.5z" />
    <glyph glyph-name="uni0637.init" unicode="&#x637;" horiz-adv-x="806" arabic-form="initial" 
d="M0 0q-22 0 -32.5 27.5t-10.5 62.5t10.5 62.5t32.5 27.5h71l25 -180h-96zM196 1181l13 -8q-75 -141 79 -191l-54 -138q-62 27 -107.5 63t-45.5 76q0 33 24 75t51.5 77.5t39.5 45.5zM606 572q74 0 117 -40t43 -105q0 -95 -62 -173.5t-162 -135t-218 -87.5t-230 -31l-25 180
q110 0 213 8t185.5 24.5t131 42.5t48.5 63q0 43 -44 75t-111 32q-31 0 -102.5 -37t-154.5 -96.5t-150 -128.5l-62 5q43 47 114.5 115t155.5 134t166.5 110.5t146.5 44.5zM154 247q3 345 -24 690q21 -13 42 -25.5t42 -24.5q15 -293 0 -587q-15 -14 -30 -27z" />
    <glyph glyph-name="uni0637.medi" unicode="&#x637;" horiz-adv-x="806" arabic-form="medial" 
d="M0 0q-22 0 -32.5 27.5t-10.5 62.5t10.5 62.5t32.5 27.5h71l25 -180h-96zM196 1181l13 -8q-75 -141 79 -191l-54 -138q-62 27 -107.5 63t-45.5 76q0 33 24 75t51.5 77.5t39.5 45.5zM606 572q74 0 117 -40t43 -105q0 -95 -62 -173.5t-162 -135t-218 -87.5t-230 -31l-25 180
q110 0 213 8t185.5 24.5t131 42.5t48.5 63q0 43 -44 75t-111 32q-31 0 -102.5 -37t-154.5 -96.5t-150 -128.5l-62 5q43 47 114.5 115t155.5 134t166.5 110.5t146.5 44.5zM154 247q3 345 -24 690q21 -13 42 -25.5t42 -24.5q15 -293 0 -587q-15 -14 -30 -27zM539 155
q67 17 136 21t131 4q15 0 26.5 -25t11.5 -65q0 -43 -12 -66.5t-26 -23.5q-121 0 -216 15t-194 57z" />
    <glyph glyph-name="uni0637.fina" unicode="&#x637;" horiz-adv-x="1114" arabic-form="final" 
d="M404 -15q-157 0 -253.5 62.5t-161.5 150.5l6 14q83 -25 183 -36t201 -11zM493 1181l13 -8q-75 -141 79 -191l-54 -138q-62 27 -107.5 63t-45.5 76q0 33 24 75t51.5 77.5t39.5 45.5zM914 557q74 0 117 -40t43 -105q0 -95 -62 -173.5t-162 -135t-218 -87.5t-230 -31
l-25 180q110 0 213 8t185.5 24.5t131 42.5t48.5 63q0 43 -44 75t-111 32q-31 0 -102.5 -37t-154.5 -96.5t-150 -128.5l-62 5q43 47 114.5 115t155.5 134t166.5 110.5t146.5 44.5zM447 247q3 345 -24 690q21 -13 42 -25.5t42 -24.5q15 -293 0 -587q-15 -14 -30 -27zM846 155
q67 17 136 21t131 4q15 0 26.5 -25t11.5 -65q0 -43 -12 -66.5t-26 -23.5q-121 0 -216 15t-194 57z" />
    <glyph glyph-name="uni0638.init" unicode="&#x638;" horiz-adv-x="806" arabic-form="initial" 
d="M0 0q-22 0 -32.5 27.5t-10.5 62.5t10.5 62.5t32.5 27.5h71l25 -180h-96zM196 1181l13 -8q-75 -141 79 -191l-54 -138q-62 27 -107.5 63t-45.5 76q0 33 24 75t51.5 77.5t39.5 45.5zM606 572q74 0 117 -40t43 -105q0 -95 -62 -173.5t-162 -135t-218 -87.5t-230 -31l-25 180
q110 0 213 8t185.5 24.5t131 42.5t48.5 63q0 43 -44 75t-111 32q-31 0 -102.5 -37t-154.5 -96.5t-150 -128.5l-62 5q43 47 114.5 115t155.5 134t166.5 110.5t146.5 44.5zM154 247q3 345 -24 690q21 -13 42 -25.5t42 -24.5q15 -293 0 -587q-15 -14 -30 -27zM521 945
q64 -45 104 -104l-104 -104q-20 31 -46.5 56.5t-57.5 47.5z" />
    <glyph glyph-name="uni0638.medi" unicode="&#x638;" horiz-adv-x="806" arabic-form="medial" 
d="M0 0q-22 0 -32.5 27.5t-10.5 62.5t10.5 62.5t32.5 27.5h71l25 -180h-96zM196 1181l13 -8q-75 -141 79 -191l-54 -138q-62 27 -107.5 63t-45.5 76q0 33 24 75t51.5 77.5t39.5 45.5zM606 572q74 0 117 -40t43 -105q0 -95 -62 -173.5t-162 -135t-218 -87.5t-230 -31l-25 180
q110 0 213 8t185.5 24.5t131 42.5t48.5 63q0 43 -44 75t-111 32q-31 0 -102.5 -37t-154.5 -96.5t-150 -128.5l-62 5q43 47 114.5 115t155.5 134t166.5 110.5t146.5 44.5zM154 247q3 345 -24 690q21 -13 42 -25.5t42 -24.5q15 -293 0 -587q-15 -14 -30 -27zM539 155
q67 17 136 21t131 4q15 0 26.5 -25t11.5 -65q0 -43 -12 -66.5t-26 -23.5q-121 0 -216 15t-194 57zM521 945q64 -45 104 -104l-104 -104q-20 31 -46.5 56.5t-57.5 47.5z" />
    <glyph glyph-name="uni0638.fina" unicode="&#x638;" horiz-adv-x="1114" arabic-form="final" 
d="M404 -15q-157 0 -253.5 62.5t-161.5 150.5l6 14q83 -25 183 -36t201 -11zM493 1181l13 -8q-75 -141 79 -191l-54 -138q-62 27 -107.5 63t-45.5 76q0 33 24 75t51.5 77.5t39.5 45.5zM914 557q74 0 117 -40t43 -105q0 -95 -62 -173.5t-162 -135t-218 -87.5t-230 -31
l-25 180q110 0 213 8t185.5 24.5t131 42.5t48.5 63q0 43 -44 75t-111 32q-31 0 -102.5 -37t-154.5 -96.5t-150 -128.5l-62 5q43 47 114.5 115t155.5 134t166.5 110.5t146.5 44.5zM447 247q3 345 -24 690q21 -13 42 -25.5t42 -24.5q15 -293 0 -587q-15 -14 -30 -27zM846 155
q67 17 136 21t131 4q15 0 26.5 -25t11.5 -65q0 -43 -12 -66.5t-26 -23.5q-121 0 -216 15t-194 57zM829 935q64 -45 104 -104l-104 -104q-20 31 -46.5 56.5t-57.5 47.5z" />
    <glyph glyph-name="uni0639.init" unicode="&#x639;" horiz-adv-x="763" arabic-form="initial" 
d="M0 0q-23 0 -34.5 27.5t-11.5 62.5t11.5 62.5t34.5 27.5q82 0 149.5 4.5t142.5 17.5t177.5 39t253.5 68l-52 -145q-79 -41 -187.5 -79t-232.5 -61.5t-251 -23.5zM242 128q-23 22 -37.5 58t-21.5 73t-7 60q0 62 27 133t78 122t122 51q68 0 133 -48.5t93 -107.5l-11 -10
q-47 23 -81 32t-91 9q-36 0 -83 -17.5t-82 -41.5t-35 -44q0 -32 35.5 -76t89.5 -76.5t108 -32.5z" />
    <glyph glyph-name="uni0639.medi" unicode="&#x639;" horiz-adv-x="709" arabic-form="medial" 
d="M150 318q1 77 35 123.5t85.5 67t105.5 20.5q72 0 129.5 -33.5t57.5 -103.5q0 -43 -40.5 -108.5t-115.5 -130.5t-178.5 -109t-228.5 -44q-27 0 -40 27.5t-13 62.5t13 62.5t40 27.5q126 0 230 12.5t168 81.5h96q68 -94 215 -94q30 0 45 -27.5t15 -62.5t-15 -62.5t-45 -27.5
q-110 0 -176 32t-108 79.5t-76.5 95t-79.5 79.5t-119 32z" />
    <glyph glyph-name="uni0639.fina" unicode="&#x639;" horiz-adv-x="763" arabic-form="final" 
d="M569 -700q-197 0 -313 53t-166 150t-50 229q0 102 34 201t92 183t131 140l2 -13q-39 29 -69 37.5t-85 8.5q2 79 38.5 127.5t92 71t111.5 22.5q69 0 122.5 -31t53.5 -90q0 -51 -32.5 -86.5t-83 -66t-108 -67.5t-108 -90t-83 -132t-32.5 -197q0 -98 41 -153t112 -80
t161.5 -31t189.5 -6h223v-29zM763 0q-157 0 -258 53.5t-197 182.5l123 38q54 -54 127 -74t205 -20q23 0 34.5 -27.5t11.5 -62.5t-11.5 -62.5t-34.5 -27.5z" />
    <glyph glyph-name="uni063A.init" unicode="&#x63a;" horiz-adv-x="763" arabic-form="initial" 
d="M0 0q-23 0 -34.5 27.5t-11.5 62.5t11.5 62.5t34.5 27.5q82 0 149.5 4.5t142.5 17.5t177.5 39t253.5 68l-52 -145q-79 -41 -187.5 -79t-232.5 -61.5t-251 -23.5zM242 128q-23 22 -37.5 58t-21.5 73t-7 60q0 62 27 133t78 122t122 51q68 0 133 -48.5t93 -107.5l-11 -10
q-47 23 -81 32t-91 9q-36 0 -83 -17.5t-82 -41.5t-35 -44q0 -32 35.5 -76t89.5 -76.5t108 -32.5zM401 960q64 -45 104 -104l-104 -104q-20 31 -46.5 56.5t-57.5 47.5z" />
    <glyph glyph-name="uni063A.medi" unicode="&#x63a;" horiz-adv-x="709" arabic-form="medial" 
d="M150 318q1 77 35 123.5t85.5 67t105.5 20.5q72 0 129.5 -33.5t57.5 -103.5q0 -43 -40.5 -108.5t-115.5 -130.5t-178.5 -109t-228.5 -44q-27 0 -40 27.5t-13 62.5t13 62.5t40 27.5q126 0 230 12.5t168 81.5h96q68 -94 215 -94q30 0 45 -27.5t15 -62.5t-15 -62.5t-45 -27.5
q-110 0 -176 32t-108 79.5t-76.5 95t-79.5 79.5t-119 32zM404 858q64 -45 104 -104l-104 -104q-20 31 -46.5 56.5t-57.5 47.5z" />
    <glyph glyph-name="uni063A.fina" unicode="&#x63a;" horiz-adv-x="763" arabic-form="final" 
d="M569 -700q-197 0 -313 53t-166 150t-50 229q0 102 34 201t92 183t131 140l2 -13q-39 29 -69 37.5t-85 8.5q2 79 38.5 127.5t92 71t111.5 22.5q69 0 122.5 -31t53.5 -90q0 -51 -32.5 -86.5t-83 -66t-108 -67.5t-108 -90t-83 -132t-32.5 -197q0 -98 41 -153t112 -80
t161.5 -31t189.5 -6h223v-29zM763 0q-157 0 -258 53.5t-197 182.5l123 38q54 -54 127 -74t205 -20q23 0 34.5 -27.5t11.5 -62.5t-11.5 -62.5t-34.5 -27.5zM363 845q64 -45 104 -104l-104 -104q-20 31 -46.5 56.5t-57.5 47.5z" />
    <glyph glyph-name="uni063B.init" unicode="&#x63b;" horiz-adv-x="633" 
d="M690 1081l-37 -143q-64 -26 -147 -63.5t-159.5 -77t-127 -73.5t-50.5 -54t29.5 -39t73.5 -43.5t87.5 -61t73 -91.5t28.5 -136q0 -68 -31.5 -137.5t-110.5 -115.5t-224 -46h-95q-25 0 -37 27.5t-12 62.5t12 62.5t37 27.5h216q93 0 145 23.5t53 49.5q2 56 -35 99.5
t-92.5 78.5t-111 65t-93 58t-37.5 59q0 14 6 54.5t20 56.5q33 36 109.5 86.5t172 103.5t186 97.5t151.5 69.5zM14 1119q64 -45 104 -104l-104 -104q-20 31 -46.5 56.5t-57.5 47.5zM212 1119q64 -45 104 -104l-104 -104q-20 31 -46.5 56.5t-57.5 47.5z" />
    <glyph glyph-name="uni063B.medi" unicode="&#x63b;" horiz-adv-x="952" 
d="M690 1081l-37 -143q-64 -26 -147 -63.5t-159.5 -77t-127 -73.5t-50.5 -54t29.5 -39t73.5 -43.5t87.5 -61t73 -91.5t28.5 -136q0 -68 -31.5 -137.5t-110.5 -115.5t-224 -46h-95q-25 0 -37 27.5t-12 62.5t12 62.5t37 27.5h216q93 0 145 23.5t53 49.5q2 56 -35 99.5
t-92.5 78.5t-111 65t-93 58t-37.5 59q0 14 6 54.5t20 56.5q33 36 109.5 86.5t172 103.5t186 97.5t151.5 69.5zM239 607q158 -80 261 -156t174.5 -137.5t135.5 -97.5t144 -36q26 0 40.5 -26t14.5 -65q0 -41 -15.5 -65t-39.5 -24q-81 0 -149.5 38.5t-131.5 97.5t-127 121
t-137 108zM14 1119q64 -45 104 -104l-104 -104q-20 31 -46.5 56.5t-57.5 47.5zM212 1119q64 -45 104 -104l-104 -104q-20 31 -46.5 56.5t-57.5 47.5z" />
    <glyph glyph-name="uni063B.fina" unicode="&#x63b;" horiz-adv-x="1544" 
d="M600 0h-311q-124 0 -186.5 66t-62.5 157q0 64 30.5 131.5t91.5 128.5l13 -8q-19 -37 -27.5 -73t-8.5 -68q0 -69 45.5 -111.5t139.5 -42.5h276q18 0 28.5 -25t10.5 -57q0 -35 -9.5 -66.5t-29.5 -31.5zM1285 1081l-37 -143q-64 -26 -147 -63.5t-159.5 -77t-127 -73.5
t-50.5 -54t29.5 -39t73.5 -43.5t87.5 -61t73 -91.5t28.5 -136q0 -68 -31.5 -137.5t-110.5 -115.5t-224 -46h-95q-25 0 -37 27.5t-12 62.5t12 62.5t37 27.5h216q93 0 145 23.5t53 49.5q2 56 -35 99.5t-92.5 78.5t-111 65t-93 58t-37.5 59q0 14 6 54.5t20 56.5
q33 36 109.5 86.5t172 103.5t186 97.5t151.5 69.5zM829 607q158 -80 261 -156t174.5 -137.5t135.5 -97.5t144 -36q26 0 40.5 -26t14.5 -65q0 -41 -15.5 -65t-39.5 -24q-81 0 -149.5 38.5t-131.5 97.5t-127 121t-137 108zM609 1119q64 -45 104 -104l-104 -104
q-20 31 -46.5 56.5t-57.5 47.5zM807 1119q64 -45 104 -104l-104 -104q-20 31 -46.5 56.5t-57.5 47.5z" />
    <glyph glyph-name="uni063C.init" unicode="&#x63c;" horiz-adv-x="633" 
d="M690 1081l-37 -143q-64 -26 -147 -63.5t-159.5 -77t-127 -73.5t-50.5 -54t29.5 -39t73.5 -43.5t87.5 -61t73 -91.5t28.5 -136q0 -68 -31.5 -137.5t-110.5 -115.5t-224 -46h-95q-25 0 -37 27.5t-12 62.5t12 62.5t37 27.5h216q93 0 145 23.5t53 49.5q2 56 -35 99.5
t-92.5 78.5t-111 65t-93 58t-37.5 59q0 14 6 54.5t20 56.5q33 36 109.5 86.5t172 103.5t186 97.5t151.5 69.5zM137 -335q64 -45 104 -104l-104 -104q-20 31 -46.5 56.5t-57.5 47.5zM38 -131q64 -45 104 -104l-104 -104q-20 31 -46.5 56.5t-57.5 47.5zM236 -131
q64 -45 104 -104l-104 -104q-20 31 -46.5 56.5t-57.5 47.5z" />
    <glyph glyph-name="uni063C.medi" unicode="&#x63c;" horiz-adv-x="952" 
d="M690 1081l-37 -143q-64 -26 -147 -63.5t-159.5 -77t-127 -73.5t-50.5 -54t29.5 -39t73.5 -43.5t87.5 -61t73 -91.5t28.5 -136q0 -68 -31.5 -137.5t-110.5 -115.5t-224 -46h-95q-25 0 -37 27.5t-12 62.5t12 62.5t37 27.5h216q93 0 145 23.5t53 49.5q2 56 -35 99.5
t-92.5 78.5t-111 65t-93 58t-37.5 59q0 14 6 54.5t20 56.5q33 36 109.5 86.5t172 103.5t186 97.5t151.5 69.5zM239 607q158 -80 261 -156t174.5 -137.5t135.5 -97.5t144 -36q26 0 40.5 -26t14.5 -65q0 -41 -15.5 -65t-39.5 -24q-81 0 -149.5 38.5t-131.5 97.5t-127 121
t-137 108zM151 -329q64 -45 104 -104l-104 -104q-20 31 -46.5 56.5t-57.5 47.5zM52 -125q64 -45 104 -104l-104 -104q-20 31 -46.5 56.5t-57.5 47.5zM250 -125q64 -45 104 -104l-104 -104q-20 31 -46.5 56.5t-57.5 47.5z" />
    <glyph glyph-name="uni063C.fina" unicode="&#x63c;" horiz-adv-x="1544" 
d="M600 0h-311q-124 0 -186.5 66t-62.5 157q0 64 30.5 131.5t91.5 128.5l13 -8q-19 -37 -27.5 -73t-8.5 -68q0 -69 45.5 -111.5t139.5 -42.5h276q18 0 28.5 -25t10.5 -57q0 -35 -9.5 -66.5t-29.5 -31.5zM1285 1081l-37 -143q-64 -26 -147 -63.5t-159.5 -77t-127 -73.5
t-50.5 -54t29.5 -39t73.5 -43.5t87.5 -61t73 -91.5t28.5 -136q0 -68 -31.5 -137.5t-110.5 -115.5t-224 -46h-95q-25 0 -37 27.5t-12 62.5t12 62.5t37 27.5h216q93 0 145 23.5t53 49.5q2 56 -35 99.5t-92.5 78.5t-111 65t-93 58t-37.5 59q0 14 6 54.5t20 56.5
q33 36 109.5 86.5t172 103.5t186 97.5t151.5 69.5zM829 607q158 -80 261 -156t174.5 -137.5t135.5 -97.5t144 -36q26 0 40.5 -26t14.5 -65q0 -41 -15.5 -65t-39.5 -24q-81 0 -149.5 38.5t-131.5 97.5t-127 121t-137 108zM818 -335q64 -45 104 -104l-104 -104
q-20 31 -46.5 56.5t-57.5 47.5zM719 -131q64 -45 104 -104l-104 -104q-20 31 -46.5 56.5t-57.5 47.5zM917 -131q64 -45 104 -104l-104 -104q-20 31 -46.5 56.5t-57.5 47.5z" />
    <glyph glyph-name="uni063D.init" unicode="&#x63d;" horiz-adv-x="353" 
d="M0 180h63q90 0 134.5 16t44.5 31q0 30 -9 57.5t-32 51.5l57 145q29 -38 42 -87.5t13 -98.5q0 -124 -70.5 -209.5t-201.5 -85.5h-41q-25 0 -37 29t-12 64t12 61t37 26zM371 642l-55 -42q-25 33 -53 67.5t-49.5 58t-27.5 23.5q-5 0 -28.5 -23t-54 -56.5t-56.5 -66.5l-29 23
q37 48 78.5 94.5t73 77t38.5 30.5t35.5 -31t64 -74t63.5 -81zM100 -146q64 -45 104 -104l-104 -104q-20 31 -46.5 56.5t-57.5 47.5zM298 -146q64 -45 104 -104l-104 -104q-20 31 -46.5 56.5t-57.5 47.5z" />
    <glyph glyph-name="uni063D.medi" unicode="&#x63d;" horiz-adv-x="440" 
d="M0 0q-23 0 -35 27.5t-12 62.5t12 62.5t35 27.5h5q85 0 127.5 13.5t64 51t42.5 108.5l15 -3q-4 -25 -4 -50q0 -76 44.5 -98t139.5 -22h5q25 0 35.5 -27.5t10.5 -62.5t-10 -62.5t-36 -27.5h-19q-100 0 -149 37t-71 90l9 -3q-30 -51 -77.5 -87.5t-111.5 -36.5h-20zM377 508
l-55 -42q-25 33 -53 67.5t-49.5 58t-27.5 23.5q-5 0 -28.5 -23t-54 -56.5t-56.5 -66.5l-29 23q37 48 78.5 94.5t73 77t38.5 30.5t35.5 -31t64 -74t63.5 -81zM104 -146q64 -45 104 -104l-104 -104q-20 31 -46.5 56.5t-57.5 47.5zM302 -146q64 -45 104 -104l-104 -104
q-20 31 -46.5 56.5t-57.5 47.5z" />
    <glyph glyph-name="uni063D.fina" unicode="&#x63d;" horiz-adv-x="1055" 
d="M1055 180q23 0 35.5 -27.5t12.5 -62.5t-12 -62.5t-36 -27.5h-232q-89 0 -115 -9.5t-26 -20.5q0 -16 29.5 -23.5t73.5 -13t88 -15.5t73.5 -30t29.5 -58q0 -72 -54 -126.5t-141.5 -90.5t-189.5 -54.5t-197 -18.5q-146 0 -227 36t-108.5 97t-13 138t60.5 160.5t111 162.5
l14 -5q-86 -156 -91.5 -245.5t73 -126.5t244.5 -37q32 0 88.5 2.5t121.5 7.5t123.5 13t96 18.5t37.5 23.5q0 15 -29.5 21t-73 10t-87 13t-72 30t-26.5 62q3 56 39 116t109.5 101.5t186.5 41.5h84zM740 348l-55 -42q-25 33 -53 67.5t-49.5 58t-27.5 23.5q-5 0 -28.5 -23
t-54 -56.5t-56.5 -66.5l-29 23q37 48 78.5 94.5t73 77t38.5 30.5t35.5 -31t64 -74t63.5 -81z" />
    <glyph glyph-name="uni063E.init" unicode="&#x63e;" horiz-adv-x="353" 
d="M0 180h63q90 0 134.5 16t44.5 31q0 30 -9 57.5t-32 51.5l57 145q29 -38 42 -87.5t13 -98.5q0 -124 -70.5 -209.5t-201.5 -85.5h-41q-25 0 -37 29t-12 64t12 61t37 26zM107 814q64 -45 104 -104l-104 -104q-20 31 -46.5 56.5t-57.5 47.5zM305 814q64 -45 104 -104
l-104 -104q-20 31 -46.5 56.5t-57.5 47.5zM100 -146q64 -45 104 -104l-104 -104q-20 31 -46.5 56.5t-57.5 47.5zM298 -146q64 -45 104 -104l-104 -104q-20 31 -46.5 56.5t-57.5 47.5z" />
    <glyph glyph-name="uni063E.medi" unicode="&#x63e;" horiz-adv-x="440" 
d="M0 0q-23 0 -35 27.5t-12 62.5t12 62.5t35 27.5h5q85 0 127.5 13.5t64 51t42.5 108.5l15 -3q-4 -25 -4 -50q0 -76 44.5 -98t139.5 -22h5q25 0 35.5 -27.5t10.5 -62.5t-10 -62.5t-36 -27.5h-19q-100 0 -149 37t-71 90l9 -3q-30 -51 -77.5 -87.5t-111.5 -36.5h-20zM113 670
q64 -45 104 -104l-104 -104q-20 31 -46.5 56.5t-57.5 47.5zM311 670q64 -45 104 -104l-104 -104q-20 31 -46.5 56.5t-57.5 47.5zM104 -146q64 -45 104 -104l-104 -104q-20 31 -46.5 56.5t-57.5 47.5zM302 -146q64 -45 104 -104l-104 -104q-20 31 -46.5 56.5t-57.5 47.5z" />
    <glyph glyph-name="uni063E.fina" unicode="&#x63e;" horiz-adv-x="1055" 
d="M1055 180q23 0 35.5 -27.5t12.5 -62.5t-12 -62.5t-36 -27.5h-232q-89 0 -115 -9.5t-26 -20.5q0 -16 29.5 -23.5t73.5 -13t88 -15.5t73.5 -30t29.5 -58q0 -72 -54 -126.5t-141.5 -90.5t-189.5 -54.5t-197 -18.5q-146 0 -227 36t-108.5 97t-13 138t60.5 160.5t111 162.5
l14 -5q-86 -156 -91.5 -245.5t73 -126.5t244.5 -37q32 0 88.5 2.5t121.5 7.5t123.5 13t96 18.5t37.5 23.5q0 15 -29.5 21t-73 10t-87 13t-72 30t-26.5 62q3 56 39 116t109.5 101.5t186.5 41.5h84zM476 520q64 -45 104 -104l-104 -104q-20 31 -46.5 56.5t-57.5 47.5zM674 520
q64 -45 104 -104l-104 -104q-20 31 -46.5 56.5t-57.5 47.5z" />
    <glyph glyph-name="uni063F.init" unicode="&#x63f;" horiz-adv-x="353" 
d="M0 180h63q90 0 134.5 16t44.5 31q0 30 -9 57.5t-32 51.5l57 145q29 -38 42 -87.5t13 -98.5q0 -124 -70.5 -209.5t-201.5 -85.5h-41q-25 0 -37 29t-12 64t12 61t37 26zM203 1022q64 -45 104 -104l-104 -104q-20 31 -46.5 56.5t-57.5 47.5zM107 818q64 -45 104 -104
l-104 -104q-20 31 -46.5 56.5t-57.5 47.5zM305 818q64 -45 104 -104l-104 -104q-20 31 -46.5 56.5t-57.5 47.5zM100 -146q64 -45 104 -104l-104 -104q-20 31 -46.5 56.5t-57.5 47.5zM298 -146q64 -45 104 -104l-104 -104q-20 31 -46.5 56.5t-57.5 47.5z" />
    <glyph glyph-name="uni063F.medi" unicode="&#x63f;" horiz-adv-x="440" 
d="M0 0q-23 0 -35 27.5t-12 62.5t12 62.5t35 27.5h5q85 0 127.5 13.5t64 51t42.5 108.5l15 -3q-4 -25 -4 -50q0 -76 44.5 -98t139.5 -22h5q25 0 35.5 -27.5t10.5 -62.5t-10 -62.5t-36 -27.5h-19q-100 0 -149 37t-71 90l9 -3q-30 -51 -77.5 -87.5t-111.5 -36.5h-20zM209 878
q64 -45 104 -104l-104 -104q-20 31 -46.5 56.5t-57.5 47.5zM113 674q64 -45 104 -104l-104 -104q-20 31 -46.5 56.5t-57.5 47.5zM311 674q64 -45 104 -104l-104 -104q-20 31 -46.5 56.5t-57.5 47.5zM104 -146q64 -45 104 -104l-104 -104q-20 31 -46.5 56.5t-57.5 47.5z
M302 -146q64 -45 104 -104l-104 -104q-20 31 -46.5 56.5t-57.5 47.5z" />
    <glyph glyph-name="uni063F.fina" unicode="&#x63f;" horiz-adv-x="1055" 
d="M1055 180q23 0 35.5 -27.5t12.5 -62.5t-12 -62.5t-36 -27.5h-232q-89 0 -115 -9.5t-26 -20.5q0 -16 29.5 -23.5t73.5 -13t88 -15.5t73.5 -30t29.5 -58q0 -72 -54 -126.5t-141.5 -90.5t-189.5 -54.5t-197 -18.5q-146 0 -227 36t-108.5 97t-13 138t60.5 160.5t111 162.5
l14 -5q-86 -156 -91.5 -245.5t73 -126.5t244.5 -37q32 0 88.5 2.5t121.5 7.5t123.5 13t96 18.5t37.5 23.5q0 15 -29.5 21t-73 10t-87 13t-72 30t-26.5 62q3 56 39 116t109.5 101.5t186.5 41.5h84zM572 728q64 -45 104 -104l-104 -104q-20 31 -46.5 56.5t-57.5 47.5zM476 524
q64 -45 104 -104l-104 -104q-20 31 -46.5 56.5t-57.5 47.5zM674 524q64 -45 104 -104l-104 -104q-20 31 -46.5 56.5t-57.5 47.5z" />
    <glyph glyph-name="uni0641.init" unicode="&#x641;" horiz-adv-x="503" arabic-form="initial" 
d="M0 0q-30 0 -42.5 29t-12.5 57q0 31 12.5 62.5t42.5 31.5q95 0 183.5 3t150.5 18t78 49q0 34 -17.5 82t-45 95t-56 78.5t-51.5 31.5q-13 0 -33.5 -14t-36.5 -34t-16 -39q0 -9 11.5 -28.5t51.5 -19.5q37 0 77 24t44 54l46 -85q-9 -38 -39 -71t-68 -52.5t-70 -19.5
q-64 0 -86 37.5t-22 107.5q0 26 12.5 74t34.5 97.5t52 84t66 34.5q40 0 74 -37.5t60 -97.5t40.5 -129.5t14.5 -132.5q0 -61 -17.5 -115t-43.5 -83q-19 -21 -81 -42.5t-145 -35.5t-168 -14zM264 1021q64 -45 104 -104l-104 -104q-20 31 -46.5 56.5t-57.5 47.5z" />
    <glyph glyph-name="uni0641.medi" unicode="&#x641;" horiz-adv-x="513" arabic-form="medial" 
d="M296 620q42 0 65 -32.5t31.5 -75.5t8.5 -74q0 -127 -51 -226t-141 -155.5t-209 -56.5q-25 0 -37 27.5t-12 62.5t12 62.5t37 27.5q95 0 175 24.5t128 63.5t48 82q0 20 -24 55t-68 35q-29 0 -52.5 -19.5t-36.5 -43.5t-13 -40q0 -37 53 -73t135 -60t168 -24q29 0 42.5 -27.5
t13.5 -62.5t-13.5 -62.5t-42.5 -27.5q-116 0 -207.5 37t-143.5 100t-52 139q0 37 13 94.5t37 114.5t58.5 96t77.5 39zM285 954q64 -45 104 -104l-104 -104q-20 31 -46.5 56.5t-57.5 47.5z" />
    <glyph glyph-name="uni0641.fina" unicode="&#x641;" horiz-adv-x="1298" arabic-form="final" 
d="M454 -45q-69 0 -141.5 12t-134.5 39t-100 73t-38 114q0 64 30.5 131.5t91.5 128.5l13 -8q-19 -37 -27.5 -73t-8.5 -68q0 -61 42 -95.5t105 -50.5t127 -19.5t109 -3.5q171 0 310.5 32t221.5 81.5t82 101.5q0 20 -28 55t-64 35q-30 0 -53 -19.5t-36 -43.5t-13 -40
q0 -37 53 -73t135 -60t168 -24q29 0 42.5 -27.5t13.5 -62.5t-13.5 -62.5t-42.5 -27.5q-116 0 -207.5 37t-143.5 100t-52 139q0 37 13 94.5t37 114.5t58.5 96t77.5 39q42 0 65 -32.5t31.5 -75.5t8.5 -74q0 -136 -93 -245.5t-258 -173.5t-381 -64zM1070 929q64 -45 104 -104
l-104 -104q-20 31 -46.5 56.5t-57.5 47.5z" />
    <glyph glyph-name="uni0642.init" unicode="&#x642;" horiz-adv-x="503" arabic-form="initial" 
d="M0 0q-30 0 -42.5 29t-12.5 57q0 31 12.5 62.5t42.5 31.5q95 0 183.5 3t150.5 18t78 49q0 34 -17.5 82t-45 95t-56 78.5t-51.5 31.5q-13 0 -33.5 -14t-36.5 -34t-16 -39q0 -9 11.5 -28.5t51.5 -19.5q37 0 77 24t44 54l46 -85q-9 -38 -39 -71t-68 -52.5t-70 -19.5
q-64 0 -86 37.5t-22 107.5q0 26 12.5 74t34.5 97.5t52 84t66 34.5q40 0 74 -37.5t60 -97.5t40.5 -129.5t14.5 -132.5q0 -61 -17.5 -115t-43.5 -83q-19 -21 -81 -42.5t-145 -35.5t-168 -14zM165 1021q64 -45 104 -104l-104 -104q-20 31 -46.5 56.5t-57.5 47.5zM363 1021
q64 -45 104 -104l-104 -104q-20 31 -46.5 56.5t-57.5 47.5z" />
    <glyph glyph-name="uni0642.medi" unicode="&#x642;" horiz-adv-x="513" arabic-form="medial" 
d="M296 620q42 0 65 -32.5t31.5 -75.5t8.5 -74q0 -127 -51 -226t-141 -155.5t-209 -56.5q-25 0 -37 27.5t-12 62.5t12 62.5t37 27.5q95 0 175 24.5t128 63.5t48 82q0 20 -24 55t-68 35q-29 0 -52.5 -19.5t-36.5 -43.5t-13 -40q0 -37 53 -73t135 -60t168 -24q29 0 42.5 -27.5
t13.5 -62.5t-13.5 -62.5t-42.5 -27.5q-116 0 -207.5 37t-143.5 100t-52 139q0 37 13 94.5t37 114.5t58.5 96t77.5 39zM186 954q64 -45 104 -104l-104 -104q-20 31 -46.5 56.5t-57.5 47.5zM384 954q64 -45 104 -104l-104 -104q-20 31 -46.5 56.5t-57.5 47.5z" />
    <glyph glyph-name="uni0642.fina" unicode="&#x642;" horiz-adv-x="909" arabic-form="final" 
d="M352 -330q-154 0 -233 89.5t-79 219.5q0 71 22 145t70 149l14 -6q-46 -123 -46 -209q0 -101 67 -154.5t209 -53.5q97 0 186.5 26t147 78t57.5 130q0 70 -19.5 119t-44.5 75.5t-42 26.5q-20 0 -43 -31t-23 -51q0 -9 24.5 -26t73.5 -17h216q26 0 38 -27.5t12 -62.5
t-12 -62.5t-38 -27.5h-212q-63 0 -110 50t-47 120q0 26 6.5 77.5t21.5 106t41.5 93t65.5 38.5q38 0 65 -38.5t43.5 -100.5t24 -133.5t7.5 -138.5q0 -117 -62 -208t-166.5 -143.5t-234.5 -52.5zM577 819q64 -45 104 -104l-104 -104q-20 31 -46.5 56.5t-57.5 47.5zM775 819
q64 -45 104 -104l-104 -104q-20 31 -46.5 56.5t-57.5 47.5z" />
    <glyph glyph-name="uni0643.init" unicode="&#x643;" horiz-adv-x="633" arabic-form="initial" 
d="M690 1081l-37 -143q-64 -26 -147 -63.5t-159.5 -77t-127 -73.5t-50.5 -54t29.5 -39t73.5 -43.5t87.5 -61t73 -91.5t28.5 -136q0 -68 -31.5 -137.5t-110.5 -115.5t-224 -46h-95q-25 0 -37 27.5t-12 62.5t12 62.5t37 27.5h216q93 0 145 23.5t53 49.5q2 56 -35 99.5
t-92.5 78.5t-111 65t-93 58t-37.5 59q0 14 6 54.5t20 56.5q33 36 109.5 86.5t172 103.5t186 97.5t151.5 69.5z" />
    <glyph glyph-name="uni0643.medi" unicode="&#x643;" horiz-adv-x="952" arabic-form="medial" 
d="M690 1081l-37 -143q-64 -26 -147 -63.5t-159.5 -77t-127 -73.5t-50.5 -54t29.5 -39t73.5 -43.5t87.5 -61t73 -91.5t28.5 -136q0 -68 -31.5 -137.5t-110.5 -115.5t-224 -46h-95q-25 0 -37 27.5t-12 62.5t12 62.5t37 27.5h216q93 0 145 23.5t53 49.5q2 56 -35 99.5
t-92.5 78.5t-111 65t-93 58t-37.5 59q0 14 6 54.5t20 56.5q33 36 109.5 86.5t172 103.5t186 97.5t151.5 69.5zM239 607q158 -80 261 -156t174.5 -137.5t135.5 -97.5t144 -36q26 0 40.5 -26t14.5 -65q0 -41 -15.5 -65t-39.5 -24q-81 0 -149.5 38.5t-131.5 97.5t-127 121
t-137 108z" />
    <glyph glyph-name="uni0643.fina" unicode="&#x643;" horiz-adv-x="1179" arabic-form="final" 
d="M741 0q-32 0 -45.5 27.5t-13.5 62.5t13.5 62.5t45.5 27.5q80 0 119 43.5t39 122.5q0 21 -1.5 69.5t-9 154t-26.5 295.5l74 110q6 -127 13 -254t17 -255q12 -147 66.5 -216.5t146.5 -69.5q30 0 45 -27.5t15 -62.5t-15 -62.5t-45 -27.5q-56 0 -100.5 36.5t-75.5 91.5
t-48 109l5 2q-11 -107 -70.5 -173t-148.5 -66zM689 568q0 -75 -72.5 -120t-204.5 -45q-28 0 -64 17t-54 34q53 0 116.5 6.5t109 19t45.5 26.5t-25 19.5t-57.5 10t-57.5 15t-25 33.5q0 59 57.5 129t151.5 110l26 -89q-19 -5 -48.5 -17.5t-52.5 -28t-23 -29.5t27 -19.5
t62 -10.5t62 -18t27 -43zM600 0h-311q-124 0 -186.5 66t-62.5 157q0 64 30.5 131.5t91.5 128.5l13 -8q-19 -37 -27.5 -73t-8.5 -68q0 -69 45.5 -111.5t139.5 -42.5h276q18 0 28.5 -25t10.5 -57q0 -35 -9.5 -66.5t-29.5 -31.5zM938 1108l13 -8q-75 -141 79 -191l-54 -138
q-62 27 -107.5 63t-45.5 76q0 33 23.5 75t51.5 77.5t40 45.5zM739 0h-135q-32 0 -45.5 27.5t-13.5 62.5t13.5 62.5t45.5 27.5h135q30 0 45 -27.5t15 -62.5t-15 -62.5t-45 -27.5z" />
    <glyph glyph-name="uni0644.init" unicode="&#x644;" horiz-adv-x="352" arabic-form="initial" 
d="M173 923l91 -59q6 -141 11.5 -282t11.5 -282q0 -71 -31.5 -140.5t-95 -114.5t-160.5 -45q-23 0 -34.5 27.5t-11.5 62.5t11.5 62.5t34.5 27.5q46 0 95.5 4.5t86.5 16.5t43 34l-9 -35q4 12 4 50q0 77 -11 250t-36 423zM250 1115l13 -8q-75 -141 79 -191l-54 -138
q-62 27 -107.5 63t-45.5 76q0 33 24 75t51.5 77.5t39.5 45.5z" />
    <glyph glyph-name="uni0644.medi" unicode="&#x644;" horiz-adv-x="438" arabic-form="medial" 
d="M194 1093l37 -627q12 -147 63.5 -216.5t143.5 -69.5q30 0 45 -27.5t15 -62.5t-15 -62.5t-45 -27.5q-56 0 -100.5 36.5t-75.5 91.5t-48 109l5 2q-11 -107 -70.5 -173t-148.5 -66q-32 0 -45.5 27.5t-13.5 62.5t13.5 62.5t45.5 27.5q80 0 120 52t40 131q0 31 -8 184t-39 439
z" />
    <glyph glyph-name="uni0644.fina" unicode="&#x644;" horiz-adv-x="867" arabic-form="final" 
d="M270 -400q-109 0 -169.5 74t-60.5 196q0 96 34 185.5t65 131.5l18 -5q-18 -45 -30.5 -94t-12.5 -100q0 -106 57 -157t147 -51q39 0 98 15.5t110 48t64 82.5l-9 -35q8 24 0.5 164t-28 377.5t-51.5 553.5l81 107l65 -1083q4 -62 -13.5 -133t-61 -134t-118 -103t-185.5 -40z
M867 0q-83 0 -152 57t-96 136l-3 350q7 -135 25.5 -214.5t69.5 -114t156 -34.5q38 0 49 -30.5t11 -59.5q0 -11 -4.5 -33t-17.5 -39.5t-38 -17.5z" />
    <glyph glyph-name="uni0645.init" unicode="&#x645;" horiz-adv-x="615" arabic-form="initial" 
d="M0 0q-26 0 -39 27.5t-13 62.5t13 62.5t39 27.5q95 0 151 23t105 113q44 80 86 140t98 60q37 0 67.5 -44.5t49 -115t18.5 -149.5q0 -52 -26 -90t-49 -38q-53 0 -106.5 22.5t-90 52t-40.5 49.5l77 148q-7 -17 21 -38t65 -36t55 -15q11 0 11 10q0 11 -8.5 39t-21.5 59.5
t-27 54.5t-26 23q-30 0 -49.5 -45t-41 -112t-57.5 -134t-98 -112t-163 -45z" />
    <glyph glyph-name="uni0645.medi" unicode="&#x645;" horiz-adv-x="694" arabic-form="medial" 
d="M328 389q37 0 59 -21t42 -52t49.5 -62.5t80 -52.5t135.5 -21q29 0 43 -27.5t14 -62.5t-14 -62.5t-43 -27.5q-82 0 -134.5 18t-79.5 62h8q0 -52 -26 -90t-49 -38q-80 0 -142 42t-99 86l21 5q-28 -47 -77.5 -66t-115.5 -19q-25 0 -37 27.5t-12 62.5t12 62.5t37 27.5
q71 0 115 21t71.5 52.5t47.5 62.5t41 52t53 21zM252 220q0 -17 28 -37t62 -34t52 -14q11 0 11 10q0 11 -8.5 39t-21.5 60t-27 54.5t-26 22.5q-13 0 -29.5 -21.5t-28.5 -46t-12 -33.5z" />
    <glyph glyph-name="uni0645.fina" unicode="&#x645;" horiz-adv-x="625" arabic-form="final" 
d="M92 -602q0 169 -26 301t-26 217q0 56 30 118t75 112t93 73t84 0l-23 -23q2 45 26 89.5t58 48.5l15 -5q26 -85 80 -117t147 -32q28 0 44 -27.5t16 -62.5q0 -37 -16.5 -63.5t-43.5 -26.5q-52 0 -96 13t-77 63l9 8q2 -100 -14 -144t-35 -44q-67 0 -109.5 57.5t-56.5 147.5
l30 -32q-25 14 -63.5 -3.5t-68.5 -45t-30 -45.5q0 -61 6 -127.5t11.5 -152t5.5 -203.5z" />
    <glyph glyph-name="uni0646.init" unicode="&#x646;" horiz-adv-x="353" arabic-form="initial" 
d="M0 180h63q90 0 134.5 16t44.5 31q0 30 -9 57.5t-32 51.5l57 145q29 -38 42 -87.5t13 -98.5q0 -124 -70.5 -209.5t-201.5 -85.5h-41q-25 0 -37 29t-12 64t12 61t37 26zM206 814q64 -45 104 -104l-104 -104q-20 31 -46.5 56.5t-57.5 47.5z" />
    <glyph glyph-name="uni0646.medi" unicode="&#x646;" horiz-adv-x="440" arabic-form="medial" 
d="M0 0q-23 0 -35 27.5t-12 62.5t12 62.5t35 27.5h5q85 0 127.5 13.5t64 51t42.5 108.5l15 -3q-4 -25 -4 -50q0 -76 44.5 -98t139.5 -22h5q25 0 35.5 -27.5t10.5 -62.5t-10 -62.5t-36 -27.5h-19q-100 0 -149 37t-71 90l9 -3q-30 -51 -77.5 -87.5t-111.5 -36.5h-20zM212 680
q64 -45 104 -104l-104 -104q-20 31 -46.5 56.5t-57.5 47.5z" />
    <glyph glyph-name="uni0646.fina" unicode="&#x646;" horiz-adv-x="907" arabic-form="final" 
d="M907 180q31 0 46.5 -27.5t15.5 -62.5t-15.5 -62.5t-46.5 -27.5q-48 0 -108.5 23.5t-89.5 53.5v171q11 -25 45 -40t76 -21.5t77 -6.5zM681 331q38 -76 56.5 -151.5t18.5 -145.5q0 -123 -52.5 -221t-150 -155.5t-232.5 -57.5q-133 0 -207 68.5t-74 204.5q0 64 15.5 127.5
t38.5 114.5t45 78l18 -8q-18 -45 -30.5 -94t-12.5 -100q0 -119 71.5 -165t180.5 -46q55 0 122 14t126 44t88 79l-5 -20q2 85 -25.5 153t-71.5 136zM385 471q64 -45 104 -104l-104 -104q-20 31 -46.5 56.5t-57.5 47.5z" />
    <glyph glyph-name="uni0647.init" unicode="&#x647;" horiz-adv-x="577" arabic-form="initial" 
d="M193 665q125 -72 195 -133.5t101.5 -114t39.5 -97t8 -81.5q0 -82 -36.5 -134.5t-103.5 -52.5q-71 0 -149 24t-132.5 77t-54.5 139q0 55 25 115.5t67.5 103t94.5 42.5q32 0 52.5 -28t33 -66.5t17.5 -71t5 -41.5q0 -90 -46 -169t-126.5 -128t-183.5 -49q-23 0 -34.5 27.5
t-11.5 62.5t11.5 62.5t34.5 27.5q93 0 164 32t111.5 70.5t40.5 58.5q0 14 -18 39.5t-41 46.5t-38 21t-43.5 -23t-51.5 -50.5t-23 -42.5q0 -12 47 -40t124 -51.5t166 -23.5q27 0 43 9.5t16 19.5q0 23 -47.5 66t-133.5 93.5t-201 97.5z" />
    <glyph glyph-name="uni0647.medi" unicode="&#x647;" horiz-adv-x="698" arabic-form="medial" 
d="M698 180q32 0 47.5 -28t15.5 -63t-15.5 -62t-47.5 -27h-57q-23 0 -66.5 3.5t-92.5 11.5q19 -31 24.5 -57t5.5 -33q0 -60 -15 -118.5t-46 -97.5t-80 -39q-73 0 -126 92t-68 234q-38 2 -82 3t-95 1q-23 0 -34.5 27t-11.5 62t11.5 63t34.5 28q50 0 95 3.5t85 8.5
q13 69 41 140t67 131t84.5 97t94.5 37q29 0 49.5 -37.5t20.5 -106.5q0 -93 -28.5 -159.5t-98.5 -119.5q46 4 114 5t174 1zM423 417q-40 0 -78.5 -31.5t-68.5 -81.5t-48 -104q116 23 181 58t65 60q0 99 -51 99zM408 -158q26 0 43 8t17 18q0 50 -49 81t-195 43
q26 -86 82.5 -118t101.5 -32z" />
    <glyph glyph-name="uni0647.fina" unicode="&#x647;" horiz-adv-x="642" arabic-form="final" 
d="M642 0q-92 0 -143.5 34t-79 109.5t-45.5 199.5t-43 303l62 82q15 -169 30.5 -276.5t40.5 -166.5t67 -82t111 -23q27 0 41.5 -27.5t14.5 -62.5q0 -37 -16.5 -63.5t-39.5 -26.5zM174 50q-17 0 -49.5 4t-58.5 17t-26 38q0 101 44.5 172.5t119 118t164.5 72.5l9 -74
q-46 -8 -93 -34t-79 -56t-32 -50q0 -13 15 -15.5t49 -2.5q27 0 62 9.5t60.5 24t23.5 28.5l30 -94q-71 -158 -239 -158z" />
    <glyph glyph-name="uni0648.fina" unicode="&#x648;" horiz-adv-x="729" arabic-form="final" 
d="M257 -390q-50 0 -108.5 19t-111.5 46.5t-88 54.5l7 14q53 -12 115 -12q77 0 166 22t168.5 64.5t130.5 104.5t51 141q0 70 -19.5 119t-44.5 75.5t-42 26.5q-20 0 -43 -21t-23 -41q0 -9 24.5 -26t73.5 -17h216q26 0 38 -27.5t12 -62.5t-12 -62.5t-38 -27.5h-212
q-63 0 -110 50t-47 120q0 26 6.5 74.5t21.5 99t41.5 86t65.5 35.5q38 0 65 -38.5t43.5 -100.5t24 -133.5t7.5 -138.5q0 -112 -41 -195.5t-102.5 -138.5t-125.5 -82.5t-109 -27.5z" />
    <glyph glyph-name="uni0649.init" unicode="&#x649;" horiz-adv-x="353" 
d="M0 180h63q90 0 134.5 16t44.5 31q0 30 -9 57.5t-32 51.5l57 145q29 -38 42 -87.5t13 -98.5q0 -124 -70.5 -209.5t-201.5 -85.5h-41q-25 0 -37 29t-12 64t12 61t37 26z" />
    <glyph glyph-name="uni0649.medi" unicode="&#x649;" horiz-adv-x="440" 
d="M0 0q-23 0 -35 27.5t-12 62.5t12 62.5t35 27.5h5q85 0 127.5 13.5t64 51t42.5 108.5l15 -3q-4 -25 -4 -50q0 -76 44.5 -98t139.5 -22h5q25 0 35.5 -27.5t10.5 -62.5t-10 -62.5t-36 -27.5h-19q-100 0 -149 37t-71 90l9 -3q-30 -51 -77.5 -87.5t-111.5 -36.5h-20z" />
    <glyph glyph-name="uni0649.fina" unicode="&#x649;" horiz-adv-x="1055" arabic-form="final" 
d="M1055 180q23 0 35.5 -27.5t12.5 -62.5t-12 -62.5t-36 -27.5h-232q-89 0 -115 -9.5t-26 -20.5q0 -16 29.5 -23.5t73.5 -13t88 -15.5t73.5 -30t29.5 -58q0 -72 -54 -126.5t-141.5 -90.5t-189.5 -54.5t-197 -18.5q-146 0 -227 36t-108.5 97t-13 138t60.5 160.5t111 162.5
l14 -5q-86 -156 -91.5 -245.5t73 -126.5t244.5 -37q32 0 88.5 2.5t121.5 7.5t123.5 13t96 18.5t37.5 23.5q0 15 -29.5 21t-73 10t-87 13t-72 30t-26.5 62q3 56 39 116t109.5 101.5t186.5 41.5h84z" />
    <glyph glyph-name="uni064A.init" unicode="&#x64a;" horiz-adv-x="353" arabic-form="initial" 
d="M0 180h63q90 0 134.5 16t44.5 31q0 30 -9 57.5t-32 51.5l57 145q29 -38 42 -87.5t13 -98.5q0 -124 -70.5 -209.5t-201.5 -85.5h-41q-25 0 -37 29t-12 64t12 61t37 26zM100 -146q64 -45 104 -104l-104 -104q-20 31 -46.5 56.5t-57.5 47.5zM298 -146q64 -45 104 -104
l-104 -104q-20 31 -46.5 56.5t-57.5 47.5z" />
    <glyph glyph-name="uni064A.medi" unicode="&#x64a;" horiz-adv-x="440" arabic-form="medial" 
d="M0 0q-23 0 -35 27.5t-12 62.5t12 62.5t35 27.5h5q85 0 127.5 13.5t64 51t42.5 108.5l15 -3q-4 -25 -4 -50q0 -76 44.5 -98t139.5 -22h5q25 0 35.5 -27.5t10.5 -62.5t-10 -62.5t-36 -27.5h-19q-100 0 -149 37t-71 90l9 -3q-30 -51 -77.5 -87.5t-111.5 -36.5h-20zM104 -146
q64 -45 104 -104l-104 -104q-20 31 -46.5 56.5t-57.5 47.5zM302 -146q64 -45 104 -104l-104 -104q-20 31 -46.5 56.5t-57.5 47.5z" />
    <glyph glyph-name="uni064A.fina" unicode="&#x64a;" horiz-adv-x="1055" arabic-form="final" 
d="M1055 180q23 0 35.5 -27.5t12.5 -62.5t-12 -62.5t-36 -27.5h-232q-89 0 -115 -9.5t-26 -20.5q0 -16 29.5 -23.5t73.5 -13t88 -15.5t73.5 -30t29.5 -58q0 -72 -54 -126.5t-141.5 -90.5t-189.5 -54.5t-197 -18.5q-146 0 -227 36t-108.5 97t-13 138t60.5 160.5t111 162.5
l14 -5q-86 -156 -91.5 -245.5t73 -126.5t244.5 -37q32 0 88.5 2.5t121.5 7.5t123.5 13t96 18.5t37.5 23.5q0 15 -29.5 21t-73 10t-87 13t-72 30t-26.5 62q3 56 39 116t109.5 101.5t186.5 41.5h84zM351 -576q64 -45 104 -104l-104 -104q-20 31 -46.5 56.5t-57.5 47.5z
M549 -576q64 -45 104 -104l-104 -104q-20 31 -46.5 56.5t-57.5 47.5z" />
    <glyph glyph-name="uni066E.init" unicode="&#x66e;" horiz-adv-x="353" 
d="M0 180h63q90 0 134.5 16t44.5 31q0 30 -9 57.5t-32 51.5l57 145q29 -38 42 -87.5t13 -98.5q0 -124 -70.5 -209.5t-201.5 -85.5h-41q-25 0 -37 29t-12 64t12 61t37 26z" />
    <glyph glyph-name="uni066E.medi" unicode="&#x66e;" horiz-adv-x="440" 
d="M0 0q-23 0 -35 27.5t-12 62.5t12 62.5t35 27.5h5q85 0 127.5 13.5t64 51t42.5 108.5l15 -3q-4 -25 -4 -50q0 -76 44.5 -98t139.5 -22h5q25 0 35.5 -27.5t10.5 -62.5t-10 -62.5t-36 -27.5h-19q-100 0 -149 37t-71 90l9 -3q-30 -51 -77.5 -87.5t-111.5 -36.5h-20z" />
    <glyph glyph-name="uni066E.fina" unicode="&#x66e;" horiz-adv-x="1175" 
d="M1027 353l15 -3q0 -91 30 -130.5t103 -39.5q29 0 43 -27.5t14 -62.5t-14 -62.5t-43 -27.5q-172 0 -191 163l7 -5q-70 -87 -204 -130t-294 -43q-124 0 -227 30t-164.5 91.5t-61.5 153.5q0 67 36.5 131t77.5 103l14 -7q-12 -19 -29 -60t-17 -81q0 -65 60 -105t159 -58
t216 -18q130 0 217 20.5t146.5 62.5t106.5 105z" />
    <glyph glyph-name="uni066F.init" unicode="&#x66f;" horiz-adv-x="503" 
d="M0 0q-30 0 -42.5 29t-12.5 57q0 31 12.5 62.5t42.5 31.5q95 0 183.5 3t150.5 18t78 49q0 34 -17.5 82t-45 95t-56 78.5t-51.5 31.5q-13 0 -33.5 -14t-36.5 -34t-16 -39q0 -9 11.5 -28.5t51.5 -19.5q37 0 77 24t44 54l46 -85q-9 -38 -39 -71t-68 -52.5t-70 -19.5
q-64 0 -86 37.5t-22 107.5q0 26 12.5 74t34.5 97.5t52 84t66 34.5q40 0 74 -37.5t60 -97.5t40.5 -129.5t14.5 -132.5q0 -61 -17.5 -115t-43.5 -83q-19 -21 -81 -42.5t-145 -35.5t-168 -14z" />
    <glyph glyph-name="uni066F.medi" unicode="&#x66f;" horiz-adv-x="513" 
d="M296 620q42 0 65 -32.5t31.5 -75.5t8.5 -74q0 -127 -51 -226t-141 -155.5t-209 -56.5q-25 0 -37 27.5t-12 62.5t12 62.5t37 27.5q95 0 175 24.5t128 63.5t48 82q0 20 -24 55t-68 35q-29 0 -52.5 -19.5t-36.5 -43.5t-13 -40q0 -37 53 -73t135 -60t168 -24q29 0 42.5 -27.5
t13.5 -62.5t-13.5 -62.5t-42.5 -27.5q-116 0 -207.5 37t-143.5 100t-52 139q0 37 13 94.5t37 114.5t58.5 96t77.5 39z" />
    <glyph glyph-name="uni066F.fina" unicode="&#x66f;" horiz-adv-x="909" 
d="M352 -330q-154 0 -233 89.5t-79 219.5q0 71 22 145t70 149l14 -6q-46 -123 -46 -209q0 -101 67 -154.5t209 -53.5q97 0 186.5 26t147 78t57.5 130q0 70 -19.5 119t-44.5 75.5t-42 26.5q-20 0 -43 -31t-23 -51q0 -9 24.5 -26t73.5 -17h216q26 0 38 -27.5t12 -62.5
t-12 -62.5t-38 -27.5h-212q-63 0 -110 50t-47 120q0 26 6.5 77.5t21.5 106t41.5 93t65.5 38.5q38 0 65 -38.5t43.5 -100.5t24 -133.5t7.5 -138.5q0 -117 -62 -208t-166.5 -143.5t-234.5 -52.5z" />
    <glyph glyph-name="uni0671.fina" unicode="&#x671;" horiz-adv-x="422" arabic-form="final" 
d="M423 0q-137 0 -213.5 99t-86.5 336l-23 551l81 107l19 -627q4 -119 33.5 -180.5t79 -83.5t110.5 -22q30 0 45 -27.5t15 -62.5t-15 -62.5t-45 -27.5zM59 1323q57 110 120.5 150t108.5 18.5t45 -97.5q0 -61 -36 -83.5t-90 -25t-110.5 0.5t-99.5 -5.5t-55 -44.5l-16 6
q10 55 47.5 74.5t86 21t95 -1t77.5 6.5t31 46q0 20 -22.5 32t-60 -7.5t-82.5 -94.5z" />
    <glyph glyph-name="uni0672.fina" unicode="&#x672;" horiz-adv-x="422" 
d="M423 0q-137 0 -213.5 99t-86.5 336l-23 551l81 107l19 -627q4 -119 33.5 -180.5t79 -83.5t110.5 -22q30 0 45 -27.5t15 -62.5t-15 -62.5t-45 -27.5zM104 1279q-21 11 -38 28t-17 37q0 94 33 133.5t82 39.5q54 0 85 -43l-12 -22q-15 6 -34 6q-35 0 -74.5 -18.5
t-50.5 -52.5l3 20q2 -24 24.5 -43t62.5 -19q19 0 43 6zM355 1368l-45 -73q-73 0 -114 -13t-66 -30.5t-48.5 -30.5t-63.5 -13q-36 0 -58 16.5t-53 16.5q-33 0 -83 -34l-17 19q37 36 65 48.5t51 12.5q29 0 49.5 -11.5t53.5 -11.5q22 0 44 15.5t55 36.5t88 36.5t142 15.5z" />
    <glyph glyph-name="uni0673.fina" unicode="&#x673;" horiz-adv-x="422" 
d="M423 0q-137 0 -213.5 99t-86.5 336l-23 551l81 107l19 -627q4 -119 33.5 -180.5t79 -83.5t110.5 -22q30 0 45 -27.5t15 -62.5t-15 -62.5t-45 -27.5zM179 -358q-21 11 -38 28t-17 37q0 94 33 133.5t82 39.5q54 0 85 -43l-12 -22q-15 6 -34 6q-35 0 -74.5 -18.5
t-50.5 -52.5l3 20q2 -24 24.5 -43t62.5 -19q19 0 43 6zM430 -269l-45 -73q-73 0 -114 -13t-66 -30.5t-48.5 -30.5t-63.5 -13q-36 0 -58 16.5t-53 16.5q-33 0 -83 -34l-17 19q37 36 65 48.5t51 12.5q29 0 49.5 -11.5t53.5 -11.5q22 0 44 15.5t55 36.5t88 36.5t142 15.5z" />
    <glyph glyph-name="uni0675.fina" unicode="&#x675;" horiz-adv-x="362" 
d="M423 0q-137 0 -213.5 99t-86.5 336l-23 551l81 107l19 -627q4 -119 33.5 -180.5t79 -83.5t110.5 -22q30 0 45 -27.5t15 -62.5t-15 -62.5t-45 -27.5zM263 799q-50 27 -50 68q0 109 39 157.5t83 48.5q28 0 55.5 -12.5t42.5 -35.5l-13 -25q-17 7 -40 7q-40 0 -85.5 -21.5
t-59.5 -60.5l4 23q3 -28 29.5 -49.5t72.5 -21.5q22 0 49 6zM504 894l-51 -82q-56 0 -120 -13t-141 -83l-35 25q68 70 145.5 111.5t201.5 41.5z" />
    <glyph glyph-name="uni0676.fina" unicode="&#x676;" horiz-adv-x="729" 
d="M257 -390q-50 0 -108.5 19t-111.5 46.5t-88 54.5l7 14q53 -12 115 -12q77 0 166 22t168.5 64.5t130.5 104.5t51 141q0 70 -19.5 119t-44.5 75.5t-42 26.5q-20 0 -43 -21t-23 -41q0 -9 24.5 -26t73.5 -17h216q26 0 38 -27.5t12 -62.5t-12 -62.5t-38 -27.5h-212
q-63 0 -110 50t-47 120q0 26 6.5 74.5t21.5 99t41.5 86t65.5 35.5q38 0 65 -38.5t43.5 -100.5t24 -133.5t7.5 -138.5q0 -112 -41 -195.5t-102.5 -138.5t-125.5 -82.5t-109 -27.5zM606 779q-50 27 -50 68q0 109 39 157.5t83 48.5q28 0 55.5 -12.5t42.5 -35.5l-13 -25
q-17 7 -40 7q-40 0 -85.5 -21.5t-59.5 -60.5l4 23q3 -28 29.5 -49.5t72.5 -21.5q22 0 49 6zM847 874l-51 -82q-56 0 -120 -13t-141 -83l-35 25q68 70 145.5 111.5t201.5 41.5z" />
    <glyph glyph-name="uni0677.fina" unicode="&#x677;" horiz-adv-x="729" 
d="M257 -390q-50 0 -108.5 19t-111.5 46.5t-88 54.5l7 14q53 -12 115 -12q77 0 166 22t168.5 64.5t130.5 104.5t51 141q0 70 -19.5 119t-44.5 75.5t-42 26.5q-20 0 -43 -21t-23 -41q0 -9 24.5 -26t73.5 -17h216q26 0 38 -27.5t12 -62.5t-12 -62.5t-38 -27.5h-212
q-63 0 -110 50t-47 120q0 26 6.5 74.5t21.5 99t41.5 86t65.5 35.5q38 0 65 -38.5t43.5 -100.5t24 -133.5t7.5 -138.5q0 -112 -41 -195.5t-102.5 -138.5t-125.5 -82.5t-109 -27.5zM594 799q-50 27 -50 68q0 109 39 157.5t83 48.5q28 0 55.5 -12.5t42.5 -35.5l-13 -25
q-17 7 -40 7q-40 0 -85.5 -21.5t-59.5 -60.5l4 23q3 -28 29.5 -49.5t72.5 -21.5q22 0 49 6zM835 894l-51 -82q-56 0 -120 -13t-141 -83l-35 25q68 70 145.5 111.5t201.5 41.5zM294 690l-19 35q41 25 73 67.5t30 118.5l13 -9q-20 -5 -34 -5q-39 0 -58.5 24t-19.5 52
q0 29 20.5 55.5t61.5 26.5q46 0 66.5 -32t20.5 -76q0 -68 -33 -139t-121 -118z" />
    <glyph glyph-name="uni0678.init" unicode="&#x678;" horiz-adv-x="576" 
d="M0 180h63q90 0 134.5 16t44.5 31q0 30 -9 57.5t-32 51.5l57 145q29 -38 42 -87.5t13 -98.5q0 -124 -70.5 -209.5t-201.5 -85.5h-41q-25 0 -37 29t-12 64t12 61t37 26zM335 799q-50 27 -50 68q0 109 39 157.5t83 48.5q28 0 55.5 -12.5t42.5 -35.5l-13 -25q-17 7 -40 7
q-40 0 -85.5 -21.5t-59.5 -60.5l4 23q3 -28 29.5 -49.5t72.5 -21.5q22 0 49 6zM576 894l-51 -82q-56 0 -120 -13t-141 -83l-35 25q68 70 145.5 111.5t201.5 41.5z" />
    <glyph glyph-name="uni0678.medi" unicode="&#x678;" horiz-adv-x="440" 
d="M0 0q-23 0 -35 27.5t-12 62.5t12 62.5t35 27.5h5q85 0 127.5 13.5t64 51t42.5 108.5l15 -3q-4 -25 -4 -50q0 -76 44.5 -98t139.5 -22h5q25 0 35.5 -27.5t10.5 -62.5t-10 -62.5t-36 -27.5h-19q-100 0 -149 37t-71 90l9 -3q-30 -51 -77.5 -87.5t-111.5 -36.5h-20zM316 799
q-50 27 -50 68q0 109 39 157.5t83 48.5q28 0 55.5 -12.5t42.5 -35.5l-13 -25q-17 7 -40 7q-40 0 -85.5 -21.5t-59.5 -60.5l4 23q3 -28 29.5 -49.5t72.5 -21.5q22 0 49 6zM557 894l-51 -82q-56 0 -120 -13t-141 -83l-35 25q68 70 145.5 111.5t201.5 41.5z" />
    <glyph glyph-name="uni0678.fina" unicode="&#x678;" horiz-adv-x="1055" 
d="M1055 180q23 0 35.5 -27.5t12.5 -62.5t-12 -62.5t-36 -27.5h-232q-89 0 -115 -9.5t-26 -20.5q0 -16 29.5 -23.5t73.5 -13t88 -15.5t73.5 -30t29.5 -58q0 -72 -54 -126.5t-141.5 -90.5t-189.5 -54.5t-197 -18.5q-146 0 -227 36t-108.5 97t-13 138t60.5 160.5t111 162.5
l14 -5q-86 -156 -91.5 -245.5t73 -126.5t244.5 -37q32 0 88.5 2.5t121.5 7.5t123.5 13t96 18.5t37.5 23.5q0 15 -29.5 21t-73 10t-87 13t-72 30t-26.5 62q3 56 39 116t109.5 101.5t186.5 41.5h84zM789 799q-50 27 -50 68q0 109 39 157.5t83 48.5q28 0 55.5 -12.5t42.5 -35.5
l-13 -25q-17 7 -40 7q-40 0 -85.5 -21.5t-59.5 -60.5l4 23q3 -28 29.5 -49.5t72.5 -21.5q22 0 49 6zM1030 894l-51 -82q-56 0 -120 -13t-141 -83l-35 25q68 70 145.5 111.5t201.5 41.5z" />
    <glyph glyph-name="uni0679.init" unicode="&#x679;" horiz-adv-x="429" arabic-form="initial" 
d="M0 180h63q90 0 134.5 16t44.5 31q0 30 -9 57.5t-32 51.5l57 145q29 -38 42 -87.5t13 -98.5q0 -124 -70.5 -209.5t-201.5 -85.5h-41q-25 0 -37 29t-12 64t12 61t37 26zM167 600l-12 85q88 0 158.5 10.5t70.5 32.5q0 15 -16 27.5t-47 12.5q-12 0 -41 -14t-61 -35.5
t-54 -44.5l-23 2q53 57 113 108t106 51q36 0 52 -18.5t16 -44.5q0 -45 -38.5 -84.5t-98.5 -63.5t-125 -24zM168 600q-66 0 -106 31.5t-60 68.5l2 5q34 -10 75 -15t77 -5zM184 709l-9 248l35 -20v-205zM225 914q-69 27 -69 60q0 18 18.5 45.5t31.5 37.5l6 -4q-13 -28 6 -47
t53 -30z" />
    <glyph glyph-name="uni0679.medi" unicode="&#x679;" horiz-adv-x="440" arabic-form="medial" 
d="M0 0q-23 0 -35 27.5t-12 62.5t12 62.5t35 27.5h5q85 0 127.5 13.5t64 51t42.5 108.5l15 -3q-4 -25 -4 -50q0 -76 44.5 -98t139.5 -22h5q25 0 35.5 -27.5t10.5 -62.5t-10 -62.5t-36 -27.5h-19q-100 0 -149 37t-71 90l9 -3q-30 -51 -77.5 -87.5t-111.5 -36.5h-20zM173 466
l-12 85q88 0 158.5 10.5t70.5 32.5q0 15 -16 27.5t-47 12.5q-12 0 -41 -14t-61 -35.5t-54 -44.5l-23 2q53 57 113 108t106 51q36 0 52 -18.5t16 -44.5q0 -45 -38.5 -84.5t-98.5 -63.5t-125 -24zM174 466q-66 0 -106 31.5t-60 68.5l2 5q34 -10 75 -15t77 -5zM190 575l-9 248
l35 -20v-205zM231 780q-69 27 -69 60q0 18 18.5 45.5t31.5 37.5l6 -4q-13 -28 6 -47t53 -30z" />
    <glyph glyph-name="uni0679.fina" unicode="&#x679;" horiz-adv-x="1175" arabic-form="final" 
d="M1027 353l15 -3q0 -91 30 -130.5t103 -39.5q29 0 43 -27.5t14 -62.5t-14 -62.5t-43 -27.5q-172 0 -191 163l7 -5q-70 -87 -204 -130t-294 -43q-124 0 -227 30t-164.5 91.5t-61.5 153.5q0 67 36.5 131t77.5 103l14 -7q-12 -19 -29 -60t-17 -81q0 -65 60 -105t159 -58
t216 -18q130 0 217 20.5t146.5 62.5t106.5 105zM540 413l-12 85q88 0 158.5 10.5t70.5 32.5q0 15 -16 27.5t-47 12.5q-12 0 -41 -14t-61 -35.5t-54 -44.5l-23 2q53 57 113 108t106 51q36 0 52 -18.5t16 -44.5q0 -45 -38.5 -84.5t-98.5 -63.5t-125 -24zM541 413
q-66 0 -106 31.5t-60 68.5l2 5q34 -10 75 -15t77 -5zM557 522l-9 248l35 -20v-205zM598 727q-69 27 -69 60q0 18 18.5 45.5t31.5 37.5l6 -4q-13 -28 6 -47t53 -30z" />
    <glyph glyph-name="uni067A.init" unicode="&#x67a;" horiz-adv-x="353" arabic-form="initial" 
d="M0 180h63q90 0 134.5 16t44.5 31q0 30 -9 57.5t-32 51.5l57 145q29 -38 42 -87.5t13 -98.5q0 -124 -70.5 -209.5t-201.5 -85.5h-41q-25 0 -37 29t-12 64t12 61t37 26zM206 821q64 -45 104 -104l-104 -104q-20 31 -46.5 56.5t-57.5 47.5zM206 1019q64 -45 104 -104
l-104 -104q-20 31 -46.5 56.5t-57.5 47.5z" />
    <glyph glyph-name="uni067A.medi" unicode="&#x67a;" horiz-adv-x="440" arabic-form="medial" 
d="M0 0q-23 0 -35 27.5t-12 62.5t12 62.5t35 27.5h5q85 0 127.5 13.5t64 51t42.5 108.5l15 -3q-4 -25 -4 -50q0 -76 44.5 -98t139.5 -22h5q25 0 35.5 -27.5t10.5 -62.5t-10 -62.5t-36 -27.5h-19q-100 0 -149 37t-71 90l9 -3q-30 -51 -77.5 -87.5t-111.5 -36.5h-20zM212 687
q64 -45 104 -104l-104 -104q-20 31 -46.5 56.5t-57.5 47.5zM212 885q64 -45 104 -104l-104 -104q-20 31 -46.5 56.5t-57.5 47.5z" />
    <glyph glyph-name="uni067A.fina" unicode="&#x67a;" horiz-adv-x="1175" arabic-form="final" 
d="M1027 353l15 -3q0 -91 30 -130.5t103 -39.5q29 0 43 -27.5t14 -62.5t-14 -62.5t-43 -27.5q-172 0 -191 163l7 -5q-70 -87 -204 -130t-294 -43q-124 0 -227 30t-164.5 91.5t-61.5 153.5q0 67 36.5 131t77.5 103l14 -7q-12 -19 -29 -60t-17 -81q0 -65 60 -105t159 -58
t216 -18q130 0 217 20.5t146.5 62.5t106.5 105zM579 634q64 -45 104 -104l-104 -104q-20 31 -46.5 56.5t-57.5 47.5zM579 832q64 -45 104 -104l-104 -104q-20 31 -46.5 56.5t-57.5 47.5z" />
    <glyph glyph-name="uni067B.init" unicode="&#x67b;" horiz-adv-x="353" arabic-form="initial" 
d="M0 180h63q90 0 134.5 16t44.5 31q0 30 -9 57.5t-32 51.5l57 145q29 -38 42 -87.5t13 -98.5q0 -124 -70.5 -209.5t-201.5 -85.5h-41q-25 0 -37 29t-12 64t12 61t37 26zM199 -351q64 -45 104 -104l-104 -104q-20 31 -46.5 56.5t-57.5 47.5zM199 -153q64 -45 104 -104
l-104 -104q-20 31 -46.5 56.5t-57.5 47.5z" />
    <glyph glyph-name="uni067B.medi" unicode="&#x67b;" horiz-adv-x="440" arabic-form="medial" 
d="M0 0q-23 0 -35 27.5t-12 62.5t12 62.5t35 27.5h5q85 0 127.5 13.5t64 51t42.5 108.5l15 -3q-4 -25 -4 -50q0 -76 44.5 -98t139.5 -22h5q25 0 35.5 -27.5t10.5 -62.5t-10 -62.5t-36 -27.5h-19q-100 0 -149 37t-71 90l9 -3q-30 -51 -77.5 -87.5t-111.5 -36.5h-20zM203 -351
q64 -45 104 -104l-104 -104q-20 31 -46.5 56.5t-57.5 47.5zM203 -153q64 -45 104 -104l-104 -104q-20 31 -46.5 56.5t-57.5 47.5z" />
    <glyph glyph-name="uni067B.fina" unicode="&#x67b;" horiz-adv-x="1175" arabic-form="final" 
d="M1027 353l15 -3q0 -91 30 -130.5t103 -39.5q29 0 43 -27.5t14 -62.5t-14 -62.5t-43 -27.5q-172 0 -191 163l7 -5q-70 -87 -204 -130t-294 -43q-124 0 -227 30t-164.5 91.5t-61.5 153.5q0 67 36.5 131t77.5 103l14 -7q-12 -19 -29 -60t-17 -81q0 -65 60 -105t159 -58
t216 -18q130 0 217 20.5t146.5 62.5t106.5 105zM498 -351q64 -45 104 -104l-104 -104q-20 31 -46.5 56.5t-57.5 47.5zM498 -153q64 -45 104 -104l-104 -104q-20 31 -46.5 56.5t-57.5 47.5z" />
    <glyph glyph-name="uni067C.init" unicode="&#x67c;" horiz-adv-x="353" 
d="M0 180h63q90 0 134.5 16t44.5 31q0 30 -9 57.5t-32 51.5l57 145q29 -38 42 -87.5t13 -98.5q0 -124 -70.5 -209.5t-201.5 -85.5h-41q-25 0 -37 29t-12 64t12 61t37 26zM107 814q64 -45 104 -104l-104 -104q-20 31 -46.5 56.5t-57.5 47.5zM305 814q64 -45 104 -104
l-104 -104q-20 31 -46.5 56.5t-57.5 47.5zM178 -179q-62 0 -84.5 33t-22.5 83q0 46 29 94.5t78 48.5q50 0 79.5 -48.5t29.5 -94.5q0 -50 -23.5 -83t-85.5 -33zM178 -109q28 0 48.5 9.5t20.5 43.5q0 35 -20.5 57.5t-48.5 22.5t-47.5 -22.5t-19.5 -57.5q0 -37 19.5 -45
t47.5 -8z" />
    <glyph glyph-name="uni067C.medi" unicode="&#x67c;" horiz-adv-x="440" 
d="M0 0q-23 0 -35 27.5t-12 62.5t12 62.5t35 27.5h5q85 0 127.5 13.5t64 51t42.5 108.5l15 -3q-4 -25 -4 -50q0 -76 44.5 -98t139.5 -22h5q25 0 35.5 -27.5t10.5 -62.5t-10 -62.5t-36 -27.5h-19q-100 0 -149 37t-71 90l9 -3q-30 -51 -77.5 -87.5t-111.5 -36.5h-20zM113 680
q64 -45 104 -104l-104 -104q-20 31 -46.5 56.5t-57.5 47.5zM311 680q64 -45 104 -104l-104 -104q-20 31 -46.5 56.5t-57.5 47.5zM196 -139q-62 0 -84.5 33t-22.5 83q0 46 29 94.5t78 48.5q50 0 79.5 -48.5t29.5 -94.5q0 -50 -23.5 -83t-85.5 -33zM196 -69q28 0 48.5 9.5
t20.5 43.5q0 35 -20.5 57.5t-48.5 22.5t-47.5 -22.5t-19.5 -57.5q0 -37 19.5 -45t47.5 -8z" />
    <glyph glyph-name="uni067C.fina" unicode="&#x67c;" horiz-adv-x="1175" 
d="M1027 353l15 -3q0 -91 30 -130.5t103 -39.5q29 0 43 -27.5t14 -62.5t-14 -62.5t-43 -27.5q-172 0 -191 163l7 -5q-70 -87 -204 -130t-294 -43q-124 0 -227 30t-164.5 91.5t-61.5 153.5q0 67 36.5 131t77.5 103l14 -7q-12 -19 -29 -60t-17 -81q0 -65 60 -105t159 -58
t216 -18q130 0 217 20.5t146.5 62.5t106.5 105zM480 627q64 -45 104 -104l-104 -104q-20 31 -46.5 56.5t-57.5 47.5zM678 627q64 -45 104 -104l-104 -104q-20 31 -46.5 56.5t-57.5 47.5zM531 -219q-62 0 -84.5 33t-22.5 83q0 46 29 94.5t78 48.5q50 0 79.5 -48.5t29.5 -94.5
q0 -50 -23.5 -83t-85.5 -33zM531 -149q28 0 48.5 9.5t20.5 43.5q0 35 -20.5 57.5t-48.5 22.5t-47.5 -22.5t-19.5 -57.5q0 -37 19.5 -45t47.5 -8z" />
    <glyph glyph-name="uni067D.init" unicode="&#x67d;" horiz-adv-x="353" 
d="M0 180h63q90 0 134.5 16t44.5 31q0 30 -9 57.5t-32 51.5l57 145q29 -38 42 -87.5t13 -98.5q0 -124 -70.5 -209.5t-201.5 -85.5h-41q-25 0 -37 29t-12 64t12 61t37 26zM206 817q64 -45 104 -104l-104 -104q-20 31 -46.5 56.5t-57.5 47.5zM107 1021q64 -45 104 -104
l-104 -104q-20 31 -46.5 56.5t-57.5 47.5zM305 1021q64 -45 104 -104l-104 -104q-20 31 -46.5 56.5t-57.5 47.5z" />
    <glyph glyph-name="uni067D.medi" unicode="&#x67d;" horiz-adv-x="440" 
d="M0 0q-23 0 -35 27.5t-12 62.5t12 62.5t35 27.5h5q85 0 127.5 13.5t64 51t42.5 108.5l15 -3q-4 -25 -4 -50q0 -76 44.5 -98t139.5 -22h5q25 0 35.5 -27.5t10.5 -62.5t-10 -62.5t-36 -27.5h-19q-100 0 -149 37t-71 90l9 -3q-30 -51 -77.5 -87.5t-111.5 -36.5h-20zM212 683
q64 -45 104 -104l-104 -104q-20 31 -46.5 56.5t-57.5 47.5zM113 887q64 -45 104 -104l-104 -104q-20 31 -46.5 56.5t-57.5 47.5zM311 887q64 -45 104 -104l-104 -104q-20 31 -46.5 56.5t-57.5 47.5z" />
    <glyph glyph-name="uni067D.fina" unicode="&#x67d;" horiz-adv-x="1175" 
d="M1027 353l15 -3q0 -91 30 -130.5t103 -39.5q29 0 43 -27.5t14 -62.5t-14 -62.5t-43 -27.5q-172 0 -191 163l7 -5q-70 -87 -204 -130t-294 -43q-124 0 -227 30t-164.5 91.5t-61.5 153.5q0 67 36.5 131t77.5 103l14 -7q-12 -19 -29 -60t-17 -81q0 -65 60 -105t159 -58
t216 -18q130 0 217 20.5t146.5 62.5t106.5 105zM579 630q64 -45 104 -104l-104 -104q-20 31 -46.5 56.5t-57.5 47.5zM480 834q64 -45 104 -104l-104 -104q-20 31 -46.5 56.5t-57.5 47.5zM678 834q64 -45 104 -104l-104 -104q-20 31 -46.5 56.5t-57.5 47.5z" />
    <glyph glyph-name="uni067E.init" unicode="&#x67e;" horiz-adv-x="353" arabic-form="initial" 
d="M0 180h63q90 0 134.5 16t44.5 31q0 30 -9 57.5t-32 51.5l57 145q29 -38 42 -87.5t13 -98.5q0 -124 -70.5 -209.5t-201.5 -85.5h-41q-25 0 -37 29t-12 64t12 61t37 26zM199 -355q64 -45 104 -104l-104 -104q-20 31 -46.5 56.5t-57.5 47.5zM100 -151q64 -45 104 -104
l-104 -104q-20 31 -46.5 56.5t-57.5 47.5zM298 -151q64 -45 104 -104l-104 -104q-20 31 -46.5 56.5t-57.5 47.5z" />
    <glyph glyph-name="uni067E.medi" unicode="&#x67e;" horiz-adv-x="440" arabic-form="medial" 
d="M0 0q-23 0 -35 27.5t-12 62.5t12 62.5t35 27.5h5q85 0 127.5 13.5t64 51t42.5 108.5l15 -3q-4 -25 -4 -50q0 -76 44.5 -98t139.5 -22h5q25 0 35.5 -27.5t10.5 -62.5t-10 -62.5t-36 -27.5h-19q-100 0 -149 37t-71 90l9 -3q-30 -51 -77.5 -87.5t-111.5 -36.5h-20zM203 -355
q64 -45 104 -104l-104 -104q-20 31 -46.5 56.5t-57.5 47.5zM104 -151q64 -45 104 -104l-104 -104q-20 31 -46.5 56.5t-57.5 47.5zM302 -151q64 -45 104 -104l-104 -104q-20 31 -46.5 56.5t-57.5 47.5z" />
    <glyph glyph-name="uni067E.fina" unicode="&#x67e;" horiz-adv-x="1175" arabic-form="final" 
d="M1027 353l15 -3q0 -91 30 -130.5t103 -39.5q29 0 43 -27.5t14 -62.5t-14 -62.5t-43 -27.5q-172 0 -191 163l7 -5q-70 -87 -204 -130t-294 -43q-124 0 -227 30t-164.5 91.5t-61.5 153.5q0 67 36.5 131t77.5 103l14 -7q-12 -19 -29 -60t-17 -81q0 -65 60 -105t159 -58
t216 -18q130 0 217 20.5t146.5 62.5t106.5 105zM498 -355q64 -45 104 -104l-104 -104q-20 31 -46.5 56.5t-57.5 47.5zM399 -151q64 -45 104 -104l-104 -104q-20 31 -46.5 56.5t-57.5 47.5zM597 -151q64 -45 104 -104l-104 -104q-20 31 -46.5 56.5t-57.5 47.5z" />
    <glyph glyph-name="uni067F.init" unicode="&#x67f;" horiz-adv-x="353" arabic-form="initial" 
d="M0 180h63q90 0 134.5 16t44.5 31q0 30 -9 57.5t-32 51.5l57 145q29 -38 42 -87.5t13 -98.5q0 -124 -70.5 -209.5t-201.5 -85.5h-41q-25 0 -37 29t-12 64t12 61t37 26zM105 1011q64 -45 104 -104l-104 -104q-20 31 -46.5 56.5t-57.5 47.5zM303 1011q64 -45 104 -104
l-104 -104q-20 31 -46.5 56.5t-57.5 47.5zM105 812q64 -45 104 -104l-104 -104q-20 31 -46.5 56.5t-57.5 47.5zM303 812q64 -45 104 -104l-104 -104q-20 31 -46.5 56.5t-57.5 47.5z" />
    <glyph glyph-name="uni067F.medi" unicode="&#x67f;" horiz-adv-x="440" arabic-form="medial" 
d="M0 0q-23 0 -35 27.5t-12 62.5t12 62.5t35 27.5h5q85 0 127.5 13.5t64 51t42.5 108.5l15 -3q-4 -25 -4 -50q0 -76 44.5 -98t139.5 -22h5q25 0 35.5 -27.5t10.5 -62.5t-10 -62.5t-36 -27.5h-19q-100 0 -149 37t-71 90l9 -3q-30 -51 -77.5 -87.5t-111.5 -36.5h-20zM111 877
q64 -45 104 -104l-104 -104q-20 31 -46.5 56.5t-57.5 47.5zM309 877q64 -45 104 -104l-104 -104q-20 31 -46.5 56.5t-57.5 47.5zM111 678q64 -45 104 -104l-104 -104q-20 31 -46.5 56.5t-57.5 47.5zM309 678q64 -45 104 -104l-104 -104q-20 31 -46.5 56.5t-57.5 47.5z" />
    <glyph glyph-name="uni067F.fina" unicode="&#x67f;" horiz-adv-x="1175" arabic-form="final" 
d="M1027 353l15 -3q0 -91 30 -130.5t103 -39.5q29 0 43 -27.5t14 -62.5t-14 -62.5t-43 -27.5q-172 0 -191 163l7 -5q-70 -87 -204 -130t-294 -43q-124 0 -227 30t-164.5 91.5t-61.5 153.5q0 67 36.5 131t77.5 103l14 -7q-12 -19 -29 -60t-17 -81q0 -65 60 -105t159 -58
t216 -18q130 0 217 20.5t146.5 62.5t106.5 105zM478 824q64 -45 104 -104l-104 -104q-20 31 -46.5 56.5t-57.5 47.5zM676 824q64 -45 104 -104l-104 -104q-20 31 -46.5 56.5t-57.5 47.5zM478 625q64 -45 104 -104l-104 -104q-20 31 -46.5 56.5t-57.5 47.5zM676 625
q64 -45 104 -104l-104 -104q-20 31 -46.5 56.5t-57.5 47.5z" />
    <glyph glyph-name="uni0680.init" unicode="&#x680;" horiz-adv-x="353" arabic-form="initial" 
d="M0 180h63q90 0 134.5 16t44.5 31q0 30 -9 57.5t-32 51.5l57 145q29 -38 42 -87.5t13 -98.5q0 -124 -70.5 -209.5t-201.5 -85.5h-41q-25 0 -37 29t-12 64t12 61t37 26zM98 -161q64 -45 104 -104l-104 -104q-20 31 -46.5 56.5t-57.5 47.5zM296 -161q64 -45 104 -104
l-104 -104q-20 31 -46.5 56.5t-57.5 47.5zM98 -360q64 -45 104 -104l-104 -104q-20 31 -46.5 56.5t-57.5 47.5zM296 -360q64 -45 104 -104l-104 -104q-20 31 -46.5 56.5t-57.5 47.5z" />
    <glyph glyph-name="uni0680.medi" unicode="&#x680;" horiz-adv-x="440" arabic-form="medial" 
d="M0 0q-23 0 -35 27.5t-12 62.5t12 62.5t35 27.5h5q85 0 127.5 13.5t64 51t42.5 108.5l15 -3q-4 -25 -4 -50q0 -76 44.5 -98t139.5 -22h5q25 0 35.5 -27.5t10.5 -62.5t-10 -62.5t-36 -27.5h-19q-100 0 -149 37t-71 90l9 -3q-30 -51 -77.5 -87.5t-111.5 -36.5h-20zM102 -161
q64 -45 104 -104l-104 -104q-20 31 -46.5 56.5t-57.5 47.5zM300 -161q64 -45 104 -104l-104 -104q-20 31 -46.5 56.5t-57.5 47.5zM102 -360q64 -45 104 -104l-104 -104q-20 31 -46.5 56.5t-57.5 47.5zM300 -360q64 -45 104 -104l-104 -104q-20 31 -46.5 56.5t-57.5 47.5z
" />
    <glyph glyph-name="uni0680.fina" unicode="&#x680;" horiz-adv-x="1175" arabic-form="final" 
d="M1027 353l15 -3q0 -91 30 -130.5t103 -39.5q29 0 43 -27.5t14 -62.5t-14 -62.5t-43 -27.5q-172 0 -191 163l7 -5q-70 -87 -204 -130t-294 -43q-124 0 -227 30t-164.5 91.5t-61.5 153.5q0 67 36.5 131t77.5 103l14 -7q-12 -19 -29 -60t-17 -81q0 -65 60 -105t159 -58
t216 -18q130 0 217 20.5t146.5 62.5t106.5 105zM397 -161q64 -45 104 -104l-104 -104q-20 31 -46.5 56.5t-57.5 47.5zM595 -161q64 -45 104 -104l-104 -104q-20 31 -46.5 56.5t-57.5 47.5zM397 -360q64 -45 104 -104l-104 -104q-20 31 -46.5 56.5t-57.5 47.5zM595 -360
q64 -45 104 -104l-104 -104q-20 31 -46.5 56.5t-57.5 47.5z" />
    <glyph glyph-name="uni0681.init" unicode="&#x681;" horiz-adv-x="767" 
d="M0 0q-23 0 -29.5 27.5t-6.5 62.5t10 62.5t26 27.5q101 0 161 9t97 23t68 29.5t72.5 29.5t109.5 23t180 9l-31 -101q-85 0 -154 25t-125.5 58.5t-104 58.5t-88.5 25q-46 0 -78.5 -16t-52.5 -36l-14 6q10 48 34.5 96t63 79.5t88.5 31.5q53 0 99 -25t99 -58.5t125 -58.5
t178 -25l-51 -173q-104 0 -172.5 -19t-119.5 -47.5t-101.5 -57t-116.5 -47.5t-166 -19zM360 691q-50 27 -50 68q0 109 39 157.5t83 48.5q28 0 55.5 -12.5t42.5 -35.5l-13 -25q-17 7 -40 7q-40 0 -85.5 -21.5t-59.5 -60.5l4 23q3 -28 29.5 -49.5t72.5 -21.5q22 0 49 6z
M601 786l-51 -82q-56 0 -120 -13t-141 -83l-35 25q68 70 145.5 111.5t201.5 41.5z" />
    <glyph glyph-name="uni0681.medi" unicode="&#x681;" horiz-adv-x="817" 
d="M0 0q-23 0 -34.5 27.5t-11.5 62.5t11.5 62.5t34.5 27.5q94 0 153.5 8.5t101 24.5t80 37.5t89 46.5t127 53t196.5 56l-44 -125q-111 -23 -191 -13t-138 34t-103 45.5t-86 21.5q-46 0 -78.5 -16t-52.5 -36l-14 6q10 48 34.5 96t63 79.5t88.5 31.5q53 0 103.5 -23t111 -48.5
t141.5 -35.5t195 17l-52 -173q-104 -21 -177 -54t-131.5 -69.5t-116.5 -69.5t-129 -53.5t-171 -20.5zM817 0q-107 0 -163 64t-65 228l45 12q9 -81 52 -102.5t131 -21.5q27 0 40 -27.5t13 -62.5t-13 -62.5t-40 -27.5zM360 691q-50 27 -50 68q0 109 39 157.5t83 48.5
q28 0 55.5 -12.5t42.5 -35.5l-13 -25q-17 7 -40 7q-40 0 -85.5 -21.5t-59.5 -60.5l4 23q3 -28 29.5 -49.5t72.5 -21.5q22 0 49 6zM601 786l-51 -82q-56 0 -120 -13t-141 -83l-35 25q68 70 145.5 111.5t201.5 41.5z" />
    <glyph glyph-name="uni0681.fina" unicode="&#x681;" horiz-adv-x="889" 
d="M549 348q0 -94 43 -131t128 -37h169q32 0 47 -27.5t15 -62.5t-15 -62.5t-47 -27.5h-149q-99 0 -150 41.5t-69.5 119.5t-18.5 187h47zM659 -743q-223 0 -359.5 73.5t-198 191.5t-61.5 252q0 101 35 208.5t108.5 205.5t190.5 171l2 -7q-30 3 -59 12t-64 9
q-46 0 -81.5 -21.5t-57.5 -48t-28 -42.5l-14 6q6 66 38.5 126t86.5 98.5t124 38.5q49 0 95.5 -15t105 -30t143.5 -15q68 0 135 6l-69 -167q-29 4 -66 4q-103 0 -202.5 -40t-180 -110t-128.5 -161t-48 -193q0 -149 81 -230t218 -112t305 -31h153v-29zM406 695q-50 27 -50 68
q0 109 39 157.5t83 48.5q28 0 55.5 -12.5t42.5 -35.5l-13 -25q-17 7 -40 7q-40 0 -85.5 -21.5t-59.5 -60.5l4 23q3 -28 29.5 -49.5t72.5 -21.5q22 0 49 6zM647 790l-51 -82q-56 0 -120 -13t-141 -83l-35 25q68 70 145.5 111.5t201.5 41.5z" />
    <glyph glyph-name="uni0682.init" unicode="&#x682;" horiz-adv-x="767" 
d="M0 0q-23 0 -29.5 27.5t-6.5 62.5t10 62.5t26 27.5q101 0 161 9t97 23t68 29.5t72.5 29.5t109.5 23t180 9l-31 -101q-85 0 -154 25t-125.5 58.5t-104 58.5t-88.5 25q-46 0 -78.5 -16t-52.5 -36l-14 6q10 48 34.5 96t63 79.5t88.5 31.5q53 0 99 -25t99 -58.5t125 -58.5
t178 -25l-51 -173q-104 0 -172.5 -19t-119.5 -47.5t-101.5 -57t-116.5 -47.5t-166 -19zM440 860q64 -45 104 -104l-104 -104q-20 31 -46.5 56.5t-57.5 47.5zM440 1058q64 -45 104 -104l-104 -104q-20 31 -46.5 56.5t-57.5 47.5z" />
    <glyph glyph-name="uni0682.medi" unicode="&#x682;" horiz-adv-x="817" 
d="M0 0q-23 0 -34.5 27.5t-11.5 62.5t11.5 62.5t34.5 27.5q94 0 153.5 8.5t101 24.5t80 37.5t89 46.5t127 53t196.5 56l-44 -125q-111 -23 -191 -13t-138 34t-103 45.5t-86 21.5q-46 0 -78.5 -16t-52.5 -36l-14 6q10 48 34.5 96t63 79.5t88.5 31.5q53 0 103.5 -23t111 -48.5
t141.5 -35.5t195 17l-52 -173q-104 -21 -177 -54t-131.5 -69.5t-116.5 -69.5t-129 -53.5t-171 -20.5zM817 0q-107 0 -163 64t-65 228l45 12q9 -81 52 -102.5t131 -21.5q27 0 40 -27.5t13 -62.5t-13 -62.5t-40 -27.5zM440 860q64 -45 104 -104l-104 -104q-20 31 -46.5 56.5
t-57.5 47.5zM440 1058q64 -45 104 -104l-104 -104q-20 31 -46.5 56.5t-57.5 47.5z" />
    <glyph glyph-name="uni0682.fina" unicode="&#x682;" horiz-adv-x="889" 
d="M549 348q0 -94 43 -131t128 -37h169q32 0 47 -27.5t15 -62.5t-15 -62.5t-47 -27.5h-149q-99 0 -150 41.5t-69.5 119.5t-18.5 187h47zM659 -743q-223 0 -359.5 73.5t-198 191.5t-61.5 252q0 101 35 208.5t108.5 205.5t190.5 171l2 -7q-30 3 -59 12t-64 9
q-46 0 -81.5 -21.5t-57.5 -48t-28 -42.5l-14 6q6 66 38.5 126t86.5 98.5t124 38.5q49 0 95.5 -15t105 -30t143.5 -15q68 0 135 6l-69 -167q-29 4 -66 4q-103 0 -202.5 -40t-180 -110t-128.5 -161t-48 -193q0 -149 81 -230t218 -112t305 -31h153v-29zM486 864
q64 -45 104 -104l-104 -104q-20 31 -46.5 56.5t-57.5 47.5zM486 1062q64 -45 104 -104l-104 -104q-20 31 -46.5 56.5t-57.5 47.5z" />
    <glyph glyph-name="uni0683.init" unicode="&#x683;" horiz-adv-x="767" arabic-form="initial" 
d="M0 0q-23 0 -29.5 27.5t-6.5 62.5t10 62.5t26 27.5q101 0 161 9t97 23t68 29.5t72.5 29.5t109.5 23t180 9l-31 -101q-85 0 -154 25t-125.5 58.5t-104 58.5t-88.5 25q-46 0 -78.5 -16t-52.5 -36l-14 6q10 48 34.5 96t63 79.5t88.5 31.5q53 0 99 -25t99 -58.5t125 -58.5
t178 -25l-51 -173q-104 0 -172.5 -19t-119.5 -47.5t-101.5 -57t-116.5 -47.5t-166 -19zM245 -76q64 -45 104 -104l-104 -104q-20 31 -46.5 56.5t-57.5 47.5zM443 -76q64 -45 104 -104l-104 -104q-20 31 -46.5 56.5t-57.5 47.5z" />
    <glyph glyph-name="uni0683.medi" unicode="&#x683;" horiz-adv-x="817" arabic-form="medial" 
d="M0 0q-23 0 -34.5 27.5t-11.5 62.5t11.5 62.5t34.5 27.5q94 0 153.5 8.5t101 24.5t80 37.5t89 46.5t127 53t196.5 56l-44 -125q-111 -23 -191 -13t-138 34t-103 45.5t-86 21.5q-46 0 -78.5 -16t-52.5 -36l-14 6q10 48 34.5 96t63 79.5t88.5 31.5q53 0 103.5 -23t111 -48.5
t141.5 -35.5t195 17l-52 -173q-104 -21 -177 -54t-131.5 -69.5t-116.5 -69.5t-129 -53.5t-171 -20.5zM817 0q-107 0 -163 64t-65 228l45 12q9 -81 52 -102.5t131 -21.5q27 0 40 -27.5t13 -62.5t-13 -62.5t-40 -27.5zM255 -76q64 -45 104 -104l-104 -104q-20 31 -46.5 56.5
t-57.5 47.5zM453 -76q64 -45 104 -104l-104 -104q-20 31 -46.5 56.5t-57.5 47.5z" />
    <glyph glyph-name="uni0683.fina" unicode="&#x683;" horiz-adv-x="889" arabic-form="final" 
d="M549 348q0 -94 43 -131t128 -37h169q32 0 47 -27.5t15 -62.5t-15 -62.5t-47 -27.5h-149q-99 0 -150 41.5t-69.5 119.5t-18.5 187h47zM659 -743q-223 0 -359.5 73.5t-198 191.5t-61.5 252q0 101 35 208.5t108.5 205.5t190.5 171l2 -7q-30 3 -59 12t-64 9
q-46 0 -81.5 -21.5t-57.5 -48t-28 -42.5l-14 6q6 66 38.5 126t86.5 98.5t124 38.5q49 0 95.5 -15t105 -30t143.5 -15q68 0 135 6l-69 -167q-29 4 -66 4q-103 0 -202.5 -40t-180 -110t-128.5 -161t-48 -193q0 -149 81 -230t218 -112t305 -31h153v-29zM345 -98
q64 -45 104 -104l-104 -104q-20 31 -46.5 56.5t-57.5 47.5zM543 -98q64 -45 104 -104l-104 -104q-20 31 -46.5 56.5t-57.5 47.5z" />
    <glyph glyph-name="uni0684.init" unicode="&#x684;" horiz-adv-x="767" arabic-form="initial" 
d="M0 0q-23 0 -29.5 27.5t-6.5 62.5t10 62.5t26 27.5q101 0 161 9t97 23t68 29.5t72.5 29.5t109.5 23t180 9l-31 -101q-85 0 -154 25t-125.5 58.5t-104 58.5t-88.5 25q-46 0 -78.5 -16t-52.5 -36l-14 6q10 48 34.5 96t63 79.5t88.5 31.5q53 0 99 -25t99 -58.5t125 -58.5
t178 -25l-51 -173q-104 0 -172.5 -19t-119.5 -47.5t-101.5 -57t-116.5 -47.5t-166 -19zM344 -281q64 -45 104 -104l-104 -104q-20 31 -46.5 56.5t-57.5 47.5zM344 -83q64 -45 104 -104l-104 -104q-20 31 -46.5 56.5t-57.5 47.5z" />
    <glyph glyph-name="uni0684.medi" unicode="&#x684;" horiz-adv-x="817" arabic-form="medial" 
d="M0 0q-23 0 -34.5 27.5t-11.5 62.5t11.5 62.5t34.5 27.5q94 0 153.5 8.5t101 24.5t80 37.5t89 46.5t127 53t196.5 56l-44 -125q-111 -23 -191 -13t-138 34t-103 45.5t-86 21.5q-46 0 -78.5 -16t-52.5 -36l-14 6q10 48 34.5 96t63 79.5t88.5 31.5q53 0 103.5 -23t111 -48.5
t141.5 -35.5t195 17l-52 -173q-104 -21 -177 -54t-131.5 -69.5t-116.5 -69.5t-129 -53.5t-171 -20.5zM817 0q-107 0 -163 64t-65 228l45 12q9 -81 52 -102.5t131 -21.5q27 0 40 -27.5t13 -62.5t-13 -62.5t-40 -27.5zM354 -281q64 -45 104 -104l-104 -104q-20 31 -46.5 56.5
t-57.5 47.5zM354 -83q64 -45 104 -104l-104 -104q-20 31 -46.5 56.5t-57.5 47.5z" />
    <glyph glyph-name="uni0684.fina" unicode="&#x684;" horiz-adv-x="889" arabic-form="final" 
d="M549 348q0 -94 43 -131t128 -37h169q32 0 47 -27.5t15 -62.5t-15 -62.5t-47 -27.5h-149q-99 0 -150 41.5t-69.5 119.5t-18.5 187h47zM659 -743q-223 0 -359.5 73.5t-198 191.5t-61.5 252q0 101 35 208.5t108.5 205.5t190.5 171l2 -7q-30 3 -59 12t-64 9
q-46 0 -81.5 -21.5t-57.5 -48t-28 -42.5l-14 6q6 66 38.5 126t86.5 98.5t124 38.5q49 0 95.5 -15t105 -30t143.5 -15q68 0 135 6l-69 -167q-29 4 -66 4q-103 0 -202.5 -40t-180 -110t-128.5 -161t-48 -193q0 -149 81 -230t218 -112t305 -31h153v-29zM444 -197
q64 -45 104 -104l-104 -104q-20 31 -46.5 56.5t-57.5 47.5zM444 1q64 -45 104 -104l-104 -104q-20 31 -46.5 56.5t-57.5 47.5z" />
    <glyph glyph-name="uni0685.init" unicode="&#x685;" horiz-adv-x="767" 
d="M0 0q-23 0 -29.5 27.5t-6.5 62.5t10 62.5t26 27.5q101 0 161 9t97 23t68 29.5t72.5 29.5t109.5 23t180 9l-31 -101q-85 0 -154 25t-125.5 58.5t-104 58.5t-88.5 25q-46 0 -78.5 -16t-52.5 -36l-14 6q10 48 34.5 96t63 79.5t88.5 31.5q53 0 99 -25t99 -58.5t125 -58.5
t178 -25l-51 -173q-104 0 -172.5 -19t-119.5 -47.5t-101.5 -57t-116.5 -47.5t-166 -19zM437 1061q64 -45 104 -104l-104 -104q-20 31 -46.5 56.5t-57.5 47.5zM341 857q64 -45 104 -104l-104 -104q-20 31 -46.5 56.5t-57.5 47.5zM539 857q64 -45 104 -104l-104 -104
q-20 31 -46.5 56.5t-57.5 47.5z" />
    <glyph glyph-name="uni0685.medi" unicode="&#x685;" horiz-adv-x="817" 
d="M0 0q-23 0 -34.5 27.5t-11.5 62.5t11.5 62.5t34.5 27.5q94 0 153.5 8.5t101 24.5t80 37.5t89 46.5t127 53t196.5 56l-44 -125q-111 -23 -191 -13t-138 34t-103 45.5t-86 21.5q-46 0 -78.5 -16t-52.5 -36l-14 6q10 48 34.5 96t63 79.5t88.5 31.5q53 0 103.5 -23t111 -48.5
t141.5 -35.5t195 17l-52 -173q-104 -21 -177 -54t-131.5 -69.5t-116.5 -69.5t-129 -53.5t-171 -20.5zM817 0q-107 0 -163 64t-65 228l45 12q9 -81 52 -102.5t131 -21.5q27 0 40 -27.5t13 -62.5t-13 -62.5t-40 -27.5zM437 1061q64 -45 104 -104l-104 -104q-20 31 -46.5 56.5
t-57.5 47.5zM341 857q64 -45 104 -104l-104 -104q-20 31 -46.5 56.5t-57.5 47.5zM539 857q64 -45 104 -104l-104 -104q-20 31 -46.5 56.5t-57.5 47.5z" />
    <glyph glyph-name="uni0685.fina" unicode="&#x685;" horiz-adv-x="889" 
d="M549 348q0 -94 43 -131t128 -37h169q32 0 47 -27.5t15 -62.5t-15 -62.5t-47 -27.5h-149q-99 0 -150 41.5t-69.5 119.5t-18.5 187h47zM659 -743q-223 0 -359.5 73.5t-198 191.5t-61.5 252q0 101 35 208.5t108.5 205.5t190.5 171l2 -7q-30 3 -59 12t-64 9
q-46 0 -81.5 -21.5t-57.5 -48t-28 -42.5l-14 6q6 66 38.5 126t86.5 98.5t124 38.5q49 0 95.5 -15t105 -30t143.5 -15q68 0 135 6l-69 -167q-29 4 -66 4q-103 0 -202.5 -40t-180 -110t-128.5 -161t-48 -193q0 -149 81 -230t218 -112t305 -31h153v-29zM483 1065
q64 -45 104 -104l-104 -104q-20 31 -46.5 56.5t-57.5 47.5zM387 861q64 -45 104 -104l-104 -104q-20 31 -46.5 56.5t-57.5 47.5zM585 861q64 -45 104 -104l-104 -104q-20 31 -46.5 56.5t-57.5 47.5z" />
    <glyph glyph-name="uni0686.init" unicode="&#x686;" horiz-adv-x="767" arabic-form="initial" 
d="M0 0q-23 0 -29.5 27.5t-6.5 62.5t10 62.5t26 27.5q101 0 161 9t97 23t68 29.5t72.5 29.5t109.5 23t180 9l-31 -101q-85 0 -154 25t-125.5 58.5t-104 58.5t-88.5 25q-46 0 -78.5 -16t-52.5 -36l-14 6q10 48 34.5 96t63 79.5t88.5 31.5q53 0 99 -25t99 -58.5t125 -58.5
t178 -25l-51 -173q-104 0 -172.5 -19t-119.5 -47.5t-101.5 -57t-116.5 -47.5t-166 -19zM344 -285q64 -45 104 -104l-104 -104q-20 31 -46.5 56.5t-57.5 47.5zM245 -81q64 -45 104 -104l-104 -104q-20 31 -46.5 56.5t-57.5 47.5zM443 -81q64 -45 104 -104l-104 -104
q-20 31 -46.5 56.5t-57.5 47.5z" />
    <glyph glyph-name="uni0686.medi" unicode="&#x686;" horiz-adv-x="817" arabic-form="medial" 
d="M0 0q-23 0 -34.5 27.5t-11.5 62.5t11.5 62.5t34.5 27.5q94 0 153.5 8.5t101 24.5t80 37.5t89 46.5t127 53t196.5 56l-44 -125q-111 -23 -191 -13t-138 34t-103 45.5t-86 21.5q-46 0 -78.5 -16t-52.5 -36l-14 6q10 48 34.5 96t63 79.5t88.5 31.5q53 0 103.5 -23t111 -48.5
t141.5 -35.5t195 17l-52 -173q-104 -21 -177 -54t-131.5 -69.5t-116.5 -69.5t-129 -53.5t-171 -20.5zM817 0q-107 0 -163 64t-65 228l45 12q9 -81 52 -102.5t131 -21.5q27 0 40 -27.5t13 -62.5t-13 -62.5t-40 -27.5zM354 -285q64 -45 104 -104l-104 -104q-20 31 -46.5 56.5
t-57.5 47.5zM255 -81q64 -45 104 -104l-104 -104q-20 31 -46.5 56.5t-57.5 47.5zM453 -81q64 -45 104 -104l-104 -104q-20 31 -46.5 56.5t-57.5 47.5z" />
    <glyph glyph-name="uni0686.fina" unicode="&#x686;" horiz-adv-x="889" arabic-form="final" 
d="M549 348q0 -94 43 -131t128 -37h169q32 0 47 -27.5t15 -62.5t-15 -62.5t-47 -27.5h-149q-99 0 -150 41.5t-69.5 119.5t-18.5 187h47zM659 -743q-223 0 -359.5 73.5t-198 191.5t-61.5 252q0 101 35 208.5t108.5 205.5t190.5 171l2 -7q-30 3 -59 12t-64 9
q-46 0 -81.5 -21.5t-57.5 -48t-28 -42.5l-14 6q6 66 38.5 126t86.5 98.5t124 38.5q49 0 95.5 -15t105 -30t143.5 -15q68 0 135 6l-69 -167q-29 4 -66 4q-103 0 -202.5 -40t-180 -110t-128.5 -161t-48 -193q0 -149 81 -230t218 -112t305 -31h153v-29zM444 -201
q64 -45 104 -104l-104 -104q-20 31 -46.5 56.5t-57.5 47.5zM345 3q64 -45 104 -104l-104 -104q-20 31 -46.5 56.5t-57.5 47.5zM543 3q64 -45 104 -104l-104 -104q-20 31 -46.5 56.5t-57.5 47.5z" />
    <glyph glyph-name="uni0687.init" unicode="&#x687;" horiz-adv-x="767" arabic-form="initial" 
d="M0 0q-23 0 -29.5 27.5t-6.5 62.5t10 62.5t26 27.5q101 0 161 9t97 23t68 29.5t72.5 29.5t109.5 23t180 9l-31 -101q-85 0 -154 25t-125.5 58.5t-104 58.5t-88.5 25q-46 0 -78.5 -16t-52.5 -36l-14 6q10 48 34.5 96t63 79.5t88.5 31.5q53 0 99 -25t99 -58.5t125 -58.5
t178 -25l-51 -173q-104 0 -172.5 -19t-119.5 -47.5t-101.5 -57t-116.5 -47.5t-166 -19zM243 -91q64 -45 104 -104l-104 -104q-20 31 -46.5 56.5t-57.5 47.5zM441 -91q64 -45 104 -104l-104 -104q-20 31 -46.5 56.5t-57.5 47.5zM243 -290q64 -45 104 -104l-104 -104
q-20 31 -46.5 56.5t-57.5 47.5zM441 -290q64 -45 104 -104l-104 -104q-20 31 -46.5 56.5t-57.5 47.5z" />
    <glyph glyph-name="uni0687.medi" unicode="&#x687;" horiz-adv-x="817" arabic-form="medial" 
d="M0 0q-23 0 -34.5 27.5t-11.5 62.5t11.5 62.5t34.5 27.5q94 0 153.5 8.5t101 24.5t80 37.5t89 46.5t127 53t196.5 56l-44 -125q-111 -23 -191 -13t-138 34t-103 45.5t-86 21.5q-46 0 -78.5 -16t-52.5 -36l-14 6q10 48 34.5 96t63 79.5t88.5 31.5q53 0 103.5 -23t111 -48.5
t141.5 -35.5t195 17l-52 -173q-104 -21 -177 -54t-131.5 -69.5t-116.5 -69.5t-129 -53.5t-171 -20.5zM817 0q-107 0 -163 64t-65 228l45 12q9 -81 52 -102.5t131 -21.5q27 0 40 -27.5t13 -62.5t-13 -62.5t-40 -27.5zM253 -91q64 -45 104 -104l-104 -104q-20 31 -46.5 56.5
t-57.5 47.5zM451 -91q64 -45 104 -104l-104 -104q-20 31 -46.5 56.5t-57.5 47.5zM253 -290q64 -45 104 -104l-104 -104q-20 31 -46.5 56.5t-57.5 47.5zM451 -290q64 -45 104 -104l-104 -104q-20 31 -46.5 56.5t-57.5 47.5z" />
    <glyph glyph-name="uni0687.fina" unicode="&#x687;" horiz-adv-x="889" arabic-form="final" 
d="M549 348q0 -94 43 -131t128 -37h169q32 0 47 -27.5t15 -62.5t-15 -62.5t-47 -27.5h-149q-99 0 -150 41.5t-69.5 119.5t-18.5 187h47zM659 -743q-223 0 -359.5 73.5t-198 191.5t-61.5 252q0 101 35 208.5t108.5 205.5t190.5 171l2 -7q-30 3 -59 12t-64 9
q-46 0 -81.5 -21.5t-57.5 -48t-28 -42.5l-14 6q6 66 38.5 126t86.5 98.5t124 38.5q49 0 95.5 -15t105 -30t143.5 -15q68 0 135 6l-69 -167q-29 4 -66 4q-103 0 -202.5 -40t-180 -110t-128.5 -161t-48 -193q0 -149 81 -230t218 -112t305 -31h153v-29zM343 -7q64 -45 104 -104
l-104 -104q-20 31 -46.5 56.5t-57.5 47.5zM541 -7q64 -45 104 -104l-104 -104q-20 31 -46.5 56.5t-57.5 47.5zM343 -206q64 -45 104 -104l-104 -104q-20 31 -46.5 56.5t-57.5 47.5zM541 -206q64 -45 104 -104l-104 -104q-20 31 -46.5 56.5t-57.5 47.5z" />
    <glyph glyph-name="uni0688.fina" unicode="&#x688;" horiz-adv-x="644" arabic-form="final" 
d="M618 0q-61 0 -103 28.5t-75.5 102.5t-70.5 209.5t-88 349.5l70 80l96 -440q16 -71 40 -103t62 -39.5t95 -7.5q27 0 40.5 -27.5t13.5 -62.5t-13.5 -62.5t-40.5 -27.5h-26zM168 -15q-77 0 -128 48l11 180q30 -31 72.5 -43t88.5 -12q49 0 93 13.5t70.5 35t19.5 43.5l49 -10
q0 -109 -75.5 -182t-200.5 -73zM310 893l-12 85q88 0 158.5 10.5t70.5 32.5q0 15 -16 27.5t-47 12.5q-12 0 -41 -14t-61 -35.5t-54 -44.5l-23 2q53 57 113 108t106 51q36 0 52 -18.5t16 -44.5q0 -45 -38.5 -84.5t-98.5 -63.5t-125 -24zM311 893q-66 0 -106 31.5t-60 68.5
l2 5q34 -10 75 -15t77 -5zM327 1002l-9 248l35 -20v-205zM368 1207q-69 27 -69 60q0 18 18.5 45.5t31.5 37.5l6 -4q-13 -28 6 -47t53 -30z" />
    <glyph glyph-name="uni0689.fina" unicode="&#x689;" horiz-adv-x="644" 
d="M618 0q-61 0 -103 28.5t-75.5 102.5t-70.5 209.5t-88 349.5l70 80l96 -440q16 -71 40 -103t62 -39.5t95 -7.5q27 0 40.5 -27.5t13.5 -62.5t-13.5 -62.5t-40.5 -27.5h-26zM168 -15q-77 0 -128 48l11 180q30 -31 72.5 -43t88.5 -12q49 0 93 13.5t70.5 35t19.5 43.5l49 -10
q0 -109 -75.5 -182t-200.5 -73zM198 -219q-62 0 -84.5 33t-22.5 83q0 46 29 94.5t78 48.5q50 0 79.5 -48.5t29.5 -94.5q0 -50 -23.5 -83t-85.5 -33zM198 -149q28 0 48.5 9.5t20.5 43.5q0 35 -20.5 57.5t-48.5 22.5t-47.5 -22.5t-19.5 -57.5q0 -37 19.5 -45t47.5 -8z" />
    <glyph glyph-name="uni068A.fina" unicode="&#x68a;" horiz-adv-x="644" 
d="M618 0q-61 0 -103 28.5t-75.5 102.5t-70.5 209.5t-88 349.5l70 80l96 -440q16 -71 40 -103t62 -39.5t95 -7.5q27 0 40.5 -27.5t13.5 -62.5t-13.5 -62.5t-40.5 -27.5h-26zM168 -15q-77 0 -128 48l11 180q30 -31 72.5 -43t88.5 -12q49 0 93 13.5t70.5 35t19.5 43.5l49 -10
q0 -109 -75.5 -182t-200.5 -73zM249 -165q64 -45 104 -104l-104 -104q-20 31 -46.5 56.5t-57.5 47.5z" />
    <glyph glyph-name="uni068B.fina" unicode="&#x68b;" horiz-adv-x="644" 
d="M618 0q-61 0 -103 28.5t-75.5 102.5t-70.5 209.5t-88 349.5l70 80l96 -440q16 -71 40 -103t62 -39.5t95 -7.5q27 0 40.5 -27.5t13.5 -62.5t-13.5 -62.5t-40.5 -27.5h-26zM168 -15q-77 0 -128 48l11 180q30 -31 72.5 -43t88.5 -12q49 0 93 13.5t70.5 35t19.5 43.5l49 -10
q0 -109 -75.5 -182t-200.5 -73zM310 893l-12 85q88 0 158.5 10.5t70.5 32.5q0 15 -16 27.5t-47 12.5q-12 0 -41 -14t-61 -35.5t-54 -44.5l-23 2q53 57 113 108t106 51q36 0 52 -18.5t16 -44.5q0 -45 -38.5 -84.5t-98.5 -63.5t-125 -24zM311 893q-66 0 -106 31.5t-60 68.5
l2 5q34 -10 75 -15t77 -5zM327 1002l-9 248l35 -20v-205zM368 1207q-69 27 -69 60q0 18 18.5 45.5t31.5 37.5l6 -4q-13 -28 6 -47t53 -30zM249 -165q64 -45 104 -104l-104 -104q-20 31 -46.5 56.5t-57.5 47.5z" />
    <glyph glyph-name="uni068C.fina" unicode="&#x68c;" horiz-adv-x="644" arabic-form="final" 
d="M618 0q-61 0 -103 28.5t-75.5 102.5t-70.5 209.5t-88 349.5l70 80l96 -440q16 -71 40 -103t62 -39.5t95 -7.5q27 0 40.5 -27.5t13.5 -62.5t-13.5 -62.5t-40.5 -27.5h-26zM168 -15q-77 0 -128 48l11 180q30 -31 72.5 -43t88.5 -12q49 0 93 13.5t70.5 35t19.5 43.5l49 -10
q0 -109 -75.5 -182t-200.5 -73zM250 1107q64 -45 104 -104l-104 -104q-20 31 -46.5 56.5t-57.5 47.5zM448 1107q64 -45 104 -104l-104 -104q-20 31 -46.5 56.5t-57.5 47.5z" />
    <glyph glyph-name="uni068D.fina" unicode="&#x68d;" horiz-adv-x="644" arabic-form="final" 
d="M618 0q-61 0 -103 28.5t-75.5 102.5t-70.5 209.5t-88 349.5l70 80l96 -440q16 -71 40 -103t62 -39.5t95 -7.5q27 0 40.5 -27.5t13.5 -62.5t-13.5 -62.5t-40.5 -27.5h-26zM168 -15q-77 0 -128 48l11 180q30 -31 72.5 -43t88.5 -12q49 0 93 13.5t70.5 35t19.5 43.5l49 -10
q0 -109 -75.5 -182t-200.5 -73zM150 -165q64 -45 104 -104l-104 -104q-20 31 -46.5 56.5t-57.5 47.5zM348 -165q64 -45 104 -104l-104 -104q-20 31 -46.5 56.5t-57.5 47.5z" />
    <glyph glyph-name="uni068E.fina" unicode="&#x68e;" horiz-adv-x="644" arabic-form="final" 
d="M618 0q-61 0 -103 28.5t-75.5 102.5t-70.5 209.5t-88 349.5l70 80l96 -440q16 -71 40 -103t62 -39.5t95 -7.5q27 0 40.5 -27.5t13.5 -62.5t-13.5 -62.5t-40.5 -27.5h-26zM168 -15q-77 0 -128 48l11 180q30 -31 72.5 -43t88.5 -12q49 0 93 13.5t70.5 35t19.5 43.5l49 -10
q0 -109 -75.5 -182t-200.5 -73zM346 1315q64 -45 104 -104l-104 -104q-20 31 -46.5 56.5t-57.5 47.5zM250 1111q64 -45 104 -104l-104 -104q-20 31 -46.5 56.5t-57.5 47.5zM448 1111q64 -45 104 -104l-104 -104q-20 31 -46.5 56.5t-57.5 47.5z" />
    <glyph glyph-name="uni068F.fina" unicode="&#x68f;" horiz-adv-x="644" 
d="M618 0q-61 0 -103 28.5t-75.5 102.5t-70.5 209.5t-88 349.5l70 80l96 -440q16 -71 40 -103t62 -39.5t95 -7.5q27 0 40.5 -27.5t13.5 -62.5t-13.5 -62.5t-40.5 -27.5h-26zM168 -15q-77 0 -128 48l11 180q30 -31 72.5 -43t88.5 -12q49 0 93 13.5t70.5 35t19.5 43.5l49 -10
q0 -109 -75.5 -182t-200.5 -73zM349 1110q64 -45 104 -104l-104 -104q-20 31 -46.5 56.5t-57.5 47.5zM250 1314q64 -45 104 -104l-104 -104q-20 31 -46.5 56.5t-57.5 47.5zM448 1314q64 -45 104 -104l-104 -104q-20 31 -46.5 56.5t-57.5 47.5z" />
    <glyph glyph-name="uni0690.fina" unicode="&#x690;" horiz-adv-x="644" 
d="M618 0q-61 0 -103 28.5t-75.5 102.5t-70.5 209.5t-88 349.5l70 80l96 -440q16 -71 40 -103t62 -39.5t95 -7.5q27 0 40.5 -27.5t13.5 -62.5t-13.5 -62.5t-40.5 -27.5h-26zM168 -15q-77 0 -128 48l11 180q30 -31 72.5 -43t88.5 -12q49 0 93 13.5t70.5 35t19.5 43.5l49 -10
q0 -109 -75.5 -182t-200.5 -73zM248 1304q64 -45 104 -104l-104 -104q-20 31 -46.5 56.5t-57.5 47.5zM446 1304q64 -45 104 -104l-104 -104q-20 31 -46.5 56.5t-57.5 47.5zM248 1105q64 -45 104 -104l-104 -104q-20 31 -46.5 56.5t-57.5 47.5zM446 1105q64 -45 104 -104
l-104 -104q-20 31 -46.5 56.5t-57.5 47.5z" />
    <glyph glyph-name="uni0691.fina" unicode="&#x691;" horiz-adv-x="542" arabic-form="final" 
d="M-114 -297l7 14q14 -4 31 -7.5t44 -3.5q109 0 191.5 36t137.5 87t82.5 97.5t27.5 67.5q0 26 -41.5 64.5t-88.5 62.5l46 176q62 -40 95.5 -99t33.5 -136q0 -108 -37 -209.5t-102 -167t-148 -65.5q-69 0 -151.5 24.5t-127.5 58.5zM542 180q31 0 46.5 -27.5t15.5 -62.5
t-15.5 -62.5t-46.5 -27.5q-48 0 -88 21.5t-69 51.5v171q41 -43 79 -53.5t78 -10.5zM284 422l-12 85q88 0 158.5 10.5t70.5 32.5q0 15 -16 27.5t-47 12.5q-12 0 -41 -14t-61 -35.5t-54 -44.5l-23 2q53 57 113 108t106 51q36 0 52 -18.5t16 -44.5q0 -45 -38.5 -84.5
t-98.5 -63.5t-125 -24zM285 422q-66 0 -106 31.5t-60 68.5l2 5q34 -10 75 -15t77 -5zM301 531l-9 248l35 -20v-205zM342 736q-69 27 -69 60q0 18 18.5 45.5t31.5 37.5l6 -4q-13 -28 6 -47t53 -30z" />
    <glyph glyph-name="uni0692.fina" unicode="&#x692;" horiz-adv-x="542" 
d="M-114 -297l7 14q14 -4 31 -7.5t44 -3.5q109 0 191.5 36t137.5 87t82.5 97.5t27.5 67.5q0 26 -41.5 64.5t-88.5 62.5l46 176q62 -40 95.5 -99t33.5 -136q0 -108 -37 -209.5t-102 -167t-148 -65.5q-69 0 -151.5 24.5t-127.5 58.5zM542 180q31 0 46.5 -27.5t15.5 -62.5
t-15.5 -62.5t-46.5 -27.5q-48 0 -88 21.5t-69 51.5v171q41 -43 79 -53.5t78 -10.5zM149 625l55 42q26 -32 53.5 -67t49 -58.5t27.5 -23.5q5 0 28.5 23t54 57t56.5 66l29 -23q-37 -47 -78.5 -94t-73 -77.5t-38.5 -30.5q-6 0 -35 31t-64.5 74.5t-63.5 80.5z" />
    <glyph glyph-name="uni0693.fina" unicode="&#x693;" horiz-adv-x="542" 
d="M-114 -297l7 14q14 -4 31 -7.5t44 -3.5q109 0 191.5 36t137.5 87t82.5 97.5t27.5 67.5q0 26 -41.5 64.5t-88.5 62.5l46 176q62 -40 95.5 -99t33.5 -136q0 -108 -37 -209.5t-102 -167t-148 -65.5q-69 0 -151.5 24.5t-127.5 58.5zM542 180q31 0 46.5 -27.5t15.5 -62.5
t-15.5 -62.5t-46.5 -27.5q-48 0 -88 21.5t-69 51.5v171q41 -43 79 -53.5t78 -10.5zM334 -519q-62 0 -84.5 33t-22.5 83q0 46 29 94.5t78 48.5q50 0 79.5 -48.5t29.5 -94.5q0 -50 -23.5 -83t-85.5 -33zM334 -449q28 0 48.5 9.5t20.5 43.5q0 35 -20.5 57.5t-48.5 22.5
t-47.5 -22.5t-19.5 -57.5q0 -37 19.5 -45t47.5 -8z" />
    <glyph glyph-name="uni0694.fina" unicode="&#x694;" horiz-adv-x="542" 
d="M-114 -297l7 14q14 -4 31 -7.5t44 -3.5q109 0 191.5 36t137.5 87t82.5 97.5t27.5 67.5q0 26 -41.5 64.5t-88.5 62.5l46 176q62 -40 95.5 -99t33.5 -136q0 -108 -37 -209.5t-102 -167t-148 -65.5q-69 0 -151.5 24.5t-127.5 58.5zM542 180q31 0 46.5 -27.5t15.5 -62.5
t-15.5 -62.5t-46.5 -27.5q-48 0 -88 21.5t-69 51.5v171q41 -43 79 -53.5t78 -10.5zM418 -374q64 -45 104 -104l-104 -104q-20 31 -46.5 56.5t-57.5 47.5z" />
    <glyph glyph-name="uni0695.fina" unicode="&#x695;" horiz-adv-x="542" 
d="M-114 -297l7 14q14 -4 31 -7.5t44 -3.5q109 0 191.5 36t137.5 87t82.5 97.5t27.5 67.5q0 26 -41.5 64.5t-88.5 62.5l46 176q62 -40 95.5 -99t33.5 -136q0 -108 -37 -209.5t-102 -167t-148 -65.5q-69 0 -151.5 24.5t-127.5 58.5zM542 180q31 0 46.5 -27.5t15.5 -62.5
t-15.5 -62.5t-46.5 -27.5q-48 0 -88 21.5t-69 51.5v171q41 -43 79 -53.5t78 -10.5zM244 -421l55 42q26 -32 53.5 -67t49 -58.5t27.5 -23.5q5 0 28.5 23t54 57t56.5 66l29 -23q-37 -47 -78.5 -94t-73 -77.5t-38.5 -30.5q-6 0 -35 31t-64.5 74.5t-63.5 80.5z" />
    <glyph glyph-name="uni0696.fina" unicode="&#x696;" horiz-adv-x="542" 
d="M-114 -297l7 14q14 -4 31 -7.5t44 -3.5q109 0 191.5 36t137.5 87t82.5 97.5t27.5 67.5q0 26 -41.5 64.5t-88.5 62.5l46 176q62 -40 95.5 -99t33.5 -136q0 -108 -37 -209.5t-102 -167t-148 -65.5q-69 0 -151.5 24.5t-127.5 58.5zM542 180q31 0 46.5 -27.5t15.5 -62.5
t-15.5 -62.5t-46.5 -27.5q-48 0 -88 21.5t-69 51.5v171q41 -43 79 -53.5t78 -10.5zM418 -374q64 -45 104 -104l-104 -104q-20 31 -46.5 56.5t-57.5 47.5zM124 128q64 -45 104 -104l-104 -104q-20 31 -46.5 56.5t-57.5 47.5z" />
    <glyph glyph-name="uni0697.fina" unicode="&#x697;" horiz-adv-x="542" 
d="M-114 -297l7 14q14 -4 31 -7.5t44 -3.5q109 0 191.5 36t137.5 87t82.5 97.5t27.5 67.5q0 26 -41.5 64.5t-88.5 62.5l46 176q62 -40 95.5 -99t33.5 -136q0 -108 -37 -209.5t-102 -167t-148 -65.5q-69 0 -151.5 24.5t-127.5 58.5zM542 180q31 0 46.5 -27.5t15.5 -62.5
t-15.5 -62.5t-46.5 -27.5q-48 0 -88 21.5t-69 51.5v171q41 -43 79 -53.5t78 -10.5zM224 636q64 -45 104 -104l-104 -104q-20 31 -46.5 56.5t-57.5 47.5zM422 636q64 -45 104 -104l-104 -104q-20 31 -46.5 56.5t-57.5 47.5z" />
    <glyph glyph-name="uni0698.fina" unicode="&#x698;" horiz-adv-x="542" arabic-form="final" 
d="M-114 -297l7 14q14 -4 31 -7.5t44 -3.5q109 0 191.5 36t137.5 87t82.5 97.5t27.5 67.5q0 26 -41.5 64.5t-88.5 62.5l46 176q62 -40 95.5 -99t33.5 -136q0 -108 -37 -209.5t-102 -167t-148 -65.5q-69 0 -151.5 24.5t-127.5 58.5zM542 180q31 0 46.5 -27.5t15.5 -62.5
t-15.5 -62.5t-46.5 -27.5q-48 0 -88 21.5t-69 51.5v171q41 -43 79 -53.5t78 -10.5zM320 844q64 -45 104 -104l-104 -104q-20 31 -46.5 56.5t-57.5 47.5zM224 640q64 -45 104 -104l-104 -104q-20 31 -46.5 56.5t-57.5 47.5zM422 640q64 -45 104 -104l-104 -104
q-20 31 -46.5 56.5t-57.5 47.5z" />
    <glyph glyph-name="uni0699.fina" unicode="&#x699;" horiz-adv-x="542" 
d="M-114 -297l7 14q14 -4 31 -7.5t44 -3.5q109 0 191.5 36t137.5 87t82.5 97.5t27.5 67.5q0 26 -41.5 64.5t-88.5 62.5l46 176q62 -40 95.5 -99t33.5 -136q0 -108 -37 -209.5t-102 -167t-148 -65.5q-69 0 -151.5 24.5t-127.5 58.5zM542 180q31 0 46.5 -27.5t15.5 -62.5
t-15.5 -62.5t-46.5 -27.5q-48 0 -88 21.5t-69 51.5v171q41 -43 79 -53.5t78 -10.5zM222 833q64 -45 104 -104l-104 -104q-20 31 -46.5 56.5t-57.5 47.5zM420 833q64 -45 104 -104l-104 -104q-20 31 -46.5 56.5t-57.5 47.5zM222 634q64 -45 104 -104l-104 -104
q-20 31 -46.5 56.5t-57.5 47.5zM420 634q64 -45 104 -104l-104 -104q-20 31 -46.5 56.5t-57.5 47.5z" />
    <glyph glyph-name="uni069A.init" unicode="&#x69a;" horiz-adv-x="849" 
d="M0 0q-25 -1 -37.5 26.5t-12.5 62.5t12.5 63t37.5 28q69 0 105 13.5t58.5 46t52.5 89.5h15q-25 -74 20.5 -111.5t118.5 -37.5q48 0 89.5 30.5t69 66.5t33.5 52h15q-14 -59 9 -87t61.5 -36t69.5 -8q15 0 27 2.5t12 15.5q0 17 -7.5 47t-19.5 40l59 115q14 -13 17.5 -50.5
t3.5 -54.5q0 -27 -6 -75.5t-20 -99t-38.5 -85.5t-62.5 -35q-47 0 -86.5 26t-66.5 65l14 1q-84 -110 -185 -110q-67 0 -112 29.5t-71 55.5l12 5q-37 -55 -77.5 -72.5t-109.5 -17.5zM486 702q64 -45 104 -104l-104 -104q-20 31 -46.5 56.5t-57.5 47.5zM480 -113
q64 -45 104 -104l-104 -104q-20 31 -46.5 56.5t-57.5 47.5z" />
    <glyph glyph-name="uni069A.medi" unicode="&#x69a;" horiz-adv-x="1032" 
d="M1032 0q-71 0 -109 5t-58 21t-37 47l9 4q-15 -26 -52 -51.5t-83 -25.5q-88 0 -121 68l9 -2q-21 -25 -64.5 -45.5t-118.5 -20.5q-53 0 -95 15t-76 62l10 2q-36 -33 -66 -50t-70.5 -23t-109.5 -6q-21 0 -31 27.5t-10 62.5t10 62.5t31 27.5q97 0 148 12t78 44t51 93h15
q-11 -55 7.5 -87.5t53.5 -47t73 -14.5q72 0 128 26.5t95 122.5h15q-16 -82 1 -115.5t72 -33.5q42 0 70 28t45 63.5t26 57.5h15q-13 -68 -9 -99.5t38.5 -40.5t109.5 -9q29 0 42.5 -27.5t13.5 -62.5t-13.5 -62.5t-42.5 -27.5zM586 702q64 -45 104 -104l-104 -104
q-20 31 -46.5 56.5t-57.5 47.5zM586 -138q64 -45 104 -104l-104 -104q-20 31 -46.5 56.5t-57.5 47.5z" />
    <glyph glyph-name="uni069A.fina" unicode="&#x69a;" horiz-adv-x="1471" 
d="M1161 0q-44 0 -91.5 27.5t-70.5 55.5l85 155q17 -27 42 -39.5t50 -12.5q50 0 79.5 26.5t45 60.5t21.5 56h15q-15 -73 -10 -104t39 -38t105 -7q27 0 40.5 -27.5t13.5 -62.5t-13.5 -62.5t-40.5 -27.5q-76 0 -134 9t-88 56l9 1q-14 -21 -40.5 -43.5t-56.5 -22.5zM864 -15
q-25 0 -65 12t-65 29l-24 192q41 -32 73 -42.5t89 -10.5q48 0 96.5 32.5t82.5 78.5t37 86l18 -6q0 -53 -13.5 -116.5t-42.5 -121.5t-75 -95.5t-111 -37.5zM681 328q38 -76 56.5 -151.5t18.5 -145.5q0 -123 -52.5 -221t-150 -155.5t-232.5 -57.5q-133 0 -207 68.5t-74 204.5
q0 64 15.5 127.5t38.5 114.5t45 78l18 -8q-18 -45 -30.5 -94t-12.5 -100q0 -119 71.5 -165t180.5 -46q55 0 122 14t126 44t88 79l-5 -20q2 85 -25.5 153t-71.5 136zM1019 702q64 -45 104 -104l-104 -104q-20 31 -46.5 56.5t-57.5 47.5zM1069 -145q64 -45 104 -104l-104 -104
q-20 31 -46.5 56.5t-57.5 47.5z" />
    <glyph glyph-name="uni069B.init" unicode="&#x69b;" horiz-adv-x="849" 
d="M0 0q-25 -1 -37.5 26.5t-12.5 62.5t12.5 63t37.5 28q69 0 105 13.5t58.5 46t52.5 89.5h15q-25 -74 20.5 -111.5t118.5 -37.5q48 0 89.5 30.5t69 66.5t33.5 52h15q-14 -59 9 -87t61.5 -36t69.5 -8q15 0 27 2.5t12 15.5q0 17 -7.5 47t-19.5 40l59 115q14 -13 17.5 -50.5
t3.5 -54.5q0 -27 -6 -75.5t-20 -99t-38.5 -85.5t-62.5 -35q-47 0 -86.5 26t-66.5 65l14 1q-84 -110 -185 -110q-67 0 -112 29.5t-71 55.5l12 5q-37 -55 -77.5 -72.5t-109.5 -17.5zM480 -322q64 -45 104 -104l-104 -104q-20 31 -46.5 56.5t-57.5 47.5zM381 -118
q64 -45 104 -104l-104 -104q-20 31 -46.5 56.5t-57.5 47.5zM579 -118q64 -45 104 -104l-104 -104q-20 31 -46.5 56.5t-57.5 47.5z" />
    <glyph glyph-name="uni069B.medi" unicode="&#x69b;" horiz-adv-x="1032" 
d="M1032 0q-71 0 -109 5t-58 21t-37 47l9 4q-15 -26 -52 -51.5t-83 -25.5q-88 0 -121 68l9 -2q-21 -25 -64.5 -45.5t-118.5 -20.5q-53 0 -95 15t-76 62l10 2q-36 -33 -66 -50t-70.5 -23t-109.5 -6q-21 0 -31 27.5t-10 62.5t10 62.5t31 27.5q97 0 148 12t78 44t51 93h15
q-11 -55 7.5 -87.5t53.5 -47t73 -14.5q72 0 128 26.5t95 122.5h15q-16 -82 1 -115.5t72 -33.5q42 0 70 28t45 63.5t26 57.5h15q-13 -68 -9 -99.5t38.5 -40.5t109.5 -9q29 0 42.5 -27.5t13.5 -62.5t-13.5 -62.5t-42.5 -27.5zM586 -347q64 -45 104 -104l-104 -104
q-20 31 -46.5 56.5t-57.5 47.5zM487 -143q64 -45 104 -104l-104 -104q-20 31 -46.5 56.5t-57.5 47.5zM685 -143q64 -45 104 -104l-104 -104q-20 31 -46.5 56.5t-57.5 47.5z" />
    <glyph glyph-name="uni069B.fina" unicode="&#x69b;" horiz-adv-x="1471" 
d="M1161 0q-44 0 -91.5 27.5t-70.5 55.5l85 155q17 -27 42 -39.5t50 -12.5q50 0 79.5 26.5t45 60.5t21.5 56h15q-15 -73 -10 -104t39 -38t105 -7q27 0 40.5 -27.5t13.5 -62.5t-13.5 -62.5t-40.5 -27.5q-76 0 -134 9t-88 56l9 1q-14 -21 -40.5 -43.5t-56.5 -22.5zM864 -15
q-25 0 -65 12t-65 29l-24 192q41 -32 73 -42.5t89 -10.5q48 0 96.5 32.5t82.5 78.5t37 86l18 -6q0 -53 -13.5 -116.5t-42.5 -121.5t-75 -95.5t-111 -37.5zM681 328q38 -76 56.5 -151.5t18.5 -145.5q0 -123 -52.5 -221t-150 -155.5t-232.5 -57.5q-133 0 -207 68.5t-74 204.5
q0 64 15.5 127.5t38.5 114.5t45 78l18 -8q-18 -45 -30.5 -94t-12.5 -100q0 -119 71.5 -165t180.5 -46q55 0 122 14t126 44t88 79l-5 -20q2 85 -25.5 153t-71.5 136zM1069 -354q64 -45 104 -104l-104 -104q-20 31 -46.5 56.5t-57.5 47.5zM970 -150q64 -45 104 -104l-104 -104
q-20 31 -46.5 56.5t-57.5 47.5zM1168 -150q64 -45 104 -104l-104 -104q-20 31 -46.5 56.5t-57.5 47.5z" />
    <glyph glyph-name="uni069C.init" unicode="&#x69c;" horiz-adv-x="849" 
d="M0 0q-25 -1 -37.5 26.5t-12.5 62.5t12.5 63t37.5 28q69 0 105 13.5t58.5 46t52.5 89.5h15q-25 -74 20.5 -111.5t118.5 -37.5q48 0 89.5 30.5t69 66.5t33.5 52h15q-14 -59 9 -87t61.5 -36t69.5 -8q15 0 27 2.5t12 15.5q0 17 -7.5 47t-19.5 40l59 115q14 -13 17.5 -50.5
t3.5 -54.5q0 -27 -6 -75.5t-20 -99t-38.5 -85.5t-62.5 -35q-47 0 -86.5 26t-66.5 65l14 1q-84 -110 -185 -110q-67 0 -112 29.5t-71 55.5l12 5q-37 -55 -77.5 -72.5t-109.5 -17.5zM483 910q64 -45 104 -104l-104 -104q-20 31 -46.5 56.5t-57.5 47.5zM387 706
q64 -45 104 -104l-104 -104q-20 31 -46.5 56.5t-57.5 47.5zM585 706q64 -45 104 -104l-104 -104q-20 31 -46.5 56.5t-57.5 47.5zM480 -322q64 -45 104 -104l-104 -104q-20 31 -46.5 56.5t-57.5 47.5zM381 -118q64 -45 104 -104l-104 -104q-20 31 -46.5 56.5t-57.5 47.5z
M579 -118q64 -45 104 -104l-104 -104q-20 31 -46.5 56.5t-57.5 47.5z" />
    <glyph glyph-name="uni069C.medi" unicode="&#x69c;" horiz-adv-x="1032" 
d="M1032 0q-71 0 -109 5t-58 21t-37 47l9 4q-15 -26 -52 -51.5t-83 -25.5q-88 0 -121 68l9 -2q-21 -25 -64.5 -45.5t-118.5 -20.5q-53 0 -95 15t-76 62l10 2q-36 -33 -66 -50t-70.5 -23t-109.5 -6q-21 0 -31 27.5t-10 62.5t10 62.5t31 27.5q97 0 148 12t78 44t51 93h15
q-11 -55 7.5 -87.5t53.5 -47t73 -14.5q72 0 128 26.5t95 122.5h15q-16 -82 1 -115.5t72 -33.5q42 0 70 28t45 63.5t26 57.5h15q-13 -68 -9 -99.5t38.5 -40.5t109.5 -9q29 0 42.5 -27.5t13.5 -62.5t-13.5 -62.5t-42.5 -27.5zM583 910q64 -45 104 -104l-104 -104
q-20 31 -46.5 56.5t-57.5 47.5zM487 706q64 -45 104 -104l-104 -104q-20 31 -46.5 56.5t-57.5 47.5zM685 706q64 -45 104 -104l-104 -104q-20 31 -46.5 56.5t-57.5 47.5zM586 -347q64 -45 104 -104l-104 -104q-20 31 -46.5 56.5t-57.5 47.5zM487 -143q64 -45 104 -104
l-104 -104q-20 31 -46.5 56.5t-57.5 47.5zM685 -143q64 -45 104 -104l-104 -104q-20 31 -46.5 56.5t-57.5 47.5z" />
    <glyph glyph-name="uni069C.fina" unicode="&#x69c;" horiz-adv-x="1471" 
d="M1161 0q-44 0 -91.5 27.5t-70.5 55.5l85 155q17 -27 42 -39.5t50 -12.5q50 0 79.5 26.5t45 60.5t21.5 56h15q-15 -73 -10 -104t39 -38t105 -7q27 0 40.5 -27.5t13.5 -62.5t-13.5 -62.5t-40.5 -27.5q-76 0 -134 9t-88 56l9 1q-14 -21 -40.5 -43.5t-56.5 -22.5zM864 -15
q-25 0 -65 12t-65 29l-24 192q41 -32 73 -42.5t89 -10.5q48 0 96.5 32.5t82.5 78.5t37 86l18 -6q0 -53 -13.5 -116.5t-42.5 -121.5t-75 -95.5t-111 -37.5zM681 328q38 -76 56.5 -151.5t18.5 -145.5q0 -123 -52.5 -221t-150 -155.5t-232.5 -57.5q-133 0 -207 68.5t-74 204.5
q0 64 15.5 127.5t38.5 114.5t45 78l18 -8q-18 -45 -30.5 -94t-12.5 -100q0 -119 71.5 -165t180.5 -46q55 0 122 14t126 44t88 79l-5 -20q2 85 -25.5 153t-71.5 136zM1016 910q64 -45 104 -104l-104 -104q-20 31 -46.5 56.5t-57.5 47.5zM920 706q64 -45 104 -104l-104 -104
q-20 31 -46.5 56.5t-57.5 47.5zM1118 706q64 -45 104 -104l-104 -104q-20 31 -46.5 56.5t-57.5 47.5zM1069 -354q64 -45 104 -104l-104 -104q-20 31 -46.5 56.5t-57.5 47.5zM970 -150q64 -45 104 -104l-104 -104q-20 31 -46.5 56.5t-57.5 47.5zM1168 -150q64 -45 104 -104
l-104 -104q-20 31 -46.5 56.5t-57.5 47.5z" />
    <glyph glyph-name="uni069D.init" unicode="&#x69d;" horiz-adv-x="1171" 
d="M437 165l24 -180q-127 0 -202 33.5t-98 92.5l12 10q-35 -69 -69.5 -95t-93.5 -26h-15q-25 0 -37 29t-12 64t12 61t37 26h5q77 0 114.5 41t55.5 108h15q14 -103 83 -133.5t169 -30.5zM971 557q74 0 117 -40t43 -105q0 -95 -62 -173.5t-162 -135t-218 -87.5t-230 -31
l-25 180q110 0 213 8t185.5 24.5t131 42.5t48.5 63q0 43 -44 75t-111 32q-31 0 -102.5 -37t-154.5 -96.5t-150 -128.5l-62 5q43 47 114.5 115t155.5 134t166.5 110.5t146.5 44.5zM472 -146q64 -45 104 -104l-104 -104q-20 31 -46.5 56.5t-57.5 47.5zM670 -146
q64 -45 104 -104l-104 -104q-20 31 -46.5 56.5t-57.5 47.5z" />
    <glyph glyph-name="uni069D.medi" unicode="&#x69d;" horiz-adv-x="1171" 
d="M437 165l24 -180q-127 0 -202 33.5t-98 92.5l12 10q-35 -69 -69.5 -95t-93.5 -26h-15q-25 0 -37 29t-12 64t12 61t37 26h5q77 0 114.5 41t55.5 108h15q14 -103 83 -133.5t169 -30.5zM971 557q74 0 117 -40t43 -105q0 -95 -62 -173.5t-162 -135t-218 -87.5t-230 -31
l-25 180q110 0 213 8t185.5 24.5t131 42.5t48.5 63q0 43 -44 75t-111 32q-31 0 -102.5 -37t-154.5 -96.5t-150 -128.5l-62 5q43 47 114.5 115t155.5 134t166.5 110.5t146.5 44.5zM904 155q67 17 136 21t131 4q15 0 26.5 -25t11.5 -65q0 -43 -12 -66.5t-26 -23.5
q-121 0 -216 15t-194 57zM472 -146q64 -45 104 -104l-104 -104q-20 31 -46.5 56.5t-57.5 47.5zM670 -146q64 -45 104 -104l-104 -104q-20 31 -46.5 56.5t-57.5 47.5z" />
    <glyph glyph-name="uni069D.fina" unicode="&#x69d;" horiz-adv-x="1604" 
d="M869 165l25 -180q-60 0 -92.5 6.5t-67.5 24.5l-22 183q41 -22 68 -28t89 -6zM681 331q38 -76 56.5 -151.5t18.5 -145.5q0 -123 -52.5 -221t-150 -155.5t-232.5 -57.5q-133 0 -207 68.5t-74 204.5q0 64 15.5 127.5t38.5 114.5t45 78l18 -8q-18 -45 -30.5 -94t-12.5 -100
q0 -119 71.5 -165t180.5 -46q55 0 122 14t126 44t88 79l-5 -20q2 85 -25.5 153t-71.5 136zM1404 557q74 0 117 -40t43 -105q0 -95 -62 -173.5t-162 -135t-218 -87.5t-230 -31l-25 180q110 0 213 8t185.5 24.5t131 42.5t48.5 63q0 43 -44 75t-111 32q-31 0 -102.5 -37
t-154.5 -96.5t-150 -128.5l-62 5q43 47 114.5 115t155.5 134t166.5 110.5t146.5 44.5zM1336 155q67 17 136 21t131 4q15 0 26.5 -25t11.5 -65q0 -43 -12 -66.5t-26 -23.5q-121 0 -216 15t-194 57zM985 -146q64 -45 104 -104l-104 -104q-20 31 -46.5 56.5t-57.5 47.5z
M1183 -146q64 -45 104 -104l-104 -104q-20 31 -46.5 56.5t-57.5 47.5z" />
    <glyph glyph-name="uni069E.init" unicode="&#x69e;" horiz-adv-x="1171" 
d="M437 165l24 -180q-127 0 -202 33.5t-98 92.5l12 10q-35 -69 -69.5 -95t-93.5 -26h-15q-25 0 -37 29t-12 64t12 61t37 26h5q77 0 114.5 41t55.5 108h15q14 -103 83 -133.5t169 -30.5zM971 557q74 0 117 -40t43 -105q0 -95 -62 -173.5t-162 -135t-218 -87.5t-230 -31
l-25 180q110 0 213 8t185.5 24.5t131 42.5t48.5 63q0 43 -44 75t-111 32q-31 0 -102.5 -37t-154.5 -96.5t-150 -128.5l-62 5q43 47 114.5 115t155.5 134t166.5 110.5t146.5 44.5zM568 972q64 -45 104 -104l-104 -104q-20 31 -46.5 56.5t-57.5 47.5zM472 768q64 -45 104 -104
l-104 -104q-20 31 -46.5 56.5t-57.5 47.5zM670 768q64 -45 104 -104l-104 -104q-20 31 -46.5 56.5t-57.5 47.5z" />
    <glyph glyph-name="uni069E.medi" unicode="&#x69e;" horiz-adv-x="1171" 
d="M437 165l24 -180q-127 0 -202 33.5t-98 92.5l12 10q-35 -69 -69.5 -95t-93.5 -26h-15q-25 0 -37 29t-12 64t12 61t37 26h5q77 0 114.5 41t55.5 108h15q14 -103 83 -133.5t169 -30.5zM971 557q74 0 117 -40t43 -105q0 -95 -62 -173.5t-162 -135t-218 -87.5t-230 -31
l-25 180q110 0 213 8t185.5 24.5t131 42.5t48.5 63q0 43 -44 75t-111 32q-31 0 -102.5 -37t-154.5 -96.5t-150 -128.5l-62 5q43 47 114.5 115t155.5 134t166.5 110.5t146.5 44.5zM904 155q67 17 136 21t131 4q15 0 26.5 -25t11.5 -65q0 -43 -12 -66.5t-26 -23.5
q-121 0 -216 15t-194 57zM568 972q64 -45 104 -104l-104 -104q-20 31 -46.5 56.5t-57.5 47.5zM472 768q64 -45 104 -104l-104 -104q-20 31 -46.5 56.5t-57.5 47.5zM670 768q64 -45 104 -104l-104 -104q-20 31 -46.5 56.5t-57.5 47.5z" />
    <glyph glyph-name="uni069E.fina" unicode="&#x69e;" horiz-adv-x="1604" 
d="M869 165l25 -180q-60 0 -92.5 6.5t-67.5 24.5l-22 183q41 -22 68 -28t89 -6zM681 331q38 -76 56.5 -151.5t18.5 -145.5q0 -123 -52.5 -221t-150 -155.5t-232.5 -57.5q-133 0 -207 68.5t-74 204.5q0 64 15.5 127.5t38.5 114.5t45 78l18 -8q-18 -45 -30.5 -94t-12.5 -100
q0 -119 71.5 -165t180.5 -46q55 0 122 14t126 44t88 79l-5 -20q2 85 -25.5 153t-71.5 136zM1404 557q74 0 117 -40t43 -105q0 -95 -62 -173.5t-162 -135t-218 -87.5t-230 -31l-25 180q110 0 213 8t185.5 24.5t131 42.5t48.5 63q0 43 -44 75t-111 32q-31 0 -102.5 -37
t-154.5 -96.5t-150 -128.5l-62 5q43 47 114.5 115t155.5 134t166.5 110.5t146.5 44.5zM1336 155q67 17 136 21t131 4q15 0 26.5 -25t11.5 -65q0 -43 -12 -66.5t-26 -23.5q-121 0 -216 15t-194 57zM1001 972q64 -45 104 -104l-104 -104q-20 31 -46.5 56.5t-57.5 47.5z
M905 768q64 -45 104 -104l-104 -104q-20 31 -46.5 56.5t-57.5 47.5zM1103 768q64 -45 104 -104l-104 -104q-20 31 -46.5 56.5t-57.5 47.5z" />
    <glyph glyph-name="uni069F.init" unicode="&#x69f;" horiz-adv-x="806" 
d="M0 0q-22 0 -32.5 27.5t-10.5 62.5t10.5 62.5t32.5 27.5h71l25 -180h-96zM196 1181l13 -8q-75 -141 79 -191l-54 -138q-62 27 -107.5 63t-45.5 76q0 33 24 75t51.5 77.5t39.5 45.5zM606 572q74 0 117 -40t43 -105q0 -95 -62 -173.5t-162 -135t-218 -87.5t-230 -31l-25 180
q110 0 213 8t185.5 24.5t131 42.5t48.5 63q0 43 -44 75t-111 32q-31 0 -102.5 -37t-154.5 -96.5t-150 -128.5l-62 5q43 47 114.5 115t155.5 134t166.5 110.5t146.5 44.5zM154 247q3 345 -24 690q21 -13 42 -25.5t42 -24.5q15 -293 0 -587q-15 -14 -30 -27zM518 1153
q64 -45 104 -104l-104 -104q-20 31 -46.5 56.5t-57.5 47.5zM422 949q64 -45 104 -104l-104 -104q-20 31 -46.5 56.5t-57.5 47.5zM620 949q64 -45 104 -104l-104 -104q-20 31 -46.5 56.5t-57.5 47.5z" />
    <glyph glyph-name="uni069F.medi" unicode="&#x69f;" horiz-adv-x="806" 
d="M0 0q-22 0 -32.5 27.5t-10.5 62.5t10.5 62.5t32.5 27.5h71l25 -180h-96zM196 1181l13 -8q-75 -141 79 -191l-54 -138q-62 27 -107.5 63t-45.5 76q0 33 24 75t51.5 77.5t39.5 45.5zM606 572q74 0 117 -40t43 -105q0 -95 -62 -173.5t-162 -135t-218 -87.5t-230 -31l-25 180
q110 0 213 8t185.5 24.5t131 42.5t48.5 63q0 43 -44 75t-111 32q-31 0 -102.5 -37t-154.5 -96.5t-150 -128.5l-62 5q43 47 114.5 115t155.5 134t166.5 110.5t146.5 44.5zM154 247q3 345 -24 690q21 -13 42 -25.5t42 -24.5q15 -293 0 -587q-15 -14 -30 -27zM539 155
q67 17 136 21t131 4q15 0 26.5 -25t11.5 -65q0 -43 -12 -66.5t-26 -23.5q-121 0 -216 15t-194 57zM518 1153q64 -45 104 -104l-104 -104q-20 31 -46.5 56.5t-57.5 47.5zM422 949q64 -45 104 -104l-104 -104q-20 31 -46.5 56.5t-57.5 47.5zM620 949q64 -45 104 -104
l-104 -104q-20 31 -46.5 56.5t-57.5 47.5z" />
    <glyph glyph-name="uni069F.fina" unicode="&#x69f;" horiz-adv-x="1114" 
d="M404 -15q-157 0 -253.5 62.5t-161.5 150.5l6 14q83 -25 183 -36t201 -11zM493 1181l13 -8q-75 -141 79 -191l-54 -138q-62 27 -107.5 63t-45.5 76q0 33 24 75t51.5 77.5t39.5 45.5zM914 557q74 0 117 -40t43 -105q0 -95 -62 -173.5t-162 -135t-218 -87.5t-230 -31
l-25 180q110 0 213 8t185.5 24.5t131 42.5t48.5 63q0 43 -44 75t-111 32q-31 0 -102.5 -37t-154.5 -96.5t-150 -128.5l-62 5q43 47 114.5 115t155.5 134t166.5 110.5t146.5 44.5zM447 247q3 345 -24 690q21 -13 42 -25.5t42 -24.5q15 -293 0 -587q-15 -14 -30 -27zM846 155
q67 17 136 21t131 4q15 0 26.5 -25t11.5 -65q0 -43 -12 -66.5t-26 -23.5q-121 0 -216 15t-194 57zM826 1143q64 -45 104 -104l-104 -104q-20 31 -46.5 56.5t-57.5 47.5zM730 939q64 -45 104 -104l-104 -104q-20 31 -46.5 56.5t-57.5 47.5zM928 939q64 -45 104 -104
l-104 -104q-20 31 -46.5 56.5t-57.5 47.5z" />
    <glyph glyph-name="uni06A0.init" unicode="&#x6a0;" horiz-adv-x="763" 
d="M0 0q-23 0 -34.5 27.5t-11.5 62.5t11.5 62.5t34.5 27.5q82 0 149.5 4.5t142.5 17.5t177.5 39t253.5 68l-52 -145q-79 -41 -187.5 -79t-232.5 -61.5t-251 -23.5zM242 128q-23 22 -37.5 58t-21.5 73t-7 60q0 62 27 133t78 122t122 51q68 0 133 -48.5t93 -107.5l-11 -10
q-47 23 -81 32t-91 9q-36 0 -83 -17.5t-82 -41.5t-35 -44q0 -32 35.5 -76t89.5 -76.5t108 -32.5zM398 1168q64 -45 104 -104l-104 -104q-20 31 -46.5 56.5t-57.5 47.5zM302 964q64 -45 104 -104l-104 -104q-20 31 -46.5 56.5t-57.5 47.5zM500 964q64 -45 104 -104l-104 -104
q-20 31 -46.5 56.5t-57.5 47.5z" />
    <glyph glyph-name="uni06A0.medi" unicode="&#x6a0;" horiz-adv-x="709" 
d="M150 318q1 77 35 123.5t85.5 67t105.5 20.5q72 0 129.5 -33.5t57.5 -103.5q0 -43 -40.5 -108.5t-115.5 -130.5t-178.5 -109t-228.5 -44q-27 0 -40 27.5t-13 62.5t13 62.5t40 27.5q126 0 230 12.5t168 81.5h96q68 -94 215 -94q30 0 45 -27.5t15 -62.5t-15 -62.5t-45 -27.5
q-110 0 -176 32t-108 79.5t-76.5 95t-79.5 79.5t-119 32zM401 1066q64 -45 104 -104l-104 -104q-20 31 -46.5 56.5t-57.5 47.5zM305 862q64 -45 104 -104l-104 -104q-20 31 -46.5 56.5t-57.5 47.5zM503 862q64 -45 104 -104l-104 -104q-20 31 -46.5 56.5t-57.5 47.5z" />
    <glyph glyph-name="uni06A0.fina" unicode="&#x6a0;" horiz-adv-x="763" 
d="M569 -700q-197 0 -313 53t-166 150t-50 229q0 102 34 201t92 183t131 140l2 -13q-39 29 -69 37.5t-85 8.5q2 79 38.5 127.5t92 71t111.5 22.5q69 0 122.5 -31t53.5 -90q0 -51 -32.5 -86.5t-83 -66t-108 -67.5t-108 -90t-83 -132t-32.5 -197q0 -98 41 -153t112 -80
t161.5 -31t189.5 -6h223v-29zM763 0q-157 0 -258 53.5t-197 182.5l123 38q54 -54 127 -74t205 -20q23 0 34.5 -27.5t11.5 -62.5t-11.5 -62.5t-34.5 -27.5zM360 1053q64 -45 104 -104l-104 -104q-20 31 -46.5 56.5t-57.5 47.5zM264 849q64 -45 104 -104l-104 -104
q-20 31 -46.5 56.5t-57.5 47.5zM462 849q64 -45 104 -104l-104 -104q-20 31 -46.5 56.5t-57.5 47.5z" />
    <glyph glyph-name="uni06A1.init" unicode="&#x6a1;" horiz-adv-x="503" 
d="M0 0q-30 0 -42.5 29t-12.5 57q0 31 12.5 62.5t42.5 31.5q95 0 183.5 3t150.5 18t78 49q0 34 -17.5 82t-45 95t-56 78.5t-51.5 31.5q-13 0 -33.5 -14t-36.5 -34t-16 -39q0 -9 11.5 -28.5t51.5 -19.5q37 0 77 24t44 54l46 -85q-9 -38 -39 -71t-68 -52.5t-70 -19.5
q-64 0 -86 37.5t-22 107.5q0 26 12.5 74t34.5 97.5t52 84t66 34.5q40 0 74 -37.5t60 -97.5t40.5 -129.5t14.5 -132.5q0 -61 -17.5 -115t-43.5 -83q-19 -21 -81 -42.5t-145 -35.5t-168 -14z" />
    <glyph glyph-name="uni06A1.medi" unicode="&#x6a1;" horiz-adv-x="513" 
d="M296 620q42 0 65 -32.5t31.5 -75.5t8.5 -74q0 -127 -51 -226t-141 -155.5t-209 -56.5q-25 0 -37 27.5t-12 62.5t12 62.5t37 27.5q95 0 175 24.5t128 63.5t48 82q0 20 -24 55t-68 35q-29 0 -52.5 -19.5t-36.5 -43.5t-13 -40q0 -37 53 -73t135 -60t168 -24q29 0 42.5 -27.5
t13.5 -62.5t-13.5 -62.5t-42.5 -27.5q-116 0 -207.5 37t-143.5 100t-52 139q0 37 13 94.5t37 114.5t58.5 96t77.5 39z" />
    <glyph glyph-name="uni06A1.fina" unicode="&#x6a1;" horiz-adv-x="1298" 
d="M454 -45q-69 0 -141.5 12t-134.5 39t-100 73t-38 114q0 64 30.5 131.5t91.5 128.5l13 -8q-19 -37 -27.5 -73t-8.5 -68q0 -61 42 -95.5t105 -50.5t127 -19.5t109 -3.5q171 0 310.5 32t221.5 81.5t82 101.5q0 20 -28 55t-64 35q-30 0 -53 -19.5t-36 -43.5t-13 -40
q0 -37 53 -73t135 -60t168 -24q29 0 42.5 -27.5t13.5 -62.5t-13.5 -62.5t-42.5 -27.5q-116 0 -207.5 37t-143.5 100t-52 139q0 37 13 94.5t37 114.5t58.5 96t77.5 39q42 0 65 -32.5t31.5 -75.5t8.5 -74q0 -136 -93 -245.5t-258 -173.5t-381 -64z" />
    <glyph glyph-name="uni06A2.init" unicode="&#x6a2;" horiz-adv-x="503" 
d="M0 0q-30 0 -42.5 29t-12.5 57q0 31 12.5 62.5t42.5 31.5q95 0 183.5 3t150.5 18t78 49q0 34 -17.5 82t-45 95t-56 78.5t-51.5 31.5q-13 0 -33.5 -14t-36.5 -34t-16 -39q0 -9 11.5 -28.5t51.5 -19.5q37 0 77 24t44 54l46 -85q-9 -38 -39 -71t-68 -52.5t-70 -19.5
q-64 0 -86 37.5t-22 107.5q0 26 12.5 74t34.5 97.5t52 84t66 34.5q40 0 74 -37.5t60 -97.5t40.5 -129.5t14.5 -132.5q0 -61 -17.5 -115t-43.5 -83q-19 -21 -81 -42.5t-145 -35.5t-168 -14zM237 -126q64 -45 104 -104l-104 -104q-20 31 -46.5 56.5t-57.5 47.5z" />
    <glyph glyph-name="uni06A2.medi" unicode="&#x6a2;" horiz-adv-x="513" 
d="M296 620q42 0 65 -32.5t31.5 -75.5t8.5 -74q0 -127 -51 -226t-141 -155.5t-209 -56.5q-25 0 -37 27.5t-12 62.5t12 62.5t37 27.5q95 0 175 24.5t128 63.5t48 82q0 20 -24 55t-68 35q-29 0 -52.5 -19.5t-36.5 -43.5t-13 -40q0 -37 53 -73t135 -60t168 -24q29 0 42.5 -27.5
t13.5 -62.5t-13.5 -62.5t-42.5 -27.5q-116 0 -207.5 37t-143.5 100t-52 139q0 37 13 94.5t37 114.5t58.5 96t77.5 39zM199 -126q64 -45 104 -104l-104 -104q-20 31 -46.5 56.5t-57.5 47.5z" />
    <glyph glyph-name="uni06A2.fina" unicode="&#x6a2;" horiz-adv-x="1298" 
d="M454 -45q-69 0 -141.5 12t-134.5 39t-100 73t-38 114q0 64 30.5 131.5t91.5 128.5l13 -8q-19 -37 -27.5 -73t-8.5 -68q0 -61 42 -95.5t105 -50.5t127 -19.5t109 -3.5q171 0 310.5 32t221.5 81.5t82 101.5q0 20 -28 55t-64 35q-30 0 -53 -19.5t-36 -43.5t-13 -40
q0 -37 53 -73t135 -60t168 -24q29 0 42.5 -27.5t13.5 -62.5t-13.5 -62.5t-42.5 -27.5q-116 0 -207.5 37t-143.5 100t-52 139q0 37 13 94.5t37 114.5t58.5 96t77.5 39q42 0 65 -32.5t31.5 -75.5t8.5 -74q0 -136 -93 -245.5t-258 -173.5t-381 -64zM930 -126q64 -45 104 -104
l-104 -104q-20 31 -46.5 56.5t-57.5 47.5z" />
    <glyph glyph-name="uni06A3.init" unicode="&#x6a3;" horiz-adv-x="503" 
d="M0 0q-30 0 -42.5 29t-12.5 57q0 31 12.5 62.5t42.5 31.5q95 0 183.5 3t150.5 18t78 49q0 34 -17.5 82t-45 95t-56 78.5t-51.5 31.5q-13 0 -33.5 -14t-36.5 -34t-16 -39q0 -9 11.5 -28.5t51.5 -19.5q37 0 77 24t44 54l46 -85q-9 -38 -39 -71t-68 -52.5t-70 -19.5
q-64 0 -86 37.5t-22 107.5q0 26 12.5 74t34.5 97.5t52 84t66 34.5q40 0 74 -37.5t60 -97.5t40.5 -129.5t14.5 -132.5q0 -61 -17.5 -115t-43.5 -83q-19 -21 -81 -42.5t-145 -35.5t-168 -14zM264 1021q64 -45 104 -104l-104 -104q-20 31 -46.5 56.5t-57.5 47.5zM237 -126
q64 -45 104 -104l-104 -104q-20 31 -46.5 56.5t-57.5 47.5z" />
    <glyph glyph-name="uni06A3.medi" unicode="&#x6a3;" horiz-adv-x="513" 
d="M296 620q42 0 65 -32.5t31.5 -75.5t8.5 -74q0 -127 -51 -226t-141 -155.5t-209 -56.5q-25 0 -37 27.5t-12 62.5t12 62.5t37 27.5q95 0 175 24.5t128 63.5t48 82q0 20 -24 55t-68 35q-29 0 -52.5 -19.5t-36.5 -43.5t-13 -40q0 -37 53 -73t135 -60t168 -24q29 0 42.5 -27.5
t13.5 -62.5t-13.5 -62.5t-42.5 -27.5q-116 0 -207.5 37t-143.5 100t-52 139q0 37 13 94.5t37 114.5t58.5 96t77.5 39zM285 954q64 -45 104 -104l-104 -104q-20 31 -46.5 56.5t-57.5 47.5zM199 -126q64 -45 104 -104l-104 -104q-20 31 -46.5 56.5t-57.5 47.5z" />
    <glyph glyph-name="uni06A3.fina" unicode="&#x6a3;" horiz-adv-x="1298" 
d="M454 -45q-69 0 -141.5 12t-134.5 39t-100 73t-38 114q0 64 30.5 131.5t91.5 128.5l13 -8q-19 -37 -27.5 -73t-8.5 -68q0 -61 42 -95.5t105 -50.5t127 -19.5t109 -3.5q171 0 310.5 32t221.5 81.5t82 101.5q0 20 -28 55t-64 35q-30 0 -53 -19.5t-36 -43.5t-13 -40
q0 -37 53 -73t135 -60t168 -24q29 0 42.5 -27.5t13.5 -62.5t-13.5 -62.5t-42.5 -27.5q-116 0 -207.5 37t-143.5 100t-52 139q0 37 13 94.5t37 114.5t58.5 96t77.5 39q42 0 65 -32.5t31.5 -75.5t8.5 -74q0 -136 -93 -245.5t-258 -173.5t-381 -64zM1070 929q64 -45 104 -104
l-104 -104q-20 31 -46.5 56.5t-57.5 47.5zM930 -126q64 -45 104 -104l-104 -104q-20 31 -46.5 56.5t-57.5 47.5z" />
    <glyph glyph-name="uni06A4.init" unicode="&#x6a4;" horiz-adv-x="503" arabic-form="initial" 
d="M0 0q-30 0 -42.5 29t-12.5 57q0 31 12.5 62.5t42.5 31.5q95 0 183.5 3t150.5 18t78 49q0 34 -17.5 82t-45 95t-56 78.5t-51.5 31.5q-13 0 -33.5 -14t-36.5 -34t-16 -39q0 -9 11.5 -28.5t51.5 -19.5q37 0 77 24t44 54l46 -85q-9 -38 -39 -71t-68 -52.5t-70 -19.5
q-64 0 -86 37.5t-22 107.5q0 26 12.5 74t34.5 97.5t52 84t66 34.5q40 0 74 -37.5t60 -97.5t40.5 -129.5t14.5 -132.5q0 -61 -17.5 -115t-43.5 -83q-19 -21 -81 -42.5t-145 -35.5t-168 -14zM261 1229q64 -45 104 -104l-104 -104q-20 31 -46.5 56.5t-57.5 47.5zM165 1025
q64 -45 104 -104l-104 -104q-20 31 -46.5 56.5t-57.5 47.5zM363 1025q64 -45 104 -104l-104 -104q-20 31 -46.5 56.5t-57.5 47.5z" />
    <glyph glyph-name="uni06A4.medi" unicode="&#x6a4;" horiz-adv-x="513" arabic-form="medial" 
d="M296 620q42 0 65 -32.5t31.5 -75.5t8.5 -74q0 -127 -51 -226t-141 -155.5t-209 -56.5q-25 0 -37 27.5t-12 62.5t12 62.5t37 27.5q95 0 175 24.5t128 63.5t48 82q0 20 -24 55t-68 35q-29 0 -52.5 -19.5t-36.5 -43.5t-13 -40q0 -37 53 -73t135 -60t168 -24q29 0 42.5 -27.5
t13.5 -62.5t-13.5 -62.5t-42.5 -27.5q-116 0 -207.5 37t-143.5 100t-52 139q0 37 13 94.5t37 114.5t58.5 96t77.5 39zM282 1162q64 -45 104 -104l-104 -104q-20 31 -46.5 56.5t-57.5 47.5zM186 958q64 -45 104 -104l-104 -104q-20 31 -46.5 56.5t-57.5 47.5zM384 958
q64 -45 104 -104l-104 -104q-20 31 -46.5 56.5t-57.5 47.5z" />
    <glyph glyph-name="uni06A4.fina" unicode="&#x6a4;" horiz-adv-x="1298" arabic-form="final" 
d="M454 -45q-69 0 -141.5 12t-134.5 39t-100 73t-38 114q0 64 30.5 131.5t91.5 128.5l13 -8q-19 -37 -27.5 -73t-8.5 -68q0 -61 42 -95.5t105 -50.5t127 -19.5t109 -3.5q171 0 310.5 32t221.5 81.5t82 101.5q0 20 -28 55t-64 35q-30 0 -53 -19.5t-36 -43.5t-13 -40
q0 -37 53 -73t135 -60t168 -24q29 0 42.5 -27.5t13.5 -62.5t-13.5 -62.5t-42.5 -27.5q-116 0 -207.5 37t-143.5 100t-52 139q0 37 13 94.5t37 114.5t58.5 96t77.5 39q42 0 65 -32.5t31.5 -75.5t8.5 -74q0 -136 -93 -245.5t-258 -173.5t-381 -64zM1067 1137q64 -45 104 -104
l-104 -104q-20 31 -46.5 56.5t-57.5 47.5zM971 933q64 -45 104 -104l-104 -104q-20 31 -46.5 56.5t-57.5 47.5zM1169 933q64 -45 104 -104l-104 -104q-20 31 -46.5 56.5t-57.5 47.5z" />
    <glyph glyph-name="uni06A5.init" unicode="&#x6a5;" horiz-adv-x="503" 
d="M0 0q-30 0 -42.5 29t-12.5 57q0 31 12.5 62.5t42.5 31.5q95 0 183.5 3t150.5 18t78 49q0 34 -17.5 82t-45 95t-56 78.5t-51.5 31.5q-13 0 -33.5 -14t-36.5 -34t-16 -39q0 -9 11.5 -28.5t51.5 -19.5q37 0 77 24t44 54l46 -85q-9 -38 -39 -71t-68 -52.5t-70 -19.5
q-64 0 -86 37.5t-22 107.5q0 26 12.5 74t34.5 97.5t52 84t66 34.5q40 0 74 -37.5t60 -97.5t40.5 -129.5t14.5 -132.5q0 -61 -17.5 -115t-43.5 -83q-19 -21 -81 -42.5t-145 -35.5t-168 -14zM237 -335q64 -45 104 -104l-104 -104q-20 31 -46.5 56.5t-57.5 47.5zM138 -131
q64 -45 104 -104l-104 -104q-20 31 -46.5 56.5t-57.5 47.5zM336 -131q64 -45 104 -104l-104 -104q-20 31 -46.5 56.5t-57.5 47.5z" />
    <glyph glyph-name="uni06A5.medi" unicode="&#x6a5;" horiz-adv-x="513" 
d="M296 620q42 0 65 -32.5t31.5 -75.5t8.5 -74q0 -127 -51 -226t-141 -155.5t-209 -56.5q-25 0 -37 27.5t-12 62.5t12 62.5t37 27.5q95 0 175 24.5t128 63.5t48 82q0 20 -24 55t-68 35q-29 0 -52.5 -19.5t-36.5 -43.5t-13 -40q0 -37 53 -73t135 -60t168 -24q29 0 42.5 -27.5
t13.5 -62.5t-13.5 -62.5t-42.5 -27.5q-116 0 -207.5 37t-143.5 100t-52 139q0 37 13 94.5t37 114.5t58.5 96t77.5 39zM199 -335q64 -45 104 -104l-104 -104q-20 31 -46.5 56.5t-57.5 47.5zM100 -131q64 -45 104 -104l-104 -104q-20 31 -46.5 56.5t-57.5 47.5zM298 -131
q64 -45 104 -104l-104 -104q-20 31 -46.5 56.5t-57.5 47.5z" />
    <glyph glyph-name="uni06A5.fina" unicode="&#x6a5;" horiz-adv-x="1298" 
d="M454 -45q-69 0 -141.5 12t-134.5 39t-100 73t-38 114q0 64 30.5 131.5t91.5 128.5l13 -8q-19 -37 -27.5 -73t-8.5 -68q0 -61 42 -95.5t105 -50.5t127 -19.5t109 -3.5q171 0 310.5 32t221.5 81.5t82 101.5q0 20 -28 55t-64 35q-30 0 -53 -19.5t-36 -43.5t-13 -40
q0 -37 53 -73t135 -60t168 -24q29 0 42.5 -27.5t13.5 -62.5t-13.5 -62.5t-42.5 -27.5q-116 0 -207.5 37t-143.5 100t-52 139q0 37 13 94.5t37 114.5t58.5 96t77.5 39q42 0 65 -32.5t31.5 -75.5t8.5 -74q0 -136 -93 -245.5t-258 -173.5t-381 -64zM930 -335q64 -45 104 -104
l-104 -104q-20 31 -46.5 56.5t-57.5 47.5zM831 -131q64 -45 104 -104l-104 -104q-20 31 -46.5 56.5t-57.5 47.5zM1029 -131q64 -45 104 -104l-104 -104q-20 31 -46.5 56.5t-57.5 47.5z" />
    <glyph glyph-name="uni06A6.init" unicode="&#x6a6;" horiz-adv-x="503" arabic-form="initial" 
d="M0 0q-30 0 -42.5 29t-12.5 57q0 31 12.5 62.5t42.5 31.5q95 0 183.5 3t150.5 18t78 49q0 34 -17.5 82t-45 95t-56 78.5t-51.5 31.5q-13 0 -33.5 -14t-36.5 -34t-16 -39q0 -9 11.5 -28.5t51.5 -19.5q37 0 77 24t44 54l46 -85q-9 -38 -39 -71t-68 -52.5t-70 -19.5
q-64 0 -86 37.5t-22 107.5q0 26 12.5 74t34.5 97.5t52 84t66 34.5q40 0 74 -37.5t60 -97.5t40.5 -129.5t14.5 -132.5q0 -61 -17.5 -115t-43.5 -83q-19 -21 -81 -42.5t-145 -35.5t-168 -14zM163 1218q64 -45 104 -104l-104 -104q-20 31 -46.5 56.5t-57.5 47.5zM361 1218
q64 -45 104 -104l-104 -104q-20 31 -46.5 56.5t-57.5 47.5zM163 1019q64 -45 104 -104l-104 -104q-20 31 -46.5 56.5t-57.5 47.5zM361 1019q64 -45 104 -104l-104 -104q-20 31 -46.5 56.5t-57.5 47.5z" />
    <glyph glyph-name="uni06A6.medi" unicode="&#x6a6;" horiz-adv-x="513" arabic-form="medial" 
d="M296 620q42 0 65 -32.5t31.5 -75.5t8.5 -74q0 -127 -51 -226t-141 -155.5t-209 -56.5q-25 0 -37 27.5t-12 62.5t12 62.5t37 27.5q95 0 175 24.5t128 63.5t48 82q0 20 -24 55t-68 35q-29 0 -52.5 -19.5t-36.5 -43.5t-13 -40q0 -37 53 -73t135 -60t168 -24q29 0 42.5 -27.5
t13.5 -62.5t-13.5 -62.5t-42.5 -27.5q-116 0 -207.5 37t-143.5 100t-52 139q0 37 13 94.5t37 114.5t58.5 96t77.5 39zM184 1151q64 -45 104 -104l-104 -104q-20 31 -46.5 56.5t-57.5 47.5zM382 1151q64 -45 104 -104l-104 -104q-20 31 -46.5 56.5t-57.5 47.5zM184 952
q64 -45 104 -104l-104 -104q-20 31 -46.5 56.5t-57.5 47.5zM382 952q64 -45 104 -104l-104 -104q-20 31 -46.5 56.5t-57.5 47.5z" />
    <glyph glyph-name="uni06A6.fina" unicode="&#x6a6;" horiz-adv-x="1298" arabic-form="final" 
d="M454 -45q-69 0 -141.5 12t-134.5 39t-100 73t-38 114q0 64 30.5 131.5t91.5 128.5l13 -8q-19 -37 -27.5 -73t-8.5 -68q0 -61 42 -95.5t105 -50.5t127 -19.5t109 -3.5q171 0 310.5 32t221.5 81.5t82 101.5q0 20 -28 55t-64 35q-30 0 -53 -19.5t-36 -43.5t-13 -40
q0 -37 53 -73t135 -60t168 -24q29 0 42.5 -27.5t13.5 -62.5t-13.5 -62.5t-42.5 -27.5q-116 0 -207.5 37t-143.5 100t-52 139q0 37 13 94.5t37 114.5t58.5 96t77.5 39q42 0 65 -32.5t31.5 -75.5t8.5 -74q0 -136 -93 -245.5t-258 -173.5t-381 -64zM969 1126q64 -45 104 -104
l-104 -104q-20 31 -46.5 56.5t-57.5 47.5zM1167 1126q64 -45 104 -104l-104 -104q-20 31 -46.5 56.5t-57.5 47.5zM969 927q64 -45 104 -104l-104 -104q-20 31 -46.5 56.5t-57.5 47.5zM1167 927q64 -45 104 -104l-104 -104q-20 31 -46.5 56.5t-57.5 47.5z" />
    <glyph glyph-name="uni06A7.init" unicode="&#x6a7;" horiz-adv-x="503" 
d="M0 0q-30 0 -42.5 29t-12.5 57q0 31 12.5 62.5t42.5 31.5q95 0 183.5 3t150.5 18t78 49q0 34 -17.5 82t-45 95t-56 78.5t-51.5 31.5q-13 0 -33.5 -14t-36.5 -34t-16 -39q0 -9 11.5 -28.5t51.5 -19.5q37 0 77 24t44 54l46 -85q-9 -38 -39 -71t-68 -52.5t-70 -19.5
q-64 0 -86 37.5t-22 107.5q0 26 12.5 74t34.5 97.5t52 84t66 34.5q40 0 74 -37.5t60 -97.5t40.5 -129.5t14.5 -132.5q0 -61 -17.5 -115t-43.5 -83q-19 -21 -81 -42.5t-145 -35.5t-168 -14zM264 1021q64 -45 104 -104l-104 -104q-20 31 -46.5 56.5t-57.5 47.5z" />
    <glyph glyph-name="uni06A7.medi" unicode="&#x6a7;" horiz-adv-x="513" 
d="M296 620q42 0 65 -32.5t31.5 -75.5t8.5 -74q0 -127 -51 -226t-141 -155.5t-209 -56.5q-25 0 -37 27.5t-12 62.5t12 62.5t37 27.5q95 0 175 24.5t128 63.5t48 82q0 20 -24 55t-68 35q-29 0 -52.5 -19.5t-36.5 -43.5t-13 -40q0 -37 53 -73t135 -60t168 -24q29 0 42.5 -27.5
t13.5 -62.5t-13.5 -62.5t-42.5 -27.5q-116 0 -207.5 37t-143.5 100t-52 139q0 37 13 94.5t37 114.5t58.5 96t77.5 39zM285 954q64 -45 104 -104l-104 -104q-20 31 -46.5 56.5t-57.5 47.5z" />
    <glyph glyph-name="uni06A7.fina" unicode="&#x6a7;" horiz-adv-x="909" 
d="M352 -330q-154 0 -233 89.5t-79 219.5q0 71 22 145t70 149l14 -6q-46 -123 -46 -209q0 -101 67 -154.5t209 -53.5q97 0 186.5 26t147 78t57.5 130q0 70 -19.5 119t-44.5 75.5t-42 26.5q-20 0 -43 -31t-23 -51q0 -9 24.5 -26t73.5 -17h216q26 0 38 -27.5t12 -62.5
t-12 -62.5t-38 -27.5h-212q-63 0 -110 50t-47 120q0 26 6.5 77.5t21.5 106t41.5 93t65.5 38.5q38 0 65 -38.5t43.5 -100.5t24 -133.5t7.5 -138.5q0 -117 -62 -208t-166.5 -143.5t-234.5 -52.5zM676 819q64 -45 104 -104l-104 -104q-20 31 -46.5 56.5t-57.5 47.5z" />
    <glyph glyph-name="uni06A8.init" unicode="&#x6a8;" horiz-adv-x="503" 
d="M0 0q-30 0 -42.5 29t-12.5 57q0 31 12.5 62.5t42.5 31.5q95 0 183.5 3t150.5 18t78 49q0 34 -17.5 82t-45 95t-56 78.5t-51.5 31.5q-13 0 -33.5 -14t-36.5 -34t-16 -39q0 -9 11.5 -28.5t51.5 -19.5q37 0 77 24t44 54l46 -85q-9 -38 -39 -71t-68 -52.5t-70 -19.5
q-64 0 -86 37.5t-22 107.5q0 26 12.5 74t34.5 97.5t52 84t66 34.5q40 0 74 -37.5t60 -97.5t40.5 -129.5t14.5 -132.5q0 -61 -17.5 -115t-43.5 -83q-19 -21 -81 -42.5t-145 -35.5t-168 -14zM261 1229q64 -45 104 -104l-104 -104q-20 31 -46.5 56.5t-57.5 47.5zM165 1025
q64 -45 104 -104l-104 -104q-20 31 -46.5 56.5t-57.5 47.5zM363 1025q64 -45 104 -104l-104 -104q-20 31 -46.5 56.5t-57.5 47.5z" />
    <glyph glyph-name="uni06A8.medi" unicode="&#x6a8;" horiz-adv-x="513" 
d="M296 620q42 0 65 -32.5t31.5 -75.5t8.5 -74q0 -127 -51 -226t-141 -155.5t-209 -56.5q-25 0 -37 27.5t-12 62.5t12 62.5t37 27.5q95 0 175 24.5t128 63.5t48 82q0 20 -24 55t-68 35q-29 0 -52.5 -19.5t-36.5 -43.5t-13 -40q0 -37 53 -73t135 -60t168 -24q29 0 42.5 -27.5
t13.5 -62.5t-13.5 -62.5t-42.5 -27.5q-116 0 -207.5 37t-143.5 100t-52 139q0 37 13 94.5t37 114.5t58.5 96t77.5 39zM282 1162q64 -45 104 -104l-104 -104q-20 31 -46.5 56.5t-57.5 47.5zM186 958q64 -45 104 -104l-104 -104q-20 31 -46.5 56.5t-57.5 47.5zM384 958
q64 -45 104 -104l-104 -104q-20 31 -46.5 56.5t-57.5 47.5z" />
    <glyph glyph-name="uni06A8.fina" unicode="&#x6a8;" horiz-adv-x="909" 
d="M352 -330q-154 0 -233 89.5t-79 219.5q0 71 22 145t70 149l14 -6q-46 -123 -46 -209q0 -101 67 -154.5t209 -53.5q97 0 186.5 26t147 78t57.5 130q0 70 -19.5 119t-44.5 75.5t-42 26.5q-20 0 -43 -31t-23 -51q0 -9 24.5 -26t73.5 -17h216q26 0 38 -27.5t12 -62.5
t-12 -62.5t-38 -27.5h-212q-63 0 -110 50t-47 120q0 26 6.5 77.5t21.5 106t41.5 93t65.5 38.5q38 0 65 -38.5t43.5 -100.5t24 -133.5t7.5 -138.5q0 -117 -62 -208t-166.5 -143.5t-234.5 -52.5zM673 1027q64 -45 104 -104l-104 -104q-20 31 -46.5 56.5t-57.5 47.5zM577 823
q64 -45 104 -104l-104 -104q-20 31 -46.5 56.5t-57.5 47.5zM775 823q64 -45 104 -104l-104 -104q-20 31 -46.5 56.5t-57.5 47.5z" />
    <glyph glyph-name="uni06A9.init" unicode="&#x6a9;" horiz-adv-x="633" arabic-form="initial" 
d="M690 1081l-37 -143q-64 -26 -147 -63.5t-159.5 -77t-127 -73.5t-50.5 -54t29.5 -39t73.5 -43.5t87.5 -61t73 -91.5t28.5 -136q0 -68 -31.5 -137.5t-110.5 -115.5t-224 -46h-95q-25 0 -37 27.5t-12 62.5t12 62.5t37 27.5h216q93 0 145 23.5t53 49.5q2 56 -35 99.5
t-92.5 78.5t-111 65t-93 58t-37.5 59q0 14 6 54.5t20 56.5q33 36 109.5 86.5t172 103.5t186 97.5t151.5 69.5z" />
    <glyph glyph-name="uni06A9.medi" unicode="&#x6a9;" horiz-adv-x="952" arabic-form="medial" 
d="M690 1081l-37 -143q-64 -26 -147 -63.5t-159.5 -77t-127 -73.5t-50.5 -54t29.5 -39t73.5 -43.5t87.5 -61t73 -91.5t28.5 -136q0 -68 -31.5 -137.5t-110.5 -115.5t-224 -46h-95q-25 0 -37 27.5t-12 62.5t12 62.5t37 27.5h216q93 0 145 23.5t53 49.5q2 56 -35 99.5
t-92.5 78.5t-111 65t-93 58t-37.5 59q0 14 6 54.5t20 56.5q33 36 109.5 86.5t172 103.5t186 97.5t151.5 69.5zM239 607q158 -80 261 -156t174.5 -137.5t135.5 -97.5t144 -36q26 0 40.5 -26t14.5 -65q0 -41 -15.5 -65t-39.5 -24q-81 0 -149.5 38.5t-131.5 97.5t-127 121
t-137 108z" />
    <glyph glyph-name="uni06A9.fina" unicode="&#x6a9;" horiz-adv-x="1544" arabic-form="final" 
d="M600 0h-311q-124 0 -186.5 66t-62.5 157q0 64 30.5 131.5t91.5 128.5l13 -8q-19 -37 -27.5 -73t-8.5 -68q0 -69 45.5 -111.5t139.5 -42.5h276q18 0 28.5 -25t10.5 -57q0 -35 -9.5 -66.5t-29.5 -31.5zM1285 1081l-37 -143q-64 -26 -147 -63.5t-159.5 -77t-127 -73.5
t-50.5 -54t29.5 -39t73.5 -43.5t87.5 -61t73 -91.5t28.5 -136q0 -68 -31.5 -137.5t-110.5 -115.5t-224 -46h-95q-25 0 -37 27.5t-12 62.5t12 62.5t37 27.5h216q93 0 145 23.5t53 49.5q2 56 -35 99.5t-92.5 78.5t-111 65t-93 58t-37.5 59q0 14 6 54.5t20 56.5
q33 36 109.5 86.5t172 103.5t186 97.5t151.5 69.5zM829 607q158 -80 261 -156t174.5 -137.5t135.5 -97.5t144 -36q26 0 40.5 -26t14.5 -65q0 -41 -15.5 -65t-39.5 -24q-81 0 -149.5 38.5t-131.5 97.5t-127 121t-137 108z" />
    <glyph glyph-name="uni06AA.init" unicode="&#x6aa;" horiz-adv-x="1132" 
d="M312 0h-312q-25 0 -37 27.5t-12 62.5t12 62.5t37 27.5h312v-180zM199 180h674q69 0 106.5 18t37.5 29q0 68 -33.5 99.5t-121.5 31.5h-674q-74 0 -107.5 40.5t-33.5 101.5q0 63 38.5 137.5t101.5 141t137.5 109t145.5 42.5q37 0 81.5 -15.5t44.5 -62.5l-34 -158
q-7 44 -39.5 58t-69.5 14q-64 0 -126.5 -23t-114 -58t-82.5 -71.5t-31 -64.5q0 -9 26.5 -23t85.5 -14h678q91 0 147 -47.5t56 -125.5q0 -45 -24 -102.5t-75.5 -111.5t-133.5 -89.5t-198 -35.5h-462v180z" />
    <glyph glyph-name="uni06AA.medi" unicode="&#x6aa;" horiz-adv-x="1152" 
d="M312 0h-312q-25 0 -37 27.5t-12 62.5t12 62.5t37 27.5h312v-180zM199 180h674q69 0 106.5 18t37.5 29q0 68 -33.5 99.5t-121.5 31.5h-674q-74 0 -107.5 40.5t-33.5 101.5q0 63 38.5 137.5t101.5 141t137.5 109t145.5 42.5q37 0 81.5 -15.5t44.5 -62.5l-34 -158
q-7 44 -39.5 58t-69.5 14q-64 0 -126.5 -23t-114 -58t-82.5 -71.5t-31 -64.5q0 -9 26.5 -23t85.5 -14h678q91 0 147 -47.5t56 -125.5q0 -45 -24 -102.5t-75.5 -111.5t-133.5 -89.5t-198 -35.5h-462v180zM1151 0q-78 0 -123.5 24.5t-74.5 84.5l108 139q2 -40 25 -54t65 -14
q32 0 47.5 -26t15.5 -65q0 -34 -17 -61.5t-46 -27.5z" />
    <glyph glyph-name="uni06AA.fina" unicode="&#x6aa;" horiz-adv-x="1403" 
d="M460 0q-68 0 -149 23.5t-152 60t-111 76.5v20h432v-180h-20zM450 180h674q69 0 106.5 18t37.5 29q0 68 -33.5 99.5t-121.5 31.5h-674q-74 0 -107.5 40.5t-33.5 101.5q0 63 38.5 137.5t101.5 141t137.5 109t145.5 42.5q37 0 81.5 -15.5t44.5 -62.5l-34 -158
q-7 44 -39.5 58t-69.5 14q-64 0 -126.5 -23t-114 -58t-82.5 -71.5t-31 -64.5q0 -9 26.5 -23t85.5 -14h678q91 0 147 -47.5t56 -125.5q0 -45 -24 -102.5t-75.5 -111.5t-133.5 -89.5t-198 -35.5h-462v180zM1403 0q-78 0 -123.5 24.5t-74.5 84.5l108 139q2 -40 25 -54t65 -14
q32 0 47.5 -26t15.5 -65q0 -34 -17 -61.5t-46 -27.5z" />
    <glyph glyph-name="uni06AB.init" unicode="&#x6ab;" horiz-adv-x="633" 
d="M690 1081l-37 -143q-64 -26 -147 -63.5t-159.5 -77t-127 -73.5t-50.5 -54t29.5 -39t73.5 -43.5t87.5 -61t73 -91.5t28.5 -136q0 -68 -31.5 -137.5t-110.5 -115.5t-224 -46h-95q-25 0 -37 27.5t-12 62.5t12 62.5t37 27.5h216q93 0 145 23.5t53 49.5q2 56 -35 99.5
t-92.5 78.5t-111 65t-93 58t-37.5 59q0 14 6 54.5t20 56.5q33 36 109.5 86.5t172 103.5t186 97.5t151.5 69.5zM440 634q-62 0 -84.5 33t-22.5 83q0 46 29 94.5t78 48.5q50 0 79.5 -48.5t29.5 -94.5q0 -50 -23.5 -83t-85.5 -33zM440 704q28 0 48.5 9.5t20.5 43.5
q0 35 -20.5 57.5t-48.5 22.5t-47.5 -22.5t-19.5 -57.5q0 -37 19.5 -45t47.5 -8z" />
    <glyph glyph-name="uni06AB.medi" unicode="&#x6ab;" horiz-adv-x="952" 
d="M690 1081l-37 -143q-64 -26 -147 -63.5t-159.5 -77t-127 -73.5t-50.5 -54t29.5 -39t73.5 -43.5t87.5 -61t73 -91.5t28.5 -136q0 -68 -31.5 -137.5t-110.5 -115.5t-224 -46h-95q-25 0 -37 27.5t-12 62.5t12 62.5t37 27.5h216q93 0 145 23.5t53 49.5q2 56 -35 99.5
t-92.5 78.5t-111 65t-93 58t-37.5 59q0 14 6 54.5t20 56.5q33 36 109.5 86.5t172 103.5t186 97.5t151.5 69.5zM239 607q158 -80 261 -156t174.5 -137.5t135.5 -97.5t144 -36q26 0 40.5 -26t14.5 -65q0 -41 -15.5 -65t-39.5 -24q-81 0 -149.5 38.5t-131.5 97.5t-127 121
t-137 108zM475 647q-62 0 -84.5 33t-22.5 83q0 46 29 94.5t78 48.5q50 0 79.5 -48.5t29.5 -94.5q0 -50 -23.5 -83t-85.5 -33zM475 717q28 0 48.5 9.5t20.5 43.5q0 35 -20.5 57.5t-48.5 22.5t-47.5 -22.5t-19.5 -57.5q0 -37 19.5 -45t47.5 -8z" />
    <glyph glyph-name="uni06AB.fina" unicode="&#x6ab;" horiz-adv-x="1544" 
d="M600 0h-311q-124 0 -186.5 66t-62.5 157q0 64 30.5 131.5t91.5 128.5l13 -8q-19 -37 -27.5 -73t-8.5 -68q0 -69 45.5 -111.5t139.5 -42.5h276q18 0 28.5 -25t10.5 -57q0 -35 -9.5 -66.5t-29.5 -31.5zM1285 1081l-37 -143q-64 -26 -147 -63.5t-159.5 -77t-127 -73.5
t-50.5 -54t29.5 -39t73.5 -43.5t87.5 -61t73 -91.5t28.5 -136q0 -68 -31.5 -137.5t-110.5 -115.5t-224 -46h-95q-25 0 -37 27.5t-12 62.5t12 62.5t37 27.5h216q93 0 145 23.5t53 49.5q2 56 -35 99.5t-92.5 78.5t-111 65t-93 58t-37.5 59q0 14 6 54.5t20 56.5
q33 36 109.5 86.5t172 103.5t186 97.5t151.5 69.5zM829 607q158 -80 261 -156t174.5 -137.5t135.5 -97.5t144 -36q26 0 40.5 -26t14.5 -65q0 -41 -15.5 -65t-39.5 -24q-81 0 -149.5 38.5t-131.5 97.5t-127 121t-137 108zM1067 647q-62 0 -84.5 33t-22.5 83q0 46 29 94.5
t78 48.5q50 0 79.5 -48.5t29.5 -94.5q0 -50 -23.5 -83t-85.5 -33zM1067 717q28 0 48.5 9.5t20.5 43.5q0 35 -20.5 57.5t-48.5 22.5t-47.5 -22.5t-19.5 -57.5q0 -37 19.5 -45t47.5 -8z" />
    <glyph glyph-name="uni06AC.init" unicode="&#x6ac;" horiz-adv-x="633" 
d="M690 1081l-37 -143q-64 -26 -147 -63.5t-159.5 -77t-127 -73.5t-50.5 -54t29.5 -39t73.5 -43.5t87.5 -61t73 -91.5t28.5 -136q0 -68 -31.5 -137.5t-110.5 -115.5t-224 -46h-95q-25 0 -37 27.5t-12 62.5t12 62.5t37 27.5h216q93 0 145 23.5t53 49.5q2 56 -35 99.5
t-92.5 78.5t-111 65t-93 58t-37.5 59q0 14 6 54.5t20 56.5q33 36 109.5 86.5t172 103.5t186 97.5t151.5 69.5zM113 1119q64 -45 104 -104l-104 -104q-20 31 -46.5 56.5t-57.5 47.5z" />
    <glyph glyph-name="uni06AC.medi" unicode="&#x6ac;" horiz-adv-x="952" 
d="M690 1081l-37 -143q-64 -26 -147 -63.5t-159.5 -77t-127 -73.5t-50.5 -54t29.5 -39t73.5 -43.5t87.5 -61t73 -91.5t28.5 -136q0 -68 -31.5 -137.5t-110.5 -115.5t-224 -46h-95q-25 0 -37 27.5t-12 62.5t12 62.5t37 27.5h216q93 0 145 23.5t53 49.5q2 56 -35 99.5
t-92.5 78.5t-111 65t-93 58t-37.5 59q0 14 6 54.5t20 56.5q33 36 109.5 86.5t172 103.5t186 97.5t151.5 69.5zM239 607q158 -80 261 -156t174.5 -137.5t135.5 -97.5t144 -36q26 0 40.5 -26t14.5 -65q0 -41 -15.5 -65t-39.5 -24q-81 0 -149.5 38.5t-131.5 97.5t-127 121
t-137 108zM113 1119q64 -45 104 -104l-104 -104q-20 31 -46.5 56.5t-57.5 47.5z" />
    <glyph glyph-name="uni06AC.fina" unicode="&#x6ac;" horiz-adv-x="1179" 
d="M741 0q-32 0 -45.5 27.5t-13.5 62.5t13.5 62.5t45.5 27.5q80 0 119 43.5t39 122.5q0 21 -1.5 69.5t-9 154t-26.5 295.5l74 110q6 -127 13 -254t17 -255q12 -147 66.5 -216.5t146.5 -69.5q30 0 45 -27.5t15 -62.5t-15 -62.5t-45 -27.5q-56 0 -100.5 36.5t-75.5 91.5
t-48 109l5 2q-11 -107 -70.5 -173t-148.5 -66zM689 568q0 -75 -72.5 -120t-204.5 -45q-28 0 -64 17t-54 34q53 0 116.5 6.5t109 19t45.5 26.5t-25 19.5t-57.5 10t-57.5 15t-25 33.5q0 59 57.5 129t151.5 110l26 -89q-19 -5 -48.5 -17.5t-52.5 -28t-23 -29.5t27 -19.5
t62 -10.5t62 -18t27 -43zM600 0h-311q-124 0 -186.5 66t-62.5 157q0 64 30.5 131.5t91.5 128.5l13 -8q-19 -37 -27.5 -73t-8.5 -68q0 -69 45.5 -111.5t139.5 -42.5h276q18 0 28.5 -25t10.5 -57q0 -35 -9.5 -66.5t-29.5 -31.5zM938 1108l13 -8q-75 -141 79 -191l-54 -138
q-62 27 -107.5 63t-45.5 76q0 33 23.5 75t51.5 77.5t40 45.5zM739 0h-135q-32 0 -45.5 27.5t-13.5 62.5t13.5 62.5t45.5 27.5h135q30 0 45 -27.5t15 -62.5t-15 -62.5t-45 -27.5zM504 1119q64 -45 104 -104l-104 -104q-20 31 -46.5 56.5t-57.5 47.5z" />
    <glyph glyph-name="uni06AD.init" unicode="&#x6ad;" horiz-adv-x="633" arabic-form="initial" 
d="M690 1081l-37 -143q-64 -26 -147 -63.5t-159.5 -77t-127 -73.5t-50.5 -54t29.5 -39t73.5 -43.5t87.5 -61t73 -91.5t28.5 -136q0 -68 -31.5 -137.5t-110.5 -115.5t-224 -46h-95q-25 0 -37 27.5t-12 62.5t12 62.5t37 27.5h216q93 0 145 23.5t53 49.5q2 56 -35 99.5
t-92.5 78.5t-111 65t-93 58t-37.5 59q0 14 6 54.5t20 56.5q33 36 109.5 86.5t172 103.5t186 97.5t151.5 69.5zM110 1327q64 -45 104 -104l-104 -104q-20 31 -46.5 56.5t-57.5 47.5zM14 1123q64 -45 104 -104l-104 -104q-20 31 -46.5 56.5t-57.5 47.5zM212 1123
q64 -45 104 -104l-104 -104q-20 31 -46.5 56.5t-57.5 47.5z" />
    <glyph glyph-name="uni06AD.medi" unicode="&#x6ad;" horiz-adv-x="952" arabic-form="medial" 
d="M690 1081l-37 -143q-64 -26 -147 -63.5t-159.5 -77t-127 -73.5t-50.5 -54t29.5 -39t73.5 -43.5t87.5 -61t73 -91.5t28.5 -136q0 -68 -31.5 -137.5t-110.5 -115.5t-224 -46h-95q-25 0 -37 27.5t-12 62.5t12 62.5t37 27.5h216q93 0 145 23.5t53 49.5q2 56 -35 99.5
t-92.5 78.5t-111 65t-93 58t-37.5 59q0 14 6 54.5t20 56.5q33 36 109.5 86.5t172 103.5t186 97.5t151.5 69.5zM239 607q158 -80 261 -156t174.5 -137.5t135.5 -97.5t144 -36q26 0 40.5 -26t14.5 -65q0 -41 -15.5 -65t-39.5 -24q-81 0 -149.5 38.5t-131.5 97.5t-127 121
t-137 108zM110 1327q64 -45 104 -104l-104 -104q-20 31 -46.5 56.5t-57.5 47.5zM14 1123q64 -45 104 -104l-104 -104q-20 31 -46.5 56.5t-57.5 47.5zM212 1123q64 -45 104 -104l-104 -104q-20 31 -46.5 56.5t-57.5 47.5z" />
    <glyph glyph-name="uni06AD.fina" unicode="&#x6ad;" horiz-adv-x="1179" arabic-form="final" 
d="M741 0q-32 0 -45.5 27.5t-13.5 62.5t13.5 62.5t45.5 27.5q80 0 119 43.5t39 122.5q0 21 -1.5 69.5t-9 154t-26.5 295.5l74 110q6 -127 13 -254t17 -255q12 -147 66.5 -216.5t146.5 -69.5q30 0 45 -27.5t15 -62.5t-15 -62.5t-45 -27.5q-56 0 -100.5 36.5t-75.5 91.5
t-48 109l5 2q-11 -107 -70.5 -173t-148.5 -66zM689 568q0 -75 -72.5 -120t-204.5 -45q-28 0 -64 17t-54 34q53 0 116.5 6.5t109 19t45.5 26.5t-25 19.5t-57.5 10t-57.5 15t-25 33.5q0 59 57.5 129t151.5 110l26 -89q-19 -5 -48.5 -17.5t-52.5 -28t-23 -29.5t27 -19.5
t62 -10.5t62 -18t27 -43zM600 0h-311q-124 0 -186.5 66t-62.5 157q0 64 30.5 131.5t91.5 128.5l13 -8q-19 -37 -27.5 -73t-8.5 -68q0 -69 45.5 -111.5t139.5 -42.5h276q18 0 28.5 -25t10.5 -57q0 -35 -9.5 -66.5t-29.5 -31.5zM938 1108l13 -8q-75 -141 79 -191l-54 -138
q-62 27 -107.5 63t-45.5 76q0 33 23.5 75t51.5 77.5t40 45.5zM739 0h-135q-32 0 -45.5 27.5t-13.5 62.5t13.5 62.5t45.5 27.5h135q30 0 45 -27.5t15 -62.5t-15 -62.5t-45 -27.5zM501 1327q64 -45 104 -104l-104 -104q-20 31 -46.5 56.5t-57.5 47.5zM405 1123
q64 -45 104 -104l-104 -104q-20 31 -46.5 56.5t-57.5 47.5zM603 1123q64 -45 104 -104l-104 -104q-20 31 -46.5 56.5t-57.5 47.5z" />
    <glyph glyph-name="uni06AE.init" unicode="&#x6ae;" horiz-adv-x="633" 
d="M690 1081l-37 -143q-64 -26 -147 -63.5t-159.5 -77t-127 -73.5t-50.5 -54t29.5 -39t73.5 -43.5t87.5 -61t73 -91.5t28.5 -136q0 -68 -31.5 -137.5t-110.5 -115.5t-224 -46h-95q-25 0 -37 27.5t-12 62.5t12 62.5t37 27.5h216q93 0 145 23.5t53 49.5q2 56 -35 99.5
t-92.5 78.5t-111 65t-93 58t-37.5 59q0 14 6 54.5t20 56.5q33 36 109.5 86.5t172 103.5t186 97.5t151.5 69.5zM137 -335q64 -45 104 -104l-104 -104q-20 31 -46.5 56.5t-57.5 47.5zM38 -131q64 -45 104 -104l-104 -104q-20 31 -46.5 56.5t-57.5 47.5zM236 -131
q64 -45 104 -104l-104 -104q-20 31 -46.5 56.5t-57.5 47.5z" />
    <glyph glyph-name="uni06AE.medi" unicode="&#x6ae;" horiz-adv-x="952" 
d="M690 1081l-37 -143q-64 -26 -147 -63.5t-159.5 -77t-127 -73.5t-50.5 -54t29.5 -39t73.5 -43.5t87.5 -61t73 -91.5t28.5 -136q0 -68 -31.5 -137.5t-110.5 -115.5t-224 -46h-95q-25 0 -37 27.5t-12 62.5t12 62.5t37 27.5h216q93 0 145 23.5t53 49.5q2 56 -35 99.5
t-92.5 78.5t-111 65t-93 58t-37.5 59q0 14 6 54.5t20 56.5q33 36 109.5 86.5t172 103.5t186 97.5t151.5 69.5zM239 607q158 -80 261 -156t174.5 -137.5t135.5 -97.5t144 -36q26 0 40.5 -26t14.5 -65q0 -41 -15.5 -65t-39.5 -24q-81 0 -149.5 38.5t-131.5 97.5t-127 121
t-137 108zM151 -329q64 -45 104 -104l-104 -104q-20 31 -46.5 56.5t-57.5 47.5zM52 -125q64 -45 104 -104l-104 -104q-20 31 -46.5 56.5t-57.5 47.5zM250 -125q64 -45 104 -104l-104 -104q-20 31 -46.5 56.5t-57.5 47.5z" />
    <glyph glyph-name="uni06AE.fina" unicode="&#x6ae;" horiz-adv-x="1179" 
d="M741 0q-32 0 -45.5 27.5t-13.5 62.5t13.5 62.5t45.5 27.5q80 0 119 43.5t39 122.5q0 21 -1.5 69.5t-9 154t-26.5 295.5l74 110q6 -127 13 -254t17 -255q12 -147 66.5 -216.5t146.5 -69.5q30 0 45 -27.5t15 -62.5t-15 -62.5t-45 -27.5q-56 0 -100.5 36.5t-75.5 91.5
t-48 109l5 2q-11 -107 -70.5 -173t-148.5 -66zM689 568q0 -75 -72.5 -120t-204.5 -45q-28 0 -64 17t-54 34q53 0 116.5 6.5t109 19t45.5 26.5t-25 19.5t-57.5 10t-57.5 15t-25 33.5q0 59 57.5 129t151.5 110l26 -89q-19 -5 -48.5 -17.5t-52.5 -28t-23 -29.5t27 -19.5
t62 -10.5t62 -18t27 -43zM600 0h-311q-124 0 -186.5 66t-62.5 157q0 64 30.5 131.5t91.5 128.5l13 -8q-19 -37 -27.5 -73t-8.5 -68q0 -69 45.5 -111.5t139.5 -42.5h276q18 0 28.5 -25t10.5 -57q0 -35 -9.5 -66.5t-29.5 -31.5zM938 1108l13 -8q-75 -141 79 -191l-54 -138
q-62 27 -107.5 63t-45.5 76q0 33 23.5 75t51.5 77.5t40 45.5zM739 0h-135q-32 0 -45.5 27.5t-13.5 62.5t13.5 62.5t45.5 27.5h135q30 0 45 -27.5t15 -62.5t-15 -62.5t-45 -27.5zM729 -347q64 -45 104 -104l-104 -104q-20 31 -46.5 56.5t-57.5 47.5zM630 -143
q64 -45 104 -104l-104 -104q-20 31 -46.5 56.5t-57.5 47.5zM828 -143q64 -45 104 -104l-104 -104q-20 31 -46.5 56.5t-57.5 47.5z" />
    <glyph glyph-name="uni06AF.init" unicode="&#x6af;" horiz-adv-x="633" arabic-form="initial" 
d="M690 1081l-37 -143q-64 -26 -147 -63.5t-159.5 -77t-127 -73.5t-50.5 -54t29.5 -39t73.5 -43.5t87.5 -61t73 -91.5t28.5 -136q0 -68 -31.5 -137.5t-110.5 -115.5t-224 -46h-95q-25 0 -37 27.5t-12 62.5t12 62.5t37 27.5h216q93 0 145 23.5t53 49.5q2 56 -35 99.5
t-92.5 78.5t-111 65t-93 58t-37.5 59q0 14 6 54.5t20 56.5q33 36 109.5 86.5t172 103.5t186 97.5t151.5 69.5zM70 823l25 85q137 102 271 183t284 152l-25 -96q-150 -71 -285 -150t-270 -174z" />
    <glyph glyph-name="uni06AF.medi" unicode="&#x6af;" horiz-adv-x="952" arabic-form="medial" 
d="M690 1081l-37 -143q-64 -26 -147 -63.5t-159.5 -77t-127 -73.5t-50.5 -54t29.5 -39t73.5 -43.5t87.5 -61t73 -91.5t28.5 -136q0 -68 -31.5 -137.5t-110.5 -115.5t-224 -46h-95q-25 0 -37 27.5t-12 62.5t12 62.5t37 27.5h216q93 0 145 23.5t53 49.5q2 56 -35 99.5
t-92.5 78.5t-111 65t-93 58t-37.5 59q0 14 6 54.5t20 56.5q33 36 109.5 86.5t172 103.5t186 97.5t151.5 69.5zM239 607q158 -80 261 -156t174.5 -137.5t135.5 -97.5t144 -36q26 0 40.5 -26t14.5 -65q0 -41 -15.5 -65t-39.5 -24q-81 0 -149.5 38.5t-131.5 97.5t-127 121
t-137 108zM70 823l25 85q137 102 271 183t284 152l-25 -96q-150 -71 -285 -150t-270 -174z" />
    <glyph glyph-name="uni06AF.fina" unicode="&#x6af;" horiz-adv-x="1544" arabic-form="final" 
d="M600 0h-311q-124 0 -186.5 66t-62.5 157q0 64 30.5 131.5t91.5 128.5l13 -8q-19 -37 -27.5 -73t-8.5 -68q0 -69 45.5 -111.5t139.5 -42.5h276q18 0 28.5 -25t10.5 -57q0 -35 -9.5 -66.5t-29.5 -31.5zM1285 1081l-37 -143q-64 -26 -147 -63.5t-159.5 -77t-127 -73.5
t-50.5 -54t29.5 -39t73.5 -43.5t87.5 -61t73 -91.5t28.5 -136q0 -68 -31.5 -137.5t-110.5 -115.5t-224 -46h-95q-25 0 -37 27.5t-12 62.5t12 62.5t37 27.5h216q93 0 145 23.5t53 49.5q2 56 -35 99.5t-92.5 78.5t-111 65t-93 58t-37.5 59q0 14 6 54.5t20 56.5
q33 36 109.5 86.5t172 103.5t186 97.5t151.5 69.5zM829 607q158 -80 261 -156t174.5 -137.5t135.5 -97.5t144 -36q26 0 40.5 -26t14.5 -65q0 -41 -15.5 -65t-39.5 -24q-81 0 -149.5 38.5t-131.5 97.5t-127 121t-137 108zM665 823l25 85q137 102 271 183t284 152l-25 -96
q-150 -71 -285 -150t-270 -174z" />
    <glyph glyph-name="uni06B0.init" unicode="&#x6b0;" horiz-adv-x="633" 
d="M690 1081l-37 -143q-64 -26 -147 -63.5t-159.5 -77t-127 -73.5t-50.5 -54t29.5 -39t73.5 -43.5t87.5 -61t73 -91.5t28.5 -136q0 -68 -31.5 -137.5t-110.5 -115.5t-224 -46h-95q-25 0 -37 27.5t-12 62.5t12 62.5t37 27.5h216q93 0 145 23.5t53 49.5q2 56 -35 99.5
t-92.5 78.5t-111 65t-93 58t-37.5 59q0 14 6 54.5t20 56.5q33 36 109.5 86.5t172 103.5t186 97.5t151.5 69.5zM70 823l25 85q137 102 271 183t284 152l-25 -96q-150 -71 -285 -150t-270 -174zM440 634q-62 0 -84.5 33t-22.5 83q0 46 29 94.5t78 48.5q50 0 79.5 -48.5
t29.5 -94.5q0 -50 -23.5 -83t-85.5 -33zM440 704q28 0 48.5 9.5t20.5 43.5q0 35 -20.5 57.5t-48.5 22.5t-47.5 -22.5t-19.5 -57.5q0 -37 19.5 -45t47.5 -8z" />
    <glyph glyph-name="uni06B0.medi" unicode="&#x6b0;" horiz-adv-x="952" 
d="M690 1081l-37 -143q-64 -26 -147 -63.5t-159.5 -77t-127 -73.5t-50.5 -54t29.5 -39t73.5 -43.5t87.5 -61t73 -91.5t28.5 -136q0 -68 -31.5 -137.5t-110.5 -115.5t-224 -46h-95q-25 0 -37 27.5t-12 62.5t12 62.5t37 27.5h216q93 0 145 23.5t53 49.5q2 56 -35 99.5
t-92.5 78.5t-111 65t-93 58t-37.5 59q0 14 6 54.5t20 56.5q33 36 109.5 86.5t172 103.5t186 97.5t151.5 69.5zM239 607q158 -80 261 -156t174.5 -137.5t135.5 -97.5t144 -36q26 0 40.5 -26t14.5 -65q0 -41 -15.5 -65t-39.5 -24q-81 0 -149.5 38.5t-131.5 97.5t-127 121
t-137 108zM70 823l25 85q137 102 271 183t284 152l-25 -96q-150 -71 -285 -150t-270 -174zM475 647q-62 0 -84.5 33t-22.5 83q0 46 29 94.5t78 48.5q50 0 79.5 -48.5t29.5 -94.5q0 -50 -23.5 -83t-85.5 -33zM475 717q28 0 48.5 9.5t20.5 43.5q0 35 -20.5 57.5t-48.5 22.5
t-47.5 -22.5t-19.5 -57.5q0 -37 19.5 -45t47.5 -8z" />
    <glyph glyph-name="uni06B0.fina" unicode="&#x6b0;" horiz-adv-x="1544" 
d="M600 0h-311q-124 0 -186.5 66t-62.5 157q0 64 30.5 131.5t91.5 128.5l13 -8q-19 -37 -27.5 -73t-8.5 -68q0 -69 45.5 -111.5t139.5 -42.5h276q18 0 28.5 -25t10.5 -57q0 -35 -9.5 -66.5t-29.5 -31.5zM1285 1081l-37 -143q-64 -26 -147 -63.5t-159.5 -77t-127 -73.5
t-50.5 -54t29.5 -39t73.5 -43.5t87.5 -61t73 -91.5t28.5 -136q0 -68 -31.5 -137.5t-110.5 -115.5t-224 -46h-95q-25 0 -37 27.5t-12 62.5t12 62.5t37 27.5h216q93 0 145 23.5t53 49.5q2 56 -35 99.5t-92.5 78.5t-111 65t-93 58t-37.5 59q0 14 6 54.5t20 56.5
q33 36 109.5 86.5t172 103.5t186 97.5t151.5 69.5zM829 607q158 -80 261 -156t174.5 -137.5t135.5 -97.5t144 -36q26 0 40.5 -26t14.5 -65q0 -41 -15.5 -65t-39.5 -24q-81 0 -149.5 38.5t-131.5 97.5t-127 121t-137 108zM665 823l25 85q137 102 271 183t284 152l-25 -96
q-150 -71 -285 -150t-270 -174zM1067 647q-62 0 -84.5 33t-22.5 83q0 46 29 94.5t78 48.5q50 0 79.5 -48.5t29.5 -94.5q0 -50 -23.5 -83t-85.5 -33zM1067 717q28 0 48.5 9.5t20.5 43.5q0 35 -20.5 57.5t-48.5 22.5t-47.5 -22.5t-19.5 -57.5q0 -37 19.5 -45t47.5 -8z" />
    <glyph glyph-name="uni06B1.init" unicode="&#x6b1;" horiz-adv-x="633" arabic-form="initial" 
d="M690 1081l-37 -143q-64 -26 -147 -63.5t-159.5 -77t-127 -73.5t-50.5 -54t29.5 -39t73.5 -43.5t87.5 -61t73 -91.5t28.5 -136q0 -68 -31.5 -137.5t-110.5 -115.5t-224 -46h-95q-25 0 -37 27.5t-12 62.5t12 62.5t37 27.5h216q93 0 145 23.5t53 49.5q2 56 -35 99.5
t-92.5 78.5t-111 65t-93 58t-37.5 59q0 14 6 54.5t20 56.5q33 36 109.5 86.5t172 103.5t186 97.5t151.5 69.5zM60 823l25 85q137 102 271 183t284 152l-25 -96q-150 -71 -285 -150t-270 -174zM-20 1252q64 -45 104 -104l-104 -104q-20 31 -46.5 56.5t-57.5 47.5zM178 1252
q64 -45 104 -104l-104 -104q-20 31 -46.5 56.5t-57.5 47.5z" />
    <glyph glyph-name="uni06B1.medi" unicode="&#x6b1;" horiz-adv-x="952" arabic-form="medial" 
d="M690 1081l-37 -143q-64 -26 -147 -63.5t-159.5 -77t-127 -73.5t-50.5 -54t29.5 -39t73.5 -43.5t87.5 -61t73 -91.5t28.5 -136q0 -68 -31.5 -137.5t-110.5 -115.5t-224 -46h-95q-25 0 -37 27.5t-12 62.5t12 62.5t37 27.5h216q93 0 145 23.5t53 49.5q2 56 -35 99.5
t-92.5 78.5t-111 65t-93 58t-37.5 59q0 14 6 54.5t20 56.5q33 36 109.5 86.5t172 103.5t186 97.5t151.5 69.5zM239 607q158 -80 261 -156t174.5 -137.5t135.5 -97.5t144 -36q26 0 40.5 -26t14.5 -65q0 -41 -15.5 -65t-39.5 -24q-81 0 -149.5 38.5t-131.5 97.5t-127 121
t-137 108zM60 823l25 85q137 102 271 183t284 152l-25 -96q-150 -71 -285 -150t-270 -174zM-37 1251q64 -45 104 -104l-104 -104q-20 31 -46.5 56.5t-57.5 47.5zM161 1251q64 -45 104 -104l-104 -104q-20 31 -46.5 56.5t-57.5 47.5z" />
    <glyph glyph-name="uni06B1.fina" unicode="&#x6b1;" horiz-adv-x="1544" arabic-form="final" 
d="M600 0h-311q-124 0 -186.5 66t-62.5 157q0 64 30.5 131.5t91.5 128.5l13 -8q-19 -37 -27.5 -73t-8.5 -68q0 -69 45.5 -111.5t139.5 -42.5h276q18 0 28.5 -25t10.5 -57q0 -35 -9.5 -66.5t-29.5 -31.5zM1285 1081l-37 -143q-64 -26 -147 -63.5t-159.5 -77t-127 -73.5
t-50.5 -54t29.5 -39t73.5 -43.5t87.5 -61t73 -91.5t28.5 -136q0 -68 -31.5 -137.5t-110.5 -115.5t-224 -46h-95q-25 0 -37 27.5t-12 62.5t12 62.5t37 27.5h216q93 0 145 23.5t53 49.5q2 56 -35 99.5t-92.5 78.5t-111 65t-93 58t-37.5 59q0 14 6 54.5t20 56.5
q33 36 109.5 86.5t172 103.5t186 97.5t151.5 69.5zM829 607q158 -80 261 -156t174.5 -137.5t135.5 -97.5t144 -36q26 0 40.5 -26t14.5 -65q0 -41 -15.5 -65t-39.5 -24q-81 0 -149.5 38.5t-131.5 97.5t-127 121t-137 108zM655 823l25 85q137 102 271 183t284 152l-25 -96
q-150 -71 -285 -150t-270 -174zM558 1251q64 -45 104 -104l-104 -104q-20 31 -46.5 56.5t-57.5 47.5zM756 1251q64 -45 104 -104l-104 -104q-20 31 -46.5 56.5t-57.5 47.5z" />
    <glyph glyph-name="uni06B2.init" unicode="&#x6b2;" horiz-adv-x="633" 
d="M690 1081l-37 -143q-64 -26 -147 -63.5t-159.5 -77t-127 -73.5t-50.5 -54t29.5 -39t73.5 -43.5t87.5 -61t73 -91.5t28.5 -136q0 -68 -31.5 -137.5t-110.5 -115.5t-224 -46h-95q-25 0 -37 27.5t-12 62.5t12 62.5t37 27.5h216q93 0 145 23.5t53 49.5q2 56 -35 99.5
t-92.5 78.5t-111 65t-93 58t-37.5 59q0 14 6 54.5t20 56.5q33 36 109.5 86.5t172 103.5t186 97.5t151.5 69.5zM70 823l25 85q137 102 271 183t284 152l-25 -96q-150 -71 -285 -150t-270 -174zM38 -126q64 -45 104 -104l-104 -104q-20 31 -46.5 56.5t-57.5 47.5zM236 -126
q64 -45 104 -104l-104 -104q-20 31 -46.5 56.5t-57.5 47.5z" />
    <glyph glyph-name="uni06B2.medi" unicode="&#x6b2;" horiz-adv-x="952" 
d="M690 1081l-37 -143q-64 -26 -147 -63.5t-159.5 -77t-127 -73.5t-50.5 -54t29.5 -39t73.5 -43.5t87.5 -61t73 -91.5t28.5 -136q0 -68 -31.5 -137.5t-110.5 -115.5t-224 -46h-95q-25 0 -37 27.5t-12 62.5t12 62.5t37 27.5h216q93 0 145 23.5t53 49.5q2 56 -35 99.5
t-92.5 78.5t-111 65t-93 58t-37.5 59q0 14 6 54.5t20 56.5q33 36 109.5 86.5t172 103.5t186 97.5t151.5 69.5zM239 607q158 -80 261 -156t174.5 -137.5t135.5 -97.5t144 -36q26 0 40.5 -26t14.5 -65q0 -41 -15.5 -65t-39.5 -24q-81 0 -149.5 38.5t-131.5 97.5t-127 121
t-137 108zM70 823l25 85q137 102 271 183t284 152l-25 -96q-150 -71 -285 -150t-270 -174zM52 -120q64 -45 104 -104l-104 -104q-20 31 -46.5 56.5t-57.5 47.5zM250 -120q64 -45 104 -104l-104 -104q-20 31 -46.5 56.5t-57.5 47.5z" />
    <glyph glyph-name="uni06B2.fina" unicode="&#x6b2;" horiz-adv-x="1544" 
d="M600 0h-311q-124 0 -186.5 66t-62.5 157q0 64 30.5 131.5t91.5 128.5l13 -8q-19 -37 -27.5 -73t-8.5 -68q0 -69 45.5 -111.5t139.5 -42.5h276q18 0 28.5 -25t10.5 -57q0 -35 -9.5 -66.5t-29.5 -31.5zM1285 1081l-37 -143q-64 -26 -147 -63.5t-159.5 -77t-127 -73.5
t-50.5 -54t29.5 -39t73.5 -43.5t87.5 -61t73 -91.5t28.5 -136q0 -68 -31.5 -137.5t-110.5 -115.5t-224 -46h-95q-25 0 -37 27.5t-12 62.5t12 62.5t37 27.5h216q93 0 145 23.5t53 49.5q2 56 -35 99.5t-92.5 78.5t-111 65t-93 58t-37.5 59q0 14 6 54.5t20 56.5
q33 36 109.5 86.5t172 103.5t186 97.5t151.5 69.5zM829 607q158 -80 261 -156t174.5 -137.5t135.5 -97.5t144 -36q26 0 40.5 -26t14.5 -65q0 -41 -15.5 -65t-39.5 -24q-81 0 -149.5 38.5t-131.5 97.5t-127 121t-137 108zM665 823l25 85q137 102 271 183t284 152l-25 -96
q-150 -71 -285 -150t-270 -174zM719 -126q64 -45 104 -104l-104 -104q-20 31 -46.5 56.5t-57.5 47.5zM917 -126q64 -45 104 -104l-104 -104q-20 31 -46.5 56.5t-57.5 47.5z" />
    <glyph glyph-name="uni06B3.init" unicode="&#x6b3;" horiz-adv-x="633" arabic-form="initial" 
d="M690 1081l-37 -143q-64 -26 -147 -63.5t-159.5 -77t-127 -73.5t-50.5 -54t29.5 -39t73.5 -43.5t87.5 -61t73 -91.5t28.5 -136q0 -68 -31.5 -137.5t-110.5 -115.5t-224 -46h-95q-25 0 -37 27.5t-12 62.5t12 62.5t37 27.5h216q93 0 145 23.5t53 49.5q2 56 -35 99.5
t-92.5 78.5t-111 65t-93 58t-37.5 59q0 14 6 54.5t20 56.5q33 36 109.5 86.5t172 103.5t186 97.5t151.5 69.5zM70 823l25 85q137 102 271 183t284 152l-25 -96q-150 -71 -285 -150t-270 -174zM137 -331q64 -45 104 -104l-104 -104q-20 31 -46.5 56.5t-57.5 47.5zM137 -133
q64 -45 104 -104l-104 -104q-20 31 -46.5 56.5t-57.5 47.5z" />
    <glyph glyph-name="uni06B3.medi" unicode="&#x6b3;" horiz-adv-x="952" arabic-form="medial" 
d="M690 1081l-37 -143q-64 -26 -147 -63.5t-159.5 -77t-127 -73.5t-50.5 -54t29.5 -39t73.5 -43.5t87.5 -61t73 -91.5t28.5 -136q0 -68 -31.5 -137.5t-110.5 -115.5t-224 -46h-95q-25 0 -37 27.5t-12 62.5t12 62.5t37 27.5h216q93 0 145 23.5t53 49.5q2 56 -35 99.5
t-92.5 78.5t-111 65t-93 58t-37.5 59q0 14 6 54.5t20 56.5q33 36 109.5 86.5t172 103.5t186 97.5t151.5 69.5zM239 607q158 -80 261 -156t174.5 -137.5t135.5 -97.5t144 -36q26 0 40.5 -26t14.5 -65q0 -41 -15.5 -65t-39.5 -24q-81 0 -149.5 38.5t-131.5 97.5t-127 121
t-137 108zM70 823l25 85q137 102 271 183t284 152l-25 -96q-150 -71 -285 -150t-270 -174zM151 -325q64 -45 104 -104l-104 -104q-20 31 -46.5 56.5t-57.5 47.5zM151 -127q64 -45 104 -104l-104 -104q-20 31 -46.5 56.5t-57.5 47.5z" />
    <glyph glyph-name="uni06B3.fina" unicode="&#x6b3;" horiz-adv-x="1544" arabic-form="final" 
d="M600 0h-311q-124 0 -186.5 66t-62.5 157q0 64 30.5 131.5t91.5 128.5l13 -8q-19 -37 -27.5 -73t-8.5 -68q0 -69 45.5 -111.5t139.5 -42.5h276q18 0 28.5 -25t10.5 -57q0 -35 -9.5 -66.5t-29.5 -31.5zM1285 1081l-37 -143q-64 -26 -147 -63.5t-159.5 -77t-127 -73.5
t-50.5 -54t29.5 -39t73.5 -43.5t87.5 -61t73 -91.5t28.5 -136q0 -68 -31.5 -137.5t-110.5 -115.5t-224 -46h-95q-25 0 -37 27.5t-12 62.5t12 62.5t37 27.5h216q93 0 145 23.5t53 49.5q2 56 -35 99.5t-92.5 78.5t-111 65t-93 58t-37.5 59q0 14 6 54.5t20 56.5
q33 36 109.5 86.5t172 103.5t186 97.5t151.5 69.5zM829 607q158 -80 261 -156t174.5 -137.5t135.5 -97.5t144 -36q26 0 40.5 -26t14.5 -65q0 -41 -15.5 -65t-39.5 -24q-81 0 -149.5 38.5t-131.5 97.5t-127 121t-137 108zM665 823l25 85q137 102 271 183t284 152l-25 -96
q-150 -71 -285 -150t-270 -174zM818 -331q64 -45 104 -104l-104 -104q-20 31 -46.5 56.5t-57.5 47.5zM818 -133q64 -45 104 -104l-104 -104q-20 31 -46.5 56.5t-57.5 47.5z" />
    <glyph glyph-name="uni06B4.init" unicode="&#x6b4;" horiz-adv-x="633" 
d="M690 1081l-37 -143q-64 -26 -147 -63.5t-159.5 -77t-127 -73.5t-50.5 -54t29.5 -39t73.5 -43.5t87.5 -61t73 -91.5t28.5 -136q0 -68 -31.5 -137.5t-110.5 -115.5t-224 -46h-95q-25 0 -37 27.5t-12 62.5t12 62.5t37 27.5h216q93 0 145 23.5t53 49.5q2 56 -35 99.5
t-92.5 78.5t-111 65t-93 58t-37.5 59q0 14 6 54.5t20 56.5q33 36 109.5 86.5t172 103.5t186 97.5t151.5 69.5zM70 823l25 85q137 102 271 183t284 152l-25 -96q-150 -71 -285 -150t-270 -174zM68 1452q64 -45 104 -104l-104 -104q-20 31 -46.5 56.5t-57.5 47.5zM-28 1248
q64 -45 104 -104l-104 -104q-20 31 -46.5 56.5t-57.5 47.5zM170 1248q64 -45 104 -104l-104 -104q-20 31 -46.5 56.5t-57.5 47.5z" />
    <glyph glyph-name="uni06B4.medi" unicode="&#x6b4;" horiz-adv-x="952" 
d="M690 1081l-37 -143q-64 -26 -147 -63.5t-159.5 -77t-127 -73.5t-50.5 -54t29.5 -39t73.5 -43.5t87.5 -61t73 -91.5t28.5 -136q0 -68 -31.5 -137.5t-110.5 -115.5t-224 -46h-95q-25 0 -37 27.5t-12 62.5t12 62.5t37 27.5h216q93 0 145 23.5t53 49.5q2 56 -35 99.5
t-92.5 78.5t-111 65t-93 58t-37.5 59q0 14 6 54.5t20 56.5q33 36 109.5 86.5t172 103.5t186 97.5t151.5 69.5zM239 607q158 -80 261 -156t174.5 -137.5t135.5 -97.5t144 -36q26 0 40.5 -26t14.5 -65q0 -41 -15.5 -65t-39.5 -24q-81 0 -149.5 38.5t-131.5 97.5t-127 121
t-137 108zM70 823l25 85q137 102 271 183t284 152l-25 -96q-150 -71 -285 -150t-270 -174zM68 1452q64 -45 104 -104l-104 -104q-20 31 -46.5 56.5t-57.5 47.5zM-28 1248q64 -45 104 -104l-104 -104q-20 31 -46.5 56.5t-57.5 47.5zM170 1248q64 -45 104 -104l-104 -104
q-20 31 -46.5 56.5t-57.5 47.5z" />
    <glyph glyph-name="uni06B4.fina" unicode="&#x6b4;" horiz-adv-x="1544" 
d="M600 0h-311q-124 0 -186.5 66t-62.5 157q0 64 30.5 131.5t91.5 128.5l13 -8q-19 -37 -27.5 -73t-8.5 -68q0 -69 45.5 -111.5t139.5 -42.5h276q18 0 28.5 -25t10.5 -57q0 -35 -9.5 -66.5t-29.5 -31.5zM1285 1081l-37 -143q-64 -26 -147 -63.5t-159.5 -77t-127 -73.5
t-50.5 -54t29.5 -39t73.5 -43.5t87.5 -61t73 -91.5t28.5 -136q0 -68 -31.5 -137.5t-110.5 -115.5t-224 -46h-95q-25 0 -37 27.5t-12 62.5t12 62.5t37 27.5h216q93 0 145 23.5t53 49.5q2 56 -35 99.5t-92.5 78.5t-111 65t-93 58t-37.5 59q0 14 6 54.5t20 56.5
q33 36 109.5 86.5t172 103.5t186 97.5t151.5 69.5zM829 607q158 -80 261 -156t174.5 -137.5t135.5 -97.5t144 -36q26 0 40.5 -26t14.5 -65q0 -41 -15.5 -65t-39.5 -24q-81 0 -149.5 38.5t-131.5 97.5t-127 121t-137 108zM665 823l25 85q137 102 271 183t284 152l-25 -96
q-150 -71 -285 -150t-270 -174zM663 1452q64 -45 104 -104l-104 -104q-20 31 -46.5 56.5t-57.5 47.5zM567 1248q64 -45 104 -104l-104 -104q-20 31 -46.5 56.5t-57.5 47.5zM765 1248q64 -45 104 -104l-104 -104q-20 31 -46.5 56.5t-57.5 47.5z" />
    <glyph glyph-name="uni06B5.init" unicode="&#x6b5;" horiz-adv-x="352" 
d="M173 923l91 -59q6 -141 11.5 -282t11.5 -282q0 -71 -31.5 -140.5t-95 -114.5t-160.5 -45q-23 0 -34.5 27.5t-11.5 62.5t11.5 62.5t34.5 27.5q46 0 95.5 4.5t86.5 16.5t43 34l-9 -35q4 12 4 50q0 77 -11 250t-36 423zM250 1115l13 -8q-75 -141 79 -191l-54 -138
q-62 27 -107.5 63t-45.5 76q0 33 24 75t51.5 77.5t39.5 45.5zM17 1386l55 42q26 -32 53.5 -67t49 -58.5t27.5 -23.5q5 0 28.5 23t54 57t56.5 66l29 -23q-37 -47 -78.5 -94t-73 -77.5t-38.5 -30.5q-6 0 -35 31t-64.5 74.5t-63.5 80.5z" />
    <glyph glyph-name="uni06B5.medi" unicode="&#x6b5;" horiz-adv-x="438" 
d="M194 1093l37 -627q12 -147 63.5 -216.5t143.5 -69.5q30 0 45 -27.5t15 -62.5t-15 -62.5t-45 -27.5q-56 0 -100.5 36.5t-75.5 91.5t-48 109l5 2q-11 -107 -70.5 -173t-148.5 -66q-32 0 -45.5 27.5t-13.5 62.5t13.5 62.5t45.5 27.5q80 0 120 52t40 131q0 31 -8 184t-39 439
zM-26 1386l55 42q26 -32 53.5 -67t49 -58.5t27.5 -23.5q5 0 28.5 23t54 57t56.5 66l29 -23q-37 -47 -78.5 -94t-73 -77.5t-38.5 -30.5q-6 0 -35 31t-64.5 74.5t-63.5 80.5z" />
    <glyph glyph-name="uni06B5.fina" unicode="&#x6b5;" horiz-adv-x="867" 
d="M270 -400q-109 0 -169.5 74t-60.5 196q0 96 34 185.5t65 131.5l18 -5q-18 -45 -30.5 -94t-12.5 -100q0 -106 57 -157t147 -51q39 0 98 15.5t110 48t64 82.5l-9 -35q8 24 0.5 164t-28 377.5t-51.5 553.5l81 107l65 -1083q4 -62 -13.5 -133t-61 -134t-118 -103t-185.5 -40z
M867 0q-83 0 -152 57t-96 136l-3 350q7 -135 25.5 -214.5t69.5 -114t156 -34.5q38 0 49 -30.5t11 -59.5q0 -11 -4.5 -33t-17.5 -39.5t-38 -17.5zM364 1386l55 42q26 -32 53.5 -67t49 -58.5t27.5 -23.5q5 0 28.5 23t54 57t56.5 66l29 -23q-37 -47 -78.5 -94t-73 -77.5
t-38.5 -30.5q-6 0 -35 31t-64.5 74.5t-63.5 80.5z" />
    <glyph glyph-name="uni06B6.init" unicode="&#x6b6;" horiz-adv-x="352" 
d="M173 923l91 -59q6 -141 11.5 -282t11.5 -282q0 -71 -31.5 -140.5t-95 -114.5t-160.5 -45q-23 0 -34.5 27.5t-11.5 62.5t11.5 62.5t34.5 27.5q46 0 95.5 4.5t86.5 16.5t43 34l-9 -35q4 12 4 50q0 77 -11 250t-36 423zM250 1115l13 -8q-75 -141 79 -191l-54 -138
q-62 27 -107.5 63t-45.5 76q0 33 24 75t51.5 77.5t39.5 45.5zM191 1397q64 -45 104 -104l-104 -104q-20 31 -46.5 56.5t-57.5 47.5z" />
    <glyph glyph-name="uni06B6.medi" unicode="&#x6b6;" horiz-adv-x="438" 
d="M194 1093l37 -627q12 -147 63.5 -216.5t143.5 -69.5q30 0 45 -27.5t15 -62.5t-15 -62.5t-45 -27.5q-56 0 -100.5 36.5t-75.5 91.5t-48 109l5 2q-11 -107 -70.5 -173t-148.5 -66q-32 0 -45.5 27.5t-13.5 62.5t13.5 62.5t45.5 27.5q80 0 120 52t40 131q0 31 -8 184t-39 439
zM148 1397q64 -45 104 -104l-104 -104q-20 31 -46.5 56.5t-57.5 47.5z" />
    <glyph glyph-name="uni06B6.fina" unicode="&#x6b6;" horiz-adv-x="867" 
d="M270 -400q-109 0 -169.5 74t-60.5 196q0 96 34 185.5t65 131.5l18 -5q-18 -45 -30.5 -94t-12.5 -100q0 -106 57 -157t147 -51q39 0 98 15.5t110 48t64 82.5l-9 -35q8 24 0.5 164t-28 377.5t-51.5 553.5l81 107l65 -1083q4 -62 -13.5 -133t-61 -134t-118 -103t-185.5 -40z
M867 0q-83 0 -152 57t-96 136l-3 350q7 -135 25.5 -214.5t69.5 -114t156 -34.5q38 0 49 -30.5t11 -59.5q0 -11 -4.5 -33t-17.5 -39.5t-38 -17.5zM538 1397q64 -45 104 -104l-104 -104q-20 31 -46.5 56.5t-57.5 47.5z" />
    <glyph glyph-name="uni06B7.init" unicode="&#x6b7;" horiz-adv-x="352" 
d="M173 923l91 -59q6 -141 11.5 -282t11.5 -282q0 -71 -31.5 -140.5t-95 -114.5t-160.5 -45q-23 0 -34.5 27.5t-11.5 62.5t11.5 62.5t34.5 27.5q46 0 95.5 4.5t86.5 16.5t43 34l-9 -35q4 12 4 50q0 77 -11 250t-36 423zM250 1115l13 -8q-75 -141 79 -191l-54 -138
q-62 27 -107.5 63t-45.5 76q0 33 24 75t51.5 77.5t39.5 45.5zM188 1605q64 -45 104 -104l-104 -104q-20 31 -46.5 56.5t-57.5 47.5zM92 1401q64 -45 104 -104l-104 -104q-20 31 -46.5 56.5t-57.5 47.5zM290 1401q64 -45 104 -104l-104 -104q-20 31 -46.5 56.5t-57.5 47.5z
" />
    <glyph glyph-name="uni06B7.medi" unicode="&#x6b7;" horiz-adv-x="438" 
d="M194 1093l37 -627q12 -147 63.5 -216.5t143.5 -69.5q30 0 45 -27.5t15 -62.5t-15 -62.5t-45 -27.5q-56 0 -100.5 36.5t-75.5 91.5t-48 109l5 2q-11 -107 -70.5 -173t-148.5 -66q-32 0 -45.5 27.5t-13.5 62.5t13.5 62.5t45.5 27.5q80 0 120 52t40 131q0 31 -8 184t-39 439
zM145 1605q64 -45 104 -104l-104 -104q-20 31 -46.5 56.5t-57.5 47.5zM49 1401q64 -45 104 -104l-104 -104q-20 31 -46.5 56.5t-57.5 47.5zM247 1401q64 -45 104 -104l-104 -104q-20 31 -46.5 56.5t-57.5 47.5z" />
    <glyph glyph-name="uni06B7.fina" unicode="&#x6b7;" horiz-adv-x="867" 
d="M270 -400q-109 0 -169.5 74t-60.5 196q0 96 34 185.5t65 131.5l18 -5q-18 -45 -30.5 -94t-12.5 -100q0 -106 57 -157t147 -51q39 0 98 15.5t110 48t64 82.5l-9 -35q8 24 0.5 164t-28 377.5t-51.5 553.5l81 107l65 -1083q4 -62 -13.5 -133t-61 -134t-118 -103t-185.5 -40z
M867 0q-83 0 -152 57t-96 136l-3 350q7 -135 25.5 -214.5t69.5 -114t156 -34.5q38 0 49 -30.5t11 -59.5q0 -11 -4.5 -33t-17.5 -39.5t-38 -17.5zM535 1605q64 -45 104 -104l-104 -104q-20 31 -46.5 56.5t-57.5 47.5zM439 1401q64 -45 104 -104l-104 -104q-20 31 -46.5 56.5
t-57.5 47.5zM637 1401q64 -45 104 -104l-104 -104q-20 31 -46.5 56.5t-57.5 47.5z" />
    <glyph glyph-name="uni06B8.init" unicode="&#x6b8;" horiz-adv-x="352" 
d="M173 923l91 -59q6 -141 11.5 -282t11.5 -282q0 -71 -31.5 -140.5t-95 -114.5t-160.5 -45q-23 0 -34.5 27.5t-11.5 62.5t11.5 62.5t34.5 27.5q46 0 95.5 4.5t86.5 16.5t43 34l-9 -35q4 12 4 50q0 77 -11 250t-36 423zM250 1115l13 -8q-75 -141 79 -191l-54 -138
q-62 27 -107.5 63t-45.5 76q0 33 24 75t51.5 77.5t39.5 45.5zM199 -322q64 -45 104 -104l-104 -104q-20 31 -46.5 56.5t-57.5 47.5zM100 -118q64 -45 104 -104l-104 -104q-20 31 -46.5 56.5t-57.5 47.5zM298 -118q64 -45 104 -104l-104 -104q-20 31 -46.5 56.5t-57.5 47.5z
" />
    <glyph glyph-name="uni06B8.medi" unicode="&#x6b8;" horiz-adv-x="438" 
d="M194 1093l37 -627q12 -147 63.5 -216.5t143.5 -69.5q30 0 45 -27.5t15 -62.5t-15 -62.5t-45 -27.5q-56 0 -100.5 36.5t-75.5 91.5t-48 109l5 2q-11 -107 -70.5 -173t-148.5 -66q-32 0 -45.5 27.5t-13.5 62.5t13.5 62.5t45.5 27.5q80 0 120 52t40 131q0 31 -8 184t-39 439
zM193 -297q64 -45 104 -104l-104 -104q-20 31 -46.5 56.5t-57.5 47.5zM94 -93q64 -45 104 -104l-104 -104q-20 31 -46.5 56.5t-57.5 47.5zM292 -93q64 -45 104 -104l-104 -104q-20 31 -46.5 56.5t-57.5 47.5z" />
    <glyph glyph-name="uni06B8.fina" unicode="&#x6b8;" horiz-adv-x="867" 
d="M270 -400q-109 0 -169.5 74t-60.5 196q0 96 34 185.5t65 131.5l18 -5q-18 -45 -30.5 -94t-12.5 -100q0 -106 57 -157t147 -51q39 0 98 15.5t110 48t64 82.5l-9 -35q8 24 0.5 164t-28 377.5t-51.5 553.5l81 107l65 -1083q4 -62 -13.5 -133t-61 -134t-118 -103t-185.5 -40z
M867 0q-83 0 -152 57t-96 136l-3 350q7 -135 25.5 -214.5t69.5 -114t156 -34.5q38 0 49 -30.5t11 -59.5q0 -11 -4.5 -33t-17.5 -39.5t-38 -17.5zM553 -659q64 -45 104 -104l-104 -104q-20 31 -46.5 56.5t-57.5 47.5zM454 -455q64 -45 104 -104l-104 -104q-20 31 -46.5 56.5
t-57.5 47.5zM652 -455q64 -45 104 -104l-104 -104q-20 31 -46.5 56.5t-57.5 47.5z" />
    <glyph glyph-name="uni06B9.init" unicode="&#x6b9;" horiz-adv-x="353" 
d="M0 180h63q90 0 134.5 16t44.5 31q0 30 -9 57.5t-32 51.5l57 145q29 -38 42 -87.5t13 -98.5q0 -124 -70.5 -209.5t-201.5 -85.5h-41q-25 0 -37 29t-12 64t12 61t37 26zM206 814q64 -45 104 -104l-104 -104q-20 31 -46.5 56.5t-57.5 47.5zM199 -146q64 -45 104 -104
l-104 -104q-20 31 -46.5 56.5t-57.5 47.5z" />
    <glyph glyph-name="uni06B9.medi" unicode="&#x6b9;" horiz-adv-x="440" 
d="M0 0q-23 0 -35 27.5t-12 62.5t12 62.5t35 27.5h5q85 0 127.5 13.5t64 51t42.5 108.5l15 -3q-4 -25 -4 -50q0 -76 44.5 -98t139.5 -22h5q25 0 35.5 -27.5t10.5 -62.5t-10 -62.5t-36 -27.5h-19q-100 0 -149 37t-71 90l9 -3q-30 -51 -77.5 -87.5t-111.5 -36.5h-20zM212 680
q64 -45 104 -104l-104 -104q-20 31 -46.5 56.5t-57.5 47.5zM203 -146q64 -45 104 -104l-104 -104q-20 31 -46.5 56.5t-57.5 47.5z" />
    <glyph glyph-name="uni06B9.fina" unicode="&#x6b9;" horiz-adv-x="907" 
d="M907 180q31 0 46.5 -27.5t15.5 -62.5t-15.5 -62.5t-46.5 -27.5q-48 0 -108.5 23.5t-89.5 53.5v171q11 -25 45 -40t76 -21.5t77 -6.5zM681 331q38 -76 56.5 -151.5t18.5 -145.5q0 -123 -52.5 -221t-150 -155.5t-232.5 -57.5q-133 0 -207 68.5t-74 204.5q0 64 15.5 127.5
t38.5 114.5t45 78l18 -8q-18 -45 -30.5 -94t-12.5 -100q0 -119 71.5 -165t180.5 -46q55 0 122 14t126 44t88 79l-5 -20q2 85 -25.5 153t-71.5 136zM385 471q64 -45 104 -104l-104 -104q-20 31 -46.5 56.5t-57.5 47.5zM374 -537q64 -45 104 -104l-104 -104q-20 31 -46.5 56.5
t-57.5 47.5z" />
    <glyph glyph-name="uni06BA.init" unicode="&#x6ba;" horiz-adv-x="353" 
d="M0 180h63q90 0 134.5 16t44.5 31q0 30 -9 57.5t-32 51.5l57 145q29 -38 42 -87.5t13 -98.5q0 -124 -70.5 -209.5t-201.5 -85.5h-41q-25 0 -37 29t-12 64t12 61t37 26z" />
    <glyph glyph-name="uni06BA.medi" unicode="&#x6ba;" horiz-adv-x="440" 
d="M0 0q-23 0 -35 27.5t-12 62.5t12 62.5t35 27.5h5q85 0 127.5 13.5t64 51t42.5 108.5l15 -3q-4 -25 -4 -50q0 -76 44.5 -98t139.5 -22h5q25 0 35.5 -27.5t10.5 -62.5t-10 -62.5t-36 -27.5h-19q-100 0 -149 37t-71 90l9 -3q-30 -51 -77.5 -87.5t-111.5 -36.5h-20z" />
    <glyph glyph-name="uni06BA.fina" unicode="&#x6ba;" horiz-adv-x="907" arabic-form="final" 
d="M907 180q31 0 46.5 -27.5t15.5 -62.5t-15.5 -62.5t-46.5 -27.5q-48 0 -108.5 23.5t-89.5 53.5v171q11 -25 45 -40t76 -21.5t77 -6.5zM681 331q38 -76 56.5 -151.5t18.5 -145.5q0 -123 -52.5 -221t-150 -155.5t-232.5 -57.5q-133 0 -207 68.5t-74 204.5q0 64 15.5 127.5
t38.5 114.5t45 78l18 -8q-18 -45 -30.5 -94t-12.5 -100q0 -119 71.5 -165t180.5 -46q55 0 122 14t126 44t88 79l-5 -20q2 85 -25.5 153t-71.5 136z" />
    <glyph glyph-name="uni06BB.init" unicode="&#x6bb;" horiz-adv-x="429" arabic-form="initial" 
d="M0 180h63q90 0 134.5 16t44.5 31q0 30 -9 57.5t-32 51.5l57 145q29 -38 42 -87.5t13 -98.5q0 -124 -70.5 -209.5t-201.5 -85.5h-41q-25 0 -37 29t-12 64t12 61t37 26zM167 600l-12 85q88 0 158.5 10.5t70.5 32.5q0 15 -16 27.5t-47 12.5q-12 0 -41 -14t-61 -35.5
t-54 -44.5l-23 2q53 57 113 108t106 51q36 0 52 -18.5t16 -44.5q0 -45 -38.5 -84.5t-98.5 -63.5t-125 -24zM168 600q-66 0 -106 31.5t-60 68.5l2 5q34 -10 75 -15t77 -5zM184 709l-9 248l35 -20v-205zM225 914q-69 27 -69 60q0 18 18.5 45.5t31.5 37.5l6 -4q-13 -28 6 -47
t53 -30z" />
    <glyph glyph-name="uni06BB.medi" unicode="&#x6bb;" horiz-adv-x="440" arabic-form="medial" 
d="M0 0q-23 0 -35 27.5t-12 62.5t12 62.5t35 27.5h5q85 0 127.5 13.5t64 51t42.5 108.5l15 -3q-4 -25 -4 -50q0 -76 44.5 -98t139.5 -22h5q25 0 35.5 -27.5t10.5 -62.5t-10 -62.5t-36 -27.5h-19q-100 0 -149 37t-71 90l9 -3q-30 -51 -77.5 -87.5t-111.5 -36.5h-20zM173 466
l-12 85q88 0 158.5 10.5t70.5 32.5q0 15 -16 27.5t-47 12.5q-12 0 -41 -14t-61 -35.5t-54 -44.5l-23 2q53 57 113 108t106 51q36 0 52 -18.5t16 -44.5q0 -45 -38.5 -84.5t-98.5 -63.5t-125 -24zM174 466q-66 0 -106 31.5t-60 68.5l2 5q34 -10 75 -15t77 -5zM190 575l-9 248
l35 -20v-205zM231 780q-69 27 -69 60q0 18 18.5 45.5t31.5 37.5l6 -4q-13 -28 6 -47t53 -30z" />
    <glyph glyph-name="uni06BB.fina" unicode="&#x6bb;" horiz-adv-x="907" arabic-form="final" 
d="M907 180q31 0 46.5 -27.5t15.5 -62.5t-15.5 -62.5t-46.5 -27.5q-48 0 -108.5 23.5t-89.5 53.5v171q11 -25 45 -40t76 -21.5t77 -6.5zM681 331q38 -76 56.5 -151.5t18.5 -145.5q0 -123 -52.5 -221t-150 -155.5t-232.5 -57.5q-133 0 -207 68.5t-74 204.5q0 64 15.5 127.5
t38.5 114.5t45 78l18 -8q-18 -45 -30.5 -94t-12.5 -100q0 -119 71.5 -165t180.5 -46q55 0 122 14t126 44t88 79l-5 -20q2 85 -25.5 153t-71.5 136zM346 257l-12 85q88 0 158.5 10.5t70.5 32.5q0 15 -16 27.5t-47 12.5q-12 0 -41 -14t-61 -35.5t-54 -44.5l-23 2
q53 57 113 108t106 51q36 0 52 -18.5t16 -44.5q0 -45 -38.5 -84.5t-98.5 -63.5t-125 -24zM347 257q-66 0 -106 31.5t-60 68.5l2 5q34 -10 75 -15t77 -5zM363 366l-9 248l35 -20v-205zM404 571q-69 27 -69 60q0 18 18.5 45.5t31.5 37.5l6 -4q-13 -28 6 -47t53 -30z" />
    <glyph glyph-name="uni06BC.init" unicode="&#x6bc;" horiz-adv-x="353" 
d="M0 180h63q90 0 134.5 16t44.5 31q0 30 -9 57.5t-32 51.5l57 145q29 -38 42 -87.5t13 -98.5q0 -124 -70.5 -209.5t-201.5 -85.5h-41q-25 0 -37 29t-12 64t12 61t37 26zM206 814q64 -45 104 -104l-104 -104q-20 31 -46.5 56.5t-57.5 47.5zM178 -179q-62 0 -84.5 33
t-22.5 83q0 46 29 94.5t78 48.5q50 0 79.5 -48.5t29.5 -94.5q0 -50 -23.5 -83t-85.5 -33zM178 -109q28 0 48.5 9.5t20.5 43.5q0 35 -20.5 57.5t-48.5 22.5t-47.5 -22.5t-19.5 -57.5q0 -37 19.5 -45t47.5 -8z" />
    <glyph glyph-name="uni06BC.medi" unicode="&#x6bc;" horiz-adv-x="440" 
d="M0 0q-23 0 -35 27.5t-12 62.5t12 62.5t35 27.5h5q85 0 127.5 13.5t64 51t42.5 108.5l15 -3q-4 -25 -4 -50q0 -76 44.5 -98t139.5 -22h5q25 0 35.5 -27.5t10.5 -62.5t-10 -62.5t-36 -27.5h-19q-100 0 -149 37t-71 90l9 -3q-30 -51 -77.5 -87.5t-111.5 -36.5h-20zM212 680
q64 -45 104 -104l-104 -104q-20 31 -46.5 56.5t-57.5 47.5zM196 -139q-62 0 -84.5 33t-22.5 83q0 46 29 94.5t78 48.5q50 0 79.5 -48.5t29.5 -94.5q0 -50 -23.5 -83t-85.5 -33zM196 -69q28 0 48.5 9.5t20.5 43.5q0 35 -20.5 57.5t-48.5 22.5t-47.5 -22.5t-19.5 -57.5
q0 -37 19.5 -45t47.5 -8z" />
    <glyph glyph-name="uni06BC.fina" unicode="&#x6bc;" horiz-adv-x="907" 
d="M907 180q31 0 46.5 -27.5t15.5 -62.5t-15.5 -62.5t-46.5 -27.5q-48 0 -108.5 23.5t-89.5 53.5v171q11 -25 45 -40t76 -21.5t77 -6.5zM681 331q38 -76 56.5 -151.5t18.5 -145.5q0 -123 -52.5 -221t-150 -155.5t-232.5 -57.5q-133 0 -207 68.5t-74 204.5q0 64 15.5 127.5
t38.5 114.5t45 78l18 -8q-18 -45 -30.5 -94t-12.5 -100q0 -119 71.5 -165t180.5 -46q55 0 122 14t126 44t88 79l-5 -20q2 85 -25.5 153t-71.5 136zM385 471q64 -45 104 -104l-104 -104q-20 31 -46.5 56.5t-57.5 47.5zM358 -603q-62 0 -84.5 33t-22.5 83q0 46 29 94.5
t78 48.5q50 0 79.5 -48.5t29.5 -94.5q0 -50 -23.5 -83t-85.5 -33zM358 -533q28 0 48.5 9.5t20.5 43.5q0 35 -20.5 57.5t-48.5 22.5t-47.5 -22.5t-19.5 -57.5q0 -37 19.5 -45t47.5 -8z" />
    <glyph glyph-name="uni06BD.init" unicode="&#x6bd;" horiz-adv-x="353" 
d="M0 180h63q90 0 134.5 16t44.5 31q0 30 -9 57.5t-32 51.5l57 145q29 -38 42 -87.5t13 -98.5q0 -124 -70.5 -209.5t-201.5 -85.5h-41q-25 0 -37 29t-12 64t12 61t37 26zM199 -355q64 -45 104 -104l-104 -104q-20 31 -46.5 56.5t-57.5 47.5zM100 -151q64 -45 104 -104
l-104 -104q-20 31 -46.5 56.5t-57.5 47.5zM298 -151q64 -45 104 -104l-104 -104q-20 31 -46.5 56.5t-57.5 47.5z" />
    <glyph glyph-name="uni06BD.medi" unicode="&#x6bd;" horiz-adv-x="440" 
d="M0 0q-23 0 -35 27.5t-12 62.5t12 62.5t35 27.5h5q85 0 127.5 13.5t64 51t42.5 108.5l15 -3q-4 -25 -4 -50q0 -76 44.5 -98t139.5 -22h5q25 0 35.5 -27.5t10.5 -62.5t-10 -62.5t-36 -27.5h-19q-100 0 -149 37t-71 90l9 -3q-30 -51 -77.5 -87.5t-111.5 -36.5h-20zM203 -355
q64 -45 104 -104l-104 -104q-20 31 -46.5 56.5t-57.5 47.5zM104 -151q64 -45 104 -104l-104 -104q-20 31 -46.5 56.5t-57.5 47.5zM302 -151q64 -45 104 -104l-104 -104q-20 31 -46.5 56.5t-57.5 47.5z" />
    <glyph glyph-name="uni06BD.fina" unicode="&#x6bd;" horiz-adv-x="907" 
d="M907 180q31 0 46.5 -27.5t15.5 -62.5t-15.5 -62.5t-46.5 -27.5q-48 0 -108.5 23.5t-89.5 53.5v171q11 -25 45 -40t76 -21.5t77 -6.5zM681 331q38 -76 56.5 -151.5t18.5 -145.5q0 -123 -52.5 -221t-150 -155.5t-232.5 -57.5q-133 0 -207 68.5t-74 204.5q0 64 15.5 127.5
t38.5 114.5t45 78l18 -8q-18 -45 -30.5 -94t-12.5 -100q0 -119 71.5 -165t180.5 -46q55 0 122 14t126 44t88 79l-5 -20q2 85 -25.5 153t-71.5 136zM382 679q64 -45 104 -104l-104 -104q-20 31 -46.5 56.5t-57.5 47.5zM286 475q64 -45 104 -104l-104 -104q-20 31 -46.5 56.5
t-57.5 47.5zM484 475q64 -45 104 -104l-104 -104q-20 31 -46.5 56.5t-57.5 47.5z" />
    <glyph glyph-name="uni06BE.init" unicode="&#x6be;" horiz-adv-x="577" arabic-form="initial" 
d="M193 665q125 -72 195 -133.5t101.5 -114t39.5 -97t8 -81.5q0 -82 -36.5 -134.5t-103.5 -52.5q-71 0 -149 24t-132.5 77t-54.5 139q0 55 25 115.5t67.5 103t94.5 42.5q32 0 52.5 -28t33 -66.5t17.5 -71t5 -41.5q0 -90 -46 -169t-126.5 -128t-183.5 -49q-23 0 -34.5 27.5
t-11.5 62.5t11.5 62.5t34.5 27.5q93 0 164 32t111.5 70.5t40.5 58.5q0 14 -18 39.5t-41 46.5t-38 21t-43.5 -23t-51.5 -50.5t-23 -42.5q0 -12 47 -40t124 -51.5t166 -23.5q27 0 43 9.5t16 19.5q0 23 -47.5 66t-133.5 93.5t-201 97.5z" />
    <glyph glyph-name="uni06BE.medi" unicode="&#x6be;" horiz-adv-x="698" arabic-form="medial" 
d="M698 180q32 0 47.5 -28t15.5 -63t-15.5 -62t-47.5 -27h-57q-23 0 -66.5 3.5t-92.5 11.5q19 -31 24.5 -57t5.5 -33q0 -60 -15 -118.5t-46 -97.5t-80 -39q-73 0 -126 92t-68 234q-38 2 -82 3t-95 1q-23 0 -34.5 27t-11.5 62t11.5 63t34.5 28q50 0 95 3.5t85 8.5
q13 69 41 140t67 131t84.5 97t94.5 37q29 0 49.5 -37.5t20.5 -106.5q0 -93 -28.5 -159.5t-98.5 -119.5q46 4 114 5t174 1zM423 417q-40 0 -78.5 -31.5t-68.5 -81.5t-48 -104q116 23 181 58t65 60q0 99 -51 99zM408 -158q26 0 43 8t17 18q0 50 -49 81t-195 43
q26 -86 82.5 -118t101.5 -32z" />
    <glyph glyph-name="uni06BE.fina" unicode="&#x6be;" horiz-adv-x="799" arabic-form="final" 
d="M799 180q32 0 47.5 -28t15.5 -63t-15.5 -62t-47.5 -27h-57q-26 0 -79 4.5t-111 15.5t-102 29q-24 16 -40 42t-16 44q0 16 12 20q32 12 75.5 17.5t118 6.5t199.5 1zM568 597q29 0 49.5 -37.5t20.5 -106.5q0 -118 -47 -194t-166 -139l-5 11q87 -24 128 -69.5t53 -86
t12 -50.5q0 -60 -15 -118.5t-46 -97.5t-80 -39q-57 0 -102 57.5t-71.5 154.5t-26.5 217q0 71 24.5 156.5t66 163.5t94.5 128t111 50zM524 417q-40 0 -78.5 -31.5t-68.5 -81t-48 -104.5t-18 -102q0 -100 33.5 -156t80 -78t84.5 -22q26 0 43 8t17 18q0 46 -65.5 97.5
t-209.5 61.5l-1 31q-55 -15 -135 -30.5t-166 -27.5l63 72q152 36 269 84.5t184 93.5t67 68q0 99 -51 99z" />
    <glyph glyph-name="uni06BF.init" unicode="&#x6bf;" horiz-adv-x="767" 
d="M0 0q-23 0 -29.5 27.5t-6.5 62.5t10 62.5t26 27.5q101 0 161 9t97 23t68 29.5t72.5 29.5t109.5 23t180 9l-31 -101q-85 0 -154 25t-125.5 58.5t-104 58.5t-88.5 25q-46 0 -78.5 -16t-52.5 -36l-14 6q10 48 34.5 96t63 79.5t88.5 31.5q53 0 99 -25t99 -58.5t125 -58.5
t178 -25l-51 -173q-104 0 -172.5 -19t-119.5 -47.5t-101.5 -57t-116.5 -47.5t-166 -19zM440 853q64 -45 104 -104l-104 -104q-20 31 -46.5 56.5t-57.5 47.5zM344 -285q64 -45 104 -104l-104 -104q-20 31 -46.5 56.5t-57.5 47.5zM245 -81q64 -45 104 -104l-104 -104
q-20 31 -46.5 56.5t-57.5 47.5zM443 -81q64 -45 104 -104l-104 -104q-20 31 -46.5 56.5t-57.5 47.5z" />
    <glyph glyph-name="uni06BF.medi" unicode="&#x6bf;" horiz-adv-x="817" 
d="M0 0q-23 0 -34.5 27.5t-11.5 62.5t11.5 62.5t34.5 27.5q94 0 153.5 8.5t101 24.5t80 37.5t89 46.5t127 53t196.5 56l-44 -125q-111 -23 -191 -13t-138 34t-103 45.5t-86 21.5q-46 0 -78.5 -16t-52.5 -36l-14 6q10 48 34.5 96t63 79.5t88.5 31.5q53 0 103.5 -23t111 -48.5
t141.5 -35.5t195 17l-52 -173q-104 -21 -177 -54t-131.5 -69.5t-116.5 -69.5t-129 -53.5t-171 -20.5zM817 0q-107 0 -163 64t-65 228l45 12q9 -81 52 -102.5t131 -21.5q27 0 40 -27.5t13 -62.5t-13 -62.5t-40 -27.5zM440 853q64 -45 104 -104l-104 -104q-20 31 -46.5 56.5
t-57.5 47.5zM354 -285q64 -45 104 -104l-104 -104q-20 31 -46.5 56.5t-57.5 47.5zM255 -81q64 -45 104 -104l-104 -104q-20 31 -46.5 56.5t-57.5 47.5zM453 -81q64 -45 104 -104l-104 -104q-20 31 -46.5 56.5t-57.5 47.5z" />
    <glyph glyph-name="uni06BF.fina" unicode="&#x6bf;" horiz-adv-x="889" 
d="M549 348q0 -94 43 -131t128 -37h169q32 0 47 -27.5t15 -62.5t-15 -62.5t-47 -27.5h-149q-99 0 -150 41.5t-69.5 119.5t-18.5 187h47zM659 -743q-223 0 -359.5 73.5t-198 191.5t-61.5 252q0 101 35 208.5t108.5 205.5t190.5 171l2 -7q-30 3 -59 12t-64 9
q-46 0 -81.5 -21.5t-57.5 -48t-28 -42.5l-14 6q6 66 38.5 126t86.5 98.5t124 38.5q49 0 95.5 -15t105 -30t143.5 -15q68 0 135 6l-69 -167q-29 4 -66 4q-103 0 -202.5 -40t-180 -110t-128.5 -161t-48 -193q0 -149 81 -230t218 -112t305 -31h153v-29zM486 857
q64 -45 104 -104l-104 -104q-20 31 -46.5 56.5t-57.5 47.5zM444 -201q64 -45 104 -104l-104 -104q-20 31 -46.5 56.5t-57.5 47.5zM345 3q64 -45 104 -104l-104 -104q-20 31 -46.5 56.5t-57.5 47.5zM543 3q64 -45 104 -104l-104 -104q-20 31 -46.5 56.5t-57.5 47.5z" />
    <glyph glyph-name="uni06C1.init" unicode="&#x6c1;" horiz-adv-x="360" arabic-form="initial" 
d="M269 -438q-16 -3 -31 -3q-54 0 -82 35.5t-28 85.5q0 74 47 165t132 149l-14 -50q-39 -38 -60.5 -84.5t-21.5 -86.5q0 -36 19.5 -60t61.5 -24q13 0 28 3zM0 180h63q90 0 134.5 16t44.5 31q0 30 -9 57.5t-32 51.5l57 145q29 -38 42 -87.5t13 -98.5q0 -124 -70.5 -209.5
t-201.5 -85.5h-41q-25 0 -37 29t-12 64t12 61t37 26z" />
    <glyph glyph-name="uni06C1.medi" unicode="&#x6c1;" horiz-adv-x="877" arabic-form="medial" 
d="M567 318q53 0 82.5 -21t55.5 -48t64.5 -48t107.5 -21q31 0 46.5 -27.5t15.5 -62.5t-15.5 -62.5t-46.5 -27.5q-73 0 -112 21t-65 48t-57.5 48t-90.5 21q-78 0 -133 -55.5t-91.5 -140t-61.5 -171.5q-50 107 -119 168t-152 61q-22 0 -32.5 27t-10.5 62t10.5 63t32.5 28
q173 0 280 -242l-5 1q10 51 37.5 116t67.5 125t89 99t103 39zM354 -713q-16 -3 -31 -3q-54 0 -82 35.5t-28 85.5q0 74 47 165t132 149l-14 -50q-39 -38 -60.5 -84.5t-21.5 -86.5q0 -36 19.5 -60t61.5 -24q13 0 28 3z" />
    <glyph glyph-name="uni06C1.fina" unicode="&#x6c1;" horiz-adv-x="730" arabic-form="final" 
d="M61 -167l-20 4q33 168 92 274t128 156.5t131 50.5q53 0 91 -21t72.5 -48t75.5 -48t99 -21q31 0 46.5 -27.5t15.5 -62.5t-15.5 -62.5t-46.5 -27.5q-67 0 -116.5 21t-90 48t-79 48t-83.5 21q-60 0 -115.5 -41.5t-102.5 -110.5t-82 -153z" />
    <glyph glyph-name="uni06C3.fina" unicode="&#x6c3;" horiz-adv-x="730" 
d="M61 -167l-20 4q33 168 92 274t128 156.5t131 50.5q53 0 91 -21t72.5 -48t75.5 -48t99 -21q31 0 46.5 -27.5t15.5 -62.5t-15.5 -62.5t-46.5 -27.5q-67 0 -116.5 21t-90 48t-79 48t-83.5 21q-60 0 -115.5 -41.5t-102.5 -110.5t-82 -153zM329 674q64 -45 104 -104l-104 -104
q-20 31 -46.5 56.5t-57.5 47.5zM527 674q64 -45 104 -104l-104 -104q-20 31 -46.5 56.5t-57.5 47.5z" />
    <glyph glyph-name="uni06C4.fina" unicode="&#x6c4;" horiz-adv-x="729" 
d="M257 -390q-50 0 -108.5 19t-111.5 46.5t-88 54.5l7 14q53 -12 115 -12q77 0 166 22t168.5 64.5t130.5 104.5t51 141q0 70 -19.5 119t-44.5 75.5t-42 26.5q-20 0 -43 -21t-23 -41q0 -9 24.5 -26t73.5 -17h216q26 0 38 -27.5t12 -62.5t-12 -62.5t-38 -27.5h-212
q-63 0 -110 50t-47 120q0 26 6.5 74.5t21.5 99t41.5 86t65.5 35.5q38 0 65 -38.5t43.5 -100.5t24 -133.5t7.5 -138.5q0 -112 -41 -195.5t-102.5 -138.5t-125.5 -82.5t-109 -27.5zM281 -295q-62 0 -84.5 33t-22.5 83q0 46 29 94.5t78 48.5q50 0 79.5 -48.5t29.5 -94.5
q0 -50 -23.5 -83t-85.5 -33zM281 -225q28 0 48.5 9.5t20.5 43.5q0 35 -20.5 57.5t-48.5 22.5t-47.5 -22.5t-19.5 -57.5q0 -37 19.5 -45t47.5 -8z" />
    <glyph glyph-name="uni06C5.fina" unicode="&#x6c5;" horiz-adv-x="722" arabic-form="final" 
d="M280 -390q-37 0 -88 18.5t-99.5 50t-80.5 70t-32 78.5q0 71 55 101.5t136 30.5q80 0 171 -24t164 -62l-26 -23q-82 19 -183 19q-62 0 -117 -9t-89.5 -28t-34.5 -51q0 -19 22 -34.5t68 -15.5q56 0 130 22t143.5 65t115 105t45.5 141q0 70 -19.5 119t-44.5 75.5t-42 26.5
q-20 0 -43 -21t-23 -41q0 -9 24.5 -26t73.5 -17h216q26 0 38 -27.5t12 -62.5t-12 -62.5t-38 -27.5h-212q-63 0 -110 50t-47 120q0 26 6.5 74.5t21.5 99t41.5 86t65.5 35.5q38 0 65 -38.5t43.5 -100.5t24 -133.5t7.5 -138.5q0 -112 -36.5 -195.5t-92 -138.5t-115 -82.5
t-104.5 -27.5z" />
    <glyph glyph-name="uni06C6.fina" unicode="&#x6c6;" horiz-adv-x="729" arabic-form="final" 
d="M257 -390q-50 0 -108.5 19t-111.5 46.5t-88 54.5l7 14q53 -12 115 -12q77 0 166 22t168.5 64.5t130.5 104.5t51 141q0 70 -19.5 119t-44.5 75.5t-42 26.5q-20 0 -43 -21t-23 -41q0 -9 24.5 -26t73.5 -17h216q26 0 38 -27.5t12 -62.5t-12 -62.5t-38 -27.5h-212
q-63 0 -110 50t-47 120q0 26 6.5 74.5t21.5 99t41.5 86t65.5 35.5q38 0 65 -38.5t43.5 -100.5t24 -133.5t7.5 -138.5q0 -112 -41 -195.5t-102.5 -138.5t-125.5 -82.5t-109 -27.5zM321 778l55 42q26 -32 53.5 -67t49 -58.5t27.5 -23.5q5 0 28.5 23t54 57t56.5 66l29 -23
q-37 -47 -78.5 -94t-73 -77.5t-38.5 -30.5q-6 0 -35 31t-64.5 74.5t-63.5 80.5z" />
    <glyph glyph-name="uni06C7.fina" unicode="&#x6c7;" horiz-adv-x="729" arabic-form="final" 
d="M257 -390q-50 0 -108.5 19t-111.5 46.5t-88 54.5l7 14q53 -12 115 -12q77 0 166 22t168.5 64.5t130.5 104.5t51 141q0 70 -19.5 119t-44.5 75.5t-42 26.5q-20 0 -43 -21t-23 -41q0 -9 24.5 -26t73.5 -17h216q26 0 38 -27.5t12 -62.5t-12 -62.5t-38 -27.5h-212
q-63 0 -110 50t-47 120q0 26 6.5 74.5t21.5 99t41.5 86t65.5 35.5q38 0 65 -38.5t43.5 -100.5t24 -133.5t7.5 -138.5q0 -112 -41 -195.5t-102.5 -138.5t-125.5 -82.5t-109 -27.5zM435 551l-19 35q41 25 73 67.5t30 118.5l13 -9q-20 -5 -34 -5q-39 0 -58.5 24t-19.5 52
q0 29 20.5 55.5t61.5 26.5q46 0 66.5 -32t20.5 -76q0 -68 -33 -139t-121 -118z" />
    <glyph glyph-name="uni06C8.fina" unicode="&#x6c8;" horiz-adv-x="729" arabic-form="final" 
d="M257 -390q-50 0 -108.5 19t-111.5 46.5t-88 54.5l7 14q53 -12 115 -12q77 0 166 22t168.5 64.5t130.5 104.5t51 141q0 70 -19.5 119t-44.5 75.5t-42 26.5q-20 0 -43 -21t-23 -41q0 -9 24.5 -26t73.5 -17h216q26 0 38 -27.5t12 -62.5t-12 -62.5t-38 -27.5h-212
q-63 0 -110 50t-47 120q0 26 6.5 74.5t21.5 99t41.5 86t65.5 35.5q38 0 65 -38.5t43.5 -100.5t24 -133.5t7.5 -138.5q0 -112 -41 -195.5t-102.5 -138.5t-125.5 -82.5t-109 -27.5zM526 626l-67 -55v264l67 56v-265z" />
    <glyph glyph-name="uni06C9.fina" unicode="&#x6c9;" horiz-adv-x="729" arabic-form="final" 
d="M257 -390q-50 0 -108.5 19t-111.5 46.5t-88 54.5l7 14q53 -12 115 -12q77 0 166 22t168.5 64.5t130.5 104.5t51 141q0 70 -19.5 119t-44.5 75.5t-42 26.5q-20 0 -43 -21t-23 -41q0 -9 24.5 -26t73.5 -17h216q26 0 38 -27.5t12 -62.5t-12 -62.5t-38 -27.5h-212
q-63 0 -110 50t-47 120q0 26 6.5 74.5t21.5 99t41.5 86t65.5 35.5q38 0 65 -38.5t43.5 -100.5t24 -133.5t7.5 -138.5q0 -112 -41 -195.5t-102.5 -138.5t-125.5 -82.5t-109 -27.5zM660 617l-55 -42q-25 33 -53 67.5t-49.5 58t-27.5 23.5q-5 0 -28.5 -23t-54 -56.5
t-56.5 -66.5l-29 23q37 48 78.5 94.5t73 77t38.5 30.5t35.5 -31t64 -74t63.5 -81z" />
    <glyph glyph-name="uni06CA.fina" unicode="&#x6ca;" horiz-adv-x="729" 
d="M257 -390q-50 0 -108.5 19t-111.5 46.5t-88 54.5l7 14q53 -12 115 -12q77 0 166 22t168.5 64.5t130.5 104.5t51 141q0 70 -19.5 119t-44.5 75.5t-42 26.5q-20 0 -43 -21t-23 -41q0 -9 24.5 -26t73.5 -17h216q26 0 38 -27.5t12 -62.5t-12 -62.5t-38 -27.5h-212
q-63 0 -110 50t-47 120q0 26 6.5 74.5t21.5 99t41.5 86t65.5 35.5q38 0 65 -38.5t43.5 -100.5t24 -133.5t7.5 -138.5q0 -112 -41 -195.5t-102.5 -138.5t-125.5 -82.5t-109 -27.5zM396 789q64 -45 104 -104l-104 -104q-20 31 -46.5 56.5t-57.5 47.5zM594 789q64 -45 104 -104
l-104 -104q-20 31 -46.5 56.5t-57.5 47.5z" />
    <glyph glyph-name="uni06CB.fina" unicode="&#x6cb;" horiz-adv-x="729" arabic-form="final" 
d="M257 -390q-50 0 -108.5 19t-111.5 46.5t-88 54.5l7 14q53 -12 115 -12q77 0 166 22t168.5 64.5t130.5 104.5t51 141q0 70 -19.5 119t-44.5 75.5t-42 26.5q-20 0 -43 -21t-23 -41q0 -9 24.5 -26t73.5 -17h216q26 0 38 -27.5t12 -62.5t-12 -62.5t-38 -27.5h-212
q-63 0 -110 50t-47 120q0 26 6.5 74.5t21.5 99t41.5 86t65.5 35.5q38 0 65 -38.5t43.5 -100.5t24 -133.5t7.5 -138.5q0 -112 -41 -195.5t-102.5 -138.5t-125.5 -82.5t-109 -27.5zM492 997q64 -45 104 -104l-104 -104q-20 31 -46.5 56.5t-57.5 47.5zM396 793q64 -45 104 -104
l-104 -104q-20 31 -46.5 56.5t-57.5 47.5zM594 793q64 -45 104 -104l-104 -104q-20 31 -46.5 56.5t-57.5 47.5z" />
    <glyph glyph-name="uni06CC.init" unicode="&#x6cc;" horiz-adv-x="353" arabic-form="initial" 
d="M0 180h63q90 0 134.5 16t44.5 31q0 30 -9 57.5t-32 51.5l57 145q29 -38 42 -87.5t13 -98.5q0 -124 -70.5 -209.5t-201.5 -85.5h-41q-25 0 -37 29t-12 64t12 61t37 26zM100 -146q64 -45 104 -104l-104 -104q-20 31 -46.5 56.5t-57.5 47.5zM298 -146q64 -45 104 -104
l-104 -104q-20 31 -46.5 56.5t-57.5 47.5z" />
    <glyph glyph-name="uni06CC.medi" unicode="&#x6cc;" horiz-adv-x="440" arabic-form="medial" 
d="M0 0q-23 0 -35 27.5t-12 62.5t12 62.5t35 27.5h5q85 0 127.5 13.5t64 51t42.5 108.5l15 -3q-4 -25 -4 -50q0 -76 44.5 -98t139.5 -22h5q25 0 35.5 -27.5t10.5 -62.5t-10 -62.5t-36 -27.5h-19q-100 0 -149 37t-71 90l9 -3q-30 -51 -77.5 -87.5t-111.5 -36.5h-20zM104 -146
q64 -45 104 -104l-104 -104q-20 31 -46.5 56.5t-57.5 47.5zM302 -146q64 -45 104 -104l-104 -104q-20 31 -46.5 56.5t-57.5 47.5z" />
    <glyph glyph-name="uni06CC.fina" unicode="&#x6cc;" horiz-adv-x="1055" arabic-form="final" 
d="M1055 180q23 0 35.5 -27.5t12.5 -62.5t-12 -62.5t-36 -27.5h-232q-89 0 -115 -9.5t-26 -20.5q0 -16 29.5 -23.5t73.5 -13t88 -15.5t73.5 -30t29.5 -58q0 -72 -54 -126.5t-141.5 -90.5t-189.5 -54.5t-197 -18.5q-146 0 -227 36t-108.5 97t-13 138t60.5 160.5t111 162.5
l14 -5q-86 -156 -91.5 -245.5t73 -126.5t244.5 -37q32 0 88.5 2.5t121.5 7.5t123.5 13t96 18.5t37.5 23.5q0 15 -29.5 21t-73 10t-87 13t-72 30t-26.5 62q3 56 39 116t109.5 101.5t186.5 41.5h84z" />
    <glyph glyph-name="uni06CD.fina" unicode="&#x6cd;" horiz-adv-x="1055" 
d="M-78 -79v15q69 14 146 59t129 114l8 -12q-28 -111 -101 -148t-182 -28zM1055 180q23 0 35.5 -27.5t12.5 -62.5t-12 -62.5t-36 -27.5h-232q-89 0 -115 -9.5t-26 -20.5q0 -16 29.5 -23.5t73.5 -13t88 -15.5t73.5 -30t29.5 -58q0 -72 -54 -126.5t-141.5 -90.5t-189.5 -54.5
t-197 -18.5q-146 0 -227 36t-108.5 97t-13 138t60.5 160.5t111 162.5l14 -5q-86 -156 -91.5 -245.5t73 -126.5t244.5 -37q32 0 88.5 2.5t121.5 7.5t123.5 13t96 18.5t37.5 23.5q0 15 -29.5 21t-73 10t-87 13t-72 30t-26.5 62q3 56 39 116t109.5 101.5t186.5 41.5h84z" />
    <glyph glyph-name="uni06CE.init" unicode="&#x6ce;" horiz-adv-x="353" 
d="M0 180h63q90 0 134.5 16t44.5 31q0 30 -9 57.5t-32 51.5l57 145q29 -38 42 -87.5t13 -98.5q0 -124 -70.5 -209.5t-201.5 -85.5h-41q-25 0 -37 29t-12 64t12 61t37 26zM32 803l55 42q26 -32 53.5 -67t49 -58.5t27.5 -23.5q5 0 28.5 23t54 57t56.5 66l29 -23
q-37 -47 -78.5 -94t-73 -77.5t-38.5 -30.5q-6 0 -35 31t-64.5 74.5t-63.5 80.5zM100 -146q64 -45 104 -104l-104 -104q-20 31 -46.5 56.5t-57.5 47.5zM298 -146q64 -45 104 -104l-104 -104q-20 31 -46.5 56.5t-57.5 47.5z" />
    <glyph glyph-name="uni06CE.medi" unicode="&#x6ce;" horiz-adv-x="440" 
d="M0 0q-23 0 -35 27.5t-12 62.5t12 62.5t35 27.5h5q85 0 127.5 13.5t64 51t42.5 108.5l15 -3q-4 -25 -4 -50q0 -76 44.5 -98t139.5 -22h5q25 0 35.5 -27.5t10.5 -62.5t-10 -62.5t-36 -27.5h-19q-100 0 -149 37t-71 90l9 -3q-30 -51 -77.5 -87.5t-111.5 -36.5h-20zM38 669
l55 42q26 -32 53.5 -67t49 -58.5t27.5 -23.5q5 0 28.5 23t54 57t56.5 66l29 -23q-37 -47 -78.5 -94t-73 -77.5t-38.5 -30.5q-6 0 -35 31t-64.5 74.5t-63.5 80.5zM104 -146q64 -45 104 -104l-104 -104q-20 31 -46.5 56.5t-57.5 47.5zM302 -146q64 -45 104 -104l-104 -104
q-20 31 -46.5 56.5t-57.5 47.5z" />
    <glyph glyph-name="uni06CE.fina" unicode="&#x6ce;" horiz-adv-x="1055" 
d="M1055 180q23 0 35.5 -27.5t12.5 -62.5t-12 -62.5t-36 -27.5h-232q-89 0 -115 -9.5t-26 -20.5q0 -16 29.5 -23.5t73.5 -13t88 -15.5t73.5 -30t29.5 -58q0 -72 -54 -126.5t-141.5 -90.5t-189.5 -54.5t-197 -18.5q-146 0 -227 36t-108.5 97t-13 138t60.5 160.5t111 162.5
l14 -5q-86 -156 -91.5 -245.5t73 -126.5t244.5 -37q32 0 88.5 2.5t121.5 7.5t123.5 13t96 18.5t37.5 23.5q0 15 -29.5 21t-73 10t-87 13t-72 30t-26.5 62q3 56 39 116t109.5 101.5t186.5 41.5h84zM401 509l55 42q26 -32 53.5 -67t49 -58.5t27.5 -23.5q5 0 28.5 23t54 57
t56.5 66l29 -23q-37 -47 -78.5 -94t-73 -77.5t-38.5 -30.5q-6 0 -35 31t-64.5 74.5t-63.5 80.5z" />
    <glyph glyph-name="uni06CF.fina" unicode="&#x6cf;" horiz-adv-x="729" 
d="M257 -390q-50 0 -108.5 19t-111.5 46.5t-88 54.5l7 14q53 -12 115 -12q77 0 166 22t168.5 64.5t130.5 104.5t51 141q0 70 -19.5 119t-44.5 75.5t-42 26.5q-20 0 -43 -21t-23 -41q0 -9 24.5 -26t73.5 -17h216q26 0 38 -27.5t12 -62.5t-12 -62.5t-38 -27.5h-212
q-63 0 -110 50t-47 120q0 26 6.5 74.5t21.5 99t41.5 86t65.5 35.5q38 0 65 -38.5t43.5 -100.5t24 -133.5t7.5 -138.5q0 -112 -41 -195.5t-102.5 -138.5t-125.5 -82.5t-109 -27.5zM495 789q64 -45 104 -104l-104 -104q-20 31 -46.5 56.5t-57.5 47.5z" />
    <glyph glyph-name="uni06D0.init" unicode="&#x6d0;" horiz-adv-x="353" arabic-form="initial" 
d="M0 180h63q90 0 134.5 16t44.5 31q0 30 -9 57.5t-32 51.5l57 145q29 -38 42 -87.5t13 -98.5q0 -124 -70.5 -209.5t-201.5 -85.5h-41q-25 0 -37 29t-12 64t12 61t37 26zM199 -351q64 -45 104 -104l-104 -104q-20 31 -46.5 56.5t-57.5 47.5zM199 -153q64 -45 104 -104
l-104 -104q-20 31 -46.5 56.5t-57.5 47.5z" />
    <glyph glyph-name="uni06D0.medi" unicode="&#x6d0;" horiz-adv-x="440" arabic-form="medial" 
d="M0 0q-23 0 -35 27.5t-12 62.5t12 62.5t35 27.5h5q85 0 127.5 13.5t64 51t42.5 108.5l15 -3q-4 -25 -4 -50q0 -76 44.5 -98t139.5 -22h5q25 0 35.5 -27.5t10.5 -62.5t-10 -62.5t-36 -27.5h-19q-100 0 -149 37t-71 90l9 -3q-30 -51 -77.5 -87.5t-111.5 -36.5h-20zM203 -351
q64 -45 104 -104l-104 -104q-20 31 -46.5 56.5t-57.5 47.5zM203 -153q64 -45 104 -104l-104 -104q-20 31 -46.5 56.5t-57.5 47.5z" />
    <glyph glyph-name="uni06D0.fina" unicode="&#x6d0;" horiz-adv-x="1055" arabic-form="final" 
d="M1055 180q23 0 35.5 -27.5t12.5 -62.5t-12 -62.5t-36 -27.5h-232q-89 0 -115 -9.5t-26 -20.5q0 -16 29.5 -23.5t73.5 -13t88 -15.5t73.5 -30t29.5 -58q0 -72 -54 -126.5t-141.5 -90.5t-189.5 -54.5t-197 -18.5q-146 0 -227 36t-108.5 97t-13 138t60.5 160.5t111 162.5
l14 -5q-86 -156 -91.5 -245.5t73 -126.5t244.5 -37q32 0 88.5 2.5t121.5 7.5t123.5 13t96 18.5t37.5 23.5q0 15 -29.5 21t-73 10t-87 13t-72 30t-26.5 62q3 56 39 116t109.5 101.5t186.5 41.5h84zM450 -781q64 -45 104 -104l-104 -104q-20 31 -46.5 56.5t-57.5 47.5z
M450 -583q64 -45 104 -104l-104 -104q-20 31 -46.5 56.5t-57.5 47.5z" />
    <glyph glyph-name="uni06D1.init" unicode="&#x6d1;" horiz-adv-x="353" 
d="M0 180h63q90 0 134.5 16t44.5 31q0 30 -9 57.5t-32 51.5l57 145q29 -38 42 -87.5t13 -98.5q0 -124 -70.5 -209.5t-201.5 -85.5h-41q-25 0 -37 29t-12 64t12 61t37 26zM199 -355q64 -45 104 -104l-104 -104q-20 31 -46.5 56.5t-57.5 47.5zM100 -151q64 -45 104 -104
l-104 -104q-20 31 -46.5 56.5t-57.5 47.5zM298 -151q64 -45 104 -104l-104 -104q-20 31 -46.5 56.5t-57.5 47.5z" />
    </font>
</defs>
</svg>
