<?xml version="1.0" standalone="no"?>
<!DOCTYPE svg PUBLIC "-//W3C//DTD SVG 1.1//EN" "http://www.w3.org/Graphics/SVG/1.1/DTD/svg11.dtd" >
<svg xmlns="http://www.w3.org/2000/svg" xmlns:xlink="http://www.w3.org/1999/xlink" version="1.1">
<metadata>
Created by FontForge 20201107 at Mon Aug 28 17:04:32 2023
 By 
Copyright (c) 1994-2023 SIL International.
</metadata>
<defs>
<font id="Lateef-SemiBold" horiz-adv-x="0" >
  <font-face 
    font-family="Lateef SemiBold"
    font-weight="600"
    font-stretch="normal"
    units-per-em="2048"
    panose-1="1 0 5 6 2 0 0 2 0 3"
    ascent="1638"
    descent="-410"
    x-height="703"
    cap-height="942"
    bbox="-778 -1045 4996 2154"
    underline-thickness="9"
    underline-position="-62"
    unicode-range="U+0020-10EFF"
  />
<missing-glyph horiz-adv-x="1135" 
d="M1050 996h-965v-1224h965v1224zM1075 1021v-1274h-1015v1274h1015zM726 310q0 -82 -22.5 -156t-75.5 -120t-146 -46q-76 0 -111 44.5t-35 117.5q0 40 11.5 93t31.5 87q1 2 5 7.5t8 5.5q1 0 1 -1q0 -30 -8 -60t-8 -61q0 -57 43 -81t92 -24q23 0 58 8t66 25t41 43l-36 528
l-32 40l45 127q8 8 10 -2q-1 -10 -1 -24q0 -31 14 -53t48 -24l-19 -105l-18 11q10 -86 24 -189t14 -191z" />
    <glyph glyph-name="uni0624" unicode="&#x648;&#x654;" horiz-adv-x="682" 
d="M622 154q0 -152 -57.5 -260t-143 -166t-169.5 -58q-51 0 -108.5 22.5t-109 54.5t-85.5 60l7 14q69 -14 143 -14q177 0 296.5 55.5t180.5 205.5zM561 -6q8 36 8 89t-10.5 107.5t-33 91.5t-58.5 37q-24 0 -42.5 -22.5t-18.5 -47.5q0 -47 60 -47q37 0 53.5 20t22.5 50
l38 -100q-6 -28 -23.5 -62t-44 -58.5t-59.5 -24.5q-47 0 -74.5 49t-27.5 116q0 26 5.5 77t19.5 105t38.5 92t63.5 38q44 0 76.5 -54t50 -134.5t17.5 -161.5q-9 -53 -25 -92t-36 -68zM392 675q-45 23 -45 71q0 109 35 161t87 52q27 0 54.5 -14.5t43.5 -40.5l-13 -25
q-13 4 -32 4q-47 0 -95 -21t-58 -58l4 23q7 -66 95 -66q27 0 63 8zM644 782l-60 -97q-55 0 -120.5 -12.5t-137.5 -77.5l-35 25q68 70 148 116t205 46z" />
    <glyph glyph-name="uni0626" unicode="&#x64a;&#x654;" horiz-adv-x="1054" 
d="M938 672q32 0 54 -22.5t22 -62.5q0 -38 -21 -90t-54 -102q-3 55 -66 55q-44 0 -97 -19.5t-91.5 -50t-38.5 -64.5q0 -35 34.5 -49.5t85.5 -19.5t102 -11t85.5 -22.5t34.5 -54.5q0 -96 -35.5 -187.5t-107 -165t-178 -117.5t-248.5 -44q-182 0 -280.5 91t-98.5 245
q0 68 24 152.5t90 192.5l15 -7q-25 -63 -34 -115t-9 -93q0 -97 48 -148t122.5 -69.5t153.5 -18.5q136 0 233 24t151 56.5t61 56.5q5 16 -28 20t-84.5 6.5t-104 13t-88.5 37.5t-36 80q0 70 33 156.5t88 165.5t123.5 130t139.5 51zM398 773q-45 23 -45 71q0 109 35 161t87 52
q27 0 54.5 -14.5t43.5 -40.5l-13 -25q-13 4 -32 4q-47 0 -95 -21t-58 -58l4 23q7 -66 95 -66q27 0 63 8zM650 880l-60 -97q-55 0 -120.5 -12.5t-137.5 -77.5l-35 25q68 70 148 116t205 46z" />
    <glyph glyph-name="uni06C0" unicode="&#x6d5;&#x654;" horiz-adv-x="462" 
d="M192 450q-36 -44 -55 -88.5t-19 -68.5q0 -28 25 -53t80 -25q60 0 95.5 20t35.5 45q0 26 -35.5 50.5t-82 48.5t-82 48t-35.5 48q0 26 8.5 70t22 86.5t26.5 64.5q9 -53 47.5 -83t84.5 -55t80 -60t34 -98q0 -114 -27 -208.5t-76.5 -150.5t-119.5 -56q-80 0 -119.5 55
t-39.5 116q0 89 33.5 176.5t85.5 150.5zM112 857q-45 23 -45 71q0 109 35 161t87 52q27 0 54.5 -14.5t43.5 -40.5l-13 -25q-13 4 -32 4q-47 0 -95 -21t-58 -58l4 23q7 -66 95 -66q27 0 63 8zM364 964l-60 -97q-55 0 -120.5 -12.5t-137.5 -77.5l-35 25q68 70 148 116t205 46z
" />
    <glyph glyph-name="uni06C2" unicode="&#x6c1;&#x654;" horiz-adv-x="462" 
d="M192 450q-36 -44 -55 -88.5t-19 -68.5q0 -28 25 -53t80 -25q60 0 95.5 20t35.5 45q0 26 -35.5 50.5t-82 48.5t-82 48t-35.5 48q0 26 8.5 70t22 86.5t26.5 64.5q9 -53 47.5 -83t84.5 -55t80 -60t34 -98q0 -114 -27 -208.5t-76.5 -150.5t-119.5 -56q-80 0 -119.5 55
t-39.5 116q0 89 33.5 176.5t85.5 150.5zM112 857q-45 23 -45 71q0 109 35 161t87 52q27 0 54.5 -14.5t43.5 -40.5l-13 -25q-13 4 -32 4q-47 0 -95 -21t-58 -58l4 23q7 -66 95 -66q27 0 63 8zM364 964l-60 -97q-55 0 -120.5 -12.5t-137.5 -77.5l-35 25q68 70 148 116t205 46z
" />
    <glyph glyph-name="uni06510670" unicode="&#x651;&#x670;" 
d="M85 1306q0 -108 -26 -171t-60 -76.5t-59.5 26t-25.5 136.5l36 18q0 -74 24.5 -87t49.5 24t25 112zM220 1373q0 -108 -26 -171t-60 -76.5t-59.5 26t-25.5 136.5l36 18q0 -74 24.5 -87t49.5 24t25 112zM33 1351q2 62 -6 134t-4 141l76 100q-8 -94 -4.5 -181t-6.5 -134
q-3 -13 -20 -35.5t-35 -24.5z" />
    <glyph glyph-name="uni0651064B" unicode="&#x64b;&#x651;" 
d="M85 1306q0 -108 -26 -171t-60 -76.5t-59.5 26t-25.5 136.5l36 18q0 -74 24.5 -87t49.5 24t25 112zM220 1373q0 -108 -26 -171t-60 -76.5t-59.5 26t-25.5 136.5l36 18q0 -74 24.5 -87t49.5 24t25 112zM-87 1435l40 113l302 152l-38 -114zM-87 1280l40 113l302 152
l-38 -114z" />
    <glyph glyph-name="uni0651064C" unicode="&#x64c;&#x651;" 
d="M-196 1267q34 30 53.5 71.5t20.5 75.5t-20.5 45t-69.5 -18l18 64q48 32 81.5 23.5t48 -41t5 -73t-46.5 -71.5l1 -35q-42 -22 -91 -41zM-110 1305l-28 44q60 27 123 76t106 102.5t43 95.5q0 20 -11 30.5t-25 10.5t-33 -16t-19 -46q0 -27 30 -50t128 -74l-51 -76
q-77 46 -126.5 90.5t-49.5 97.5q0 52 23 80t56 39t62 11q35 0 56.5 -18.5t21.5 -51.5q0 -63 -48 -130t-118.5 -124t-139.5 -91zM9 1306q0 -108 -26 -171t-60 -76.5t-59.5 26t-25.5 136.5l36 18q0 -74 24.5 -87t49.5 24t25 112zM144 1373q0 -108 -26 -171t-60 -76.5t-59.5 26
t-25.5 136.5l36 18q0 -74 24.5 -87t49.5 24t25 112z" />
    <glyph glyph-name="uni0651064D" unicode="&#x64d;&#x34f;&#x651;" 
d="M85 1626q0 -108 -26 -171t-60 -76.5t-59.5 26t-25.5 136.5l36 18q0 -74 24.5 -87t49.5 24t25 112zM220 1693q0 -108 -26 -171t-60 -76.5t-59.5 26t-25.5 136.5l36 18q0 -74 24.5 -87t49.5 24t25 112zM-112 1179l40 113l302 152l-38 -114zM-112 1024l40 113l302 152
l-38 -114z" />
    <glyph glyph-name="uni0651064E" unicode="&#x64e;&#x651;" 
d="M85 1306q0 -108 -26 -171t-60 -76.5t-59.5 26t-25.5 136.5l36 18q0 -74 24.5 -87t49.5 24t25 112zM220 1373q0 -108 -26 -171t-60 -76.5t-59.5 26t-25.5 136.5l36 18q0 -74 24.5 -87t49.5 24t25 112zM-102 1268l40 113l302 152l-38 -114z" />
    <glyph glyph-name="uni0651064F" unicode="&#x64f;&#x651;" 
d="M-82 1291l-28 44q60 27 123 76t106 102.5t43 95.5q0 20 -11 30.5t-25 10.5t-33 -16t-19 -46q0 -27 30 -50t128 -74l-51 -76q-77 46 -126.5 90.5t-49.5 97.5q0 52 23 80t56 39t62 11q35 0 56.5 -18.5t21.5 -51.5q0 -63 -48 -130t-118.5 -124t-139.5 -91zM85 1306
q0 -108 -26 -171t-60 -76.5t-59.5 26t-25.5 136.5l36 18q0 -74 24.5 -87t49.5 24t25 112zM220 1373q0 -108 -26 -171t-60 -76.5t-59.5 26t-25.5 136.5l36 18q0 -74 24.5 -87t49.5 24t25 112z" />
    <glyph glyph-name="uni06510650" unicode="&#x650;&#x34f;&#x651;" 
d="M82 1485q0 -108 -26 -171t-60 -76.5t-59.5 26t-25.5 136.5l36 18q0 -74 24.5 -87t49.5 24t25 112zM217 1552q0 -108 -26 -171t-60 -76.5t-59.5 26t-25.5 136.5l36 18q0 -74 24.5 -87t49.5 24t25 112zM-120 1032l40 113l302 152l-38 -114z" />
    <glyph glyph-name="uni0620.init" unicode="&#x620;" horiz-adv-x="353" 
d="M0 230h64q90 0 139.5 21t49.5 36q0 23 -23 48t-51 40l78 200q30 -44 43 -98t13 -109q0 -95 -34 -179t-95 -136.5t-142 -52.5h-42q-25 0 -37 41.5t-12 76.5t12 73.5t37 38.5zM190 -375q-66 0 -86.5 40.5t-20.5 90.5q0 31 12 65t36 58.5t59 24.5q36 0 60 -24.5t36.5 -58.5
t12.5 -65q0 -50 -21.5 -90.5t-87.5 -40.5zM190 -290q28 0 48.5 9.5t20.5 43.5q0 35 -20.5 57.5t-48.5 22.5t-47.5 -22.5t-19.5 -57.5q0 -37 19.5 -45t47.5 -8z" />
    <glyph glyph-name="uni0620.medi" unicode="&#x620;" horiz-adv-x="440" 
d="M0 0q-21 0 -36.5 34t-15.5 81t15.5 81t36.5 34h5q78 0 124 14.5t73 52t47 106.5l17 -3q-5 -26 -5 -49q0 -71 44.5 -96t129.5 -25h5q22 0 41 -34t19 -81t-18.5 -81t-41.5 -34h-22q-104 0 -156.5 37.5t-89.5 128.5l65 -11q-39 -67 -93 -111t-124 -44h-20zM194 -375
q-66 0 -86.5 40.5t-20.5 90.5q0 31 12 65t36 58.5t59 24.5q36 0 60 -24.5t36.5 -58.5t12.5 -65q0 -50 -21.5 -90.5t-87.5 -40.5zM194 -290q28 0 48.5 9.5t20.5 43.5q0 35 -20.5 57.5t-48.5 22.5t-47.5 -22.5t-19.5 -57.5q0 -37 19.5 -45t47.5 -8z" />
    <glyph glyph-name="uni0620.fina" unicode="&#x620;" horiz-adv-x="943" 
d="M884 -174q0 -89 -51.5 -164t-139 -130t-198.5 -85t-230 -30l-225 155l5 34q40 -12 94 -17t115 -5q92 0 193 12.5t188.5 36.5t142 58.5t54.5 79.5q0 17 -31 16.5t-77 -3.5t-92 4t-77 36.5t-31 96.5q0 42 20.5 94.5t62 101.5t104.5 81t148 32h84q26 0 37 -40t11 -75
t-10 -75t-38 -40h-232q-89 0 -115 -9.5t-26 -20.5q0 -19 31.5 -21.5t78.5 -1t94 -5t78.5 -32.5t31.5 -84z" />
    <glyph glyph-name="uni0622.fina" unicode="&#x622;" horiz-adv-x="424" arabic-form="final" 
d="M424 0q-157 0 -223 115t-75 317l-26 552l83 109l18 -607q4 -124 50.5 -190t172.5 -66q29 0 44 -40t15 -75t-15 -75t-44 -40zM2 1432q84 -59 182 -59q103 0 227 66l15 -19q-46 -84 -125 -129t-162 -45q-87 0 -157 49l48 53q-9 -19 -30.5 -49.5t-46 -58t-44.5 -39.5l-15 11
q36 49 64 109t44 111z" />
    <glyph glyph-name="uni0623.fina" unicode="&#x623;" horiz-adv-x="424" arabic-form="final" 
d="M424 0q-157 0 -223 115t-75 317l-26 552l83 109l18 -607q4 -124 50.5 -190t172.5 -66q29 0 44 -40t15 -75t-15 -75t-44 -40zM96 1305q-45 23 -45 71q0 109 35 161t87 52q27 0 54.5 -14.5t43.5 -40.5l-13 -25q-13 4 -32 4q-47 0 -95 -21t-58 -58l4 23q7 -66 95 -66
q27 0 63 8zM348 1412l-60 -97q-55 0 -120.5 -12.5t-137.5 -77.5l-35 25q68 70 148 116t205 46z" />
    <glyph glyph-name="uni0625.fina" unicode="&#x625;" horiz-adv-x="424" arabic-form="final" 
d="M424 0q-157 0 -223 115t-75 317l-26 552l83 109l18 -607q4 -124 50.5 -190t172.5 -66q29 0 44 -40t15 -75t-15 -75t-44 -40zM168 -385q-45 23 -45 71q0 109 35 161t87 52q27 0 54.5 -14.5t43.5 -40.5l-13 -25q-13 4 -32 4q-47 0 -95 -21t-58 -58l4 23q7 -66 95 -66
q27 0 63 8zM420 -278l-60 -97q-55 0 -120.5 -12.5t-137.5 -77.5l-35 25q68 70 148 116t205 46z" />
    <glyph glyph-name="uni0627.fina" unicode="&#x627;" horiz-adv-x="424" arabic-form="final" 
d="M424 0q-157 0 -223 115t-75 317l-26 552l83 109l18 -607q4 -124 50.5 -190t172.5 -66q29 0 44 -40t15 -75t-15 -75t-44 -40z" />
    <glyph glyph-name="uni0628.init" unicode="&#x628;" horiz-adv-x="353" arabic-form="initial" 
d="M0 230h64q90 0 139.5 21t49.5 36q0 23 -23 48t-51 40l78 200q30 -44 43 -98t13 -109q0 -95 -34 -179t-95 -136.5t-142 -52.5h-42q-25 0 -37 41.5t-12 76.5t12 73.5t37 38.5zM199 -139q68 -46 111 -111l-111 -111q-42 62 -111 111z" />
    <glyph glyph-name="uni0628.medi" unicode="&#x628;" horiz-adv-x="440" arabic-form="medial" 
d="M0 0q-21 0 -36.5 34t-15.5 81t15.5 81t36.5 34h5q78 0 124 14.5t73 52t47 106.5l17 -3q-5 -26 -5 -49q0 -71 44.5 -96t129.5 -25h5q22 0 41 -34t19 -81t-18.5 -81t-41.5 -34h-22q-104 0 -156.5 37.5t-89.5 128.5l65 -11q-39 -67 -93 -111t-124 -44h-20zM203 -139
q68 -46 111 -111l-111 -111q-42 62 -111 111z" />
    <glyph glyph-name="uni0628.fina" unicode="&#x628;" horiz-adv-x="1175" arabic-form="final" 
d="M1027 403l15 -3q0 -91 30 -130.5t103 -39.5q29 0 43 -42.5t14 -77.5t-14 -72.5t-43 -37.5q-172 0 -191 163l7 -5q-70 -87 -204 -130t-294 -43q-129 0 -231.5 29.5t-162 92.5t-59.5 163q0 67 36.5 138.5t77.5 110.5l14 -7q-17 -29 -31 -69t-14 -74q0 -56 58.5 -89.5
t157.5 -49t218 -15.5q130 0 217 20.5t146.5 62.5t106.5 105zM498 -139q68 -46 111 -111l-111 -111q-42 62 -111 111z" />
    <glyph glyph-name="uni0629.fina" unicode="&#x629;" horiz-adv-x="657" arabic-form="final" 
d="M657 0q-92 0 -143.5 34.5t-79 110.5t-45.5 200t-43 303l62 80q14 -159 29.5 -257.5t40.5 -150.5t67.5 -71t111.5 -19q27 0 41.5 -40t14.5 -75q0 -37 -16.5 -76t-39.5 -39zM169 19q-19 0 -49.5 5t-55 19.5t-24.5 44.5q0 101 48 177.5t126.5 129t168.5 78.5l9 -75
q-46 -8 -93.5 -34t-79 -56t-31.5 -50q0 -22 64 -22q27 0 63 9.5t63 23.5t25 28l38 -120q-37 -82 -113 -120t-159 -38zM278 1089q68 -46 111 -111l-111 -111q-42 62 -111 111zM471 1089q68 -46 111 -111l-111 -111q-42 62 -111 111z" />
    <glyph glyph-name="uni062A.init" unicode="&#x62a;" horiz-adv-x="353" arabic-form="initial" 
d="M0 230h64q90 0 139.5 21t49.5 36q0 23 -23 48t-51 40l78 200q30 -44 43 -98t13 -109q0 -95 -34 -179t-95 -136.5t-142 -52.5h-42q-25 0 -37 41.5t-12 76.5t12 73.5t37 38.5zM97 894q68 -46 111 -111l-111 -111q-42 62 -111 111zM290 894q68 -46 111 -111l-111 -111
q-42 62 -111 111z" />
    <glyph glyph-name="uni062A.medi" unicode="&#x62a;" horiz-adv-x="440" arabic-form="medial" 
d="M0 0q-21 0 -36.5 34t-15.5 81t15.5 81t36.5 34h5q78 0 124 14.5t73 52t47 106.5l17 -3q-5 -26 -5 -49q0 -71 44.5 -96t129.5 -25h5q22 0 41 -34t19 -81t-18.5 -81t-41.5 -34h-22q-104 0 -156.5 37.5t-89.5 128.5l65 -11q-39 -67 -93 -111t-124 -44h-20zM116 736
q68 -46 111 -111l-111 -111q-42 62 -111 111zM309 736q68 -46 111 -111l-111 -111q-42 62 -111 111z" />
    <glyph glyph-name="uni062A.fina" unicode="&#x62a;" horiz-adv-x="1175" arabic-form="final" 
d="M1027 403l15 -3q0 -91 30 -130.5t103 -39.5q29 0 43 -42.5t14 -77.5t-14 -72.5t-43 -37.5q-172 0 -191 163l7 -5q-70 -87 -204 -130t-294 -43q-129 0 -231.5 29.5t-162 92.5t-59.5 163q0 67 36.5 138.5t77.5 110.5l14 -7q-17 -29 -31 -69t-14 -74q0 -56 58.5 -89.5
t157.5 -49t218 -15.5q130 0 217 20.5t146.5 62.5t106.5 105zM483 654q68 -46 111 -111l-111 -111q-42 62 -111 111zM676 654q68 -46 111 -111l-111 -111q-42 62 -111 111z" />
    <glyph glyph-name="uni062B.init" unicode="&#x62b;" horiz-adv-x="353" arabic-form="initial" 
d="M0 230h64q90 0 139.5 21t49.5 36q0 23 -23 48t-51 40l78 200q30 -44 43 -98t13 -109q0 -95 -34 -179t-95 -136.5t-142 -52.5h-42q-25 0 -37 41.5t-12 76.5t12 73.5t37 38.5zM192 1103q68 -46 111 -111l-111 -111q-42 62 -111 111zM97 897q68 -46 111 -111l-111 -111
q-42 62 -111 111zM290 897q68 -46 111 -111l-111 -111q-42 62 -111 111z" />
    <glyph glyph-name="uni062B.medi" unicode="&#x62b;" horiz-adv-x="440" arabic-form="medial" 
d="M0 0q-21 0 -36.5 34t-15.5 81t15.5 81t36.5 34h5q78 0 124 14.5t73 52t47 106.5l17 -3q-5 -26 -5 -49q0 -71 44.5 -96t129.5 -25h5q22 0 41 -34t19 -81t-18.5 -81t-41.5 -34h-22q-104 0 -156.5 37.5t-89.5 128.5l65 -11q-39 -67 -93 -111t-124 -44h-20zM211 944
q68 -46 111 -111l-111 -111q-42 62 -111 111zM116 739q68 -46 111 -111l-111 -111q-42 62 -111 111zM309 739q68 -46 111 -111l-111 -111q-42 62 -111 111z" />
    <glyph glyph-name="uni062B.fina" unicode="&#x62b;" horiz-adv-x="1175" arabic-form="final" 
d="M1027 403l15 -3q0 -91 30 -130.5t103 -39.5q29 0 43 -42.5t14 -77.5t-14 -72.5t-43 -37.5q-172 0 -191 163l7 -5q-70 -87 -204 -130t-294 -43q-129 0 -231.5 29.5t-162 92.5t-59.5 163q0 67 36.5 138.5t77.5 110.5l14 -7q-17 -29 -31 -69t-14 -74q0 -56 58.5 -89.5
t157.5 -49t218 -15.5q130 0 217 20.5t146.5 62.5t106.5 105zM578 863q68 -46 111 -111l-111 -111q-42 62 -111 111zM483 657q68 -46 111 -111l-111 -111q-42 62 -111 111zM676 657q68 -46 111 -111l-111 -111q-42 62 -111 111z" />
    <glyph glyph-name="uni062C.init" unicode="&#x62c;" horiz-adv-x="845" arabic-form="initial" 
d="M5 0q-30 0 -40.5 34t-10.5 81t12 81t34 34q108 0 182 21t132.5 52t118 62t137.5 52t192 21l-32 -151q-95 0 -166 24t-128.5 55.5t-109 55.5t-105.5 24q-50 0 -87.5 -20t-74.5 -60l-19 7q17 109 74.5 188t148.5 79q62 0 112 -23t105.5 -53t131.5 -52.5t191 -22.5l-48 -219
q-113 -1 -189 -28t-134 -67t-114.5 -80.5t-130 -67.5t-182.5 -27zM337 -69q68 -46 111 -111l-111 -111q-42 62 -111 111z" />
    <glyph glyph-name="uni062C.medi" unicode="&#x62c;" horiz-adv-x="867" arabic-form="medial" 
d="M5 0q-30 0 -43 34t-13 81t12.5 81t38.5 34q104 0 178 17t135.5 45.5t126 62.5t148 69.5t203.5 65.5l-42 -163q-108 -12 -184 4.5t-133.5 43.5t-107 49t-103.5 22q-50 0 -87.5 -20t-74.5 -60l-19 7q17 109 74.5 188t148.5 79q62 0 114.5 -22t111.5 -48t139.5 -41t199.5 -2
l-55 -219q-107 -27 -183 -66t-137.5 -81t-123 -78.5t-138.5 -59.5t-186 -23zM867 0q-141 0 -198.5 81.5t-66.5 245.5l45 12q6 -54 26.5 -77t66 -27.5t127.5 -4.5q30 0 41.5 -40t11.5 -75t-11.5 -75t-41.5 -40zM367 -69q68 -46 111 -111l-111 -111q-42 62 -111 111z" />
    <glyph glyph-name="uni062C.fina" unicode="&#x62c;" horiz-adv-x="889" arabic-form="final" 
d="M549 398q0 -94 60.5 -131t145.5 -37h134q32 0 47 -40t15 -75t-15 -75t-47 -40h-114q-99 0 -159 54t-87 144.5t-27 199.5h47zM623 -724q-198 0 -327.5 81t-192.5 210.5t-63 275.5q0 152 75.5 297.5t264.5 263.5l2 -7q-30 3 -62 12t-66 9q-68 0 -114.5 -42t-64.5 -72l-15 6
q5 69 35 142t85.5 123t139.5 50q49 0 100.5 -15.5t115 -30.5t148.5 -15q68 0 135 6l-92 -216q-29 4 -66 4q-103 0 -201 -36.5t-177 -102t-125.5 -153.5t-46.5 -190q0 -138 71.5 -219.5t200 -116.5t297.5 -35h223v-26zM434 -51q68 -46 111 -111l-111 -111q-42 62 -111 111z
" />
    <glyph glyph-name="uni062D.init" unicode="&#x62d;" horiz-adv-x="845" arabic-form="initial" 
d="M5 0q-30 0 -40.5 34t-10.5 81t12 81t34 34q108 0 182 21t132.5 52t118 62t137.5 52t192 21l-32 -151q-95 0 -166 24t-128.5 55.5t-109 55.5t-105.5 24q-50 0 -87.5 -20t-74.5 -60l-19 7q17 109 74.5 188t148.5 79q62 0 112 -23t105.5 -53t131.5 -52.5t191 -22.5l-48 -219
q-113 -1 -189 -28t-134 -67t-114.5 -80.5t-130 -67.5t-182.5 -27z" />
    <glyph glyph-name="uni062D.medi" unicode="&#x62d;" horiz-adv-x="867" arabic-form="medial" 
d="M5 0q-30 0 -43 34t-13 81t12.5 81t38.5 34q104 0 178 17t135.5 45.5t126 62.5t148 69.5t203.5 65.5l-42 -163q-108 -12 -184 4.5t-133.5 43.5t-107 49t-103.5 22q-50 0 -87.5 -20t-74.5 -60l-19 7q17 109 74.5 188t148.5 79q62 0 114.5 -22t111.5 -48t139.5 -41t199.5 -2
l-55 -219q-107 -27 -183 -66t-137.5 -81t-123 -78.5t-138.5 -59.5t-186 -23zM867 0q-141 0 -198.5 81.5t-66.5 245.5l45 12q6 -54 26.5 -77t66 -27.5t127.5 -4.5q30 0 41.5 -40t11.5 -75t-11.5 -75t-41.5 -40z" />
    <glyph glyph-name="uni062D.fina" unicode="&#x62d;" horiz-adv-x="889" arabic-form="final" 
d="M549 398q0 -94 60.5 -131t145.5 -37h134q32 0 47 -40t15 -75t-15 -75t-47 -40h-114q-99 0 -159 54t-87 144.5t-27 199.5h47zM623 -724q-198 0 -327.5 81t-192.5 210.5t-63 275.5q0 152 75.5 297.5t264.5 263.5l2 -7q-30 3 -62 12t-66 9q-68 0 -114.5 -42t-64.5 -72l-15 6
q5 69 35 142t85.5 123t139.5 50q49 0 100.5 -15.5t115 -30.5t148.5 -15q68 0 135 6l-92 -216q-29 4 -66 4q-103 0 -201 -36.5t-177 -102t-125.5 -153.5t-46.5 -190q0 -138 71.5 -219.5t200 -116.5t297.5 -35h223v-26z" />
    <glyph glyph-name="uni062E.init" unicode="&#x62e;" horiz-adv-x="845" arabic-form="initial" 
d="M5 0q-30 0 -40.5 34t-10.5 81t12 81t34 34q108 0 182 21t132.5 52t118 62t137.5 52t192 21l-32 -151q-95 0 -166 24t-128.5 55.5t-109 55.5t-105.5 24q-50 0 -87.5 -20t-74.5 -60l-19 7q17 109 74.5 188t148.5 79q62 0 112 -23t105.5 -53t131.5 -52.5t191 -22.5l-48 -219
q-113 -1 -189 -28t-134 -67t-114.5 -80.5t-130 -67.5t-182.5 -27zM463 987q68 -46 111 -111l-111 -111q-42 62 -111 111z" />
    <glyph glyph-name="uni062E.medi" unicode="&#x62e;" horiz-adv-x="867" arabic-form="medial" 
d="M5 0q-30 0 -43 34t-13 81t12.5 81t38.5 34q104 0 178 17t135.5 45.5t126 62.5t148 69.5t203.5 65.5l-42 -163q-108 -12 -184 4.5t-133.5 43.5t-107 49t-103.5 22q-50 0 -87.5 -20t-74.5 -60l-19 7q17 109 74.5 188t148.5 79q62 0 114.5 -22t111.5 -48t139.5 -41t199.5 -2
l-55 -219q-107 -27 -183 -66t-137.5 -81t-123 -78.5t-138.5 -59.5t-186 -23zM867 0q-141 0 -198.5 81.5t-66.5 245.5l45 12q6 -54 26.5 -77t66 -27.5t127.5 -4.5q30 0 41.5 -40t11.5 -75t-11.5 -75t-41.5 -40zM463 987q68 -46 111 -111l-111 -111q-42 62 -111 111z" />
    <glyph glyph-name="uni062E.fina" unicode="&#x62e;" horiz-adv-x="889" arabic-form="final" 
d="M549 398q0 -94 60.5 -131t145.5 -37h134q32 0 47 -40t15 -75t-15 -75t-47 -40h-114q-99 0 -159 54t-87 144.5t-27 199.5h47zM623 -724q-198 0 -327.5 81t-192.5 210.5t-63 275.5q0 152 75.5 297.5t264.5 263.5l2 -7q-30 3 -62 12t-66 9q-68 0 -114.5 -42t-64.5 -72l-15 6
q5 69 35 142t85.5 123t139.5 50q49 0 100.5 -15.5t115 -30.5t148.5 -15q68 0 135 6l-92 -216q-29 4 -66 4q-103 0 -201 -36.5t-177 -102t-125.5 -153.5t-46.5 -190q0 -138 71.5 -219.5t200 -116.5t297.5 -35h223v-26zM486 950q68 -46 111 -111l-111 -111q-42 62 -111 111z
" />
    <glyph glyph-name="uni062F.fina" unicode="&#x62f;" horiz-adv-x="644" arabic-form="final" 
d="M618 0q-53 0 -94.5 28t-79 101t-77.5 207.5t-91 347.5l75 86l93 -426q17 -80 60 -97t140 -17q27 0 40.5 -40t13.5 -75t-13.5 -75t-40.5 -40h-26zM173 -15q-91 0 -133 48l21 226q24 -29 63.5 -40t97.5 -11q70 0 115.5 32.5t33.5 79.5l72 -30q0 -135 -76 -220t-194 -85z
" />
    <glyph glyph-name="uni0630.fina" unicode="&#x630;" horiz-adv-x="644" arabic-form="final" 
d="M618 0q-53 0 -94.5 28t-79 101t-77.5 207.5t-91 347.5l75 86l93 -426q17 -80 60 -97t140 -17q27 0 40.5 -40t13.5 -75t-13.5 -75t-40.5 -40h-26zM173 -15q-91 0 -133 48l21 226q24 -29 63.5 -40t97.5 -11q70 0 115.5 32.5t33.5 79.5l72 -30q0 -135 -76 -220t-194 -85z
M349 1114q68 -46 111 -111l-111 -111q-42 62 -111 111z" />
    <glyph glyph-name="uni0631.fina" unicode="&#x631;" horiz-adv-x="542" arabic-form="final" 
d="M-114 -272l7 14q12 -3 25.5 -5t33.5 -2q83 0 164 27t147 68t105 85t39 79q0 26 -45.5 67t-92.5 65l54 221q72 -40 100.5 -124t28.5 -161q0 -81 -21 -162t-60 -147.5t-94 -107t-123 -40.5q-63 0 -139 36t-129 87zM542 230q31 0 46.5 -40t15.5 -75t-15.5 -75t-46.5 -40
q-48 0 -88 21.5t-69 51.5v221q36 -41 76.5 -52.5t80.5 -11.5z" />
    <glyph glyph-name="uni0632.fina" unicode="&#x632;" horiz-adv-x="542" arabic-form="final" 
d="M-114 -272l7 14q12 -3 25.5 -5t33.5 -2q83 0 164 27t147 68t105 85t39 79q0 26 -45.5 67t-92.5 65l54 221q72 -40 100.5 -124t28.5 -161q0 -81 -21 -162t-60 -147.5t-94 -107t-123 -40.5q-63 0 -139 36t-129 87zM542 230q31 0 46.5 -40t15.5 -75t-15.5 -75t-46.5 -40
q-48 0 -88 21.5t-69 51.5v221q36 -41 76.5 -52.5t80.5 -11.5zM323 691q68 -46 111 -111l-111 -111q-42 62 -111 111z" />
    <glyph glyph-name="uni0633.init" unicode="&#x633;" horiz-adv-x="868" arabic-form="initial" 
d="M0 0q-25 0 -37.5 39.5t-12.5 74.5t12.5 75.5t37.5 40.5q74 0 109.5 13.5t56 46t50.5 89.5h15q-25 -74 20.5 -111.5t118.5 -37.5q48 0 89.5 30.5t69 66.5t33.5 52h15q-14 -59 9 -87t61.5 -36t69.5 -8q15 0 36.5 7t21.5 20q0 17 -18 43t-35 32l84 162q9 -8 14 -38
t6.5 -60.5t1.5 -41.5q0 -27 -6 -84.5t-22 -119.5t-44.5 -106t-73.5 -44q-47 0 -86.5 26t-66.5 65l14 1q-84 -110 -185 -110q-67 0 -112 29.5t-71 55.5l12 5q-37 -55 -77.5 -72.5t-109.5 -17.5z" />
    <glyph glyph-name="uni0633.medi" unicode="&#x633;" horiz-adv-x="1032" arabic-form="medial" 
d="M1032 0q-103 0 -141 13.5t-63 59.5l9 4q-15 -26 -52 -51.5t-83 -25.5q-88 0 -121 68l9 -2q-21 -25 -64.5 -45.5t-118.5 -20.5q-53 0 -95 15t-76 62l10 2q-53 -49 -102 -64t-144 -15q-28 0 -37 31.5t-9 83.5q0 48 11 81.5t35 33.5q102 0 153.5 14.5t76.5 47t47 87.5h15
q-11 -55 7.5 -87.5t53.5 -47t73 -14.5q72 0 128 26.5t95 122.5h15q-16 -82 1 -115.5t72 -33.5q42 0 70 28t45 63.5t26 57.5h15q-14 -69 -8.5 -100.5t40 -40t107.5 -8.5q29 0 44 -35.5t15 -79.5q0 -48 -13.5 -81.5t-45.5 -33.5z" />
    <glyph glyph-name="uni0633.fina" unicode="&#x633;" horiz-adv-x="1471" arabic-form="final" 
d="M1151 0q-44 0 -87 25t-63 58l93 194q23 -44 82 -44q46 0 75 27t45 62t24 57h15q-15 -71 -9.5 -102.5t40 -39t105.5 -7.5q28 0 43 -35.5t15 -79.5q0 -48 -13 -81.5t-45 -33.5q-87 0 -136.5 11.5t-76.5 57.5l9 3q-15 -24 -46.5 -48t-69.5 -24zM879 -15q-25 0 -72.5 12
t-72.5 29l-24 242q41 -32 73 -42.5t89 -10.5q55 0 105 27t84 72t42 98l18 -6q0 -53 -15 -124t-45 -139t-75.5 -113t-106.5 -45zM706 365q38 -77 54 -157.5t16 -149.5q0 -123 -55 -234t-155 -180.5t-235 -69.5q-89 0 -154.5 43t-101 116t-35.5 164q0 64 16 127t39 114.5
t44 79.5l18 -9q-18 -45 -30.5 -94t-12.5 -100q0 -120 76.5 -165.5t185.5 -45.5q55 0 124.5 13.5t131 44t90.5 79.5l-5 -20q1 69 -29.5 138t-84.5 132z" />
    <glyph glyph-name="uni0634.init" unicode="&#x634;" horiz-adv-x="868" arabic-form="initial" 
d="M0 0q-25 0 -37.5 39.5t-12.5 74.5t12.5 75.5t37.5 40.5q74 0 109.5 13.5t56 46t50.5 89.5h15q-25 -74 20.5 -111.5t118.5 -37.5q48 0 89.5 30.5t69 66.5t33.5 52h15q-14 -59 9 -87t61.5 -36t69.5 -8q15 0 36.5 7t21.5 20q0 17 -18 43t-35 32l84 162q9 -8 14 -38
t6.5 -60.5t1.5 -41.5q0 -27 -6 -84.5t-22 -119.5t-44.5 -106t-73.5 -44q-47 0 -86.5 26t-66.5 65l14 1q-84 -110 -185 -110q-67 0 -112 29.5t-71 55.5l12 5q-37 -55 -77.5 -72.5t-109.5 -17.5zM485 953q68 -46 111 -111l-111 -111q-42 62 -111 111zM390 747q68 -46 111 -111
l-111 -111q-42 62 -111 111zM583 747q68 -46 111 -111l-111 -111q-42 62 -111 111z" />
    <glyph glyph-name="uni0634.medi" unicode="&#x634;" horiz-adv-x="1032" arabic-form="medial" 
d="M1032 0q-103 0 -141 13.5t-63 59.5l9 4q-15 -26 -52 -51.5t-83 -25.5q-88 0 -121 68l9 -2q-21 -25 -64.5 -45.5t-118.5 -20.5q-53 0 -95 15t-76 62l10 2q-53 -49 -102 -64t-144 -15q-28 0 -37 31.5t-9 83.5q0 48 11 81.5t35 33.5q102 0 153.5 14.5t76.5 47t47 87.5h15
q-11 -55 7.5 -87.5t53.5 -47t73 -14.5q72 0 128 26.5t95 122.5h15q-16 -82 1 -115.5t72 -33.5q42 0 70 28t45 63.5t26 57.5h15q-14 -69 -8.5 -100.5t40 -40t107.5 -8.5q29 0 44 -35.5t15 -79.5q0 -48 -13.5 -81.5t-45.5 -33.5zM585 953q68 -46 111 -111l-111 -111
q-42 62 -111 111zM490 747q68 -46 111 -111l-111 -111q-42 62 -111 111zM683 747q68 -46 111 -111l-111 -111q-42 62 -111 111z" />
    <glyph glyph-name="uni0634.fina" unicode="&#x634;" horiz-adv-x="1471" arabic-form="final" 
d="M1151 0q-44 0 -87 25t-63 58l93 194q23 -44 82 -44q46 0 75 27t45 62t24 57h15q-15 -71 -9.5 -102.5t40 -39t105.5 -7.5q28 0 43 -35.5t15 -79.5q0 -48 -13 -81.5t-45 -33.5q-87 0 -136.5 11.5t-76.5 57.5l9 3q-15 -24 -46.5 -48t-69.5 -24zM879 -15q-25 0 -72.5 12
t-72.5 29l-24 242q41 -32 73 -42.5t89 -10.5q55 0 105 27t84 72t42 98l18 -6q0 -53 -15 -124t-45 -139t-75.5 -113t-106.5 -45zM706 365q38 -77 54 -157.5t16 -149.5q0 -123 -55 -234t-155 -180.5t-235 -69.5q-89 0 -154.5 43t-101 116t-35.5 164q0 64 16 127t39 114.5
t44 79.5l18 -9q-18 -45 -30.5 -94t-12.5 -100q0 -120 76.5 -165.5t185.5 -45.5q55 0 124.5 13.5t131 44t90.5 79.5l-5 -20q1 69 -29.5 138t-84.5 132zM1018 953q68 -46 111 -111l-111 -111q-42 62 -111 111zM923 747q68 -46 111 -111l-111 -111q-42 62 -111 111zM1116 747
q68 -46 111 -111l-111 -111q-42 62 -111 111z" />
    <glyph glyph-name="uni0635.init" unicode="&#x635;" horiz-adv-x="1207" arabic-form="initial" 
d="M430 215l31 -230q-127 0 -202 33.5t-98 92.5l12 10q-35 -69 -69.5 -95t-93.5 -26h-15q-25 0 -37 41.5t-12 76.5t12 73.5t37 38.5h5q77 0 114.5 41t55.5 108h15q14 -103 79.5 -133.5t165.5 -30.5zM982 620q98 0 141.5 -49.5t43.5 -120.5q0 -92 -62 -175.5t-165 -149
t-228.5 -103t-252.5 -37.5l-31 230q117 0 227.5 7t198 21t139 36.5t51.5 53.5q0 41 -43.5 73.5t-126.5 32.5q-25 0 -76.5 -22t-115.5 -58.5t-125 -81t-104 -90.5l-62 5q71 76 148.5 152t155.5 138.5t151.5 100t135.5 37.5z" />
    <glyph glyph-name="uni0635.medi" unicode="&#x635;" horiz-adv-x="1207" arabic-form="medial" 
d="M430 215l31 -230q-127 0 -202 33.5t-98 92.5l12 10q-35 -69 -69.5 -95t-93.5 -26h-15q-25 0 -37 41.5t-12 76.5t12 73.5t37 38.5h5q77 0 114.5 41t55.5 108h15q14 -103 79.5 -133.5t165.5 -30.5zM982 620q98 0 141.5 -49.5t43.5 -120.5q0 -92 -62 -175.5t-165 -149
t-228.5 -103t-252.5 -37.5l-31 230q117 0 227.5 7t198 21t139 36.5t51.5 53.5q0 41 -43.5 73.5t-126.5 32.5q-25 0 -76.5 -22t-115.5 -58.5t-125 -81t-104 -90.5l-62 5q71 76 148.5 152t155.5 138.5t151.5 100t135.5 37.5zM1020 240q39 -3 90.5 -6.5t97.5 -3.5
q16 0 27 -36.5t11 -78.5q0 -45 -11.5 -80t-26.5 -35q-132 0 -219.5 18.5t-180.5 72.5z" />
    <glyph glyph-name="uni0635.fina" unicode="&#x635;" horiz-adv-x="1642" arabic-form="final" 
d="M864 189l32 -230q-52 0 -84 5.5t-63 20.5l-31 249q32 -24 63 -34.5t83 -10.5zM706 366q38 -76 54 -156.5t16 -150.5q0 -123 -55 -233.5t-155 -180.5t-235 -70q-89 0 -154.5 43t-101 116.5t-35.5 163.5q0 64 16 127.5t39 115t44 78.5l18 -9q-18 -45 -30.5 -94t-12.5 -100
q0 -119 76.5 -165t185.5 -46q55 0 124.5 14t131 44t90.5 79l-5 -20q1 70 -29.5 138.5t-84.5 131.5zM1417 594q98 0 141.5 -49.5t43.5 -120.5q0 -92 -62 -176t-165 -149t-228.5 -102.5t-252.5 -37.5l-32 230q118 0 228.5 6.5t198 21t139 36.5t51.5 54q0 40 -44 73t-126 33
q-25 0 -77 -22t-115.5 -58.5t-124.5 -81.5t-105 -90l-61 4q70 77 147.5 152.5t156 138t151.5 100.5t136 38zM1454 240q39 -3 90.5 -6.5t97.5 -3.5q16 0 27 -36.5t11 -78.5q0 -45 -11.5 -80t-26.5 -35q-132 0 -219.5 18.5t-180.5 72.5z" />
    <glyph glyph-name="uni0636.init" unicode="&#x636;" horiz-adv-x="1207" arabic-form="initial" 
d="M430 215l31 -230q-127 0 -202 33.5t-98 92.5l12 10q-35 -69 -69.5 -95t-93.5 -26h-15q-25 0 -37 41.5t-12 76.5t12 73.5t37 38.5h5q77 0 114.5 41t55.5 108h15q14 -103 79.5 -133.5t165.5 -30.5zM982 620q98 0 141.5 -49.5t43.5 -120.5q0 -92 -62 -175.5t-165 -149
t-228.5 -103t-252.5 -37.5l-31 230q117 0 227.5 7t198 21t139 36.5t51.5 53.5q0 41 -43.5 73.5t-126.5 32.5q-25 0 -76.5 -22t-115.5 -58.5t-125 -81t-104 -90.5l-62 5q71 76 148.5 152t155.5 138.5t151.5 100t135.5 37.5zM540 809q68 -46 111 -111l-111 -111
q-42 62 -111 111z" />
    <glyph glyph-name="uni0636.medi" unicode="&#x636;" horiz-adv-x="1207" arabic-form="medial" 
d="M430 215l31 -230q-127 0 -202 33.5t-98 92.5l12 10q-35 -69 -69.5 -95t-93.5 -26h-15q-25 0 -37 41.5t-12 76.5t12 73.5t37 38.5h5q77 0 114.5 41t55.5 108h15q14 -103 79.5 -133.5t165.5 -30.5zM982 620q98 0 141.5 -49.5t43.5 -120.5q0 -92 -62 -175.5t-165 -149
t-228.5 -103t-252.5 -37.5l-31 230q117 0 227.5 7t198 21t139 36.5t51.5 53.5q0 41 -43.5 73.5t-126.5 32.5q-25 0 -76.5 -22t-115.5 -58.5t-125 -81t-104 -90.5l-62 5q71 76 148.5 152t155.5 138.5t151.5 100t135.5 37.5zM1020 240q39 -3 90.5 -6.5t97.5 -3.5
q16 0 27 -36.5t11 -78.5q0 -45 -11.5 -80t-26.5 -35q-132 0 -219.5 18.5t-180.5 72.5zM537 809q68 -46 111 -111l-111 -111q-42 62 -111 111z" />
    <glyph glyph-name="uni0636.fina" unicode="&#x636;" horiz-adv-x="1642" arabic-form="final" 
d="M864 189l32 -230q-52 0 -84 5.5t-63 20.5l-31 249q32 -24 63 -34.5t83 -10.5zM706 366q38 -76 54 -156.5t16 -150.5q0 -123 -55 -233.5t-155 -180.5t-235 -70q-89 0 -154.5 43t-101 116.5t-35.5 163.5q0 64 16 127.5t39 115t44 78.5l18 -9q-18 -45 -30.5 -94t-12.5 -100
q0 -119 76.5 -165t185.5 -46q55 0 124.5 14t131 44t90.5 79l-5 -20q1 70 -29.5 138.5t-84.5 131.5zM1417 594q98 0 141.5 -49.5t43.5 -120.5q0 -92 -62 -176t-165 -149t-228.5 -102.5t-252.5 -37.5l-32 230q118 0 228.5 6.5t198 21t139 36.5t51.5 54q0 40 -44 73t-126 33
q-25 0 -77 -22t-115.5 -58.5t-124.5 -81.5t-105 -90l-61 4q70 77 147.5 152.5t156 138t151.5 100.5t136 38zM1454 240q39 -3 90.5 -6.5t97.5 -3.5q16 0 27 -36.5t11 -78.5q0 -45 -11.5 -80t-26.5 -35q-132 0 -219.5 18.5t-180.5 72.5zM1007 809q68 -46 111 -111l-111 -111
q-42 62 -111 111z" />
    <glyph glyph-name="uni0637.init" unicode="&#x637;" horiz-adv-x="860" arabic-form="initial" 
d="M0 0q-29 0 -42 33.5t-13 81.5q0 47 13.5 81t41.5 34h83l32 -230h-115zM190 1207l18 -10q-38 -76 -14 -128t118 -80l-69 -168q-186 73 -186 163q0 32 23.5 77.5t55 86t54.5 59.5zM635 635q98 0 141.5 -49.5t43.5 -120.5q0 -92 -62 -175.5t-165 -149t-228.5 -103
t-252.5 -37.5l-31 230q117 0 227.5 7t198 21t139 36.5t51.5 53.5q0 41 -43.5 73.5t-126.5 32.5q-25 0 -76.5 -22t-115.5 -58.5t-125 -81t-104 -90.5l-62 5q71 76 148.5 152t155.5 138.5t151.5 100t135.5 37.5zM151 273q1 168 -4.5 335t-19.5 335q23 -14 46.5 -27.5
t47.5 -26.5q15 -277 0 -555q-35 -31 -70 -61z" />
    <glyph glyph-name="uni0637.medi" unicode="&#x637;" horiz-adv-x="860" arabic-form="medial" 
d="M0 0q-29 0 -42 33.5t-13 81.5q0 47 13.5 81t41.5 34h83l32 -230h-115zM190 1207l18 -10q-38 -76 -14 -128t118 -80l-69 -168q-186 73 -186 163q0 32 23.5 77.5t55 86t54.5 59.5zM635 635q98 0 141.5 -49.5t43.5 -120.5q0 -92 -62 -175.5t-165 -149t-228.5 -103
t-252.5 -37.5l-31 230q117 0 227.5 7t198 21t139 36.5t51.5 53.5q0 41 -43.5 73.5t-126.5 32.5q-25 0 -76.5 -22t-115.5 -58.5t-125 -81t-104 -90.5l-62 5q71 76 148.5 152t155.5 138.5t151.5 100t135.5 37.5zM151 273q1 168 -4.5 335t-19.5 335q23 -14 46.5 -27.5
t47.5 -26.5q15 -277 0 -555q-35 -31 -70 -61zM672 240q39 -3 90.5 -6.5t97.5 -3.5q16 0 27 -36.5t11 -78.5q0 -45 -11.5 -80t-26.5 -35q-132 0 -219.5 18.5t-180.5 72.5z" />
    <glyph glyph-name="uni0637.fina" unicode="&#x637;" horiz-adv-x="1181" arabic-form="final" 
d="M435 -27q-120 0 -207.5 40t-146.5 102t-94 128l6 14q90 -29 201 -41.5t209 -12.5zM521 1207l18 -10q-37 -76 -13.5 -128t117.5 -80l-68 -168q-187 73 -187 163q0 32 24 77.5t55.5 86t53.5 59.5zM956 608q98 0 141.5 -49.5t43.5 -120.5q0 -92 -62 -176t-165 -149
t-228.5 -102.5t-252.5 -37.5l-32 230q118 0 228.5 6.5t198 21t139 36.5t51.5 54q0 40 -44 73t-126 33q-25 0 -77 -22t-115.5 -58.5t-124.5 -81.5t-105 -90l-61 4q70 77 147.5 152.5t156 138t151.5 100.5t136 38zM477 268q2 168 -4 335t-19 335q23 -14 46.5 -27.5t46.5 -26.5
q15 -277 0 -555q-34 -31 -70 -61zM993 240q39 -3 90.5 -6.5t97.5 -3.5q16 0 27 -36.5t11 -78.5q0 -45 -11.5 -80t-26.5 -35q-132 0 -219.5 18.5t-180.5 72.5z" />
    <glyph glyph-name="uni0638.init" unicode="&#x638;" horiz-adv-x="860" arabic-form="initial" 
d="M0 0q-29 0 -42 33.5t-13 81.5q0 47 13.5 81t41.5 34h83l32 -230h-115zM190 1207l18 -10q-38 -76 -14 -128t118 -80l-69 -168q-186 73 -186 163q0 32 23.5 77.5t55 86t54.5 59.5zM635 635q98 0 141.5 -49.5t43.5 -120.5q0 -92 -62 -175.5t-165 -149t-228.5 -103
t-252.5 -37.5l-31 230q117 0 227.5 7t198 21t139 36.5t51.5 53.5q0 41 -43.5 73.5t-126.5 32.5q-25 0 -76.5 -22t-115.5 -58.5t-125 -81t-104 -90.5l-62 5q71 76 148.5 152t155.5 138.5t151.5 100t135.5 37.5zM151 273q1 168 -4.5 335t-19.5 335q23 -14 46.5 -27.5
t47.5 -26.5q15 -277 0 -555q-35 -31 -70 -61zM565 1014q68 -46 111 -111l-111 -111q-42 62 -111 111z" />
    <glyph glyph-name="uni0638.medi" unicode="&#x638;" horiz-adv-x="860" arabic-form="medial" 
d="M0 0q-29 0 -42 33.5t-13 81.5q0 47 13.5 81t41.5 34h83l32 -230h-115zM190 1207l18 -10q-38 -76 -14 -128t118 -80l-69 -168q-186 73 -186 163q0 32 23.5 77.5t55 86t54.5 59.5zM635 635q98 0 141.5 -49.5t43.5 -120.5q0 -92 -62 -175.5t-165 -149t-228.5 -103
t-252.5 -37.5l-31 230q117 0 227.5 7t198 21t139 36.5t51.5 53.5q0 41 -43.5 73.5t-126.5 32.5q-25 0 -76.5 -22t-115.5 -58.5t-125 -81t-104 -90.5l-62 5q71 76 148.5 152t155.5 138.5t151.5 100t135.5 37.5zM151 273q1 168 -4.5 335t-19.5 335q23 -14 46.5 -27.5
t47.5 -26.5q15 -277 0 -555q-35 -31 -70 -61zM672 240q39 -3 90.5 -6.5t97.5 -3.5q16 0 27 -36.5t11 -78.5q0 -45 -11.5 -80t-26.5 -35q-132 0 -219.5 18.5t-180.5 72.5zM565 1014q68 -46 111 -111l-111 -111q-42 62 -111 111z" />
    <glyph glyph-name="uni0638.fina" unicode="&#x638;" horiz-adv-x="1181" arabic-form="final" 
d="M435 -27q-120 0 -207.5 40t-146.5 102t-94 128l6 14q90 -29 201 -41.5t209 -12.5zM521 1207l18 -10q-37 -76 -13.5 -128t117.5 -80l-68 -168q-187 73 -187 163q0 32 24 77.5t55.5 86t53.5 59.5zM956 608q98 0 141.5 -49.5t43.5 -120.5q0 -92 -62 -176t-165 -149
t-228.5 -102.5t-252.5 -37.5l-32 230q118 0 228.5 6.5t198 21t139 36.5t51.5 54q0 40 -44 73t-126 33q-25 0 -77 -22t-115.5 -58.5t-124.5 -81.5t-105 -90l-61 4q70 77 147.5 152.5t156 138t151.5 100.5t136 38zM477 268q2 168 -4 335t-19 335q23 -14 46.5 -27.5t46.5 -26.5
q15 -277 0 -555q-34 -31 -70 -61zM993 240q39 -3 90.5 -6.5t97.5 -3.5q16 0 27 -36.5t11 -78.5q0 -45 -11.5 -80t-26.5 -35q-132 0 -219.5 18.5t-180.5 72.5zM886 989q68 -46 111 -111l-111 -111q-42 62 -111 111z" />
    <glyph glyph-name="uni0639.init" unicode="&#x639;" horiz-adv-x="782" arabic-form="initial" 
d="M0 0q-23 0 -34.5 40t-11.5 75t11.5 75t34.5 40q109 0 212 9.5t228.5 37.5t301.5 82l-71 -195q-79 -41 -187.5 -79t-232.5 -61.5t-251 -23.5zM232 178q-34 32 -50 88.5t-16 92.5q0 54 16.5 118t48.5 122t77.5 95.5t103.5 37.5q47 0 93.5 -29.5t80.5 -80t43 -113.5l-11 -10
q-39 20 -79.5 31.5t-93.5 11.5q-45 0 -93.5 -18.5t-82 -43t-33.5 -43.5q0 -25 39 -63t101 -68t132 -30z" />
    <glyph glyph-name="uni0639.medi" unicode="&#x639;" horiz-adv-x="709" arabic-form="medial" 
d="M109 353q1 90 40 144t99 78.5t124 24.5q85 0 154 -38.5t69 -106.5q0 -38 -30 -94.5t-85 -119t-129 -117.5t-163 -89.5t-188 -34.5q-27 0 -40 40t-13 75t13 75t40 40q137 0 253 19.5t160 74.5h71q35 -49 89 -71.5t136 -22.5q30 0 45 -40t15 -75t-15 -75t-45 -40
q-101 0 -167.5 35.5t-114.5 88.5t-91.5 105.5t-96 88t-130.5 35.5z" />
    <glyph glyph-name="uni0639.fina" unicode="&#x639;" horiz-adv-x="778" arabic-form="final" 
d="M578 -700q-277 -3 -407.5 118.5t-130.5 338.5q0 96 28 199.5t82.5 193t133.5 141.5v-24q-22 19 -57.5 30t-100.5 13q-3 79 33 135t97.5 85.5t133.5 29.5q99 0 161 -35t62 -101q0 -49 -36 -83t-92.5 -64t-120 -67t-120 -90t-92.5 -132.5t-36 -197.5q0 -93 43.5 -146
t117.5 -77t166.5 -30.5t191.5 -6.5h258v-26zM778 0q-169 0 -282 69.5t-211 207.5l123 51q59 -61 147 -79.5t223 -18.5q26 0 43.5 -26.5t17.5 -88.5q0 -47 -17.5 -81t-43.5 -34z" />
    <glyph glyph-name="uni063A.init" unicode="&#x63a;" horiz-adv-x="782" arabic-form="initial" 
d="M0 0q-23 0 -34.5 40t-11.5 75t11.5 75t34.5 40q109 0 212 9.5t228.5 37.5t301.5 82l-71 -195q-79 -41 -187.5 -79t-232.5 -61.5t-251 -23.5zM232 178q-34 32 -50 88.5t-16 92.5q0 54 16.5 118t48.5 122t77.5 95.5t103.5 37.5q47 0 93.5 -29.5t80.5 -80t43 -113.5l-11 -10
q-39 20 -79.5 31.5t-93.5 11.5q-45 0 -93.5 -18.5t-82 -43t-33.5 -43.5q0 -25 39 -63t101 -68t132 -30zM411 1073q68 -46 111 -111l-111 -111q-42 62 -111 111z" />
    <glyph glyph-name="uni063A.medi" unicode="&#x63a;" horiz-adv-x="709" arabic-form="medial" 
d="M109 353q1 90 40 144t99 78.5t124 24.5q85 0 154 -38.5t69 -106.5q0 -38 -30 -94.5t-85 -119t-129 -117.5t-163 -89.5t-188 -34.5q-27 0 -40 40t-13 75t13 75t40 40q137 0 253 19.5t160 74.5h71q35 -49 89 -71.5t136 -22.5q30 0 45 -40t15 -75t-15 -75t-45 -40
q-101 0 -167.5 35.5t-114.5 88.5t-91.5 105.5t-96 88t-130.5 35.5zM397 928q68 -46 111 -111l-111 -111q-42 62 -111 111z" />
    <glyph glyph-name="uni063A.fina" unicode="&#x63a;" horiz-adv-x="778" arabic-form="final" 
d="M578 -700q-277 -3 -407.5 118.5t-130.5 338.5q0 96 28 199.5t82.5 193t133.5 141.5v-24q-22 19 -57.5 30t-100.5 13q-3 79 33 135t97.5 85.5t133.5 29.5q99 0 161 -35t62 -101q0 -49 -36 -83t-92.5 -64t-120 -67t-120 -90t-92.5 -132.5t-36 -197.5q0 -93 43.5 -146
t117.5 -77t166.5 -30.5t191.5 -6.5h258v-26zM778 0q-169 0 -282 69.5t-211 207.5l123 51q59 -61 147 -79.5t223 -18.5q26 0 43.5 -26.5t17.5 -88.5q0 -47 -17.5 -81t-43.5 -34zM378 902q68 -46 111 -111l-111 -111q-42 62 -111 111z" />
    <glyph glyph-name="uni063B.init" unicode="&#x63b;" horiz-adv-x="633" 
d="M694 1095l-53 -202q-62 -23 -139 -56t-147.5 -68t-115.5 -65t-45 -47t27 -34.5t67.5 -42t81 -61t68 -92t27.5 -134.5q-1 -128 -93.5 -210.5t-276.5 -82.5h-95q-22 0 -38 34t-16 81t16 81t38 34h215q119 0 155.5 18.5t36.5 39.5q1 47 -34.5 87t-87.5 74t-104.5 64.5
t-88 59t-35.5 57.5q0 21 9 62.5t25 58.5q30 33 99.5 79t159 95.5t180.5 94t164 75.5zM17 1126q68 -46 111 -111l-111 -111q-42 62 -111 111zM210 1126q68 -46 111 -111l-111 -111q-42 62 -111 111z" />
    <glyph glyph-name="uni063B.medi" unicode="&#x63b;" horiz-adv-x="951" 
d="M694 1095l-53 -202q-62 -23 -139 -56t-147.5 -68t-115.5 -65t-45 -47t27 -34.5t67.5 -42t81 -61t68 -92t27.5 -134.5q-1 -128 -93.5 -210.5t-276.5 -82.5h-95q-22 0 -38 34t-16 81t16 81t38 34h215q119 0 155.5 18.5t36.5 39.5q1 47 -34.5 87t-87.5 74t-104.5 64.5
t-88 59t-35.5 57.5q0 21 9 62.5t25 58.5q30 33 99.5 79t159 95.5t180.5 94t164 75.5zM256 601q119 -62 199 -117.5t138 -102t108.5 -80.5t109 -52.5t141.5 -18.5q25 0 40 -38.5t15 -77.5q0 -41 -15.5 -77.5t-39.5 -36.5q-97 0 -173.5 45t-141 111.5t-122.5 131.5t-118 105z
M17 1126q68 -46 111 -111l-111 -111q-42 62 -111 111zM210 1126q68 -46 111 -111l-111 -111q-42 62 -111 111z" />
    <glyph glyph-name="uni063B.fina" unicode="&#x63b;" horiz-adv-x="1544" 
d="M599 0h-310q-83 0 -138.5 36.5t-83 93.5t-27.5 118q0 64 30.5 144t91.5 141l13 -8q-19 -37 -27.5 -73t-8.5 -68q0 -69 45.5 -111.5t139.5 -42.5h278q18 0 27.5 -37.5t9.5 -69.5q0 -35 -10 -79t-30 -44zM1289 1095l-53 -202q-62 -23 -139 -56t-147.5 -68t-115.5 -65
t-45 -47t27 -34.5t67.5 -42t81 -61t68 -92t27.5 -134.5q-1 -128 -93.5 -210.5t-276.5 -82.5h-95q-22 0 -38 34t-16 81t16 81t38 34h215q119 0 155.5 18.5t36.5 39.5q1 47 -34.5 87t-87.5 74t-104.5 64.5t-88 59t-35.5 57.5q0 21 9 62.5t25 58.5q30 33 99.5 79t159 95.5
t180.5 94t164 75.5zM849 601q119 -62 199 -117.5t138 -102t108.5 -80.5t109 -52.5t141.5 -18.5q25 0 40 -38.5t15 -77.5q0 -41 -15.5 -77.5t-39.5 -36.5q-97 0 -173.5 45t-141 111.5t-122.5 131.5t-118 105zM612 1126q68 -46 111 -111l-111 -111q-42 62 -111 111zM805 1126
q68 -46 111 -111l-111 -111q-42 62 -111 111z" />
    <glyph glyph-name="uni063C.init" unicode="&#x63c;" horiz-adv-x="633" 
d="M694 1095l-53 -202q-62 -23 -139 -56t-147.5 -68t-115.5 -65t-45 -47t27 -34.5t67.5 -42t81 -61t68 -92t27.5 -134.5q-1 -128 -93.5 -210.5t-276.5 -82.5h-95q-22 0 -38 34t-16 81t16 81t38 34h215q119 0 155.5 18.5t36.5 39.5q1 47 -34.5 87t-87.5 74t-104.5 64.5
t-88 59t-35.5 57.5q0 21 9 62.5t25 58.5q30 33 99.5 79t159 95.5t180.5 94t164 75.5zM137 -328q68 -46 111 -111l-111 -111q-42 62 -111 111zM41 -123q68 -46 111 -111l-111 -111q-42 62 -111 111zM234 -123q68 -46 111 -111l-111 -111q-42 62 -111 111z" />
    <glyph glyph-name="uni063C.medi" unicode="&#x63c;" horiz-adv-x="951" 
d="M694 1095l-53 -202q-62 -23 -139 -56t-147.5 -68t-115.5 -65t-45 -47t27 -34.5t67.5 -42t81 -61t68 -92t27.5 -134.5q-1 -128 -93.5 -210.5t-276.5 -82.5h-95q-22 0 -38 34t-16 81t16 81t38 34h215q119 0 155.5 18.5t36.5 39.5q1 47 -34.5 87t-87.5 74t-104.5 64.5
t-88 59t-35.5 57.5q0 21 9 62.5t25 58.5q30 33 99.5 79t159 95.5t180.5 94t164 75.5zM256 601q119 -62 199 -117.5t138 -102t108.5 -80.5t109 -52.5t141.5 -18.5q25 0 40 -38.5t15 -77.5q0 -41 -15.5 -77.5t-39.5 -36.5q-97 0 -173.5 45t-141 111.5t-122.5 131.5t-118 105z
M176 -322q68 -46 111 -111l-111 -111q-42 62 -111 111zM80 -117q68 -46 111 -111l-111 -111q-42 62 -111 111zM273 -117q68 -46 111 -111l-111 -111q-42 62 -111 111z" />
    <glyph glyph-name="uni063C.fina" unicode="&#x63c;" horiz-adv-x="1544" 
d="M599 0h-310q-83 0 -138.5 36.5t-83 93.5t-27.5 118q0 64 30.5 144t91.5 141l13 -8q-19 -37 -27.5 -73t-8.5 -68q0 -69 45.5 -111.5t139.5 -42.5h278q18 0 27.5 -37.5t9.5 -69.5q0 -35 -10 -79t-30 -44zM1289 1095l-53 -202q-62 -23 -139 -56t-147.5 -68t-115.5 -65
t-45 -47t27 -34.5t67.5 -42t81 -61t68 -92t27.5 -134.5q-1 -128 -93.5 -210.5t-276.5 -82.5h-95q-22 0 -38 34t-16 81t16 81t38 34h215q119 0 155.5 18.5t36.5 39.5q1 47 -34.5 87t-87.5 74t-104.5 64.5t-88 59t-35.5 57.5q0 21 9 62.5t25 58.5q30 33 99.5 79t159 95.5
t180.5 94t164 75.5zM849 601q119 -62 199 -117.5t138 -102t108.5 -80.5t109 -52.5t141.5 -18.5q25 0 40 -38.5t15 -77.5q0 -41 -15.5 -77.5t-39.5 -36.5q-97 0 -173.5 45t-141 111.5t-122.5 131.5t-118 105zM818 -328q68 -46 111 -111l-111 -111q-42 62 -111 111zM722 -123
q68 -46 111 -111l-111 -111q-42 62 -111 111zM915 -123q68 -46 111 -111l-111 -111q-42 62 -111 111z" />
    <glyph glyph-name="uni063D.init" unicode="&#x63d;" horiz-adv-x="353" 
d="M0 230h64q90 0 139.5 21t49.5 36q0 23 -23 48t-51 40l78 200q30 -44 43 -98t13 -109q0 -95 -34 -179t-95 -136.5t-142 -52.5h-42q-25 0 -37 41.5t-12 76.5t12 73.5t37 38.5zM358 721l-63 -49q-26 33 -54 67.5t-49 58t-27 23.5q-8 0 -48.5 -43.5t-79.5 -91.5l-29 23
q37 47 77.5 93t71.5 76t37 30q7 0 35.5 -31t64.5 -74.5t64 -81.5zM103 -139q68 -46 111 -111l-111 -111q-42 62 -111 111zM296 -139q68 -46 111 -111l-111 -111q-42 62 -111 111z" />
    <glyph glyph-name="uni063D.medi" unicode="&#x63d;" horiz-adv-x="440" 
d="M0 0q-21 0 -36.5 34t-15.5 81t15.5 81t36.5 34h5q78 0 124 14.5t73 52t47 106.5l17 -3q-5 -26 -5 -49q0 -71 44.5 -96t129.5 -25h5q22 0 41 -34t19 -81t-18.5 -81t-41.5 -34h-22q-104 0 -156.5 37.5t-89.5 128.5l65 -11q-39 -67 -93 -111t-124 -44h-20zM376 563l-63 -49
q-26 33 -54 67.5t-49 58t-27 23.5q-8 0 -48.5 -43.5t-79.5 -91.5l-29 23q37 47 77.5 93t71.5 76t37 30q7 0 35.5 -31t64.5 -74.5t64 -81.5zM107 -139q68 -46 111 -111l-111 -111q-42 62 -111 111zM300 -139q68 -46 111 -111l-111 -111q-42 62 -111 111z" />
    <glyph glyph-name="uni063D.fina" unicode="&#x63d;" horiz-adv-x="1049" 
d="M1049 230q26 0 37 -40t11 -75t-10.5 -75t-37.5 -40h-232q-90 0 -115.5 -9.5t-25.5 -20.5q0 -19 30.5 -25.5t76 -9.5t90.5 -11t76 -29t31 -65q0 -77 -55 -139t-143 -106t-190 -67t-197 -23q-164 0 -248.5 55.5t-100.5 148t28 206.5t138 231l14 -5q-129 -235 -75 -328
t307 -93q32 0 88.5 2.5t122 7.5t124.5 13t97 18.5t38 23.5q0 17 -30.5 21t-75.5 5.5t-89.5 10t-74 33.5t-28.5 76q0 42 21 94.5t62 101.5t103.5 81t148.5 32h84zM733 354l-63 -49q-26 33 -54 67.5t-49 58t-27 23.5q-8 0 -48.5 -43.5t-79.5 -91.5l-29 23q37 47 77.5 93
t71.5 76t37 30q7 0 35.5 -31t64.5 -74.5t64 -81.5z" />
    <glyph glyph-name="uni063E.init" unicode="&#x63e;" horiz-adv-x="353" 
d="M0 230h64q90 0 139.5 21t49.5 36q0 23 -23 48t-51 40l78 200q30 -44 43 -98t13 -109q0 -95 -34 -179t-95 -136.5t-142 -52.5h-42q-25 0 -37 41.5t-12 76.5t12 73.5t37 38.5zM97 894q68 -46 111 -111l-111 -111q-42 62 -111 111zM290 894q68 -46 111 -111l-111 -111
q-42 62 -111 111zM103 -139q68 -46 111 -111l-111 -111q-42 62 -111 111zM296 -139q68 -46 111 -111l-111 -111q-42 62 -111 111z" />
    <glyph glyph-name="uni063E.medi" unicode="&#x63e;" horiz-adv-x="440" 
d="M0 0q-21 0 -36.5 34t-15.5 81t15.5 81t36.5 34h5q78 0 124 14.5t73 52t47 106.5l17 -3q-5 -26 -5 -49q0 -71 44.5 -96t129.5 -25h5q22 0 41 -34t19 -81t-18.5 -81t-41.5 -34h-22q-104 0 -156.5 37.5t-89.5 128.5l65 -11q-39 -67 -93 -111t-124 -44h-20zM116 727
q68 -46 111 -111l-111 -111q-42 62 -111 111zM309 727q68 -46 111 -111l-111 -111q-42 62 -111 111zM107 -139q68 -46 111 -111l-111 -111q-42 62 -111 111zM300 -139q68 -46 111 -111l-111 -111q-42 62 -111 111z" />
    <glyph glyph-name="uni063E.fina" unicode="&#x63e;" horiz-adv-x="1049" 
d="M1049 230q26 0 37 -40t11 -75t-10.5 -75t-37.5 -40h-232q-90 0 -115.5 -9.5t-25.5 -20.5q0 -19 30.5 -25.5t76 -9.5t90.5 -11t76 -29t31 -65q0 -77 -55 -139t-143 -106t-190 -67t-197 -23q-164 0 -248.5 55.5t-100.5 148t28 206.5t138 231l14 -5q-129 -235 -75 -328
t307 -93q32 0 88.5 2.5t122 7.5t124.5 13t97 18.5t38 23.5q0 17 -30.5 21t-75.5 5.5t-89.5 10t-74 33.5t-28.5 76q0 42 21 94.5t62 101.5t103.5 81t148.5 32h84zM479 527q68 -46 111 -111l-111 -111q-42 62 -111 111zM672 527q68 -46 111 -111l-111 -111q-42 62 -111 111z
" />
    <glyph glyph-name="uni063F.init" unicode="&#x63f;" horiz-adv-x="353" 
d="M0 230h64q90 0 139.5 21t49.5 36q0 23 -23 48t-51 40l78 200q30 -44 43 -98t13 -109q0 -95 -34 -179t-95 -136.5t-142 -52.5h-42q-25 0 -37 41.5t-12 76.5t12 73.5t37 38.5zM192 1103q68 -46 111 -111l-111 -111q-42 62 -111 111zM97 897q68 -46 111 -111l-111 -111
q-42 62 -111 111zM290 897q68 -46 111 -111l-111 -111q-42 62 -111 111zM103 -139q68 -46 111 -111l-111 -111q-42 62 -111 111zM296 -139q68 -46 111 -111l-111 -111q-42 62 -111 111z" />
    <glyph glyph-name="uni063F.medi" unicode="&#x63f;" horiz-adv-x="440" 
d="M0 0q-21 0 -36.5 34t-15.5 81t15.5 81t36.5 34h5q78 0 124 14.5t73 52t47 106.5l17 -3q-5 -26 -5 -49q0 -71 44.5 -96t129.5 -25h5q22 0 41 -34t19 -81t-18.5 -81t-41.5 -34h-22q-104 0 -156.5 37.5t-89.5 128.5l65 -11q-39 -67 -93 -111t-124 -44h-20zM211 936
q68 -46 111 -111l-111 -111q-42 62 -111 111zM116 730q68 -46 111 -111l-111 -111q-42 62 -111 111zM309 730q68 -46 111 -111l-111 -111q-42 62 -111 111zM107 -139q68 -46 111 -111l-111 -111q-42 62 -111 111zM300 -139q68 -46 111 -111l-111 -111q-42 62 -111 111z" />
    <glyph glyph-name="uni063F.fina" unicode="&#x63f;" horiz-adv-x="1049" 
d="M1049 230q26 0 37 -40t11 -75t-10.5 -75t-37.5 -40h-232q-90 0 -115.5 -9.5t-25.5 -20.5q0 -19 30.5 -25.5t76 -9.5t90.5 -11t76 -29t31 -65q0 -77 -55 -139t-143 -106t-190 -67t-197 -23q-164 0 -248.5 55.5t-100.5 148t28 206.5t138 231l14 -5q-129 -235 -75 -328
t307 -93q32 0 88.5 2.5t122 7.5t124.5 13t97 18.5t38 23.5q0 17 -30.5 21t-75.5 5.5t-89.5 10t-74 33.5t-28.5 76q0 42 21 94.5t62 101.5t103.5 81t148.5 32h84zM574 736q68 -46 111 -111l-111 -111q-42 62 -111 111zM479 530q68 -46 111 -111l-111 -111q-42 62 -111 111z
M672 530q68 -46 111 -111l-111 -111q-42 62 -111 111z" />
    <glyph glyph-name="uni0641.init" unicode="&#x641;" horiz-adv-x="503" arabic-form="initial" 
d="M0 0q-30 0 -41 40t-11 73q0 35 11 76t41 41q89 0 177.5 6t152.5 21t78 41q3 38 -12 89.5t-40.5 100.5t-56 81.5t-58.5 32.5q-20 0 -50.5 -26.5t-30.5 -50.5q0 -9 15 -26t51 -17q29 0 65 23.5t43 49.5l45 -85q-7 -37 -32.5 -74.5t-59 -63t-66.5 -25.5q-57 0 -86.5 47.5
t-29.5 117.5q0 26 10 77.5t30 106t49 93t66 38.5q39 0 74.5 -42t62.5 -108.5t42.5 -142.5t15.5 -144q0 -79 -22.5 -144t-49.5 -93q-28 -27 -88.5 -53t-138 -43t-156.5 -17zM259 1127q68 -46 111 -111l-111 -111q-42 62 -111 111z" />
    <glyph glyph-name="uni0641.medi" unicode="&#x641;" horiz-adv-x="533" arabic-form="medial" 
d="M306 700q41 0 65 -34.5t34.5 -85t10.5 -97.5q0 -132 -50.5 -241.5t-144 -175.5t-221.5 -66q-22 0 -40.5 34t-18.5 81t18.5 81t40.5 34q93 0 176.5 21.5t136.5 56.5t53 77q0 28 -26.5 66.5t-65.5 38.5q-26 0 -52 -21t-43 -48.5t-17 -48.5q0 -26 36 -51.5t93.5 -46
t121.5 -32.5t120 -12q25 0 45.5 -34t20.5 -81t-20.5 -81t-45.5 -34q-123 0 -217.5 46.5t-147.5 120t-53 154.5q0 54 14 119t40 124.5t61 97.5t76 38zM293 1041q68 -46 111 -111l-111 -111q-42 62 -111 111z" />
    <glyph glyph-name="uni0641.fina" unicode="&#x641;" horiz-adv-x="1298" arabic-form="final" 
d="M474 -30q-109 0 -208.5 25.5t-162.5 81.5t-63 146q0 64 30.5 137t91.5 133l13 -8q-36 -76 -36 -141q0 -46 38 -74.5t98.5 -43.5t131 -20.5t135.5 -5.5q101 0 205 14.5t191 40t140 59t53 71.5q0 28 -28.5 66.5t-63.5 38.5q-26 0 -52 -21t-43 -48.5t-17 -48.5
q0 -26 36 -51.5t93.5 -46t121.5 -32.5t120 -12q25 0 45.5 -34t20.5 -81t-20.5 -81t-45.5 -34q-123 0 -217.5 46.5t-147.5 120t-53 154.5q0 53 14 118t40 124.5t61 98t76 38.5q38 0 62 -34.5t36 -85t12 -97.5q0 -238 -184 -375.5t-523 -137.5zM1055 1029q68 -46 111 -111
l-111 -111q-42 62 -111 111z" />
    <glyph glyph-name="uni0642.init" unicode="&#x642;" horiz-adv-x="503" arabic-form="initial" 
d="M0 0q-30 0 -41 40t-11 73q0 35 11 76t41 41q89 0 177.5 6t152.5 21t78 41q3 38 -12 89.5t-40.5 100.5t-56 81.5t-58.5 32.5q-20 0 -50.5 -26.5t-30.5 -50.5q0 -9 15 -26t51 -17q29 0 65 23.5t43 49.5l45 -85q-7 -37 -32.5 -74.5t-59 -63t-66.5 -25.5q-57 0 -86.5 47.5
t-29.5 117.5q0 26 10 77.5t30 106t49 93t66 38.5q39 0 74.5 -42t62.5 -108.5t42.5 -142.5t15.5 -144q0 -79 -22.5 -144t-49.5 -93q-28 -27 -88.5 -53t-138 -43t-156.5 -17zM163 1127q68 -46 111 -111l-111 -111q-42 62 -111 111zM356 1127q68 -46 111 -111l-111 -111
q-42 62 -111 111z" />
    <glyph glyph-name="uni0642.medi" unicode="&#x642;" horiz-adv-x="533" arabic-form="medial" 
d="M306 700q41 0 65 -34.5t34.5 -85t10.5 -97.5q0 -132 -50.5 -241.5t-144 -175.5t-221.5 -66q-22 0 -40.5 34t-18.5 81t18.5 81t40.5 34q93 0 176.5 21.5t136.5 56.5t53 77q0 28 -26.5 66.5t-65.5 38.5q-26 0 -52 -21t-43 -48.5t-17 -48.5q0 -26 36 -51.5t93.5 -46
t121.5 -32.5t120 -12q25 0 45.5 -34t20.5 -81t-20.5 -81t-45.5 -34q-123 0 -217.5 46.5t-147.5 120t-53 154.5q0 54 14 119t40 124.5t61 97.5t76 38zM197 1041q68 -46 111 -111l-111 -111q-42 62 -111 111zM390 1041q68 -46 111 -111l-111 -111q-42 62 -111 111z" />
    <glyph glyph-name="uni0642.fina" unicode="&#x642;" horiz-adv-x="909" arabic-form="final" 
d="M353 -330q-103 0 -172.5 45.5t-105 121t-35.5 166.5q0 72 22.5 147.5t70.5 147.5l14 -6q-45 -115 -45 -200q0 -95 78.5 -143.5t208.5 -48.5q83 0 170.5 21t147.5 62.5t60 100.5q0 95 -22 154.5t-49.5 88t-44.5 28.5q-20 0 -45.5 -31t-25.5 -51q0 -9 24.5 -26t73.5 -17
h231q26 0 38 -40t12 -75t-12 -75t-38 -40h-227q-53 0 -87.5 35.5t-52 86.5t-17.5 98q0 26 8 82t25.5 116.5t46.5 103.5t70 43q39 0 66 -42.5t43 -113t23 -155.5t8 -170q0 -114 -62.5 -208t-167.5 -150t-232 -56zM580 906q68 -46 111 -111l-111 -111q-42 62 -111 111z
M773 906q68 -46 111 -111l-111 -111q-42 62 -111 111z" />
    <glyph glyph-name="uni0643.init" unicode="&#x643;" horiz-adv-x="633" arabic-form="initial" 
d="M694 1095l-53 -202q-62 -23 -139 -56t-147.5 -68t-115.5 -65t-45 -47t27 -34.5t67.5 -42t81 -61t68 -92t27.5 -134.5q-1 -128 -93.5 -210.5t-276.5 -82.5h-95q-22 0 -38 34t-16 81t16 81t38 34h215q119 0 155.5 18.5t36.5 39.5q1 47 -34.5 87t-87.5 74t-104.5 64.5
t-88 59t-35.5 57.5q0 21 9 62.5t25 58.5q30 33 99.5 79t159 95.5t180.5 94t164 75.5z" />
    <glyph glyph-name="uni0643.medi" unicode="&#x643;" horiz-adv-x="951" arabic-form="medial" 
d="M694 1095l-53 -202q-62 -23 -139 -56t-147.5 -68t-115.5 -65t-45 -47t27 -34.5t67.5 -42t81 -61t68 -92t27.5 -134.5q-1 -128 -93.5 -210.5t-276.5 -82.5h-95q-22 0 -38 34t-16 81t16 81t38 34h215q119 0 155.5 18.5t36.5 39.5q1 47 -34.5 87t-87.5 74t-104.5 64.5
t-88 59t-35.5 57.5q0 21 9 62.5t25 58.5q30 33 99.5 79t159 95.5t180.5 94t164 75.5zM256 601q119 -62 199 -117.5t138 -102t108.5 -80.5t109 -52.5t141.5 -18.5q25 0 40 -38.5t15 -77.5q0 -41 -15.5 -77.5t-39.5 -36.5q-97 0 -173.5 45t-141 111.5t-122.5 131.5t-118 105z
" />
    <glyph glyph-name="uni0643.fina" unicode="&#x643;" horiz-adv-x="1168" arabic-form="final" 
d="M730 0q-36 0 -50 40t-14 75t14 75t50 40q160 0 160 156q0 20 -4 78t-14.5 173t-31.5 305l91 30q3 -84 6 -143t6.5 -110t8.5 -110t13 -143q10 -123 60.5 -179.5t142.5 -56.5q34 0 49.5 -40t15.5 -75t-15.5 -75t-49.5 -40q-60 0 -110.5 41t-84 106.5t-41.5 139.5l17 2
q-6 -125 -66 -207t-153 -82zM699 571q0 -75 -77.5 -121.5t-209.5 -46.5q-28 0 -64 17t-54 34q53 0 114 6.5t104.5 18t43.5 25.5q0 12 -24.5 17t-55.5 9.5t-55 15t-24 33.5q0 38 26.5 86t74 92.5t110.5 70.5l29 -98q-20 -5 -47.5 -16.5t-48.5 -25.5t-21 -25q0 -15 27 -19.5
t62.5 -9.5t62.5 -18.5t27 -44.5zM599 0h-310q-83 0 -138.5 36.5t-83 93.5t-27.5 118q0 64 30.5 144t91.5 141l13 -8q-19 -37 -27.5 -73t-8.5 -68q0 -69 45.5 -111.5t139.5 -42.5h278q18 0 27.5 -37.5t9.5 -69.5q0 -35 -10 -79t-30 -44zM916 1134l18 -10q-38 -76 -14 -128
t118 -80l-69 -168q-186 73 -186 163q0 32 23.5 77.5t55 86t54.5 59.5zM729 0h-135q-32 0 -45.5 40t-13.5 75t13.5 75t45.5 40h135q30 0 45 -40t15 -75t-15 -75t-45 -40z" />
    <glyph glyph-name="uni0644.init" unicode="&#x644;" horiz-adv-x="369" arabic-form="initial" 
d="M167 924l99 -61q8 -195 12.5 -320t7.5 -202q0 -90 -30.5 -168t-93.5 -125.5t-162 -47.5q-28 0 -40 40t-12 75t12 75t40 40q44 0 93 5t86.5 19.5t45.5 44.5l-9 -35q4 14 4 50q0 72 -13 226.5t-40 383.5zM237 1141l18 -10q-38 -76 -14 -128t118 -80l-69 -168
q-186 73 -186 163q0 32 23.5 77.5t55 86t54.5 59.5z" />
    <glyph glyph-name="uni0644.medi" unicode="&#x644;" horiz-adv-x="438" arabic-form="medial" 
d="M202 1093l36 -627q10 -123 59 -179.5t141 -56.5q34 0 49.5 -40t15.5 -75t-15.5 -75t-49.5 -40q-60 0 -110.5 41t-84 106.5t-41.5 139.5l17 2q-6 -125 -66 -207t-153 -82q-36 0 -50 40t-14 75t14 75t50 40q80 0 117 44.5t37 124.5q0 20 -2.5 82t-11.5 181t-30 310z" />
    <glyph glyph-name="uni0644.fina" unicode="&#x644;" horiz-adv-x="868" arabic-form="final" 
d="M275 -430q-115 0 -175 91.5t-60 222.5q0 93 29.5 181.5t69.5 141.5l18 -5q-18 -45 -30.5 -93t-12.5 -101q0 -106 57 -157t147 -51q39 0 97 16t108.5 48.5t64.5 83.5l-9 -35q11 36 -15.5 309.5t-72.5 747.5l93 123l62 -1074q5 -80 -12.5 -160t-61.5 -145t-117 -104.5
t-180 -39.5zM868 0q-83 0 -152.5 62t-93.5 150l-7 337q7 -120 29 -190t74 -99.5t150 -29.5q25 0 38 -20.5t17.5 -47.5t4.5 -47q0 -15 -4.5 -42.5t-17.5 -50t-38 -22.5z" />
    <glyph glyph-name="uni0645.init" unicode="&#x645;" horiz-adv-x="615" arabic-form="initial" 
d="M0 0q-26 0 -39 40t-13 75t13 75t39 40q108 0 166 20.5t98 83.5q28 42 53 86.5t54.5 75t70.5 30.5q40 0 69.5 -54.5t46.5 -135t17 -159.5q0 -52 -26 -90t-49 -38q-53 0 -111 22.5t-98.5 53.5t-42.5 55l91 165q-8 -18 21 -39.5t66 -37.5t55 -16q11 0 11 10q0 11 -7.5 42
t-19.5 66.5t-26 61.5t-28 26q-24 0 -41 -33t-34 -85t-40.5 -110.5t-60.5 -111t-94 -85.5t-141 -33z" />
    <glyph glyph-name="uni0645.medi" unicode="&#x645;" horiz-adv-x="694" arabic-form="medial" 
d="M328 439q38 0 60.5 -21t42.5 -52t49 -62.5t79.5 -52.5t134.5 -21q32 0 47 -40t15 -75t-15 -75t-47 -40q-85 0 -137 16.5t-77 58.5h14q-1 -62 -29.5 -95t-51.5 -33q-80 0 -142 39.5t-99 83.5l21 5q-26 -43 -76.5 -59t-116.5 -16q-28 0 -41 40.5t-13 76.5q0 35 13 74t41 39
q84 0 131 31.5t75.5 73t54.5 73t67 31.5zM243 248q0 -23 28 -45t63.5 -35.5t56.5 -13.5q22 0 22 24q0 10 -9.5 41t-23.5 66t-29.5 60.5t-28.5 25.5q-16 0 -34.5 -27t-31.5 -57t-13 -39z" />
    <glyph glyph-name="uni0645.fina" unicode="&#x645;" horiz-adv-x="630" arabic-form="final" 
d="M97 -627q0 113 -14.5 215.5t-28.5 187t-14 140.5q0 54 24.5 121.5t65 126.5t89.5 90.5t98 14.5l-23 -23q2 45 31 89.5t63 48.5l15 -5q26 -85 80 -117t147 -32q28 0 44 -40t16 -75q0 -37 -16.5 -76t-43.5 -39q-52 0 -94.5 13t-71.5 58l9 8q2 -100 -17.5 -144t-38.5 -44
q-67 0 -112 55t-59 145l30 -32q-25 14 -62 -1t-66 -40t-29 -43q0 -91 11.5 -211.5t11.5 -296.5z" />
    <glyph glyph-name="uni0646.init" unicode="&#x646;" horiz-adv-x="353" arabic-form="initial" 
d="M0 230h64q90 0 139.5 21t49.5 36q0 23 -23 48t-51 40l78 200q30 -44 43 -98t13 -109q0 -95 -34 -179t-95 -136.5t-142 -52.5h-42q-25 0 -37 41.5t-12 76.5t12 73.5t37 38.5zM194 894q68 -46 111 -111l-111 -111q-42 62 -111 111z" />
    <glyph glyph-name="uni0646.medi" unicode="&#x646;" horiz-adv-x="440" arabic-form="medial" 
d="M0 0q-21 0 -36.5 34t-15.5 81t15.5 81t36.5 34h5q78 0 124 14.5t73 52t47 106.5l17 -3q-5 -26 -5 -49q0 -71 44.5 -96t129.5 -25h5q22 0 41 -34t19 -81t-18.5 -81t-41.5 -34h-22q-104 0 -156.5 37.5t-89.5 128.5l65 -11q-39 -67 -93 -111t-124 -44h-20zM212 736
q68 -46 111 -111l-111 -111q-42 62 -111 111z" />
    <glyph glyph-name="uni0646.fina" unicode="&#x646;" horiz-adv-x="917" arabic-form="final" 
d="M917 230q31 0 46.5 -40t15.5 -75t-15.5 -75t-46.5 -40q-48 0 -106 29.5t-82 61.5v205q10 -24 43 -38.5t73.5 -21t71.5 -6.5zM706 356q38 -76 54 -156.5t16 -150.5q0 -123 -55 -233.5t-155 -180.5t-235 -70q-89 0 -154.5 43t-101 116.5t-35.5 163.5q0 64 16 127.5t39 115
t44 78.5l18 -9q-18 -45 -30.5 -94t-12.5 -100q0 -119 76.5 -165t185.5 -46q55 0 124.5 14t131 44t90.5 79l-5 -20q1 70 -29.5 138.5t-84.5 131.5zM385 478q68 -46 111 -111l-111 -111q-42 62 -111 111z" />
    <glyph glyph-name="uni0647.init" unicode="&#x647;" horiz-adv-x="597" arabic-form="initial" 
d="M198 722q124 -72 196.5 -142.5t107 -134t45 -116.5t10.5 -90q0 -54 -18.5 -105t-52 -84t-79.5 -33q-87 0 -163.5 31.5t-124.5 92.5t-48 151q0 41 13 92t37.5 97.5t59 76.5t77.5 30q35 0 56.5 -33.5t32.5 -78.5t15 -83t4 -47q0 -90 -48.5 -169t-131.5 -128t-186 -49
q-23 0 -34.5 40t-11.5 75t11.5 75t34.5 40q98 0 171 19.5t114 45.5t41 46q0 14 -17.5 40.5t-40 48.5t-39.5 22q-18 0 -46 -24t-50 -52.5t-22 -43.5q0 -24 50 -51t125.5 -45.5t150.5 -18.5q35 0 57.5 8t22.5 21q0 23 -58 72.5t-153.5 103.5t-210.5 88z" />
    <glyph glyph-name="uni0647.medi" unicode="&#x647;" horiz-adv-x="698" arabic-form="medial" 
d="M698 230q32 0 47.5 -40.5t15.5 -75.5t-15.5 -74.5t-47.5 -39.5h-57q-23 0 -68.5 6t-95.5 18q22 -41 28.5 -74t6.5 -40q0 -60 -15 -121t-46 -102.5t-80 -41.5q-45 0 -83 48t-65.5 127.5t-39.5 175.5q-78 4 -183 4q-23 0 -31.5 39.5t-8.5 74.5t8.5 75.5t31.5 40.5
q50 0 95 2.5t85 5.5q12 69 40 140.5t67 132.5t85 98.5t95 37.5q29 0 49.5 -42.5t20.5 -111.5q0 -82 -21 -150.5t-74 -124.5q87 12 256 12zM423 442q-61 0 -115.5 -61t-80.5 -137q126 16 186.5 45t60.5 54q0 99 -51 99zM408 -158q26 0 43 8t17 18q0 48 -46 79t-182 44
q29 -77 78.5 -113t89.5 -36z" />
    <glyph glyph-name="uni0647.fina" unicode="&#x647;" horiz-adv-x="657" arabic-form="final" 
d="M657 0q-92 0 -143.5 34.5t-79 110.5t-45.5 200t-43 303l62 80q14 -159 29.5 -257.5t40.5 -150.5t67.5 -71t111.5 -19q27 0 41.5 -40t14.5 -75q0 -37 -16.5 -76t-39.5 -39zM169 19q-19 0 -49.5 5t-55 19.5t-24.5 44.5q0 101 48 177.5t126.5 129t168.5 78.5l9 -75
q-46 -8 -93.5 -34t-79 -56t-31.5 -50q0 -22 64 -22q27 0 63 9.5t63 23.5t25 28l38 -120q-37 -82 -113 -120t-159 -38z" />
    <glyph glyph-name="uni0648.fina" unicode="&#x648;" horiz-adv-x="708" arabic-form="final" 
d="M231 -385q-66 0 -146 43.5t-136 98.5l7 14q35 -8 79 -8q49 0 117 11.5t140 35t134 60.5t101 87.5t39 116.5q0 95 -22 154.5t-49.5 88t-44.5 28.5q-21 0 -46 -26t-25 -46q0 -9 24.5 -26t73.5 -17h231q25 0 37.5 -40t12.5 -75t-12.5 -75t-37.5 -40h-227q-53 0 -88 35.5
t-52 86.5t-17 98q0 26 8 80.5t25.5 113t46 100t70.5 41.5q39 0 66 -42.5t43 -113t23.5 -155.5t7.5 -170q0 -97 -37 -180t-95 -146t-124.5 -98t-126.5 -35z" />
    <glyph glyph-name="uni0649.init" unicode="&#x649;" horiz-adv-x="353" 
d="M0 230h64q90 0 139.5 21t49.5 36q0 23 -23 48t-51 40l78 200q30 -44 43 -98t13 -109q0 -95 -34 -179t-95 -136.5t-142 -52.5h-42q-25 0 -37 41.5t-12 76.5t12 73.5t37 38.5z" />
    <glyph glyph-name="uni0649.medi" unicode="&#x649;" horiz-adv-x="440" 
d="M0 0q-21 0 -36.5 34t-15.5 81t15.5 81t36.5 34h5q78 0 124 14.5t73 52t47 106.5l17 -3q-5 -26 -5 -49q0 -71 44.5 -96t129.5 -25h5q22 0 41 -34t19 -81t-18.5 -81t-41.5 -34h-22q-104 0 -156.5 37.5t-89.5 128.5l65 -11q-39 -67 -93 -111t-124 -44h-20z" />
    <glyph glyph-name="uni0649.fina" unicode="&#x649;" horiz-adv-x="1049" arabic-form="final" 
d="M1049 230q26 0 37 -40t11 -75t-10.5 -75t-37.5 -40h-232q-90 0 -115.5 -9.5t-25.5 -20.5q0 -19 30.5 -25.5t76 -9.5t90.5 -11t76 -29t31 -65q0 -77 -55 -139t-143 -106t-190 -67t-197 -23q-164 0 -248.5 55.5t-100.5 148t28 206.5t138 231l14 -5q-129 -235 -75 -328
t307 -93q32 0 88.5 2.5t122 7.5t124.5 13t97 18.5t38 23.5q0 17 -30.5 21t-75.5 5.5t-89.5 10t-74 33.5t-28.5 76q0 42 21 94.5t62 101.5t103.5 81t148.5 32h84z" />
    <glyph glyph-name="uni064A.init" unicode="&#x64a;" horiz-adv-x="353" arabic-form="initial" 
d="M0 230h64q90 0 139.5 21t49.5 36q0 23 -23 48t-51 40l78 200q30 -44 43 -98t13 -109q0 -95 -34 -179t-95 -136.5t-142 -52.5h-42q-25 0 -37 41.5t-12 76.5t12 73.5t37 38.5zM103 -139q68 -46 111 -111l-111 -111q-42 62 -111 111zM296 -139q68 -46 111 -111l-111 -111
q-42 62 -111 111z" />
    <glyph glyph-name="uni064A.medi" unicode="&#x64a;" horiz-adv-x="440" arabic-form="medial" 
d="M0 0q-21 0 -36.5 34t-15.5 81t15.5 81t36.5 34h5q78 0 124 14.5t73 52t47 106.5l17 -3q-5 -26 -5 -49q0 -71 44.5 -96t129.5 -25h5q22 0 41 -34t19 -81t-18.5 -81t-41.5 -34h-22q-104 0 -156.5 37.5t-89.5 128.5l65 -11q-39 -67 -93 -111t-124 -44h-20zM107 -139
q68 -46 111 -111l-111 -111q-42 62 -111 111zM300 -139q68 -46 111 -111l-111 -111q-42 62 -111 111z" />
    <glyph glyph-name="uni064A.fina" unicode="&#x64a;" horiz-adv-x="1049" arabic-form="final" 
d="M1049 230q26 0 37 -40t11 -75t-10.5 -75t-37.5 -40h-232q-90 0 -115.5 -9.5t-25.5 -20.5q0 -19 30.5 -25.5t76 -9.5t90.5 -11t76 -29t31 -65q0 -77 -55 -139t-143 -106t-190 -67t-197 -23q-164 0 -248.5 55.5t-100.5 148t28 206.5t138 231l14 -5q-129 -235 -75 -328
t307 -93q32 0 88.5 2.5t122 7.5t124.5 13t97 18.5t38 23.5q0 17 -30.5 21t-75.5 5.5t-89.5 10t-74 33.5t-28.5 76q0 42 21 94.5t62 101.5t103.5 81t148.5 32h84zM347 -614q68 -46 111 -111l-111 -111q-42 62 -111 111zM540 -614q68 -46 111 -111l-111 -111q-42 62 -111 111z
" />
    <glyph glyph-name="uni066E.init" unicode="&#x66e;" horiz-adv-x="353" 
d="M0 230h64q90 0 139.5 21t49.5 36q0 23 -23 48t-51 40l78 200q30 -44 43 -98t13 -109q0 -95 -34 -179t-95 -136.5t-142 -52.5h-42q-25 0 -37 41.5t-12 76.5t12 73.5t37 38.5z" />
    <glyph glyph-name="uni066E.medi" unicode="&#x66e;" horiz-adv-x="440" 
d="M0 0q-21 0 -36.5 34t-15.5 81t15.5 81t36.5 34h5q78 0 124 14.5t73 52t47 106.5l17 -3q-5 -26 -5 -49q0 -71 44.5 -96t129.5 -25h5q22 0 41 -34t19 -81t-18.5 -81t-41.5 -34h-22q-104 0 -156.5 37.5t-89.5 128.5l65 -11q-39 -67 -93 -111t-124 -44h-20z" />
    <glyph glyph-name="uni066E.fina" unicode="&#x66e;" horiz-adv-x="1175" 
d="M1027 403l15 -3q0 -91 30 -130.5t103 -39.5q29 0 43 -42.5t14 -77.5t-14 -72.5t-43 -37.5q-172 0 -191 163l7 -5q-70 -87 -204 -130t-294 -43q-129 0 -231.5 29.5t-162 92.5t-59.5 163q0 67 36.5 138.5t77.5 110.5l14 -7q-17 -29 -31 -69t-14 -74q0 -56 58.5 -89.5
t157.5 -49t218 -15.5q130 0 217 20.5t146.5 62.5t106.5 105z" />
    <glyph glyph-name="uni066F.init" unicode="&#x66f;" horiz-adv-x="503" 
d="M0 0q-30 0 -41 40t-11 73q0 35 11 76t41 41q89 0 177.5 6t152.5 21t78 41q3 38 -12 89.5t-40.5 100.5t-56 81.5t-58.5 32.5q-20 0 -50.5 -26.5t-30.5 -50.5q0 -9 15 -26t51 -17q29 0 65 23.5t43 49.5l45 -85q-7 -37 -32.5 -74.5t-59 -63t-66.5 -25.5q-57 0 -86.5 47.5
t-29.5 117.5q0 26 10 77.5t30 106t49 93t66 38.5q39 0 74.5 -42t62.5 -108.5t42.5 -142.5t15.5 -144q0 -79 -22.5 -144t-49.5 -93q-28 -27 -88.5 -53t-138 -43t-156.5 -17z" />
    <glyph glyph-name="uni066F.medi" unicode="&#x66f;" horiz-adv-x="533" 
d="M306 700q41 0 65 -34.5t34.5 -85t10.5 -97.5q0 -132 -50.5 -241.5t-144 -175.5t-221.5 -66q-22 0 -40.5 34t-18.5 81t18.5 81t40.5 34q93 0 176.5 21.5t136.5 56.5t53 77q0 28 -26.5 66.5t-65.5 38.5q-26 0 -52 -21t-43 -48.5t-17 -48.5q0 -26 36 -51.5t93.5 -46
t121.5 -32.5t120 -12q25 0 45.5 -34t20.5 -81t-20.5 -81t-45.5 -34q-123 0 -217.5 46.5t-147.5 120t-53 154.5q0 54 14 119t40 124.5t61 97.5t76 38z" />
    <glyph glyph-name="uni066F.fina" unicode="&#x66f;" horiz-adv-x="909" 
d="M353 -330q-103 0 -172.5 45.5t-105 121t-35.5 166.5q0 72 22.5 147.5t70.5 147.5l14 -6q-45 -115 -45 -200q0 -95 78.5 -143.5t208.5 -48.5q83 0 170.5 21t147.5 62.5t60 100.5q0 95 -22 154.5t-49.5 88t-44.5 28.5q-20 0 -45.5 -31t-25.5 -51q0 -9 24.5 -26t73.5 -17
h231q26 0 38 -40t12 -75t-12 -75t-38 -40h-227q-53 0 -87.5 35.5t-52 86.5t-17.5 98q0 26 8 82t25.5 116.5t46.5 103.5t70 43q39 0 66 -42.5t43 -113t23 -155.5t8 -170q0 -114 -62.5 -208t-167.5 -150t-232 -56z" />
    <glyph glyph-name="uni0671.fina" unicode="&#x671;" horiz-adv-x="424" arabic-form="final" 
d="M424 0q-157 0 -223 115t-75 317l-26 552l83 109l18 -607q4 -124 50.5 -190t172.5 -66q29 0 44 -40t15 -75t-15 -75t-44 -40zM59 1323q61 119 128.5 158t114 14t46.5 -101q0 -68 -37.5 -93t-94 -26t-115 4t-103 -1t-56.5 -42l-16 6q10 55 47.5 74.5t86 21t95 -1t77.5 6.5
t31 46q0 20 -22.5 32t-60 -7.5t-82.5 -94.5z" />
    <glyph glyph-name="uni0672.fina" unicode="&#x672;" horiz-adv-x="424" 
d="M424 0q-157 0 -223 115t-75 317l-26 552l83 109l18 -607q4 -124 50.5 -190t172.5 -66q29 0 44 -40t15 -75t-15 -75t-44 -40zM93 1272q-19 12 -31.5 28t-12.5 36q0 94 30.5 145t84.5 51q24 0 50 -18.5t35 -39.5l-12 -22q-15 6 -34 6q-35 0 -74.5 -18.5t-50.5 -52.5l3 20
q2 -24 24.5 -43t62.5 -19q19 0 43 6zM355 1368l-54 -88q-73 0 -112.5 -13t-62.5 -30.5t-45.5 -30.5t-62.5 -13q-45 0 -66 20.5t-54 20.5q-29 0 -74 -27l-17 19q37 36 65 48.5t51 12.5q29 0 49.5 -11.5t53.5 -11.5q22 0 44 15.5t55 36.5t88 36.5t142 15.5z" />
    <glyph glyph-name="uni0673.fina" unicode="&#x673;" horiz-adv-x="424" 
d="M424 0q-157 0 -223 115t-75 317l-26 552l83 109l18 -607q4 -124 50.5 -190t172.5 -66q29 0 44 -40t15 -75t-15 -75t-44 -40zM170 -365q-19 12 -31.5 28t-12.5 36q0 94 30.5 145t84.5 51q24 0 50 -18.5t35 -39.5l-12 -22q-15 6 -34 6q-35 0 -74.5 -18.5t-50.5 -52.5l3 20
q2 -24 24.5 -43t62.5 -19q19 0 43 6zM432 -269l-54 -88q-73 0 -112.5 -13t-62.5 -30.5t-45.5 -30.5t-62.5 -13q-45 0 -66 20.5t-54 20.5q-29 0 -74 -27l-17 19q37 36 65 48.5t51 12.5q29 0 49.5 -11.5t53.5 -11.5q22 0 44 15.5t55 36.5t88 36.5t142 15.5z" />
    <glyph glyph-name="uni0675.fina" unicode="&#x675;" horiz-adv-x="364" 
d="M424 0q-157 0 -223 115t-75 317l-26 552l83 109l18 -607q4 -124 50.5 -190t172.5 -66q29 0 44 -40t15 -75t-15 -75t-44 -40zM258 786q-45 23 -45 71q0 109 35 161t87 52q27 0 54.5 -14.5t43.5 -40.5l-13 -25q-13 4 -32 4q-47 0 -95 -21t-58 -58l4 23q7 -66 95 -66
q27 0 63 8zM510 893l-60 -97q-55 0 -120.5 -12.5t-137.5 -77.5l-35 25q68 70 148 116t205 46z" />
    <glyph glyph-name="uni0676.fina" unicode="&#x676;" horiz-adv-x="708" 
d="M231 -385q-66 0 -146 43.5t-136 98.5l7 14q35 -8 79 -8q49 0 117 11.5t140 35t134 60.5t101 87.5t39 116.5q0 95 -22 154.5t-49.5 88t-44.5 28.5q-21 0 -46 -26t-25 -46q0 -9 24.5 -26t73.5 -17h231q25 0 37.5 -40t12.5 -75t-12.5 -75t-37.5 -40h-227q-53 0 -88 35.5
t-52 86.5t-17 98q0 26 8 80.5t25.5 113t46 100t70.5 41.5q39 0 66 -42.5t43 -113t23.5 -155.5t7.5 -170q0 -97 -37 -180t-95 -146t-124.5 -98t-126.5 -35zM578 776q-45 23 -45 71q0 109 35 161t87 52q27 0 54.5 -14.5t43.5 -40.5l-13 -25q-13 4 -32 4q-47 0 -95 -21t-58 -58
l4 23q7 -66 95 -66q27 0 63 8zM830 883l-60 -97q-55 0 -120.5 -12.5t-137.5 -77.5l-35 25q68 70 148 116t205 46z" />
    <glyph glyph-name="uni0677.fina" unicode="&#x677;" horiz-adv-x="708" 
d="M231 -385q-66 0 -146 43.5t-136 98.5l7 14q35 -8 79 -8q49 0 117 11.5t140 35t134 60.5t101 87.5t39 116.5q0 95 -22 154.5t-49.5 88t-44.5 28.5q-21 0 -46 -26t-25 -46q0 -9 24.5 -26t73.5 -17h231q25 0 37.5 -40t12.5 -75t-12.5 -75t-37.5 -40h-227q-53 0 -88 35.5
t-52 86.5t-17 98q0 26 8 80.5t25.5 113t46 100t70.5 41.5q39 0 66 -42.5t43 -113t23.5 -155.5t7.5 -170q0 -97 -37 -180t-95 -146t-124.5 -98t-126.5 -35zM568 786q-45 23 -45 71q0 109 35 161t87 52q27 0 54.5 -14.5t43.5 -40.5l-13 -25q-13 4 -32 4q-47 0 -95 -21t-58 -58
l4 23q7 -66 95 -66q27 0 63 8zM820 893l-60 -97q-55 0 -120.5 -12.5t-137.5 -77.5l-35 25q68 70 148 116t205 46zM274 694l-21 38q48 28 78 68.5t29 106.5l8 -10q-4 -3 -15 -5t-20 -2q-34 0 -57 23t-23 57q0 36 28.5 60t61.5 24q50 0 71 -34t21 -80q0 -78 -42.5 -141
t-118.5 -105z" />
    <glyph glyph-name="uni0678.init" unicode="&#x678;" horiz-adv-x="604" 
d="M0 230h64q90 0 139.5 21t49.5 36q0 23 -23 48t-51 40l78 200q30 -44 43 -98t13 -109q0 -95 -34 -179t-95 -136.5t-142 -52.5h-42q-25 0 -37 41.5t-12 76.5t12 73.5t37 38.5zM352 786q-45 23 -45 71q0 109 35 161t87 52q27 0 54.5 -14.5t43.5 -40.5l-13 -25q-13 4 -32 4
q-47 0 -95 -21t-58 -58l4 23q7 -66 95 -66q27 0 63 8zM604 893l-60 -97q-55 0 -120.5 -12.5t-137.5 -77.5l-35 25q68 70 148 116t205 46z" />
    <glyph glyph-name="uni0678.medi" unicode="&#x678;" horiz-adv-x="440" 
d="M0 0q-21 0 -36.5 34t-15.5 81t15.5 81t36.5 34h5q78 0 124 14.5t73 52t47 106.5l17 -3q-5 -26 -5 -49q0 -71 44.5 -96t129.5 -25h5q22 0 41 -34t19 -81t-18.5 -81t-41.5 -34h-22q-104 0 -156.5 37.5t-89.5 128.5l65 -11q-39 -67 -93 -111t-124 -44h-20zM313 786
q-45 23 -45 71q0 109 35 161t87 52q27 0 54.5 -14.5t43.5 -40.5l-13 -25q-13 4 -32 4q-47 0 -95 -21t-58 -58l4 23q7 -66 95 -66q27 0 63 8zM565 893l-60 -97q-55 0 -120.5 -12.5t-137.5 -77.5l-35 25q68 70 148 116t205 46z" />
    <glyph glyph-name="uni0678.fina" unicode="&#x678;" horiz-adv-x="1049" 
d="M1049 230q26 0 37 -40t11 -75t-10.5 -75t-37.5 -40h-232q-90 0 -115.5 -9.5t-25.5 -20.5q0 -19 30.5 -25.5t76 -9.5t90.5 -11t76 -29t31 -65q0 -77 -55 -139t-143 -106t-190 -67t-197 -23q-164 0 -248.5 55.5t-100.5 148t28 206.5t138 231l14 -5q-129 -235 -75 -328
t307 -93q32 0 88.5 2.5t122 7.5t124.5 13t97 18.5t38 23.5q0 17 -30.5 21t-75.5 5.5t-89.5 10t-74 33.5t-28.5 76q0 42 21 94.5t62 101.5t103.5 81t148.5 32h84zM783 786q-45 23 -45 71q0 109 35 161t87 52q27 0 54.5 -14.5t43.5 -40.5l-13 -25q-13 4 -32 4q-47 0 -95 -21
t-58 -58l4 23q7 -66 95 -66q27 0 63 8zM1035 893l-60 -97q-55 0 -120.5 -12.5t-137.5 -77.5l-35 25q68 70 148 116t205 46z" />
    <glyph glyph-name="uni0679.init" unicode="&#x679;" horiz-adv-x="429" arabic-form="initial" 
d="M0 230h64q90 0 139.5 21t49.5 36q0 23 -23 48t-51 40l78 200q30 -44 43 -98t13 -109q0 -95 -34 -179t-95 -136.5t-142 -52.5h-42q-25 0 -37 41.5t-12 76.5t12 73.5t37 38.5zM161 671l-13 94q90 0 163 9.5t73 30.5q0 14 -16.5 26.5t-49.5 12.5q-13 0 -43.5 -14t-63 -35
t-52.5 -43l-23 2q63 68 119.5 115.5t101.5 47.5q40 0 56.5 -20t16.5 -47q0 -45 -39.5 -86t-101 -67t-128.5 -26zM162 671q-71 0 -113.5 36t-58.5 75l2 4q35 -11 78 -16t79 -5zM178 786l-9 244l36 -20v-200zM222 983q-75 28 -75 64q0 18 18.5 46.5t34.5 41.5l7 -4
q-13 -30 7 -50t58 -31z" />
    <glyph glyph-name="uni0679.medi" unicode="&#x679;" horiz-adv-x="440" arabic-form="medial" 
d="M0 0q-21 0 -36.5 34t-15.5 81t15.5 81t36.5 34h5q78 0 124 14.5t73 52t47 106.5l17 -3q-5 -26 -5 -49q0 -71 44.5 -96t129.5 -25h5q22 0 41 -34t19 -81t-18.5 -81t-41.5 -34h-22q-104 0 -156.5 37.5t-89.5 128.5l65 -11q-39 -67 -93 -111t-124 -44h-20zM179 513l-13 94
q90 0 163 9.5t73 30.5q0 14 -16.5 26.5t-49.5 12.5q-13 0 -43.5 -14t-63 -35t-52.5 -43l-23 2q63 68 119.5 115.5t101.5 47.5q40 0 56.5 -20t16.5 -47q0 -45 -39.5 -86t-101 -67t-128.5 -26zM180 513q-71 0 -113.5 36t-58.5 75l2 4q35 -11 78 -16t79 -5zM196 628l-9 244
l36 -20v-200zM240 825q-75 28 -75 64q0 18 18.5 46.5t34.5 41.5l7 -4q-13 -30 7 -50t58 -31z" />
    <glyph glyph-name="uni0679.fina" unicode="&#x679;" horiz-adv-x="1175" arabic-form="final" 
d="M1027 403l15 -3q0 -91 30 -130.5t103 -39.5q29 0 43 -42.5t14 -77.5t-14 -72.5t-43 -37.5q-172 0 -191 163l7 -5q-70 -87 -204 -130t-294 -43q-129 0 -231.5 29.5t-162 92.5t-59.5 163q0 67 36.5 138.5t77.5 110.5l14 -7q-17 -29 -31 -69t-14 -74q0 -56 58.5 -89.5
t157.5 -49t218 -15.5q130 0 217 20.5t146.5 62.5t106.5 105zM546 431l-13 94q90 0 163 9.5t73 30.5q0 14 -16.5 26.5t-49.5 12.5q-13 0 -43.5 -14t-63 -35t-52.5 -43l-23 2q63 68 119.5 115.5t101.5 47.5q40 0 56.5 -20t16.5 -47q0 -45 -39.5 -86t-101 -67t-128.5 -26z
M547 431q-71 0 -113.5 36t-58.5 75l2 4q35 -11 78 -16t79 -5zM563 546l-9 244l36 -20v-200zM607 743q-75 28 -75 64q0 18 18.5 46.5t34.5 41.5l7 -4q-13 -30 7 -50t58 -31z" />
    <glyph glyph-name="uni067A.init" unicode="&#x67a;" horiz-adv-x="353" arabic-form="initial" 
d="M0 230h64q90 0 139.5 21t49.5 36q0 23 -23 48t-51 40l78 200q30 -44 43 -98t13 -109q0 -95 -34 -179t-95 -136.5t-142 -52.5h-42q-25 0 -37 41.5t-12 76.5t12 73.5t37 38.5zM193 902q68 -46 111 -111l-111 -111q-42 62 -111 111zM193 1096q68 -46 111 -111l-111 -111
q-42 62 -111 111z" />
    <glyph glyph-name="uni067A.medi" unicode="&#x67a;" horiz-adv-x="440" arabic-form="medial" 
d="M0 0q-21 0 -36.5 34t-15.5 81t15.5 81t36.5 34h5q78 0 124 14.5t73 52t47 106.5l17 -3q-5 -26 -5 -49q0 -71 44.5 -96t129.5 -25h5q22 0 41 -34t19 -81t-18.5 -81t-41.5 -34h-22q-104 0 -156.5 37.5t-89.5 128.5l65 -11q-39 -67 -93 -111t-124 -44h-20zM212 743
q68 -46 111 -111l-111 -111q-42 62 -111 111zM212 937q68 -46 111 -111l-111 -111q-42 62 -111 111z" />
    <glyph glyph-name="uni067A.fina" unicode="&#x67a;" horiz-adv-x="1175" arabic-form="final" 
d="M1027 403l15 -3q0 -91 30 -130.5t103 -39.5q29 0 43 -42.5t14 -77.5t-14 -72.5t-43 -37.5q-172 0 -191 163l7 -5q-70 -87 -204 -130t-294 -43q-129 0 -231.5 29.5t-162 92.5t-59.5 163q0 67 36.5 138.5t77.5 110.5l14 -7q-17 -29 -31 -69t-14 -74q0 -56 58.5 -89.5
t157.5 -49t218 -15.5q130 0 217 20.5t146.5 62.5t106.5 105zM579 662q68 -46 111 -111l-111 -111q-42 62 -111 111zM579 856q68 -46 111 -111l-111 -111q-42 62 -111 111z" />
    <glyph glyph-name="uni067B.init" unicode="&#x67b;" horiz-adv-x="353" arabic-form="initial" 
d="M0 230h64q90 0 139.5 21t49.5 36q0 23 -23 48t-51 40l78 200q30 -44 43 -98t13 -109q0 -95 -34 -179t-95 -136.5t-142 -52.5h-42q-25 0 -37 41.5t-12 76.5t12 73.5t37 38.5zM199 -343q68 -46 111 -111l-111 -111q-42 62 -111 111zM199 -149q68 -46 111 -111l-111 -111
q-42 62 -111 111z" />
    <glyph glyph-name="uni067B.medi" unicode="&#x67b;" horiz-adv-x="440" arabic-form="medial" 
d="M0 0q-21 0 -36.5 34t-15.5 81t15.5 81t36.5 34h5q78 0 124 14.5t73 52t47 106.5l17 -3q-5 -26 -5 -49q0 -71 44.5 -96t129.5 -25h5q22 0 41 -34t19 -81t-18.5 -81t-41.5 -34h-22q-104 0 -156.5 37.5t-89.5 128.5l65 -11q-39 -67 -93 -111t-124 -44h-20zM203 -343
q68 -46 111 -111l-111 -111q-42 62 -111 111zM203 -149q68 -46 111 -111l-111 -111q-42 62 -111 111z" />
    <glyph glyph-name="uni067B.fina" unicode="&#x67b;" horiz-adv-x="1175" arabic-form="final" 
d="M1027 403l15 -3q0 -91 30 -130.5t103 -39.5q29 0 43 -42.5t14 -77.5t-14 -72.5t-43 -37.5q-172 0 -191 163l7 -5q-70 -87 -204 -130t-294 -43q-129 0 -231.5 29.5t-162 92.5t-59.5 163q0 67 36.5 138.5t77.5 110.5l14 -7q-17 -29 -31 -69t-14 -74q0 -56 58.5 -89.5
t157.5 -49t218 -15.5q130 0 217 20.5t146.5 62.5t106.5 105zM498 -343q68 -46 111 -111l-111 -111q-42 62 -111 111zM498 -149q68 -46 111 -111l-111 -111q-42 62 -111 111z" />
    <glyph glyph-name="uni067C.init" unicode="&#x67c;" horiz-adv-x="353" 
d="M0 230h64q90 0 139.5 21t49.5 36q0 23 -23 48t-51 40l78 200q30 -44 43 -98t13 -109q0 -95 -34 -179t-95 -136.5t-142 -52.5h-42q-25 0 -37 41.5t-12 76.5t12 73.5t37 38.5zM97 894q68 -46 111 -111l-111 -111q-42 62 -111 111zM290 894q68 -46 111 -111l-111 -111
q-42 62 -111 111zM179 -184q-66 0 -86.5 40.5t-20.5 90.5q0 31 12 65t36 58.5t59 24.5q36 0 60 -24.5t36.5 -58.5t12.5 -65q0 -50 -21.5 -90.5t-87.5 -40.5zM179 -99q28 0 48.5 9.5t20.5 43.5q0 35 -20.5 57.5t-48.5 22.5t-47.5 -22.5t-19.5 -57.5q0 -37 19.5 -45t47.5 -8z
" />
    <glyph glyph-name="uni067C.medi" unicode="&#x67c;" horiz-adv-x="440" 
d="M0 0q-21 0 -36.5 34t-15.5 81t15.5 81t36.5 34h5q78 0 124 14.5t73 52t47 106.5l17 -3q-5 -26 -5 -49q0 -71 44.5 -96t129.5 -25h5q22 0 41 -34t19 -81t-18.5 -81t-41.5 -34h-22q-104 0 -156.5 37.5t-89.5 128.5l65 -11q-39 -67 -93 -111t-124 -44h-20zM116 736
q68 -46 111 -111l-111 -111q-42 62 -111 111zM309 736q68 -46 111 -111l-111 -111q-42 62 -111 111zM196 -154q-66 0 -86.5 40.5t-20.5 90.5q0 31 12 65t36 58.5t59 24.5q36 0 60 -24.5t36.5 -58.5t12.5 -65q0 -50 -21.5 -90.5t-87.5 -40.5zM196 -69q28 0 48.5 9.5
t20.5 43.5q0 35 -20.5 57.5t-48.5 22.5t-47.5 -22.5t-19.5 -57.5q0 -37 19.5 -45t47.5 -8z" />
    <glyph glyph-name="uni067C.fina" unicode="&#x67c;" horiz-adv-x="1175" 
d="M1027 403l15 -3q0 -91 30 -130.5t103 -39.5q29 0 43 -42.5t14 -77.5t-14 -72.5t-43 -37.5q-172 0 -191 163l7 -5q-70 -87 -204 -130t-294 -43q-129 0 -231.5 29.5t-162 92.5t-59.5 163q0 67 36.5 138.5t77.5 110.5l14 -7q-17 -29 -31 -69t-14 -74q0 -56 58.5 -89.5
t157.5 -49t218 -15.5q130 0 217 20.5t146.5 62.5t106.5 105zM483 654q68 -46 111 -111l-111 -111q-42 62 -111 111zM676 654q68 -46 111 -111l-111 -111q-42 62 -111 111zM531 -234q-66 0 -86.5 40.5t-20.5 90.5q0 31 12 65t36 58.5t59 24.5q36 0 60 -24.5t36.5 -58.5
t12.5 -65q0 -50 -21.5 -90.5t-87.5 -40.5zM531 -149q28 0 48.5 9.5t20.5 43.5q0 35 -20.5 57.5t-48.5 22.5t-47.5 -22.5t-19.5 -57.5q0 -37 19.5 -45t47.5 -8z" />
    <glyph glyph-name="uni067D.init" unicode="&#x67d;" horiz-adv-x="353" 
d="M0 230h64q90 0 139.5 21t49.5 36q0 23 -23 48t-51 40l78 200q30 -44 43 -98t13 -109q0 -95 -34 -179t-95 -136.5t-142 -52.5h-42q-25 0 -37 41.5t-12 76.5t12 73.5t37 38.5zM194 897q68 -46 111 -111l-111 -111q-42 62 -111 111zM97 1102q68 -46 111 -111l-111 -111
q-42 62 -111 111zM290 1102q68 -46 111 -111l-111 -111q-42 62 -111 111z" />
    <glyph glyph-name="uni067D.medi" unicode="&#x67d;" horiz-adv-x="440" 
d="M0 0q-21 0 -36.5 34t-15.5 81t15.5 81t36.5 34h5q78 0 124 14.5t73 52t47 106.5l17 -3q-5 -26 -5 -49q0 -71 44.5 -96t129.5 -25h5q22 0 41 -34t19 -81t-18.5 -81t-41.5 -34h-22q-104 0 -156.5 37.5t-89.5 128.5l65 -11q-39 -67 -93 -111t-124 -44h-20zM212 738
q68 -46 111 -111l-111 -111q-42 62 -111 111zM116 944q68 -46 111 -111l-111 -111q-42 62 -111 111zM309 944q68 -46 111 -111l-111 -111q-42 62 -111 111z" />
    <glyph glyph-name="uni067D.fina" unicode="&#x67d;" horiz-adv-x="1175" 
d="M1027 403l15 -3q0 -91 30 -130.5t103 -39.5q29 0 43 -42.5t14 -77.5t-14 -72.5t-43 -37.5q-172 0 -191 163l7 -5q-70 -87 -204 -130t-294 -43q-129 0 -231.5 29.5t-162 92.5t-59.5 163q0 67 36.5 138.5t77.5 110.5l14 -7q-17 -29 -31 -69t-14 -74q0 -56 58.5 -89.5
t157.5 -49t218 -15.5q130 0 217 20.5t146.5 62.5t106.5 105zM579 657q68 -46 111 -111l-111 -111q-42 62 -111 111zM483 862q68 -46 111 -111l-111 -111q-42 62 -111 111zM676 862q68 -46 111 -111l-111 -111q-42 62 -111 111z" />
    <glyph glyph-name="uni067E.init" unicode="&#x67e;" horiz-adv-x="353" arabic-form="initial" 
d="M0 230h64q90 0 139.5 21t49.5 36q0 23 -23 48t-51 40l78 200q30 -44 43 -98t13 -109q0 -95 -34 -179t-95 -136.5t-142 -52.5h-42q-25 0 -37 41.5t-12 76.5t12 73.5t37 38.5zM199 -348q68 -46 111 -111l-111 -111q-42 62 -111 111zM103 -143q68 -46 111 -111l-111 -111
q-42 62 -111 111zM296 -143q68 -46 111 -111l-111 -111q-42 62 -111 111z" />
    <glyph glyph-name="uni067E.medi" unicode="&#x67e;" horiz-adv-x="440" arabic-form="medial" 
d="M0 0q-21 0 -36.5 34t-15.5 81t15.5 81t36.5 34h5q78 0 124 14.5t73 52t47 106.5l17 -3q-5 -26 -5 -49q0 -71 44.5 -96t129.5 -25h5q22 0 41 -34t19 -81t-18.5 -81t-41.5 -34h-22q-104 0 -156.5 37.5t-89.5 128.5l65 -11q-39 -67 -93 -111t-124 -44h-20zM203 -348
q68 -46 111 -111l-111 -111q-42 62 -111 111zM107 -143q68 -46 111 -111l-111 -111q-42 62 -111 111zM300 -143q68 -46 111 -111l-111 -111q-42 62 -111 111z" />
    <glyph glyph-name="uni067E.fina" unicode="&#x67e;" horiz-adv-x="1175" arabic-form="final" 
d="M1027 403l15 -3q0 -91 30 -130.5t103 -39.5q29 0 43 -42.5t14 -77.5t-14 -72.5t-43 -37.5q-172 0 -191 163l7 -5q-70 -87 -204 -130t-294 -43q-129 0 -231.5 29.5t-162 92.5t-59.5 163q0 67 36.5 138.5t77.5 110.5l14 -7q-17 -29 -31 -69t-14 -74q0 -56 58.5 -89.5
t157.5 -49t218 -15.5q130 0 217 20.5t146.5 62.5t106.5 105zM498 -348q68 -46 111 -111l-111 -111q-42 62 -111 111zM402 -143q68 -46 111 -111l-111 -111q-42 62 -111 111zM595 -143q68 -46 111 -111l-111 -111q-42 62 -111 111z" />
    <glyph glyph-name="uni067F.init" unicode="&#x67f;" horiz-adv-x="353" arabic-form="initial" 
d="M0 230h64q90 0 139.5 21t49.5 36q0 23 -23 48t-51 40l78 200q30 -44 43 -98t13 -109q0 -95 -34 -179t-95 -136.5t-142 -52.5h-42q-25 0 -37 41.5t-12 76.5t12 73.5t37 38.5zM95 1092q68 -46 111 -111l-111 -111q-42 62 -111 111zM288 1092q68 -46 111 -111l-111 -111
q-42 62 -111 111zM95 896q68 -46 111 -111l-111 -111q-42 62 -111 111zM288 896q68 -46 111 -111l-111 -111q-42 62 -111 111z" />
    <glyph glyph-name="uni067F.medi" unicode="&#x67f;" horiz-adv-x="440" arabic-form="medial" 
d="M0 0q-21 0 -36.5 34t-15.5 81t15.5 81t36.5 34h5q78 0 124 14.5t73 52t47 106.5l17 -3q-5 -26 -5 -49q0 -71 44.5 -96t129.5 -25h5q22 0 41 -34t19 -81t-18.5 -81t-41.5 -34h-22q-104 0 -156.5 37.5t-89.5 128.5l65 -11q-39 -67 -93 -111t-124 -44h-20zM113 933
q68 -46 111 -111l-111 -111q-42 62 -111 111zM306 933q68 -46 111 -111l-111 -111q-42 62 -111 111zM113 738q68 -46 111 -111l-111 -111q-42 62 -111 111zM306 738q68 -46 111 -111l-111 -111q-42 62 -111 111z" />
    <glyph glyph-name="uni067F.fina" unicode="&#x67f;" horiz-adv-x="1175" arabic-form="final" 
d="M1027 403l15 -3q0 -91 30 -130.5t103 -39.5q29 0 43 -42.5t14 -77.5t-14 -72.5t-43 -37.5q-172 0 -191 163l7 -5q-70 -87 -204 -130t-294 -43q-129 0 -231.5 29.5t-162 92.5t-59.5 163q0 67 36.5 138.5t77.5 110.5l14 -7q-17 -29 -31 -69t-14 -74q0 -56 58.5 -89.5
t157.5 -49t218 -15.5q130 0 217 20.5t146.5 62.5t106.5 105zM480 852q68 -46 111 -111l-111 -111q-42 62 -111 111zM673 852q68 -46 111 -111l-111 -111q-42 62 -111 111zM480 656q68 -46 111 -111l-111 -111q-42 62 -111 111zM673 656q68 -46 111 -111l-111 -111
q-42 62 -111 111z" />
    <glyph glyph-name="uni0680.init" unicode="&#x680;" horiz-adv-x="353" arabic-form="initial" 
d="M0 230h64q90 0 139.5 21t49.5 36q0 23 -23 48t-51 40l78 200q30 -44 43 -98t13 -109q0 -95 -34 -179t-95 -136.5t-142 -52.5h-42q-25 0 -37 41.5t-12 76.5t12 73.5t37 38.5zM100 -153q68 -46 111 -111l-111 -111q-42 62 -111 111zM293 -153q68 -46 111 -111l-111 -111
q-42 62 -111 111zM100 -349q68 -46 111 -111l-111 -111q-42 62 -111 111zM293 -349q68 -46 111 -111l-111 -111q-42 62 -111 111z" />
    <glyph glyph-name="uni0680.medi" unicode="&#x680;" horiz-adv-x="440" arabic-form="medial" 
d="M0 0q-21 0 -36.5 34t-15.5 81t15.5 81t36.5 34h5q78 0 124 14.5t73 52t47 106.5l17 -3q-5 -26 -5 -49q0 -71 44.5 -96t129.5 -25h5q22 0 41 -34t19 -81t-18.5 -81t-41.5 -34h-22q-104 0 -156.5 37.5t-89.5 128.5l65 -11q-39 -67 -93 -111t-124 -44h-20zM104 -153
q68 -46 111 -111l-111 -111q-42 62 -111 111zM297 -153q68 -46 111 -111l-111 -111q-42 62 -111 111zM104 -349q68 -46 111 -111l-111 -111q-42 62 -111 111zM297 -349q68 -46 111 -111l-111 -111q-42 62 -111 111z" />
    <glyph glyph-name="uni0680.fina" unicode="&#x680;" horiz-adv-x="1175" arabic-form="final" 
d="M1027 403l15 -3q0 -91 30 -130.5t103 -39.5q29 0 43 -42.5t14 -77.5t-14 -72.5t-43 -37.5q-172 0 -191 163l7 -5q-70 -87 -204 -130t-294 -43q-129 0 -231.5 29.5t-162 92.5t-59.5 163q0 67 36.5 138.5t77.5 110.5l14 -7q-17 -29 -31 -69t-14 -74q0 -56 58.5 -89.5
t157.5 -49t218 -15.5q130 0 217 20.5t146.5 62.5t106.5 105zM399 -153q68 -46 111 -111l-111 -111q-42 62 -111 111zM592 -153q68 -46 111 -111l-111 -111q-42 62 -111 111zM399 -349q68 -46 111 -111l-111 -111q-42 62 -111 111zM592 -349q68 -46 111 -111l-111 -111
q-42 62 -111 111z" />
    <glyph glyph-name="uni0681.init" unicode="&#x681;" horiz-adv-x="845" 
d="M5 0q-30 0 -40.5 34t-10.5 81t12 81t34 34q108 0 182 21t132.5 52t118 62t137.5 52t192 21l-32 -151q-95 0 -166 24t-128.5 55.5t-109 55.5t-105.5 24q-50 0 -87.5 -20t-74.5 -60l-19 7q17 109 74.5 188t148.5 79q62 0 112 -23t105.5 -53t131.5 -52.5t191 -22.5l-48 -219
q-113 -1 -189 -28t-134 -67t-114.5 -80.5t-130 -67.5t-182.5 -27zM378 815q-45 23 -45 71q0 109 35 161t87 52q27 0 54.5 -14.5t43.5 -40.5l-13 -25q-13 4 -32 4q-47 0 -95 -21t-58 -58l4 23q7 -66 95 -66q27 0 63 8zM630 922l-60 -97q-55 0 -120.5 -12.5t-137.5 -77.5
l-35 25q68 70 148 116t205 46z" />
    <glyph glyph-name="uni0681.medi" unicode="&#x681;" horiz-adv-x="867" 
d="M5 0q-30 0 -43 34t-13 81t12.5 81t38.5 34q104 0 178 17t135.5 45.5t126 62.5t148 69.5t203.5 65.5l-42 -163q-108 -12 -184 4.5t-133.5 43.5t-107 49t-103.5 22q-50 0 -87.5 -20t-74.5 -60l-19 7q17 109 74.5 188t148.5 79q62 0 114.5 -22t111.5 -48t139.5 -41t199.5 -2
l-55 -219q-107 -27 -183 -66t-137.5 -81t-123 -78.5t-138.5 -59.5t-186 -23zM867 0q-141 0 -198.5 81.5t-66.5 245.5l45 12q6 -54 26.5 -77t66 -27.5t127.5 -4.5q30 0 41.5 -40t11.5 -75t-11.5 -75t-41.5 -40zM378 815q-45 23 -45 71q0 109 35 161t87 52q27 0 54.5 -14.5
t43.5 -40.5l-13 -25q-13 4 -32 4q-47 0 -95 -21t-58 -58l4 23q7 -66 95 -66q27 0 63 8zM630 922l-60 -97q-55 0 -120.5 -12.5t-137.5 -77.5l-35 25q68 70 148 116t205 46z" />
    <glyph glyph-name="uni0681.fina" unicode="&#x681;" horiz-adv-x="889" 
d="M549 398q0 -94 60.5 -131t145.5 -37h134q32 0 47 -40t15 -75t-15 -75t-47 -40h-114q-99 0 -159 54t-87 144.5t-27 199.5h47zM623 -724q-198 0 -327.5 81t-192.5 210.5t-63 275.5q0 152 75.5 297.5t264.5 263.5l2 -7q-30 3 -62 12t-66 9q-68 0 -114.5 -42t-64.5 -72l-15 6
q5 69 35 142t85.5 123t139.5 50q49 0 100.5 -15.5t115 -30.5t148.5 -15q68 0 135 6l-92 -216q-29 4 -66 4q-103 0 -201 -36.5t-177 -102t-125.5 -153.5t-46.5 -190q0 -138 71.5 -219.5t200 -116.5t297.5 -35h223v-26zM401 778q-45 23 -45 71q0 109 35 161t87 52
q27 0 54.5 -14.5t43.5 -40.5l-13 -25q-13 4 -32 4q-47 0 -95 -21t-58 -58l4 23q7 -66 95 -66q27 0 63 8zM653 885l-60 -97q-55 0 -120.5 -12.5t-137.5 -77.5l-35 25q68 70 148 116t205 46z" />
    <glyph glyph-name="uni0682.init" unicode="&#x682;" horiz-adv-x="845" 
d="M5 0q-30 0 -40.5 34t-10.5 81t12 81t34 34q108 0 182 21t132.5 52t118 62t137.5 52t192 21l-32 -151q-95 0 -166 24t-128.5 55.5t-109 55.5t-105.5 24q-50 0 -87.5 -20t-74.5 -60l-19 7q17 109 74.5 188t148.5 79q62 0 112 -23t105.5 -53t131.5 -52.5t191 -22.5l-48 -219
q-113 -1 -189 -28t-134 -67t-114.5 -80.5t-130 -67.5t-182.5 -27zM463 995q68 -46 111 -111l-111 -111q-42 62 -111 111zM463 1189q68 -46 111 -111l-111 -111q-42 62 -111 111z" />
    <glyph glyph-name="uni0682.medi" unicode="&#x682;" horiz-adv-x="867" 
d="M5 0q-30 0 -43 34t-13 81t12.5 81t38.5 34q104 0 178 17t135.5 45.5t126 62.5t148 69.5t203.5 65.5l-42 -163q-108 -12 -184 4.5t-133.5 43.5t-107 49t-103.5 22q-50 0 -87.5 -20t-74.5 -60l-19 7q17 109 74.5 188t148.5 79q62 0 114.5 -22t111.5 -48t139.5 -41t199.5 -2
l-55 -219q-107 -27 -183 -66t-137.5 -81t-123 -78.5t-138.5 -59.5t-186 -23zM867 0q-141 0 -198.5 81.5t-66.5 245.5l45 12q6 -54 26.5 -77t66 -27.5t127.5 -4.5q30 0 41.5 -40t11.5 -75t-11.5 -75t-41.5 -40zM463 995q68 -46 111 -111l-111 -111q-42 62 -111 111zM463 1189
q68 -46 111 -111l-111 -111q-42 62 -111 111z" />
    <glyph glyph-name="uni0682.fina" unicode="&#x682;" horiz-adv-x="889" 
d="M549 398q0 -94 60.5 -131t145.5 -37h134q32 0 47 -40t15 -75t-15 -75t-47 -40h-114q-99 0 -159 54t-87 144.5t-27 199.5h47zM623 -724q-198 0 -327.5 81t-192.5 210.5t-63 275.5q0 152 75.5 297.5t264.5 263.5l2 -7q-30 3 -62 12t-66 9q-68 0 -114.5 -42t-64.5 -72l-15 6
q5 69 35 142t85.5 123t139.5 50q49 0 100.5 -15.5t115 -30.5t148.5 -15q68 0 135 6l-92 -216q-29 4 -66 4q-103 0 -201 -36.5t-177 -102t-125.5 -153.5t-46.5 -190q0 -138 71.5 -219.5t200 -116.5t297.5 -35h223v-26zM486 958q68 -46 111 -111l-111 -111q-42 62 -111 111z
M486 1152q68 -46 111 -111l-111 -111q-42 62 -111 111z" />
    <glyph glyph-name="uni0683.init" unicode="&#x683;" horiz-adv-x="845" arabic-form="initial" 
d="M5 0q-30 0 -40.5 34t-10.5 81t12 81t34 34q108 0 182 21t132.5 52t118 62t137.5 52t192 21l-32 -151q-95 0 -166 24t-128.5 55.5t-109 55.5t-105.5 24q-50 0 -87.5 -20t-74.5 -60l-19 7q17 109 74.5 188t148.5 79q62 0 112 -23t105.5 -53t131.5 -52.5t191 -22.5l-48 -219
q-113 -1 -189 -28t-134 -67t-114.5 -80.5t-130 -67.5t-182.5 -27zM241 -69q68 -46 111 -111l-111 -111q-42 62 -111 111zM434 -69q68 -46 111 -111l-111 -111q-42 62 -111 111z" />
    <glyph glyph-name="uni0683.medi" unicode="&#x683;" horiz-adv-x="867" arabic-form="medial" 
d="M5 0q-30 0 -43 34t-13 81t12.5 81t38.5 34q104 0 178 17t135.5 45.5t126 62.5t148 69.5t203.5 65.5l-42 -163q-108 -12 -184 4.5t-133.5 43.5t-107 49t-103.5 22q-50 0 -87.5 -20t-74.5 -60l-19 7q17 109 74.5 188t148.5 79q62 0 114.5 -22t111.5 -48t139.5 -41t199.5 -2
l-55 -219q-107 -27 -183 -66t-137.5 -81t-123 -78.5t-138.5 -59.5t-186 -23zM867 0q-141 0 -198.5 81.5t-66.5 245.5l45 12q6 -54 26.5 -77t66 -27.5t127.5 -4.5q30 0 41.5 -40t11.5 -75t-11.5 -75t-41.5 -40zM271 -69q68 -46 111 -111l-111 -111q-42 62 -111 111zM464 -69
q68 -46 111 -111l-111 -111q-42 62 -111 111z" />
    <glyph glyph-name="uni0683.fina" unicode="&#x683;" horiz-adv-x="889" arabic-form="final" 
d="M549 398q0 -94 60.5 -131t145.5 -37h134q32 0 47 -40t15 -75t-15 -75t-47 -40h-114q-99 0 -159 54t-87 144.5t-27 199.5h47zM623 -724q-198 0 -327.5 81t-192.5 210.5t-63 275.5q0 152 75.5 297.5t264.5 263.5l2 -7q-30 3 -62 12t-66 9q-68 0 -114.5 -42t-64.5 -72l-15 6
q5 69 35 142t85.5 123t139.5 50q49 0 100.5 -15.5t115 -30.5t148.5 -15q68 0 135 6l-92 -216q-29 4 -66 4q-103 0 -201 -36.5t-177 -102t-125.5 -153.5t-46.5 -190q0 -138 71.5 -219.5t200 -116.5t297.5 -35h223v-26zM338 -51q68 -46 111 -111l-111 -111q-42 62 -111 111z
M531 -51q68 -46 111 -111l-111 -111q-42 62 -111 111z" />
    <glyph glyph-name="uni0684.init" unicode="&#x684;" horiz-adv-x="845" arabic-form="initial" 
d="M5 0q-30 0 -40.5 34t-10.5 81t12 81t34 34q108 0 182 21t132.5 52t118 62t137.5 52t192 21l-32 -151q-95 0 -166 24t-128.5 55.5t-109 55.5t-105.5 24q-50 0 -87.5 -20t-74.5 -60l-19 7q17 109 74.5 188t148.5 79q62 0 112 -23t105.5 -53t131.5 -52.5t191 -22.5l-48 -219
q-113 -1 -189 -28t-134 -67t-114.5 -80.5t-130 -67.5t-182.5 -27zM337 -273q68 -46 111 -111l-111 -111q-42 62 -111 111zM337 -79q68 -46 111 -111l-111 -111q-42 62 -111 111z" />
    <glyph glyph-name="uni0684.medi" unicode="&#x684;" horiz-adv-x="867" arabic-form="medial" 
d="M5 0q-30 0 -43 34t-13 81t12.5 81t38.5 34q104 0 178 17t135.5 45.5t126 62.5t148 69.5t203.5 65.5l-42 -163q-108 -12 -184 4.5t-133.5 43.5t-107 49t-103.5 22q-50 0 -87.5 -20t-74.5 -60l-19 7q17 109 74.5 188t148.5 79q62 0 114.5 -22t111.5 -48t139.5 -41t199.5 -2
l-55 -219q-107 -27 -183 -66t-137.5 -81t-123 -78.5t-138.5 -59.5t-186 -23zM867 0q-141 0 -198.5 81.5t-66.5 245.5l45 12q6 -54 26.5 -77t66 -27.5t127.5 -4.5q30 0 41.5 -40t11.5 -75t-11.5 -75t-41.5 -40zM367 -273q68 -46 111 -111l-111 -111q-42 62 -111 111zM367 -79
q68 -46 111 -111l-111 -111q-42 62 -111 111z" />
    <glyph glyph-name="uni0684.fina" unicode="&#x684;" horiz-adv-x="889" arabic-form="final" 
d="M549 398q0 -94 60.5 -131t145.5 -37h134q32 0 47 -40t15 -75t-15 -75t-47 -40h-114q-99 0 -159 54t-87 144.5t-27 199.5h47zM623 -724q-198 0 -327.5 81t-192.5 210.5t-63 275.5q0 152 75.5 297.5t264.5 263.5l2 -7q-30 3 -62 12t-66 9q-68 0 -114.5 -42t-64.5 -72l-15 6
q5 69 35 142t85.5 123t139.5 50q49 0 100.5 -15.5t115 -30.5t148.5 -15q68 0 135 6l-92 -216q-29 4 -66 4q-103 0 -201 -36.5t-177 -102t-125.5 -153.5t-46.5 -190q0 -138 71.5 -219.5t200 -116.5t297.5 -35h223v-26zM434 -149q68 -46 111 -111l-111 -111q-42 62 -111 111z
M434 45q68 -46 111 -111l-111 -111q-42 62 -111 111z" />
    <glyph glyph-name="uni0685.init" unicode="&#x685;" horiz-adv-x="845" 
d="M5 0q-30 0 -40.5 34t-10.5 81t12 81t34 34q108 0 182 21t132.5 52t118 62t137.5 52t192 21l-32 -151q-95 0 -166 24t-128.5 55.5t-109 55.5t-105.5 24q-50 0 -87.5 -20t-74.5 -60l-19 7q17 109 74.5 188t148.5 79q62 0 112 -23t105.5 -53t131.5 -52.5t191 -22.5l-48 -219
q-113 -1 -189 -28t-134 -67t-114.5 -80.5t-130 -67.5t-182.5 -27zM462 1196q68 -46 111 -111l-111 -111q-42 62 -111 111zM367 990q68 -46 111 -111l-111 -111q-42 62 -111 111zM560 990q68 -46 111 -111l-111 -111q-42 62 -111 111z" />
    <glyph glyph-name="uni0685.medi" unicode="&#x685;" horiz-adv-x="867" 
d="M5 0q-30 0 -43 34t-13 81t12.5 81t38.5 34q104 0 178 17t135.5 45.5t126 62.5t148 69.5t203.5 65.5l-42 -163q-108 -12 -184 4.5t-133.5 43.5t-107 49t-103.5 22q-50 0 -87.5 -20t-74.5 -60l-19 7q17 109 74.5 188t148.5 79q62 0 114.5 -22t111.5 -48t139.5 -41t199.5 -2
l-55 -219q-107 -27 -183 -66t-137.5 -81t-123 -78.5t-138.5 -59.5t-186 -23zM867 0q-141 0 -198.5 81.5t-66.5 245.5l45 12q6 -54 26.5 -77t66 -27.5t127.5 -4.5q30 0 41.5 -40t11.5 -75t-11.5 -75t-41.5 -40zM462 1196q68 -46 111 -111l-111 -111q-42 62 -111 111zM367 990
q68 -46 111 -111l-111 -111q-42 62 -111 111zM560 990q68 -46 111 -111l-111 -111q-42 62 -111 111z" />
    <glyph glyph-name="uni0685.fina" unicode="&#x685;" horiz-adv-x="889" 
d="M549 398q0 -94 60.5 -131t145.5 -37h134q32 0 47 -40t15 -75t-15 -75t-47 -40h-114q-99 0 -159 54t-87 144.5t-27 199.5h47zM623 -724q-198 0 -327.5 81t-192.5 210.5t-63 275.5q0 152 75.5 297.5t264.5 263.5l2 -7q-30 3 -62 12t-66 9q-68 0 -114.5 -42t-64.5 -72l-15 6
q5 69 35 142t85.5 123t139.5 50q49 0 100.5 -15.5t115 -30.5t148.5 -15q68 0 135 6l-92 -216q-29 4 -66 4q-103 0 -201 -36.5t-177 -102t-125.5 -153.5t-46.5 -190q0 -138 71.5 -219.5t200 -116.5t297.5 -35h223v-26zM485 1159q68 -46 111 -111l-111 -111q-42 62 -111 111z
M390 953q68 -46 111 -111l-111 -111q-42 62 -111 111zM583 953q68 -46 111 -111l-111 -111q-42 62 -111 111z" />
    <glyph glyph-name="uni0686.init" unicode="&#x686;" horiz-adv-x="845" arabic-form="initial" 
d="M5 0q-30 0 -40.5 34t-10.5 81t12 81t34 34q108 0 182 21t132.5 52t118 62t137.5 52t192 21l-32 -151q-95 0 -166 24t-128.5 55.5t-109 55.5t-105.5 24q-50 0 -87.5 -20t-74.5 -60l-19 7q17 109 74.5 188t148.5 79q62 0 112 -23t105.5 -53t131.5 -52.5t191 -22.5l-48 -219
q-113 -1 -189 -28t-134 -67t-114.5 -80.5t-130 -67.5t-182.5 -27zM337 -278q68 -46 111 -111l-111 -111q-42 62 -111 111zM241 -73q68 -46 111 -111l-111 -111q-42 62 -111 111zM434 -73q68 -46 111 -111l-111 -111q-42 62 -111 111z" />
    <glyph glyph-name="uni0686.medi" unicode="&#x686;" horiz-adv-x="867" arabic-form="medial" 
d="M5 0q-30 0 -43 34t-13 81t12.5 81t38.5 34q104 0 178 17t135.5 45.5t126 62.5t148 69.5t203.5 65.5l-42 -163q-108 -12 -184 4.5t-133.5 43.5t-107 49t-103.5 22q-50 0 -87.5 -20t-74.5 -60l-19 7q17 109 74.5 188t148.5 79q62 0 114.5 -22t111.5 -48t139.5 -41t199.5 -2
l-55 -219q-107 -27 -183 -66t-137.5 -81t-123 -78.5t-138.5 -59.5t-186 -23zM867 0q-141 0 -198.5 81.5t-66.5 245.5l45 12q6 -54 26.5 -77t66 -27.5t127.5 -4.5q30 0 41.5 -40t11.5 -75t-11.5 -75t-41.5 -40zM367 -278q68 -46 111 -111l-111 -111q-42 62 -111 111zM271 -73
q68 -46 111 -111l-111 -111q-42 62 -111 111zM464 -73q68 -46 111 -111l-111 -111q-42 62 -111 111z" />
    <glyph glyph-name="uni0686.fina" unicode="&#x686;" horiz-adv-x="889" arabic-form="final" 
d="M549 398q0 -94 60.5 -131t145.5 -37h134q32 0 47 -40t15 -75t-15 -75t-47 -40h-114q-99 0 -159 54t-87 144.5t-27 199.5h47zM623 -724q-198 0 -327.5 81t-192.5 210.5t-63 275.5q0 152 75.5 297.5t264.5 263.5l2 -7q-30 3 -62 12t-66 9q-68 0 -114.5 -42t-64.5 -72l-15 6
q5 69 35 142t85.5 123t139.5 50q49 0 100.5 -15.5t115 -30.5t148.5 -15q68 0 135 6l-92 -216q-29 4 -66 4q-103 0 -201 -36.5t-177 -102t-125.5 -153.5t-46.5 -190q0 -138 71.5 -219.5t200 -116.5t297.5 -35h223v-26zM434 -152q68 -46 111 -111l-111 -111q-42 62 -111 111z
M338 53q68 -46 111 -111l-111 -111q-42 62 -111 111zM531 53q68 -46 111 -111l-111 -111q-42 62 -111 111z" />
    <glyph glyph-name="uni0687.init" unicode="&#x687;" horiz-adv-x="845" arabic-form="initial" 
d="M5 0q-30 0 -40.5 34t-10.5 81t12 81t34 34q108 0 182 21t132.5 52t118 62t137.5 52t192 21l-32 -151q-95 0 -166 24t-128.5 55.5t-109 55.5t-105.5 24q-50 0 -87.5 -20t-74.5 -60l-19 7q17 109 74.5 188t148.5 79q62 0 112 -23t105.5 -53t131.5 -52.5t191 -22.5l-48 -219
q-113 -1 -189 -28t-134 -67t-114.5 -80.5t-130 -67.5t-182.5 -27zM238 -83q68 -46 111 -111l-111 -111q-42 62 -111 111zM431 -83q68 -46 111 -111l-111 -111q-42 62 -111 111zM238 -279q68 -46 111 -111l-111 -111q-42 62 -111 111zM431 -279q68 -46 111 -111l-111 -111
q-42 62 -111 111z" />
    <glyph glyph-name="uni0687.medi" unicode="&#x687;" horiz-adv-x="867" arabic-form="medial" 
d="M5 0q-30 0 -43 34t-13 81t12.5 81t38.5 34q104 0 178 17t135.5 45.5t126 62.5t148 69.5t203.5 65.5l-42 -163q-108 -12 -184 4.5t-133.5 43.5t-107 49t-103.5 22q-50 0 -87.5 -20t-74.5 -60l-19 7q17 109 74.5 188t148.5 79q62 0 114.5 -22t111.5 -48t139.5 -41t199.5 -2
l-55 -219q-107 -27 -183 -66t-137.5 -81t-123 -78.5t-138.5 -59.5t-186 -23zM867 0q-141 0 -198.5 81.5t-66.5 245.5l45 12q6 -54 26.5 -77t66 -27.5t127.5 -4.5q30 0 41.5 -40t11.5 -75t-11.5 -75t-41.5 -40zM268 -83q68 -46 111 -111l-111 -111q-42 62 -111 111zM461 -83
q68 -46 111 -111l-111 -111q-42 62 -111 111zM268 -279q68 -46 111 -111l-111 -111q-42 62 -111 111zM461 -279q68 -46 111 -111l-111 -111q-42 62 -111 111z" />
    <glyph glyph-name="uni0687.fina" unicode="&#x687;" horiz-adv-x="889" arabic-form="final" 
d="M549 398q0 -94 60.5 -131t145.5 -37h134q32 0 47 -40t15 -75t-15 -75t-47 -40h-114q-99 0 -159 54t-87 144.5t-27 199.5h47zM623 -724q-198 0 -327.5 81t-192.5 210.5t-63 275.5q0 152 75.5 297.5t264.5 263.5l2 -7q-30 3 -62 12t-66 9q-68 0 -114.5 -42t-64.5 -72l-15 6
q5 69 35 142t85.5 123t139.5 50q49 0 100.5 -15.5t115 -30.5t148.5 -15q68 0 135 6l-92 -216q-29 4 -66 4q-103 0 -201 -36.5t-177 -102t-125.5 -153.5t-46.5 -190q0 -138 71.5 -219.5t200 -116.5t297.5 -35h223v-26zM335 41q68 -46 111 -111l-111 -111q-42 62 -111 111z
M528 41q68 -46 111 -111l-111 -111q-42 62 -111 111zM335 -155q68 -46 111 -111l-111 -111q-42 62 -111 111zM528 -155q68 -46 111 -111l-111 -111q-42 62 -111 111z" />
    <glyph glyph-name="uni0688.fina" unicode="&#x688;" horiz-adv-x="644" arabic-form="final" 
d="M618 0q-53 0 -94.5 28t-79 101t-77.5 207.5t-91 347.5l75 86l93 -426q17 -80 60 -97t140 -17q27 0 40.5 -40t13.5 -75t-13.5 -75t-40.5 -40h-26zM173 -15q-91 0 -133 48l21 226q24 -29 63.5 -40t97.5 -11q70 0 115.5 32.5t33.5 79.5l72 -30q0 -135 -76 -220t-194 -85z
M316 891l-13 94q90 0 163 9.5t73 30.5q0 14 -16.5 26.5t-49.5 12.5q-13 0 -43.5 -14t-63 -35t-52.5 -43l-23 2q63 68 119.5 115.5t101.5 47.5q40 0 56.5 -20t16.5 -47q0 -45 -39.5 -86t-101 -67t-128.5 -26zM317 891q-71 0 -113.5 36t-58.5 75l2 4q35 -11 78 -16t79 -5z
M333 1006l-9 244l36 -20v-200zM377 1203q-75 28 -75 64q0 18 18.5 46.5t34.5 41.5l7 -4q-13 -30 7 -50t58 -31z" />
    <glyph glyph-name="uni0689.fina" unicode="&#x689;" horiz-adv-x="644" 
d="M618 0q-53 0 -94.5 28t-79 101t-77.5 207.5t-91 347.5l75 86l93 -426q17 -80 60 -97t140 -17q27 0 40.5 -40t13.5 -75t-13.5 -75t-40.5 -40h-26zM173 -15q-91 0 -133 48l21 226q24 -29 63.5 -40t97.5 -11q70 0 115.5 32.5t33.5 79.5l72 -30q0 -135 -76 -220t-194 -85z
M198 -233q-66 0 -86.5 40.5t-20.5 90.5q0 31 12 65t36 58.5t59 24.5q36 0 60 -24.5t36.5 -58.5t12.5 -65q0 -50 -21.5 -90.5t-87.5 -40.5zM198 -148q28 0 48.5 9.5t20.5 43.5q0 35 -20.5 57.5t-48.5 22.5t-47.5 -22.5t-19.5 -57.5q0 -37 19.5 -45t47.5 -8z" />
    <glyph glyph-name="uni068A.fina" unicode="&#x68a;" horiz-adv-x="644" 
d="M618 0q-53 0 -94.5 28t-79 101t-77.5 207.5t-91 347.5l75 86l93 -426q17 -80 60 -97t140 -17q27 0 40.5 -40t13.5 -75t-13.5 -75t-40.5 -40h-26zM173 -15q-91 0 -133 48l21 226q24 -29 63.5 -40t97.5 -11q70 0 115.5 32.5t33.5 79.5l72 -30q0 -135 -76 -220t-194 -85z
M249 -158q68 -46 111 -111l-111 -111q-42 62 -111 111z" />
    <glyph glyph-name="uni068B.fina" unicode="&#x68b;" horiz-adv-x="644" 
d="M618 0q-53 0 -94.5 28t-79 101t-77.5 207.5t-91 347.5l75 86l93 -426q17 -80 60 -97t140 -17q27 0 40.5 -40t13.5 -75t-13.5 -75t-40.5 -40h-26zM173 -15q-91 0 -133 48l21 226q24 -29 63.5 -40t97.5 -11q70 0 115.5 32.5t33.5 79.5l72 -30q0 -135 -76 -220t-194 -85z
M316 891l-13 94q90 0 163 9.5t73 30.5q0 14 -16.5 26.5t-49.5 12.5q-13 0 -43.5 -14t-63 -35t-52.5 -43l-23 2q63 68 119.5 115.5t101.5 47.5q40 0 56.5 -20t16.5 -47q0 -45 -39.5 -86t-101 -67t-128.5 -26zM317 891q-71 0 -113.5 36t-58.5 75l2 4q35 -11 78 -16t79 -5z
M333 1006l-9 244l36 -20v-200zM377 1203q-75 28 -75 64q0 18 18.5 46.5t34.5 41.5l7 -4q-13 -30 7 -50t58 -31zM249 -158q68 -46 111 -111l-111 -111q-42 62 -111 111z" />
    <glyph glyph-name="uni068C.fina" unicode="&#x68c;" horiz-adv-x="644" arabic-form="final" 
d="M618 0q-53 0 -94.5 28t-79 101t-77.5 207.5t-91 347.5l75 86l93 -426q17 -80 60 -97t140 -17q27 0 40.5 -40t13.5 -75t-13.5 -75t-40.5 -40h-26zM173 -15q-91 0 -133 48l21 226q24 -29 63.5 -40t97.5 -11q70 0 115.5 32.5t33.5 79.5l72 -30q0 -135 -76 -220t-194 -85z
M253 1114q68 -46 111 -111l-111 -111q-42 62 -111 111zM446 1114q68 -46 111 -111l-111 -111q-42 62 -111 111z" />
    <glyph glyph-name="uni068D.fina" unicode="&#x68d;" horiz-adv-x="644" arabic-form="final" 
d="M618 0q-53 0 -94.5 28t-79 101t-77.5 207.5t-91 347.5l75 86l93 -426q17 -80 60 -97t140 -17q27 0 40.5 -40t13.5 -75t-13.5 -75t-40.5 -40h-26zM173 -15q-91 0 -133 48l21 226q24 -29 63.5 -40t97.5 -11q70 0 115.5 32.5t33.5 79.5l72 -30q0 -135 -76 -220t-194 -85z
M153 -158q68 -46 111 -111l-111 -111q-42 62 -111 111zM346 -158q68 -46 111 -111l-111 -111q-42 62 -111 111z" />
    <glyph glyph-name="uni068E.fina" unicode="&#x68e;" horiz-adv-x="644" arabic-form="final" 
d="M618 0q-53 0 -94.5 28t-79 101t-77.5 207.5t-91 347.5l75 86l93 -426q17 -80 60 -97t140 -17q27 0 40.5 -40t13.5 -75t-13.5 -75t-40.5 -40h-26zM173 -15q-91 0 -133 48l21 226q24 -29 63.5 -40t97.5 -11q70 0 115.5 32.5t33.5 79.5l72 -30q0 -135 -76 -220t-194 -85z
M348 1323q68 -46 111 -111l-111 -111q-42 62 -111 111zM253 1117q68 -46 111 -111l-111 -111q-42 62 -111 111zM446 1117q68 -46 111 -111l-111 -111q-42 62 -111 111z" />
    <glyph glyph-name="uni068F.fina" unicode="&#x68f;" horiz-adv-x="644" 
d="M618 0q-53 0 -94.5 28t-79 101t-77.5 207.5t-91 347.5l75 86l93 -426q17 -80 60 -97t140 -17q27 0 40.5 -40t13.5 -75t-13.5 -75t-40.5 -40h-26zM173 -15q-91 0 -133 48l21 226q24 -29 63.5 -40t97.5 -11q70 0 115.5 32.5t33.5 79.5l72 -30q0 -135 -76 -220t-194 -85z
M349 1117q68 -46 111 -111l-111 -111q-42 62 -111 111zM253 1322q68 -46 111 -111l-111 -111q-42 62 -111 111zM446 1322q68 -46 111 -111l-111 -111q-42 62 -111 111z" />
    <glyph glyph-name="uni0690.fina" unicode="&#x690;" horiz-adv-x="644" 
d="M618 0q-53 0 -94.5 28t-79 101t-77.5 207.5t-91 347.5l75 86l93 -426q17 -80 60 -97t140 -17q27 0 40.5 -40t13.5 -75t-13.5 -75t-40.5 -40h-26zM173 -15q-91 0 -133 48l21 226q24 -29 63.5 -40t97.5 -11q70 0 115.5 32.5t33.5 79.5l72 -30q0 -135 -76 -220t-194 -85z
M250 1312q68 -46 111 -111l-111 -111q-42 62 -111 111zM443 1312q68 -46 111 -111l-111 -111q-42 62 -111 111zM250 1116q68 -46 111 -111l-111 -111q-42 62 -111 111zM443 1116q68 -46 111 -111l-111 -111q-42 62 -111 111z" />
    <glyph glyph-name="uni0691.fina" unicode="&#x691;" horiz-adv-x="542" arabic-form="final" 
d="M-114 -272l7 14q12 -3 25.5 -5t33.5 -2q83 0 164 27t147 68t105 85t39 79q0 26 -45.5 67t-92.5 65l54 221q72 -40 100.5 -124t28.5 -161q0 -81 -21 -162t-60 -147.5t-94 -107t-123 -40.5q-63 0 -139 36t-129 87zM542 230q31 0 46.5 -40t15.5 -75t-15.5 -75t-46.5 -40
q-48 0 -88 21.5t-69 51.5v221q36 -41 76.5 -52.5t80.5 -11.5zM290 468l-13 94q90 0 163 9.5t73 30.5q0 14 -16.5 26.5t-49.5 12.5q-13 0 -43.5 -14t-63 -35t-52.5 -43l-23 2q63 68 119.5 115.5t101.5 47.5q40 0 56.5 -20t16.5 -47q0 -45 -39.5 -86t-101 -67t-128.5 -26z
M291 468q-71 0 -113.5 36t-58.5 75l2 4q35 -11 78 -16t79 -5zM307 583l-9 244l36 -20v-200zM351 780q-75 28 -75 64q0 18 18.5 46.5t34.5 41.5l7 -4q-13 -30 7 -50t58 -31z" />
    <glyph glyph-name="uni0692.fina" unicode="&#x692;" horiz-adv-x="542" 
d="M-114 -272l7 14q12 -3 25.5 -5t33.5 -2q83 0 164 27t147 68t105 85t39 79q0 26 -45.5 67t-92.5 65l54 221q72 -40 100.5 -124t28.5 -161q0 -81 -21 -162t-60 -147.5t-94 -107t-123 -40.5q-63 0 -139 36t-129 87zM542 230q31 0 46.5 -40t15.5 -75t-15.5 -75t-46.5 -40
q-48 0 -88 21.5t-69 51.5v221q36 -41 76.5 -52.5t80.5 -11.5zM150 667l64 49q25 -32 53 -67t49.5 -58.5t27.5 -23.5q7 0 48 43.5t80 92.5l29 -23q-37 -48 -78 -94t-71.5 -75.5t-37.5 -29.5q-6 0 -35 31t-65 74.5t-64 80.5z" />
    <glyph glyph-name="uni0693.fina" unicode="&#x693;" horiz-adv-x="542" 
d="M-114 -272l7 14q12 -3 25.5 -5t33.5 -2q83 0 164 27t147 68t105 85t39 79q0 26 -45.5 67t-92.5 65l54 221q72 -40 100.5 -124t28.5 -161q0 -81 -21 -162t-60 -147.5t-94 -107t-123 -40.5q-63 0 -139 36t-129 87zM542 230q31 0 46.5 -40t15.5 -75t-15.5 -75t-46.5 -40
q-48 0 -88 21.5t-69 51.5v221q36 -41 76.5 -52.5t80.5 -11.5zM334 -544q-66 0 -86.5 40.5t-20.5 90.5q0 31 12 65t36 58.5t59 24.5q36 0 60 -24.5t36.5 -58.5t12.5 -65q0 -50 -21.5 -90.5t-87.5 -40.5zM334 -459q28 0 48.5 9.5t20.5 43.5q0 35 -20.5 57.5t-48.5 22.5
t-47.5 -22.5t-19.5 -57.5q0 -37 19.5 -45t47.5 -8z" />
    <glyph glyph-name="uni0694.fina" unicode="&#x694;" horiz-adv-x="542" 
d="M-114 -272l7 14q12 -3 25.5 -5t33.5 -2q83 0 164 27t147 68t105 85t39 79q0 26 -45.5 67t-92.5 65l54 221q72 -40 100.5 -124t28.5 -161q0 -81 -21 -162t-60 -147.5t-94 -107t-123 -40.5q-63 0 -139 36t-129 87zM542 230q31 0 46.5 -40t15.5 -75t-15.5 -75t-46.5 -40
q-48 0 -88 21.5t-69 51.5v221q36 -41 76.5 -52.5t80.5 -11.5zM418 -367q68 -46 111 -111l-111 -111q-42 62 -111 111z" />
    <glyph glyph-name="uni0695.fina" unicode="&#x695;" horiz-adv-x="542" 
d="M-114 -272l7 14q12 -3 25.5 -5t33.5 -2q83 0 164 27t147 68t105 85t39 79q0 26 -45.5 67t-92.5 65l54 221q72 -40 100.5 -124t28.5 -161q0 -81 -21 -162t-60 -147.5t-94 -107t-123 -40.5q-63 0 -139 36t-129 87zM542 230q31 0 46.5 -40t15.5 -75t-15.5 -75t-46.5 -40
q-48 0 -88 21.5t-69 51.5v221q36 -41 76.5 -52.5t80.5 -11.5zM245 -427l64 49q25 -32 53 -67t49.5 -58.5t27.5 -23.5q7 0 48 43.5t80 92.5l29 -23q-37 -48 -78 -94t-71.5 -75.5t-37.5 -29.5q-6 0 -35 31t-65 74.5t-64 80.5z" />
    <glyph glyph-name="uni0696.fina" unicode="&#x696;" horiz-adv-x="542" 
d="M-114 -272l7 14q12 -3 25.5 -5t33.5 -2q83 0 164 27t147 68t105 85t39 79q0 26 -45.5 67t-92.5 65l54 221q72 -40 100.5 -124t28.5 -161q0 -81 -21 -162t-60 -147.5t-94 -107t-123 -40.5q-63 0 -139 36t-129 87zM542 230q31 0 46.5 -40t15.5 -75t-15.5 -75t-46.5 -40
q-48 0 -88 21.5t-69 51.5v221q36 -41 76.5 -52.5t80.5 -11.5zM418 -367q68 -46 111 -111l-111 -111q-42 62 -111 111zM124 125q68 -46 111 -111l-111 -111q-42 62 -111 111z" />
    <glyph glyph-name="uni0697.fina" unicode="&#x697;" horiz-adv-x="542" 
d="M-114 -272l7 14q12 -3 25.5 -5t33.5 -2q83 0 164 27t147 68t105 85t39 79q0 26 -45.5 67t-92.5 65l54 221q72 -40 100.5 -124t28.5 -161q0 -81 -21 -162t-60 -147.5t-94 -107t-123 -40.5q-63 0 -139 36t-129 87zM542 230q31 0 46.5 -40t15.5 -75t-15.5 -75t-46.5 -40
q-48 0 -88 21.5t-69 51.5v221q36 -41 76.5 -52.5t80.5 -11.5zM227 691q68 -46 111 -111l-111 -111q-42 62 -111 111zM420 691q68 -46 111 -111l-111 -111q-42 62 -111 111z" />
    <glyph glyph-name="uni0698.fina" unicode="&#x698;" horiz-adv-x="542" arabic-form="final" 
d="M-114 -272l7 14q12 -3 25.5 -5t33.5 -2q83 0 164 27t147 68t105 85t39 79q0 26 -45.5 67t-92.5 65l54 221q72 -40 100.5 -124t28.5 -161q0 -81 -21 -162t-60 -147.5t-94 -107t-123 -40.5q-63 0 -139 36t-129 87zM542 230q31 0 46.5 -40t15.5 -75t-15.5 -75t-46.5 -40
q-48 0 -88 21.5t-69 51.5v221q36 -41 76.5 -52.5t80.5 -11.5zM322 899q68 -46 111 -111l-111 -111q-42 62 -111 111zM227 694q68 -46 111 -111l-111 -111q-42 62 -111 111zM420 694q68 -46 111 -111l-111 -111q-42 62 -111 111z" />
    <glyph glyph-name="uni0699.fina" unicode="&#x699;" horiz-adv-x="542" 
d="M-114 -272l7 14q12 -3 25.5 -5t33.5 -2q83 0 164 27t147 68t105 85t39 79q0 26 -45.5 67t-92.5 65l54 221q72 -40 100.5 -124t28.5 -161q0 -81 -21 -162t-60 -147.5t-94 -107t-123 -40.5q-63 0 -139 36t-129 87zM542 230q31 0 46.5 -40t15.5 -75t-15.5 -75t-46.5 -40
q-48 0 -88 21.5t-69 51.5v221q36 -41 76.5 -52.5t80.5 -11.5zM224 888q68 -46 111 -111l-111 -111q-42 62 -111 111zM417 888q68 -46 111 -111l-111 -111q-42 62 -111 111zM224 693q68 -46 111 -111l-111 -111q-42 62 -111 111zM417 693q68 -46 111 -111l-111 -111
q-42 62 -111 111z" />
    <glyph glyph-name="uni069A.init" unicode="&#x69a;" horiz-adv-x="868" 
d="M0 0q-25 0 -37.5 39.5t-12.5 74.5t12.5 75.5t37.5 40.5q74 0 109.5 13.5t56 46t50.5 89.5h15q-25 -74 20.5 -111.5t118.5 -37.5q48 0 89.5 30.5t69 66.5t33.5 52h15q-14 -59 9 -87t61.5 -36t69.5 -8q15 0 36.5 7t21.5 20q0 17 -18 43t-35 32l84 162q9 -8 14 -38
t6.5 -60.5t1.5 -41.5q0 -27 -6 -84.5t-22 -119.5t-44.5 -106t-73.5 -44q-47 0 -86.5 26t-66.5 65l14 1q-84 -110 -185 -110q-67 0 -112 29.5t-71 55.5l12 5q-37 -55 -77.5 -72.5t-109.5 -17.5zM486 744q68 -46 111 -111l-111 -111q-42 62 -111 111zM480 -106
q68 -46 111 -111l-111 -111q-42 62 -111 111z" />
    <glyph glyph-name="uni069A.medi" unicode="&#x69a;" horiz-adv-x="1032" 
d="M1032 0q-103 0 -141 13.5t-63 59.5l9 4q-15 -26 -52 -51.5t-83 -25.5q-88 0 -121 68l9 -2q-21 -25 -64.5 -45.5t-118.5 -20.5q-53 0 -95 15t-76 62l10 2q-53 -49 -102 -64t-144 -15q-28 0 -37 31.5t-9 83.5q0 48 11 81.5t35 33.5q102 0 153.5 14.5t76.5 47t47 87.5h15
q-11 -55 7.5 -87.5t53.5 -47t73 -14.5q72 0 128 26.5t95 122.5h15q-16 -82 1 -115.5t72 -33.5q42 0 70 28t45 63.5t26 57.5h15q-14 -69 -8.5 -100.5t40 -40t107.5 -8.5q29 0 44 -35.5t15 -79.5q0 -48 -13.5 -81.5t-45.5 -33.5zM586 744q68 -46 111 -111l-111 -111
q-42 62 -111 111zM586 -131q68 -46 111 -111l-111 -111q-42 62 -111 111z" />
    <glyph glyph-name="uni069A.fina" unicode="&#x69a;" horiz-adv-x="1471" 
d="M1151 0q-44 0 -87 25t-63 58l93 194q23 -44 82 -44q46 0 75 27t45 62t24 57h15q-15 -71 -9.5 -102.5t40 -39t105.5 -7.5q28 0 43 -35.5t15 -79.5q0 -48 -13 -81.5t-45 -33.5q-87 0 -136.5 11.5t-76.5 57.5l9 3q-15 -24 -46.5 -48t-69.5 -24zM879 -15q-25 0 -72.5 12
t-72.5 29l-24 242q41 -32 73 -42.5t89 -10.5q55 0 105 27t84 72t42 98l18 -6q0 -53 -15 -124t-45 -139t-75.5 -113t-106.5 -45zM706 365q38 -77 54 -157.5t16 -149.5q0 -123 -55 -234t-155 -180.5t-235 -69.5q-89 0 -154.5 43t-101 116t-35.5 164q0 64 16 127t39 114.5
t44 79.5l18 -9q-18 -45 -30.5 -94t-12.5 -100q0 -120 76.5 -165.5t185.5 -45.5q55 0 124.5 13.5t131 44t90.5 79.5l-5 -20q1 69 -29.5 138t-84.5 132zM1019 744q68 -46 111 -111l-111 -111q-42 62 -111 111zM1069 -138q68 -46 111 -111l-111 -111q-42 62 -111 111z" />
    <glyph glyph-name="uni069B.init" unicode="&#x69b;" horiz-adv-x="868" 
d="M0 0q-25 0 -37.5 39.5t-12.5 74.5t12.5 75.5t37.5 40.5q74 0 109.5 13.5t56 46t50.5 89.5h15q-25 -74 20.5 -111.5t118.5 -37.5q48 0 89.5 30.5t69 66.5t33.5 52h15q-14 -59 9 -87t61.5 -36t69.5 -8q15 0 36.5 7t21.5 20q0 17 -18 43t-35 32l84 162q9 -8 14 -38
t6.5 -60.5t1.5 -41.5q0 -27 -6 -84.5t-22 -119.5t-44.5 -106t-73.5 -44q-47 0 -86.5 26t-66.5 65l14 1q-84 -110 -185 -110q-67 0 -112 29.5t-71 55.5l12 5q-37 -55 -77.5 -72.5t-109.5 -17.5zM480 -315q68 -46 111 -111l-111 -111q-42 62 -111 111zM384 -110
q68 -46 111 -111l-111 -111q-42 62 -111 111zM577 -110q68 -46 111 -111l-111 -111q-42 62 -111 111z" />
    <glyph glyph-name="uni069B.medi" unicode="&#x69b;" horiz-adv-x="1032" 
d="M1032 0q-103 0 -141 13.5t-63 59.5l9 4q-15 -26 -52 -51.5t-83 -25.5q-88 0 -121 68l9 -2q-21 -25 -64.5 -45.5t-118.5 -20.5q-53 0 -95 15t-76 62l10 2q-53 -49 -102 -64t-144 -15q-28 0 -37 31.5t-9 83.5q0 48 11 81.5t35 33.5q102 0 153.5 14.5t76.5 47t47 87.5h15
q-11 -55 7.5 -87.5t53.5 -47t73 -14.5q72 0 128 26.5t95 122.5h15q-16 -82 1 -115.5t72 -33.5q42 0 70 28t45 63.5t26 57.5h15q-14 -69 -8.5 -100.5t40 -40t107.5 -8.5q29 0 44 -35.5t15 -79.5q0 -48 -13.5 -81.5t-45.5 -33.5zM586 -340q68 -46 111 -111l-111 -111
q-42 62 -111 111zM490 -135q68 -46 111 -111l-111 -111q-42 62 -111 111zM683 -135q68 -46 111 -111l-111 -111q-42 62 -111 111z" />
    <glyph glyph-name="uni069B.fina" unicode="&#x69b;" horiz-adv-x="1471" 
d="M1151 0q-44 0 -87 25t-63 58l93 194q23 -44 82 -44q46 0 75 27t45 62t24 57h15q-15 -71 -9.5 -102.5t40 -39t105.5 -7.5q28 0 43 -35.5t15 -79.5q0 -48 -13 -81.5t-45 -33.5q-87 0 -136.5 11.5t-76.5 57.5l9 3q-15 -24 -46.5 -48t-69.5 -24zM879 -15q-25 0 -72.5 12
t-72.5 29l-24 242q41 -32 73 -42.5t89 -10.5q55 0 105 27t84 72t42 98l18 -6q0 -53 -15 -124t-45 -139t-75.5 -113t-106.5 -45zM706 365q38 -77 54 -157.5t16 -149.5q0 -123 -55 -234t-155 -180.5t-235 -69.5q-89 0 -154.5 43t-101 116t-35.5 164q0 64 16 127t39 114.5
t44 79.5l18 -9q-18 -45 -30.5 -94t-12.5 -100q0 -120 76.5 -165.5t185.5 -45.5q55 0 124.5 13.5t131 44t90.5 79.5l-5 -20q1 69 -29.5 138t-84.5 132zM1069 -347q68 -46 111 -111l-111 -111q-42 62 -111 111zM973 -142q68 -46 111 -111l-111 -111q-42 62 -111 111z
M1166 -142q68 -46 111 -111l-111 -111q-42 62 -111 111z" />
    <glyph glyph-name="uni069C.init" unicode="&#x69c;" horiz-adv-x="868" 
d="M0 0q-25 0 -37.5 39.5t-12.5 74.5t12.5 75.5t37.5 40.5q74 0 109.5 13.5t56 46t50.5 89.5h15q-25 -74 20.5 -111.5t118.5 -37.5q48 0 89.5 30.5t69 66.5t33.5 52h15q-14 -59 9 -87t61.5 -36t69.5 -8q15 0 36.5 7t21.5 20q0 17 -18 43t-35 32l84 162q9 -8 14 -38
t6.5 -60.5t1.5 -41.5q0 -27 -6 -84.5t-22 -119.5t-44.5 -106t-73.5 -44q-47 0 -86.5 26t-66.5 65l14 1q-84 -110 -185 -110q-67 0 -112 29.5t-71 55.5l12 5q-37 -55 -77.5 -72.5t-109.5 -17.5zM485 953q68 -46 111 -111l-111 -111q-42 62 -111 111zM390 747q68 -46 111 -111
l-111 -111q-42 62 -111 111zM583 747q68 -46 111 -111l-111 -111q-42 62 -111 111zM480 -315q68 -46 111 -111l-111 -111q-42 62 -111 111zM384 -110q68 -46 111 -111l-111 -111q-42 62 -111 111zM577 -110q68 -46 111 -111l-111 -111q-42 62 -111 111z" />
    <glyph glyph-name="uni069C.medi" unicode="&#x69c;" horiz-adv-x="1032" 
d="M1032 0q-103 0 -141 13.5t-63 59.5l9 4q-15 -26 -52 -51.5t-83 -25.5q-88 0 -121 68l9 -2q-21 -25 -64.5 -45.5t-118.5 -20.5q-53 0 -95 15t-76 62l10 2q-53 -49 -102 -64t-144 -15q-28 0 -37 31.5t-9 83.5q0 48 11 81.5t35 33.5q102 0 153.5 14.5t76.5 47t47 87.5h15
q-11 -55 7.5 -87.5t53.5 -47t73 -14.5q72 0 128 26.5t95 122.5h15q-16 -82 1 -115.5t72 -33.5q42 0 70 28t45 63.5t26 57.5h15q-14 -69 -8.5 -100.5t40 -40t107.5 -8.5q29 0 44 -35.5t15 -79.5q0 -48 -13.5 -81.5t-45.5 -33.5zM585 953q68 -46 111 -111l-111 -111
q-42 62 -111 111zM490 747q68 -46 111 -111l-111 -111q-42 62 -111 111zM683 747q68 -46 111 -111l-111 -111q-42 62 -111 111zM586 -340q68 -46 111 -111l-111 -111q-42 62 -111 111zM490 -135q68 -46 111 -111l-111 -111q-42 62 -111 111zM683 -135q68 -46 111 -111
l-111 -111q-42 62 -111 111z" />
    <glyph glyph-name="uni069C.fina" unicode="&#x69c;" horiz-adv-x="1471" 
d="M1151 0q-44 0 -87 25t-63 58l93 194q23 -44 82 -44q46 0 75 27t45 62t24 57h15q-15 -71 -9.5 -102.5t40 -39t105.5 -7.5q28 0 43 -35.5t15 -79.5q0 -48 -13 -81.5t-45 -33.5q-87 0 -136.5 11.5t-76.5 57.5l9 3q-15 -24 -46.5 -48t-69.5 -24zM879 -15q-25 0 -72.5 12
t-72.5 29l-24 242q41 -32 73 -42.5t89 -10.5q55 0 105 27t84 72t42 98l18 -6q0 -53 -15 -124t-45 -139t-75.5 -113t-106.5 -45zM706 365q38 -77 54 -157.5t16 -149.5q0 -123 -55 -234t-155 -180.5t-235 -69.5q-89 0 -154.5 43t-101 116t-35.5 164q0 64 16 127t39 114.5
t44 79.5l18 -9q-18 -45 -30.5 -94t-12.5 -100q0 -120 76.5 -165.5t185.5 -45.5q55 0 124.5 13.5t131 44t90.5 79.5l-5 -20q1 69 -29.5 138t-84.5 132zM1018 953q68 -46 111 -111l-111 -111q-42 62 -111 111zM923 747q68 -46 111 -111l-111 -111q-42 62 -111 111zM1116 747
q68 -46 111 -111l-111 -111q-42 62 -111 111zM1069 -347q68 -46 111 -111l-111 -111q-42 62 -111 111zM973 -142q68 -46 111 -111l-111 -111q-42 62 -111 111zM1166 -142q68 -46 111 -111l-111 -111q-42 62 -111 111z" />
    <glyph glyph-name="uni069D.init" unicode="&#x69d;" horiz-adv-x="1207" 
d="M430 215l31 -230q-127 0 -202 33.5t-98 92.5l12 10q-35 -69 -69.5 -95t-93.5 -26h-15q-25 0 -37 41.5t-12 76.5t12 73.5t37 38.5h5q77 0 114.5 41t55.5 108h15q14 -103 79.5 -133.5t165.5 -30.5zM982 620q98 0 141.5 -49.5t43.5 -120.5q0 -92 -62 -175.5t-165 -149
t-228.5 -103t-252.5 -37.5l-31 230q117 0 227.5 7t198 21t139 36.5t51.5 53.5q0 41 -43.5 73.5t-126.5 32.5q-25 0 -76.5 -22t-115.5 -58.5t-125 -81t-104 -90.5l-62 5q71 76 148.5 152t155.5 138.5t151.5 100t135.5 37.5zM443 -149q68 -46 111 -111l-111 -111
q-42 62 -111 111zM636 -149q68 -46 111 -111l-111 -111q-42 62 -111 111z" />
    <glyph glyph-name="uni069D.medi" unicode="&#x69d;" horiz-adv-x="1207" 
d="M430 215l31 -230q-127 0 -202 33.5t-98 92.5l12 10q-35 -69 -69.5 -95t-93.5 -26h-15q-25 0 -37 41.5t-12 76.5t12 73.5t37 38.5h5q77 0 114.5 41t55.5 108h15q14 -103 79.5 -133.5t165.5 -30.5zM982 620q98 0 141.5 -49.5t43.5 -120.5q0 -92 -62 -175.5t-165 -149
t-228.5 -103t-252.5 -37.5l-31 230q117 0 227.5 7t198 21t139 36.5t51.5 53.5q0 41 -43.5 73.5t-126.5 32.5q-25 0 -76.5 -22t-115.5 -58.5t-125 -81t-104 -90.5l-62 5q71 76 148.5 152t155.5 138.5t151.5 100t135.5 37.5zM1020 240q39 -3 90.5 -6.5t97.5 -3.5
q16 0 27 -36.5t11 -78.5q0 -45 -11.5 -80t-26.5 -35q-132 0 -219.5 18.5t-180.5 72.5zM441 -149q68 -46 111 -111l-111 -111q-42 62 -111 111zM634 -149q68 -46 111 -111l-111 -111q-42 62 -111 111z" />
    <glyph glyph-name="uni069D.fina" unicode="&#x69d;" horiz-adv-x="1642" 
d="M864 189l32 -230q-52 0 -84 5.5t-63 20.5l-31 249q32 -24 63 -34.5t83 -10.5zM706 366q38 -76 54 -156.5t16 -150.5q0 -123 -55 -233.5t-155 -180.5t-235 -70q-89 0 -154.5 43t-101 116.5t-35.5 163.5q0 64 16 127.5t39 115t44 78.5l18 -9q-18 -45 -30.5 -94t-12.5 -100
q0 -119 76.5 -165t185.5 -46q55 0 124.5 14t131 44t90.5 79l-5 -20q1 70 -29.5 138.5t-84.5 131.5zM1417 594q98 0 141.5 -49.5t43.5 -120.5q0 -92 -62 -176t-165 -149t-228.5 -102.5t-252.5 -37.5l-32 230q118 0 228.5 6.5t198 21t139 36.5t51.5 54q0 40 -44 73t-126 33
q-25 0 -77 -22t-115.5 -58.5t-124.5 -81.5t-105 -90l-61 4q70 77 147.5 152.5t156 138t151.5 100.5t136 38zM1454 240q39 -3 90.5 -6.5t97.5 -3.5q16 0 27 -36.5t11 -78.5q0 -45 -11.5 -80t-26.5 -35q-132 0 -219.5 18.5t-180.5 72.5zM975 -149q68 -46 111 -111l-111 -111
q-42 62 -111 111zM1168 -149q68 -46 111 -111l-111 -111q-42 62 -111 111z" />
    <glyph glyph-name="uni069E.init" unicode="&#x69e;" horiz-adv-x="1207" 
d="M430 215l31 -230q-127 0 -202 33.5t-98 92.5l12 10q-35 -69 -69.5 -95t-93.5 -26h-15q-25 0 -37 41.5t-12 76.5t12 73.5t37 38.5h5q77 0 114.5 41t55.5 108h15q14 -103 79.5 -133.5t165.5 -30.5zM982 620q98 0 141.5 -49.5t43.5 -120.5q0 -92 -62 -175.5t-165 -149
t-228.5 -103t-252.5 -37.5l-31 230q117 0 227.5 7t198 21t139 36.5t51.5 53.5q0 41 -43.5 73.5t-126.5 32.5q-25 0 -76.5 -22t-115.5 -58.5t-125 -81t-104 -90.5l-62 5q71 76 148.5 152t155.5 138.5t151.5 100t135.5 37.5zM538 1018q68 -46 111 -111l-111 -111
q-42 62 -111 111zM443 812q68 -46 111 -111l-111 -111q-42 62 -111 111zM636 812q68 -46 111 -111l-111 -111q-42 62 -111 111z" />
    <glyph glyph-name="uni069E.medi" unicode="&#x69e;" horiz-adv-x="1207" 
d="M430 215l31 -230q-127 0 -202 33.5t-98 92.5l12 10q-35 -69 -69.5 -95t-93.5 -26h-15q-25 0 -37 41.5t-12 76.5t12 73.5t37 38.5h5q77 0 114.5 41t55.5 108h15q14 -103 79.5 -133.5t165.5 -30.5zM982 620q98 0 141.5 -49.5t43.5 -120.5q0 -92 -62 -175.5t-165 -149
t-228.5 -103t-252.5 -37.5l-31 230q117 0 227.5 7t198 21t139 36.5t51.5 53.5q0 41 -43.5 73.5t-126.5 32.5q-25 0 -76.5 -22t-115.5 -58.5t-125 -81t-104 -90.5l-62 5q71 76 148.5 152t155.5 138.5t151.5 100t135.5 37.5zM1020 240q39 -3 90.5 -6.5t97.5 -3.5
q16 0 27 -36.5t11 -78.5q0 -45 -11.5 -80t-26.5 -35q-132 0 -219.5 18.5t-180.5 72.5zM536 1018q68 -46 111 -111l-111 -111q-42 62 -111 111zM441 812q68 -46 111 -111l-111 -111q-42 62 -111 111zM634 812q68 -46 111 -111l-111 -111q-42 62 -111 111z" />
    <glyph glyph-name="uni069E.fina" unicode="&#x69e;" horiz-adv-x="1642" 
d="M864 189l32 -230q-52 0 -84 5.5t-63 20.5l-31 249q32 -24 63 -34.5t83 -10.5zM706 366q38 -76 54 -156.5t16 -150.5q0 -123 -55 -233.5t-155 -180.5t-235 -70q-89 0 -154.5 43t-101 116.5t-35.5 163.5q0 64 16 127.5t39 115t44 78.5l18 -9q-18 -45 -30.5 -94t-12.5 -100
q0 -119 76.5 -165t185.5 -46q55 0 124.5 14t131 44t90.5 79l-5 -20q1 70 -29.5 138.5t-84.5 131.5zM1417 594q98 0 141.5 -49.5t43.5 -120.5q0 -92 -62 -176t-165 -149t-228.5 -102.5t-252.5 -37.5l-32 230q118 0 228.5 6.5t198 21t139 36.5t51.5 54q0 40 -44 73t-126 33
q-25 0 -77 -22t-115.5 -58.5t-124.5 -81.5t-105 -90l-61 4q70 77 147.5 152.5t156 138t151.5 100.5t136 38zM1454 240q39 -3 90.5 -6.5t97.5 -3.5q16 0 27 -36.5t11 -78.5q0 -45 -11.5 -80t-26.5 -35q-132 0 -219.5 18.5t-180.5 72.5zM1005 1018q68 -46 111 -111l-111 -111
q-42 62 -111 111zM910 812q68 -46 111 -111l-111 -111q-42 62 -111 111zM1103 812q68 -46 111 -111l-111 -111q-42 62 -111 111z" />
    <glyph glyph-name="uni069F.init" unicode="&#x69f;" horiz-adv-x="860" 
d="M0 0q-29 0 -42 33.5t-13 81.5q0 47 13.5 81t41.5 34h83l32 -230h-115zM190 1207l18 -10q-38 -76 -14 -128t118 -80l-69 -168q-186 73 -186 163q0 32 23.5 77.5t55 86t54.5 59.5zM635 635q98 0 141.5 -49.5t43.5 -120.5q0 -92 -62 -175.5t-165 -149t-228.5 -103
t-252.5 -37.5l-31 230q117 0 227.5 7t198 21t139 36.5t51.5 53.5q0 41 -43.5 73.5t-126.5 32.5q-25 0 -76.5 -22t-115.5 -58.5t-125 -81t-104 -90.5l-62 5q71 76 148.5 152t155.5 138.5t151.5 100t135.5 37.5zM151 273q1 168 -4.5 335t-19.5 335q23 -14 46.5 -27.5
t47.5 -26.5q15 -277 0 -555q-35 -31 -70 -61zM564 1223q68 -46 111 -111l-111 -111q-42 62 -111 111zM469 1017q68 -46 111 -111l-111 -111q-42 62 -111 111zM662 1017q68 -46 111 -111l-111 -111q-42 62 -111 111z" />
    <glyph glyph-name="uni069F.medi" unicode="&#x69f;" horiz-adv-x="860" 
d="M0 0q-29 0 -42 33.5t-13 81.5q0 47 13.5 81t41.5 34h83l32 -230h-115zM190 1207l18 -10q-38 -76 -14 -128t118 -80l-69 -168q-186 73 -186 163q0 32 23.5 77.5t55 86t54.5 59.5zM635 635q98 0 141.5 -49.5t43.5 -120.5q0 -92 -62 -175.5t-165 -149t-228.5 -103
t-252.5 -37.5l-31 230q117 0 227.5 7t198 21t139 36.5t51.5 53.5q0 41 -43.5 73.5t-126.5 32.5q-25 0 -76.5 -22t-115.5 -58.5t-125 -81t-104 -90.5l-62 5q71 76 148.5 152t155.5 138.5t151.5 100t135.5 37.5zM151 273q1 168 -4.5 335t-19.5 335q23 -14 46.5 -27.5
t47.5 -26.5q15 -277 0 -555q-35 -31 -70 -61zM672 240q39 -3 90.5 -6.5t97.5 -3.5q16 0 27 -36.5t11 -78.5q0 -45 -11.5 -80t-26.5 -35q-132 0 -219.5 18.5t-180.5 72.5zM564 1223q68 -46 111 -111l-111 -111q-42 62 -111 111zM469 1017q68 -46 111 -111l-111 -111
q-42 62 -111 111zM662 1017q68 -46 111 -111l-111 -111q-42 62 -111 111z" />
    <glyph glyph-name="uni069F.fina" unicode="&#x69f;" horiz-adv-x="1181" 
d="M435 -27q-120 0 -207.5 40t-146.5 102t-94 128l6 14q90 -29 201 -41.5t209 -12.5zM521 1207l18 -10q-37 -76 -13.5 -128t117.5 -80l-68 -168q-187 73 -187 163q0 32 24 77.5t55.5 86t53.5 59.5zM956 608q98 0 141.5 -49.5t43.5 -120.5q0 -92 -62 -176t-165 -149
t-228.5 -102.5t-252.5 -37.5l-32 230q118 0 228.5 6.5t198 21t139 36.5t51.5 54q0 40 -44 73t-126 33q-25 0 -77 -22t-115.5 -58.5t-124.5 -81.5t-105 -90l-61 4q70 77 147.5 152.5t156 138t151.5 100.5t136 38zM477 268q2 168 -4 335t-19 335q23 -14 46.5 -27.5t46.5 -26.5
q15 -277 0 -555q-34 -31 -70 -61zM993 240q39 -3 90.5 -6.5t97.5 -3.5q16 0 27 -36.5t11 -78.5q0 -45 -11.5 -80t-26.5 -35q-132 0 -219.5 18.5t-180.5 72.5zM885 1198q68 -46 111 -111l-111 -111q-42 62 -111 111zM790 992q68 -46 111 -111l-111 -111q-42 62 -111 111z
M983 992q68 -46 111 -111l-111 -111q-42 62 -111 111z" />
    <glyph glyph-name="uni06A0.init" unicode="&#x6a0;" horiz-adv-x="782" 
d="M0 0q-23 0 -34.5 40t-11.5 75t11.5 75t34.5 40q109 0 212 9.5t228.5 37.5t301.5 82l-71 -195q-79 -41 -187.5 -79t-232.5 -61.5t-251 -23.5zM232 178q-34 32 -50 88.5t-16 92.5q0 54 16.5 118t48.5 122t77.5 95.5t103.5 37.5q47 0 93.5 -29.5t80.5 -80t43 -113.5l-11 -10
q-39 20 -79.5 31.5t-93.5 11.5q-45 0 -93.5 -18.5t-82 -43t-33.5 -43.5q0 -25 39 -63t101 -68t132 -30zM409 1282q68 -46 111 -111l-111 -111q-42 62 -111 111zM314 1076q68 -46 111 -111l-111 -111q-42 62 -111 111zM507 1076q68 -46 111 -111l-111 -111q-42 62 -111 111z
" />
    <glyph glyph-name="uni06A0.medi" unicode="&#x6a0;" horiz-adv-x="709" 
d="M109 353q1 90 40 144t99 78.5t124 24.5q85 0 154 -38.5t69 -106.5q0 -38 -30 -94.5t-85 -119t-129 -117.5t-163 -89.5t-188 -34.5q-27 0 -40 40t-13 75t13 75t40 40q137 0 253 19.5t160 74.5h71q35 -49 89 -71.5t136 -22.5q30 0 45 -40t15 -75t-15 -75t-45 -40
q-101 0 -167.5 35.5t-114.5 88.5t-91.5 105.5t-96 88t-130.5 35.5zM395 1136q68 -46 111 -111l-111 -111q-42 62 -111 111zM300 931q68 -46 111 -111l-111 -111q-42 62 -111 111zM493 931q68 -46 111 -111l-111 -111q-42 62 -111 111z" />
    <glyph glyph-name="uni06A0.fina" unicode="&#x6a0;" horiz-adv-x="778" 
d="M578 -700q-277 -3 -407.5 118.5t-130.5 338.5q0 96 28 199.5t82.5 193t133.5 141.5v-24q-22 19 -57.5 30t-100.5 13q-3 79 33 135t97.5 85.5t133.5 29.5q99 0 161 -35t62 -101q0 -49 -36 -83t-92.5 -64t-120 -67t-120 -90t-92.5 -132.5t-36 -197.5q0 -93 43.5 -146
t117.5 -77t166.5 -30.5t191.5 -6.5h258v-26zM778 0q-169 0 -282 69.5t-211 207.5l123 51q59 -61 147 -79.5t223 -18.5q26 0 43.5 -26.5t17.5 -88.5q0 -47 -17.5 -81t-43.5 -34zM377 1110q68 -46 111 -111l-111 -111q-42 62 -111 111zM282 905q68 -46 111 -111l-111 -111
q-42 62 -111 111zM475 905q68 -46 111 -111l-111 -111q-42 62 -111 111z" />
    <glyph glyph-name="uni06A1.init" unicode="&#x6a1;" horiz-adv-x="503" 
d="M0 0q-30 0 -41 40t-11 73q0 35 11 76t41 41q89 0 177.5 6t152.5 21t78 41q3 38 -12 89.5t-40.5 100.5t-56 81.5t-58.5 32.5q-20 0 -50.5 -26.5t-30.5 -50.5q0 -9 15 -26t51 -17q29 0 65 23.5t43 49.5l45 -85q-7 -37 -32.5 -74.5t-59 -63t-66.5 -25.5q-57 0 -86.5 47.5
t-29.5 117.5q0 26 10 77.5t30 106t49 93t66 38.5q39 0 74.5 -42t62.5 -108.5t42.5 -142.5t15.5 -144q0 -79 -22.5 -144t-49.5 -93q-28 -27 -88.5 -53t-138 -43t-156.5 -17z" />
    <glyph glyph-name="uni06A1.medi" unicode="&#x6a1;" horiz-adv-x="533" 
d="M306 700q41 0 65 -34.5t34.5 -85t10.5 -97.5q0 -132 -50.5 -241.5t-144 -175.5t-221.5 -66q-22 0 -40.5 34t-18.5 81t18.5 81t40.5 34q93 0 176.5 21.5t136.5 56.5t53 77q0 28 -26.5 66.5t-65.5 38.5q-26 0 -52 -21t-43 -48.5t-17 -48.5q0 -26 36 -51.5t93.5 -46
t121.5 -32.5t120 -12q25 0 45.5 -34t20.5 -81t-20.5 -81t-45.5 -34q-123 0 -217.5 46.5t-147.5 120t-53 154.5q0 54 14 119t40 124.5t61 97.5t76 38z" />
    <glyph glyph-name="uni06A1.fina" unicode="&#x6a1;" horiz-adv-x="1298" 
d="M474 -30q-109 0 -208.5 25.5t-162.5 81.5t-63 146q0 64 30.5 137t91.5 133l13 -8q-36 -76 -36 -141q0 -46 38 -74.5t98.5 -43.5t131 -20.5t135.5 -5.5q101 0 205 14.5t191 40t140 59t53 71.5q0 28 -28.5 66.5t-63.5 38.5q-26 0 -52 -21t-43 -48.5t-17 -48.5
q0 -26 36 -51.5t93.5 -46t121.5 -32.5t120 -12q25 0 45.5 -34t20.5 -81t-20.5 -81t-45.5 -34q-123 0 -217.5 46.5t-147.5 120t-53 154.5q0 53 14 118t40 124.5t61 98t76 38.5q38 0 62 -34.5t36 -85t12 -97.5q0 -238 -184 -375.5t-523 -137.5z" />
    <glyph glyph-name="uni06A2.init" unicode="&#x6a2;" horiz-adv-x="503" 
d="M0 0q-30 0 -41 40t-11 73q0 35 11 76t41 41q89 0 177.5 6t152.5 21t78 41q3 38 -12 89.5t-40.5 100.5t-56 81.5t-58.5 32.5q-20 0 -50.5 -26.5t-30.5 -50.5q0 -9 15 -26t51 -17q29 0 65 23.5t43 49.5l45 -85q-7 -37 -32.5 -74.5t-59 -63t-66.5 -25.5q-57 0 -86.5 47.5
t-29.5 117.5q0 26 10 77.5t30 106t49 93t66 38.5q39 0 74.5 -42t62.5 -108.5t42.5 -142.5t15.5 -144q0 -79 -22.5 -144t-49.5 -93q-28 -27 -88.5 -53t-138 -43t-156.5 -17zM237 -119q68 -46 111 -111l-111 -111q-42 62 -111 111z" />
    <glyph glyph-name="uni06A2.medi" unicode="&#x6a2;" horiz-adv-x="533" 
d="M306 700q41 0 65 -34.5t34.5 -85t10.5 -97.5q0 -132 -50.5 -241.5t-144 -175.5t-221.5 -66q-22 0 -40.5 34t-18.5 81t18.5 81t40.5 34q93 0 176.5 21.5t136.5 56.5t53 77q0 28 -26.5 66.5t-65.5 38.5q-26 0 -52 -21t-43 -48.5t-17 -48.5q0 -26 36 -51.5t93.5 -46
t121.5 -32.5t120 -12q25 0 45.5 -34t20.5 -81t-20.5 -81t-45.5 -34q-123 0 -217.5 46.5t-147.5 120t-53 154.5q0 54 14 119t40 124.5t61 97.5t76 38zM199 -119q68 -46 111 -111l-111 -111q-42 62 -111 111z" />
    <glyph glyph-name="uni06A2.fina" unicode="&#x6a2;" horiz-adv-x="1298" 
d="M474 -30q-109 0 -208.5 25.5t-162.5 81.5t-63 146q0 64 30.5 137t91.5 133l13 -8q-36 -76 -36 -141q0 -46 38 -74.5t98.5 -43.5t131 -20.5t135.5 -5.5q101 0 205 14.5t191 40t140 59t53 71.5q0 28 -28.5 66.5t-63.5 38.5q-26 0 -52 -21t-43 -48.5t-17 -48.5
q0 -26 36 -51.5t93.5 -46t121.5 -32.5t120 -12q25 0 45.5 -34t20.5 -81t-20.5 -81t-45.5 -34q-123 0 -217.5 46.5t-147.5 120t-53 154.5q0 53 14 118t40 124.5t61 98t76 38.5q38 0 62 -34.5t36 -85t12 -97.5q0 -238 -184 -375.5t-523 -137.5zM930 -119q68 -46 111 -111
l-111 -111q-42 62 -111 111z" />
    <glyph glyph-name="uni06A3.init" unicode="&#x6a3;" horiz-adv-x="503" 
d="M0 0q-30 0 -41 40t-11 73q0 35 11 76t41 41q89 0 177.5 6t152.5 21t78 41q3 38 -12 89.5t-40.5 100.5t-56 81.5t-58.5 32.5q-20 0 -50.5 -26.5t-30.5 -50.5q0 -9 15 -26t51 -17q29 0 65 23.5t43 49.5l45 -85q-7 -37 -32.5 -74.5t-59 -63t-66.5 -25.5q-57 0 -86.5 47.5
t-29.5 117.5q0 26 10 77.5t30 106t49 93t66 38.5q39 0 74.5 -42t62.5 -108.5t42.5 -142.5t15.5 -144q0 -79 -22.5 -144t-49.5 -93q-28 -27 -88.5 -53t-138 -43t-156.5 -17zM259 1127q68 -46 111 -111l-111 -111q-42 62 -111 111zM237 -119q68 -46 111 -111l-111 -111
q-42 62 -111 111z" />
    <glyph glyph-name="uni06A3.medi" unicode="&#x6a3;" horiz-adv-x="533" 
d="M306 700q41 0 65 -34.5t34.5 -85t10.5 -97.5q0 -132 -50.5 -241.5t-144 -175.5t-221.5 -66q-22 0 -40.5 34t-18.5 81t18.5 81t40.5 34q93 0 176.5 21.5t136.5 56.5t53 77q0 28 -26.5 66.5t-65.5 38.5q-26 0 -52 -21t-43 -48.5t-17 -48.5q0 -26 36 -51.5t93.5 -46
t121.5 -32.5t120 -12q25 0 45.5 -34t20.5 -81t-20.5 -81t-45.5 -34q-123 0 -217.5 46.5t-147.5 120t-53 154.5q0 54 14 119t40 124.5t61 97.5t76 38zM293 1041q68 -46 111 -111l-111 -111q-42 62 -111 111zM199 -119q68 -46 111 -111l-111 -111q-42 62 -111 111z" />
    <glyph glyph-name="uni06A3.fina" unicode="&#x6a3;" horiz-adv-x="1298" 
d="M474 -30q-109 0 -208.5 25.5t-162.5 81.5t-63 146q0 64 30.5 137t91.5 133l13 -8q-36 -76 -36 -141q0 -46 38 -74.5t98.5 -43.5t131 -20.5t135.5 -5.5q101 0 205 14.5t191 40t140 59t53 71.5q0 28 -28.5 66.5t-63.5 38.5q-26 0 -52 -21t-43 -48.5t-17 -48.5
q0 -26 36 -51.5t93.5 -46t121.5 -32.5t120 -12q25 0 45.5 -34t20.5 -81t-20.5 -81t-45.5 -34q-123 0 -217.5 46.5t-147.5 120t-53 154.5q0 53 14 118t40 124.5t61 98t76 38.5q38 0 62 -34.5t36 -85t12 -97.5q0 -238 -184 -375.5t-523 -137.5zM1055 1029q68 -46 111 -111
l-111 -111q-42 62 -111 111zM930 -119q68 -46 111 -111l-111 -111q-42 62 -111 111z" />
    <glyph glyph-name="uni06A4.init" unicode="&#x6a4;" horiz-adv-x="503" arabic-form="initial" 
d="M0 0q-30 0 -41 40t-11 73q0 35 11 76t41 41q89 0 177.5 6t152.5 21t78 41q3 38 -12 89.5t-40.5 100.5t-56 81.5t-58.5 32.5q-20 0 -50.5 -26.5t-30.5 -50.5q0 -9 15 -26t51 -17q29 0 65 23.5t43 49.5l45 -85q-7 -37 -32.5 -74.5t-59 -63t-66.5 -25.5q-57 0 -86.5 47.5
t-29.5 117.5q0 26 10 77.5t30 106t49 93t66 38.5q39 0 74.5 -42t62.5 -108.5t42.5 -142.5t15.5 -144q0 -79 -22.5 -144t-49.5 -93q-28 -27 -88.5 -53t-138 -43t-156.5 -17zM258 1336q68 -46 111 -111l-111 -111q-42 62 -111 111zM163 1130q68 -46 111 -111l-111 -111
q-42 62 -111 111zM356 1130q68 -46 111 -111l-111 -111q-42 62 -111 111z" />
    <glyph glyph-name="uni06A4.medi" unicode="&#x6a4;" horiz-adv-x="533" arabic-form="medial" 
d="M306 700q41 0 65 -34.5t34.5 -85t10.5 -97.5q0 -132 -50.5 -241.5t-144 -175.5t-221.5 -66q-22 0 -40.5 34t-18.5 81t18.5 81t40.5 34q93 0 176.5 21.5t136.5 56.5t53 77q0 28 -26.5 66.5t-65.5 38.5q-26 0 -52 -21t-43 -48.5t-17 -48.5q0 -26 36 -51.5t93.5 -46
t121.5 -32.5t120 -12q25 0 45.5 -34t20.5 -81t-20.5 -81t-45.5 -34q-123 0 -217.5 46.5t-147.5 120t-53 154.5q0 54 14 119t40 124.5t61 97.5t76 38zM292 1250q68 -46 111 -111l-111 -111q-42 62 -111 111zM197 1044q68 -46 111 -111l-111 -111q-42 62 -111 111zM390 1044
q68 -46 111 -111l-111 -111q-42 62 -111 111z" />
    <glyph glyph-name="uni06A4.fina" unicode="&#x6a4;" horiz-adv-x="1298" arabic-form="final" 
d="M474 -30q-109 0 -208.5 25.5t-162.5 81.5t-63 146q0 64 30.5 137t91.5 133l13 -8q-36 -76 -36 -141q0 -46 38 -74.5t98.5 -43.5t131 -20.5t135.5 -5.5q101 0 205 14.5t191 40t140 59t53 71.5q0 28 -28.5 66.5t-63.5 38.5q-26 0 -52 -21t-43 -48.5t-17 -48.5
q0 -26 36 -51.5t93.5 -46t121.5 -32.5t120 -12q25 0 45.5 -34t20.5 -81t-20.5 -81t-45.5 -34q-123 0 -217.5 46.5t-147.5 120t-53 154.5q0 53 14 118t40 124.5t61 98t76 38.5q38 0 62 -34.5t36 -85t12 -97.5q0 -238 -184 -375.5t-523 -137.5zM1054 1238q68 -46 111 -111
l-111 -111q-42 62 -111 111zM959 1032q68 -46 111 -111l-111 -111q-42 62 -111 111zM1152 1032q68 -46 111 -111l-111 -111q-42 62 -111 111z" />
    <glyph glyph-name="uni06A5.init" unicode="&#x6a5;" horiz-adv-x="503" 
d="M0 0q-30 0 -41 40t-11 73q0 35 11 76t41 41q89 0 177.5 6t152.5 21t78 41q3 38 -12 89.5t-40.5 100.5t-56 81.5t-58.5 32.5q-20 0 -50.5 -26.5t-30.5 -50.5q0 -9 15 -26t51 -17q29 0 65 23.5t43 49.5l45 -85q-7 -37 -32.5 -74.5t-59 -63t-66.5 -25.5q-57 0 -86.5 47.5
t-29.5 117.5q0 26 10 77.5t30 106t49 93t66 38.5q39 0 74.5 -42t62.5 -108.5t42.5 -142.5t15.5 -144q0 -79 -22.5 -144t-49.5 -93q-28 -27 -88.5 -53t-138 -43t-156.5 -17zM237 -328q68 -46 111 -111l-111 -111q-42 62 -111 111zM141 -123q68 -46 111 -111l-111 -111
q-42 62 -111 111zM334 -123q68 -46 111 -111l-111 -111q-42 62 -111 111z" />
    <glyph glyph-name="uni06A5.medi" unicode="&#x6a5;" horiz-adv-x="533" 
d="M306 700q41 0 65 -34.5t34.5 -85t10.5 -97.5q0 -132 -50.5 -241.5t-144 -175.5t-221.5 -66q-22 0 -40.5 34t-18.5 81t18.5 81t40.5 34q93 0 176.5 21.5t136.5 56.5t53 77q0 28 -26.5 66.5t-65.5 38.5q-26 0 -52 -21t-43 -48.5t-17 -48.5q0 -26 36 -51.5t93.5 -46
t121.5 -32.5t120 -12q25 0 45.5 -34t20.5 -81t-20.5 -81t-45.5 -34q-123 0 -217.5 46.5t-147.5 120t-53 154.5q0 54 14 119t40 124.5t61 97.5t76 38zM199 -328q68 -46 111 -111l-111 -111q-42 62 -111 111zM103 -123q68 -46 111 -111l-111 -111q-42 62 -111 111zM296 -123
q68 -46 111 -111l-111 -111q-42 62 -111 111z" />
    <glyph glyph-name="uni06A5.fina" unicode="&#x6a5;" horiz-adv-x="1298" 
d="M474 -30q-109 0 -208.5 25.5t-162.5 81.5t-63 146q0 64 30.5 137t91.5 133l13 -8q-36 -76 -36 -141q0 -46 38 -74.5t98.5 -43.5t131 -20.5t135.5 -5.5q101 0 205 14.5t191 40t140 59t53 71.5q0 28 -28.5 66.5t-63.5 38.5q-26 0 -52 -21t-43 -48.5t-17 -48.5
q0 -26 36 -51.5t93.5 -46t121.5 -32.5t120 -12q25 0 45.5 -34t20.5 -81t-20.5 -81t-45.5 -34q-123 0 -217.5 46.5t-147.5 120t-53 154.5q0 53 14 118t40 124.5t61 98t76 38.5q38 0 62 -34.5t36 -85t12 -97.5q0 -238 -184 -375.5t-523 -137.5zM930 -328q68 -46 111 -111
l-111 -111q-42 62 -111 111zM834 -123q68 -46 111 -111l-111 -111q-42 62 -111 111zM1027 -123q68 -46 111 -111l-111 -111q-42 62 -111 111z" />
    <glyph glyph-name="uni06A6.init" unicode="&#x6a6;" horiz-adv-x="503" arabic-form="initial" 
d="M0 0q-30 0 -41 40t-11 73q0 35 11 76t41 41q89 0 177.5 6t152.5 21t78 41q3 38 -12 89.5t-40.5 100.5t-56 81.5t-58.5 32.5q-20 0 -50.5 -26.5t-30.5 -50.5q0 -9 15 -26t51 -17q29 0 65 23.5t43 49.5l45 -85q-7 -37 -32.5 -74.5t-59 -63t-66.5 -25.5q-57 0 -86.5 47.5
t-29.5 117.5q0 26 10 77.5t30 106t49 93t66 38.5q39 0 74.5 -42t62.5 -108.5t42.5 -142.5t15.5 -144q0 -79 -22.5 -144t-49.5 -93q-28 -27 -88.5 -53t-138 -43t-156.5 -17zM160 1325q68 -46 111 -111l-111 -111q-42 62 -111 111zM353 1325q68 -46 111 -111l-111 -111
q-42 62 -111 111zM160 1129q68 -46 111 -111l-111 -111q-42 62 -111 111zM353 1129q68 -46 111 -111l-111 -111q-42 62 -111 111z" />
    <glyph glyph-name="uni06A6.medi" unicode="&#x6a6;" horiz-adv-x="533" arabic-form="medial" 
d="M306 700q41 0 65 -34.5t34.5 -85t10.5 -97.5q0 -132 -50.5 -241.5t-144 -175.5t-221.5 -66q-22 0 -40.5 34t-18.5 81t18.5 81t40.5 34q93 0 176.5 21.5t136.5 56.5t53 77q0 28 -26.5 66.5t-65.5 38.5q-26 0 -52 -21t-43 -48.5t-17 -48.5q0 -26 36 -51.5t93.5 -46
t121.5 -32.5t120 -12q25 0 45.5 -34t20.5 -81t-20.5 -81t-45.5 -34q-123 0 -217.5 46.5t-147.5 120t-53 154.5q0 54 14 119t40 124.5t61 97.5t76 38zM194 1239q68 -46 111 -111l-111 -111q-42 62 -111 111zM387 1239q68 -46 111 -111l-111 -111q-42 62 -111 111zM194 1043
q68 -46 111 -111l-111 -111q-42 62 -111 111zM387 1043q68 -46 111 -111l-111 -111q-42 62 -111 111z" />
    <glyph glyph-name="uni06A6.fina" unicode="&#x6a6;" horiz-adv-x="1298" arabic-form="final" 
d="M474 -30q-109 0 -208.5 25.5t-162.5 81.5t-63 146q0 64 30.5 137t91.5 133l13 -8q-36 -76 -36 -141q0 -46 38 -74.5t98.5 -43.5t131 -20.5t135.5 -5.5q101 0 205 14.5t191 40t140 59t53 71.5q0 28 -28.5 66.5t-63.5 38.5q-26 0 -52 -21t-43 -48.5t-17 -48.5
q0 -26 36 -51.5t93.5 -46t121.5 -32.5t120 -12q25 0 45.5 -34t20.5 -81t-20.5 -81t-45.5 -34q-123 0 -217.5 46.5t-147.5 120t-53 154.5q0 53 14 118t40 124.5t61 98t76 38.5q38 0 62 -34.5t36 -85t12 -97.5q0 -238 -184 -375.5t-523 -137.5zM956 1227q68 -46 111 -111
l-111 -111q-42 62 -111 111zM1149 1227q68 -46 111 -111l-111 -111q-42 62 -111 111zM956 1031q68 -46 111 -111l-111 -111q-42 62 -111 111zM1149 1031q68 -46 111 -111l-111 -111q-42 62 -111 111z" />
    <glyph glyph-name="uni06A7.init" unicode="&#x6a7;" horiz-adv-x="503" 
d="M0 0q-30 0 -41 40t-11 73q0 35 11 76t41 41q89 0 177.5 6t152.5 21t78 41q3 38 -12 89.5t-40.5 100.5t-56 81.5t-58.5 32.5q-20 0 -50.5 -26.5t-30.5 -50.5q0 -9 15 -26t51 -17q29 0 65 23.5t43 49.5l45 -85q-7 -37 -32.5 -74.5t-59 -63t-66.5 -25.5q-57 0 -86.5 47.5
t-29.5 117.5q0 26 10 77.5t30 106t49 93t66 38.5q39 0 74.5 -42t62.5 -108.5t42.5 -142.5t15.5 -144q0 -79 -22.5 -144t-49.5 -93q-28 -27 -88.5 -53t-138 -43t-156.5 -17zM259 1127q68 -46 111 -111l-111 -111q-42 62 -111 111z" />
    <glyph glyph-name="uni06A7.medi" unicode="&#x6a7;" horiz-adv-x="533" 
d="M306 700q41 0 65 -34.5t34.5 -85t10.5 -97.5q0 -132 -50.5 -241.5t-144 -175.5t-221.5 -66q-22 0 -40.5 34t-18.5 81t18.5 81t40.5 34q93 0 176.5 21.5t136.5 56.5t53 77q0 28 -26.5 66.5t-65.5 38.5q-26 0 -52 -21t-43 -48.5t-17 -48.5q0 -26 36 -51.5t93.5 -46
t121.5 -32.5t120 -12q25 0 45.5 -34t20.5 -81t-20.5 -81t-45.5 -34q-123 0 -217.5 46.5t-147.5 120t-53 154.5q0 54 14 119t40 124.5t61 97.5t76 38zM293 1041q68 -46 111 -111l-111 -111q-42 62 -111 111z" />
    <glyph glyph-name="uni06A7.fina" unicode="&#x6a7;" horiz-adv-x="909" 
d="M353 -330q-103 0 -172.5 45.5t-105 121t-35.5 166.5q0 72 22.5 147.5t70.5 147.5l14 -6q-45 -115 -45 -200q0 -95 78.5 -143.5t208.5 -48.5q83 0 170.5 21t147.5 62.5t60 100.5q0 95 -22 154.5t-49.5 88t-44.5 28.5q-20 0 -45.5 -31t-25.5 -51q0 -9 24.5 -26t73.5 -17
h231q26 0 38 -40t12 -75t-12 -75t-38 -40h-227q-53 0 -87.5 35.5t-52 86.5t-17.5 98q0 26 8 82t25.5 116.5t46.5 103.5t70 43q39 0 66 -42.5t43 -113t23 -155.5t8 -170q0 -114 -62.5 -208t-167.5 -150t-232 -56zM676 906q68 -46 111 -111l-111 -111q-42 62 -111 111z" />
    <glyph glyph-name="uni06A8.init" unicode="&#x6a8;" horiz-adv-x="503" 
d="M0 0q-30 0 -41 40t-11 73q0 35 11 76t41 41q89 0 177.5 6t152.5 21t78 41q3 38 -12 89.5t-40.5 100.5t-56 81.5t-58.5 32.5q-20 0 -50.5 -26.5t-30.5 -50.5q0 -9 15 -26t51 -17q29 0 65 23.5t43 49.5l45 -85q-7 -37 -32.5 -74.5t-59 -63t-66.5 -25.5q-57 0 -86.5 47.5
t-29.5 117.5q0 26 10 77.5t30 106t49 93t66 38.5q39 0 74.5 -42t62.5 -108.5t42.5 -142.5t15.5 -144q0 -79 -22.5 -144t-49.5 -93q-28 -27 -88.5 -53t-138 -43t-156.5 -17zM258 1336q68 -46 111 -111l-111 -111q-42 62 -111 111zM163 1130q68 -46 111 -111l-111 -111
q-42 62 -111 111zM356 1130q68 -46 111 -111l-111 -111q-42 62 -111 111z" />
    <glyph glyph-name="uni06A8.medi" unicode="&#x6a8;" horiz-adv-x="533" 
d="M306 700q41 0 65 -34.5t34.5 -85t10.5 -97.5q0 -132 -50.5 -241.5t-144 -175.5t-221.5 -66q-22 0 -40.5 34t-18.5 81t18.5 81t40.5 34q93 0 176.5 21.5t136.5 56.5t53 77q0 28 -26.5 66.5t-65.5 38.5q-26 0 -52 -21t-43 -48.5t-17 -48.5q0 -26 36 -51.5t93.5 -46
t121.5 -32.5t120 -12q25 0 45.5 -34t20.5 -81t-20.5 -81t-45.5 -34q-123 0 -217.5 46.5t-147.5 120t-53 154.5q0 54 14 119t40 124.5t61 97.5t76 38zM292 1250q68 -46 111 -111l-111 -111q-42 62 -111 111zM197 1044q68 -46 111 -111l-111 -111q-42 62 -111 111zM390 1044
q68 -46 111 -111l-111 -111q-42 62 -111 111z" />
    <glyph glyph-name="uni06A8.fina" unicode="&#x6a8;" horiz-adv-x="909" 
d="M353 -330q-103 0 -172.5 45.5t-105 121t-35.5 166.5q0 72 22.5 147.5t70.5 147.5l14 -6q-45 -115 -45 -200q0 -95 78.5 -143.5t208.5 -48.5q83 0 170.5 21t147.5 62.5t60 100.5q0 95 -22 154.5t-49.5 88t-44.5 28.5q-20 0 -45.5 -31t-25.5 -51q0 -9 24.5 -26t73.5 -17
h231q26 0 38 -40t12 -75t-12 -75t-38 -40h-227q-53 0 -87.5 35.5t-52 86.5t-17.5 98q0 26 8 82t25.5 116.5t46.5 103.5t70 43q39 0 66 -42.5t43 -113t23 -155.5t8 -170q0 -114 -62.5 -208t-167.5 -150t-232 -56zM675 1114q68 -46 111 -111l-111 -111q-42 62 -111 111z
M580 909q68 -46 111 -111l-111 -111q-42 62 -111 111zM773 909q68 -46 111 -111l-111 -111q-42 62 -111 111z" />
    <glyph glyph-name="uni06A9.init" unicode="&#x6a9;" horiz-adv-x="633" arabic-form="initial" 
d="M694 1095l-53 -202q-62 -23 -139 -56t-147.5 -68t-115.5 -65t-45 -47t27 -34.5t67.5 -42t81 -61t68 -92t27.5 -134.5q-1 -128 -93.5 -210.5t-276.5 -82.5h-95q-22 0 -38 34t-16 81t16 81t38 34h215q119 0 155.5 18.5t36.5 39.5q1 47 -34.5 87t-87.5 74t-104.5 64.5
t-88 59t-35.5 57.5q0 21 9 62.5t25 58.5q30 33 99.5 79t159 95.5t180.5 94t164 75.5z" />
    <glyph glyph-name="uni06A9.medi" unicode="&#x6a9;" horiz-adv-x="951" arabic-form="medial" 
d="M694 1095l-53 -202q-62 -23 -139 -56t-147.5 -68t-115.5 -65t-45 -47t27 -34.5t67.5 -42t81 -61t68 -92t27.5 -134.5q-1 -128 -93.5 -210.5t-276.5 -82.5h-95q-22 0 -38 34t-16 81t16 81t38 34h215q119 0 155.5 18.5t36.5 39.5q1 47 -34.5 87t-87.5 74t-104.5 64.5
t-88 59t-35.5 57.5q0 21 9 62.5t25 58.5q30 33 99.5 79t159 95.5t180.5 94t164 75.5zM256 601q119 -62 199 -117.5t138 -102t108.5 -80.5t109 -52.5t141.5 -18.5q25 0 40 -38.5t15 -77.5q0 -41 -15.5 -77.5t-39.5 -36.5q-97 0 -173.5 45t-141 111.5t-122.5 131.5t-118 105z
" />
    <glyph glyph-name="uni06A9.fina" unicode="&#x6a9;" horiz-adv-x="1544" arabic-form="final" 
d="M599 0h-310q-83 0 -138.5 36.5t-83 93.5t-27.5 118q0 64 30.5 144t91.5 141l13 -8q-19 -37 -27.5 -73t-8.5 -68q0 -69 45.5 -111.5t139.5 -42.5h278q18 0 27.5 -37.5t9.5 -69.5q0 -35 -10 -79t-30 -44zM1289 1095l-53 -202q-62 -23 -139 -56t-147.5 -68t-115.5 -65
t-45 -47t27 -34.5t67.5 -42t81 -61t68 -92t27.5 -134.5q-1 -128 -93.5 -210.5t-276.5 -82.5h-95q-22 0 -38 34t-16 81t16 81t38 34h215q119 0 155.5 18.5t36.5 39.5q1 47 -34.5 87t-87.5 74t-104.5 64.5t-88 59t-35.5 57.5q0 21 9 62.5t25 58.5q30 33 99.5 79t159 95.5
t180.5 94t164 75.5zM849 601q119 -62 199 -117.5t138 -102t108.5 -80.5t109 -52.5t141.5 -18.5q25 0 40 -38.5t15 -77.5q0 -41 -15.5 -77.5t-39.5 -36.5q-97 0 -173.5 45t-141 111.5t-122.5 131.5t-118 105z" />
    <glyph glyph-name="uni06AA.init" unicode="&#x6aa;" horiz-adv-x="1132" 
d="M312 0h-312q-28 0 -41 40t-13 75t13 75t41 40h312v-230zM199 230h684q69 0 103.5 15.5t34.5 26.5q0 47 -30.5 74t-118.5 27h-664q-82 0 -121.5 57t-39.5 118q0 77 38.5 151t101.5 134.5t137.5 97t145.5 36.5q25 0 55.5 -6.5t53 -23.5t22.5 -48l-39 -191q-7 43 -49.5 57.5
t-78.5 14.5q-90 0 -166.5 -26.5t-123 -64t-46.5 -72.5q0 -9 27 -23t86 -14h678q91 0 147 -51.5t56 -129.5q0 -45 -24 -110t-75.5 -129t-133.5 -107t-198 -43h-462v230z" />
    <glyph glyph-name="uni06AA.medi" unicode="&#x6aa;" horiz-adv-x="1152" 
d="M312 0h-312q-25 0 -37 40t-12 75t12 75t37 40h312v-230zM199 230h684q69 0 103.5 15.5t34.5 26.5q0 47 -30.5 74t-118.5 27h-664q-82 0 -121.5 57t-39.5 118q0 77 38.5 151t101.5 134.5t137.5 97t145.5 36.5q25 0 55.5 -6.5t53 -23.5t22.5 -48l-39 -191q-7 43 -49.5 57.5
t-78.5 14.5q-90 0 -166.5 -26.5t-123 -64t-46.5 -72.5q0 -9 27 -23t86 -14h678q91 0 147 -51.5t56 -129.5q0 -45 -24 -110t-75.5 -129t-133.5 -107t-198 -43h-462v230zM1152 0q-77 0 -128.5 27.5t-77.5 90.5l119 180q2 -40 23.5 -54t63.5 -14q32 0 47.5 -38.5t15.5 -77.5
q0 -34 -17 -74t-46 -40z" />
    <glyph glyph-name="uni06AA.fina" unicode="&#x6aa;" horiz-adv-x="1403" 
d="M460 0q-46 0 -106.5 20t-121.5 51.5t-110 68.5t-74 70v20h432v-230h-20zM450 229h684q69 0 103.5 15.5t34.5 26.5q0 47 -30.5 74t-118.5 27h-664q-82 0 -121.5 57t-39.5 118q0 77 38.5 151t101.5 134.5t137.5 97t145.5 36.5q25 0 55.5 -6.5t53 -23.5t22.5 -48l-39 -191
q-7 43 -49.5 57.5t-78.5 14.5q-90 0 -166.5 -26.5t-123 -64t-46.5 -72.5q0 -9 27 -23t86 -14h678q91 0 147 -51.5t56 -129.5q0 -45 -24 -110t-75.5 -129t-133.5 -107t-198 -43h-462v230zM1403 0q-77 0 -128.5 27.5t-77.5 90.5l119 180q2 -40 23.5 -54t63.5 -14
q32 0 47.5 -38.5t15.5 -77.5q0 -34 -17 -74t-46 -40z" />
    <glyph glyph-name="uni06AB.init" unicode="&#x6ab;" horiz-adv-x="633" 
d="M694 1095l-53 -202q-62 -23 -139 -56t-147.5 -68t-115.5 -65t-45 -47t27 -34.5t67.5 -42t81 -61t68 -92t27.5 -134.5q-1 -128 -93.5 -210.5t-276.5 -82.5h-95q-22 0 -38 34t-16 81t16 81t38 34h215q119 0 155.5 18.5t36.5 39.5q1 47 -34.5 87t-87.5 74t-104.5 64.5
t-88 59t-35.5 57.5q0 21 9 62.5t25 58.5q30 33 99.5 79t159 95.5t180.5 94t164 75.5zM459 593q-66 0 -86.5 40.5t-20.5 90.5q0 31 12 65t36 58.5t59 24.5q36 0 60 -24.5t36.5 -58.5t12.5 -65q0 -50 -21.5 -90.5t-87.5 -40.5zM459 678q28 0 48.5 9.5t20.5 43.5
q0 35 -20.5 57.5t-48.5 22.5t-47.5 -22.5t-19.5 -57.5q0 -37 19.5 -45t47.5 -8z" />
    <glyph glyph-name="uni06AB.medi" unicode="&#x6ab;" horiz-adv-x="951" 
d="M694 1095l-53 -202q-62 -23 -139 -56t-147.5 -68t-115.5 -65t-45 -47t27 -34.5t67.5 -42t81 -61t68 -92t27.5 -134.5q-1 -128 -93.5 -210.5t-276.5 -82.5h-95q-22 0 -38 34t-16 81t16 81t38 34h215q119 0 155.5 18.5t36.5 39.5q1 47 -34.5 87t-87.5 74t-104.5 64.5
t-88 59t-35.5 57.5q0 21 9 62.5t25 58.5q30 33 99.5 79t159 95.5t180.5 94t164 75.5zM256 601q119 -62 199 -117.5t138 -102t108.5 -80.5t109 -52.5t141.5 -18.5q25 0 40 -38.5t15 -77.5q0 -41 -15.5 -77.5t-39.5 -36.5q-97 0 -173.5 45t-141 111.5t-122.5 131.5t-118 105z
M496 607q-66 0 -86.5 40.5t-20.5 90.5q0 31 12 65t36 58.5t59 24.5q36 0 60 -24.5t36.5 -58.5t12.5 -65q0 -50 -21.5 -90.5t-87.5 -40.5zM496 692q28 0 48.5 9.5t20.5 43.5q0 35 -20.5 57.5t-48.5 22.5t-47.5 -22.5t-19.5 -57.5q0 -37 19.5 -45t47.5 -8z" />
    <glyph glyph-name="uni06AB.fina" unicode="&#x6ab;" horiz-adv-x="1544" 
d="M599 0h-310q-83 0 -138.5 36.5t-83 93.5t-27.5 118q0 64 30.5 144t91.5 141l13 -8q-19 -37 -27.5 -73t-8.5 -68q0 -69 45.5 -111.5t139.5 -42.5h278q18 0 27.5 -37.5t9.5 -69.5q0 -35 -10 -79t-30 -44zM1289 1095l-53 -202q-62 -23 -139 -56t-147.5 -68t-115.5 -65
t-45 -47t27 -34.5t67.5 -42t81 -61t68 -92t27.5 -134.5q-1 -128 -93.5 -210.5t-276.5 -82.5h-95q-22 0 -38 34t-16 81t16 81t38 34h215q119 0 155.5 18.5t36.5 39.5q1 47 -34.5 87t-87.5 74t-104.5 64.5t-88 59t-35.5 57.5q0 21 9 62.5t25 58.5q30 33 99.5 79t159 95.5
t180.5 94t164 75.5zM849 601q119 -62 199 -117.5t138 -102t108.5 -80.5t109 -52.5t141.5 -18.5q25 0 40 -38.5t15 -77.5q0 -41 -15.5 -77.5t-39.5 -36.5q-97 0 -173.5 45t-141 111.5t-122.5 131.5t-118 105zM1089 607q-66 0 -86.5 40.5t-20.5 90.5q0 31 12 65t36 58.5
t59 24.5q36 0 60 -24.5t36.5 -58.5t12.5 -65q0 -50 -21.5 -90.5t-87.5 -40.5zM1089 692q28 0 48.5 9.5t20.5 43.5q0 35 -20.5 57.5t-48.5 22.5t-47.5 -22.5t-19.5 -57.5q0 -37 19.5 -45t47.5 -8z" />
    <glyph glyph-name="uni06AC.init" unicode="&#x6ac;" horiz-adv-x="633" 
d="M694 1095l-53 -202q-62 -23 -139 -56t-147.5 -68t-115.5 -65t-45 -47t27 -34.5t67.5 -42t81 -61t68 -92t27.5 -134.5q-1 -128 -93.5 -210.5t-276.5 -82.5h-95q-22 0 -38 34t-16 81t16 81t38 34h215q119 0 155.5 18.5t36.5 39.5q1 47 -34.5 87t-87.5 74t-104.5 64.5
t-88 59t-35.5 57.5q0 21 9 62.5t25 58.5q30 33 99.5 79t159 95.5t180.5 94t164 75.5zM113 1136q68 -46 111 -111l-111 -111q-42 62 -111 111z" />
    <glyph glyph-name="uni06AC.medi" unicode="&#x6ac;" horiz-adv-x="951" 
d="M694 1095l-53 -202q-62 -23 -139 -56t-147.5 -68t-115.5 -65t-45 -47t27 -34.5t67.5 -42t81 -61t68 -92t27.5 -134.5q-1 -128 -93.5 -210.5t-276.5 -82.5h-95q-22 0 -38 34t-16 81t16 81t38 34h215q119 0 155.5 18.5t36.5 39.5q1 47 -34.5 87t-87.5 74t-104.5 64.5
t-88 59t-35.5 57.5q0 21 9 62.5t25 58.5q30 33 99.5 79t159 95.5t180.5 94t164 75.5zM256 601q119 -62 199 -117.5t138 -102t108.5 -80.5t109 -52.5t141.5 -18.5q25 0 40 -38.5t15 -77.5q0 -41 -15.5 -77.5t-39.5 -36.5q-97 0 -173.5 45t-141 111.5t-122.5 131.5t-118 105z
M113 1136q68 -46 111 -111l-111 -111q-42 62 -111 111z" />
    <glyph glyph-name="uni06AC.fina" unicode="&#x6ac;" horiz-adv-x="1168" 
d="M730 0q-36 0 -50 40t-14 75t14 75t50 40q160 0 160 156q0 20 -4 78t-14.5 173t-31.5 305l91 30q3 -84 6 -143t6.5 -110t8.5 -110t13 -143q10 -123 60.5 -179.5t142.5 -56.5q34 0 49.5 -40t15.5 -75t-15.5 -75t-49.5 -40q-60 0 -110.5 41t-84 106.5t-41.5 139.5l17 2
q-6 -125 -66 -207t-153 -82zM699 571q0 -75 -77.5 -121.5t-209.5 -46.5q-28 0 -64 17t-54 34q53 0 114 6.5t104.5 18t43.5 25.5q0 12 -24.5 17t-55.5 9.5t-55 15t-24 33.5q0 38 26.5 86t74 92.5t110.5 70.5l29 -98q-20 -5 -47.5 -16.5t-48.5 -25.5t-21 -25q0 -15 27 -19.5
t62.5 -9.5t62.5 -18.5t27 -44.5zM599 0h-310q-83 0 -138.5 36.5t-83 93.5t-27.5 118q0 64 30.5 144t91.5 141l13 -8q-19 -37 -27.5 -73t-8.5 -68q0 -69 45.5 -111.5t139.5 -42.5h278q18 0 27.5 -37.5t9.5 -69.5q0 -35 -10 -79t-30 -44zM916 1134l18 -10q-38 -76 -14 -128
t118 -80l-69 -168q-186 73 -186 163q0 32 23.5 77.5t55 86t54.5 59.5zM729 0h-135q-32 0 -45.5 40t-13.5 75t13.5 75t45.5 40h135q30 0 45 -40t15 -75t-15 -75t-45 -40zM504 1126q68 -46 111 -111l-111 -111q-42 62 -111 111z" />
    <glyph glyph-name="uni06AD.init" unicode="&#x6ad;" horiz-adv-x="633" arabic-form="initial" 
d="M694 1095l-53 -202q-62 -23 -139 -56t-147.5 -68t-115.5 -65t-45 -47t27 -34.5t67.5 -42t81 -61t68 -92t27.5 -134.5q-1 -128 -93.5 -210.5t-276.5 -82.5h-95q-22 0 -38 34t-16 81t16 81t38 34h215q119 0 155.5 18.5t36.5 39.5q1 47 -34.5 87t-87.5 74t-104.5 64.5
t-88 59t-35.5 57.5q0 21 9 62.5t25 58.5q30 33 99.5 79t159 95.5t180.5 94t164 75.5zM112 1345q68 -46 111 -111l-111 -111q-42 62 -111 111zM17 1139q68 -46 111 -111l-111 -111q-42 62 -111 111zM210 1139q68 -46 111 -111l-111 -111q-42 62 -111 111z" />
    <glyph glyph-name="uni06AD.medi" unicode="&#x6ad;" horiz-adv-x="951" arabic-form="medial" 
d="M694 1095l-53 -202q-62 -23 -139 -56t-147.5 -68t-115.5 -65t-45 -47t27 -34.5t67.5 -42t81 -61t68 -92t27.5 -134.5q-1 -128 -93.5 -210.5t-276.5 -82.5h-95q-22 0 -38 34t-16 81t16 81t38 34h215q119 0 155.5 18.5t36.5 39.5q1 47 -34.5 87t-87.5 74t-104.5 64.5
t-88 59t-35.5 57.5q0 21 9 62.5t25 58.5q30 33 99.5 79t159 95.5t180.5 94t164 75.5zM256 601q119 -62 199 -117.5t138 -102t108.5 -80.5t109 -52.5t141.5 -18.5q25 0 40 -38.5t15 -77.5q0 -41 -15.5 -77.5t-39.5 -36.5q-97 0 -173.5 45t-141 111.5t-122.5 131.5t-118 105z
M112 1345q68 -46 111 -111l-111 -111q-42 62 -111 111zM17 1139q68 -46 111 -111l-111 -111q-42 62 -111 111zM210 1139q68 -46 111 -111l-111 -111q-42 62 -111 111z" />
    <glyph glyph-name="uni06AD.fina" unicode="&#x6ad;" horiz-adv-x="1168" arabic-form="final" 
d="M730 0q-36 0 -50 40t-14 75t14 75t50 40q160 0 160 156q0 20 -4 78t-14.5 173t-31.5 305l91 30q3 -84 6 -143t6.5 -110t8.5 -110t13 -143q10 -123 60.5 -179.5t142.5 -56.5q34 0 49.5 -40t15.5 -75t-15.5 -75t-49.5 -40q-60 0 -110.5 41t-84 106.5t-41.5 139.5l17 2
q-6 -125 -66 -207t-153 -82zM699 571q0 -75 -77.5 -121.5t-209.5 -46.5q-28 0 -64 17t-54 34q53 0 114 6.5t104.5 18t43.5 25.5q0 12 -24.5 17t-55.5 9.5t-55 15t-24 33.5q0 38 26.5 86t74 92.5t110.5 70.5l29 -98q-20 -5 -47.5 -16.5t-48.5 -25.5t-21 -25q0 -15 27 -19.5
t62.5 -9.5t62.5 -18.5t27 -44.5zM599 0h-310q-83 0 -138.5 36.5t-83 93.5t-27.5 118q0 64 30.5 144t91.5 141l13 -8q-19 -37 -27.5 -73t-8.5 -68q0 -69 45.5 -111.5t139.5 -42.5h278q18 0 27.5 -37.5t9.5 -69.5q0 -35 -10 -79t-30 -44zM916 1134l18 -10q-38 -76 -14 -128
t118 -80l-69 -168q-186 73 -186 163q0 32 23.5 77.5t55 86t54.5 59.5zM729 0h-135q-32 0 -45.5 40t-13.5 75t13.5 75t45.5 40h135q30 0 45 -40t15 -75t-15 -75t-45 -40zM503 1335q68 -46 111 -111l-111 -111q-42 62 -111 111zM408 1129q68 -46 111 -111l-111 -111
q-42 62 -111 111zM601 1129q68 -46 111 -111l-111 -111q-42 62 -111 111z" />
    <glyph glyph-name="uni06AE.init" unicode="&#x6ae;" horiz-adv-x="633" 
d="M694 1095l-53 -202q-62 -23 -139 -56t-147.5 -68t-115.5 -65t-45 -47t27 -34.5t67.5 -42t81 -61t68 -92t27.5 -134.5q-1 -128 -93.5 -210.5t-276.5 -82.5h-95q-22 0 -38 34t-16 81t16 81t38 34h215q119 0 155.5 18.5t36.5 39.5q1 47 -34.5 87t-87.5 74t-104.5 64.5
t-88 59t-35.5 57.5q0 21 9 62.5t25 58.5q30 33 99.5 79t159 95.5t180.5 94t164 75.5zM137 -328q68 -46 111 -111l-111 -111q-42 62 -111 111zM41 -123q68 -46 111 -111l-111 -111q-42 62 -111 111zM234 -123q68 -46 111 -111l-111 -111q-42 62 -111 111z" />
    <glyph glyph-name="uni06AE.medi" unicode="&#x6ae;" horiz-adv-x="951" 
d="M694 1095l-53 -202q-62 -23 -139 -56t-147.5 -68t-115.5 -65t-45 -47t27 -34.5t67.5 -42t81 -61t68 -92t27.5 -134.5q-1 -128 -93.5 -210.5t-276.5 -82.5h-95q-22 0 -38 34t-16 81t16 81t38 34h215q119 0 155.5 18.5t36.5 39.5q1 47 -34.5 87t-87.5 74t-104.5 64.5
t-88 59t-35.5 57.5q0 21 9 62.5t25 58.5q30 33 99.5 79t159 95.5t180.5 94t164 75.5zM256 601q119 -62 199 -117.5t138 -102t108.5 -80.5t109 -52.5t141.5 -18.5q25 0 40 -38.5t15 -77.5q0 -41 -15.5 -77.5t-39.5 -36.5q-97 0 -173.5 45t-141 111.5t-122.5 131.5t-118 105z
M176 -322q68 -46 111 -111l-111 -111q-42 62 -111 111zM80 -117q68 -46 111 -111l-111 -111q-42 62 -111 111zM273 -117q68 -46 111 -111l-111 -111q-42 62 -111 111z" />
    <glyph glyph-name="uni06AE.fina" unicode="&#x6ae;" horiz-adv-x="1168" 
d="M730 0q-36 0 -50 40t-14 75t14 75t50 40q160 0 160 156q0 20 -4 78t-14.5 173t-31.5 305l91 30q3 -84 6 -143t6.5 -110t8.5 -110t13 -143q10 -123 60.5 -179.5t142.5 -56.5q34 0 49.5 -40t15.5 -75t-15.5 -75t-49.5 -40q-60 0 -110.5 41t-84 106.5t-41.5 139.5l17 2
q-6 -125 -66 -207t-153 -82zM699 571q0 -75 -77.5 -121.5t-209.5 -46.5q-28 0 -64 17t-54 34q53 0 114 6.5t104.5 18t43.5 25.5q0 12 -24.5 17t-55.5 9.5t-55 15t-24 33.5q0 38 26.5 86t74 92.5t110.5 70.5l29 -98q-20 -5 -47.5 -16.5t-48.5 -25.5t-21 -25q0 -15 27 -19.5
t62.5 -9.5t62.5 -18.5t27 -44.5zM599 0h-310q-83 0 -138.5 36.5t-83 93.5t-27.5 118q0 64 30.5 144t91.5 141l13 -8q-19 -37 -27.5 -73t-8.5 -68q0 -69 45.5 -111.5t139.5 -42.5h278q18 0 27.5 -37.5t9.5 -69.5q0 -35 -10 -79t-30 -44zM916 1134l18 -10q-38 -76 -14 -128
t118 -80l-69 -168q-186 73 -186 163q0 32 23.5 77.5t55 86t54.5 59.5zM729 0h-135q-32 0 -45.5 40t-13.5 75t13.5 75t45.5 40h135q30 0 45 -40t15 -75t-15 -75t-45 -40zM729 -340q68 -46 111 -111l-111 -111q-42 62 -111 111zM633 -135q68 -46 111 -111l-111 -111
q-42 62 -111 111zM826 -135q68 -46 111 -111l-111 -111q-42 62 -111 111z" />
    <glyph glyph-name="uni06AF.init" unicode="&#x6af;" horiz-adv-x="633" arabic-form="initial" 
d="M694 1095l-53 -202q-62 -23 -139 -56t-147.5 -68t-115.5 -65t-45 -47t27 -34.5t67.5 -42t81 -61t68 -92t27.5 -134.5q-1 -128 -93.5 -210.5t-276.5 -82.5h-95q-22 0 -38 34t-16 81t16 81t38 34h215q119 0 155.5 18.5t36.5 39.5q1 47 -34.5 87t-87.5 74t-104.5 64.5
t-88 59t-35.5 57.5q0 21 9 62.5t25 58.5q30 33 99.5 79t159 95.5t180.5 94t164 75.5zM70 833l34 120q137 102 271 183t284 152l-34 -131q-150 -71 -285 -150t-270 -174z" />
    <glyph glyph-name="uni06AF.medi" unicode="&#x6af;" horiz-adv-x="951" arabic-form="medial" 
d="M694 1095l-53 -202q-62 -23 -139 -56t-147.5 -68t-115.5 -65t-45 -47t27 -34.5t67.5 -42t81 -61t68 -92t27.5 -134.5q-1 -128 -93.5 -210.5t-276.5 -82.5h-95q-22 0 -38 34t-16 81t16 81t38 34h215q119 0 155.5 18.5t36.5 39.5q1 47 -34.5 87t-87.5 74t-104.5 64.5
t-88 59t-35.5 57.5q0 21 9 62.5t25 58.5q30 33 99.5 79t159 95.5t180.5 94t164 75.5zM256 601q119 -62 199 -117.5t138 -102t108.5 -80.5t109 -52.5t141.5 -18.5q25 0 40 -38.5t15 -77.5q0 -41 -15.5 -77.5t-39.5 -36.5q-97 0 -173.5 45t-141 111.5t-122.5 131.5t-118 105z
M70 833l34 120q137 102 271 183t284 152l-34 -131q-150 -71 -285 -150t-270 -174z" />
    <glyph glyph-name="uni06AF.fina" unicode="&#x6af;" horiz-adv-x="1544" arabic-form="final" 
d="M599 0h-310q-83 0 -138.5 36.5t-83 93.5t-27.5 118q0 64 30.5 144t91.5 141l13 -8q-19 -37 -27.5 -73t-8.5 -68q0 -69 45.5 -111.5t139.5 -42.5h278q18 0 27.5 -37.5t9.5 -69.5q0 -35 -10 -79t-30 -44zM1289 1095l-53 -202q-62 -23 -139 -56t-147.5 -68t-115.5 -65
t-45 -47t27 -34.5t67.5 -42t81 -61t68 -92t27.5 -134.5q-1 -128 -93.5 -210.5t-276.5 -82.5h-95q-22 0 -38 34t-16 81t16 81t38 34h215q119 0 155.5 18.5t36.5 39.5q1 47 -34.5 87t-87.5 74t-104.5 64.5t-88 59t-35.5 57.5q0 21 9 62.5t25 58.5q30 33 99.5 79t159 95.5
t180.5 94t164 75.5zM849 601q119 -62 199 -117.5t138 -102t108.5 -80.5t109 -52.5t141.5 -18.5q25 0 40 -38.5t15 -77.5q0 -41 -15.5 -77.5t-39.5 -36.5q-97 0 -173.5 45t-141 111.5t-122.5 131.5t-118 105zM665 833l34 120q137 102 271 183t284 152l-34 -131
q-150 -71 -285 -150t-270 -174z" />
    <glyph glyph-name="uni06B0.init" unicode="&#x6b0;" horiz-adv-x="633" 
d="M694 1095l-53 -202q-62 -23 -139 -56t-147.5 -68t-115.5 -65t-45 -47t27 -34.5t67.5 -42t81 -61t68 -92t27.5 -134.5q-1 -128 -93.5 -210.5t-276.5 -82.5h-95q-22 0 -38 34t-16 81t16 81t38 34h215q119 0 155.5 18.5t36.5 39.5q1 47 -34.5 87t-87.5 74t-104.5 64.5
t-88 59t-35.5 57.5q0 21 9 62.5t25 58.5q30 33 99.5 79t159 95.5t180.5 94t164 75.5zM70 833l34 120q137 102 271 183t284 152l-34 -131q-150 -71 -285 -150t-270 -174zM459 593q-66 0 -86.5 40.5t-20.5 90.5q0 31 12 65t36 58.5t59 24.5q36 0 60 -24.5t36.5 -58.5t12.5 -65
q0 -50 -21.5 -90.5t-87.5 -40.5zM459 678q28 0 48.5 9.5t20.5 43.5q0 35 -20.5 57.5t-48.5 22.5t-47.5 -22.5t-19.5 -57.5q0 -37 19.5 -45t47.5 -8z" />
    <glyph glyph-name="uni06B0.medi" unicode="&#x6b0;" horiz-adv-x="951" 
d="M694 1095l-53 -202q-62 -23 -139 -56t-147.5 -68t-115.5 -65t-45 -47t27 -34.5t67.5 -42t81 -61t68 -92t27.5 -134.5q-1 -128 -93.5 -210.5t-276.5 -82.5h-95q-22 0 -38 34t-16 81t16 81t38 34h215q119 0 155.5 18.5t36.5 39.5q1 47 -34.5 87t-87.5 74t-104.5 64.5
t-88 59t-35.5 57.5q0 21 9 62.5t25 58.5q30 33 99.5 79t159 95.5t180.5 94t164 75.5zM256 601q119 -62 199 -117.5t138 -102t108.5 -80.5t109 -52.5t141.5 -18.5q25 0 40 -38.5t15 -77.5q0 -41 -15.5 -77.5t-39.5 -36.5q-97 0 -173.5 45t-141 111.5t-122.5 131.5t-118 105z
M70 833l34 120q137 102 271 183t284 152l-34 -131q-150 -71 -285 -150t-270 -174zM496 607q-66 0 -86.5 40.5t-20.5 90.5q0 31 12 65t36 58.5t59 24.5q36 0 60 -24.5t36.5 -58.5t12.5 -65q0 -50 -21.5 -90.5t-87.5 -40.5zM496 692q28 0 48.5 9.5t20.5 43.5q0 35 -20.5 57.5
t-48.5 22.5t-47.5 -22.5t-19.5 -57.5q0 -37 19.5 -45t47.5 -8z" />
    <glyph glyph-name="uni06B0.fina" unicode="&#x6b0;" horiz-adv-x="1544" 
d="M599 0h-310q-83 0 -138.5 36.5t-83 93.5t-27.5 118q0 64 30.5 144t91.5 141l13 -8q-19 -37 -27.5 -73t-8.5 -68q0 -69 45.5 -111.5t139.5 -42.5h278q18 0 27.5 -37.5t9.5 -69.5q0 -35 -10 -79t-30 -44zM1289 1095l-53 -202q-62 -23 -139 -56t-147.5 -68t-115.5 -65
t-45 -47t27 -34.5t67.5 -42t81 -61t68 -92t27.5 -134.5q-1 -128 -93.5 -210.5t-276.5 -82.5h-95q-22 0 -38 34t-16 81t16 81t38 34h215q119 0 155.5 18.5t36.5 39.5q1 47 -34.5 87t-87.5 74t-104.5 64.5t-88 59t-35.5 57.5q0 21 9 62.5t25 58.5q30 33 99.5 79t159 95.5
t180.5 94t164 75.5zM849 601q119 -62 199 -117.5t138 -102t108.5 -80.5t109 -52.5t141.5 -18.5q25 0 40 -38.5t15 -77.5q0 -41 -15.5 -77.5t-39.5 -36.5q-97 0 -173.5 45t-141 111.5t-122.5 131.5t-118 105zM665 833l34 120q137 102 271 183t284 152l-34 -131
q-150 -71 -285 -150t-270 -174zM1089 607q-66 0 -86.5 40.5t-20.5 90.5q0 31 12 65t36 58.5t59 24.5q36 0 60 -24.5t36.5 -58.5t12.5 -65q0 -50 -21.5 -90.5t-87.5 -40.5zM1089 692q28 0 48.5 9.5t20.5 43.5q0 35 -20.5 57.5t-48.5 22.5t-47.5 -22.5t-19.5 -57.5
q0 -37 19.5 -45t47.5 -8z" />
    <glyph glyph-name="uni06B1.init" unicode="&#x6b1;" horiz-adv-x="633" arabic-form="initial" 
d="M694 1095l-53 -202q-62 -23 -139 -56t-147.5 -68t-115.5 -65t-45 -47t27 -34.5t67.5 -42t81 -61t68 -92t27.5 -134.5q-1 -128 -93.5 -210.5t-276.5 -82.5h-95q-22 0 -38 34t-16 81t16 81t38 34h215q119 0 155.5 18.5t36.5 39.5q1 47 -34.5 87t-87.5 74t-104.5 64.5
t-88 59t-35.5 57.5q0 21 9 62.5t25 58.5q30 33 99.5 79t159 95.5t180.5 94t164 75.5zM45 833l34 120q137 102 271 183t284 152l-34 -131q-150 -71 -285 -150t-270 -174zM-28 1293q68 -46 111 -111l-111 -111q-42 62 -111 111zM165 1293q68 -46 111 -111l-111 -111
q-42 62 -111 111z" />
    <glyph glyph-name="uni06B1.medi" unicode="&#x6b1;" horiz-adv-x="951" arabic-form="medial" 
d="M694 1095l-53 -202q-62 -23 -139 -56t-147.5 -68t-115.5 -65t-45 -47t27 -34.5t67.5 -42t81 -61t68 -92t27.5 -134.5q-1 -128 -93.5 -210.5t-276.5 -82.5h-95q-22 0 -38 34t-16 81t16 81t38 34h215q119 0 155.5 18.5t36.5 39.5q1 47 -34.5 87t-87.5 74t-104.5 64.5
t-88 59t-35.5 57.5q0 21 9 62.5t25 58.5q30 33 99.5 79t159 95.5t180.5 94t164 75.5zM256 601q119 -62 199 -117.5t138 -102t108.5 -80.5t109 -52.5t141.5 -18.5q25 0 40 -38.5t15 -77.5q0 -41 -15.5 -77.5t-39.5 -36.5q-97 0 -173.5 45t-141 111.5t-122.5 131.5t-118 105z
M45 833l34 120q137 102 271 183t284 152l-34 -131q-150 -71 -285 -150t-270 -174zM-32 1295q68 -46 111 -111l-111 -111q-42 62 -111 111zM161 1295q68 -46 111 -111l-111 -111q-42 62 -111 111z" />
    <glyph glyph-name="uni06B1.fina" unicode="&#x6b1;" horiz-adv-x="1544" arabic-form="final" 
d="M599 0h-310q-83 0 -138.5 36.5t-83 93.5t-27.5 118q0 64 30.5 144t91.5 141l13 -8q-19 -37 -27.5 -73t-8.5 -68q0 -69 45.5 -111.5t139.5 -42.5h278q18 0 27.5 -37.5t9.5 -69.5q0 -35 -10 -79t-30 -44zM1289 1095l-53 -202q-62 -23 -139 -56t-147.5 -68t-115.5 -65
t-45 -47t27 -34.5t67.5 -42t81 -61t68 -92t27.5 -134.5q-1 -128 -93.5 -210.5t-276.5 -82.5h-95q-22 0 -38 34t-16 81t16 81t38 34h215q119 0 155.5 18.5t36.5 39.5q1 47 -34.5 87t-87.5 74t-104.5 64.5t-88 59t-35.5 57.5q0 21 9 62.5t25 58.5q30 33 99.5 79t159 95.5
t180.5 94t164 75.5zM849 601q119 -62 199 -117.5t138 -102t108.5 -80.5t109 -52.5t141.5 -18.5q25 0 40 -38.5t15 -77.5q0 -41 -15.5 -77.5t-39.5 -36.5q-97 0 -173.5 45t-141 111.5t-122.5 131.5t-118 105zM640 833l34 120q137 102 271 183t284 152l-34 -131
q-150 -71 -285 -150t-270 -174zM563 1295q68 -46 111 -111l-111 -111q-42 62 -111 111zM756 1295q68 -46 111 -111l-111 -111q-42 62 -111 111z" />
    <glyph glyph-name="uni06B2.init" unicode="&#x6b2;" horiz-adv-x="633" 
d="M694 1095l-53 -202q-62 -23 -139 -56t-147.5 -68t-115.5 -65t-45 -47t27 -34.5t67.5 -42t81 -61t68 -92t27.5 -134.5q-1 -128 -93.5 -210.5t-276.5 -82.5h-95q-22 0 -38 34t-16 81t16 81t38 34h215q119 0 155.5 18.5t36.5 39.5q1 47 -34.5 87t-87.5 74t-104.5 64.5
t-88 59t-35.5 57.5q0 21 9 62.5t25 58.5q30 33 99.5 79t159 95.5t180.5 94t164 75.5zM70 833l34 120q137 102 271 183t284 152l-34 -131q-150 -71 -285 -150t-270 -174zM41 -119q68 -46 111 -111l-111 -111q-42 62 -111 111zM234 -119q68 -46 111 -111l-111 -111
q-42 62 -111 111z" />
    <glyph glyph-name="uni06B2.medi" unicode="&#x6b2;" horiz-adv-x="951" 
d="M694 1095l-53 -202q-62 -23 -139 -56t-147.5 -68t-115.5 -65t-45 -47t27 -34.5t67.5 -42t81 -61t68 -92t27.5 -134.5q-1 -128 -93.5 -210.5t-276.5 -82.5h-95q-22 0 -38 34t-16 81t16 81t38 34h215q119 0 155.5 18.5t36.5 39.5q1 47 -34.5 87t-87.5 74t-104.5 64.5
t-88 59t-35.5 57.5q0 21 9 62.5t25 58.5q30 33 99.5 79t159 95.5t180.5 94t164 75.5zM256 601q119 -62 199 -117.5t138 -102t108.5 -80.5t109 -52.5t141.5 -18.5q25 0 40 -38.5t15 -77.5q0 -41 -15.5 -77.5t-39.5 -36.5q-97 0 -173.5 45t-141 111.5t-122.5 131.5t-118 105z
M70 833l34 120q137 102 271 183t284 152l-34 -131q-150 -71 -285 -150t-270 -174zM80 -113q68 -46 111 -111l-111 -111q-42 62 -111 111zM273 -113q68 -46 111 -111l-111 -111q-42 62 -111 111z" />
    <glyph glyph-name="uni06B2.fina" unicode="&#x6b2;" horiz-adv-x="1544" 
d="M599 0h-310q-83 0 -138.5 36.5t-83 93.5t-27.5 118q0 64 30.5 144t91.5 141l13 -8q-19 -37 -27.5 -73t-8.5 -68q0 -69 45.5 -111.5t139.5 -42.5h278q18 0 27.5 -37.5t9.5 -69.5q0 -35 -10 -79t-30 -44zM1289 1095l-53 -202q-62 -23 -139 -56t-147.5 -68t-115.5 -65
t-45 -47t27 -34.5t67.5 -42t81 -61t68 -92t27.5 -134.5q-1 -128 -93.5 -210.5t-276.5 -82.5h-95q-22 0 -38 34t-16 81t16 81t38 34h215q119 0 155.5 18.5t36.5 39.5q1 47 -34.5 87t-87.5 74t-104.5 64.5t-88 59t-35.5 57.5q0 21 9 62.5t25 58.5q30 33 99.5 79t159 95.5
t180.5 94t164 75.5zM849 601q119 -62 199 -117.5t138 -102t108.5 -80.5t109 -52.5t141.5 -18.5q25 0 40 -38.5t15 -77.5q0 -41 -15.5 -77.5t-39.5 -36.5q-97 0 -173.5 45t-141 111.5t-122.5 131.5t-118 105zM665 833l34 120q137 102 271 183t284 152l-34 -131
q-150 -71 -285 -150t-270 -174zM722 -119q68 -46 111 -111l-111 -111q-42 62 -111 111zM915 -119q68 -46 111 -111l-111 -111q-42 62 -111 111z" />
    <glyph glyph-name="uni06B3.init" unicode="&#x6b3;" horiz-adv-x="633" arabic-form="initial" 
d="M694 1095l-53 -202q-62 -23 -139 -56t-147.5 -68t-115.5 -65t-45 -47t27 -34.5t67.5 -42t81 -61t68 -92t27.5 -134.5q-1 -128 -93.5 -210.5t-276.5 -82.5h-95q-22 0 -38 34t-16 81t16 81t38 34h215q119 0 155.5 18.5t36.5 39.5q1 47 -34.5 87t-87.5 74t-104.5 64.5
t-88 59t-35.5 57.5q0 21 9 62.5t25 58.5q30 33 99.5 79t159 95.5t180.5 94t164 75.5zM70 833l34 120q137 102 271 183t284 152l-34 -131q-150 -71 -285 -150t-270 -174zM137 -323q68 -46 111 -111l-111 -111q-42 62 -111 111zM137 -129q68 -46 111 -111l-111 -111
q-42 62 -111 111z" />
    <glyph glyph-name="uni06B3.medi" unicode="&#x6b3;" horiz-adv-x="951" arabic-form="medial" 
d="M694 1095l-53 -202q-62 -23 -139 -56t-147.5 -68t-115.5 -65t-45 -47t27 -34.5t67.5 -42t81 -61t68 -92t27.5 -134.5q-1 -128 -93.5 -210.5t-276.5 -82.5h-95q-22 0 -38 34t-16 81t16 81t38 34h215q119 0 155.5 18.5t36.5 39.5q1 47 -34.5 87t-87.5 74t-104.5 64.5
t-88 59t-35.5 57.5q0 21 9 62.5t25 58.5q30 33 99.5 79t159 95.5t180.5 94t164 75.5zM256 601q119 -62 199 -117.5t138 -102t108.5 -80.5t109 -52.5t141.5 -18.5q25 0 40 -38.5t15 -77.5q0 -41 -15.5 -77.5t-39.5 -36.5q-97 0 -173.5 45t-141 111.5t-122.5 131.5t-118 105z
M70 833l34 120q137 102 271 183t284 152l-34 -131q-150 -71 -285 -150t-270 -174zM176 -317q68 -46 111 -111l-111 -111q-42 62 -111 111zM176 -123q68 -46 111 -111l-111 -111q-42 62 -111 111z" />
    <glyph glyph-name="uni06B3.fina" unicode="&#x6b3;" horiz-adv-x="1544" arabic-form="final" 
d="M599 0h-310q-83 0 -138.5 36.5t-83 93.5t-27.5 118q0 64 30.5 144t91.5 141l13 -8q-19 -37 -27.5 -73t-8.5 -68q0 -69 45.5 -111.5t139.5 -42.5h278q18 0 27.5 -37.5t9.5 -69.5q0 -35 -10 -79t-30 -44zM1289 1095l-53 -202q-62 -23 -139 -56t-147.5 -68t-115.5 -65
t-45 -47t27 -34.5t67.5 -42t81 -61t68 -92t27.5 -134.5q-1 -128 -93.5 -210.5t-276.5 -82.5h-95q-22 0 -38 34t-16 81t16 81t38 34h215q119 0 155.5 18.5t36.5 39.5q1 47 -34.5 87t-87.5 74t-104.5 64.5t-88 59t-35.5 57.5q0 21 9 62.5t25 58.5q30 33 99.5 79t159 95.5
t180.5 94t164 75.5zM849 601q119 -62 199 -117.5t138 -102t108.5 -80.5t109 -52.5t141.5 -18.5q25 0 40 -38.5t15 -77.5q0 -41 -15.5 -77.5t-39.5 -36.5q-97 0 -173.5 45t-141 111.5t-122.5 131.5t-118 105zM665 833l34 120q137 102 271 183t284 152l-34 -131
q-150 -71 -285 -150t-270 -174zM818 -323q68 -46 111 -111l-111 -111q-42 62 -111 111zM818 -129q68 -46 111 -111l-111 -111q-42 62 -111 111z" />
    <glyph glyph-name="uni06B4.init" unicode="&#x6b4;" horiz-adv-x="633" 
d="M694 1095l-53 -202q-62 -23 -139 -56t-147.5 -68t-115.5 -65t-45 -47t27 -34.5t67.5 -42t81 -61t68 -92t27.5 -134.5q-1 -128 -93.5 -210.5t-276.5 -82.5h-95q-22 0 -38 34t-16 81t16 81t38 34h215q119 0 155.5 18.5t36.5 39.5q1 47 -34.5 87t-87.5 74t-104.5 64.5
t-88 59t-35.5 57.5q0 21 9 62.5t25 58.5q30 33 99.5 79t159 95.5t180.5 94t164 75.5zM70 833l34 120q137 102 271 183t284 152l-34 -131q-150 -71 -285 -150t-270 -174zM84 1504q68 -46 111 -111l-111 -111q-42 62 -111 111zM-11 1299q68 -46 111 -111l-111 -111
q-42 62 -111 111zM182 1299q68 -46 111 -111l-111 -111q-42 62 -111 111z" />
    <glyph glyph-name="uni06B4.medi" unicode="&#x6b4;" horiz-adv-x="951" 
d="M694 1095l-53 -202q-62 -23 -139 -56t-147.5 -68t-115.5 -65t-45 -47t27 -34.5t67.5 -42t81 -61t68 -92t27.5 -134.5q-1 -128 -93.5 -210.5t-276.5 -82.5h-95q-22 0 -38 34t-16 81t16 81t38 34h215q119 0 155.5 18.5t36.5 39.5q1 47 -34.5 87t-87.5 74t-104.5 64.5
t-88 59t-35.5 57.5q0 21 9 62.5t25 58.5q30 33 99.5 79t159 95.5t180.5 94t164 75.5zM256 601q119 -62 199 -117.5t138 -102t108.5 -80.5t109 -52.5t141.5 -18.5q25 0 40 -38.5t15 -77.5q0 -41 -15.5 -77.5t-39.5 -36.5q-97 0 -173.5 45t-141 111.5t-122.5 131.5t-118 105z
M70 833l34 120q137 102 271 183t284 152l-34 -131q-150 -71 -285 -150t-270 -174zM84 1504q68 -46 111 -111l-111 -111q-42 62 -111 111zM-11 1299q68 -46 111 -111l-111 -111q-42 62 -111 111zM182 1299q68 -46 111 -111l-111 -111q-42 62 -111 111z" />
    <glyph glyph-name="uni06B4.fina" unicode="&#x6b4;" horiz-adv-x="1544" 
d="M599 0h-310q-83 0 -138.5 36.5t-83 93.5t-27.5 118q0 64 30.5 144t91.5 141l13 -8q-19 -37 -27.5 -73t-8.5 -68q0 -69 45.5 -111.5t139.5 -42.5h278q18 0 27.5 -37.5t9.5 -69.5q0 -35 -10 -79t-30 -44zM1289 1095l-53 -202q-62 -23 -139 -56t-147.5 -68t-115.5 -65
t-45 -47t27 -34.5t67.5 -42t81 -61t68 -92t27.5 -134.5q-1 -128 -93.5 -210.5t-276.5 -82.5h-95q-22 0 -38 34t-16 81t16 81t38 34h215q119 0 155.5 18.5t36.5 39.5q1 47 -34.5 87t-87.5 74t-104.5 64.5t-88 59t-35.5 57.5q0 21 9 62.5t25 58.5q30 33 99.5 79t159 95.5
t180.5 94t164 75.5zM849 601q119 -62 199 -117.5t138 -102t108.5 -80.5t109 -52.5t141.5 -18.5q25 0 40 -38.5t15 -77.5q0 -41 -15.5 -77.5t-39.5 -36.5q-97 0 -173.5 45t-141 111.5t-122.5 131.5t-118 105zM665 833l34 120q137 102 271 183t284 152l-34 -131
q-150 -71 -285 -150t-270 -174zM679 1504q68 -46 111 -111l-111 -111q-42 62 -111 111zM584 1299q68 -46 111 -111l-111 -111q-42 62 -111 111zM777 1299q68 -46 111 -111l-111 -111q-42 62 -111 111z" />
    <glyph glyph-name="uni06B5.init" unicode="&#x6b5;" horiz-adv-x="369" 
d="M167 924l99 -61q8 -195 12.5 -320t7.5 -202q0 -90 -30.5 -168t-93.5 -125.5t-162 -47.5q-28 0 -40 40t-12 75t12 75t40 40q44 0 93 5t86.5 19.5t45.5 44.5l-9 -35q4 14 4 50q0 72 -13 226.5t-40 383.5zM237 1141l18 -10q-38 -76 -14 -128t118 -80l-69 -168
q-186 73 -186 163q0 32 23.5 77.5t55 86t54.5 59.5zM18 1420l64 49q25 -32 53 -67t49.5 -58.5t27.5 -23.5q7 0 48 43.5t80 92.5l29 -23q-37 -48 -78 -94t-71.5 -75.5t-37.5 -29.5q-6 0 -35 31t-65 74.5t-64 80.5z" />
    <glyph glyph-name="uni06B5.medi" unicode="&#x6b5;" horiz-adv-x="438" 
d="M202 1093l36 -627q10 -123 59 -179.5t141 -56.5q34 0 49.5 -40t15.5 -75t-15.5 -75t-49.5 -40q-60 0 -110.5 41t-84 106.5t-41.5 139.5l17 2q-6 -125 -66 -207t-153 -82q-36 0 -50 40t-14 75t14 75t50 40q80 0 117 44.5t37 124.5q0 20 -2.5 82t-11.5 181t-30 310z
M-25 1380l64 49q25 -32 53 -67t49.5 -58.5t27.5 -23.5q7 0 48 43.5t80 92.5l29 -23q-37 -48 -78 -94t-71.5 -75.5t-37.5 -29.5q-6 0 -35 31t-65 74.5t-64 80.5z" />
    <glyph glyph-name="uni06B5.fina" unicode="&#x6b5;" horiz-adv-x="868" 
d="M275 -430q-115 0 -175 91.5t-60 222.5q0 93 29.5 181.5t69.5 141.5l18 -5q-18 -45 -30.5 -93t-12.5 -101q0 -106 57 -157t147 -51q39 0 97 16t108.5 48.5t64.5 83.5l-9 -35q11 36 -15.5 309.5t-72.5 747.5l93 123l62 -1074q5 -80 -12.5 -160t-61.5 -145t-117 -104.5
t-180 -39.5zM868 0q-83 0 -152.5 62t-93.5 150l-7 337q7 -120 29 -190t74 -99.5t150 -29.5q25 0 38 -20.5t17.5 -47.5t4.5 -47q0 -15 -4.5 -42.5t-17.5 -50t-38 -22.5zM365 1380l64 49q25 -32 53 -67t49.5 -58.5t27.5 -23.5q7 0 48 43.5t80 92.5l29 -23q-37 -48 -78 -94
t-71.5 -75.5t-37.5 -29.5q-6 0 -35 31t-65 74.5t-64 80.5z" />
    <glyph glyph-name="uni06B6.init" unicode="&#x6b6;" horiz-adv-x="369" 
d="M167 924l99 -61q8 -195 12.5 -320t7.5 -202q0 -90 -30.5 -168t-93.5 -125.5t-162 -47.5q-28 0 -40 40t-12 75t12 75t40 40q44 0 93 5t86.5 19.5t45.5 44.5l-9 -35q4 14 4 50q0 72 -13 226.5t-40 383.5zM237 1141l18 -10q-38 -76 -14 -128t118 -80l-69 -168
q-186 73 -186 163q0 32 23.5 77.5t55 86t54.5 59.5zM191 1444q68 -46 111 -111l-111 -111q-42 62 -111 111z" />
    <glyph glyph-name="uni06B6.medi" unicode="&#x6b6;" horiz-adv-x="438" 
d="M202 1093l36 -627q10 -123 59 -179.5t141 -56.5q34 0 49.5 -40t15.5 -75t-15.5 -75t-49.5 -40q-60 0 -110.5 41t-84 106.5t-41.5 139.5l17 2q-6 -125 -66 -207t-153 -82q-36 0 -50 40t-14 75t14 75t50 40q80 0 117 44.5t37 124.5q0 20 -2.5 82t-11.5 181t-30 310z
M148 1404q68 -46 111 -111l-111 -111q-42 62 -111 111z" />
    <glyph glyph-name="uni06B6.fina" unicode="&#x6b6;" horiz-adv-x="868" 
d="M275 -430q-115 0 -175 91.5t-60 222.5q0 93 29.5 181.5t69.5 141.5l18 -5q-18 -45 -30.5 -93t-12.5 -101q0 -106 57 -157t147 -51q39 0 97 16t108.5 48.5t64.5 83.5l-9 -35q11 36 -15.5 309.5t-72.5 747.5l93 123l62 -1074q5 -80 -12.5 -160t-61.5 -145t-117 -104.5
t-180 -39.5zM868 0q-83 0 -152.5 62t-93.5 150l-7 337q7 -120 29 -190t74 -99.5t150 -29.5q25 0 38 -20.5t17.5 -47.5t4.5 -47q0 -15 -4.5 -42.5t-17.5 -50t-38 -22.5zM538 1404q68 -46 111 -111l-111 -111q-42 62 -111 111z" />
    <glyph glyph-name="uni06B7.init" unicode="&#x6b7;" horiz-adv-x="369" 
d="M167 924l99 -61q8 -195 12.5 -320t7.5 -202q0 -90 -30.5 -168t-93.5 -125.5t-162 -47.5q-28 0 -40 40t-12 75t12 75t40 40q44 0 93 5t86.5 19.5t45.5 44.5l-9 -35q4 14 4 50q0 72 -13 226.5t-40 383.5zM237 1141l18 -10q-38 -76 -14 -128t118 -80l-69 -168
q-186 73 -186 163q0 32 23.5 77.5t55 86t54.5 59.5zM190 1653q68 -46 111 -111l-111 -111q-42 62 -111 111zM95 1447q68 -46 111 -111l-111 -111q-42 62 -111 111zM288 1447q68 -46 111 -111l-111 -111q-42 62 -111 111z" />
    <glyph glyph-name="uni06B7.medi" unicode="&#x6b7;" horiz-adv-x="438" 
d="M202 1093l36 -627q10 -123 59 -179.5t141 -56.5q34 0 49.5 -40t15.5 -75t-15.5 -75t-49.5 -40q-60 0 -110.5 41t-84 106.5t-41.5 139.5l17 2q-6 -125 -66 -207t-153 -82q-36 0 -50 40t-14 75t14 75t50 40q80 0 117 44.5t37 124.5q0 20 -2.5 82t-11.5 181t-30 310z
M147 1613q68 -46 111 -111l-111 -111q-42 62 -111 111zM52 1407q68 -46 111 -111l-111 -111q-42 62 -111 111zM245 1407q68 -46 111 -111l-111 -111q-42 62 -111 111z" />
    <glyph glyph-name="uni06B7.fina" unicode="&#x6b7;" horiz-adv-x="868" 
d="M275 -430q-115 0 -175 91.5t-60 222.5q0 93 29.5 181.5t69.5 141.5l18 -5q-18 -45 -30.5 -93t-12.5 -101q0 -106 57 -157t147 -51q39 0 97 16t108.5 48.5t64.5 83.5l-9 -35q11 36 -15.5 309.5t-72.5 747.5l93 123l62 -1074q5 -80 -12.5 -160t-61.5 -145t-117 -104.5
t-180 -39.5zM868 0q-83 0 -152.5 62t-93.5 150l-7 337q7 -120 29 -190t74 -99.5t150 -29.5q25 0 38 -20.5t17.5 -47.5t4.5 -47q0 -15 -4.5 -42.5t-17.5 -50t-38 -22.5zM537 1613q68 -46 111 -111l-111 -111q-42 62 -111 111zM442 1407q68 -46 111 -111l-111 -111
q-42 62 -111 111zM635 1407q68 -46 111 -111l-111 -111q-42 62 -111 111z" />
    <glyph glyph-name="uni06B8.init" unicode="&#x6b8;" horiz-adv-x="369" 
d="M167 924l99 -61q8 -195 12.5 -320t7.5 -202q0 -90 -30.5 -168t-93.5 -125.5t-162 -47.5q-28 0 -40 40t-12 75t12 75t40 40q44 0 93 5t86.5 19.5t45.5 44.5l-9 -35q4 14 4 50q0 72 -13 226.5t-40 383.5zM237 1141l18 -10q-38 -76 -14 -128t118 -80l-69 -168
q-186 73 -186 163q0 32 23.5 77.5t55 86t54.5 59.5zM199 -315q68 -46 111 -111l-111 -111q-42 62 -111 111zM103 -110q68 -46 111 -111l-111 -111q-42 62 -111 111zM296 -110q68 -46 111 -111l-111 -111q-42 62 -111 111z" />
    <glyph glyph-name="uni06B8.medi" unicode="&#x6b8;" horiz-adv-x="438" 
d="M202 1093l36 -627q10 -123 59 -179.5t141 -56.5q34 0 49.5 -40t15.5 -75t-15.5 -75t-49.5 -40q-60 0 -110.5 41t-84 106.5t-41.5 139.5l17 2q-6 -125 -66 -207t-153 -82q-36 0 -50 40t-14 75t14 75t50 40q80 0 117 44.5t37 124.5q0 20 -2.5 82t-11.5 181t-30 310z
M193 -290q68 -46 111 -111l-111 -111q-42 62 -111 111zM97 -85q68 -46 111 -111l-111 -111q-42 62 -111 111zM290 -85q68 -46 111 -111l-111 -111q-42 62 -111 111z" />
    <glyph glyph-name="uni06B8.fina" unicode="&#x6b8;" horiz-adv-x="868" 
d="M275 -430q-115 0 -175 91.5t-60 222.5q0 93 29.5 181.5t69.5 141.5l18 -5q-18 -45 -30.5 -93t-12.5 -101q0 -106 57 -157t147 -51q39 0 97 16t108.5 48.5t64.5 83.5l-9 -35q11 36 -15.5 309.5t-72.5 747.5l93 123l62 -1074q5 -80 -12.5 -160t-61.5 -145t-117 -104.5
t-180 -39.5zM868 0q-83 0 -152.5 62t-93.5 150l-7 337q7 -120 29 -190t74 -99.5t150 -29.5q25 0 38 -20.5t17.5 -47.5t4.5 -47q0 -15 -4.5 -42.5t-17.5 -50t-38 -22.5zM553 -692q68 -46 111 -111l-111 -111q-42 62 -111 111zM457 -487q68 -46 111 -111l-111 -111
q-42 62 -111 111zM650 -487q68 -46 111 -111l-111 -111q-42 62 -111 111z" />
    <glyph glyph-name="uni06B9.init" unicode="&#x6b9;" horiz-adv-x="353" 
d="M0 230h64q90 0 139.5 21t49.5 36q0 23 -23 48t-51 40l78 200q30 -44 43 -98t13 -109q0 -95 -34 -179t-95 -136.5t-142 -52.5h-42q-25 0 -37 41.5t-12 76.5t12 73.5t37 38.5zM194 894q68 -46 111 -111l-111 -111q-42 62 -111 111zM199 -139q68 -46 111 -111l-111 -111
q-42 62 -111 111z" />
    <glyph glyph-name="uni06B9.medi" unicode="&#x6b9;" horiz-adv-x="440" 
d="M0 0q-21 0 -36.5 34t-15.5 81t15.5 81t36.5 34h5q78 0 124 14.5t73 52t47 106.5l17 -3q-5 -26 -5 -49q0 -71 44.5 -96t129.5 -25h5q22 0 41 -34t19 -81t-18.5 -81t-41.5 -34h-22q-104 0 -156.5 37.5t-89.5 128.5l65 -11q-39 -67 -93 -111t-124 -44h-20zM212 736
q68 -46 111 -111l-111 -111q-42 62 -111 111zM203 -139q68 -46 111 -111l-111 -111q-42 62 -111 111z" />
    <glyph glyph-name="uni06B9.fina" unicode="&#x6b9;" horiz-adv-x="917" 
d="M917 230q31 0 46.5 -40t15.5 -75t-15.5 -75t-46.5 -40q-48 0 -106 29.5t-82 61.5v205q10 -24 43 -38.5t73.5 -21t71.5 -6.5zM706 356q38 -76 54 -156.5t16 -150.5q0 -123 -55 -233.5t-155 -180.5t-235 -70q-89 0 -154.5 43t-101 116.5t-35.5 163.5q0 64 16 127.5t39 115
t44 78.5l18 -9q-18 -45 -30.5 -94t-12.5 -100q0 -119 76.5 -165t185.5 -46q55 0 124.5 14t131 44t90.5 79l-5 -20q1 70 -29.5 138.5t-84.5 131.5zM385 478q68 -46 111 -111l-111 -111q-42 62 -111 111zM374 -550q68 -46 111 -111l-111 -111q-42 62 -111 111z" />
    <glyph glyph-name="uni06BA.init" unicode="&#x6ba;" horiz-adv-x="353" 
d="M0 230h64q90 0 139.5 21t49.5 36q0 23 -23 48t-51 40l78 200q30 -44 43 -98t13 -109q0 -95 -34 -179t-95 -136.5t-142 -52.5h-42q-25 0 -37 41.5t-12 76.5t12 73.5t37 38.5z" />
    <glyph glyph-name="uni06BA.medi" unicode="&#x6ba;" horiz-adv-x="440" 
d="M0 0q-21 0 -36.5 34t-15.5 81t15.5 81t36.5 34h5q78 0 124 14.5t73 52t47 106.5l17 -3q-5 -26 -5 -49q0 -71 44.5 -96t129.5 -25h5q22 0 41 -34t19 -81t-18.5 -81t-41.5 -34h-22q-104 0 -156.5 37.5t-89.5 128.5l65 -11q-39 -67 -93 -111t-124 -44h-20z" />
    <glyph glyph-name="uni06BA.fina" unicode="&#x6ba;" horiz-adv-x="917" arabic-form="final" 
d="M917 230q31 0 46.5 -40t15.5 -75t-15.5 -75t-46.5 -40q-48 0 -106 29.5t-82 61.5v205q10 -24 43 -38.5t73.5 -21t71.5 -6.5zM706 356q38 -76 54 -156.5t16 -150.5q0 -123 -55 -233.5t-155 -180.5t-235 -70q-89 0 -154.5 43t-101 116.5t-35.5 163.5q0 64 16 127.5t39 115
t44 78.5l18 -9q-18 -45 -30.5 -94t-12.5 -100q0 -119 76.5 -165t185.5 -46q55 0 124.5 14t131 44t90.5 79l-5 -20q1 70 -29.5 138.5t-84.5 131.5z" />
    <glyph glyph-name="uni06BB.init" unicode="&#x6bb;" horiz-adv-x="429" arabic-form="initial" 
d="M0 230h64q90 0 139.5 21t49.5 36q0 23 -23 48t-51 40l78 200q30 -44 43 -98t13 -109q0 -95 -34 -179t-95 -136.5t-142 -52.5h-42q-25 0 -37 41.5t-12 76.5t12 73.5t37 38.5zM161 671l-13 94q90 0 163 9.5t73 30.5q0 14 -16.5 26.5t-49.5 12.5q-13 0 -43.5 -14t-63 -35
t-52.5 -43l-23 2q63 68 119.5 115.5t101.5 47.5q40 0 56.5 -20t16.5 -47q0 -45 -39.5 -86t-101 -67t-128.5 -26zM162 671q-71 0 -113.5 36t-58.5 75l2 4q35 -11 78 -16t79 -5zM178 786l-9 244l36 -20v-200zM222 983q-75 28 -75 64q0 18 18.5 46.5t34.5 41.5l7 -4
q-13 -30 7 -50t58 -31z" />
    <glyph glyph-name="uni06BB.medi" unicode="&#x6bb;" horiz-adv-x="440" arabic-form="medial" 
d="M0 0q-21 0 -36.5 34t-15.5 81t15.5 81t36.5 34h5q78 0 124 14.5t73 52t47 106.5l17 -3q-5 -26 -5 -49q0 -71 44.5 -96t129.5 -25h5q22 0 41 -34t19 -81t-18.5 -81t-41.5 -34h-22q-104 0 -156.5 37.5t-89.5 128.5l65 -11q-39 -67 -93 -111t-124 -44h-20zM179 513l-13 94
q90 0 163 9.5t73 30.5q0 14 -16.5 26.5t-49.5 12.5q-13 0 -43.5 -14t-63 -35t-52.5 -43l-23 2q63 68 119.5 115.5t101.5 47.5q40 0 56.5 -20t16.5 -47q0 -45 -39.5 -86t-101 -67t-128.5 -26zM180 513q-71 0 -113.5 36t-58.5 75l2 4q35 -11 78 -16t79 -5zM196 628l-9 244
l36 -20v-200zM240 825q-75 28 -75 64q0 18 18.5 46.5t34.5 41.5l7 -4q-13 -30 7 -50t58 -31z" />
    <glyph glyph-name="uni06BB.fina" unicode="&#x6bb;" horiz-adv-x="917" arabic-form="final" 
d="M917 230q31 0 46.5 -40t15.5 -75t-15.5 -75t-46.5 -40q-48 0 -106 29.5t-82 61.5v205q10 -24 43 -38.5t73.5 -21t71.5 -6.5zM706 356q38 -76 54 -156.5t16 -150.5q0 -123 -55 -233.5t-155 -180.5t-235 -70q-89 0 -154.5 43t-101 116.5t-35.5 163.5q0 64 16 127.5t39 115
t44 78.5l18 -9q-18 -45 -30.5 -94t-12.5 -100q0 -119 76.5 -165t185.5 -46q55 0 124.5 14t131 44t90.5 79l-5 -20q1 70 -29.5 138.5t-84.5 131.5zM352 255l-13 94q90 0 163 9.5t73 30.5q0 14 -16.5 26.5t-49.5 12.5q-13 0 -43.5 -14t-63 -35t-52.5 -43l-23 2
q63 68 119.5 115.5t101.5 47.5q40 0 56.5 -20t16.5 -47q0 -45 -39.5 -86t-101 -67t-128.5 -26zM353 255q-71 0 -113.5 36t-58.5 75l2 4q35 -11 78 -16t79 -5zM369 370l-9 244l36 -20v-200zM413 567q-75 28 -75 64q0 18 18.5 46.5t34.5 41.5l7 -4q-13 -30 7 -50t58 -31z" />
    <glyph glyph-name="uni06BC.init" unicode="&#x6bc;" horiz-adv-x="353" 
d="M0 230h64q90 0 139.5 21t49.5 36q0 23 -23 48t-51 40l78 200q30 -44 43 -98t13 -109q0 -95 -34 -179t-95 -136.5t-142 -52.5h-42q-25 0 -37 41.5t-12 76.5t12 73.5t37 38.5zM194 894q68 -46 111 -111l-111 -111q-42 62 -111 111zM179 -184q-66 0 -86.5 40.5t-20.5 90.5
q0 31 12 65t36 58.5t59 24.5q36 0 60 -24.5t36.5 -58.5t12.5 -65q0 -50 -21.5 -90.5t-87.5 -40.5zM179 -99q28 0 48.5 9.5t20.5 43.5q0 35 -20.5 57.5t-48.5 22.5t-47.5 -22.5t-19.5 -57.5q0 -37 19.5 -45t47.5 -8z" />
    <glyph glyph-name="uni06BC.medi" unicode="&#x6bc;" horiz-adv-x="440" 
d="M0 0q-21 0 -36.5 34t-15.5 81t15.5 81t36.5 34h5q78 0 124 14.5t73 52t47 106.5l17 -3q-5 -26 -5 -49q0 -71 44.5 -96t129.5 -25h5q22 0 41 -34t19 -81t-18.5 -81t-41.5 -34h-22q-104 0 -156.5 37.5t-89.5 128.5l65 -11q-39 -67 -93 -111t-124 -44h-20zM212 736
q68 -46 111 -111l-111 -111q-42 62 -111 111zM196 -154q-66 0 -86.5 40.5t-20.5 90.5q0 31 12 65t36 58.5t59 24.5q36 0 60 -24.5t36.5 -58.5t12.5 -65q0 -50 -21.5 -90.5t-87.5 -40.5zM196 -69q28 0 48.5 9.5t20.5 43.5q0 35 -20.5 57.5t-48.5 22.5t-47.5 -22.5
t-19.5 -57.5q0 -37 19.5 -45t47.5 -8z" />
    <glyph glyph-name="uni06BC.fina" unicode="&#x6bc;" horiz-adv-x="917" 
d="M917 230q31 0 46.5 -40t15.5 -75t-15.5 -75t-46.5 -40q-48 0 -106 29.5t-82 61.5v205q10 -24 43 -38.5t73.5 -21t71.5 -6.5zM706 356q38 -76 54 -156.5t16 -150.5q0 -123 -55 -233.5t-155 -180.5t-235 -70q-89 0 -154.5 43t-101 116.5t-35.5 163.5q0 64 16 127.5t39 115
t44 78.5l18 -9q-18 -45 -30.5 -94t-12.5 -100q0 -119 76.5 -165t185.5 -46q55 0 124.5 14t131 44t90.5 79l-5 -20q1 70 -29.5 138.5t-84.5 131.5zM385 478q68 -46 111 -111l-111 -111q-42 62 -111 111zM358 -653q-66 0 -86.5 40.5t-20.5 90.5q0 31 12 65t36 58.5t59 24.5
q36 0 60 -24.5t36.5 -58.5t12.5 -65q0 -50 -21.5 -90.5t-87.5 -40.5zM358 -568q28 0 48.5 9.5t20.5 43.5q0 35 -20.5 57.5t-48.5 22.5t-47.5 -22.5t-19.5 -57.5q0 -37 19.5 -45t47.5 -8z" />
    <glyph glyph-name="uni06BD.init" unicode="&#x6bd;" horiz-adv-x="353" 
d="M0 230h64q90 0 139.5 21t49.5 36q0 23 -23 48t-51 40l78 200q30 -44 43 -98t13 -109q0 -95 -34 -179t-95 -136.5t-142 -52.5h-42q-25 0 -37 41.5t-12 76.5t12 73.5t37 38.5zM199 -348q68 -46 111 -111l-111 -111q-42 62 -111 111zM103 -143q68 -46 111 -111l-111 -111
q-42 62 -111 111zM296 -143q68 -46 111 -111l-111 -111q-42 62 -111 111z" />
    <glyph glyph-name="uni06BD.medi" unicode="&#x6bd;" horiz-adv-x="440" 
d="M0 0q-21 0 -36.5 34t-15.5 81t15.5 81t36.5 34h5q78 0 124 14.5t73 52t47 106.5l17 -3q-5 -26 -5 -49q0 -71 44.5 -96t129.5 -25h5q22 0 41 -34t19 -81t-18.5 -81t-41.5 -34h-22q-104 0 -156.5 37.5t-89.5 128.5l65 -11q-39 -67 -93 -111t-124 -44h-20zM203 -348
q68 -46 111 -111l-111 -111q-42 62 -111 111zM107 -143q68 -46 111 -111l-111 -111q-42 62 -111 111zM300 -143q68 -46 111 -111l-111 -111q-42 62 -111 111z" />
    <glyph glyph-name="uni06BD.fina" unicode="&#x6bd;" horiz-adv-x="917" 
d="M917 230q31 0 46.5 -40t15.5 -75t-15.5 -75t-46.5 -40q-48 0 -106 29.5t-82 61.5v205q10 -24 43 -38.5t73.5 -21t71.5 -6.5zM706 356q38 -76 54 -156.5t16 -150.5q0 -123 -55 -233.5t-155 -180.5t-235 -70q-89 0 -154.5 43t-101 116.5t-35.5 163.5q0 64 16 127.5t39 115
t44 78.5l18 -9q-18 -45 -30.5 -94t-12.5 -100q0 -119 76.5 -165t185.5 -46q55 0 124.5 14t131 44t90.5 79l-5 -20q1 70 -29.5 138.5t-84.5 131.5zM384 687q68 -46 111 -111l-111 -111q-42 62 -111 111zM289 481q68 -46 111 -111l-111 -111q-42 62 -111 111zM482 481
q68 -46 111 -111l-111 -111q-42 62 -111 111z" />
    <glyph glyph-name="uni06BE.init" unicode="&#x6be;" horiz-adv-x="597" arabic-form="initial" 
d="M198 722q124 -72 196.5 -142.5t107 -134t45 -116.5t10.5 -90q0 -54 -18.5 -105t-52 -84t-79.5 -33q-87 0 -163.5 31.5t-124.5 92.5t-48 151q0 41 13 92t37.5 97.5t59 76.5t77.5 30q35 0 56.5 -33.5t32.5 -78.5t15 -83t4 -47q0 -90 -48.5 -169t-131.5 -128t-186 -49
q-23 0 -34.5 40t-11.5 75t11.5 75t34.5 40q98 0 171 19.5t114 45.5t41 46q0 14 -17.5 40.5t-40 48.5t-39.5 22q-18 0 -46 -24t-50 -52.5t-22 -43.5q0 -24 50 -51t125.5 -45.5t150.5 -18.5q35 0 57.5 8t22.5 21q0 23 -58 72.5t-153.5 103.5t-210.5 88z" />
    <glyph glyph-name="uni06BE.medi" unicode="&#x6be;" horiz-adv-x="698" arabic-form="medial" 
d="M698 230q32 0 47.5 -40.5t15.5 -75.5t-15.5 -74.5t-47.5 -39.5h-57q-23 0 -68.5 6t-95.5 18q22 -41 28.5 -74t6.5 -40q0 -60 -15 -121t-46 -102.5t-80 -41.5q-45 0 -83 48t-65.5 127.5t-39.5 175.5q-78 4 -183 4q-23 0 -31.5 39.5t-8.5 74.5t8.5 75.5t31.5 40.5
q50 0 95 2.5t85 5.5q12 69 40 140.5t67 132.5t85 98.5t95 37.5q29 0 49.5 -42.5t20.5 -111.5q0 -82 -21 -150.5t-74 -124.5q87 12 256 12zM423 442q-61 0 -115.5 -61t-80.5 -137q126 16 186.5 45t60.5 54q0 99 -51 99zM408 -158q26 0 43 8t17 18q0 48 -46 79t-182 44
q29 -77 78.5 -113t89.5 -36z" />
    <glyph glyph-name="uni06BE.fina" unicode="&#x6be;" horiz-adv-x="799" arabic-form="final" 
d="M799 230q32 0 47.5 -40.5t15.5 -75.5t-15.5 -74.5t-47.5 -39.5h-57q-26 0 -81.5 8t-115.5 23.5t-101 39.5q-39 31 -46.5 47t-7.5 34q0 12 12 20q28 15 73 28.5t122 21.5t202 8zM568 647q29 0 49.5 -42.5t20.5 -111.5q0 -118 -44 -211t-163 -156l-11 29q64 -23 102.5 -61
t58 -77.5t26 -69.5t6.5 -37q0 -60 -15 -126t-46 -112.5t-80 -46.5q-43 0 -79.5 43.5t-63.5 116t-42 161t-15 178.5q0 71 24.5 160.5t66 172t94.5 136.5t111 54zM524 442q-40 0 -78.5 -31.5t-68.5 -81t-48 -104.5t-18 -102q0 -100 33.5 -167t80 -100.5t84.5 -33.5q30 0 45 14
t15 32q0 32 -23.5 70t-83 67t-168.5 32l-1 20q-56 -14 -134 -28.5t-167 -28.5l63 72q173 38 288.5 93t173.5 105t58 73q0 99 -51 99z" />
    <glyph glyph-name="uni06BF.init" unicode="&#x6bf;" horiz-adv-x="845" 
d="M5 0q-30 0 -40.5 34t-10.5 81t12 81t34 34q108 0 182 21t132.5 52t118 62t137.5 52t192 21l-32 -151q-95 0 -166 24t-128.5 55.5t-109 55.5t-105.5 24q-50 0 -87.5 -20t-74.5 -60l-19 7q17 109 74.5 188t148.5 79q62 0 112 -23t105.5 -53t131.5 -52.5t191 -22.5l-48 -219
q-113 -1 -189 -28t-134 -67t-114.5 -80.5t-130 -67.5t-182.5 -27zM463 987q68 -46 111 -111l-111 -111q-42 62 -111 111zM337 -278q68 -46 111 -111l-111 -111q-42 62 -111 111zM241 -73q68 -46 111 -111l-111 -111q-42 62 -111 111zM434 -73q68 -46 111 -111l-111 -111
q-42 62 -111 111z" />
    <glyph glyph-name="uni06BF.medi" unicode="&#x6bf;" horiz-adv-x="867" 
d="M5 0q-30 0 -43 34t-13 81t12.5 81t38.5 34q104 0 178 17t135.5 45.5t126 62.5t148 69.5t203.5 65.5l-42 -163q-108 -12 -184 4.5t-133.5 43.5t-107 49t-103.5 22q-50 0 -87.5 -20t-74.5 -60l-19 7q17 109 74.5 188t148.5 79q62 0 114.5 -22t111.5 -48t139.5 -41t199.5 -2
l-55 -219q-107 -27 -183 -66t-137.5 -81t-123 -78.5t-138.5 -59.5t-186 -23zM867 0q-141 0 -198.5 81.5t-66.5 245.5l45 12q6 -54 26.5 -77t66 -27.5t127.5 -4.5q30 0 41.5 -40t11.5 -75t-11.5 -75t-41.5 -40zM463 987q68 -46 111 -111l-111 -111q-42 62 -111 111zM367 -278
q68 -46 111 -111l-111 -111q-42 62 -111 111zM271 -73q68 -46 111 -111l-111 -111q-42 62 -111 111zM464 -73q68 -46 111 -111l-111 -111q-42 62 -111 111z" />
    <glyph glyph-name="uni06BF.fina" unicode="&#x6bf;" horiz-adv-x="889" 
d="M549 398q0 -94 60.5 -131t145.5 -37h134q32 0 47 -40t15 -75t-15 -75t-47 -40h-114q-99 0 -159 54t-87 144.5t-27 199.5h47zM623 -724q-198 0 -327.5 81t-192.5 210.5t-63 275.5q0 152 75.5 297.5t264.5 263.5l2 -7q-30 3 -62 12t-66 9q-68 0 -114.5 -42t-64.5 -72l-15 6
q5 69 35 142t85.5 123t139.5 50q49 0 100.5 -15.5t115 -30.5t148.5 -15q68 0 135 6l-92 -216q-29 4 -66 4q-103 0 -201 -36.5t-177 -102t-125.5 -153.5t-46.5 -190q0 -138 71.5 -219.5t200 -116.5t297.5 -35h223v-26zM486 950q68 -46 111 -111l-111 -111q-42 62 -111 111z
M434 -152q68 -46 111 -111l-111 -111q-42 62 -111 111zM338 53q68 -46 111 -111l-111 -111q-42 62 -111 111zM531 53q68 -46 111 -111l-111 -111q-42 62 -111 111z" />
    <glyph glyph-name="uni06C1.init" unicode="&#x6c1;" horiz-adv-x="357" arabic-form="initial" 
d="M267 -448q-21 -4 -38 -4q-59 0 -86.5 41t-27.5 95q0 57 24 125.5t69.5 132t110.5 108.5l-16 -58q-46 -46 -69 -97t-23 -93q0 -41 21.5 -67t63.5 -26q17 0 33 4zM0 230h64q90 0 139.5 21t49.5 36q0 23 -23 48t-51 40l78 200q30 -44 43 -98t13 -109q0 -95 -34 -179
t-95 -136.5t-142 -52.5h-42q-25 0 -37 41.5t-12 76.5t12 73.5t37 38.5z" />
    <glyph glyph-name="uni06C1.medi" unicode="&#x6c1;" horiz-adv-x="877" arabic-form="medial" 
d="M567 368q53 0 85 -21t60 -48t65 -48t100 -21q32 0 48.5 -39t16.5 -76q0 -35 -17 -75t-48 -40q-73 0 -113.5 21t-67.5 48t-58 48t-86 21q-78 0 -133 -55.5t-91.5 -140t-61.5 -171.5q-57 134 -123.5 181.5t-144.5 47.5q-22 0 -32.5 39.5t-10.5 74.5t10.5 75.5t32.5 40.5
q171 0 279 -243l-5 1q9 51 35.5 116t65.5 125.5t88.5 99.5t105.5 39zM352 -753q-21 -4 -38 -4q-59 0 -86.5 41t-27.5 95q0 58 24 126t69.5 131.5t110.5 108.5l-16 -58q-46 -46 -69 -97t-23 -93q0 -41 21.5 -67t63.5 -26q17 0 33 4z" />
    <glyph glyph-name="uni06C1.fina" unicode="&#x6c1;" horiz-adv-x="730" arabic-form="final" 
d="M61 -167l-20 4q28 157 84.5 276.5t129 187t147.5 67.5q49 0 87 -21t73.5 -48t75 -48t92.5 -21q32 0 48.5 -39t16.5 -76q0 -35 -17 -75t-48 -40q-61 0 -108.5 21t-88 48t-80.5 48t-86 21q-75 0 -158 -73.5t-148 -231.5z" />
    <glyph glyph-name="uni06C3.fina" unicode="&#x6c3;" horiz-adv-x="730" 
d="M61 -167l-20 4q28 157 84.5 276.5t129 187t147.5 67.5q49 0 87 -21t73.5 -48t75 -48t92.5 -21q32 0 48.5 -39t16.5 -76q0 -35 -17 -75t-48 -40q-61 0 -108.5 21t-88 48t-80.5 48t-86 21q-75 0 -158 -73.5t-148 -231.5zM332 731q68 -46 111 -111l-111 -111
q-42 62 -111 111zM525 731q68 -46 111 -111l-111 -111q-42 62 -111 111z" />
    <glyph glyph-name="uni06C4.fina" unicode="&#x6c4;" horiz-adv-x="708" 
d="M231 -385q-66 0 -146 43.5t-136 98.5l7 14q35 -8 79 -8q49 0 117 11.5t140 35t134 60.5t101 87.5t39 116.5q0 95 -22 154.5t-49.5 88t-44.5 28.5q-21 0 -46 -26t-25 -46q0 -9 24.5 -26t73.5 -17h231q25 0 37.5 -40t12.5 -75t-12.5 -75t-37.5 -40h-227q-53 0 -88 35.5
t-52 86.5t-17 98q0 26 8 80.5t25.5 113t46 100t70.5 41.5q39 0 66 -42.5t43 -113t23.5 -155.5t7.5 -170q0 -97 -37 -180t-95 -146t-124.5 -98t-126.5 -35zM261 -277q-66 0 -86.5 40.5t-20.5 90.5q0 31 12 65t36 58.5t59 24.5q36 0 60 -24.5t36.5 -58.5t12.5 -65
q0 -50 -21.5 -90.5t-87.5 -40.5zM261 -192q28 0 48.5 9.5t20.5 43.5q0 35 -20.5 57.5t-48.5 22.5t-47.5 -22.5t-19.5 -57.5q0 -37 19.5 -45t47.5 -8z" />
    <glyph glyph-name="uni06C5.fina" unicode="&#x6c5;" horiz-adv-x="726" arabic-form="final" 
d="M265 -385q-38 0 -86.5 19.5t-94 51.5t-75 70.5t-29.5 78.5q0 73 53.5 106t134.5 33q76 0 165 -25.5t169 -68.5l-22 -24q-47 15 -97.5 22.5t-97.5 7.5q-82 0 -141.5 -22.5t-59.5 -56.5q0 -16 18.5 -27.5t58.5 -11.5q48 0 119 20t140.5 59.5t116.5 96.5t47 130
q0 95 -22 154.5t-49.5 88t-44.5 28.5q-20 0 -45.5 -26t-25.5 -46q0 -9 24.5 -26t73.5 -17h231q26 0 38 -40t12 -75t-12 -75t-38 -40h-227q-53 0 -87.5 35.5t-52 86.5t-17.5 98q0 26 8 80.5t25.5 113t46.5 100t70 41.5q39 0 66 -42.5t43.5 -113t23.5 -155.5t7 -170
q0 -97 -34.5 -180t-89.5 -146t-119.5 -98t-123.5 -35z" />
    <glyph glyph-name="uni06C6.fina" unicode="&#x6c6;" horiz-adv-x="708" arabic-form="final" 
d="M231 -385q-66 0 -146 43.5t-136 98.5l7 14q35 -8 79 -8q49 0 117 11.5t140 35t134 60.5t101 87.5t39 116.5q0 95 -22 154.5t-49.5 88t-44.5 28.5q-21 0 -46 -26t-25 -46q0 -9 24.5 -26t73.5 -17h231q25 0 37.5 -40t12.5 -75t-12.5 -75t-37.5 -40h-227q-53 0 -88 35.5
t-52 86.5t-17 98q0 26 8 80.5t25.5 113t46 100t70.5 41.5q39 0 66 -42.5t43 -113t23.5 -155.5t7.5 -170q0 -97 -37 -180t-95 -146t-124.5 -98t-126.5 -35zM301 862l64 49q25 -32 53 -67t49.5 -58.5t27.5 -23.5q7 0 48 43.5t80 92.5l29 -23q-37 -48 -78 -94t-71.5 -75.5
t-37.5 -29.5q-6 0 -35 31t-65 74.5t-64 80.5z" />
    <glyph glyph-name="uni06C7.fina" unicode="&#x6c7;" horiz-adv-x="708" arabic-form="final" 
d="M231 -385q-66 0 -146 43.5t-136 98.5l7 14q35 -8 79 -8q49 0 117 11.5t140 35t134 60.5t101 87.5t39 116.5q0 95 -22 154.5t-49.5 88t-44.5 28.5q-21 0 -46 -26t-25 -46q0 -9 24.5 -26t73.5 -17h231q25 0 37.5 -40t12.5 -75t-12.5 -75t-37.5 -40h-227q-53 0 -88 35.5
t-52 86.5t-17 98q0 26 8 80.5t25.5 113t46 100t70.5 41.5q39 0 66 -42.5t43 -113t23.5 -155.5t7.5 -170q0 -97 -37 -180t-95 -146t-124.5 -98t-126.5 -35zM415 657l-21 38q48 28 78 68.5t29 106.5l8 -10q-4 -3 -15 -5t-20 -2q-34 0 -57 23t-23 57q0 36 28.5 60t61.5 24
q50 0 71 -34t21 -80q0 -78 -42.5 -141t-118.5 -105z" />
    <glyph glyph-name="uni06C8.fina" unicode="&#x6c8;" horiz-adv-x="708" arabic-form="final" 
d="M231 -385q-66 0 -146 43.5t-136 98.5l7 14q35 -8 79 -8q49 0 117 11.5t140 35t134 60.5t101 87.5t39 116.5q0 95 -22 154.5t-49.5 88t-44.5 28.5q-21 0 -46 -26t-25 -46q0 -9 24.5 -26t73.5 -17h231q25 0 37.5 -40t12.5 -75t-12.5 -75t-37.5 -40h-227q-53 0 -88 35.5
t-52 86.5t-17 98q0 26 8 80.5t25.5 113t46 100t70.5 41.5q39 0 66 -42.5t43 -113t23.5 -155.5t7.5 -170q0 -97 -37 -180t-95 -146t-124.5 -98t-126.5 -35zM513 722l-82 -67v264l82 68v-265z" />
    <glyph glyph-name="uni06C9.fina" unicode="&#x6c9;" horiz-adv-x="708" arabic-form="final" 
d="M231 -385q-66 0 -146 43.5t-136 98.5l7 14q35 -8 79 -8q49 0 117 11.5t140 35t134 60.5t101 87.5t39 116.5q0 95 -22 154.5t-49.5 88t-44.5 28.5q-21 0 -46 -26t-25 -46q0 -9 24.5 -26t73.5 -17h231q25 0 37.5 -40t12.5 -75t-12.5 -75t-37.5 -40h-227q-53 0 -88 35.5
t-52 86.5t-17 98q0 26 8 80.5t25.5 113t46 100t70.5 41.5q39 0 66 -42.5t43 -113t23.5 -155.5t7.5 -170q0 -97 -37 -180t-95 -146t-124.5 -98t-126.5 -35zM638 713l-63 -49q-26 33 -54 67.5t-49 58t-27 23.5q-8 0 -48.5 -43.5t-79.5 -91.5l-29 23q37 47 77.5 93t71.5 76
t37 30q7 0 35.5 -31t64.5 -74.5t64 -81.5z" />
    <glyph glyph-name="uni06CA.fina" unicode="&#x6ca;" horiz-adv-x="708" 
d="M231 -385q-66 0 -146 43.5t-136 98.5l7 14q35 -8 79 -8q49 0 117 11.5t140 35t134 60.5t101 87.5t39 116.5q0 95 -22 154.5t-49.5 88t-44.5 28.5q-21 0 -46 -26t-25 -46q0 -9 24.5 -26t73.5 -17h231q25 0 37.5 -40t12.5 -75t-12.5 -75t-37.5 -40h-227q-53 0 -88 35.5
t-52 86.5t-17 98q0 26 8 80.5t25.5 113t46 100t70.5 41.5q39 0 66 -42.5t43 -113t23.5 -155.5t7.5 -170q0 -97 -37 -180t-95 -146t-124.5 -98t-126.5 -35zM377 886q68 -46 111 -111l-111 -111q-42 62 -111 111zM570 886q68 -46 111 -111l-111 -111q-42 62 -111 111z" />
    <glyph glyph-name="uni06CB.fina" unicode="&#x6cb;" horiz-adv-x="708" arabic-form="final" 
d="M231 -385q-66 0 -146 43.5t-136 98.5l7 14q35 -8 79 -8q49 0 117 11.5t140 35t134 60.5t101 87.5t39 116.5q0 95 -22 154.5t-49.5 88t-44.5 28.5q-21 0 -46 -26t-25 -46q0 -9 24.5 -26t73.5 -17h231q25 0 37.5 -40t12.5 -75t-12.5 -75t-37.5 -40h-227q-53 0 -88 35.5
t-52 86.5t-17 98q0 26 8 80.5t25.5 113t46 100t70.5 41.5q39 0 66 -42.5t43 -113t23.5 -155.5t7.5 -170q0 -97 -37 -180t-95 -146t-124.5 -98t-126.5 -35zM472 1095q68 -46 111 -111l-111 -111q-42 62 -111 111zM377 889q68 -46 111 -111l-111 -111q-42 62 -111 111z
M570 889q68 -46 111 -111l-111 -111q-42 62 -111 111z" />
    <glyph glyph-name="uni06CC.init" unicode="&#x6cc;" horiz-adv-x="353" arabic-form="initial" 
d="M0 230h64q90 0 139.5 21t49.5 36q0 23 -23 48t-51 40l78 200q30 -44 43 -98t13 -109q0 -95 -34 -179t-95 -136.5t-142 -52.5h-42q-25 0 -37 41.5t-12 76.5t12 73.5t37 38.5zM103 -139q68 -46 111 -111l-111 -111q-42 62 -111 111zM296 -139q68 -46 111 -111l-111 -111
q-42 62 -111 111z" />
    <glyph glyph-name="uni06CC.medi" unicode="&#x6cc;" horiz-adv-x="440" arabic-form="medial" 
d="M0 0q-21 0 -36.5 34t-15.5 81t15.5 81t36.5 34h5q78 0 124 14.5t73 52t47 106.5l17 -3q-5 -26 -5 -49q0 -71 44.5 -96t129.5 -25h5q22 0 41 -34t19 -81t-18.5 -81t-41.5 -34h-22q-104 0 -156.5 37.5t-89.5 128.5l65 -11q-39 -67 -93 -111t-124 -44h-20zM107 -139
q68 -46 111 -111l-111 -111q-42 62 -111 111zM300 -139q68 -46 111 -111l-111 -111q-42 62 -111 111z" />
    <glyph glyph-name="uni06CC.fina" unicode="&#x6cc;" horiz-adv-x="1049" arabic-form="final" 
d="M1049 230q26 0 37 -40t11 -75t-10.5 -75t-37.5 -40h-232q-90 0 -115.5 -9.5t-25.5 -20.5q0 -19 30.5 -25.5t76 -9.5t90.5 -11t76 -29t31 -65q0 -77 -55 -139t-143 -106t-190 -67t-197 -23q-164 0 -248.5 55.5t-100.5 148t28 206.5t138 231l14 -5q-129 -235 -75 -328
t307 -93q32 0 88.5 2.5t122 7.5t124.5 13t97 18.5t38 23.5q0 17 -30.5 21t-75.5 5.5t-89.5 10t-74 33.5t-28.5 76q0 42 21 94.5t62 101.5t103.5 81t148.5 32h84z" />
    <glyph glyph-name="uni06CD.fina" unicode="&#x6cd;" horiz-adv-x="1049" 
d="M-84 -79v15q69 14 146 59t129 114l8 -12q-32 -118 -101 -154t-182 -22zM1049 230q26 0 37 -40t11 -75t-10.5 -75t-37.5 -40h-232q-90 0 -115.5 -9.5t-25.5 -20.5q0 -19 30.5 -25.5t76 -9.5t90.5 -11t76 -29t31 -65q0 -77 -55 -139t-143 -106t-190 -67t-197 -23
q-164 0 -248.5 55.5t-100.5 148t28 206.5t138 231l14 -5q-129 -235 -75 -328t307 -93q32 0 88.5 2.5t122 7.5t124.5 13t97 18.5t38 23.5q0 17 -30.5 21t-75.5 5.5t-89.5 10t-74 33.5t-28.5 76q0 42 21 94.5t62 101.5t103.5 81t148.5 32h84z" />
    <glyph glyph-name="uni06CE.init" unicode="&#x6ce;" horiz-adv-x="353" 
d="M0 230h64q90 0 139.5 21t49.5 36q0 23 -23 48t-51 40l78 200q30 -44 43 -98t13 -109q0 -95 -34 -179t-95 -136.5t-142 -52.5h-42q-25 0 -37 41.5t-12 76.5t12 73.5t37 38.5zM21 870l64 49q25 -32 53 -67t49.5 -58.5t27.5 -23.5q7 0 48 43.5t80 92.5l29 -23
q-37 -48 -78 -94t-71.5 -75.5t-37.5 -29.5q-6 0 -35 31t-65 74.5t-64 80.5zM103 -139q68 -46 111 -111l-111 -111q-42 62 -111 111zM296 -139q68 -46 111 -111l-111 -111q-42 62 -111 111z" />
    <glyph glyph-name="uni06CE.medi" unicode="&#x6ce;" horiz-adv-x="440" 
d="M0 0q-21 0 -36.5 34t-15.5 81t15.5 81t36.5 34h5q78 0 124 14.5t73 52t47 106.5l17 -3q-5 -26 -5 -49q0 -71 44.5 -96t129.5 -25h5q22 0 41 -34t19 -81t-18.5 -81t-41.5 -34h-22q-104 0 -156.5 37.5t-89.5 128.5l65 -11q-39 -67 -93 -111t-124 -44h-20zM39 712l64 49
q25 -32 53 -67t49.5 -58.5t27.5 -23.5q7 0 48 43.5t80 92.5l29 -23q-37 -48 -78 -94t-71.5 -75.5t-37.5 -29.5q-6 0 -35 31t-65 74.5t-64 80.5zM107 -139q68 -46 111 -111l-111 -111q-42 62 -111 111zM300 -139q68 -46 111 -111l-111 -111q-42 62 -111 111z" />
    <glyph glyph-name="uni06CE.fina" unicode="&#x6ce;" horiz-adv-x="1049" 
d="M1049 230q26 0 37 -40t11 -75t-10.5 -75t-37.5 -40h-232q-90 0 -115.5 -9.5t-25.5 -20.5q0 -19 30.5 -25.5t76 -9.5t90.5 -11t76 -29t31 -65q0 -77 -55 -139t-143 -106t-190 -67t-197 -23q-164 0 -248.5 55.5t-100.5 148t28 206.5t138 231l14 -5q-129 -235 -75 -328
t307 -93q32 0 88.5 2.5t122 7.5t124.5 13t97 18.5t38 23.5q0 17 -30.5 21t-75.5 5.5t-89.5 10t-74 33.5t-28.5 76q0 42 21 94.5t62 101.5t103.5 81t148.5 32h84zM396 503l64 49q25 -32 53 -67t49.5 -58.5t27.5 -23.5q7 0 48 43.5t80 92.5l29 -23q-37 -48 -78 -94
t-71.5 -75.5t-37.5 -29.5q-6 0 -35 31t-65 74.5t-64 80.5z" />
    <glyph glyph-name="uni06CF.fina" unicode="&#x6cf;" horiz-adv-x="708" 
d="M231 -385q-66 0 -146 43.5t-136 98.5l7 14q35 -8 79 -8q49 0 117 11.5t140 35t134 60.5t101 87.5t39 116.5q0 95 -22 154.5t-49.5 88t-44.5 28.5q-21 0 -46 -26t-25 -46q0 -9 24.5 -26t73.5 -17h231q25 0 37.5 -40t12.5 -75t-12.5 -75t-37.5 -40h-227q-53 0 -88 35.5
t-52 86.5t-17 98q0 26 8 80.5t25.5 113t46 100t70.5 41.5q39 0 66 -42.5t43 -113t23.5 -155.5t7.5 -170q0 -97 -37 -180t-95 -146t-124.5 -98t-126.5 -35zM474 886q68 -46 111 -111l-111 -111q-42 62 -111 111z" />
    <glyph glyph-name="uni06D0.init" unicode="&#x6d0;" horiz-adv-x="353" arabic-form="initial" 
d="M0 230h64q90 0 139.5 21t49.5 36q0 23 -23 48t-51 40l78 200q30 -44 43 -98t13 -109q0 -95 -34 -179t-95 -136.5t-142 -52.5h-42q-25 0 -37 41.5t-12 76.5t12 73.5t37 38.5zM199 -343q68 -46 111 -111l-111 -111q-42 62 -111 111zM199 -149q68 -46 111 -111l-111 -111
q-42 62 -111 111z" />
    <glyph glyph-name="uni06D0.medi" unicode="&#x6d0;" horiz-adv-x="440" arabic-form="medial" 
d="M0 0q-21 0 -36.5 34t-15.5 81t15.5 81t36.5 34h5q78 0 124 14.5t73 52t47 106.5l17 -3q-5 -26 -5 -49q0 -71 44.5 -96t129.5 -25h5q22 0 41 -34t19 -81t-18.5 -81t-41.5 -34h-22q-104 0 -156.5 37.5t-89.5 128.5l65 -11q-39 -67 -93 -111t-124 -44h-20zM203 -343
q68 -46 111 -111l-111 -111q-42 62 -111 111zM203 -149q68 -46 111 -111l-111 -111q-42 62 -111 111z" />
    <glyph glyph-name="uni06D0.fina" unicode="&#x6d0;" horiz-adv-x="1049" arabic-form="final" 
d="M1049 230q26 0 37 -40t11 -75t-10.5 -75t-37.5 -40h-232q-90 0 -115.5 -9.5t-25.5 -20.5q0 -19 30.5 -25.5t76 -9.5t90.5 -11t76 -29t31 -65q0 -77 -55 -139t-143 -106t-190 -67t-197 -23q-164 0 -248.5 55.5t-100.5 148t28 206.5t138 231l14 -5q-129 -235 -75 -328
t307 -93q32 0 88.5 2.5t122 7.5t124.5 13t97 18.5t38 23.5q0 17 -30.5 21t-75.5 5.5t-89.5 10t-74 33.5t-28.5 76q0 42 21 94.5t62 101.5t103.5 81t148.5 32h84zM443 -818q68 -46 111 -111l-111 -111q-42 62 -111 111zM443 -624q68 -46 111 -111l-111 -111q-42 62 -111 111z
" />
    <glyph glyph-name="uni06D1.init" unicode="&#x6d1;" horiz-adv-x="353" 
d="M0 230h64q90 0 139.5 21t49.5 36q0 23 -23 48t-51 40l78 200q30 -44 43 -98t13 -109q0 -95 -34 -179t-95 -136.5t-142 -52.5h-42q-25 0 -37 41.5t-12 76.5t12 73.5t37 38.5zM199 -348q68 -46 111 -111l-111 -111q-42 62 -111 111zM103 -143q68 -46 111 -111l-111 -111
q-42 62 -111 111zM296 -143q68 -46 111 -111l-111 -111q-42 62 -111 111z" />
    <glyph glyph-name="uni06D1.medi" unicode="&#x6d1;" horiz-adv-x="440" 
d="M0 0q-21 0 -36.5 34t-15.5 81t15.5 81t36.5 34h5q78 0 124 14.5t73 52t47 106.5l17 -3q-5 -26 -5 -49q0 -71 44.5 -96t129.5 -25h5q22 0 41 -34t19 -81t-18.5 -81t-41.5 -34h-22q-104 0 -156.5 37.5t-89.5 128.5l65 -11q-39 -67 -93 -111t-124 -44h-20zM203 -348
q68 -46 111 -111l-111 -111q-42 62 -111 111zM107 -143q68 -46 111 -111l-111 -111q-42 62 -111 111zM300 -143q68 -46 111 -111l-111 -111q-42 62 -111 111z" />
    <glyph glyph-name="uni06D1.fina" unicode="&#x6d1;" horiz-adv-x="1049" 
d="M1049 230q26 0 37 -40t11 -75t-10.5 -75t-37.5 -40h-232q-90 0 -115.5 -9.5t-25.5 -20.5q0 -19 30.5 -25.5t76 -9.5t90.5 -11t76 -29t31 -65q0 -77 -55 -139t-143 -106t-190 -67t-197 -23q-164 0 -248.5 55.5t-100.5 148t28 206.5t138 231l14 -5q-129 -235 -75 -328
t307 -93q32 0 88.5 2.5t122 7.5t124.5 13t97 18.5t38 23.5q0 17 -30.5 21t-75.5 5.5t-89.5 10t-74 33.5t-28.5 76q0 42 21 94.5t62 101.5t103.5 81t148.5 32h84zM444 -823q68 -46 111 -111l-111 -111q-42 62 -111 111zM347 -618q68 -46 111 -111l-111 -111q-42 62 -111 111z
M540 -618q68 -46 111 -111l-111 -111q-42 62 -111 111z" />
    <glyph glyph-name="uni06D2.fina" unicode="&#x6d2;" horiz-adv-x="1084" arabic-form="final" 
d="M1084 230q29 0 43 -40t14 -75t-14 -75t-43 -40h-338q-178 0 -327.5 -27.5t-239 -70.5t-89.5 -89q0 -35 121 -58t415 -23q121 0 254 10t254 31l-111 -175q-46 -22 -129 -40t-186.5 -28.5t-211.5 -10.5q-247 0 -351.5 54t-104.5 172q0 114 66.5 204t177 152.5t245 95.5
t270.5 33h285z" />
    <glyph glyph-name="uni06D3.fina" unicode="&#x6d3;" horiz-adv-x="1084" arabic-form="final" 
d="M1084 230q29 0 43 -40t14 -75t-14 -75t-43 -40h-338q-178 0 -327.5 -27.5t-239 -70.5t-89.5 -89q0 -35 121 -58t415 -23q121 0 254 10t254 31l-111 -175q-46 -22 -129 -40t-186.5 -28.5t-211.5 -10.5q-247 0 -351.5 54t-104.5 172q0 114 66.5 204t177 152.5t245 95.5
t270.5 33h285zM501 391q-45 23 -45 71q0 109 35 161t87 52q27 0 54.5 -14.5t43.5 -40.5l-13 -25q-13 4 -32 4q-47 0 -95 -21t-58 -58l4 23q7 -66 95 -66q27 0 63 8zM753 498l-60 -97q-55 0 -120.5 -12.5t-137.5 -77.5l-35 25q68 70 148 116t205 46z" />
    <glyph glyph-name="uni06D5.fina" unicode="&#x6d5;" horiz-adv-x="657" 
d="M657 0q-92 0 -143.5 34.5t-79 110.5t-45.5 200t-43 303l62 80q14 -159 29.5 -257.5t40.5 -150.5t67.5 -71t111.5 -19q27 0 41.5 -40t14.5 -75q0 -37 -16.5 -76t-39.5 -39zM169 19q-19 0 -49.5 5t-55 19.5t-24.5 44.5q0 101 48 177.5t126.5 129t168.5 78.5l9 -75
q-46 -8 -93.5 -34t-79 -56t-31.5 -50q0 -22 64 -22q27 0 63 9.5t63 23.5t25 28l38 -120q-37 -82 -113 -120t-159 -38z" />
    <glyph glyph-name="uni06EE.fina" unicode="&#x6ee;" horiz-adv-x="644" 
d="M618 0q-53 0 -94.5 28t-79 101t-77.5 207.5t-91 347.5l75 86l93 -426q17 -80 60 -97t140 -17q27 0 40.5 -40t13.5 -75t-13.5 -75t-40.5 -40h-26zM173 -15q-91 0 -133 48l21 226q24 -29 63.5 -40t97.5 -11q70 0 115.5 32.5t33.5 79.5l72 -30q0 -135 -76 -220t-194 -85z
M513 941l-63 -49q-26 33 -54 67.5t-49 58t-27 23.5q-8 0 -48.5 -43.5t-79.5 -91.5l-29 23q37 47 77.5 93t71.5 76t37 30q7 0 35.5 -31t64.5 -74.5t64 -81.5z" />
    <glyph glyph-name="uni06EF.fina" unicode="&#x6ef;" horiz-adv-x="542" 
d="M-114 -272l7 14q12 -3 25.5 -5t33.5 -2q83 0 164 27t147 68t105 85t39 79q0 26 -45.5 67t-92.5 65l54 221q72 -40 100.5 -124t28.5 -161q0 -81 -21 -162t-60 -147.5t-94 -107t-123 -40.5q-63 0 -139 36t-129 87zM542 230q31 0 46.5 -40t15.5 -75t-15.5 -75t-46.5 -40
q-48 0 -88 21.5t-69 51.5v221q36 -41 76.5 -52.5t80.5 -11.5zM487 518l-63 -49q-26 33 -54 67.5t-49 58t-27 23.5q-8 0 -48.5 -43.5t-79.5 -91.5l-29 23q37 47 77.5 93t71.5 76t37 30q7 0 35.5 -31t64.5 -74.5t64 -81.5z" />
    <glyph glyph-name="uni06FA.init" unicode="&#x6fa;" horiz-adv-x="868" 
d="M0 0q-25 0 -37.5 39.5t-12.5 74.5t12.5 75.5t37.5 40.5q74 0 109.5 13.5t56 46t50.5 89.5h15q-25 -74 20.5 -111.5t118.5 -37.5q48 0 89.5 30.5t69 66.5t33.5 52h15q-14 -59 9 -87t61.5 -36t69.5 -8q15 0 36.5 7t21.5 20q0 17 -18 43t-35 32l84 162q9 -8 14 -38
t6.5 -60.5t1.5 -41.5q0 -27 -6 -84.5t-22 -119.5t-44.5 -106t-73.5 -44q-47 0 -86.5 26t-66.5 65l14 1q-84 -110 -185 -110q-67 0 -112 29.5t-71 55.5l12 5q-37 -55 -77.5 -72.5t-109.5 -17.5zM485 953q68 -46 111 -111l-111 -111q-42 62 -111 111zM390 747q68 -46 111 -111
l-111 -111q-42 62 -111 111zM583 747q68 -46 111 -111l-111 -111q-42 62 -111 111zM480 -106q68 -46 111 -111l-111 -111q-42 62 -111 111z" />
    <glyph glyph-name="uni06FA.medi" unicode="&#x6fa;" horiz-adv-x="1032" 
d="M1032 0q-103 0 -141 13.5t-63 59.5l9 4q-15 -26 -52 -51.5t-83 -25.5q-88 0 -121 68l9 -2q-21 -25 -64.5 -45.5t-118.5 -20.5q-53 0 -95 15t-76 62l10 2q-53 -49 -102 -64t-144 -15q-28 0 -37 31.5t-9 83.5q0 48 11 81.5t35 33.5q102 0 153.5 14.5t76.5 47t47 87.5h15
q-11 -55 7.5 -87.5t53.5 -47t73 -14.5q72 0 128 26.5t95 122.5h15q-16 -82 1 -115.5t72 -33.5q42 0 70 28t45 63.5t26 57.5h15q-14 -69 -8.5 -100.5t40 -40t107.5 -8.5q29 0 44 -35.5t15 -79.5q0 -48 -13.5 -81.5t-45.5 -33.5zM585 953q68 -46 111 -111l-111 -111
q-42 62 -111 111zM490 747q68 -46 111 -111l-111 -111q-42 62 -111 111zM683 747q68 -46 111 -111l-111 -111q-42 62 -111 111zM586 -131q68 -46 111 -111l-111 -111q-42 62 -111 111z" />
    <glyph glyph-name="uni06FA.fina" unicode="&#x6fa;" horiz-adv-x="1471" 
d="M1151 0q-44 0 -87 25t-63 58l93 194q23 -44 82 -44q46 0 75 27t45 62t24 57h15q-15 -71 -9.5 -102.5t40 -39t105.5 -7.5q28 0 43 -35.5t15 -79.5q0 -48 -13 -81.5t-45 -33.5q-87 0 -136.5 11.5t-76.5 57.5l9 3q-15 -24 -46.5 -48t-69.5 -24zM879 -15q-25 0 -72.5 12
t-72.5 29l-24 242q41 -32 73 -42.5t89 -10.5q55 0 105 27t84 72t42 98l18 -6q0 -53 -15 -124t-45 -139t-75.5 -113t-106.5 -45zM706 365q38 -77 54 -157.5t16 -149.5q0 -123 -55 -234t-155 -180.5t-235 -69.5q-89 0 -154.5 43t-101 116t-35.5 164q0 64 16 127t39 114.5
t44 79.5l18 -9q-18 -45 -30.5 -94t-12.5 -100q0 -120 76.5 -165.5t185.5 -45.5q55 0 124.5 13.5t131 44t90.5 79.5l-5 -20q1 69 -29.5 138t-84.5 132zM1018 953q68 -46 111 -111l-111 -111q-42 62 -111 111zM923 747q68 -46 111 -111l-111 -111q-42 62 -111 111zM1116 747
q68 -46 111 -111l-111 -111q-42 62 -111 111zM1069 -138q68 -46 111 -111l-111 -111q-42 62 -111 111z" />
    <glyph glyph-name="uni06FB.init" unicode="&#x6fb;" horiz-adv-x="1207" 
d="M430 215l31 -230q-127 0 -202 33.5t-98 92.5l12 10q-35 -69 -69.5 -95t-93.5 -26h-15q-25 0 -37 41.5t-12 76.5t12 73.5t37 38.5h5q77 0 114.5 41t55.5 108h15q14 -103 79.5 -133.5t165.5 -30.5zM982 620q98 0 141.5 -49.5t43.5 -120.5q0 -92 -62 -175.5t-165 -149
t-228.5 -103t-252.5 -37.5l-31 230q117 0 227.5 7t198 21t139 36.5t51.5 53.5q0 41 -43.5 73.5t-126.5 32.5q-25 0 -76.5 -22t-115.5 -58.5t-125 -81t-104 -90.5l-62 5q71 76 148.5 152t155.5 138.5t151.5 100t135.5 37.5zM540 809q68 -46 111 -111l-111 -111
q-42 62 -111 111zM540 -149q68 -46 111 -111l-111 -111q-42 62 -111 111z" />
    <glyph glyph-name="uni06FB.medi" unicode="&#x6fb;" horiz-adv-x="1207" 
d="M430 215l31 -230q-127 0 -202 33.5t-98 92.5l12 10q-35 -69 -69.5 -95t-93.5 -26h-15q-25 0 -37 41.5t-12 76.5t12 73.5t37 38.5h5q77 0 114.5 41t55.5 108h15q14 -103 79.5 -133.5t165.5 -30.5zM982 620q98 0 141.5 -49.5t43.5 -120.5q0 -92 -62 -175.5t-165 -149
t-228.5 -103t-252.5 -37.5l-31 230q117 0 227.5 7t198 21t139 36.5t51.5 53.5q0 41 -43.5 73.5t-126.5 32.5q-25 0 -76.5 -22t-115.5 -58.5t-125 -81t-104 -90.5l-62 5q71 76 148.5 152t155.5 138.5t151.5 100t135.5 37.5zM1020 240q39 -3 90.5 -6.5t97.5 -3.5
q16 0 27 -36.5t11 -78.5q0 -45 -11.5 -80t-26.5 -35q-132 0 -219.5 18.5t-180.5 72.5zM537 809q68 -46 111 -111l-111 -111q-42 62 -111 111zM537 -149q68 -46 111 -111l-111 -111q-42 62 -111 111z" />
    </font>
</defs>
</svg>
