<?xml version="1.0" standalone="no"?>
<!DOCTYPE svg PUBLIC "-//W3C//DTD SVG 1.1//EN" "http://www.w3.org/Graphics/SVG/1.1/DTD/svg11.dtd" >
<svg xmlns="http://www.w3.org/2000/svg" xmlns:xlink="http://www.w3.org/1999/xlink" version="1.1">
<metadata>
Created by FontForge 20201107 at Mon Aug 28 17:04:30 2023
 By 
Copyright (c) 1994-2023 SIL International.
</metadata>
<defs>
<font id="Lateef-Light" horiz-adv-x="0" >
  <font-face 
    font-family="Lateef Light"
    font-weight="300"
    font-stretch="normal"
    units-per-em="2048"
    panose-1="1 0 5 6 2 0 0 2 0 3"
    ascent="1638"
    descent="-410"
    x-height="688"
    cap-height="942"
    bbox="-751 -964 4997 2139"
    underline-thickness="9"
    underline-position="-62"
    unicode-range="U+0020-10EFF"
  />
<missing-glyph horiz-adv-x="1135" 
d="M1050 996h-965v-1224h965v1224zM1075 1021v-1274h-1015v1274h1015zM726 310q0 -82 -22.5 -156t-75.5 -120t-146 -46q-76 0 -111 44.5t-35 117.5q0 40 11.5 93t31.5 87q1 2 5 7.5t8 5.5q1 0 1 -1q0 -30 -8 -60t-8 -61q0 -57 43 -81t92 -24q23 0 58 8t66 25t41 43l-36 528
l-32 40l45 127q8 8 10 -2q-1 -10 -1 -24q0 -31 14 -53t48 -24l-19 -105l-18 11q10 -86 24 -189t14 -191z" />
    <glyph glyph-name="uni0624" unicode="&#x648;&#x654;" horiz-adv-x="686" 
d="M626 101q0 -123 -41.5 -205.5t-102.5 -132.5t-122.5 -71.5t-102.5 -21.5q-83 0 -169.5 40t-138.5 80l7 14q85 -26 180 -26q160 0 282 67.5t161 208.5zM560 -51q12 48 12 112q0 51 -9 100.5t-28 82t-50 32.5t-48 -26.5t-17 -47.5q0 -18 14.5 -33t49.5 -15q30 0 49.5 18.5
t23.5 46.5l29 -85q-12 -45 -43.5 -74t-72.5 -29q-49 0 -77 36.5t-28 96.5q0 41 15.5 98t44 100.5t67.5 43.5q42 0 72 -42.5t46 -112t16 -150.5q-11 -50 -28 -86.5t-38 -65.5zM415 577q-20 9 -37 25t-17 42q0 102 38 151t83 49q27 0 55.5 -10.5t43.5 -33.5l-13 -25
q-20 10 -46 10q-42 0 -84.5 -23t-54.5 -62l4 23q2 -27 24 -51.5t72 -24.5q19 0 42 5zM649 665l-45 -74q-57 0 -122.5 -15t-142.5 -85l-33 25q68 69 143.5 109t199.5 40z" />
    <glyph glyph-name="uni0626" unicode="&#x64a;&#x654;" horiz-adv-x="996" 
d="M902 625q26 0 45 -16t19 -43q0 -25 -15 -61t-35 -63q-4 41 -52 41q-31 0 -72 -21t-80.5 -53.5t-65.5 -68t-26 -65.5q0 -38 33 -54t81.5 -20.5t97.5 -9t82 -17.5t33 -46q0 -76 -36 -155.5t-107 -147t-177 -109t-246 -41.5q-160 0 -250.5 70.5t-90.5 206.5q0 69 26 153.5
t87 183.5l12 -6q-25 -62 -35 -115t-10 -95q0 -135 75.5 -194t214.5 -59q146 0 247 36.5t157 85.5t67 85q5 15 -27.5 19t-83.5 7t-103 13t-87.5 37t-35.5 81q0 55 33.5 129.5t87.5 145.5t116.5 118.5t120.5 47.5zM386 779q-20 9 -37 25t-17 42q0 102 38 151t83 49
q27 0 55.5 -10.5t43.5 -33.5l-13 -25q-20 10 -46 10q-42 0 -84.5 -23t-54.5 -62l4 23q2 -27 24 -51.5t72 -24.5q19 0 42 5zM620 867l-45 -74q-57 0 -122.5 -15t-142.5 -85l-33 25q68 69 143.5 109t199.5 40z" />
    <glyph glyph-name="uni06C0" unicode="&#x6d5;&#x654;" horiz-adv-x="442" 
d="M192 410q-37 -38 -57 -87.5t-20 -82.5q0 -35 22 -72.5t76 -37.5q53 0 87 36t34 79q0 31 -31 57t-71.5 49.5t-71 46t-30.5 48.5q0 30 11.5 83.5t30.5 86.5q9 -53 45.5 -83t79 -54.5t74 -59.5t31.5 -98q0 -94 -26.5 -170.5t-74 -121t-112.5 -44.5q-72 0 -110 54.5
t-38 119.5q0 62 31 143t87 141zM111 783q-20 9 -37 25t-17 42q0 102 38 151t83 49q27 0 55.5 -10.5t43.5 -33.5l-13 -25q-20 10 -46 10q-42 0 -84.5 -23t-54.5 -62l4 23q2 -27 24 -51.5t72 -24.5q19 0 42 5zM345 871l-45 -74q-57 0 -122.5 -15t-142.5 -85l-33 25
q68 69 143.5 109t199.5 40z" />
    <glyph glyph-name="uni06C2" unicode="&#x6c1;&#x654;" horiz-adv-x="442" 
d="M192 410q-37 -38 -57 -87.5t-20 -82.5q0 -35 22 -72.5t76 -37.5q53 0 87 36t34 79q0 31 -31 57t-71.5 49.5t-71 46t-30.5 48.5q0 30 11.5 83.5t30.5 86.5q9 -53 45.5 -83t79 -54.5t74 -59.5t31.5 -98q0 -94 -26.5 -170.5t-74 -121t-112.5 -44.5q-72 0 -110 54.5
t-38 119.5q0 62 31 143t87 141zM111 783q-20 9 -37 25t-17 42q0 102 38 151t83 49q27 0 55.5 -10.5t43.5 -33.5l-13 -25q-20 10 -46 10q-42 0 -84.5 -23t-54.5 -62l4 23q2 -27 24 -51.5t72 -24.5q19 0 42 5zM345 871l-45 -74q-57 0 -122.5 -15t-142.5 -85l-33 25
q68 69 143.5 109t199.5 40z" />
    <glyph glyph-name="uni06510670" unicode="&#x651;&#x670;" 
d="M18 1296q0 -108 -26 -164.5t-59.5 -65t-59.5 28.5t-26 116l36 18q0 -74 25 -87.5t49.5 23.5t24.5 113zM153 1363q0 -108 -26 -164.5t-59.5 -65t-59.5 28.5t-26 116l36 18q0 -74 24.5 -87.5t49.5 23.5t25 113zM-20 1346q2 62 -6 140.5t-4 147.5l56 74q-7 -95 -3.5 -186.5
t-7.5 -138.5q-3 -13 -10.5 -23.5t-24.5 -13.5z" />
    <glyph glyph-name="uni0651064B" unicode="&#x64b;&#x651;" 
d="M18 1296q0 -108 -26 -164.5t-59.5 -65t-59.5 28.5t-26 116l36 18q0 -74 25 -87.5t49.5 23.5t24.5 113zM153 1363q0 -108 -26 -164.5t-59.5 -65t-59.5 28.5t-26 116l36 18q0 -74 24.5 -87.5t49.5 23.5t25 113zM-155 1426l27 74l302 152l-25 -75zM-155 1286l27 74l302 152
l-25 -75z" />
    <glyph glyph-name="uni0651064C" unicode="&#x64c;&#x651;" 
d="M-174 1269q26 30 42 69.5t16 70.5t-21.5 39.5t-69.5 -20.5l17 57q47 30 80 22.5t47 -38t5 -69t-45 -70.5l-2 -29q-31 -17 -69 -32zM-110 1298l-23 38q60 28 123.5 77.5t107.5 103.5t44 96q0 20 -12 30.5t-26 10.5q-16 0 -35.5 -16.5t-19.5 -51.5q0 -26 28.5 -48
t124.5 -79l-41 -60q-78 46 -127.5 88.5t-49.5 92.5q0 69 45 96.5t88 27.5q33 0 54.5 -16t21.5 -48q0 -63 -47 -129.5t-117 -122.5t-139 -90zM18 1296q0 -108 -26 -164.5t-59.5 -65t-59.5 28.5t-26 116l36 18q0 -74 25 -87.5t49.5 23.5t24.5 113zM153 1363q0 -108 -26 -164.5
t-59.5 -65t-59.5 28.5t-26 116l36 18q0 -74 24.5 -87.5t49.5 23.5t25 113z" />
    <glyph glyph-name="uni0651064D" unicode="&#x64d;&#x34f;&#x651;" 
d="M18 1604q0 -108 -26 -164.5t-59.5 -65t-59.5 28.5t-26 116l36 18q0 -74 25 -87.5t49.5 23.5t24.5 113zM153 1671q0 -108 -26 -164.5t-59.5 -65t-59.5 28.5t-26 116l36 18q0 -74 24.5 -87.5t49.5 23.5t25 113zM-167 1187l27 74l302 152l-25 -75zM-167 1047l27 74l302 152
l-25 -75z" />
    <glyph glyph-name="uni0651064E" unicode="&#x64e;&#x651;" 
d="M18 1296q0 -108 -26 -164.5t-59.5 -65t-59.5 28.5t-26 116l36 18q0 -74 25 -87.5t49.5 23.5t24.5 113zM153 1363q0 -108 -26 -164.5t-59.5 -65t-59.5 28.5t-26 116l36 18q0 -74 24.5 -87.5t49.5 23.5t25 113zM-155 1286l27 74l302 152l-25 -75z" />
    <glyph glyph-name="uni0651064F" unicode="&#x64f;&#x651;" 
d="M-154 1294l-24 38q61 28 124.5 77.5t107 103.5t43.5 96q0 20 -12 30.5t-26 10.5q-16 0 -35.5 -16.5t-19.5 -51.5q0 -26 28.5 -48t124.5 -79l-41 -60q-77 46 -126.5 88.5t-49.5 92.5q0 69 44.5 96.5t88.5 27.5q32 0 54 -16t22 -48q0 -63 -47.5 -129.5t-117 -122.5
t-138.5 -90zM18 1296q0 -108 -26 -164.5t-59.5 -65t-59.5 28.5t-26 116l36 18q0 -74 25 -87.5t49.5 23.5t24.5 113zM153 1363q0 -108 -26 -164.5t-59.5 -65t-59.5 28.5t-26 116l36 18q0 -74 24.5 -87.5t49.5 23.5t25 113z" />
    <glyph glyph-name="uni06510650" unicode="&#x650;&#x34f;&#x651;" 
d="M15 1475q0 -108 -26 -164.5t-59.5 -65t-59.5 28.5t-26 116l36 18q0 -74 25 -87.5t49.5 23.5t24.5 113zM150 1542q0 -108 -26 -164.5t-59.5 -65t-59.5 28.5t-26 116l36 18q0 -74 24.5 -87.5t49.5 23.5t25 113zM-180 1050l27 74l302 152l-25 -75z" />
    <glyph glyph-name="uni0620.init" unicode="&#x620;" horiz-adv-x="353" 
d="M0 145h63q86 0 138.5 16.5t52.5 35.5q0 36 -12.5 62.5t-39.5 53.5l49 125q62 -85 62 -182q0 -114 -73.5 -185t-198.5 -71h-41q-17 0 -30.5 20t-13.5 56q0 35 13.5 52t30.5 17zM190 -336q-62 0 -84.5 30.5t-22.5 80.5q0 46 29 93.5t78 47.5q50 0 79.5 -47.5t29.5 -93.5
q0 -50 -23.5 -80.5t-85.5 -30.5zM190 -271q28 0 48.5 9.5t20.5 43.5q0 35 -20.5 57.5t-48.5 22.5t-47.5 -22.5t-19.5 -57.5q0 -37 19.5 -45t47.5 -8z" />
    <glyph glyph-name="uni0620.medi" unicode="&#x620;" horiz-adv-x="440" 
d="M0 0q-24 0 -32.5 19.5t-8.5 52.5q0 32 8.5 52.5t32.5 20.5h5q80 0 123.5 16t66.5 53.5t43 103.5l15 -3q-3 -16 -3 -34q0 -71 54.5 -103.5t132.5 -32.5h5q25 0 35.5 -20.5t10.5 -52.5q0 -33 -10 -52.5t-36 -19.5h-22q-69 0 -111.5 23t-65 56.5t-32.5 65.5l12 -5
q-23 -48 -76 -94t-127 -46h-20zM194 -336q-62 0 -84.5 30.5t-22.5 80.5q0 46 29 93.5t78 47.5q50 0 79.5 -47.5t29.5 -93.5q0 -50 -23.5 -80.5t-85.5 -30.5zM194 -271q28 0 48.5 9.5t20.5 43.5q0 35 -20.5 57.5t-48.5 22.5t-47.5 -22.5t-19.5 -57.5q0 -37 19.5 -45t47.5 -8z
" />
    <glyph glyph-name="uni0620.fina" unicode="&#x620;" horiz-adv-x="943" 
d="M884 -184q0 -89 -59 -158t-156.5 -116t-216 -71t-237.5 -24l-175 103l5 34q36 -10 82.5 -15t98.5 -5q92 0 196.5 13.5t198 40t152.5 65t59 88.5q0 21 -31 26t-77 5t-92 6.5t-77 30.5t-31 77q0 56 36.5 108.5t111 86.5t187.5 34h84q17 0 28.5 -18.5t11.5 -53.5
q0 -73 -40 -73h-232q-89 0 -115 -12t-26 -23q0 -22 31.5 -28.5t78.5 -8t94 -8.5t78.5 -30t31.5 -74z" />
    <glyph glyph-name="uni0622.fina" unicode="&#x622;" horiz-adv-x="424" arabic-form="final" 
d="M424 0q-165 0 -228 97t-71 306l-25 581l83 109l16 -640q4 -163 53.5 -235.5t171.5 -72.5q54 0 54 -72q0 -73 -54 -73zM2 1432q81 -72 178 -72q102 0 231 79l15 -19q-48 -75 -123 -117t-154 -42q-89 0 -160 53l42 37q-9 -21 -31 -51.5t-47 -58t-44 -40.5l-15 11
q36 51 63 110.5t45 109.5z" />
    <glyph glyph-name="uni0623.fina" unicode="&#x623;" horiz-adv-x="424" arabic-form="final" 
d="M424 0q-165 0 -228 97t-71 306l-25 581l83 109l16 -640q4 -163 53.5 -235.5t171.5 -72.5q54 0 54 -72q0 -73 -54 -73zM105 1311q-20 9 -37 25t-17 42q0 102 38 151t83 49q27 0 55.5 -10.5t43.5 -33.5l-13 -25q-20 10 -46 10q-42 0 -84.5 -23t-54.5 -62l4 23
q2 -27 24 -51.5t72 -24.5q19 0 42 5zM339 1399l-45 -74q-57 0 -122.5 -15t-142.5 -85l-33 25q68 69 143.5 109t199.5 40z" />
    <glyph glyph-name="uni0625.fina" unicode="&#x625;" horiz-adv-x="424" arabic-form="final" 
d="M424 0q-165 0 -228 97t-71 306l-25 581l83 109l16 -640q4 -163 53.5 -235.5t171.5 -72.5q54 0 54 -72q0 -73 -54 -73zM177 -379q-20 9 -37 25t-17 42q0 102 38 151t83 49q27 0 55.5 -10.5t43.5 -33.5l-13 -25q-20 10 -46 10q-42 0 -84.5 -23t-54.5 -62l4 23
q2 -27 24 -51.5t72 -24.5q19 0 42 5zM411 -291l-45 -74q-57 0 -122.5 -15t-142.5 -85l-33 25q68 69 143.5 109t199.5 40z" />
    <glyph glyph-name="uni0627.fina" unicode="&#x627;" horiz-adv-x="424" arabic-form="final" 
d="M424 0q-165 0 -228 97t-71 306l-25 581l83 109l16 -640q4 -163 53.5 -235.5t171.5 -72.5q54 0 54 -72q0 -73 -54 -73z" />
    <glyph glyph-name="uni0628.init" unicode="&#x628;" horiz-adv-x="353" arabic-form="initial" 
d="M0 145h63q86 0 138.5 16.5t52.5 35.5q0 36 -12.5 62.5t-39.5 53.5l49 125q62 -85 62 -182q0 -114 -73.5 -185t-198.5 -71h-41q-17 0 -30.5 20t-13.5 56q0 35 13.5 52t30.5 17zM199 -154q57 -41 96 -96l-96 -95q-36 53 -95 95z" />
    <glyph glyph-name="uni0628.medi" unicode="&#x628;" horiz-adv-x="440" arabic-form="medial" 
d="M0 0q-24 0 -32.5 19.5t-8.5 52.5q0 32 8.5 52.5t32.5 20.5h5q80 0 123.5 16t66.5 53.5t43 103.5l15 -3q-3 -16 -3 -34q0 -71 54.5 -103.5t132.5 -32.5h5q25 0 35.5 -20.5t10.5 -52.5q0 -33 -10 -52.5t-36 -19.5h-22q-69 0 -111.5 23t-65 56.5t-32.5 65.5l12 -5
q-23 -48 -76 -94t-127 -46h-20zM203 -154q57 -41 96 -96l-96 -95q-36 53 -95 95z" />
    <glyph glyph-name="uni0628.fina" unicode="&#x628;" horiz-adv-x="1175" arabic-form="final" 
d="M1027 318l15 -3q0 -91 30 -130.5t103 -39.5q47 0 47 -72q0 -73 -47 -73q-172 0 -191 163l7 -5q-70 -87 -204 -130t-294 -43q-213 0 -333 68t-120 207q0 67 36.5 131t77.5 103l14 -7q-22 -38 -38.5 -82.5t-16.5 -83.5q0 -103 123.5 -147t320.5 -44q130 0 217 20.5
t146.5 62.5t106.5 105zM498 -154q57 -41 96 -96l-96 -95q-36 53 -95 95z" />
    <glyph glyph-name="uni0629.fina" unicode="&#x629;" horiz-adv-x="642" arabic-form="final" 
d="M642 0q-92 0 -143.5 34t-79 110t-45.5 199.5t-43 303.5l62 81q21 -225 43 -352t68.5 -179t137.5 -52q19 0 32.5 -19t13.5 -53q0 -38 -15 -55.5t-31 -17.5zM154 49q-33 0 -73.5 11.5t-40.5 46.5q0 101 44 170.5t118.5 116.5t166.5 79l8 -77q-51 -10 -98 -39t-77.5 -63
t-30.5 -59q0 -32 66 -32q27 0 63.5 13t63.5 30.5t25 31.5l24 -72q-22 -75 -100 -116t-159 -41zM271 1074q57 -41 96 -96l-96 -95q-36 53 -95 95zM457 1074q57 -41 96 -96l-96 -95q-36 53 -95 95z" />
    <glyph glyph-name="uni062A.init" unicode="&#x62a;" horiz-adv-x="353" arabic-form="initial" 
d="M0 145h63q86 0 138.5 16.5t52.5 35.5q0 36 -12.5 62.5t-39.5 53.5l49 125q62 -85 62 -182q0 -114 -73.5 -185t-198.5 -71h-41q-17 0 -30.5 20t-13.5 56q0 35 13.5 52t30.5 17zM113 761q57 -41 96 -96l-96 -95q-36 53 -95 95zM299 761q57 -41 96 -96l-96 -95
q-36 53 -95 95z" />
    <glyph glyph-name="uni062A.medi" unicode="&#x62a;" horiz-adv-x="440" arabic-form="medial" 
d="M0 0q-24 0 -32.5 19.5t-8.5 52.5q0 32 8.5 52.5t32.5 20.5h5q80 0 123.5 16t66.5 53.5t43 103.5l15 -3q-3 -16 -3 -34q0 -71 54.5 -103.5t132.5 -32.5h5q25 0 35.5 -20.5t10.5 -52.5q0 -33 -10 -52.5t-36 -19.5h-22q-69 0 -111.5 23t-65 56.5t-32.5 65.5l12 -5
q-23 -48 -76 -94t-127 -46h-20zM119 657q57 -41 96 -96l-96 -95q-36 53 -95 95zM305 657q57 -41 96 -96l-96 -95q-36 53 -95 95z" />
    <glyph glyph-name="uni062A.fina" unicode="&#x62a;" horiz-adv-x="1175" arabic-form="final" 
d="M1027 318l15 -3q0 -91 30 -130.5t103 -39.5q47 0 47 -72q0 -73 -47 -73q-172 0 -191 163l7 -5q-70 -87 -204 -130t-294 -43q-213 0 -333 68t-120 207q0 67 36.5 131t77.5 103l14 -7q-22 -38 -38.5 -82.5t-16.5 -83.5q0 -103 123.5 -147t320.5 -44q130 0 217 20.5
t146.5 62.5t106.5 105zM486 609q57 -41 96 -96l-96 -95q-36 53 -95 95zM672 609q57 -41 96 -96l-96 -95q-36 53 -95 95z" />
    <glyph glyph-name="uni062B.init" unicode="&#x62b;" horiz-adv-x="353" arabic-form="initial" 
d="M0 145h63q86 0 138.5 16.5t52.5 35.5q0 36 -12.5 62.5t-39.5 53.5l49 125q62 -85 62 -182q0 -114 -73.5 -185t-198.5 -71h-41q-17 0 -30.5 20t-13.5 56q0 35 13.5 52t30.5 17zM205 964q57 -41 96 -96l-96 -95q-36 53 -95 95zM113 769q57 -41 96 -96l-96 -95
q-36 53 -95 95zM299 769q57 -41 96 -96l-96 -95q-36 53 -95 95z" />
    <glyph glyph-name="uni062B.medi" unicode="&#x62b;" horiz-adv-x="440" arabic-form="medial" 
d="M0 0q-24 0 -32.5 19.5t-8.5 52.5q0 32 8.5 52.5t32.5 20.5h5q80 0 123.5 16t66.5 53.5t43 103.5l15 -3q-3 -16 -3 -34q0 -71 54.5 -103.5t132.5 -32.5h5q25 0 35.5 -20.5t10.5 -52.5q0 -33 -10 -52.5t-36 -19.5h-22q-69 0 -111.5 23t-65 56.5t-32.5 65.5l12 -5
q-23 -48 -76 -94t-127 -46h-20zM211 860q57 -41 96 -96l-96 -95q-36 53 -95 95zM119 665q57 -41 96 -96l-96 -95q-36 53 -95 95zM305 665q57 -41 96 -96l-96 -95q-36 53 -95 95z" />
    <glyph glyph-name="uni062B.fina" unicode="&#x62b;" horiz-adv-x="1175" arabic-form="final" 
d="M1027 318l15 -3q0 -91 30 -130.5t103 -39.5q47 0 47 -72q0 -73 -47 -73q-172 0 -191 163l7 -5q-70 -87 -204 -130t-294 -43q-213 0 -333 68t-120 207q0 67 36.5 131t77.5 103l14 -7q-22 -38 -38.5 -82.5t-16.5 -83.5q0 -103 123.5 -147t320.5 -44q130 0 217 20.5
t146.5 62.5t106.5 105zM578 812q57 -41 96 -96l-96 -95q-36 53 -95 95zM486 617q57 -41 96 -96l-96 -95q-36 53 -95 95zM672 617q57 -41 96 -96l-96 -95q-36 53 -95 95z" />
    <glyph glyph-name="uni062C.init" unicode="&#x62c;" horiz-adv-x="764" arabic-form="initial" 
d="M5 0q-24 0 -31.5 19.5t-7.5 52.5q0 32 9 52.5t25 20.5q108 0 173 17t110 42t92.5 50t118.5 42.5t189 17.5l-29 -93q-93 0 -160 23.5t-119.5 54t-98.5 54t-97 23.5q-47 0 -79.5 -21.5t-47.5 -39.5l-12 6q17 67 61 128t117 61q57 0 102.5 -24.5t96.5 -55.5t123 -55t184 -24
l-41 -144q-106 0 -176 -21t-121.5 -51.5t-102 -61.5t-115.5 -52t-163 -21zM328 -84q57 -41 96 -96l-96 -95q-36 53 -95 95z" />
    <glyph glyph-name="uni062C.medi" unicode="&#x62c;" horiz-adv-x="809" arabic-form="medial" 
d="M5 0q-44 0 -44 72q0 32 9.5 52.5t29.5 20.5q104 0 170.5 17t117.5 44.5t105.5 60.5t133 66.5t202.5 60.5l-35 -104q-107 -23 -181.5 -13t-130 33.5t-103.5 44.5t-100 21q-47 0 -79.5 -21.5t-47.5 -39.5l-12 6q17 67 61 128t117 61q57 0 108 -22t109.5 -46.5t138 -34
t195.5 16.5l-43 -144q-105 -22 -178.5 -56.5t-131.5 -73t-115.5 -73t-127.5 -56t-168 -21.5zM809 0q-104 0 -156.5 58.5t-61.5 218.5l45 12q8 -74 43 -109t130 -35q60 0 60 -72q0 -73 -60 -73zM358 -84q57 -41 96 -96l-96 -95q-36 53 -95 95z" />
    <glyph glyph-name="uni062C.fina" unicode="&#x62c;" horiz-adv-x="889" arabic-form="final" 
d="M549 361q0 -94 43 -155t128 -61h169q52 0 52 -72q0 -73 -52 -73h-149q-99 0 -150 44.5t-69.5 126t-18.5 190.5h47zM673 -741q-175 0 -296 43.5t-195.5 117t-108 166t-33.5 189.5q0 195 94 352t246 244l2 -7q-30 3 -58.5 13.5t-63.5 10.5q-67 0 -107 -37t-58 -67l-14 6
q5 55 37.5 107.5t85.5 87.5t117 35q49 0 95.5 -16t105 -31.5t143.5 -15.5q34 0 63.5 1.5t63.5 4.5l-60 -144q-16 2 -34.5 3t-34.5 1q-103 0 -203 -41t-181 -113t-129.5 -165t-48.5 -197q0 -142 76.5 -231t210 -131t303.5 -42h145v-24zM434 -111q57 -41 96 -96l-96 -95
q-36 53 -95 95z" />
    <glyph glyph-name="uni062D.init" unicode="&#x62d;" horiz-adv-x="764" arabic-form="initial" 
d="M5 0q-24 0 -31.5 19.5t-7.5 52.5q0 32 9 52.5t25 20.5q108 0 173 17t110 42t92.5 50t118.5 42.5t189 17.5l-29 -93q-93 0 -160 23.5t-119.5 54t-98.5 54t-97 23.5q-47 0 -79.5 -21.5t-47.5 -39.5l-12 6q17 67 61 128t117 61q57 0 102.5 -24.5t96.5 -55.5t123 -55t184 -24
l-41 -144q-106 0 -176 -21t-121.5 -51.5t-102 -61.5t-115.5 -52t-163 -21z" />
    <glyph glyph-name="uni062D.medi" unicode="&#x62d;" horiz-adv-x="809" arabic-form="medial" 
d="M5 0q-44 0 -44 72q0 32 9.5 52.5t29.5 20.5q104 0 170.5 17t117.5 44.5t105.5 60.5t133 66.5t202.5 60.5l-35 -104q-107 -23 -181.5 -13t-130 33.5t-103.5 44.5t-100 21q-47 0 -79.5 -21.5t-47.5 -39.5l-12 6q17 67 61 128t117 61q57 0 108 -22t109.5 -46.5t138 -34
t195.5 16.5l-43 -144q-105 -22 -178.5 -56.5t-131.5 -73t-115.5 -73t-127.5 -56t-168 -21.5zM809 0q-104 0 -156.5 58.5t-61.5 218.5l45 12q8 -74 43 -109t130 -35q60 0 60 -72q0 -73 -60 -73z" />
    <glyph glyph-name="uni062D.fina" unicode="&#x62d;" horiz-adv-x="889" arabic-form="final" 
d="M549 361q0 -94 43 -155t128 -61h169q52 0 52 -72q0 -73 -52 -73h-149q-99 0 -150 44.5t-69.5 126t-18.5 190.5h47zM673 -741q-175 0 -296 43.5t-195.5 117t-108 166t-33.5 189.5q0 195 94 352t246 244l2 -7q-30 3 -58.5 13.5t-63.5 10.5q-67 0 -107 -37t-58 -67l-14 6
q5 55 37.5 107.5t85.5 87.5t117 35q49 0 95.5 -16t105 -31.5t143.5 -15.5q34 0 63.5 1.5t63.5 4.5l-60 -144q-16 2 -34.5 3t-34.5 1q-103 0 -203 -41t-181 -113t-129.5 -165t-48.5 -197q0 -142 76.5 -231t210 -131t303.5 -42h145v-24z" />
    <glyph glyph-name="uni062E.init" unicode="&#x62e;" horiz-adv-x="764" arabic-form="initial" 
d="M5 0q-24 0 -31.5 19.5t-7.5 52.5q0 32 9 52.5t25 20.5q108 0 173 17t110 42t92.5 50t118.5 42.5t189 17.5l-29 -93q-93 0 -160 23.5t-119.5 54t-98.5 54t-97 23.5q-47 0 -79.5 -21.5t-47.5 -39.5l-12 6q17 67 61 128t117 61q57 0 102.5 -24.5t96.5 -55.5t123 -55t184 -24
l-41 -144q-106 0 -176 -21t-121.5 -51.5t-102 -61.5t-115.5 -52t-163 -21zM424 825q57 -41 96 -96l-96 -95q-36 53 -95 95z" />
    <glyph glyph-name="uni062E.medi" unicode="&#x62e;" horiz-adv-x="809" arabic-form="medial" 
d="M5 0q-44 0 -44 72q0 32 9.5 52.5t29.5 20.5q104 0 170.5 17t117.5 44.5t105.5 60.5t133 66.5t202.5 60.5l-35 -104q-107 -23 -181.5 -13t-130 33.5t-103.5 44.5t-100 21q-47 0 -79.5 -21.5t-47.5 -39.5l-12 6q17 67 61 128t117 61q57 0 108 -22t109.5 -46.5t138 -34
t195.5 16.5l-43 -144q-105 -22 -178.5 -56.5t-131.5 -73t-115.5 -73t-127.5 -56t-168 -21.5zM809 0q-104 0 -156.5 58.5t-61.5 218.5l45 12q8 -74 43 -109t130 -35q60 0 60 -72q0 -73 -60 -73zM440 825q57 -41 96 -96l-96 -95q-36 53 -95 95z" />
    <glyph glyph-name="uni062E.fina" unicode="&#x62e;" horiz-adv-x="889" arabic-form="final" 
d="M549 361q0 -94 43 -155t128 -61h169q52 0 52 -72q0 -73 -52 -73h-149q-99 0 -150 44.5t-69.5 126t-18.5 190.5h47zM673 -741q-175 0 -296 43.5t-195.5 117t-108 166t-33.5 189.5q0 195 94 352t246 244l2 -7q-30 3 -58.5 13.5t-63.5 10.5q-67 0 -107 -37t-58 -67l-14 6
q5 55 37.5 107.5t85.5 87.5t117 35q49 0 95.5 -16t105 -31.5t143.5 -15.5q34 0 63.5 1.5t63.5 4.5l-60 -144q-16 2 -34.5 3t-34.5 1q-103 0 -203 -41t-181 -113t-129.5 -165t-48.5 -197q0 -142 76.5 -231t210 -131t303.5 -42h145v-24zM486 849q57 -41 96 -96l-96 -95
q-36 53 -95 95z" />
    <glyph glyph-name="uni062F.fina" unicode="&#x62f;" horiz-adv-x="644" arabic-form="final" 
d="M618 0q-61 0 -103.5 35.5t-77 115.5t-69.5 213.5t-82 331.5l65 74l96 -440q23 -107 67.5 -146t129.5 -39q49 0 49 -72q0 -73 -49 -73h-26zM183 -15q-40 0 -77 11.5t-66 36.5l9 150q29 -30 75 -43t95 -13q48 0 94.5 14.5t73.5 40.5t17 59l44 -21q0 -65 -36 -118t-95.5 -85
t-133.5 -32z" />
    <glyph glyph-name="uni0630.fina" unicode="&#x630;" horiz-adv-x="644" arabic-form="final" 
d="M618 0q-61 0 -103.5 35.5t-77 115.5t-69.5 213.5t-82 331.5l65 74l96 -440q23 -107 67.5 -146t129.5 -39q49 0 49 -72q0 -73 -49 -73h-26zM183 -15q-40 0 -77 11.5t-66 36.5l9 150q29 -30 75 -43t95 -13q48 0 94.5 14.5t73.5 40.5t17 59l44 -21q0 -65 -36 -118t-95.5 -85
t-133.5 -32zM349 1099q57 -41 96 -96l-96 -95q-36 53 -95 95z" />
    <glyph glyph-name="uni0631.fina" unicode="&#x631;" horiz-adv-x="542" arabic-form="final" 
d="M-114 -297l7 14q36 -18 93 -18q85 0 161.5 31.5t134.5 79.5t91.5 98t33.5 86q0 26 -41.5 64.5t-88.5 62.5l38 146q62 -39 99.5 -96.5t37.5 -108.5q0 -108 -37 -209.5t-102 -167t-148 -65.5q-69 0 -151.5 24.5t-127.5 58.5zM542 145q19 0 33 -18.5t14 -53.5
q0 -36 -14 -54.5t-33 -18.5q-48 0 -88 21.5t-69 51.5v136q41 -43 78.5 -53.5t78.5 -10.5z" />
    <glyph glyph-name="uni0632.fina" unicode="&#x632;" horiz-adv-x="542" arabic-form="final" 
d="M-114 -297l7 14q36 -18 93 -18q85 0 161.5 31.5t134.5 79.5t91.5 98t33.5 86q0 26 -41.5 64.5t-88.5 62.5l38 146q62 -39 99.5 -96.5t37.5 -108.5q0 -108 -37 -209.5t-102 -167t-148 -65.5q-69 0 -151.5 24.5t-127.5 58.5zM542 145q19 0 33 -18.5t14 -53.5
q0 -36 -14 -54.5t-33 -18.5q-48 0 -88 21.5t-69 51.5v136q41 -43 78.5 -53.5t78.5 -10.5zM315 598q57 -41 96 -96l-96 -95q-36 53 -95 95z" />
    <glyph glyph-name="uni0633.init" unicode="&#x633;" horiz-adv-x="843" arabic-form="initial" 
d="M0 0q-17 0 -31 18t-14 54q0 35 14 54t31 19q74 0 109.5 13.5t56 46t50.5 89.5h15q-25 -74 20.5 -111.5t118.5 -37.5q51 0 92 30.5t67.5 66.5t32.5 52h15q-14 -59 9.5 -87t59 -36t56.5 -8q15 0 34.5 4t19.5 17q0 21 -7 48t-19 37l49 97q14 -13 19 -47.5t5 -51.5
q0 -27 -6.5 -68.5t-21 -83t-37.5 -69.5t-56 -28q-47 0 -86.5 26t-66.5 65l14 1q-84 -110 -185 -110q-67 0 -112 29.5t-71 55.5l12 5q-37 -55 -77.5 -72.5t-109.5 -17.5z" />
    <glyph glyph-name="uni0633.medi" unicode="&#x633;" horiz-adv-x="1032" arabic-form="medial" 
d="M1032 0q-71 0 -109 5t-58 21t-37 47l9 4q-15 -26 -52 -51.5t-83 -25.5q-88 0 -121 68l9 -2q-21 -25 -64.5 -45.5t-118.5 -20.5q-53 0 -95 15t-76 62l10 2q-36 -33 -66 -50t-70.5 -23t-109.5 -6q-38 0 -38 73q0 72 38 72q97 0 148 12t78 44t51 93h15q-11 -55 7.5 -87.5
t53.5 -47t73 -14.5q72 0 128 26.5t95 122.5h15q-16 -82 1 -115.5t72 -33.5q42 0 70 28t45 63.5t26 57.5h15q-13 -68 -9 -99.5t38.5 -40.5t109.5 -9q51 0 51 -72q0 -73 -51 -73z" />
    <glyph glyph-name="uni0633.fina" unicode="&#x633;" horiz-adv-x="1471" arabic-form="final" 
d="M1151 0q-44 0 -85.5 24t-61.5 56l75 133q12 -30 34.5 -47.5t62.5 -17.5q46 0 75 27t45 62t24 57h15q-15 -70 -10 -101.5t39 -39.5t107 -8q45 0 45 -72q0 -73 -45 -73q-91 0 -138 11t-75 58l9 3q-15 -24 -46.5 -48t-69.5 -24zM864 -15q-25 0 -65 12t-65 29l-24 157
q41 -32 73 -42.5t89 -10.5q55 0 103 36t79 86t34 90l18 -6q0 -53 -15 -113.5t-45 -114.5t-75.5 -88.5t-106.5 -34.5zM675 311q38 -76 61 -143.5t23 -137.5q0 -184 -114.5 -299t-315.5 -115q-138 0 -213.5 73.5t-75.5 196.5q0 80 29.5 160.5t72.5 132.5l18 -8
q-22 -54 -35 -106.5t-13 -100.5q0 -106 67 -154.5t190 -48.5q99 0 191.5 37t144.5 114l-5 -20q1 85 -23 157t-68 141z" />
    <glyph glyph-name="uni0634.init" unicode="&#x634;" horiz-adv-x="843" arabic-form="initial" 
d="M0 0q-17 0 -31 18t-14 54q0 35 14 54t31 19q74 0 109.5 13.5t56 46t50.5 89.5h15q-25 -74 20.5 -111.5t118.5 -37.5q51 0 92 30.5t67.5 66.5t32.5 52h15q-14 -59 9.5 -87t59 -36t56.5 -8q15 0 34.5 4t19.5 17q0 21 -7 48t-19 37l49 97q14 -13 19 -47.5t5 -51.5
q0 -27 -6.5 -68.5t-21 -83t-37.5 -69.5t-56 -28q-47 0 -86.5 26t-66.5 65l14 1q-84 -110 -185 -110q-67 0 -112 29.5t-71 55.5l12 5q-37 -55 -77.5 -72.5t-109.5 -17.5zM482 867q57 -41 96 -96l-96 -95q-36 53 -95 95zM390 672q57 -41 96 -96l-96 -95q-36 53 -95 95z
M576 672q57 -41 96 -96l-96 -95q-36 53 -95 95z" />
    <glyph glyph-name="uni0634.medi" unicode="&#x634;" horiz-adv-x="1032" arabic-form="medial" 
d="M1032 0q-71 0 -109 5t-58 21t-37 47l9 4q-15 -26 -52 -51.5t-83 -25.5q-88 0 -121 68l9 -2q-21 -25 -64.5 -45.5t-118.5 -20.5q-53 0 -95 15t-76 62l10 2q-36 -33 -66 -50t-70.5 -23t-109.5 -6q-38 0 -38 73q0 72 38 72q97 0 148 12t78 44t51 93h15q-11 -55 7.5 -87.5
t53.5 -47t73 -14.5q72 0 128 26.5t95 122.5h15q-16 -82 1 -115.5t72 -33.5q42 0 70 28t45 63.5t26 57.5h15q-13 -68 -9 -99.5t38.5 -40.5t109.5 -9q51 0 51 -72q0 -73 -51 -73zM585 867q57 -41 96 -96l-96 -95q-36 53 -95 95zM493 672q57 -41 96 -96l-96 -95q-36 53 -95 95z
M679 672q57 -41 96 -96l-96 -95q-36 53 -95 95z" />
    <glyph glyph-name="uni0634.fina" unicode="&#x634;" horiz-adv-x="1471" arabic-form="final" 
d="M1151 0q-44 0 -85.5 24t-61.5 56l75 133q12 -30 34.5 -47.5t62.5 -17.5q46 0 75 27t45 62t24 57h15q-15 -70 -10 -101.5t39 -39.5t107 -8q45 0 45 -72q0 -73 -45 -73q-91 0 -138 11t-75 58l9 3q-15 -24 -46.5 -48t-69.5 -24zM864 -15q-25 0 -65 12t-65 29l-24 157
q41 -32 73 -42.5t89 -10.5q55 0 103 36t79 86t34 90l18 -6q0 -53 -15 -113.5t-45 -114.5t-75.5 -88.5t-106.5 -34.5zM675 311q38 -76 61 -143.5t23 -137.5q0 -184 -114.5 -299t-315.5 -115q-138 0 -213.5 73.5t-75.5 196.5q0 80 29.5 160.5t72.5 132.5l18 -8
q-22 -54 -35 -106.5t-13 -100.5q0 -106 67 -154.5t190 -48.5q99 0 191.5 37t144.5 114l-5 -20q1 85 -23 157t-68 141zM1018 867q57 -41 96 -96l-96 -95q-36 53 -95 95zM926 672q57 -41 96 -96l-96 -95q-36 53 -95 95zM1112 672q57 -41 96 -96l-96 -95q-36 53 -95 95z" />
    <glyph glyph-name="uni0635.init" unicode="&#x635;" horiz-adv-x="1143" arabic-form="initial" 
d="M439 130l22 -145q-127 0 -202 33.5t-98 92.5l12 10q-35 -69 -69.5 -95t-93.5 -26h-15q-17 0 -30.5 20t-13.5 56q0 35 13.5 52t30.5 17h5q77 0 114.5 41t55.5 108h15q9 -68 47 -103.5t93 -48t114 -12.5zM951 528q71 0 111.5 -39t40.5 -102q0 -96 -59 -170.5t-154.5 -126
t-208.5 -78.5t-222 -27l-23 145q110 0 214 12t187 34.5t132 53.5t49 70q0 43 -46 75.5t-112 32.5q-25 0 -77 -25.5t-117 -68t-130 -94t-116 -103.5l-57 4q29 32 81.5 82.5t117.5 106.5t135 105.5t135.5 81t118.5 31.5z" />
    <glyph glyph-name="uni0635.medi" unicode="&#x635;" horiz-adv-x="1143" arabic-form="medial" 
d="M439 130l22 -145q-127 0 -202 33.5t-98 92.5l12 10q-35 -69 -69.5 -95t-93.5 -26h-15q-17 0 -30.5 20t-13.5 56q0 35 13.5 52t30.5 17h5q77 0 114.5 41t55.5 108h15q9 -68 47 -103.5t93 -48t114 -12.5zM951 528q71 0 111.5 -39t40.5 -102q0 -96 -59 -170.5t-154.5 -126
t-208.5 -78.5t-222 -27l-23 145q110 0 214 12t187 34.5t132 53.5t49 70q0 43 -46 75.5t-112 32.5q-25 0 -77 -25.5t-117 -68t-130 -94t-116 -103.5l-57 4q29 32 81.5 82.5t117.5 106.5t135 105.5t135.5 81t118.5 31.5zM862 122q66 16 142.5 19.5t138.5 3.5q12 0 22.5 -18
t10.5 -55q0 -39 -11.5 -55.5t-21.5 -16.5q-102 0 -169.5 5.5t-122 19.5t-118.5 41z" />
    <glyph glyph-name="uni0635.fina" unicode="&#x635;" horiz-adv-x="1575" arabic-form="final" 
d="M871 130l23 -145q-104 0 -157 23l-20 153q61 -31 154 -31zM675 313q38 -77 61 -144.5t23 -136.5q0 -185 -114.5 -299.5t-315.5 -114.5q-138 0 -213.5 73t-75.5 196q0 80 29.5 160.5t72.5 133.5l18 -8q-22 -55 -35 -107t-13 -100q0 -107 67 -155t190 -48q99 0 191.5 36.5
t144.5 114.5l-5 -20q1 84 -23 156.5t-68 140.5zM1383 528q71 0 111.5 -39t40.5 -102q0 -96 -58.5 -170.5t-154.5 -126t-209 -78.5t-221 -27l-23 145q109 0 213 12t187 34.5t132 53.5t49 70q0 43 -45.5 75.5t-112.5 32.5q-25 0 -76.5 -25.5t-116.5 -68t-130.5 -94
t-116.5 -103.5l-57 4q30 32 82 82.5t117.5 106.5t135 105.5t135.5 81t118 31.5zM1294 122q66 16 142.5 19.5t138.5 3.5q12 0 22.5 -18t10.5 -55q0 -39 -11.5 -55.5t-21.5 -16.5q-102 0 -169.5 5.5t-122 19.5t-118.5 41z" />
    <glyph glyph-name="uni0636.init" unicode="&#x636;" horiz-adv-x="1143" arabic-form="initial" 
d="M439 130l22 -145q-127 0 -202 33.5t-98 92.5l12 10q-35 -69 -69.5 -95t-93.5 -26h-15q-17 0 -30.5 20t-13.5 56q0 35 13.5 52t30.5 17h5q77 0 114.5 41t55.5 108h15q9 -68 47 -103.5t93 -48t114 -12.5zM951 528q71 0 111.5 -39t40.5 -102q0 -96 -59 -170.5t-154.5 -126
t-208.5 -78.5t-222 -27l-23 145q110 0 214 12t187 34.5t132 53.5t49 70q0 43 -46 75.5t-112 32.5q-25 0 -77 -25.5t-117 -68t-130 -94t-116 -103.5l-57 4q29 32 81.5 82.5t117.5 106.5t135 105.5t135.5 81t118.5 31.5zM554 744q57 -41 96 -96l-96 -95q-36 53 -95 95z" />
    <glyph glyph-name="uni0636.medi" unicode="&#x636;" horiz-adv-x="1143" arabic-form="medial" 
d="M439 130l22 -145q-127 0 -202 33.5t-98 92.5l12 10q-35 -69 -69.5 -95t-93.5 -26h-15q-17 0 -30.5 20t-13.5 56q0 35 13.5 52t30.5 17h5q77 0 114.5 41t55.5 108h15q9 -68 47 -103.5t93 -48t114 -12.5zM951 528q71 0 111.5 -39t40.5 -102q0 -96 -59 -170.5t-154.5 -126
t-208.5 -78.5t-222 -27l-23 145q110 0 214 12t187 34.5t132 53.5t49 70q0 43 -46 75.5t-112 32.5q-25 0 -77 -25.5t-117 -68t-130 -94t-116 -103.5l-57 4q29 32 81.5 82.5t117.5 106.5t135 105.5t135.5 81t118.5 31.5zM862 122q66 16 142.5 19.5t138.5 3.5q12 0 22.5 -18
t10.5 -55q0 -39 -11.5 -55.5t-21.5 -16.5q-102 0 -169.5 5.5t-122 19.5t-118.5 41zM554 744q57 -41 96 -96l-96 -95q-36 53 -95 95z" />
    <glyph glyph-name="uni0636.fina" unicode="&#x636;" horiz-adv-x="1575" arabic-form="final" 
d="M871 130l23 -145q-104 0 -157 23l-20 153q61 -31 154 -31zM675 313q38 -77 61 -144.5t23 -136.5q0 -185 -114.5 -299.5t-315.5 -114.5q-138 0 -213.5 73t-75.5 196q0 80 29.5 160.5t72.5 133.5l18 -8q-22 -55 -35 -107t-13 -100q0 -107 67 -155t190 -48q99 0 191.5 36.5
t144.5 114.5l-5 -20q1 84 -23 156.5t-68 140.5zM1383 528q71 0 111.5 -39t40.5 -102q0 -96 -58.5 -170.5t-154.5 -126t-209 -78.5t-221 -27l-23 145q109 0 213 12t187 34.5t132 53.5t49 70q0 43 -45.5 75.5t-112.5 32.5q-25 0 -76.5 -25.5t-116.5 -68t-130.5 -94
t-116.5 -103.5l-57 4q30 32 82 82.5t117.5 106.5t135 105.5t135.5 81t118 31.5zM1294 122q66 16 142.5 19.5t138.5 3.5q12 0 22.5 -18t10.5 -55q0 -39 -11.5 -55.5t-21.5 -16.5q-102 0 -169.5 5.5t-122 19.5t-118.5 41zM986 744q57 -41 96 -96l-96 -95q-36 53 -95 95z" />
    <glyph glyph-name="uni0637.init" unicode="&#x637;" horiz-adv-x="799" arabic-form="initial" 
d="M0 0q-24 0 -33 19.5t-9 52.5q0 32 9.5 52.5t32.5 20.5h95l23 -145h-118zM187 1164l12 -7q-74 -136 80 -183l-47 -118q-56 25 -101 58.5t-45 72.5q0 33 21.5 70.5t46 67.5t33.5 39zM607 543q71 0 111.5 -39t40.5 -102q0 -96 -58.5 -170.5t-154.5 -126t-209 -78.5t-221 -27
l-23 145q109 0 213 12t187 34.5t132 53.5t49 70q0 43 -45.5 75.5t-112.5 32.5q-25 0 -76.5 -25.5t-116.5 -68t-130.5 -94t-116.5 -103.5l-57 4q30 32 82 82.5t117.5 106.5t135 105.5t135.5 81t118 31.5zM161 231q2 177 -4.5 353t-19.5 353q19 -13 38.5 -25.5t38.5 -24.5
q15 -303 0 -606q-13 -13 -26.5 -25.5t-26.5 -24.5z" />
    <glyph glyph-name="uni0637.medi" unicode="&#x637;" horiz-adv-x="801" arabic-form="medial" 
d="M0 0q-24 0 -33 19.5t-9 52.5q0 32 9.5 52.5t32.5 20.5h95l23 -145h-118zM187 1164l12 -7q-74 -136 80 -183l-47 -118q-56 25 -101 58.5t-45 72.5q0 33 21.5 70.5t46 67.5t33.5 39zM607 543q71 0 111.5 -39t40.5 -102q0 -96 -58.5 -170.5t-154.5 -126t-209 -78.5t-221 -27
l-23 145q109 0 213 12t187 34.5t132 53.5t49 70q0 43 -45.5 75.5t-112.5 32.5q-25 0 -76.5 -25.5t-116.5 -68t-130.5 -94t-116.5 -103.5l-57 4q30 32 82 82.5t117.5 106.5t135 105.5t135.5 81t118 31.5zM161 231q2 177 -4.5 353t-19.5 353q19 -13 38.5 -25.5t38.5 -24.5
q15 -303 0 -606q-13 -13 -26.5 -25.5t-26.5 -24.5zM520 122q66 16 142.5 19.5t138.5 3.5q12 0 22.5 -18t10.5 -55q0 -39 -11.5 -55.5t-21.5 -16.5q-102 0 -169.5 5.5t-122 19.5t-118.5 41z" />
    <glyph glyph-name="uni0637.fina" unicode="&#x637;" horiz-adv-x="1086" arabic-form="final" 
d="M404 -11q-145 0 -250 55.5t-167 135.5l7 14q81 -29 185.5 -44.5t201.5 -15.5zM479 1164l13 -7q-74 -136 79 -183l-47 -118q-55 25 -100.5 58.5t-45.5 72.5q0 33 21.5 70.5t46 67.5t33.5 39zM894 532q71 0 111.5 -39.5t40.5 -102.5q0 -96 -59 -170.5t-154.5 -126
t-208.5 -78t-222 -26.5l-23 145q110 0 214 11.5t187 34t132 54t49 69.5q0 43 -46 75.5t-112 32.5q-25 0 -77 -25.5t-117 -67.5t-130 -93.5t-116 -104.5l-57 4q29 32 81.5 82.5t117.5 106.5t135 106t135.5 81.5t118.5 31.5zM448 231q2 177 -4.5 353t-19.5 353
q19 -13 38.5 -25.5t38.5 -24.5q15 -303 0 -606q-13 -13 -26.5 -25.5t-26.5 -24.5zM805 122q66 16 142.5 19.5t138.5 3.5q12 0 22.5 -18t10.5 -55q0 -39 -11.5 -55.5t-21.5 -16.5q-102 0 -169.5 5.5t-122 19.5t-118.5 41z" />
    <glyph glyph-name="uni0638.init" unicode="&#x638;" horiz-adv-x="799" arabic-form="initial" 
d="M0 0q-24 0 -33 19.5t-9 52.5q0 32 9.5 52.5t32.5 20.5h95l23 -145h-118zM187 1164l12 -7q-74 -136 80 -183l-47 -118q-56 25 -101 58.5t-45 72.5q0 33 21.5 70.5t46 67.5t33.5 39zM607 543q71 0 111.5 -39t40.5 -102q0 -96 -58.5 -170.5t-154.5 -126t-209 -78.5t-221 -27
l-23 145q109 0 213 12t187 34.5t132 53.5t49 70q0 43 -45.5 75.5t-112.5 32.5q-25 0 -76.5 -25.5t-116.5 -68t-130.5 -94t-116.5 -103.5l-57 4q30 32 82 82.5t117.5 106.5t135 105.5t135.5 81t118 31.5zM161 231q2 177 -4.5 353t-19.5 353q19 -13 38.5 -25.5t38.5 -24.5
q15 -303 0 -606q-13 -13 -26.5 -25.5t-26.5 -24.5zM537 900q57 -41 96 -96l-96 -95q-36 53 -95 95z" />
    <glyph glyph-name="uni0638.medi" unicode="&#x638;" horiz-adv-x="801" arabic-form="medial" 
d="M0 0q-24 0 -33 19.5t-9 52.5q0 32 9.5 52.5t32.5 20.5h95l23 -145h-118zM187 1164l12 -7q-74 -136 80 -183l-47 -118q-56 25 -101 58.5t-45 72.5q0 33 21.5 70.5t46 67.5t33.5 39zM607 543q71 0 111.5 -39t40.5 -102q0 -96 -58.5 -170.5t-154.5 -126t-209 -78.5t-221 -27
l-23 145q109 0 213 12t187 34.5t132 53.5t49 70q0 43 -45.5 75.5t-112.5 32.5q-25 0 -76.5 -25.5t-116.5 -68t-130.5 -94t-116.5 -103.5l-57 4q30 32 82 82.5t117.5 106.5t135 105.5t135.5 81t118 31.5zM161 231q2 177 -4.5 353t-19.5 353q19 -13 38.5 -25.5t38.5 -24.5
q15 -303 0 -606q-13 -13 -26.5 -25.5t-26.5 -24.5zM520 122q66 16 142.5 19.5t138.5 3.5q12 0 22.5 -18t10.5 -55q0 -39 -11.5 -55.5t-21.5 -16.5q-102 0 -169.5 5.5t-122 19.5t-118.5 41zM538 900q57 -41 96 -96l-96 -95q-36 53 -95 95z" />
    <glyph glyph-name="uni0638.fina" unicode="&#x638;" horiz-adv-x="1086" arabic-form="final" 
d="M404 -11q-145 0 -250 55.5t-167 135.5l7 14q81 -29 185.5 -44.5t201.5 -15.5zM479 1164l13 -7q-74 -136 79 -183l-47 -118q-55 25 -100.5 58.5t-45.5 72.5q0 33 21.5 70.5t46 67.5t33.5 39zM894 532q71 0 111.5 -39.5t40.5 -102.5q0 -96 -59 -170.5t-154.5 -126
t-208.5 -78t-222 -26.5l-23 145q110 0 214 11.5t187 34t132 54t49 69.5q0 43 -46 75.5t-112 32.5q-25 0 -77 -25.5t-117 -67.5t-130 -93.5t-116 -104.5l-57 4q29 32 81.5 82.5t117.5 106.5t135 106t135.5 81.5t118.5 31.5zM448 231q2 177 -4.5 353t-19.5 353
q19 -13 38.5 -25.5t38.5 -24.5q15 -303 0 -606q-13 -13 -26.5 -25.5t-26.5 -24.5zM805 122q66 16 142.5 19.5t138.5 3.5q12 0 22.5 -18t10.5 -55q0 -39 -11.5 -55.5t-21.5 -16.5q-102 0 -169.5 5.5t-122 19.5t-118.5 41zM829 895q57 -41 96 -96l-96 -95q-36 53 -95 95z" />
    <glyph glyph-name="uni0639.init" unicode="&#x639;" horiz-adv-x="750" arabic-form="initial" 
d="M0 0q-46 0 -46 73q0 72 46 72q82 0 154.5 5t151.5 18.5t176 38t228 64.5l-39 -107q-79 -41 -187.5 -79t-232.5 -61.5t-251 -23.5zM283 111q-31 19 -55 57t-38 78t-14 63q0 46 15.5 100.5t44.5 103.5t71 80.5t96 31.5q68 0 128.5 -42t89.5 -101l-11 -10q-42 19 -79 28
t-85 9q-45 0 -91 -22t-77.5 -50.5t-31.5 -49.5q0 -32 34.5 -81.5t87 -87.5t107.5 -38z" />
    <glyph glyph-name="uni0639.medi" unicode="&#x639;" horiz-adv-x="709" arabic-form="medial" 
d="M163 309q0 72 33 115.5t83 63t101 19.5q67 0 120 -30t53 -91q0 -44 -40 -108.5t-113.5 -128t-175 -106.5t-224.5 -43q-43 0 -43 74q0 71 43 71q137 0 241 26t148 82h83q35 -49 95 -78.5t142 -29.5q19 0 32 -18t13 -53q0 -36 -13 -55t-32 -19q-101 0 -165.5 31t-108 77.5
t-80.5 92.5t-81 77t-111 31z" />
    <glyph glyph-name="uni0639.fina" unicode="&#x639;" horiz-adv-x="760" arabic-form="final" 
d="M563 -700q-200 1 -314 54t-161.5 149.5t-47.5 225.5q0 109 35.5 208.5t94 181.5t126.5 137l4 -15q-55 49 -150 48q3 103 68.5 154t152.5 51q60 0 115.5 -25.5t55.5 -82.5q0 -52 -32 -87.5t-82 -66.5t-106.5 -67.5t-106.5 -89.5t-81.5 -133t-31.5 -199q0 -99 37 -157.5
t103.5 -87t153.5 -37t186 -8.5h215v-24zM760 0q-103 0 -179.5 22.5t-140 73.5t-126.5 136l91 34q52 -53 134.5 -87t220.5 -34q43 0 43 -68q0 -33 -10.5 -55t-32.5 -22z" />
    <glyph glyph-name="uni063A.init" unicode="&#x63a;" horiz-adv-x="750" arabic-form="initial" 
d="M0 0q-46 0 -46 73q0 72 46 72q82 0 154.5 5t151.5 18.5t176 38t228 64.5l-39 -107q-79 -41 -187.5 -79t-232.5 -61.5t-251 -23.5zM283 111q-31 19 -55 57t-38 78t-14 63q0 46 15.5 100.5t44.5 103.5t71 80.5t96 31.5q68 0 128.5 -42t89.5 -101l-11 -10q-42 19 -79 28
t-85 9q-45 0 -91 -22t-77.5 -50.5t-31.5 -49.5q0 -32 34.5 -81.5t87 -87.5t107.5 -38zM403 952q57 -41 96 -96l-96 -95q-36 53 -95 95z" />
    <glyph glyph-name="uni063A.medi" unicode="&#x63a;" horiz-adv-x="709" arabic-form="medial" 
d="M163 309q0 72 33 115.5t83 63t101 19.5q67 0 120 -30t53 -91q0 -44 -40 -108.5t-113.5 -128t-175 -106.5t-224.5 -43q-43 0 -43 74q0 71 43 71q137 0 241 26t148 82h83q35 -49 95 -78.5t142 -29.5q19 0 32 -18t13 -53q0 -36 -13 -55t-32 -19q-101 0 -165.5 31t-108 77.5
t-80.5 92.5t-81 77t-111 31zM397 831q57 -41 96 -96l-96 -95q-36 53 -95 95z" />
    <glyph glyph-name="uni063A.fina" unicode="&#x63a;" horiz-adv-x="760" arabic-form="final" 
d="M563 -700q-200 1 -314 54t-161.5 149.5t-47.5 225.5q0 109 35.5 208.5t94 181.5t126.5 137l4 -15q-55 49 -150 48q3 103 68.5 154t152.5 51q60 0 115.5 -25.5t55.5 -82.5q0 -52 -32 -87.5t-82 -66.5t-106.5 -67.5t-106.5 -89.5t-81.5 -133t-31.5 -199q0 -99 37 -157.5
t103.5 -87t153.5 -37t186 -8.5h215v-24zM760 0q-103 0 -179.5 22.5t-140 73.5t-126.5 136l91 34q52 -53 134.5 -87t220.5 -34q43 0 43 -68q0 -33 -10.5 -55t-32.5 -22zM360 820q57 -41 96 -96l-96 -95q-36 53 -95 95z" />
    <glyph glyph-name="uni063B.init" unicode="&#x63b;" horiz-adv-x="633" 
d="M689 1075l-34 -129q-70 -28 -155.5 -67t-164 -80t-129.5 -75t-51 -54q0 -17 30.5 -36.5t76 -46.5t91 -65.5t76 -93t30.5 -129.5q-1 -70 -36.5 -139t-115.5 -114.5t-214 -45.5h-93q-39 0 -39 73q0 72 39 72h168q81 0 135 19.5t81 45.5t28 43q0 58 -36 103.5t-89.5 82
t-107.5 66t-90 56t-36 52.5q0 14 5.5 54.5t20.5 56.5q32 36 105 84.5t164.5 99t182 95t158.5 72.5zM20 1111q57 -41 96 -96l-96 -95q-36 53 -95 95zM206 1111q57 -41 96 -96l-96 -95q-36 53 -95 95z" />
    <glyph glyph-name="uni063B.medi" unicode="&#x63b;" horiz-adv-x="951" 
d="M689 1075l-34 -129q-70 -28 -155.5 -67t-164 -80t-129.5 -75t-51 -54q0 -17 30.5 -36.5t76 -46.5t91 -65.5t76 -93t30.5 -129.5q-1 -70 -36.5 -139t-115.5 -114.5t-214 -45.5h-93q-39 0 -39 73q0 72 39 72h168q81 0 135 19.5t81 45.5t28 43q0 58 -36 103.5t-89.5 82
t-107.5 66t-90 56t-36 52.5q0 14 5.5 54.5t20.5 56.5q32 36 105 84.5t164.5 99t182 95t158.5 72.5zM224 610q133 -69 224 -136.5t156 -126.5t117.5 -104.5t106 -71.5t124.5 -26q18 0 31.5 -17.5t13.5 -55.5q0 -40 -14.5 -56t-30.5 -16q-93 0 -161.5 39t-127.5 99t-123.5 126
t-149.5 120zM20 1111q57 -41 96 -96l-96 -95q-36 53 -95 95zM206 1111q57 -41 96 -96l-96 -95q-36 53 -95 95z" />
    <glyph glyph-name="uni063B.fina" unicode="&#x63b;" horiz-adv-x="1544" 
d="M600 0h-311q-124 0 -186.5 59.5t-62.5 146.5q0 59 30.5 124.5t92.5 127.5l13 -8q-51 -85 -51 -157q0 -67 49 -107.5t150 -40.5h276q18 0 26 -22t8 -46q0 -26 -7 -51.5t-27 -25.5zM1284 1075l-34 -129q-70 -28 -155.5 -67t-164 -80t-129.5 -75t-51 -54q0 -17 30.5 -36.5
t76 -46.5t91 -65.5t76 -93t30.5 -129.5q-1 -70 -36.5 -139t-115.5 -114.5t-214 -45.5h-93q-39 0 -39 73q0 72 39 72h168q81 0 135 19.5t81 45.5t28 43q0 58 -36 103.5t-89.5 82t-107.5 66t-90 56t-36 52.5q0 14 5.5 54.5t20.5 56.5q32 36 105 84.5t164.5 99t182 95
t158.5 72.5zM817 610q133 -69 224 -136.5t156 -126.5t117.5 -104.5t106 -71.5t124.5 -26q18 0 31.5 -17.5t13.5 -55.5q0 -40 -14.5 -56t-30.5 -16q-93 0 -161.5 39t-127.5 99t-123.5 126t-149.5 120zM615 1111q57 -41 96 -96l-96 -95q-36 53 -95 95zM801 1111q57 -41 96 -96
l-96 -95q-36 53 -95 95z" />
    <glyph glyph-name="uni063C.init" unicode="&#x63c;" horiz-adv-x="633" 
d="M689 1075l-34 -129q-70 -28 -155.5 -67t-164 -80t-129.5 -75t-51 -54q0 -17 30.5 -36.5t76 -46.5t91 -65.5t76 -93t30.5 -129.5q-1 -70 -36.5 -139t-115.5 -114.5t-214 -45.5h-93q-39 0 -39 73q0 72 39 72h168q81 0 135 19.5t81 45.5t28 43q0 58 -36 103.5t-89.5 82
t-107.5 66t-90 56t-36 52.5q0 14 5.5 54.5t20.5 56.5q32 36 105 84.5t164.5 99t182 95t158.5 72.5zM137 -338q57 -41 96 -96l-96 -95q-36 53 -95 95zM44 -143q57 -41 96 -96l-96 -95q-36 53 -95 95zM230 -143q57 -41 96 -96l-96 -95q-36 53 -95 95z" />
    <glyph glyph-name="uni063C.medi" unicode="&#x63c;" horiz-adv-x="951" 
d="M689 1075l-34 -129q-70 -28 -155.5 -67t-164 -80t-129.5 -75t-51 -54q0 -17 30.5 -36.5t76 -46.5t91 -65.5t76 -93t30.5 -129.5q-1 -70 -36.5 -139t-115.5 -114.5t-214 -45.5h-93q-39 0 -39 73q0 72 39 72h168q81 0 135 19.5t81 45.5t28 43q0 58 -36 103.5t-89.5 82
t-107.5 66t-90 56t-36 52.5q0 14 5.5 54.5t20.5 56.5q32 36 105 84.5t164.5 99t182 95t158.5 72.5zM224 610q133 -69 224 -136.5t156 -126.5t117.5 -104.5t106 -71.5t124.5 -26q18 0 31.5 -17.5t13.5 -55.5q0 -40 -14.5 -56t-30.5 -16q-93 0 -161.5 39t-127.5 99t-123.5 126
t-149.5 120zM146 -332q57 -41 96 -96l-96 -95q-36 53 -95 95zM53 -137q57 -41 96 -96l-96 -95q-36 53 -95 95zM239 -137q57 -41 96 -96l-96 -95q-36 53 -95 95z" />
    <glyph glyph-name="uni063C.fina" unicode="&#x63c;" horiz-adv-x="1544" 
d="M600 0h-311q-124 0 -186.5 59.5t-62.5 146.5q0 59 30.5 124.5t92.5 127.5l13 -8q-51 -85 -51 -157q0 -67 49 -107.5t150 -40.5h276q18 0 26 -22t8 -46q0 -26 -7 -51.5t-27 -25.5zM1284 1075l-34 -129q-70 -28 -155.5 -67t-164 -80t-129.5 -75t-51 -54q0 -17 30.5 -36.5
t76 -46.5t91 -65.5t76 -93t30.5 -129.5q-1 -70 -36.5 -139t-115.5 -114.5t-214 -45.5h-93q-39 0 -39 73q0 72 39 72h168q81 0 135 19.5t81 45.5t28 43q0 58 -36 103.5t-89.5 82t-107.5 66t-90 56t-36 52.5q0 14 5.5 54.5t20.5 56.5q32 36 105 84.5t164.5 99t182 95
t158.5 72.5zM817 610q133 -69 224 -136.5t156 -126.5t117.5 -104.5t106 -71.5t124.5 -26q18 0 31.5 -17.5t13.5 -55.5q0 -40 -14.5 -56t-30.5 -16q-93 0 -161.5 39t-127.5 99t-123.5 126t-149.5 120zM818 -338q57 -41 96 -96l-96 -95q-36 53 -95 95zM725 -143q57 -41 96 -96
l-96 -95q-36 53 -95 95zM911 -143q57 -41 96 -96l-96 -95q-36 53 -95 95z" />
    <glyph glyph-name="uni063D.init" unicode="&#x63d;" horiz-adv-x="353" 
d="M0 145h63q86 0 138.5 16.5t52.5 35.5q0 36 -12.5 62.5t-39.5 53.5l49 125q62 -85 62 -182q0 -114 -73.5 -185t-198.5 -71h-41q-17 0 -30.5 20t-13.5 56q0 35 13.5 52t30.5 17zM369 597l-51 -39q-25 32 -53 66.5t-49.5 58.5t-27.5 24q-5 0 -28.5 -23t-54 -57t-56.5 -66
l-29 23q37 47 78 92.5t71.5 75.5t37.5 30q6 0 34.5 -30.5t64 -74t63.5 -80.5zM106 -154q57 -41 96 -96l-96 -95q-36 53 -95 95zM292 -154q57 -41 96 -96l-96 -95q-36 53 -95 95z" />
    <glyph glyph-name="uni063D.medi" unicode="&#x63d;" horiz-adv-x="440" 
d="M0 0q-24 0 -32.5 19.5t-8.5 52.5q0 32 8.5 52.5t32.5 20.5h5q80 0 123.5 16t66.5 53.5t43 103.5l15 -3q-3 -16 -3 -34q0 -71 54.5 -103.5t132.5 -32.5h5q25 0 35.5 -20.5t10.5 -52.5q0 -33 -10 -52.5t-36 -19.5h-22q-69 0 -111.5 23t-65 56.5t-32.5 65.5l12 -5
q-23 -48 -76 -94t-127 -46h-20zM375 493l-51 -39q-25 32 -53 66.5t-49.5 58.5t-27.5 24q-5 0 -28.5 -23t-54 -57t-56.5 -66l-29 23q37 47 78 92.5t71.5 75.5t37.5 30q6 0 34.5 -30.5t64 -74t63.5 -80.5zM110 -154q57 -41 96 -96l-96 -95q-36 53 -95 95zM296 -154
q57 -41 96 -96l-96 -95q-36 53 -95 95z" />
    <glyph glyph-name="uni063D.fina" unicode="&#x63d;" horiz-adv-x="1048" 
d="M1048 145q39 0 39 -72q0 -73 -39 -73h-233q-89 0 -115 -12t-26 -23q0 -22 30.5 -32.5t76 -16.5t91 -14.5t76 -27t30.5 -54.5q0 -71 -60 -121.5t-152.5 -82t-192.5 -46t-179 -14.5q-169 0 -252.5 47.5t-97 129t31 185.5t134.5 217l14 -5q-87 -164 -96 -257.5t70.5 -132.5
t258.5 -39q35 0 93 2.5t123 8.5t122.5 15t94 21t36.5 27q0 19 -30.5 26.5t-75 12t-89 13t-74.5 29t-29 60.5q1 56 37.5 108.5t110.5 86.5t187 34h85zM731 348l-51 -39q-25 32 -53 66.5t-49.5 58.5t-27.5 24q-5 0 -28.5 -23t-54 -57t-56.5 -66l-29 23q37 47 78 92.5
t71.5 75.5t37.5 30q6 0 34.5 -30.5t64 -74t63.5 -80.5z" />
    <glyph glyph-name="uni063E.init" unicode="&#x63e;" horiz-adv-x="353" 
d="M0 145h63q86 0 138.5 16.5t52.5 35.5q0 36 -12.5 62.5t-39.5 53.5l49 125q62 -85 62 -182q0 -114 -73.5 -185t-198.5 -71h-41q-17 0 -30.5 20t-13.5 56q0 35 13.5 52t30.5 17zM113 761q57 -41 96 -96l-96 -95q-36 53 -95 95zM299 761q57 -41 96 -96l-96 -95
q-36 53 -95 95zM106 -154q57 -41 96 -96l-96 -95q-36 53 -95 95zM292 -154q57 -41 96 -96l-96 -95q-36 53 -95 95z" />
    <glyph glyph-name="uni063E.medi" unicode="&#x63e;" horiz-adv-x="440" 
d="M0 0q-24 0 -32.5 19.5t-8.5 52.5q0 32 8.5 52.5t32.5 20.5h5q80 0 123.5 16t66.5 53.5t43 103.5l15 -3q-3 -16 -3 -34q0 -71 54.5 -103.5t132.5 -32.5h5q25 0 35.5 -20.5t10.5 -52.5q0 -33 -10 -52.5t-36 -19.5h-22q-69 0 -111.5 23t-65 56.5t-32.5 65.5l12 -5
q-23 -48 -76 -94t-127 -46h-20zM119 652q57 -41 96 -96l-96 -95q-36 53 -95 95zM305 652q57 -41 96 -96l-96 -95q-36 53 -95 95zM110 -154q57 -41 96 -96l-96 -95q-36 53 -95 95zM296 -154q57 -41 96 -96l-96 -95q-36 53 -95 95z" />
    <glyph glyph-name="uni063E.fina" unicode="&#x63e;" horiz-adv-x="1048" 
d="M1048 145q39 0 39 -72q0 -73 -39 -73h-233q-89 0 -115 -12t-26 -23q0 -22 30.5 -32.5t76 -16.5t91 -14.5t76 -27t30.5 -54.5q0 -71 -60 -121.5t-152.5 -82t-192.5 -46t-179 -14.5q-169 0 -252.5 47.5t-97 129t31 185.5t134.5 217l14 -5q-87 -164 -96 -257.5t70.5 -132.5
t258.5 -39q35 0 93 2.5t123 8.5t122.5 15t94 21t36.5 27q0 19 -30.5 26.5t-75 12t-89 13t-74.5 29t-29 60.5q1 56 37.5 108.5t110.5 86.5t187 34h85zM482 512q57 -41 96 -96l-96 -95q-36 53 -95 95zM668 512q57 -41 96 -96l-96 -95q-36 53 -95 95z" />
    <glyph glyph-name="uni063F.init" unicode="&#x63f;" horiz-adv-x="353" 
d="M0 145h63q86 0 138.5 16.5t52.5 35.5q0 36 -12.5 62.5t-39.5 53.5l49 125q62 -85 62 -182q0 -114 -73.5 -185t-198.5 -71h-41q-17 0 -30.5 20t-13.5 56q0 35 13.5 52t30.5 17zM205 964q57 -41 96 -96l-96 -95q-36 53 -95 95zM113 769q57 -41 96 -96l-96 -95
q-36 53 -95 95zM299 769q57 -41 96 -96l-96 -95q-36 53 -95 95zM106 -154q57 -41 96 -96l-96 -95q-36 53 -95 95zM292 -154q57 -41 96 -96l-96 -95q-36 53 -95 95z" />
    <glyph glyph-name="uni063F.medi" unicode="&#x63f;" horiz-adv-x="440" 
d="M0 0q-24 0 -32.5 19.5t-8.5 52.5q0 32 8.5 52.5t32.5 20.5h5q80 0 123.5 16t66.5 53.5t43 103.5l15 -3q-3 -16 -3 -34q0 -71 54.5 -103.5t132.5 -32.5h5q25 0 35.5 -20.5t10.5 -52.5q0 -33 -10 -52.5t-36 -19.5h-22q-69 0 -111.5 23t-65 56.5t-32.5 65.5l12 -5
q-23 -48 -76 -94t-127 -46h-20zM211 855q57 -41 96 -96l-96 -95q-36 53 -95 95zM119 660q57 -41 96 -96l-96 -95q-36 53 -95 95zM305 660q57 -41 96 -96l-96 -95q-36 53 -95 95zM110 -154q57 -41 96 -96l-96 -95q-36 53 -95 95zM296 -154q57 -41 96 -96l-96 -95
q-36 53 -95 95z" />
    <glyph glyph-name="uni063F.fina" unicode="&#x63f;" horiz-adv-x="1048" 
d="M1048 145q39 0 39 -72q0 -73 -39 -73h-233q-89 0 -115 -12t-26 -23q0 -22 30.5 -32.5t76 -16.5t91 -14.5t76 -27t30.5 -54.5q0 -71 -60 -121.5t-152.5 -82t-192.5 -46t-179 -14.5q-169 0 -252.5 47.5t-97 129t31 185.5t134.5 217l14 -5q-87 -164 -96 -257.5t70.5 -132.5
t258.5 -39q35 0 93 2.5t123 8.5t122.5 15t94 21t36.5 27q0 19 -30.5 26.5t-75 12t-89 13t-74.5 29t-29 60.5q1 56 37.5 108.5t110.5 86.5t187 34h85zM574 715q57 -41 96 -96l-96 -95q-36 53 -95 95zM482 520q57 -41 96 -96l-96 -95q-36 53 -95 95zM668 520q57 -41 96 -96
l-96 -95q-36 53 -95 95z" />
    <glyph glyph-name="uni0641.init" unicode="&#x641;" horiz-adv-x="503" arabic-form="initial" 
d="M0 0q-27 0 -37 23.5t-10 47.5t10 49t37 25q94 0 182 6.5t148.5 23.5t72.5 48q5 44 -10 100.5t-41.5 110t-56 88.5t-54.5 35q-22 0 -49 -32t-27 -55q0 -15 14.5 -31t49.5 -16q34 0 67 23t42 59l40 -73q-15 -52 -62.5 -92t-96.5 -40q-60 0 -84.5 34t-24.5 99q0 30 13.5 73
t36 84.5t50 69t55.5 27.5q38 0 72.5 -36.5t61 -96t41.5 -129t15 -135.5q0 -58 -17 -112.5t-44 -85.5q-18 -20 -76.5 -41.5t-142 -36t-175.5 -14.5zM264 1011q57 -41 96 -96l-96 -95q-36 53 -95 95z" />
    <glyph glyph-name="uni0641.medi" unicode="&#x641;" horiz-adv-x="513" arabic-form="medial" 
d="M296 599q37 0 59.5 -30t33 -71.5t10.5 -75.5q0 -126 -51.5 -221t-141.5 -148t-206 -53q-47 0 -47 72q0 32 11 52.5t36 20.5q99 0 178.5 32t125.5 79t46 91q0 16 -10 41.5t-29.5 46.5t-48.5 21q-28 0 -52 -24t-38.5 -53t-14.5 -45q0 -38 45 -82t125 -75.5t186 -31.5
q29 0 41.5 -20.5t12.5 -52.5q0 -72 -54 -72q-115 0 -206 36.5t-143.5 98.5t-52.5 138q0 40 12.5 95t36.5 107.5t58.5 88t77.5 35.5zM282 925q57 -41 96 -96l-96 -95q-36 53 -95 95z" />
    <glyph glyph-name="uni0641.fina" unicode="&#x641;" horiz-adv-x="1298" arabic-form="final" 
d="M454 -30q-69 0 -141.5 12t-134.5 39t-100 73t-38 114q0 64 30.5 132t91.5 128l13 -8q-21 -38 -31 -76t-10 -70q0 -79 54.5 -122.5t143 -60t190.5 -16.5q113 0 222 20.5t197.5 54t141 74.5t52.5 83q0 16 -11 41.5t-31 46.5t-46 21q-28 0 -52 -24t-38.5 -53t-14.5 -45
q0 -38 45 -82t125 -75.5t186 -31.5q29 0 41.5 -20.5t12.5 -52.5q0 -72 -54 -72q-115 0 -206 36.5t-143.5 98.5t-52.5 138q0 40 12.5 95t36.5 107.5t58.5 88t77.5 35.5q37 0 59.5 -30.5t33 -71.5t10.5 -75q0 -149 -94.5 -249.5t-259 -151.5t-376.5 -51zM1068 912
q57 -41 96 -96l-96 -95q-36 53 -95 95z" />
    <glyph glyph-name="uni0642.init" unicode="&#x642;" horiz-adv-x="503" arabic-form="initial" 
d="M0 0q-27 0 -37 23.5t-10 47.5t10 49t37 25q94 0 182 6.5t148.5 23.5t72.5 48q5 44 -10 100.5t-41.5 110t-56 88.5t-54.5 35q-22 0 -49 -32t-27 -55q0 -15 14.5 -31t49.5 -16q34 0 67 23t42 59l40 -73q-15 -52 -62.5 -92t-96.5 -40q-60 0 -84.5 34t-24.5 99q0 30 13.5 73
t36 84.5t50 69t55.5 27.5q38 0 72.5 -36.5t61 -96t41.5 -129t15 -135.5q0 -58 -17 -112.5t-44 -85.5q-18 -20 -76.5 -41.5t-142 -36t-175.5 -14.5zM171 1011q57 -41 96 -96l-96 -95q-36 53 -95 95zM357 1011q57 -41 96 -96l-96 -95q-36 53 -95 95z" />
    <glyph glyph-name="uni0642.medi" unicode="&#x642;" horiz-adv-x="513" arabic-form="medial" 
d="M296 599q37 0 59.5 -30t33 -71.5t10.5 -75.5q0 -126 -51.5 -221t-141.5 -148t-206 -53q-47 0 -47 72q0 32 11 52.5t36 20.5q99 0 178.5 32t125.5 79t46 91q0 16 -10 41.5t-29.5 46.5t-48.5 21q-28 0 -52 -24t-38.5 -53t-14.5 -45q0 -38 45 -82t125 -75.5t186 -31.5
q29 0 41.5 -20.5t12.5 -52.5q0 -72 -54 -72q-115 0 -206 36.5t-143.5 98.5t-52.5 138q0 40 12.5 95t36.5 107.5t58.5 88t77.5 35.5zM189 925q57 -41 96 -96l-96 -95q-36 53 -95 95zM375 925q57 -41 96 -96l-96 -95q-36 53 -95 95z" />
    <glyph glyph-name="uni0642.fina" unicode="&#x642;" horiz-adv-x="909" arabic-form="final" 
d="M352 -305q-153 0 -232.5 84t-79.5 208q0 64 20.5 132.5t64.5 137.5l14 -6q-40 -102 -40 -182q0 -105 70 -167t207 -62q61 0 129 14.5t127.5 44.5t97 76t37.5 109q0 78 -32.5 132t-58.5 54q-20 0 -38 -33.5t-18 -53.5q0 -9 19.5 -23.5t68.5 -14.5h201q45 0 45 -72
q0 -73 -45 -73h-197q-63 0 -103.5 44t-40.5 101q0 26 5.5 70.5t19.5 90.5t37.5 77.5t59.5 31.5q46 0 73.5 -55.5t39.5 -134.5t12 -151q0 -110 -66 -195.5t-172 -134.5t-225 -49zM598 741q57 -41 96 -96l-96 -95q-36 53 -95 95zM784 741q57 -41 96 -96l-96 -95q-36 53 -95 95
z" />
    <glyph glyph-name="uni0643.init" unicode="&#x643;" horiz-adv-x="633" arabic-form="initial" 
d="M689 1075l-34 -129q-70 -28 -155.5 -67t-164 -80t-129.5 -75t-51 -54q0 -17 30.5 -36.5t76 -46.5t91 -65.5t76 -93t30.5 -129.5q-1 -70 -36.5 -139t-115.5 -114.5t-214 -45.5h-93q-39 0 -39 73q0 72 39 72h168q81 0 135 19.5t81 45.5t28 43q0 58 -36 103.5t-89.5 82
t-107.5 66t-90 56t-36 52.5q0 14 5.5 54.5t20.5 56.5q32 36 105 84.5t164.5 99t182 95t158.5 72.5z" />
    <glyph glyph-name="uni0643.medi" unicode="&#x643;" horiz-adv-x="951" arabic-form="medial" 
d="M689 1075l-34 -129q-70 -28 -155.5 -67t-164 -80t-129.5 -75t-51 -54q0 -17 30.5 -36.5t76 -46.5t91 -65.5t76 -93t30.5 -129.5q-1 -70 -36.5 -139t-115.5 -114.5t-214 -45.5h-93q-39 0 -39 73q0 72 39 72h168q81 0 135 19.5t81 45.5t28 43q0 58 -36 103.5t-89.5 82
t-107.5 66t-90 56t-36 52.5q0 14 5.5 54.5t20.5 56.5q32 36 105 84.5t164.5 99t182 95t158.5 72.5zM224 610q133 -69 224 -136.5t156 -126.5t117.5 -104.5t106 -71.5t124.5 -26q18 0 31.5 -17.5t13.5 -55.5q0 -40 -14.5 -56t-30.5 -16q-93 0 -161.5 39t-127.5 99t-123.5 126
t-149.5 120z" />
    <glyph glyph-name="uni0643.fina" unicode="&#x643;" horiz-adv-x="1179" arabic-form="final" 
d="M741 0q-49 0 -49 73q0 72 49 72q80 0 123 43.5t43 122.5q0 21 -2 78.5t-11 171.5t-28 305l75 87q5 -111 8 -196t8.5 -169.5t16.5 -195.5q22 -247 205 -247q50 0 50 -72q0 -73 -50 -73q-84 0 -140 64t-80 146l5 2q-18 -102 -79 -157t-144 -55zM683 561q0 -71 -69.5 -114.5
t-201.5 -43.5q-28 0 -64 17t-54 34q53 0 118.5 7t113 20t47.5 29q0 15 -25.5 21t-59.5 11t-59.5 15.5t-25.5 34.5q0 54 56.5 121t150.5 107l24 -83q-19 -5 -49.5 -18t-54.5 -30t-24 -34q0 -15 26.5 -20.5t61.5 -11.5t62 -19t27 -43zM600 0h-311q-124 0 -186.5 59.5
t-62.5 146.5q0 59 30.5 124.5t92.5 127.5l13 -8q-51 -85 -51 -157q0 -67 49 -107.5t150 -40.5h276q18 0 26 -22t8 -46q0 -26 -7 -51.5t-27 -25.5zM925 1098l13 -7q-74 -136 79 -183l-47 -118q-55 25 -100.5 58.5t-45.5 72.5q0 33 21.5 70.5t46 67.5t33.5 39zM738 0h-135
q-49 0 -49 73q0 72 49 72h135q50 0 50 -72q0 -73 -50 -73z" />
    <glyph glyph-name="uni0644.init" unicode="&#x644;" horiz-adv-x="343" arabic-form="initial" 
d="M180 922l85 -65q12 -233 15.5 -363.5t6.5 -207.5q0 -125 -71.5 -205.5t-215.5 -80.5q-41 0 -41 73q0 72 41 72q68 0 138.5 12t96.5 43l-15 -34q2 9 4 25.5t2 40.5q0 91 -10.5 273.5t-35.5 416.5zM241 1098l13 -7q-74 -136 79 -183l-47 -118q-55 25 -100.5 58.5
t-45.5 72.5q0 33 21.5 70.5t46 67.5t33.5 39z" />
    <glyph glyph-name="uni0644.medi" unicode="&#x644;" horiz-adv-x="438" arabic-form="medial" 
d="M197 1093l39 -701q21 -247 202 -247q50 0 50 -72q0 -73 -50 -73q-84 0 -140 64t-80 146l5 2q-18 -102 -79 -157t-144 -55q-49 0 -49 73q0 72 49 72q80 0 123.5 47.5t43.5 127.5q0 30 -10 207.5t-37 463.5z" />
    <glyph glyph-name="uni0644.fina" unicode="&#x644;" horiz-adv-x="870" arabic-form="final" 
d="M280 -378q-109 0 -174.5 74t-65.5 194q0 78 27.5 156t66.5 135l18 -5q-18 -45 -30.5 -94t-12.5 -100q0 -106 57 -162t147 -56q49 0 106 21t104 61.5t62 98.5l-9 -35q8 24 0.5 160t-27.5 369.5t-51 549.5l78 104l67 -1064q7 -113 -37 -205t-128.5 -147t-197.5 -55zM870 0
q-83 0 -149.5 48t-99.5 123l-10 373q10 -150 30 -237.5t72 -124.5t157 -37q30 0 40 -21.5t10 -50.5q0 -18 -10 -45.5t-40 -27.5z" />
    <glyph glyph-name="uni0645.init" unicode="&#x645;" horiz-adv-x="615" arabic-form="initial" 
d="M0 0q-47 0 -47 73q0 72 47 72q95 0 151 40.5t105 130.5q44 80 86 140t98 60q37 0 67.5 -44.5t49 -115t18.5 -149.5q0 -52 -26 -90t-49 -38q-53 0 -106.5 22.5t-90 52t-40.5 49.5l70 121q-6 -13 13 -30.5t49 -34t58.5 -27.5t42.5 -11q11 0 11 10q0 20 -9 56.5t-22.5 74.5
t-29 65t-29.5 27q-30 0 -51 -46t-44.5 -113.5t-60.5 -135t-99.5 -113.5t-161.5 -46z" />
    <glyph glyph-name="uni0645.medi" unicode="&#x645;" horiz-adv-x="694" arabic-form="medial" 
d="M328 389q31 0 53.5 -24.5t46 -61t56 -73t83 -61t127.5 -24.5q47 0 47 -72q0 -73 -47 -73q-165 0 -224 98l12 7q9 -59 -19 -101t-55 -42q-80 0 -139.5 42t-96.5 86l21 5q-57 -95 -193 -95q-39 0 -39 73q0 72 39 72q65 0 107.5 24.5t71 61t51 73t45 61t53.5 24.5zM243 197
q0 -18 30.5 -40.5t67 -39t54.5 -16.5q19 0 19 17q0 10 -8.5 42.5t-22 69.5t-29.5 64t-32 27q-15 0 -33.5 -27.5t-32 -57.5t-13.5 -39z" />
    <glyph glyph-name="uni0645.fina" unicode="&#x645;" horiz-adv-x="580" arabic-form="final" 
d="M92 -602q0 169 -26 301t-26 217q0 56 26 113t66.5 100t84.5 60.5t80 -5.5l-23 -23q2 45 23.5 89.5t55.5 48.5l15 -5q26 -85 72.5 -117t139.5 -32q20 0 35 -18.5t15 -53.5q0 -37 -15 -55t-35 -18q-52 0 -94.5 17t-75.5 67l9 8q2 -100 -11.5 -138.5t-32.5 -38.5
q-55 0 -92.5 48t-51.5 138l30 -32q-25 14 -62 -3.5t-66 -45t-29 -45.5q0 -61 8 -127.5t16.5 -152t8.5 -203.5z" />
    <glyph glyph-name="uni0646.init" unicode="&#x646;" horiz-adv-x="353" arabic-form="initial" 
d="M0 145h63q86 0 138.5 16.5t52.5 35.5q0 36 -12.5 62.5t-39.5 53.5l49 125q62 -85 62 -182q0 -114 -73.5 -185t-198.5 -71h-41q-17 0 -30.5 20t-13.5 56q0 35 13.5 52t30.5 17zM206 761q57 -41 96 -96l-96 -95q-36 53 -95 95z" />
    <glyph glyph-name="uni0646.medi" unicode="&#x646;" horiz-adv-x="440" arabic-form="medial" 
d="M0 0q-24 0 -32.5 19.5t-8.5 52.5q0 32 8.5 52.5t32.5 20.5h5q80 0 123.5 16t66.5 53.5t43 103.5l15 -3q-3 -16 -3 -34q0 -71 54.5 -103.5t132.5 -32.5h5q25 0 35.5 -20.5t10.5 -52.5q0 -33 -10 -52.5t-36 -19.5h-22q-69 0 -111.5 23t-65 56.5t-32.5 65.5l12 -5
q-23 -48 -76 -94t-127 -46h-20zM212 657q57 -41 96 -96l-96 -95q-36 53 -95 95z" />
    <glyph glyph-name="uni0646.fina" unicode="&#x646;" horiz-adv-x="890" arabic-form="final" 
d="M890 145q20 0 33.5 -18.5t13.5 -53.5q0 -36 -13.5 -54.5t-33.5 -18.5q-48 0 -102 25t-78 55v140q19 -43 76 -59t104 -16zM675 303q38 -77 61 -144.5t23 -136.5q0 -185 -114.5 -299.5t-315.5 -114.5q-138 0 -213.5 73t-75.5 196q0 80 29.5 160.5t72.5 133.5l18 -8
q-22 -55 -35 -107t-13 -100q0 -107 67 -155t190 -48q99 0 191.5 36.5t144.5 114.5l-5 -20q1 84 -23 156.5t-68 140.5zM385 463q57 -41 96 -96l-96 -95q-36 53 -95 95z" />
    <glyph glyph-name="uni0647.init" unicode="&#x647;" horiz-adv-x="577" arabic-form="initial" 
d="M184 647q125 -72 196 -131t105 -108t43 -90.5t9 -78.5q0 -81 -39.5 -126.5t-112.5 -45.5q-68 0 -143.5 24t-128 74t-52.5 127q0 55 27.5 118t70 108t89.5 45q30 0 51 -29.5t33.5 -70t18 -74.5t5.5 -43q0 -90 -46 -169t-126.5 -128t-183.5 -49q-41 0 -41 73q0 72 41 72
q70 0 128 24.5t100 58.5t65 66t23 47q0 14 -15 42t-37.5 51.5t-44.5 23.5q-20 0 -48 -25t-49 -55.5t-21 -45.5q0 -25 48 -55t121 -51t147 -21q35 0 57.5 11t22.5 30q0 23 -46 69t-130.5 100t-199.5 101z" />
    <glyph glyph-name="uni0647.medi" unicode="&#x647;" horiz-adv-x="698" arabic-form="medial" 
d="M698 145q25 0 39 -23t14 -50q0 -26 -14 -49t-39 -23h-57q-30 0 -95 6.5t-122 22.5q36 -33 52 -69t16 -45q0 -90 -32 -152.5t-89 -62.5q-65 0 -120 80t-73 215q-71 5 -178 5q-19 0 -30 23t-11 49t11 49.5t30 23.5q49 0 93.5 4t83.5 10q9 58 36.5 123.5t65.5 123.5
t81.5 94.5t86.5 36.5q29 0 49.5 -32.5t20.5 -101.5q0 -168 -129 -266q45 5 116.5 6.5t193.5 1.5zM403 392q-32 0 -68 -36.5t-66 -89t-46 -99.5q113 25 172 63t59 63q0 99 -51 99zM418 -155q13 24 4 47t-77 37q12 -22 13.5 -24t-52.5 4q21 -43 55.5 -56t56.5 -8z" />
    <glyph glyph-name="uni0647.fina" unicode="&#x647;" horiz-adv-x="642" arabic-form="final" 
d="M642 0q-92 0 -143.5 34t-79 110t-45.5 199.5t-43 303.5l62 81q21 -225 43 -352t68.5 -179t137.5 -52q19 0 32.5 -19t13.5 -53q0 -38 -15 -55.5t-31 -17.5zM154 49q-33 0 -73.5 11.5t-40.5 46.5q0 101 44 170.5t118.5 116.5t166.5 79l8 -77q-51 -10 -98 -39t-77.5 -63
t-30.5 -59q0 -32 66 -32q27 0 63.5 13t63.5 30.5t25 31.5l24 -72q-22 -75 -100 -116t-159 -41z" />
    <glyph glyph-name="uni0648.fina" unicode="&#x648;" horiz-adv-x="726" arabic-form="final" 
d="M257 -380q-52 0 -110.5 19t-110.5 46.5t-87 54.5l7 14q71 -24 156 -24q74 0 156.5 23t154 68t116.5 108.5t45 144.5q0 78 -32.5 132t-58.5 54q-20 0 -38 -28.5t-18 -48.5q0 -9 19.5 -23.5t68.5 -14.5h201q45 0 45 -72q0 -73 -45 -73h-197q-63 0 -103.5 44t-40.5 101
q0 26 5.5 69t19.5 87t37.5 74t59.5 30q46 0 73.5 -55.5t39.5 -134.5t12 -151q0 -114 -42 -197.5t-104 -138.5t-125 -81.5t-104 -26.5z" />
    <glyph glyph-name="uni0649.init" unicode="&#x649;" horiz-adv-x="353" 
d="M0 145h63q86 0 138.5 16.5t52.5 35.5q0 36 -12.5 62.5t-39.5 53.5l49 125q62 -85 62 -182q0 -114 -73.5 -185t-198.5 -71h-41q-17 0 -30.5 20t-13.5 56q0 35 13.5 52t30.5 17z" />
    <glyph glyph-name="uni0649.medi" unicode="&#x649;" horiz-adv-x="440" 
d="M0 0q-24 0 -32.5 19.5t-8.5 52.5q0 32 8.5 52.5t32.5 20.5h5q80 0 123.5 16t66.5 53.5t43 103.5l15 -3q-3 -16 -3 -34q0 -71 54.5 -103.5t132.5 -32.5h5q25 0 35.5 -20.5t10.5 -52.5q0 -33 -10 -52.5t-36 -19.5h-22q-69 0 -111.5 23t-65 56.5t-32.5 65.5l12 -5
q-23 -48 -76 -94t-127 -46h-20z" />
    <glyph glyph-name="uni0649.fina" unicode="&#x649;" horiz-adv-x="1048" arabic-form="final" 
d="M1048 145q39 0 39 -72q0 -73 -39 -73h-233q-89 0 -115 -12t-26 -23q0 -22 30.5 -32.5t76 -16.5t91 -14.5t76 -27t30.5 -54.5q0 -71 -60 -121.5t-152.5 -82t-192.5 -46t-179 -14.5q-169 0 -252.5 47.5t-97 129t31 185.5t134.5 217l14 -5q-87 -164 -96 -257.5t70.5 -132.5
t258.5 -39q35 0 93 2.5t123 8.5t122.5 15t94 21t36.5 27q0 19 -30.5 26.5t-75 12t-89 13t-74.5 29t-29 60.5q1 56 37.5 108.5t110.5 86.5t187 34h85z" />
    <glyph glyph-name="uni064A.init" unicode="&#x64a;" horiz-adv-x="353" arabic-form="initial" 
d="M0 145h63q86 0 138.5 16.5t52.5 35.5q0 36 -12.5 62.5t-39.5 53.5l49 125q62 -85 62 -182q0 -114 -73.5 -185t-198.5 -71h-41q-17 0 -30.5 20t-13.5 56q0 35 13.5 52t30.5 17zM106 -154q57 -41 96 -96l-96 -95q-36 53 -95 95zM292 -154q57 -41 96 -96l-96 -95
q-36 53 -95 95z" />
    <glyph glyph-name="uni064A.medi" unicode="&#x64a;" horiz-adv-x="440" arabic-form="medial" 
d="M0 0q-24 0 -32.5 19.5t-8.5 52.5q0 32 8.5 52.5t32.5 20.5h5q80 0 123.5 16t66.5 53.5t43 103.5l15 -3q-3 -16 -3 -34q0 -71 54.5 -103.5t132.5 -32.5h5q25 0 35.5 -20.5t10.5 -52.5q0 -33 -10 -52.5t-36 -19.5h-22q-69 0 -111.5 23t-65 56.5t-32.5 65.5l12 -5
q-23 -48 -76 -94t-127 -46h-20zM110 -154q57 -41 96 -96l-96 -95q-36 53 -95 95zM296 -154q57 -41 96 -96l-96 -95q-36 53 -95 95z" />
    <glyph glyph-name="uni064A.fina" unicode="&#x64a;" horiz-adv-x="1048" arabic-form="final" 
d="M1048 145q39 0 39 -72q0 -73 -39 -73h-233q-89 0 -115 -12t-26 -23q0 -22 30.5 -32.5t76 -16.5t91 -14.5t76 -27t30.5 -54.5q0 -71 -60 -121.5t-152.5 -82t-192.5 -46t-179 -14.5q-169 0 -252.5 47.5t-97 129t31 185.5t134.5 217l14 -5q-87 -164 -96 -257.5t70.5 -132.5
t258.5 -39q35 0 93 2.5t123 8.5t122.5 15t94 21t36.5 27q0 19 -30.5 26.5t-75 12t-89 13t-74.5 29t-29 60.5q1 56 37.5 108.5t110.5 86.5t187 34h85zM350 -568q57 -41 96 -96l-96 -95q-36 53 -95 95zM536 -568q57 -41 96 -96l-96 -95q-36 53 -95 95z" />
    <glyph glyph-name="uni066E.init" unicode="&#x66e;" horiz-adv-x="353" 
d="M0 145h63q86 0 138.5 16.5t52.5 35.5q0 36 -12.5 62.5t-39.5 53.5l49 125q62 -85 62 -182q0 -114 -73.5 -185t-198.5 -71h-41q-17 0 -30.5 20t-13.5 56q0 35 13.5 52t30.5 17z" />
    <glyph glyph-name="uni066E.medi" unicode="&#x66e;" horiz-adv-x="440" 
d="M0 0q-24 0 -32.5 19.5t-8.5 52.5q0 32 8.5 52.5t32.5 20.5h5q80 0 123.5 16t66.5 53.5t43 103.5l15 -3q-3 -16 -3 -34q0 -71 54.5 -103.5t132.5 -32.5h5q25 0 35.5 -20.5t10.5 -52.5q0 -33 -10 -52.5t-36 -19.5h-22q-69 0 -111.5 23t-65 56.5t-32.5 65.5l12 -5
q-23 -48 -76 -94t-127 -46h-20z" />
    <glyph glyph-name="uni066E.fina" unicode="&#x66e;" horiz-adv-x="1175" 
d="M1027 318l15 -3q0 -91 30 -130.5t103 -39.5q47 0 47 -72q0 -73 -47 -73q-172 0 -191 163l7 -5q-70 -87 -204 -130t-294 -43q-213 0 -333 68t-120 207q0 67 36.5 131t77.5 103l14 -7q-22 -38 -38.5 -82.5t-16.5 -83.5q0 -103 123.5 -147t320.5 -44q130 0 217 20.5
t146.5 62.5t106.5 105z" />
    <glyph glyph-name="uni066F.init" unicode="&#x66f;" horiz-adv-x="503" 
d="M0 0q-27 0 -37 23.5t-10 47.5t10 49t37 25q94 0 182 6.5t148.5 23.5t72.5 48q5 44 -10 100.5t-41.5 110t-56 88.5t-54.5 35q-22 0 -49 -32t-27 -55q0 -15 14.5 -31t49.5 -16q34 0 67 23t42 59l40 -73q-15 -52 -62.5 -92t-96.5 -40q-60 0 -84.5 34t-24.5 99q0 30 13.5 73
t36 84.5t50 69t55.5 27.5q38 0 72.5 -36.5t61 -96t41.5 -129t15 -135.5q0 -58 -17 -112.5t-44 -85.5q-18 -20 -76.5 -41.5t-142 -36t-175.5 -14.5z" />
    <glyph glyph-name="uni066F.medi" unicode="&#x66f;" horiz-adv-x="513" 
d="M296 599q37 0 59.5 -30t33 -71.5t10.5 -75.5q0 -126 -51.5 -221t-141.5 -148t-206 -53q-47 0 -47 72q0 32 11 52.5t36 20.5q99 0 178.5 32t125.5 79t46 91q0 16 -10 41.5t-29.5 46.5t-48.5 21q-28 0 -52 -24t-38.5 -53t-14.5 -45q0 -38 45 -82t125 -75.5t186 -31.5
q29 0 41.5 -20.5t12.5 -52.5q0 -72 -54 -72q-115 0 -206 36.5t-143.5 98.5t-52.5 138q0 40 12.5 95t36.5 107.5t58.5 88t77.5 35.5z" />
    <glyph glyph-name="uni066F.fina" unicode="&#x66f;" horiz-adv-x="909" 
d="M352 -305q-153 0 -232.5 84t-79.5 208q0 64 20.5 132.5t64.5 137.5l14 -6q-40 -102 -40 -182q0 -105 70 -167t207 -62q61 0 129 14.5t127.5 44.5t97 76t37.5 109q0 78 -32.5 132t-58.5 54q-20 0 -38 -33.5t-18 -53.5q0 -9 19.5 -23.5t68.5 -14.5h201q45 0 45 -72
q0 -73 -45 -73h-197q-63 0 -103.5 44t-40.5 101q0 26 5.5 70.5t19.5 90.5t37.5 77.5t59.5 31.5q46 0 73.5 -55.5t39.5 -134.5t12 -151q0 -110 -66 -195.5t-172 -134.5t-225 -49z" />
    <glyph glyph-name="uni0671.fina" unicode="&#x671;" horiz-adv-x="424" arabic-form="final" 
d="M424 0q-165 0 -228 97t-71 306l-25 581l83 109l16 -640q4 -163 53.5 -235.5t171.5 -72.5q54 0 54 -72q0 -73 -54 -73zM59 1323q51 99 114 140t109 24t46 -93q0 -59 -35 -81t-88.5 -23.5t-109 1t-98.5 -7t-55 -47.5l-16 6q10 55 47.5 74.5t86 21t95 -1t77.5 6.5t31 46
q0 20 -22.5 32t-60 -7.5t-82.5 -94.5z" />
    <glyph glyph-name="uni0672.fina" unicode="&#x672;" horiz-adv-x="424" 
d="M424 0q-165 0 -228 97t-71 306l-25 581l83 109l16 -640q4 -163 53.5 -235.5t171.5 -72.5q54 0 54 -72q0 -73 -54 -73zM109 1283q-21 11 -40.5 28.5t-19.5 37.5q0 84 33 123.5t82 39.5q50 0 85 -38l-12 -22q-15 6 -34 6q-35 0 -74.5 -18.5t-50.5 -52.5l3 20
q2 -24 24.5 -43t62.5 -19q19 0 43 6zM355 1368l-42 -68q-73 0 -114.5 -13t-67 -30.5t-49.5 -30.5t-64 -13q-36 0 -57 15.5t-51 15.5q-31 0 -86 -37l-17 19q37 36 65 48.5t51 12.5q29 0 49.5 -11.5t53.5 -11.5q22 0 44 15.5t55 36.5t88 36.5t142 15.5z" />
    <glyph glyph-name="uni0673.fina" unicode="&#x673;" horiz-adv-x="424" 
d="M424 0q-165 0 -228 97t-71 306l-25 581l83 109l16 -640q4 -163 53.5 -235.5t171.5 -72.5q54 0 54 -72q0 -73 -54 -73zM186 -354q-21 11 -40.5 28.5t-19.5 37.5q0 84 33 123.5t82 39.5q50 0 85 -38l-12 -22q-15 6 -34 6q-35 0 -74.5 -18.5t-50.5 -52.5l3 20
q2 -24 24.5 -43t62.5 -19q19 0 43 6zM432 -269l-42 -68q-73 0 -114.5 -13t-67 -30.5t-49.5 -30.5t-64 -13q-36 0 -57 15.5t-51 15.5q-31 0 -86 -37l-17 19q37 36 65 48.5t51 12.5q29 0 49.5 -11.5t53.5 -11.5q22 0 44 15.5t55 36.5t88 36.5t142 15.5z" />
    <glyph glyph-name="uni0675.fina" unicode="&#x675;" horiz-adv-x="364" 
d="M424 0q-165 0 -228 97t-71 306l-25 581l83 109l16 -640q4 -163 53.5 -235.5t171.5 -72.5q54 0 54 -72q0 -73 -54 -73zM262 802q-20 9 -37 25t-17 42q0 102 38 151t83 49q27 0 55.5 -10.5t43.5 -33.5l-13 -25q-20 10 -46 10q-42 0 -84.5 -23t-54.5 -62l4 23
q2 -27 24 -51.5t72 -24.5q19 0 42 5zM496 890l-45 -74q-57 0 -122.5 -15t-142.5 -85l-33 25q68 69 143.5 109t199.5 40z" />
    <glyph glyph-name="uni0676.fina" unicode="&#x676;" horiz-adv-x="726" 
d="M257 -380q-52 0 -110.5 19t-110.5 46.5t-87 54.5l7 14q71 -24 156 -24q74 0 156.5 23t154 68t116.5 108.5t45 144.5q0 78 -32.5 132t-58.5 54q-20 0 -38 -28.5t-18 -48.5q0 -9 19.5 -23.5t68.5 -14.5h201q45 0 45 -72q0 -73 -45 -73h-197q-63 0 -103.5 44t-40.5 101
q0 26 5.5 69t19.5 87t37.5 74t59.5 30q46 0 73.5 -55.5t39.5 -134.5t12 -151q0 -114 -42 -197.5t-104 -138.5t-125 -81.5t-104 -26.5zM621 782q-20 9 -37 25t-17 42q0 102 38 151t83 49q27 0 55.5 -10.5t43.5 -33.5l-13 -25q-20 10 -46 10q-42 0 -84.5 -23t-54.5 -62l4 23
q2 -27 24 -51.5t72 -24.5q19 0 42 5zM855 870l-45 -74q-57 0 -122.5 -15t-142.5 -85l-33 25q68 69 143.5 109t199.5 40z" />
    <glyph glyph-name="uni0677.fina" unicode="&#x677;" horiz-adv-x="726" 
d="M257 -380q-52 0 -110.5 19t-110.5 46.5t-87 54.5l7 14q71 -24 156 -24q74 0 156.5 23t154 68t116.5 108.5t45 144.5q0 78 -32.5 132t-58.5 54q-20 0 -38 -28.5t-18 -48.5q0 -9 19.5 -23.5t68.5 -14.5h201q45 0 45 -72q0 -73 -45 -73h-197q-63 0 -103.5 44t-40.5 101
q0 26 5.5 69t19.5 87t37.5 74t59.5 30q46 0 73.5 -55.5t39.5 -134.5t12 -151q0 -114 -42 -197.5t-104 -138.5t-125 -81.5t-104 -26.5zM610 802q-20 9 -37 25t-17 42q0 102 38 151t83 49q27 0 55.5 -10.5t43.5 -33.5l-13 -25q-20 10 -46 10q-42 0 -84.5 -23t-54.5 -62l4 23
q2 -27 24 -51.5t72 -24.5q19 0 42 5zM844 890l-45 -74q-57 0 -122.5 -15t-142.5 -85l-33 25q68 69 143.5 109t199.5 40zM316 693l-18 33q45 29 74.5 77t27.5 119l8 -9q-4 -3 -13.5 -4.5t-17.5 -1.5q-31 0 -50.5 20.5t-19.5 49.5q0 31 24 52t55 21q43 0 61 -29.5t18 -69.5
q0 -81 -44 -154t-105 -104z" />
    <glyph glyph-name="uni0678.init" unicode="&#x678;" horiz-adv-x="571" 
d="M0 145h63q86 0 138.5 16.5t52.5 35.5q0 36 -12.5 62.5t-39.5 53.5l49 125q62 -85 62 -182q0 -114 -73.5 -185t-198.5 -71h-41q-17 0 -30.5 20t-13.5 56q0 35 13.5 52t30.5 17zM337 802q-20 9 -37 25t-17 42q0 102 38 151t83 49q27 0 55.5 -10.5t43.5 -33.5l-13 -25
q-20 10 -46 10q-42 0 -84.5 -23t-54.5 -62l4 23q2 -27 24 -51.5t72 -24.5q19 0 42 5zM571 890l-45 -74q-57 0 -122.5 -15t-142.5 -85l-33 25q68 69 143.5 109t199.5 40z" />
    <glyph glyph-name="uni0678.medi" unicode="&#x678;" horiz-adv-x="440" 
d="M0 0q-24 0 -32.5 19.5t-8.5 52.5q0 32 8.5 52.5t32.5 20.5h5q80 0 123.5 16t66.5 53.5t43 103.5l15 -3q-3 -16 -3 -34q0 -71 54.5 -103.5t132.5 -32.5h5q25 0 35.5 -20.5t10.5 -52.5q0 -33 -10 -52.5t-36 -19.5h-22q-69 0 -111.5 23t-65 56.5t-32.5 65.5l12 -5
q-23 -48 -76 -94t-127 -46h-20zM328 802q-20 9 -37 25t-17 42q0 102 38 151t83 49q27 0 55.5 -10.5t43.5 -33.5l-13 -25q-20 10 -46 10q-42 0 -84.5 -23t-54.5 -62l4 23q2 -27 24 -51.5t72 -24.5q19 0 42 5zM562 890l-45 -74q-57 0 -122.5 -15t-142.5 -85l-33 25
q68 69 143.5 109t199.5 40z" />
    <glyph glyph-name="uni0678.fina" unicode="&#x678;" horiz-adv-x="1048" 
d="M1048 145q39 0 39 -72q0 -73 -39 -73h-233q-89 0 -115 -12t-26 -23q0 -22 30.5 -32.5t76 -16.5t91 -14.5t76 -27t30.5 -54.5q0 -71 -60 -121.5t-152.5 -82t-192.5 -46t-179 -14.5q-169 0 -252.5 47.5t-97 129t31 185.5t134.5 217l14 -5q-87 -164 -96 -257.5t70.5 -132.5
t258.5 -39q35 0 93 2.5t123 8.5t122.5 15t94 21t36.5 27q0 19 -30.5 26.5t-75 12t-89 13t-74.5 29t-29 60.5q1 56 37.5 108.5t110.5 86.5t187 34h85zM791 802q-20 9 -37 25t-17 42q0 102 38 151t83 49q27 0 55.5 -10.5t43.5 -33.5l-13 -25q-20 10 -46 10q-42 0 -84.5 -23
t-54.5 -62l4 23q2 -27 24 -51.5t72 -24.5q19 0 42 5zM1025 890l-45 -74q-57 0 -122.5 -15t-142.5 -85l-33 25q68 69 143.5 109t199.5 40z" />
    <glyph glyph-name="uni0679.init" unicode="&#x679;" horiz-adv-x="417" arabic-form="initial" 
d="M0 145h63q86 0 138.5 16.5t52.5 35.5q0 36 -12.5 62.5t-39.5 53.5l49 125q62 -85 62 -182q0 -114 -73.5 -185t-198.5 -71h-41q-17 0 -30.5 20t-13.5 56q0 35 13.5 52t30.5 17zM162 557l-11 76q84 0 152.5 11t68.5 36q0 15 -16 27.5t-44 12.5q-18 0 -68.5 -29.5
t-84.5 -65.5l-23 2q28 30 67 66t79 62t71 26q32 0 48 -17t16 -42q0 -46 -39 -83.5t-98 -59.5t-118 -22zM163 557q-62 0 -100.5 27.5t-59.5 62.5l2 5q32 -10 71 -14.5t76 -4.5zM178 660l-8 252l33 -19v-211zM216 873q-62 26 -62 56q0 18 18 44t28 34l5 -3q-14 -28 4 -46
t50 -28z" />
    <glyph glyph-name="uni0679.medi" unicode="&#x679;" horiz-adv-x="440" arabic-form="medial" 
d="M0 0q-24 0 -32.5 19.5t-8.5 52.5q0 32 8.5 52.5t32.5 20.5h5q80 0 123.5 16t66.5 53.5t43 103.5l15 -3q-3 -16 -3 -34q0 -71 54.5 -103.5t132.5 -32.5h5q25 0 35.5 -20.5t10.5 -52.5q0 -33 -10 -52.5t-36 -19.5h-22q-69 0 -111.5 23t-65 56.5t-32.5 65.5l12 -5
q-23 -48 -76 -94t-127 -46h-20zM168 453l-11 76q84 0 152.5 11t68.5 36q0 15 -16 27.5t-44 12.5q-18 0 -68.5 -29.5t-84.5 -65.5l-23 2q28 30 67 66t79 62t71 26q32 0 48 -17t16 -42q0 -46 -39 -83.5t-98 -59.5t-118 -22zM169 453q-62 0 -100.5 27.5t-59.5 62.5l2 5
q32 -10 71 -14.5t76 -4.5zM184 556l-8 252l33 -19v-211zM222 769q-62 26 -62 56q0 18 18 44t28 34l5 -3q-14 -28 4 -46t50 -28z" />
    <glyph glyph-name="uni0679.fina" unicode="&#x679;" horiz-adv-x="1175" arabic-form="final" 
d="M1027 318l15 -3q0 -91 30 -130.5t103 -39.5q47 0 47 -72q0 -73 -47 -73q-172 0 -191 163l7 -5q-70 -87 -204 -130t-294 -43q-213 0 -333 68t-120 207q0 67 36.5 131t77.5 103l14 -7q-22 -38 -38.5 -82.5t-16.5 -83.5q0 -103 123.5 -147t320.5 -44q130 0 217 20.5
t146.5 62.5t106.5 105zM535 405l-11 76q84 0 152.5 11t68.5 36q0 15 -16 27.5t-44 12.5q-18 0 -68.5 -29.5t-84.5 -65.5l-23 2q28 30 67 66t79 62t71 26q32 0 48 -17t16 -42q0 -46 -39 -83.5t-98 -59.5t-118 -22zM536 405q-62 0 -100.5 27.5t-59.5 62.5l2 5q32 -10 71 -14.5
t76 -4.5zM551 508l-8 252l33 -19v-211zM589 721q-62 26 -62 56q0 18 18 44t28 34l5 -3q-14 -28 4 -46t50 -28z" />
    <glyph glyph-name="uni067A.init" unicode="&#x67a;" horiz-adv-x="353" arabic-form="initial" 
d="M0 145h63q86 0 138.5 16.5t52.5 35.5q0 36 -12.5 62.5t-39.5 53.5l49 125q62 -85 62 -182q0 -114 -73.5 -185t-198.5 -71h-41q-17 0 -30.5 20t-13.5 56q0 35 13.5 52t30.5 17zM206 774q57 -41 96 -96l-96 -95q-36 53 -95 95zM206 960q57 -41 96 -96l-96 -95
q-36 53 -95 95z" />
    <glyph glyph-name="uni067A.medi" unicode="&#x67a;" horiz-adv-x="440" arabic-form="medial" 
d="M0 0q-24 0 -32.5 19.5t-8.5 52.5q0 32 8.5 52.5t32.5 20.5h5q80 0 123.5 16t66.5 53.5t43 103.5l15 -3q-3 -16 -3 -34q0 -71 54.5 -103.5t132.5 -32.5h5q25 0 35.5 -20.5t10.5 -52.5q0 -33 -10 -52.5t-36 -19.5h-22q-69 0 -111.5 23t-65 56.5t-32.5 65.5l12 -5
q-23 -48 -76 -94t-127 -46h-20zM212 670q57 -41 96 -96l-96 -95q-36 53 -95 95zM212 856q57 -41 96 -96l-96 -95q-36 53 -95 95z" />
    <glyph glyph-name="uni067A.fina" unicode="&#x67a;" horiz-adv-x="1175" arabic-form="final" 
d="M1027 318l15 -3q0 -91 30 -130.5t103 -39.5q47 0 47 -72q0 -73 -47 -73q-172 0 -191 163l7 -5q-70 -87 -204 -130t-294 -43q-213 0 -333 68t-120 207q0 67 36.5 131t77.5 103l14 -7q-22 -38 -38.5 -82.5t-16.5 -83.5q0 -103 123.5 -147t320.5 -44q130 0 217 20.5
t146.5 62.5t106.5 105zM579 622q57 -41 96 -96l-96 -95q-36 53 -95 95zM579 808q57 -41 96 -96l-96 -95q-36 53 -95 95z" />
    <glyph glyph-name="uni067B.init" unicode="&#x67b;" horiz-adv-x="353" arabic-form="initial" 
d="M0 145h63q86 0 138.5 16.5t52.5 35.5q0 36 -12.5 62.5t-39.5 53.5l49 125q62 -85 62 -182q0 -114 -73.5 -185t-198.5 -71h-41q-17 0 -30.5 20t-13.5 56q0 35 13.5 52t30.5 17zM199 -353q57 -41 96 -96l-96 -95q-36 53 -95 95zM199 -167q57 -41 96 -96l-96 -95
q-36 53 -95 95z" />
    <glyph glyph-name="uni067B.medi" unicode="&#x67b;" horiz-adv-x="440" arabic-form="medial" 
d="M0 0q-24 0 -32.5 19.5t-8.5 52.5q0 32 8.5 52.5t32.5 20.5h5q80 0 123.5 16t66.5 53.5t43 103.5l15 -3q-3 -16 -3 -34q0 -71 54.5 -103.5t132.5 -32.5h5q25 0 35.5 -20.5t10.5 -52.5q0 -33 -10 -52.5t-36 -19.5h-22q-69 0 -111.5 23t-65 56.5t-32.5 65.5l12 -5
q-23 -48 -76 -94t-127 -46h-20zM203 -353q57 -41 96 -96l-96 -95q-36 53 -95 95zM203 -167q57 -41 96 -96l-96 -95q-36 53 -95 95z" />
    <glyph glyph-name="uni067B.fina" unicode="&#x67b;" horiz-adv-x="1175" arabic-form="final" 
d="M1027 318l15 -3q0 -91 30 -130.5t103 -39.5q47 0 47 -72q0 -73 -47 -73q-172 0 -191 163l7 -5q-70 -87 -204 -130t-294 -43q-213 0 -333 68t-120 207q0 67 36.5 131t77.5 103l14 -7q-22 -38 -38.5 -82.5t-16.5 -83.5q0 -103 123.5 -147t320.5 -44q130 0 217 20.5
t146.5 62.5t106.5 105zM498 -353q57 -41 96 -96l-96 -95q-36 53 -95 95zM498 -167q57 -41 96 -96l-96 -95q-36 53 -95 95z" />
    <glyph glyph-name="uni067C.init" unicode="&#x67c;" horiz-adv-x="353" 
d="M0 145h63q86 0 138.5 16.5t52.5 35.5q0 36 -12.5 62.5t-39.5 53.5l49 125q62 -85 62 -182q0 -114 -73.5 -185t-198.5 -71h-41q-17 0 -30.5 20t-13.5 56q0 35 13.5 52t30.5 17zM113 761q57 -41 96 -96l-96 -95q-36 53 -95 95zM299 761q57 -41 96 -96l-96 -95
q-36 53 -95 95zM178 -169q-62 0 -84.5 30.5t-22.5 80.5q0 46 29 93.5t78 47.5q50 0 79.5 -47.5t29.5 -93.5q0 -50 -23.5 -80.5t-85.5 -30.5zM178 -104q28 0 48.5 9.5t20.5 43.5q0 35 -20.5 57.5t-48.5 22.5t-47.5 -22.5t-19.5 -57.5q0 -37 19.5 -45t47.5 -8z" />
    <glyph glyph-name="uni067C.medi" unicode="&#x67c;" horiz-adv-x="440" 
d="M0 0q-24 0 -32.5 19.5t-8.5 52.5q0 32 8.5 52.5t32.5 20.5h5q80 0 123.5 16t66.5 53.5t43 103.5l15 -3q-3 -16 -3 -34q0 -71 54.5 -103.5t132.5 -32.5h5q25 0 35.5 -20.5t10.5 -52.5q0 -33 -10 -52.5t-36 -19.5h-22q-69 0 -111.5 23t-65 56.5t-32.5 65.5l12 -5
q-23 -48 -76 -94t-127 -46h-20zM119 657q57 -41 96 -96l-96 -95q-36 53 -95 95zM305 657q57 -41 96 -96l-96 -95q-36 53 -95 95zM202 -130q-62 0 -84.5 30.5t-22.5 80.5q0 46 29 93.5t78 47.5q50 0 79.5 -47.5t29.5 -93.5q0 -50 -23.5 -80.5t-85.5 -30.5zM202 -65
q28 0 48.5 9.5t20.5 43.5q0 35 -20.5 57.5t-48.5 22.5t-47.5 -22.5t-19.5 -57.5q0 -37 19.5 -45t47.5 -8z" />
    <glyph glyph-name="uni067C.fina" unicode="&#x67c;" horiz-adv-x="1175" 
d="M1027 318l15 -3q0 -91 30 -130.5t103 -39.5q47 0 47 -72q0 -73 -47 -73q-172 0 -191 163l7 -5q-70 -87 -204 -130t-294 -43q-213 0 -333 68t-120 207q0 67 36.5 131t77.5 103l14 -7q-22 -38 -38.5 -82.5t-16.5 -83.5q0 -103 123.5 -147t320.5 -44q130 0 217 20.5
t146.5 62.5t106.5 105zM486 609q57 -41 96 -96l-96 -95q-36 53 -95 95zM672 609q57 -41 96 -96l-96 -95q-36 53 -95 95zM531 -213q-62 0 -84.5 30.5t-22.5 80.5q0 46 29 93.5t78 47.5q50 0 79.5 -47.5t29.5 -93.5q0 -50 -23.5 -80.5t-85.5 -30.5zM531 -148q28 0 48.5 9.5
t20.5 43.5q0 35 -20.5 57.5t-48.5 22.5t-47.5 -22.5t-19.5 -57.5q0 -37 19.5 -45t47.5 -8z" />
    <glyph glyph-name="uni067D.init" unicode="&#x67d;" horiz-adv-x="353" 
d="M0 145h63q86 0 138.5 16.5t52.5 35.5q0 36 -12.5 62.5t-39.5 53.5l49 125q62 -85 62 -182q0 -114 -73.5 -185t-198.5 -71h-41q-17 0 -30.5 20t-13.5 56q0 35 13.5 52t30.5 17zM206 769q57 -41 96 -96l-96 -95q-36 53 -95 95zM113 964q57 -41 96 -96l-96 -95
q-36 53 -95 95zM299 964q57 -41 96 -96l-96 -95q-36 53 -95 95z" />
    <glyph glyph-name="uni067D.medi" unicode="&#x67d;" horiz-adv-x="440" 
d="M0 0q-24 0 -32.5 19.5t-8.5 52.5q0 32 8.5 52.5t32.5 20.5h5q80 0 123.5 16t66.5 53.5t43 103.5l15 -3q-3 -16 -3 -34q0 -71 54.5 -103.5t132.5 -32.5h5q25 0 35.5 -20.5t10.5 -52.5q0 -33 -10 -52.5t-36 -19.5h-22q-69 0 -111.5 23t-65 56.5t-32.5 65.5l12 -5
q-23 -48 -76 -94t-127 -46h-20zM212 665q57 -41 96 -96l-96 -95q-36 53 -95 95zM119 860q57 -41 96 -96l-96 -95q-36 53 -95 95zM305 860q57 -41 96 -96l-96 -95q-36 53 -95 95z" />
    <glyph glyph-name="uni067D.fina" unicode="&#x67d;" horiz-adv-x="1175" 
d="M1027 318l15 -3q0 -91 30 -130.5t103 -39.5q47 0 47 -72q0 -73 -47 -73q-172 0 -191 163l7 -5q-70 -87 -204 -130t-294 -43q-213 0 -333 68t-120 207q0 67 36.5 131t77.5 103l14 -7q-22 -38 -38.5 -82.5t-16.5 -83.5q0 -103 123.5 -147t320.5 -44q130 0 217 20.5
t146.5 62.5t106.5 105zM579 617q57 -41 96 -96l-96 -95q-36 53 -95 95zM486 812q57 -41 96 -96l-96 -95q-36 53 -95 95zM672 812q57 -41 96 -96l-96 -95q-36 53 -95 95z" />
    <glyph glyph-name="uni067E.init" unicode="&#x67e;" horiz-adv-x="353" arabic-form="initial" 
d="M0 145h63q86 0 138.5 16.5t52.5 35.5q0 36 -12.5 62.5t-39.5 53.5l49 125q62 -85 62 -182q0 -114 -73.5 -185t-198.5 -71h-41q-17 0 -30.5 20t-13.5 56q0 35 13.5 52t30.5 17zM199 -358q57 -41 96 -96l-96 -95q-36 53 -95 95zM106 -163q57 -41 96 -96l-96 -95
q-36 53 -95 95zM292 -163q57 -41 96 -96l-96 -95q-36 53 -95 95z" />
    <glyph glyph-name="uni067E.medi" unicode="&#x67e;" horiz-adv-x="440" arabic-form="medial" 
d="M0 0q-24 0 -32.5 19.5t-8.5 52.5q0 32 8.5 52.5t32.5 20.5h5q80 0 123.5 16t66.5 53.5t43 103.5l15 -3q-3 -16 -3 -34q0 -71 54.5 -103.5t132.5 -32.5h5q25 0 35.5 -20.5t10.5 -52.5q0 -33 -10 -52.5t-36 -19.5h-22q-69 0 -111.5 23t-65 56.5t-32.5 65.5l12 -5
q-23 -48 -76 -94t-127 -46h-20zM203 -358q57 -41 96 -96l-96 -95q-36 53 -95 95zM110 -163q57 -41 96 -96l-96 -95q-36 53 -95 95zM296 -163q57 -41 96 -96l-96 -95q-36 53 -95 95z" />
    <glyph glyph-name="uni067E.fina" unicode="&#x67e;" horiz-adv-x="1175" arabic-form="final" 
d="M1027 318l15 -3q0 -91 30 -130.5t103 -39.5q47 0 47 -72q0 -73 -47 -73q-172 0 -191 163l7 -5q-70 -87 -204 -130t-294 -43q-213 0 -333 68t-120 207q0 67 36.5 131t77.5 103l14 -7q-22 -38 -38.5 -82.5t-16.5 -83.5q0 -103 123.5 -147t320.5 -44q130 0 217 20.5
t146.5 62.5t106.5 105zM498 -358q57 -41 96 -96l-96 -95q-36 53 -95 95zM405 -163q57 -41 96 -96l-96 -95q-36 53 -95 95zM591 -163q57 -41 96 -96l-96 -95q-36 53 -95 95z" />
    <glyph glyph-name="uni067F.init" unicode="&#x67f;" horiz-adv-x="353" arabic-form="initial" 
d="M0 145h63q86 0 138.5 16.5t52.5 35.5q0 36 -12.5 62.5t-39.5 53.5l49 125q62 -85 62 -182q0 -114 -73.5 -185t-198.5 -71h-41q-17 0 -30.5 20t-13.5 56q0 35 13.5 52t30.5 17zM111 956q57 -41 96 -96l-96 -95q-36 53 -95 95zM297 956q57 -41 96 -96l-96 -95
q-36 53 -95 95zM111 770q57 -41 96 -96l-96 -95q-36 53 -95 95zM297 770q57 -41 96 -96l-96 -95q-36 53 -95 95z" />
    <glyph glyph-name="uni067F.medi" unicode="&#x67f;" horiz-adv-x="440" arabic-form="medial" 
d="M0 0q-24 0 -32.5 19.5t-8.5 52.5q0 32 8.5 52.5t32.5 20.5h5q80 0 123.5 16t66.5 53.5t43 103.5l15 -3q-3 -16 -3 -34q0 -71 54.5 -103.5t132.5 -32.5h5q25 0 35.5 -20.5t10.5 -52.5q0 -33 -10 -52.5t-36 -19.5h-22q-69 0 -111.5 23t-65 56.5t-32.5 65.5l12 -5
q-23 -48 -76 -94t-127 -46h-20zM117 852q57 -41 96 -96l-96 -95q-36 53 -95 95zM303 852q57 -41 96 -96l-96 -95q-36 53 -95 95zM117 666q57 -41 96 -96l-96 -95q-36 53 -95 95zM303 666q57 -41 96 -96l-96 -95q-36 53 -95 95z" />
    <glyph glyph-name="uni067F.fina" unicode="&#x67f;" horiz-adv-x="1175" arabic-form="final" 
d="M1027 318l15 -3q0 -91 30 -130.5t103 -39.5q47 0 47 -72q0 -73 -47 -73q-172 0 -191 163l7 -5q-70 -87 -204 -130t-294 -43q-213 0 -333 68t-120 207q0 67 36.5 131t77.5 103l14 -7q-22 -38 -38.5 -82.5t-16.5 -83.5q0 -103 123.5 -147t320.5 -44q130 0 217 20.5
t146.5 62.5t106.5 105zM484 804q57 -41 96 -96l-96 -95q-36 53 -95 95zM670 804q57 -41 96 -96l-96 -95q-36 53 -95 95zM484 618q57 -41 96 -96l-96 -95q-36 53 -95 95zM670 618q57 -41 96 -96l-96 -95q-36 53 -95 95z" />
    <glyph glyph-name="uni0680.init" unicode="&#x680;" horiz-adv-x="353" arabic-form="initial" 
d="M0 145h63q86 0 138.5 16.5t52.5 35.5q0 36 -12.5 62.5t-39.5 53.5l49 125q62 -85 62 -182q0 -114 -73.5 -185t-198.5 -71h-41q-17 0 -30.5 20t-13.5 56q0 35 13.5 52t30.5 17zM104 -171q57 -41 96 -96l-96 -95q-36 53 -95 95zM290 -171q57 -41 96 -96l-96 -95
q-36 53 -95 95zM104 -357q57 -41 96 -96l-96 -95q-36 53 -95 95zM290 -357q57 -41 96 -96l-96 -95q-36 53 -95 95z" />
    <glyph glyph-name="uni0680.medi" unicode="&#x680;" horiz-adv-x="440" arabic-form="medial" 
d="M0 0q-24 0 -32.5 19.5t-8.5 52.5q0 32 8.5 52.5t32.5 20.5h5q80 0 123.5 16t66.5 53.5t43 103.5l15 -3q-3 -16 -3 -34q0 -71 54.5 -103.5t132.5 -32.5h5q25 0 35.5 -20.5t10.5 -52.5q0 -33 -10 -52.5t-36 -19.5h-22q-69 0 -111.5 23t-65 56.5t-32.5 65.5l12 -5
q-23 -48 -76 -94t-127 -46h-20zM108 -171q57 -41 96 -96l-96 -95q-36 53 -95 95zM294 -171q57 -41 96 -96l-96 -95q-36 53 -95 95zM108 -357q57 -41 96 -96l-96 -95q-36 53 -95 95zM294 -357q57 -41 96 -96l-96 -95q-36 53 -95 95z" />
    <glyph glyph-name="uni0680.fina" unicode="&#x680;" horiz-adv-x="1175" arabic-form="final" 
d="M1027 318l15 -3q0 -91 30 -130.5t103 -39.5q47 0 47 -72q0 -73 -47 -73q-172 0 -191 163l7 -5q-70 -87 -204 -130t-294 -43q-213 0 -333 68t-120 207q0 67 36.5 131t77.5 103l14 -7q-22 -38 -38.5 -82.5t-16.5 -83.5q0 -103 123.5 -147t320.5 -44q130 0 217 20.5
t146.5 62.5t106.5 105zM403 -171q57 -41 96 -96l-96 -95q-36 53 -95 95zM589 -171q57 -41 96 -96l-96 -95q-36 53 -95 95zM403 -357q57 -41 96 -96l-96 -95q-36 53 -95 95zM589 -357q57 -41 96 -96l-96 -95q-36 53 -95 95z" />
    <glyph glyph-name="uni0681.init" unicode="&#x681;" horiz-adv-x="764" 
d="M5 0q-24 0 -31.5 19.5t-7.5 52.5q0 32 9 52.5t25 20.5q108 0 173 17t110 42t92.5 50t118.5 42.5t189 17.5l-29 -93q-93 0 -160 23.5t-119.5 54t-98.5 54t-97 23.5q-47 0 -79.5 -21.5t-47.5 -39.5l-12 6q17 67 61 128t117 61q57 0 102.5 -24.5t96.5 -55.5t123 -55t184 -24
l-41 -144q-106 0 -176 -21t-121.5 -51.5t-102 -61.5t-115.5 -52t-163 -21zM348 674q-20 9 -37 25t-17 42q0 102 38 151t83 49q27 0 55.5 -10.5t43.5 -33.5l-13 -25q-20 10 -46 10q-42 0 -84.5 -23t-54.5 -62l4 23q2 -27 24 -51.5t72 -24.5q19 0 42 5zM582 762l-45 -74
q-57 0 -122.5 -15t-142.5 -85l-33 25q68 69 143.5 109t199.5 40z" />
    <glyph glyph-name="uni0681.medi" unicode="&#x681;" horiz-adv-x="809" 
d="M5 0q-44 0 -44 72q0 32 9.5 52.5t29.5 20.5q104 0 170.5 17t117.5 44.5t105.5 60.5t133 66.5t202.5 60.5l-35 -104q-107 -23 -181.5 -13t-130 33.5t-103.5 44.5t-100 21q-47 0 -79.5 -21.5t-47.5 -39.5l-12 6q17 67 61 128t117 61q57 0 108 -22t109.5 -46.5t138 -34
t195.5 16.5l-43 -144q-105 -22 -178.5 -56.5t-131.5 -73t-115.5 -73t-127.5 -56t-168 -21.5zM809 0q-104 0 -156.5 58.5t-61.5 218.5l45 12q8 -74 43 -109t130 -35q60 0 60 -72q0 -73 -60 -73zM364 674q-20 9 -37 25t-17 42q0 102 38 151t83 49q27 0 55.5 -10.5t43.5 -33.5
l-13 -25q-20 10 -46 10q-42 0 -84.5 -23t-54.5 -62l4 23q2 -27 24 -51.5t72 -24.5q19 0 42 5zM598 762l-45 -74q-57 0 -122.5 -15t-142.5 -85l-33 25q68 69 143.5 109t199.5 40z" />
    <glyph glyph-name="uni0681.fina" unicode="&#x681;" horiz-adv-x="889" 
d="M549 361q0 -94 43 -155t128 -61h169q52 0 52 -72q0 -73 -52 -73h-149q-99 0 -150 44.5t-69.5 126t-18.5 190.5h47zM673 -741q-175 0 -296 43.5t-195.5 117t-108 166t-33.5 189.5q0 195 94 352t246 244l2 -7q-30 3 -58.5 13.5t-63.5 10.5q-67 0 -107 -37t-58 -67l-14 6
q5 55 37.5 107.5t85.5 87.5t117 35q49 0 95.5 -16t105 -31.5t143.5 -15.5q34 0 63.5 1.5t63.5 4.5l-60 -144q-16 2 -34.5 3t-34.5 1q-103 0 -203 -41t-181 -113t-129.5 -165t-48.5 -197q0 -142 76.5 -231t210 -131t303.5 -42h145v-24zM410 698q-20 9 -37 25t-17 42
q0 102 38 151t83 49q27 0 55.5 -10.5t43.5 -33.5l-13 -25q-20 10 -46 10q-42 0 -84.5 -23t-54.5 -62l4 23q2 -27 24 -51.5t72 -24.5q19 0 42 5zM644 786l-45 -74q-57 0 -122.5 -15t-142.5 -85l-33 25q68 69 143.5 109t199.5 40z" />
    <glyph glyph-name="uni0682.init" unicode="&#x682;" horiz-adv-x="764" 
d="M5 0q-24 0 -31.5 19.5t-7.5 52.5q0 32 9 52.5t25 20.5q108 0 173 17t110 42t92.5 50t118.5 42.5t189 17.5l-29 -93q-93 0 -160 23.5t-119.5 54t-98.5 54t-97 23.5q-47 0 -79.5 -21.5t-47.5 -39.5l-12 6q17 67 61 128t117 61q57 0 102.5 -24.5t96.5 -55.5t123 -55t184 -24
l-41 -144q-106 0 -176 -21t-121.5 -51.5t-102 -61.5t-115.5 -52t-163 -21zM424 838q57 -41 96 -96l-96 -95q-36 53 -95 95zM424 1024q57 -41 96 -96l-96 -95q-36 53 -95 95z" />
    <glyph glyph-name="uni0682.medi" unicode="&#x682;" horiz-adv-x="809" 
d="M5 0q-44 0 -44 72q0 32 9.5 52.5t29.5 20.5q104 0 170.5 17t117.5 44.5t105.5 60.5t133 66.5t202.5 60.5l-35 -104q-107 -23 -181.5 -13t-130 33.5t-103.5 44.5t-100 21q-47 0 -79.5 -21.5t-47.5 -39.5l-12 6q17 67 61 128t117 61q57 0 108 -22t109.5 -46.5t138 -34
t195.5 16.5l-43 -144q-105 -22 -178.5 -56.5t-131.5 -73t-115.5 -73t-127.5 -56t-168 -21.5zM809 0q-104 0 -156.5 58.5t-61.5 218.5l45 12q8 -74 43 -109t130 -35q60 0 60 -72q0 -73 -60 -73zM440 838q57 -41 96 -96l-96 -95q-36 53 -95 95zM440 1024q57 -41 96 -96
l-96 -95q-36 53 -95 95z" />
    <glyph glyph-name="uni0682.fina" unicode="&#x682;" horiz-adv-x="889" 
d="M549 361q0 -94 43 -155t128 -61h169q52 0 52 -72q0 -73 -52 -73h-149q-99 0 -150 44.5t-69.5 126t-18.5 190.5h47zM673 -741q-175 0 -296 43.5t-195.5 117t-108 166t-33.5 189.5q0 195 94 352t246 244l2 -7q-30 3 -58.5 13.5t-63.5 10.5q-67 0 -107 -37t-58 -67l-14 6
q5 55 37.5 107.5t85.5 87.5t117 35q49 0 95.5 -16t105 -31.5t143.5 -15.5q34 0 63.5 1.5t63.5 4.5l-60 -144q-16 2 -34.5 3t-34.5 1q-103 0 -203 -41t-181 -113t-129.5 -165t-48.5 -197q0 -142 76.5 -231t210 -131t303.5 -42h145v-24zM486 862q57 -41 96 -96l-96 -95
q-36 53 -95 95zM486 1048q57 -41 96 -96l-96 -95q-36 53 -95 95z" />
    <glyph glyph-name="uni0683.init" unicode="&#x683;" horiz-adv-x="764" arabic-form="initial" 
d="M5 0q-24 0 -31.5 19.5t-7.5 52.5q0 32 9 52.5t25 20.5q108 0 173 17t110 42t92.5 50t118.5 42.5t189 17.5l-29 -93q-93 0 -160 23.5t-119.5 54t-98.5 54t-97 23.5q-47 0 -79.5 -21.5t-47.5 -39.5l-12 6q17 67 61 128t117 61q57 0 102.5 -24.5t96.5 -55.5t123 -55t184 -24
l-41 -144q-106 0 -176 -21t-121.5 -51.5t-102 -61.5t-115.5 -52t-163 -21zM235 -84q57 -41 96 -96l-96 -95q-36 53 -95 95zM421 -84q57 -41 96 -96l-96 -95q-36 53 -95 95z" />
    <glyph glyph-name="uni0683.medi" unicode="&#x683;" horiz-adv-x="809" arabic-form="medial" 
d="M5 0q-44 0 -44 72q0 32 9.5 52.5t29.5 20.5q104 0 170.5 17t117.5 44.5t105.5 60.5t133 66.5t202.5 60.5l-35 -104q-107 -23 -181.5 -13t-130 33.5t-103.5 44.5t-100 21q-47 0 -79.5 -21.5t-47.5 -39.5l-12 6q17 67 61 128t117 61q57 0 108 -22t109.5 -46.5t138 -34
t195.5 16.5l-43 -144q-105 -22 -178.5 -56.5t-131.5 -73t-115.5 -73t-127.5 -56t-168 -21.5zM809 0q-104 0 -156.5 58.5t-61.5 218.5l45 12q8 -74 43 -109t130 -35q60 0 60 -72q0 -73 -60 -73zM265 -84q57 -41 96 -96l-96 -95q-36 53 -95 95zM451 -84q57 -41 96 -96l-96 -95
q-36 53 -95 95z" />
    <glyph glyph-name="uni0683.fina" unicode="&#x683;" horiz-adv-x="889" arabic-form="final" 
d="M549 361q0 -94 43 -155t128 -61h169q52 0 52 -72q0 -73 -52 -73h-149q-99 0 -150 44.5t-69.5 126t-18.5 190.5h47zM673 -741q-175 0 -296 43.5t-195.5 117t-108 166t-33.5 189.5q0 195 94 352t246 244l2 -7q-30 3 -58.5 13.5t-63.5 10.5q-67 0 -107 -37t-58 -67l-14 6
q5 55 37.5 107.5t85.5 87.5t117 35q49 0 95.5 -16t105 -31.5t143.5 -15.5q34 0 63.5 1.5t63.5 4.5l-60 -144q-16 2 -34.5 3t-34.5 1q-103 0 -203 -41t-181 -113t-129.5 -165t-48.5 -197q0 -142 76.5 -231t210 -131t303.5 -42h145v-24zM341 -111q57 -41 96 -96l-96 -95
q-36 53 -95 95zM527 -111q57 -41 96 -96l-96 -95q-36 53 -95 95z" />
    <glyph glyph-name="uni0684.init" unicode="&#x684;" horiz-adv-x="764" arabic-form="initial" 
d="M5 0q-24 0 -31.5 19.5t-7.5 52.5q0 32 9 52.5t25 20.5q108 0 173 17t110 42t92.5 50t118.5 42.5t189 17.5l-29 -93q-93 0 -160 23.5t-119.5 54t-98.5 54t-97 23.5q-47 0 -79.5 -21.5t-47.5 -39.5l-12 6q17 67 61 128t117 61q57 0 102.5 -24.5t96.5 -55.5t123 -55t184 -24
l-41 -144q-106 0 -176 -21t-121.5 -51.5t-102 -61.5t-115.5 -52t-163 -21zM328 -283q57 -41 96 -96l-96 -95q-36 53 -95 95zM328 -97q57 -41 96 -96l-96 -95q-36 53 -95 95z" />
    <glyph glyph-name="uni0684.medi" unicode="&#x684;" horiz-adv-x="809" arabic-form="medial" 
d="M5 0q-44 0 -44 72q0 32 9.5 52.5t29.5 20.5q104 0 170.5 17t117.5 44.5t105.5 60.5t133 66.5t202.5 60.5l-35 -104q-107 -23 -181.5 -13t-130 33.5t-103.5 44.5t-100 21q-47 0 -79.5 -21.5t-47.5 -39.5l-12 6q17 67 61 128t117 61q57 0 108 -22t109.5 -46.5t138 -34
t195.5 16.5l-43 -144q-105 -22 -178.5 -56.5t-131.5 -73t-115.5 -73t-127.5 -56t-168 -21.5zM809 0q-104 0 -156.5 58.5t-61.5 218.5l45 12q8 -74 43 -109t130 -35q60 0 60 -72q0 -73 -60 -73zM358 -283q57 -41 96 -96l-96 -95q-36 53 -95 95zM358 -97q57 -41 96 -96
l-96 -95q-36 53 -95 95z" />
    <glyph glyph-name="uni0684.fina" unicode="&#x684;" horiz-adv-x="889" arabic-form="final" 
d="M549 361q0 -94 43 -155t128 -61h169q52 0 52 -72q0 -73 -52 -73h-149q-99 0 -150 44.5t-69.5 126t-18.5 190.5h47zM673 -741q-175 0 -296 43.5t-195.5 117t-108 166t-33.5 189.5q0 195 94 352t246 244l2 -7q-30 3 -58.5 13.5t-63.5 10.5q-67 0 -107 -37t-58 -67l-14 6
q5 55 37.5 107.5t85.5 87.5t117 35q49 0 95.5 -16t105 -31.5t143.5 -15.5q34 0 63.5 1.5t63.5 4.5l-60 -144q-16 2 -34.5 3t-34.5 1q-103 0 -203 -41t-181 -113t-129.5 -165t-48.5 -197q0 -142 76.5 -231t210 -131t303.5 -42h145v-24zM434 -204q57 -41 96 -96l-96 -95
q-36 53 -95 95zM434 -18q57 -41 96 -96l-96 -95q-36 53 -95 95z" />
    <glyph glyph-name="uni0685.init" unicode="&#x685;" horiz-adv-x="764" 
d="M5 0q-24 0 -31.5 19.5t-7.5 52.5q0 32 9 52.5t25 20.5q108 0 173 17t110 42t92.5 50t118.5 42.5t189 17.5l-29 -93q-93 0 -160 23.5t-119.5 54t-98.5 54t-97 23.5q-47 0 -79.5 -21.5t-47.5 -39.5l-12 6q17 67 61 128t117 61q57 0 102.5 -24.5t96.5 -55.5t123 -55t184 -24
l-41 -144q-106 0 -176 -21t-121.5 -51.5t-102 -61.5t-115.5 -52t-163 -21zM422 1028q57 -41 96 -96l-96 -95q-36 53 -95 95zM331 833q57 -41 96 -96l-96 -95q-36 53 -95 95zM517 833q57 -41 96 -96l-96 -95q-36 53 -95 95z" />
    <glyph glyph-name="uni0685.medi" unicode="&#x685;" horiz-adv-x="809" 
d="M5 0q-44 0 -44 72q0 32 9.5 52.5t29.5 20.5q104 0 170.5 17t117.5 44.5t105.5 60.5t133 66.5t202.5 60.5l-35 -104q-107 -23 -181.5 -13t-130 33.5t-103.5 44.5t-100 21q-47 0 -79.5 -21.5t-47.5 -39.5l-12 6q17 67 61 128t117 61q57 0 108 -22t109.5 -46.5t138 -34
t195.5 16.5l-43 -144q-105 -22 -178.5 -56.5t-131.5 -73t-115.5 -73t-127.5 -56t-168 -21.5zM809 0q-104 0 -156.5 58.5t-61.5 218.5l45 12q8 -74 43 -109t130 -35q60 0 60 -72q0 -73 -60 -73zM439 1028q57 -41 96 -96l-96 -95q-36 53 -95 95zM347 833q57 -41 96 -96
l-96 -95q-36 53 -95 95zM533 833q57 -41 96 -96l-96 -95q-36 53 -95 95z" />
    <glyph glyph-name="uni0685.fina" unicode="&#x685;" horiz-adv-x="889" 
d="M549 361q0 -94 43 -155t128 -61h169q52 0 52 -72q0 -73 -52 -73h-149q-99 0 -150 44.5t-69.5 126t-18.5 190.5h47zM673 -741q-175 0 -296 43.5t-195.5 117t-108 166t-33.5 189.5q0 195 94 352t246 244l2 -7q-30 3 -58.5 13.5t-63.5 10.5q-67 0 -107 -37t-58 -67l-14 6
q5 55 37.5 107.5t85.5 87.5t117 35q49 0 95.5 -16t105 -31.5t143.5 -15.5q34 0 63.5 1.5t63.5 4.5l-60 -144q-16 2 -34.5 3t-34.5 1q-103 0 -203 -41t-181 -113t-129.5 -165t-48.5 -197q0 -142 76.5 -231t210 -131t303.5 -42h145v-24zM485 1052q57 -41 96 -96l-96 -95
q-36 53 -95 95zM393 857q57 -41 96 -96l-96 -95q-36 53 -95 95zM579 857q57 -41 96 -96l-96 -95q-36 53 -95 95z" />
    <glyph glyph-name="uni0686.init" unicode="&#x686;" horiz-adv-x="764" arabic-form="initial" 
d="M5 0q-24 0 -31.5 19.5t-7.5 52.5q0 32 9 52.5t25 20.5q108 0 173 17t110 42t92.5 50t118.5 42.5t189 17.5l-29 -93q-93 0 -160 23.5t-119.5 54t-98.5 54t-97 23.5q-47 0 -79.5 -21.5t-47.5 -39.5l-12 6q17 67 61 128t117 61q57 0 102.5 -24.5t96.5 -55.5t123 -55t184 -24
l-41 -144q-106 0 -176 -21t-121.5 -51.5t-102 -61.5t-115.5 -52t-163 -21zM328 -288q57 -41 96 -96l-96 -95q-36 53 -95 95zM235 -93q57 -41 96 -96l-96 -95q-36 53 -95 95zM421 -93q57 -41 96 -96l-96 -95q-36 53 -95 95z" />
    <glyph glyph-name="uni0686.medi" unicode="&#x686;" horiz-adv-x="809" arabic-form="medial" 
d="M5 0q-44 0 -44 72q0 32 9.5 52.5t29.5 20.5q104 0 170.5 17t117.5 44.5t105.5 60.5t133 66.5t202.5 60.5l-35 -104q-107 -23 -181.5 -13t-130 33.5t-103.5 44.5t-100 21q-47 0 -79.5 -21.5t-47.5 -39.5l-12 6q17 67 61 128t117 61q57 0 108 -22t109.5 -46.5t138 -34
t195.5 16.5l-43 -144q-105 -22 -178.5 -56.5t-131.5 -73t-115.5 -73t-127.5 -56t-168 -21.5zM809 0q-104 0 -156.5 58.5t-61.5 218.5l45 12q8 -74 43 -109t130 -35q60 0 60 -72q0 -73 -60 -73zM358 -288q57 -41 96 -96l-96 -95q-36 53 -95 95zM265 -93q57 -41 96 -96
l-96 -95q-36 53 -95 95zM451 -93q57 -41 96 -96l-96 -95q-36 53 -95 95z" />
    <glyph glyph-name="uni0686.fina" unicode="&#x686;" horiz-adv-x="889" arabic-form="final" 
d="M549 361q0 -94 43 -155t128 -61h169q52 0 52 -72q0 -73 -52 -73h-149q-99 0 -150 44.5t-69.5 126t-18.5 190.5h47zM673 -741q-175 0 -296 43.5t-195.5 117t-108 166t-33.5 189.5q0 195 94 352t246 244l2 -7q-30 3 -58.5 13.5t-63.5 10.5q-67 0 -107 -37t-58 -67l-14 6
q5 55 37.5 107.5t85.5 87.5t117 35q49 0 95.5 -16t105 -31.5t143.5 -15.5q34 0 63.5 1.5t63.5 4.5l-60 -144q-16 2 -34.5 3t-34.5 1q-103 0 -203 -41t-181 -113t-129.5 -165t-48.5 -197q0 -142 76.5 -231t210 -131t303.5 -42h145v-24zM434 -209q57 -41 96 -96l-96 -95
q-36 53 -95 95zM341 -14q57 -41 96 -96l-96 -95q-36 53 -95 95zM527 -14q57 -41 96 -96l-96 -95q-36 53 -95 95z" />
    <glyph glyph-name="uni0687.init" unicode="&#x687;" horiz-adv-x="764" arabic-form="initial" 
d="M5 0q-24 0 -31.5 19.5t-7.5 52.5q0 32 9 52.5t25 20.5q108 0 173 17t110 42t92.5 50t118.5 42.5t189 17.5l-29 -93q-93 0 -160 23.5t-119.5 54t-98.5 54t-97 23.5q-47 0 -79.5 -21.5t-47.5 -39.5l-12 6q17 67 61 128t117 61q57 0 102.5 -24.5t96.5 -55.5t123 -55t184 -24
l-41 -144q-106 0 -176 -21t-121.5 -51.5t-102 -61.5t-115.5 -52t-163 -21zM233 -101q57 -41 96 -96l-96 -95q-36 53 -95 95zM419 -101q57 -41 96 -96l-96 -95q-36 53 -95 95zM233 -287q57 -41 96 -96l-96 -95q-36 53 -95 95zM419 -287q57 -41 96 -96l-96 -95q-36 53 -95 95z
" />
    <glyph glyph-name="uni0687.medi" unicode="&#x687;" horiz-adv-x="809" arabic-form="medial" 
d="M5 0q-44 0 -44 72q0 32 9.5 52.5t29.5 20.5q104 0 170.5 17t117.5 44.5t105.5 60.5t133 66.5t202.5 60.5l-35 -104q-107 -23 -181.5 -13t-130 33.5t-103.5 44.5t-100 21q-47 0 -79.5 -21.5t-47.5 -39.5l-12 6q17 67 61 128t117 61q57 0 108 -22t109.5 -46.5t138 -34
t195.5 16.5l-43 -144q-105 -22 -178.5 -56.5t-131.5 -73t-115.5 -73t-127.5 -56t-168 -21.5zM809 0q-104 0 -156.5 58.5t-61.5 218.5l45 12q8 -74 43 -109t130 -35q60 0 60 -72q0 -73 -60 -73zM263 -101q57 -41 96 -96l-96 -95q-36 53 -95 95zM449 -101q57 -41 96 -96
l-96 -95q-36 53 -95 95zM263 -287q57 -41 96 -96l-96 -95q-36 53 -95 95zM449 -287q57 -41 96 -96l-96 -95q-36 53 -95 95z" />
    <glyph glyph-name="uni0687.fina" unicode="&#x687;" horiz-adv-x="889" arabic-form="final" 
d="M549 361q0 -94 43 -155t128 -61h169q52 0 52 -72q0 -73 -52 -73h-149q-99 0 -150 44.5t-69.5 126t-18.5 190.5h47zM673 -741q-175 0 -296 43.5t-195.5 117t-108 166t-33.5 189.5q0 195 94 352t246 244l2 -7q-30 3 -58.5 13.5t-63.5 10.5q-67 0 -107 -37t-58 -67l-14 6
q5 55 37.5 107.5t85.5 87.5t117 35q49 0 95.5 -16t105 -31.5t143.5 -15.5q34 0 63.5 1.5t63.5 4.5l-60 -144q-16 2 -34.5 3t-34.5 1q-103 0 -203 -41t-181 -113t-129.5 -165t-48.5 -197q0 -142 76.5 -231t210 -131t303.5 -42h145v-24zM339 -22q57 -41 96 -96l-96 -95
q-36 53 -95 95zM525 -22q57 -41 96 -96l-96 -95q-36 53 -95 95zM339 -208q57 -41 96 -96l-96 -95q-36 53 -95 95zM525 -208q57 -41 96 -96l-96 -95q-36 53 -95 95z" />
    <glyph glyph-name="uni0688.fina" unicode="&#x688;" horiz-adv-x="644" arabic-form="final" 
d="M618 0q-61 0 -103.5 35.5t-77 115.5t-69.5 213.5t-82 331.5l65 74l96 -440q23 -107 67.5 -146t129.5 -39q49 0 49 -72q0 -73 -49 -73h-26zM183 -15q-40 0 -77 11.5t-66 36.5l9 150q29 -30 75 -43t95 -13q48 0 94.5 14.5t73.5 40.5t17 59l44 -21q0 -65 -36 -118t-95.5 -85
t-133.5 -32zM305 895l-11 76q84 0 152.5 11t68.5 36q0 15 -16 27.5t-44 12.5q-18 0 -68.5 -29.5t-84.5 -65.5l-23 2q28 30 67 66t79 62t71 26q32 0 48 -17t16 -42q0 -46 -39 -83.5t-98 -59.5t-118 -22zM306 895q-62 0 -100.5 27.5t-59.5 62.5l2 5q32 -10 71 -14.5t76 -4.5z
M321 998l-8 252l33 -19v-211zM359 1211q-62 26 -62 56q0 18 18 44t28 34l5 -3q-14 -28 4 -46t50 -28z" />
    <glyph glyph-name="uni0689.fina" unicode="&#x689;" horiz-adv-x="644" 
d="M618 0q-61 0 -103.5 35.5t-77 115.5t-69.5 213.5t-82 331.5l65 74l96 -440q23 -107 67.5 -146t129.5 -39q49 0 49 -72q0 -73 -49 -73h-26zM183 -15q-40 0 -77 11.5t-66 36.5l9 150q29 -30 75 -43t95 -13q48 0 94.5 14.5t73.5 40.5t17 59l44 -21q0 -65 -36 -118t-95.5 -85
t-133.5 -32zM198 -214q-62 0 -84.5 30.5t-22.5 80.5q0 46 29 93.5t78 47.5q50 0 79.5 -47.5t29.5 -93.5q0 -50 -23.5 -80.5t-85.5 -30.5zM198 -149q28 0 48.5 9.5t20.5 43.5q0 35 -20.5 57.5t-48.5 22.5t-47.5 -22.5t-19.5 -57.5q0 -37 19.5 -45t47.5 -8z" />
    <glyph glyph-name="uni068A.fina" unicode="&#x68a;" horiz-adv-x="644" 
d="M618 0q-61 0 -103.5 35.5t-77 115.5t-69.5 213.5t-82 331.5l65 74l96 -440q23 -107 67.5 -146t129.5 -39q49 0 49 -72q0 -73 -49 -73h-26zM183 -15q-40 0 -77 11.5t-66 36.5l9 150q29 -30 75 -43t95 -13q48 0 94.5 14.5t73.5 40.5t17 59l44 -21q0 -65 -36 -118t-95.5 -85
t-133.5 -32zM249 -173q57 -41 96 -96l-96 -95q-36 53 -95 95z" />
    <glyph glyph-name="uni068B.fina" unicode="&#x68b;" horiz-adv-x="644" 
d="M618 0q-61 0 -103.5 35.5t-77 115.5t-69.5 213.5t-82 331.5l65 74l96 -440q23 -107 67.5 -146t129.5 -39q49 0 49 -72q0 -73 -49 -73h-26zM183 -15q-40 0 -77 11.5t-66 36.5l9 150q29 -30 75 -43t95 -13q48 0 94.5 14.5t73.5 40.5t17 59l44 -21q0 -65 -36 -118t-95.5 -85
t-133.5 -32zM305 895l-11 76q84 0 152.5 11t68.5 36q0 15 -16 27.5t-44 12.5q-18 0 -68.5 -29.5t-84.5 -65.5l-23 2q28 30 67 66t79 62t71 26q32 0 48 -17t16 -42q0 -46 -39 -83.5t-98 -59.5t-118 -22zM306 895q-62 0 -100.5 27.5t-59.5 62.5l2 5q32 -10 71 -14.5t76 -4.5z
M321 998l-8 252l33 -19v-211zM359 1211q-62 26 -62 56q0 18 18 44t28 34l5 -3q-14 -28 4 -46t50 -28zM249 -173q57 -41 96 -96l-96 -95q-36 53 -95 95z" />
    <glyph glyph-name="uni068C.fina" unicode="&#x68c;" horiz-adv-x="644" arabic-form="final" 
d="M618 0q-61 0 -103.5 35.5t-77 115.5t-69.5 213.5t-82 331.5l65 74l96 -440q23 -107 67.5 -146t129.5 -39q49 0 49 -72q0 -73 -49 -73h-26zM183 -15q-40 0 -77 11.5t-66 36.5l9 150q29 -30 75 -43t95 -13q48 0 94.5 14.5t73.5 40.5t17 59l44 -21q0 -65 -36 -118t-95.5 -85
t-133.5 -32zM256 1099q57 -41 96 -96l-96 -95q-36 53 -95 95zM442 1099q57 -41 96 -96l-96 -95q-36 53 -95 95z" />
    <glyph glyph-name="uni068D.fina" unicode="&#x68d;" horiz-adv-x="644" arabic-form="final" 
d="M618 0q-61 0 -103.5 35.5t-77 115.5t-69.5 213.5t-82 331.5l65 74l96 -440q23 -107 67.5 -146t129.5 -39q49 0 49 -72q0 -73 -49 -73h-26zM183 -15q-40 0 -77 11.5t-66 36.5l9 150q29 -30 75 -43t95 -13q48 0 94.5 14.5t73.5 40.5t17 59l44 -21q0 -65 -36 -118t-95.5 -85
t-133.5 -32zM156 -173q57 -41 96 -96l-96 -95q-36 53 -95 95zM342 -173q57 -41 96 -96l-96 -95q-36 53 -95 95z" />
    <glyph glyph-name="uni068E.fina" unicode="&#x68e;" horiz-adv-x="644" arabic-form="final" 
d="M618 0q-61 0 -103.5 35.5t-77 115.5t-69.5 213.5t-82 331.5l65 74l96 -440q23 -107 67.5 -146t129.5 -39q49 0 49 -72q0 -73 -49 -73h-26zM183 -15q-40 0 -77 11.5t-66 36.5l9 150q29 -30 75 -43t95 -13q48 0 94.5 14.5t73.5 40.5t17 59l44 -21q0 -65 -36 -118t-95.5 -85
t-133.5 -32zM348 1302q57 -41 96 -96l-96 -95q-36 53 -95 95zM256 1107q57 -41 96 -96l-96 -95q-36 53 -95 95zM442 1107q57 -41 96 -96l-96 -95q-36 53 -95 95z" />
    <glyph glyph-name="uni068F.fina" unicode="&#x68f;" horiz-adv-x="644" 
d="M618 0q-61 0 -103.5 35.5t-77 115.5t-69.5 213.5t-82 331.5l65 74l96 -440q23 -107 67.5 -146t129.5 -39q49 0 49 -72q0 -73 -49 -73h-26zM183 -15q-40 0 -77 11.5t-66 36.5l9 150q29 -30 75 -43t95 -13q48 0 94.5 14.5t73.5 40.5t17 59l44 -21q0 -65 -36 -118t-95.5 -85
t-133.5 -32zM349 1107q57 -41 96 -96l-96 -95q-36 53 -95 95zM256 1302q57 -41 96 -96l-96 -95q-36 53 -95 95zM442 1302q57 -41 96 -96l-96 -95q-36 53 -95 95z" />
    <glyph glyph-name="uni0690.fina" unicode="&#x690;" horiz-adv-x="644" 
d="M618 0q-61 0 -103.5 35.5t-77 115.5t-69.5 213.5t-82 331.5l65 74l96 -440q23 -107 67.5 -146t129.5 -39q49 0 49 -72q0 -73 -49 -73h-26zM183 -15q-40 0 -77 11.5t-66 36.5l9 150q29 -30 75 -43t95 -13q48 0 94.5 14.5t73.5 40.5t17 59l44 -21q0 -65 -36 -118t-95.5 -85
t-133.5 -32zM254 1294q57 -41 96 -96l-96 -95q-36 53 -95 95zM440 1294q57 -41 96 -96l-96 -95q-36 53 -95 95zM254 1108q57 -41 96 -96l-96 -95q-36 53 -95 95zM440 1108q57 -41 96 -96l-96 -95q-36 53 -95 95z" />
    <glyph glyph-name="uni0691.fina" unicode="&#x691;" horiz-adv-x="542" arabic-form="final" 
d="M-114 -297l7 14q36 -18 93 -18q85 0 161.5 31.5t134.5 79.5t91.5 98t33.5 86q0 26 -41.5 64.5t-88.5 62.5l38 146q62 -39 99.5 -96.5t37.5 -108.5q0 -108 -37 -209.5t-102 -167t-148 -65.5q-69 0 -151.5 24.5t-127.5 58.5zM542 145q19 0 33 -18.5t14 -53.5
q0 -36 -14 -54.5t-33 -18.5q-48 0 -88 21.5t-69 51.5v136q41 -43 78.5 -53.5t78.5 -10.5zM271 394l-11 76q84 0 152.5 11t68.5 36q0 15 -16 27.5t-44 12.5q-18 0 -68.5 -29.5t-84.5 -65.5l-23 2q28 30 67 66t79 62t71 26q32 0 48 -17t16 -42q0 -46 -39 -83.5t-98 -59.5
t-118 -22zM272 394q-62 0 -100.5 27.5t-59.5 62.5l2 5q32 -10 71 -14.5t76 -4.5zM287 497l-8 252l33 -19v-211zM325 710q-62 26 -62 56q0 18 18 44t28 34l5 -3q-14 -28 4 -46t50 -28z" />
    <glyph glyph-name="uni0692.fina" unicode="&#x692;" horiz-adv-x="542" 
d="M-114 -297l7 14q36 -18 93 -18q85 0 161.5 31.5t134.5 79.5t91.5 98t33.5 86q0 26 -41.5 64.5t-88.5 62.5l38 146q62 -39 99.5 -96.5t37.5 -108.5q0 -108 -37 -209.5t-102 -167t-148 -65.5q-69 0 -151.5 24.5t-127.5 58.5zM542 145q19 0 33 -18.5t14 -53.5
q0 -36 -14 -54.5t-33 -18.5q-48 0 -88 21.5t-69 51.5v136q41 -43 78.5 -53.5t78.5 -10.5zM143 596l51 39q26 -33 53.5 -67.5t49 -58t27.5 -23.5q5 0 28.5 22.5t54 56.5t56.5 67l29 -23q-37 -48 -78 -93.5t-71.5 -75.5t-36.5 -30q-7 0 -35.5 31t-64 74t-63.5 81z" />
    <glyph glyph-name="uni0693.fina" unicode="&#x693;" horiz-adv-x="542" 
d="M-114 -297l7 14q36 -18 93 -18q85 0 161.5 31.5t134.5 79.5t91.5 98t33.5 86q0 26 -41.5 64.5t-88.5 62.5l38 146q62 -39 99.5 -96.5t37.5 -108.5q0 -108 -37 -209.5t-102 -167t-148 -65.5q-69 0 -151.5 24.5t-127.5 58.5zM542 145q19 0 33 -18.5t14 -53.5
q0 -36 -14 -54.5t-33 -18.5q-48 0 -88 21.5t-69 51.5v136q41 -43 78.5 -53.5t78.5 -10.5zM334 -505q-62 0 -84.5 30.5t-22.5 80.5q0 46 29 93.5t78 47.5q50 0 79.5 -47.5t29.5 -93.5q0 -50 -23.5 -80.5t-85.5 -30.5zM334 -440q28 0 48.5 9.5t20.5 43.5q0 35 -20.5 57.5
t-48.5 22.5t-47.5 -22.5t-19.5 -57.5q0 -37 19.5 -45t47.5 -8z" />
    <glyph glyph-name="uni0694.fina" unicode="&#x694;" horiz-adv-x="542" 
d="M-114 -297l7 14q36 -18 93 -18q85 0 161.5 31.5t134.5 79.5t91.5 98t33.5 86q0 26 -41.5 64.5t-88.5 62.5l38 146q62 -39 99.5 -96.5t37.5 -108.5q0 -108 -37 -209.5t-102 -167t-148 -65.5q-69 0 -151.5 24.5t-127.5 58.5zM542 145q19 0 33 -18.5t14 -53.5
q0 -36 -14 -54.5t-33 -18.5q-48 0 -88 21.5t-69 51.5v136q41 -43 78.5 -53.5t78.5 -10.5zM418 -382q57 -41 96 -96l-96 -95q-36 53 -95 95z" />
    <glyph glyph-name="uni0695.fina" unicode="&#x695;" horiz-adv-x="542" 
d="M-114 -297l7 14q36 -18 93 -18q85 0 161.5 31.5t134.5 79.5t91.5 98t33.5 86q0 26 -41.5 64.5t-88.5 62.5l38 146q62 -39 99.5 -96.5t37.5 -108.5q0 -108 -37 -209.5t-102 -167t-148 -65.5q-69 0 -151.5 24.5t-127.5 58.5zM542 145q19 0 33 -18.5t14 -53.5
q0 -36 -14 -54.5t-33 -18.5q-48 0 -88 21.5t-69 51.5v136q41 -43 78.5 -53.5t78.5 -10.5zM246 -420l51 39q26 -33 53.5 -67.5t49 -58t27.5 -23.5q5 0 28.5 22.5t54 56.5t56.5 67l29 -23q-37 -48 -78 -93.5t-71.5 -75.5t-36.5 -30q-7 0 -35.5 31t-64 74t-63.5 81z" />
    <glyph glyph-name="uni0696.fina" unicode="&#x696;" horiz-adv-x="542" 
d="M-114 -297l7 14q36 -18 93 -18q85 0 161.5 31.5t134.5 79.5t91.5 98t33.5 86q0 26 -41.5 64.5t-88.5 62.5l38 146q62 -39 99.5 -96.5t37.5 -108.5q0 -108 -37 -209.5t-102 -167t-148 -65.5q-69 0 -151.5 24.5t-127.5 58.5zM542 145q19 0 33 -18.5t14 -53.5
q0 -36 -14 -54.5t-33 -18.5q-48 0 -88 21.5t-69 51.5v136q41 -43 78.5 -53.5t78.5 -10.5zM418 -382q57 -41 96 -96l-96 -95q-36 53 -95 95zM124 135q57 -41 96 -96l-96 -95q-36 53 -95 95z" />
    <glyph glyph-name="uni0697.fina" unicode="&#x697;" horiz-adv-x="542" 
d="M-114 -297l7 14q36 -18 93 -18q85 0 161.5 31.5t134.5 79.5t91.5 98t33.5 86q0 26 -41.5 64.5t-88.5 62.5l38 146q62 -39 99.5 -96.5t37.5 -108.5q0 -108 -37 -209.5t-102 -167t-148 -65.5q-69 0 -151.5 24.5t-127.5 58.5zM542 145q19 0 33 -18.5t14 -53.5
q0 -36 -14 -54.5t-33 -18.5q-48 0 -88 21.5t-69 51.5v136q41 -43 78.5 -53.5t78.5 -10.5zM222 598q57 -41 96 -96l-96 -95q-36 53 -95 95zM408 598q57 -41 96 -96l-96 -95q-36 53 -95 95z" />
    <glyph glyph-name="uni0698.fina" unicode="&#x698;" horiz-adv-x="542" arabic-form="final" 
d="M-114 -297l7 14q36 -18 93 -18q85 0 161.5 31.5t134.5 79.5t91.5 98t33.5 86q0 26 -41.5 64.5t-88.5 62.5l38 146q62 -39 99.5 -96.5t37.5 -108.5q0 -108 -37 -209.5t-102 -167t-148 -65.5q-69 0 -151.5 24.5t-127.5 58.5zM542 145q19 0 33 -18.5t14 -53.5
q0 -36 -14 -54.5t-33 -18.5q-48 0 -88 21.5t-69 51.5v136q41 -43 78.5 -53.5t78.5 -10.5zM314 801q57 -41 96 -96l-96 -95q-36 53 -95 95zM222 606q57 -41 96 -96l-96 -95q-36 53 -95 95zM408 606q57 -41 96 -96l-96 -95q-36 53 -95 95z" />
    <glyph glyph-name="uni0699.fina" unicode="&#x699;" horiz-adv-x="542" 
d="M-114 -297l7 14q36 -18 93 -18q85 0 161.5 31.5t134.5 79.5t91.5 98t33.5 86q0 26 -41.5 64.5t-88.5 62.5l38 146q62 -39 99.5 -96.5t37.5 -108.5q0 -108 -37 -209.5t-102 -167t-148 -65.5q-69 0 -151.5 24.5t-127.5 58.5zM542 145q19 0 33 -18.5t14 -53.5
q0 -36 -14 -54.5t-33 -18.5q-48 0 -88 21.5t-69 51.5v136q41 -43 78.5 -53.5t78.5 -10.5zM220 793q57 -41 96 -96l-96 -95q-36 53 -95 95zM406 793q57 -41 96 -96l-96 -95q-36 53 -95 95zM220 606q57 -41 96 -96l-96 -95q-36 53 -95 95zM406 606q57 -41 96 -96l-96 -95
q-36 53 -95 95z" />
    <glyph glyph-name="uni069A.init" unicode="&#x69a;" horiz-adv-x="843" 
d="M0 0q-17 0 -31 18t-14 54q0 35 14 54t31 19q74 0 109.5 13.5t56 46t50.5 89.5h15q-25 -74 20.5 -111.5t118.5 -37.5q51 0 92 30.5t67.5 66.5t32.5 52h15q-14 -59 9.5 -87t59 -36t56.5 -8q15 0 34.5 4t19.5 17q0 21 -7 48t-19 37l49 97q14 -13 19 -47.5t5 -51.5
q0 -27 -6.5 -68.5t-21 -83t-37.5 -69.5t-56 -28q-47 0 -86.5 26t-66.5 65l14 1q-84 -110 -185 -110q-67 0 -112 29.5t-71 55.5l12 5q-37 -55 -77.5 -72.5t-109.5 -17.5zM483 664q57 -41 96 -96l-96 -95q-36 53 -95 95zM480 -121q57 -41 96 -96l-96 -95q-36 53 -95 95z" />
    <glyph glyph-name="uni069A.medi" unicode="&#x69a;" horiz-adv-x="1032" 
d="M1032 0q-71 0 -109 5t-58 21t-37 47l9 4q-15 -26 -52 -51.5t-83 -25.5q-88 0 -121 68l9 -2q-21 -25 -64.5 -45.5t-118.5 -20.5q-53 0 -95 15t-76 62l10 2q-36 -33 -66 -50t-70.5 -23t-109.5 -6q-38 0 -38 73q0 72 38 72q97 0 148 12t78 44t51 93h15q-11 -55 7.5 -87.5
t53.5 -47t73 -14.5q72 0 128 26.5t95 122.5h15q-16 -82 1 -115.5t72 -33.5q42 0 70 28t45 63.5t26 57.5h15q-13 -68 -9 -99.5t38.5 -40.5t109.5 -9q51 0 51 -72q0 -73 -51 -73zM586 664q57 -41 96 -96l-96 -95q-36 53 -95 95zM586 -146q57 -41 96 -96l-96 -95q-36 53 -95 95
z" />
    <glyph glyph-name="uni069A.fina" unicode="&#x69a;" horiz-adv-x="1471" 
d="M1151 0q-44 0 -85.5 24t-61.5 56l75 133q12 -30 34.5 -47.5t62.5 -17.5q46 0 75 27t45 62t24 57h15q-15 -70 -10 -101.5t39 -39.5t107 -8q45 0 45 -72q0 -73 -45 -73q-91 0 -138 11t-75 58l9 3q-15 -24 -46.5 -48t-69.5 -24zM864 -15q-25 0 -65 12t-65 29l-24 157
q41 -32 73 -42.5t89 -10.5q55 0 103 36t79 86t34 90l18 -6q0 -53 -15 -113.5t-45 -114.5t-75.5 -88.5t-106.5 -34.5zM675 311q38 -76 61 -143.5t23 -137.5q0 -184 -114.5 -299t-315.5 -115q-138 0 -213.5 73.5t-75.5 196.5q0 80 29.5 160.5t72.5 132.5l18 -8
q-22 -54 -35 -106.5t-13 -100.5q0 -106 67 -154.5t190 -48.5q99 0 191.5 37t144.5 114l-5 -20q1 85 -23 157t-68 141zM1019 664q57 -41 96 -96l-96 -95q-36 53 -95 95zM1069 -153q57 -41 96 -96l-96 -95q-36 53 -95 95z" />
    <glyph glyph-name="uni069B.init" unicode="&#x69b;" horiz-adv-x="843" 
d="M0 0q-17 0 -31 18t-14 54q0 35 14 54t31 19q74 0 109.5 13.5t56 46t50.5 89.5h15q-25 -74 20.5 -111.5t118.5 -37.5q51 0 92 30.5t67.5 66.5t32.5 52h15q-14 -59 9.5 -87t59 -36t56.5 -8q15 0 34.5 4t19.5 17q0 21 -7 48t-19 37l49 97q14 -13 19 -47.5t5 -51.5
q0 -27 -6.5 -68.5t-21 -83t-37.5 -69.5t-56 -28q-47 0 -86.5 26t-66.5 65l14 1q-84 -110 -185 -110q-67 0 -112 29.5t-71 55.5l12 5q-37 -55 -77.5 -72.5t-109.5 -17.5zM480 -325q57 -41 96 -96l-96 -95q-36 53 -95 95zM387 -130q57 -41 96 -96l-96 -95q-36 53 -95 95z
M573 -130q57 -41 96 -96l-96 -95q-36 53 -95 95z" />
    <glyph glyph-name="uni069B.medi" unicode="&#x69b;" horiz-adv-x="1032" 
d="M1032 0q-71 0 -109 5t-58 21t-37 47l9 4q-15 -26 -52 -51.5t-83 -25.5q-88 0 -121 68l9 -2q-21 -25 -64.5 -45.5t-118.5 -20.5q-53 0 -95 15t-76 62l10 2q-36 -33 -66 -50t-70.5 -23t-109.5 -6q-38 0 -38 73q0 72 38 72q97 0 148 12t78 44t51 93h15q-11 -55 7.5 -87.5
t53.5 -47t73 -14.5q72 0 128 26.5t95 122.5h15q-16 -82 1 -115.5t72 -33.5q42 0 70 28t45 63.5t26 57.5h15q-13 -68 -9 -99.5t38.5 -40.5t109.5 -9q51 0 51 -72q0 -73 -51 -73zM586 -350q57 -41 96 -96l-96 -95q-36 53 -95 95zM493 -155q57 -41 96 -96l-96 -95
q-36 53 -95 95zM679 -155q57 -41 96 -96l-96 -95q-36 53 -95 95z" />
    <glyph glyph-name="uni069B.fina" unicode="&#x69b;" horiz-adv-x="1471" 
d="M1151 0q-44 0 -85.5 24t-61.5 56l75 133q12 -30 34.5 -47.5t62.5 -17.5q46 0 75 27t45 62t24 57h15q-15 -70 -10 -101.5t39 -39.5t107 -8q45 0 45 -72q0 -73 -45 -73q-91 0 -138 11t-75 58l9 3q-15 -24 -46.5 -48t-69.5 -24zM864 -15q-25 0 -65 12t-65 29l-24 157
q41 -32 73 -42.5t89 -10.5q55 0 103 36t79 86t34 90l18 -6q0 -53 -15 -113.5t-45 -114.5t-75.5 -88.5t-106.5 -34.5zM675 311q38 -76 61 -143.5t23 -137.5q0 -184 -114.5 -299t-315.5 -115q-138 0 -213.5 73.5t-75.5 196.5q0 80 29.5 160.5t72.5 132.5l18 -8
q-22 -54 -35 -106.5t-13 -100.5q0 -106 67 -154.5t190 -48.5q99 0 191.5 37t144.5 114l-5 -20q1 85 -23 157t-68 141zM1069 -357q57 -41 96 -96l-96 -95q-36 53 -95 95zM976 -162q57 -41 96 -96l-96 -95q-36 53 -95 95zM1162 -162q57 -41 96 -96l-96 -95q-36 53 -95 95z" />
    <glyph glyph-name="uni069C.init" unicode="&#x69c;" horiz-adv-x="843" 
d="M0 0q-17 0 -31 18t-14 54q0 35 14 54t31 19q74 0 109.5 13.5t56 46t50.5 89.5h15q-25 -74 20.5 -111.5t118.5 -37.5q51 0 92 30.5t67.5 66.5t32.5 52h15q-14 -59 9.5 -87t59 -36t56.5 -8q15 0 34.5 4t19.5 17q0 21 -7 48t-19 37l49 97q14 -13 19 -47.5t5 -51.5
q0 -27 -6.5 -68.5t-21 -83t-37.5 -69.5t-56 -28q-47 0 -86.5 26t-66.5 65l14 1q-84 -110 -185 -110q-67 0 -112 29.5t-71 55.5l12 5q-37 -55 -77.5 -72.5t-109.5 -17.5zM482 867q57 -41 96 -96l-96 -95q-36 53 -95 95zM390 672q57 -41 96 -96l-96 -95q-36 53 -95 95z
M576 672q57 -41 96 -96l-96 -95q-36 53 -95 95zM480 -325q57 -41 96 -96l-96 -95q-36 53 -95 95zM387 -130q57 -41 96 -96l-96 -95q-36 53 -95 95zM573 -130q57 -41 96 -96l-96 -95q-36 53 -95 95z" />
    <glyph glyph-name="uni069C.medi" unicode="&#x69c;" horiz-adv-x="1032" 
d="M1032 0q-71 0 -109 5t-58 21t-37 47l9 4q-15 -26 -52 -51.5t-83 -25.5q-88 0 -121 68l9 -2q-21 -25 -64.5 -45.5t-118.5 -20.5q-53 0 -95 15t-76 62l10 2q-36 -33 -66 -50t-70.5 -23t-109.5 -6q-38 0 -38 73q0 72 38 72q97 0 148 12t78 44t51 93h15q-11 -55 7.5 -87.5
t53.5 -47t73 -14.5q72 0 128 26.5t95 122.5h15q-16 -82 1 -115.5t72 -33.5q42 0 70 28t45 63.5t26 57.5h15q-13 -68 -9 -99.5t38.5 -40.5t109.5 -9q51 0 51 -72q0 -73 -51 -73zM585 867q57 -41 96 -96l-96 -95q-36 53 -95 95zM493 672q57 -41 96 -96l-96 -95q-36 53 -95 95z
M679 672q57 -41 96 -96l-96 -95q-36 53 -95 95zM586 -350q57 -41 96 -96l-96 -95q-36 53 -95 95zM493 -155q57 -41 96 -96l-96 -95q-36 53 -95 95zM679 -155q57 -41 96 -96l-96 -95q-36 53 -95 95z" />
    <glyph glyph-name="uni069C.fina" unicode="&#x69c;" horiz-adv-x="1471" 
d="M1151 0q-44 0 -85.5 24t-61.5 56l75 133q12 -30 34.5 -47.5t62.5 -17.5q46 0 75 27t45 62t24 57h15q-15 -70 -10 -101.5t39 -39.5t107 -8q45 0 45 -72q0 -73 -45 -73q-91 0 -138 11t-75 58l9 3q-15 -24 -46.5 -48t-69.5 -24zM864 -15q-25 0 -65 12t-65 29l-24 157
q41 -32 73 -42.5t89 -10.5q55 0 103 36t79 86t34 90l18 -6q0 -53 -15 -113.5t-45 -114.5t-75.5 -88.5t-106.5 -34.5zM675 311q38 -76 61 -143.5t23 -137.5q0 -184 -114.5 -299t-315.5 -115q-138 0 -213.5 73.5t-75.5 196.5q0 80 29.5 160.5t72.5 132.5l18 -8
q-22 -54 -35 -106.5t-13 -100.5q0 -106 67 -154.5t190 -48.5q99 0 191.5 37t144.5 114l-5 -20q1 85 -23 157t-68 141zM1018 867q57 -41 96 -96l-96 -95q-36 53 -95 95zM926 672q57 -41 96 -96l-96 -95q-36 53 -95 95zM1112 672q57 -41 96 -96l-96 -95q-36 53 -95 95z
M1069 -357q57 -41 96 -96l-96 -95q-36 53 -95 95zM976 -162q57 -41 96 -96l-96 -95q-36 53 -95 95zM1162 -162q57 -41 96 -96l-96 -95q-36 53 -95 95z" />
    <glyph glyph-name="uni069D.init" unicode="&#x69d;" horiz-adv-x="1143" 
d="M439 130l22 -145q-127 0 -202 33.5t-98 92.5l12 10q-35 -69 -69.5 -95t-93.5 -26h-15q-17 0 -30.5 20t-13.5 56q0 35 13.5 52t30.5 17h5q77 0 114.5 41t55.5 108h15q9 -68 47 -103.5t93 -48t114 -12.5zM951 528q71 0 111.5 -39t40.5 -102q0 -96 -59 -170.5t-154.5 -126
t-208.5 -78.5t-222 -27l-23 145q110 0 214 12t187 34.5t132 53.5t49 70q0 43 -46 75.5t-112 32.5q-25 0 -77 -25.5t-117 -68t-130 -94t-116 -103.5l-57 4q29 32 81.5 82.5t117.5 106.5t135 105.5t135.5 81t118.5 31.5zM461 -154q57 -41 96 -96l-96 -95q-36 53 -95 95z
M647 -154q57 -41 96 -96l-96 -95q-36 53 -95 95z" />
    <glyph glyph-name="uni069D.medi" unicode="&#x69d;" horiz-adv-x="1143" 
d="M439 130l22 -145q-127 0 -202 33.5t-98 92.5l12 10q-35 -69 -69.5 -95t-93.5 -26h-15q-17 0 -30.5 20t-13.5 56q0 35 13.5 52t30.5 17h5q77 0 114.5 41t55.5 108h15q9 -68 47 -103.5t93 -48t114 -12.5zM951 528q71 0 111.5 -39t40.5 -102q0 -96 -59 -170.5t-154.5 -126
t-208.5 -78.5t-222 -27l-23 145q110 0 214 12t187 34.5t132 53.5t49 70q0 43 -46 75.5t-112 32.5q-25 0 -77 -25.5t-117 -68t-130 -94t-116 -103.5l-57 4q29 32 81.5 82.5t117.5 106.5t135 105.5t135.5 81t118.5 31.5zM862 122q66 16 142.5 19.5t138.5 3.5q12 0 22.5 -18
t10.5 -55q0 -39 -11.5 -55.5t-21.5 -16.5q-102 0 -169.5 5.5t-122 19.5t-118.5 41zM461 -154q57 -41 96 -96l-96 -95q-36 53 -95 95zM647 -154q57 -41 96 -96l-96 -95q-36 53 -95 95z" />
    <glyph glyph-name="uni069D.fina" unicode="&#x69d;" horiz-adv-x="1575" 
d="M871 130l23 -145q-104 0 -157 23l-20 153q61 -31 154 -31zM675 313q38 -77 61 -144.5t23 -136.5q0 -185 -114.5 -299.5t-315.5 -114.5q-138 0 -213.5 73t-75.5 196q0 80 29.5 160.5t72.5 133.5l18 -8q-22 -55 -35 -107t-13 -100q0 -107 67 -155t190 -48q99 0 191.5 36.5
t144.5 114.5l-5 -20q1 84 -23 156.5t-68 140.5zM1383 528q71 0 111.5 -39t40.5 -102q0 -96 -58.5 -170.5t-154.5 -126t-209 -78.5t-221 -27l-23 145q109 0 213 12t187 34.5t132 53.5t49 70q0 43 -45.5 75.5t-112.5 32.5q-25 0 -76.5 -25.5t-116.5 -68t-130.5 -94
t-116.5 -103.5l-57 4q30 32 82 82.5t117.5 106.5t135 105.5t135.5 81t118 31.5zM1294 122q66 16 142.5 19.5t138.5 3.5q12 0 22.5 -18t10.5 -55q0 -39 -11.5 -55.5t-21.5 -16.5q-102 0 -169.5 5.5t-122 19.5t-118.5 41zM991 -154q57 -41 96 -96l-96 -95q-36 53 -95 95z
M1177 -154q57 -41 96 -96l-96 -95q-36 53 -95 95z" />
    <glyph glyph-name="uni069E.init" unicode="&#x69e;" horiz-adv-x="1143" 
d="M439 130l22 -145q-127 0 -202 33.5t-98 92.5l12 10q-35 -69 -69.5 -95t-93.5 -26h-15q-17 0 -30.5 20t-13.5 56q0 35 13.5 52t30.5 17h5q77 0 114.5 41t55.5 108h15q9 -68 47 -103.5t93 -48t114 -12.5zM951 528q71 0 111.5 -39t40.5 -102q0 -96 -59 -170.5t-154.5 -126
t-208.5 -78.5t-222 -27l-23 145q110 0 214 12t187 34.5t132 53.5t49 70q0 43 -46 75.5t-112 32.5q-25 0 -77 -25.5t-117 -68t-130 -94t-116 -103.5l-57 4q29 32 81.5 82.5t117.5 106.5t135 105.5t135.5 81t118.5 31.5zM552 947q57 -41 96 -96l-96 -95q-36 53 -95 95z
M461 752q57 -41 96 -96l-96 -95q-36 53 -95 95zM647 752q57 -41 96 -96l-96 -95q-36 53 -95 95z" />
    <glyph glyph-name="uni069E.medi" unicode="&#x69e;" horiz-adv-x="1143" 
d="M439 130l22 -145q-127 0 -202 33.5t-98 92.5l12 10q-35 -69 -69.5 -95t-93.5 -26h-15q-17 0 -30.5 20t-13.5 56q0 35 13.5 52t30.5 17h5q77 0 114.5 41t55.5 108h15q9 -68 47 -103.5t93 -48t114 -12.5zM951 528q71 0 111.5 -39t40.5 -102q0 -96 -59 -170.5t-154.5 -126
t-208.5 -78.5t-222 -27l-23 145q110 0 214 12t187 34.5t132 53.5t49 70q0 43 -46 75.5t-112 32.5q-25 0 -77 -25.5t-117 -68t-130 -94t-116 -103.5l-57 4q29 32 81.5 82.5t117.5 106.5t135 105.5t135.5 81t118.5 31.5zM862 122q66 16 142.5 19.5t138.5 3.5q12 0 22.5 -18
t10.5 -55q0 -39 -11.5 -55.5t-21.5 -16.5q-102 0 -169.5 5.5t-122 19.5t-118.5 41zM552 947q57 -41 96 -96l-96 -95q-36 53 -95 95zM461 752q57 -41 96 -96l-96 -95q-36 53 -95 95zM647 752q57 -41 96 -96l-96 -95q-36 53 -95 95z" />
    <glyph glyph-name="uni069E.fina" unicode="&#x69e;" horiz-adv-x="1575" 
d="M871 130l23 -145q-104 0 -157 23l-20 153q61 -31 154 -31zM675 313q38 -77 61 -144.5t23 -136.5q0 -185 -114.5 -299.5t-315.5 -114.5q-138 0 -213.5 73t-75.5 196q0 80 29.5 160.5t72.5 133.5l18 -8q-22 -55 -35 -107t-13 -100q0 -107 67 -155t190 -48q99 0 191.5 36.5
t144.5 114.5l-5 -20q1 84 -23 156.5t-68 140.5zM1383 528q71 0 111.5 -39t40.5 -102q0 -96 -58.5 -170.5t-154.5 -126t-209 -78.5t-221 -27l-23 145q109 0 213 12t187 34.5t132 53.5t49 70q0 43 -45.5 75.5t-112.5 32.5q-25 0 -76.5 -25.5t-116.5 -68t-130.5 -94
t-116.5 -103.5l-57 4q30 32 82 82.5t117.5 106.5t135 105.5t135.5 81t118 31.5zM1294 122q66 16 142.5 19.5t138.5 3.5q12 0 22.5 -18t10.5 -55q0 -39 -11.5 -55.5t-21.5 -16.5q-102 0 -169.5 5.5t-122 19.5t-118.5 41zM985 947q57 -41 96 -96l-96 -95q-36 53 -95 95z
M893 752q57 -41 96 -96l-96 -95q-36 53 -95 95zM1079 752q57 -41 96 -96l-96 -95q-36 53 -95 95z" />
    <glyph glyph-name="uni069F.init" unicode="&#x69f;" horiz-adv-x="799" 
d="M0 0q-24 0 -33 19.5t-9 52.5q0 32 9.5 52.5t32.5 20.5h95l23 -145h-118zM187 1164l12 -7q-74 -136 80 -183l-47 -118q-56 25 -101 58.5t-45 72.5q0 33 21.5 70.5t46 67.5t33.5 39zM607 543q71 0 111.5 -39t40.5 -102q0 -96 -58.5 -170.5t-154.5 -126t-209 -78.5t-221 -27
l-23 145q109 0 213 12t187 34.5t132 53.5t49 70q0 43 -45.5 75.5t-112.5 32.5q-25 0 -76.5 -25.5t-116.5 -68t-130.5 -94t-116.5 -103.5l-57 4q30 32 82 82.5t117.5 106.5t135 105.5t135.5 81t118 31.5zM161 231q2 177 -4.5 353t-19.5 353q19 -13 38.5 -25.5t38.5 -24.5
q15 -303 0 -606q-13 -13 -26.5 -25.5t-26.5 -24.5zM535 1103q57 -41 96 -96l-96 -95q-36 53 -95 95zM444 908q57 -41 96 -96l-96 -95q-36 53 -95 95zM630 908q57 -41 96 -96l-96 -95q-36 53 -95 95z" />
    <glyph glyph-name="uni069F.medi" unicode="&#x69f;" horiz-adv-x="801" 
d="M0 0q-24 0 -33 19.5t-9 52.5q0 32 9.5 52.5t32.5 20.5h95l23 -145h-118zM187 1164l12 -7q-74 -136 80 -183l-47 -118q-56 25 -101 58.5t-45 72.5q0 33 21.5 70.5t46 67.5t33.5 39zM607 543q71 0 111.5 -39t40.5 -102q0 -96 -58.5 -170.5t-154.5 -126t-209 -78.5t-221 -27
l-23 145q109 0 213 12t187 34.5t132 53.5t49 70q0 43 -45.5 75.5t-112.5 32.5q-25 0 -76.5 -25.5t-116.5 -68t-130.5 -94t-116.5 -103.5l-57 4q30 32 82 82.5t117.5 106.5t135 105.5t135.5 81t118 31.5zM161 231q2 177 -4.5 353t-19.5 353q19 -13 38.5 -25.5t38.5 -24.5
q15 -303 0 -606q-13 -13 -26.5 -25.5t-26.5 -24.5zM520 122q66 16 142.5 19.5t138.5 3.5q12 0 22.5 -18t10.5 -55q0 -39 -11.5 -55.5t-21.5 -16.5q-102 0 -169.5 5.5t-122 19.5t-118.5 41zM537 1103q57 -41 96 -96l-96 -95q-36 53 -95 95zM445 908q57 -41 96 -96l-96 -95
q-36 53 -95 95zM631 908q57 -41 96 -96l-96 -95q-36 53 -95 95z" />
    <glyph glyph-name="uni069F.fina" unicode="&#x69f;" horiz-adv-x="1086" 
d="M404 -11q-145 0 -250 55.5t-167 135.5l7 14q81 -29 185.5 -44.5t201.5 -15.5zM479 1164l13 -7q-74 -136 79 -183l-47 -118q-55 25 -100.5 58.5t-45.5 72.5q0 33 21.5 70.5t46 67.5t33.5 39zM894 532q71 0 111.5 -39.5t40.5 -102.5q0 -96 -59 -170.5t-154.5 -126
t-208.5 -78t-222 -26.5l-23 145q110 0 214 11.5t187 34t132 54t49 69.5q0 43 -46 75.5t-112 32.5q-25 0 -77 -25.5t-117 -67.5t-130 -93.5t-116 -104.5l-57 4q29 32 81.5 82.5t117.5 106.5t135 106t135.5 81.5t118.5 31.5zM448 231q2 177 -4.5 353t-19.5 353
q19 -13 38.5 -25.5t38.5 -24.5q15 -303 0 -606q-13 -13 -26.5 -25.5t-26.5 -24.5zM805 122q66 16 142.5 19.5t138.5 3.5q12 0 22.5 -18t10.5 -55q0 -39 -11.5 -55.5t-21.5 -16.5q-102 0 -169.5 5.5t-122 19.5t-118.5 41zM828 1098q57 -41 96 -96l-96 -95q-36 53 -95 95z
M736 903q57 -41 96 -96l-96 -95q-36 53 -95 95zM922 903q57 -41 96 -96l-96 -95q-36 53 -95 95z" />
    <glyph glyph-name="uni06A0.init" unicode="&#x6a0;" horiz-adv-x="750" 
d="M0 0q-46 0 -46 73q0 72 46 72q82 0 154.5 5t151.5 18.5t176 38t228 64.5l-39 -107q-79 -41 -187.5 -79t-232.5 -61.5t-251 -23.5zM283 111q-31 19 -55 57t-38 78t-14 63q0 46 15.5 100.5t44.5 103.5t71 80.5t96 31.5q68 0 128.5 -42t89.5 -101l-11 -10q-42 19 -79 28
t-85 9q-45 0 -91 -22t-77.5 -50.5t-31.5 -49.5q0 -32 34.5 -81.5t87 -87.5t107.5 -38zM401 1155q57 -41 96 -96l-96 -95q-36 53 -95 95zM310 960q57 -41 96 -96l-96 -95q-36 53 -95 95zM496 960q57 -41 96 -96l-96 -95q-36 53 -95 95z" />
    <glyph glyph-name="uni06A0.medi" unicode="&#x6a0;" horiz-adv-x="709" 
d="M163 309q0 72 33 115.5t83 63t101 19.5q67 0 120 -30t53 -91q0 -44 -40 -108.5t-113.5 -128t-175 -106.5t-224.5 -43q-43 0 -43 74q0 71 43 71q137 0 241 26t148 82h83q35 -49 95 -78.5t142 -29.5q19 0 32 -18t13 -53q0 -36 -13 -55t-32 -19q-101 0 -165.5 31t-108 77.5
t-80.5 92.5t-81 77t-111 31zM396 1034q57 -41 96 -96l-96 -95q-36 53 -95 95zM304 839q57 -41 96 -96l-96 -95q-36 53 -95 95zM490 839q57 -41 96 -96l-96 -95q-36 53 -95 95z" />
    <glyph glyph-name="uni06A0.fina" unicode="&#x6a0;" horiz-adv-x="760" 
d="M563 -700q-200 1 -314 54t-161.5 149.5t-47.5 225.5q0 109 35.5 208.5t94 181.5t126.5 137l4 -15q-55 49 -150 48q3 103 68.5 154t152.5 51q60 0 115.5 -25.5t55.5 -82.5q0 -52 -32 -87.5t-82 -66.5t-106.5 -67.5t-106.5 -89.5t-81.5 -133t-31.5 -199q0 -99 37 -157.5
t103.5 -87t153.5 -37t186 -8.5h215v-24zM760 0q-103 0 -179.5 22.5t-140 73.5t-126.5 136l91 34q52 -53 134.5 -87t220.5 -34q43 0 43 -68q0 -33 -10.5 -55t-32.5 -22zM358 1023q57 -41 96 -96l-96 -95q-36 53 -95 95zM267 828q57 -41 96 -96l-96 -95q-36 53 -95 95z
M453 828q57 -41 96 -96l-96 -95q-36 53 -95 95z" />
    <glyph glyph-name="uni06A1.init" unicode="&#x6a1;" horiz-adv-x="503" 
d="M0 0q-27 0 -37 23.5t-10 47.5t10 49t37 25q94 0 182 6.5t148.5 23.5t72.5 48q5 44 -10 100.5t-41.5 110t-56 88.5t-54.5 35q-22 0 -49 -32t-27 -55q0 -15 14.5 -31t49.5 -16q34 0 67 23t42 59l40 -73q-15 -52 -62.5 -92t-96.5 -40q-60 0 -84.5 34t-24.5 99q0 30 13.5 73
t36 84.5t50 69t55.5 27.5q38 0 72.5 -36.5t61 -96t41.5 -129t15 -135.5q0 -58 -17 -112.5t-44 -85.5q-18 -20 -76.5 -41.5t-142 -36t-175.5 -14.5z" />
    <glyph glyph-name="uni06A1.medi" unicode="&#x6a1;" horiz-adv-x="513" 
d="M296 599q37 0 59.5 -30t33 -71.5t10.5 -75.5q0 -126 -51.5 -221t-141.5 -148t-206 -53q-47 0 -47 72q0 32 11 52.5t36 20.5q99 0 178.5 32t125.5 79t46 91q0 16 -10 41.5t-29.5 46.5t-48.5 21q-28 0 -52 -24t-38.5 -53t-14.5 -45q0 -38 45 -82t125 -75.5t186 -31.5
q29 0 41.5 -20.5t12.5 -52.5q0 -72 -54 -72q-115 0 -206 36.5t-143.5 98.5t-52.5 138q0 40 12.5 95t36.5 107.5t58.5 88t77.5 35.5z" />
    <glyph glyph-name="uni06A1.fina" unicode="&#x6a1;" horiz-adv-x="1298" 
d="M454 -30q-69 0 -141.5 12t-134.5 39t-100 73t-38 114q0 64 30.5 132t91.5 128l13 -8q-21 -38 -31 -76t-10 -70q0 -79 54.5 -122.5t143 -60t190.5 -16.5q113 0 222 20.5t197.5 54t141 74.5t52.5 83q0 16 -11 41.5t-31 46.5t-46 21q-28 0 -52 -24t-38.5 -53t-14.5 -45
q0 -38 45 -82t125 -75.5t186 -31.5q29 0 41.5 -20.5t12.5 -52.5q0 -72 -54 -72q-115 0 -206 36.5t-143.5 98.5t-52.5 138q0 40 12.5 95t36.5 107.5t58.5 88t77.5 35.5q37 0 59.5 -30.5t33 -71.5t10.5 -75q0 -149 -94.5 -249.5t-259 -151.5t-376.5 -51z" />
    <glyph glyph-name="uni06A2.init" unicode="&#x6a2;" horiz-adv-x="503" 
d="M0 0q-27 0 -37 23.5t-10 47.5t10 49t37 25q94 0 182 6.5t148.5 23.5t72.5 48q5 44 -10 100.5t-41.5 110t-56 88.5t-54.5 35q-22 0 -49 -32t-27 -55q0 -15 14.5 -31t49.5 -16q34 0 67 23t42 59l40 -73q-15 -52 -62.5 -92t-96.5 -40q-60 0 -84.5 34t-24.5 99q0 30 13.5 73
t36 84.5t50 69t55.5 27.5q38 0 72.5 -36.5t61 -96t41.5 -129t15 -135.5q0 -58 -17 -112.5t-44 -85.5q-18 -20 -76.5 -41.5t-142 -36t-175.5 -14.5zM237 -134q57 -41 96 -96l-96 -95q-36 53 -95 95z" />
    <glyph glyph-name="uni06A2.medi" unicode="&#x6a2;" horiz-adv-x="513" 
d="M296 599q37 0 59.5 -30t33 -71.5t10.5 -75.5q0 -126 -51.5 -221t-141.5 -148t-206 -53q-47 0 -47 72q0 32 11 52.5t36 20.5q99 0 178.5 32t125.5 79t46 91q0 16 -10 41.5t-29.5 46.5t-48.5 21q-28 0 -52 -24t-38.5 -53t-14.5 -45q0 -38 45 -82t125 -75.5t186 -31.5
q29 0 41.5 -20.5t12.5 -52.5q0 -72 -54 -72q-115 0 -206 36.5t-143.5 98.5t-52.5 138q0 40 12.5 95t36.5 107.5t58.5 88t77.5 35.5zM199 -134q57 -41 96 -96l-96 -95q-36 53 -95 95z" />
    <glyph glyph-name="uni06A2.fina" unicode="&#x6a2;" horiz-adv-x="1298" 
d="M454 -30q-69 0 -141.5 12t-134.5 39t-100 73t-38 114q0 64 30.5 132t91.5 128l13 -8q-21 -38 -31 -76t-10 -70q0 -79 54.5 -122.5t143 -60t190.5 -16.5q113 0 222 20.5t197.5 54t141 74.5t52.5 83q0 16 -11 41.5t-31 46.5t-46 21q-28 0 -52 -24t-38.5 -53t-14.5 -45
q0 -38 45 -82t125 -75.5t186 -31.5q29 0 41.5 -20.5t12.5 -52.5q0 -72 -54 -72q-115 0 -206 36.5t-143.5 98.5t-52.5 138q0 40 12.5 95t36.5 107.5t58.5 88t77.5 35.5q37 0 59.5 -30.5t33 -71.5t10.5 -75q0 -149 -94.5 -249.5t-259 -151.5t-376.5 -51zM930 -134
q57 -41 96 -96l-96 -95q-36 53 -95 95z" />
    <glyph glyph-name="uni06A3.init" unicode="&#x6a3;" horiz-adv-x="503" 
d="M0 0q-27 0 -37 23.5t-10 47.5t10 49t37 25q94 0 182 6.5t148.5 23.5t72.5 48q5 44 -10 100.5t-41.5 110t-56 88.5t-54.5 35q-22 0 -49 -32t-27 -55q0 -15 14.5 -31t49.5 -16q34 0 67 23t42 59l40 -73q-15 -52 -62.5 -92t-96.5 -40q-60 0 -84.5 34t-24.5 99q0 30 13.5 73
t36 84.5t50 69t55.5 27.5q38 0 72.5 -36.5t61 -96t41.5 -129t15 -135.5q0 -58 -17 -112.5t-44 -85.5q-18 -20 -76.5 -41.5t-142 -36t-175.5 -14.5zM264 1011q57 -41 96 -96l-96 -95q-36 53 -95 95zM237 -134q57 -41 96 -96l-96 -95q-36 53 -95 95z" />
    <glyph glyph-name="uni06A3.medi" unicode="&#x6a3;" horiz-adv-x="513" 
d="M296 599q37 0 59.5 -30t33 -71.5t10.5 -75.5q0 -126 -51.5 -221t-141.5 -148t-206 -53q-47 0 -47 72q0 32 11 52.5t36 20.5q99 0 178.5 32t125.5 79t46 91q0 16 -10 41.5t-29.5 46.5t-48.5 21q-28 0 -52 -24t-38.5 -53t-14.5 -45q0 -38 45 -82t125 -75.5t186 -31.5
q29 0 41.5 -20.5t12.5 -52.5q0 -72 -54 -72q-115 0 -206 36.5t-143.5 98.5t-52.5 138q0 40 12.5 95t36.5 107.5t58.5 88t77.5 35.5zM282 925q57 -41 96 -96l-96 -95q-36 53 -95 95zM199 -134q57 -41 96 -96l-96 -95q-36 53 -95 95z" />
    <glyph glyph-name="uni06A3.fina" unicode="&#x6a3;" horiz-adv-x="1298" 
d="M454 -30q-69 0 -141.5 12t-134.5 39t-100 73t-38 114q0 64 30.5 132t91.5 128l13 -8q-21 -38 -31 -76t-10 -70q0 -79 54.5 -122.5t143 -60t190.5 -16.5q113 0 222 20.5t197.5 54t141 74.5t52.5 83q0 16 -11 41.5t-31 46.5t-46 21q-28 0 -52 -24t-38.5 -53t-14.5 -45
q0 -38 45 -82t125 -75.5t186 -31.5q29 0 41.5 -20.5t12.5 -52.5q0 -72 -54 -72q-115 0 -206 36.5t-143.5 98.5t-52.5 138q0 40 12.5 95t36.5 107.5t58.5 88t77.5 35.5q37 0 59.5 -30.5t33 -71.5t10.5 -75q0 -149 -94.5 -249.5t-259 -151.5t-376.5 -51zM1068 912
q57 -41 96 -96l-96 -95q-36 53 -95 95zM930 -134q57 -41 96 -96l-96 -95q-36 53 -95 95z" />
    <glyph glyph-name="uni06A4.init" unicode="&#x6a4;" horiz-adv-x="503" arabic-form="initial" 
d="M0 0q-27 0 -37 23.5t-10 47.5t10 49t37 25q94 0 182 6.5t148.5 23.5t72.5 48q5 44 -10 100.5t-41.5 110t-56 88.5t-54.5 35q-22 0 -49 -32t-27 -55q0 -15 14.5 -31t49.5 -16q34 0 67 23t42 59l40 -73q-15 -52 -62.5 -92t-96.5 -40q-60 0 -84.5 34t-24.5 99q0 30 13.5 73
t36 84.5t50 69t55.5 27.5q38 0 72.5 -36.5t61 -96t41.5 -129t15 -135.5q0 -58 -17 -112.5t-44 -85.5q-18 -20 -76.5 -41.5t-142 -36t-175.5 -14.5zM263 1214q57 -41 96 -96l-96 -95q-36 53 -95 95zM171 1019q57 -41 96 -96l-96 -95q-36 53 -95 95zM357 1019q57 -41 96 -96
l-96 -95q-36 53 -95 95z" />
    <glyph glyph-name="uni06A4.medi" unicode="&#x6a4;" horiz-adv-x="513" arabic-form="medial" 
d="M296 599q37 0 59.5 -30t33 -71.5t10.5 -75.5q0 -126 -51.5 -221t-141.5 -148t-206 -53q-47 0 -47 72q0 32 11 52.5t36 20.5q99 0 178.5 32t125.5 79t46 91q0 16 -10 41.5t-29.5 46.5t-48.5 21q-28 0 -52 -24t-38.5 -53t-14.5 -45q0 -38 45 -82t125 -75.5t186 -31.5
q29 0 41.5 -20.5t12.5 -52.5q0 -72 -54 -72q-115 0 -206 36.5t-143.5 98.5t-52.5 138q0 40 12.5 95t36.5 107.5t58.5 88t77.5 35.5zM281 1128q57 -41 96 -96l-96 -95q-36 53 -95 95zM189 933q57 -41 96 -96l-96 -95q-36 53 -95 95zM375 933q57 -41 96 -96l-96 -95
q-36 53 -95 95z" />
    <glyph glyph-name="uni06A4.fina" unicode="&#x6a4;" horiz-adv-x="1298" arabic-form="final" 
d="M454 -30q-69 0 -141.5 12t-134.5 39t-100 73t-38 114q0 64 30.5 132t91.5 128l13 -8q-21 -38 -31 -76t-10 -70q0 -79 54.5 -122.5t143 -60t190.5 -16.5q113 0 222 20.5t197.5 54t141 74.5t52.5 83q0 16 -11 41.5t-31 46.5t-46 21q-28 0 -52 -24t-38.5 -53t-14.5 -45
q0 -38 45 -82t125 -75.5t186 -31.5q29 0 41.5 -20.5t12.5 -52.5q0 -72 -54 -72q-115 0 -206 36.5t-143.5 98.5t-52.5 138q0 40 12.5 95t36.5 107.5t58.5 88t77.5 35.5q37 0 59.5 -30.5t33 -71.5t10.5 -75q0 -149 -94.5 -249.5t-259 -151.5t-376.5 -51zM1067 1115
q57 -41 96 -96l-96 -95q-36 53 -95 95zM975 920q57 -41 96 -96l-96 -95q-36 53 -95 95zM1161 920q57 -41 96 -96l-96 -95q-36 53 -95 95z" />
    <glyph glyph-name="uni06A5.init" unicode="&#x6a5;" horiz-adv-x="503" 
d="M0 0q-27 0 -37 23.5t-10 47.5t10 49t37 25q94 0 182 6.5t148.5 23.5t72.5 48q5 44 -10 100.5t-41.5 110t-56 88.5t-54.5 35q-22 0 -49 -32t-27 -55q0 -15 14.5 -31t49.5 -16q34 0 67 23t42 59l40 -73q-15 -52 -62.5 -92t-96.5 -40q-60 0 -84.5 34t-24.5 99q0 30 13.5 73
t36 84.5t50 69t55.5 27.5q38 0 72.5 -36.5t61 -96t41.5 -129t15 -135.5q0 -58 -17 -112.5t-44 -85.5q-18 -20 -76.5 -41.5t-142 -36t-175.5 -14.5zM237 -338q57 -41 96 -96l-96 -95q-36 53 -95 95zM144 -143q57 -41 96 -96l-96 -95q-36 53 -95 95zM330 -143q57 -41 96 -96
l-96 -95q-36 53 -95 95z" />
    <glyph glyph-name="uni06A5.medi" unicode="&#x6a5;" horiz-adv-x="513" 
d="M296 599q37 0 59.5 -30t33 -71.5t10.5 -75.5q0 -126 -51.5 -221t-141.5 -148t-206 -53q-47 0 -47 72q0 32 11 52.5t36 20.5q99 0 178.5 32t125.5 79t46 91q0 16 -10 41.5t-29.5 46.5t-48.5 21q-28 0 -52 -24t-38.5 -53t-14.5 -45q0 -38 45 -82t125 -75.5t186 -31.5
q29 0 41.5 -20.5t12.5 -52.5q0 -72 -54 -72q-115 0 -206 36.5t-143.5 98.5t-52.5 138q0 40 12.5 95t36.5 107.5t58.5 88t77.5 35.5zM199 -338q57 -41 96 -96l-96 -95q-36 53 -95 95zM106 -143q57 -41 96 -96l-96 -95q-36 53 -95 95zM292 -143q57 -41 96 -96l-96 -95
q-36 53 -95 95z" />
    <glyph glyph-name="uni06A5.fina" unicode="&#x6a5;" horiz-adv-x="1298" 
d="M454 -30q-69 0 -141.5 12t-134.5 39t-100 73t-38 114q0 64 30.5 132t91.5 128l13 -8q-21 -38 -31 -76t-10 -70q0 -79 54.5 -122.5t143 -60t190.5 -16.5q113 0 222 20.5t197.5 54t141 74.5t52.5 83q0 16 -11 41.5t-31 46.5t-46 21q-28 0 -52 -24t-38.5 -53t-14.5 -45
q0 -38 45 -82t125 -75.5t186 -31.5q29 0 41.5 -20.5t12.5 -52.5q0 -72 -54 -72q-115 0 -206 36.5t-143.5 98.5t-52.5 138q0 40 12.5 95t36.5 107.5t58.5 88t77.5 35.5q37 0 59.5 -30.5t33 -71.5t10.5 -75q0 -149 -94.5 -249.5t-259 -151.5t-376.5 -51zM930 -338
q57 -41 96 -96l-96 -95q-36 53 -95 95zM837 -143q57 -41 96 -96l-96 -95q-36 53 -95 95zM1023 -143q57 -41 96 -96l-96 -95q-36 53 -95 95z" />
    <glyph glyph-name="uni06A6.init" unicode="&#x6a6;" horiz-adv-x="503" arabic-form="initial" 
d="M0 0q-27 0 -37 23.5t-10 47.5t10 49t37 25q94 0 182 6.5t148.5 23.5t72.5 48q5 44 -10 100.5t-41.5 110t-56 88.5t-54.5 35q-22 0 -49 -32t-27 -55q0 -15 14.5 -31t49.5 -16q34 0 67 23t42 59l40 -73q-15 -52 -62.5 -92t-96.5 -40q-60 0 -84.5 34t-24.5 99q0 30 13.5 73
t36 84.5t50 69t55.5 27.5q38 0 72.5 -36.5t61 -96t41.5 -129t15 -135.5q0 -58 -17 -112.5t-44 -85.5q-18 -20 -76.5 -41.5t-142 -36t-175.5 -14.5zM169 1206q57 -41 96 -96l-96 -95q-36 53 -95 95zM355 1206q57 -41 96 -96l-96 -95q-36 53 -95 95zM169 1020q57 -41 96 -96
l-96 -95q-36 53 -95 95zM355 1020q57 -41 96 -96l-96 -95q-36 53 -95 95z" />
    <glyph glyph-name="uni06A6.medi" unicode="&#x6a6;" horiz-adv-x="513" arabic-form="medial" 
d="M296 599q37 0 59.5 -30t33 -71.5t10.5 -75.5q0 -126 -51.5 -221t-141.5 -148t-206 -53q-47 0 -47 72q0 32 11 52.5t36 20.5q99 0 178.5 32t125.5 79t46 91q0 16 -10 41.5t-29.5 46.5t-48.5 21q-28 0 -52 -24t-38.5 -53t-14.5 -45q0 -38 45 -82t125 -75.5t186 -31.5
q29 0 41.5 -20.5t12.5 -52.5q0 -72 -54 -72q-115 0 -206 36.5t-143.5 98.5t-52.5 138q0 40 12.5 95t36.5 107.5t58.5 88t77.5 35.5zM187 1120q57 -41 96 -96l-96 -95q-36 53 -95 95zM373 1120q57 -41 96 -96l-96 -95q-36 53 -95 95zM187 934q57 -41 96 -96l-96 -95
q-36 53 -95 95zM373 934q57 -41 96 -96l-96 -95q-36 53 -95 95z" />
    <glyph glyph-name="uni06A6.fina" unicode="&#x6a6;" horiz-adv-x="1298" arabic-form="final" 
d="M454 -30q-69 0 -141.5 12t-134.5 39t-100 73t-38 114q0 64 30.5 132t91.5 128l13 -8q-21 -38 -31 -76t-10 -70q0 -79 54.5 -122.5t143 -60t190.5 -16.5q113 0 222 20.5t197.5 54t141 74.5t52.5 83q0 16 -11 41.5t-31 46.5t-46 21q-28 0 -52 -24t-38.5 -53t-14.5 -45
q0 -38 45 -82t125 -75.5t186 -31.5q29 0 41.5 -20.5t12.5 -52.5q0 -72 -54 -72q-115 0 -206 36.5t-143.5 98.5t-52.5 138q0 40 12.5 95t36.5 107.5t58.5 88t77.5 35.5q37 0 59.5 -30.5t33 -71.5t10.5 -75q0 -149 -94.5 -249.5t-259 -151.5t-376.5 -51zM973 1107
q57 -41 96 -96l-96 -95q-36 53 -95 95zM1159 1107q57 -41 96 -96l-96 -95q-36 53 -95 95zM973 921q57 -41 96 -96l-96 -95q-36 53 -95 95zM1159 921q57 -41 96 -96l-96 -95q-36 53 -95 95z" />
    <glyph glyph-name="uni06A7.init" unicode="&#x6a7;" horiz-adv-x="503" 
d="M0 0q-27 0 -37 23.5t-10 47.5t10 49t37 25q94 0 182 6.5t148.5 23.5t72.5 48q5 44 -10 100.5t-41.5 110t-56 88.5t-54.5 35q-22 0 -49 -32t-27 -55q0 -15 14.5 -31t49.5 -16q34 0 67 23t42 59l40 -73q-15 -52 -62.5 -92t-96.5 -40q-60 0 -84.5 34t-24.5 99q0 30 13.5 73
t36 84.5t50 69t55.5 27.5q38 0 72.5 -36.5t61 -96t41.5 -129t15 -135.5q0 -58 -17 -112.5t-44 -85.5q-18 -20 -76.5 -41.5t-142 -36t-175.5 -14.5zM264 1011q57 -41 96 -96l-96 -95q-36 53 -95 95z" />
    <glyph glyph-name="uni06A7.medi" unicode="&#x6a7;" horiz-adv-x="513" 
d="M296 599q37 0 59.5 -30t33 -71.5t10.5 -75.5q0 -126 -51.5 -221t-141.5 -148t-206 -53q-47 0 -47 72q0 32 11 52.5t36 20.5q99 0 178.5 32t125.5 79t46 91q0 16 -10 41.5t-29.5 46.5t-48.5 21q-28 0 -52 -24t-38.5 -53t-14.5 -45q0 -38 45 -82t125 -75.5t186 -31.5
q29 0 41.5 -20.5t12.5 -52.5q0 -72 -54 -72q-115 0 -206 36.5t-143.5 98.5t-52.5 138q0 40 12.5 95t36.5 107.5t58.5 88t77.5 35.5zM282 925q57 -41 96 -96l-96 -95q-36 53 -95 95z" />
    <glyph glyph-name="uni06A7.fina" unicode="&#x6a7;" horiz-adv-x="909" 
d="M352 -305q-153 0 -232.5 84t-79.5 208q0 64 20.5 132.5t64.5 137.5l14 -6q-40 -102 -40 -182q0 -105 70 -167t207 -62q61 0 129 14.5t127.5 44.5t97 76t37.5 109q0 78 -32.5 132t-58.5 54q-20 0 -38 -33.5t-18 -53.5q0 -9 19.5 -23.5t68.5 -14.5h201q45 0 45 -72
q0 -73 -45 -73h-197q-63 0 -103.5 44t-40.5 101q0 26 5.5 70.5t19.5 90.5t37.5 77.5t59.5 31.5q46 0 73.5 -55.5t39.5 -134.5t12 -151q0 -110 -66 -195.5t-172 -134.5t-225 -49zM691 741q57 -41 96 -96l-96 -95q-36 53 -95 95z" />
    <glyph glyph-name="uni06A8.init" unicode="&#x6a8;" horiz-adv-x="503" 
d="M0 0q-27 0 -37 23.5t-10 47.5t10 49t37 25q94 0 182 6.5t148.5 23.5t72.5 48q5 44 -10 100.5t-41.5 110t-56 88.5t-54.5 35q-22 0 -49 -32t-27 -55q0 -15 14.5 -31t49.5 -16q34 0 67 23t42 59l40 -73q-15 -52 -62.5 -92t-96.5 -40q-60 0 -84.5 34t-24.5 99q0 30 13.5 73
t36 84.5t50 69t55.5 27.5q38 0 72.5 -36.5t61 -96t41.5 -129t15 -135.5q0 -58 -17 -112.5t-44 -85.5q-18 -20 -76.5 -41.5t-142 -36t-175.5 -14.5zM263 1214q57 -41 96 -96l-96 -95q-36 53 -95 95zM171 1019q57 -41 96 -96l-96 -95q-36 53 -95 95zM357 1019q57 -41 96 -96
l-96 -95q-36 53 -95 95z" />
    <glyph glyph-name="uni06A8.medi" unicode="&#x6a8;" horiz-adv-x="513" 
d="M296 599q37 0 59.5 -30t33 -71.5t10.5 -75.5q0 -126 -51.5 -221t-141.5 -148t-206 -53q-47 0 -47 72q0 32 11 52.5t36 20.5q99 0 178.5 32t125.5 79t46 91q0 16 -10 41.5t-29.5 46.5t-48.5 21q-28 0 -52 -24t-38.5 -53t-14.5 -45q0 -38 45 -82t125 -75.5t186 -31.5
q29 0 41.5 -20.5t12.5 -52.5q0 -72 -54 -72q-115 0 -206 36.5t-143.5 98.5t-52.5 138q0 40 12.5 95t36.5 107.5t58.5 88t77.5 35.5zM281 1128q57 -41 96 -96l-96 -95q-36 53 -95 95zM189 933q57 -41 96 -96l-96 -95q-36 53 -95 95zM375 933q57 -41 96 -96l-96 -95
q-36 53 -95 95z" />
    <glyph glyph-name="uni06A8.fina" unicode="&#x6a8;" horiz-adv-x="909" 
d="M352 -305q-153 0 -232.5 84t-79.5 208q0 64 20.5 132.5t64.5 137.5l14 -6q-40 -102 -40 -182q0 -105 70 -167t207 -62q61 0 129 14.5t127.5 44.5t97 76t37.5 109q0 78 -32.5 132t-58.5 54q-20 0 -38 -33.5t-18 -53.5q0 -9 19.5 -23.5t68.5 -14.5h201q45 0 45 -72
q0 -73 -45 -73h-197q-63 0 -103.5 44t-40.5 101q0 26 5.5 70.5t19.5 90.5t37.5 77.5t59.5 31.5q46 0 73.5 -55.5t39.5 -134.5t12 -151q0 -110 -66 -195.5t-172 -134.5t-225 -49zM690 944q57 -41 96 -96l-96 -95q-36 53 -95 95zM598 749q57 -41 96 -96l-96 -95q-36 53 -95 95
zM784 749q57 -41 96 -96l-96 -95q-36 53 -95 95z" />
    <glyph glyph-name="uni06A9.init" unicode="&#x6a9;" horiz-adv-x="633" arabic-form="initial" 
d="M689 1075l-34 -129q-70 -28 -155.5 -67t-164 -80t-129.5 -75t-51 -54q0 -17 30.5 -36.5t76 -46.5t91 -65.5t76 -93t30.5 -129.5q-1 -70 -36.5 -139t-115.5 -114.5t-214 -45.5h-93q-39 0 -39 73q0 72 39 72h168q81 0 135 19.5t81 45.5t28 43q0 58 -36 103.5t-89.5 82
t-107.5 66t-90 56t-36 52.5q0 14 5.5 54.5t20.5 56.5q32 36 105 84.5t164.5 99t182 95t158.5 72.5z" />
    <glyph glyph-name="uni06A9.medi" unicode="&#x6a9;" horiz-adv-x="951" arabic-form="medial" 
d="M689 1075l-34 -129q-70 -28 -155.5 -67t-164 -80t-129.5 -75t-51 -54q0 -17 30.5 -36.5t76 -46.5t91 -65.5t76 -93t30.5 -129.5q-1 -70 -36.5 -139t-115.5 -114.5t-214 -45.5h-93q-39 0 -39 73q0 72 39 72h168q81 0 135 19.5t81 45.5t28 43q0 58 -36 103.5t-89.5 82
t-107.5 66t-90 56t-36 52.5q0 14 5.5 54.5t20.5 56.5q32 36 105 84.5t164.5 99t182 95t158.5 72.5zM224 610q133 -69 224 -136.5t156 -126.5t117.5 -104.5t106 -71.5t124.5 -26q18 0 31.5 -17.5t13.5 -55.5q0 -40 -14.5 -56t-30.5 -16q-93 0 -161.5 39t-127.5 99t-123.5 126
t-149.5 120z" />
    <glyph glyph-name="uni06A9.fina" unicode="&#x6a9;" horiz-adv-x="1544" arabic-form="final" 
d="M600 0h-311q-124 0 -186.5 59.5t-62.5 146.5q0 59 30.5 124.5t92.5 127.5l13 -8q-51 -85 -51 -157q0 -67 49 -107.5t150 -40.5h276q18 0 26 -22t8 -46q0 -26 -7 -51.5t-27 -25.5zM1284 1075l-34 -129q-70 -28 -155.5 -67t-164 -80t-129.5 -75t-51 -54q0 -17 30.5 -36.5
t76 -46.5t91 -65.5t76 -93t30.5 -129.5q-1 -70 -36.5 -139t-115.5 -114.5t-214 -45.5h-93q-39 0 -39 73q0 72 39 72h168q81 0 135 19.5t81 45.5t28 43q0 58 -36 103.5t-89.5 82t-107.5 66t-90 56t-36 52.5q0 14 5.5 54.5t20.5 56.5q32 36 105 84.5t164.5 99t182 95
t158.5 72.5zM817 610q133 -69 224 -136.5t156 -126.5t117.5 -104.5t106 -71.5t124.5 -26q18 0 31.5 -17.5t13.5 -55.5q0 -40 -14.5 -56t-30.5 -16q-93 0 -161.5 39t-127.5 99t-123.5 126t-149.5 120z" />
    <glyph glyph-name="uni06AA.init" unicode="&#x6aa;" horiz-adv-x="1132" 
d="M312 0h-312q-39 0 -39 73q0 72 39 72h312v-145zM199 145h619q74 0 120 20t67.5 42.5t21.5 29.5q0 74 -39.5 103t-140.5 29h-659q-74 0 -107.5 35t-33.5 96q0 63 38.5 135.5t101.5 136.5t137.5 104.5t145.5 40.5q37 0 80.5 -15t43.5 -62l-29 -132q-7 43 -41 57.5t-71 14.5
q-64 0 -127 -25t-114.5 -63t-82.5 -76.5t-31 -66.5q0 -16 29.5 -32t83.5 -16h668q98 0 155.5 -47t57.5 -125q0 -39 -21 -94.5t-68.5 -109t-126.5 -89.5t-195 -36h-482v145z" />
    <glyph glyph-name="uni06AA.medi" unicode="&#x6aa;" horiz-adv-x="1152" 
d="M312 0h-312q-39 0 -39 73q0 72 39 72h312v-145zM199 145h619q74 0 120 20t67.5 42.5t21.5 29.5q0 74 -39.5 103t-140.5 29h-659q-74 0 -107.5 35t-33.5 96q0 63 38.5 135.5t101.5 136.5t137.5 104.5t145.5 40.5q37 0 80.5 -15t43.5 -62l-29 -132q-7 43 -41 57.5t-71 14.5
q-64 0 -127 -25t-114.5 -63t-82.5 -76.5t-31 -66.5q0 -16 29.5 -32t83.5 -16h668q98 0 155.5 -47t57.5 -125q0 -39 -21 -94.5t-68.5 -109t-126.5 -89.5t-195 -36h-482v145zM1151 0q-68 0 -119 25.5t-79 83.5l86 111q2 -40 36 -57.5t76 -17.5q53 0 53 -73q0 -72 -53 -72z" />
    <glyph glyph-name="uni06AA.fina" unicode="&#x6aa;" horiz-adv-x="1403" 
d="M460 0q-114 0 -230 35.5t-182 89.5v20h432v-145h-20zM450 145h619q74 0 120 20t67.5 42.5t21.5 29.5q0 74 -39.5 103t-140.5 29h-659q-74 0 -107.5 35t-33.5 96q0 63 38.5 135.5t101.5 136.5t137.5 104.5t145.5 40.5q37 0 80.5 -15t43.5 -62l-29 -132q-7 43 -41 57.5
t-71 14.5q-64 0 -127 -25t-114.5 -63t-82.5 -76.5t-31 -66.5q0 -16 29.5 -32t83.5 -16h668q98 0 155.5 -47t57.5 -125q0 -39 -21 -94.5t-68.5 -109t-126.5 -89.5t-195 -36h-482v145zM1403 0q-67 0 -118 25.5t-80 83.5l87 111q2 -40 35.5 -57.5t75.5 -17.5q53 0 53 -73
q0 -72 -53 -72z" />
    <glyph glyph-name="uni06AB.init" unicode="&#x6ab;" horiz-adv-x="633" 
d="M689 1075l-34 -129q-70 -28 -155.5 -67t-164 -80t-129.5 -75t-51 -54q0 -17 30.5 -36.5t76 -46.5t91 -65.5t76 -93t30.5 -129.5q-1 -70 -36.5 -139t-115.5 -114.5t-214 -45.5h-93q-39 0 -39 73q0 72 39 72h168q81 0 135 19.5t81 45.5t28 43q0 58 -36 103.5t-89.5 82
t-107.5 66t-90 56t-36 52.5q0 14 5.5 54.5t20.5 56.5q32 36 105 84.5t164.5 99t182 95t158.5 72.5zM431 641q-62 0 -84.5 30.5t-22.5 80.5q0 46 29 93.5t78 47.5q50 0 79.5 -47.5t29.5 -93.5q0 -50 -23.5 -80.5t-85.5 -30.5zM431 706q28 0 48.5 9.5t20.5 43.5
q0 35 -20.5 57.5t-48.5 22.5t-47.5 -22.5t-19.5 -57.5q0 -37 19.5 -45t47.5 -8z" />
    <glyph glyph-name="uni06AB.medi" unicode="&#x6ab;" horiz-adv-x="951" 
d="M689 1075l-34 -129q-70 -28 -155.5 -67t-164 -80t-129.5 -75t-51 -54q0 -17 30.5 -36.5t76 -46.5t91 -65.5t76 -93t30.5 -129.5q-1 -70 -36.5 -139t-115.5 -114.5t-214 -45.5h-93q-39 0 -39 73q0 72 39 72h168q81 0 135 19.5t81 45.5t28 43q0 58 -36 103.5t-89.5 82
t-107.5 66t-90 56t-36 52.5q0 14 5.5 54.5t20.5 56.5q32 36 105 84.5t164.5 99t182 95t158.5 72.5zM224 610q133 -69 224 -136.5t156 -126.5t117.5 -104.5t106 -71.5t124.5 -26q18 0 31.5 -17.5t13.5 -55.5q0 -40 -14.5 -56t-30.5 -16q-93 0 -161.5 39t-127.5 99t-123.5 126
t-149.5 120zM465 656q-62 0 -84.5 30.5t-22.5 80.5q0 46 29 93.5t78 47.5q50 0 79.5 -47.5t29.5 -93.5q0 -50 -23.5 -80.5t-85.5 -30.5zM465 721q28 0 48.5 9.5t20.5 43.5q0 35 -20.5 57.5t-48.5 22.5t-47.5 -22.5t-19.5 -57.5q0 -37 19.5 -45t47.5 -8z" />
    <glyph glyph-name="uni06AB.fina" unicode="&#x6ab;" horiz-adv-x="1544" 
d="M600 0h-311q-124 0 -186.5 59.5t-62.5 146.5q0 59 30.5 124.5t92.5 127.5l13 -8q-51 -85 -51 -157q0 -67 49 -107.5t150 -40.5h276q18 0 26 -22t8 -46q0 -26 -7 -51.5t-27 -25.5zM1284 1075l-34 -129q-70 -28 -155.5 -67t-164 -80t-129.5 -75t-51 -54q0 -17 30.5 -36.5
t76 -46.5t91 -65.5t76 -93t30.5 -129.5q-1 -70 -36.5 -139t-115.5 -114.5t-214 -45.5h-93q-39 0 -39 73q0 72 39 72h168q81 0 135 19.5t81 45.5t28 43q0 58 -36 103.5t-89.5 82t-107.5 66t-90 56t-36 52.5q0 14 5.5 54.5t20.5 56.5q32 36 105 84.5t164.5 99t182 95
t158.5 72.5zM817 610q133 -69 224 -136.5t156 -126.5t117.5 -104.5t106 -71.5t124.5 -26q18 0 31.5 -17.5t13.5 -55.5q0 -40 -14.5 -56t-30.5 -16q-93 0 -161.5 39t-127.5 99t-123.5 126t-149.5 120zM1057 656q-62 0 -84.5 30.5t-22.5 80.5q0 46 29 93.5t78 47.5
q50 0 79.5 -47.5t29.5 -93.5q0 -50 -23.5 -80.5t-85.5 -30.5zM1057 721q28 0 48.5 9.5t20.5 43.5q0 35 -20.5 57.5t-48.5 22.5t-47.5 -22.5t-19.5 -57.5q0 -37 19.5 -45t47.5 -8z" />
    <glyph glyph-name="uni06AC.init" unicode="&#x6ac;" horiz-adv-x="633" 
d="M689 1075l-34 -129q-70 -28 -155.5 -67t-164 -80t-129.5 -75t-51 -54q0 -17 30.5 -36.5t76 -46.5t91 -65.5t76 -93t30.5 -129.5q-1 -70 -36.5 -139t-115.5 -114.5t-214 -45.5h-93q-39 0 -39 73q0 72 39 72h168q81 0 135 19.5t81 45.5t28 43q0 58 -36 103.5t-89.5 82
t-107.5 66t-90 56t-36 52.5q0 14 5.5 54.5t20.5 56.5q32 36 105 84.5t164.5 99t182 95t158.5 72.5zM113 1111q57 -41 96 -96l-96 -95q-36 53 -95 95z" />
    <glyph glyph-name="uni06AC.medi" unicode="&#x6ac;" horiz-adv-x="951" 
d="M689 1075l-34 -129q-70 -28 -155.5 -67t-164 -80t-129.5 -75t-51 -54q0 -17 30.5 -36.5t76 -46.5t91 -65.5t76 -93t30.5 -129.5q-1 -70 -36.5 -139t-115.5 -114.5t-214 -45.5h-93q-39 0 -39 73q0 72 39 72h168q81 0 135 19.5t81 45.5t28 43q0 58 -36 103.5t-89.5 82
t-107.5 66t-90 56t-36 52.5q0 14 5.5 54.5t20.5 56.5q32 36 105 84.5t164.5 99t182 95t158.5 72.5zM224 610q133 -69 224 -136.5t156 -126.5t117.5 -104.5t106 -71.5t124.5 -26q18 0 31.5 -17.5t13.5 -55.5q0 -40 -14.5 -56t-30.5 -16q-93 0 -161.5 39t-127.5 99t-123.5 126
t-149.5 120zM113 1111q57 -41 96 -96l-96 -95q-36 53 -95 95z" />
    <glyph glyph-name="uni06AC.fina" unicode="&#x6ac;" horiz-adv-x="1179" 
d="M741 0q-49 0 -49 73q0 72 49 72q80 0 123 43.5t43 122.5q0 21 -2 78.5t-11 171.5t-28 305l75 87q5 -111 8 -196t8.5 -169.5t16.5 -195.5q22 -247 205 -247q50 0 50 -72q0 -73 -50 -73q-84 0 -140 64t-80 146l5 2q-18 -102 -79 -157t-144 -55zM683 561q0 -71 -69.5 -114.5
t-201.5 -43.5q-28 0 -64 17t-54 34q53 0 118.5 7t113 20t47.5 29q0 15 -25.5 21t-59.5 11t-59.5 15.5t-25.5 34.5q0 54 56.5 121t150.5 107l24 -83q-19 -5 -49.5 -18t-54.5 -30t-24 -34q0 -15 26.5 -20.5t61.5 -11.5t62 -19t27 -43zM600 0h-311q-124 0 -186.5 59.5
t-62.5 146.5q0 59 30.5 124.5t92.5 127.5l13 -8q-51 -85 -51 -157q0 -67 49 -107.5t150 -40.5h276q18 0 26 -22t8 -46q0 -26 -7 -51.5t-27 -25.5zM925 1098l13 -7q-74 -136 79 -183l-47 -118q-55 25 -100.5 58.5t-45.5 72.5q0 33 21.5 70.5t46 67.5t33.5 39zM738 0h-135
q-49 0 -49 73q0 72 49 72h135q50 0 50 -72q0 -73 -50 -73zM504 1111q57 -41 96 -96l-96 -95q-36 53 -95 95z" />
    <glyph glyph-name="uni06AD.init" unicode="&#x6ad;" horiz-adv-x="633" arabic-form="initial" 
d="M689 1075l-34 -129q-70 -28 -155.5 -67t-164 -80t-129.5 -75t-51 -54q0 -17 30.5 -36.5t76 -46.5t91 -65.5t76 -93t30.5 -129.5q-1 -70 -36.5 -139t-115.5 -114.5t-214 -45.5h-93q-39 0 -39 73q0 72 39 72h168q81 0 135 19.5t81 45.5t28 43q0 58 -36 103.5t-89.5 82
t-107.5 66t-90 56t-36 52.5q0 14 5.5 54.5t20.5 56.5q32 36 105 84.5t164.5 99t182 95t158.5 72.5zM112 1314q57 -41 96 -96l-96 -95q-36 53 -95 95zM20 1119q57 -41 96 -96l-96 -95q-36 53 -95 95zM206 1119q57 -41 96 -96l-96 -95q-36 53 -95 95z" />
    <glyph glyph-name="uni06AD.medi" unicode="&#x6ad;" horiz-adv-x="951" arabic-form="medial" 
d="M689 1075l-34 -129q-70 -28 -155.5 -67t-164 -80t-129.5 -75t-51 -54q0 -17 30.5 -36.5t76 -46.5t91 -65.5t76 -93t30.5 -129.5q-1 -70 -36.5 -139t-115.5 -114.5t-214 -45.5h-93q-39 0 -39 73q0 72 39 72h168q81 0 135 19.5t81 45.5t28 43q0 58 -36 103.5t-89.5 82
t-107.5 66t-90 56t-36 52.5q0 14 5.5 54.5t20.5 56.5q32 36 105 84.5t164.5 99t182 95t158.5 72.5zM224 610q133 -69 224 -136.5t156 -126.5t117.5 -104.5t106 -71.5t124.5 -26q18 0 31.5 -17.5t13.5 -55.5q0 -40 -14.5 -56t-30.5 -16q-93 0 -161.5 39t-127.5 99t-123.5 126
t-149.5 120zM112 1314q57 -41 96 -96l-96 -95q-36 53 -95 95zM20 1119q57 -41 96 -96l-96 -95q-36 53 -95 95zM206 1119q57 -41 96 -96l-96 -95q-36 53 -95 95z" />
    <glyph glyph-name="uni06AD.fina" unicode="&#x6ad;" horiz-adv-x="1179" arabic-form="final" 
d="M741 0q-49 0 -49 73q0 72 49 72q80 0 123 43.5t43 122.5q0 21 -2 78.5t-11 171.5t-28 305l75 87q5 -111 8 -196t8.5 -169.5t16.5 -195.5q22 -247 205 -247q50 0 50 -72q0 -73 -50 -73q-84 0 -140 64t-80 146l5 2q-18 -102 -79 -157t-144 -55zM683 561q0 -71 -69.5 -114.5
t-201.5 -43.5q-28 0 -64 17t-54 34q53 0 118.5 7t113 20t47.5 29q0 15 -25.5 21t-59.5 11t-59.5 15.5t-25.5 34.5q0 54 56.5 121t150.5 107l24 -83q-19 -5 -49.5 -18t-54.5 -30t-24 -34q0 -15 26.5 -20.5t61.5 -11.5t62 -19t27 -43zM600 0h-311q-124 0 -186.5 59.5
t-62.5 146.5q0 59 30.5 124.5t92.5 127.5l13 -8q-51 -85 -51 -157q0 -67 49 -107.5t150 -40.5h276q18 0 26 -22t8 -46q0 -26 -7 -51.5t-27 -25.5zM925 1098l13 -7q-74 -136 79 -183l-47 -118q-55 25 -100.5 58.5t-45.5 72.5q0 33 21.5 70.5t46 67.5t33.5 39zM738 0h-135
q-49 0 -49 73q0 72 49 72h135q50 0 50 -72q0 -73 -50 -73zM503 1314q57 -41 96 -96l-96 -95q-36 53 -95 95zM411 1119q57 -41 96 -96l-96 -95q-36 53 -95 95zM597 1119q57 -41 96 -96l-96 -95q-36 53 -95 95z" />
    <glyph glyph-name="uni06AE.init" unicode="&#x6ae;" horiz-adv-x="633" 
d="M689 1075l-34 -129q-70 -28 -155.5 -67t-164 -80t-129.5 -75t-51 -54q0 -17 30.5 -36.5t76 -46.5t91 -65.5t76 -93t30.5 -129.5q-1 -70 -36.5 -139t-115.5 -114.5t-214 -45.5h-93q-39 0 -39 73q0 72 39 72h168q81 0 135 19.5t81 45.5t28 43q0 58 -36 103.5t-89.5 82
t-107.5 66t-90 56t-36 52.5q0 14 5.5 54.5t20.5 56.5q32 36 105 84.5t164.5 99t182 95t158.5 72.5zM137 -338q57 -41 96 -96l-96 -95q-36 53 -95 95zM44 -143q57 -41 96 -96l-96 -95q-36 53 -95 95zM230 -143q57 -41 96 -96l-96 -95q-36 53 -95 95z" />
    <glyph glyph-name="uni06AE.medi" unicode="&#x6ae;" horiz-adv-x="951" 
d="M689 1075l-34 -129q-70 -28 -155.5 -67t-164 -80t-129.5 -75t-51 -54q0 -17 30.5 -36.5t76 -46.5t91 -65.5t76 -93t30.5 -129.5q-1 -70 -36.5 -139t-115.5 -114.5t-214 -45.5h-93q-39 0 -39 73q0 72 39 72h168q81 0 135 19.5t81 45.5t28 43q0 58 -36 103.5t-89.5 82
t-107.5 66t-90 56t-36 52.5q0 14 5.5 54.5t20.5 56.5q32 36 105 84.5t164.5 99t182 95t158.5 72.5zM224 610q133 -69 224 -136.5t156 -126.5t117.5 -104.5t106 -71.5t124.5 -26q18 0 31.5 -17.5t13.5 -55.5q0 -40 -14.5 -56t-30.5 -16q-93 0 -161.5 39t-127.5 99t-123.5 126
t-149.5 120zM146 -332q57 -41 96 -96l-96 -95q-36 53 -95 95zM53 -137q57 -41 96 -96l-96 -95q-36 53 -95 95zM239 -137q57 -41 96 -96l-96 -95q-36 53 -95 95z" />
    <glyph glyph-name="uni06AE.fina" unicode="&#x6ae;" horiz-adv-x="1179" 
d="M741 0q-49 0 -49 73q0 72 49 72q80 0 123 43.5t43 122.5q0 21 -2 78.5t-11 171.5t-28 305l75 87q5 -111 8 -196t8.5 -169.5t16.5 -195.5q22 -247 205 -247q50 0 50 -72q0 -73 -50 -73q-84 0 -140 64t-80 146l5 2q-18 -102 -79 -157t-144 -55zM683 561q0 -71 -69.5 -114.5
t-201.5 -43.5q-28 0 -64 17t-54 34q53 0 118.5 7t113 20t47.5 29q0 15 -25.5 21t-59.5 11t-59.5 15.5t-25.5 34.5q0 54 56.5 121t150.5 107l24 -83q-19 -5 -49.5 -18t-54.5 -30t-24 -34q0 -15 26.5 -20.5t61.5 -11.5t62 -19t27 -43zM600 0h-311q-124 0 -186.5 59.5
t-62.5 146.5q0 59 30.5 124.5t92.5 127.5l13 -8q-51 -85 -51 -157q0 -67 49 -107.5t150 -40.5h276q18 0 26 -22t8 -46q0 -26 -7 -51.5t-27 -25.5zM925 1098l13 -7q-74 -136 79 -183l-47 -118q-55 25 -100.5 58.5t-45.5 72.5q0 33 21.5 70.5t46 67.5t33.5 39zM738 0h-135
q-49 0 -49 73q0 72 49 72h135q50 0 50 -72q0 -73 -50 -73zM729 -350q57 -41 96 -96l-96 -95q-36 53 -95 95zM636 -155q57 -41 96 -96l-96 -95q-36 53 -95 95zM822 -155q57 -41 96 -96l-96 -95q-36 53 -95 95z" />
    <glyph glyph-name="uni06AF.init" unicode="&#x6af;" horiz-adv-x="633" arabic-form="initial" 
d="M689 1075l-34 -129q-70 -28 -155.5 -67t-164 -80t-129.5 -75t-51 -54q0 -17 30.5 -36.5t76 -46.5t91 -65.5t76 -93t30.5 -129.5q-1 -70 -36.5 -139t-115.5 -114.5t-214 -45.5h-93q-39 0 -39 73q0 72 39 72h168q81 0 135 19.5t81 45.5t28 43q0 58 -36 103.5t-89.5 82
t-107.5 66t-90 56t-36 52.5q0 14 5.5 54.5t20.5 56.5q32 36 105 84.5t164.5 99t182 95t158.5 72.5zM70 823l23 76q137 102 271 183t284 152l-23 -87q-150 -71 -285 -150t-270 -174z" />
    <glyph glyph-name="uni06AF.medi" unicode="&#x6af;" horiz-adv-x="951" arabic-form="medial" 
d="M689 1075l-34 -129q-70 -28 -155.5 -67t-164 -80t-129.5 -75t-51 -54q0 -17 30.5 -36.5t76 -46.5t91 -65.5t76 -93t30.5 -129.5q-1 -70 -36.5 -139t-115.5 -114.5t-214 -45.5h-93q-39 0 -39 73q0 72 39 72h168q81 0 135 19.5t81 45.5t28 43q0 58 -36 103.5t-89.5 82
t-107.5 66t-90 56t-36 52.5q0 14 5.5 54.5t20.5 56.5q32 36 105 84.5t164.5 99t182 95t158.5 72.5zM224 610q133 -69 224 -136.5t156 -126.5t117.5 -104.5t106 -71.5t124.5 -26q18 0 31.5 -17.5t13.5 -55.5q0 -40 -14.5 -56t-30.5 -16q-93 0 -161.5 39t-127.5 99t-123.5 126
t-149.5 120zM70 823l23 76q137 102 271 183t284 152l-23 -87q-150 -71 -285 -150t-270 -174z" />
    <glyph glyph-name="uni06AF.fina" unicode="&#x6af;" horiz-adv-x="1544" arabic-form="final" 
d="M600 0h-311q-124 0 -186.5 59.5t-62.5 146.5q0 59 30.5 124.5t92.5 127.5l13 -8q-51 -85 -51 -157q0 -67 49 -107.5t150 -40.5h276q18 0 26 -22t8 -46q0 -26 -7 -51.5t-27 -25.5zM1284 1075l-34 -129q-70 -28 -155.5 -67t-164 -80t-129.5 -75t-51 -54q0 -17 30.5 -36.5
t76 -46.5t91 -65.5t76 -93t30.5 -129.5q-1 -70 -36.5 -139t-115.5 -114.5t-214 -45.5h-93q-39 0 -39 73q0 72 39 72h168q81 0 135 19.5t81 45.5t28 43q0 58 -36 103.5t-89.5 82t-107.5 66t-90 56t-36 52.5q0 14 5.5 54.5t20.5 56.5q32 36 105 84.5t164.5 99t182 95
t158.5 72.5zM817 610q133 -69 224 -136.5t156 -126.5t117.5 -104.5t106 -71.5t124.5 -26q18 0 31.5 -17.5t13.5 -55.5q0 -40 -14.5 -56t-30.5 -16q-93 0 -161.5 39t-127.5 99t-123.5 126t-149.5 120zM665 823l23 76q137 102 271 183t284 152l-23 -87q-150 -71 -285 -150
t-270 -174z" />
    <glyph glyph-name="uni06B0.init" unicode="&#x6b0;" horiz-adv-x="633" 
d="M689 1075l-34 -129q-70 -28 -155.5 -67t-164 -80t-129.5 -75t-51 -54q0 -17 30.5 -36.5t76 -46.5t91 -65.5t76 -93t30.5 -129.5q-1 -70 -36.5 -139t-115.5 -114.5t-214 -45.5h-93q-39 0 -39 73q0 72 39 72h168q81 0 135 19.5t81 45.5t28 43q0 58 -36 103.5t-89.5 82
t-107.5 66t-90 56t-36 52.5q0 14 5.5 54.5t20.5 56.5q32 36 105 84.5t164.5 99t182 95t158.5 72.5zM70 823l23 76q137 102 271 183t284 152l-23 -87q-150 -71 -285 -150t-270 -174zM431 641q-62 0 -84.5 30.5t-22.5 80.5q0 46 29 93.5t78 47.5q50 0 79.5 -47.5t29.5 -93.5
q0 -50 -23.5 -80.5t-85.5 -30.5zM431 706q28 0 48.5 9.5t20.5 43.5q0 35 -20.5 57.5t-48.5 22.5t-47.5 -22.5t-19.5 -57.5q0 -37 19.5 -45t47.5 -8z" />
    <glyph glyph-name="uni06B0.medi" unicode="&#x6b0;" horiz-adv-x="951" 
d="M689 1075l-34 -129q-70 -28 -155.5 -67t-164 -80t-129.5 -75t-51 -54q0 -17 30.5 -36.5t76 -46.5t91 -65.5t76 -93t30.5 -129.5q-1 -70 -36.5 -139t-115.5 -114.5t-214 -45.5h-93q-39 0 -39 73q0 72 39 72h168q81 0 135 19.5t81 45.5t28 43q0 58 -36 103.5t-89.5 82
t-107.5 66t-90 56t-36 52.5q0 14 5.5 54.5t20.5 56.5q32 36 105 84.5t164.5 99t182 95t158.5 72.5zM224 610q133 -69 224 -136.5t156 -126.5t117.5 -104.5t106 -71.5t124.5 -26q18 0 31.5 -17.5t13.5 -55.5q0 -40 -14.5 -56t-30.5 -16q-93 0 -161.5 39t-127.5 99t-123.5 126
t-149.5 120zM70 823l23 76q137 102 271 183t284 152l-23 -87q-150 -71 -285 -150t-270 -174zM465 656q-62 0 -84.5 30.5t-22.5 80.5q0 46 29 93.5t78 47.5q50 0 79.5 -47.5t29.5 -93.5q0 -50 -23.5 -80.5t-85.5 -30.5zM465 721q28 0 48.5 9.5t20.5 43.5q0 35 -20.5 57.5
t-48.5 22.5t-47.5 -22.5t-19.5 -57.5q0 -37 19.5 -45t47.5 -8z" />
    <glyph glyph-name="uni06B0.fina" unicode="&#x6b0;" horiz-adv-x="1544" 
d="M600 0h-311q-124 0 -186.5 59.5t-62.5 146.5q0 59 30.5 124.5t92.5 127.5l13 -8q-51 -85 -51 -157q0 -67 49 -107.5t150 -40.5h276q18 0 26 -22t8 -46q0 -26 -7 -51.5t-27 -25.5zM1284 1075l-34 -129q-70 -28 -155.5 -67t-164 -80t-129.5 -75t-51 -54q0 -17 30.5 -36.5
t76 -46.5t91 -65.5t76 -93t30.5 -129.5q-1 -70 -36.5 -139t-115.5 -114.5t-214 -45.5h-93q-39 0 -39 73q0 72 39 72h168q81 0 135 19.5t81 45.5t28 43q0 58 -36 103.5t-89.5 82t-107.5 66t-90 56t-36 52.5q0 14 5.5 54.5t20.5 56.5q32 36 105 84.5t164.5 99t182 95
t158.5 72.5zM817 610q133 -69 224 -136.5t156 -126.5t117.5 -104.5t106 -71.5t124.5 -26q18 0 31.5 -17.5t13.5 -55.5q0 -40 -14.5 -56t-30.5 -16q-93 0 -161.5 39t-127.5 99t-123.5 126t-149.5 120zM665 823l23 76q137 102 271 183t284 152l-23 -87q-150 -71 -285 -150
t-270 -174zM1057 656q-62 0 -84.5 30.5t-22.5 80.5q0 46 29 93.5t78 47.5q50 0 79.5 -47.5t29.5 -93.5q0 -50 -23.5 -80.5t-85.5 -30.5zM1057 721q28 0 48.5 9.5t20.5 43.5q0 35 -20.5 57.5t-48.5 22.5t-47.5 -22.5t-19.5 -57.5q0 -37 19.5 -45t47.5 -8z" />
    <glyph glyph-name="uni06B1.init" unicode="&#x6b1;" horiz-adv-x="633" arabic-form="initial" 
d="M689 1075l-34 -129q-70 -28 -155.5 -67t-164 -80t-129.5 -75t-51 -54q0 -17 30.5 -36.5t76 -46.5t91 -65.5t76 -93t30.5 -129.5q-1 -70 -36.5 -139t-115.5 -114.5t-214 -45.5h-93q-39 0 -39 73q0 72 39 72h168q81 0 135 19.5t81 45.5t28 43q0 58 -36 103.5t-89.5 82
t-107.5 66t-90 56t-36 52.5q0 14 5.5 54.5t20.5 56.5q32 36 105 84.5t164.5 99t182 95t158.5 72.5zM50 823l23 76q137 102 271 183t284 152l-23 -87q-150 -71 -285 -150t-270 -174zM-11 1242q57 -41 96 -96l-96 -95q-36 53 -95 95zM175 1242q57 -41 96 -96l-96 -95
q-36 53 -95 95z" />
    <glyph glyph-name="uni06B1.medi" unicode="&#x6b1;" horiz-adv-x="951" arabic-form="medial" 
d="M689 1075l-34 -129q-70 -28 -155.5 -67t-164 -80t-129.5 -75t-51 -54q0 -17 30.5 -36.5t76 -46.5t91 -65.5t76 -93t30.5 -129.5q-1 -70 -36.5 -139t-115.5 -114.5t-214 -45.5h-93q-39 0 -39 73q0 72 39 72h168q81 0 135 19.5t81 45.5t28 43q0 58 -36 103.5t-89.5 82
t-107.5 66t-90 56t-36 52.5q0 14 5.5 54.5t20.5 56.5q32 36 105 84.5t164.5 99t182 95t158.5 72.5zM224 610q133 -69 224 -136.5t156 -126.5t117.5 -104.5t106 -71.5t124.5 -26q18 0 31.5 -17.5t13.5 -55.5q0 -40 -14.5 -56t-30.5 -16q-93 0 -161.5 39t-127.5 99t-123.5 126
t-149.5 120zM50 823l23 76q137 102 271 183t284 152l-23 -87q-150 -71 -285 -150t-270 -174zM-32 1242q57 -41 96 -96l-96 -95q-36 53 -95 95zM154 1242q57 -41 96 -96l-96 -95q-36 53 -95 95z" />
    <glyph glyph-name="uni06B1.fina" unicode="&#x6b1;" horiz-adv-x="1544" arabic-form="final" 
d="M600 0h-311q-124 0 -186.5 59.5t-62.5 146.5q0 59 30.5 124.5t92.5 127.5l13 -8q-51 -85 -51 -157q0 -67 49 -107.5t150 -40.5h276q18 0 26 -22t8 -46q0 -26 -7 -51.5t-27 -25.5zM1284 1075l-34 -129q-70 -28 -155.5 -67t-164 -80t-129.5 -75t-51 -54q0 -17 30.5 -36.5
t76 -46.5t91 -65.5t76 -93t30.5 -129.5q-1 -70 -36.5 -139t-115.5 -114.5t-214 -45.5h-93q-39 0 -39 73q0 72 39 72h168q81 0 135 19.5t81 45.5t28 43q0 58 -36 103.5t-89.5 82t-107.5 66t-90 56t-36 52.5q0 14 5.5 54.5t20.5 56.5q32 36 105 84.5t164.5 99t182 95
t158.5 72.5zM817 610q133 -69 224 -136.5t156 -126.5t117.5 -104.5t106 -71.5t124.5 -26q18 0 31.5 -17.5t13.5 -55.5q0 -40 -14.5 -56t-30.5 -16q-93 0 -161.5 39t-127.5 99t-123.5 126t-149.5 120zM645 823l23 76q137 102 271 183t284 152l-23 -87q-150 -71 -285 -150
t-270 -174zM563 1242q57 -41 96 -96l-96 -95q-36 53 -95 95zM749 1242q57 -41 96 -96l-96 -95q-36 53 -95 95z" />
    <glyph glyph-name="uni06B2.init" unicode="&#x6b2;" horiz-adv-x="633" 
d="M689 1075l-34 -129q-70 -28 -155.5 -67t-164 -80t-129.5 -75t-51 -54q0 -17 30.5 -36.5t76 -46.5t91 -65.5t76 -93t30.5 -129.5q-1 -70 -36.5 -139t-115.5 -114.5t-214 -45.5h-93q-39 0 -39 73q0 72 39 72h168q81 0 135 19.5t81 45.5t28 43q0 58 -36 103.5t-89.5 82
t-107.5 66t-90 56t-36 52.5q0 14 5.5 54.5t20.5 56.5q32 36 105 84.5t164.5 99t182 95t158.5 72.5zM70 823l23 76q137 102 271 183t284 152l-23 -87q-150 -71 -285 -150t-270 -174zM44 -134q57 -41 96 -96l-96 -95q-36 53 -95 95zM230 -134q57 -41 96 -96l-96 -95
q-36 53 -95 95z" />
    <glyph glyph-name="uni06B2.medi" unicode="&#x6b2;" horiz-adv-x="951" 
d="M689 1075l-34 -129q-70 -28 -155.5 -67t-164 -80t-129.5 -75t-51 -54q0 -17 30.5 -36.5t76 -46.5t91 -65.5t76 -93t30.5 -129.5q-1 -70 -36.5 -139t-115.5 -114.5t-214 -45.5h-93q-39 0 -39 73q0 72 39 72h168q81 0 135 19.5t81 45.5t28 43q0 58 -36 103.5t-89.5 82
t-107.5 66t-90 56t-36 52.5q0 14 5.5 54.5t20.5 56.5q32 36 105 84.5t164.5 99t182 95t158.5 72.5zM224 610q133 -69 224 -136.5t156 -126.5t117.5 -104.5t106 -71.5t124.5 -26q18 0 31.5 -17.5t13.5 -55.5q0 -40 -14.5 -56t-30.5 -16q-93 0 -161.5 39t-127.5 99t-123.5 126
t-149.5 120zM70 823l23 76q137 102 271 183t284 152l-23 -87q-150 -71 -285 -150t-270 -174zM53 -128q57 -41 96 -96l-96 -95q-36 53 -95 95zM239 -128q57 -41 96 -96l-96 -95q-36 53 -95 95z" />
    <glyph glyph-name="uni06B2.fina" unicode="&#x6b2;" horiz-adv-x="1544" 
d="M600 0h-311q-124 0 -186.5 59.5t-62.5 146.5q0 59 30.5 124.5t92.5 127.5l13 -8q-51 -85 -51 -157q0 -67 49 -107.5t150 -40.5h276q18 0 26 -22t8 -46q0 -26 -7 -51.5t-27 -25.5zM1284 1075l-34 -129q-70 -28 -155.5 -67t-164 -80t-129.5 -75t-51 -54q0 -17 30.5 -36.5
t76 -46.5t91 -65.5t76 -93t30.5 -129.5q-1 -70 -36.5 -139t-115.5 -114.5t-214 -45.5h-93q-39 0 -39 73q0 72 39 72h168q81 0 135 19.5t81 45.5t28 43q0 58 -36 103.5t-89.5 82t-107.5 66t-90 56t-36 52.5q0 14 5.5 54.5t20.5 56.5q32 36 105 84.5t164.5 99t182 95
t158.5 72.5zM817 610q133 -69 224 -136.5t156 -126.5t117.5 -104.5t106 -71.5t124.5 -26q18 0 31.5 -17.5t13.5 -55.5q0 -40 -14.5 -56t-30.5 -16q-93 0 -161.5 39t-127.5 99t-123.5 126t-149.5 120zM665 823l23 76q137 102 271 183t284 152l-23 -87q-150 -71 -285 -150
t-270 -174zM725 -134q57 -41 96 -96l-96 -95q-36 53 -95 95zM911 -134q57 -41 96 -96l-96 -95q-36 53 -95 95z" />
    <glyph glyph-name="uni06B3.init" unicode="&#x6b3;" horiz-adv-x="633" arabic-form="initial" 
d="M689 1075l-34 -129q-70 -28 -155.5 -67t-164 -80t-129.5 -75t-51 -54q0 -17 30.5 -36.5t76 -46.5t91 -65.5t76 -93t30.5 -129.5q-1 -70 -36.5 -139t-115.5 -114.5t-214 -45.5h-93q-39 0 -39 73q0 72 39 72h168q81 0 135 19.5t81 45.5t28 43q0 58 -36 103.5t-89.5 82
t-107.5 66t-90 56t-36 52.5q0 14 5.5 54.5t20.5 56.5q32 36 105 84.5t164.5 99t182 95t158.5 72.5zM70 823l23 76q137 102 271 183t284 152l-23 -87q-150 -71 -285 -150t-270 -174zM137 -333q57 -41 96 -96l-96 -95q-36 53 -95 95zM137 -147q57 -41 96 -96l-96 -95
q-36 53 -95 95z" />
    <glyph glyph-name="uni06B3.medi" unicode="&#x6b3;" horiz-adv-x="951" arabic-form="medial" 
d="M689 1075l-34 -129q-70 -28 -155.5 -67t-164 -80t-129.5 -75t-51 -54q0 -17 30.5 -36.5t76 -46.5t91 -65.5t76 -93t30.5 -129.5q-1 -70 -36.5 -139t-115.5 -114.5t-214 -45.5h-93q-39 0 -39 73q0 72 39 72h168q81 0 135 19.5t81 45.5t28 43q0 58 -36 103.5t-89.5 82
t-107.5 66t-90 56t-36 52.5q0 14 5.5 54.5t20.5 56.5q32 36 105 84.5t164.5 99t182 95t158.5 72.5zM224 610q133 -69 224 -136.5t156 -126.5t117.5 -104.5t106 -71.5t124.5 -26q18 0 31.5 -17.5t13.5 -55.5q0 -40 -14.5 -56t-30.5 -16q-93 0 -161.5 39t-127.5 99t-123.5 126
t-149.5 120zM70 823l23 76q137 102 271 183t284 152l-23 -87q-150 -71 -285 -150t-270 -174zM146 -327q57 -41 96 -96l-96 -95q-36 53 -95 95zM146 -141q57 -41 96 -96l-96 -95q-36 53 -95 95z" />
    <glyph glyph-name="uni06B3.fina" unicode="&#x6b3;" horiz-adv-x="1544" arabic-form="final" 
d="M600 0h-311q-124 0 -186.5 59.5t-62.5 146.5q0 59 30.5 124.5t92.5 127.5l13 -8q-51 -85 -51 -157q0 -67 49 -107.5t150 -40.5h276q18 0 26 -22t8 -46q0 -26 -7 -51.5t-27 -25.5zM1284 1075l-34 -129q-70 -28 -155.5 -67t-164 -80t-129.5 -75t-51 -54q0 -17 30.5 -36.5
t76 -46.5t91 -65.5t76 -93t30.5 -129.5q-1 -70 -36.5 -139t-115.5 -114.5t-214 -45.5h-93q-39 0 -39 73q0 72 39 72h168q81 0 135 19.5t81 45.5t28 43q0 58 -36 103.5t-89.5 82t-107.5 66t-90 56t-36 52.5q0 14 5.5 54.5t20.5 56.5q32 36 105 84.5t164.5 99t182 95
t158.5 72.5zM817 610q133 -69 224 -136.5t156 -126.5t117.5 -104.5t106 -71.5t124.5 -26q18 0 31.5 -17.5t13.5 -55.5q0 -40 -14.5 -56t-30.5 -16q-93 0 -161.5 39t-127.5 99t-123.5 126t-149.5 120zM665 823l23 76q137 102 271 183t284 152l-23 -87q-150 -71 -285 -150
t-270 -174zM818 -333q57 -41 96 -96l-96 -95q-36 53 -95 95zM818 -147q57 -41 96 -96l-96 -95q-36 53 -95 95z" />
    <glyph glyph-name="uni06B4.init" unicode="&#x6b4;" horiz-adv-x="633" 
d="M689 1075l-34 -129q-70 -28 -155.5 -67t-164 -80t-129.5 -75t-51 -54q0 -17 30.5 -36.5t76 -46.5t91 -65.5t76 -93t30.5 -129.5q-1 -70 -36.5 -139t-115.5 -114.5t-214 -45.5h-93q-39 0 -39 73q0 72 39 72h168q81 0 135 19.5t81 45.5t28 43q0 58 -36 103.5t-89.5 82
t-107.5 66t-90 56t-36 52.5q0 14 5.5 54.5t20.5 56.5q32 36 105 84.5t164.5 99t182 95t158.5 72.5zM70 823l23 76q137 102 271 183t284 152l-23 -87q-150 -71 -285 -150t-270 -174zM80 1433q57 -41 96 -96l-96 -95q-36 53 -95 95zM-11 1238q57 -41 96 -96l-96 -95
q-36 53 -95 95zM175 1238q57 -41 96 -96l-96 -95q-36 53 -95 95z" />
    <glyph glyph-name="uni06B4.medi" unicode="&#x6b4;" horiz-adv-x="951" 
d="M689 1075l-34 -129q-70 -28 -155.5 -67t-164 -80t-129.5 -75t-51 -54q0 -17 30.5 -36.5t76 -46.5t91 -65.5t76 -93t30.5 -129.5q-1 -70 -36.5 -139t-115.5 -114.5t-214 -45.5h-93q-39 0 -39 73q0 72 39 72h168q81 0 135 19.5t81 45.5t28 43q0 58 -36 103.5t-89.5 82
t-107.5 66t-90 56t-36 52.5q0 14 5.5 54.5t20.5 56.5q32 36 105 84.5t164.5 99t182 95t158.5 72.5zM224 610q133 -69 224 -136.5t156 -126.5t117.5 -104.5t106 -71.5t124.5 -26q18 0 31.5 -17.5t13.5 -55.5q0 -40 -14.5 -56t-30.5 -16q-93 0 -161.5 39t-127.5 99t-123.5 126
t-149.5 120zM70 823l23 76q137 102 271 183t284 152l-23 -87q-150 -71 -285 -150t-270 -174zM80 1433q57 -41 96 -96l-96 -95q-36 53 -95 95zM-11 1238q57 -41 96 -96l-96 -95q-36 53 -95 95zM175 1238q57 -41 96 -96l-96 -95q-36 53 -95 95z" />
    <glyph glyph-name="uni06B4.fina" unicode="&#x6b4;" horiz-adv-x="1544" 
d="M600 0h-311q-124 0 -186.5 59.5t-62.5 146.5q0 59 30.5 124.5t92.5 127.5l13 -8q-51 -85 -51 -157q0 -67 49 -107.5t150 -40.5h276q18 0 26 -22t8 -46q0 -26 -7 -51.5t-27 -25.5zM1284 1075l-34 -129q-70 -28 -155.5 -67t-164 -80t-129.5 -75t-51 -54q0 -17 30.5 -36.5
t76 -46.5t91 -65.5t76 -93t30.5 -129.5q-1 -70 -36.5 -139t-115.5 -114.5t-214 -45.5h-93q-39 0 -39 73q0 72 39 72h168q81 0 135 19.5t81 45.5t28 43q0 58 -36 103.5t-89.5 82t-107.5 66t-90 56t-36 52.5q0 14 5.5 54.5t20.5 56.5q32 36 105 84.5t164.5 99t182 95
t158.5 72.5zM817 610q133 -69 224 -136.5t156 -126.5t117.5 -104.5t106 -71.5t124.5 -26q18 0 31.5 -17.5t13.5 -55.5q0 -40 -14.5 -56t-30.5 -16q-93 0 -161.5 39t-127.5 99t-123.5 126t-149.5 120zM665 823l23 76q137 102 271 183t284 152l-23 -87q-150 -71 -285 -150
t-270 -174zM675 1433q57 -41 96 -96l-96 -95q-36 53 -95 95zM584 1238q57 -41 96 -96l-96 -95q-36 53 -95 95zM770 1238q57 -41 96 -96l-96 -95q-36 53 -95 95z" />
    <glyph glyph-name="uni06B5.init" unicode="&#x6b5;" horiz-adv-x="343" 
d="M180 922l85 -65q12 -233 15.5 -363.5t6.5 -207.5q0 -125 -71.5 -205.5t-215.5 -80.5q-41 0 -41 73q0 72 41 72q68 0 138.5 12t96.5 43l-15 -34q2 9 4 25.5t2 40.5q0 91 -10.5 273.5t-35.5 416.5zM241 1098l13 -7q-74 -136 79 -183l-47 -118q-55 25 -100.5 58.5
t-45.5 72.5q0 33 21.5 70.5t46 67.5t33.5 39zM19 1387l51 39q26 -33 53.5 -67.5t49 -58t27.5 -23.5q5 0 28.5 22.5t54 56.5t56.5 67l29 -23q-37 -48 -78 -93.5t-71.5 -75.5t-36.5 -30q-7 0 -35.5 31t-64 74t-63.5 81z" />
    <glyph glyph-name="uni06B5.medi" unicode="&#x6b5;" horiz-adv-x="438" 
d="M197 1093l39 -701q21 -247 202 -247q50 0 50 -72q0 -73 -50 -73q-84 0 -140 64t-80 146l5 2q-18 -102 -79 -157t-144 -55q-49 0 -49 73q0 72 49 72q80 0 123.5 47.5t43.5 127.5q0 30 -10 207.5t-37 463.5zM-24 1387l51 39q26 -33 53.5 -67.5t49 -58t27.5 -23.5
q5 0 28.5 22.5t54 56.5t56.5 67l29 -23q-37 -48 -78 -93.5t-71.5 -75.5t-36.5 -30q-7 0 -35.5 31t-64 74t-63.5 81z" />
    <glyph glyph-name="uni06B5.fina" unicode="&#x6b5;" horiz-adv-x="870" 
d="M280 -378q-109 0 -174.5 74t-65.5 194q0 78 27.5 156t66.5 135l18 -5q-18 -45 -30.5 -94t-12.5 -100q0 -106 57 -162t147 -56q49 0 106 21t104 61.5t62 98.5l-9 -35q8 24 0.5 160t-27.5 369.5t-51 549.5l78 104l67 -1064q7 -113 -37 -205t-128.5 -147t-197.5 -55zM870 0
q-83 0 -149.5 48t-99.5 123l-10 373q10 -150 30 -237.5t72 -124.5t157 -37q30 0 40 -21.5t10 -50.5q0 -18 -10 -45.5t-40 -27.5zM366 1387l51 39q26 -33 53.5 -67.5t49 -58t27.5 -23.5q5 0 28.5 22.5t54 56.5t56.5 67l29 -23q-37 -48 -78 -93.5t-71.5 -75.5t-36.5 -30
q-7 0 -35.5 31t-64 74t-63.5 81z" />
    <glyph glyph-name="uni06B6.init" unicode="&#x6b6;" horiz-adv-x="343" 
d="M180 922l85 -65q12 -233 15.5 -363.5t6.5 -207.5q0 -125 -71.5 -205.5t-215.5 -80.5q-41 0 -41 73q0 72 41 72q68 0 138.5 12t96.5 43l-15 -34q2 9 4 25.5t2 40.5q0 91 -10.5 273.5t-35.5 416.5zM241 1098l13 -7q-74 -136 79 -183l-47 -118q-55 25 -100.5 58.5
t-45.5 72.5q0 33 21.5 70.5t46 67.5t33.5 39zM191 1389q57 -41 96 -96l-96 -95q-36 53 -95 95z" />
    <glyph glyph-name="uni06B6.medi" unicode="&#x6b6;" horiz-adv-x="438" 
d="M197 1093l39 -701q21 -247 202 -247q50 0 50 -72q0 -73 -50 -73q-84 0 -140 64t-80 146l5 2q-18 -102 -79 -157t-144 -55q-49 0 -49 73q0 72 49 72q80 0 123.5 47.5t43.5 127.5q0 30 -10 207.5t-37 463.5zM148 1389q57 -41 96 -96l-96 -95q-36 53 -95 95z" />
    <glyph glyph-name="uni06B6.fina" unicode="&#x6b6;" horiz-adv-x="870" 
d="M280 -378q-109 0 -174.5 74t-65.5 194q0 78 27.5 156t66.5 135l18 -5q-18 -45 -30.5 -94t-12.5 -100q0 -106 57 -162t147 -56q49 0 106 21t104 61.5t62 98.5l-9 -35q8 24 0.5 160t-27.5 369.5t-51 549.5l78 104l67 -1064q7 -113 -37 -205t-128.5 -147t-197.5 -55zM870 0
q-83 0 -149.5 48t-99.5 123l-10 373q10 -150 30 -237.5t72 -124.5t157 -37q30 0 40 -21.5t10 -50.5q0 -18 -10 -45.5t-40 -27.5zM538 1389q57 -41 96 -96l-96 -95q-36 53 -95 95z" />
    <glyph glyph-name="uni06B7.init" unicode="&#x6b7;" horiz-adv-x="343" 
d="M180 922l85 -65q12 -233 15.5 -363.5t6.5 -207.5q0 -125 -71.5 -205.5t-215.5 -80.5q-41 0 -41 73q0 72 41 72q68 0 138.5 12t96.5 43l-15 -34q2 9 4 25.5t2 40.5q0 91 -10.5 273.5t-35.5 416.5zM241 1098l13 -7q-74 -136 79 -183l-47 -118q-55 25 -100.5 58.5
t-45.5 72.5q0 33 21.5 70.5t46 67.5t33.5 39zM190 1592q57 -41 96 -96l-96 -95q-36 53 -95 95zM98 1397q57 -41 96 -96l-96 -95q-36 53 -95 95zM284 1397q57 -41 96 -96l-96 -95q-36 53 -95 95z" />
    <glyph glyph-name="uni06B7.medi" unicode="&#x6b7;" horiz-adv-x="438" 
d="M197 1093l39 -701q21 -247 202 -247q50 0 50 -72q0 -73 -50 -73q-84 0 -140 64t-80 146l5 2q-18 -102 -79 -157t-144 -55q-49 0 -49 73q0 72 49 72q80 0 123.5 47.5t43.5 127.5q0 30 -10 207.5t-37 463.5zM147 1592q57 -41 96 -96l-96 -95q-36 53 -95 95zM55 1397
q57 -41 96 -96l-96 -95q-36 53 -95 95zM241 1397q57 -41 96 -96l-96 -95q-36 53 -95 95z" />
    <glyph glyph-name="uni06B7.fina" unicode="&#x6b7;" horiz-adv-x="870" 
d="M280 -378q-109 0 -174.5 74t-65.5 194q0 78 27.5 156t66.5 135l18 -5q-18 -45 -30.5 -94t-12.5 -100q0 -106 57 -162t147 -56q49 0 106 21t104 61.5t62 98.5l-9 -35q8 24 0.5 160t-27.5 369.5t-51 549.5l78 104l67 -1064q7 -113 -37 -205t-128.5 -147t-197.5 -55zM870 0
q-83 0 -149.5 48t-99.5 123l-10 373q10 -150 30 -237.5t72 -124.5t157 -37q30 0 40 -21.5t10 -50.5q0 -18 -10 -45.5t-40 -27.5zM537 1592q57 -41 96 -96l-96 -95q-36 53 -95 95zM445 1397q57 -41 96 -96l-96 -95q-36 53 -95 95zM631 1397q57 -41 96 -96l-96 -95
q-36 53 -95 95z" />
    <glyph glyph-name="uni06B8.init" unicode="&#x6b8;" horiz-adv-x="343" 
d="M180 922l85 -65q12 -233 15.5 -363.5t6.5 -207.5q0 -125 -71.5 -205.5t-215.5 -80.5q-41 0 -41 73q0 72 41 72q68 0 138.5 12t96.5 43l-15 -34q2 9 4 25.5t2 40.5q0 91 -10.5 273.5t-35.5 416.5zM241 1098l13 -7q-74 -136 79 -183l-47 -118q-55 25 -100.5 58.5
t-45.5 72.5q0 33 21.5 70.5t46 67.5t33.5 39zM199 -325q57 -41 96 -96l-96 -95q-36 53 -95 95zM106 -130q57 -41 96 -96l-96 -95q-36 53 -95 95zM292 -130q57 -41 96 -96l-96 -95q-36 53 -95 95z" />
    <glyph glyph-name="uni06B8.medi" unicode="&#x6b8;" horiz-adv-x="438" 
d="M197 1093l39 -701q21 -247 202 -247q50 0 50 -72q0 -73 -50 -73q-84 0 -140 64t-80 146l5 2q-18 -102 -79 -157t-144 -55q-49 0 -49 73q0 72 49 72q80 0 123.5 47.5t43.5 127.5q0 30 -10 207.5t-37 463.5zM193 -300q57 -41 96 -96l-96 -95q-36 53 -95 95zM100 -105
q57 -41 96 -96l-96 -95q-36 53 -95 95zM286 -105q57 -41 96 -96l-96 -95q-36 53 -95 95z" />
    <glyph glyph-name="uni06B8.fina" unicode="&#x6b8;" horiz-adv-x="870" 
d="M280 -378q-109 0 -174.5 74t-65.5 194q0 78 27.5 156t66.5 135l18 -5q-18 -45 -30.5 -94t-12.5 -100q0 -106 57 -162t147 -56q49 0 106 21t104 61.5t62 98.5l-9 -35q8 24 0.5 160t-27.5 369.5t-51 549.5l78 104l67 -1064q7 -113 -37 -205t-128.5 -147t-197.5 -55zM870 0
q-83 0 -149.5 48t-99.5 123l-10 373q10 -150 30 -237.5t72 -124.5t157 -37q30 0 40 -21.5t10 -50.5q0 -18 -10 -45.5t-40 -27.5zM553 -662q57 -41 96 -96l-96 -95q-36 53 -95 95zM460 -467q57 -41 96 -96l-96 -95q-36 53 -95 95zM646 -467q57 -41 96 -96l-96 -95
q-36 53 -95 95z" />
    <glyph glyph-name="uni06B9.init" unicode="&#x6b9;" horiz-adv-x="353" 
d="M0 145h63q86 0 138.5 16.5t52.5 35.5q0 36 -12.5 62.5t-39.5 53.5l49 125q62 -85 62 -182q0 -114 -73.5 -185t-198.5 -71h-41q-17 0 -30.5 20t-13.5 56q0 35 13.5 52t30.5 17zM206 761q57 -41 96 -96l-96 -95q-36 53 -95 95zM199 -154q57 -41 96 -96l-96 -95
q-36 53 -95 95z" />
    <glyph glyph-name="uni06B9.medi" unicode="&#x6b9;" horiz-adv-x="440" 
d="M0 0q-24 0 -32.5 19.5t-8.5 52.5q0 32 8.5 52.5t32.5 20.5h5q80 0 123.5 16t66.5 53.5t43 103.5l15 -3q-3 -16 -3 -34q0 -71 54.5 -103.5t132.5 -32.5h5q25 0 35.5 -20.5t10.5 -52.5q0 -33 -10 -52.5t-36 -19.5h-22q-69 0 -111.5 23t-65 56.5t-32.5 65.5l12 -5
q-23 -48 -76 -94t-127 -46h-20zM212 657q57 -41 96 -96l-96 -95q-36 53 -95 95zM203 -154q57 -41 96 -96l-96 -95q-36 53 -95 95z" />
    <glyph glyph-name="uni06B9.fina" unicode="&#x6b9;" horiz-adv-x="890" 
d="M890 145q20 0 33.5 -18.5t13.5 -53.5q0 -36 -13.5 -54.5t-33.5 -18.5q-48 0 -102 25t-78 55v140q19 -43 76 -59t104 -16zM675 303q38 -77 61 -144.5t23 -136.5q0 -185 -114.5 -299.5t-315.5 -114.5q-138 0 -213.5 73t-75.5 196q0 80 29.5 160.5t72.5 133.5l18 -8
q-22 -55 -35 -107t-13 -100q0 -107 67 -155t190 -48q99 0 191.5 36.5t144.5 114.5l-5 -20q1 84 -23 156.5t-68 140.5zM385 463q57 -41 96 -96l-96 -95q-36 53 -95 95zM374 -545q57 -41 96 -96l-96 -95q-36 53 -95 95z" />
    <glyph glyph-name="uni06BA.init" unicode="&#x6ba;" horiz-adv-x="353" 
d="M0 145h63q86 0 138.5 16.5t52.5 35.5q0 36 -12.5 62.5t-39.5 53.5l49 125q62 -85 62 -182q0 -114 -73.5 -185t-198.5 -71h-41q-17 0 -30.5 20t-13.5 56q0 35 13.5 52t30.5 17z" />
    <glyph glyph-name="uni06BA.medi" unicode="&#x6ba;" horiz-adv-x="440" 
d="M0 0q-24 0 -32.5 19.5t-8.5 52.5q0 32 8.5 52.5t32.5 20.5h5q80 0 123.5 16t66.5 53.5t43 103.5l15 -3q-3 -16 -3 -34q0 -71 54.5 -103.5t132.5 -32.5h5q25 0 35.5 -20.5t10.5 -52.5q0 -33 -10 -52.5t-36 -19.5h-22q-69 0 -111.5 23t-65 56.5t-32.5 65.5l12 -5
q-23 -48 -76 -94t-127 -46h-20z" />
    <glyph glyph-name="uni06BA.fina" unicode="&#x6ba;" horiz-adv-x="890" arabic-form="final" 
d="M890 145q20 0 33.5 -18.5t13.5 -53.5q0 -36 -13.5 -54.5t-33.5 -18.5q-48 0 -102 25t-78 55v140q19 -43 76 -59t104 -16zM675 303q38 -77 61 -144.5t23 -136.5q0 -185 -114.5 -299.5t-315.5 -114.5q-138 0 -213.5 73t-75.5 196q0 80 29.5 160.5t72.5 133.5l18 -8
q-22 -55 -35 -107t-13 -100q0 -107 67 -155t190 -48q99 0 191.5 36.5t144.5 114.5l-5 -20q1 84 -23 156.5t-68 140.5z" />
    <glyph glyph-name="uni06BB.init" unicode="&#x6bb;" horiz-adv-x="417" arabic-form="initial" 
d="M0 145h63q86 0 138.5 16.5t52.5 35.5q0 36 -12.5 62.5t-39.5 53.5l49 125q62 -85 62 -182q0 -114 -73.5 -185t-198.5 -71h-41q-17 0 -30.5 20t-13.5 56q0 35 13.5 52t30.5 17zM162 557l-11 76q84 0 152.5 11t68.5 36q0 15 -16 27.5t-44 12.5q-18 0 -68.5 -29.5
t-84.5 -65.5l-23 2q28 30 67 66t79 62t71 26q32 0 48 -17t16 -42q0 -46 -39 -83.5t-98 -59.5t-118 -22zM163 557q-62 0 -100.5 27.5t-59.5 62.5l2 5q32 -10 71 -14.5t76 -4.5zM178 660l-8 252l33 -19v-211zM216 873q-62 26 -62 56q0 18 18 44t28 34l5 -3q-14 -28 4 -46
t50 -28z" />
    <glyph glyph-name="uni06BB.medi" unicode="&#x6bb;" horiz-adv-x="440" arabic-form="medial" 
d="M0 0q-24 0 -32.5 19.5t-8.5 52.5q0 32 8.5 52.5t32.5 20.5h5q80 0 123.5 16t66.5 53.5t43 103.5l15 -3q-3 -16 -3 -34q0 -71 54.5 -103.5t132.5 -32.5h5q25 0 35.5 -20.5t10.5 -52.5q0 -33 -10 -52.5t-36 -19.5h-22q-69 0 -111.5 23t-65 56.5t-32.5 65.5l12 -5
q-23 -48 -76 -94t-127 -46h-20zM168 453l-11 76q84 0 152.5 11t68.5 36q0 15 -16 27.5t-44 12.5q-18 0 -68.5 -29.5t-84.5 -65.5l-23 2q28 30 67 66t79 62t71 26q32 0 48 -17t16 -42q0 -46 -39 -83.5t-98 -59.5t-118 -22zM169 453q-62 0 -100.5 27.5t-59.5 62.5l2 5
q32 -10 71 -14.5t76 -4.5zM184 556l-8 252l33 -19v-211zM222 769q-62 26 -62 56q0 18 18 44t28 34l5 -3q-14 -28 4 -46t50 -28z" />
    <glyph glyph-name="uni06BB.fina" unicode="&#x6bb;" horiz-adv-x="890" arabic-form="final" 
d="M890 145q20 0 33.5 -18.5t13.5 -53.5q0 -36 -13.5 -54.5t-33.5 -18.5q-48 0 -102 25t-78 55v140q19 -43 76 -59t104 -16zM675 303q38 -77 61 -144.5t23 -136.5q0 -185 -114.5 -299.5t-315.5 -114.5q-138 0 -213.5 73t-75.5 196q0 80 29.5 160.5t72.5 133.5l18 -8
q-22 -55 -35 -107t-13 -100q0 -107 67 -155t190 -48q99 0 191.5 36.5t144.5 114.5l-5 -20q1 84 -23 156.5t-68 140.5zM341 259l-11 76q84 0 152.5 11t68.5 36q0 15 -16 27.5t-44 12.5q-18 0 -68.5 -29.5t-84.5 -65.5l-23 2q28 30 67 66t79 62t71 26q32 0 48 -17t16 -42
q0 -46 -39 -83.5t-98 -59.5t-118 -22zM342 259q-62 0 -100.5 27.5t-59.5 62.5l2 5q32 -10 71 -14.5t76 -4.5zM357 362l-8 252l33 -19v-211zM395 575q-62 26 -62 56q0 18 18 44t28 34l5 -3q-14 -28 4 -46t50 -28z" />
    <glyph glyph-name="uni06BC.init" unicode="&#x6bc;" horiz-adv-x="353" 
d="M0 145h63q86 0 138.5 16.5t52.5 35.5q0 36 -12.5 62.5t-39.5 53.5l49 125q62 -85 62 -182q0 -114 -73.5 -185t-198.5 -71h-41q-17 0 -30.5 20t-13.5 56q0 35 13.5 52t30.5 17zM206 761q57 -41 96 -96l-96 -95q-36 53 -95 95zM178 -169q-62 0 -84.5 30.5t-22.5 80.5
q0 46 29 93.5t78 47.5q50 0 79.5 -47.5t29.5 -93.5q0 -50 -23.5 -80.5t-85.5 -30.5zM178 -104q28 0 48.5 9.5t20.5 43.5q0 35 -20.5 57.5t-48.5 22.5t-47.5 -22.5t-19.5 -57.5q0 -37 19.5 -45t47.5 -8z" />
    <glyph glyph-name="uni06BC.medi" unicode="&#x6bc;" horiz-adv-x="440" 
d="M0 0q-24 0 -32.5 19.5t-8.5 52.5q0 32 8.5 52.5t32.5 20.5h5q80 0 123.5 16t66.5 53.5t43 103.5l15 -3q-3 -16 -3 -34q0 -71 54.5 -103.5t132.5 -32.5h5q25 0 35.5 -20.5t10.5 -52.5q0 -33 -10 -52.5t-36 -19.5h-22q-69 0 -111.5 23t-65 56.5t-32.5 65.5l12 -5
q-23 -48 -76 -94t-127 -46h-20zM212 657q57 -41 96 -96l-96 -95q-36 53 -95 95zM202 -130q-62 0 -84.5 30.5t-22.5 80.5q0 46 29 93.5t78 47.5q50 0 79.5 -47.5t29.5 -93.5q0 -50 -23.5 -80.5t-85.5 -30.5zM202 -65q28 0 48.5 9.5t20.5 43.5q0 35 -20.5 57.5t-48.5 22.5
t-47.5 -22.5t-19.5 -57.5q0 -37 19.5 -45t47.5 -8z" />
    <glyph glyph-name="uni06BC.fina" unicode="&#x6bc;" horiz-adv-x="890" 
d="M890 145q20 0 33.5 -18.5t13.5 -53.5q0 -36 -13.5 -54.5t-33.5 -18.5q-48 0 -102 25t-78 55v140q19 -43 76 -59t104 -16zM675 303q38 -77 61 -144.5t23 -136.5q0 -185 -114.5 -299.5t-315.5 -114.5q-138 0 -213.5 73t-75.5 196q0 80 29.5 160.5t72.5 133.5l18 -8
q-22 -55 -35 -107t-13 -100q0 -107 67 -155t190 -48q99 0 191.5 36.5t144.5 114.5l-5 -20q1 84 -23 156.5t-68 140.5zM385 463q57 -41 96 -96l-96 -95q-36 53 -95 95zM351 -591q-62 0 -84.5 30.5t-22.5 80.5q0 46 29 93.5t78 47.5q50 0 79.5 -47.5t29.5 -93.5
q0 -50 -23.5 -80.5t-85.5 -30.5zM351 -526q28 0 48.5 9.5t20.5 43.5q0 35 -20.5 57.5t-48.5 22.5t-47.5 -22.5t-19.5 -57.5q0 -37 19.5 -45t47.5 -8z" />
    <glyph glyph-name="uni06BD.init" unicode="&#x6bd;" horiz-adv-x="353" 
d="M0 145h63q86 0 138.5 16.5t52.5 35.5q0 36 -12.5 62.5t-39.5 53.5l49 125q62 -85 62 -182q0 -114 -73.5 -185t-198.5 -71h-41q-17 0 -30.5 20t-13.5 56q0 35 13.5 52t30.5 17zM199 -358q57 -41 96 -96l-96 -95q-36 53 -95 95zM106 -163q57 -41 96 -96l-96 -95
q-36 53 -95 95zM292 -163q57 -41 96 -96l-96 -95q-36 53 -95 95z" />
    <glyph glyph-name="uni06BD.medi" unicode="&#x6bd;" horiz-adv-x="440" 
d="M0 0q-24 0 -32.5 19.5t-8.5 52.5q0 32 8.5 52.5t32.5 20.5h5q80 0 123.5 16t66.5 53.5t43 103.5l15 -3q-3 -16 -3 -34q0 -71 54.5 -103.5t132.5 -32.5h5q25 0 35.5 -20.5t10.5 -52.5q0 -33 -10 -52.5t-36 -19.5h-22q-69 0 -111.5 23t-65 56.5t-32.5 65.5l12 -5
q-23 -48 -76 -94t-127 -46h-20zM203 -358q57 -41 96 -96l-96 -95q-36 53 -95 95zM110 -163q57 -41 96 -96l-96 -95q-36 53 -95 95zM296 -163q57 -41 96 -96l-96 -95q-36 53 -95 95z" />
    <glyph glyph-name="uni06BD.fina" unicode="&#x6bd;" horiz-adv-x="890" 
d="M890 145q20 0 33.5 -18.5t13.5 -53.5q0 -36 -13.5 -54.5t-33.5 -18.5q-48 0 -102 25t-78 55v140q19 -43 76 -59t104 -16zM675 303q38 -77 61 -144.5t23 -136.5q0 -185 -114.5 -299.5t-315.5 -114.5q-138 0 -213.5 73t-75.5 196q0 80 29.5 160.5t72.5 133.5l18 -8
q-22 -55 -35 -107t-13 -100q0 -107 67 -155t190 -48q99 0 191.5 36.5t144.5 114.5l-5 -20q1 84 -23 156.5t-68 140.5zM384 666q57 -41 96 -96l-96 -95q-36 53 -95 95zM292 471q57 -41 96 -96l-96 -95q-36 53 -95 95zM478 471q57 -41 96 -96l-96 -95q-36 53 -95 95z" />
    <glyph glyph-name="uni06BE.init" unicode="&#x6be;" horiz-adv-x="577" arabic-form="initial" 
d="M184 647q125 -72 196 -131t105 -108t43 -90.5t9 -78.5q0 -81 -39.5 -126.5t-112.5 -45.5q-68 0 -143.5 24t-128 74t-52.5 127q0 55 27.5 118t70 108t89.5 45q30 0 51 -29.5t33.5 -70t18 -74.5t5.5 -43q0 -90 -46 -169t-126.5 -128t-183.5 -49q-41 0 -41 73q0 72 41 72
q70 0 128 24.5t100 58.5t65 66t23 47q0 14 -15 42t-37.5 51.5t-44.5 23.5q-20 0 -48 -25t-49 -55.5t-21 -45.5q0 -25 48 -55t121 -51t147 -21q35 0 57.5 11t22.5 30q0 23 -46 69t-130.5 100t-199.5 101z" />
    <glyph glyph-name="uni06BE.medi" unicode="&#x6be;" horiz-adv-x="698" arabic-form="medial" 
d="M698 145q25 0 39 -23t14 -50q0 -26 -14 -49t-39 -23h-57q-30 0 -95 6.5t-122 22.5q36 -33 52 -69t16 -45q0 -90 -32 -152.5t-89 -62.5q-65 0 -120 80t-73 215q-71 5 -178 5q-19 0 -30 23t-11 49t11 49.5t30 23.5q49 0 93.5 4t83.5 10q9 58 36.5 123.5t65.5 123.5
t81.5 94.5t86.5 36.5q29 0 49.5 -32.5t20.5 -101.5q0 -168 -129 -266q45 5 116.5 6.5t193.5 1.5zM403 392q-32 0 -68 -36.5t-66 -89t-46 -99.5q113 25 172 63t59 63q0 99 -51 99zM418 -155q13 24 4 47t-77 37q12 -22 13.5 -24t-52.5 4q21 -43 55.5 -56t56.5 -8z" />
    <glyph glyph-name="uni06BE.fina" unicode="&#x6be;" horiz-adv-x="799" arabic-form="final" 
d="M799 145q25 0 39 -23t14 -50q0 -26 -14 -49t-39 -23h-57q-27 0 -79.5 4.5t-111 15.5t-101.5 29q-23 15 -39.5 24.5t-16.5 26.5q0 16 12 20q31 12 73 17t117 6.5t203 1.5zM548 537q29 0 49.5 -32.5t20.5 -101.5q0 -106 -49 -181.5t-153 -129.5l-2 8q71 -20 109.5 -60.5
t54 -77.5t15.5 -47q0 -90 -32 -152.5t-90 -62.5q-50 0 -96 50t-74.5 140t-28.5 209q0 58 24.5 132.5t65 144.5t89 115.5t97.5 45.5zM504 392q-32 0 -65.5 -32.5t-62.5 -81t-47 -97.5t-18 -83q0 -103 32 -160.5t76 -80.5t79 -23q51 0 51 24q0 44 -62.5 96t-193.5 67l-1 30
q-57 -13 -135 -26t-165 -25l63 72q146 32 258.5 75t177 83t64.5 63q0 99 -51 99z" />
    <glyph glyph-name="uni06BF.init" unicode="&#x6bf;" horiz-adv-x="764" 
d="M5 0q-24 0 -31.5 19.5t-7.5 52.5q0 32 9 52.5t25 20.5q108 0 173 17t110 42t92.5 50t118.5 42.5t189 17.5l-29 -93q-93 0 -160 23.5t-119.5 54t-98.5 54t-97 23.5q-47 0 -79.5 -21.5t-47.5 -39.5l-12 6q17 67 61 128t117 61q57 0 102.5 -24.5t96.5 -55.5t123 -55t184 -24
l-41 -144q-106 0 -176 -21t-121.5 -51.5t-102 -61.5t-115.5 -52t-163 -21zM424 825q57 -41 96 -96l-96 -95q-36 53 -95 95zM328 -288q57 -41 96 -96l-96 -95q-36 53 -95 95zM235 -93q57 -41 96 -96l-96 -95q-36 53 -95 95zM421 -93q57 -41 96 -96l-96 -95q-36 53 -95 95z
" />
    <glyph glyph-name="uni06BF.medi" unicode="&#x6bf;" horiz-adv-x="809" 
d="M5 0q-44 0 -44 72q0 32 9.5 52.5t29.5 20.5q104 0 170.5 17t117.5 44.5t105.5 60.5t133 66.5t202.5 60.5l-35 -104q-107 -23 -181.5 -13t-130 33.5t-103.5 44.5t-100 21q-47 0 -79.5 -21.5t-47.5 -39.5l-12 6q17 67 61 128t117 61q57 0 108 -22t109.5 -46.5t138 -34
t195.5 16.5l-43 -144q-105 -22 -178.5 -56.5t-131.5 -73t-115.5 -73t-127.5 -56t-168 -21.5zM809 0q-104 0 -156.5 58.5t-61.5 218.5l45 12q8 -74 43 -109t130 -35q60 0 60 -72q0 -73 -60 -73zM440 825q57 -41 96 -96l-96 -95q-36 53 -95 95zM358 -288q57 -41 96 -96
l-96 -95q-36 53 -95 95zM265 -93q57 -41 96 -96l-96 -95q-36 53 -95 95zM451 -93q57 -41 96 -96l-96 -95q-36 53 -95 95z" />
    <glyph glyph-name="uni06BF.fina" unicode="&#x6bf;" horiz-adv-x="889" 
d="M549 361q0 -94 43 -155t128 -61h169q52 0 52 -72q0 -73 -52 -73h-149q-99 0 -150 44.5t-69.5 126t-18.5 190.5h47zM673 -741q-175 0 -296 43.5t-195.5 117t-108 166t-33.5 189.5q0 195 94 352t246 244l2 -7q-30 3 -58.5 13.5t-63.5 10.5q-67 0 -107 -37t-58 -67l-14 6
q5 55 37.5 107.5t85.5 87.5t117 35q49 0 95.5 -16t105 -31.5t143.5 -15.5q34 0 63.5 1.5t63.5 4.5l-60 -144q-16 2 -34.5 3t-34.5 1q-103 0 -203 -41t-181 -113t-129.5 -165t-48.5 -197q0 -142 76.5 -231t210 -131t303.5 -42h145v-24zM486 849q57 -41 96 -96l-96 -95
q-36 53 -95 95zM434 -209q57 -41 96 -96l-96 -95q-36 53 -95 95zM341 -14q57 -41 96 -96l-96 -95q-36 53 -95 95zM527 -14q57 -41 96 -96l-96 -95q-36 53 -95 95z" />
    <glyph glyph-name="uni06C1.init" unicode="&#x6c1;" horiz-adv-x="357" arabic-form="initial" 
d="M262 -433q-10 -2 -21 -2q-45 0 -73.5 32.5t-28.5 75.5q0 66 41 147.5t116 132.5l-12 -44q-33 -32 -51 -71t-18 -73q0 -33 17.5 -54.5t55.5 -21.5q11 0 22 2zM0 145h63q86 0 138.5 16.5t52.5 35.5q0 36 -12.5 62.5t-39.5 53.5l49 125q62 -85 62 -182q0 -114 -73.5 -185
t-198.5 -71h-41q-17 0 -30.5 20t-13.5 56q0 35 13.5 52t30.5 17z" />
    <glyph glyph-name="uni06C1.medi" unicode="&#x6c1;" horiz-adv-x="877" arabic-form="medial" 
d="M567 283q53 0 83.5 -21t56.5 -48t64 -48t106 -21q21 0 35.5 -17.5t14.5 -54.5q0 -36 -15 -54.5t-35 -18.5q-72 0 -111 21t-65 48t-58 48t-91 21q-78 0 -133 -55.5t-91.5 -140t-61.5 -171.5q-57 137 -123 183t-145 46q-38 0 -38 72q0 73 38 73q88 0 155 -46t122 -169
l-9 -2q13 51 41 112t67 116.5t88 91t105 35.5zM347 -688q-10 -2 -21 -2q-45 0 -73.5 32.5t-28.5 75.5q0 66 41 147.5t116 132.5l-12 -44q-33 -32 -51 -71t-18 -73q0 -33 17.5 -54.5t55.5 -21.5q11 0 22 2z" />
    <glyph glyph-name="uni06C1.fina" unicode="&#x6c1;" horiz-adv-x="730" arabic-form="final" 
d="M61 -167l-20 4q39 173 102.5 270t132 136.5t120.5 39.5t91 -21t73.5 -48t74.5 -48t95 -21q52 0 52 -72q0 -73 -52 -73q-70 0 -119 21t-87.5 48t-76 48t-83.5 21q-63 0 -119.5 -41.5t-103 -110.5t-80.5 -153z" />
    <glyph glyph-name="uni06C3.fina" unicode="&#x6c3;" horiz-adv-x="730" 
d="M61 -167l-20 4q39 173 102.5 270t132 136.5t120.5 39.5t91 -21t73.5 -48t74.5 -48t95 -21q52 0 52 -72q0 -73 -52 -73q-70 0 -119 21t-87.5 48t-76 48t-83.5 21q-63 0 -119.5 -41.5t-103 -110.5t-80.5 -153zM335 626q57 -41 96 -96l-96 -95q-36 53 -95 95zM521 626
q57 -41 96 -96l-96 -95q-36 53 -95 95z" />
    <glyph glyph-name="uni06C4.fina" unicode="&#x6c4;" horiz-adv-x="726" 
d="M257 -380q-52 0 -110.5 19t-110.5 46.5t-87 54.5l7 14q71 -24 156 -24q74 0 156.5 23t154 68t116.5 108.5t45 144.5q0 78 -32.5 132t-58.5 54q-20 0 -38 -28.5t-18 -48.5q0 -9 19.5 -23.5t68.5 -14.5h201q45 0 45 -72q0 -73 -45 -73h-197q-63 0 -103.5 44t-40.5 101
q0 26 5.5 69t19.5 87t37.5 74t59.5 30q46 0 73.5 -55.5t39.5 -134.5t12 -151q0 -114 -42 -197.5t-104 -138.5t-125 -81.5t-104 -26.5zM304 -289q-62 0 -84.5 30.5t-22.5 80.5q0 46 29 93.5t78 47.5q50 0 79.5 -47.5t29.5 -93.5q0 -50 -23.5 -80.5t-85.5 -30.5zM304 -224
q28 0 48.5 9.5t20.5 43.5q0 35 -20.5 57.5t-48.5 22.5t-47.5 -22.5t-19.5 -57.5q0 -37 19.5 -45t47.5 -8z" />
    <glyph glyph-name="uni06C5.fina" unicode="&#x6c5;" horiz-adv-x="723" arabic-form="final" 
d="M269 -380q-37 0 -86.5 17t-95.5 46t-76.5 66t-30.5 77q0 65 57.5 92.5t142.5 27.5q78 0 167 -19.5t164 -47.5l-22 -24q-73 12 -157 12q-70 0 -133 -9t-103 -28t-40 -50q0 -19 24 -35t70 -16q64 0 138.5 23.5t141 68.5t109 108.5t42.5 144.5q0 78 -32.5 132t-58.5 54
q-20 0 -38 -28.5t-18 -48.5q0 -9 19.5 -23.5t68.5 -14.5h201q45 0 45 -72q0 -73 -45 -73h-197q-63 0 -103.5 44t-40.5 101q0 26 5.5 69t19.5 87t37.5 74t59.5 30q46 0 73.5 -55.5t39.5 -134.5t12 -151q0 -114 -40 -197.5t-99 -138.5t-119.5 -81.5t-101.5 -26.5z" />
    <glyph glyph-name="uni06C6.fina" unicode="&#x6c6;" horiz-adv-x="726" arabic-form="final" 
d="M257 -380q-52 0 -110.5 19t-110.5 46.5t-87 54.5l7 14q71 -24 156 -24q74 0 156.5 23t154 68t116.5 108.5t45 144.5q0 78 -32.5 132t-58.5 54q-20 0 -38 -28.5t-18 -48.5q0 -9 19.5 -23.5t68.5 -14.5h201q45 0 45 -72q0 -73 -45 -73h-197q-63 0 -103.5 44t-40.5 101
q0 26 5.5 69t19.5 87t37.5 74t59.5 30q46 0 73.5 -55.5t39.5 -134.5t12 -151q0 -114 -42 -197.5t-104 -138.5t-125 -81.5t-104 -26.5zM335 719l51 39q26 -33 53.5 -67.5t49 -58t27.5 -23.5q5 0 28.5 22.5t54 56.5t56.5 67l29 -23q-37 -48 -78 -93.5t-71.5 -75.5t-36.5 -30
q-7 0 -35.5 31t-64 74t-63.5 81z" />
    <glyph glyph-name="uni06C7.fina" unicode="&#x6c7;" horiz-adv-x="726" arabic-form="final" 
d="M257 -380q-52 0 -110.5 19t-110.5 46.5t-87 54.5l7 14q71 -24 156 -24q74 0 156.5 23t154 68t116.5 108.5t45 144.5q0 78 -32.5 132t-58.5 54q-20 0 -38 -28.5t-18 -48.5q0 -9 19.5 -23.5t68.5 -14.5h201q45 0 45 -72q0 -73 -45 -73h-197q-63 0 -103.5 44t-40.5 101
q0 26 5.5 69t19.5 87t37.5 74t59.5 30q46 0 73.5 -55.5t39.5 -134.5t12 -151q0 -114 -42 -197.5t-104 -138.5t-125 -81.5t-104 -26.5zM447 478l-18 33q45 29 74.5 77t27.5 119l8 -9q-4 -3 -13.5 -4.5t-17.5 -1.5q-31 0 -50.5 20.5t-19.5 49.5q0 31 24 52t55 21
q43 0 61 -29.5t18 -69.5q0 -81 -44 -154t-105 -104z" />
    <glyph glyph-name="uni06C8.fina" unicode="&#x6c8;" horiz-adv-x="726" arabic-form="final" 
d="M257 -380q-52 0 -110.5 19t-110.5 46.5t-87 54.5l7 14q71 -24 156 -24q74 0 156.5 23t154 68t116.5 108.5t45 144.5q0 78 -32.5 132t-58.5 54q-20 0 -38 -28.5t-18 -48.5q0 -9 19.5 -23.5t68.5 -14.5h201q45 0 45 -72q0 -73 -45 -73h-197q-63 0 -103.5 44t-40.5 101
q0 26 5.5 69t19.5 87t37.5 74t59.5 30q46 0 73.5 -55.5t39.5 -134.5t12 -151q0 -114 -42 -197.5t-104 -138.5t-125 -81.5t-104 -26.5zM533 562l-57 -47v264l57 48v-265z" />
    <glyph glyph-name="uni06C9.fina" unicode="&#x6c9;" horiz-adv-x="726" arabic-form="final" 
d="M257 -380q-52 0 -110.5 19t-110.5 46.5t-87 54.5l7 14q71 -24 156 -24q74 0 156.5 23t154 68t116.5 108.5t45 144.5q0 78 -32.5 132t-58.5 54q-20 0 -38 -28.5t-18 -48.5q0 -9 19.5 -23.5t68.5 -14.5h201q45 0 45 -72q0 -73 -45 -73h-197q-63 0 -103.5 44t-40.5 101
q0 26 5.5 69t19.5 87t37.5 74t59.5 30q46 0 73.5 -55.5t39.5 -134.5t12 -151q0 -114 -42 -197.5t-104 -138.5t-125 -81.5t-104 -26.5zM670 557l-51 -39q-25 32 -53 66.5t-49.5 58.5t-27.5 24q-5 0 -28.5 -23t-54 -57t-56.5 -66l-29 23q37 47 78 92.5t71.5 75.5t37.5 30
q6 0 34.5 -30.5t64 -74t63.5 -80.5z" />
    <glyph glyph-name="uni06CA.fina" unicode="&#x6ca;" horiz-adv-x="726" 
d="M257 -380q-52 0 -110.5 19t-110.5 46.5t-87 54.5l7 14q71 -24 156 -24q74 0 156.5 23t154 68t116.5 108.5t45 144.5q0 78 -32.5 132t-58.5 54q-20 0 -38 -28.5t-18 -48.5q0 -9 19.5 -23.5t68.5 -14.5h201q45 0 45 -72q0 -73 -45 -73h-197q-63 0 -103.5 44t-40.5 101
q0 26 5.5 69t19.5 87t37.5 74t59.5 30q46 0 73.5 -55.5t39.5 -134.5t12 -151q0 -114 -42 -197.5t-104 -138.5t-125 -81.5t-104 -26.5zM414 721q57 -41 96 -96l-96 -95q-36 53 -95 95zM600 721q57 -41 96 -96l-96 -95q-36 53 -95 95z" />
    <glyph glyph-name="uni06CB.fina" unicode="&#x6cb;" horiz-adv-x="726" arabic-form="final" 
d="M257 -380q-52 0 -110.5 19t-110.5 46.5t-87 54.5l7 14q71 -24 156 -24q74 0 156.5 23t154 68t116.5 108.5t45 144.5q0 78 -32.5 132t-58.5 54q-20 0 -38 -28.5t-18 -48.5q0 -9 19.5 -23.5t68.5 -14.5h201q45 0 45 -72q0 -73 -45 -73h-197q-63 0 -103.5 44t-40.5 101
q0 26 5.5 69t19.5 87t37.5 74t59.5 30q46 0 73.5 -55.5t39.5 -134.5t12 -151q0 -114 -42 -197.5t-104 -138.5t-125 -81.5t-104 -26.5zM506 924q57 -41 96 -96l-96 -95q-36 53 -95 95zM414 729q57 -41 96 -96l-96 -95q-36 53 -95 95zM600 729q57 -41 96 -96l-96 -95
q-36 53 -95 95z" />
    <glyph glyph-name="uni06CC.init" unicode="&#x6cc;" horiz-adv-x="353" arabic-form="initial" 
d="M0 145h63q86 0 138.5 16.5t52.5 35.5q0 36 -12.5 62.5t-39.5 53.5l49 125q62 -85 62 -182q0 -114 -73.5 -185t-198.5 -71h-41q-17 0 -30.5 20t-13.5 56q0 35 13.5 52t30.5 17zM106 -154q57 -41 96 -96l-96 -95q-36 53 -95 95zM292 -154q57 -41 96 -96l-96 -95
q-36 53 -95 95z" />
    <glyph glyph-name="uni06CC.medi" unicode="&#x6cc;" horiz-adv-x="440" arabic-form="medial" 
d="M0 0q-24 0 -32.5 19.5t-8.5 52.5q0 32 8.5 52.5t32.5 20.5h5q80 0 123.5 16t66.5 53.5t43 103.5l15 -3q-3 -16 -3 -34q0 -71 54.5 -103.5t132.5 -32.5h5q25 0 35.5 -20.5t10.5 -52.5q0 -33 -10 -52.5t-36 -19.5h-22q-69 0 -111.5 23t-65 56.5t-32.5 65.5l12 -5
q-23 -48 -76 -94t-127 -46h-20zM110 -154q57 -41 96 -96l-96 -95q-36 53 -95 95zM296 -154q57 -41 96 -96l-96 -95q-36 53 -95 95z" />
    <glyph glyph-name="uni06CC.fina" unicode="&#x6cc;" horiz-adv-x="1048" arabic-form="final" 
d="M1048 145q39 0 39 -72q0 -73 -39 -73h-233q-89 0 -115 -12t-26 -23q0 -22 30.5 -32.5t76 -16.5t91 -14.5t76 -27t30.5 -54.5q0 -71 -60 -121.5t-152.5 -82t-192.5 -46t-179 -14.5q-169 0 -252.5 47.5t-97 129t31 185.5t134.5 217l14 -5q-87 -164 -96 -257.5t70.5 -132.5
t258.5 -39q35 0 93 2.5t123 8.5t122.5 15t94 21t36.5 27q0 19 -30.5 26.5t-75 12t-89 13t-74.5 29t-29 60.5q1 56 37.5 108.5t110.5 86.5t187 34h85z" />
    <glyph glyph-name="uni06CD.fina" unicode="&#x6cd;" horiz-adv-x="1048" 
d="M-78 -70v15q69 14 146 59t129 114l8 -12q-34 -105 -106.5 -142.5t-176.5 -33.5zM1048 145q39 0 39 -72q0 -73 -39 -73h-233q-89 0 -115 -12t-26 -23q0 -22 30.5 -32.5t76 -16.5t91 -14.5t76 -27t30.5 -54.5q0 -71 -60 -121.5t-152.5 -82t-192.5 -46t-179 -14.5
q-169 0 -252.5 47.5t-97 129t31 185.5t134.5 217l14 -5q-87 -164 -96 -257.5t70.5 -132.5t258.5 -39q35 0 93 2.5t123 8.5t122.5 15t94 21t36.5 27q0 19 -30.5 26.5t-75 12t-89 13t-74.5 29t-29 60.5q1 56 37.5 108.5t110.5 86.5t187 34h85z" />
    <glyph glyph-name="uni06CE.init" unicode="&#x6ce;" horiz-adv-x="353" 
d="M0 145h63q86 0 138.5 16.5t52.5 35.5q0 36 -12.5 62.5t-39.5 53.5l49 125q62 -85 62 -182q0 -114 -73.5 -185t-198.5 -71h-41q-17 0 -30.5 20t-13.5 56q0 35 13.5 52t30.5 17zM34 759l51 39q26 -33 53.5 -67.5t49 -58t27.5 -23.5q5 0 28.5 22.5t54 56.5t56.5 67l29 -23
q-37 -48 -78 -93.5t-71.5 -75.5t-36.5 -30q-7 0 -35.5 31t-64 74t-63.5 81zM106 -154q57 -41 96 -96l-96 -95q-36 53 -95 95zM292 -154q57 -41 96 -96l-96 -95q-36 53 -95 95z" />
    <glyph glyph-name="uni06CE.medi" unicode="&#x6ce;" horiz-adv-x="440" 
d="M0 0q-24 0 -32.5 19.5t-8.5 52.5q0 32 8.5 52.5t32.5 20.5h5q80 0 123.5 16t66.5 53.5t43 103.5l15 -3q-3 -16 -3 -34q0 -71 54.5 -103.5t132.5 -32.5h5q25 0 35.5 -20.5t10.5 -52.5q0 -33 -10 -52.5t-36 -19.5h-22q-69 0 -111.5 23t-65 56.5t-32.5 65.5l12 -5
q-23 -48 -76 -94t-127 -46h-20zM40 655l51 39q26 -33 53.5 -67.5t49 -58t27.5 -23.5q5 0 28.5 22.5t54 56.5t56.5 67l29 -23q-37 -48 -78 -93.5t-71.5 -75.5t-36.5 -30q-7 0 -35.5 31t-64 74t-63.5 81zM110 -154q57 -41 96 -96l-96 -95q-36 53 -95 95zM296 -154
q57 -41 96 -96l-96 -95q-36 53 -95 95z" />
    <glyph glyph-name="uni06CE.fina" unicode="&#x6ce;" horiz-adv-x="1048" 
d="M1048 145q39 0 39 -72q0 -73 -39 -73h-233q-89 0 -115 -12t-26 -23q0 -22 30.5 -32.5t76 -16.5t91 -14.5t76 -27t30.5 -54.5q0 -71 -60 -121.5t-152.5 -82t-192.5 -46t-179 -14.5q-169 0 -252.5 47.5t-97 129t31 185.5t134.5 217l14 -5q-87 -164 -96 -257.5t70.5 -132.5
t258.5 -39q35 0 93 2.5t123 8.5t122.5 15t94 21t36.5 27q0 19 -30.5 26.5t-75 12t-89 13t-74.5 29t-29 60.5q1 56 37.5 108.5t110.5 86.5t187 34h85zM396 510l51 39q26 -33 53.5 -67.5t49 -58t27.5 -23.5q5 0 28.5 22.5t54 56.5t56.5 67l29 -23q-37 -48 -78 -93.5
t-71.5 -75.5t-36.5 -30q-7 0 -35.5 31t-64 74t-63.5 81z" />
    <glyph glyph-name="uni06CF.fina" unicode="&#x6cf;" horiz-adv-x="726" 
d="M257 -380q-52 0 -110.5 19t-110.5 46.5t-87 54.5l7 14q71 -24 156 -24q74 0 156.5 23t154 68t116.5 108.5t45 144.5q0 78 -32.5 132t-58.5 54q-20 0 -38 -28.5t-18 -48.5q0 -9 19.5 -23.5t68.5 -14.5h201q45 0 45 -72q0 -73 -45 -73h-197q-63 0 -103.5 44t-40.5 101
q0 26 5.5 69t19.5 87t37.5 74t59.5 30q46 0 73.5 -55.5t39.5 -134.5t12 -151q0 -114 -42 -197.5t-104 -138.5t-125 -81.5t-104 -26.5zM507 721q57 -41 96 -96l-96 -95q-36 53 -95 95z" />
    <glyph glyph-name="uni06D0.init" unicode="&#x6d0;" horiz-adv-x="353" arabic-form="initial" 
d="M0 145h63q86 0 138.5 16.5t52.5 35.5q0 36 -12.5 62.5t-39.5 53.5l49 125q62 -85 62 -182q0 -114 -73.5 -185t-198.5 -71h-41q-17 0 -30.5 20t-13.5 56q0 35 13.5 52t30.5 17zM199 -353q57 -41 96 -96l-96 -95q-36 53 -95 95zM199 -167q57 -41 96 -96l-96 -95
q-36 53 -95 95z" />
    <glyph glyph-name="uni06D0.medi" unicode="&#x6d0;" horiz-adv-x="440" arabic-form="medial" 
d="M0 0q-24 0 -32.5 19.5t-8.5 52.5q0 32 8.5 52.5t32.5 20.5h5q80 0 123.5 16t66.5 53.5t43 103.5l15 -3q-3 -16 -3 -34q0 -71 54.5 -103.5t132.5 -32.5h5q25 0 35.5 -20.5t10.5 -52.5q0 -33 -10 -52.5t-36 -19.5h-22q-69 0 -111.5 23t-65 56.5t-32.5 65.5l12 -5
q-23 -48 -76 -94t-127 -46h-20zM203 -353q57 -41 96 -96l-96 -95q-36 53 -95 95zM203 -167q57 -41 96 -96l-96 -95q-36 53 -95 95z" />
    <glyph glyph-name="uni06D0.fina" unicode="&#x6d0;" horiz-adv-x="1048" arabic-form="final" 
d="M1048 145q39 0 39 -72q0 -73 -39 -73h-233q-89 0 -115 -12t-26 -23q0 -22 30.5 -32.5t76 -16.5t91 -14.5t76 -27t30.5 -54.5q0 -71 -60 -121.5t-152.5 -82t-192.5 -46t-179 -14.5q-169 0 -252.5 47.5t-97 129t31 185.5t134.5 217l14 -5q-87 -164 -96 -257.5t70.5 -132.5
t258.5 -39q35 0 93 2.5t123 8.5t122.5 15t94 21t36.5 27q0 19 -30.5 26.5t-75 12t-89 13t-74.5 29t-29 60.5q1 56 37.5 108.5t110.5 86.5t187 34h85zM443 -767q57 -41 96 -96l-96 -95q-36 53 -95 95zM443 -581q57 -41 96 -96l-96 -95q-36 53 -95 95z" />
    <glyph glyph-name="uni06D1.init" unicode="&#x6d1;" horiz-adv-x="353" 
d="M0 145h63q86 0 138.5 16.5t52.5 35.5q0 36 -12.5 62.5t-39.5 53.5l49 125q62 -85 62 -182q0 -114 -73.5 -185t-198.5 -71h-41q-17 0 -30.5 20t-13.5 56q0 35 13.5 52t30.5 17zM199 -358q57 -41 96 -96l-96 -95q-36 53 -95 95zM106 -163q57 -41 96 -96l-96 -95
q-36 53 -95 95zM292 -163q57 -41 96 -96l-96 -95q-36 53 -95 95z" />
    <glyph glyph-name="uni06D1.medi" unicode="&#x6d1;" horiz-adv-x="440" 
d="M0 0q-24 0 -32.5 19.5t-8.5 52.5q0 32 8.5 52.5t32.5 20.5h5q80 0 123.5 16t66.5 53.5t43 103.5l15 -3q-3 -16 -3 -34q0 -71 54.5 -103.5t132.5 -32.5h5q25 0 35.5 -20.5t10.5 -52.5q0 -33 -10 -52.5t-36 -19.5h-22q-69 0 -111.5 23t-65 56.5t-32.5 65.5l12 -5
q-23 -48 -76 -94t-127 -46h-20zM203 -358q57 -41 96 -96l-96 -95q-36 53 -95 95zM110 -163q57 -41 96 -96l-96 -95q-36 53 -95 95zM296 -163q57 -41 96 -96l-96 -95q-36 53 -95 95z" />
    <glyph glyph-name="uni06D1.fina" unicode="&#x6d1;" horiz-adv-x="1048" 
d="M1048 145q39 0 39 -72q0 -73 -39 -73h-233q-89 0 -115 -12t-26 -23q0 -22 30.5 -32.5t76 -16.5t91 -14.5t76 -27t30.5 -54.5q0 -71 -60 -121.5t-152.5 -82t-192.5 -46t-179 -14.5q-169 0 -252.5 47.5t-97 129t31 185.5t134.5 217l14 -5q-87 -164 -96 -257.5t70.5 -132.5
t258.5 -39q35 0 93 2.5t123 8.5t122.5 15t94 21t36.5 27q0 19 -30.5 26.5t-75 12t-89 13t-74.5 29t-29 60.5q1 56 37.5 108.5t110.5 86.5t187 34h85zM443 -773q57 -41 96 -96l-96 -95q-36 53 -95 95zM350 -578q57 -41 96 -96l-96 -95q-36 53 -95 95zM536 -578q57 -41 96 -96
l-96 -95q-36 53 -95 95z" />
    <glyph glyph-name="uni06D2.fina" unicode="&#x6d2;" horiz-adv-x="1084" arabic-form="final" 
d="M1084 145q47 0 47 -74q0 -71 -47 -71h-338q-134 0 -252.5 -18t-209.5 -47t-142.5 -64t-51.5 -70q0 -33 49.5 -55.5t166.5 -34t320 -11.5q121 0 244 9t244 30l-57 -87q-69 -38 -214.5 -65t-346.5 -27q-247 0 -351.5 37t-104.5 136q0 104 69 181t182 128.5t246.5 77
t261.5 25.5h285z" />
    <glyph glyph-name="uni06D3.fina" unicode="&#x6d3;" horiz-adv-x="1084" arabic-form="final" 
d="M1084 145q47 0 47 -74q0 -71 -47 -71h-338q-134 0 -252.5 -18t-209.5 -47t-142.5 -64t-51.5 -70q0 -33 49.5 -55.5t166.5 -34t320 -11.5q121 0 244 9t244 30l-57 -87q-69 -38 -214.5 -65t-346.5 -27q-247 0 -351.5 37t-104.5 136q0 104 69 181t182 128.5t246.5 77
t261.5 25.5h285zM510 311q-20 9 -37 25t-17 42q0 102 38 151t83 49q27 0 55.5 -10.5t43.5 -33.5l-13 -25q-20 10 -46 10q-42 0 -84.5 -23t-54.5 -62l4 23q2 -27 24 -51.5t72 -24.5q19 0 42 5zM744 399l-45 -74q-57 0 -122.5 -15t-142.5 -85l-33 25q68 69 143.5 109t199.5 40
z" />
    <glyph glyph-name="uni06D5.fina" unicode="&#x6d5;" horiz-adv-x="642" 
d="M642 0q-92 0 -143.5 34t-79 110t-45.5 199.5t-43 303.5l62 81q21 -225 43 -352t68.5 -179t137.5 -52q19 0 32.5 -19t13.5 -53q0 -38 -15 -55.5t-31 -17.5zM154 49q-33 0 -73.5 11.5t-40.5 46.5q0 101 44 170.5t118.5 116.5t166.5 79l8 -77q-51 -10 -98 -39t-77.5 -63
t-30.5 -59q0 -32 66 -32q27 0 63.5 13t63.5 30.5t25 31.5l24 -72q-22 -75 -100 -116t-159 -41z" />
    <glyph glyph-name="uni06EE.fina" unicode="&#x6ee;" horiz-adv-x="644" 
d="M618 0q-61 0 -103.5 35.5t-77 115.5t-69.5 213.5t-82 331.5l65 74l96 -440q23 -107 67.5 -146t129.5 -39q49 0 49 -72q0 -73 -49 -73h-26zM183 -15q-40 0 -77 11.5t-66 36.5l9 150q29 -30 75 -43t95 -13q48 0 94.5 14.5t73.5 40.5t17 59l44 -21q0 -65 -36 -118t-95.5 -85
t-133.5 -32zM512 935l-51 -39q-25 32 -53 66.5t-49.5 58.5t-27.5 24q-5 0 -28.5 -23t-54 -57t-56.5 -66l-29 23q37 47 78 92.5t71.5 75.5t37.5 30q6 0 34.5 -30.5t64 -74t63.5 -80.5z" />
    <glyph glyph-name="uni06EF.fina" unicode="&#x6ef;" horiz-adv-x="542" 
d="M-114 -297l7 14q36 -18 93 -18q85 0 161.5 31.5t134.5 79.5t91.5 98t33.5 86q0 26 -41.5 64.5t-88.5 62.5l38 146q62 -39 99.5 -96.5t37.5 -108.5q0 -108 -37 -209.5t-102 -167t-148 -65.5q-69 0 -151.5 24.5t-127.5 58.5zM542 145q19 0 33 -18.5t14 -53.5
q0 -36 -14 -54.5t-33 -18.5q-48 0 -88 21.5t-69 51.5v136q41 -43 78.5 -53.5t78.5 -10.5zM478 434l-51 -39q-25 32 -53 66.5t-49.5 58.5t-27.5 24q-5 0 -28.5 -23t-54 -57t-56.5 -66l-29 23q37 47 78 92.5t71.5 75.5t37.5 30q6 0 34.5 -30.5t64 -74t63.5 -80.5z" />
    <glyph glyph-name="uni06FA.init" unicode="&#x6fa;" horiz-adv-x="843" 
d="M0 0q-17 0 -31 18t-14 54q0 35 14 54t31 19q74 0 109.5 13.5t56 46t50.5 89.5h15q-25 -74 20.5 -111.5t118.5 -37.5q51 0 92 30.5t67.5 66.5t32.5 52h15q-14 -59 9.5 -87t59 -36t56.5 -8q15 0 34.5 4t19.5 17q0 21 -7 48t-19 37l49 97q14 -13 19 -47.5t5 -51.5
q0 -27 -6.5 -68.5t-21 -83t-37.5 -69.5t-56 -28q-47 0 -86.5 26t-66.5 65l14 1q-84 -110 -185 -110q-67 0 -112 29.5t-71 55.5l12 5q-37 -55 -77.5 -72.5t-109.5 -17.5zM482 867q57 -41 96 -96l-96 -95q-36 53 -95 95zM390 672q57 -41 96 -96l-96 -95q-36 53 -95 95z
M576 672q57 -41 96 -96l-96 -95q-36 53 -95 95zM480 -121q57 -41 96 -96l-96 -95q-36 53 -95 95z" />
    <glyph glyph-name="uni06FA.medi" unicode="&#x6fa;" horiz-adv-x="1032" 
d="M1032 0q-71 0 -109 5t-58 21t-37 47l9 4q-15 -26 -52 -51.5t-83 -25.5q-88 0 -121 68l9 -2q-21 -25 -64.5 -45.5t-118.5 -20.5q-53 0 -95 15t-76 62l10 2q-36 -33 -66 -50t-70.5 -23t-109.5 -6q-38 0 -38 73q0 72 38 72q97 0 148 12t78 44t51 93h15q-11 -55 7.5 -87.5
t53.5 -47t73 -14.5q72 0 128 26.5t95 122.5h15q-16 -82 1 -115.5t72 -33.5q42 0 70 28t45 63.5t26 57.5h15q-13 -68 -9 -99.5t38.5 -40.5t109.5 -9q51 0 51 -72q0 -73 -51 -73zM585 867q57 -41 96 -96l-96 -95q-36 53 -95 95zM493 672q57 -41 96 -96l-96 -95q-36 53 -95 95z
M679 672q57 -41 96 -96l-96 -95q-36 53 -95 95zM586 -146q57 -41 96 -96l-96 -95q-36 53 -95 95z" />
    <glyph glyph-name="uni06FA.fina" unicode="&#x6fa;" horiz-adv-x="1471" 
d="M1151 0q-44 0 -85.5 24t-61.5 56l75 133q12 -30 34.5 -47.5t62.5 -17.5q46 0 75 27t45 62t24 57h15q-15 -70 -10 -101.5t39 -39.5t107 -8q45 0 45 -72q0 -73 -45 -73q-91 0 -138 11t-75 58l9 3q-15 -24 -46.5 -48t-69.5 -24zM864 -15q-25 0 -65 12t-65 29l-24 157
q41 -32 73 -42.5t89 -10.5q55 0 103 36t79 86t34 90l18 -6q0 -53 -15 -113.5t-45 -114.5t-75.5 -88.5t-106.5 -34.5zM675 311q38 -76 61 -143.5t23 -137.5q0 -184 -114.5 -299t-315.5 -115q-138 0 -213.5 73.5t-75.5 196.5q0 80 29.5 160.5t72.5 132.5l18 -8
q-22 -54 -35 -106.5t-13 -100.5q0 -106 67 -154.5t190 -48.5q99 0 191.5 37t144.5 114l-5 -20q1 85 -23 157t-68 141zM1018 867q57 -41 96 -96l-96 -95q-36 53 -95 95zM926 672q57 -41 96 -96l-96 -95q-36 53 -95 95zM1112 672q57 -41 96 -96l-96 -95q-36 53 -95 95z
M1069 -153q57 -41 96 -96l-96 -95q-36 53 -95 95z" />
    <glyph glyph-name="uni06FB.init" unicode="&#x6fb;" horiz-adv-x="1143" 
d="M439 130l22 -145q-127 0 -202 33.5t-98 92.5l12 10q-35 -69 -69.5 -95t-93.5 -26h-15q-17 0 -30.5 20t-13.5 56q0 35 13.5 52t30.5 17h5q77 0 114.5 41t55.5 108h15q9 -68 47 -103.5t93 -48t114 -12.5zM951 528q71 0 111.5 -39t40.5 -102q0 -96 -59 -170.5t-154.5 -126
t-208.5 -78.5t-222 -27l-23 145q110 0 214 12t187 34.5t132 53.5t49 70q0 43 -46 75.5t-112 32.5q-25 0 -77 -25.5t-117 -68t-130 -94t-116 -103.5l-57 4q29 32 81.5 82.5t117.5 106.5t135 105.5t135.5 81t118.5 31.5zM554 744q57 -41 96 -96l-96 -95q-36 53 -95 95z
M554 -154q57 -41 96 -96l-96 -95q-36 53 -95 95z" />
    <glyph glyph-name="uni06FB.medi" unicode="&#x6fb;" horiz-adv-x="1143" 
d="M439 130l22 -145q-127 0 -202 33.5t-98 92.5l12 10q-35 -69 -69.5 -95t-93.5 -26h-15q-17 0 -30.5 20t-13.5 56q0 35 13.5 52t30.5 17h5q77 0 114.5 41t55.5 108h15q9 -68 47 -103.5t93 -48t114 -12.5zM951 528q71 0 111.5 -39t40.5 -102q0 -96 -59 -170.5t-154.5 -126
t-208.5 -78.5t-222 -27l-23 145q110 0 214 12t187 34.5t132 53.5t49 70q0 43 -46 75.5t-112 32.5q-25 0 -77 -25.5t-117 -68t-130 -94t-116 -103.5l-57 4q29 32 81.5 82.5t117.5 106.5t135 105.5t135.5 81t118.5 31.5zM862 122q66 16 142.5 19.5t138.5 3.5q12 0 22.5 -18
t10.5 -55q0 -39 -11.5 -55.5t-21.5 -16.5q-102 0 -169.5 5.5t-122 19.5t-118.5 41zM554 744q57 -41 96 -96l-96 -95q-36 53 -95 95zM554 -154q57 -41 96 -96l-96 -95q-36 53 -95 95z" />
    <glyph glyph-name="uni06FB.fina" unicode="&#x6fb;" horiz-adv-x="1575" 
d="M871 130l23 -145q-104 0 -157 23l-20 153q61 -31 154 -31zM675 313q38 -77 61 -144.5t23 -136.5q0 -185 -114.5 -299.5t-315.5 -114.5q-138 0 -213.5 73t-75.5 196q0 80 29.5 160.5t72.5 133.5l18 -8q-22 -55 -35 -107t-13 -100q0 -107 67 -155t190 -48q99 0 191.5 36.5
t144.5 114.5l-5 -20q1 84 -23 156.5t-68 140.5zM1383 528q71 0 111.5 -39t40.5 -102q0 -96 -58.5 -170.5t-154.5 -126t-209 -78.5t-221 -27l-23 145q109 0 213 12t187 34.5t132 53.5t49 70q0 43 -45.5 75.5t-112.5 32.5q-25 0 -76.5 -25.5t-116.5 -68t-130.5 -94
t-116.5 -103.5l-57 4q30 32 82 82.5t117.5 106.5t135 105.5t135.5 81t118 31.5zM1294 122q66 16 142.5 19.5t138.5 3.5q12 0 22.5 -18t10.5 -55q0 -39 -11.5 -55.5t-21.5 -16.5q-102 0 -169.5 5.5t-122 19.5t-118.5 41zM986 744q57 -41 96 -96l-96 -95q-36 53 -95 95z
M1084 -154q57 -41 96 -96l-96 -95q-36 53 -95 95z" />
    <glyph glyph-name="uni06FC.init" unicode="&#x6fc;" horiz-adv-x="750" 
d="M0 0q-46 0 -46 73q0 72 46 72q82 0 154.5 5t151.5 18.5t176 38t228 64.5l-39 -107q-79 -41 -187.5 -79t-232.5 -61.5t-251 -23.5zM283 111q-31 19 -55 57t-38 78t-14 63q0 46 15.5 100.5t44.5 103.5t71 80.5t96 31.5q68 0 128.5 -42t89.5 -101l-11 -10q-42 19 -79 28
t-85 9q-45 0 -91 -22t-77.5 -50.5t-31.5 -49.5q0 -32 34.5 -81.5t87 -87.5t107.5 -38zM403 952q57 -41 96 -96l-96 -95q-36 53 -95 95zM361 -128q57 -41 96 -96l-96 -95q-36 53 -95 95z" />
    <glyph glyph-name="uni06FC.medi" unicode="&#x6fc;" horiz-adv-x="709" 
d="M163 309q0 72 33 115.5t83 63t101 19.5q67 0 120 -30t53 -91q0 -44 -40 -108.5t-113.5 -128t-175 -106.5t-224.5 -43q-43 0 -43 74q0 71 43 71q137 0 241 26t148 82h83q35 -49 95 -78.5t142 -29.5q19 0 32 -18t13 -53q0 -36 -13 -55t-32 -19q-101 0 -165.5 31t-108 77.5
t-80.5 92.5t-81 77t-111 31zM397 831q57 -41 96 -96l-96 -95q-36 53 -95 95zM374 -109q57 -41 96 -96l-96 -95q-36 53 -95 95z" />
    <glyph glyph-name="uni06FC.fina" unicode="&#x6fc;" horiz-adv-x="760" 
d="M563 -700q-200 1 -314 54t-161.5 149.5t-47.5 225.5q0 109 35.5 208.5t94 181.5t126.5 137l4 -15q-55 49 -150 48q3 103 68.5 154t152.5 51q60 0 115.5 -25.5t55.5 -82.5q0 -52 -32 -87.5t-82 -66.5t-106.5 -67.5t-106.5 -89.5t-81.5 -133t-31.5 -199q0 -99 37 -157.5
t103.5 -87t153.5 -37t186 -8.5h215v-24zM760 0q-103 0 -179.5 22.5t-140 73.5t-126.5 136l91 34q52 -53 134.5 -87t220.5 -34q43 0 43 -68q0 -33 -10.5 -55t-32.5 -22zM360 820q57 -41 96 -96l-96 -95q-36 53 -95 95zM381 -128q57 -41 96 -96l-96 -95q-36 53 -95 95z" />
    <glyph glyph-name="uni06FF.init" unicode="&#x6ff;" horiz-adv-x="577" 
d="M184 647q125 -72 196 -131t105 -108t43 -90.5t9 -78.5q0 -81 -39.5 -126.5t-112.5 -45.5q-68 0 -143.5 24t-128 74t-52.5 127q0 55 27.5 118t70 108t89.5 45q30 0 51 -29.5t33.5 -70t18 -74.5t5.5 -43q0 -90 -46 -169t-126.5 -128t-183.5 -49q-41 0 -41 73q0 72 41 72
q70 0 128 24.5t100 58.5t65 66t23 47q0 14 -15 42t-37.5 51.5t-44.5 23.5q-20 0 -48 -25t-49 -55.5t-21 -45.5q0 -25 48 -55t121 -51t147 -21q35 0 57.5 11t22.5 30q0 23 -46 69t-130.5 100t-199.5 101zM361 800l-51 -39q-25 32 -53 66.5t-49.5 58.5t-27.5 24
q-5 0 -28.5 -23t-54 -57t-56.5 -66l-29 23q37 47 78 92.5t71.5 75.5t37.5 30q6 0 34.5 -30.5t64 -74t63.5 -80.5z" />
    <glyph glyph-name="uni06FF.medi" unicode="&#x6ff;" horiz-adv-x="722" 
d="M204 565q126 -64 205 -125t126 -114.5t75.5 -94t52.5 -63.5t59 -23q13 0 25 -18.5t12 -53.5q0 -36 -12 -54.5t-25 -18.5q-47 0 -79 22t-54.5 51.5t-41.5 54.5l57 -3q5 -53 -24 -83.5t-75.5 -43.5t-92.5 -13q-72 0 -148.5 25.5t-129.5 76t-53 124.5q0 55 27 118t70 108
t90 45q30 0 50.5 -30t33 -70t18.5 -74t6 -43q0 -136 -107 -200.5t-269 -64.5q-41 0 -41 73q0 72 41 72q98 0 173.5 20.5t119 47.5t43.5 47q0 13 -15.5 41t-37.5 52t-44 24q-21 0 -49 -25.5t-48.5 -55.5t-20.5 -45q0 -21 35.5 -47t89 -49.5t108 -39t93.5 -15.5
q21 0 51.5 10.5t30.5 33.5t-49.5 74t-136.5 110t-202 106zM388 717l-51 -39q-25 32 -53 66.5t-49.5 58.5t-27.5 24q-5 0 -28.5 -23t-54 -57t-56.5 -66l-29 23q37 47 78 92.5t71.5 75.5t37.5 30q6 0 34.5 -30.5t64 -74t63.5 -80.5z" />
    </font>
</defs>
</svg>
