<svg xmlns="http://www.w3.org/2000/svg">
<defs>
<font id="ScheherazadeNew-Regular" horiz-adv-x="0" >
  <font-face 
    font-family="Scheherazade New"
    font-weight="400"
    font-stretch="normal"
    units-per-em="2048"
    panose-1="1 0 6 0 2 0 0 2 0 3"
    ascent="1638"
    descent="-410"
    x-height="828"
    cap-height="1226"
    bbox="-1434 -1509 6850 2694"
    underline-thickness="100"
    underline-position="-850"
    unicode-range="U+0020-10EFF"
  />
<missing-glyph horiz-adv-x="1646" 
d="M1164 1138q0 -5 -13.5 -28t-28 -44t-19.5 -21q-4 0 -25 14t-40.5 29.5t-19.5 20.5t14 28t29 44t19 21q5 0 25.5 -14.5t39.5 -30.5t19 -19zM1262 972q0 -5 -13.5 -28t-29 -44t-20.5 -21q-2 0 -19.5 13t-35.5 26.5t-20 15.5q-6 6 -12 6q-5 0 -9 -5q-1 -2 -13 -20t-25 -35
t-17 -17q-3 0 -24 14.5t-41 30t-20 19.5q0 5 14 27.5t29.5 43.5t18.5 21q6 0 24 -14t35 -28t19 -16q6 -4 9 -4q6 0 9 7q1 2 13 19.5t25.5 34.5t16.5 17q5 0 26 -14.5t40.5 -30t19.5 -18.5zM1404 650q0 -38 -13 -87.5t-40 -86.5t-69 -37q-55 0 -84.5 31.5t-46.5 45.5
q-87 -142 -179 -142q0 -153 -43 -248t-112.5 -145.5t-153 -68.5t-164.5 -18q-110 0 -174 70t-64 164q0 61 24 120.5t50.5 99t32.5 39.5q13 0 13 -10q0 -8 -16.5 -35t-33 -68.5t-16.5 -93.5q0 -62 39 -98.5t92 -51.5t93 -15q82 0 167 16.5t129 46.5q50 34 68 80t18 116
q0 60 -12.5 96t-25 56.5t-12.5 30.5q0 7 10.5 31t23 46.5t16.5 22.5q22 -30 35 -74q47 0 94 25.5t80 67.5t39 92q2 19 13 19q10 0 13 -23q7 -40 32 -61t53.5 -29t44.5 -8q6 0 20 7.5t14 13.5q0 12 -21 28t-21 20t7 31.5t16 54t14 26.5q11 0 22.5 -18t19.5 -41t8 -38z
M1523 1444h-1400v-1775h1400v1775zM87 -367v1847h1472v-1847h-1472z" />
    <glyph glyph-name="uni0624" unicode="&#x648;&#x654;" horiz-adv-x="831" 
d="M757 181q0 -107 -28 -224t-78 -228t-116.5 -201t-143.5 -143t-159 -53q-90 0 -168 28t-126 58t-48 35q0 7 3.5 14.5t7.5 7.5q6 0 40.5 -9t75.5 -18t66 -9q86 0 172.5 39.5t163 106t136.5 149.5t94 171t34 169q0 36 -6 60t-14 44q-23 -29 -58.5 -60.5t-82.5 -31.5
q-37 0 -75 22t-64 61t-26 89q0 56 21.5 122.5t53.5 126.5t66.5 98.5t59.5 38.5q43 0 89 -53t78 -156.5t32 -253.5zM584 357q-15 24 -37.5 37t-36.5 13q-22 0 -31 -17.5t-9 -41.5q0 -12 13.5 -28.5t32.5 -16.5q17 0 38.5 16.5t29.5 37.5zM754 1009q0 -8 -14 -44t-43 -44
q-17 -5 -69.5 -25.5t-111.5 -42.5q-70 -27 -105 -43.5t-46 -16.5t-11 12q0 11 14 39.5t21 37.5q8 10 34 24t37 18q-22 7 -51 31.5t-29 64.5q0 35 31 80t65 79q56 56 83 65t56 9q32 0 47 -25.5t15 -54.5q0 -10 -7 -30.5t-16.5 -37.5t-15.5 -17q-10 0 -43.5 16t-59.5 16
q-25 0 -47.5 -17t-22.5 -34q0 -6 27 -25t64 -36t65 -19q35 9 75.5 17.5t48.5 10.5q9 2 9 -8z" />
    <glyph glyph-name="uni0626" unicode="&#x64a;&#x654;" horiz-adv-x="1639" 
d="M1523 882l-41 -190q-24 23 -48.5 36.5t-73.5 13.5q-52 0 -120.5 -27t-133.5 -73.5t-107.5 -105.5t-42.5 -123q0 -31 32 -53.5t77.5 -37.5t89 -23.5t66.5 -12.5q75 -12 129.5 -16t80.5 -35q15 -16 17.5 -47.5t2.5 -74.5q0 -46 -33.5 -98t-86.5 -95q-90 -71 -211.5 -131.5
t-262.5 -97t-293 -36.5q-218 0 -352.5 101.5t-134.5 288.5q0 64 21.5 139.5t54 150t65.5 136t56 98.5t26 37q23 0 23 -17q0 -7 -21 -48.5t-48.5 -103.5t-48.5 -131.5t-21 -132.5q0 -95 42 -158t110 -100t148 -53t157 -16q79 0 174 20t190 51t174 64.5t127 62t48 42.5
q0 17 -19.5 27t-79 20.5t-178.5 26.5q-50 7 -103.5 24t-90 54.5t-36.5 103.5q0 77 58.5 179.5t144.5 189.5q90 90 193 150t203 60q15 0 46 -9.5t31 -29.5zM845 1133q0 -8 -14 -44t-43 -44q-17 -5 -69.5 -25.5t-111.5 -42.5q-70 -27 -105 -43.5t-46 -16.5t-11 12
q0 11 14 39.5t21 37.5q8 10 34 24t37 18q-22 7 -51 31.5t-29 64.5q0 35 31 80t65 79q56 56 83 65t56 9q32 0 47 -25.5t15 -54.5q0 -10 -7 -30.5t-16.5 -37.5t-15.5 -17q-10 0 -43.5 16t-59.5 16q-25 0 -47.5 -17t-22.5 -34q0 -6 27 -25t64 -36t65 -19q35 9 75.5 17.5
t48.5 10.5q9 2 9 -8z" />
    <glyph glyph-name="uni06C0" unicode="&#x6d5;&#x654;" horiz-adv-x="728" 
d="M632 338q0 -154 -84 -253.5t-230 -99.5q-103 0 -155.5 73.5t-52.5 179.5q0 42 26 113t66 162q40 89 78.5 158t67.5 69q70 0 135 -58t107 -150t42 -194zM547 300q0 24 -26.5 52.5t-67 54.5t-83 43t-73.5 17q-26 0 -50 -30.5t-39 -72.5t-15 -78q0 -38 52.5 -61t105.5 -23
q37 0 83 11.5t79.5 33.5t33.5 53zM573 1100q0 -8 -14 -44t-43 -44q-17 -5 -69.5 -25.5t-111.5 -42.5q-70 -27 -105 -43.5t-46 -16.5t-11 12q0 11 14 39.5t21 37.5q8 10 34 24t37 18q-22 7 -51 31.5t-29 64.5q0 35 31 80t65 79q56 56 83 65t56 9q32 0 47 -25.5t15 -54.5
q0 -10 -7 -30.5t-16.5 -37.5t-15.5 -17q-10 0 -43.5 16t-59.5 16q-25 0 -47.5 -17t-22.5 -34q0 -6 27 -25t64 -36t65 -19q35 9 75.5 17.5t48.5 10.5q9 2 9 -8z" />
    <glyph glyph-name="uni06C2" unicode="&#x6c1;&#x654;" horiz-adv-x="728" 
d="M632 338q0 -154 -84 -253.5t-230 -99.5q-103 0 -155.5 73.5t-52.5 179.5q0 42 26 113t66 162q40 89 78.5 158t67.5 69q70 0 135 -58t107 -150t42 -194zM547 300q0 24 -26.5 52.5t-67 54.5t-83 43t-73.5 17q-26 0 -50 -30.5t-39 -72.5t-15 -78q0 -38 52.5 -61t105.5 -23
q37 0 83 11.5t79.5 33.5t33.5 53zM573 1100q0 -8 -14 -44t-43 -44q-17 -5 -69.5 -25.5t-111.5 -42.5q-70 -27 -105 -43.5t-46 -16.5t-11 12q0 11 14 39.5t21 37.5q8 10 34 24t37 18q-22 7 -51 31.5t-29 64.5q0 35 31 80t65 79q56 56 83 65t56 9q32 0 47 -25.5t15 -54.5
q0 -10 -7 -30.5t-16.5 -37.5t-15.5 -17q-10 0 -43.5 16t-59.5 16q-25 0 -47.5 -17t-22.5 -34q0 -6 27 -25t64 -36t65 -19q35 9 75.5 17.5t48.5 10.5q9 2 9 -8z" />
    <glyph glyph-name="uni0651064B" unicode="&#x64b;&#x651;" 
d="M486 1813q0 -62 -14 -122t-45 -99t-83 -39q-31 0 -54 8.5t-43 23.5q-31 -50 -67 -89.5t-89 -39.5q-46 0 -81.5 42t-35.5 117q0 9 3.5 38.5t11.5 63t20 53.5q1 2 8.5 2.5t14.5 0.5q10 0 11 -26.5t2.5 -60.5t12 -60.5t39.5 -26.5q35 0 58 35.5t37.5 83t21.5 85t9 41.5
q4 6 28 6q9 0 13 -23t10.5 -52.5t21 -52.5t42.5 -23q29 0 46.5 32.5t26 75.5t11.5 77t3 37q2 8 15 14.5t20 6.5t13 -24t9.5 -54.5t3.5 -50.5zM441 2197q0 -5 -7.5 -25t-18 -41t-19.5 -30q-10 -10 -25.5 -19t-36.5 -20l-278 -145q-35 -19 -50 -27.5t-26 -8.5q-9 0 -9 11
q0 12 14 45t24 44q5 5 15.5 12.5t31.5 17.5l287 151q25 13 51.5 29.5t35.5 16.5q11 0 11 -11zM441 2412q0 -5 -7.5 -25t-18 -41t-19.5 -30q-10 -10 -25.5 -19t-36.5 -20l-278 -145q-35 -19 -50 -27.5t-26 -8.5q-9 0 -9 11q0 12 14 45t24 44q5 5 15.5 12.5t31.5 17.5l287 151
q25 13 51.5 29.5t35.5 16.5q11 0 11 -11z" />
    <glyph glyph-name="uni0651064C" unicode="&#x64c;&#x651;" 
d="M486 1813q0 -62 -14 -122t-45 -99t-83 -39q-31 0 -54 8.5t-43 23.5q-31 -50 -67 -89.5t-89 -39.5q-46 0 -81.5 42t-35.5 117q0 9 3.5 38.5t11.5 63t20 53.5q1 2 8.5 2.5t14.5 0.5q10 0 11 -26.5t2.5 -60.5t12 -60.5t39.5 -26.5q35 0 58 35.5t37.5 83t21.5 85t9 41.5
q4 6 28 6q9 0 13 -23t10.5 -52.5t21 -52.5t42.5 -23q29 0 46.5 32.5t26 75.5t11.5 77t3 37q2 8 15 14.5t20 6.5t13 -24t9.5 -54.5t3.5 -50.5zM464 2092q0 -27 -7 -44t-22 -17q-14 0 -47 26.5t-52 42.5q-90 -89 -171 -141t-131 -52q-24 0 -24 14q0 6 13 31.5t26 58.5t13 61
q0 23 -9 48.5t-46 25.5q-28 0 -41 -22.5t-17.5 -45t-7.5 -22.5q-15 0 -15 25q0 27 7 73t27.5 83t60.5 37q69 0 87 -49.5t18 -107.5q0 -50 -5 -93q43 14 84.5 46.5t73.5 66.5q-28 22 -59 44t-31 80q0 46 21.5 91.5t59 76t85.5 30.5t71.5 -36t23.5 -77q0 -28 -16 -70t-30 -71
q29 -25 44.5 -48.5t15.5 -64.5zM353 2292q0 29 -15.5 50.5t-45.5 21.5q-10 0 -17 -9t-7 -18q0 -19 17 -39t60 -49q8 22 8 43z" />
    <glyph glyph-name="uni0651064D" unicode="&#x64d;&#x34f;&#x651;" 
d="M486 2341q0 -62 -14 -122t-45 -99t-83 -39q-31 0 -54 8.5t-43 23.5q-31 -50 -67 -89.5t-89 -39.5q-46 0 -81.5 42t-35.5 117q0 9 3.5 38.5t11.5 63t20 53.5q1 2 8.5 2.5t14.5 0.5q10 0 11 -26.5t2.5 -60.5t12 -60.5t39.5 -26.5q35 0 58 35.5t37.5 83t21.5 85t9 41.5
q4 6 28 6q9 0 13 -23t10.5 -52.5t21 -52.5t42.5 -23q29 0 46.5 32.5t26 75.5t11.5 77t3 37q2 8 15 14.5t20 6.5t13 -24t9.5 -54.5t3.5 -50.5zM484 1991q0 -5 -7.5 -25t-18 -41t-19.5 -30q-10 -10 -25.5 -19t-36.5 -20l-278 -145q-35 -19 -50 -27.5t-26 -8.5q-9 0 -9 11
q0 12 14 45t24 44q5 5 15.5 12.5t31.5 17.5l287 151q25 13 51.5 29.5t35.5 16.5q11 0 11 -11zM484 1781q0 -5 -7.5 -25t-18 -41t-19.5 -30q-10 -10 -25.5 -19t-36.5 -20l-278 -145q-35 -19 -50 -27.5t-26 -8.5q-9 0 -9 11q0 12 14 45t24 44q5 5 15.5 12.5t31.5 17.5l287 151
q25 13 51.5 29.5t35.5 16.5q11 0 11 -11z" />
    <glyph glyph-name="uni0651064E" unicode="&#x64e;&#x651;" 
d="M455 2197q0 -5 -7.5 -25t-18 -41t-19.5 -30q-10 -10 -25.5 -19t-36.5 -20l-278 -145q-35 -19 -50 -27.5t-26 -8.5q-9 0 -9 11q0 12 14 45t24 44q5 5 15.5 12.5t31.5 17.5l287 151q25 13 51.5 29.5t35.5 16.5q11 0 11 -11zM486 1813q0 -62 -14 -122t-45 -99t-83 -39
q-31 0 -54 8.5t-43 23.5q-31 -50 -67 -89.5t-89 -39.5q-46 0 -81.5 42t-35.5 117q0 9 3.5 38.5t11.5 63t20 53.5q1 2 8.5 2.5t14.5 0.5q10 0 11 -26.5t2.5 -60.5t12 -60.5t39.5 -26.5q35 0 58 35.5t37.5 83t21.5 85t9 41.5q4 6 28 6q9 0 13 -23t10.5 -52.5t21 -52.5
t42.5 -23q29 0 46.5 32.5t26 75.5t11.5 77t3 37q2 8 15 14.5t20 6.5t13 -24t9.5 -54.5t3.5 -50.5z" />
    <glyph glyph-name="uni0651064F" unicode="&#x64f;&#x651;" 
d="M486 1813q0 -62 -14 -122t-45 -99t-83 -39q-31 0 -54 8.5t-43 23.5q-31 -50 -67 -89.5t-89 -39.5q-46 0 -81.5 42t-35.5 117q0 9 3.5 38.5t11.5 63t20 53.5q1 2 8.5 2.5t14.5 0.5q10 0 11 -26.5t2.5 -60.5t12 -60.5t39.5 -26.5q35 0 58 35.5t37.5 83t21.5 85t9 41.5
q4 6 28 6q9 0 13 -23t10.5 -52.5t21 -52.5t42.5 -23q29 0 46.5 32.5t26 75.5t11.5 77t3 37q2 8 15 14.5t20 6.5t13 -24t9.5 -54.5t3.5 -50.5zM333 2471q42 0 61.5 -25.5t25.5 -56.5t6 -47q0 -75 -39.5 -154t-97.5 -146.5t-117 -109t-98 -41.5q-23 0 -48 6.5t-44 15.5
q125 69 203.5 141t115.5 132.5t37 93.5q0 29 -22 47t-42 18q-22 0 -22 -19q0 -22 25 -50.5t60 -56.5t66.5 -50.5t45.5 -31.5q6 -2 6 -13q0 -14 -8.5 -39t-19 -44.5t-17.5 -19.5q-11 0 -48.5 20.5t-80.5 54t-74.5 72t-31.5 74.5q0 42 23.5 95.5t59.5 93.5t75 40z" />
    <glyph glyph-name="uni06510650" unicode="&#x650;&#x34f;&#x651;" 
d="M484 1762q0 -5 -7.5 -25t-18 -41t-19.5 -30q-10 -10 -25.5 -19t-36.5 -20l-278 -145q-35 -19 -50 -27.5t-26 -8.5q-9 0 -9 11q0 12 14 45t24 44q5 5 15.5 12.5t31.5 17.5l287 151q25 13 51.5 29.5t35.5 16.5q11 0 11 -11zM486 2112q0 -62 -14 -122t-45 -99t-83 -39
q-31 0 -54 8.5t-43 23.5q-31 -50 -67 -89.5t-89 -39.5q-46 0 -81.5 42t-35.5 117q0 9 3.5 38.5t11.5 63t20 53.5q1 2 8.5 2.5t14.5 0.5q10 0 11 -26.5t2.5 -60.5t12 -60.5t39.5 -26.5q35 0 58 35.5t37.5 83t21.5 85t9 41.5q4 6 28 6q9 0 13 -23t10.5 -52.5t21 -52.5
t42.5 -23q29 0 46.5 32.5t26 75.5t11.5 77t3 37q2 8 15 14.5t20 6.5t13 -24t9.5 -54.5t3.5 -50.5z" />
    <glyph glyph-name="uni0620.init" unicode="&#x620;" horiz-adv-x="522" 
d="M360 383q0 -147 -43 -230.5t-116.5 -118t-164.5 -34.5h-53q-55 0 -67.5 28.5t-12.5 62.5t12.5 62t67.5 28h53q62 0 110.5 10.5t82.5 26.5q31 15 46.5 33.5t15.5 28.5q0 9 -14.5 37.5t-33 63.5t-33 63t-14.5 35q0 10 13.5 36t31.5 56.5t33.5 55t19.5 30.5
q33 -72 49.5 -138t16.5 -136zM405 -357q0 -91 -60.5 -157.5t-153.5 -66.5q-137 0 -137 198q0 86 55.5 152t144.5 66q41 0 75.5 -32t55 -76.5t20.5 -83.5zM325 -399q0 23 -22.5 50t-55 46.5t-61.5 19.5q-36 0 -58 -27.5t-22 -59.5q0 -34 37 -54.5t82 -20.5q26 0 63 14.5
t37 31.5z" />
    <glyph glyph-name="uni0620.medi" unicode="&#x620;" horiz-adv-x="532" 
d="M632 91q0 -34 -12.5 -62.5t-67.5 -28.5h-56q-40 0 -68 13t-51 38q-15 17 -34.5 47t-30.5 56q-51 -58 -110 -106t-166 -48h-53q-55 0 -67.5 28.5t-12.5 62.5t12.5 62t67.5 28h53q98 0 158 28.5t93 66.5t50 66.5t28 28.5q9 0 12.5 -24.5t14.5 -55.5q11 -35 36 -72.5
t68 -37.5h56q55 0 67.5 -28t12.5 -62zM462 -335q0 -91 -60.5 -157.5t-153.5 -66.5q-137 0 -137 198q0 86 55.5 152t144.5 66q41 0 75.5 -32t55 -76.5t20.5 -83.5zM382 -377q0 23 -22.5 50t-55 46.5t-61.5 19.5q-36 0 -58 -27.5t-22 -59.5q0 -34 37 -54.5t82 -20.5
q26 0 63 14.5t37 31.5z" />
    <glyph glyph-name="uni0620.fina" unicode="&#x620;" horiz-adv-x="1041" 
d="M1147 91q0 -34 -12.5 -62.5t-67.5 -28.5h-126q-40 0 -86 -2.5t-86 -14.5q-49 -14 -80 -44t-31 -64t38 -42.5t93 -16.5q45 -7 101.5 -27.5t98 -58t41.5 -95.5q0 -55 -28.5 -104t-77.5 -94q-34 -31 -100.5 -68.5t-148.5 -72.5t-163.5 -57.5t-147.5 -22.5q-53 0 -113.5 22.5
t-114 54t-87.5 59t-34 36.5q0 5 4.5 12t8.5 7q12 0 54 -5t96.5 -10t101.5 -5q90 0 185.5 18.5t184.5 47.5t160 61.5t112.5 61t41.5 44.5q0 59 -187 68q-55 3 -112.5 10t-97 30.5t-39.5 75.5q0 36 18 74.5t37 67.5q115 181 280 224q32 8 60.5 9.5t61.5 1.5h82q55 0 67.5 -28
t12.5 -62z" />
    <glyph glyph-name="uni0622.fina" unicode="&#x622;" horiz-adv-x="525" arabic-form="final" 
d="M624 91q0 -34 -13 -62.5t-67 -28.5h-54q-63 0 -119.5 19t-94.5 72.5t-48 155.5q-7 77 -17.5 182t-22.5 220t-26 221q-17 135 -31.5 247t-14.5 163q0 8 12 33t28 53.5t30 49.5t18 21q2 0 8 -6t6 -23q7 -81 16 -190.5t19.5 -231.5t22 -241t23 -220.5t21.5 -171t18 -89.5
q23 -55 66.5 -69t85.5 -14h54q54 0 67 -28t13 -62zM725 1804q0 -24 -43.5 -51t-112.5 -53.5t-147 -47.5t-147.5 -34t-113.5 -13q-50 0 -110 3t-105.5 6t-55.5 3q-17 0 -20.5 -25t-7.5 -50t-26 -25q-25 0 -48.5 28t-38.5 63.5t-15 59.5q0 46 24.5 70.5t59.5 33.5t66 9
q34 0 121.5 -9t176.5 -9q166 0 274.5 19.5t166.5 38.5t72 19q30 0 30 -36z" />
    <glyph glyph-name="uni0623.fina" unicode="&#x623;" horiz-adv-x="525" arabic-form="final" 
d="M624 91q0 -34 -13 -62.5t-67 -28.5h-54q-63 0 -119.5 19t-94.5 72.5t-48 155.5q-7 77 -17.5 182t-22.5 220t-26 221q-17 135 -31.5 247t-14.5 163q0 8 12 33t28 53.5t30 49.5t18 21q2 0 8 -6t6 -23q7 -81 16 -190.5t19.5 -231.5t22 -241t23 -220.5t21.5 -171t18 -89.5
q23 -55 66.5 -69t85.5 -14h54q54 0 67 -28t13 -62zM399 1800q0 -8 -14 -44t-43 -44q-17 -5 -69.5 -25.5t-111.5 -42.5q-70 -27 -105 -43.5t-46 -16.5t-11 12q0 11 14 39.5t21 37.5q8 10 34 24t37 18q-22 7 -51 31.5t-29 64.5q0 35 31 80t65 79q56 56 83 65t56 9
q32 0 47 -25.5t15 -54.5q0 -10 -7 -30.5t-16.5 -37.5t-15.5 -17q-10 0 -43.5 16t-59.5 16q-25 0 -47.5 -17t-22.5 -34q0 -6 27 -25t64 -36t65 -19q35 9 75.5 17.5t48.5 10.5q9 2 9 -8z" />
    <glyph glyph-name="uni0625.fina" unicode="&#x625;" horiz-adv-x="525" arabic-form="final" 
d="M624 91q0 -34 -13 -62.5t-67 -28.5h-54q-63 0 -119.5 19t-94.5 72.5t-48 155.5q-7 77 -17.5 182t-22.5 220t-26 221q-17 135 -31.5 247t-14.5 163q0 8 12 33t28 53.5t30 49.5t18 21q2 0 8 -6t6 -23q7 -81 16 -190.5t19.5 -231.5t22 -241t23 -220.5t21.5 -171t18 -89.5
q23 -55 66.5 -69t85.5 -14h54q54 0 67 -28t13 -62zM531 -392q0 -8 -14 -44t-43 -44q-17 -5 -69.5 -25.5t-111.5 -42.5q-70 -27 -105 -43.5t-46 -16.5t-11 12q0 11 14 39.5t21 37.5q8 10 34 24t37 18q-22 7 -51 31.5t-29 64.5q0 35 31 80t65 79q56 56 83 65t56 9
q32 0 47 -25.5t15 -54.5q0 -10 -7 -30.5t-16.5 -37.5t-15.5 -17q-10 0 -43.5 16t-59.5 16q-25 0 -47.5 -17t-22.5 -34q0 -6 27 -25t64 -36t65 -19q35 9 75.5 17.5t48.5 10.5q9 2 9 -8z" />
    <glyph glyph-name="uni0627.fina" unicode="&#x627;" horiz-adv-x="525" arabic-form="final" 
d="M624 91q0 -34 -13 -62.5t-67 -28.5h-54q-63 0 -119.5 19t-94.5 72.5t-48 155.5q-7 77 -17.5 182t-22.5 220t-26 221q-17 135 -31.5 247t-14.5 163q0 8 12 33t28 53.5t30 49.5t18 21q2 0 8 -6t6 -23q7 -81 16 -190.5t19.5 -231.5t22 -241t23 -220.5t21.5 -171t18 -89.5
q23 -55 66.5 -69t85.5 -14h54q54 0 67 -28t13 -62z" />
    <glyph glyph-name="uni0628.init" unicode="&#x628;" horiz-adv-x="522" arabic-form="initial" 
d="M360 383q0 -147 -43 -230.5t-116.5 -118t-164.5 -34.5h-53q-55 0 -67.5 28.5t-12.5 62.5t12.5 62t67.5 28h53q62 0 110.5 10.5t82.5 26.5q31 15 46.5 33.5t15.5 28.5q0 9 -14.5 37.5t-33 63.5t-33 63t-14.5 35q0 10 13.5 36t31.5 56.5t33.5 55t19.5 30.5
q33 -72 49.5 -138t16.5 -136zM285 -242q0 -5 -12.5 -27.5t-30 -49t-33.5 -46t-22 -19.5q-3 0 -23.5 13t-45.5 30.5t-43.5 33t-18.5 20.5q0 6 13 28t31 48.5t33.5 46t19.5 19.5q6 0 27 -13.5t45 -31.5t42 -33.5t18 -18.5z" />
    <glyph glyph-name="uni0628.medi" unicode="&#x628;" horiz-adv-x="532" arabic-form="medial" 
d="M632 91q0 -34 -12.5 -62.5t-67.5 -28.5h-56q-40 0 -68 13t-51 38q-15 17 -34.5 47t-30.5 56q-51 -58 -110 -106t-166 -48h-53q-55 0 -67.5 28.5t-12.5 62.5t12.5 62t67.5 28h53q98 0 158 28.5t93 66.5t50 66.5t28 28.5q9 0 12.5 -24.5t14.5 -55.5q11 -35 36 -72.5
t68 -37.5h56q55 0 67.5 -28t12.5 -62zM381 -242q0 -5 -12.5 -27.5t-30 -49t-33.5 -46t-22 -19.5q-3 0 -23.5 13t-45.5 30.5t-43.5 33t-18.5 20.5q0 6 13 28t31 48.5t33.5 46t19.5 19.5q6 0 27 -13.5t45 -31.5t42 -33.5t18 -18.5z" />
    <glyph glyph-name="uni0628.fina" unicode="&#x628;" horiz-adv-x="1998" arabic-form="final" 
d="M2097 91q0 -34 -10.5 -62.5t-59.5 -28.5h-58q-91 0 -148 21t-101 112q-64 -72 -210 -129t-349 -90t-439 -33q-169 0 -306.5 42t-218.5 129.5t-81 223.5q0 56 15 112.5t35.5 104t38.5 76t24 28.5q5 0 12.5 -4t7.5 -14q0 -7 -14 -35.5t-28 -67.5t-14 -79q0 -99 77 -170
t217.5 -109t328.5 -38q122 0 247.5 9.5t241.5 29t209 51t149 74.5q29 22 39.5 43.5t23.5 21.5q6 0 17 -36.5t42 -59.5q29 -22 81 -27t103 -5h58q49 0 59.5 -28t10.5 -62zM957 -361q0 -5 -12.5 -27.5t-30 -49t-33.5 -46t-22 -19.5q-3 0 -23.5 13t-45.5 30.5t-43.5 33
t-18.5 20.5q0 6 13 28t31 48.5t33.5 46t19.5 19.5q6 0 27 -13.5t45 -31.5t42 -33.5t18 -18.5z" />
    <glyph glyph-name="uni0629.fina" unicode="&#x629;" horiz-adv-x="802" arabic-form="final" 
d="M899 91q0 -34 -12.5 -62.5t-67.5 -28.5h-53q-74 0 -118 21.5t-73.5 85.5t-61.5 193q-44 -40 -92.5 -85t-123.5 -45q-18 0 -53 6.5t-72 18.5t-63 30t-26 42t24 74t59.5 104.5t69.5 91.5q48 52 103.5 89.5t108.5 59.5q-1 13 -2 27t-1 27q0 10 0.5 19.5t2.5 19.5
q13 53 30 87t32 34q2 0 11 -60t23 -145q15 -86 31 -179t30 -161t19 -82q11 -30 22 -50.5t37.5 -31t82.5 -10.5h53q55 0 67.5 -28t12.5 -62zM499 394q-7 41 -15.5 93.5t-20.5 96.5q-72 -20 -121.5 -61t-75 -76.5t-25.5 -41.5q0 -5 23.5 -11t55.5 -11t60.5 -8.5t38.5 -3.5
q15 0 40 6.5t40 16.5zM680 1212q0 -5 -12.5 -27.5t-30 -49.5t-32.5 -46.5t-21 -19.5q-3 0 -21.5 13t-42 30.5t-41 31.5t-19.5 15q-6 5 -11 5t-10 -5q-2 -2 -21 -30t-39.5 -55.5t-26.5 -27.5q-4 0 -24.5 13t-45 31t-42.5 33.5t-18 20.5q0 6 13.5 28t31 48.5t32.5 46t18 19.5
q9 0 37 -21t54 -42.5t28 -24.5q9 -9 13 -9q6 0 13 11q2 3 21.5 30.5t40 54.5t24.5 27q5 0 25.5 -14t45.5 -32.5t43 -34.5t18 -19z" />
    <glyph glyph-name="uni062A.init" unicode="&#x62a;" horiz-adv-x="522" arabic-form="initial" 
d="M360 383q0 -147 -43 -230.5t-116.5 -118t-164.5 -34.5h-53q-55 0 -67.5 28.5t-12.5 62.5t12.5 62t67.5 28h53q62 0 110.5 10.5t82.5 26.5q31 15 46.5 33.5t15.5 28.5q0 9 -14.5 37.5t-33 63.5t-33 63t-14.5 35q0 10 13.5 36t31.5 56.5t33.5 55t19.5 30.5
q33 -72 49.5 -138t16.5 -136zM473 970q0 -5 -12.5 -27.5t-30 -49.5t-32.5 -46.5t-21 -19.5q-3 0 -21.5 13t-42 30.5t-41 31.5t-19.5 15q-6 5 -11 5t-10 -5q-2 -2 -21 -30t-39.5 -55.5t-26.5 -27.5q-4 0 -24.5 13t-45 31t-42.5 33.5t-18 20.5q0 6 13.5 28t31 48.5t32.5 46
t18 19.5q9 0 37 -21t54 -42.5t28 -24.5q9 -9 13 -9q6 0 13 11q2 3 21.5 30.5t40 54.5t24.5 27q5 0 25.5 -14t45.5 -32.5t43 -34.5t18 -19z" />
    <glyph glyph-name="uni062A.medi" unicode="&#x62a;" horiz-adv-x="532" arabic-form="medial" 
d="M632 91q0 -34 -12.5 -62.5t-67.5 -28.5h-56q-40 0 -68 13t-51 38q-15 17 -34.5 47t-30.5 56q-51 -58 -110 -106t-166 -48h-53q-55 0 -67.5 28.5t-12.5 62.5t12.5 62t67.5 28h53q98 0 158 28.5t93 66.5t50 66.5t28 28.5q9 0 12.5 -24.5t14.5 -55.5q11 -35 36 -72.5
t68 -37.5h56q55 0 67.5 -28t12.5 -62zM496 683q0 -5 -12.5 -27.5t-30 -49.5t-32.5 -46.5t-21 -19.5q-3 0 -21.5 13t-42 30.5t-41 31.5t-19.5 15q-6 5 -11 5t-10 -5q-2 -2 -21 -30t-39.5 -55.5t-26.5 -27.5q-4 0 -24.5 13t-45 31t-42.5 33.5t-18 20.5q0 6 13.5 28t31 48.5
t32.5 46t18 19.5q9 0 37 -21t54 -42.5t28 -24.5q9 -9 13 -9q6 0 13 11q2 3 21.5 30.5t40 54.5t24.5 27q5 0 25.5 -14t45.5 -32.5t43 -34.5t18 -19z" />
    <glyph glyph-name="uni062A.fina" unicode="&#x62a;" horiz-adv-x="1998" arabic-form="final" 
d="M2097 91q0 -34 -10.5 -62.5t-59.5 -28.5h-58q-91 0 -148 21t-101 112q-64 -72 -210 -129t-349 -90t-439 -33q-169 0 -306.5 42t-218.5 129.5t-81 223.5q0 56 15 112.5t35.5 104t38.5 76t24 28.5q5 0 12.5 -4t7.5 -14q0 -7 -14 -35.5t-28 -67.5t-14 -79q0 -99 77 -170
t217.5 -109t328.5 -38q122 0 247.5 9.5t241.5 29t209 51t149 74.5q29 22 39.5 43.5t23.5 21.5q6 0 17 -36.5t42 -59.5q29 -22 81 -27t103 -5h58q49 0 59.5 -28t10.5 -62zM1170 674q0 -5 -12.5 -27.5t-30 -49.5t-32.5 -46.5t-21 -19.5q-3 0 -21.5 13t-42 30.5t-41 31.5
t-19.5 15q-6 5 -11 5t-10 -5q-2 -2 -21 -30t-39.5 -55.5t-26.5 -27.5q-4 0 -24.5 13t-45 31t-42.5 33.5t-18 20.5q0 6 13.5 28t31 48.5t32.5 46t18 19.5q9 0 37 -21t54 -42.5t28 -24.5q9 -9 13 -9q6 0 13 11q2 3 21.5 30.5t40 54.5t24.5 27q5 0 25.5 -14t45.5 -32.5
t43 -34.5t18 -19z" />
    <glyph glyph-name="uni062B.init" unicode="&#x62b;" horiz-adv-x="522" arabic-form="initial" 
d="M360 383q0 -147 -43 -230.5t-116.5 -118t-164.5 -34.5h-53q-55 0 -67.5 28.5t-12.5 62.5t12.5 62t67.5 28h53q62 0 110.5 10.5t82.5 26.5q31 15 46.5 33.5t15.5 28.5q0 9 -14.5 37.5t-33 63.5t-33 63t-14.5 35q0 10 13.5 36t31.5 56.5t33.5 55t19.5 30.5
q33 -72 49.5 -138t16.5 -136zM325 1226q0 -6 -12.5 -28.5t-29.5 -49.5t-32.5 -46.5t-21.5 -19.5q-3 0 -23 13.5t-45 32t-43.5 34.5t-18.5 21q0 6 13.5 28t31.5 48t33 45t18 19q6 0 27 -13.5t44.5 -32t41 -33.5t17.5 -18zM476 969q0 -5 -12.5 -27.5t-30 -49.5t-32.5 -46.5
t-21 -19.5q-3 0 -21.5 13t-42 30.5t-41 31.5t-19.5 15q-6 5 -11 5t-10 -5q-2 -2 -21 -30t-39.5 -55.5t-26.5 -27.5q-4 0 -24.5 13t-45 31t-42.5 33.5t-18 20.5q0 6 13.5 28t31 48.5t32.5 46t18 19.5q9 0 37 -21t54 -42.5t28 -24.5q9 -9 13 -9q6 0 13 11q2 3 21.5 30.5
t40 54.5t24.5 27q5 0 25.5 -14t45.5 -32.5t43 -34.5t18 -19z" />
    <glyph glyph-name="uni062B.medi" unicode="&#x62b;" horiz-adv-x="532" arabic-form="medial" 
d="M632 91q0 -34 -12.5 -62.5t-67.5 -28.5h-56q-40 0 -68 13t-51 38q-15 17 -34.5 47t-30.5 56q-51 -58 -110 -106t-166 -48h-53q-55 0 -67.5 28.5t-12.5 62.5t12.5 62t67.5 28h53q98 0 158 28.5t93 66.5t50 66.5t28 28.5q9 0 12.5 -24.5t14.5 -55.5q11 -35 36 -72.5
t68 -37.5h56q55 0 67.5 -28t12.5 -62zM348 939q0 -6 -12.5 -28.5t-29.5 -49.5t-32.5 -46.5t-21.5 -19.5q-3 0 -23 13.5t-45 32t-43.5 34.5t-18.5 21q0 6 13.5 28t31.5 48t33 45t18 19q6 0 27 -13.5t44.5 -32t41 -33.5t17.5 -18zM499 682q0 -5 -12.5 -27.5t-30 -49.5
t-32.5 -46.5t-21 -19.5q-3 0 -21.5 13t-42 30.5t-41 31.5t-19.5 15q-6 5 -11 5t-10 -5q-2 -2 -21 -30t-39.5 -55.5t-26.5 -27.5q-4 0 -24.5 13t-45 31t-42.5 33.5t-18 20.5q0 6 13.5 28t31 48.5t32.5 46t18 19.5q9 0 37 -21t54 -42.5t28 -24.5q9 -9 13 -9q6 0 13 11
q2 3 21.5 30.5t40 54.5t24.5 27q5 0 25.5 -14t45.5 -32.5t43 -34.5t18 -19z" />
    <glyph glyph-name="uni062B.fina" unicode="&#x62b;" horiz-adv-x="1998" arabic-form="final" 
d="M2097 91q0 -34 -10.5 -62.5t-59.5 -28.5h-58q-91 0 -148 21t-101 112q-64 -72 -210 -129t-349 -90t-439 -33q-169 0 -306.5 42t-218.5 129.5t-81 223.5q0 56 15 112.5t35.5 104t38.5 76t24 28.5q5 0 12.5 -4t7.5 -14q0 -7 -14 -35.5t-28 -67.5t-14 -79q0 -99 77 -170
t217.5 -109t328.5 -38q122 0 247.5 9.5t241.5 29t209 51t149 74.5q29 22 39.5 43.5t23.5 21.5q6 0 17 -36.5t42 -59.5q29 -22 81 -27t103 -5h58q49 0 59.5 -28t10.5 -62zM1022 930q0 -6 -12.5 -28.5t-29.5 -49.5t-32.5 -46.5t-21.5 -19.5q-3 0 -23 13.5t-45 32t-43.5 34.5
t-18.5 21q0 6 13.5 28t31.5 48t33 45t18 19q6 0 27 -13.5t44.5 -32t41 -33.5t17.5 -18zM1173 673q0 -5 -12.5 -27.5t-30 -49.5t-32.5 -46.5t-21 -19.5q-3 0 -21.5 13t-42 30.5t-41 31.5t-19.5 15q-6 5 -11 5t-10 -5q-2 -2 -21 -30t-39.5 -55.5t-26.5 -27.5q-4 0 -24.5 13
t-45 31t-42.5 33.5t-18 20.5q0 6 13.5 28t31 48.5t32.5 46t18 19.5q9 0 37 -21t54 -42.5t28 -24.5q9 -9 13 -9q6 0 13 11q2 3 21.5 30.5t40 54.5t24.5 27q5 0 25.5 -14t45.5 -32.5t43 -34.5t18 -19z" />
    <glyph glyph-name="uni062C.init" unicode="&#x62c;" horiz-adv-x="1417" arabic-form="initial" 
d="M1298 436q0 -5 -9 -40.5t-19.5 -68.5t-16.5 -33q-59 0 -131.5 1.5t-135.5 3t-96 1.5q-111 0 -204.5 -35.5t-163.5 -71.5q-79 -41 -158.5 -86t-160.5 -76t-167 -31h-53q-55 0 -67.5 28.5t-12.5 62.5t12.5 62t67.5 28h53q111 0 200 18.5t189 58.5q56 23 120 47t123 43
q-65 21 -128 49t-125 49t-126 21t-118.5 -18t-63.5 -18q-8 0 -8 11q0 32 37 89.5t84 92.5q33 23 65 29.5t83 6.5q53 0 118.5 -26t132.5 -59t123 -56q77 -30 178 -48.5t214 -23.5q70 -4 117 -5t47 -6zM754 -242q0 -5 -12.5 -27.5t-30 -49t-33.5 -46t-22 -19.5q-3 0 -23.5 13
t-45.5 30.5t-43.5 33t-18.5 20.5q0 6 13 28t31 48.5t33.5 46t19.5 19.5q6 0 27 -13.5t45 -31.5t42 -33.5t18 -18.5z" />
    <glyph glyph-name="uni062C.medi" unicode="&#x62c;" horiz-adv-x="1514" arabic-form="medial" 
d="M1612 91q0 -34 -12.5 -62.5t-66.5 -28.5h-54q-181 0 -288 12.5t-159 46.5q-58 40 -58 128q0 29 7 57t14 59h-26q-170 0 -289.5 -45t-219.5 -101q-103 -58 -201 -107.5t-223 -49.5h-53q-55 0 -67.5 28.5t-12.5 62.5t12.5 62t67.5 28h53q144 0 244 30t185 65
q53 22 103.5 41t105.5 31q-39 16 -107 45t-148 53t-158 24q-60 0 -101.5 -17t-46.5 -17q-11 0 -11 9q0 63 46.5 113.5t95.5 76.5q29 17 63.5 21t55.5 4q44 0 103.5 -21t125 -50.5t128.5 -56.5t114 -39q78 -18 142.5 -26.5t141.5 -10.5t191 -2q5 0 7 -5t2 -7q0 -3 -7 -29.5
t-15 -56t-13 -41.5q-5 -15 -211 -15q-1 -3 -1.5 -8.5t-0.5 -10.5q0 -40 57 -63q43 -18 105.5 -26t129 -9.5t117.5 -1.5h54q54 0 66.5 -28t12.5 -62zM871 -242q0 -5 -12.5 -27.5t-30 -49t-33.5 -46t-22 -19.5q-3 0 -23.5 13t-45.5 30.5t-43.5 33t-18.5 20.5q0 6 13 28
t31 48.5t33.5 46t19.5 19.5q6 0 27 -13.5t45 -31.5t42 -33.5t18 -18.5z" />
    <glyph glyph-name="uni062C.fina" unicode="&#x62c;" horiz-adv-x="1422" arabic-form="final" 
d="M1520 91q0 -34 -13 -62.5t-67 -28.5h-145q-109 0 -193 3.5t-141 22.5t-81 55.5t-24 69.5q0 34 8 87t15 85q-145 -28 -276 -91.5t-233 -153.5t-160.5 -198t-58.5 -225q0 -159 89 -281t279 -191.5t493 -69.5q95 0 192.5 8.5t167 17t79.5 8.5q8 0 9.5 -6t1.5 -11
q0 -4 -38 -20.5t-96 -38.5t-121 -44.5t-113.5 -39.5t-72.5 -24q-51 -15 -103.5 -17.5t-77.5 -2.5q-104 0 -213 15t-209.5 52.5t-180 104t-126 168.5t-46.5 247q0 160 63.5 313t182.5 283t284 219q-64 11 -134.5 18.5t-119.5 7.5q-45 0 -100 -10t-87 -10q-9 0 -9 12
q0 9 5.5 36.5t12 54t7.5 33.5q4 15 49 33t103 31t100 13q116 0 245 -26t262 -28q45 0 121.5 3t131.5 3q27 0 44.5 -1t17.5 -5t-11 -25.5t-26 -48t-27 -46t-13 -19.5q-49 -8 -107.5 -17t-109.5 -19q2 -62 38 -95.5t130 -46t268 -12.5h54q54 0 67 -28t13 -62zM877 -312
q0 -5 -12.5 -27.5t-30 -49t-33.5 -46t-22 -19.5q-3 0 -23.5 13t-45.5 30.5t-43.5 33t-18.5 20.5q0 6 13 28t31 48.5t33.5 46t19.5 19.5q6 0 27 -13.5t45 -31.5t42 -33.5t18 -18.5z" />
    <glyph glyph-name="uni062D.init" unicode="&#x62d;" horiz-adv-x="1417" arabic-form="initial" 
d="M1298 436q0 -5 -9 -40.5t-19.5 -68.5t-16.5 -33q-59 0 -131.5 1.5t-135.5 3t-96 1.5q-111 0 -204.5 -35.5t-163.5 -71.5q-79 -41 -158.5 -86t-160.5 -76t-167 -31h-53q-55 0 -67.5 28.5t-12.5 62.5t12.5 62t67.5 28h53q111 0 200 18.5t189 58.5q56 23 120 47t123 43
q-65 21 -128 49t-125 49t-126 21t-118.5 -18t-63.5 -18q-8 0 -8 11q0 32 37 89.5t84 92.5q33 23 65 29.5t83 6.5q53 0 118.5 -26t132.5 -59t123 -56q77 -30 178 -48.5t214 -23.5q70 -4 117 -5t47 -6z" />
    <glyph glyph-name="uni062D.medi" unicode="&#x62d;" horiz-adv-x="1514" arabic-form="medial" 
d="M1612 91q0 -34 -12.5 -62.5t-66.5 -28.5h-54q-181 0 -288 12.5t-159 46.5q-58 40 -58 128q0 29 7 57t14 59h-26q-170 0 -289.5 -45t-219.5 -101q-103 -58 -201 -107.5t-223 -49.5h-53q-55 0 -67.5 28.5t-12.5 62.5t12.5 62t67.5 28h53q144 0 244 30t185 65
q53 22 103.5 41t105.5 31q-39 16 -107 45t-148 53t-158 24q-60 0 -101.5 -17t-46.5 -17q-11 0 -11 9q0 63 46.5 113.5t95.5 76.5q29 17 63.5 21t55.5 4q44 0 103.5 -21t125 -50.5t128.5 -56.5t114 -39q78 -18 142.5 -26.5t141.5 -10.5t191 -2q5 0 7 -5t2 -7q0 -3 -7 -29.5
t-15 -56t-13 -41.5q-5 -15 -211 -15q-1 -3 -1.5 -8.5t-0.5 -10.5q0 -40 57 -63q43 -18 105.5 -26t129 -9.5t117.5 -1.5h54q54 0 66.5 -28t12.5 -62z" />
    <glyph glyph-name="uni062D.fina" unicode="&#x62d;" horiz-adv-x="1422" arabic-form="final" 
d="M1520 91q0 -34 -13 -62.5t-67 -28.5h-145q-109 0 -193 3.5t-141 22.5t-81 55.5t-24 69.5q0 34 8 87t15 85q-145 -28 -276 -91.5t-233 -153.5t-160.5 -198t-58.5 -225q0 -159 89 -281t279 -191.5t493 -69.5q95 0 192.5 8.5t167 17t79.5 8.5q8 0 9.5 -6t1.5 -11
q0 -4 -38 -20.5t-96 -38.5t-121 -44.5t-113.5 -39.5t-72.5 -24q-51 -15 -103.5 -17.5t-77.5 -2.5q-104 0 -213 15t-209.5 52.5t-180 104t-126 168.5t-46.5 247q0 160 63.5 313t182.5 283t284 219q-64 11 -134.5 18.5t-119.5 7.5q-45 0 -100 -10t-87 -10q-9 0 -9 12
q0 9 5.5 36.5t12 54t7.5 33.5q4 15 49 33t103 31t100 13q116 0 245 -26t262 -28q45 0 121.5 3t131.5 3q27 0 44.5 -1t17.5 -5t-11 -25.5t-26 -48t-27 -46t-13 -19.5q-49 -8 -107.5 -17t-109.5 -19q2 -62 38 -95.5t130 -46t268 -12.5h54q54 0 67 -28t13 -62z" />
    <glyph glyph-name="uni062E.init" unicode="&#x62e;" horiz-adv-x="1417" arabic-form="initial" 
d="M1298 436q0 -5 -9 -40.5t-19.5 -68.5t-16.5 -33q-59 0 -131.5 1.5t-135.5 3t-96 1.5q-111 0 -204.5 -35.5t-163.5 -71.5q-79 -41 -158.5 -86t-160.5 -76t-167 -31h-53q-55 0 -67.5 28.5t-12.5 62.5t12.5 62t67.5 28h53q111 0 200 18.5t189 58.5q56 23 120 47t123 43
q-65 21 -128 49t-125 49t-126 21t-118.5 -18t-63.5 -18q-8 0 -8 11q0 32 37 89.5t84 92.5q33 23 65 29.5t83 6.5q53 0 118.5 -26t132.5 -59t123 -56q77 -30 178 -48.5t214 -23.5q70 -4 117 -5t47 -6zM754 947q0 -5 -12.5 -27.5t-30 -49t-33.5 -46t-22 -19.5q-3 0 -23.5 13
t-45.5 30.5t-43.5 33t-18.5 20.5q0 6 13 28t31 48.5t33.5 46t19.5 19.5q6 0 27 -13.5t45 -31.5t42 -33.5t18 -18.5z" />
    <glyph glyph-name="uni062E.medi" unicode="&#x62e;" horiz-adv-x="1514" arabic-form="medial" 
d="M1612 91q0 -34 -12.5 -62.5t-66.5 -28.5h-54q-181 0 -288 12.5t-159 46.5q-58 40 -58 128q0 29 7 57t14 59h-26q-170 0 -289.5 -45t-219.5 -101q-103 -58 -201 -107.5t-223 -49.5h-53q-55 0 -67.5 28.5t-12.5 62.5t12.5 62t67.5 28h53q144 0 244 30t185 65
q53 22 103.5 41t105.5 31q-39 16 -107 45t-148 53t-158 24q-60 0 -101.5 -17t-46.5 -17q-11 0 -11 9q0 63 46.5 113.5t95.5 76.5q29 17 63.5 21t55.5 4q44 0 103.5 -21t125 -50.5t128.5 -56.5t114 -39q78 -18 142.5 -26.5t141.5 -10.5t191 -2q5 0 7 -5t2 -7q0 -3 -7 -29.5
t-15 -56t-13 -41.5q-5 -15 -211 -15q-1 -3 -1.5 -8.5t-0.5 -10.5q0 -40 57 -63q43 -18 105.5 -26t129 -9.5t117.5 -1.5h54q54 0 66.5 -28t12.5 -62zM871 947q0 -5 -12.5 -27.5t-30 -49t-33.5 -46t-22 -19.5q-3 0 -23.5 13t-45.5 30.5t-43.5 33t-18.5 20.5q0 6 13 28t31 48.5
t33.5 46t19.5 19.5q6 0 27 -13.5t45 -31.5t42 -33.5t18 -18.5z" />
    <glyph glyph-name="uni062E.fina" unicode="&#x62e;" horiz-adv-x="1422" arabic-form="final" 
d="M1520 91q0 -34 -13 -62.5t-67 -28.5h-145q-109 0 -193 3.5t-141 22.5t-81 55.5t-24 69.5q0 34 8 87t15 85q-145 -28 -276 -91.5t-233 -153.5t-160.5 -198t-58.5 -225q0 -159 89 -281t279 -191.5t493 -69.5q95 0 192.5 8.5t167 17t79.5 8.5q8 0 9.5 -6t1.5 -11
q0 -4 -38 -20.5t-96 -38.5t-121 -44.5t-113.5 -39.5t-72.5 -24q-51 -15 -103.5 -17.5t-77.5 -2.5q-104 0 -213 15t-209.5 52.5t-180 104t-126 168.5t-46.5 247q0 160 63.5 313t182.5 283t284 219q-64 11 -134.5 18.5t-119.5 7.5q-45 0 -100 -10t-87 -10q-9 0 -9 12
q0 9 5.5 36.5t12 54t7.5 33.5q4 15 49 33t103 31t100 13q116 0 245 -26t262 -28q45 0 121.5 3t131.5 3q27 0 44.5 -1t17.5 -5t-11 -25.5t-26 -48t-27 -46t-13 -19.5q-49 -8 -107.5 -17t-109.5 -19q2 -62 38 -95.5t130 -46t268 -12.5h54q54 0 67 -28t13 -62zM877 851
q0 -5 -12.5 -27.5t-30 -49t-33.5 -46t-22 -19.5q-3 0 -23.5 13t-45.5 30.5t-43.5 33t-18.5 20.5q0 6 13 28t31 48.5t33.5 46t19.5 19.5q6 0 27 -13.5t45 -31.5t42 -33.5t18 -18.5z" />
    <glyph glyph-name="uni062F.fina" unicode="&#x62f;" horiz-adv-x="1105" arabic-form="final" 
d="M1202 91q0 -34 -12.5 -62.5t-67.5 -28.5h-53q-99 0 -151 32.5t-84 100t-71 173.5q-37 -64 -71 -112.5t-80 -80.5q-67 -46 -145 -66.5t-158 -20.5q-51 0 -102 12.5t-85 42t-34 80.5q0 10 8.5 39.5t20.5 63.5t23.5 59t17.5 25q9 0 14 -21.5t9 -32.5q9 -25 48.5 -53
t141.5 -28q67 0 131.5 6.5t117 29t83.5 70t31 129.5q-9 91 -29 177.5t-37 162t-17 133.5q0 13 10.5 41t24.5 58t26.5 51.5t15.5 21.5q8 0 10.5 -6.5t3.5 -32.5q16 -107 36.5 -229.5t44 -238t47.5 -202.5t45 -123q24 -40 66.5 -60t87.5 -20h53q55 0 67.5 -28t12.5 -62z" />
    <glyph glyph-name="uni0630.fina" unicode="&#x630;" horiz-adv-x="1105" arabic-form="final" 
d="M1202 91q0 -34 -12.5 -62.5t-67.5 -28.5h-53q-99 0 -151 32.5t-84 100t-71 173.5q-37 -64 -71 -112.5t-80 -80.5q-67 -46 -145 -66.5t-158 -20.5q-51 0 -102 12.5t-85 42t-34 80.5q0 10 8.5 39.5t20.5 63.5t23.5 59t17.5 25q9 0 14 -21.5t9 -32.5q9 -25 48.5 -53
t141.5 -28q67 0 131.5 6.5t117 29t83.5 70t31 129.5q-9 91 -29 177.5t-37 162t-17 133.5q0 13 10.5 41t24.5 58t26.5 51.5t15.5 21.5q8 0 10.5 -6.5t3.5 -32.5q16 -107 36.5 -229.5t44 -238t47.5 -202.5t45 -123q24 -40 66.5 -60t87.5 -20h53q55 0 67.5 -28t12.5 -62z
M793 1395q0 -5 -12.5 -27.5t-30 -49t-33.5 -46t-22 -19.5q-3 0 -23.5 13t-45.5 30.5t-43.5 33t-18.5 20.5q0 6 13 28t31 48.5t33.5 46t19.5 19.5q6 0 27 -13.5t45 -31.5t42 -33.5t18 -18.5z" />
    <glyph glyph-name="uni0631.fina" unicode="&#x631;" horiz-adv-x="706" arabic-form="final" 
d="M805 91q0 -34 -12.5 -62.5t-67.5 -28.5h-54q-10 0 -20.5 1.5t-24.5 1.5q-13 -123 -49.5 -240.5t-135.5 -238.5q-55 -66 -126.5 -108t-172.5 -42q-54 0 -121.5 13.5t-116.5 29.5t-49 25q0 8 8 14t15 6q5 0 31.5 -4.5t45.5 -4.5q85 0 205 49t236 164q63 64 97.5 123.5
t48 102.5t13.5 54q0 9 -16 33.5t-37.5 53.5t-37.5 52.5t-16 30.5q0 5 15.5 39.5t32 71t20.5 46.5h9q29 -33 64.5 -62.5t81.5 -29.5h54q55 0 67.5 -28t12.5 -62z" />
    <glyph glyph-name="uni0632.fina" unicode="&#x632;" horiz-adv-x="706" arabic-form="final" 
d="M805 91q0 -34 -12.5 -62.5t-67.5 -28.5h-54q-10 0 -20.5 1.5t-24.5 1.5q-13 -123 -49.5 -240.5t-135.5 -238.5q-55 -66 -126.5 -108t-172.5 -42q-54 0 -121.5 13.5t-116.5 29.5t-49 25q0 8 8 14t15 6q5 0 31.5 -4.5t45.5 -4.5q85 0 205 49t236 164q63 64 97.5 123.5
t48 102.5t13.5 54q0 9 -16 33.5t-37.5 53.5t-37.5 52.5t-16 30.5q0 5 15.5 39.5t32 71t20.5 46.5h9q29 -33 64.5 -62.5t81.5 -29.5h54q55 0 67.5 -28t12.5 -62zM620 565q0 -5 -12.5 -27.5t-30 -49t-33.5 -46t-22 -19.5q-3 0 -23.5 13t-45.5 30.5t-43.5 33t-18.5 20.5
q0 6 13 28t31 48.5t33.5 46t19.5 19.5q6 0 27 -13.5t45 -31.5t42 -33.5t18 -18.5z" />
    <glyph glyph-name="uni0633.init" unicode="&#x633;" horiz-adv-x="1331" arabic-form="initial" 
d="M1182 428q0 -43 -11.5 -98.5t-35 -107t-59 -85t-84.5 -33.5q-53 0 -92 23t-65 51.5t-42 44.5q-29 -49 -69 -100t-91 -85.5t-114 -34.5q-68 0 -123 34.5t-93 113.5q-55 -82 -123.5 -116.5t-143.5 -34.5h-53q-55 0 -67.5 28.5t-12.5 62.5t12.5 62t67.5 28h53q96 0 154 29
t91 67.5t50.5 67.5t31.5 29t17 -28t12.5 -65.5t42.5 -65.5t106 -28t133.5 35.5t99 96.5t45.5 135q4 30 22 30q2 0 9 -8.5t8 -27.5q9 -61 48.5 -94.5t84.5 -46.5t72 -13q7 0 27.5 12.5t20.5 22.5q0 14 -16.5 29.5t-33 27t-16.5 14.5q0 5 7 32t17.5 59.5t20 57t15.5 24.5
q16 0 34 -27.5t30.5 -62t12.5 -55.5z" />
    <glyph glyph-name="uni0633.medi" unicode="&#x633;" horiz-adv-x="1476" arabic-form="medial" 
d="M1573 91q0 -34 -12.5 -62.5t-66.5 -28.5h-54q-77 0 -136 64.5t-102 164.5q-39 -82 -89 -137.5t-133 -55.5q-77 0 -111.5 38t-52.5 90q-55 -76 -122 -118.5t-175 -42.5q-68 0 -123 34.5t-93 113.5q-55 -82 -123.5 -116.5t-143.5 -34.5h-53q-55 0 -67.5 28.5t-12.5 62.5
t12.5 62t67.5 28h53q96 0 154 29t91 67.5t50.5 67.5t31.5 29t17 -28t12.5 -65.5t42.5 -65.5t106 -28q98 0 160.5 33t99 76t55.5 76t29 33q4 0 12.5 -9t8.5 -31q0 -40 22.5 -80.5t93.5 -40.5q52 0 85 25t52.5 58t30.5 58t19 25q13 0 24 -33q10 -32 35 -78.5t67.5 -82
t104.5 -35.5h54q54 0 66.5 -28t12.5 -62z" />
    <glyph glyph-name="uni0633.fina" unicode="&#x633;" horiz-adv-x="2040" arabic-form="final" 
d="M2137 91q0 -34 -12.5 -62.5t-66.5 -28.5h-54q-73 0 -127.5 60t-106.5 172q-40 -82 -88.5 -137.5t-131.5 -55.5q-65 0 -97.5 24t-46 54.5t-23.5 49.5q-37 -51 -66.5 -82.5t-71 -46.5t-114.5 -15q0 -54 -2.5 -91.5t-8 -73.5t-15.5 -87q-31 -152 -105 -247.5t-173.5 -147
t-209 -70.5t-210.5 -19q-113 0 -195 49.5t-126 130.5t-44 176q0 70 22.5 140.5t52.5 129t56.5 94t33.5 35.5q19 0 19 -16q0 -12 -25 -53.5t-50.5 -105.5t-25.5 -143q0 -72 35.5 -120.5t90 -77.5t113.5 -42t106 -13q83 0 170 11.5t162.5 33.5t121.5 53q76 51 103 122.5
t27 177.5q0 91 -19 147t-38.5 87t-19.5 45q0 8 10 32.5t23.5 53t26 49t17.5 20.5q37 -53 54 -113q98 0 160.5 33t99 75.5t55 75.5t28.5 33q6 0 14 -8.5t8 -30.5q0 -40 22.5 -80.5t93.5 -40.5q52 0 85 25t52.5 58t30.5 58t19 25q12 0 23 -33q11 -27 35.5 -74.5t66.5 -86
t103 -38.5h54q54 0 66.5 -28t12.5 -62z" />
    <glyph glyph-name="uni0634.init" unicode="&#x634;" horiz-adv-x="1331" arabic-form="initial" 
d="M1182 428q0 -43 -11.5 -98.5t-35 -107t-59 -85t-84.5 -33.5q-53 0 -92 23t-65 51.5t-42 44.5q-29 -49 -69 -100t-91 -85.5t-114 -34.5q-68 0 -123 34.5t-93 113.5q-55 -82 -123.5 -116.5t-143.5 -34.5h-53q-55 0 -67.5 28.5t-12.5 62.5t12.5 62t67.5 28h53q96 0 154 29
t91 67.5t50.5 67.5t31.5 29t17 -28t12.5 -65.5t42.5 -65.5t106 -28t133.5 35.5t99 96.5t45.5 135q4 30 22 30q2 0 9 -8.5t8 -27.5q9 -61 48.5 -94.5t84.5 -46.5t72 -13q7 0 27.5 12.5t20.5 22.5q0 14 -16.5 29.5t-33 27t-16.5 14.5q0 5 7 32t17.5 59.5t20 57t15.5 24.5
q16 0 34 -27.5t30.5 -62t12.5 -55.5zM806 1117q0 -6 -12.5 -28.5t-29.5 -49.5t-32.5 -46.5t-21.5 -19.5q-3 0 -23 13.5t-45 32t-43.5 34.5t-18.5 21q0 6 13.5 28t31.5 48t33 45t18 19q6 0 27 -13.5t44.5 -32t41 -33.5t17.5 -18zM957 860q0 -5 -12.5 -27.5t-30 -49.5
t-32.5 -46.5t-21 -19.5q-3 0 -21.5 13t-42 30.5t-41 31.5t-19.5 15q-6 5 -11 5t-10 -5q-2 -2 -21 -30t-39.5 -55.5t-26.5 -27.5q-4 0 -24.5 13t-45 31t-42.5 33.5t-18 20.5q0 6 13.5 28t31 48.5t32.5 46t18 19.5q9 0 37 -21t54 -42.5t28 -24.5q9 -9 13 -9q6 0 13 11
q2 3 21.5 30.5t40 54.5t24.5 27q5 0 25.5 -14t45.5 -32.5t43 -34.5t18 -19z" />
    <glyph glyph-name="uni0634.medi" unicode="&#x634;" horiz-adv-x="1476" arabic-form="medial" 
d="M1573 91q0 -34 -12.5 -62.5t-66.5 -28.5h-54q-77 0 -136 64.5t-102 164.5q-39 -82 -89 -137.5t-133 -55.5q-77 0 -111.5 38t-52.5 90q-55 -76 -122 -118.5t-175 -42.5q-68 0 -123 34.5t-93 113.5q-55 -82 -123.5 -116.5t-143.5 -34.5h-53q-55 0 -67.5 28.5t-12.5 62.5
t12.5 62t67.5 28h53q96 0 154 29t91 67.5t50.5 67.5t31.5 29t17 -28t12.5 -65.5t42.5 -65.5t106 -28q98 0 160.5 33t99 76t55.5 76t29 33q4 0 12.5 -9t8.5 -31q0 -40 22.5 -80.5t93.5 -40.5q52 0 85 25t52.5 58t30.5 58t19 25q13 0 24 -33q10 -32 35 -78.5t67.5 -82
t104.5 -35.5h54q54 0 66.5 -28t12.5 -62zM819 978q0 -6 -12.5 -28.5t-29.5 -49.5t-32.5 -46.5t-21.5 -19.5q-3 0 -23 13.5t-45 32t-43.5 34.5t-18.5 21q0 6 13.5 28t31.5 48t33 45t18 19q6 0 27 -13.5t44.5 -32t41 -33.5t17.5 -18zM970 721q0 -5 -12.5 -27.5t-30 -49.5
t-32.5 -46.5t-21 -19.5q-3 0 -21.5 13t-42 30.5t-41 31.5t-19.5 15q-6 5 -11 5t-10 -5q-2 -2 -21 -30t-39.5 -55.5t-26.5 -27.5q-4 0 -24.5 13t-45 31t-42.5 33.5t-18 20.5q0 6 13.5 28t31 48.5t32.5 46t18 19.5q9 0 37 -21t54 -42.5t28 -24.5q9 -9 13 -9q6 0 13 11
q2 3 21.5 30.5t40 54.5t24.5 27q5 0 25.5 -14t45.5 -32.5t43 -34.5t18 -19z" />
    <glyph glyph-name="uni0634.fina" unicode="&#x634;" horiz-adv-x="2040" arabic-form="final" 
d="M2137 91q0 -34 -12.5 -62.5t-66.5 -28.5h-54q-73 0 -127.5 60t-106.5 172q-40 -82 -88.5 -137.5t-131.5 -55.5q-65 0 -97.5 24t-46 54.5t-23.5 49.5q-37 -51 -66.5 -82.5t-71 -46.5t-114.5 -15q0 -54 -2.5 -91.5t-8 -73.5t-15.5 -87q-31 -152 -105 -247.5t-173.5 -147
t-209 -70.5t-210.5 -19q-113 0 -195 49.5t-126 130.5t-44 176q0 70 22.5 140.5t52.5 129t56.5 94t33.5 35.5q19 0 19 -16q0 -12 -25 -53.5t-50.5 -105.5t-25.5 -143q0 -72 35.5 -120.5t90 -77.5t113.5 -42t106 -13q83 0 170 11.5t162.5 33.5t121.5 53q76 51 103 122.5
t27 177.5q0 91 -19 147t-38.5 87t-19.5 45q0 8 10 32.5t23.5 53t26 49t17.5 20.5q37 -53 54 -113q98 0 160.5 33t99 75.5t55 75.5t28.5 33q6 0 14 -8.5t8 -30.5q0 -40 22.5 -80.5t93.5 -40.5q52 0 85 25t52.5 58t30.5 58t19 25q12 0 23 -33q11 -27 35.5 -74.5t66.5 -86
t103 -38.5h54q54 0 66.5 -28t12.5 -62zM1486 978q0 -6 -12.5 -28.5t-29.5 -49.5t-32.5 -46.5t-21.5 -19.5q-3 0 -23 13.5t-45 32t-43.5 34.5t-18.5 21q0 6 13.5 28t31.5 48t33 45t18 19q6 0 27 -13.5t44.5 -32t41 -33.5t17.5 -18zM1637 721q0 -5 -12.5 -27.5t-30 -49.5
t-32.5 -46.5t-21 -19.5q-3 0 -21.5 13t-42 30.5t-41 31.5t-19.5 15q-6 5 -11 5t-10 -5q-2 -2 -21 -30t-39.5 -55.5t-26.5 -27.5q-4 0 -24.5 13t-45 31t-42.5 33.5t-18 20.5q0 6 13.5 28t31 48.5t32.5 46t18 19.5q9 0 37 -21t54 -42.5t28 -24.5q9 -9 13 -9q6 0 13 11
q2 3 21.5 30.5t40 54.5t24.5 27q5 0 25.5 -14t45.5 -32.5t43 -34.5t18 -19z" />
    <glyph glyph-name="uni0635.init" unicode="&#x635;" horiz-adv-x="1755" arabic-form="initial" 
d="M1607 487q0 -90 -49 -160t-131 -122.5t-182 -89t-204 -59.5t-197.5 -34t-160.5 -13q-8 -17 -22 -55.5t-25.5 -79.5t-14.5 -67q-9 0 -24.5 23.5t-15.5 38.5q0 14 16 60t27 80q-74 0 -135.5 6.5t-108 39t-77.5 109.5q-40 -63 -104.5 -113.5t-162.5 -50.5h-53
q-55 0 -67.5 28.5t-12.5 62.5t12.5 62t67.5 28h53q93 0 153 29.5t95.5 68.5t53 68.5t25.5 29.5t15.5 -34t13.5 -60q9 -48 51 -70t96.5 -28.5t101.5 -6.5h59q54 77 133.5 169.5t175 176.5t198 138t201.5 54q71 0 115 -38t64 -91.5t20 -99.5zM1499 400q0 34 -56 72t-137 38
q-90 0 -192 -42t-191.5 -116t-143.5 -171q120 0 246.5 25.5t234 62.5t173.5 73t66 58z" />
    <glyph glyph-name="uni0635.medi" unicode="&#x635;" horiz-adv-x="1755" arabic-form="medial" 
d="M1853 91q0 -34 -12.5 -62.5t-67.5 -28.5h-53q-169 0 -342 0.5t-346 0.5h-171t-169 -1q-19 -38 -34 -86t-24.5 -83t-12.5 -35q-11 0 -24 25.5t-13 39.5q0 8 12 54.5t25 84.5q-74 0 -135 8t-107 42.5t-76 113.5q-40 -63 -104.5 -113.5t-162.5 -50.5h-53q-55 0 -67.5 28.5
t-12.5 62.5t12.5 62t67.5 28h53q93 0 153 29.5t95.5 68.5t53 68.5t25.5 29.5t15.5 -34t13.5 -60q10 -48 52 -70t96 -28.5t101 -6.5h59q50 74 131 164.5t180 174.5t206.5 138t210.5 54q58 0 99 -36t63 -87t22 -96q0 -106 -71.5 -183t-197.5 -143q119 11 213 14t164 3h53
q55 0 67.5 -28t12.5 -62zM1499 394q0 23 -26 41t-61.5 31t-66.5 20t-41 7q-127 0 -267.5 -75t-249.5 -237q116 0 240.5 23.5t231.5 58.5t173.5 71t66.5 60z" />
    <glyph glyph-name="uni0635.fina" unicode="&#x635;" horiz-adv-x="2366" arabic-form="final" 
d="M2465 91q0 -34 -12.5 -62.5t-67.5 -28.5h-53q-169 0 -341 1.5t-344 1.5q-85 0 -171 -1t-170 -2q-19 -38 -34 -86t-24.5 -83t-12.5 -35q-10 0 -24.5 25.5t-14.5 39.5q0 8 16.5 56t31.5 86q-19 0 -59 7t-54 13q0 -58 -2.5 -95t-8 -71.5t-15.5 -85.5q-31 -152 -105 -247.5
t-173.5 -147t-209 -70.5t-210.5 -19q-113 0 -195 49.5t-126 130.5t-44 176q0 70 22.5 140.5t52.5 129t56.5 94t33.5 35.5q19 0 19 -16q0 -12 -25 -53.5t-50.5 -105.5t-25.5 -143q0 -72 35.5 -120.5t90 -77.5t113.5 -42t106 -13q83 0 170 11.5t162.5 33.5t121.5 53
q76 51 103 122.5t27 177.5q0 91 -19 147t-38.5 87t-19.5 45q0 8 10 32.5t23.5 53t26 49t17.5 20.5q37 -53 54 -113q27 -4 81 -8t126 -4q50 74 131 164.5t180 174.5t206.5 138t210.5 54q58 0 99 -36t63 -87t22 -96q0 -106 -72 -183t-200 -143q119 11 213 14t164 3h53
q55 0 67.5 -28t12.5 -62zM2114 394q0 23 -26 41t-62 31t-67 20t-41 7q-127 0 -267 -75t-249 -237q115 0 239 23.5t231.5 58.5t174.5 71t67 60z" />
    <glyph glyph-name="uni0636.init" unicode="&#x636;" horiz-adv-x="1755" arabic-form="initial" 
d="M1607 487q0 -90 -49 -160t-131 -122.5t-182 -89t-204 -59.5t-197.5 -34t-160.5 -13q-8 -17 -22 -55.5t-25.5 -79.5t-14.5 -67q-9 0 -24.5 23.5t-15.5 38.5q0 14 16 60t27 80q-74 0 -135.5 6.5t-108 39t-77.5 109.5q-40 -63 -104.5 -113.5t-162.5 -50.5h-53
q-55 0 -67.5 28.5t-12.5 62.5t12.5 62t67.5 28h53q93 0 153 29.5t95.5 68.5t53 68.5t25.5 29.5t15.5 -34t13.5 -60q9 -48 51 -70t96.5 -28.5t101.5 -6.5h59q54 77 133.5 169.5t175 176.5t198 138t201.5 54q71 0 115 -38t64 -91.5t20 -99.5zM1499 400q0 34 -56 72t-137 38
q-90 0 -192 -42t-191.5 -116t-143.5 -171q120 0 246.5 25.5t234 62.5t173.5 73t66 58zM980 889q0 -5 -12.5 -27.5t-30 -49t-33.5 -46t-22 -19.5q-3 0 -23.5 13t-45.5 30.5t-43.5 33t-18.5 20.5q0 6 13 28t31 48.5t33.5 46t19.5 19.5q6 0 27 -13.5t45 -31.5t42 -33.5
t18 -18.5z" />
    <glyph glyph-name="uni0636.medi" unicode="&#x636;" horiz-adv-x="1755" arabic-form="medial" 
d="M1853 91q0 -34 -12.5 -62.5t-67.5 -28.5h-53q-169 0 -342 0.5t-346 0.5h-171t-169 -1q-19 -38 -34 -86t-24.5 -83t-12.5 -35q-11 0 -24 25.5t-13 39.5q0 8 12 54.5t25 84.5q-74 0 -135 8t-107 42.5t-76 113.5q-40 -63 -104.5 -113.5t-162.5 -50.5h-53q-55 0 -67.5 28.5
t-12.5 62.5t12.5 62t67.5 28h53q93 0 153 29.5t95.5 68.5t53 68.5t25.5 29.5t15.5 -34t13.5 -60q10 -48 52 -70t96 -28.5t101 -6.5h59q50 74 131 164.5t180 174.5t206.5 138t210.5 54q58 0 99 -36t63 -87t22 -96q0 -106 -71.5 -183t-197.5 -143q119 11 213 14t164 3h53
q55 0 67.5 -28t12.5 -62zM1499 394q0 23 -26 41t-61.5 31t-66.5 20t-41 7q-127 0 -267.5 -75t-249.5 -237q116 0 240.5 23.5t231.5 58.5t173.5 71t66.5 60zM1041 923q0 -5 -12.5 -27.5t-30 -49t-33.5 -46t-22 -19.5q-3 0 -23.5 13t-45.5 30.5t-43.5 33t-18.5 20.5q0 6 13 28
t31 48.5t33.5 46t19.5 19.5q6 0 27 -13.5t45 -31.5t42 -33.5t18 -18.5z" />
    <glyph glyph-name="uni0636.fina" unicode="&#x636;" horiz-adv-x="2366" arabic-form="final" 
d="M2465 91q0 -34 -12.5 -62.5t-67.5 -28.5h-53q-169 0 -341 1.5t-344 1.5q-85 0 -171 -1t-170 -2q-19 -38 -34 -86t-24.5 -83t-12.5 -35q-10 0 -24.5 25.5t-14.5 39.5q0 8 16.5 56t31.5 86q-19 0 -59 7t-54 13q0 -58 -2.5 -95t-8 -71.5t-15.5 -85.5q-31 -152 -105 -247.5
t-173.5 -147t-209 -70.5t-210.5 -19q-113 0 -195 49.5t-126 130.5t-44 176q0 70 22.5 140.5t52.5 129t56.5 94t33.5 35.5q19 0 19 -16q0 -12 -25 -53.5t-50.5 -105.5t-25.5 -143q0 -72 35.5 -120.5t90 -77.5t113.5 -42t106 -13q83 0 170 11.5t162.5 33.5t121.5 53
q76 51 103 122.5t27 177.5q0 91 -19 147t-38.5 87t-19.5 45q0 8 10 32.5t23.5 53t26 49t17.5 20.5q37 -53 54 -113q27 -4 81 -8t126 -4q50 74 131 164.5t180 174.5t206.5 138t210.5 54q58 0 99 -36t63 -87t22 -96q0 -106 -72 -183t-200 -143q119 11 213 14t164 3h53
q55 0 67.5 -28t12.5 -62zM2114 394q0 23 -26 41t-62 31t-67 20t-41 7q-127 0 -267 -75t-249 -237q115 0 239 23.5t231.5 58.5t174.5 71t67 60zM1566 836q0 -5 -12.5 -27.5t-30 -49t-33.5 -46t-22 -19.5q-3 0 -23.5 13t-45.5 30.5t-43.5 33t-18.5 20.5q0 6 13 28t31 48.5
t33.5 46t19.5 19.5q6 0 27 -13.5t45 -31.5t42 -33.5t18 -18.5z" />
    <glyph glyph-name="uni0637.init" unicode="&#x637;" horiz-adv-x="1218" arabic-form="initial" 
d="M1119 499q0 -82 -44 -170t-159 -149q-204 -110 -427 -145t-453 -35h-53q-55 0 -67.5 28.5t-12.5 62.5t12.5 62t67.5 28h53q38 0 64 1t45 5q32 17 60.5 39t41.5 41q20 65 26.5 139t6.5 144q0 126 -18 259t-41.5 250.5t-41.5 197.5t-18 100q0 27 12.5 69.5t30 76t31.5 33.5
q5 0 24.5 -24t42 -55.5t39 -57.5t16.5 -30q0 -9 -16.5 -29t-33 -48.5t-16.5 -64.5q0 -61 9.5 -117.5t22 -125t22 -165t9.5 -238.5q0 -26 -3.5 -72.5t-8.5 -93.5t-10 -73q52 53 121 118.5t148.5 125t164 98t166.5 38.5q92 0 139.5 -67t47.5 -156zM1006 400q0 41 -53 73
t-142 32q-78 0 -158 -26.5t-167.5 -95t-188.5 -196.5q159 6 289.5 34t224.5 64.5t144.5 68.5t50.5 46z" />
    <glyph glyph-name="uni0637.medi" unicode="&#x637;" horiz-adv-x="1277" arabic-form="medial" 
d="M1375 91q0 -34 -13 -62.5t-67 -28.5h-1082q-19 -34 -41.5 -98.5t-29.5 -111.5q-10 9 -25 23t-15 36q0 11 14.5 56.5t31.5 94.5h-165q-55 0 -67.5 28.5t-12.5 62.5t12.5 62t67.5 28h53q56 0 98 1.5t68 10.5q29 8 47 36.5t27 88.5q10 62 14 123t4 123q0 116 -19 238
t-33 238q-6 52 -21 113.5t-27.5 117t-12.5 89.5q0 36 13 76t31.5 68.5t32.5 28.5l113 -161q-25 -19 -45 -64t-20 -87q0 -51 8.5 -105.5t20 -125.5t20 -170.5t8.5 -240.5q0 -45 -8.5 -121.5t-22.5 -134.5q60 62 133 129t152.5 125.5t158.5 95t151 36.5q95 0 151 -69t56 -156
t-40.5 -147t-100.5 -101t-120 -72q20 0 63 4.5t96.5 8.5t101.5 4h161q54 0 67 -28t13 -62zM1022 394q0 28 -56 65t-150 37q-144 0 -275 -89t-229 -226q136 0 263 24t228 59.5t160 71t59 58.5z" />
    <glyph glyph-name="uni0637.fina" unicode="&#x637;" horiz-adv-x="1583" arabic-form="final" 
d="M1683 91q0 -34 -12.5 -62.5t-66.5 -28.5h-57h-131h-220h-261.5h-258h-210h-115.5q-51 0 -71.5 3t-44.5 12q-10 3 -41 26t-66 53t-60.5 55.5t-25.5 34.5q0 12 15 12q76 0 129 -10.5t132 -10.5q98 0 174 17t129 72q12 30 20.5 71t13.5 79t5 59q0 102 -4.5 178t-13.5 146
t-23 153q-13 85 -30 163t-29.5 137.5t-12.5 86.5q0 26 13 70.5t30.5 80.5t30.5 36q6 0 24.5 -24.5t39.5 -57t36.5 -59.5t15.5 -32q-23 -18 -46 -52.5t-23 -99.5q0 -27 9 -84.5t21 -133t21 -155t9 -149.5q0 -34 -2 -92.5t-6 -120t-11 -104.5q96 99 196.5 181.5t194 131.5
t167.5 49q104 0 158 -67t54 -156q0 -113 -79 -198.5t-204 -146.5q98 12 185 19.5t137 7.5h86q54 0 66.5 -28t12.5 -62zM1372 410q0 27 -31.5 49.5t-75.5 36.5t-83 14q-80 0 -169.5 -25t-180.5 -94.5t-175 -203.5q190 12 326 45t222 71.5t126.5 69t40.5 37.5z" />
    <glyph glyph-name="uni0638.init" unicode="&#x638;" horiz-adv-x="1218" arabic-form="initial" 
d="M1119 499q0 -82 -44 -170t-159 -149q-204 -110 -427 -145t-453 -35h-53q-55 0 -67.5 28.5t-12.5 62.5t12.5 62t67.5 28h53q38 0 64 1t45 5q32 17 60.5 39t41.5 41q20 65 26.5 139t6.5 144q0 126 -18 259t-41.5 250.5t-41.5 197.5t-18 100q0 27 12.5 69.5t30 76t31.5 33.5
q5 0 24.5 -24t42 -55.5t39 -57.5t16.5 -30q0 -9 -16.5 -29t-33 -48.5t-16.5 -64.5q0 -61 9.5 -117.5t22 -125t22 -165t9.5 -238.5q0 -26 -3.5 -72.5t-8.5 -93.5t-10 -73q52 53 121 118.5t148.5 125t164 98t166.5 38.5q92 0 139.5 -67t47.5 -156zM1006 400q0 41 -53 73
t-142 32q-78 0 -158 -26.5t-167.5 -95t-188.5 -196.5q159 6 289.5 34t224.5 64.5t144.5 68.5t50.5 46zM826 1048q0 -5 -12.5 -27.5t-30 -49t-33.5 -46t-22 -19.5q-3 0 -23.5 13t-45.5 30.5t-43.5 33t-18.5 20.5q0 6 13 28t31 48.5t33.5 46t19.5 19.5q6 0 27 -13.5t45 -31.5
t42 -33.5t18 -18.5z" />
    <glyph glyph-name="uni0638.medi" unicode="&#x638;" horiz-adv-x="1277" arabic-form="medial" 
d="M1375 91q0 -34 -13 -62.5t-67 -28.5h-1082q-19 -34 -41.5 -98.5t-29.5 -111.5q-10 9 -25 23t-15 36q0 11 14.5 56.5t31.5 94.5h-165q-55 0 -67.5 28.5t-12.5 62.5t12.5 62t67.5 28h53q56 0 98 1.5t68 10.5q29 8 47 36.5t27 88.5q10 62 14 123t4 123q0 116 -19 238
t-33 238q-6 52 -21 113.5t-27.5 117t-12.5 89.5q0 36 13 76t31.5 68.5t32.5 28.5l113 -161q-25 -19 -45 -64t-20 -87q0 -51 8.5 -105.5t20 -125.5t20 -170.5t8.5 -240.5q0 -45 -8.5 -121.5t-22.5 -134.5q60 62 133 129t152.5 125.5t158.5 95t151 36.5q95 0 151 -69t56 -156
t-40.5 -147t-100.5 -101t-120 -72q20 0 63 4.5t96.5 8.5t101.5 4h161q54 0 67 -28t13 -62zM1022 394q0 28 -56 65t-150 37q-144 0 -275 -89t-229 -226q136 0 263 24t228 59.5t160 71t59 58.5zM835 1025q0 -5 -12.5 -27.5t-30 -49t-33.5 -46t-22 -19.5q-3 0 -23.5 13
t-45.5 30.5t-43.5 33t-18.5 20.5q0 6 13 28t31 48.5t33.5 46t19.5 19.5q6 0 27 -13.5t45 -31.5t42 -33.5t18 -18.5z" />
    <glyph glyph-name="uni0638.fina" unicode="&#x638;" horiz-adv-x="1583" arabic-form="final" 
d="M1683 91q0 -34 -12.5 -62.5t-66.5 -28.5h-57h-131h-220h-261.5h-258h-210h-115.5q-51 0 -71.5 3t-44.5 12q-10 3 -41 26t-66 53t-60.5 55.5t-25.5 34.5q0 12 15 12q76 0 129 -10.5t132 -10.5q98 0 174 17t129 72q12 30 20.5 71t13.5 79t5 59q0 102 -4.5 178t-13.5 146
t-23 153q-13 85 -30 163t-29.5 137.5t-12.5 86.5q0 26 13 70.5t30.5 80.5t30.5 36q6 0 24.5 -24.5t39.5 -57t36.5 -59.5t15.5 -32q-23 -18 -46 -52.5t-23 -99.5q0 -27 9 -84.5t21 -133t21 -155t9 -149.5q0 -34 -2 -92.5t-6 -120t-11 -104.5q96 99 196.5 181.5t194 131.5
t167.5 49q104 0 158 -67t54 -156q0 -113 -79 -198.5t-204 -146.5q98 12 185 19.5t137 7.5h86q54 0 66.5 -28t12.5 -62zM1372 410q0 27 -31.5 49.5t-75.5 36.5t-83 14q-80 0 -169.5 -25t-180.5 -94.5t-175 -203.5q190 12 326 45t222 71.5t126.5 69t40.5 37.5zM1191 1029
q0 -5 -12.5 -27.5t-30 -49t-33.5 -46t-22 -19.5q-3 0 -23.5 13t-45.5 30.5t-43.5 33t-18.5 20.5q0 6 13 28t31 48.5t33.5 46t19.5 19.5q6 0 27 -13.5t45 -31.5t42 -33.5t18 -18.5z" />
    <glyph glyph-name="uni0639.init" unicode="&#x639;" horiz-adv-x="1066" arabic-form="initial" 
d="M974 505q0 -4 -8 -37.5t-16 -67.5q-10 -42 -44 -55q-79 -31 -178.5 -75.5t-205.5 -91.5q-85 -37 -167.5 -78.5t-162 -70.5t-156.5 -29h-53q-55 0 -67.5 28.5t-12.5 62.5t12.5 62t67.5 28h53q56 0 103 15.5t105 44.5q-38 32 -75.5 73t-37.5 93q0 77 38 155t98 145t125 109
q51 34 100.5 42.5t86.5 8.5q17 0 55 -19t80 -46.5t72 -54.5t30 -44q0 -14 -14 -14q-6 0 -31.5 9t-59.5 18t-67 9q-45 0 -111 -18t-128 -43q-97 -39 -122 -55t-25 -30q0 -34 27 -71.5t69.5 -70t90 -52.5t87.5 -20q54 0 122 23t133.5 52.5t114 52.5t64.5 23q8 0 8 -11z" />
    <glyph glyph-name="uni0639.medi" unicode="&#x639;" horiz-adv-x="856" arabic-form="medial" 
d="M953 91q0 -34 -13 -62.5t-67 -28.5h-54q-61 0 -120 27t-111.5 65.5t-93 74t-63.5 53.5q-56 -50 -120 -101t-133 -85t-142 -34h-53q-55 0 -67.5 28.5t-12.5 62.5t12.5 62t67.5 28h53q50 0 120.5 22t152.5 86q-193 89 -193 105q0 18 16.5 55.5t54.5 78.5t102.5 69.5
t161.5 28.5q71 0 136.5 -25t107.5 -66.5t42 -89.5q0 -40 -40.5 -80t-129.5 -79q72 -47 132.5 -76t119.5 -29h54q54 0 67 -28t13 -62z" />
    <glyph glyph-name="uni0639.fina" unicode="&#x639;" horiz-adv-x="1159" arabic-form="final" 
d="M1422 -879q0 -5 -50 -23.5t-125.5 -43t-154 -48t-136.5 -39t-71 -15.5q-120 0 -238.5 13t-223 49t-185.5 105t-127 180.5t-46 275.5q0 152 58.5 287t154 251.5t206.5 209.5q-29 24 -71.5 44.5t-74.5 36t-32 24.5q0 17 19 53t57 75.5t93.5 67t127.5 27.5q98 0 162.5 -36
t96 -77.5t31.5 -58.5q0 -34 -29.5 -70t-118.5 -83q77 -81 161.5 -113t215.5 -32h54q54 0 67 -28t13 -62t-13 -62.5t-67 -28.5h-54q-64 0 -119 5.5t-111 29t-124.5 76.5t-161.5 147q-80 -46 -161 -108t-148 -138.5t-108 -166t-41 -190.5q0 -170 104 -289t291.5 -180.5
t436.5 -61.5q125 0 240 10t185 10q13 0 15 -6t2 -17z" />
    <glyph glyph-name="uni063A.init" unicode="&#x63a;" horiz-adv-x="1066" arabic-form="initial" 
d="M974 505q0 -4 -8 -37.5t-16 -67.5q-10 -42 -44 -55q-79 -31 -178.5 -75.5t-205.5 -91.5q-85 -37 -167.5 -78.5t-162 -70.5t-156.5 -29h-53q-55 0 -67.5 28.5t-12.5 62.5t12.5 62t67.5 28h53q56 0 103 15.5t105 44.5q-38 32 -75.5 73t-37.5 93q0 77 38 155t98 145t125 109
q51 34 100.5 42.5t86.5 8.5q17 0 55 -19t80 -46.5t72 -54.5t30 -44q0 -14 -14 -14q-6 0 -31.5 9t-59.5 18t-67 9q-45 0 -111 -18t-128 -43q-97 -39 -122 -55t-25 -30q0 -34 27 -71.5t69.5 -70t90 -52.5t87.5 -20q54 0 122 23t133.5 52.5t114 52.5t64.5 23q8 0 8 -11z
M593 1154q0 -5 -12.5 -27.5t-30 -49t-33.5 -46t-22 -19.5q-3 0 -23.5 13t-45.5 30.5t-43.5 33t-18.5 20.5q0 6 13 28t31 48.5t33.5 46t19.5 19.5q6 0 27 -13.5t45 -31.5t42 -33.5t18 -18.5z" />
    <glyph glyph-name="uni063A.medi" unicode="&#x63a;" horiz-adv-x="856" arabic-form="medial" 
d="M953 91q0 -34 -13 -62.5t-67 -28.5h-54q-61 0 -120 27t-111.5 65.5t-93 74t-63.5 53.5q-56 -50 -120 -101t-133 -85t-142 -34h-53q-55 0 -67.5 28.5t-12.5 62.5t12.5 62t67.5 28h53q50 0 120.5 22t152.5 86q-193 89 -193 105q0 18 16.5 55.5t54.5 78.5t102.5 69.5
t161.5 28.5q71 0 136.5 -25t107.5 -66.5t42 -89.5q0 -40 -40.5 -80t-129.5 -79q72 -47 132.5 -76t119.5 -29h54q54 0 67 -28t13 -62zM545 992q0 -5 -12.5 -27.5t-30 -49t-33.5 -46t-22 -19.5q-3 0 -23.5 13t-45.5 30.5t-43.5 33t-18.5 20.5q0 6 13 28t31 48.5t33.5 46
t19.5 19.5q6 0 27 -13.5t45 -31.5t42 -33.5t18 -18.5z" />
    <glyph glyph-name="uni063A.fina" unicode="&#x63a;" horiz-adv-x="1159" arabic-form="final" 
d="M1422 -879q0 -5 -50 -23.5t-125.5 -43t-154 -48t-136.5 -39t-71 -15.5q-120 0 -238.5 13t-223 49t-185.5 105t-127 180.5t-46 275.5q0 152 58.5 287t154 251.5t206.5 209.5q-29 24 -71.5 44.5t-74.5 36t-32 24.5q0 17 19 53t57 75.5t93.5 67t127.5 27.5q98 0 162.5 -36
t96 -77.5t31.5 -58.5q0 -34 -29.5 -70t-118.5 -83q77 -81 161.5 -113t215.5 -32h54q54 0 67 -28t13 -62t-13 -62.5t-67 -28.5h-54q-64 0 -119 5.5t-111 29t-124.5 76.5t-161.5 147q-80 -46 -161 -108t-148 -138.5t-108 -166t-41 -190.5q0 -170 104 -289t291.5 -180.5
t436.5 -61.5q125 0 240 10t185 10q13 0 15 -6t2 -17zM710 968q0 -5 -12.5 -27.5t-30 -49t-33.5 -46t-22 -19.5q-3 0 -23.5 13t-45.5 30.5t-43.5 33t-18.5 20.5q0 6 13 28t31 48.5t33.5 46t19.5 19.5q6 0 27 -13.5t45 -31.5t42 -33.5t18 -18.5z" />
    <glyph glyph-name="uni063B.init" unicode="&#x63b;" horiz-adv-x="1202" 
d="M1212 1521q-31 -39 -44 -76t-23 -63t-31 -33q-60 -19 -155 -51.5t-206 -72t-220.5 -83t-200.5 -85t-146 -77t-55 -59.5q0 -18 41 -40t104.5 -54t130.5 -82q63 -45 118.5 -109t90.5 -143t35 -170q0 -140 -78.5 -209.5t-217 -91.5t-319.5 -22h-53q-55 0 -67.5 28.5
t-12.5 62.5t12.5 62t67.5 28h53q120 0 208.5 4.5t149.5 16.5q113 22 157 56t44 62q0 36 -38 84.5t-87.5 94.5t-83.5 74q-40 33 -92.5 60t-99 49.5t-69.5 39.5q-29 23 -41.5 53t-12.5 92t7.5 104.5t23.5 56.5q62 54 159 111t205 109.5t207.5 94.5t167.5 65q29 10 85.5 30
t117.5 42t105.5 37.5t49.5 15.5q2 0 5 -5t8 -7zM406 1415q0 -5 -12.5 -27.5t-30 -49.5t-32.5 -46.5t-21 -19.5q-3 0 -21.5 13t-42 30.5t-41 31.5t-19.5 15q-6 5 -11 5t-10 -5q-2 -2 -21 -30t-39.5 -55.5t-26.5 -27.5q-4 0 -24.5 13t-45 31t-42.5 33.5t-18 20.5q0 6 13.5 28
t31 48.5t32.5 46t18 19.5q9 0 37 -21t54 -42.5t28 -24.5q9 -9 13 -9q6 0 13 11q2 3 21.5 30.5t40 54.5t24.5 27q5 0 25.5 -14t45.5 -32.5t43 -34.5t18 -19z" />
    <glyph glyph-name="uni063B.medi" unicode="&#x63b;" horiz-adv-x="1369" 
d="M1469 91q0 -34 -12.5 -62.5t-67.5 -28.5h-55q-76 0 -134.5 37t-124 102.5t-159 152.5t-239.5 187q7 -25 8 -59.5t1 -54.5q0 -130 -59 -210.5t-201 -117.5t-390 -37h-53q-55 0 -67.5 28.5t-12.5 62.5t12.5 62t67.5 28h53q101 0 207 5.5t195.5 22.5t144.5 53.5t55 97.5
q0 62 -35.5 112.5t-90.5 91t-115 71.5q-55 29 -101.5 46.5t-93.5 55.5q-20 17 -46.5 56.5t-45.5 85.5t-19 84q0 37 26 100t93 116q74 58 176.5 119t217 119t225 108.5t202 89t149.5 60.5t64 22q12 0 12 -9q0 -4 -8 -31t-19 -60t-21 -58t-15 -27q-143 -46 -291 -106
t-283.5 -125t-242.5 -126.5t-169 -110.5t-62 -75q0 -23 46.5 -48.5t111.5 -56.5q122 -56 242.5 -127t211.5 -140q146 -107 247.5 -202t179 -154.5t150.5 -59.5h55q55 0 67.5 -28t12.5 -62zM418 1503q0 -5 -12.5 -27.5t-30 -49.5t-32.5 -46.5t-21 -19.5q-3 0 -21.5 13
t-42 30.5t-41 31.5t-19.5 15q-6 5 -11 5t-10 -5q-2 -2 -21 -30t-39.5 -55.5t-26.5 -27.5q-4 0 -24.5 13t-45 31t-42.5 33.5t-18 20.5q0 6 13.5 28t31 48.5t32.5 46t18 19.5q9 0 37 -21t54 -42.5t28 -24.5q9 -9 13 -9q6 0 13 11q2 3 21.5 30.5t40 54.5t24.5 27q5 0 25.5 -14
t45.5 -32.5t43 -34.5t18 -19z" />
    <glyph glyph-name="uni063B.fina" unicode="&#x63b;" horiz-adv-x="2239" 
d="M2336 91q0 -34 -12.5 -62.5t-67.5 -28.5h-52q-69 0 -121.5 29.5t-106.5 82.5t-124 123t-174 151q8 -46 8 -92q0 -109 -78 -175.5t-214.5 -100.5t-313 -45.5t-374.5 -11.5q-231 0 -362 33.5t-185.5 111t-54.5 209.5q0 16 9 64.5t22.5 104.5t27.5 96.5t24 40.5q17 0 17 -18
q0 -5 -6.5 -33t-13 -61.5t-6.5 -57.5q0 -95 53 -161.5t178.5 -101t341.5 -34.5q210 0 344 1.5t213 6t123 12.5q113 21 156 55.5t43 61.5q0 37 -37 86t-85.5 95t-83.5 73q-40 32 -93.5 59t-100.5 49t-69 39q-29 23 -39.5 53t-10.5 93q0 62 6 104.5t23 55.5q39 42 120 96
t186.5 113t221.5 117.5t225 109.5q112 52 203.5 85t139.5 33q5 0 6.5 -3.5t5.5 -7.5q-31 -38 -44 -75t-22.5 -63.5t-31.5 -34.5q-60 -21 -155 -57.5t-205.5 -81.5t-219.5 -94t-199.5 -95t-145.5 -84.5t-55 -62.5q0 -27 68 -61q111 -54 210.5 -120.5t187.5 -135.5
q127 -99 229.5 -189.5t186 -148t152.5 -57.5h52q55 0 67.5 -28t12.5 -62zM1440 1382q0 -5 -12.5 -27.5t-30 -49.5t-32.5 -46.5t-21 -19.5q-3 0 -21.5 13t-42 30.5t-41 31.5t-19.5 15q-6 5 -11 5t-10 -5q-2 -2 -21 -30t-39.5 -55.5t-26.5 -27.5q-4 0 -24.5 13t-45 31
t-42.5 33.5t-18 20.5q0 6 13.5 28t31 48.5t32.5 46t18 19.5q9 0 37 -21t54 -42.5t28 -24.5q9 -9 13 -9q6 0 13 11q2 3 21.5 30.5t40 54.5t24.5 27q5 0 25.5 -14t45.5 -32.5t43 -34.5t18 -19z" />
    <glyph glyph-name="uni063C.init" unicode="&#x63c;" horiz-adv-x="1202" 
d="M1212 1521q-31 -39 -44 -76t-23 -63t-31 -33q-60 -19 -155 -51.5t-206 -72t-220.5 -83t-200.5 -85t-146 -77t-55 -59.5q0 -18 41 -40t104.5 -54t130.5 -82q63 -45 118.5 -109t90.5 -143t35 -170q0 -140 -78.5 -209.5t-217 -91.5t-319.5 -22h-53q-55 0 -67.5 28.5
t-12.5 62.5t12.5 62t67.5 28h53q120 0 208.5 4.5t149.5 16.5q113 22 157 56t44 62q0 36 -38 84.5t-87.5 94.5t-83.5 74q-40 33 -92.5 60t-99 49.5t-69.5 39.5q-29 23 -41.5 53t-12.5 92t7.5 104.5t23.5 56.5q62 54 159 111t205 109.5t207.5 94.5t167.5 65q29 10 85.5 30
t117.5 42t105.5 37.5t49.5 15.5q2 0 5 -5t8 -7zM359 -528q0 -4 -12.5 -26t-30 -48t-33 -45.5t-22.5 -19.5q-4 0 -24.5 12.5t-45.5 30t-43.5 33t-18.5 21.5q0 5 13.5 27.5t31.5 49t34 46t20 19.5q6 0 26.5 -13.5t44.5 -32t42 -34.5t18 -20zM460 -240q0 -5 -12.5 -27.5
t-30 -49.5t-32.5 -46.5t-21 -19.5q-3 0 -21.5 13t-42 30.5t-41 31.5t-19.5 15q-6 5 -11 5t-10 -5q-2 -2 -21 -30t-39.5 -55.5t-26.5 -27.5q-4 0 -24.5 13t-45 31t-42.5 33.5t-18 20.5q0 6 13.5 28t31 48.5t32.5 46t18 19.5q9 0 37 -21t54 -42.5t28 -24.5q9 -9 13 -9
q6 0 13 11q2 3 21.5 30.5t40 54.5t24.5 27q5 0 25.5 -14t45.5 -32.5t43 -34.5t18 -19z" />
    <glyph glyph-name="uni063C.medi" unicode="&#x63c;" horiz-adv-x="1369" 
d="M1469 91q0 -34 -12.5 -62.5t-67.5 -28.5h-55q-76 0 -134.5 37t-124 102.5t-159 152.5t-239.5 187q7 -25 8 -59.5t1 -54.5q0 -130 -59 -210.5t-201 -117.5t-390 -37h-53q-55 0 -67.5 28.5t-12.5 62.5t12.5 62t67.5 28h53q101 0 207 5.5t195.5 22.5t144.5 53.5t55 97.5
q0 62 -35.5 112.5t-90.5 91t-115 71.5q-55 29 -101.5 46.5t-93.5 55.5q-20 17 -46.5 56.5t-45.5 85.5t-19 84q0 37 26 100t93 116q74 58 176.5 119t217 119t225 108.5t202 89t149.5 60.5t64 22q12 0 12 -9q0 -4 -8 -31t-19 -60t-21 -58t-15 -27q-143 -46 -291 -106
t-283.5 -125t-242.5 -126.5t-169 -110.5t-62 -75q0 -23 46.5 -48.5t111.5 -56.5q122 -56 242.5 -127t211.5 -140q146 -107 247.5 -202t179 -154.5t150.5 -59.5h55q55 0 67.5 -28t12.5 -62zM331 -528q0 -4 -12.5 -26t-30 -48t-33 -45.5t-22.5 -19.5q-4 0 -24.5 12.5t-45.5 30
t-43.5 33t-18.5 21.5q0 5 13.5 27.5t31.5 49t34 46t20 19.5q6 0 26.5 -13.5t44.5 -32t42 -34.5t18 -20zM432 -240q0 -5 -12.5 -27.5t-30 -49.5t-32.5 -46.5t-21 -19.5q-3 0 -21.5 13t-42 30.5t-41 31.5t-19.5 15q-6 5 -11 5t-10 -5q-2 -2 -21 -30t-39.5 -55.5t-26.5 -27.5
q-4 0 -24.5 13t-45 31t-42.5 33.5t-18 20.5q0 6 13.5 28t31 48.5t32.5 46t18 19.5q9 0 37 -21t54 -42.5t28 -24.5q9 -9 13 -9q6 0 13 11q2 3 21.5 30.5t40 54.5t24.5 27q5 0 25.5 -14t45.5 -32.5t43 -34.5t18 -19z" />
    <glyph glyph-name="uni063C.fina" unicode="&#x63c;" horiz-adv-x="2239" 
d="M2336 91q0 -34 -12.5 -62.5t-67.5 -28.5h-52q-69 0 -121.5 29.5t-106.5 82.5t-124 123t-174 151q8 -46 8 -92q0 -109 -78 -175.5t-214.5 -100.5t-313 -45.5t-374.5 -11.5q-231 0 -362 33.5t-185.5 111t-54.5 209.5q0 16 9 64.5t22.5 104.5t27.5 96.5t24 40.5q17 0 17 -18
q0 -5 -6.5 -33t-13 -61.5t-6.5 -57.5q0 -95 53 -161.5t178.5 -101t341.5 -34.5q210 0 344 1.5t213 6t123 12.5q113 21 156 55.5t43 61.5q0 37 -37 86t-85.5 95t-83.5 73q-40 32 -93.5 59t-100.5 49t-69 39q-29 23 -39.5 53t-10.5 93q0 62 6 104.5t23 55.5q39 42 120 96
t186.5 113t221.5 117.5t225 109.5q112 52 203.5 85t139.5 33q5 0 6.5 -3.5t5.5 -7.5q-31 -38 -44 -75t-22.5 -63.5t-31.5 -34.5q-60 -21 -155 -57.5t-205.5 -81.5t-219.5 -94t-199.5 -95t-145.5 -84.5t-55 -62.5q0 -27 68 -61q111 -54 210.5 -120.5t187.5 -135.5
q127 -99 229.5 -189.5t186 -148t152.5 -57.5h52q55 0 67.5 -28t12.5 -62zM1310 -570q0 -4 -12.5 -26t-30 -48t-33 -45.5t-22.5 -19.5q-4 0 -24.5 12.5t-45.5 30t-43.5 33t-18.5 21.5q0 5 13.5 27.5t31.5 49t34 46t20 19.5q6 0 26.5 -13.5t44.5 -32t42 -34.5t18 -20z
M1411 -282q0 -5 -12.5 -27.5t-30 -49.5t-32.5 -46.5t-21 -19.5q-3 0 -21.5 13t-42 30.5t-41 31.5t-19.5 15q-6 5 -11 5t-10 -5q-2 -2 -21 -30t-39.5 -55.5t-26.5 -27.5q-4 0 -24.5 13t-45 31t-42.5 33.5t-18 20.5q0 6 13.5 28t31 48.5t32.5 46t18 19.5q9 0 37 -21t54 -42.5
t28 -24.5q9 -9 13 -9q6 0 13 11q2 3 21.5 30.5t40 54.5t24.5 27q5 0 25.5 -14t45.5 -32.5t43 -34.5t18 -19z" />
    <glyph glyph-name="uni063D.init" unicode="&#x63d;" horiz-adv-x="522" 
d="M360 383q0 -147 -43 -230.5t-116.5 -118t-164.5 -34.5h-53q-55 0 -67.5 28.5t-12.5 62.5t12.5 62t67.5 28h53q62 0 110.5 10.5t82.5 26.5q31 15 46.5 33.5t15.5 28.5q0 9 -14.5 37.5t-33 63.5t-33 63t-14.5 35q0 10 13.5 36t31.5 56.5t33.5 55t19.5 30.5
q33 -72 49.5 -138t16.5 -136zM450 875q0 -17 -2 -48.5t-4 -36.5q-37 0 -80.5 42.5t-78 99.5t-45.5 100q-10 -52 -42 -109.5t-72 -97t-75 -39.5q-5 0 -5 5q0 12 0.5 24t0.5 30v23.5v14.5q0 1 22.5 12t54.5 40t61.5 84.5t44.5 145.5q0 6 7 6q6 0 6 -6q20 -90 59 -143.5
t79.5 -81.5t63.5 -40q3 -1 4 -10.5t1 -14.5zM400 -245q0 -5 -12.5 -27.5t-30 -49.5t-32.5 -46.5t-21 -19.5q-3 0 -21.5 13t-42 30.5t-41 31.5t-19.5 15q-6 5 -11 5t-10 -5q-2 -2 -21 -30t-39.5 -55.5t-26.5 -27.5q-4 0 -24.5 13t-45 31t-42.5 33.5t-18 20.5q0 6 13.5 28
t31 48.5t32.5 46t18 19.5q9 0 37 -21t54 -42.5t28 -24.5q9 -9 13 -9q6 0 13 11q2 3 21.5 30.5t40 54.5t24.5 27q5 0 25.5 -14t45.5 -32.5t43 -34.5t18 -19z" />
    <glyph glyph-name="uni063D.medi" unicode="&#x63d;" horiz-adv-x="532" 
d="M632 91q0 -34 -12.5 -62.5t-67.5 -28.5h-56q-40 0 -68 13t-51 38q-15 17 -34.5 47t-30.5 56q-51 -58 -110 -106t-166 -48h-53q-55 0 -67.5 28.5t-12.5 62.5t12.5 62t67.5 28h53q98 0 158 28.5t93 66.5t50 66.5t28 28.5q9 0 12.5 -24.5t14.5 -55.5q11 -35 36 -72.5
t68 -37.5h56q55 0 67.5 -28t12.5 -62zM473 588q0 -17 -2 -48.5t-4 -36.5q-37 0 -80.5 42.5t-78 99.5t-45.5 100q-10 -52 -42 -109.5t-72 -97t-75 -39.5q-5 0 -5 5q0 12 0.5 24t0.5 30v23.5v14.5q0 1 22.5 12t54.5 40t61.5 84.5t44.5 145.5q0 6 7 6q6 0 6 -6
q20 -90 59 -143.5t79.5 -81.5t63.5 -40q3 -1 4 -10.5t1 -14.5zM496 -245q0 -5 -12.5 -27.5t-30 -49.5t-32.5 -46.5t-21 -19.5q-3 0 -21.5 13t-42 30.5t-41 31.5t-19.5 15q-6 5 -11 5t-10 -5q-2 -2 -21 -30t-39.5 -55.5t-26.5 -27.5q-4 0 -24.5 13t-45 31t-42.5 33.5
t-18 20.5q0 6 13.5 28t31 48.5t32.5 46t18 19.5q9 0 37 -21t54 -42.5t28 -24.5q9 -9 13 -9q6 0 13 11q2 3 21.5 30.5t40 54.5t24.5 27q5 0 25.5 -14t45.5 -32.5t43 -34.5t18 -19z" />
    <glyph glyph-name="uni063D.fina" unicode="&#x63d;" horiz-adv-x="1421" 
d="M1518 91q0 -34 -12.5 -62.5t-67.5 -28.5h-155q-40 0 -86 -2.5t-86 -14.5q-49 -14 -79.5 -44t-30.5 -64t37.5 -42.5t92.5 -16.5q45 -7 101.5 -27.5t98 -58t41.5 -95.5q0 -76 -51.5 -141t-136.5 -117t-188 -88.5t-207.5 -56t-193.5 -19.5q-221 0 -345.5 114t-124.5 310
q0 80 21.5 159.5t50 145.5t53 106t30.5 40q23 0 23 -17q0 -6 -25 -55.5t-49.5 -124t-24.5 -155.5q0 -107 45 -171t118.5 -96t159.5 -42.5t168 -10.5q37 0 110 14t158.5 37t163.5 50.5t128.5 54.5t50.5 48q0 59 -187 68q-55 3 -112.5 10t-97 30.5t-39.5 75.5q0 36 18 74.5
t37 67.5q115 181 280 224q32 8 60.5 9.5t61.5 1.5h111q55 0 67.5 -28t12.5 -62zM870 312q0 -17 -2 -48.5t-4 -36.5q-37 0 -80.5 42.5t-78 99.5t-45.5 100q-10 -52 -42 -109.5t-72 -97t-75 -39.5q-5 0 -5 5q0 12 0.5 24t0.5 30v23.5v14.5q0 1 22.5 12t54.5 40t61.5 84.5
t44.5 145.5q0 6 7 6q6 0 6 -6q20 -90 59 -143.5t79.5 -81.5t63.5 -40q3 -1 4 -10.5t1 -14.5z" />
    <glyph glyph-name="uni063E.init" unicode="&#x63e;" horiz-adv-x="522" 
d="M360 383q0 -147 -43 -230.5t-116.5 -118t-164.5 -34.5h-53q-55 0 -67.5 28.5t-12.5 62.5t12.5 62t67.5 28h53q62 0 110.5 10.5t82.5 26.5q31 15 46.5 33.5t15.5 28.5q0 9 -14.5 37.5t-33 63.5t-33 63t-14.5 35q0 10 13.5 36t31.5 56.5t33.5 55t19.5 30.5
q33 -72 49.5 -138t16.5 -136zM473 970q0 -5 -12.5 -27.5t-30 -49.5t-32.5 -46.5t-21 -19.5q-3 0 -21.5 13t-42 30.5t-41 31.5t-19.5 15q-6 5 -11 5t-10 -5q-2 -2 -21 -30t-39.5 -55.5t-26.5 -27.5q-4 0 -24.5 13t-45 31t-42.5 33.5t-18 20.5q0 6 13.5 28t31 48.5t32.5 46
t18 19.5q9 0 37 -21t54 -42.5t28 -24.5q9 -9 13 -9q6 0 13 11q2 3 21.5 30.5t40 54.5t24.5 27q5 0 25.5 -14t45.5 -32.5t43 -34.5t18 -19zM400 -245q0 -5 -12.5 -27.5t-30 -49.5t-32.5 -46.5t-21 -19.5q-3 0 -21.5 13t-42 30.5t-41 31.5t-19.5 15q-6 5 -11 5t-10 -5
q-2 -2 -21 -30t-39.5 -55.5t-26.5 -27.5q-4 0 -24.5 13t-45 31t-42.5 33.5t-18 20.5q0 6 13.5 28t31 48.5t32.5 46t18 19.5q9 0 37 -21t54 -42.5t28 -24.5q9 -9 13 -9q6 0 13 11q2 3 21.5 30.5t40 54.5t24.5 27q5 0 25.5 -14t45.5 -32.5t43 -34.5t18 -19z" />
    <glyph glyph-name="uni063E.medi" unicode="&#x63e;" horiz-adv-x="532" 
d="M632 91q0 -34 -12.5 -62.5t-67.5 -28.5h-56q-40 0 -68 13t-51 38q-15 17 -34.5 47t-30.5 56q-51 -58 -110 -106t-166 -48h-53q-55 0 -67.5 28.5t-12.5 62.5t12.5 62t67.5 28h53q98 0 158 28.5t93 66.5t50 66.5t28 28.5q9 0 12.5 -24.5t14.5 -55.5q11 -35 36 -72.5
t68 -37.5h56q55 0 67.5 -28t12.5 -62zM496 683q0 -5 -12.5 -27.5t-30 -49.5t-32.5 -46.5t-21 -19.5q-3 0 -21.5 13t-42 30.5t-41 31.5t-19.5 15q-6 5 -11 5t-10 -5q-2 -2 -21 -30t-39.5 -55.5t-26.5 -27.5q-4 0 -24.5 13t-45 31t-42.5 33.5t-18 20.5q0 6 13.5 28t31 48.5
t32.5 46t18 19.5q9 0 37 -21t54 -42.5t28 -24.5q9 -9 13 -9q6 0 13 11q2 3 21.5 30.5t40 54.5t24.5 27q5 0 25.5 -14t45.5 -32.5t43 -34.5t18 -19zM496 -245q0 -5 -12.5 -27.5t-30 -49.5t-32.5 -46.5t-21 -19.5q-3 0 -21.5 13t-42 30.5t-41 31.5t-19.5 15q-6 5 -11 5t-10 -5
q-2 -2 -21 -30t-39.5 -55.5t-26.5 -27.5q-4 0 -24.5 13t-45 31t-42.5 33.5t-18 20.5q0 6 13.5 28t31 48.5t32.5 46t18 19.5q9 0 37 -21t54 -42.5t28 -24.5q9 -9 13 -9q6 0 13 11q2 3 21.5 30.5t40 54.5t24.5 27q5 0 25.5 -14t45.5 -32.5t43 -34.5t18 -19z" />
    <glyph glyph-name="uni063E.fina" unicode="&#x63e;" horiz-adv-x="1421" 
d="M1518 91q0 -34 -12.5 -62.5t-67.5 -28.5h-155q-40 0 -86 -2.5t-86 -14.5q-49 -14 -79.5 -44t-30.5 -64t37.5 -42.5t92.5 -16.5q45 -7 101.5 -27.5t98 -58t41.5 -95.5q0 -76 -51.5 -141t-136.5 -117t-188 -88.5t-207.5 -56t-193.5 -19.5q-221 0 -345.5 114t-124.5 310
q0 80 21.5 159.5t50 145.5t53 106t30.5 40q23 0 23 -17q0 -6 -25 -55.5t-49.5 -124t-24.5 -155.5q0 -107 45 -171t118.5 -96t159.5 -42.5t168 -10.5q37 0 110 14t158.5 37t163.5 50.5t128.5 54.5t50.5 48q0 59 -187 68q-55 3 -112.5 10t-97 30.5t-39.5 75.5q0 36 18 74.5
t37 67.5q115 181 280 224q32 8 60.5 9.5t61.5 1.5h111q55 0 67.5 -28t12.5 -62zM893 407q0 -5 -12.5 -27.5t-30 -49.5t-32.5 -46.5t-21 -19.5q-3 0 -21.5 13t-42 30.5t-41 31.5t-19.5 15q-6 5 -11 5t-10 -5q-2 -2 -21 -30t-39.5 -55.5t-26.5 -27.5q-4 0 -24.5 13t-45 31
t-42.5 33.5t-18 20.5q0 6 13.5 28t31 48.5t32.5 46t18 19.5q9 0 37 -21t54 -42.5t28 -24.5q9 -9 13 -9q6 0 13 11q2 3 21.5 30.5t40 54.5t24.5 27q5 0 25.5 -14t45.5 -32.5t43 -34.5t18 -19z" />
    <glyph glyph-name="uni063F.init" unicode="&#x63f;" horiz-adv-x="522" 
d="M360 383q0 -147 -43 -230.5t-116.5 -118t-164.5 -34.5h-53q-55 0 -67.5 28.5t-12.5 62.5t12.5 62t67.5 28h53q62 0 110.5 10.5t82.5 26.5q31 15 46.5 33.5t15.5 28.5q0 9 -14.5 37.5t-33 63.5t-33 63t-14.5 35q0 10 13.5 36t31.5 56.5t33.5 55t19.5 30.5
q33 -72 49.5 -138t16.5 -136zM325 1226q0 -6 -12.5 -28.5t-29.5 -49.5t-32.5 -46.5t-21.5 -19.5q-3 0 -23 13.5t-45 32t-43.5 34.5t-18.5 21q0 6 13.5 28t31.5 48t33 45t18 19q6 0 27 -13.5t44.5 -32t41 -33.5t17.5 -18zM476 969q0 -5 -12.5 -27.5t-30 -49.5t-32.5 -46.5
t-21 -19.5q-3 0 -21.5 13t-42 30.5t-41 31.5t-19.5 15q-6 5 -11 5t-10 -5q-2 -2 -21 -30t-39.5 -55.5t-26.5 -27.5q-4 0 -24.5 13t-45 31t-42.5 33.5t-18 20.5q0 6 13.5 28t31 48.5t32.5 46t18 19.5q9 0 37 -21t54 -42.5t28 -24.5q9 -9 13 -9q6 0 13 11q2 3 21.5 30.5
t40 54.5t24.5 27q5 0 25.5 -14t45.5 -32.5t43 -34.5t18 -19zM400 -245q0 -5 -12.5 -27.5t-30 -49.5t-32.5 -46.5t-21 -19.5q-3 0 -21.5 13t-42 30.5t-41 31.5t-19.5 15q-6 5 -11 5t-10 -5q-2 -2 -21 -30t-39.5 -55.5t-26.5 -27.5q-4 0 -24.5 13t-45 31t-42.5 33.5t-18 20.5
q0 6 13.5 28t31 48.5t32.5 46t18 19.5q9 0 37 -21t54 -42.5t28 -24.5q9 -9 13 -9q6 0 13 11q2 3 21.5 30.5t40 54.5t24.5 27q5 0 25.5 -14t45.5 -32.5t43 -34.5t18 -19z" />
    <glyph glyph-name="uni063F.medi" unicode="&#x63f;" horiz-adv-x="532" 
d="M632 91q0 -34 -12.5 -62.5t-67.5 -28.5h-56q-40 0 -68 13t-51 38q-15 17 -34.5 47t-30.5 56q-51 -58 -110 -106t-166 -48h-53q-55 0 -67.5 28.5t-12.5 62.5t12.5 62t67.5 28h53q98 0 158 28.5t93 66.5t50 66.5t28 28.5q9 0 12.5 -24.5t14.5 -55.5q11 -35 36 -72.5
t68 -37.5h56q55 0 67.5 -28t12.5 -62zM348 939q0 -6 -12.5 -28.5t-29.5 -49.5t-32.5 -46.5t-21.5 -19.5q-3 0 -23 13.5t-45 32t-43.5 34.5t-18.5 21q0 6 13.5 28t31.5 48t33 45t18 19q6 0 27 -13.5t44.5 -32t41 -33.5t17.5 -18zM499 682q0 -5 -12.5 -27.5t-30 -49.5
t-32.5 -46.5t-21 -19.5q-3 0 -21.5 13t-42 30.5t-41 31.5t-19.5 15q-6 5 -11 5t-10 -5q-2 -2 -21 -30t-39.5 -55.5t-26.5 -27.5q-4 0 -24.5 13t-45 31t-42.5 33.5t-18 20.5q0 6 13.5 28t31 48.5t32.5 46t18 19.5q9 0 37 -21t54 -42.5t28 -24.5q9 -9 13 -9q6 0 13 11
q2 3 21.5 30.5t40 54.5t24.5 27q5 0 25.5 -14t45.5 -32.5t43 -34.5t18 -19zM496 -245q0 -5 -12.5 -27.5t-30 -49.5t-32.5 -46.5t-21 -19.5q-3 0 -21.5 13t-42 30.5t-41 31.5t-19.5 15q-6 5 -11 5t-10 -5q-2 -2 -21 -30t-39.5 -55.5t-26.5 -27.5q-4 0 -24.5 13t-45 31
t-42.5 33.5t-18 20.5q0 6 13.5 28t31 48.5t32.5 46t18 19.5q9 0 37 -21t54 -42.5t28 -24.5q9 -9 13 -9q6 0 13 11q2 3 21.5 30.5t40 54.5t24.5 27q5 0 25.5 -14t45.5 -32.5t43 -34.5t18 -19z" />
    <glyph glyph-name="uni063F.fina" unicode="&#x63f;" horiz-adv-x="1421" 
d="M1518 91q0 -34 -12.5 -62.5t-67.5 -28.5h-155q-40 0 -86 -2.5t-86 -14.5q-49 -14 -79.5 -44t-30.5 -64t37.5 -42.5t92.5 -16.5q45 -7 101.5 -27.5t98 -58t41.5 -95.5q0 -76 -51.5 -141t-136.5 -117t-188 -88.5t-207.5 -56t-193.5 -19.5q-221 0 -345.5 114t-124.5 310
q0 80 21.5 159.5t50 145.5t53 106t30.5 40q23 0 23 -17q0 -6 -25 -55.5t-49.5 -124t-24.5 -155.5q0 -107 45 -171t118.5 -96t159.5 -42.5t168 -10.5q37 0 110 14t158.5 37t163.5 50.5t128.5 54.5t50.5 48q0 59 -187 68q-55 3 -112.5 10t-97 30.5t-39.5 75.5q0 36 18 74.5
t37 67.5q115 181 280 224q32 8 60.5 9.5t61.5 1.5h111q55 0 67.5 -28t12.5 -62zM745 663q0 -6 -12.5 -28.5t-29.5 -49.5t-32.5 -46.5t-21.5 -19.5q-3 0 -23 13.5t-45 32t-43.5 34.5t-18.5 21q0 6 13.5 28t31.5 48t33 45t18 19q6 0 27 -13.5t44.5 -32t41 -33.5t17.5 -18z
M896 406q0 -5 -12.5 -27.5t-30 -49.5t-32.5 -46.5t-21 -19.5q-3 0 -21.5 13t-42 30.5t-41 31.5t-19.5 15q-6 5 -11 5t-10 -5q-2 -2 -21 -30t-39.5 -55.5t-26.5 -27.5q-4 0 -24.5 13t-45 31t-42.5 33.5t-18 20.5q0 6 13.5 28t31 48.5t32.5 46t18 19.5q9 0 37 -21t54 -42.5
t28 -24.5q9 -9 13 -9q6 0 13 11q2 3 21.5 30.5t40 54.5t24.5 27q5 0 25.5 -14t45.5 -32.5t43 -34.5t18 -19z" />
    <glyph glyph-name="uni0641.init" unicode="&#x641;" horiz-adv-x="624" arabic-form="initial" 
d="M541 397q0 -51 -17.5 -114.5t-56.5 -112.5q-27 -33 -90 -73t-150.5 -68.5t-190.5 -28.5h-53q-55 0 -67.5 28.5t-12.5 62.5t12.5 62t67.5 28h53q122 0 224 31t163 71.5t61 70.5q0 22 -18 53t-38 53q-15 -31 -38 -66.5t-59 -60t-93 -24.5q-89 0 -115.5 53t-26.5 122
q0 23 14 81t39.5 123t61 112t78.5 47q31 0 73.5 -38.5t83.5 -103.5t68 -145t27 -163zM329 567q0 6 -18 21t-40.5 28t-35.5 13q-16 0 -30.5 -17t-14.5 -33q0 -18 18.5 -42t43.5 -24q21 0 49 21.5t28 32.5zM375 1134q0 -5 -12.5 -27.5t-30 -49t-33.5 -46t-22 -19.5
q-3 0 -23.5 13t-45.5 30.5t-43.5 33t-18.5 20.5q0 6 13 28t31 48.5t33.5 46t19.5 19.5q6 0 27 -13.5t45 -31.5t42 -33.5t18 -18.5z" />
    <glyph glyph-name="uni0641.medi" unicode="&#x641;" horiz-adv-x="858" arabic-form="medial" 
d="M956 91q0 -34 -13 -62.5t-67 -28.5h-54q-82 0 -146.5 13.5t-126.5 39t-139 60.5q-83 -35 -141 -60.5t-111 -39t-122 -13.5h-53q-55 0 -67.5 28.5t-12.5 62.5t12.5 62t67.5 28h53q53 0 114.5 11.5t110.5 33.5q-4 16 -6.5 39t-2.5 42q0 30 18.5 81.5t50.5 110t73 110.5
q52 66 105 105.5t85 39.5q36 0 65 -28.5t49 -70.5t31 -85.5t11 -73.5q0 -68 -30 -141t-89 -129q102 -45 201 -45h54q54 0 67 -28t13 -62zM657 410q0 50 -41 93.5t-100 43.5q-24 0 -64 -20.5t-72 -48t-32 -50.5q0 -40 39.5 -73t79.5 -64q77 29 133.5 56.5t56.5 62.5z
M664 1097q0 -5 -12.5 -27.5t-30 -49t-33.5 -46t-22 -19.5q-3 0 -23.5 13t-45.5 30.5t-43.5 33t-18.5 20.5q0 6 13 28t31 48.5t33.5 46t19.5 19.5q6 0 27 -13.5t45 -31.5t42 -33.5t18 -18.5z" />
    <glyph glyph-name="uni0641.fina" unicode="&#x641;" horiz-adv-x="2114" arabic-form="final" 
d="M2211 91q0 -34 -12.5 -62.5t-66.5 -28.5h-56q-100 0 -180.5 18.5t-129.5 37t-55 18.5q-154 -69 -324 -133t-346 -104.5t-349 -40.5q-91 0 -189.5 16.5t-182.5 58t-136.5 115.5t-52.5 189q0 20 13.5 67.5t35.5 100t47 90t49 37.5l13 -16q-21 -37 -46 -97.5t-25 -101.5
q0 -65 38.5 -111.5t100.5 -77t133.5 -48.5t139 -25.5t115.5 -7.5q128 0 261 26.5t253 61.5q68 20 134 44.5t121 49.5l4 8q-22 20 -35 51t-13 60q0 30 17 85t45.5 118.5t64 121t72.5 94.5t71 37q33 0 66 -32.5t60.5 -80t44 -94.5t16.5 -75q0 -26 -10.5 -75t-26.5 -97.5
t-31 -74.5q3 -16 41 -22.5t87.5 -8t88.5 -1.5h56q54 0 66.5 -28t12.5 -62zM1842 394q0 21 -18.5 58.5t-44 67.5t-48.5 30q-17 0 -44 -19t-54.5 -47t-46.5 -55t-19 -43q0 -28 23.5 -50t53 -38.5t48.5 -30.5q9 6 33 24t51 39.5t46.5 39.5t19.5 24zM1828 1025q0 -5 -12.5 -27.5
t-30 -49t-33.5 -46t-22 -19.5q-3 0 -23.5 13t-45.5 30.5t-43.5 33t-18.5 20.5q0 6 13 28t31 48.5t33.5 46t19.5 19.5q6 0 27 -13.5t45 -31.5t42 -33.5t18 -18.5z" />
    <glyph glyph-name="uni0642.init" unicode="&#x642;" horiz-adv-x="624" arabic-form="initial" 
d="M541 397q0 -51 -17.5 -114.5t-56.5 -112.5q-27 -33 -90 -73t-150.5 -68.5t-190.5 -28.5h-53q-55 0 -67.5 28.5t-12.5 62.5t12.5 62t67.5 28h53q122 0 224 31t163 71.5t61 70.5q0 22 -18 53t-38 53q-15 -31 -38 -66.5t-59 -60t-93 -24.5q-89 0 -115.5 53t-26.5 122
q0 23 14 81t39.5 123t61 112t78.5 47q31 0 73.5 -38.5t83.5 -103.5t68 -145t27 -163zM329 567q0 6 -18 21t-40.5 28t-35.5 13q-16 0 -30.5 -17t-14.5 -33q0 -18 18.5 -42t43.5 -24q21 0 49 21.5t28 32.5zM490 1158q0 -5 -12.5 -27.5t-30 -49.5t-32.5 -46.5t-21 -19.5
q-3 0 -21.5 13t-42 30.5t-41 31.5t-19.5 15q-6 5 -11 5t-10 -5q-2 -2 -21 -30t-39.5 -55.5t-26.5 -27.5q-4 0 -24.5 13t-45 31t-42.5 33.5t-18 20.5q0 6 13.5 28t31 48.5t32.5 46t18 19.5q9 0 37 -21t54 -42.5t28 -24.5q9 -9 13 -9q6 0 13 11q2 3 21.5 30.5t40 54.5t24.5 27
q5 0 25.5 -14t45.5 -32.5t43 -34.5t18 -19z" />
    <glyph glyph-name="uni0642.medi" unicode="&#x642;" horiz-adv-x="858" arabic-form="medial" 
d="M956 91q0 -34 -13 -62.5t-67 -28.5h-54q-82 0 -146.5 13.5t-126.5 39t-139 60.5q-83 -35 -141 -60.5t-111 -39t-122 -13.5h-53q-55 0 -67.5 28.5t-12.5 62.5t12.5 62t67.5 28h53q53 0 114.5 11.5t110.5 33.5q-4 16 -6.5 39t-2.5 42q0 30 18.5 81.5t50.5 110t73 110.5
q52 66 105 105.5t85 39.5q36 0 65 -28.5t49 -70.5t31 -85.5t11 -73.5q0 -68 -30 -141t-89 -129q102 -45 201 -45h54q54 0 67 -28t13 -62zM657 410q0 50 -41 93.5t-100 43.5q-24 0 -64 -20.5t-72 -48t-32 -50.5q0 -40 39.5 -73t79.5 -64q77 29 133.5 56.5t56.5 62.5z
M779 1122q0 -5 -12.5 -27.5t-30 -49.5t-32.5 -46.5t-21 -19.5q-3 0 -21.5 13t-42 30.5t-41 31.5t-19.5 15q-6 5 -11 5t-10 -5q-2 -2 -21 -30t-39.5 -55.5t-26.5 -27.5q-4 0 -24.5 13t-45 31t-42.5 33.5t-18 20.5q0 6 13.5 28t31 48.5t32.5 46t18 19.5q9 0 37 -21t54 -42.5
t28 -24.5q9 -9 13 -9q6 0 13 11q2 3 21.5 30.5t40 54.5t24.5 27q5 0 25.5 -14t45.5 -32.5t43 -34.5t18 -19z" />
    <glyph glyph-name="uni0642.fina" unicode="&#x642;" horiz-adv-x="1317" arabic-form="final" 
d="M1415 91q0 -34 -12.5 -62.5t-67.5 -28.5h-129q-6 -51 -26.5 -115t-49.5 -111q-59 -92 -157.5 -172t-227.5 -129t-281 -49q-84 0 -164 41.5t-132.5 120.5t-52.5 191q0 95 24.5 174.5t57.5 138t59.5 91t30.5 32.5q9 0 17.5 -7t8.5 -16q0 -4 -18.5 -32t-42.5 -72
t-42.5 -97.5t-18.5 -110.5q0 -92 55 -149t140 -83t174 -26q86 0 182 23t183 65.5t145 98.5q45 45 50 101t7 92q-22 0 -45 -1.5t-55 -1.5q-48 0 -95.5 10t-79 38t-31.5 80q0 33 18.5 87t50 109t70 92.5t78.5 37.5q45 0 81.5 -46t61.5 -108.5t33 -113.5q15 -1 36 -1.5t85 -0.5
q55 0 67.5 -28t12.5 -62zM1079 175q-11 41 -48 74.5t-61 33.5q-22 0 -38 -18.5t-16 -38.5q0 -21 29.5 -32t68 -15t65.5 -4zM1238 745q0 -5 -12.5 -27.5t-30 -49.5t-32.5 -46.5t-21 -19.5q-3 0 -21.5 13t-42 30.5t-41 31.5t-19.5 15q-6 5 -11 5t-10 -5q-2 -2 -21 -30
t-39.5 -55.5t-26.5 -27.5q-4 0 -24.5 13t-45 31t-42.5 33.5t-18 20.5q0 6 13.5 28t31 48.5t32.5 46t18 19.5q9 0 37 -21t54 -42.5t28 -24.5q9 -9 13 -9q6 0 13 11q2 3 21.5 30.5t40 54.5t24.5 27q5 0 25.5 -14t45.5 -32.5t43 -34.5t18 -19z" />
    <glyph glyph-name="uni0643.init" unicode="&#x643;" horiz-adv-x="1202" arabic-form="initial" 
d="M1212 1521q-31 -39 -44 -76t-23 -63t-31 -33q-60 -19 -155 -51.5t-206 -72t-220.5 -83t-200.5 -85t-146 -77t-55 -59.5q0 -18 41 -40t104.5 -54t130.5 -82q63 -45 118.5 -109t90.5 -143t35 -170q0 -140 -78.5 -209.5t-217 -91.5t-319.5 -22h-53q-55 0 -67.5 28.5
t-12.5 62.5t12.5 62t67.5 28h53q120 0 208.5 4.5t149.5 16.5q113 22 157 56t44 62q0 36 -38 84.5t-87.5 94.5t-83.5 74q-40 33 -92.5 60t-99 49.5t-69.5 39.5q-29 23 -41.5 53t-12.5 92t7.5 104.5t23.5 56.5q62 54 159 111t205 109.5t207.5 94.5t167.5 65q29 10 85.5 30
t117.5 42t105.5 37.5t49.5 15.5q2 0 5 -5t8 -7z" />
    <glyph glyph-name="uni0643.medi" unicode="&#x643;" horiz-adv-x="1369" arabic-form="medial" 
d="M1469 91q0 -34 -12.5 -62.5t-67.5 -28.5h-55q-76 0 -134.5 37t-124 102.5t-159 152.5t-239.5 187q7 -25 8 -59.5t1 -54.5q0 -130 -59 -210.5t-201 -117.5t-390 -37h-53q-55 0 -67.5 28.5t-12.5 62.5t12.5 62t67.5 28h53q101 0 207 5.5t195.5 22.5t144.5 53.5t55 97.5
q0 62 -35.5 112.5t-90.5 91t-115 71.5q-55 29 -101.5 46.5t-93.5 55.5q-20 17 -46.5 56.5t-45.5 85.5t-19 84q0 37 26 100t93 116q74 58 176.5 119t217 119t225 108.5t202 89t149.5 60.5t64 22q12 0 12 -9q0 -4 -8 -31t-19 -60t-21 -58t-15 -27q-143 -46 -291 -106
t-283.5 -125t-242.5 -126.5t-169 -110.5t-62 -75q0 -23 46.5 -48.5t111.5 -56.5q122 -56 242.5 -127t211.5 -140q146 -107 247.5 -202t179 -154.5t150.5 -59.5h55q55 0 67.5 -28t12.5 -62z" />
    <glyph glyph-name="uni0643.fina" unicode="&#x643;" horiz-adv-x="1933" arabic-form="final" 
d="M2031 91q0 -34 -12.5 -62.5t-66.5 -28.5h-57q-90 0 -139.5 46.5t-73 117.5t-36.5 145q-14 -35 -36.5 -81t-46.5 -88.5t-45 -68.5q-38 -47 -122.5 -93.5t-204 -85t-263 -62t-299.5 -23.5q-251 0 -388 77.5t-137 273.5q0 17 9 66t22.5 105t27.5 97t24 41q17 0 17 -19
q0 -7 -6.5 -34.5t-13 -60.5t-6.5 -59q0 -142 134.5 -210.5t361.5 -68.5q80 0 196 11.5t240 35t230.5 58.5t167.5 82q56 44 80 107.5t24 129.5q0 89 -6.5 203t-16 233t-19.5 225t-16.5 182t-6.5 101q0 19 6 54.5t33 35.5q9 0 27 -27t21 -71q5 -59 12.5 -159t16.5 -217
t18 -228t17 -194.5t12 -113.5q14 -95 29.5 -157.5t50.5 -93.5t105 -31h57q54 0 66.5 -28t12.5 -62zM1073 771q0 -54 -33 -112.5t-87 -99t-118 -40.5q-26 0 -68.5 11t-83.5 28.5t-65 38.5q37 3 89 10t103 16.5t85 23t34 30.5q0 21 -28.5 25.5t-66 8.5t-66 21t-28.5 64
q0 55 30.5 125t85.5 135t127 105q5 -9 11 -39t11 -59.5t6 -37.5q-22 -8 -56.5 -23t-61 -34.5t-26.5 -40.5q0 -27 21 -36.5t51.5 -13t61 -11t51.5 -28.5t21 -67z" />
    <glyph glyph-name="uni0644.init" unicode="&#x644;" horiz-adv-x="487" arabic-form="initial" 
d="M361 538q0 -44 -8 -107.5t-15 -105.5q-7 -41 -20 -96t-43 -107.5t-87 -87t-152 -34.5h-53q-55 0 -67.5 28.5t-12.5 62.5t12.5 62t67.5 28h53q53 0 113 22t102 65.5t42 105.5q0 33 -14 122.5t-35 209t-41.5 245.5t-34.5 235t-14 174q0 29 13 71t34 74.5t43 32.5
q2 0 19 -26t38 -61t37 -63t16 -31q0 -4 -22.5 -23t-45 -52t-22.5 -80q0 -58 14.5 -145t34 -183.5t34 -185t14.5 -150.5z" />
    <glyph glyph-name="uni0644.medi" unicode="&#x644;" horiz-adv-x="584" arabic-form="medial" 
d="M683 91q0 -34 -12.5 -62.5t-67.5 -28.5h-56q-106 0 -162 81t-92 208q-33 -127 -105.5 -208t-151.5 -81h-53q-55 0 -67.5 28.5t-12.5 62.5t12.5 62t67.5 28h53q31 0 63 6.5t46 16.5q47 33 83.5 86t36.5 129q0 187 -15.5 352.5t-31 307.5t-15.5 258q0 31 11 66t27.5 60
t32.5 25q10 0 16 -20t6 -88t5.5 -164.5t14.5 -205t19 -214.5t19.5 -195t15.5 -144q14 -124 62 -200t115 -76h56q55 0 67.5 -28t12.5 -62z" />
    <glyph glyph-name="uni0644.fina" unicode="&#x644;" horiz-adv-x="1233" arabic-form="final" 
d="M1330 91q0 -34 -13 -62.5t-67 -28.5q-105 0 -156.5 29t-95.5 119q0 -80 3.5 -159.5t3.5 -159.5v-41t-2 -40q-1 -31 -8.5 -84.5t-33.5 -111.5q-138 -318 -569 -318q-96 0 -178 33.5t-131.5 114t-49.5 221.5q0 66 21 136.5t49.5 131t53 98t30.5 37.5q17 0 17 -21
q0 -9 -23.5 -56.5t-47 -112t-23.5 -125.5q0 -92 48 -149t125.5 -83t164.5 -26q55 0 124 14t137.5 39.5t124 59.5t84.5 74q13 17 16.5 67t3.5 90q0 27 -3 98.5t-8 170.5t-11 211t-13 219q-13 225 -27.5 406t-14.5 368q0 27 12 71t28.5 78.5t27.5 34.5q2 0 5.5 -61t8.5 -163
t13.5 -226.5t20.5 -253t29.5 -242.5t40.5 -194q19 -61 71 -87t132 -26q54 0 67 -28t13 -62z" />
    <glyph glyph-name="uni0645.init" unicode="&#x645;" horiz-adv-x="838" arabic-form="initial" 
d="M722 326q0 -25 -20 -69.5t-48 -81t-54 -36.5q-31 0 -82 20t-105.5 49t-97.5 56q-51 -62 -99 -127.5t-97 -100.5q-23 -16 -43 -26t-40 -10h-53q-55 0 -67.5 28.5t-12.5 62.5t12.5 62t67.5 28h53q83 0 139.5 47.5t99 119t82.5 142.5q40 68 81 122t97 54q33 0 57 -13.5
t46 -49.5q24 -40 43 -93.5t30 -103.5t11 -80zM570 392q0 32 -30 71t-67 39q-29 0 -48.5 -20t-19.5 -46q0 -4 3 -10t14 -13q19 -10 48.5 -20t54.5 -16t30 -6q15 0 15 21z" />
    <glyph glyph-name="uni0645.medi" unicode="&#x645;" horiz-adv-x="1117" arabic-form="medial" 
d="M1214 91q0 -34 -13 -62.5t-67 -28.5h-54q-95 0 -163.5 37t-145.5 82q-4 -62 -20 -105t-83 -43q-73 0 -162.5 64t-187.5 146q-62 -68 -127.5 -124.5t-154.5 -56.5h-53q-55 0 -67.5 28.5t-12.5 62.5t12.5 62t67.5 28h53q86 0 168.5 40.5t143.5 104.5q2 3 22.5 30t50 60
t60.5 58t54 25t38 -5t35 -24t59 -61q50 -53 114.5 -106t140.5 -87.5t158 -34.5h54q54 0 67 -28t13 -62zM624 207q0 27 -12 72.5t-30.5 81.5t-40.5 36q-16 0 -44.5 -25t-51.5 -51.5t-23 -29.5q0 -9 23 -30t55 -44t59.5 -39.5t35.5 -16.5q20 0 24.5 16.5t4.5 29.5z" />
    <glyph glyph-name="uni0645.fina" unicode="&#x645;" horiz-adv-x="1099" arabic-form="final" 
d="M1196 91q0 -34 -12.5 -62.5t-66.5 -28.5h-54q-127 0 -210.5 16t-175.5 52q2 -24 4 -57t2 -65q0 -12 -5 -41.5t-16.5 -62.5t-29 -56.5t-43.5 -23.5q-37 0 -71 36.5t-61 92t-43 115.5t-17 107q-116 -30 -184 -71.5t-68 -124.5q0 -36 13 -119t32 -188.5t38 -210.5t32 -186
t13 -113q0 -28 -10 -61.5t-23 -57.5t-22 -24q-14 0 -18.5 65.5t-18.5 161.5q-19 131 -41 261.5t-37 237.5t-15 165q0 146 51.5 264t189.5 194q74 41 103.5 77t43.5 36q12 0 43.5 -36t96 -83t173 -83t274.5 -36h54q54 0 66.5 -28t12.5 -62z" />
    <glyph glyph-name="uni0646.init" unicode="&#x646;" horiz-adv-x="522" arabic-form="initial" 
d="M360 383q0 -147 -43 -230.5t-116.5 -118t-164.5 -34.5h-53q-55 0 -67.5 28.5t-12.5 62.5t12.5 62t67.5 28h53q62 0 110.5 10.5t82.5 26.5q31 15 46.5 33.5t15.5 28.5q0 9 -14.5 37.5t-33 63.5t-33 63t-14.5 35q0 10 13.5 36t31.5 56.5t33.5 55t19.5 30.5
q33 -72 49.5 -138t16.5 -136zM358 945q0 -5 -12.5 -27.5t-30 -49t-33.5 -46t-22 -19.5q-3 0 -23.5 13t-45.5 30.5t-43.5 33t-18.5 20.5q0 6 13 28t31 48.5t33.5 46t19.5 19.5q6 0 27 -13.5t45 -31.5t42 -33.5t18 -18.5z" />
    <glyph glyph-name="uni0646.medi" unicode="&#x646;" horiz-adv-x="532" arabic-form="medial" 
d="M632 91q0 -34 -12.5 -62.5t-67.5 -28.5h-56q-40 0 -68 13t-51 38q-15 17 -34.5 47t-30.5 56q-51 -58 -110 -106t-166 -48h-53q-55 0 -67.5 28.5t-12.5 62.5t12.5 62t67.5 28h53q98 0 158 28.5t93 66.5t50 66.5t28 28.5q9 0 12.5 -24.5t14.5 -55.5q11 -35 36 -72.5
t68 -37.5h56q55 0 67.5 -28t12.5 -62zM381 658q0 -5 -12.5 -27.5t-30 -49t-33.5 -46t-22 -19.5q-3 0 -23.5 13t-45.5 30.5t-43.5 33t-18.5 20.5q0 6 13 28t31 48.5t33.5 46t19.5 19.5q6 0 27 -13.5t45 -31.5t42 -33.5t18 -18.5z" />
    <glyph glyph-name="uni0646.fina" unicode="&#x646;" horiz-adv-x="1334" arabic-form="final" 
d="M1431 91q0 -34 -12.5 -62.5t-67.5 -28.5h-53q-24 0 -50 2.5t-42 6.5q-4 -68 -18 -161t-40.5 -183.5t-70.5 -154.5q-17 -25 -58 -64t-114 -77.5t-185.5 -64.5t-274.5 -26q-103 0 -189.5 43t-138.5 116.5t-52 162.5q0 84 23.5 164t55.5 144t58 102t30 38q23 0 23 -25
q0 -10 -25.5 -53t-51.5 -106t-26 -134q0 -92 61.5 -152t157.5 -89.5t199 -29.5q161 0 297 47t196 123q34 44 44 108.5t10 146.5q0 68 -16 115.5t-32 80.5q-9 17 -22 33t-13 20q0 7 9.5 33t22.5 57t24.5 54t14.5 23q14 0 26 -24q12 -26 56 -60.5t111 -34.5h53q55 0 67.5 -28
t12.5 -62zM774 396q0 -5 -12.5 -27.5t-30 -49t-33.5 -46t-22 -19.5q-3 0 -23.5 13t-45.5 30.5t-43.5 33t-18.5 20.5q0 6 13 28t31 48.5t33.5 46t19.5 19.5q6 0 27 -13.5t45 -31.5t42 -33.5t18 -18.5z" />
    <glyph glyph-name="uni0647.init" unicode="&#x647;" horiz-adv-x="1051" arabic-form="initial" 
d="M-17 0q-55 0 -67.5 28.5t-12.5 62.5t12.5 62t67.5 28h53q67 0 125 20.5t103 45.5q-22 11 -36.5 39t-14.5 52q0 72 48.5 155.5t109.5 169.5q-15 4 -29 4.5t-27 0.5q-9 0 -15 8.5t-6 15.5q0 31 18 73.5t47 75t63 32.5q44 0 109 -37t134.5 -99t130 -136.5t98.5 -150.5
t38 -141q0 -94 -33.5 -146.5t-108.5 -52.5q-56 0 -127 16.5t-140.5 38t-122.5 37.5q-55 -40 -110 -87t-116.5 -81t-137.5 -34h-53zM439 338q19 2 43.5 24.5t43 50t18.5 44.5q0 18 -15 47t-36.5 52t-41.5 23q-28 0 -60.5 -25t-55.5 -59t-23 -61q0 -31 22.5 -45.5t52.5 -24
t52 -26.5zM850 258q15 0 23 12q-22 42 -64 96.5t-91 102t-94 66.5q-20 -56 -33.5 -113.5t-49.5 -106.5q16 -7 58 -16.5t92.5 -19t94.5 -15.5t64 -6z" />
    <glyph glyph-name="uni0647.medi" unicode="&#x647;" horiz-adv-x="1006" arabic-form="medial" 
d="M1105 91q0 -34 -12.5 -62.5t-67.5 -28.5h-53q-70 0 -148.5 -2t-152.5 -13q29 -33 57.5 -71.5t28.5 -117.5q0 -67 -23 -141.5t-71.5 -127t-127.5 -52.5q-37 0 -74 27.5t-67 68.5t-46 81q-25 63 -39.5 132.5t-20.5 125.5t-8 75q-58 9 -120 12t-124 3h-53q-55 0 -67.5 28.5
t-12.5 62.5t12.5 62t67.5 28h53q73 0 139.5 8.5t113.5 30.5q64 143 133 261t133 188.5t113 70.5q23 0 37.5 -36t21.5 -81.5t7 -75.5q0 -259 -238 -411q6 0 52 7t112 15.5t133 15.5t116 7h116q55 0 67.5 -28t12.5 -62zM657 442q0 28 -20 55.5t-48 27.5q-46 0 -91 -48.5
t-80.5 -116.5t-54.5 -128q155 60 224.5 110.5t69.5 99.5zM697 -258q0 36 -35 82.5t-110 88.5t-195 61q0 -39 15 -90.5t43.5 -100t68.5 -80.5t89 -32q18 0 47.5 7t53 23t23.5 41z" />
    <glyph glyph-name="uni0647.fina" unicode="&#x647;" horiz-adv-x="802" arabic-form="final" 
d="M899 91q0 -34 -12.5 -62.5t-67.5 -28.5h-53q-74 0 -118 21.5t-73.5 85.5t-61.5 193q-44 -40 -92.5 -85t-123.5 -45q-18 0 -53 6.5t-72 18.5t-63 30t-26 42t24 74t59.5 104.5t69.5 91.5q48 52 103.5 89.5t108.5 59.5q-1 13 -2 27t-1 27q0 10 0.5 19.5t2.5 19.5
q13 53 30 87t32 34q2 0 11 -60t23 -145q15 -86 31 -179t30 -161t19 -82q11 -30 22 -50.5t37.5 -31t82.5 -10.5h53q55 0 67.5 -28t12.5 -62zM499 394q-7 41 -15.5 93.5t-20.5 96.5q-72 -20 -121.5 -61t-75 -76.5t-25.5 -41.5q0 -5 23.5 -11t55.5 -11t60.5 -8.5t38.5 -3.5
q15 0 40 6.5t40 16.5z" />
    <glyph glyph-name="uni0648.fina" unicode="&#x648;" horiz-adv-x="831" arabic-form="final" 
d="M929 91q0 -34 -12.5 -62.5t-66.5 -28.5l-137 -3q-10 -65 -43 -155.5t-82.5 -183t-111.5 -163.5q-76 -85 -151 -121.5t-152 -36.5q-43 0 -98.5 16t-107.5 38t-86.5 41t-34.5 24q0 22 23 22q20 0 70.5 -14t108.5 -14q92 0 189.5 45.5t183.5 122.5t145.5 174.5t77.5 201.5
q-138 14 -225 42t-87 112q0 29 21 87t54.5 119.5t71 104.5t71.5 43q38 0 69.5 -33.5t54.5 -84.5t35.5 -106t12.5 -97h128q54 0 66.5 -28t12.5 -62zM638 184q0 27 -22 59t-53 54.5t-58 22.5q-28 0 -42.5 -22t-14.5 -51q0 -20 47 -40.5t143 -22.5z" />
    <glyph glyph-name="uni0649.init" unicode="&#x649;" horiz-adv-x="522" 
d="M360 383q0 -147 -43 -230.5t-116.5 -118t-164.5 -34.5h-53q-55 0 -67.5 28.5t-12.5 62.5t12.5 62t67.5 28h53q62 0 110.5 10.5t82.5 26.5q31 15 46.5 33.5t15.5 28.5q0 9 -14.5 37.5t-33 63.5t-33 63t-14.5 35q0 10 13.5 36t31.5 56.5t33.5 55t19.5 30.5
q33 -72 49.5 -138t16.5 -136z" />
    <glyph glyph-name="uni0649.medi" unicode="&#x649;" horiz-adv-x="532" 
d="M632 91q0 -34 -12.5 -62.5t-67.5 -28.5h-56q-40 0 -68 13t-51 38q-15 17 -34.5 47t-30.5 56q-51 -58 -110 -106t-166 -48h-53q-55 0 -67.5 28.5t-12.5 62.5t12.5 62t67.5 28h53q98 0 158 28.5t93 66.5t50 66.5t28 28.5q9 0 12.5 -24.5t14.5 -55.5q11 -35 36 -72.5
t68 -37.5h56q55 0 67.5 -28t12.5 -62z" />
    <glyph glyph-name="uni0649.fina" unicode="&#x649;" horiz-adv-x="1421" arabic-form="final" 
d="M1518 91q0 -34 -12.5 -62.5t-67.5 -28.5h-155q-40 0 -86 -2.5t-86 -14.5q-49 -14 -79.5 -44t-30.5 -64t37.5 -42.5t92.5 -16.5q45 -7 101.5 -27.5t98 -58t41.5 -95.5q0 -76 -51.5 -141t-136.5 -117t-188 -88.5t-207.5 -56t-193.5 -19.5q-221 0 -345.5 114t-124.5 310
q0 80 21.5 159.5t50 145.5t53 106t30.5 40q23 0 23 -17q0 -6 -25 -55.5t-49.5 -124t-24.5 -155.5q0 -107 45 -171t118.5 -96t159.5 -42.5t168 -10.5q37 0 110 14t158.5 37t163.5 50.5t128.5 54.5t50.5 48q0 59 -187 68q-55 3 -112.5 10t-97 30.5t-39.5 75.5q0 36 18 74.5
t37 67.5q115 181 280 224q32 8 60.5 9.5t61.5 1.5h111q55 0 67.5 -28t12.5 -62z" />
    <glyph glyph-name="uni064A.init" unicode="&#x64a;" horiz-adv-x="522" arabic-form="initial" 
d="M360 383q0 -147 -43 -230.5t-116.5 -118t-164.5 -34.5h-53q-55 0 -67.5 28.5t-12.5 62.5t12.5 62t67.5 28h53q62 0 110.5 10.5t82.5 26.5q31 15 46.5 33.5t15.5 28.5q0 9 -14.5 37.5t-33 63.5t-33 63t-14.5 35q0 10 13.5 36t31.5 56.5t33.5 55t19.5 30.5
q33 -72 49.5 -138t16.5 -136zM400 -245q0 -5 -12.5 -27.5t-30 -49.5t-32.5 -46.5t-21 -19.5q-3 0 -21.5 13t-42 30.5t-41 31.5t-19.5 15q-6 5 -11 5t-10 -5q-2 -2 -21 -30t-39.5 -55.5t-26.5 -27.5q-4 0 -24.5 13t-45 31t-42.5 33.5t-18 20.5q0 6 13.5 28t31 48.5t32.5 46
t18 19.5q9 0 37 -21t54 -42.5t28 -24.5q9 -9 13 -9q6 0 13 11q2 3 21.5 30.5t40 54.5t24.5 27q5 0 25.5 -14t45.5 -32.5t43 -34.5t18 -19z" />
    <glyph glyph-name="uni064A.medi" unicode="&#x64a;" horiz-adv-x="532" arabic-form="medial" 
d="M632 91q0 -34 -12.5 -62.5t-67.5 -28.5h-56q-40 0 -68 13t-51 38q-15 17 -34.5 47t-30.5 56q-51 -58 -110 -106t-166 -48h-53q-55 0 -67.5 28.5t-12.5 62.5t12.5 62t67.5 28h53q98 0 158 28.5t93 66.5t50 66.5t28 28.5q9 0 12.5 -24.5t14.5 -55.5q11 -35 36 -72.5
t68 -37.5h56q55 0 67.5 -28t12.5 -62zM496 -245q0 -5 -12.5 -27.5t-30 -49.5t-32.5 -46.5t-21 -19.5q-3 0 -21.5 13t-42 30.5t-41 31.5t-19.5 15q-6 5 -11 5t-10 -5q-2 -2 -21 -30t-39.5 -55.5t-26.5 -27.5q-4 0 -24.5 13t-45 31t-42.5 33.5t-18 20.5q0 6 13.5 28t31 48.5
t32.5 46t18 19.5q9 0 37 -21t54 -42.5t28 -24.5q9 -9 13 -9q6 0 13 11q2 3 21.5 30.5t40 54.5t24.5 27q5 0 25.5 -14t45.5 -32.5t43 -34.5t18 -19z" />
    <glyph glyph-name="uni064A.fina" unicode="&#x64a;" horiz-adv-x="1421" arabic-form="final" 
d="M1518 91q0 -34 -12.5 -62.5t-67.5 -28.5h-155q-40 0 -86 -2.5t-86 -14.5q-49 -14 -79.5 -44t-30.5 -64t37.5 -42.5t92.5 -16.5q45 -7 101.5 -27.5t98 -58t41.5 -95.5q0 -76 -51.5 -141t-136.5 -117t-188 -88.5t-207.5 -56t-193.5 -19.5q-221 0 -345.5 114t-124.5 310
q0 80 21.5 159.5t50 145.5t53 106t30.5 40q23 0 23 -17q0 -6 -25 -55.5t-49.5 -124t-24.5 -155.5q0 -107 45 -171t118.5 -96t159.5 -42.5t168 -10.5q37 0 110 14t158.5 37t163.5 50.5t128.5 54.5t50.5 48q0 59 -187 68q-55 3 -112.5 10t-97 30.5t-39.5 75.5q0 36 18 74.5
t37 67.5q115 181 280 224q32 8 60.5 9.5t61.5 1.5h111q55 0 67.5 -28t12.5 -62zM876 -1005q0 -5 -12.5 -27.5t-30 -49.5t-32.5 -46.5t-21 -19.5q-3 0 -21.5 13t-42 30.5t-41 31.5t-19.5 15q-6 5 -11 5t-10 -5q-2 -2 -21 -30t-39.5 -55.5t-26.5 -27.5q-4 0 -24.5 13t-45 31
t-42.5 33.5t-18 20.5q0 6 13.5 28t31 48.5t32.5 46t18 19.5q9 0 37 -21t54 -42.5t28 -24.5q9 -9 13 -9q6 0 13 11q2 3 21.5 30.5t40 54.5t24.5 27q5 0 25.5 -14t45.5 -32.5t43 -34.5t18 -19z" />
    <glyph glyph-name="uni066E.init" unicode="&#x66e;" horiz-adv-x="522" 
d="M360 383q0 -147 -43 -230.5t-116.5 -118t-164.5 -34.5h-53q-55 0 -67.5 28.5t-12.5 62.5t12.5 62t67.5 28h53q62 0 110.5 10.5t82.5 26.5q31 15 46.5 33.5t15.5 28.5q0 9 -14.5 37.5t-33 63.5t-33 63t-14.5 35q0 10 13.5 36t31.5 56.5t33.5 55t19.5 30.5
q33 -72 49.5 -138t16.5 -136z" />
    <glyph glyph-name="uni066E.medi" unicode="&#x66e;" horiz-adv-x="532" 
d="M632 91q0 -34 -12.5 -62.5t-67.5 -28.5h-56q-40 0 -68 13t-51 38q-15 17 -34.5 47t-30.5 56q-51 -58 -110 -106t-166 -48h-53q-55 0 -67.5 28.5t-12.5 62.5t12.5 62t67.5 28h53q98 0 158 28.5t93 66.5t50 66.5t28 28.5q9 0 12.5 -24.5t14.5 -55.5q11 -35 36 -72.5
t68 -37.5h56q55 0 67.5 -28t12.5 -62z" />
    <glyph glyph-name="uni066E.fina" unicode="&#x66e;" horiz-adv-x="1998" 
d="M2097 91q0 -34 -10.5 -62.5t-59.5 -28.5h-58q-91 0 -148 21t-101 112q-64 -72 -210 -129t-349 -90t-439 -33q-169 0 -306.5 42t-218.5 129.5t-81 223.5q0 56 15 112.5t35.5 104t38.5 76t24 28.5q5 0 12.5 -4t7.5 -14q0 -7 -14 -35.5t-28 -67.5t-14 -79q0 -99 77 -170
t217.5 -109t328.5 -38q122 0 247.5 9.5t241.5 29t209 51t149 74.5q29 22 39.5 43.5t23.5 21.5q6 0 17 -36.5t42 -59.5q29 -22 81 -27t103 -5h58q49 0 59.5 -28t10.5 -62z" />
    <glyph glyph-name="uni066F.init" unicode="&#x66f;" horiz-adv-x="624" 
d="M541 397q0 -51 -17.5 -114.5t-56.5 -112.5q-27 -33 -90 -73t-150.5 -68.5t-190.5 -28.5h-53q-55 0 -67.5 28.5t-12.5 62.5t12.5 62t67.5 28h53q122 0 224 31t163 71.5t61 70.5q0 22 -18 53t-38 53q-15 -31 -38 -66.5t-59 -60t-93 -24.5q-89 0 -115.5 53t-26.5 122
q0 23 14 81t39.5 123t61 112t78.5 47q31 0 73.5 -38.5t83.5 -103.5t68 -145t27 -163zM329 567q0 6 -18 21t-40.5 28t-35.5 13q-16 0 -30.5 -17t-14.5 -33q0 -18 18.5 -42t43.5 -24q21 0 49 21.5t28 32.5z" />
    <glyph glyph-name="uni066F.medi" unicode="&#x66f;" horiz-adv-x="858" 
d="M956 91q0 -34 -13 -62.5t-67 -28.5h-54q-82 0 -146.5 13.5t-126.5 39t-139 60.5q-83 -35 -141 -60.5t-111 -39t-122 -13.5h-53q-55 0 -67.5 28.5t-12.5 62.5t12.5 62t67.5 28h53q53 0 114.5 11.5t110.5 33.5q-4 16 -6.5 39t-2.5 42q0 30 18.5 81.5t50.5 110t73 110.5
q52 66 105 105.5t85 39.5q36 0 65 -28.5t49 -70.5t31 -85.5t11 -73.5q0 -68 -30 -141t-89 -129q102 -45 201 -45h54q54 0 67 -28t13 -62zM657 410q0 50 -41 93.5t-100 43.5q-24 0 -64 -20.5t-72 -48t-32 -50.5q0 -40 39.5 -73t79.5 -64q77 29 133.5 56.5t56.5 62.5z" />
    <glyph glyph-name="uni066F.fina" unicode="&#x66f;" horiz-adv-x="1317" 
d="M1415 91q0 -34 -12.5 -62.5t-67.5 -28.5h-129q-6 -51 -26.5 -115t-49.5 -111q-59 -92 -157.5 -172t-227.5 -129t-281 -49q-84 0 -164 41.5t-132.5 120.5t-52.5 191q0 95 24.5 174.5t57.5 138t59.5 91t30.5 32.5q9 0 17.5 -7t8.5 -16q0 -4 -18.5 -32t-42.5 -72
t-42.5 -97.5t-18.5 -110.5q0 -92 55 -149t140 -83t174 -26q86 0 182 23t183 65.5t145 98.5q45 45 50 101t7 92q-22 0 -45 -1.5t-55 -1.5q-48 0 -95.5 10t-79 38t-31.5 80q0 33 18.5 87t50 109t70 92.5t78.5 37.5q45 0 81.5 -46t61.5 -108.5t33 -113.5q15 -1 36 -1.5t85 -0.5
q55 0 67.5 -28t12.5 -62zM1079 175q-11 41 -48 74.5t-61 33.5q-22 0 -38 -18.5t-16 -38.5q0 -21 29.5 -32t68 -15t65.5 -4z" />
    <glyph glyph-name="uni0671.fina" unicode="&#x671;" horiz-adv-x="525" arabic-form="final" 
d="M624 91q0 -34 -13 -62.5t-67 -28.5h-54q-63 0 -119.5 19t-94.5 72.5t-48 155.5q-7 77 -17.5 182t-22.5 220t-26 221q-17 135 -31.5 247t-14.5 163q0 8 12 33t28 53.5t30 49.5t18 21q2 0 8 -6t6 -23q7 -81 16 -190.5t19.5 -231.5t22 -241t23 -220.5t21.5 -171t18 -89.5
q23 -55 66.5 -69t85.5 -14h54q54 0 67 -28t13 -62zM451 1752q0 -17 -22.5 -51.5t-70.5 -62.5t-124 -28q-11 0 -54.5 1.5t-89.5 3t-66 1.5q-40 0 -49.5 -10.5t-16.5 -20.5q-5 -8 -8 -8q-6 0 -6 13q0 22 14.5 53t59.5 44q24 7 63 8t73 1q41 80 84.5 132t120.5 52q42 0 67 -29
t25 -99zM375 1749q0 39 -57 39q-25 0 -60.5 -32.5t-52.5 -59.5q33 0 72.5 3t68.5 14.5t29 35.5z" />
    <glyph glyph-name="uni0672.fina" unicode="&#x672;" horiz-adv-x="525" 
d="M624 91q0 -34 -13 -62.5t-67 -28.5h-54q-63 0 -119.5 19t-94.5 72.5t-48 155.5q-7 77 -17.5 182t-22.5 220t-26 221q-17 135 -31.5 247t-14.5 163q0 8 12 33t28 53.5t30 49.5t18 21q2 0 8 -6t6 -23q7 -81 16 -190.5t19.5 -231.5t22 -241t23 -220.5t21.5 -171t18 -89.5
q23 -55 66.5 -69t85.5 -14h54q54 0 67 -28t13 -62zM458 1806q0 -5 -6 -25t-18 -39t-30 -24q-19 -5 -72.5 -24.5t-111.5 -42.5q-70 -28 -116.5 -49.5t-81.5 -21.5q-33 0 -55 12t-42.5 24t-49.5 12q-43 0 -74.5 -16t-42.5 -16q-16 0 -16 18q0 6 25 27.5t63.5 41t77.5 19.5
q43 0 66 -9.5t38.5 -19t35.5 -9.5q32 0 61.5 22.5t57.5 34.5q-24 8 -53.5 31t-29.5 63q0 36 31.5 83t65.5 81q55 54 81 64t57 10q30 0 46 -25.5t16 -54.5q0 -11 -7 -32.5t-15.5 -39.5t-13.5 -18q-11 0 -44 17t-60 17q-26 0 -49 -18t-23 -33q0 -6 27.5 -24.5t64.5 -35.5
t67 -20q33 9 73 17.5t48 8.5q9 0 9 -6z" />
    <glyph glyph-name="uni0673.fina" unicode="&#x673;" horiz-adv-x="525" 
d="M624 91q0 -34 -13 -62.5t-67 -28.5h-54q-63 0 -119.5 19t-94.5 72.5t-48 155.5q-7 77 -17.5 182t-22.5 220t-26 221q-17 135 -31.5 247t-14.5 163q0 8 12 33t28 53.5t30 49.5t18 21q2 0 8 -6t6 -23q7 -81 16 -190.5t19.5 -231.5t22 -241t23 -220.5t21.5 -171t18 -89.5
q23 -55 66.5 -69t85.5 -14h54q54 0 67 -28t13 -62zM590 -392q0 -5 -6 -25t-18 -39t-30 -24q-19 -5 -72.5 -24.5t-111.5 -42.5q-70 -28 -116.5 -49.5t-81.5 -21.5q-33 0 -55 12t-42.5 24t-49.5 12q-43 0 -74.5 -16t-42.5 -16q-16 0 -16 18q0 6 25 27.5t63.5 41t77.5 19.5
q43 0 66 -9.5t38.5 -19t35.5 -9.5q32 0 61.5 22.5t57.5 34.5q-24 8 -53.5 31t-29.5 63q0 36 31.5 83t65.5 81q55 54 81 64t57 10q30 0 46 -25.5t16 -54.5q0 -11 -7 -32.5t-15.5 -39.5t-13.5 -18q-11 0 -44 17t-60 17q-26 0 -49 -18t-23 -33q0 -6 27.5 -24.5t64.5 -35.5
t67 -20q33 9 73 17.5t48 8.5q9 0 9 -6z" />
    <glyph glyph-name="uni0675.fina" unicode="&#x675;" horiz-adv-x="525" 
d="M624 91q0 -34 -13 -62.5t-67 -28.5h-54q-63 0 -119.5 19t-94.5 72.5t-48 155.5q-7 77 -17.5 182t-22.5 220t-26 221q-17 135 -31.5 247t-14.5 163q0 8 12 33t28 53.5t30 49.5t18 21q2 0 8 -6t6 -23q7 -81 16 -190.5t19.5 -231.5t22 -241t23 -220.5t21.5 -171t18 -89.5
q23 -55 66.5 -69t85.5 -14h54q54 0 67 -28t13 -62zM684 1166q0 -8 -14 -44t-43 -44q-17 -5 -69.5 -25.5t-111.5 -42.5q-70 -27 -105 -43.5t-46 -16.5t-11 12q0 11 14 39.5t21 37.5q8 10 34 24t37 18q-22 7 -51 31.5t-29 64.5q0 35 31 80t65 79q56 56 83 65t56 9
q32 0 47 -25.5t15 -54.5q0 -10 -7 -30.5t-16.5 -37.5t-15.5 -17q-10 0 -43.5 16t-59.5 16q-25 0 -47.5 -17t-22.5 -34q0 -6 27 -25t64 -36t65 -19q35 9 75.5 17.5t48.5 10.5q9 2 9 -8z" />
    <glyph glyph-name="uni0676.fina" unicode="&#x676;" horiz-adv-x="831" 
d="M929 91q0 -34 -12.5 -62.5t-66.5 -28.5l-137 -3q-10 -65 -43 -155.5t-82.5 -183t-111.5 -163.5q-76 -85 -151 -121.5t-152 -36.5q-43 0 -98.5 16t-107.5 38t-86.5 41t-34.5 24q0 22 23 22q20 0 70.5 -14t108.5 -14q92 0 189.5 45.5t183.5 122.5t145.5 174.5t77.5 201.5
q-138 14 -225 42t-87 112q0 29 21 87t54.5 119.5t71 104.5t71.5 43q38 0 69.5 -33.5t54.5 -84.5t35.5 -106t12.5 -97h128q54 0 66.5 -28t12.5 -62zM638 184q0 27 -22 59t-53 54.5t-58 22.5q-28 0 -42.5 -22t-14.5 -51q0 -20 47 -40.5t143 -22.5zM989 1166q0 -8 -14 -44
t-43 -44q-17 -5 -69.5 -25.5t-111.5 -42.5q-70 -27 -105 -43.5t-46 -16.5t-11 12q0 11 14 39.5t21 37.5q8 10 34 24t37 18q-22 7 -51 31.5t-29 64.5q0 35 31 80t65 79q56 56 83 65t56 9q32 0 47 -25.5t15 -54.5q0 -10 -7 -30.5t-16.5 -37.5t-15.5 -17q-10 0 -43.5 16
t-59.5 16q-25 0 -47.5 -17t-22.5 -34q0 -6 27 -25t64 -36t65 -19q35 9 75.5 17.5t48.5 10.5q9 2 9 -8z" />
    <glyph glyph-name="uni0677.fina" unicode="&#x677;" horiz-adv-x="831" 
d="M929 91q0 -34 -12.5 -62.5t-66.5 -28.5l-137 -3q-10 -65 -43 -155.5t-82.5 -183t-111.5 -163.5q-76 -85 -151 -121.5t-152 -36.5q-43 0 -98.5 16t-107.5 38t-86.5 41t-34.5 24q0 22 23 22q20 0 70.5 -14t108.5 -14q92 0 189.5 45.5t183.5 122.5t145.5 174.5t77.5 201.5
q-138 14 -225 42t-87 112q0 29 21 87t54.5 119.5t71 104.5t71.5 43q38 0 69.5 -33.5t54.5 -84.5t35.5 -106t12.5 -97h128q54 0 66.5 -28t12.5 -62zM638 184q0 27 -22 59t-53 54.5t-58 22.5q-28 0 -42.5 -22t-14.5 -51q0 -20 47 -40.5t143 -22.5zM566 1141q0 -107 -64.5 -211
t-154.5 -167q-5 -4 -20.5 14t-24 41.5t4.5 33.5q54 44 97.5 101t48.5 97q5 37 -6.5 33t-64.5 -4q-52 0 -83.5 36t-31.5 95q0 56 41 102.5t97 46.5q80 0 120.5 -66t40.5 -152zM1026 1129q0 -8 -14 -44t-43 -44q-17 -5 -69.5 -25.5t-111.5 -42.5q-70 -27 -105 -43.5t-46 -16.5
t-11 12q0 11 14 39.5t21 37.5q8 10 34 24t37 18q-22 7 -51 31.5t-29 64.5q0 35 31 80t65 79q56 56 83 65t56 9q32 0 47 -25.5t15 -54.5q0 -10 -7 -30.5t-16.5 -37.5t-15.5 -17q-10 0 -43.5 16t-59.5 16q-25 0 -47.5 -17t-22.5 -34q0 -6 27 -25t64 -36t65 -19q35 9 75.5 17.5
t48.5 10.5q9 2 9 -8z" />
    <glyph glyph-name="uni0678.init" unicode="&#x678;" horiz-adv-x="698" 
d="M360 383q0 -147 -43 -230.5t-116.5 -118t-164.5 -34.5h-53q-55 0 -67.5 28.5t-12.5 62.5t12.5 62t67.5 28h53q62 0 110.5 10.5t82.5 26.5q31 15 46.5 33.5t15.5 28.5q0 9 -14.5 37.5t-33 63.5t-33 63t-14.5 35q0 10 13.5 36t31.5 56.5t33.5 55t19.5 30.5
q33 -72 49.5 -138t16.5 -136zM698 1166q0 -8 -14 -44t-43 -44q-17 -5 -69.5 -25.5t-111.5 -42.5q-70 -27 -105 -43.5t-46 -16.5t-11 12q0 11 14 39.5t21 37.5q8 10 34 24t37 18q-22 7 -51 31.5t-29 64.5q0 35 31 80t65 79q56 56 83 65t56 9q32 0 47 -25.5t15 -54.5
q0 -10 -7 -30.5t-16.5 -37.5t-15.5 -17q-10 0 -43.5 16t-59.5 16q-25 0 -47.5 -17t-22.5 -34q0 -6 27 -25t64 -36t65 -19q35 9 75.5 17.5t48.5 10.5q9 2 9 -8z" />
    <glyph glyph-name="uni0678.medi" unicode="&#x678;" horiz-adv-x="532" 
d="M632 91q0 -34 -12.5 -62.5t-67.5 -28.5h-56q-40 0 -68 13t-51 38q-15 17 -34.5 47t-30.5 56q-51 -58 -110 -106t-166 -48h-53q-55 0 -67.5 28.5t-12.5 62.5t12.5 62t67.5 28h53q98 0 158 28.5t93 66.5t50 66.5t28 28.5q9 0 12.5 -24.5t14.5 -55.5q11 -35 36 -72.5
t68 -37.5h56q55 0 67.5 -28t12.5 -62zM692 1166q0 -8 -14 -44t-43 -44q-17 -5 -69.5 -25.5t-111.5 -42.5q-70 -27 -105 -43.5t-46 -16.5t-11 12q0 11 14 39.5t21 37.5q8 10 34 24t37 18q-22 7 -51 31.5t-29 64.5q0 35 31 80t65 79q56 56 83 65t56 9q32 0 47 -25.5t15 -54.5
q0 -10 -7 -30.5t-16.5 -37.5t-15.5 -17q-10 0 -43.5 16t-59.5 16q-25 0 -47.5 -17t-22.5 -34q0 -6 27 -25t64 -36t65 -19q35 9 75.5 17.5t48.5 10.5q9 2 9 -8z" />
    <glyph glyph-name="uni0678.fina" unicode="&#x678;" horiz-adv-x="1421" 
d="M1518 91q0 -34 -12.5 -62.5t-67.5 -28.5h-155q-40 0 -86 -2.5t-86 -14.5q-49 -14 -79.5 -44t-30.5 -64t37.5 -42.5t92.5 -16.5q45 -7 101.5 -27.5t98 -58t41.5 -95.5q0 -76 -51.5 -141t-136.5 -117t-188 -88.5t-207.5 -56t-193.5 -19.5q-221 0 -345.5 114t-124.5 310
q0 80 21.5 159.5t50 145.5t53 106t30.5 40q23 0 23 -17q0 -6 -25 -55.5t-49.5 -124t-24.5 -155.5q0 -107 45 -171t118.5 -96t159.5 -42.5t168 -10.5q37 0 110 14t158.5 37t163.5 50.5t128.5 54.5t50.5 48q0 59 -187 68q-55 3 -112.5 10t-97 30.5t-39.5 75.5q0 36 18 74.5
t37 67.5q115 181 280 224q32 8 60.5 9.5t61.5 1.5h111q55 0 67.5 -28t12.5 -62zM1489 1166q0 -8 -14 -44t-43 -44q-17 -5 -69.5 -25.5t-111.5 -42.5q-70 -27 -105 -43.5t-46 -16.5t-11 12q0 11 14 39.5t21 37.5q8 10 34 24t37 18q-22 7 -51 31.5t-29 64.5q0 35 31 80t65 79
q56 56 83 65t56 9q32 0 47 -25.5t15 -54.5q0 -10 -7 -30.5t-16.5 -37.5t-15.5 -17q-10 0 -43.5 16t-59.5 16q-25 0 -47.5 -17t-22.5 -34q0 -6 27 -25t64 -36t65 -19q35 9 75.5 17.5t48.5 10.5q9 2 9 -8z" />
    <glyph glyph-name="uni0679.init" unicode="&#x679;" horiz-adv-x="522" arabic-form="initial" 
d="M360 383q0 -147 -43 -230.5t-116.5 -118t-164.5 -34.5h-53q-55 0 -67.5 28.5t-12.5 62.5t12.5 62t67.5 28h53q62 0 110.5 10.5t82.5 26.5q31 15 46.5 33.5t15.5 28.5q0 9 -14.5 37.5t-33 63.5t-33 63t-14.5 35q0 10 13.5 36t31.5 56.5t33.5 55t19.5 30.5
q33 -72 49.5 -138t16.5 -136zM548 1058q0 -75 -51.5 -125t-130.5 -78.5t-162.5 -41t-147.5 -12.5q-22 0 -49.5 19t-47.5 43t-20 40q0 13 11 13q16 0 44 -3.5t56 -3.5q55 0 73 49q8 21 10.5 42t2.5 32q0 66 -11.5 121t-23.5 110.5t-12 122.5q0 35 15 66.5t30 31.5
q5 0 19.5 -22.5t28 -46t12.5 -25.5q-11 -10 -21 -24.5t-10 -43.5q0 -39 7 -66.5t14 -62t7 -94.5q0 -19 -1 -41t-3 -46q141 166 253 166q52 0 80 -35.5t28 -84.5zM484 1015q0 15 -30.5 25.5t-58.5 10.5q-54 0 -102 -28.5t-112 -105.5q115 9 181 31t94 42.5t28 24.5z" />
    <glyph glyph-name="uni0679.medi" unicode="&#x679;" horiz-adv-x="532" arabic-form="medial" 
d="M632 91q0 -34 -12.5 -62.5t-67.5 -28.5h-56q-40 0 -68 13t-51 38q-15 17 -34.5 47t-30.5 56q-51 -58 -110 -106t-166 -48h-53q-55 0 -67.5 28.5t-12.5 62.5t12.5 62t67.5 28h53q98 0 158 28.5t93 66.5t50 66.5t28 28.5q9 0 12.5 -24.5t14.5 -55.5q11 -35 36 -72.5
t68 -37.5h56q55 0 67.5 -28t12.5 -62zM572 771q0 -75 -51.5 -125t-130.5 -78.5t-162.5 -41t-147.5 -12.5q-22 0 -49.5 19t-47.5 43t-20 40q0 13 11 13q16 0 44 -3.5t56 -3.5q55 0 73 49q8 21 10.5 42t2.5 32q0 66 -11.5 121t-23.5 110.5t-12 122.5q0 35 15 66.5t30 31.5
q5 0 19.5 -22.5t28 -46t12.5 -25.5q-11 -10 -21 -24.5t-10 -43.5q0 -39 7 -66.5t14 -62t7 -94.5q0 -19 -1 -41t-3 -46q141 166 253 166q52 0 80 -35.5t28 -84.5zM508 728q0 15 -30.5 25.5t-58.5 10.5q-54 0 -102 -28.5t-112 -105.5q115 9 181 31t94 42.5t28 24.5z" />
    <glyph glyph-name="uni0679.fina" unicode="&#x679;" horiz-adv-x="1998" arabic-form="final" 
d="M2097 91q0 -34 -10.5 -62.5t-59.5 -28.5h-58q-91 0 -148 21t-101 112q-64 -72 -210 -129t-349 -90t-439 -33q-169 0 -306.5 42t-218.5 129.5t-81 223.5q0 56 15 112.5t35.5 104t38.5 76t24 28.5q5 0 12.5 -4t7.5 -14q0 -7 -14 -35.5t-28 -67.5t-14 -79q0 -99 77 -170
t217.5 -109t328.5 -38q122 0 247.5 9.5t241.5 29t209 51t149 74.5q29 22 39.5 43.5t23.5 21.5q6 0 17 -36.5t42 -59.5q29 -22 81 -27t103 -5h58q49 0 59.5 -28t10.5 -62zM1246 763q0 -75 -51.5 -125t-130.5 -78.5t-162.5 -41t-147.5 -12.5q-22 0 -49.5 19t-47.5 43t-20 40
q0 13 11 13q16 0 44 -3.5t56 -3.5q55 0 73 49q8 21 10.5 42t2.5 32q0 66 -11.5 121t-23.5 110.5t-12 122.5q0 35 15 66.5t30 31.5q5 0 19.5 -22.5t28 -46t12.5 -25.5q-11 -10 -21 -24.5t-10 -43.5q0 -39 7 -66.5t14 -62t7 -94.5q0 -19 -1 -41t-3 -46q141 166 253 166
q52 0 80 -35.5t28 -84.5zM1182 720q0 15 -30.5 25.5t-58.5 10.5q-54 0 -102 -28.5t-112 -105.5q115 9 181 31t94 42.5t28 24.5z" />
    <glyph glyph-name="uni067A.init" unicode="&#x67a;" horiz-adv-x="522" arabic-form="initial" 
d="M360 383q0 -147 -43 -230.5t-116.5 -118t-164.5 -34.5h-53q-55 0 -67.5 28.5t-12.5 62.5t12.5 62t67.5 28h53q62 0 110.5 10.5t82.5 26.5q31 15 46.5 33.5t15.5 28.5q0 9 -14.5 37.5t-33 63.5t-33 63t-14.5 35q0 10 13.5 36t31.5 56.5t33.5 55t19.5 30.5
q33 -72 49.5 -138t16.5 -136zM364 943q0 -4 -12.5 -26t-30 -48.5t-32.5 -46t-21 -19.5q-4 0 -24.5 13t-45 30.5t-42.5 33t-18 21.5q0 7 15.5 33.5t36 56t35.5 44.5q8 8 8 19q0 7 -6 11q-18 12 -42.5 30t-43 34.5t-18.5 20.5q0 6 12.5 28.5t30 49.5t32.5 46.5t19 19.5
q7 0 28 -14t45 -32.5t41.5 -34t17.5 -18.5q0 -6 -15 -33.5t-35 -57t-34 -42.5q-3 -4 -8.5 -10t-5.5 -13t6 -11q18 -10 43.5 -28.5t44.5 -35.5t19 -21z" />
    <glyph glyph-name="uni067A.medi" unicode="&#x67a;" horiz-adv-x="532" arabic-form="medial" 
d="M632 91q0 -34 -12.5 -62.5t-67.5 -28.5h-56q-40 0 -68 13t-51 38q-15 17 -34.5 47t-30.5 56q-51 -58 -110 -106t-166 -48h-53q-55 0 -67.5 28.5t-12.5 62.5t12.5 62t67.5 28h53q98 0 158 28.5t93 66.5t50 66.5t28 28.5q9 0 12.5 -24.5t14.5 -55.5q11 -35 36 -72.5
t68 -37.5h56q55 0 67.5 -28t12.5 -62zM387 656q0 -4 -12.5 -26t-30 -48.5t-32.5 -46t-21 -19.5q-4 0 -24.5 13t-45 30.5t-42.5 33t-18 21.5q0 7 15.5 33.5t36 56t35.5 44.5q8 8 8 19q0 7 -6 11q-18 12 -42.5 30t-43 34.5t-18.5 20.5q0 6 12.5 28.5t30 49.5t32.5 46.5
t19 19.5q7 0 28 -14t45 -32.5t41.5 -34t17.5 -18.5q0 -6 -15 -33.5t-35 -57t-34 -42.5q-3 -4 -8.5 -10t-5.5 -13t6 -11q18 -10 43.5 -28.5t44.5 -35.5t19 -21z" />
    <glyph glyph-name="uni067A.fina" unicode="&#x67a;" horiz-adv-x="1998" arabic-form="final" 
d="M2097 91q0 -34 -10.5 -62.5t-59.5 -28.5h-58q-91 0 -148 21t-101 112q-64 -72 -210 -129t-349 -90t-439 -33q-169 0 -306.5 42t-218.5 129.5t-81 223.5q0 56 15 112.5t35.5 104t38.5 76t24 28.5q5 0 12.5 -4t7.5 -14q0 -7 -14 -35.5t-28 -67.5t-14 -79q0 -99 77 -170
t217.5 -109t328.5 -38q122 0 247.5 9.5t241.5 29t209 51t149 74.5q29 22 39.5 43.5t23.5 21.5q6 0 17 -36.5t42 -59.5q29 -22 81 -27t103 -5h58q49 0 59.5 -28t10.5 -62zM1062 647q0 -4 -12.5 -26t-30 -48.5t-32.5 -46t-21 -19.5q-4 0 -24.5 13t-45 30.5t-42.5 33t-18 21.5
q0 7 15.5 33.5t36 56t35.5 44.5q8 8 8 19q0 7 -6 11q-18 12 -42.5 30t-43 34.5t-18.5 20.5q0 6 12.5 28.5t30 49.5t32.5 46.5t19 19.5q7 0 28 -14t45 -32.5t41.5 -34t17.5 -18.5q0 -6 -15 -33.5t-35 -57t-34 -42.5q-3 -4 -8.5 -10t-5.5 -13t6 -11q18 -10 43.5 -28.5
t44.5 -35.5t19 -21z" />
    <glyph glyph-name="uni067B.init" unicode="&#x67b;" horiz-adv-x="522" arabic-form="initial" 
d="M360 383q0 -147 -43 -230.5t-116.5 -118t-164.5 -34.5h-53q-55 0 -67.5 28.5t-12.5 62.5t12.5 62t67.5 28h53q62 0 110.5 10.5t82.5 26.5q31 15 46.5 33.5t15.5 28.5q0 9 -14.5 37.5t-33 63.5t-33 63t-14.5 35q0 10 13.5 36t31.5 56.5t33.5 55t19.5 30.5
q33 -72 49.5 -138t16.5 -136zM292 -496q0 -4 -12.5 -26t-30 -48.5t-32.5 -46t-21 -19.5q-4 0 -24.5 13t-45 30.5t-42.5 33t-18 21.5q0 7 15.5 33.5t36 56t35.5 44.5q8 8 8 19q0 7 -6 11q-18 12 -42.5 30t-43 34.5t-18.5 20.5q0 6 12.5 28.5t30 49.5t32.5 46.5t19 19.5
q7 0 28 -14t45 -32.5t41.5 -34t17.5 -18.5q0 -6 -15 -33.5t-35 -57t-34 -42.5q-3 -4 -8.5 -10t-5.5 -13t6 -11q18 -10 43.5 -28.5t44.5 -35.5t19 -21z" />
    <glyph glyph-name="uni067B.medi" unicode="&#x67b;" horiz-adv-x="532" arabic-form="medial" 
d="M632 91q0 -34 -12.5 -62.5t-67.5 -28.5h-56q-40 0 -68 13t-51 38q-15 17 -34.5 47t-30.5 56q-51 -58 -110 -106t-166 -48h-53q-55 0 -67.5 28.5t-12.5 62.5t12.5 62t67.5 28h53q98 0 158 28.5t93 66.5t50 66.5t28 28.5q9 0 12.5 -24.5t14.5 -55.5q11 -35 36 -72.5
t68 -37.5h56q55 0 67.5 -28t12.5 -62zM387 -496q0 -4 -12.5 -26t-30 -48.5t-32.5 -46t-21 -19.5q-4 0 -24.5 13t-45 30.5t-42.5 33t-18 21.5q0 7 15.5 33.5t36 56t35.5 44.5q8 8 8 19q0 7 -6 11q-18 12 -42.5 30t-43 34.5t-18.5 20.5q0 6 12.5 28.5t30 49.5t32.5 46.5
t19 19.5q7 0 28 -14t45 -32.5t41.5 -34t17.5 -18.5q0 -6 -15 -33.5t-35 -57t-34 -42.5q-3 -4 -8.5 -10t-5.5 -13t6 -11q18 -10 43.5 -28.5t44.5 -35.5t19 -21z" />
    <glyph glyph-name="uni067B.fina" unicode="&#x67b;" horiz-adv-x="1998" arabic-form="final" 
d="M2097 91q0 -34 -10.5 -62.5t-59.5 -28.5h-58q-91 0 -148 21t-101 112q-64 -72 -210 -129t-349 -90t-439 -33q-169 0 -306.5 42t-218.5 129.5t-81 223.5q0 56 15 112.5t35.5 104t38.5 76t24 28.5q5 0 12.5 -4t7.5 -14q0 -7 -14 -35.5t-28 -67.5t-14 -79q0 -99 77 -170
t217.5 -109t328.5 -38q122 0 247.5 9.5t241.5 29t209 51t149 74.5q29 22 39.5 43.5t23.5 21.5q6 0 17 -36.5t42 -59.5q29 -22 81 -27t103 -5h58q49 0 59.5 -28t10.5 -62zM963 -615q0 -4 -12.5 -26t-30 -48.5t-32.5 -46t-21 -19.5q-4 0 -24.5 13t-45 30.5t-42.5 33t-18 21.5
q0 7 15.5 33.5t36 56t35.5 44.5q8 8 8 19q0 7 -6 11q-18 12 -42.5 30t-43 34.5t-18.5 20.5q0 6 12.5 28.5t30 49.5t32.5 46.5t19 19.5q7 0 28 -14t45 -32.5t41.5 -34t17.5 -18.5q0 -6 -15 -33.5t-35 -57t-34 -42.5q-3 -4 -8.5 -10t-5.5 -13t6 -11q18 -10 43.5 -28.5
t44.5 -35.5t19 -21z" />
    <glyph glyph-name="uni067C.init" unicode="&#x67c;" horiz-adv-x="522" 
d="M360 383q0 -147 -43 -230.5t-116.5 -118t-164.5 -34.5h-53q-55 0 -67.5 28.5t-12.5 62.5t12.5 62t67.5 28h53q62 0 110.5 10.5t82.5 26.5q31 15 46.5 33.5t15.5 28.5q0 9 -14.5 37.5t-33 63.5t-33 63t-14.5 35q0 10 13.5 36t31.5 56.5t33.5 55t19.5 30.5
q33 -72 49.5 -138t16.5 -136zM473 970q0 -5 -12.5 -27.5t-30 -49.5t-32.5 -46.5t-21 -19.5q-3 0 -21.5 13t-42 30.5t-41 31.5t-19.5 15q-6 5 -11 5t-10 -5q-2 -2 -21 -30t-39.5 -55.5t-26.5 -27.5q-4 0 -24.5 13t-45 31t-42.5 33.5t-18 20.5q0 6 13.5 28t31 48.5t32.5 46
t18 19.5q9 0 37 -21t54 -42.5t28 -24.5q9 -9 13 -9q6 0 13 11q2 3 21.5 30.5t40 54.5t24.5 27q5 0 25.5 -14t45.5 -32.5t43 -34.5t18 -19zM405 -69q0 -91 -60.5 -157.5t-153.5 -66.5q-137 0 -137 198q0 86 55.5 152t144.5 66q41 0 75.5 -32t55 -76.5t20.5 -83.5zM325 -111
q0 23 -22.5 50t-55 46.5t-61.5 19.5q-36 0 -58 -27.5t-22 -59.5q0 -34 37 -54.5t82 -20.5q26 0 63 14.5t37 31.5z" />
    <glyph glyph-name="uni067C.medi" unicode="&#x67c;" horiz-adv-x="532" 
d="M632 91q0 -34 -12.5 -62.5t-67.5 -28.5h-56q-40 0 -68 13t-51 38q-15 17 -34.5 47t-30.5 56q-51 -58 -110 -106t-166 -48h-53q-55 0 -67.5 28.5t-12.5 62.5t12.5 62t67.5 28h53q98 0 158 28.5t93 66.5t50 66.5t28 28.5q9 0 12.5 -24.5t14.5 -55.5q11 -35 36 -72.5
t68 -37.5h56q55 0 67.5 -28t12.5 -62zM496 683q0 -5 -12.5 -27.5t-30 -49.5t-32.5 -46.5t-21 -19.5q-3 0 -21.5 13t-42 30.5t-41 31.5t-19.5 15q-6 5 -11 5t-10 -5q-2 -2 -21 -30t-39.5 -55.5t-26.5 -27.5q-4 0 -24.5 13t-45 31t-42.5 33.5t-18 20.5q0 6 13.5 28t31 48.5
t32.5 46t18 19.5q9 0 37 -21t54 -42.5t28 -24.5q9 -9 13 -9q6 0 13 11q2 3 21.5 30.5t40 54.5t24.5 27q5 0 25.5 -14t45.5 -32.5t43 -34.5t18 -19zM462 -47q0 -91 -60.5 -157.5t-153.5 -66.5q-137 0 -137 198q0 86 55.5 152t144.5 66q41 0 75.5 -32t55 -76.5t20.5 -83.5z
M382 -89q0 23 -22.5 50t-55 46.5t-61.5 19.5q-36 0 -58 -27.5t-22 -59.5q0 -34 37 -54.5t82 -20.5q26 0 63 14.5t37 31.5z" />
    <glyph glyph-name="uni067C.fina" unicode="&#x67c;" horiz-adv-x="1998" 
d="M2097 91q0 -34 -10.5 -62.5t-59.5 -28.5h-58q-91 0 -148 21t-101 112q-64 -72 -210 -129t-349 -90t-439 -33q-169 0 -306.5 42t-218.5 129.5t-81 223.5q0 56 15 112.5t35.5 104t38.5 76t24 28.5q5 0 12.5 -4t7.5 -14q0 -7 -14 -35.5t-28 -67.5t-14 -79q0 -99 77 -170
t217.5 -109t328.5 -38q122 0 247.5 9.5t241.5 29t209 51t149 74.5q29 22 39.5 43.5t23.5 21.5q6 0 17 -36.5t42 -59.5q29 -22 81 -27t103 -5h58q49 0 59.5 -28t10.5 -62zM1170 674q0 -5 -12.5 -27.5t-30 -49.5t-32.5 -46.5t-21 -19.5q-3 0 -21.5 13t-42 30.5t-41 31.5
t-19.5 15q-6 5 -11 5t-10 -5q-2 -2 -21 -30t-39.5 -55.5t-26.5 -27.5q-4 0 -24.5 13t-45 31t-42.5 33.5t-18 20.5q0 6 13.5 28t31 48.5t32.5 46t18 19.5q9 0 37 -21t54 -42.5t28 -24.5q9 -9 13 -9q6 0 13 11q2 3 21.5 30.5t40 54.5t24.5 27q5 0 25.5 -14t45.5 -32.5
t43 -34.5t18 -19zM1002 -244q0 -91 -60.5 -157.5t-153.5 -66.5q-137 0 -137 198q0 86 55.5 152t144.5 66q41 0 75.5 -32t55 -76.5t20.5 -83.5zM922 -286q0 23 -22.5 50t-55 46.5t-61.5 19.5q-36 0 -58 -27.5t-22 -59.5q0 -34 37 -54.5t82 -20.5q26 0 63 14.5t37 31.5z" />
    <glyph glyph-name="uni067D.init" unicode="&#x67d;" horiz-adv-x="522" 
d="M360 383q0 -147 -43 -230.5t-116.5 -118t-164.5 -34.5h-53q-55 0 -67.5 28.5t-12.5 62.5t12.5 62t67.5 28h53q62 0 110.5 10.5t82.5 26.5q31 15 46.5 33.5t15.5 28.5q0 9 -14.5 37.5t-33 63.5t-33 63t-14.5 35q0 10 13.5 36t31.5 56.5t33.5 55t19.5 30.5
q33 -72 49.5 -138t16.5 -136zM373 943q0 -4 -12.5 -26t-30 -48t-33 -45.5t-22.5 -19.5q-4 0 -24.5 12.5t-45.5 30t-43.5 33t-18.5 21.5q0 5 13.5 27.5t31.5 49t34 46t20 19.5q6 0 26.5 -13.5t44.5 -32t42 -34.5t18 -20zM474 1231q0 -5 -12.5 -27.5t-30 -49.5t-32.5 -46.5
t-21 -19.5q-3 0 -21.5 13t-42 30.5t-41 31.5t-19.5 15q-6 5 -11 5t-10 -5q-2 -2 -21 -30t-39.5 -55.5t-26.5 -27.5q-4 0 -24.5 13t-45 31t-42.5 33.5t-18 20.5q0 6 13.5 28t31 48.5t32.5 46t18 19.5q9 0 37 -21t54 -42.5t28 -24.5q9 -9 13 -9q6 0 13 11q2 3 21.5 30.5
t40 54.5t24.5 27q5 0 25.5 -14t45.5 -32.5t43 -34.5t18 -19z" />
    <glyph glyph-name="uni067D.medi" unicode="&#x67d;" horiz-adv-x="532" 
d="M632 91q0 -34 -12.5 -62.5t-67.5 -28.5h-56q-40 0 -68 13t-51 38q-15 17 -34.5 47t-30.5 56q-51 -58 -110 -106t-166 -48h-53q-55 0 -67.5 28.5t-12.5 62.5t12.5 62t67.5 28h53q98 0 158 28.5t93 66.5t50 66.5t28 28.5q9 0 12.5 -24.5t14.5 -55.5q11 -35 36 -72.5
t68 -37.5h56q55 0 67.5 -28t12.5 -62zM396 656q0 -4 -12.5 -26t-30 -48t-33 -45.5t-22.5 -19.5q-4 0 -24.5 12.5t-45.5 30t-43.5 33t-18.5 21.5q0 5 13.5 27.5t31.5 49t34 46t20 19.5q6 0 26.5 -13.5t44.5 -32t42 -34.5t18 -20zM497 944q0 -5 -12.5 -27.5t-30 -49.5
t-32.5 -46.5t-21 -19.5q-3 0 -21.5 13t-42 30.5t-41 31.5t-19.5 15q-6 5 -11 5t-10 -5q-2 -2 -21 -30t-39.5 -55.5t-26.5 -27.5q-4 0 -24.5 13t-45 31t-42.5 33.5t-18 20.5q0 6 13.5 28t31 48.5t32.5 46t18 19.5q9 0 37 -21t54 -42.5t28 -24.5q9 -9 13 -9q6 0 13 11
q2 3 21.5 30.5t40 54.5t24.5 27q5 0 25.5 -14t45.5 -32.5t43 -34.5t18 -19z" />
    <glyph glyph-name="uni067D.fina" unicode="&#x67d;" horiz-adv-x="1998" 
d="M2097 91q0 -34 -10.5 -62.5t-59.5 -28.5h-58q-91 0 -148 21t-101 112q-64 -72 -210 -129t-349 -90t-439 -33q-169 0 -306.5 42t-218.5 129.5t-81 223.5q0 56 15 112.5t35.5 104t38.5 76t24 28.5q5 0 12.5 -4t7.5 -14q0 -7 -14 -35.5t-28 -67.5t-14 -79q0 -99 77 -170
t217.5 -109t328.5 -38q122 0 247.5 9.5t241.5 29t209 51t149 74.5q29 22 39.5 43.5t23.5 21.5q6 0 17 -36.5t42 -59.5q29 -22 81 -27t103 -5h58q49 0 59.5 -28t10.5 -62zM1071 647q0 -4 -12.5 -26t-30 -48t-33 -45.5t-22.5 -19.5q-4 0 -24.5 12.5t-45.5 30t-43.5 33
t-18.5 21.5q0 5 13.5 27.5t31.5 49t34 46t20 19.5q6 0 26.5 -13.5t44.5 -32t42 -34.5t18 -20zM1172 935q0 -5 -12.5 -27.5t-30 -49.5t-32.5 -46.5t-21 -19.5q-3 0 -21.5 13t-42 30.5t-41 31.5t-19.5 15q-6 5 -11 5t-10 -5q-2 -2 -21 -30t-39.5 -55.5t-26.5 -27.5
q-4 0 -24.5 13t-45 31t-42.5 33.5t-18 20.5q0 6 13.5 28t31 48.5t32.5 46t18 19.5q9 0 37 -21t54 -42.5t28 -24.5q9 -9 13 -9q6 0 13 11q2 3 21.5 30.5t40 54.5t24.5 27q5 0 25.5 -14t45.5 -32.5t43 -34.5t18 -19z" />
    <glyph glyph-name="uni067E.init" unicode="&#x67e;" horiz-adv-x="522" arabic-form="initial" 
d="M360 383q0 -147 -43 -230.5t-116.5 -118t-164.5 -34.5h-53q-55 0 -67.5 28.5t-12.5 62.5t12.5 62t67.5 28h53q62 0 110.5 10.5t82.5 26.5q31 15 46.5 33.5t15.5 28.5q0 9 -14.5 37.5t-33 63.5t-33 63t-14.5 35q0 10 13.5 36t31.5 56.5t33.5 55t19.5 30.5
q33 -72 49.5 -138t16.5 -136zM301 -531q0 -4 -12.5 -26t-30 -48t-33 -45.5t-22.5 -19.5q-4 0 -24.5 12.5t-45.5 30t-43.5 33t-18.5 21.5q0 5 13.5 27.5t31.5 49t34 46t20 19.5q6 0 26.5 -13.5t44.5 -32t42 -34.5t18 -20zM402 -243q0 -5 -12.5 -27.5t-30 -49.5t-32.5 -46.5
t-21 -19.5q-3 0 -21.5 13t-42 30.5t-41 31.5t-19.5 15q-6 5 -11 5t-10 -5q-2 -2 -21 -30t-39.5 -55.5t-26.5 -27.5q-4 0 -24.5 13t-45 31t-42.5 33.5t-18 20.5q0 6 13.5 28t31 48.5t32.5 46t18 19.5q9 0 37 -21t54 -42.5t28 -24.5q9 -9 13 -9q6 0 13 11q2 3 21.5 30.5
t40 54.5t24.5 27q5 0 25.5 -14t45.5 -32.5t43 -34.5t18 -19z" />
    <glyph glyph-name="uni067E.medi" unicode="&#x67e;" horiz-adv-x="532" arabic-form="medial" 
d="M632 91q0 -34 -12.5 -62.5t-67.5 -28.5h-56q-40 0 -68 13t-51 38q-15 17 -34.5 47t-30.5 56q-51 -58 -110 -106t-166 -48h-53q-55 0 -67.5 28.5t-12.5 62.5t12.5 62t67.5 28h53q98 0 158 28.5t93 66.5t50 66.5t28 28.5q9 0 12.5 -24.5t14.5 -55.5q11 -35 36 -72.5
t68 -37.5h56q55 0 67.5 -28t12.5 -62zM396 -531q0 -4 -12.5 -26t-30 -48t-33 -45.5t-22.5 -19.5q-4 0 -24.5 12.5t-45.5 30t-43.5 33t-18.5 21.5q0 5 13.5 27.5t31.5 49t34 46t20 19.5q6 0 26.5 -13.5t44.5 -32t42 -34.5t18 -20zM497 -243q0 -5 -12.5 -27.5t-30 -49.5
t-32.5 -46.5t-21 -19.5q-3 0 -21.5 13t-42 30.5t-41 31.5t-19.5 15q-6 5 -11 5t-10 -5q-2 -2 -21 -30t-39.5 -55.5t-26.5 -27.5q-4 0 -24.5 13t-45 31t-42.5 33.5t-18 20.5q0 6 13.5 28t31 48.5t32.5 46t18 19.5q9 0 37 -21t54 -42.5t28 -24.5q9 -9 13 -9q6 0 13 11
q2 3 21.5 30.5t40 54.5t24.5 27q5 0 25.5 -14t45.5 -32.5t43 -34.5t18 -19z" />
    <glyph glyph-name="uni067E.fina" unicode="&#x67e;" horiz-adv-x="1998" arabic-form="final" 
d="M2097 91q0 -34 -10.5 -62.5t-59.5 -28.5h-58q-91 0 -148 21t-101 112q-64 -72 -210 -129t-349 -90t-439 -33q-169 0 -306.5 42t-218.5 129.5t-81 223.5q0 56 15 112.5t35.5 104t38.5 76t24 28.5q5 0 12.5 -4t7.5 -14q0 -7 -14 -35.5t-28 -67.5t-14 -79q0 -99 77 -170
t217.5 -109t328.5 -38q122 0 247.5 9.5t241.5 29t209 51t149 74.5q29 22 39.5 43.5t23.5 21.5q6 0 17 -36.5t42 -59.5q29 -22 81 -27t103 -5h58q49 0 59.5 -28t10.5 -62zM972 -649q0 -4 -12.5 -26t-30 -48t-33 -45.5t-22.5 -19.5q-4 0 -24.5 12.5t-45.5 30t-43.5 33
t-18.5 21.5q0 5 13.5 27.5t31.5 49t34 46t20 19.5q6 0 26.5 -13.5t44.5 -32t42 -34.5t18 -20zM1073 -361q0 -5 -12.5 -27.5t-30 -49.5t-32.5 -46.5t-21 -19.5q-3 0 -21.5 13t-42 30.5t-41 31.5t-19.5 15q-6 5 -11 5t-10 -5q-2 -2 -21 -30t-39.5 -55.5t-26.5 -27.5
q-4 0 -24.5 13t-45 31t-42.5 33.5t-18 20.5q0 6 13.5 28t31 48.5t32.5 46t18 19.5q9 0 37 -21t54 -42.5t28 -24.5q9 -9 13 -9q6 0 13 11q2 3 21.5 30.5t40 54.5t24.5 27q5 0 25.5 -14t45.5 -32.5t43 -34.5t18 -19z" />
    <glyph glyph-name="uni067F.init" unicode="&#x67f;" horiz-adv-x="522" arabic-form="initial" 
d="M360 383q0 -147 -43 -230.5t-116.5 -118t-164.5 -34.5h-53q-55 0 -67.5 28.5t-12.5 62.5t12.5 62t67.5 28h53q62 0 110.5 10.5t82.5 26.5q31 15 46.5 33.5t15.5 28.5q0 9 -14.5 37.5t-33 63.5t-33 63t-14.5 35q0 10 13.5 36t31.5 56.5t33.5 55t19.5 30.5
q33 -72 49.5 -138t16.5 -136zM463 1218q0 -5 -12.5 -27.5t-30 -49.5t-32.5 -46.5t-21 -19.5q-3 0 -21.5 13t-42 30.5t-41 31.5t-19.5 15q-6 5 -11 5t-10 -5q-2 -2 -21 -30t-39.5 -55.5t-26.5 -27.5q-4 0 -24.5 13t-45 31t-42.5 33.5t-18 20.5q0 6 13.5 28t31 48.5t32.5 46
t18 19.5q9 0 37 -21t54 -42.5t28 -24.5q9 -9 13 -9q6 0 13 11q2 3 21.5 30.5t40 54.5t24.5 27q5 0 25.5 -14t45.5 -32.5t43 -34.5t18 -19zM483 968q0 -5 -12.5 -27.5t-30 -49.5t-32.5 -46.5t-21 -19.5q-3 0 -21.5 13t-42 30.5t-41 31.5t-19.5 15q-6 5 -11 5t-10 -5
q-2 -2 -21 -30t-39.5 -55.5t-26.5 -27.5q-4 0 -24.5 13t-45 31t-42.5 33.5t-18 20.5q0 6 13.5 28t31 48.5t32.5 46t18 19.5q9 0 37 -21t54 -42.5t28 -24.5q9 -9 13 -9q6 0 13 11q2 3 21.5 30.5t40 54.5t24.5 27q5 0 25.5 -14t45.5 -32.5t43 -34.5t18 -19z" />
    <glyph glyph-name="uni067F.medi" unicode="&#x67f;" horiz-adv-x="532" arabic-form="medial" 
d="M632 91q0 -34 -12.5 -62.5t-67.5 -28.5h-56q-40 0 -68 13t-51 38q-15 17 -34.5 47t-30.5 56q-51 -58 -110 -106t-166 -48h-53q-55 0 -67.5 28.5t-12.5 62.5t12.5 62t67.5 28h53q98 0 158 28.5t93 66.5t50 66.5t28 28.5q9 0 12.5 -24.5t14.5 -55.5q11 -35 36 -72.5
t68 -37.5h56q55 0 67.5 -28t12.5 -62zM486 931q0 -5 -12.5 -27.5t-30 -49.5t-32.5 -46.5t-21 -19.5q-3 0 -21.5 13t-42 30.5t-41 31.5t-19.5 15q-6 5 -11 5t-10 -5q-2 -2 -21 -30t-39.5 -55.5t-26.5 -27.5q-4 0 -24.5 13t-45 31t-42.5 33.5t-18 20.5q0 6 13.5 28t31 48.5
t32.5 46t18 19.5q9 0 37 -21t54 -42.5t28 -24.5q9 -9 13 -9q6 0 13 11q2 3 21.5 30.5t40 54.5t24.5 27q5 0 25.5 -14t45.5 -32.5t43 -34.5t18 -19zM506 681q0 -5 -12.5 -27.5t-30 -49.5t-32.5 -46.5t-21 -19.5q-3 0 -21.5 13t-42 30.5t-41 31.5t-19.5 15q-6 5 -11 5t-10 -5
q-2 -2 -21 -30t-39.5 -55.5t-26.5 -27.5q-4 0 -24.5 13t-45 31t-42.5 33.5t-18 20.5q0 6 13.5 28t31 48.5t32.5 46t18 19.5q9 0 37 -21t54 -42.5t28 -24.5q9 -9 13 -9q6 0 13 11q2 3 21.5 30.5t40 54.5t24.5 27q5 0 25.5 -14t45.5 -32.5t43 -34.5t18 -19z" />
    <glyph glyph-name="uni067F.fina" unicode="&#x67f;" horiz-adv-x="1998" arabic-form="final" 
d="M2097 91q0 -34 -10.5 -62.5t-59.5 -28.5h-58q-91 0 -148 21t-101 112q-64 -72 -210 -129t-349 -90t-439 -33q-169 0 -306.5 42t-218.5 129.5t-81 223.5q0 56 15 112.5t35.5 104t38.5 76t24 28.5q5 0 12.5 -4t7.5 -14q0 -7 -14 -35.5t-28 -67.5t-14 -79q0 -99 77 -170
t217.5 -109t328.5 -38q122 0 247.5 9.5t241.5 29t209 51t149 74.5q29 22 39.5 43.5t23.5 21.5q6 0 17 -36.5t42 -59.5q29 -22 81 -27t103 -5h58q49 0 59.5 -28t10.5 -62zM1160 922q0 -5 -12.5 -27.5t-30 -49.5t-32.5 -46.5t-21 -19.5q-3 0 -21.5 13t-42 30.5t-41 31.5
t-19.5 15q-6 5 -11 5t-10 -5q-2 -2 -21 -30t-39.5 -55.5t-26.5 -27.5q-4 0 -24.5 13t-45 31t-42.5 33.5t-18 20.5q0 6 13.5 28t31 48.5t32.5 46t18 19.5q9 0 37 -21t54 -42.5t28 -24.5q9 -9 13 -9q6 0 13 11q2 3 21.5 30.5t40 54.5t24.5 27q5 0 25.5 -14t45.5 -32.5
t43 -34.5t18 -19zM1180 672q0 -5 -12.5 -27.5t-30 -49.5t-32.5 -46.5t-21 -19.5q-3 0 -21.5 13t-42 30.5t-41 31.5t-19.5 15q-6 5 -11 5t-10 -5q-2 -2 -21 -30t-39.5 -55.5t-26.5 -27.5q-4 0 -24.5 13t-45 31t-42.5 33.5t-18 20.5q0 6 13.5 28t31 48.5t32.5 46t18 19.5
q9 0 37 -21t54 -42.5t28 -24.5q9 -9 13 -9q6 0 13 11q2 3 21.5 30.5t40 54.5t24.5 27q5 0 25.5 -14t45.5 -32.5t43 -34.5t18 -19z" />
    <glyph glyph-name="uni0680.init" unicode="&#x680;" horiz-adv-x="541" arabic-form="initial" 
d="M360 383q0 -147 -43 -230.5t-116.5 -118t-164.5 -34.5h-53q-55 0 -67.5 28.5t-12.5 62.5t12.5 62t67.5 28h53q62 0 110.5 10.5t82.5 26.5q31 15 46.5 33.5t15.5 28.5q0 9 -14.5 37.5t-33 63.5t-33 63t-14.5 35q0 10 13.5 36t31.5 56.5t33.5 55t19.5 30.5
q33 -72 49.5 -138t16.5 -136zM399 -262q0 -5 -12.5 -27.5t-30 -49.5t-32.5 -46.5t-21 -19.5q-3 0 -21.5 13t-42 30.5t-41 31.5t-19.5 15q-6 5 -11 5t-10 -5q-2 -2 -21 -30t-39.5 -55.5t-26.5 -27.5q-4 0 -24.5 13t-45 31t-42.5 33.5t-18 20.5q0 6 13.5 28t31 48.5t32.5 46
t18 19.5q9 0 37 -21t54 -42.5t28 -24.5q9 -9 13 -9q6 0 13 11q2 3 21.5 30.5t40 54.5t24.5 27q5 0 25.5 -14t45.5 -32.5t43 -34.5t18 -19zM419 -512q0 -5 -12.5 -27.5t-30 -49.5t-32.5 -46.5t-21 -19.5q-3 0 -21.5 13t-42 30.5t-41 31.5t-19.5 15q-6 5 -11 5t-10 -5
q-2 -2 -21 -30t-39.5 -55.5t-26.5 -27.5q-4 0 -24.5 13t-45 31t-42.5 33.5t-18 20.5q0 6 13.5 28t31 48.5t32.5 46t18 19.5q9 0 37 -21t54 -42.5t28 -24.5q9 -9 13 -9q6 0 13 11q2 3 21.5 30.5t40 54.5t24.5 27q5 0 25.5 -14t45.5 -32.5t43 -34.5t18 -19z" />
    <glyph glyph-name="uni0680.medi" unicode="&#x680;" horiz-adv-x="532" arabic-form="medial" 
d="M632 91q0 -34 -12.5 -62.5t-67.5 -28.5h-56q-40 0 -68 13t-51 38q-15 17 -34.5 47t-30.5 56q-51 -58 -110 -106t-166 -48h-53q-55 0 -67.5 28.5t-12.5 62.5t12.5 62t67.5 28h53q98 0 158 28.5t93 66.5t50 66.5t28 28.5q9 0 12.5 -24.5t14.5 -55.5q11 -35 36 -72.5
t68 -37.5h56q55 0 67.5 -28t12.5 -62zM486 -247q0 -5 -12.5 -27.5t-30 -49.5t-32.5 -46.5t-21 -19.5q-3 0 -21.5 13t-42 30.5t-41 31.5t-19.5 15q-6 5 -11 5t-10 -5q-2 -2 -21 -30t-39.5 -55.5t-26.5 -27.5q-4 0 -24.5 13t-45 31t-42.5 33.5t-18 20.5q0 6 13.5 28t31 48.5
t32.5 46t18 19.5q9 0 37 -21t54 -42.5t28 -24.5q9 -9 13 -9q6 0 13 11q2 3 21.5 30.5t40 54.5t24.5 27q5 0 25.5 -14t45.5 -32.5t43 -34.5t18 -19zM506 -497q0 -5 -12.5 -27.5t-30 -49.5t-32.5 -46.5t-21 -19.5q-3 0 -21.5 13t-42 30.5t-41 31.5t-19.5 15q-6 5 -11 5t-10 -5
q-2 -2 -21 -30t-39.5 -55.5t-26.5 -27.5q-4 0 -24.5 13t-45 31t-42.5 33.5t-18 20.5q0 6 13.5 28t31 48.5t32.5 46t18 19.5q9 0 37 -21t54 -42.5t28 -24.5q9 -9 13 -9q6 0 13 11q2 3 21.5 30.5t40 54.5t24.5 27q5 0 25.5 -14t45.5 -32.5t43 -34.5t18 -19z" />
    <glyph glyph-name="uni0680.fina" unicode="&#x680;" horiz-adv-x="1998" arabic-form="final" 
d="M2097 91q0 -34 -10.5 -62.5t-59.5 -28.5h-58q-91 0 -148 21t-101 112q-64 -72 -210 -129t-349 -90t-439 -33q-169 0 -306.5 42t-218.5 129.5t-81 223.5q0 56 15 112.5t35.5 104t38.5 76t24 28.5q5 0 12.5 -4t7.5 -14q0 -7 -14 -35.5t-28 -67.5t-14 -79q0 -99 77 -170
t217.5 -109t328.5 -38q122 0 247.5 9.5t241.5 29t209 51t149 74.5q29 22 39.5 43.5t23.5 21.5q6 0 17 -36.5t42 -59.5q29 -22 81 -27t103 -5h58q49 0 59.5 -28t10.5 -62zM1061 -365q0 -5 -12.5 -27.5t-30 -49.5t-32.5 -46.5t-21 -19.5q-3 0 -21.5 13t-42 30.5t-41 31.5
t-19.5 15q-6 5 -11 5t-10 -5q-2 -2 -21 -30t-39.5 -55.5t-26.5 -27.5q-4 0 -24.5 13t-45 31t-42.5 33.5t-18 20.5q0 6 13.5 28t31 48.5t32.5 46t18 19.5q9 0 37 -21t54 -42.5t28 -24.5q9 -9 13 -9q6 0 13 11q2 3 21.5 30.5t40 54.5t24.5 27q5 0 25.5 -14t45.5 -32.5
t43 -34.5t18 -19zM1081 -615q0 -5 -12.5 -27.5t-30 -49.5t-32.5 -46.5t-21 -19.5q-3 0 -21.5 13t-42 30.5t-41 31.5t-19.5 15q-6 5 -11 5t-10 -5q-2 -2 -21 -30t-39.5 -55.5t-26.5 -27.5q-4 0 -24.5 13t-45 31t-42.5 33.5t-18 20.5q0 6 13.5 28t31 48.5t32.5 46t18 19.5
q9 0 37 -21t54 -42.5t28 -24.5q9 -9 13 -9q6 0 13 11q2 3 21.5 30.5t40 54.5t24.5 27q5 0 25.5 -14t45.5 -32.5t43 -34.5t18 -19z" />
    <glyph glyph-name="uni0681.init" unicode="&#x681;" horiz-adv-x="1417" 
d="M1298 436q0 -5 -9 -40.5t-19.5 -68.5t-16.5 -33q-59 0 -131.5 1.5t-135.5 3t-96 1.5q-111 0 -204.5 -35.5t-163.5 -71.5q-79 -41 -158.5 -86t-160.5 -76t-167 -31h-53q-55 0 -67.5 28.5t-12.5 62.5t12.5 62t67.5 28h53q111 0 200 18.5t189 58.5q56 23 120 47t123 43
q-65 21 -128 49t-125 49t-126 21t-118.5 -18t-63.5 -18q-8 0 -8 11q0 32 37 89.5t84 92.5q33 23 65 29.5t83 6.5q53 0 118.5 -26t132.5 -59t123 -56q77 -30 178 -48.5t214 -23.5q70 -4 117 -5t47 -6zM841 1020q0 -8 -14 -44t-43 -44q-17 -5 -69.5 -25.5t-111.5 -42.5
q-70 -27 -105 -43.5t-46 -16.5t-11 12q0 11 14 39.5t21 37.5q8 10 34 24t37 18q-22 7 -51 31.5t-29 64.5q0 35 31 80t65 79q56 56 83 65t56 9q32 0 47 -25.5t15 -54.5q0 -10 -7 -30.5t-16.5 -37.5t-15.5 -17q-10 0 -43.5 16t-59.5 16q-25 0 -47.5 -17t-22.5 -34q0 -6 27 -25
t64 -36t65 -19q35 9 75.5 17.5t48.5 10.5q9 2 9 -8z" />
    <glyph glyph-name="uni0681.medi" unicode="&#x681;" horiz-adv-x="1514" 
d="M1612 91q0 -34 -12.5 -62.5t-66.5 -28.5h-54q-181 0 -288 12.5t-159 46.5q-58 40 -58 128q0 29 7 57t14 59h-26q-170 0 -289.5 -45t-219.5 -101q-103 -58 -201 -107.5t-223 -49.5h-53q-55 0 -67.5 28.5t-12.5 62.5t12.5 62t67.5 28h53q144 0 244 30t185 65
q53 22 103.5 41t105.5 31q-39 16 -107 45t-148 53t-158 24q-60 0 -101.5 -17t-46.5 -17q-11 0 -11 9q0 63 46.5 113.5t95.5 76.5q29 17 63.5 21t55.5 4q44 0 103.5 -21t125 -50.5t128.5 -56.5t114 -39q78 -18 142.5 -26.5t141.5 -10.5t191 -2q5 0 7 -5t2 -7q0 -3 -7 -29.5
t-15 -56t-13 -41.5q-5 -15 -211 -15q-1 -3 -1.5 -8.5t-0.5 -10.5q0 -40 57 -63q43 -18 105.5 -26t129 -9.5t117.5 -1.5h54q54 0 66.5 -28t12.5 -62zM958 1020q0 -8 -14 -44t-43 -44q-17 -5 -69.5 -25.5t-111.5 -42.5q-70 -27 -105 -43.5t-46 -16.5t-11 12q0 11 14 39.5
t21 37.5q8 10 34 24t37 18q-22 7 -51 31.5t-29 64.5q0 35 31 80t65 79q56 56 83 65t56 9q32 0 47 -25.5t15 -54.5q0 -10 -7 -30.5t-16.5 -37.5t-15.5 -17q-10 0 -43.5 16t-59.5 16q-25 0 -47.5 -17t-22.5 -34q0 -6 27 -25t64 -36t65 -19q35 9 75.5 17.5t48.5 10.5q9 2 9 -8z
" />
    <glyph glyph-name="uni0681.fina" unicode="&#x681;" horiz-adv-x="1422" 
d="M1520 91q0 -34 -13 -62.5t-67 -28.5h-145q-109 0 -193 3.5t-141 22.5t-81 55.5t-24 69.5q0 34 8 87t15 85q-145 -28 -276 -91.5t-233 -153.5t-160.5 -198t-58.5 -225q0 -159 89 -281t279 -191.5t493 -69.5q95 0 192.5 8.5t167 17t79.5 8.5q8 0 9.5 -6t1.5 -11
q0 -4 -38 -20.5t-96 -38.5t-121 -44.5t-113.5 -39.5t-72.5 -24q-51 -15 -103.5 -17.5t-77.5 -2.5q-104 0 -213 15t-209.5 52.5t-180 104t-126 168.5t-46.5 247q0 160 63.5 313t182.5 283t284 219q-64 11 -134.5 18.5t-119.5 7.5q-45 0 -100 -10t-87 -10q-9 0 -9 12
q0 9 5.5 36.5t12 54t7.5 33.5q4 15 49 33t103 31t100 13q116 0 245 -26t262 -28q45 0 121.5 3t131.5 3q27 0 44.5 -1t17.5 -5t-11 -25.5t-26 -48t-27 -46t-13 -19.5q-49 -8 -107.5 -17t-109.5 -19q2 -62 38 -95.5t130 -46t268 -12.5h54q54 0 67 -28t13 -62zM964 925
q0 -8 -14 -44t-43 -44q-17 -5 -69.5 -25.5t-111.5 -42.5q-70 -27 -105 -43.5t-46 -16.5t-11 12q0 11 14 39.5t21 37.5q8 10 34 24t37 18q-22 7 -51 31.5t-29 64.5q0 35 31 80t65 79q56 56 83 65t56 9q32 0 47 -25.5t15 -54.5q0 -10 -7 -30.5t-16.5 -37.5t-15.5 -17
q-10 0 -43.5 16t-59.5 16q-25 0 -47.5 -17t-22.5 -34q0 -6 27 -25t64 -36t65 -19q35 9 75.5 17.5t48.5 10.5q9 2 9 -8z" />
    <glyph glyph-name="uni0682.init" unicode="&#x682;" horiz-adv-x="1417" 
d="M1298 436q0 -5 -9 -40.5t-19.5 -68.5t-16.5 -33q-59 0 -131.5 1.5t-135.5 3t-96 1.5q-111 0 -204.5 -35.5t-163.5 -71.5q-79 -41 -158.5 -86t-160.5 -76t-167 -31h-53q-55 0 -67.5 28.5t-12.5 62.5t12.5 62t67.5 28h53q111 0 200 18.5t189 58.5q56 23 120 47t123 43
q-65 21 -128 49t-125 49t-126 21t-118.5 -18t-63.5 -18q-8 0 -8 11q0 32 37 89.5t84 92.5q33 23 65 29.5t83 6.5q53 0 118.5 -26t132.5 -59t123 -56q77 -30 178 -48.5t214 -23.5q70 -4 117 -5t47 -6zM760 944q0 -4 -12.5 -26t-30 -48.5t-32.5 -46t-21 -19.5q-4 0 -24.5 13
t-45 30.5t-42.5 33t-18 21.5q0 7 15.5 33.5t36 56t35.5 44.5q8 8 8 19q0 7 -6 11q-18 12 -42.5 30t-43 34.5t-18.5 20.5q0 6 12.5 28.5t30 49.5t32.5 46.5t19 19.5q7 0 28 -14t45 -32.5t41.5 -34t17.5 -18.5q0 -6 -15 -33.5t-35 -57t-34 -42.5q-3 -4 -8.5 -10t-5.5 -13
t6 -11q18 -10 43.5 -28.5t44.5 -35.5t19 -21z" />
    <glyph glyph-name="uni0682.medi" unicode="&#x682;" horiz-adv-x="1514" 
d="M1612 91q0 -34 -12.5 -62.5t-66.5 -28.5h-54q-181 0 -288 12.5t-159 46.5q-58 40 -58 128q0 29 7 57t14 59h-26q-170 0 -289.5 -45t-219.5 -101q-103 -58 -201 -107.5t-223 -49.5h-53q-55 0 -67.5 28.5t-12.5 62.5t12.5 62t67.5 28h53q144 0 244 30t185 65
q53 22 103.5 41t105.5 31q-39 16 -107 45t-148 53t-158 24q-60 0 -101.5 -17t-46.5 -17q-11 0 -11 9q0 63 46.5 113.5t95.5 76.5q29 17 63.5 21t55.5 4q44 0 103.5 -21t125 -50.5t128.5 -56.5t114 -39q78 -18 142.5 -26.5t141.5 -10.5t191 -2q5 0 7 -5t2 -7q0 -3 -7 -29.5
t-15 -56t-13 -41.5q-5 -15 -211 -15q-1 -3 -1.5 -8.5t-0.5 -10.5q0 -40 57 -63q43 -18 105.5 -26t129 -9.5t117.5 -1.5h54q54 0 66.5 -28t12.5 -62zM877 944q0 -4 -12.5 -26t-30 -48.5t-32.5 -46t-21 -19.5q-4 0 -24.5 13t-45 30.5t-42.5 33t-18 21.5q0 7 15.5 33.5t36 56
t35.5 44.5q8 8 8 19q0 7 -6 11q-18 12 -42.5 30t-43 34.5t-18.5 20.5q0 6 12.5 28.5t30 49.5t32.5 46.5t19 19.5q7 0 28 -14t45 -32.5t41.5 -34t17.5 -18.5q0 -6 -15 -33.5t-35 -57t-34 -42.5q-3 -4 -8.5 -10t-5.5 -13t6 -11q18 -10 43.5 -28.5t44.5 -35.5t19 -21z" />
    <glyph glyph-name="uni0682.fina" unicode="&#x682;" horiz-adv-x="1422" 
d="M1520 91q0 -34 -13 -62.5t-67 -28.5h-145q-109 0 -193 3.5t-141 22.5t-81 55.5t-24 69.5q0 34 8 87t15 85q-145 -28 -276 -91.5t-233 -153.5t-160.5 -198t-58.5 -225q0 -159 89 -281t279 -191.5t493 -69.5q95 0 192.5 8.5t167 17t79.5 8.5q8 0 9.5 -6t1.5 -11
q0 -4 -38 -20.5t-96 -38.5t-121 -44.5t-113.5 -39.5t-72.5 -24q-51 -15 -103.5 -17.5t-77.5 -2.5q-104 0 -213 15t-209.5 52.5t-180 104t-126 168.5t-46.5 247q0 160 63.5 313t182.5 283t284 219q-64 11 -134.5 18.5t-119.5 7.5q-45 0 -100 -10t-87 -10q-9 0 -9 12
q0 9 5.5 36.5t12 54t7.5 33.5q4 15 49 33t103 31t100 13q116 0 245 -26t262 -28q45 0 121.5 3t131.5 3q27 0 44.5 -1t17.5 -5t-11 -25.5t-26 -48t-27 -46t-13 -19.5q-49 -8 -107.5 -17t-109.5 -19q2 -62 38 -95.5t130 -46t268 -12.5h54q54 0 67 -28t13 -62zM883 849
q0 -4 -12.5 -26t-30 -48.5t-32.5 -46t-21 -19.5q-4 0 -24.5 13t-45 30.5t-42.5 33t-18 21.5q0 7 15.5 33.5t36 56t35.5 44.5q8 8 8 19q0 7 -6 11q-18 12 -42.5 30t-43 34.5t-18.5 20.5q0 6 12.5 28.5t30 49.5t32.5 46.5t19 19.5q7 0 28 -14t45 -32.5t41.5 -34t17.5 -18.5
q0 -6 -15 -33.5t-35 -57t-34 -42.5q-3 -4 -8.5 -10t-5.5 -13t6 -11q18 -10 43.5 -28.5t44.5 -35.5t19 -21z" />
    <glyph glyph-name="uni0683.init" unicode="&#x683;" horiz-adv-x="1417" arabic-form="initial" 
d="M1298 436q0 -5 -9 -40.5t-19.5 -68.5t-16.5 -33q-59 0 -131.5 1.5t-135.5 3t-96 1.5q-111 0 -204.5 -35.5t-163.5 -71.5q-79 -41 -158.5 -86t-160.5 -76t-167 -31h-53q-55 0 -67.5 28.5t-12.5 62.5t12.5 62t67.5 28h53q111 0 200 18.5t189 58.5q56 23 120 47t123 43
q-65 21 -128 49t-125 49t-126 21t-118.5 -18t-63.5 -18q-8 0 -8 11q0 32 37 89.5t84 92.5q33 23 65 29.5t83 6.5q53 0 118.5 -26t132.5 -59t123 -56q77 -30 178 -48.5t214 -23.5q70 -4 117 -5t47 -6zM869 -245q0 -5 -12.5 -27.5t-30 -49.5t-32.5 -46.5t-21 -19.5
q-3 0 -21.5 13t-42 30.5t-41 31.5t-19.5 15q-6 5 -11 5t-10 -5q-2 -2 -21 -30t-39.5 -55.5t-26.5 -27.5q-4 0 -24.5 13t-45 31t-42.5 33.5t-18 20.5q0 6 13.5 28t31 48.5t32.5 46t18 19.5q9 0 37 -21t54 -42.5t28 -24.5q9 -9 13 -9q6 0 13 11q2 3 21.5 30.5t40 54.5t24.5 27
q5 0 25.5 -14t45.5 -32.5t43 -34.5t18 -19z" />
    <glyph glyph-name="uni0683.medi" unicode="&#x683;" horiz-adv-x="1514" arabic-form="medial" 
d="M1612 91q0 -34 -12.5 -62.5t-66.5 -28.5h-54q-181 0 -288 12.5t-159 46.5q-58 40 -58 128q0 29 7 57t14 59h-26q-170 0 -289.5 -45t-219.5 -101q-103 -58 -201 -107.5t-223 -49.5h-53q-55 0 -67.5 28.5t-12.5 62.5t12.5 62t67.5 28h53q144 0 244 30t185 65
q53 22 103.5 41t105.5 31q-39 16 -107 45t-148 53t-158 24q-60 0 -101.5 -17t-46.5 -17q-11 0 -11 9q0 63 46.5 113.5t95.5 76.5q29 17 63.5 21t55.5 4q44 0 103.5 -21t125 -50.5t128.5 -56.5t114 -39q78 -18 142.5 -26.5t141.5 -10.5t191 -2q5 0 7 -5t2 -7q0 -3 -7 -29.5
t-15 -56t-13 -41.5q-5 -15 -211 -15q-1 -3 -1.5 -8.5t-0.5 -10.5q0 -40 57 -63q43 -18 105.5 -26t129 -9.5t117.5 -1.5h54q54 0 66.5 -28t12.5 -62zM986 -245q0 -5 -12.5 -27.5t-30 -49.5t-32.5 -46.5t-21 -19.5q-3 0 -21.5 13t-42 30.5t-41 31.5t-19.5 15q-6 5 -11 5
t-10 -5q-2 -2 -21 -30t-39.5 -55.5t-26.5 -27.5q-4 0 -24.5 13t-45 31t-42.5 33.5t-18 20.5q0 6 13.5 28t31 48.5t32.5 46t18 19.5q9 0 37 -21t54 -42.5t28 -24.5q9 -9 13 -9q6 0 13 11q2 3 21.5 30.5t40 54.5t24.5 27q5 0 25.5 -14t45.5 -32.5t43 -34.5t18 -19z" />
    <glyph glyph-name="uni0683.fina" unicode="&#x683;" horiz-adv-x="1422" arabic-form="final" 
d="M1520 91q0 -34 -13 -62.5t-67 -28.5h-145q-109 0 -193 3.5t-141 22.5t-81 55.5t-24 69.5q0 34 8 87t15 85q-145 -28 -276 -91.5t-233 -153.5t-160.5 -198t-58.5 -225q0 -159 89 -281t279 -191.5t493 -69.5q95 0 192.5 8.5t167 17t79.5 8.5q8 0 9.5 -6t1.5 -11
q0 -4 -38 -20.5t-96 -38.5t-121 -44.5t-113.5 -39.5t-72.5 -24q-51 -15 -103.5 -17.5t-77.5 -2.5q-104 0 -213 15t-209.5 52.5t-180 104t-126 168.5t-46.5 247q0 160 63.5 313t182.5 283t284 219q-64 11 -134.5 18.5t-119.5 7.5q-45 0 -100 -10t-87 -10q-9 0 -9 12
q0 9 5.5 36.5t12 54t7.5 33.5q4 15 49 33t103 31t100 13q116 0 245 -26t262 -28q45 0 121.5 3t131.5 3q27 0 44.5 -1t17.5 -5t-11 -25.5t-26 -48t-27 -46t-13 -19.5q-49 -8 -107.5 -17t-109.5 -19q2 -62 38 -95.5t130 -46t268 -12.5h54q54 0 67 -28t13 -62zM989 -299
q0 -5 -12.5 -27.5t-30 -49.5t-32.5 -46.5t-21 -19.5q-3 0 -21.5 13t-42 30.5t-41 31.5t-19.5 15q-6 5 -11 5t-10 -5q-2 -2 -21 -30t-39.5 -55.5t-26.5 -27.5q-4 0 -24.5 13t-45 31t-42.5 33.5t-18 20.5q0 6 13.5 28t31 48.5t32.5 46t18 19.5q9 0 37 -21t54 -42.5t28 -24.5
q9 -9 13 -9q6 0 13 11q2 3 21.5 30.5t40 54.5t24.5 27q5 0 25.5 -14t45.5 -32.5t43 -34.5t18 -19z" />
    <glyph glyph-name="uni0684.init" unicode="&#x684;" horiz-adv-x="1417" arabic-form="initial" 
d="M1298 436q0 -5 -9 -40.5t-19.5 -68.5t-16.5 -33q-59 0 -131.5 1.5t-135.5 3t-96 1.5q-111 0 -204.5 -35.5t-163.5 -71.5q-79 -41 -158.5 -86t-160.5 -76t-167 -31h-53q-55 0 -67.5 28.5t-12.5 62.5t12.5 62t67.5 28h53q111 0 200 18.5t189 58.5q56 23 120 47t123 43
q-65 21 -128 49t-125 49t-126 21t-118.5 -18t-63.5 -18q-8 0 -8 11q0 32 37 89.5t84 92.5q33 23 65 29.5t83 6.5q53 0 118.5 -26t132.5 -59t123 -56q77 -30 178 -48.5t214 -23.5q70 -4 117 -5t47 -6zM760 -496q0 -4 -12.5 -26t-30 -48.5t-32.5 -46t-21 -19.5q-4 0 -24.5 13
t-45 30.5t-42.5 33t-18 21.5q0 7 15.5 33.5t36 56t35.5 44.5q8 8 8 19q0 7 -6 11q-18 12 -42.5 30t-43 34.5t-18.5 20.5q0 6 12.5 28.5t30 49.5t32.5 46.5t19 19.5q7 0 28 -14t45 -32.5t41.5 -34t17.5 -18.5q0 -6 -15 -33.5t-35 -57t-34 -42.5q-3 -4 -8.5 -10t-5.5 -13
t6 -11q18 -10 43.5 -28.5t44.5 -35.5t19 -21z" />
    <glyph glyph-name="uni0684.medi" unicode="&#x684;" horiz-adv-x="1514" arabic-form="medial" 
d="M1612 91q0 -34 -12.5 -62.5t-66.5 -28.5h-54q-181 0 -288 12.5t-159 46.5q-58 40 -58 128q0 29 7 57t14 59h-26q-170 0 -289.5 -45t-219.5 -101q-103 -58 -201 -107.5t-223 -49.5h-53q-55 0 -67.5 28.5t-12.5 62.5t12.5 62t67.5 28h53q144 0 244 30t185 65
q53 22 103.5 41t105.5 31q-39 16 -107 45t-148 53t-158 24q-60 0 -101.5 -17t-46.5 -17q-11 0 -11 9q0 63 46.5 113.5t95.5 76.5q29 17 63.5 21t55.5 4q44 0 103.5 -21t125 -50.5t128.5 -56.5t114 -39q78 -18 142.5 -26.5t141.5 -10.5t191 -2q5 0 7 -5t2 -7q0 -3 -7 -29.5
t-15 -56t-13 -41.5q-5 -15 -211 -15q-1 -3 -1.5 -8.5t-0.5 -10.5q0 -40 57 -63q43 -18 105.5 -26t129 -9.5t117.5 -1.5h54q54 0 66.5 -28t12.5 -62zM877 -496q0 -4 -12.5 -26t-30 -48.5t-32.5 -46t-21 -19.5q-4 0 -24.5 13t-45 30.5t-42.5 33t-18 21.5q0 7 15.5 33.5t36 56
t35.5 44.5q8 8 8 19q0 7 -6 11q-18 12 -42.5 30t-43 34.5t-18.5 20.5q0 6 12.5 28.5t30 49.5t32.5 46.5t19 19.5q7 0 28 -14t45 -32.5t41.5 -34t17.5 -18.5q0 -6 -15 -33.5t-35 -57t-34 -42.5q-3 -4 -8.5 -10t-5.5 -13t6 -11q18 -10 43.5 -28.5t44.5 -35.5t19 -21z" />
    <glyph glyph-name="uni0684.fina" unicode="&#x684;" horiz-adv-x="1422" arabic-form="final" 
d="M1520 91q0 -34 -13 -62.5t-67 -28.5h-145q-109 0 -193 3.5t-141 22.5t-81 55.5t-24 69.5q0 34 8 87t15 85q-145 -28 -276 -91.5t-233 -153.5t-160.5 -198t-58.5 -225q0 -159 89 -281t279 -191.5t493 -69.5q95 0 192.5 8.5t167 17t79.5 8.5q8 0 9.5 -6t1.5 -11
q0 -4 -38 -20.5t-96 -38.5t-121 -44.5t-113.5 -39.5t-72.5 -24q-51 -15 -103.5 -17.5t-77.5 -2.5q-104 0 -213 15t-209.5 52.5t-180 104t-126 168.5t-46.5 247q0 160 63.5 313t182.5 283t284 219q-64 11 -134.5 18.5t-119.5 7.5q-45 0 -100 -10t-87 -10q-9 0 -9 12
q0 9 5.5 36.5t12 54t7.5 33.5q4 15 49 33t103 31t100 13q116 0 245 -26t262 -28q45 0 121.5 3t131.5 3q27 0 44.5 -1t17.5 -5t-11 -25.5t-26 -48t-27 -46t-13 -19.5q-49 -8 -107.5 -17t-109.5 -19q2 -62 38 -95.5t130 -46t268 -12.5h54q54 0 67 -28t13 -62zM880 -439
q0 -4 -12.5 -26t-30 -48.5t-32.5 -46t-21 -19.5q-4 0 -24.5 13t-45 30.5t-42.5 33t-18 21.5q0 7 15.5 33.5t36 56t35.5 44.5q8 8 8 19q0 7 -6 11q-18 12 -42.5 30t-43 34.5t-18.5 20.5q0 6 12.5 28.5t30 49.5t32.5 46.5t19 19.5q7 0 28 -14t45 -32.5t41.5 -34t17.5 -18.5
q0 -6 -15 -33.5t-35 -57t-34 -42.5q-3 -4 -8.5 -10t-5.5 -13t6 -11q18 -10 43.5 -28.5t44.5 -35.5t19 -21z" />
    <glyph glyph-name="uni0685.init" unicode="&#x685;" horiz-adv-x="1417" 
d="M1298 436q0 -5 -9 -40.5t-19.5 -68.5t-16.5 -33q-59 0 -131.5 1.5t-135.5 3t-96 1.5q-111 0 -204.5 -35.5t-163.5 -71.5q-79 -41 -158.5 -86t-160.5 -76t-167 -31h-53q-55 0 -67.5 28.5t-12.5 62.5t12.5 62t67.5 28h53q111 0 200 18.5t189 58.5q56 23 120 47t123 43
q-65 21 -128 49t-125 49t-126 21t-118.5 -18t-63.5 -18q-8 0 -8 11q0 32 37 89.5t84 92.5q33 23 65 29.5t83 6.5q53 0 118.5 -26t132.5 -59t123 -56q77 -30 178 -48.5t214 -23.5q70 -4 117 -5t47 -6zM720 1227q0 -6 -12.5 -28.5t-29.5 -49.5t-32.5 -46.5t-21.5 -19.5
q-3 0 -23 13.5t-45 32t-43.5 34.5t-18.5 21q0 6 13.5 28t31.5 48t33 45t18 19q6 0 27 -13.5t44.5 -32t41 -33.5t17.5 -18zM871 970q0 -5 -12.5 -27.5t-30 -49.5t-32.5 -46.5t-21 -19.5q-3 0 -21.5 13t-42 30.5t-41 31.5t-19.5 15q-6 5 -11 5t-10 -5q-2 -2 -21 -30
t-39.5 -55.5t-26.5 -27.5q-4 0 -24.5 13t-45 31t-42.5 33.5t-18 20.5q0 6 13.5 28t31 48.5t32.5 46t18 19.5q9 0 37 -21t54 -42.5t28 -24.5q9 -9 13 -9q6 0 13 11q2 3 21.5 30.5t40 54.5t24.5 27q5 0 25.5 -14t45.5 -32.5t43 -34.5t18 -19z" />
    <glyph glyph-name="uni0685.medi" unicode="&#x685;" horiz-adv-x="1514" 
d="M1612 91q0 -34 -12.5 -62.5t-66.5 -28.5h-54q-181 0 -288 12.5t-159 46.5q-58 40 -58 128q0 29 7 57t14 59h-26q-170 0 -289.5 -45t-219.5 -101q-103 -58 -201 -107.5t-223 -49.5h-53q-55 0 -67.5 28.5t-12.5 62.5t12.5 62t67.5 28h53q144 0 244 30t185 65
q53 22 103.5 41t105.5 31q-39 16 -107 45t-148 53t-158 24q-60 0 -101.5 -17t-46.5 -17q-11 0 -11 9q0 63 46.5 113.5t95.5 76.5q29 17 63.5 21t55.5 4q44 0 103.5 -21t125 -50.5t128.5 -56.5t114 -39q78 -18 142.5 -26.5t141.5 -10.5t191 -2q5 0 7 -5t2 -7q0 -3 -7 -29.5
t-15 -56t-13 -41.5q-5 -15 -211 -15q-1 -3 -1.5 -8.5t-0.5 -10.5q0 -40 57 -63q43 -18 105.5 -26t129 -9.5t117.5 -1.5h54q54 0 66.5 -28t12.5 -62zM838 1227q0 -6 -12.5 -28.5t-29.5 -49.5t-32.5 -46.5t-21.5 -19.5q-3 0 -23 13.5t-45 32t-43.5 34.5t-18.5 21q0 6 13.5 28
t31.5 48t33 45t18 19q6 0 27 -13.5t44.5 -32t41 -33.5t17.5 -18zM989 970q0 -5 -12.5 -27.5t-30 -49.5t-32.5 -46.5t-21 -19.5q-3 0 -21.5 13t-42 30.5t-41 31.5t-19.5 15q-6 5 -11 5t-10 -5q-2 -2 -21 -30t-39.5 -55.5t-26.5 -27.5q-4 0 -24.5 13t-45 31t-42.5 33.5
t-18 20.5q0 6 13.5 28t31 48.5t32.5 46t18 19.5q9 0 37 -21t54 -42.5t28 -24.5q9 -9 13 -9q6 0 13 11q2 3 21.5 30.5t40 54.5t24.5 27q5 0 25.5 -14t45.5 -32.5t43 -34.5t18 -19z" />
    <glyph glyph-name="uni0685.fina" unicode="&#x685;" horiz-adv-x="1422" 
d="M1520 91q0 -34 -13 -62.5t-67 -28.5h-145q-109 0 -193 3.5t-141 22.5t-81 55.5t-24 69.5q0 34 8 87t15 85q-145 -28 -276 -91.5t-233 -153.5t-160.5 -198t-58.5 -225q0 -159 89 -281t279 -191.5t493 -69.5q95 0 192.5 8.5t167 17t79.5 8.5q8 0 9.5 -6t1.5 -11
q0 -4 -38 -20.5t-96 -38.5t-121 -44.5t-113.5 -39.5t-72.5 -24q-51 -15 -103.5 -17.5t-77.5 -2.5q-104 0 -213 15t-209.5 52.5t-180 104t-126 168.5t-46.5 247q0 160 63.5 313t182.5 283t284 219q-64 11 -134.5 18.5t-119.5 7.5q-45 0 -100 -10t-87 -10q-9 0 -9 12
q0 9 5.5 36.5t12 54t7.5 33.5q4 15 49 33t103 31t100 13q116 0 245 -26t262 -28q45 0 121.5 3t131.5 3q27 0 44.5 -1t17.5 -5t-11 -25.5t-26 -48t-27 -46t-13 -19.5q-49 -8 -107.5 -17t-109.5 -19q2 -62 38 -95.5t130 -46t268 -12.5h54q54 0 67 -28t13 -62zM844 1132
q0 -6 -12.5 -28.5t-29.5 -49.5t-32.5 -46.5t-21.5 -19.5q-3 0 -23 13.5t-45 32t-43.5 34.5t-18.5 21q0 6 13.5 28t31.5 48t33 45t18 19q6 0 27 -13.5t44.5 -32t41 -33.5t17.5 -18zM995 875q0 -5 -12.5 -27.5t-30 -49.5t-32.5 -46.5t-21 -19.5q-3 0 -21.5 13t-42 30.5
t-41 31.5t-19.5 15q-6 5 -11 5t-10 -5q-2 -2 -21 -30t-39.5 -55.5t-26.5 -27.5q-4 0 -24.5 13t-45 31t-42.5 33.5t-18 20.5q0 6 13.5 28t31 48.5t32.5 46t18 19.5q9 0 37 -21t54 -42.5t28 -24.5q9 -9 13 -9q6 0 13 11q2 3 21.5 30.5t40 54.5t24.5 27q5 0 25.5 -14
t45.5 -32.5t43 -34.5t18 -19z" />
    <glyph glyph-name="uni0686.init" unicode="&#x686;" horiz-adv-x="1417" arabic-form="initial" 
d="M1298 436q0 -5 -9 -40.5t-19.5 -68.5t-16.5 -33q-59 0 -131.5 1.5t-135.5 3t-96 1.5q-111 0 -204.5 -35.5t-163.5 -71.5q-79 -41 -158.5 -86t-160.5 -76t-167 -31h-53q-55 0 -67.5 28.5t-12.5 62.5t12.5 62t67.5 28h53q111 0 200 18.5t189 58.5q56 23 120 47t123 43
q-65 21 -128 49t-125 49t-126 21t-118.5 -18t-63.5 -18q-8 0 -8 11q0 32 37 89.5t84 92.5q33 23 65 29.5t83 6.5q53 0 118.5 -26t132.5 -59t123 -56q77 -30 178 -48.5t214 -23.5q70 -4 117 -5t47 -6zM769 -531q0 -4 -12.5 -26t-30 -48t-33 -45.5t-22.5 -19.5
q-4 0 -24.5 12.5t-45.5 30t-43.5 33t-18.5 21.5q0 5 13.5 27.5t31.5 49t34 46t20 19.5q6 0 26.5 -13.5t44.5 -32t42 -34.5t18 -20zM870 -243q0 -5 -12.5 -27.5t-30 -49.5t-32.5 -46.5t-21 -19.5q-3 0 -21.5 13t-42 30.5t-41 31.5t-19.5 15q-6 5 -11 5t-10 -5q-2 -2 -21 -30
t-39.5 -55.5t-26.5 -27.5q-4 0 -24.5 13t-45 31t-42.5 33.5t-18 20.5q0 6 13.5 28t31 48.5t32.5 46t18 19.5q9 0 37 -21t54 -42.5t28 -24.5q9 -9 13 -9q6 0 13 11q2 3 21.5 30.5t40 54.5t24.5 27q5 0 25.5 -14t45.5 -32.5t43 -34.5t18 -19z" />
    <glyph glyph-name="uni0686.medi" unicode="&#x686;" horiz-adv-x="1514" arabic-form="medial" 
d="M1612 91q0 -34 -12.5 -62.5t-66.5 -28.5h-54q-181 0 -288 12.5t-159 46.5q-58 40 -58 128q0 29 7 57t14 59h-26q-170 0 -289.5 -45t-219.5 -101q-103 -58 -201 -107.5t-223 -49.5h-53q-55 0 -67.5 28.5t-12.5 62.5t12.5 62t67.5 28h53q144 0 244 30t185 65
q53 22 103.5 41t105.5 31q-39 16 -107 45t-148 53t-158 24q-60 0 -101.5 -17t-46.5 -17q-11 0 -11 9q0 63 46.5 113.5t95.5 76.5q29 17 63.5 21t55.5 4q44 0 103.5 -21t125 -50.5t128.5 -56.5t114 -39q78 -18 142.5 -26.5t141.5 -10.5t191 -2q5 0 7 -5t2 -7q0 -3 -7 -29.5
t-15 -56t-13 -41.5q-5 -15 -211 -15q-1 -3 -1.5 -8.5t-0.5 -10.5q0 -40 57 -63q43 -18 105.5 -26t129 -9.5t117.5 -1.5h54q54 0 66.5 -28t12.5 -62zM886 -531q0 -4 -12.5 -26t-30 -48t-33 -45.5t-22.5 -19.5q-4 0 -24.5 12.5t-45.5 30t-43.5 33t-18.5 21.5q0 5 13.5 27.5
t31.5 49t34 46t20 19.5q6 0 26.5 -13.5t44.5 -32t42 -34.5t18 -20zM987 -243q0 -5 -12.5 -27.5t-30 -49.5t-32.5 -46.5t-21 -19.5q-3 0 -21.5 13t-42 30.5t-41 31.5t-19.5 15q-6 5 -11 5t-10 -5q-2 -2 -21 -30t-39.5 -55.5t-26.5 -27.5q-4 0 -24.5 13t-45 31t-42.5 33.5
t-18 20.5q0 6 13.5 28t31 48.5t32.5 46t18 19.5q9 0 37 -21t54 -42.5t28 -24.5q9 -9 13 -9q6 0 13 11q2 3 21.5 30.5t40 54.5t24.5 27q5 0 25.5 -14t45.5 -32.5t43 -34.5t18 -19z" />
    <glyph glyph-name="uni0686.fina" unicode="&#x686;" horiz-adv-x="1422" arabic-form="final" 
d="M1520 91q0 -34 -13 -62.5t-67 -28.5h-145q-109 0 -193 3.5t-141 22.5t-81 55.5t-24 69.5q0 34 8 87t15 85q-145 -28 -276 -91.5t-233 -153.5t-160.5 -198t-58.5 -225q0 -159 89 -281t279 -191.5t493 -69.5q95 0 192.5 8.5t167 17t79.5 8.5q8 0 9.5 -6t1.5 -11
q0 -4 -38 -20.5t-96 -38.5t-121 -44.5t-113.5 -39.5t-72.5 -24q-51 -15 -103.5 -17.5t-77.5 -2.5q-104 0 -213 15t-209.5 52.5t-180 104t-126 168.5t-46.5 247q0 160 63.5 313t182.5 283t284 219q-64 11 -134.5 18.5t-119.5 7.5q-45 0 -100 -10t-87 -10q-9 0 -9 12
q0 9 5.5 36.5t12 54t7.5 33.5q4 15 49 33t103 31t100 13q116 0 245 -26t262 -28q45 0 121.5 3t131.5 3q27 0 44.5 -1t17.5 -5t-11 -25.5t-26 -48t-27 -46t-13 -19.5q-49 -8 -107.5 -17t-109.5 -19q2 -62 38 -95.5t130 -46t268 -12.5h54q54 0 67 -28t13 -62zM891 -457
q0 -4 -12.5 -26t-30 -48t-33 -45.5t-22.5 -19.5q-4 0 -24.5 12.5t-45.5 30t-43.5 33t-18.5 21.5q0 5 13.5 27.5t31.5 49t34 46t20 19.5q6 0 26.5 -13.5t44.5 -32t42 -34.5t18 -20zM992 -169q0 -5 -12.5 -27.5t-30 -49.5t-32.5 -46.5t-21 -19.5q-3 0 -21.5 13t-42 30.5
t-41 31.5t-19.5 15q-6 5 -11 5t-10 -5q-2 -2 -21 -30t-39.5 -55.5t-26.5 -27.5q-4 0 -24.5 13t-45 31t-42.5 33.5t-18 20.5q0 6 13.5 28t31 48.5t32.5 46t18 19.5q9 0 37 -21t54 -42.5t28 -24.5q9 -9 13 -9q6 0 13 11q2 3 21.5 30.5t40 54.5t24.5 27q5 0 25.5 -14
t45.5 -32.5t43 -34.5t18 -19z" />
    <glyph glyph-name="uni0687.init" unicode="&#x687;" horiz-adv-x="1417" arabic-form="initial" 
d="M1298 436q0 -5 -9 -40.5t-19.5 -68.5t-16.5 -33q-59 0 -131.5 1.5t-135.5 3t-96 1.5q-111 0 -204.5 -35.5t-163.5 -71.5q-79 -41 -158.5 -86t-160.5 -76t-167 -31h-53q-55 0 -67.5 28.5t-12.5 62.5t12.5 62t67.5 28h53q111 0 200 18.5t189 58.5q56 23 120 47t123 43
q-65 21 -128 49t-125 49t-126 21t-118.5 -18t-63.5 -18q-8 0 -8 11q0 32 37 89.5t84 92.5q33 23 65 29.5t83 6.5q53 0 118.5 -26t132.5 -59t123 -56q77 -30 178 -48.5t214 -23.5q70 -4 117 -5t47 -6zM858 -247q0 -5 -12.5 -27.5t-30 -49.5t-32.5 -46.5t-21 -19.5
q-3 0 -21.5 13t-42 30.5t-41 31.5t-19.5 15q-6 5 -11 5t-10 -5q-2 -2 -21 -30t-39.5 -55.5t-26.5 -27.5q-4 0 -24.5 13t-45 31t-42.5 33.5t-18 20.5q0 6 13.5 28t31 48.5t32.5 46t18 19.5q9 0 37 -21t54 -42.5t28 -24.5q9 -9 13 -9q6 0 13 11q2 3 21.5 30.5t40 54.5t24.5 27
q5 0 25.5 -14t45.5 -32.5t43 -34.5t18 -19zM878 -497q0 -5 -12.5 -27.5t-30 -49.5t-32.5 -46.5t-21 -19.5q-3 0 -21.5 13t-42 30.5t-41 31.5t-19.5 15q-6 5 -11 5t-10 -5q-2 -2 -21 -30t-39.5 -55.5t-26.5 -27.5q-4 0 -24.5 13t-45 31t-42.5 33.5t-18 20.5q0 6 13.5 28
t31 48.5t32.5 46t18 19.5q9 0 37 -21t54 -42.5t28 -24.5q9 -9 13 -9q6 0 13 11q2 3 21.5 30.5t40 54.5t24.5 27q5 0 25.5 -14t45.5 -32.5t43 -34.5t18 -19z" />
    <glyph glyph-name="uni0687.medi" unicode="&#x687;" horiz-adv-x="1514" arabic-form="medial" 
d="M1612 91q0 -34 -12.5 -62.5t-66.5 -28.5h-54q-181 0 -288 12.5t-159 46.5q-58 40 -58 128q0 29 7 57t14 59h-26q-170 0 -289.5 -45t-219.5 -101q-103 -58 -201 -107.5t-223 -49.5h-53q-55 0 -67.5 28.5t-12.5 62.5t12.5 62t67.5 28h53q144 0 244 30t185 65
q53 22 103.5 41t105.5 31q-39 16 -107 45t-148 53t-158 24q-60 0 -101.5 -17t-46.5 -17q-11 0 -11 9q0 63 46.5 113.5t95.5 76.5q29 17 63.5 21t55.5 4q44 0 103.5 -21t125 -50.5t128.5 -56.5t114 -39q78 -18 142.5 -26.5t141.5 -10.5t191 -2q5 0 7 -5t2 -7q0 -3 -7 -29.5
t-15 -56t-13 -41.5q-5 -15 -211 -15q-1 -3 -1.5 -8.5t-0.5 -10.5q0 -40 57 -63q43 -18 105.5 -26t129 -9.5t117.5 -1.5h54q54 0 66.5 -28t12.5 -62zM976 -247q0 -5 -12.5 -27.5t-30 -49.5t-32.5 -46.5t-21 -19.5q-3 0 -21.5 13t-42 30.5t-41 31.5t-19.5 15q-6 5 -11 5
t-10 -5q-2 -2 -21 -30t-39.5 -55.5t-26.5 -27.5q-4 0 -24.5 13t-45 31t-42.5 33.5t-18 20.5q0 6 13.5 28t31 48.5t32.5 46t18 19.5q9 0 37 -21t54 -42.5t28 -24.5q9 -9 13 -9q6 0 13 11q2 3 21.5 30.5t40 54.5t24.5 27q5 0 25.5 -14t45.5 -32.5t43 -34.5t18 -19zM996 -497
q0 -5 -12.5 -27.5t-30 -49.5t-32.5 -46.5t-21 -19.5q-3 0 -21.5 13t-42 30.5t-41 31.5t-19.5 15q-6 5 -11 5t-10 -5q-2 -2 -21 -30t-39.5 -55.5t-26.5 -27.5q-4 0 -24.5 13t-45 31t-42.5 33.5t-18 20.5q0 6 13.5 28t31 48.5t32.5 46t18 19.5q9 0 37 -21t54 -42.5t28 -24.5
q9 -9 13 -9q6 0 13 11q2 3 21.5 30.5t40 54.5t24.5 27q5 0 25.5 -14t45.5 -32.5t43 -34.5t18 -19z" />
    <glyph glyph-name="uni0687.fina" unicode="&#x687;" horiz-adv-x="1422" arabic-form="final" 
d="M1520 91q0 -34 -13 -62.5t-67 -28.5h-145q-109 0 -193 3.5t-141 22.5t-81 55.5t-24 69.5q0 34 8 87t15 85q-145 -28 -276 -91.5t-233 -153.5t-160.5 -198t-58.5 -225q0 -159 89 -281t279 -191.5t493 -69.5q95 0 192.5 8.5t167 17t79.5 8.5q8 0 9.5 -6t1.5 -11
q0 -4 -38 -20.5t-96 -38.5t-121 -44.5t-113.5 -39.5t-72.5 -24q-51 -15 -103.5 -17.5t-77.5 -2.5q-104 0 -213 15t-209.5 52.5t-180 104t-126 168.5t-46.5 247q0 160 63.5 313t182.5 283t284 219q-64 11 -134.5 18.5t-119.5 7.5q-45 0 -100 -10t-87 -10q-9 0 -9 12
q0 9 5.5 36.5t12 54t7.5 33.5q4 15 49 33t103 31t100 13q116 0 245 -26t262 -28q45 0 121.5 3t131.5 3q27 0 44.5 -1t17.5 -5t-11 -25.5t-26 -48t-27 -46t-13 -19.5q-49 -8 -107.5 -17t-109.5 -19q2 -62 38 -95.5t130 -46t268 -12.5h54q54 0 67 -28t13 -62zM979 -174
q0 -5 -12.5 -27.5t-30 -49.5t-32.5 -46.5t-21 -19.5q-3 0 -21.5 13t-42 30.5t-41 31.5t-19.5 15q-6 5 -11 5t-10 -5q-2 -2 -21 -30t-39.5 -55.5t-26.5 -27.5q-4 0 -24.5 13t-45 31t-42.5 33.5t-18 20.5q0 6 13.5 28t31 48.5t32.5 46t18 19.5q9 0 37 -21t54 -42.5t28 -24.5
q9 -9 13 -9q6 0 13 11q2 3 21.5 30.5t40 54.5t24.5 27q5 0 25.5 -14t45.5 -32.5t43 -34.5t18 -19zM999 -424q0 -5 -12.5 -27.5t-30 -49.5t-32.5 -46.5t-21 -19.5q-3 0 -21.5 13t-42 30.5t-41 31.5t-19.5 15q-6 5 -11 5t-10 -5q-2 -2 -21 -30t-39.5 -55.5t-26.5 -27.5
q-4 0 -24.5 13t-45 31t-42.5 33.5t-18 20.5q0 6 13.5 28t31 48.5t32.5 46t18 19.5q9 0 37 -21t54 -42.5t28 -24.5q9 -9 13 -9q6 0 13 11q2 3 21.5 30.5t40 54.5t24.5 27q5 0 25.5 -14t45.5 -32.5t43 -34.5t18 -19z" />
    <glyph glyph-name="uni0688.fina" unicode="&#x688;" horiz-adv-x="1105" arabic-form="final" 
d="M1202 91q0 -34 -12.5 -62.5t-67.5 -28.5h-53q-99 0 -151 32.5t-84 100t-71 173.5q-37 -64 -71 -112.5t-80 -80.5q-67 -46 -145 -66.5t-158 -20.5q-51 0 -102 12.5t-85 42t-34 80.5q0 10 8.5 39.5t20.5 63.5t23.5 59t17.5 25q9 0 14 -21.5t9 -32.5q9 -25 48.5 -53
t141.5 -28q67 0 131.5 6.5t117 29t83.5 70t31 129.5q-9 91 -29 177.5t-37 162t-17 133.5q0 13 10.5 41t24.5 58t26.5 51.5t15.5 21.5q8 0 10.5 -6.5t3.5 -32.5q16 -107 36.5 -229.5t44 -238t47.5 -202.5t45 -123q24 -40 66.5 -60t87.5 -20h53q55 0 67.5 -28t12.5 -62z
M983 1508q0 -75 -51.5 -125t-130.5 -78.5t-162.5 -41t-147.5 -12.5q-22 0 -49.5 19t-47.5 43t-20 40q0 13 11 13q16 0 44 -3.5t56 -3.5q55 0 73 49q8 21 10.5 42t2.5 32q0 66 -11.5 121t-23.5 110.5t-12 122.5q0 35 15 66.5t30 31.5q5 0 19.5 -22.5t28 -46t12.5 -25.5
q-11 -10 -21 -24.5t-10 -43.5q0 -39 7 -66.5t14 -62t7 -94.5q0 -19 -1 -41t-3 -46q141 166 253 166q52 0 80 -35.5t28 -84.5zM919 1465q0 15 -30.5 25.5t-58.5 10.5q-54 0 -102 -28.5t-112 -105.5q115 9 181 31t94 42.5t28 24.5z" />
    <glyph glyph-name="uni0689.fina" unicode="&#x689;" horiz-adv-x="1105" 
d="M1202 91q0 -34 -12.5 -62.5t-67.5 -28.5h-53q-99 0 -151 32.5t-84 100t-71 173.5q-37 -64 -71 -112.5t-80 -80.5q-67 -46 -145 -66.5t-158 -20.5q-51 0 -102 12.5t-85 42t-34 80.5q0 10 8.5 39.5t20.5 63.5t23.5 59t17.5 25q9 0 14 -21.5t9 -32.5q9 -25 48.5 -53
t141.5 -28q67 0 131.5 6.5t117 29t83.5 70t31 129.5q-9 91 -29 177.5t-37 162t-17 133.5q0 13 10.5 41t24.5 58t26.5 51.5t15.5 21.5q8 0 10.5 -6.5t3.5 -32.5q16 -107 36.5 -229.5t44 -238t47.5 -202.5t45 -123q24 -40 66.5 -60t87.5 -20h53q55 0 67.5 -28t12.5 -62z
M607 -69q0 -91 -60.5 -157.5t-153.5 -66.5q-137 0 -137 198q0 86 55.5 152t144.5 66q41 0 75.5 -32t55 -76.5t20.5 -83.5zM527 -111q0 23 -22.5 50t-55 46.5t-61.5 19.5q-36 0 -58 -27.5t-22 -59.5q0 -34 37 -54.5t82 -20.5q26 0 63 14.5t37 31.5z" />
    <glyph glyph-name="uni068A.fina" unicode="&#x68a;" horiz-adv-x="1105" 
d="M1202 91q0 -34 -12.5 -62.5t-67.5 -28.5h-53q-99 0 -151 32.5t-84 100t-71 173.5q-37 -64 -71 -112.5t-80 -80.5q-67 -46 -145 -66.5t-158 -20.5q-51 0 -102 12.5t-85 42t-34 80.5q0 10 8.5 39.5t20.5 63.5t23.5 59t17.5 25q9 0 14 -21.5t9 -32.5q9 -25 48.5 -53
t141.5 -28q67 0 131.5 6.5t117 29t83.5 70t31 129.5q-9 91 -29 177.5t-37 162t-17 133.5q0 13 10.5 41t24.5 58t26.5 51.5t15.5 21.5q8 0 10.5 -6.5t3.5 -32.5q16 -107 36.5 -229.5t44 -238t47.5 -202.5t45 -123q24 -40 66.5 -60t87.5 -20h53q55 0 67.5 -28t12.5 -62z
M719 -242q0 -5 -12.5 -27.5t-30 -49t-33.5 -46t-22 -19.5q-3 0 -23.5 13t-45.5 30.5t-43.5 33t-18.5 20.5q0 6 13 28t31 48.5t33.5 46t19.5 19.5q6 0 27 -13.5t45 -31.5t42 -33.5t18 -18.5z" />
    <glyph glyph-name="uni068B.fina" unicode="&#x68b;" horiz-adv-x="1105" 
d="M1202 91q0 -34 -12.5 -62.5t-67.5 -28.5h-53q-99 0 -151 32.5t-84 100t-71 173.5q-37 -64 -71 -112.5t-80 -80.5q-67 -46 -145 -66.5t-158 -20.5q-51 0 -102 12.5t-85 42t-34 80.5q0 10 8.5 39.5t20.5 63.5t23.5 59t17.5 25q9 0 14 -21.5t9 -32.5q9 -25 48.5 -53
t141.5 -28q67 0 131.5 6.5t117 29t83.5 70t31 129.5q-9 91 -29 177.5t-37 162t-17 133.5q0 13 10.5 41t24.5 58t26.5 51.5t15.5 21.5q8 0 10.5 -6.5t3.5 -32.5q16 -107 36.5 -229.5t44 -238t47.5 -202.5t45 -123q24 -40 66.5 -60t87.5 -20h53q55 0 67.5 -28t12.5 -62z
M983 1508q0 -75 -51.5 -125t-130.5 -78.5t-162.5 -41t-147.5 -12.5q-22 0 -49.5 19t-47.5 43t-20 40q0 13 11 13q16 0 44 -3.5t56 -3.5q55 0 73 49q8 21 10.5 42t2.5 32q0 66 -11.5 121t-23.5 110.5t-12 122.5q0 35 15 66.5t30 31.5q5 0 19.5 -22.5t28 -46t12.5 -25.5
q-11 -10 -21 -24.5t-10 -43.5q0 -39 7 -66.5t14 -62t7 -94.5q0 -19 -1 -41t-3 -46q141 166 253 166q52 0 80 -35.5t28 -84.5zM919 1465q0 15 -30.5 25.5t-58.5 10.5q-54 0 -102 -28.5t-112 -105.5q115 9 181 31t94 42.5t28 24.5zM719 -242q0 -5 -12.5 -27.5t-30 -49
t-33.5 -46t-22 -19.5q-3 0 -23.5 13t-45.5 30.5t-43.5 33t-18.5 20.5q0 6 13 28t31 48.5t33.5 46t19.5 19.5q6 0 27 -13.5t45 -31.5t42 -33.5t18 -18.5z" />
    <glyph glyph-name="uni068C.fina" unicode="&#x68c;" horiz-adv-x="1105" arabic-form="final" 
d="M1202 91q0 -34 -12.5 -62.5t-67.5 -28.5h-53q-99 0 -151 32.5t-84 100t-71 173.5q-37 -64 -71 -112.5t-80 -80.5q-67 -46 -145 -66.5t-158 -20.5q-51 0 -102 12.5t-85 42t-34 80.5q0 10 8.5 39.5t20.5 63.5t23.5 59t17.5 25q9 0 14 -21.5t9 -32.5q9 -25 48.5 -53
t141.5 -28q67 0 131.5 6.5t117 29t83.5 70t31 129.5q-9 91 -29 177.5t-37 162t-17 133.5q0 13 10.5 41t24.5 58t26.5 51.5t15.5 21.5q8 0 10.5 -6.5t3.5 -32.5q16 -107 36.5 -229.5t44 -238t47.5 -202.5t45 -123q24 -40 66.5 -60t87.5 -20h53q55 0 67.5 -28t12.5 -62z
M908 1419q0 -5 -12.5 -27.5t-30 -49.5t-32.5 -46.5t-21 -19.5q-3 0 -21.5 13t-42 30.5t-41 31.5t-19.5 15q-6 5 -11 5t-10 -5q-2 -2 -21 -30t-39.5 -55.5t-26.5 -27.5q-4 0 -24.5 13t-45 31t-42.5 33.5t-18 20.5q0 6 13.5 28t31 48.5t32.5 46t18 19.5q9 0 37 -21t54 -42.5
t28 -24.5q9 -9 13 -9q6 0 13 11q2 3 21.5 30.5t40 54.5t24.5 27q5 0 25.5 -14t45.5 -32.5t43 -34.5t18 -19z" />
    <glyph glyph-name="uni068D.fina" unicode="&#x68d;" horiz-adv-x="1105" arabic-form="final" 
d="M1202 91q0 -34 -12.5 -62.5t-67.5 -28.5h-53q-99 0 -151 32.5t-84 100t-71 173.5q-37 -64 -71 -112.5t-80 -80.5q-67 -46 -145 -66.5t-158 -20.5q-51 0 -102 12.5t-85 42t-34 80.5q0 10 8.5 39.5t20.5 63.5t23.5 59t17.5 25q9 0 14 -21.5t9 -32.5q9 -25 48.5 -53
t141.5 -28q67 0 131.5 6.5t117 29t83.5 70t31 129.5q-9 91 -29 177.5t-37 162t-17 133.5q0 13 10.5 41t24.5 58t26.5 51.5t15.5 21.5q8 0 10.5 -6.5t3.5 -32.5q16 -107 36.5 -229.5t44 -238t47.5 -202.5t45 -123q24 -40 66.5 -60t87.5 -20h53q55 0 67.5 -28t12.5 -62z
M834 -245q0 -5 -12.5 -27.5t-30 -49.5t-32.5 -46.5t-21 -19.5q-3 0 -21.5 13t-42 30.5t-41 31.5t-19.5 15q-6 5 -11 5t-10 -5q-2 -2 -21 -30t-39.5 -55.5t-26.5 -27.5q-4 0 -24.5 13t-45 31t-42.5 33.5t-18 20.5q0 6 13.5 28t31 48.5t32.5 46t18 19.5q9 0 37 -21t54 -42.5
t28 -24.5q9 -9 13 -9q6 0 13 11q2 3 21.5 30.5t40 54.5t24.5 27q5 0 25.5 -14t45.5 -32.5t43 -34.5t18 -19z" />
    <glyph glyph-name="uni068E.fina" unicode="&#x68e;" horiz-adv-x="1105" arabic-form="final" 
d="M1202 91q0 -34 -12.5 -62.5t-67.5 -28.5h-53q-99 0 -151 32.5t-84 100t-71 173.5q-37 -64 -71 -112.5t-80 -80.5q-67 -46 -145 -66.5t-158 -20.5q-51 0 -102 12.5t-85 42t-34 80.5q0 10 8.5 39.5t20.5 63.5t23.5 59t17.5 25q9 0 14 -21.5t9 -32.5q9 -25 48.5 -53
t141.5 -28q67 0 131.5 6.5t117 29t83.5 70t31 129.5q-9 91 -29 177.5t-37 162t-17 133.5q0 13 10.5 41t24.5 58t26.5 51.5t15.5 21.5q8 0 10.5 -6.5t3.5 -32.5q16 -107 36.5 -229.5t44 -238t47.5 -202.5t45 -123q24 -40 66.5 -60t87.5 -20h53q55 0 67.5 -28t12.5 -62z
M760 1675q0 -6 -12.5 -28.5t-29.5 -49.5t-32.5 -46.5t-21.5 -19.5q-3 0 -23 13.5t-45 32t-43.5 34.5t-18.5 21q0 6 13.5 28t31.5 48t33 45t18 19q6 0 27 -13.5t44.5 -32t41 -33.5t17.5 -18zM911 1418q0 -5 -12.5 -27.5t-30 -49.5t-32.5 -46.5t-21 -19.5q-3 0 -21.5 13
t-42 30.5t-41 31.5t-19.5 15q-6 5 -11 5t-10 -5q-2 -2 -21 -30t-39.5 -55.5t-26.5 -27.5q-4 0 -24.5 13t-45 31t-42.5 33.5t-18 20.5q0 6 13.5 28t31 48.5t32.5 46t18 19.5q9 0 37 -21t54 -42.5t28 -24.5q9 -9 13 -9q6 0 13 11q2 3 21.5 30.5t40 54.5t24.5 27q5 0 25.5 -14
t45.5 -32.5t43 -34.5t18 -19z" />
    <glyph glyph-name="uni068F.fina" unicode="&#x68f;" horiz-adv-x="1105" 
d="M1202 91q0 -34 -12.5 -62.5t-67.5 -28.5h-53q-99 0 -151 32.5t-84 100t-71 173.5q-37 -64 -71 -112.5t-80 -80.5q-67 -46 -145 -66.5t-158 -20.5q-51 0 -102 12.5t-85 42t-34 80.5q0 10 8.5 39.5t20.5 63.5t23.5 59t17.5 25q9 0 14 -21.5t9 -32.5q9 -25 48.5 -53
t141.5 -28q67 0 131.5 6.5t117 29t83.5 70t31 129.5q-9 91 -29 177.5t-37 162t-17 133.5q0 13 10.5 41t24.5 58t26.5 51.5t15.5 21.5q8 0 10.5 -6.5t3.5 -32.5q16 -107 36.5 -229.5t44 -238t47.5 -202.5t45 -123q24 -40 66.5 -60t87.5 -20h53q55 0 67.5 -28t12.5 -62z
M808 1392q0 -4 -12.5 -26t-30 -48t-33 -45.5t-22.5 -19.5q-4 0 -24.5 12.5t-45.5 30t-43.5 33t-18.5 21.5q0 5 13.5 27.5t31.5 49t34 46t20 19.5q6 0 26.5 -13.5t44.5 -32t42 -34.5t18 -20zM909 1680q0 -5 -12.5 -27.5t-30 -49.5t-32.5 -46.5t-21 -19.5q-3 0 -21.5 13
t-42 30.5t-41 31.5t-19.5 15q-6 5 -11 5t-10 -5q-2 -2 -21 -30t-39.5 -55.5t-26.5 -27.5q-4 0 -24.5 13t-45 31t-42.5 33.5t-18 20.5q0 6 13.5 28t31 48.5t32.5 46t18 19.5q9 0 37 -21t54 -42.5t28 -24.5q9 -9 13 -9q6 0 13 11q2 3 21.5 30.5t40 54.5t24.5 27q5 0 25.5 -14
t45.5 -32.5t43 -34.5t18 -19z" />
    <glyph glyph-name="uni0690.fina" unicode="&#x690;" horiz-adv-x="1105" 
d="M1202 91q0 -34 -12.5 -62.5t-67.5 -28.5h-53q-99 0 -151 32.5t-84 100t-71 173.5q-37 -64 -71 -112.5t-80 -80.5q-67 -46 -145 -66.5t-158 -20.5q-51 0 -102 12.5t-85 42t-34 80.5q0 10 8.5 39.5t20.5 63.5t23.5 59t17.5 25q9 0 14 -21.5t9 -32.5q9 -25 48.5 -53
t141.5 -28q67 0 131.5 6.5t117 29t83.5 70t31 129.5q-9 91 -29 177.5t-37 162t-17 133.5q0 13 10.5 41t24.5 58t26.5 51.5t15.5 21.5q8 0 10.5 -6.5t3.5 -32.5q16 -107 36.5 -229.5t44 -238t47.5 -202.5t45 -123q24 -40 66.5 -60t87.5 -20h53q55 0 67.5 -28t12.5 -62z
M898 1667q0 -5 -12.5 -27.5t-30 -49.5t-32.5 -46.5t-21 -19.5q-3 0 -21.5 13t-42 30.5t-41 31.5t-19.5 15q-6 5 -11 5t-10 -5q-2 -2 -21 -30t-39.5 -55.5t-26.5 -27.5q-4 0 -24.5 13t-45 31t-42.5 33.5t-18 20.5q0 6 13.5 28t31 48.5t32.5 46t18 19.5q9 0 37 -21t54 -42.5
t28 -24.5q9 -9 13 -9q6 0 13 11q2 3 21.5 30.5t40 54.5t24.5 27q5 0 25.5 -14t45.5 -32.5t43 -34.5t18 -19zM918 1417q0 -5 -12.5 -27.5t-30 -49.5t-32.5 -46.5t-21 -19.5q-3 0 -21.5 13t-42 30.5t-41 31.5t-19.5 15q-6 5 -11 5t-10 -5q-2 -2 -21 -30t-39.5 -55.5
t-26.5 -27.5q-4 0 -24.5 13t-45 31t-42.5 33.5t-18 20.5q0 6 13.5 28t31 48.5t32.5 46t18 19.5q9 0 37 -21t54 -42.5t28 -24.5q9 -9 13 -9q6 0 13 11q2 3 21.5 30.5t40 54.5t24.5 27q5 0 25.5 -14t45.5 -32.5t43 -34.5t18 -19z" />
    <glyph glyph-name="uni0691.fina" unicode="&#x691;" horiz-adv-x="706" arabic-form="final" 
d="M805 91q0 -34 -12.5 -62.5t-67.5 -28.5h-54q-10 0 -20.5 1.5t-24.5 1.5q-13 -123 -49.5 -240.5t-135.5 -238.5q-55 -66 -126.5 -108t-172.5 -42q-54 0 -121.5 13.5t-116.5 29.5t-49 25q0 8 8 14t15 6q5 0 31.5 -4.5t45.5 -4.5q85 0 205 49t236 164q63 64 97.5 123.5
t48 102.5t13.5 54q0 9 -16 33.5t-37.5 53.5t-37.5 52.5t-16 30.5q0 5 15.5 39.5t32 71t20.5 46.5h9q29 -33 64.5 -62.5t81.5 -29.5h54q55 0 67.5 -28t12.5 -62zM811 679q0 -75 -51.5 -125t-130.5 -78.5t-162.5 -41t-147.5 -12.5q-22 0 -49.5 19t-47.5 43t-20 40q0 13 11 13
q16 0 44 -3.5t56 -3.5q55 0 73 49q8 21 10.5 42t2.5 32q0 66 -11.5 121t-23.5 110.5t-12 122.5q0 35 15 66.5t30 31.5q5 0 19.5 -22.5t28 -46t12.5 -25.5q-11 -10 -21 -24.5t-10 -43.5q0 -39 7 -66.5t14 -62t7 -94.5q0 -19 -1 -41t-3 -46q141 166 253 166q52 0 80 -35.5
t28 -84.5zM747 636q0 15 -30.5 25.5t-58.5 10.5q-54 0 -102 -28.5t-112 -105.5q115 9 181 31t94 42.5t28 24.5z" />
    <glyph glyph-name="uni0692.fina" unicode="&#x692;" horiz-adv-x="706" 
d="M805 91q0 -34 -12.5 -62.5t-67.5 -28.5h-54q-10 0 -20.5 1.5t-24.5 1.5q-13 -123 -49.5 -240.5t-135.5 -238.5q-55 -66 -126.5 -108t-172.5 -42q-54 0 -121.5 13.5t-116.5 29.5t-49 25q0 8 8 14t15 6q5 0 31.5 -4.5t45.5 -4.5q85 0 205 49t236 164q63 64 97.5 123.5
t48 102.5t13.5 54q0 9 -16 33.5t-37.5 53.5t-37.5 52.5t-16 30.5q0 5 15.5 39.5t32 71t20.5 46.5h9q29 -33 64.5 -62.5t81.5 -29.5h54q55 0 67.5 -28t12.5 -62zM708 801q0 -4 -0.5 -20t-0.5 -30q0 -39 -10 -46q-20 -14 -59 -52t-74 -93t-44 -122q-1 -7 -9 -7t-9 7
q-37 110 -84.5 166.5t-83 77.5t-38.5 21q-5 2 -4.5 27t4 49.5t6.5 23.5q22 -4 64 -32t83.5 -81.5t60.5 -135.5q14 81 55 137.5t82.5 86.5t55.5 30q5 0 5 -7z" />
    <glyph glyph-name="uni0693.fina" unicode="&#x693;" horiz-adv-x="706" 
d="M805 91q0 -34 -12.5 -62.5t-67.5 -28.5h-54q-10 0 -20.5 1.5t-24.5 1.5q-13 -123 -49.5 -240.5t-135.5 -238.5q-55 -66 -126.5 -108t-172.5 -42q-54 0 -121.5 13.5t-116.5 29.5t-49 25q0 8 8 14t15 6q5 0 31.5 -4.5t45.5 -4.5q85 0 205 49t236 164q63 64 97.5 123.5
t48 102.5t13.5 54q0 9 -16 33.5t-37.5 53.5t-37.5 52.5t-16 30.5q0 5 15.5 39.5t32 71t20.5 46.5h9q29 -33 64.5 -62.5t81.5 -29.5h54q55 0 67.5 -28t12.5 -62zM654 -589q0 -91 -60.5 -157.5t-153.5 -66.5q-137 0 -137 198q0 86 55.5 152t144.5 66q41 0 75.5 -32t55 -76.5
t20.5 -83.5zM574 -631q0 23 -22.5 50t-55 46.5t-61.5 19.5q-36 0 -58 -27.5t-22 -59.5q0 -34 37 -54.5t82 -20.5q26 0 63 14.5t37 31.5z" />
    <glyph glyph-name="uni0694.fina" unicode="&#x694;" horiz-adv-x="706" 
d="M805 91q0 -34 -12.5 -62.5t-67.5 -28.5h-54q-10 0 -20.5 1.5t-24.5 1.5q-13 -123 -49.5 -240.5t-135.5 -238.5q-55 -66 -126.5 -108t-172.5 -42q-54 0 -121.5 13.5t-116.5 29.5t-49 25q0 8 8 14t15 6q5 0 31.5 -4.5t45.5 -4.5q85 0 205 49t236 164q63 64 97.5 123.5
t48 102.5t13.5 54q0 9 -16 33.5t-37.5 53.5t-37.5 52.5t-16 30.5q0 5 15.5 39.5t32 71t20.5 46.5h9q29 -33 64.5 -62.5t81.5 -29.5h54q55 0 67.5 -28t12.5 -62zM620 -796q0 -5 -12.5 -27.5t-30 -49t-33.5 -46t-22 -19.5q-3 0 -23.5 13t-45.5 30.5t-43.5 33t-18.5 20.5
q0 6 13 28t31 48.5t33.5 46t19.5 19.5q6 0 27 -13.5t45 -31.5t42 -33.5t18 -18.5z" />
    <glyph glyph-name="uni0695.fina" unicode="&#x695;" horiz-adv-x="706" 
d="M805 91q0 -34 -12.5 -62.5t-67.5 -28.5h-54q-10 0 -20.5 1.5t-24.5 1.5q-13 -123 -49.5 -240.5t-135.5 -238.5q-55 -66 -126.5 -108t-172.5 -42q-54 0 -121.5 13.5t-116.5 29.5t-49 25q0 8 8 14t15 6q5 0 31.5 -4.5t45.5 -4.5q85 0 205 49t236 164q63 64 97.5 123.5
t48 102.5t13.5 54q0 9 -16 33.5t-37.5 53.5t-37.5 52.5t-16 30.5q0 5 15.5 39.5t32 71t20.5 46.5h9q29 -33 64.5 -62.5t81.5 -29.5h54q55 0 67.5 -28t12.5 -62zM708 -697q0 -4 -0.5 -20t-0.5 -30q0 -39 -10 -46q-20 -14 -59 -52t-74 -93t-44 -122q-1 -7 -9 -7t-9 7
q-37 110 -84.5 166.5t-83 77.5t-38.5 21q-5 2 -4.5 27t4 49.5t6.5 23.5q22 -4 64 -32t83.5 -81.5t60.5 -135.5q14 81 55 137.5t82.5 86.5t55.5 30q5 0 5 -7z" />
    <glyph glyph-name="uni0696.fina" unicode="&#x696;" horiz-adv-x="706" 
d="M805 91q0 -34 -12.5 -62.5t-67.5 -28.5h-54q-10 0 -20.5 1.5t-24.5 1.5q-13 -123 -49.5 -240.5t-135.5 -238.5q-55 -66 -126.5 -108t-172.5 -42q-54 0 -121.5 13.5t-116.5 29.5t-49 25q0 8 8 14t15 6q5 0 31.5 -4.5t45.5 -4.5q85 0 205 49t236 164q63 64 97.5 123.5
t48 102.5t13.5 54q0 9 -16 33.5t-37.5 53.5t-37.5 52.5t-16 30.5q0 5 15.5 39.5t32 71t20.5 46.5h9q29 -33 64.5 -62.5t81.5 -29.5h54q55 0 67.5 -28t12.5 -62zM620 -796q0 -5 -12.5 -27.5t-30 -49t-33.5 -46t-22 -19.5q-3 0 -23.5 13t-45.5 30.5t-43.5 33t-18.5 20.5
q0 6 13 28t31 48.5t33.5 46t19.5 19.5q6 0 27 -13.5t45 -31.5t42 -33.5t18 -18.5zM327 20q0 -5 -12.5 -27.5t-30 -49t-33.5 -46t-22 -19.5q-3 0 -23.5 13t-45.5 30.5t-43.5 33t-18.5 20.5q0 6 13 28t31 48.5t33.5 46t19.5 19.5q6 0 27 -13.5t45 -31.5t42 -33.5t18 -18.5z
" />
    <glyph glyph-name="uni0697.fina" unicode="&#x697;" horiz-adv-x="706" 
d="M805 91q0 -34 -12.5 -62.5t-67.5 -28.5h-54q-10 0 -20.5 1.5t-24.5 1.5q-13 -123 -49.5 -240.5t-135.5 -238.5q-55 -66 -126.5 -108t-172.5 -42q-54 0 -121.5 13.5t-116.5 29.5t-49 25q0 8 8 14t15 6q5 0 31.5 -4.5t45.5 -4.5q85 0 205 49t236 164q63 64 97.5 123.5
t48 102.5t13.5 54q0 9 -16 33.5t-37.5 53.5t-37.5 52.5t-16 30.5q0 5 15.5 39.5t32 71t20.5 46.5h9q29 -33 64.5 -62.5t81.5 -29.5h54q55 0 67.5 -28t12.5 -62zM735 590q0 -5 -12.5 -27.5t-30 -49.5t-32.5 -46.5t-21 -19.5q-3 0 -21.5 13t-42 30.5t-41 31.5t-19.5 15
q-6 5 -11 5t-10 -5q-2 -2 -21 -30t-39.5 -55.5t-26.5 -27.5q-4 0 -24.5 13t-45 31t-42.5 33.5t-18 20.5q0 6 13.5 28t31 48.5t32.5 46t18 19.5q9 0 37 -21t54 -42.5t28 -24.5q9 -9 13 -9q6 0 13 11q2 3 21.5 30.5t40 54.5t24.5 27q5 0 25.5 -14t45.5 -32.5t43 -34.5t18 -19z
" />
    <glyph glyph-name="uni0698.fina" unicode="&#x698;" horiz-adv-x="706" arabic-form="final" 
d="M805 91q0 -34 -12.5 -62.5t-67.5 -28.5h-54q-10 0 -20.5 1.5t-24.5 1.5q-13 -123 -49.5 -240.5t-135.5 -238.5q-55 -66 -126.5 -108t-172.5 -42q-54 0 -121.5 13.5t-116.5 29.5t-49 25q0 8 8 14t15 6q5 0 31.5 -4.5t45.5 -4.5q85 0 205 49t236 164q63 64 97.5 123.5
t48 102.5t13.5 54q0 9 -16 33.5t-37.5 53.5t-37.5 52.5t-16 30.5q0 5 15.5 39.5t32 71t20.5 46.5h9q29 -33 64.5 -62.5t81.5 -29.5h54q55 0 67.5 -28t12.5 -62zM587 846q0 -6 -12.5 -28.5t-29.5 -49.5t-32.5 -46.5t-21.5 -19.5q-3 0 -23 13.5t-45 32t-43.5 34.5t-18.5 21
q0 6 13.5 28t31.5 48t33 45t18 19q6 0 27 -13.5t44.5 -32t41 -33.5t17.5 -18zM738 589q0 -5 -12.5 -27.5t-30 -49.5t-32.5 -46.5t-21 -19.5q-3 0 -21.5 13t-42 30.5t-41 31.5t-19.5 15q-6 5 -11 5t-10 -5q-2 -2 -21 -30t-39.5 -55.5t-26.5 -27.5q-4 0 -24.5 13t-45 31
t-42.5 33.5t-18 20.5q0 6 13.5 28t31 48.5t32.5 46t18 19.5q9 0 37 -21t54 -42.5t28 -24.5q9 -9 13 -9q6 0 13 11q2 3 21.5 30.5t40 54.5t24.5 27q5 0 25.5 -14t45.5 -32.5t43 -34.5t18 -19z" />
    <glyph glyph-name="uni0699.fina" unicode="&#x699;" horiz-adv-x="706" 
d="M805 91q0 -34 -12.5 -62.5t-67.5 -28.5h-54q-10 0 -20.5 1.5t-24.5 1.5q-13 -123 -49.5 -240.5t-135.5 -238.5q-55 -66 -126.5 -108t-172.5 -42q-54 0 -121.5 13.5t-116.5 29.5t-49 25q0 8 8 14t15 6q5 0 31.5 -4.5t45.5 -4.5q85 0 205 49t236 164q63 64 97.5 123.5
t48 102.5t13.5 54q0 9 -16 33.5t-37.5 53.5t-37.5 52.5t-16 30.5q0 5 15.5 39.5t32 71t20.5 46.5h9q29 -33 64.5 -62.5t81.5 -29.5h54q55 0 67.5 -28t12.5 -62zM725 838q0 -5 -12.5 -27.5t-30 -49.5t-32.5 -46.5t-21 -19.5q-3 0 -21.5 13t-42 30.5t-41 31.5t-19.5 15
q-6 5 -11 5t-10 -5q-2 -2 -21 -30t-39.5 -55.5t-26.5 -27.5q-4 0 -24.5 13t-45 31t-42.5 33.5t-18 20.5q0 6 13.5 28t31 48.5t32.5 46t18 19.5q9 0 37 -21t54 -42.5t28 -24.5q9 -9 13 -9q6 0 13 11q2 3 21.5 30.5t40 54.5t24.5 27q5 0 25.5 -14t45.5 -32.5t43 -34.5t18 -19z
M745 588q0 -5 -12.5 -27.5t-30 -49.5t-32.5 -46.5t-21 -19.5q-3 0 -21.5 13t-42 30.5t-41 31.5t-19.5 15q-6 5 -11 5t-10 -5q-2 -2 -21 -30t-39.5 -55.5t-26.5 -27.5q-4 0 -24.5 13t-45 31t-42.5 33.5t-18 20.5q0 6 13.5 28t31 48.5t32.5 46t18 19.5q9 0 37 -21t54 -42.5
t28 -24.5q9 -9 13 -9q6 0 13 11q2 3 21.5 30.5t40 54.5t24.5 27q5 0 25.5 -14t45.5 -32.5t43 -34.5t18 -19z" />
    <glyph glyph-name="uni069A.init" unicode="&#x69a;" horiz-adv-x="1331" 
d="M1182 428q0 -43 -11.5 -98.5t-35 -107t-59 -85t-84.5 -33.5q-53 0 -92 23t-65 51.5t-42 44.5q-29 -49 -69 -100t-91 -85.5t-114 -34.5q-68 0 -123 34.5t-93 113.5q-55 -82 -123.5 -116.5t-143.5 -34.5h-53q-55 0 -67.5 28.5t-12.5 62.5t12.5 62t67.5 28h53q96 0 154 29
t91 67.5t50.5 67.5t31.5 29t17 -28t12.5 -65.5t42.5 -65.5t106 -28t133.5 35.5t99 96.5t45.5 135q4 30 22 30q2 0 9 -8.5t8 -27.5q9 -61 48.5 -94.5t84.5 -46.5t72 -13q7 0 27.5 12.5t20.5 22.5q0 14 -16.5 29.5t-33 27t-16.5 14.5q0 5 7 32t17.5 59.5t20 57t15.5 24.5
q16 0 34 -27.5t30.5 -62t12.5 -55.5zM839 836q0 -5 -12.5 -27.5t-30 -49t-33.5 -46t-22 -19.5q-3 0 -23.5 13t-45.5 30.5t-43.5 33t-18.5 20.5q0 6 13 28t31 48.5t33.5 46t19.5 19.5q6 0 27 -13.5t45 -31.5t42 -33.5t18 -18.5zM845 -235q0 -5 -12.5 -27.5t-30 -49t-33.5 -46
t-22 -19.5q-3 0 -23.5 13t-45.5 30.5t-43.5 33t-18.5 20.5q0 6 13 28t31 48.5t33.5 46t19.5 19.5q6 0 27 -13.5t45 -31.5t42 -33.5t18 -18.5z" />
    <glyph glyph-name="uni069A.medi" unicode="&#x69a;" horiz-adv-x="1476" 
d="M1573 91q0 -34 -12.5 -62.5t-66.5 -28.5h-54q-77 0 -136 64.5t-102 164.5q-39 -82 -89 -137.5t-133 -55.5q-77 0 -111.5 38t-52.5 90q-55 -76 -122 -118.5t-175 -42.5q-68 0 -123 34.5t-93 113.5q-55 -82 -123.5 -116.5t-143.5 -34.5h-53q-55 0 -67.5 28.5t-12.5 62.5
t12.5 62t67.5 28h53q96 0 154 29t91 67.5t50.5 67.5t31.5 29t17 -28t12.5 -65.5t42.5 -65.5t106 -28q98 0 160.5 33t99 76t55.5 76t29 33q4 0 12.5 -9t8.5 -31q0 -40 22.5 -80.5t93.5 -40.5q52 0 85 25t52.5 58t30.5 58t19 25q13 0 24 -33q10 -32 35 -78.5t67.5 -82
t104.5 -35.5h54q54 0 66.5 -28t12.5 -62zM852 697q0 -5 -12.5 -27.5t-30 -49t-33.5 -46t-22 -19.5q-3 0 -23.5 13t-45.5 30.5t-43.5 33t-18.5 20.5q0 6 13 28t31 48.5t33.5 46t19.5 19.5q6 0 27 -13.5t45 -31.5t42 -33.5t18 -18.5zM852 -242q0 -5 -12.5 -27.5t-30 -49
t-33.5 -46t-22 -19.5q-3 0 -23.5 13t-45.5 30.5t-43.5 33t-18.5 20.5q0 6 13 28t31 48.5t33.5 46t19.5 19.5q6 0 27 -13.5t45 -31.5t42 -33.5t18 -18.5z" />
    <glyph glyph-name="uni069A.fina" unicode="&#x69a;" horiz-adv-x="2040" 
d="M2137 91q0 -34 -12.5 -62.5t-66.5 -28.5h-54q-73 0 -127.5 60t-106.5 172q-40 -82 -88.5 -137.5t-131.5 -55.5q-65 0 -97.5 24t-46 54.5t-23.5 49.5q-37 -51 -66.5 -82.5t-71 -46.5t-114.5 -15q0 -54 -2.5 -91.5t-8 -73.5t-15.5 -87q-31 -152 -105 -247.5t-173.5 -147
t-209 -70.5t-210.5 -19q-113 0 -195 49.5t-126 130.5t-44 176q0 70 22.5 140.5t52.5 129t56.5 94t33.5 35.5q19 0 19 -16q0 -12 -25 -53.5t-50.5 -105.5t-25.5 -143q0 -72 35.5 -120.5t90 -77.5t113.5 -42t106 -13q83 0 170 11.5t162.5 33.5t121.5 53q76 51 103 122.5
t27 177.5q0 91 -19 147t-38.5 87t-19.5 45q0 8 10 32.5t23.5 53t26 49t17.5 20.5q37 -53 54 -113q98 0 160.5 33t99 75.5t55 75.5t28.5 33q6 0 14 -8.5t8 -30.5q0 -40 22.5 -80.5t93.5 -40.5q52 0 85 25t52.5 58t30.5 58t19 25q12 0 23 -33q11 -27 35.5 -74.5t66.5 -86
t103 -38.5h54q54 0 66.5 -28t12.5 -62zM1519 697q0 -5 -12.5 -27.5t-30 -49t-33.5 -46t-22 -19.5q-3 0 -23.5 13t-45.5 30.5t-43.5 33t-18.5 20.5q0 6 13 28t31 48.5t33.5 46t19.5 19.5q6 0 27 -13.5t45 -31.5t42 -33.5t18 -18.5zM1616 -264q0 -5 -12.5 -27.5t-30 -49
t-33.5 -46t-22 -19.5q-3 0 -23.5 13t-45.5 30.5t-43.5 33t-18.5 20.5q0 6 13 28t31 48.5t33.5 46t19.5 19.5q6 0 27 -13.5t45 -31.5t42 -33.5t18 -18.5z" />
    <glyph glyph-name="uni069B.init" unicode="&#x69b;" horiz-adv-x="1331" 
d="M1182 428q0 -43 -11.5 -98.5t-35 -107t-59 -85t-84.5 -33.5q-53 0 -92 23t-65 51.5t-42 44.5q-29 -49 -69 -100t-91 -85.5t-114 -34.5q-68 0 -123 34.5t-93 113.5q-55 -82 -123.5 -116.5t-143.5 -34.5h-53q-55 0 -67.5 28.5t-12.5 62.5t12.5 62t67.5 28h53q96 0 154 29
t91 67.5t50.5 67.5t31.5 29t17 -28t12.5 -65.5t42.5 -65.5t106 -28t133.5 35.5t99 96.5t45.5 135q4 30 22 30q2 0 9 -8.5t8 -27.5q9 -61 48.5 -94.5t84.5 -46.5t72 -13q7 0 27.5 12.5t20.5 22.5q0 14 -16.5 29.5t-33 27t-16.5 14.5q0 5 7 32t17.5 59.5t20 57t15.5 24.5
q16 0 34 -27.5t30.5 -62t12.5 -55.5zM860 -523q0 -4 -12.5 -26t-30 -48t-33 -45.5t-22.5 -19.5q-4 0 -24.5 12.5t-45.5 30t-43.5 33t-18.5 21.5q0 5 13.5 27.5t31.5 49t34 46t20 19.5q6 0 26.5 -13.5t44.5 -32t42 -34.5t18 -20zM961 -235q0 -5 -12.5 -27.5t-30 -49.5
t-32.5 -46.5t-21 -19.5q-3 0 -21.5 13t-42 30.5t-41 31.5t-19.5 15q-6 5 -11 5t-10 -5q-2 -2 -21 -30t-39.5 -55.5t-26.5 -27.5q-4 0 -24.5 13t-45 31t-42.5 33.5t-18 20.5q0 6 13.5 28t31 48.5t32.5 46t18 19.5q9 0 37 -21t54 -42.5t28 -24.5q9 -9 13 -9q6 0 13 11
q2 3 21.5 30.5t40 54.5t24.5 27q5 0 25.5 -14t45.5 -32.5t43 -34.5t18 -19z" />
    <glyph glyph-name="uni069B.medi" unicode="&#x69b;" horiz-adv-x="1476" 
d="M1573 91q0 -34 -12.5 -62.5t-66.5 -28.5h-54q-77 0 -136 64.5t-102 164.5q-39 -82 -89 -137.5t-133 -55.5q-77 0 -111.5 38t-52.5 90q-55 -76 -122 -118.5t-175 -42.5q-68 0 -123 34.5t-93 113.5q-55 -82 -123.5 -116.5t-143.5 -34.5h-53q-55 0 -67.5 28.5t-12.5 62.5
t12.5 62t67.5 28h53q96 0 154 29t91 67.5t50.5 67.5t31.5 29t17 -28t12.5 -65.5t42.5 -65.5t106 -28q98 0 160.5 33t99 76t55.5 76t29 33q4 0 12.5 -9t8.5 -31q0 -40 22.5 -80.5t93.5 -40.5q52 0 85 25t52.5 58t30.5 58t19 25q13 0 24 -33q10 -32 35 -78.5t67.5 -82
t104.5 -35.5h54q54 0 66.5 -28t12.5 -62zM868 -531q0 -4 -12.5 -26t-30 -48t-33 -45.5t-22.5 -19.5q-4 0 -24.5 12.5t-45.5 30t-43.5 33t-18.5 21.5q0 5 13.5 27.5t31.5 49t34 46t20 19.5q6 0 26.5 -13.5t44.5 -32t42 -34.5t18 -20zM969 -243q0 -5 -12.5 -27.5t-30 -49.5
t-32.5 -46.5t-21 -19.5q-3 0 -21.5 13t-42 30.5t-41 31.5t-19.5 15q-6 5 -11 5t-10 -5q-2 -2 -21 -30t-39.5 -55.5t-26.5 -27.5q-4 0 -24.5 13t-45 31t-42.5 33.5t-18 20.5q0 6 13.5 28t31 48.5t32.5 46t18 19.5q9 0 37 -21t54 -42.5t28 -24.5q9 -9 13 -9q6 0 13 11
q2 3 21.5 30.5t40 54.5t24.5 27q5 0 25.5 -14t45.5 -32.5t43 -34.5t18 -19z" />
    <glyph glyph-name="uni069B.fina" unicode="&#x69b;" horiz-adv-x="2040" 
d="M2137 91q0 -34 -12.5 -62.5t-66.5 -28.5h-54q-73 0 -127.5 60t-106.5 172q-40 -82 -88.5 -137.5t-131.5 -55.5q-65 0 -97.5 24t-46 54.5t-23.5 49.5q-37 -51 -66.5 -82.5t-71 -46.5t-114.5 -15q0 -54 -2.5 -91.5t-8 -73.5t-15.5 -87q-31 -152 -105 -247.5t-173.5 -147
t-209 -70.5t-210.5 -19q-113 0 -195 49.5t-126 130.5t-44 176q0 70 22.5 140.5t52.5 129t56.5 94t33.5 35.5q19 0 19 -16q0 -12 -25 -53.5t-50.5 -105.5t-25.5 -143q0 -72 35.5 -120.5t90 -77.5t113.5 -42t106 -13q83 0 170 11.5t162.5 33.5t121.5 53q76 51 103 122.5
t27 177.5q0 91 -19 147t-38.5 87t-19.5 45q0 8 10 32.5t23.5 53t26 49t17.5 20.5q37 -53 54 -113q98 0 160.5 33t99 75.5t55 75.5t28.5 33q6 0 14 -8.5t8 -30.5q0 -40 22.5 -80.5t93.5 -40.5q52 0 85 25t52.5 58t30.5 58t19 25q12 0 23 -33q11 -27 35.5 -74.5t66.5 -86
t103 -38.5h54q54 0 66.5 -28t12.5 -62zM1632 -552q0 -4 -12.5 -26t-30 -48t-33 -45.5t-22.5 -19.5q-4 0 -24.5 12.5t-45.5 30t-43.5 33t-18.5 21.5q0 5 13.5 27.5t31.5 49t34 46t20 19.5q6 0 26.5 -13.5t44.5 -32t42 -34.5t18 -20zM1733 -264q0 -5 -12.5 -27.5t-30 -49.5
t-32.5 -46.5t-21 -19.5q-3 0 -21.5 13t-42 30.5t-41 31.5t-19.5 15q-6 5 -11 5t-10 -5q-2 -2 -21 -30t-39.5 -55.5t-26.5 -27.5q-4 0 -24.5 13t-45 31t-42.5 33.5t-18 20.5q0 6 13.5 28t31 48.5t32.5 46t18 19.5q9 0 37 -21t54 -42.5t28 -24.5q9 -9 13 -9q6 0 13 11
q2 3 21.5 30.5t40 54.5t24.5 27q5 0 25.5 -14t45.5 -32.5t43 -34.5t18 -19z" />
    <glyph glyph-name="uni069C.init" unicode="&#x69c;" horiz-adv-x="1331" 
d="M1182 428q0 -43 -11.5 -98.5t-35 -107t-59 -85t-84.5 -33.5q-53 0 -92 23t-65 51.5t-42 44.5q-29 -49 -69 -100t-91 -85.5t-114 -34.5q-68 0 -123 34.5t-93 113.5q-55 -82 -123.5 -116.5t-143.5 -34.5h-53q-55 0 -67.5 28.5t-12.5 62.5t12.5 62t67.5 28h53q96 0 154 29
t91 67.5t50.5 67.5t31.5 29t17 -28t12.5 -65.5t42.5 -65.5t106 -28t133.5 35.5t99 96.5t45.5 135q4 30 22 30q2 0 9 -8.5t8 -27.5q9 -61 48.5 -94.5t84.5 -46.5t72 -13q7 0 27.5 12.5t20.5 22.5q0 14 -16.5 29.5t-33 27t-16.5 14.5q0 5 7 32t17.5 59.5t20 57t15.5 24.5
q16 0 34 -27.5t30.5 -62t12.5 -55.5zM806 1117q0 -6 -12.5 -28.5t-29.5 -49.5t-32.5 -46.5t-21.5 -19.5q-3 0 -23 13.5t-45 32t-43.5 34.5t-18.5 21q0 6 13.5 28t31.5 48t33 45t18 19q6 0 27 -13.5t44.5 -32t41 -33.5t17.5 -18zM957 860q0 -5 -12.5 -27.5t-30 -49.5
t-32.5 -46.5t-21 -19.5q-3 0 -21.5 13t-42 30.5t-41 31.5t-19.5 15q-6 5 -11 5t-10 -5q-2 -2 -21 -30t-39.5 -55.5t-26.5 -27.5q-4 0 -24.5 13t-45 31t-42.5 33.5t-18 20.5q0 6 13.5 28t31 48.5t32.5 46t18 19.5q9 0 37 -21t54 -42.5t28 -24.5q9 -9 13 -9q6 0 13 11
q2 3 21.5 30.5t40 54.5t24.5 27q5 0 25.5 -14t45.5 -32.5t43 -34.5t18 -19zM860 -523q0 -4 -12.5 -26t-30 -48t-33 -45.5t-22.5 -19.5q-4 0 -24.5 12.5t-45.5 30t-43.5 33t-18.5 21.5q0 5 13.5 27.5t31.5 49t34 46t20 19.5q6 0 26.5 -13.5t44.5 -32t42 -34.5t18 -20z
M961 -235q0 -5 -12.5 -27.5t-30 -49.5t-32.5 -46.5t-21 -19.5q-3 0 -21.5 13t-42 30.5t-41 31.5t-19.5 15q-6 5 -11 5t-10 -5q-2 -2 -21 -30t-39.5 -55.5t-26.5 -27.5q-4 0 -24.5 13t-45 31t-42.5 33.5t-18 20.5q0 6 13.5 28t31 48.5t32.5 46t18 19.5q9 0 37 -21t54 -42.5
t28 -24.5q9 -9 13 -9q6 0 13 11q2 3 21.5 30.5t40 54.5t24.5 27q5 0 25.5 -14t45.5 -32.5t43 -34.5t18 -19z" />
    <glyph glyph-name="uni069C.medi" unicode="&#x69c;" horiz-adv-x="1476" 
d="M1573 91q0 -34 -12.5 -62.5t-66.5 -28.5h-54q-77 0 -136 64.5t-102 164.5q-39 -82 -89 -137.5t-133 -55.5q-77 0 -111.5 38t-52.5 90q-55 -76 -122 -118.5t-175 -42.5q-68 0 -123 34.5t-93 113.5q-55 -82 -123.5 -116.5t-143.5 -34.5h-53q-55 0 -67.5 28.5t-12.5 62.5
t12.5 62t67.5 28h53q96 0 154 29t91 67.5t50.5 67.5t31.5 29t17 -28t12.5 -65.5t42.5 -65.5t106 -28q98 0 160.5 33t99 76t55.5 76t29 33q4 0 12.5 -9t8.5 -31q0 -40 22.5 -80.5t93.5 -40.5q52 0 85 25t52.5 58t30.5 58t19 25q13 0 24 -33q10 -32 35 -78.5t67.5 -82
t104.5 -35.5h54q54 0 66.5 -28t12.5 -62zM819 978q0 -6 -12.5 -28.5t-29.5 -49.5t-32.5 -46.5t-21.5 -19.5q-3 0 -23 13.5t-45 32t-43.5 34.5t-18.5 21q0 6 13.5 28t31.5 48t33 45t18 19q6 0 27 -13.5t44.5 -32t41 -33.5t17.5 -18zM970 721q0 -5 -12.5 -27.5t-30 -49.5
t-32.5 -46.5t-21 -19.5q-3 0 -21.5 13t-42 30.5t-41 31.5t-19.5 15q-6 5 -11 5t-10 -5q-2 -2 -21 -30t-39.5 -55.5t-26.5 -27.5q-4 0 -24.5 13t-45 31t-42.5 33.5t-18 20.5q0 6 13.5 28t31 48.5t32.5 46t18 19.5q9 0 37 -21t54 -42.5t28 -24.5q9 -9 13 -9q6 0 13 11
q2 3 21.5 30.5t40 54.5t24.5 27q5 0 25.5 -14t45.5 -32.5t43 -34.5t18 -19zM868 -531q0 -4 -12.5 -26t-30 -48t-33 -45.5t-22.5 -19.5q-4 0 -24.5 12.5t-45.5 30t-43.5 33t-18.5 21.5q0 5 13.5 27.5t31.5 49t34 46t20 19.5q6 0 26.5 -13.5t44.5 -32t42 -34.5t18 -20z
M969 -243q0 -5 -12.5 -27.5t-30 -49.5t-32.5 -46.5t-21 -19.5q-3 0 -21.5 13t-42 30.5t-41 31.5t-19.5 15q-6 5 -11 5t-10 -5q-2 -2 -21 -30t-39.5 -55.5t-26.5 -27.5q-4 0 -24.5 13t-45 31t-42.5 33.5t-18 20.5q0 6 13.5 28t31 48.5t32.5 46t18 19.5q9 0 37 -21t54 -42.5
t28 -24.5q9 -9 13 -9q6 0 13 11q2 3 21.5 30.5t40 54.5t24.5 27q5 0 25.5 -14t45.5 -32.5t43 -34.5t18 -19z" />
    <glyph glyph-name="uni069C.fina" unicode="&#x69c;" horiz-adv-x="2040" 
d="M2137 91q0 -34 -12.5 -62.5t-66.5 -28.5h-54q-73 0 -127.5 60t-106.5 172q-40 -82 -88.5 -137.5t-131.5 -55.5q-65 0 -97.5 24t-46 54.5t-23.5 49.5q-37 -51 -66.5 -82.5t-71 -46.5t-114.5 -15q0 -54 -2.5 -91.5t-8 -73.5t-15.5 -87q-31 -152 -105 -247.5t-173.5 -147
t-209 -70.5t-210.5 -19q-113 0 -195 49.5t-126 130.5t-44 176q0 70 22.5 140.5t52.5 129t56.5 94t33.5 35.5q19 0 19 -16q0 -12 -25 -53.5t-50.5 -105.5t-25.5 -143q0 -72 35.5 -120.5t90 -77.5t113.5 -42t106 -13q83 0 170 11.5t162.5 33.5t121.5 53q76 51 103 122.5
t27 177.5q0 91 -19 147t-38.5 87t-19.5 45q0 8 10 32.5t23.5 53t26 49t17.5 20.5q37 -53 54 -113q98 0 160.5 33t99 75.5t55 75.5t28.5 33q6 0 14 -8.5t8 -30.5q0 -40 22.5 -80.5t93.5 -40.5q52 0 85 25t52.5 58t30.5 58t19 25q12 0 23 -33q11 -27 35.5 -74.5t66.5 -86
t103 -38.5h54q54 0 66.5 -28t12.5 -62zM1486 978q0 -6 -12.5 -28.5t-29.5 -49.5t-32.5 -46.5t-21.5 -19.5q-3 0 -23 13.5t-45 32t-43.5 34.5t-18.5 21q0 6 13.5 28t31.5 48t33 45t18 19q6 0 27 -13.5t44.5 -32t41 -33.5t17.5 -18zM1637 721q0 -5 -12.5 -27.5t-30 -49.5
t-32.5 -46.5t-21 -19.5q-3 0 -21.5 13t-42 30.5t-41 31.5t-19.5 15q-6 5 -11 5t-10 -5q-2 -2 -21 -30t-39.5 -55.5t-26.5 -27.5q-4 0 -24.5 13t-45 31t-42.5 33.5t-18 20.5q0 6 13.5 28t31 48.5t32.5 46t18 19.5q9 0 37 -21t54 -42.5t28 -24.5q9 -9 13 -9q6 0 13 11
q2 3 21.5 30.5t40 54.5t24.5 27q5 0 25.5 -14t45.5 -32.5t43 -34.5t18 -19zM1632 -552q0 -4 -12.5 -26t-30 -48t-33 -45.5t-22.5 -19.5q-4 0 -24.5 12.5t-45.5 30t-43.5 33t-18.5 21.5q0 5 13.5 27.5t31.5 49t34 46t20 19.5q6 0 26.5 -13.5t44.5 -32t42 -34.5t18 -20z
M1733 -264q0 -5 -12.5 -27.5t-30 -49.5t-32.5 -46.5t-21 -19.5q-3 0 -21.5 13t-42 30.5t-41 31.5t-19.5 15q-6 5 -11 5t-10 -5q-2 -2 -21 -30t-39.5 -55.5t-26.5 -27.5q-4 0 -24.5 13t-45 31t-42.5 33.5t-18 20.5q0 6 13.5 28t31 48.5t32.5 46t18 19.5q9 0 37 -21t54 -42.5
t28 -24.5q9 -9 13 -9q6 0 13 11q2 3 21.5 30.5t40 54.5t24.5 27q5 0 25.5 -14t45.5 -32.5t43 -34.5t18 -19z" />
    <glyph glyph-name="uni069D.init" unicode="&#x69d;" horiz-adv-x="1755" 
d="M1607 487q0 -90 -49 -160t-131 -122.5t-182 -89t-204 -59.5t-197.5 -34t-160.5 -13q-8 -17 -22 -55.5t-25.5 -79.5t-14.5 -67q-9 0 -24.5 23.5t-15.5 38.5q0 14 16 60t27 80q-74 0 -135.5 6.5t-108 39t-77.5 109.5q-40 -63 -104.5 -113.5t-162.5 -50.5h-53
q-55 0 -67.5 28.5t-12.5 62.5t12.5 62t67.5 28h53q93 0 153 29.5t95.5 68.5t53 68.5t25.5 29.5t15.5 -34t13.5 -60q9 -48 51 -70t96.5 -28.5t101.5 -6.5h59q54 77 133.5 169.5t175 176.5t198 138t201.5 54q71 0 115 -38t64 -91.5t20 -99.5zM1499 400q0 34 -56 72t-137 38
q-90 0 -192 -42t-191.5 -116t-143.5 -171q120 0 246.5 25.5t234 62.5t173.5 73t66 58zM1227 -285q0 -5 -12.5 -27.5t-30 -49.5t-32.5 -46.5t-21 -19.5q-3 0 -21.5 13t-42 30.5t-41 31.5t-19.5 15q-6 5 -11 5t-10 -5q-2 -2 -21 -30t-39.5 -55.5t-26.5 -27.5q-4 0 -24.5 13
t-45 31t-42.5 33.5t-18 20.5q0 6 13.5 28t31 48.5t32.5 46t18 19.5q9 0 37 -21t54 -42.5t28 -24.5q9 -9 13 -9q6 0 13 11q2 3 21.5 30.5t40 54.5t24.5 27q5 0 25.5 -14t45.5 -32.5t43 -34.5t18 -19z" />
    <glyph glyph-name="uni069D.medi" unicode="&#x69d;" horiz-adv-x="1755" 
d="M1853 91q0 -34 -12.5 -62.5t-67.5 -28.5h-53q-169 0 -342 0.5t-346 0.5h-171t-169 -1q-19 -38 -34 -86t-24.5 -83t-12.5 -35q-11 0 -24 25.5t-13 39.5q0 8 12 54.5t25 84.5q-74 0 -135 8t-107 42.5t-76 113.5q-40 -63 -104.5 -113.5t-162.5 -50.5h-53q-55 0 -67.5 28.5
t-12.5 62.5t12.5 62t67.5 28h53q93 0 153 29.5t95.5 68.5t53 68.5t25.5 29.5t15.5 -34t13.5 -60q10 -48 52 -70t96 -28.5t101 -6.5h59q50 74 131 164.5t180 174.5t206.5 138t210.5 54q58 0 99 -36t63 -87t22 -96q0 -106 -71.5 -183t-197.5 -143q119 11 213 14t164 3h53
q55 0 67.5 -28t12.5 -62zM1499 394q0 23 -26 41t-61.5 31t-66.5 20t-41 7q-127 0 -267.5 -75t-249.5 -237q116 0 240.5 23.5t231.5 58.5t173.5 71t66.5 60zM1217 -299q0 -5 -12.5 -27.5t-30 -49.5t-32.5 -46.5t-21 -19.5q-3 0 -21.5 13t-42 30.5t-41 31.5t-19.5 15
q-6 5 -11 5t-10 -5q-2 -2 -21 -30t-39.5 -55.5t-26.5 -27.5q-4 0 -24.5 13t-45 31t-42.5 33.5t-18 20.5q0 6 13.5 28t31 48.5t32.5 46t18 19.5q9 0 37 -21t54 -42.5t28 -24.5q9 -9 13 -9q6 0 13 11q2 3 21.5 30.5t40 54.5t24.5 27q5 0 25.5 -14t45.5 -32.5t43 -34.5t18 -19z
" />
    <glyph glyph-name="uni069D.fina" unicode="&#x69d;" horiz-adv-x="2366" 
d="M2465 91q0 -34 -12.5 -62.5t-67.5 -28.5h-53q-169 0 -341 1.5t-344 1.5q-85 0 -171 -1t-170 -2q-19 -38 -34 -86t-24.5 -83t-12.5 -35q-10 0 -24.5 25.5t-14.5 39.5q0 8 16.5 56t31.5 86q-19 0 -59 7t-54 13q0 -58 -2.5 -95t-8 -71.5t-15.5 -85.5q-31 -152 -105 -247.5
t-173.5 -147t-209 -70.5t-210.5 -19q-113 0 -195 49.5t-126 130.5t-44 176q0 70 22.5 140.5t52.5 129t56.5 94t33.5 35.5q19 0 19 -16q0 -12 -25 -53.5t-50.5 -105.5t-25.5 -143q0 -72 35.5 -120.5t90 -77.5t113.5 -42t106 -13q83 0 170 11.5t162.5 33.5t121.5 53
q76 51 103 122.5t27 177.5q0 91 -19 147t-38.5 87t-19.5 45q0 8 10 32.5t23.5 53t26 49t17.5 20.5q37 -53 54 -113q27 -4 81 -8t126 -4q50 74 131 164.5t180 174.5t206.5 138t210.5 54q58 0 99 -36t63 -87t22 -96q0 -106 -72 -183t-200 -143q119 11 213 14t164 3h53
q55 0 67.5 -28t12.5 -62zM2114 394q0 23 -26 41t-62 31t-67 20t-41 7q-127 0 -267 -75t-249 -237q115 0 239 23.5t231.5 58.5t174.5 71t67 60zM1872 -303q0 -5 -12.5 -27.5t-30 -49.5t-32.5 -46.5t-21 -19.5q-3 0 -21.5 13t-42 30.5t-41 31.5t-19.5 15q-6 5 -11 5t-10 -5
q-2 -2 -21 -30t-39.5 -55.5t-26.5 -27.5q-4 0 -24.5 13t-45 31t-42.5 33.5t-18 20.5q0 6 13.5 28t31 48.5t32.5 46t18 19.5q9 0 37 -21t54 -42.5t28 -24.5q9 -9 13 -9q6 0 13 11q2 3 21.5 30.5t40 54.5t24.5 27q5 0 25.5 -14t45.5 -32.5t43 -34.5t18 -19z" />
    <glyph glyph-name="uni069E.init" unicode="&#x69e;" horiz-adv-x="1755" 
d="M1607 487q0 -90 -49 -160t-131 -122.5t-182 -89t-204 -59.5t-197.5 -34t-160.5 -13q-8 -17 -22 -55.5t-25.5 -79.5t-14.5 -67q-9 0 -24.5 23.5t-15.5 38.5q0 14 16 60t27 80q-74 0 -135.5 6.5t-108 39t-77.5 109.5q-40 -63 -104.5 -113.5t-162.5 -50.5h-53
q-55 0 -67.5 28.5t-12.5 62.5t12.5 62t67.5 28h53q93 0 153 29.5t95.5 68.5t53 68.5t25.5 29.5t15.5 -34t13.5 -60q9 -48 51 -70t96.5 -28.5t101.5 -6.5h59q54 77 133.5 169.5t175 176.5t198 138t201.5 54q71 0 115 -38t64 -91.5t20 -99.5zM1499 400q0 34 -56 72t-137 38
q-90 0 -192 -42t-191.5 -116t-143.5 -171q120 0 246.5 25.5t234 62.5t173.5 73t66 58zM947 1169q0 -6 -12.5 -28.5t-29.5 -49.5t-32.5 -46.5t-21.5 -19.5q-3 0 -23 13.5t-45 32t-43.5 34.5t-18.5 21q0 6 13.5 28t31.5 48t33 45t18 19q6 0 27 -13.5t44.5 -32t41 -33.5
t17.5 -18zM1098 912q0 -5 -12.5 -27.5t-30 -49.5t-32.5 -46.5t-21 -19.5q-3 0 -21.5 13t-42 30.5t-41 31.5t-19.5 15q-6 5 -11 5t-10 -5q-2 -2 -21 -30t-39.5 -55.5t-26.5 -27.5q-4 0 -24.5 13t-45 31t-42.5 33.5t-18 20.5q0 6 13.5 28t31 48.5t32.5 46t18 19.5q9 0 37 -21
t54 -42.5t28 -24.5q9 -9 13 -9q6 0 13 11q2 3 21.5 30.5t40 54.5t24.5 27q5 0 25.5 -14t45.5 -32.5t43 -34.5t18 -19z" />
    <glyph glyph-name="uni069E.medi" unicode="&#x69e;" horiz-adv-x="1755" 
d="M1853 91q0 -34 -12.5 -62.5t-67.5 -28.5h-53q-169 0 -342 0.5t-346 0.5h-171t-169 -1q-19 -38 -34 -86t-24.5 -83t-12.5 -35q-11 0 -24 25.5t-13 39.5q0 8 12 54.5t25 84.5q-74 0 -135 8t-107 42.5t-76 113.5q-40 -63 -104.5 -113.5t-162.5 -50.5h-53q-55 0 -67.5 28.5
t-12.5 62.5t12.5 62t67.5 28h53q93 0 153 29.5t95.5 68.5t53 68.5t25.5 29.5t15.5 -34t13.5 -60q10 -48 52 -70t96 -28.5t101 -6.5h59q50 74 131 164.5t180 174.5t206.5 138t210.5 54q58 0 99 -36t63 -87t22 -96q0 -106 -71.5 -183t-197.5 -143q119 11 213 14t164 3h53
q55 0 67.5 -28t12.5 -62zM1499 394q0 23 -26 41t-61.5 31t-66.5 20t-41 7q-127 0 -267.5 -75t-249.5 -237q116 0 240.5 23.5t231.5 58.5t173.5 71t66.5 60zM1008 1204q0 -6 -12.5 -28.5t-29.5 -49.5t-32.5 -46.5t-21.5 -19.5q-3 0 -23 13.5t-45 32t-43.5 34.5t-18.5 21
q0 6 13.5 28t31.5 48t33 45t18 19q6 0 27 -13.5t44.5 -32t41 -33.5t17.5 -18zM1159 947q0 -5 -12.5 -27.5t-30 -49.5t-32.5 -46.5t-21 -19.5q-3 0 -21.5 13t-42 30.5t-41 31.5t-19.5 15q-6 5 -11 5t-10 -5q-2 -2 -21 -30t-39.5 -55.5t-26.5 -27.5q-4 0 -24.5 13t-45 31
t-42.5 33.5t-18 20.5q0 6 13.5 28t31 48.5t32.5 46t18 19.5q9 0 37 -21t54 -42.5t28 -24.5q9 -9 13 -9q6 0 13 11q2 3 21.5 30.5t40 54.5t24.5 27q5 0 25.5 -14t45.5 -32.5t43 -34.5t18 -19z" />
    <glyph glyph-name="uni069E.fina" unicode="&#x69e;" horiz-adv-x="2366" 
d="M2465 91q0 -34 -12.5 -62.5t-67.5 -28.5h-53q-169 0 -341 1.5t-344 1.5q-85 0 -171 -1t-170 -2q-19 -38 -34 -86t-24.5 -83t-12.5 -35q-10 0 -24.5 25.5t-14.5 39.5q0 8 16.5 56t31.5 86q-19 0 -59 7t-54 13q0 -58 -2.5 -95t-8 -71.5t-15.5 -85.5q-31 -152 -105 -247.5
t-173.5 -147t-209 -70.5t-210.5 -19q-113 0 -195 49.5t-126 130.5t-44 176q0 70 22.5 140.5t52.5 129t56.5 94t33.5 35.5q19 0 19 -16q0 -12 -25 -53.5t-50.5 -105.5t-25.5 -143q0 -72 35.5 -120.5t90 -77.5t113.5 -42t106 -13q83 0 170 11.5t162.5 33.5t121.5 53
q76 51 103 122.5t27 177.5q0 91 -19 147t-38.5 87t-19.5 45q0 8 10 32.5t23.5 53t26 49t17.5 20.5q37 -53 54 -113q27 -4 81 -8t126 -4q50 74 131 164.5t180 174.5t206.5 138t210.5 54q58 0 99 -36t63 -87t22 -96q0 -106 -72 -183t-200 -143q119 11 213 14t164 3h53
q55 0 67.5 -28t12.5 -62zM2114 394q0 23 -26 41t-62 31t-67 20t-41 7q-127 0 -267 -75t-249 -237q115 0 239 23.5t231.5 58.5t174.5 71t67 60zM1532 1117q0 -6 -12.5 -28.5t-29.5 -49.5t-32.5 -46.5t-21.5 -19.5q-3 0 -23 13.5t-45 32t-43.5 34.5t-18.5 21q0 6 13.5 28
t31.5 48t33 45t18 19q6 0 27 -13.5t44.5 -32t41 -33.5t17.5 -18zM1683 860q0 -5 -12.5 -27.5t-30 -49.5t-32.5 -46.5t-21 -19.5q-3 0 -21.5 13t-42 30.5t-41 31.5t-19.5 15q-6 5 -11 5t-10 -5q-2 -2 -21 -30t-39.5 -55.5t-26.5 -27.5q-4 0 -24.5 13t-45 31t-42.5 33.5
t-18 20.5q0 6 13.5 28t31 48.5t32.5 46t18 19.5q9 0 37 -21t54 -42.5t28 -24.5q9 -9 13 -9q6 0 13 11q2 3 21.5 30.5t40 54.5t24.5 27q5 0 25.5 -14t45.5 -32.5t43 -34.5t18 -19z" />
    <glyph glyph-name="uni069F.init" unicode="&#x69f;" horiz-adv-x="1218" 
d="M1119 499q0 -82 -44 -170t-159 -149q-204 -110 -427 -145t-453 -35h-53q-55 0 -67.5 28.5t-12.5 62.5t12.5 62t67.5 28h53q38 0 64 1t45 5q32 17 60.5 39t41.5 41q20 65 26.5 139t6.5 144q0 126 -18 259t-41.5 250.5t-41.5 197.5t-18 100q0 27 12.5 69.5t30 76t31.5 33.5
q5 0 24.5 -24t42 -55.5t39 -57.5t16.5 -30q0 -9 -16.5 -29t-33 -48.5t-16.5 -64.5q0 -61 9.5 -117.5t22 -125t22 -165t9.5 -238.5q0 -26 -3.5 -72.5t-8.5 -93.5t-10 -73q52 53 121 118.5t148.5 125t164 98t166.5 38.5q92 0 139.5 -67t47.5 -156zM1006 400q0 41 -53 73
t-142 32q-78 0 -158 -26.5t-167.5 -95t-188.5 -196.5q159 6 289.5 34t224.5 64.5t144.5 68.5t50.5 46zM793 1329q0 -6 -12.5 -28.5t-29.5 -49.5t-32.5 -46.5t-21.5 -19.5q-3 0 -23 13.5t-45 32t-43.5 34.5t-18.5 21q0 6 13.5 28t31.5 48t33 45t18 19q6 0 27 -13.5t44.5 -32
t41 -33.5t17.5 -18zM944 1072q0 -5 -12.5 -27.5t-30 -49.5t-32.5 -46.5t-21 -19.5q-3 0 -21.5 13t-42 30.5t-41 31.5t-19.5 15q-6 5 -11 5t-10 -5q-2 -2 -21 -30t-39.5 -55.5t-26.5 -27.5q-4 0 -24.5 13t-45 31t-42.5 33.5t-18 20.5q0 6 13.5 28t31 48.5t32.5 46t18 19.5
q9 0 37 -21t54 -42.5t28 -24.5q9 -9 13 -9q6 0 13 11q2 3 21.5 30.5t40 54.5t24.5 27q5 0 25.5 -14t45.5 -32.5t43 -34.5t18 -19z" />
    <glyph glyph-name="uni069F.medi" unicode="&#x69f;" horiz-adv-x="1277" 
d="M1375 91q0 -34 -13 -62.5t-67 -28.5h-1082q-19 -34 -41.5 -98.5t-29.5 -111.5q-10 9 -25 23t-15 36q0 11 14.5 56.5t31.5 94.5h-165q-55 0 -67.5 28.5t-12.5 62.5t12.5 62t67.5 28h53q56 0 98 1.5t68 10.5q29 8 47 36.5t27 88.5q10 62 14 123t4 123q0 116 -19 238
t-33 238q-6 52 -21 113.5t-27.5 117t-12.5 89.5q0 36 13 76t31.5 68.5t32.5 28.5l113 -161q-25 -19 -45 -64t-20 -87q0 -51 8.5 -105.5t20 -125.5t20 -170.5t8.5 -240.5q0 -45 -8.5 -121.5t-22.5 -134.5q60 62 133 129t152.5 125.5t158.5 95t151 36.5q95 0 151 -69t56 -156
t-40.5 -147t-100.5 -101t-120 -72q20 0 63 4.5t96.5 8.5t101.5 4h161q54 0 67 -28t13 -62zM1022 394q0 28 -56 65t-150 37q-144 0 -275 -89t-229 -226q136 0 263 24t228 59.5t160 71t59 58.5zM802 1306q0 -6 -12.5 -28.5t-29.5 -49.5t-32.5 -46.5t-21.5 -19.5q-3 0 -23 13.5
t-45 32t-43.5 34.5t-18.5 21q0 6 13.5 28t31.5 48t33 45t18 19q6 0 27 -13.5t44.5 -32t41 -33.5t17.5 -18zM953 1049q0 -5 -12.5 -27.5t-30 -49.5t-32.5 -46.5t-21 -19.5q-3 0 -21.5 13t-42 30.5t-41 31.5t-19.5 15q-6 5 -11 5t-10 -5q-2 -2 -21 -30t-39.5 -55.5
t-26.5 -27.5q-4 0 -24.5 13t-45 31t-42.5 33.5t-18 20.5q0 6 13.5 28t31 48.5t32.5 46t18 19.5q9 0 37 -21t54 -42.5t28 -24.5q9 -9 13 -9q6 0 13 11q2 3 21.5 30.5t40 54.5t24.5 27q5 0 25.5 -14t45.5 -32.5t43 -34.5t18 -19z" />
    <glyph glyph-name="uni069F.fina" unicode="&#x69f;" horiz-adv-x="1583" 
d="M1683 91q0 -34 -12.5 -62.5t-66.5 -28.5h-57h-131h-220h-261.5h-258h-210h-115.5q-51 0 -71.5 3t-44.5 12q-10 3 -41 26t-66 53t-60.5 55.5t-25.5 34.5q0 12 15 12q76 0 129 -10.5t132 -10.5q98 0 174 17t129 72q12 30 20.5 71t13.5 79t5 59q0 102 -4.5 178t-13.5 146
t-23 153q-13 85 -30 163t-29.5 137.5t-12.5 86.5q0 26 13 70.5t30.5 80.5t30.5 36q6 0 24.5 -24.5t39.5 -57t36.5 -59.5t15.5 -32q-23 -18 -46 -52.5t-23 -99.5q0 -27 9 -84.5t21 -133t21 -155t9 -149.5q0 -34 -2 -92.5t-6 -120t-11 -104.5q96 99 196.5 181.5t194 131.5
t167.5 49q104 0 158 -67t54 -156q0 -113 -79 -198.5t-204 -146.5q98 12 185 19.5t137 7.5h86q54 0 66.5 -28t12.5 -62zM1372 410q0 27 -31.5 49.5t-75.5 36.5t-83 14q-80 0 -169.5 -25t-180.5 -94.5t-175 -203.5q190 12 326 45t222 71.5t126.5 69t40.5 37.5zM1158 1310
q0 -6 -12.5 -28.5t-29.5 -49.5t-32.5 -46.5t-21.5 -19.5q-3 0 -23 13.5t-45 32t-43.5 34.5t-18.5 21q0 6 13.5 28t31.5 48t33 45t18 19q6 0 27 -13.5t44.5 -32t41 -33.5t17.5 -18zM1309 1053q0 -5 -12.5 -27.5t-30 -49.5t-32.5 -46.5t-21 -19.5q-3 0 -21.5 13t-42 30.5
t-41 31.5t-19.5 15q-6 5 -11 5t-10 -5q-2 -2 -21 -30t-39.5 -55.5t-26.5 -27.5q-4 0 -24.5 13t-45 31t-42.5 33.5t-18 20.5q0 6 13.5 28t31 48.5t32.5 46t18 19.5q9 0 37 -21t54 -42.5t28 -24.5q9 -9 13 -9q6 0 13 11q2 3 21.5 30.5t40 54.5t24.5 27q5 0 25.5 -14
t45.5 -32.5t43 -34.5t18 -19z" />
    <glyph glyph-name="uni06A0.init" unicode="&#x6a0;" horiz-adv-x="1066" 
d="M974 505q0 -4 -8 -37.5t-16 -67.5q-10 -42 -44 -55q-79 -31 -178.5 -75.5t-205.5 -91.5q-85 -37 -167.5 -78.5t-162 -70.5t-156.5 -29h-53q-55 0 -67.5 28.5t-12.5 62.5t12.5 62t67.5 28h53q56 0 103 15.5t105 44.5q-38 32 -75.5 73t-37.5 93q0 77 38 155t98 145t125 109
q51 34 100.5 42.5t86.5 8.5q17 0 55 -19t80 -46.5t72 -54.5t30 -44q0 -14 -14 -14q-6 0 -31.5 9t-59.5 18t-67 9q-45 0 -111 -18t-128 -43q-97 -39 -122 -55t-25 -30q0 -34 27 -71.5t69.5 -70t90 -52.5t87.5 -20q54 0 122 23t133.5 52.5t114 52.5t64.5 23q8 0 8 -11z
M560 1435q0 -6 -12.5 -28.5t-29.5 -49.5t-32.5 -46.5t-21.5 -19.5q-3 0 -23 13.5t-45 32t-43.5 34.5t-18.5 21q0 6 13.5 28t31.5 48t33 45t18 19q6 0 27 -13.5t44.5 -32t41 -33.5t17.5 -18zM711 1178q0 -5 -12.5 -27.5t-30 -49.5t-32.5 -46.5t-21 -19.5q-3 0 -21.5 13
t-42 30.5t-41 31.5t-19.5 15q-6 5 -11 5t-10 -5q-2 -2 -21 -30t-39.5 -55.5t-26.5 -27.5q-4 0 -24.5 13t-45 31t-42.5 33.5t-18 20.5q0 6 13.5 28t31 48.5t32.5 46t18 19.5q9 0 37 -21t54 -42.5t28 -24.5q9 -9 13 -9q6 0 13 11q2 3 21.5 30.5t40 54.5t24.5 27q5 0 25.5 -14
t45.5 -32.5t43 -34.5t18 -19z" />
    <glyph glyph-name="uni06A0.medi" unicode="&#x6a0;" horiz-adv-x="856" 
d="M953 91q0 -34 -13 -62.5t-67 -28.5h-54q-61 0 -120 27t-111.5 65.5t-93 74t-63.5 53.5q-56 -50 -120 -101t-133 -85t-142 -34h-53q-55 0 -67.5 28.5t-12.5 62.5t12.5 62t67.5 28h53q50 0 120.5 22t152.5 86q-193 89 -193 105q0 18 16.5 55.5t54.5 78.5t102.5 69.5
t161.5 28.5q71 0 136.5 -25t107.5 -66.5t42 -89.5q0 -40 -40.5 -80t-129.5 -79q72 -47 132.5 -76t119.5 -29h54q54 0 67 -28t13 -62zM512 1272q0 -6 -12.5 -28.5t-29.5 -49.5t-32.5 -46.5t-21.5 -19.5q-3 0 -23 13.5t-45 32t-43.5 34.5t-18.5 21q0 6 13.5 28t31.5 48t33 45
t18 19q6 0 27 -13.5t44.5 -32t41 -33.5t17.5 -18zM663 1015q0 -5 -12.5 -27.5t-30 -49.5t-32.5 -46.5t-21 -19.5q-3 0 -21.5 13t-42 30.5t-41 31.5t-19.5 15q-6 5 -11 5t-10 -5q-2 -2 -21 -30t-39.5 -55.5t-26.5 -27.5q-4 0 -24.5 13t-45 31t-42.5 33.5t-18 20.5
q0 6 13.5 28t31 48.5t32.5 46t18 19.5q9 0 37 -21t54 -42.5t28 -24.5q9 -9 13 -9q6 0 13 11q2 3 21.5 30.5t40 54.5t24.5 27q5 0 25.5 -14t45.5 -32.5t43 -34.5t18 -19z" />
    <glyph glyph-name="uni06A0.fina" unicode="&#x6a0;" horiz-adv-x="1159" 
d="M1422 -879q0 -5 -50 -23.5t-125.5 -43t-154 -48t-136.5 -39t-71 -15.5q-120 0 -238.5 13t-223 49t-185.5 105t-127 180.5t-46 275.5q0 152 58.5 287t154 251.5t206.5 209.5q-29 24 -71.5 44.5t-74.5 36t-32 24.5q0 17 19 53t57 75.5t93.5 67t127.5 27.5q98 0 162.5 -36
t96 -77.5t31.5 -58.5q0 -34 -29.5 -70t-118.5 -83q77 -81 161.5 -113t215.5 -32h54q54 0 67 -28t13 -62t-13 -62.5t-67 -28.5h-54q-64 0 -119 5.5t-111 29t-124.5 76.5t-161.5 147q-80 -46 -161 -108t-148 -138.5t-108 -166t-41 -190.5q0 -170 104 -289t291.5 -180.5
t436.5 -61.5q125 0 240 10t185 10q13 0 15 -6t2 -17zM677 1249q0 -6 -12.5 -28.5t-29.5 -49.5t-32.5 -46.5t-21.5 -19.5q-3 0 -23 13.5t-45 32t-43.5 34.5t-18.5 21q0 6 13.5 28t31.5 48t33 45t18 19q6 0 27 -13.5t44.5 -32t41 -33.5t17.5 -18zM828 992q0 -5 -12.5 -27.5
t-30 -49.5t-32.5 -46.5t-21 -19.5q-3 0 -21.5 13t-42 30.5t-41 31.5t-19.5 15q-6 5 -11 5t-10 -5q-2 -2 -21 -30t-39.5 -55.5t-26.5 -27.5q-4 0 -24.5 13t-45 31t-42.5 33.5t-18 20.5q0 6 13.5 28t31 48.5t32.5 46t18 19.5q9 0 37 -21t54 -42.5t28 -24.5q9 -9 13 -9
q6 0 13 11q2 3 21.5 30.5t40 54.5t24.5 27q5 0 25.5 -14t45.5 -32.5t43 -34.5t18 -19z" />
    <glyph glyph-name="uni06A1.init" unicode="&#x6a1;" horiz-adv-x="624" 
d="M541 397q0 -51 -17.5 -114.5t-56.5 -112.5q-27 -33 -90 -73t-150.5 -68.5t-190.5 -28.5h-53q-55 0 -67.5 28.5t-12.5 62.5t12.5 62t67.5 28h53q122 0 224 31t163 71.5t61 70.5q0 22 -18 53t-38 53q-15 -31 -38 -66.5t-59 -60t-93 -24.5q-89 0 -115.5 53t-26.5 122
q0 23 14 81t39.5 123t61 112t78.5 47q31 0 73.5 -38.5t83.5 -103.5t68 -145t27 -163zM329 567q0 6 -18 21t-40.5 28t-35.5 13q-16 0 -30.5 -17t-14.5 -33q0 -18 18.5 -42t43.5 -24q21 0 49 21.5t28 32.5z" />
    <glyph glyph-name="uni06A1.medi" unicode="&#x6a1;" horiz-adv-x="858" 
d="M956 91q0 -34 -13 -62.5t-67 -28.5h-54q-82 0 -146.5 13.5t-126.5 39t-139 60.5q-83 -35 -141 -60.5t-111 -39t-122 -13.5h-53q-55 0 -67.5 28.5t-12.5 62.5t12.5 62t67.5 28h53q53 0 114.5 11.5t110.5 33.5q-4 16 -6.5 39t-2.5 42q0 30 18.5 81.5t50.5 110t73 110.5
q52 66 105 105.5t85 39.5q36 0 65 -28.5t49 -70.5t31 -85.5t11 -73.5q0 -68 -30 -141t-89 -129q102 -45 201 -45h54q54 0 67 -28t13 -62zM657 410q0 50 -41 93.5t-100 43.5q-24 0 -64 -20.5t-72 -48t-32 -50.5q0 -40 39.5 -73t79.5 -64q77 29 133.5 56.5t56.5 62.5z" />
    <glyph glyph-name="uni06A1.fina" unicode="&#x6a1;" horiz-adv-x="2114" 
d="M2211 91q0 -34 -12.5 -62.5t-66.5 -28.5h-56q-100 0 -180.5 18.5t-129.5 37t-55 18.5q-154 -69 -324 -133t-346 -104.5t-349 -40.5q-91 0 -189.5 16.5t-182.5 58t-136.5 115.5t-52.5 189q0 20 13.5 67.5t35.5 100t47 90t49 37.5l13 -16q-21 -37 -46 -97.5t-25 -101.5
q0 -65 38.5 -111.5t100.5 -77t133.5 -48.5t139 -25.5t115.5 -7.5q128 0 261 26.5t253 61.5q68 20 134 44.5t121 49.5l4 8q-22 20 -35 51t-13 60q0 30 17 85t45.5 118.5t64 121t72.5 94.5t71 37q33 0 66 -32.5t60.5 -80t44 -94.5t16.5 -75q0 -26 -10.5 -75t-26.5 -97.5
t-31 -74.5q3 -16 41 -22.5t87.5 -8t88.5 -1.5h56q54 0 66.5 -28t12.5 -62zM1842 394q0 21 -18.5 58.5t-44 67.5t-48.5 30q-17 0 -44 -19t-54.5 -47t-46.5 -55t-19 -43q0 -28 23.5 -50t53 -38.5t48.5 -30.5q9 6 33 24t51 39.5t46.5 39.5t19.5 24z" />
    <glyph glyph-name="uni06A2.init" unicode="&#x6a2;" horiz-adv-x="624" 
d="M541 397q0 -51 -17.5 -114.5t-56.5 -112.5q-27 -33 -90 -73t-150.5 -68.5t-190.5 -28.5h-53q-55 0 -67.5 28.5t-12.5 62.5t12.5 62t67.5 28h53q122 0 224 31t163 71.5t61 70.5q0 22 -18 53t-38 53q-15 -31 -38 -66.5t-59 -60t-93 -24.5q-89 0 -115.5 53t-26.5 122
q0 23 14 81t39.5 123t61 112t78.5 47q31 0 73.5 -38.5t83.5 -103.5t68 -145t27 -163zM329 567q0 6 -18 21t-40.5 28t-35.5 13q-16 0 -30.5 -17t-14.5 -33q0 -18 18.5 -42t43.5 -24q21 0 49 21.5t28 32.5zM375 -242q0 -5 -12.5 -27.5t-30 -49t-33.5 -46t-22 -19.5
q-3 0 -23.5 13t-45.5 30.5t-43.5 33t-18.5 20.5q0 6 13 28t31 48.5t33.5 46t19.5 19.5q6 0 27 -13.5t45 -31.5t42 -33.5t18 -18.5z" />
    <glyph glyph-name="uni06A2.medi" unicode="&#x6a2;" horiz-adv-x="858" 
d="M956 91q0 -34 -13 -62.5t-67 -28.5h-54q-82 0 -146.5 13.5t-126.5 39t-139 60.5q-83 -35 -141 -60.5t-111 -39t-122 -13.5h-53q-55 0 -67.5 28.5t-12.5 62.5t12.5 62t67.5 28h53q53 0 114.5 11.5t110.5 33.5q-4 16 -6.5 39t-2.5 42q0 30 18.5 81.5t50.5 110t73 110.5
q52 66 105 105.5t85 39.5q36 0 65 -28.5t49 -70.5t31 -85.5t11 -73.5q0 -68 -30 -141t-89 -129q102 -45 201 -45h54q54 0 67 -28t13 -62zM657 410q0 50 -41 93.5t-100 43.5q-24 0 -64 -20.5t-72 -48t-32 -50.5q0 -40 39.5 -73t79.5 -64q77 29 133.5 56.5t56.5 62.5z
M543 -242q0 -5 -12.5 -27.5t-30 -49t-33.5 -46t-22 -19.5q-3 0 -23.5 13t-45.5 30.5t-43.5 33t-18.5 20.5q0 6 13 28t31 48.5t33.5 46t19.5 19.5q6 0 27 -13.5t45 -31.5t42 -33.5t18 -18.5z" />
    <glyph glyph-name="uni06A2.fina" unicode="&#x6a2;" horiz-adv-x="2114" 
d="M2211 91q0 -34 -12.5 -62.5t-66.5 -28.5h-56q-100 0 -180.5 18.5t-129.5 37t-55 18.5q-154 -69 -324 -133t-346 -104.5t-349 -40.5q-91 0 -189.5 16.5t-182.5 58t-136.5 115.5t-52.5 189q0 20 13.5 67.5t35.5 100t47 90t49 37.5l13 -16q-21 -37 -46 -97.5t-25 -101.5
q0 -65 38.5 -111.5t100.5 -77t133.5 -48.5t139 -25.5t115.5 -7.5q128 0 261 26.5t253 61.5q68 20 134 44.5t121 49.5l4 8q-22 20 -35 51t-13 60q0 30 17 85t45.5 118.5t64 121t72.5 94.5t71 37q33 0 66 -32.5t60.5 -80t44 -94.5t16.5 -75q0 -26 -10.5 -75t-26.5 -97.5
t-31 -74.5q3 -16 41 -22.5t87.5 -8t88.5 -1.5h56q54 0 66.5 -28t12.5 -62zM1842 394q0 21 -18.5 58.5t-44 67.5t-48.5 30q-17 0 -44 -19t-54.5 -47t-46.5 -55t-19 -43q0 -28 23.5 -50t53 -38.5t48.5 -30.5q9 6 33 24t51 39.5t46.5 39.5t19.5 24zM1684 -374q0 -5 -12.5 -27.5
t-30 -49t-33.5 -46t-22 -19.5q-3 0 -23.5 13t-45.5 30.5t-43.5 33t-18.5 20.5q0 6 13 28t31 48.5t33.5 46t19.5 19.5q6 0 27 -13.5t45 -31.5t42 -33.5t18 -18.5z" />
    <glyph glyph-name="uni06A3.init" unicode="&#x6a3;" horiz-adv-x="624" 
d="M541 397q0 -51 -17.5 -114.5t-56.5 -112.5q-27 -33 -90 -73t-150.5 -68.5t-190.5 -28.5h-53q-55 0 -67.5 28.5t-12.5 62.5t12.5 62t67.5 28h53q122 0 224 31t163 71.5t61 70.5q0 22 -18 53t-38 53q-15 -31 -38 -66.5t-59 -60t-93 -24.5q-89 0 -115.5 53t-26.5 122
q0 23 14 81t39.5 123t61 112t78.5 47q31 0 73.5 -38.5t83.5 -103.5t68 -145t27 -163zM329 567q0 6 -18 21t-40.5 28t-35.5 13q-16 0 -30.5 -17t-14.5 -33q0 -18 18.5 -42t43.5 -24q21 0 49 21.5t28 32.5zM375 1134q0 -5 -12.5 -27.5t-30 -49t-33.5 -46t-22 -19.5
q-3 0 -23.5 13t-45.5 30.5t-43.5 33t-18.5 20.5q0 6 13 28t31 48.5t33.5 46t19.5 19.5q6 0 27 -13.5t45 -31.5t42 -33.5t18 -18.5zM375 -242q0 -5 -12.5 -27.5t-30 -49t-33.5 -46t-22 -19.5q-3 0 -23.5 13t-45.5 30.5t-43.5 33t-18.5 20.5q0 6 13 28t31 48.5t33.5 46
t19.5 19.5q6 0 27 -13.5t45 -31.5t42 -33.5t18 -18.5z" />
    <glyph glyph-name="uni06A3.medi" unicode="&#x6a3;" horiz-adv-x="858" 
d="M956 91q0 -34 -13 -62.5t-67 -28.5h-54q-82 0 -146.5 13.5t-126.5 39t-139 60.5q-83 -35 -141 -60.5t-111 -39t-122 -13.5h-53q-55 0 -67.5 28.5t-12.5 62.5t12.5 62t67.5 28h53q53 0 114.5 11.5t110.5 33.5q-4 16 -6.5 39t-2.5 42q0 30 18.5 81.5t50.5 110t73 110.5
q52 66 105 105.5t85 39.5q36 0 65 -28.5t49 -70.5t31 -85.5t11 -73.5q0 -68 -30 -141t-89 -129q102 -45 201 -45h54q54 0 67 -28t13 -62zM657 410q0 50 -41 93.5t-100 43.5q-24 0 -64 -20.5t-72 -48t-32 -50.5q0 -40 39.5 -73t79.5 -64q77 29 133.5 56.5t56.5 62.5z
M664 1097q0 -5 -12.5 -27.5t-30 -49t-33.5 -46t-22 -19.5q-3 0 -23.5 13t-45.5 30.5t-43.5 33t-18.5 20.5q0 6 13 28t31 48.5t33.5 46t19.5 19.5q6 0 27 -13.5t45 -31.5t42 -33.5t18 -18.5zM543 -242q0 -5 -12.5 -27.5t-30 -49t-33.5 -46t-22 -19.5q-3 0 -23.5 13
t-45.5 30.5t-43.5 33t-18.5 20.5q0 6 13 28t31 48.5t33.5 46t19.5 19.5q6 0 27 -13.5t45 -31.5t42 -33.5t18 -18.5z" />
    <glyph glyph-name="uni06A3.fina" unicode="&#x6a3;" horiz-adv-x="2114" 
d="M2211 91q0 -34 -12.5 -62.5t-66.5 -28.5h-56q-100 0 -180.5 18.5t-129.5 37t-55 18.5q-154 -69 -324 -133t-346 -104.5t-349 -40.5q-91 0 -189.5 16.5t-182.5 58t-136.5 115.5t-52.5 189q0 20 13.5 67.5t35.5 100t47 90t49 37.5l13 -16q-21 -37 -46 -97.5t-25 -101.5
q0 -65 38.5 -111.5t100.5 -77t133.5 -48.5t139 -25.5t115.5 -7.5q128 0 261 26.5t253 61.5q68 20 134 44.5t121 49.5l4 8q-22 20 -35 51t-13 60q0 30 17 85t45.5 118.5t64 121t72.5 94.5t71 37q33 0 66 -32.5t60.5 -80t44 -94.5t16.5 -75q0 -26 -10.5 -75t-26.5 -97.5
t-31 -74.5q3 -16 41 -22.5t87.5 -8t88.5 -1.5h56q54 0 66.5 -28t12.5 -62zM1842 394q0 21 -18.5 58.5t-44 67.5t-48.5 30q-17 0 -44 -19t-54.5 -47t-46.5 -55t-19 -43q0 -28 23.5 -50t53 -38.5t48.5 -30.5q9 6 33 24t51 39.5t46.5 39.5t19.5 24zM1828 1025q0 -5 -12.5 -27.5
t-30 -49t-33.5 -46t-22 -19.5q-3 0 -23.5 13t-45.5 30.5t-43.5 33t-18.5 20.5q0 6 13 28t31 48.5t33.5 46t19.5 19.5q6 0 27 -13.5t45 -31.5t42 -33.5t18 -18.5zM1684 -374q0 -5 -12.5 -27.5t-30 -49t-33.5 -46t-22 -19.5q-3 0 -23.5 13t-45.5 30.5t-43.5 33t-18.5 20.5
q0 6 13 28t31 48.5t33.5 46t19.5 19.5q6 0 27 -13.5t45 -31.5t42 -33.5t18 -18.5z" />
    <glyph glyph-name="uni06A4.init" unicode="&#x6a4;" horiz-adv-x="624" arabic-form="initial" 
d="M541 397q0 -51 -17.5 -114.5t-56.5 -112.5q-27 -33 -90 -73t-150.5 -68.5t-190.5 -28.5h-53q-55 0 -67.5 28.5t-12.5 62.5t12.5 62t67.5 28h53q122 0 224 31t163 71.5t61 70.5q0 22 -18 53t-38 53q-15 -31 -38 -66.5t-59 -60t-93 -24.5q-89 0 -115.5 53t-26.5 122
q0 23 14 81t39.5 123t61 112t78.5 47q31 0 73.5 -38.5t83.5 -103.5t68 -145t27 -163zM329 567q0 6 -18 21t-40.5 28t-35.5 13q-16 0 -30.5 -17t-14.5 -33q0 -18 18.5 -42t43.5 -24q21 0 49 21.5t28 32.5zM342 1414q0 -6 -12.5 -28.5t-29.5 -49.5t-32.5 -46.5t-21.5 -19.5
q-3 0 -23 13.5t-45 32t-43.5 34.5t-18.5 21q0 6 13.5 28t31.5 48t33 45t18 19q6 0 27 -13.5t44.5 -32t41 -33.5t17.5 -18zM493 1157q0 -5 -12.5 -27.5t-30 -49.5t-32.5 -46.5t-21 -19.5q-3 0 -21.5 13t-42 30.5t-41 31.5t-19.5 15q-6 5 -11 5t-10 -5q-2 -2 -21 -30
t-39.5 -55.5t-26.5 -27.5q-4 0 -24.5 13t-45 31t-42.5 33.5t-18 20.5q0 6 13.5 28t31 48.5t32.5 46t18 19.5q9 0 37 -21t54 -42.5t28 -24.5q9 -9 13 -9q6 0 13 11q2 3 21.5 30.5t40 54.5t24.5 27q5 0 25.5 -14t45.5 -32.5t43 -34.5t18 -19z" />
    <glyph glyph-name="uni06A4.medi" unicode="&#x6a4;" horiz-adv-x="858" arabic-form="medial" 
d="M956 91q0 -34 -13 -62.5t-67 -28.5h-54q-82 0 -146.5 13.5t-126.5 39t-139 60.5q-83 -35 -141 -60.5t-111 -39t-122 -13.5h-53q-55 0 -67.5 28.5t-12.5 62.5t12.5 62t67.5 28h53q53 0 114.5 11.5t110.5 33.5q-4 16 -6.5 39t-2.5 42q0 30 18.5 81.5t50.5 110t73 110.5
q52 66 105 105.5t85 39.5q36 0 65 -28.5t49 -70.5t31 -85.5t11 -73.5q0 -68 -30 -141t-89 -129q102 -45 201 -45h54q54 0 67 -28t13 -62zM657 410q0 50 -41 93.5t-100 43.5q-24 0 -64 -20.5t-72 -48t-32 -50.5q0 -40 39.5 -73t79.5 -64q77 29 133.5 56.5t56.5 62.5z
M631 1378q0 -6 -12.5 -28.5t-29.5 -49.5t-32.5 -46.5t-21.5 -19.5q-3 0 -23 13.5t-45 32t-43.5 34.5t-18.5 21q0 6 13.5 28t31.5 48t33 45t18 19q6 0 27 -13.5t44.5 -32t41 -33.5t17.5 -18zM782 1121q0 -5 -12.5 -27.5t-30 -49.5t-32.5 -46.5t-21 -19.5q-3 0 -21.5 13
t-42 30.5t-41 31.5t-19.5 15q-6 5 -11 5t-10 -5q-2 -2 -21 -30t-39.5 -55.5t-26.5 -27.5q-4 0 -24.5 13t-45 31t-42.5 33.5t-18 20.5q0 6 13.5 28t31 48.5t32.5 46t18 19.5q9 0 37 -21t54 -42.5t28 -24.5q9 -9 13 -9q6 0 13 11q2 3 21.5 30.5t40 54.5t24.5 27q5 0 25.5 -14
t45.5 -32.5t43 -34.5t18 -19z" />
    </font>
</defs>
</svg>
