<svg xmlns="http://www.w3.org/2000/svg">
<defs>
<font id="ScheherazadeNew-Bold" horiz-adv-x="0" >
  <font-face 
    font-family="Scheherazade New"
    font-weight="700"
    font-stretch="normal"
    units-per-em="2048"
    panose-1="1 0 6 0 2 0 0 2 0 3"
    ascent="1638"
    descent="-410"
    x-height="828"
    cap-height="1226"
    bbox="-1544 -1596 7705 2884"
    underline-thickness="100"
    underline-position="-850"
    unicode-range="U+0020-10EFF"
  />
<missing-glyph horiz-adv-x="1646" 
d="M1164 1138q0 -5 -13.5 -28t-28 -44t-19.5 -21q-4 0 -25 14t-40.5 29.5t-19.5 20.5t14 28t29 44t19 21q5 0 25.5 -14.5t39.5 -30.5t19 -19zM1262 972q0 -5 -13.5 -28t-29 -44t-20.5 -21q-2 0 -19.5 13t-35.5 26.5t-20 15.5q-6 6 -12 6q-5 0 -9 -5q-1 -2 -13 -20t-25 -35
t-17 -17q-3 0 -24 14.5t-41 30t-20 19.5q0 5 14 27.5t29.5 43.5t18.5 21q6 0 24 -14t35 -28t19 -16q6 -4 9 -4q6 0 9 7q1 2 13 19.5t25.5 34.5t16.5 17q5 0 26 -14.5t40.5 -30t19.5 -18.5zM1404 650q0 -38 -13 -87.5t-40 -86.5t-69 -37q-55 0 -84.5 31.5t-46.5 45.5
q-87 -142 -179 -142q0 -153 -43 -248t-112.5 -145.5t-153 -68.5t-164.5 -18q-110 0 -174 70t-64 164q0 61 24 120.5t50.5 99t32.5 39.5q13 0 13 -10q0 -8 -16.5 -35t-33 -68.5t-16.5 -93.5q0 -62 39 -98.5t92 -51.5t93 -15q82 0 167 16.5t129 46.5q50 34 68 80t18 116
q0 60 -12.5 96t-25 56.5t-12.5 30.5q0 7 10.5 31t23 46.5t16.5 22.5q22 -30 35 -74q47 0 94 25.5t80 67.5t39 92q2 19 13 19q10 0 13 -23q7 -40 32 -61t53.5 -29t44.5 -8q6 0 20 7.5t14 13.5q0 12 -21 28t-21 20t7 31.5t16 54t14 26.5q11 0 22.5 -18t19.5 -41t8 -38z
M1523 1444h-1400v-1775h1400v1775zM87 -367v1847h1472v-1847h-1472z" />
    <glyph glyph-name="uni0624" unicode="&#x648;&#x654;" horiz-adv-x="878" 
d="M810 236q0 -120 -26.5 -246.5t-75 -243.5t-114.5 -210t-145.5 -147.5t-167.5 -54.5q-63 0 -130 33t-124.5 77t-93 79t-35.5 39q0 6 13.5 24t18.5 18t33 -15t71.5 -30.5t93.5 -15.5q102 0 201 45.5t179 122t127.5 170t47.5 188.5q0 33 -0.5 63.5t-4.5 59.5
q-31 -57 -83 -85.5t-83 -28.5q-35 0 -77.5 25t-73 70.5t-30.5 106.5q0 52 21.5 127.5t56 149.5t75.5 124t80 50q54 0 111 -57.5t96 -168t39 -269.5zM579 403q-13 17 -32.5 38t-43.5 21q-37 0 -37 -58q0 -16 11.5 -29t30.5 -13q26 0 45 12.5t26 28.5zM801 1085
q0 -12 -10 -35.5t-24 -44.5t-25 -24q-11 -4 -50 -19t-87 -33.5t-84 -32.5q-66 -25 -113.5 -48t-57.5 -23q-18 0 -18 18q0 14 17 48.5t22 42.5q9 9 34.5 23.5t36.5 17.5q-20 6 -47 29t-27 60q0 31 20 70.5t47.5 75t47.5 56.5q53 52 94.5 63t68.5 11q29 0 60 -23.5t31 -61.5
q0 -23 -9 -51t-21 -48t-20 -20q-7 0 -28.5 14t-47 28t-46.5 14q-27 0 -46 -16t-19 -31q0 -6 26 -24.5t61 -36t61 -18.5q23 5 53.5 14.5t55.5 17t30 7.5q14 0 14 -20z" />
    <glyph glyph-name="uni0626" unicode="&#x64a;&#x654;" horiz-adv-x="1640" 
d="M1533 912l-79 -270q-22 21 -44.5 33.5t-68.5 12.5q-48 0 -110.5 -23.5t-120.5 -61t-96 -78t-38 -75.5q0 -31 37 -56t96.5 -43t126.5 -29q81 -11 133.5 -28.5t78.5 -48.5q14 -18 18 -45.5t4 -65.5q0 -47 -39.5 -108t-89.5 -100q-84 -66 -211 -129t-279.5 -103.5
t-313.5 -40.5q-176 0 -278 55.5t-145 150t-43 210.5q0 89 30 179.5t70 166t71.5 121.5t34.5 46q5 0 28.5 -16.5t21.5 -19.5q-2 -6 -31.5 -57t-58 -130.5t-28.5 -171.5q0 -117 59 -172t158.5 -71t221.5 -16q73 0 161 10.5t175.5 27.5t160.5 36.5t117 37.5t44 31
q0 23 -71.5 38t-195.5 39q-45 9 -95 29t-84.5 62.5t-34.5 117.5q0 48 28.5 114t74.5 133.5t99 121.5q56 56 127 110t145 89.5t135 35.5q34 0 66.5 -16t32.5 -33zM884 1144q0 -12 -10 -35.5t-24 -44.5t-25 -24q-11 -4 -50 -19t-87 -33.5t-84 -32.5q-66 -25 -113.5 -48
t-57.5 -23q-18 0 -18 18q0 14 17 48.5t22 42.5q9 9 34.5 23.5t36.5 17.5q-20 6 -47 29t-27 60q0 31 20 70.5t47.5 75t47.5 56.5q53 52 94.5 63t68.5 11q29 0 60 -23.5t31 -61.5q0 -23 -9 -51t-21 -48t-20 -20q-7 0 -28.5 14t-47 28t-46.5 14q-27 0 -46 -16t-19 -31
q0 -6 26 -24.5t61 -36t61 -18.5q23 5 53.5 14.5t55.5 17t30 7.5q14 0 14 -20z" />
    <glyph glyph-name="uni06C0" unicode="&#x6d5;&#x654;" horiz-adv-x="776" 
d="M687 394q0 -114 -39.5 -206.5t-114 -147t-178.5 -54.5q-65 0 -123 39.5t-94 108.5t-36 155q0 64 25 124t68 145q20 38 51.5 94t65 99t58.5 43q48 0 103 -35.5t104 -94t79.5 -129t30.5 -141.5zM580 361q0 11 -28.5 32t-71 42.5t-86 36.5t-72.5 15q-24 0 -46 -27
t-35.5 -60.5t-13.5 -52.5q0 -23 25.5 -41t60 -27.5t60.5 -9.5q34 0 83 10.5t86.5 31.5t37.5 50zM612 1182q0 -12 -10 -35.5t-24 -44.5t-25 -24q-11 -4 -50 -19t-87 -33.5t-84 -32.5q-66 -25 -113.5 -48t-57.5 -23q-18 0 -18 18q0 14 17 48.5t22 42.5q9 9 34.5 23.5
t36.5 17.5q-20 6 -47 29t-27 60q0 31 20 70.5t47.5 75t47.5 56.5q53 52 94.5 63t68.5 11q29 0 60 -23.5t31 -61.5q0 -23 -9 -51t-21 -48t-20 -20q-7 0 -28.5 14t-47 28t-46.5 14q-27 0 -46 -16t-19 -31q0 -6 26 -24.5t61 -36t61 -18.5q23 5 53.5 14.5t55.5 17t30 7.5
q14 0 14 -20z" />
    <glyph glyph-name="uni06C2" unicode="&#x6c1;&#x654;" horiz-adv-x="776" 
d="M687 394q0 -114 -39.5 -206.5t-114 -147t-178.5 -54.5q-65 0 -123 39.5t-94 108.5t-36 155q0 64 25 124t68 145q20 38 51.5 94t65 99t58.5 43q48 0 103 -35.5t104 -94t79.5 -129t30.5 -141.5zM580 361q0 11 -28.5 32t-71 42.5t-86 36.5t-72.5 15q-24 0 -46 -27
t-35.5 -60.5t-13.5 -52.5q0 -23 25.5 -41t60 -27.5t60.5 -9.5q34 0 83 10.5t86.5 31.5t37.5 50zM612 1182q0 -12 -10 -35.5t-24 -44.5t-25 -24q-11 -4 -50 -19t-87 -33.5t-84 -32.5q-66 -25 -113.5 -48t-57.5 -23q-18 0 -18 18q0 14 17 48.5t22 42.5q9 9 34.5 23.5
t36.5 17.5q-20 6 -47 29t-27 60q0 31 20 70.5t47.5 75t47.5 56.5q53 52 94.5 63t68.5 11q29 0 60 -23.5t31 -61.5q0 -23 -9 -51t-21 -48t-20 -20q-7 0 -28.5 14t-47 28t-46.5 14q-27 0 -46 -16t-19 -31q0 -6 26 -24.5t61 -36t61 -18.5q23 5 53.5 14.5t55.5 17t30 7.5
q14 0 14 -20z" />
    <glyph glyph-name="uni0651064B" unicode="&#x64b;&#x651;" 
d="M529 1784q0 -115 -46 -195t-139 -80q-31 0 -54 8.5t-43 23.5q-31 -49 -66.5 -89t-103.5 -40q-65 0 -103.5 51t-38.5 126q0 33 10.5 97t34.5 113q1 2 19.5 2.5t25.5 0.5q9 1 7 -29.5t-3 -71t10 -71.5t44 -31q42 0 67 39.5t38.5 92.5t19 94.5t8.5 45.5q5 5 22 6.5t27 1.5
q9 0 13 -27t9.5 -63t20 -63t44.5 -27q33 0 50.5 29.5t25.5 71.5t9.5 82t1.5 60q5 10 23.5 18t24.5 8q8 0 17.5 -27.5t17 -70t7.5 -86.5zM513 2296q0 -5 -10 -38t-23 -66.5t-22 -42.5q-10 -10 -26 -19t-36 -20l-351 -189q-35 -18 -47.5 -27t-23.5 -9q-19 0 -19 20q0 8 8 39
t18 61.5t17 37.5q5 5 15.5 12.5t31.5 18.5l359 194q26 13 54 29t36 16q19 0 19 -17zM513 2571q0 -5 -10 -38t-23 -66.5t-22 -42.5q-10 -10 -26 -19t-36 -20l-351 -189q-35 -18 -47.5 -27t-23.5 -9q-19 0 -19 20q0 8 8 39t18 61.5t17 37.5q5 5 15.5 12.5t31.5 18.5l359 194
q26 13 54 29t36 16q19 0 19 -17z" />
    <glyph glyph-name="uni0651064C" unicode="&#x64c;&#x651;" 
d="M529 1784q0 -115 -46 -195t-139 -80q-31 0 -54 8.5t-43 23.5q-31 -49 -66.5 -89t-103.5 -40q-65 0 -103.5 51t-38.5 126q0 33 10.5 97t34.5 113q1 2 19.5 2.5t25.5 0.5q9 1 7 -29.5t-3 -71t10 -71.5t44 -31q42 0 67 39.5t38.5 92.5t19 94.5t8.5 45.5q5 5 22 6.5t27 1.5
q9 0 13 -27t9.5 -63t20 -63t44.5 -27q33 0 50.5 29.5t25.5 71.5t9.5 82t1.5 60q5 10 23.5 18t24.5 8q8 0 17.5 -27.5t17 -70t7.5 -86.5zM528 2179q0 -27 -4.5 -52.5t-20.5 -25.5q-9 0 -32.5 11.5t-48 26t-38.5 23.5q-60 -59 -127 -106t-125 -73.5t-91 -26.5q-17 0 -35.5 8
t-18.5 21q0 6 13 29.5t26 58t13 72.5q0 88 -69 88q-28 0 -44.5 -24t-24 -48t-10.5 -24q-19 0 -24.5 11.5t-5.5 30.5q0 44 14 100t45.5 98t84.5 42q57 0 84.5 -34t36.5 -81t9 -85q0 -24 -2.5 -48.5t-7.5 -38.5q42 20 84.5 48t72.5 50q-33 20 -68 57t-35 84q0 30 16.5 73
t47.5 84.5t73 69.5t93 28q62 0 94 -45.5t32 -116.5q0 -52 -22.5 -101t-39.5 -79q29 -25 42 -44.5t13 -60.5zM413 2406q0 42 -25 66.5t-54 24.5q-19 0 -28.5 -17.5t-9.5 -28.5q0 -16 16.5 -44.5t77.5 -66.5q6 10 14.5 27.5t8.5 38.5z" />
    <glyph glyph-name="uni0651064D" unicode="&#x64d;&#x34f;&#x651;" 
d="M529 2370q0 -115 -46 -195t-139 -80q-31 0 -54 8.5t-43 23.5q-31 -49 -66.5 -89t-103.5 -40q-65 0 -103.5 51t-38.5 126q0 33 10.5 97t34.5 113q1 2 19.5 2.5t25.5 0.5q9 1 7 -29.5t-3 -71t10 -71.5t44 -31q42 0 67 39.5t38.5 92.5t19 94.5t8.5 45.5q5 5 22 6.5t27 1.5
q9 0 13 -27t9.5 -63t20 -63t44.5 -27q33 0 50.5 29.5t25.5 71.5t9.5 82t1.5 60q5 10 23.5 18t24.5 8q8 0 17.5 -27.5t17 -70t7.5 -86.5zM513 2026q0 -5 -10 -38t-23 -66.5t-22 -42.5q-10 -10 -26 -19t-36 -20l-351 -189q-35 -18 -47.5 -27t-23.5 -9q-19 0 -19 20q0 8 8 39
t18 61.5t17 37.5q5 5 15.5 12.5t31.5 18.5l359 194q26 13 54 29t36 16q19 0 19 -17zM513 1751q0 -5 -10 -38t-23 -66.5t-22 -42.5q-10 -10 -26 -19t-36 -20l-351 -189q-35 -18 -47.5 -27t-23.5 -9q-19 0 -19 20q0 8 8 39t18 61.5t17 37.5q5 5 15.5 12.5t31.5 18.5l359 194
q26 13 54 29t36 16q19 0 19 -17z" />
    <glyph glyph-name="uni0651064E" unicode="&#x64e;&#x651;" 
d="M513 2310q0 -5 -10 -38t-23 -66.5t-22 -42.5q-10 -10 -26 -19t-36 -20l-351 -189q-35 -18 -47.5 -27t-23.5 -9q-19 0 -19 20q0 8 8 39t18 61.5t17 37.5q5 5 15.5 12.5t31.5 18.5l359 194q26 13 54 29t36 16q19 0 19 -17zM529 1784q0 -115 -46 -195t-139 -80
q-31 0 -54 8.5t-43 23.5q-31 -49 -66.5 -89t-103.5 -40q-65 0 -103.5 51t-38.5 126q0 33 10.5 97t34.5 113q1 2 19.5 2.5t25.5 0.5q9 1 7 -29.5t-3 -71t10 -71.5t44 -31q42 0 67 39.5t38.5 92.5t19 94.5t8.5 45.5q5 5 22 6.5t27 1.5q9 0 13 -27t9.5 -63t20 -63t44.5 -27
q33 0 50.5 29.5t25.5 71.5t9.5 82t1.5 60q5 10 23.5 18t24.5 8q8 0 17.5 -27.5t17 -70t7.5 -86.5z" />
    <glyph glyph-name="uni0651064F" unicode="&#x64f;&#x651;" 
d="M529 1784q0 -115 -46 -195t-139 -80q-31 0 -54 8.5t-43 23.5q-31 -49 -66.5 -89t-103.5 -40q-65 0 -103.5 51t-38.5 126q0 33 10.5 97t34.5 113q1 2 19.5 2.5t25.5 0.5q9 1 7 -29.5t-3 -71t10 -71.5t44 -31q42 0 67 39.5t38.5 92.5t19 94.5t8.5 45.5q5 5 22 6.5t27 1.5
q9 0 13 -27t9.5 -63t20 -63t44.5 -27q33 0 50.5 29.5t25.5 71.5t9.5 82t1.5 60q5 10 23.5 18t24.5 8q8 0 17.5 -27.5t17 -70t7.5 -86.5zM344 2548q62 0 94 -45.5t32 -116.5q0 -52 -27.5 -114t-72 -123.5t-96 -112.5t-99.5 -81.5t-82 -30.5q-28 0 -66.5 10t-72.5 24t-51 27
q137 51 236.5 113.5t154 123.5t54.5 106q0 28 -24.5 60t-65.5 32q-18 0 -23.5 -12t-5.5 -21q0 -22 35 -57t83 -72t90 -66t56 -38q8 -5 8 -13q0 -15 -16.5 -46.5t-34.5 -58.5t-25 -27q-9 0 -43 18.5t-79.5 49t-88.5 67.5t-72 75t-29 71q0 31 17 74.5t47.5 85.5t73 70t93.5 28
z" />
    <glyph glyph-name="uni06510650" unicode="&#x650;&#x34f;&#x651;" 
d="M513 1791q0 -5 -10 -38t-23 -66.5t-22 -42.5q-10 -10 -26 -19t-36 -20l-351 -189q-35 -18 -47.5 -27t-23.5 -9q-19 0 -19 20q0 8 8 39t18 61.5t17 37.5q5 5 15.5 12.5t31.5 18.5l359 194q26 13 54 29t36 16q19 0 19 -17zM529 2131q0 -115 -46 -195t-139 -80
q-31 0 -54 8.5t-43 23.5q-31 -49 -66.5 -89t-103.5 -40q-65 0 -103.5 51t-38.5 126q0 33 10.5 97t34.5 113q1 2 19.5 2.5t25.5 0.5q9 1 7 -29.5t-3 -71t10 -71.5t44 -31q42 0 67 39.5t38.5 92.5t19 94.5t8.5 45.5q5 5 22 6.5t27 1.5q9 0 13 -27t9.5 -63t20 -63t44.5 -27
q33 0 50.5 29.5t25.5 71.5t9.5 82t1.5 60q5 10 23.5 18t24.5 8q8 0 17.5 -27.5t17 -70t7.5 -86.5z" />
    <glyph glyph-name="uni0620.init" unicode="&#x620;" horiz-adv-x="590" 
d="M478 476q0 -129 -53.5 -237t-153.5 -173.5t-241 -65.5h-54q-29 0 -47.5 29t-18.5 111q0 81 22 108t44 27h54q42 0 99 3t108 11t74 21q26 14 36.5 30.5t10.5 27.5q0 26 -23.5 52.5t-54.5 52.5t-54.5 49t-23.5 42q0 11 22 61.5t55 110.5t65 100q30 -46 61 -107.5t52 -127.5
t21 -125zM457 -331q0 -98 -64.5 -166.5t-158.5 -68.5q-72 0 -113 51.5t-41 161.5q0 56 26.5 108t74 85.5t111.5 33.5q49 0 86 -32.5t58 -79.5t21 -93zM352 -362q0 14 -21 36t-48.5 39t-48.5 17q-33 0 -49.5 -22.5t-16.5 -46.5q0 -25 28 -45t70 -20q24 0 55 14t31 28z" />
    <glyph glyph-name="uni0620.medi" unicode="&#x620;" horiz-adv-x="574" 
d="M666 140q0 -65 -11.5 -102.5t-62.5 -37.5h-51q-38 0 -63.5 10t-51.5 32q-22 18 -42.5 49.5t-34.5 70.5q-47 -64 -116.5 -113t-199.5 -49h-48q-51 0 -63 35.5t-12 104.5q0 64 12 99.5t63 35.5h48q106 0 170 26.5t99.5 61.5t54.5 61.5t35 26.5q9 0 19 -12t20 -62
q7 -34 28 -68t82 -34h51q51 0 62.5 -34.5t11.5 -100.5zM497 -326q0 -98 -64.5 -166.5t-158.5 -68.5q-72 0 -113 51.5t-41 161.5q0 56 26.5 108t74 85.5t111.5 33.5q49 0 86 -32.5t58 -79.5t21 -93zM392 -357q0 14 -21 36t-48.5 39t-48.5 17q-33 0 -49.5 -22.5t-16.5 -46.5
q0 -25 28 -45t70 -20q24 0 55 14t31 28z" />
    <glyph glyph-name="uni0620.fina" unicode="&#x620;" horiz-adv-x="1321" 
d="M1419 138q0 -20 -4.5 -53t-20 -59t-49.5 -26h-171q-24 0 -78.5 -1t-109.5 -4t-81 -10q-44 -13 -72 -33t-28 -41q0 -11 31 -22t104 -20q126 -13 188 -46t62 -134q0 -51 -38.5 -113t-87.5 -100q-79 -63 -188.5 -121.5t-225.5 -96t-216 -37.5q-65 0 -138 36t-137 84.5
t-104.5 90t-40.5 53.5t11.5 24.5t21.5 12.5q17 0 104 -19t241 -19q186 0 335 28.5t235.5 65.5t86.5 61q0 30 -49.5 36t-138.5 9q-127 4 -171.5 46.5t-44.5 114.5q0 41 17.5 85.5t46.5 84.5q57 83 148.5 150.5t173.5 92.5q20 6 55.5 10t72 5.5t56.5 1.5h130q34 0 49.5 -25.5
t20 -58t4.5 -53.5z" />
    <glyph glyph-name="uni0622.fina" unicode="&#x622;" horiz-adv-x="523" arabic-form="final" 
d="M631 150q0 -83 -20.5 -116.5t-48.5 -33.5h-48q-124 0 -200.5 63.5t-101.5 212.5q-17 97 -33.5 240.5t-34.5 313.5q-14 132 -24 229t-10 144q0 20 20.5 61t48.5 85t50.5 74.5t28.5 30.5q12 0 26.5 -18t17.5 -45q20 -393 26 -639t21 -361q8 -62 55 -85t110 -23h48
q31 0 50 -27t19 -106zM713 1794q0 -22 -40 -49.5t-105 -55t-140.5 -51t-147.5 -37.5t-125 -14q-91 0 -155.5 5t-82.5 5q-16 0 -22.5 -30t-17 -60t-37.5 -30q-34 0 -62.5 32t-45.5 74.5t-17 73.5q0 65 34 112.5t136 47.5q51 0 128.5 -13.5t160.5 -13.5q231 0 356.5 27
t146.5 27q27 0 31.5 -17t4.5 -33z" />
    <glyph glyph-name="uni0623.fina" unicode="&#x623;" horiz-adv-x="523" arabic-form="final" 
d="M631 150q0 -83 -20.5 -116.5t-48.5 -33.5h-48q-124 0 -200.5 63.5t-101.5 212.5q-17 97 -33.5 240.5t-34.5 313.5q-14 132 -24 229t-10 144q0 20 20.5 61t48.5 85t50.5 74.5t28.5 30.5q12 0 26.5 -18t17.5 -45q20 -393 26 -639t21 -361q8 -62 55 -85t110 -23h48
q31 0 50 -27t19 -106zM438 1766q0 -12 -10 -35.5t-24 -44.5t-25 -24q-11 -4 -50 -19t-87 -33.5t-84 -32.5q-66 -25 -113.5 -48t-57.5 -23q-18 0 -18 18q0 14 17 48.5t22 42.5q9 9 34.5 23.5t36.5 17.5q-20 6 -47 29t-27 60q0 31 20 70.5t47.5 75t47.5 56.5q53 52 94.5 63
t68.5 11q29 0 60 -23.5t31 -61.5q0 -23 -9 -51t-21 -48t-20 -20q-7 0 -28.5 14t-47 28t-46.5 14q-27 0 -46 -16t-19 -31q0 -6 26 -24.5t61 -36t61 -18.5q23 5 53.5 14.5t55.5 17t30 7.5q14 0 14 -20z" />
    <glyph glyph-name="uni0625.fina" unicode="&#x625;" horiz-adv-x="523" arabic-form="final" 
d="M631 150q0 -83 -20.5 -116.5t-48.5 -33.5h-48q-124 0 -200.5 63.5t-101.5 212.5q-17 97 -33.5 240.5t-34.5 313.5q-14 132 -24 229t-10 144q0 20 20.5 61t48.5 85t50.5 74.5t28.5 30.5q12 0 26.5 -18t17.5 -45q20 -393 26 -639t21 -361q8 -62 55 -85t110 -23h48
q31 0 50 -27t19 -106zM547 -546q0 -12 -10 -35.5t-24 -44.5t-25 -24q-11 -4 -50 -19t-87 -33.5t-84 -32.5q-66 -25 -113.5 -48t-57.5 -23q-18 0 -18 18q0 14 17 48.5t22 42.5q9 9 34.5 23.5t36.5 17.5q-20 6 -47 29t-27 60q0 31 20 70.5t47.5 75t47.5 56.5q53 52 94.5 63
t68.5 11q29 0 60 -23.5t31 -61.5q0 -23 -9 -51t-21 -48t-20 -20q-7 0 -28.5 14t-47 28t-46.5 14q-27 0 -46 -16t-19 -31q0 -6 26 -24.5t61 -36t61 -18.5q23 5 53.5 14.5t55.5 17t30 7.5q14 0 14 -20z" />
    <glyph glyph-name="uni0627.fina" unicode="&#x627;" horiz-adv-x="523" arabic-form="final" 
d="M613 146q0 -81 -20 -113.5t-47 -32.5h-47q-120 0 -194.5 61.5t-98.5 206.5q-16 95 -32.5 234t-33.5 304q-13 128 -23 222t-10 140q0 20 20 59.5t47 82t49 72.5t27 30q12 0 26.5 -18t16.5 -44q20 -381 26 -620t20 -350q8 -61 53.5 -83t106.5 -22h47q30 0 48.5 -26
t18.5 -103z" />
    <glyph glyph-name="uni0628.init" unicode="&#x628;" horiz-adv-x="590" arabic-form="initial" 
d="M478 476q0 -129 -53.5 -237t-153.5 -173.5t-241 -65.5h-54q-29 0 -47.5 29t-18.5 111q0 81 22 108t44 27h54q42 0 99 3t108 11t74 21q26 14 36.5 30.5t10.5 27.5q0 26 -23.5 52.5t-54.5 52.5t-54.5 49t-23.5 42q0 11 22 61.5t55 110.5t65 100q30 -46 61 -107.5t52 -127.5
t21 -125zM391 -247q0 -7 -18 -39.5t-43 -71t-48 -67t-32 -28.5q-4 0 -33 19t-64.5 45t-62.5 48.5t-27 29.5q0 9 19 41.5t44.5 71t47.5 67t29 28.5q8 0 37.5 -19.5t64.5 -46t60.5 -49t25.5 -29.5z" />
    <glyph glyph-name="uni0628.medi" unicode="&#x628;" horiz-adv-x="574" arabic-form="medial" 
d="M666 140q0 -65 -11.5 -102.5t-62.5 -37.5h-51q-38 0 -63.5 10t-51.5 32q-22 18 -42.5 49.5t-34.5 70.5q-47 -64 -116.5 -113t-199.5 -49h-48q-51 0 -63 35.5t-12 104.5q0 64 12 99.5t63 35.5h48q106 0 170 26.5t99.5 61.5t54.5 61.5t35 26.5q9 0 19 -12t20 -62
q7 -34 28 -68t82 -34h51q51 0 62.5 -34.5t11.5 -100.5zM438 -258q0 -7 -18 -39.5t-43 -71t-48 -67t-32 -28.5q-4 0 -33 19t-64.5 45t-62.5 48.5t-27 29.5q0 9 19 41.5t44.5 71t47.5 67t29 28.5q8 0 37.5 -19.5t64.5 -46t60.5 -49t25.5 -29.5z" />
    <glyph glyph-name="uni0628.fina" unicode="&#x628;" horiz-adv-x="2014" arabic-form="final" 
d="M2105 138q0 -20 -4 -53t-17.5 -59t-43.5 -26h-53q-85 0 -146 28t-112 134q-79 -67 -226 -129.5t-340.5 -102.5t-412.5 -40q-307 0 -475 115t-168 305q0 82 24 157t56 134t58.5 93t31.5 34t22 -12.5t17 -22.5q0 -6 -20.5 -37.5t-41.5 -84t-21 -122.5q0 -99 84 -158
t221.5 -84.5t298.5 -25.5q184 0 346 16t286.5 50t193.5 87q28 20 46 46.5t35 26.5q23 0 35 -28.5t31 -51.5q17 -23 60 -37.5t117 -14.5h53q30 0 43.5 -25.5t17.5 -58t4 -53.5zM1039 -357q0 -7 -18 -39.5t-43 -71t-48 -67t-32 -28.5q-4 0 -33 19t-64.5 45t-62.5 48.5
t-27 29.5q0 9 19 41.5t44.5 71t47.5 67t29 28.5q8 0 37.5 -19.5t64.5 -46t60.5 -49t25.5 -29.5z" />
    <glyph glyph-name="uni0629.fina" unicode="&#x629;" horiz-adv-x="867" arabic-form="final" 
d="M957 138q0 -20 -4.5 -53t-19.5 -59t-49 -26h-51q-81 0 -135.5 22.5t-89.5 79.5t-59 161q-32 -47 -90 -93t-127 -46q-28 0 -71 5.5t-85 17.5t-70.5 33.5t-28.5 52.5q0 22 15 66.5t39 95t50 89.5q18 26 55 61t81 71t84.5 63.5t65.5 37.5q-1 11 -2 20t-1 21q0 16 2 27
q4 40 27 79t50 65.5t42 26.5q2 0 8 -32.5t14.5 -83t16.5 -103.5q14 -79 27.5 -157.5t23.5 -135t13 -70.5q9 -30 19.5 -52t38 -34.5t87.5 -12.5h51q34 0 49 -25.5t19.5 -58t4.5 -53.5zM522 406q-6 32 -14.5 83.5t-18.5 100.5q-68 -28 -117.5 -68.5t-76 -73t-26.5 -38.5
t28 -11.5t68 -9.5t76 -4q33 0 50 5.5t31 15.5zM794 1271q0 -7 -17 -37.5t-40 -66.5t-43.5 -62.5t-27.5 -26.5q-5 0 -30.5 18t-57.5 42t-56 42.5t-26 20.5q-10 8 -16 8q-5 0 -12 -12q-1 -2 -17 -25.5t-38.5 -53.5t-41.5 -53t-27 -23q-4 0 -31.5 18.5t-61 43.5t-58.5 46
t-25 27q0 7 18 38t42 67.5t44.5 63.5t25.5 27q9 0 35 -18t55.5 -41.5t51.5 -42.5t24 -20q11 -9 15 -9q7 0 17 14q2 2 19 25t39 52t41 51t24 22q8 0 35.5 -18.5t60 -43.5t56 -46t23.5 -27z" />
    <glyph glyph-name="uni062A.init" unicode="&#x62a;" horiz-adv-x="590" arabic-form="initial" 
d="M478 476q0 -129 -53.5 -237t-153.5 -173.5t-241 -65.5h-54q-29 0 -47.5 29t-18.5 111q0 81 22 108t44 27h54q42 0 99 3t108 11t74 21q26 14 36.5 30.5t10.5 27.5q0 26 -23.5 52.5t-54.5 52.5t-54.5 49t-23.5 42q0 11 22 61.5t55 110.5t65 100q30 -46 61 -107.5t52 -127.5
t21 -125zM609 1188q0 -7 -17 -37.5t-40 -66.5t-43.5 -62.5t-27.5 -26.5q-5 0 -30.5 18t-57.5 42t-56 42.5t-26 20.5q-10 8 -16 8q-5 0 -12 -12q-1 -2 -17 -25.5t-38.5 -53.5t-41.5 -53t-27 -23q-4 0 -31.5 18.5t-61 43.5t-58.5 46t-25 27q0 7 18 38t42 67.5t44.5 63.5
t25.5 27q9 0 35 -18t55.5 -41.5t51.5 -42.5t24 -20q11 -9 15 -9q7 0 17 14q2 2 19 25t39 52t41 51t24 22q8 0 35.5 -18.5t60 -43.5t56 -46t23.5 -27z" />
    <glyph glyph-name="uni062A.medi" unicode="&#x62a;" horiz-adv-x="574" arabic-form="medial" 
d="M666 140q0 -65 -11.5 -102.5t-62.5 -37.5h-51q-38 0 -63.5 10t-51.5 32q-22 18 -42.5 49.5t-34.5 70.5q-47 -64 -116.5 -113t-199.5 -49h-48q-51 0 -63 35.5t-12 104.5q0 64 12 99.5t63 35.5h48q106 0 170 26.5t99.5 61.5t54.5 61.5t35 26.5q9 0 19 -12t20 -62
q7 -34 28 -68t82 -34h51q51 0 62.5 -34.5t11.5 -100.5zM602 802q0 -7 -17 -37.5t-40 -66.5t-43.5 -62.5t-27.5 -26.5q-5 0 -30.5 18t-57.5 42t-56 42.5t-26 20.5q-10 8 -16 8q-5 0 -12 -12q-1 -2 -17 -25.5t-38.5 -53.5t-41.5 -53t-27 -23q-4 0 -31.5 18.5t-61 43.5
t-58.5 46t-25 27q0 7 18 38t42 67.5t44.5 63.5t25.5 27q9 0 35 -18t55.5 -41.5t51.5 -42.5t24 -20q11 -9 15 -9q7 0 17 14q2 2 19 25t39 52t41 51t24 22q8 0 35.5 -18.5t60 -43.5t56 -46t23.5 -27z" />
    <glyph glyph-name="uni062A.fina" unicode="&#x62a;" horiz-adv-x="2014" arabic-form="final" 
d="M2105 138q0 -20 -4 -53t-17.5 -59t-43.5 -26h-53q-85 0 -146 28t-112 134q-79 -67 -226 -129.5t-340.5 -102.5t-412.5 -40q-307 0 -475 115t-168 305q0 82 24 157t56 134t58.5 93t31.5 34t22 -12.5t17 -22.5q0 -6 -20.5 -37.5t-41.5 -84t-21 -122.5q0 -99 84 -158
t221.5 -84.5t298.5 -25.5q184 0 346 16t286.5 50t193.5 87q28 20 46 46.5t35 26.5q23 0 35 -28.5t31 -51.5q17 -23 60 -37.5t117 -14.5h53q30 0 43.5 -25.5t17.5 -58t4 -53.5zM1258 820q0 -7 -17 -37.5t-40 -66.5t-43.5 -62.5t-27.5 -26.5q-5 0 -30.5 18t-57.5 42t-56 42.5
t-26 20.5q-10 8 -16 8q-5 0 -12 -12q-1 -2 -17 -25.5t-38.5 -53.5t-41.5 -53t-27 -23q-4 0 -31.5 18.5t-61 43.5t-58.5 46t-25 27q0 7 18 38t42 67.5t44.5 63.5t25.5 27q9 0 35 -18t55.5 -41.5t51.5 -42.5t24 -20q11 -9 15 -9q7 0 17 14q2 2 19 25t39 52t41 51t24 22
q8 0 35.5 -18.5t60 -43.5t56 -46t23.5 -27z" />
    <glyph glyph-name="uni062B.init" unicode="&#x62b;" horiz-adv-x="590" arabic-form="initial" 
d="M478 476q0 -129 -53.5 -237t-153.5 -173.5t-241 -65.5h-54q-29 0 -47.5 29t-18.5 111q0 81 22 108t44 27h54q42 0 99 3t108 11t74 21q26 14 36.5 30.5t10.5 27.5q0 26 -23.5 52.5t-54.5 52.5t-54.5 49t-23.5 42q0 11 22 61.5t55 110.5t65 100q30 -46 61 -107.5t52 -127.5
t21 -125zM415 1513q0 -8 -17.5 -38.5t-42 -67t-45 -63.5t-27.5 -27q-8 0 -36 18.5t-61.5 43.5t-57.5 46.5t-24 27.5q0 7 17 38t41 67.5t45.5 63.5t30.5 27q4 0 31.5 -18t61 -43.5t59 -47t25.5 -27.5zM608 1191q0 -8 -16.5 -38t-40 -66t-44 -62.5t-27.5 -26.5q-4 0 -30 18
t-57.5 42t-56 42.5t-25.5 20.5q-10 8 -17 8q-4 0 -11 -12q-1 -2 -17.5 -25.5t-38.5 -53.5t-41.5 -53t-26.5 -23q-5 0 -32 18.5t-60.5 43.5t-58.5 46t-25 27q0 7 17.5 38t42 67.5t45 63.5t24.5 27q10 0 35.5 -18t55.5 -42t52 -42.5t23 -19.5q11 -10 15 -10q8 0 18 15
q1 2 18 25t39.5 52t41 51t23.5 22q8 0 35.5 -18.5t60 -43.5t56 -46t23.5 -27z" />
    <glyph glyph-name="uni062B.medi" unicode="&#x62b;" horiz-adv-x="574" arabic-form="medial" 
d="M666 140q0 -65 -11.5 -102.5t-62.5 -37.5h-51q-38 0 -63.5 10t-51.5 32q-22 18 -42.5 49.5t-34.5 70.5q-47 -64 -116.5 -113t-199.5 -49h-48q-51 0 -63 35.5t-12 104.5q0 64 12 99.5t63 35.5h48q106 0 170 26.5t99.5 61.5t54.5 61.5t35 26.5q9 0 19 -12t20 -62
q7 -34 28 -68t82 -34h51q51 0 62.5 -34.5t11.5 -100.5zM404 1124q0 -8 -17.5 -38.5t-42 -67t-45 -63.5t-27.5 -27q-8 0 -36 18.5t-61.5 43.5t-57.5 46.5t-24 27.5q0 7 17 38t41 67.5t45.5 63.5t30.5 27q4 0 31.5 -18t61 -43.5t59 -47t25.5 -27.5zM597 802q0 -8 -16.5 -38
t-40 -66t-44 -62.5t-27.5 -26.5q-4 0 -30 18t-57.5 42t-56 42.5t-25.5 20.5q-10 8 -17 8q-4 0 -11 -12q-1 -2 -17.5 -25.5t-38.5 -53.5t-41.5 -53t-26.5 -23q-5 0 -32 18.5t-60.5 43.5t-58.5 46t-25 27q0 7 17.5 38t42 67.5t45 63.5t24.5 27q10 0 35.5 -18t55.5 -42
t52 -42.5t23 -19.5q11 -10 15 -10q8 0 18 15q1 2 18 25t39.5 52t41 51t23.5 22q8 0 35.5 -18.5t60 -43.5t56 -46t23.5 -27z" />
    <glyph glyph-name="uni062B.fina" unicode="&#x62b;" horiz-adv-x="2014" arabic-form="final" 
d="M2105 138q0 -20 -4 -53t-17.5 -59t-43.5 -26h-53q-85 0 -146 28t-112 134q-79 -67 -226 -129.5t-340.5 -102.5t-412.5 -40q-307 0 -475 115t-168 305q0 82 24 157t56 134t58.5 93t31.5 34t22 -12.5t17 -22.5q0 -6 -20.5 -37.5t-41.5 -84t-21 -122.5q0 -99 84 -158
t221.5 -84.5t298.5 -25.5q184 0 346 16t286.5 50t193.5 87q28 20 46 46.5t35 26.5q23 0 35 -28.5t31 -51.5q17 -23 60 -37.5t117 -14.5h53q30 0 43.5 -25.5t17.5 -58t4 -53.5zM1073 1140q0 -8 -17.5 -38.5t-42 -67t-45 -63.5t-27.5 -27q-8 0 -36 18.5t-61.5 43.5t-57.5 46.5
t-24 27.5q0 7 17 38t41 67.5t45.5 63.5t30.5 27q4 0 31.5 -18t61 -43.5t59 -47t25.5 -27.5zM1266 818q0 -8 -16.5 -38t-40 -66t-44 -62.5t-27.5 -26.5q-4 0 -30 18t-57.5 42t-56 42.5t-25.5 20.5q-10 8 -17 8q-4 0 -11 -12q-1 -2 -17.5 -25.5t-38.5 -53.5t-41.5 -53
t-26.5 -23q-5 0 -32 18.5t-60.5 43.5t-58.5 46t-25 27q0 7 17.5 38t42 67.5t45 63.5t24.5 27q10 0 35.5 -18t55.5 -42t52 -42.5t23 -19.5q11 -10 15 -10q8 0 18 15q1 2 18 25t39.5 52t41 51t23.5 22q8 0 35.5 -18.5t60 -43.5t56 -46t23.5 -27z" />
    <glyph glyph-name="uni062C.init" unicode="&#x62c;" horiz-adv-x="1506" arabic-form="initial" 
d="M1396 598q0 -4 -4.5 -31t-10.5 -61.5t-11.5 -64t-7.5 -37.5q-1 -6 -62 -9.5t-162.5 -5t-225.5 -1.5q-84 0 -157 -35t-142.5 -87.5t-143.5 -106.5q-88 -64 -195.5 -111.5t-237.5 -47.5h-51q-34 0 -50 26t-20.5 59t-4.5 53q0 21 4.5 53.5t20.5 58t50 25.5h48
q104 0 211.5 12t200.5 50q52 21 110.5 51.5t109.5 42.5q-37 14 -103 44t-143.5 55.5t-149.5 25.5q-37 0 -73 -14.5t-60.5 -28.5t-27.5 -14t-21.5 8.5t-18.5 12.5q0 53 35.5 126.5t94.5 114.5q33 23 74.5 39t103.5 16q42 0 97 -20t115.5 -48t119 -53t105.5 -36
q71 -17 157.5 -31t191.5 -19q43 -1 97.5 -2.5t95.5 -3.5t41 -5zM879 -218q0 -7 -18 -39.5t-43 -71t-48 -67t-32 -28.5q-4 0 -33 19t-64.5 45t-62.5 48.5t-27 29.5q0 9 19 41.5t44.5 71t47.5 67t29 28.5q8 0 37.5 -19.5t64.5 -46t60.5 -49t25.5 -29.5z" />
    <glyph glyph-name="uni062C.medi" unicode="&#x62c;" horiz-adv-x="1472" arabic-form="medial" 
d="M1563 138q0 -20 -5 -53t-20.5 -59t-49.5 -26h-49q-157 0 -277.5 14.5t-181.5 56.5q-79 53 -79 167q0 27 10.5 72t23.5 78h-23q-84 0 -157 -35t-142.5 -87.5t-143.5 -106.5q-88 -64 -196 -111.5t-240 -47.5h-48q-34 0 -50 26t-20.5 59t-4.5 53q0 21 4.5 53.5t20.5 58
t50 25.5h48q134 0 233.5 14.5t178.5 47.5q49 20 109 51t111 43q-37 14 -103 44t-143.5 55.5t-149.5 25.5q-37 0 -73 -14.5t-60.5 -28.5t-27.5 -14q-5 0 -22.5 8.5t-17.5 12.5q0 53 35.5 126.5t94.5 114.5q33 23 74.5 39t103.5 16q42 0 97 -20t115.5 -48t119 -53t105.5 -36
q108 -25 258 -42t309 -17q15 0 15 -18q0 -2 -4 -26t-9.5 -56.5t-11 -60t-8.5 -35.5q-1 -4 -34 -8t-84 -6t-107 -3.5t-103 -1.5q-1 -3 -1 -17q0 -38 52 -58q40 -17 105 -24.5t133 -9t116 -1.5h49q34 0 49.5 -25.5t20.5 -58t5 -53.5zM892 -245q0 -7 -18 -39.5t-43 -71t-48 -67
t-32 -28.5q-4 0 -33 19t-64.5 45t-62.5 48.5t-27 29.5q0 9 19 41.5t44.5 71t47.5 67t29 28.5q8 0 37.5 -19.5t64.5 -46t60.5 -49t25.5 -29.5z" />
    <glyph glyph-name="uni062C.fina" unicode="&#x62c;" horiz-adv-x="1495" arabic-form="final" 
d="M1585 144q0 -85 -22 -114.5t-52 -29.5h-158q-101 0 -178.5 3t-139.5 21q-109 31 -109 178q0 30 9.5 79t19.5 98q-216 -55 -388.5 -155.5t-273.5 -234t-101 -288.5q0 -255 239.5 -369.5t676.5 -114.5q146 0 243.5 16.5t114.5 16.5q3 0 8 -22.5t5 -24.5q0 -7 -42 -29.5
t-106.5 -52t-134.5 -58.5t-128 -50.5t-86 -28.5q-53 -11 -95 -13t-65 -2q-139 0 -274.5 36t-245.5 112t-175.5 196t-65.5 289q0 134 47 250t127.5 214t181 176t207.5 135q-73 23 -135 31.5t-113 8.5q-103 0 -160 -20t-72 -20q-2 0 -15 9.5t-13 16.5q0 23 8.5 64.5t17.5 78
t10 43.5q2 10 47.5 34t113.5 45.5t135 21.5q93 0 157.5 -10t120.5 -22.5t121 -22.5t159 -10q30 0 79 2t100 4.5t87 2.5q23 0 37.5 -2.5t14.5 -4.5q0 -4 -12 -32.5t-28.5 -64.5t-30 -63.5t-16.5 -27.5q-27 -5 -87 -14.5t-107 -17.5q1 -34 15.5 -59t57 -41t125.5 -24t220 -8
h50q20 0 37 -6.5t27 -34t10 -90.5zM927 -238q0 -7 -18 -39.5t-43 -71t-48 -67t-32 -28.5q-4 0 -33 19t-64.5 45t-62.5 48.5t-27 29.5q0 9 19 41.5t44.5 71t47.5 67t29 28.5q8 0 37.5 -19.5t64.5 -46t60.5 -49t25.5 -29.5z" />
    <glyph glyph-name="uni062D.init" unicode="&#x62d;" horiz-adv-x="1506" arabic-form="initial" 
d="M1396 598q0 -4 -4.5 -31t-10.5 -61.5t-11.5 -64t-7.5 -37.5q-1 -6 -62 -9.5t-162.5 -5t-225.5 -1.5q-84 0 -157 -35t-142.5 -87.5t-143.5 -106.5q-88 -64 -195.5 -111.5t-237.5 -47.5h-51q-34 0 -50 26t-20.5 59t-4.5 53q0 21 4.5 53.5t20.5 58t50 25.5h48
q104 0 211.5 12t200.5 50q52 21 110.5 51.5t109.5 42.5q-37 14 -103 44t-143.5 55.5t-149.5 25.5q-37 0 -73 -14.5t-60.5 -28.5t-27.5 -14t-21.5 8.5t-18.5 12.5q0 53 35.5 126.5t94.5 114.5q33 23 74.5 39t103.5 16q42 0 97 -20t115.5 -48t119 -53t105.5 -36
q71 -17 157.5 -31t191.5 -19q43 -1 97.5 -2.5t95.5 -3.5t41 -5z" />
    <glyph glyph-name="uni062D.medi" unicode="&#x62d;" horiz-adv-x="1472" arabic-form="medial" 
d="M1563 138q0 -20 -5 -53t-20.5 -59t-49.5 -26h-49q-157 0 -277.5 14.5t-181.5 56.5q-79 53 -79 167q0 27 10.5 72t23.5 78h-23q-84 0 -157 -35t-142.5 -87.5t-143.5 -106.5q-88 -64 -196 -111.5t-240 -47.5h-48q-34 0 -50 26t-20.5 59t-4.5 53q0 21 4.5 53.5t20.5 58
t50 25.5h48q134 0 233.5 14.5t178.5 47.5q49 20 109 51t111 43q-37 14 -103 44t-143.5 55.5t-149.5 25.5q-37 0 -73 -14.5t-60.5 -28.5t-27.5 -14q-5 0 -22.5 8.5t-17.5 12.5q0 53 35.5 126.5t94.5 114.5q33 23 74.5 39t103.5 16q42 0 97 -20t115.5 -48t119 -53t105.5 -36
q108 -25 258 -42t309 -17q15 0 15 -18q0 -2 -4 -26t-9.5 -56.5t-11 -60t-8.5 -35.5q-1 -4 -34 -8t-84 -6t-107 -3.5t-103 -1.5q-1 -3 -1 -17q0 -38 52 -58q40 -17 105 -24.5t133 -9t116 -1.5h49q34 0 49.5 -25.5t20.5 -58t5 -53.5z" />
    <glyph glyph-name="uni062D.fina" unicode="&#x62d;" horiz-adv-x="1495" arabic-form="final" 
d="M1585 144q0 -85 -22 -114.5t-52 -29.5h-158q-101 0 -178.5 3t-139.5 21q-109 31 -109 178q0 30 9.5 79t19.5 98q-216 -55 -388.5 -155.5t-273.5 -234t-101 -288.5q0 -255 239.5 -369.5t676.5 -114.5q146 0 243.5 16.5t114.5 16.5q3 0 8 -22.5t5 -24.5q0 -7 -42 -29.5
t-106.5 -52t-134.5 -58.5t-128 -50.5t-86 -28.5q-53 -11 -95 -13t-65 -2q-139 0 -274.5 36t-245.5 112t-175.5 196t-65.5 289q0 134 47 250t127.5 214t181 176t207.5 135q-73 23 -135 31.5t-113 8.5q-103 0 -160 -20t-72 -20q-2 0 -15 9.5t-13 16.5q0 23 8.5 64.5t17.5 78
t10 43.5q2 10 47.5 34t113.5 45.5t135 21.5q93 0 157.5 -10t120.5 -22.5t121 -22.5t159 -10q30 0 79 2t100 4.5t87 2.5q23 0 37.5 -2.5t14.5 -4.5q0 -4 -12 -32.5t-28.5 -64.5t-30 -63.5t-16.5 -27.5q-27 -5 -87 -14.5t-107 -17.5q1 -34 15.5 -59t57 -41t125.5 -24t220 -8
h50q20 0 37 -6.5t27 -34t10 -90.5z" />
    <glyph glyph-name="uni062E.init" unicode="&#x62e;" horiz-adv-x="1506" arabic-form="initial" 
d="M1396 598q0 -4 -4.5 -31t-10.5 -61.5t-11.5 -64t-7.5 -37.5q-1 -6 -62 -9.5t-162.5 -5t-225.5 -1.5q-84 0 -157 -35t-142.5 -87.5t-143.5 -106.5q-88 -64 -195.5 -111.5t-237.5 -47.5h-51q-34 0 -50 26t-20.5 59t-4.5 53q0 21 4.5 53.5t20.5 58t50 25.5h48
q104 0 211.5 12t200.5 50q52 21 110.5 51.5t109.5 42.5q-37 14 -103 44t-143.5 55.5t-149.5 25.5q-37 0 -73 -14.5t-60.5 -28.5t-27.5 -14t-21.5 8.5t-18.5 12.5q0 53 35.5 126.5t94.5 114.5q33 23 74.5 39t103.5 16q42 0 97 -20t115.5 -48t119 -53t105.5 -36
q71 -17 157.5 -31t191.5 -19q43 -1 97.5 -2.5t95.5 -3.5t41 -5zM879 1163q0 -7 -18 -39.5t-43 -71t-48 -67t-32 -28.5q-4 0 -33 19t-64.5 45t-62.5 48.5t-27 29.5q0 9 19 41.5t44.5 71t47.5 67t29 28.5q8 0 37.5 -19.5t64.5 -46t60.5 -49t25.5 -29.5z" />
    <glyph glyph-name="uni062E.medi" unicode="&#x62e;" horiz-adv-x="1472" arabic-form="medial" 
d="M1563 138q0 -20 -5 -53t-20.5 -59t-49.5 -26h-49q-157 0 -277.5 14.5t-181.5 56.5q-79 53 -79 167q0 27 10.5 72t23.5 78h-23q-84 0 -157 -35t-142.5 -87.5t-143.5 -106.5q-88 -64 -196 -111.5t-240 -47.5h-48q-34 0 -50 26t-20.5 59t-4.5 53q0 21 4.5 53.5t20.5 58
t50 25.5h48q134 0 233.5 14.5t178.5 47.5q49 20 109 51t111 43q-37 14 -103 44t-143.5 55.5t-149.5 25.5q-37 0 -73 -14.5t-60.5 -28.5t-27.5 -14q-5 0 -22.5 8.5t-17.5 12.5q0 53 35.5 126.5t94.5 114.5q33 23 74.5 39t103.5 16q42 0 97 -20t115.5 -48t119 -53t105.5 -36
q108 -25 258 -42t309 -17q15 0 15 -18q0 -2 -4 -26t-9.5 -56.5t-11 -60t-8.5 -35.5q-1 -4 -34 -8t-84 -6t-107 -3.5t-103 -1.5q-1 -3 -1 -17q0 -38 52 -58q40 -17 105 -24.5t133 -9t116 -1.5h49q34 0 49.5 -25.5t20.5 -58t5 -53.5zM908 1129q0 -7 -18 -39.5t-43 -71t-48 -67
t-32 -28.5q-4 0 -33 19t-64.5 45t-62.5 48.5t-27 29.5q0 9 19 41.5t44.5 71t47.5 67t29 28.5q8 0 37.5 -19.5t64.5 -46t60.5 -49t25.5 -29.5z" />
    <glyph glyph-name="uni062E.fina" unicode="&#x62e;" horiz-adv-x="1495" arabic-form="final" 
d="M1585 144q0 -85 -22 -114.5t-52 -29.5h-158q-101 0 -178.5 3t-139.5 21q-109 31 -109 178q0 30 9.5 79t19.5 98q-216 -55 -388.5 -155.5t-273.5 -234t-101 -288.5q0 -255 239.5 -369.5t676.5 -114.5q146 0 243.5 16.5t114.5 16.5q3 0 8 -22.5t5 -24.5q0 -7 -42 -29.5
t-106.5 -52t-134.5 -58.5t-128 -50.5t-86 -28.5q-53 -11 -95 -13t-65 -2q-139 0 -274.5 36t-245.5 112t-175.5 196t-65.5 289q0 134 47 250t127.5 214t181 176t207.5 135q-73 23 -135 31.5t-113 8.5q-103 0 -160 -20t-72 -20q-2 0 -15 9.5t-13 16.5q0 23 8.5 64.5t17.5 78
t10 43.5q2 10 47.5 34t113.5 45.5t135 21.5q93 0 157.5 -10t120.5 -22.5t121 -22.5t159 -10q30 0 79 2t100 4.5t87 2.5q23 0 37.5 -2.5t14.5 -4.5q0 -4 -12 -32.5t-28.5 -64.5t-30 -63.5t-16.5 -27.5q-27 -5 -87 -14.5t-107 -17.5q1 -34 15.5 -59t57 -41t125.5 -24t220 -8
h50q20 0 37 -6.5t27 -34t10 -90.5zM978 1026q0 -7 -18 -39.5t-43 -71t-48 -67t-32 -28.5q-4 0 -33 19t-64.5 45t-62.5 48.5t-27 29.5q0 9 19 41.5t44.5 71t47.5 67t29 28.5q8 0 37.5 -19.5t64.5 -46t60.5 -49t25.5 -29.5z" />
    <glyph glyph-name="uni062F.fina" unicode="&#x62f;" horiz-adv-x="1136" arabic-form="final" 
d="M1226 138q0 -20 -4.5 -53t-19.5 -59t-49 -26h-51q-78 0 -135 46.5t-97 125.5t-69 178q-13 -55 -49.5 -116t-78.5 -103q-56 -53 -147 -85t-213 -32q-98 0 -165 40.5t-67 110.5q0 9 12 51t30 92.5t36 87.5t29 37t19 -18t17 -32t23.5 -38.5t49 -44t101.5 -19.5
q93 0 173 21.5t129 72t49 137.5q-13 127 -43.5 210t-30.5 117q0 12 16 48.5t37 78t38 71.5t20 30q7 0 21.5 -6.5t16.5 -29.5q15 -99 30.5 -204.5t32.5 -202t35 -169t38 -106.5q22 -37 62 -55.5t80 -18.5h51q34 0 49 -25.5t19.5 -58t4.5 -53.5z" />
    <glyph glyph-name="uni0630.fina" unicode="&#x630;" horiz-adv-x="1136" arabic-form="final" 
d="M1226 138q0 -20 -4.5 -53t-19.5 -59t-49 -26h-51q-78 0 -135 46.5t-97 125.5t-69 178q-13 -55 -49.5 -116t-78.5 -103q-56 -53 -147 -85t-213 -32q-98 0 -165 40.5t-67 110.5q0 9 12 51t30 92.5t36 87.5t29 37t19 -18t17 -32t23.5 -38.5t49 -44t101.5 -19.5
q93 0 173 21.5t129 72t49 137.5q-13 127 -43.5 210t-30.5 117q0 12 16 48.5t37 78t38 71.5t20 30q7 0 21.5 -6.5t16.5 -29.5q15 -99 30.5 -204.5t32.5 -202t35 -169t38 -106.5q22 -37 62 -55.5t80 -18.5h51q34 0 49 -25.5t19.5 -58t4.5 -53.5zM873 1395q0 -7 -18 -39.5
t-43 -71t-48 -67t-32 -28.5q-4 0 -33 19t-64.5 45t-62.5 48.5t-27 29.5q0 9 19 41.5t44.5 71t47.5 67t29 28.5q8 0 37.5 -19.5t64.5 -46t60.5 -49t25.5 -29.5z" />
    <glyph glyph-name="uni0631.fina" unicode="&#x631;" horiz-adv-x="869" arabic-form="final" 
d="M961 138q0 -20 -4.5 -53t-20 -59t-49.5 -26h-50q-10 0 -31.5 3t-37.5 12q-7 -75 -24 -165.5t-51.5 -180.5t-95.5 -165q-34 -41 -90.5 -79.5t-126 -63t-141.5 -24.5q-38 0 -100 18t-125 42t-106 45t-43 27q0 8 5.5 30.5t11.5 22.5q4 0 30.5 -4.5t81.5 -4.5
q73 0 163.5 24.5t181.5 73.5t163 120q87 88 124 145.5t37 73.5q0 9 -23 39.5t-53.5 68t-53.5 67.5t-23 37q0 3 14.5 35t34 73.5t35.5 75.5t19 41h35q25 -30 70.5 -71t118.5 -41h50q34 0 49.5 -25.5t20 -58t4.5 -53.5z" />
    <glyph glyph-name="uni0632.fina" unicode="&#x632;" horiz-adv-x="869" arabic-form="final" 
d="M961 138q0 -20 -4.5 -53t-20 -59t-49.5 -26h-50q-10 0 -31.5 3t-37.5 12q-7 -75 -24 -165.5t-51.5 -180.5t-95.5 -165q-34 -41 -90.5 -79.5t-126 -63t-141.5 -24.5q-38 0 -100 18t-125 42t-106 45t-43 27q0 8 5.5 30.5t11.5 22.5q4 0 30.5 -4.5t81.5 -4.5
q73 0 163.5 24.5t181.5 73.5t163 120q87 88 124 145.5t37 73.5q0 9 -23 39.5t-53.5 68t-53.5 67.5t-23 37q0 3 14.5 35t34 73.5t35.5 75.5t19 41h35q25 -30 70.5 -71t118.5 -41h50q34 0 49.5 -25.5t20 -58t4.5 -53.5zM758 731q0 -7 -18 -39.5t-43 -71t-48 -67t-32 -28.5
q-4 0 -33 19t-64.5 45t-62.5 48.5t-27 29.5q0 9 19 41.5t44.5 71t47.5 67t29 28.5q8 0 37.5 -19.5t64.5 -46t60.5 -49t25.5 -29.5z" />
    <glyph glyph-name="uni0633.init" unicode="&#x633;" horiz-adv-x="1443" arabic-form="initial" 
d="M1305 539q0 -32 -7 -86t-23.5 -115t-44 -115.5t-67 -89.5t-94.5 -35q-75 0 -133 52.5t-90 115.5q-30 -54 -72.5 -115t-98 -104.5t-126.5 -43.5q-55 0 -102 25.5t-80 63.5t-46 75q-51 -76 -124.5 -121.5t-163.5 -45.5h-48q-34 0 -50 26t-20.5 59t-4.5 53q0 21 4.5 53.5
t20.5 58t50 25.5h48q110 0 176 27t102 62.5t53.5 62.5t29.5 27q24 0 33 -26.5t20 -62t37.5 -62t84.5 -26.5q89 0 154.5 44.5t104 111.5t44.5 136q2 11 8 19.5t21 8.5q18 0 29 -34q31 -98 91.5 -147t124.5 -49q30 0 48 14.5t18 32.5q0 26 -26 43t-52 26t-26 12q0 5 8.5 50
t22 101.5t29.5 99.5t30 43q15 0 40.5 -39t46 -96.5t20.5 -114.5z" />
    <glyph glyph-name="uni0633.medi" unicode="&#x633;" horiz-adv-x="1478" arabic-form="medial" 
d="M1566 126q0 -21 -1 -51t-13 -52.5t-46 -22.5h-51q-103 0 -168.5 63.5t-104.5 175.5q-37 -97 -83 -151.5t-123 -54.5q-71 0 -110 39t-55 107q-52 -91 -114 -133.5t-162 -42.5q-64 0 -121.5 35t-92.5 129q-51 -96 -134.5 -131.5t-153.5 -35.5h-48q-34 0 -50 22.5
t-20.5 52.5t-4.5 51t4.5 56.5t20.5 64t50 28.5h48q107 0 170 33t96 77t49 77t28 33q20 0 28 -21.5t14 -53.5t20.5 -64t47 -53.5t93.5 -21.5q82 0 136.5 36.5t88 84.5t51.5 84.5t27 36.5q24 0 31 -8t8 -28q1 -14 6 -51t26 -69.5t69 -32.5t80.5 29.5t52.5 67.5t32 67.5
t19 29.5q37 0 37 -31q0 -22 13 -59t39.5 -74.5t66.5 -63t93 -25.5h51q34 0 46 -28.5t13 -64t1 -56.5z" />
    <glyph glyph-name="uni0633.fina" unicode="&#x633;" horiz-adv-x="2084" arabic-form="final" 
d="M2174 138q0 -64 -12 -101t-62 -37h-50q-103 0 -169 63.5t-105 175.5q-37 -97 -82.5 -151.5t-122.5 -54.5q-72 0 -111 39t-55 107q-52 -91 -112.5 -134t-155.5 -45q-4 -53 -9.5 -106.5t-17.5 -102.5q-30 -129 -100.5 -218t-168 -144t-208 -79.5t-219.5 -24.5
q-150 0 -231 55.5t-112.5 140t-31.5 172.5q0 79 25.5 159.5t59 147.5t61 107.5t30.5 40.5q8 0 28.5 -12t20.5 -18q0 -10 -27 -52.5t-54 -105t-27 -135.5q0 -53 30 -104t96.5 -84.5t175.5 -33.5q182 0 314 25t199 89q68 60 68 161q0 85 -22 146.5t-44.5 99.5t-22.5 51
q0 8 18.5 50t43.5 93t46.5 89.5t26.5 38.5q18 -12 33.5 -46t27 -70t16.5 -56q86 0 143 37.5t91 87t52.5 87t27.5 37.5q24 0 31 -8t8 -28q1 -14 6 -51.5t26 -69.5t69 -32t80.5 29.5t52.5 67.5t32 67.5t19 29.5q38 0 38 -31q0 -22 13 -59t39.5 -74.5t66.5 -63t93 -25.5h50
q50 0 62 -27.5t12 -109.5z" />
    <glyph glyph-name="uni0634.init" unicode="&#x634;" horiz-adv-x="1443" arabic-form="initial" 
d="M1305 539q0 -32 -7 -86t-23.5 -115t-44 -115.5t-67 -89.5t-94.5 -35q-75 0 -133 52.5t-90 115.5q-30 -54 -72.5 -115t-98 -104.5t-126.5 -43.5q-55 0 -102 25.5t-80 63.5t-46 75q-51 -76 -124.5 -121.5t-163.5 -45.5h-48q-34 0 -50 26t-20.5 59t-4.5 53q0 21 4.5 53.5
t20.5 58t50 25.5h48q110 0 176 27t102 62.5t53.5 62.5t29.5 27q24 0 33 -26.5t20 -62t37.5 -62t84.5 -26.5q89 0 154.5 44.5t104 111.5t44.5 136q2 11 8 19.5t21 8.5q18 0 29 -34q31 -98 91.5 -147t124.5 -49q30 0 48 14.5t18 32.5q0 26 -26 43t-52 26t-26 12q0 5 8.5 50
t22 101.5t29.5 99.5t30 43q15 0 40.5 -39t46 -96.5t20.5 -114.5zM826 1317q0 -8 -17.5 -38.5t-42 -67t-45 -63.5t-27.5 -27q-8 0 -36 18.5t-61.5 43.5t-57.5 46.5t-24 27.5q0 7 17 38t41 67.5t45.5 63.5t30.5 27q4 0 31.5 -18t61 -43.5t59 -47t25.5 -27.5zM1019 995
q0 -8 -16.5 -38t-40 -66t-44 -62.5t-27.5 -26.5q-4 0 -30 18t-57.5 42t-56 42.5t-25.5 20.5q-10 8 -17 8q-4 0 -11 -12q-1 -2 -17.5 -25.5t-38.5 -53.5t-41.5 -53t-26.5 -23q-5 0 -32 18.5t-60.5 43.5t-58.5 46t-25 27q0 7 17.5 38t42 67.5t45 63.5t24.5 27q10 0 35.5 -18
t55.5 -42t52 -42.5t23 -19.5q11 -10 15 -10q8 0 18 15q1 2 18 25t39.5 52t41 51t23.5 22q8 0 35.5 -18.5t60 -43.5t56 -46t23.5 -27z" />
    <glyph glyph-name="uni0634.medi" unicode="&#x634;" horiz-adv-x="1478" arabic-form="medial" 
d="M1566 126q0 -21 -1 -51t-13 -52.5t-46 -22.5h-51q-103 0 -168.5 63.5t-104.5 175.5q-37 -97 -83 -151.5t-123 -54.5q-71 0 -110 39t-55 107q-52 -91 -114 -133.5t-162 -42.5q-64 0 -121.5 35t-92.5 129q-51 -96 -134.5 -131.5t-153.5 -35.5h-48q-34 0 -50 22.5
t-20.5 52.5t-4.5 51t4.5 56.5t20.5 64t50 28.5h48q107 0 170 33t96 77t49 77t28 33q20 0 28 -21.5t14 -53.5t20.5 -64t47 -53.5t93.5 -21.5q82 0 136.5 36.5t88 84.5t51.5 84.5t27 36.5q24 0 31 -8t8 -28q1 -14 6 -51t26 -69.5t69 -32.5t80.5 29.5t52.5 67.5t32 67.5
t19 29.5q37 0 37 -31q0 -22 13 -59t39.5 -74.5t66.5 -63t93 -25.5h51q34 0 46 -28.5t13 -64t1 -56.5zM886 1199q0 -8 -17.5 -38.5t-42 -67t-45 -63.5t-27.5 -27q-8 0 -36 18.5t-61.5 43.5t-57.5 46.5t-24 27.5q0 7 17 38t41 67.5t45.5 63.5t30.5 27q4 0 31.5 -18t61 -43.5
t59 -47t25.5 -27.5zM1079 877q0 -8 -16.5 -38t-40 -66t-44 -62.5t-27.5 -26.5q-4 0 -30 18t-57.5 42t-56 42.5t-25.5 20.5q-10 8 -17 8q-4 0 -11 -12q-1 -2 -17.5 -25.5t-38.5 -53.5t-41.5 -53t-26.5 -23q-5 0 -32 18.5t-60.5 43.5t-58.5 46t-25 27q0 7 17.5 38t42 67.5
t45 63.5t24.5 27q10 0 35.5 -18t55.5 -42t52 -42.5t23 -19.5q11 -10 15 -10q8 0 18 15q1 2 18 25t39.5 52t41 51t23.5 22q8 0 35.5 -18.5t60 -43.5t56 -46t23.5 -27z" />
    <glyph glyph-name="uni0634.fina" unicode="&#x634;" horiz-adv-x="2084" arabic-form="final" 
d="M2174 138q0 -64 -12 -101t-62 -37h-50q-103 0 -169 63.5t-105 175.5q-37 -97 -82.5 -151.5t-122.5 -54.5q-72 0 -111 39t-55 107q-52 -91 -112.5 -134t-155.5 -45q-4 -53 -9.5 -106.5t-17.5 -102.5q-30 -129 -100.5 -218t-168 -144t-208 -79.5t-219.5 -24.5
q-150 0 -231 55.5t-112.5 140t-31.5 172.5q0 79 25.5 159.5t59 147.5t61 107.5t30.5 40.5q8 0 28.5 -12t20.5 -18q0 -10 -27 -52.5t-54 -105t-27 -135.5q0 -53 30 -104t96.5 -84.5t175.5 -33.5q182 0 314 25t199 89q68 60 68 161q0 85 -22 146.5t-44.5 99.5t-22.5 51
q0 8 18.5 50t43.5 93t46.5 89.5t26.5 38.5q18 -12 33.5 -46t27 -70t16.5 -56q86 0 143 37.5t91 87t52.5 87t27.5 37.5q24 0 31 -8t8 -28q1 -14 6 -51.5t26 -69.5t69 -32t80.5 29.5t52.5 67.5t32 67.5t19 29.5q38 0 38 -31q0 -22 13 -59t39.5 -74.5t66.5 -63t93 -25.5h50
q50 0 62 -27.5t12 -109.5zM1563 1247q0 -8 -17.5 -38.5t-42 -67t-45 -63.5t-27.5 -27q-8 0 -36 18.5t-61.5 43.5t-57.5 46.5t-24 27.5q0 7 17 38t41 67.5t45.5 63.5t30.5 27q4 0 31.5 -18t61 -43.5t59 -47t25.5 -27.5zM1756 925q0 -8 -16.5 -38t-40 -66t-44 -62.5
t-27.5 -26.5q-4 0 -30 18t-57.5 42t-56 42.5t-25.5 20.5q-10 8 -17 8q-4 0 -11 -12q-1 -2 -17.5 -25.5t-38.5 -53.5t-41.5 -53t-26.5 -23q-5 0 -32 18.5t-60.5 43.5t-58.5 46t-25 27q0 7 17.5 38t42 67.5t45 63.5t24.5 27q10 0 35.5 -18t55.5 -42t52 -42.5t23 -19.5
q11 -10 15 -10q8 0 18 15q1 2 18 25t39.5 52t41 51t23.5 22q8 0 35.5 -18.5t60 -43.5t56 -46t23.5 -27z" />
    <glyph glyph-name="uni0635.init" unicode="&#x635;" horiz-adv-x="1729" arabic-form="initial" 
d="M1592 608q0 -124 -49 -217.5t-130.5 -160t-180.5 -111t-201 -70t-192 -37t-152 -12.5q-7 -16 -22 -58.5t-27.5 -87t-15.5 -68.5q-5 0 -22.5 20.5t-33.5 44.5t-16 33q0 13 9 49t20 67q-103 0 -183.5 34t-130.5 110q-37 -58 -88.5 -101t-143.5 -43h-48q-51 0 -63 38.5
t-12 99.5q0 71 12 104t63 33h48q86 0 142 27.5t89 63.5t49.5 63.5t23.5 27.5q23 0 26 -29t8 -58q10 -44 55 -64.5t101.5 -25.5t99.5 -5h55q48 90 122 189t166.5 184.5t198 139.5t216.5 54q77 0 122.5 -41t65 -96t19.5 -97zM1452 483q0 15 -49.5 44t-138.5 29
q-75 0 -164.5 -34t-169 -96.5t-124.5 -147.5q109 2 222.5 25.5t209.5 57.5t155 67.5t59 54.5z" />
    <glyph glyph-name="uni0635.medi" unicode="&#x635;" horiz-adv-x="1685" arabic-form="medial" 
d="M1761 138q0 -20 -4.5 -53t-20 -59t-49.5 -26h-50q-156 0 -318 0.5t-323 0.5h-162.5t-160.5 -1q-18 -35 -32 -86t-22.5 -89.5t-11.5 -38.5q-22 0 -47.5 33.5t-25.5 64.5q0 13 7 48t20 69q-103 0 -182 33.5t-129 109.5q-37 -58 -88.5 -101t-142.5 -43h-50q-33 0 -49 26
t-20.5 59t-4.5 53q0 21 4.5 53.5t20.5 58t49 25.5h50q86 0 141.5 27.5t88 63.5t49 63.5t23.5 27.5q24 0 27 -31t8 -56q10 -44 55 -64.5t101.5 -25.5t100.5 -5h52q48 90 124 190.5t171.5 189.5t203 144.5t218.5 55.5q71 0 114 -44.5t62 -103t19 -99.5q0 -99 -39 -194
t-140 -154q74 7 109.5 10t61 4t68.5 1h50q34 0 49.5 -25.5t20 -58t4.5 -53.5zM1437 483q0 21 -25 35t-60 22.5t-65 12t-40 3.5q-138 0 -258.5 -65.5t-197.5 -215.5q108 3 221.5 27.5t209.5 58.5t155.5 67.5t59.5 54.5z" />
    <glyph glyph-name="uni0635.fina" unicode="&#x635;" horiz-adv-x="2378" arabic-form="final" 
d="M2470 138q0 -20 -4.5 -53t-20.5 -59t-49 -26h-51q-104 0 -226 2.5t-238 10t-203 20.5q-68 -4 -142.5 -10t-152.5 -8q-16 -43 -31 -96.5t-25 -93t-13 -39.5q-22 0 -47 33.5t-25 64.5q0 13 9.5 54t23.5 76q-19 0 -44.5 3t-38.5 9q-1 -53 -2.5 -85.5t-5.5 -62.5t-14 -78
q-36 -173 -131 -283t-233 -161.5t-303 -51.5q-156 0 -259 54.5t-154 141.5t-51 183q0 99 30 189.5t70 160.5t72 110.5t36 40.5q11 0 25 -14.5t14 -24.5q0 -9 -31 -51.5t-62.5 -112.5t-31.5 -162q0 -99 60.5 -154t155 -77t197.5 -22q80 0 166 14.5t157.5 41t106.5 61.5
q31 32 53 97t22 142q0 80 -28.5 134.5t-57.5 84.5t-29 36q0 8 16.5 46t38.5 84.5t41 81t24 34.5q16 -23 36 -66.5t27 -72.5q26 -3 93 -6t134 -3q48 90 122 189t166.5 184.5t197.5 139.5t216 54q72 0 118.5 -41.5t69 -96.5t22.5 -96q0 -99 -40 -194t-140 -154q75 7 110.5 10
t60.5 4t68 1h51q33 0 49 -25.5t20.5 -58t4.5 -53.5zM2145 483q0 17 -31 33.5t-75 28t-83 11.5q-75 0 -164.5 -34t-168.5 -96.5t-124 -147.5q108 2 221.5 25.5t210 57.5t155.5 67.5t59 54.5z" />
    <glyph glyph-name="uni0636.init" unicode="&#x636;" horiz-adv-x="1729" arabic-form="initial" 
d="M1592 608q0 -124 -49 -217.5t-130.5 -160t-180.5 -111t-201 -70t-192 -37t-152 -12.5q-7 -16 -22 -58.5t-27.5 -87t-15.5 -68.5q-5 0 -22.5 20.5t-33.5 44.5t-16 33q0 13 9 49t20 67q-103 0 -183.5 34t-130.5 110q-37 -58 -88.5 -101t-143.5 -43h-48q-51 0 -63 38.5
t-12 99.5q0 71 12 104t63 33h48q86 0 142 27.5t89 63.5t49.5 63.5t23.5 27.5q23 0 26 -29t8 -58q10 -44 55 -64.5t101.5 -25.5t99.5 -5h55q48 90 122 189t166.5 184.5t198 139.5t216.5 54q77 0 122.5 -41t65 -96t19.5 -97zM1452 483q0 15 -49.5 44t-138.5 29
q-75 0 -164.5 -34t-169 -96.5t-124.5 -147.5q109 2 222.5 25.5t209.5 57.5t155 67.5t59 54.5zM1003 974q0 -7 -18 -39.5t-43 -71t-48 -67t-32 -28.5q-4 0 -33 19t-64.5 45t-62.5 48.5t-27 29.5q0 9 19 41.5t44.5 71t47.5 67t29 28.5q8 0 37.5 -19.5t64.5 -46t60.5 -49
t25.5 -29.5z" />
    <glyph glyph-name="uni0636.medi" unicode="&#x636;" horiz-adv-x="1685" arabic-form="medial" 
d="M1775 138q0 -20 -4.5 -53t-20 -59t-49.5 -26h-50q-156 0 -318 0.5t-323 0.5h-162.5t-160.5 -1q-18 -35 -32 -86t-22.5 -89.5t-11.5 -38.5q-22 0 -47.5 33.5t-25.5 64.5q0 13 7 48t20 69q-103 0 -182 33.5t-129 109.5q-37 -58 -88.5 -101t-142.5 -43h-50q-33 0 -49 26
t-20.5 59t-4.5 53q0 21 4.5 53.5t20.5 58t49 25.5h50q86 0 141.5 27.5t88 63.5t49 63.5t23.5 27.5q24 0 27 -31t8 -56q10 -44 55 -64.5t101.5 -25.5t100.5 -5h52q48 90 124 190.5t171.5 189.5t203 144.5t218.5 55.5q71 0 114 -44.5t62 -103t19 -99.5q0 -99 -39 -194
t-140 -154q74 7 109.5 10t61 4t68.5 1h50q34 0 49.5 -25.5t20 -58t4.5 -53.5zM1451 483q0 21 -25 35t-60 22.5t-65 12t-40 3.5q-138 0 -258.5 -65.5t-197.5 -215.5q108 3 221.5 27.5t209.5 58.5t155.5 67.5t59.5 54.5zM1007 1059q0 -7 -18 -39.5t-43 -71t-48 -67t-32 -28.5
q-4 0 -33 19t-64.5 45t-62.5 48.5t-27 29.5q0 9 19 41.5t44.5 71t47.5 67t29 28.5q8 0 37.5 -19.5t64.5 -46t60.5 -49t25.5 -29.5z" />
    <glyph glyph-name="uni0636.fina" unicode="&#x636;" horiz-adv-x="2378" arabic-form="final" 
d="M2470 138q0 -20 -4.5 -53t-20.5 -59t-49 -26h-51q-104 0 -226 2.5t-238 10t-203 20.5q-68 -4 -142.5 -10t-152.5 -8q-16 -43 -31 -96.5t-25 -93t-13 -39.5q-22 0 -47 33.5t-25 64.5q0 13 9.5 54t23.5 76q-19 0 -44.5 3t-38.5 9q-1 -53 -2.5 -85.5t-5.5 -62.5t-14 -78
q-36 -173 -131 -283t-233 -161.5t-303 -51.5q-156 0 -259 54.5t-154 141.5t-51 183q0 99 30 189.5t70 160.5t72 110.5t36 40.5q11 0 25 -14.5t14 -24.5q0 -9 -31 -51.5t-62.5 -112.5t-31.5 -162q0 -99 60.5 -154t155 -77t197.5 -22q80 0 166 14.5t157.5 41t106.5 61.5
q31 32 53 97t22 142q0 80 -28.5 134.5t-57.5 84.5t-29 36q0 8 16.5 46t38.5 84.5t41 81t24 34.5q16 -23 36 -66.5t27 -72.5q26 -3 93 -6t134 -3q48 90 122 189t166.5 184.5t197.5 139.5t216 54q72 0 118.5 -41.5t69 -96.5t22.5 -96q0 -99 -40 -194t-140 -154q75 7 110.5 10
t60.5 4t68 1h51q33 0 49 -25.5t20.5 -58t4.5 -53.5zM2145 483q0 17 -31 33.5t-75 28t-83 11.5q-75 0 -164.5 -34t-168.5 -96.5t-124 -147.5q108 2 221.5 25.5t210 57.5t155.5 67.5t59 54.5zM1628 1009q0 -7 -18 -39.5t-43 -71t-48 -67t-32 -28.5q-4 0 -33 19t-64.5 45
t-62.5 48.5t-27 29.5q0 9 19 41.5t44.5 71t47.5 67t29 28.5q8 0 37.5 -19.5t64.5 -46t60.5 -49t25.5 -29.5z" />
    <glyph glyph-name="uni0637.init" unicode="&#x637;" horiz-adv-x="1222" arabic-form="initial" 
d="M1130 608q0 -51 -16.5 -126.5t-69 -154.5t-160.5 -143q-120 -71 -266.5 -111t-297.5 -56.5t-287 -16.5h-48q-34 0 -50 26t-20.5 59t-4.5 53q0 21 4.5 53.5t20.5 58t50 25.5h48q31 0 59 3.5t56 16.5q21 9 41.5 23.5t41.5 36.5q12 41 18.5 85t6.5 109q0 82 -16 186.5
t-37.5 211.5t-37.5 198.5t-16 148.5q0 40 25.5 91.5t55 89.5t42.5 38q5 0 27.5 -33.5t50.5 -78.5t48.5 -80.5t20.5 -38.5q0 -6 -19 -21t-38 -46.5t-19 -88.5q0 -25 6 -84.5t14 -130.5t14 -130.5t6 -84.5q0 -24 -0.5 -65.5t-2 -83.5t-6.5 -66q128 138 226 216.5t176 111.5
t147 33q77 0 122 -41t65 -96t20 -97zM991 483q0 15 -50.5 44t-139.5 29q-73 0 -162.5 -34t-169.5 -96.5t-126 -148.5q109 2 222.5 26t210 58t156 67.5t59.5 54.5z" />
    <glyph glyph-name="uni0637.medi" unicode="&#x637;" horiz-adv-x="1399" arabic-form="medial" 
d="M1489 138q0 -20 -4.5 -53t-20 -59t-49.5 -26h-1135q-8 -16 -22.5 -58.5t-27 -87t-15.5 -68.5q-15 17 -43.5 52t-28.5 57q0 13 9.5 44.5t18.5 60.5h-186q-34 0 -50 26t-20.5 59t-4.5 53q0 21 4.5 53.5t20.5 58t50 25.5h48q96 0 150.5 6t77.5 18q49 25 59 81q8 53 10 82
t2 87q0 107 -8 192t-31 192q-24 116 -46 198.5t-22 162.5q0 25 15 61.5t36 72t41 59.5t30 24l148 -229q-21 -18 -49 -54.5t-28 -101.5q0 -79 20 -192t20 -238q0 -40 -2.5 -104t-6.5 -111q129 138 226.5 216.5t175.5 111.5t146 33q65 0 111.5 -35.5t72 -89.5t25.5 -109
q0 -85 -36.5 -186.5t-126.5 -171.5q93 11 160 18t135 7h77q34 0 49.5 -25.5t20 -58t4.5 -53.5zM1066 483q0 17 -51.5 45t-137.5 28q-78 0 -166.5 -35t-171 -98t-142.5 -148q119 3 237.5 27.5t216 58.5t156.5 67.5t59 54.5z" />
    <glyph glyph-name="uni0637.fina" unicode="&#x637;" horiz-adv-x="1748" arabic-form="final" 
d="M1841 138q0 -70 -12.5 -104t-62.5 -34h-52h-105.5h-182.5h-227.5h-242.5h-226.5h-180.5h-103q-47 0 -85.5 4t-61.5 11q-8 3 -36.5 25.5t-66 56t-73.5 68.5t-60 63.5t-24 41.5q0 6 7.5 15.5t19.5 9.5q48 0 111 -5t126.5 -10t111.5 -5q92 0 142 14t99 66q11 28 16.5 66.5
t7.5 74t2 53.5q0 70 -8.5 171.5t-31.5 212.5q-24 116 -46 198.5t-22 162.5q0 40 25.5 89t55.5 84.5t41 35.5q6 0 29.5 -31.5t51 -73.5t48 -76t20.5 -40q-22 -18 -50 -54.5t-28 -101.5q0 -72 20.5 -188.5t20.5 -241.5q0 -35 -3 -101.5t-7 -113.5q129 138 227 216.5t176 111.5
t146 33q64 0 110.5 -35.5t72 -89.5t25.5 -109q0 -85 -36.5 -186.5t-125.5 -171.5q91 11 169.5 18t124.5 7h79q50 0 62.5 -31t12.5 -106zM1415 483q0 15 -50 44t-139 29q-74 0 -163.5 -34t-169.5 -96.5t-126 -148.5q109 2 223 26t210.5 58t155.5 67.5t59 54.5z" />
    <glyph glyph-name="uni0638.init" unicode="&#x638;" horiz-adv-x="1222" arabic-form="initial" 
d="M1130 608q0 -51 -16.5 -126.5t-69 -154.5t-160.5 -143q-120 -71 -266.5 -111t-297.5 -56.5t-287 -16.5h-48q-34 0 -50 26t-20.5 59t-4.5 53q0 21 4.5 53.5t20.5 58t50 25.5h48q31 0 59 3.5t56 16.5q21 9 41.5 23.5t41.5 36.5q12 41 18.5 85t6.5 109q0 82 -16 186.5
t-37.5 211.5t-37.5 198.5t-16 148.5q0 40 25.5 91.5t55 89.5t42.5 38q5 0 27.5 -33.5t50.5 -78.5t48.5 -80.5t20.5 -38.5q0 -6 -19 -21t-38 -46.5t-19 -88.5q0 -25 6 -84.5t14 -130.5t14 -130.5t6 -84.5q0 -24 -0.5 -65.5t-2 -83.5t-6.5 -66q128 138 226 216.5t176 111.5
t147 33q77 0 122 -41t65 -96t20 -97zM991 483q0 15 -50.5 44t-139.5 29q-73 0 -162.5 -34t-169.5 -96.5t-126 -148.5q109 2 222.5 26t210 58t156 67.5t59.5 54.5zM895 1149q0 -7 -18 -39.5t-43 -71t-48 -67t-32 -28.5q-4 0 -33 19t-64.5 45t-62.5 48.5t-27 29.5q0 9 19 41.5
t44.5 71t47.5 67t29 28.5q8 0 37.5 -19.5t64.5 -46t60.5 -49t25.5 -29.5z" />
    <glyph glyph-name="uni0638.medi" unicode="&#x638;" horiz-adv-x="1399" arabic-form="medial" 
d="M1489 138q0 -20 -4.5 -53t-20 -59t-49.5 -26h-1135q-8 -16 -22.5 -58.5t-27 -87t-15.5 -68.5q-15 17 -43.5 52t-28.5 57q0 13 9.5 44.5t18.5 60.5h-186q-34 0 -50 26t-20.5 59t-4.5 53q0 21 4.5 53.5t20.5 58t50 25.5h48q96 0 150.5 6t77.5 18q49 25 59 81q8 53 10 82
t2 87q0 107 -8 192t-31 192q-24 116 -46 198.5t-22 162.5q0 25 15 61.5t36 72t41 59.5t30 24l148 -229q-21 -18 -49 -54.5t-28 -101.5q0 -79 20 -192t20 -238q0 -40 -2.5 -104t-6.5 -111q129 138 226.5 216.5t175.5 111.5t146 33q65 0 111.5 -35.5t72 -89.5t25.5 -109
q0 -85 -36.5 -186.5t-126.5 -171.5q93 11 160 18t135 7h77q34 0 49.5 -25.5t20 -58t4.5 -53.5zM1066 483q0 17 -51.5 45t-137.5 28q-78 0 -166.5 -35t-171 -98t-142.5 -148q119 3 237.5 27.5t216 58.5t156.5 67.5t59 54.5zM920 1126q0 -7 -18 -39.5t-43 -71t-48 -67
t-32 -28.5q-4 0 -33 19t-64.5 45t-62.5 48.5t-27 29.5q0 9 19 41.5t44.5 71t47.5 67t29 28.5q8 0 37.5 -19.5t64.5 -46t60.5 -49t25.5 -29.5z" />
    <glyph glyph-name="uni0638.fina" unicode="&#x638;" horiz-adv-x="1748" arabic-form="final" 
d="M1841 138q0 -70 -12.5 -104t-62.5 -34h-52h-105.5h-182.5h-227.5h-242.5h-226.5h-180.5h-103q-47 0 -85.5 4t-61.5 11q-8 3 -36.5 25.5t-66 56t-73.5 68.5t-60 63.5t-24 41.5q0 6 7.5 15.5t19.5 9.5q48 0 111 -5t126.5 -10t111.5 -5q92 0 142 14t99 66q11 28 16.5 66.5
t7.5 74t2 53.5q0 70 -8.5 171.5t-31.5 212.5q-24 116 -46 198.5t-22 162.5q0 40 25.5 89t55.5 84.5t41 35.5q6 0 29.5 -31.5t51 -73.5t48 -76t20.5 -40q-22 -18 -50 -54.5t-28 -101.5q0 -72 20.5 -188.5t20.5 -241.5q0 -35 -3 -101.5t-7 -113.5q129 138 227 216.5t176 111.5
t146 33q64 0 110.5 -35.5t72 -89.5t25.5 -109q0 -85 -36.5 -186.5t-125.5 -171.5q91 11 169.5 18t124.5 7h79q50 0 62.5 -31t12.5 -106zM1415 483q0 15 -50 44t-139 29q-74 0 -163.5 -34t-169.5 -96.5t-126 -148.5q109 2 223 26t210.5 58t155.5 67.5t59 54.5zM1283 1113
q0 -7 -18 -39.5t-43 -71t-48 -67t-32 -28.5q-4 0 -33 19t-64.5 45t-62.5 48.5t-27 29.5q0 9 19 41.5t44.5 71t47.5 67t29 28.5q8 0 37.5 -19.5t64.5 -46t60.5 -49t25.5 -29.5z" />
    <glyph glyph-name="uni0639.init" unicode="&#x639;" horiz-adv-x="1136" arabic-form="initial" 
d="M1052 633q0 -4 -3 -34t-10 -62q-2 -13 -10.5 -50.5t-19 -71.5t-21.5 -38q-37 -14 -97 -40.5t-129 -57.5t-135.5 -61.5t-115.5 -52.5q-79 -34 -162.5 -72.5t-163.5 -65.5t-152 -27h-48q-34 0 -50 26t-20.5 59t-4.5 53q0 21 4.5 53.5t20.5 58t50 25.5h48q52 0 102.5 7.5
t103.5 34.5q-23 20 -52 45t-50 61t-21 86t32 108.5t81.5 116.5t103.5 107t98 80q47 32 93 47t80 15q47 0 97.5 -29t94.5 -70t71 -78t27 -53q0 -7 -6.5 -18.5t-12.5 -11.5q-5 0 -36 14.5t-72 29t-76 14.5q-56 0 -122 -15t-125 -35q-66 -22 -105 -53t-39 -56q0 -18 28 -45
t71.5 -54t90.5 -45.5t84 -18.5q41 0 96.5 19t115.5 46.5t114 55t92.5 46.5t50.5 19q9 0 9 -12z" />
    <glyph glyph-name="uni0639.medi" unicode="&#x639;" horiz-adv-x="898" arabic-form="medial" 
d="M988 138q0 -20 -4.5 -53t-20 -59t-49.5 -26h-50q-76 0 -145 41.5t-124.5 98t-92 106t-49.5 65.5q-24 -35 -65.5 -87t-97.5 -103.5t-121 -86t-136 -34.5h-48q-34 0 -50 26t-20.5 59t-4.5 53q0 21 4.5 53.5t20.5 58t50 25.5h48q77 0 158.5 21t148.5 80q-91 46 -154.5 74.5
t-63.5 38.5q0 17 13.5 59t48.5 89.5t99.5 81t167.5 33.5q93 0 162.5 -35t107.5 -85t38 -94q0 -37 -27.5 -73t-68.5 -61.5t-83 -30.5q37 -43 118 -70.5t166 -27.5h50q34 0 49.5 -25.5t20 -58t4.5 -53.5z" />
    <glyph glyph-name="uni0639.fina" unicode="&#x639;" horiz-adv-x="1124" arabic-form="final" 
d="M1482 -784q0 -9 -47.5 -35t-124.5 -59.5t-166 -65.5t-173 -53t-146 -21q-139 0 -274.5 34t-246.5 108t-177 192t-66 286q0 146 55.5 282t146 258.5t195.5 224.5q-42 30 -93.5 55t-88.5 43t-37 25q0 30 19.5 73.5t59.5 87t102.5 72.5t148.5 29q108 0 176.5 -41.5
t100.5 -92.5t32 -80q0 -28 -24 -63.5t-64.5 -65.5t-89.5 -39q53 -58 161 -76.5t229 -18.5h50q50 0 61.5 -29.5t11.5 -107.5q0 -68 -11.5 -103t-61.5 -35h-50q-140 0 -269.5 53.5t-249.5 212.5q-99 -56 -187 -135t-143.5 -182.5t-55.5 -234.5q0 -260 230 -371t678 -111
q182 0 271.5 15.5t103.5 15.5q4 0 9 -21t5 -26z" />
    <glyph glyph-name="uni063A.init" unicode="&#x63a;" horiz-adv-x="1136" arabic-form="initial" 
d="M1052 633q0 -4 -3 -34t-10 -62q-2 -13 -10.5 -50.5t-19 -71.5t-21.5 -38q-37 -14 -97 -40.5t-129 -57.5t-135.5 -61.5t-115.5 -52.5q-79 -34 -162.5 -72.5t-163.5 -65.5t-152 -27h-48q-34 0 -50 26t-20.5 59t-4.5 53q0 21 4.5 53.5t20.5 58t50 25.5h48q52 0 102.5 7.5
t103.5 34.5q-23 20 -52 45t-50 61t-21 86t32 108.5t81.5 116.5t103.5 107t98 80q47 32 93 47t80 15q47 0 97.5 -29t94.5 -70t71 -78t27 -53q0 -7 -6.5 -18.5t-12.5 -11.5q-5 0 -36 14.5t-72 29t-76 14.5q-56 0 -122 -15t-125 -35q-66 -22 -105 -53t-39 -56q0 -18 28 -45
t71.5 -54t90.5 -45.5t84 -18.5q41 0 96.5 19t115.5 46.5t114 55t92.5 46.5t50.5 19q9 0 9 -12zM692 1309q0 -7 -18 -39.5t-43 -71t-48 -67t-32 -28.5q-4 0 -33 19t-64.5 45t-62.5 48.5t-27 29.5q0 9 19 41.5t44.5 71t47.5 67t29 28.5q8 0 37.5 -19.5t64.5 -46t60.5 -49
t25.5 -29.5z" />
    <glyph glyph-name="uni063A.medi" unicode="&#x63a;" horiz-adv-x="898" arabic-form="medial" 
d="M988 138q0 -20 -4.5 -53t-20 -59t-49.5 -26h-50q-76 0 -145 41.5t-124.5 98t-92 106t-49.5 65.5q-24 -35 -65.5 -87t-97.5 -103.5t-121 -86t-136 -34.5h-48q-34 0 -50 26t-20.5 59t-4.5 53q0 21 4.5 53.5t20.5 58t50 25.5h48q77 0 158.5 21t148.5 80q-91 46 -154.5 74.5
t-63.5 38.5q0 17 13.5 59t48.5 89.5t99.5 81t167.5 33.5q93 0 162.5 -35t107.5 -85t38 -94q0 -37 -27.5 -73t-68.5 -61.5t-83 -30.5q37 -43 118 -70.5t166 -27.5h50q34 0 49.5 -25.5t20 -58t4.5 -53.5zM614 1161q0 -7 -18 -39.5t-43 -71t-48 -67t-32 -28.5q-4 0 -33 19
t-64.5 45t-62.5 48.5t-27 29.5q0 9 19 41.5t44.5 71t47.5 67t29 28.5q8 0 37.5 -19.5t64.5 -46t60.5 -49t25.5 -29.5z" />
    <glyph glyph-name="uni063A.fina" unicode="&#x63a;" horiz-adv-x="1124" arabic-form="final" 
d="M1482 -784q0 -9 -47.5 -35t-124.5 -59.5t-166 -65.5t-173 -53t-146 -21q-139 0 -274.5 34t-246.5 108t-177 192t-66 286q0 146 55.5 282t146 258.5t195.5 224.5q-42 30 -93.5 55t-88.5 43t-37 25q0 30 19.5 73.5t59.5 87t102.5 72.5t148.5 29q108 0 176.5 -41.5
t100.5 -92.5t32 -80q0 -28 -24 -63.5t-64.5 -65.5t-89.5 -39q53 -58 161 -76.5t229 -18.5h50q50 0 61.5 -29.5t11.5 -107.5q0 -68 -11.5 -103t-61.5 -35h-50q-140 0 -269.5 53.5t-249.5 212.5q-99 -56 -187 -135t-143.5 -182.5t-55.5 -234.5q0 -260 230 -371t678 -111
q182 0 271.5 15.5t103.5 15.5q4 0 9 -21t5 -26zM725 1099q0 -7 -18 -39.5t-43 -71t-48 -67t-32 -28.5q-4 0 -33 19t-64.5 45t-62.5 48.5t-27 29.5q0 9 19 41.5t44.5 71t47.5 67t29 28.5q8 0 37.5 -19.5t64.5 -46t60.5 -49t25.5 -29.5z" />
    <glyph glyph-name="uni063B.init" unicode="&#x63b;" horiz-adv-x="1256" 
d="M1265 1492q-37 -47 -53.5 -103t-31 -98.5t-45.5 -50.5q-60 -15 -152 -41.5t-198 -59.5t-210.5 -68t-190.5 -68.5t-138 -60.5t-52 -43q0 -12 44.5 -31.5t112 -51t136.5 -81.5q95 -68 143 -132.5t64.5 -123t16.5 -109.5q0 -98 -30 -168.5t-104 -115t-206.5 -65.5
t-337.5 -21h-48q-51 0 -63 37t-12 101q0 69 12 103t63 34h48q74 0 155.5 0.5t151.5 2t108 5.5q104 12 134 21.5t30 35.5q0 24 -38 60.5t-89 72t-90 57.5q-41 23 -90.5 42.5t-92 37.5t-64.5 34q-28 21 -39 79t-11 115q0 39 3 85.5t13.5 85.5t33.5 53q176 113 342.5 183
t292.5 122q21 9 72 26.5t114.5 38.5t123.5 40.5t100.5 32t44.5 12.5q7 0 11.5 -9t15.5 -16zM548 1513q0 -7 -17 -37.5t-40 -66.5t-43.5 -62.5t-27.5 -26.5q-5 0 -30.5 18t-57.5 42t-56 42.5t-26 20.5q-10 8 -16 8q-5 0 -12 -12q-1 -2 -17 -25.5t-38.5 -53.5t-41.5 -53
t-27 -23q-4 0 -31.5 18.5t-61 43.5t-58.5 46t-25 27q0 7 18 38t42 67.5t44.5 63.5t25.5 27q9 0 35 -18t55.5 -41.5t51.5 -42.5t24 -20q11 -9 15 -9q7 0 17 14q2 2 19 25t39 52t41 51t24 22q8 0 35.5 -18.5t60 -43.5t56 -46t23.5 -27z" />
    <glyph glyph-name="uni063B.medi" unicode="&#x63b;" horiz-adv-x="1352" 
d="M1442 138q0 -20 -4.5 -53t-20 -59t-49.5 -26h-51q-70 0 -128.5 30.5t-124.5 86t-156.5 132t-225.5 168.5q6 -24 7 -55t1 -51q0 -311 -657 -311h-48q-34 0 -50 26t-20.5 59t-4.5 53q0 21 4.5 53.5t20.5 58t50 25.5h48q206 0 323.5 22.5t167 56.5t49.5 69q0 22 -21.5 61.5
t-61.5 82t-96 72.5q-33 18 -74 34.5t-74.5 31.5t-45.5 28q-27 32 -52.5 88t-25.5 105q0 13 7.5 52t29 85.5t62.5 79.5q69 55 167.5 115t211 119.5t222 112.5t200.5 94.5t148.5 65t63.5 23.5q4 0 14 -9t10 -13t-13 -45t-31.5 -93t-33.5 -91.5t-20 -40.5q-132 -33 -266 -79
t-255.5 -97t-216 -101t-150 -90.5t-57.5 -65.5q0 -8 46 -18.5t109 -26t113 -38.5q115 -51 215.5 -117t204.5 -147q133 -103 207 -176t118.5 -111.5t88.5 -38.5h51q34 0 49.5 -25.5t20 -58t4.5 -53.5zM611 1577q0 -7 -17 -37.5t-40 -66.5t-43.5 -62.5t-27.5 -26.5
q-5 0 -30.5 18t-57.5 42t-56 42.5t-26 20.5q-10 8 -16 8q-5 0 -12 -12q-1 -2 -17 -25.5t-38.5 -53.5t-41.5 -53t-27 -23q-4 0 -31.5 18.5t-61 43.5t-58.5 46t-25 27q0 7 18 38t42 67.5t44.5 63.5t25.5 27q9 0 35 -18t55.5 -41.5t51.5 -42.5t24 -20q11 -9 15 -9q7 0 17 14
q2 2 19 25t39 52t41 51t24 22q8 0 35.5 -18.5t60 -43.5t56 -46t23.5 -27z" />
    <glyph glyph-name="uni063B.fina" unicode="&#x63b;" horiz-adv-x="2291" 
d="M2380 138q0 -20 -4.5 -53t-20 -59t-49.5 -26h-48q-76 0 -156 42.5t-164 108t-172 135.5t-180 124q7 -20 10.5 -18.5t3.5 -20.5q0 -145 -111 -234.5t-314 -131t-480 -41.5q-221 0 -352 34.5t-188.5 117.5t-57.5 230q0 36 13 98.5t30 127t31 109.5t16 45q25 0 37.5 -13
t12.5 -21q0 -5 -6 -36.5t-12.5 -69.5t-6.5 -61q0 -88 56 -147t183 -88.5t340 -29.5q146 0 230 1.5t129 4t71.5 5.5t57.5 6q103 12 153 68t50 106q0 22 -6.5 34.5t-36 31t-98.5 59.5q-42 25 -63.5 36.5t-37.5 19.5t-42 22q-31 17 -49.5 49.5t-18.5 123.5q0 58 7 113t31 70
q95 63 209 124.5t228 116.5t211.5 98.5t158.5 70.5q33 14 86.5 33.5t108.5 38.5t94.5 31.5t44.5 12.5q4 0 14 -9t10 -14q-28 -37 -49 -86.5t-37 -96.5t-30 -79.5t-28 -36.5q-66 -17 -159 -41.5t-196 -53.5t-202 -57.5t-179.5 -54t-129 -43.5t-48.5 -26q0 -10 24 -31.5
t37 -26.5q118 -49 233.5 -120.5t204.5 -136.5q70 -51 139.5 -111t133 -114t117.5 -88.5t94 -34.5h48q34 0 49.5 -25.5t20 -58t4.5 -53.5zM1585 1392q0 -7 -17 -37.5t-40 -66.5t-43.5 -62.5t-27.5 -26.5q-5 0 -30.5 18t-57.5 42t-56 42.5t-26 20.5q-10 8 -16 8q-5 0 -12 -12
q-1 -2 -17 -25.5t-38.5 -53.5t-41.5 -53t-27 -23q-4 0 -31.5 18.5t-61 43.5t-58.5 46t-25 27q0 7 18 38t42 67.5t44.5 63.5t25.5 27q9 0 35 -18t55.5 -41.5t51.5 -42.5t24 -20q11 -9 15 -9q7 0 17 14q2 2 19 25t39 52t41 51t24 22q8 0 35.5 -18.5t60 -43.5t56 -46t23.5 -27z
" />
    <glyph glyph-name="uni063C.init" unicode="&#x63c;" horiz-adv-x="1256" 
d="M1265 1492q-37 -47 -53.5 -103t-31 -98.5t-45.5 -50.5q-60 -15 -152 -41.5t-198 -59.5t-210.5 -68t-190.5 -68.5t-138 -60.5t-52 -43q0 -12 44.5 -31.5t112 -51t136.5 -81.5q95 -68 143 -132.5t64.5 -123t16.5 -109.5q0 -98 -30 -168.5t-104 -115t-206.5 -65.5
t-337.5 -21h-48q-51 0 -63 37t-12 101q0 69 12 103t63 34h48q74 0 155.5 0.5t151.5 2t108 5.5q104 12 134 21.5t30 35.5q0 24 -38 60.5t-89 72t-90 57.5q-41 23 -90.5 42.5t-92 37.5t-64.5 34q-28 21 -39 79t-11 115q0 39 3 85.5t13.5 85.5t33.5 53q176 113 342.5 183
t292.5 122q21 9 72 26.5t114.5 38.5t123.5 40.5t100.5 32t44.5 12.5q7 0 11.5 -9t15.5 -16zM516 -535q0 -8 -17 -39t-40.5 -67.5t-45 -63.5t-29.5 -27q-5 0 -32.5 18.5t-61.5 43.5t-59 46t-25 28t17.5 38t42 67.5t45.5 63.5t27 27q8 0 36 -18.5t61 -43.5t57 -46t24 -27z
M634 -174q0 -7 -17 -37.5t-40 -66.5t-43.5 -62.5t-27.5 -26.5q-5 0 -30.5 18t-57.5 42t-56 42.5t-26 20.5q-10 8 -16 8q-5 0 -12 -12q-1 -2 -17 -25.5t-38.5 -53.5t-41.5 -53t-27 -23q-4 0 -31.5 18.5t-61 43.5t-58.5 46t-25 27q0 7 18 38t42 67.5t44.5 63.5t25.5 27
q9 0 35 -18t55.5 -41.5t51.5 -42.5t24 -20q11 -9 15 -9q7 0 17 14q2 2 19 25t39 52t41 51t24 22q8 0 35.5 -18.5t60 -43.5t56 -46t23.5 -27z" />
    <glyph glyph-name="uni063C.medi" unicode="&#x63c;" horiz-adv-x="1352" 
d="M1442 138q0 -20 -4.5 -53t-20 -59t-49.5 -26h-51q-70 0 -128.5 30.5t-124.5 86t-156.5 132t-225.5 168.5q6 -24 7 -55t1 -51q0 -311 -657 -311h-48q-34 0 -50 26t-20.5 59t-4.5 53q0 21 4.5 53.5t20.5 58t50 25.5h48q206 0 323.5 22.5t167 56.5t49.5 69q0 22 -21.5 61.5
t-61.5 82t-96 72.5q-33 18 -74 34.5t-74.5 31.5t-45.5 28q-27 32 -52.5 88t-25.5 105q0 13 7.5 52t29 85.5t62.5 79.5q69 55 167.5 115t211 119.5t222 112.5t200.5 94.5t148.5 65t63.5 23.5q4 0 14 -9t10 -13t-13 -45t-31.5 -93t-33.5 -91.5t-20 -40.5q-132 -33 -266 -79
t-255.5 -97t-216 -101t-150 -90.5t-57.5 -65.5q0 -8 46 -18.5t109 -26t113 -38.5q115 -51 215.5 -117t204.5 -147q133 -103 207 -176t118.5 -111.5t88.5 -38.5h51q34 0 49.5 -25.5t20 -58t4.5 -53.5zM462 -580q0 -8 -17 -39t-40.5 -67.5t-45 -63.5t-29.5 -27
q-5 0 -32.5 18.5t-61.5 43.5t-59 46t-25 28t17.5 38t42 67.5t45.5 63.5t27 27q8 0 36 -18.5t61 -43.5t57 -46t24 -27zM580 -219q0 -7 -17 -37.5t-40 -66.5t-43.5 -62.5t-27.5 -26.5q-5 0 -30.5 18t-57.5 42t-56 42.5t-26 20.5q-10 8 -16 8q-5 0 -12 -12q-1 -2 -17 -25.5
t-38.5 -53.5t-41.5 -53t-27 -23q-4 0 -31.5 18.5t-61 43.5t-58.5 46t-25 27q0 7 18 38t42 67.5t44.5 63.5t25.5 27q9 0 35 -18t55.5 -41.5t51.5 -42.5t24 -20q11 -9 15 -9q7 0 17 14q2 2 19 25t39 52t41 51t24 22q8 0 35.5 -18.5t60 -43.5t56 -46t23.5 -27z" />
    <glyph glyph-name="uni063C.fina" unicode="&#x63c;" horiz-adv-x="2291" 
d="M2380 138q0 -20 -4.5 -53t-20 -59t-49.5 -26h-48q-76 0 -156 42.5t-164 108t-172 135.5t-180 124q7 -20 10.5 -18.5t3.5 -20.5q0 -145 -111 -234.5t-314 -131t-480 -41.5q-221 0 -352 34.5t-188.5 117.5t-57.5 230q0 36 13 98.5t30 127t31 109.5t16 45q25 0 37.5 -13
t12.5 -21q0 -5 -6 -36.5t-12.5 -69.5t-6.5 -61q0 -88 56 -147t183 -88.5t340 -29.5q146 0 230 1.5t129 4t71.5 5.5t57.5 6q103 12 153 68t50 106q0 22 -6.5 34.5t-36 31t-98.5 59.5q-42 25 -63.5 36.5t-37.5 19.5t-42 22q-31 17 -49.5 49.5t-18.5 123.5q0 58 7 113t31 70
q95 63 209 124.5t228 116.5t211.5 98.5t158.5 70.5q33 14 86.5 33.5t108.5 38.5t94.5 31.5t44.5 12.5q4 0 14 -9t10 -14q-28 -37 -49 -86.5t-37 -96.5t-30 -79.5t-28 -36.5q-66 -17 -159 -41.5t-196 -53.5t-202 -57.5t-179.5 -54t-129 -43.5t-48.5 -26q0 -10 24 -31.5
t37 -26.5q118 -49 233.5 -120.5t204.5 -136.5q70 -51 139.5 -111t133 -114t117.5 -88.5t94 -34.5h48q34 0 49.5 -25.5t20 -58t4.5 -53.5zM1477 -598q0 -8 -17 -39t-40.5 -67.5t-45 -63.5t-29.5 -27q-5 0 -32.5 18.5t-61.5 43.5t-59 46t-25 28t17.5 38t42 67.5t45.5 63.5
t27 27q8 0 36 -18.5t61 -43.5t57 -46t24 -27zM1595 -237q0 -7 -17 -37.5t-40 -66.5t-43.5 -62.5t-27.5 -26.5q-5 0 -30.5 18t-57.5 42t-56 42.5t-26 20.5q-10 8 -16 8q-5 0 -12 -12q-1 -2 -17 -25.5t-38.5 -53.5t-41.5 -53t-27 -23q-4 0 -31.5 18.5t-61 43.5t-58.5 46
t-25 27q0 7 18 38t42 67.5t44.5 63.5t25.5 27q9 0 35 -18t55.5 -41.5t51.5 -42.5t24 -20q11 -9 15 -9q7 0 17 14q2 2 19 25t39 52t41 51t24 22q8 0 35.5 -18.5t60 -43.5t56 -46t23.5 -27z" />
    <glyph glyph-name="uni063D.init" unicode="&#x63d;" horiz-adv-x="590" 
d="M478 476q0 -129 -53.5 -237t-153.5 -173.5t-241 -65.5h-54q-29 0 -47.5 29t-18.5 111q0 81 22 108t44 27h54q42 0 99 3t108 11t74 21q26 14 36.5 30.5t10.5 27.5q0 26 -23.5 52.5t-54.5 52.5t-54.5 49t-23.5 42q0 11 22 61.5t55 110.5t65 100q30 -46 61 -107.5t52 -127.5
t21 -125zM530 1050q0 -18 -2 -58t-4 -52q-23 0 -56 25t-66 64t-58 81.5t-33 77.5q-12 -55 -46.5 -113t-75.5 -98t-72 -40q-4 0 -4 5q0 7 1 30.5t1 41.5q1 25 1.5 41.5t3.5 21.5q1 2 24 14t54.5 40.5t60 80t41.5 132.5q0 5 11 5q14 0 14 -4q18 -92 54.5 -145t76 -79t68.5 -41
q3 -1 4.5 -11.5t1.5 -18.5zM560 -234q0 -7 -17 -37.5t-40 -66.5t-43.5 -62.5t-27.5 -26.5q-5 0 -30.5 18t-57.5 42t-56 42.5t-26 20.5q-10 8 -16 8q-5 0 -12 -12q-1 -2 -17 -25.5t-38.5 -53.5t-41.5 -53t-27 -23q-4 0 -31.5 18.5t-61 43.5t-58.5 46t-25 27q0 7 18 38
t42 67.5t44.5 63.5t25.5 27q9 0 35 -18t55.5 -41.5t51.5 -42.5t24 -20q11 -9 15 -9q7 0 17 14q2 2 19 25t39 52t41 51t24 22q8 0 35.5 -18.5t60 -43.5t56 -46t23.5 -27z" />
    <glyph glyph-name="uni063D.medi" unicode="&#x63d;" horiz-adv-x="574" 
d="M666 140q0 -65 -11.5 -102.5t-62.5 -37.5h-51q-38 0 -63.5 10t-51.5 32q-22 18 -42.5 49.5t-34.5 70.5q-47 -64 -116.5 -113t-199.5 -49h-48q-51 0 -63 35.5t-12 104.5q0 64 12 99.5t63 35.5h48q106 0 170 26.5t99.5 61.5t54.5 61.5t35 26.5q9 0 19 -12t20 -62
q7 -34 28 -68t82 -34h51q51 0 62.5 -34.5t11.5 -100.5zM512 682q0 -18 -2 -58t-4 -52q-23 0 -56 25t-66 64t-58 81.5t-33 77.5q-12 -55 -46.5 -113t-75.5 -98t-72 -40q-4 0 -4 5q0 7 1 30.5t1 41.5q1 25 1.5 41.5t3.5 21.5q1 2 24 14t54.5 40.5t60 80t41.5 132.5q0 5 11 5
q14 0 14 -4q18 -92 54.5 -145t76 -79t68.5 -41q3 -1 4.5 -11.5t1.5 -18.5zM603 -240q0 -7 -17 -37.5t-40 -66.5t-43.5 -62.5t-27.5 -26.5q-5 0 -30.5 18t-57.5 42t-56 42.5t-26 20.5q-10 8 -16 8q-5 0 -12 -12q-1 -2 -17 -25.5t-38.5 -53.5t-41.5 -53t-27 -23
q-4 0 -31.5 18.5t-61 43.5t-58.5 46t-25 27q0 7 18 38t42 67.5t44.5 63.5t25.5 27q9 0 35 -18t55.5 -41.5t51.5 -42.5t24 -20q11 -9 15 -9q7 0 17 14q2 2 19 25t39 52t41 51t24 22q8 0 35.5 -18.5t60 -43.5t56 -46t23.5 -27z" />
    <glyph glyph-name="uni063D.fina" unicode="&#x63d;" horiz-adv-x="1533" 
d="M1622 138q0 -20 -4.5 -53t-20 -59t-49.5 -26h-130q-19 0 -61.5 -0.5t-93 -2t-93.5 -4.5t-62 -8q-44 -13 -72 -33t-28 -41q0 -11 31 -22t104 -20q126 -13 188 -46t62 -134q0 -63 -57.5 -140t-160.5 -147.5t-240 -116.5t-295 -46q-197 0 -311.5 66t-163.5 172t-49 227
q0 89 31.5 183t72.5 175t74 131t36 50q8 0 27.5 -12t19.5 -17q0 -4 -17.5 -36.5t-41 -85.5t-41 -120.5t-17.5 -141.5q0 -148 110 -235.5t341 -87.5q39 0 105.5 8t141 22t141.5 31.5t109.5 35.5t42.5 35q0 30 -49 36t-138 9q-127 4 -171.5 46.5t-44.5 114.5q0 43 17 86.5
t47 83.5q58 83 149 150.5t173 92.5q18 6 53.5 9.5t73 5.5t57.5 2h130q34 0 49.5 -25.5t20 -58t4.5 -53.5zM950 470q0 -18 -2 -58t-4 -52q-23 0 -56 25t-66 64t-58 81.5t-33 77.5q-12 -55 -46.5 -113t-75.5 -98t-72 -40q-4 0 -4 5q0 7 1 30.5t1 41.5q1 25 1.5 41.5t3.5 21.5
q1 2 24 14t54.5 40.5t60 80t41.5 132.5q0 5 11 5q14 0 14 -4q18 -92 54.5 -145t76 -79t68.5 -41q3 -1 4.5 -11.5t1.5 -18.5z" />
    <glyph glyph-name="uni063E.init" unicode="&#x63e;" horiz-adv-x="590" 
d="M478 476q0 -129 -53.5 -237t-153.5 -173.5t-241 -65.5h-54q-29 0 -47.5 29t-18.5 111q0 81 22 108t44 27h54q42 0 99 3t108 11t74 21q26 14 36.5 30.5t10.5 27.5q0 26 -23.5 52.5t-54.5 52.5t-54.5 49t-23.5 42q0 11 22 61.5t55 110.5t65 100q30 -46 61 -107.5t52 -127.5
t21 -125zM609 1188q0 -7 -17 -37.5t-40 -66.5t-43.5 -62.5t-27.5 -26.5q-5 0 -30.5 18t-57.5 42t-56 42.5t-26 20.5q-10 8 -16 8q-5 0 -12 -12q-1 -2 -17 -25.5t-38.5 -53.5t-41.5 -53t-27 -23q-4 0 -31.5 18.5t-61 43.5t-58.5 46t-25 27q0 7 18 38t42 67.5t44.5 63.5
t25.5 27q9 0 35 -18t55.5 -41.5t51.5 -42.5t24 -20q11 -9 15 -9q7 0 17 14q2 2 19 25t39 52t41 51t24 22q8 0 35.5 -18.5t60 -43.5t56 -46t23.5 -27zM560 -234q0 -7 -17 -37.5t-40 -66.5t-43.5 -62.5t-27.5 -26.5q-5 0 -30.5 18t-57.5 42t-56 42.5t-26 20.5q-10 8 -16 8
q-5 0 -12 -12q-1 -2 -17 -25.5t-38.5 -53.5t-41.5 -53t-27 -23q-4 0 -31.5 18.5t-61 43.5t-58.5 46t-25 27q0 7 18 38t42 67.5t44.5 63.5t25.5 27q9 0 35 -18t55.5 -41.5t51.5 -42.5t24 -20q11 -9 15 -9q7 0 17 14q2 2 19 25t39 52t41 51t24 22q8 0 35.5 -18.5t60 -43.5
t56 -46t23.5 -27z" />
    <glyph glyph-name="uni063E.medi" unicode="&#x63e;" horiz-adv-x="574" 
d="M666 140q0 -65 -11.5 -102.5t-62.5 -37.5h-51q-38 0 -63.5 10t-51.5 32q-22 18 -42.5 49.5t-34.5 70.5q-47 -64 -116.5 -113t-199.5 -49h-48q-51 0 -63 35.5t-12 104.5q0 64 12 99.5t63 35.5h48q106 0 170 26.5t99.5 61.5t54.5 61.5t35 26.5q9 0 19 -12t20 -62
q7 -34 28 -68t82 -34h51q51 0 62.5 -34.5t11.5 -100.5zM602 802q0 -7 -17 -37.5t-40 -66.5t-43.5 -62.5t-27.5 -26.5q-5 0 -30.5 18t-57.5 42t-56 42.5t-26 20.5q-10 8 -16 8q-5 0 -12 -12q-1 -2 -17 -25.5t-38.5 -53.5t-41.5 -53t-27 -23q-4 0 -31.5 18.5t-61 43.5
t-58.5 46t-25 27q0 7 18 38t42 67.5t44.5 63.5t25.5 27q9 0 35 -18t55.5 -41.5t51.5 -42.5t24 -20q11 -9 15 -9q7 0 17 14q2 2 19 25t39 52t41 51t24 22q8 0 35.5 -18.5t60 -43.5t56 -46t23.5 -27zM603 -240q0 -7 -17 -37.5t-40 -66.5t-43.5 -62.5t-27.5 -26.5
q-5 0 -30.5 18t-57.5 42t-56 42.5t-26 20.5q-10 8 -16 8q-5 0 -12 -12q-1 -2 -17 -25.5t-38.5 -53.5t-41.5 -53t-27 -23q-4 0 -31.5 18.5t-61 43.5t-58.5 46t-25 27q0 7 18 38t42 67.5t44.5 63.5t25.5 27q9 0 35 -18t55.5 -41.5t51.5 -42.5t24 -20q11 -9 15 -9q7 0 17 14
q2 2 19 25t39 52t41 51t24 22q8 0 35.5 -18.5t60 -43.5t56 -46t23.5 -27z" />
    <glyph glyph-name="uni063E.fina" unicode="&#x63e;" horiz-adv-x="1533" 
d="M1622 138q0 -20 -4.5 -53t-20 -59t-49.5 -26h-130q-19 0 -61.5 -0.5t-93 -2t-93.5 -4.5t-62 -8q-44 -13 -72 -33t-28 -41q0 -11 31 -22t104 -20q126 -13 188 -46t62 -134q0 -63 -57.5 -140t-160.5 -147.5t-240 -116.5t-295 -46q-197 0 -311.5 66t-163.5 172t-49 227
q0 89 31.5 183t72.5 175t74 131t36 50q8 0 27.5 -12t19.5 -17q0 -4 -17.5 -36.5t-41 -85.5t-41 -120.5t-17.5 -141.5q0 -148 110 -235.5t341 -87.5q39 0 105.5 8t141 22t141.5 31.5t109.5 35.5t42.5 35q0 30 -49 36t-138 9q-127 4 -171.5 46.5t-44.5 114.5q0 43 17 86.5
t47 83.5q58 83 149 150.5t173 92.5q18 6 53.5 9.5t73 5.5t57.5 2h130q34 0 49.5 -25.5t20 -58t4.5 -53.5zM1048 551q0 -7 -17 -37.5t-40 -66.5t-43.5 -62.5t-27.5 -26.5q-5 0 -30.5 18t-57.5 42t-56 42.5t-26 20.5q-10 8 -16 8q-5 0 -12 -12q-1 -2 -17 -25.5t-38.5 -53.5
t-41.5 -53t-27 -23q-4 0 -31.5 18.5t-61 43.5t-58.5 46t-25 27q0 7 18 38t42 67.5t44.5 63.5t25.5 27q9 0 35 -18t55.5 -41.5t51.5 -42.5t24 -20q11 -9 15 -9q7 0 17 14q2 2 19 25t39 52t41 51t24 22q8 0 35.5 -18.5t60 -43.5t56 -46t23.5 -27z" />
    <glyph glyph-name="uni063F.init" unicode="&#x63f;" horiz-adv-x="590" 
d="M478 476q0 -129 -53.5 -237t-153.5 -173.5t-241 -65.5h-54q-29 0 -47.5 29t-18.5 111q0 81 22 108t44 27h54q42 0 99 3t108 11t74 21q26 14 36.5 30.5t10.5 27.5q0 26 -23.5 52.5t-54.5 52.5t-54.5 49t-23.5 42q0 11 22 61.5t55 110.5t65 100q30 -46 61 -107.5t52 -127.5
t21 -125zM415 1513q0 -8 -17.5 -38.5t-42 -67t-45 -63.5t-27.5 -27q-8 0 -36 18.5t-61.5 43.5t-57.5 46.5t-24 27.5q0 7 17 38t41 67.5t45.5 63.5t30.5 27q4 0 31.5 -18t61 -43.5t59 -47t25.5 -27.5zM608 1191q0 -8 -16.5 -38t-40 -66t-44 -62.5t-27.5 -26.5q-4 0 -30 18
t-57.5 42t-56 42.5t-25.5 20.5q-10 8 -17 8q-4 0 -11 -12q-1 -2 -17.5 -25.5t-38.5 -53.5t-41.5 -53t-26.5 -23q-5 0 -32 18.5t-60.5 43.5t-58.5 46t-25 27q0 7 17.5 38t42 67.5t45 63.5t24.5 27q10 0 35.5 -18t55.5 -42t52 -42.5t23 -19.5q11 -10 15 -10q8 0 18 15
q1 2 18 25t39.5 52t41 51t23.5 22q8 0 35.5 -18.5t60 -43.5t56 -46t23.5 -27zM560 -234q0 -7 -17 -37.5t-40 -66.5t-43.5 -62.5t-27.5 -26.5q-5 0 -30.5 18t-57.5 42t-56 42.5t-26 20.5q-10 8 -16 8q-5 0 -12 -12q-1 -2 -17 -25.5t-38.5 -53.5t-41.5 -53t-27 -23
q-4 0 -31.5 18.5t-61 43.5t-58.5 46t-25 27q0 7 18 38t42 67.5t44.5 63.5t25.5 27q9 0 35 -18t55.5 -41.5t51.5 -42.5t24 -20q11 -9 15 -9q7 0 17 14q2 2 19 25t39 52t41 51t24 22q8 0 35.5 -18.5t60 -43.5t56 -46t23.5 -27z" />
    <glyph glyph-name="uni063F.medi" unicode="&#x63f;" horiz-adv-x="574" 
d="M666 140q0 -65 -11.5 -102.5t-62.5 -37.5h-51q-38 0 -63.5 10t-51.5 32q-22 18 -42.5 49.5t-34.5 70.5q-47 -64 -116.5 -113t-199.5 -49h-48q-51 0 -63 35.5t-12 104.5q0 64 12 99.5t63 35.5h48q106 0 170 26.5t99.5 61.5t54.5 61.5t35 26.5q9 0 19 -12t20 -62
q7 -34 28 -68t82 -34h51q51 0 62.5 -34.5t11.5 -100.5zM404 1124q0 -8 -17.5 -38.5t-42 -67t-45 -63.5t-27.5 -27q-8 0 -36 18.5t-61.5 43.5t-57.5 46.5t-24 27.5q0 7 17 38t41 67.5t45.5 63.5t30.5 27q4 0 31.5 -18t61 -43.5t59 -47t25.5 -27.5zM597 802q0 -8 -16.5 -38
t-40 -66t-44 -62.5t-27.5 -26.5q-4 0 -30 18t-57.5 42t-56 42.5t-25.5 20.5q-10 8 -17 8q-4 0 -11 -12q-1 -2 -17.5 -25.5t-38.5 -53.5t-41.5 -53t-26.5 -23q-5 0 -32 18.5t-60.5 43.5t-58.5 46t-25 27q0 7 17.5 38t42 67.5t45 63.5t24.5 27q10 0 35.5 -18t55.5 -42
t52 -42.5t23 -19.5q11 -10 15 -10q8 0 18 15q1 2 18 25t39.5 52t41 51t23.5 22q8 0 35.5 -18.5t60 -43.5t56 -46t23.5 -27zM603 -240q0 -7 -17 -37.5t-40 -66.5t-43.5 -62.5t-27.5 -26.5q-5 0 -30.5 18t-57.5 42t-56 42.5t-26 20.5q-10 8 -16 8q-5 0 -12 -12
q-1 -2 -17 -25.5t-38.5 -53.5t-41.5 -53t-27 -23q-4 0 -31.5 18.5t-61 43.5t-58.5 46t-25 27q0 7 18 38t42 67.5t44.5 63.5t25.5 27q9 0 35 -18t55.5 -41.5t51.5 -42.5t24 -20q11 -9 15 -9q7 0 17 14q2 2 19 25t39 52t41 51t24 22q8 0 35.5 -18.5t60 -43.5t56 -46t23.5 -27z
" />
    <glyph glyph-name="uni063F.fina" unicode="&#x63f;" horiz-adv-x="1533" 
d="M1622 138q0 -20 -4.5 -53t-20 -59t-49.5 -26h-130q-19 0 -61.5 -0.5t-93 -2t-93.5 -4.5t-62 -8q-44 -13 -72 -33t-28 -41q0 -11 31 -22t104 -20q126 -13 188 -46t62 -134q0 -63 -57.5 -140t-160.5 -147.5t-240 -116.5t-295 -46q-197 0 -311.5 66t-163.5 172t-49 227
q0 89 31.5 183t72.5 175t74 131t36 50q8 0 27.5 -12t19.5 -17q0 -4 -17.5 -36.5t-41 -85.5t-41 -120.5t-17.5 -141.5q0 -148 110 -235.5t341 -87.5q39 0 105.5 8t141 22t141.5 31.5t109.5 35.5t42.5 35q0 30 -49 36t-138 9q-127 4 -171.5 46.5t-44.5 114.5q0 43 17 86.5
t47 83.5q58 83 149 150.5t173 92.5q18 6 53.5 9.5t73 5.5t57.5 2h130q34 0 49.5 -25.5t20 -58t4.5 -53.5zM831 853q0 -8 -17.5 -38.5t-42 -67t-45 -63.5t-27.5 -27q-8 0 -36 18.5t-61.5 43.5t-57.5 46.5t-24 27.5q0 7 17 38t41 67.5t45.5 63.5t30.5 27q4 0 31.5 -18
t61 -43.5t59 -47t25.5 -27.5zM1024 531q0 -8 -16.5 -38t-40 -66t-44 -62.5t-27.5 -26.5q-4 0 -30 18t-57.5 42t-56 42.5t-25.5 20.5q-10 8 -17 8q-4 0 -11 -12q-1 -2 -17.5 -25.5t-38.5 -53.5t-41.5 -53t-26.5 -23q-5 0 -32 18.5t-60.5 43.5t-58.5 46t-25 27q0 7 17.5 38
t42 67.5t45 63.5t24.5 27q10 0 35.5 -18t55.5 -42t52 -42.5t23 -19.5q11 -10 15 -10q8 0 18 15q1 2 18 25t39.5 52t41 51t23.5 22q8 0 35.5 -18.5t60 -43.5t56 -46t23.5 -27z" />
    <glyph glyph-name="uni0641.init" unicode="&#x641;" horiz-adv-x="686" arabic-form="initial" 
d="M609 503q0 -95 -21 -169.5t-71 -145.5q-22 -32 -83 -76.5t-161 -78t-240 -33.5h-48q-34 0 -50 26t-20.5 59t-4.5 53q0 21 4.5 53.5t20.5 58t50 25.5h48q165 0 268.5 28.5t152.5 66.5t49 66q0 20 -17 49t-36 49q-9 -36 -37 -74.5t-70 -65.5t-95 -27q-72 0 -127.5 40
t-55.5 149q0 34 14.5 90t39.5 119.5t57.5 120t69.5 92.5t75 36q45 0 95.5 -45t94 -119.5t71 -165t27.5 -181.5zM346 673q0 8 -32.5 33t-68.5 25q-15 0 -28.5 -15.5t-13.5 -31.5t13.5 -38t44.5 -22t58 21t27 28zM428 1335q0 -7 -18 -39.5t-43 -71t-48 -67t-32 -28.5
q-4 0 -33 19t-64.5 45t-62.5 48.5t-27 29.5q0 9 19 41.5t44.5 71t47.5 67t29 28.5q8 0 37.5 -19.5t64.5 -46t60.5 -49t25.5 -29.5z" />
    <glyph glyph-name="uni0641.medi" unicode="&#x641;" horiz-adv-x="849" arabic-form="medial" 
d="M940 138q0 -20 -5 -53t-20.5 -59t-48.5 -26h-50q-97 0 -178.5 19.5t-142 46t-95.5 45.5q-34 -18 -93 -44.5t-130.5 -46.5t-143.5 -20h-48q-34 0 -50 26t-20.5 59t-4.5 53q0 21 4.5 53.5t20.5 58t50 25.5h48q50 0 104 7t88 15q-7 12 -12.5 39t-5.5 56q0 75 41.5 170.5
t101.5 177.5q56 74 118.5 124t113.5 50q47 0 82 -33.5t57.5 -83.5t33.5 -101.5t11 -87.5q0 -157 -124 -306q41 -12 84 -19.5t90 -7.5h50q33 0 48.5 -25.5t20.5 -58t5 -53.5zM649 528q0 17 -17 44t-48.5 48.5t-77.5 21.5q-23 0 -60.5 -16t-67 -38.5t-29.5 -43.5t23.5 -52
t55.5 -61t57 -48q65 31 114.5 70t49.5 75zM711 1253q0 -7 -18 -39.5t-43 -71t-48 -67t-32 -28.5q-4 0 -33 19t-64.5 45t-62.5 48.5t-27 29.5q0 9 19 41.5t44.5 71t47.5 67t29 28.5q8 0 37.5 -19.5t64.5 -46t60.5 -49t25.5 -29.5z" />
    <glyph glyph-name="uni0641.fina" unicode="&#x641;" horiz-adv-x="2091" arabic-form="final" 
d="M2182 138q0 -20 -4.5 -53t-20.5 -59t-49 -26h-51q-127 0 -201 24.5t-138 62.5q-92 -52 -213.5 -101.5t-257.5 -89t-272 -63t-256 -23.5q-115 0 -222 22t-191.5 69.5t-134 123t-49.5 181.5q0 77 25 145.5t59 121t61.5 82.5t31.5 30l39 -27q0 -5 -25 -37t-49.5 -82
t-24.5 -112q0 -60 40 -102.5t103 -70t135.5 -43t139 -21.5t111.5 -6q119 0 254.5 22.5t246.5 55.5q62 17 111.5 36t98.5 47l5 8q-22 18 -41.5 54t-19.5 63q0 54 21.5 126t56.5 147t77.5 139.5t86 104t80.5 39.5q47 0 88.5 -40t73 -99t50 -117.5t18.5 -95.5q0 -77 -22 -135.5
t-59 -136.5q22 -14 65 -20.5t98 -6.5h51q33 0 49 -25.5t20.5 -58t4.5 -53.5zM1852 517q0 14 -19 44t-48 55.5t-59 25.5q-22 0 -61 -25.5t-70.5 -59t-31.5 -58.5q0 -41 41 -64.5t108 -61.5q76 51 108 84t32 60zM1893 1269q0 -7 -18 -39.5t-43 -71t-48 -67t-32 -28.5
q-4 0 -33 19t-64.5 45t-62.5 48.5t-27 29.5q0 9 19 41.5t44.5 71t47.5 67t29 28.5q8 0 37.5 -19.5t64.5 -46t60.5 -49t25.5 -29.5z" />
    <glyph glyph-name="uni0642.init" unicode="&#x642;" horiz-adv-x="686" arabic-form="initial" 
d="M609 503q0 -95 -21 -169.5t-71 -145.5q-22 -32 -83 -76.5t-161 -78t-240 -33.5h-48q-34 0 -50 26t-20.5 59t-4.5 53q0 21 4.5 53.5t20.5 58t50 25.5h48q165 0 268.5 28.5t152.5 66.5t49 66q0 20 -17 49t-36 49q-9 -36 -37 -74.5t-70 -65.5t-95 -27q-72 0 -127.5 40
t-55.5 149q0 34 14.5 90t39.5 119.5t57.5 120t69.5 92.5t75 36q45 0 95.5 -45t94 -119.5t71 -165t27.5 -181.5zM346 673q0 8 -32.5 33t-68.5 25q-15 0 -28.5 -15.5t-13.5 -31.5t13.5 -38t44.5 -22t58 21t27 28zM576 1329q0 -7 -17 -37.5t-40 -66.5t-43.5 -62.5t-27.5 -26.5
q-5 0 -30.5 18t-57.5 42t-56 42.5t-26 20.5q-10 8 -16 8q-5 0 -12 -12q-1 -2 -17 -25.5t-38.5 -53.5t-41.5 -53t-27 -23q-4 0 -31.5 18.5t-61 43.5t-58.5 46t-25 27q0 7 18 38t42 67.5t44.5 63.5t25.5 27q9 0 35 -18t55.5 -41.5t51.5 -42.5t24 -20q11 -9 15 -9q7 0 17 14
q2 2 19 25t39 52t41 51t24 22q8 0 35.5 -18.5t60 -43.5t56 -46t23.5 -27z" />
    <glyph glyph-name="uni0642.medi" unicode="&#x642;" horiz-adv-x="849" arabic-form="medial" 
d="M940 138q0 -20 -5 -53t-20.5 -59t-48.5 -26h-50q-97 0 -178.5 19.5t-142 46t-95.5 45.5q-34 -18 -93 -44.5t-130.5 -46.5t-143.5 -20h-48q-34 0 -50 26t-20.5 59t-4.5 53q0 21 4.5 53.5t20.5 58t50 25.5h48q50 0 104 7t88 15q-7 12 -12.5 39t-5.5 56q0 75 41.5 170.5
t101.5 177.5q56 74 118.5 124t113.5 50q47 0 82 -33.5t57.5 -83.5t33.5 -101.5t11 -87.5q0 -157 -124 -306q41 -12 84 -19.5t90 -7.5h50q33 0 48.5 -25.5t20.5 -58t5 -53.5zM649 528q0 17 -17 44t-48.5 48.5t-77.5 21.5q-23 0 -60.5 -16t-67 -38.5t-29.5 -43.5t23.5 -52
t55.5 -61t57 -48q65 31 114.5 70t49.5 75zM859 1300q0 -7 -17 -37.5t-40 -66.5t-43.5 -62.5t-27.5 -26.5q-5 0 -30.5 18t-57.5 42t-56 42.5t-26 20.5q-10 8 -16 8q-5 0 -12 -12q-1 -2 -17 -25.5t-38.5 -53.5t-41.5 -53t-27 -23q-4 0 -31.5 18.5t-61 43.5t-58.5 46t-25 27
q0 7 18 38t42 67.5t44.5 63.5t25.5 27q9 0 35 -18t55.5 -41.5t51.5 -42.5t24 -20q11 -9 15 -9q7 0 17 14q2 2 19 25t39 52t41 51t24 22q8 0 35.5 -18.5t60 -43.5t56 -46t23.5 -27z" />
    <glyph glyph-name="uni0642.fina" unicode="&#x642;" horiz-adv-x="1379" arabic-form="final" 
d="M1470 138q0 -20 -4.5 -53t-20 -59t-49.5 -26h-133q-11 -47 -24.5 -85t-37.5 -85q-31 -63 -94.5 -133t-154.5 -131.5t-206.5 -100.5t-252.5 -39q-167 0 -276.5 103.5t-109.5 290.5q0 98 31 187.5t72 159.5t74 111t36 41q8 0 22.5 -13.5t14.5 -22.5q0 -4 -18 -35t-42 -77
t-42 -96.5t-18 -93.5q0 -128 93 -204t252 -76q200 0 329 45.5t191 108.5q17 16 30.5 64t14.5 81q-22 0 -50 -1.5t-81 -1.5q-118 0 -175 63.5t-57 136.5q0 74 24 151t62 142.5t81 106t80 40.5q59 0 102 -40.5t71.5 -100.5t44.5 -120.5t20 -100.5h46.5h80.5q34 0 49.5 -25.5
t20 -58t4.5 -53.5zM1103 275q-10 38 -46.5 66.5t-80.5 28.5q-33 0 -47.5 -17.5t-14.5 -35.5q0 -29 52 -35.5t137 -6.5zM1307 995q0 -7 -17 -37.5t-40 -66.5t-43.5 -62.5t-27.5 -26.5q-5 0 -30.5 18t-57.5 42t-56 42.5t-26 20.5q-10 8 -16 8q-5 0 -12 -12q-1 -2 -17 -25.5
t-38.5 -53.5t-41.5 -53t-27 -23q-4 0 -31.5 18.5t-61 43.5t-58.5 46t-25 27q0 7 18 38t42 67.5t44.5 63.5t25.5 27q9 0 35 -18t55.5 -41.5t51.5 -42.5t24 -20q11 -9 15 -9q7 0 17 14q2 2 19 25t39 52t41 51t24 22q8 0 35.5 -18.5t60 -43.5t56 -46t23.5 -27z" />
    <glyph glyph-name="uni0643.init" unicode="&#x643;" horiz-adv-x="1256" arabic-form="initial" 
d="M1265 1492q-37 -47 -53.5 -103t-31 -98.5t-45.5 -50.5q-60 -15 -152 -41.5t-198 -59.5t-210.5 -68t-190.5 -68.5t-138 -60.5t-52 -43q0 -12 44.5 -31.5t112 -51t136.5 -81.5q95 -68 143 -132.5t64.5 -123t16.5 -109.5q0 -98 -30 -168.5t-104 -115t-206.5 -65.5
t-337.5 -21h-48q-51 0 -63 37t-12 101q0 69 12 103t63 34h48q74 0 155.5 0.5t151.5 2t108 5.5q104 12 134 21.5t30 35.5q0 24 -38 60.5t-89 72t-90 57.5q-41 23 -90.5 42.5t-92 37.5t-64.5 34q-28 21 -39 79t-11 115q0 39 3 85.5t13.5 85.5t33.5 53q176 113 342.5 183
t292.5 122q21 9 72 26.5t114.5 38.5t123.5 40.5t100.5 32t44.5 12.5q7 0 11.5 -9t15.5 -16z" />
    <glyph glyph-name="uni0643.medi" unicode="&#x643;" horiz-adv-x="1352" arabic-form="medial" 
d="M1442 138q0 -20 -4.5 -53t-20 -59t-49.5 -26h-51q-70 0 -128.5 30.5t-124.5 86t-156.5 132t-225.5 168.5q6 -24 7 -55t1 -51q0 -311 -657 -311h-48q-34 0 -50 26t-20.5 59t-4.5 53q0 21 4.5 53.5t20.5 58t50 25.5h48q206 0 323.5 22.5t167 56.5t49.5 69q0 22 -21.5 61.5
t-61.5 82t-96 72.5q-33 18 -74 34.5t-74.5 31.5t-45.5 28q-27 32 -52.5 88t-25.5 105q0 13 7.5 52t29 85.5t62.5 79.5q69 55 167.5 115t211 119.5t222 112.5t200.5 94.5t148.5 65t63.5 23.5q4 0 14 -9t10 -13t-13 -45t-31.5 -93t-33.5 -91.5t-20 -40.5q-132 -33 -266 -79
t-255.5 -97t-216 -101t-150 -90.5t-57.5 -65.5q0 -8 46 -18.5t109 -26t113 -38.5q115 -51 215.5 -117t204.5 -147q133 -103 207 -176t118.5 -111.5t88.5 -38.5h51q34 0 49.5 -25.5t20 -58t4.5 -53.5z" />
    <glyph glyph-name="uni0643.fina" unicode="&#x643;" horiz-adv-x="1903" arabic-form="final" 
d="M1995 138q0 -79 -11.5 -108.5t-62.5 -29.5h-53q-83 0 -130 24.5t-79.5 90t-72.5 187.5q-15 -31 -39 -81t-59.5 -101t-85.5 -87q-60 -43 -172.5 -92.5t-269.5 -84.5t-350 -35q-200 0 -312 48t-156.5 128t-44.5 176q0 36 13 98.5t30 127.5t31 109.5t16 44.5
q25 0 37.5 -13.5t12.5 -19.5t-6 -37.5t-12.5 -68.5t-6.5 -61q0 -132 114.5 -195t325.5 -63q74 0 183.5 12.5t227 37t218.5 59t158 77.5q52 42 74 100.5t22 120.5q0 103 -12.5 221t-29 228.5t-29 191.5t-12.5 111q0 49 21.5 95t51.5 76.5t56 30.5q21 0 30.5 -26.5t12.5 -67.5
q4 -55 9 -142t10 -187.5t10 -195.5t9 -166.5t6 -99.5q10 -106 24.5 -171.5t54 -95t121.5 -29.5h53q51 0 62.5 -34.5t11.5 -102.5zM1054 759q0 -63 -27.5 -111t-68.5 -80.5t-82 -49t-68 -16.5q-67 0 -129 31.5t-90 69.5q35 3 84 8.5t97 14.5t80 20.5t32 25.5q0 18 -32.5 22
t-74.5 8t-74.5 21.5t-32.5 60.5q0 51 25.5 113.5t86 127.5t165.5 121q4 -8 13 -45.5t17 -74t9 -44.5q-29 4 -66.5 -8t-65 -31t-28.5 -38q-1 -31 22 -41t57.5 -12t69 -7t58 -23.5t23.5 -62.5z" />
    <glyph glyph-name="uni0644.init" unicode="&#x644;" horiz-adv-x="552" arabic-form="initial" 
d="M388 533q0 -36 -9 -104t-38 -142q-24 -64 -64 -130.5t-99.5 -111.5t-141.5 -45h-51q-51 0 -63 36t-12 102q0 52 11.5 94.5t63.5 42.5h51q101 0 169 32.5t68 119.5q0 31 -13 110.5t-32.5 186t-39 219t-32.5 210t-13 158.5q0 46 23 93.5t55 79.5t59 32q2 0 25.5 -28.5
t54 -66t53.5 -67.5t23 -33t-21 -21t-42 -48.5t-21 -73.5q0 -54 5.5 -139t12.5 -180.5t12.5 -182t5.5 -143.5z" />
    <glyph glyph-name="uni0644.medi" unicode="&#x644;" horiz-adv-x="609" arabic-form="medial" 
d="M700 140q0 -71 -18.5 -105.5t-48.5 -34.5h-53q-79 0 -128.5 32t-81 91t-59.5 140q-34 -143 -98 -203t-183 -60h-54q-31 0 -48.5 24.5t-17.5 115.5q0 135 66 135h54q52 0 89 8t66 30q31 23 45.5 76.5t19 120t4.5 126.5q0 74 -7 168t-16.5 186t-17 163t-7.5 101
q0 56 23.5 105t54 79.5t50.5 30.5q23 0 31.5 -31t10.5 -76q4 -79 7.5 -186.5t7 -221t7.5 -215t9 -168.5q12 -166 47 -231t126 -65h53q30 0 48.5 -24.5t18.5 -110.5z" />
    <glyph glyph-name="uni0644.fina" unicode="&#x644;" horiz-adv-x="1248" arabic-form="final" 
d="M1339 141q0 -75 -18.5 -108t-48.5 -33q-130 0 -192.5 50t-99.5 186q23 -192 23 -382q0 -13 -0.5 -32t-2.5 -40q-3 -43 -12 -89.5t-24 -80.5q-64 -144 -215.5 -232.5t-354.5 -88.5q-38 0 -98.5 14t-121 50t-102 103.5t-41.5 173.5q0 73 26 159t61 164t64 127.5t36 49.5
q8 0 25 -14.5t17 -20.5q0 -9 -22 -53.5t-44.5 -107t-22.5 -126.5q0 -136 71.5 -191.5t203.5 -55.5q163 0 275 48.5t153 115.5q21 38 21 130q0 66 -9 209.5t-32 395.5q-8 96 -16 207.5t-14.5 221t-10 201t-3.5 146.5q0 52 33 91.5t69 62.5t44 23q2 0 6 -72t11 -190
t18.5 -258.5t28.5 -280t41 -252.5q12 -58 56 -72.5t155 -14.5q30 0 48.5 -21t18.5 -113z" />
    <glyph glyph-name="uni0645.init" unicode="&#x645;" horiz-adv-x="859" arabic-form="initial" 
d="M752 339q0 -35 -14.5 -80t-37 -87t-48.5 -69t-50 -27q-42 0 -99 22.5t-112.5 55.5t-94.5 62q-36 -62 -75.5 -107.5t-57.5 -60.5q-21 -16 -55 -32t-75 -16h-48q-34 0 -50 26t-20.5 59t-4.5 53q0 21 4.5 53.5t20.5 58t50 25.5h48q80 0 137 34t97.5 87t71.5 112t59 108
q38 63 75.5 99.5t89.5 36.5q31 0 53.5 -13t42.5 -46q22 -37 43 -105.5t35.5 -137.5t14.5 -111zM574 417q0 20 -17 45.5t-40.5 44.5t-45.5 19t-35 -20.5t-13 -33.5q0 -4 -2 -22.5t8 -24.5q18 -9 45 -20.5t50 -20t28 -8.5q6 0 14 16.5t8 24.5z" />
    <glyph glyph-name="uni0645.medi" unicode="&#x645;" horiz-adv-x="1117" arabic-form="medial" 
d="M1206 138q0 -20 -4.5 -53t-20 -59t-49.5 -26h-50q-59 0 -123.5 22t-118.5 56.5t-84 71.5q0 -65 -17 -121t-79 -56q-68 0 -151 59.5t-174 135.5q-58 -64 -138.5 -116t-163.5 -52h-48q-34 0 -50 26t-20.5 59t-4.5 53q0 21 4.5 53.5t20.5 58t50 25.5h48q104 0 165.5 25.5
t101 63t76.5 73.5q2 3 21.5 27t48.5 53.5t61.5 52t60.5 22.5q43 0 70.5 -33t62.5 -72q47 -49 106.5 -98t129 -81.5t145.5 -32.5h50q34 0 49.5 -25.5t20 -58t4.5 -53.5zM618 273q0 25 -14 66.5t-34.5 75.5t-41.5 34q-15 0 -33 -22.5t-31 -45.5t-13 -26q0 -9 19.5 -27
t47 -36.5t51 -32t31.5 -13.5q5 0 11.5 8.5t6.5 18.5z" />
    <glyph glyph-name="uni0645.fina" unicode="&#x645;" horiz-adv-x="1127" arabic-form="final" 
d="M1216 138q0 -20 -4.5 -53t-19.5 -59t-49 -26h-50q-118 0 -195 15t-163 48q2 -24 4 -69t2 -71q0 -52 -19 -100t-48 -79t-61 -31q-44 0 -85.5 37t-74.5 96t-52 127.5t-19 131.5q-108 -28 -146.5 -66.5t-38.5 -115.5q0 -33 11 -100.5t27.5 -151.5t33 -167.5t27.5 -149
t11 -95.5q0 -19 -10 -56t-25.5 -76t-32 -66.5t-28.5 -27.5q-13 0 -21.5 60.5t-21.5 150.5q-18 121 -38 242t-34.5 220.5t-14.5 152.5q0 68 13 146.5t41 154.5t73.5 137t110.5 94q90 45 133 75t56 30q11 0 46.5 -33.5t103.5 -77t174.5 -77t260.5 -33.5h50q34 0 49 -25.5
t19.5 -58t4.5 -53.5z" />
    <glyph glyph-name="uni0646.init" unicode="&#x646;" horiz-adv-x="590" arabic-form="initial" 
d="M478 476q0 -129 -53.5 -237t-153.5 -173.5t-241 -65.5h-54q-29 0 -47.5 29t-18.5 111q0 81 22 108t44 27h54q42 0 99 3t108 11t74 21q26 14 36.5 30.5t10.5 27.5q0 26 -23.5 52.5t-54.5 52.5t-54.5 49t-23.5 42q0 11 22 61.5t55 110.5t65 100q30 -46 61 -107.5t52 -127.5
t21 -125zM460 1194q0 -7 -18 -39.5t-43 -71t-48 -67t-32 -28.5q-4 0 -33 19t-64.5 45t-62.5 48.5t-27 29.5q0 9 19 41.5t44.5 71t47.5 67t29 28.5q8 0 37.5 -19.5t64.5 -46t60.5 -49t25.5 -29.5z" />
    <glyph glyph-name="uni0646.medi" unicode="&#x646;" horiz-adv-x="574" arabic-form="medial" 
d="M666 140q0 -65 -11.5 -102.5t-62.5 -37.5h-51q-38 0 -63.5 10t-51.5 32q-22 18 -42.5 49.5t-34.5 70.5q-47 -64 -116.5 -113t-199.5 -49h-48q-51 0 -63 35.5t-12 104.5q0 64 12 99.5t63 35.5h48q106 0 170 26.5t99.5 61.5t54.5 61.5t35 26.5q9 0 19 -12t20 -62
q7 -34 28 -68t82 -34h51q51 0 62.5 -34.5t11.5 -100.5zM454 785q0 -7 -18 -39.5t-43 -71t-48 -67t-32 -28.5q-4 0 -33 19t-64.5 45t-62.5 48.5t-27 29.5q0 9 19 41.5t44.5 71t47.5 67t29 28.5q8 0 37.5 -19.5t64.5 -46t60.5 -49t25.5 -29.5z" />
    <glyph glyph-name="uni0646.fina" unicode="&#x646;" horiz-adv-x="1385" arabic-form="final" 
d="M1475 138q0 -20 -4.5 -53t-20 -59t-49.5 -26h-51q-19 0 -56 5t-55 21q-1 -136 -29.5 -264t-89.5 -216q-16 -24 -60.5 -64t-118 -81t-177.5 -69t-240 -28q-156 0 -259 54.5t-153.5 141.5t-50.5 183q0 99 30 189.5t70 160.5t72 110.5t36 40.5q11 0 25 -14.5t14 -24.5
q0 -9 -31.5 -51.5t-63.5 -112.5t-32 -163q0 -99 59 -153.5t159 -76.5t223 -22q80 0 166.5 14.5t158 41t106.5 61.5q31 32 53 96.5t22 140.5q0 62 -25.5 120t-48.5 88q-11 15 -26.5 30t-15.5 19q0 6 17 44.5t40 86t41.5 83t21.5 35.5q8 0 20.5 -4.5t18.5 -17.5q8 -16 35 -47
t65.5 -56.5t78.5 -25.5h51q34 0 49.5 -25.5t20 -58t4.5 -53.5zM825 570q0 -7 -18 -39.5t-43 -71t-48 -67t-32 -28.5q-4 0 -33 19t-64.5 45t-62.5 48.5t-27 29.5q0 9 19 41.5t44.5 71t47.5 67t29 28.5q8 0 37.5 -19.5t64.5 -46t60.5 -49t25.5 -29.5z" />
    <glyph glyph-name="uni0647.init" unicode="&#x647;" horiz-adv-x="1079" arabic-form="initial" 
d="M-15 0q-34 0 -50 26t-20.5 59t-4.5 53q0 21 4.5 53.5t20.5 58t50 25.5h48q62 0 108.5 6t72.5 15q-32 25 -48.5 54t-16.5 51q0 53 41.5 152t118.5 193q-17 7 -36 7q-20 0 -28 8t-8 15q0 29 25 78.5t66.5 90t89.5 40.5q61 0 131 -46t137 -119.5t122 -156.5t88 -158.5
t33 -124.5q0 -157 -46.5 -224t-124.5 -67q-51 0 -112.5 16t-121 37.5t-107.5 39.5q-13 -12 -46.5 -41t-84.5 -62t-115 -56t-138 -23h-48zM434 423q37 26 75 68t38 70q0 17 -19 44t-43.5 48.5t-42.5 21.5q-22 0 -57 -23t-62.5 -53.5t-27.5 -55.5q0 -28 48 -62.5t91 -57.5z
M800 311q5 0 22.5 4.5t18.5 15.5q-8 32 -37.5 82t-69.5 96t-82 64q-13 -65 -36 -111.5t-57 -93.5q12 -5 51 -19t90.5 -26t99.5 -12z" />
    <glyph glyph-name="uni0647.medi" unicode="&#x647;" horiz-adv-x="1135" arabic-form="medial" 
d="M1226 138q0 -20 -4.5 -53t-19.5 -59t-49 -26h-51q-43 0 -103.5 -0.5t-122 -3.5t-106.5 -10q36 -21 61.5 -69t25.5 -108q0 -110 -36.5 -195.5t-94.5 -133.5t-122 -48q-79 0 -147 65.5t-102 156.5q-33 87 -52 181.5t-28 150.5q-54 8 -119 11t-123 3h-48q-34 0 -50 26
t-20.5 59t-4.5 53q0 21 4.5 53.5t20.5 58t50 25.5h48q68 0 143 3t111 15q42 100 98 204t118.5 192.5t123.5 143t114 54.5q30 0 51.5 -29t35.5 -73t20.5 -90t6.5 -80q0 -52 -24.5 -127t-76 -145t-132.5 -109q6 0 55 6t117 14.5t136.5 14.5t113.5 6h109q34 0 49 -25.5
t19.5 -58t4.5 -53.5zM717 505q0 25 -13 50t-56 25q-27 0 -63 -26.5t-72.5 -68t-66 -88t-42.5 -87.5q134 35 223.5 86t89.5 109zM741 -239q0 33 -46 76.5t-125 82t-178 56.5q8 -33 32.5 -78t60.5 -89t79 -73t88 -29q46 0 67.5 17.5t21.5 36.5z" />
    <glyph glyph-name="uni0647.fina" unicode="&#x647;" horiz-adv-x="867" arabic-form="final" 
d="M957 138q0 -20 -4.5 -53t-19.5 -59t-49 -26h-51q-81 0 -135.5 22.5t-89.5 79.5t-59 161q-32 -47 -90 -93t-127 -46q-28 0 -71 5.5t-85 17.5t-70.5 33.5t-28.5 52.5q0 22 15 66.5t39 95t50 89.5q18 26 55 61t81 71t84.5 63.5t65.5 37.5q-1 11 -2 20t-1 21q0 16 2 27
q4 40 27 79t50 65.5t42 26.5q2 0 8 -32.5t14.5 -83t16.5 -103.5q14 -79 27.5 -157.5t23.5 -135t13 -70.5q9 -30 19.5 -52t38 -34.5t87.5 -12.5h51q34 0 49 -25.5t19.5 -58t4.5 -53.5zM522 406q-6 32 -14.5 83.5t-18.5 100.5q-68 -28 -117.5 -68.5t-76 -73t-26.5 -38.5
t28 -11.5t68 -9.5t76 -4q33 0 50 5.5t31 15.5z" />
    <glyph glyph-name="uni0648.fina" unicode="&#x648;" horiz-adv-x="878" arabic-form="final" 
d="M969 138q0 -20 -4.5 -53t-20 -59t-49.5 -26l-165 -3q-16 -60 -43 -144t-67 -170t-98 -152q-71 -78 -140 -118t-141 -40q-47 0 -112 29t-127 68t-103.5 70.5t-41.5 36.5q0 9 12.5 25t23.5 16t61 -16.5t117 -16.5q66 0 149 31t164.5 87t143 130.5t82.5 161.5q-99 5 -166 22
t-101.5 60t-34.5 127q0 61 24.5 142t64 157.5t83.5 127t83 50.5q36 0 69.5 -47.5t60 -116t42 -136t15.5 -106.5h145q34 0 49.5 -25.5t20 -58t4.5 -53.5zM627 278q0 15 -19.5 45.5t-49 55.5t-59.5 25q-16 0 -36.5 -24.5t-20.5 -42.5q0 -19 48.5 -38t136.5 -21z" />
    <glyph glyph-name="uni0649.init" unicode="&#x649;" horiz-adv-x="590" 
d="M478 476q0 -129 -53.5 -237t-153.5 -173.5t-241 -65.5h-54q-29 0 -47.5 29t-18.5 111q0 81 22 108t44 27h54q42 0 99 3t108 11t74 21q26 14 36.5 30.5t10.5 27.5q0 26 -23.5 52.5t-54.5 52.5t-54.5 49t-23.5 42q0 11 22 61.5t55 110.5t65 100q30 -46 61 -107.5t52 -127.5
t21 -125z" />
    <glyph glyph-name="uni0649.medi" unicode="&#x649;" horiz-adv-x="574" 
d="M666 140q0 -65 -11.5 -102.5t-62.5 -37.5h-51q-38 0 -63.5 10t-51.5 32q-22 18 -42.5 49.5t-34.5 70.5q-47 -64 -116.5 -113t-199.5 -49h-48q-51 0 -63 35.5t-12 104.5q0 64 12 99.5t63 35.5h48q106 0 170 26.5t99.5 61.5t54.5 61.5t35 26.5q9 0 19 -12t20 -62
q7 -34 28 -68t82 -34h51q51 0 62.5 -34.5t11.5 -100.5z" />
    <glyph glyph-name="uni0649.fina" unicode="&#x649;" horiz-adv-x="1533" arabic-form="final" 
d="M1622 138q0 -20 -4.5 -53t-20 -59t-49.5 -26h-130q-19 0 -61.5 -0.5t-93 -2t-93.5 -4.5t-62 -8q-44 -13 -72 -33t-28 -41q0 -11 31 -22t104 -20q126 -13 188 -46t62 -134q0 -63 -57.5 -140t-160.5 -147.5t-240 -116.5t-295 -46q-197 0 -311.5 66t-163.5 172t-49 227
q0 89 31.5 183t72.5 175t74 131t36 50q8 0 27.5 -12t19.5 -17q0 -4 -17.5 -36.5t-41 -85.5t-41 -120.5t-17.5 -141.5q0 -148 110 -235.5t341 -87.5q39 0 105.5 8t141 22t141.5 31.5t109.5 35.5t42.5 35q0 30 -49 36t-138 9q-127 4 -171.5 46.5t-44.5 114.5q0 43 17 86.5
t47 83.5q58 83 149 150.5t173 92.5q18 6 53.5 9.5t73 5.5t57.5 2h130q34 0 49.5 -25.5t20 -58t4.5 -53.5z" />
    <glyph glyph-name="uni064A.init" unicode="&#x64a;" horiz-adv-x="590" arabic-form="initial" 
d="M478 476q0 -129 -53.5 -237t-153.5 -173.5t-241 -65.5h-54q-29 0 -47.5 29t-18.5 111q0 81 22 108t44 27h54q42 0 99 3t108 11t74 21q26 14 36.5 30.5t10.5 27.5q0 26 -23.5 52.5t-54.5 52.5t-54.5 49t-23.5 42q0 11 22 61.5t55 110.5t65 100q30 -46 61 -107.5t52 -127.5
t21 -125zM560 -234q0 -7 -17 -37.5t-40 -66.5t-43.5 -62.5t-27.5 -26.5q-5 0 -30.5 18t-57.5 42t-56 42.5t-26 20.5q-10 8 -16 8q-5 0 -12 -12q-1 -2 -17 -25.5t-38.5 -53.5t-41.5 -53t-27 -23q-4 0 -31.5 18.5t-61 43.5t-58.5 46t-25 27q0 7 18 38t42 67.5t44.5 63.5
t25.5 27q9 0 35 -18t55.5 -41.5t51.5 -42.5t24 -20q11 -9 15 -9q7 0 17 14q2 2 19 25t39 52t41 51t24 22q8 0 35.5 -18.5t60 -43.5t56 -46t23.5 -27z" />
    <glyph glyph-name="uni064A.medi" unicode="&#x64a;" horiz-adv-x="574" arabic-form="medial" 
d="M666 140q0 -65 -11.5 -102.5t-62.5 -37.5h-51q-38 0 -63.5 10t-51.5 32q-22 18 -42.5 49.5t-34.5 70.5q-47 -64 -116.5 -113t-199.5 -49h-48q-51 0 -63 35.5t-12 104.5q0 64 12 99.5t63 35.5h48q106 0 170 26.5t99.5 61.5t54.5 61.5t35 26.5q9 0 19 -12t20 -62
q7 -34 28 -68t82 -34h51q51 0 62.5 -34.5t11.5 -100.5zM603 -240q0 -7 -17 -37.5t-40 -66.5t-43.5 -62.5t-27.5 -26.5q-5 0 -30.5 18t-57.5 42t-56 42.5t-26 20.5q-10 8 -16 8q-5 0 -12 -12q-1 -2 -17 -25.5t-38.5 -53.5t-41.5 -53t-27 -23q-4 0 -31.5 18.5t-61 43.5
t-58.5 46t-25 27q0 7 18 38t42 67.5t44.5 63.5t25.5 27q9 0 35 -18t55.5 -41.5t51.5 -42.5t24 -20q11 -9 15 -9q7 0 17 14q2 2 19 25t39 52t41 51t24 22q8 0 35.5 -18.5t60 -43.5t56 -46t23.5 -27z" />
    <glyph glyph-name="uni064A.fina" unicode="&#x64a;" horiz-adv-x="1533" arabic-form="final" 
d="M1622 138q0 -20 -4.5 -53t-20 -59t-49.5 -26h-130q-19 0 -61.5 -0.5t-93 -2t-93.5 -4.5t-62 -8q-44 -13 -72 -33t-28 -41q0 -11 31 -22t104 -20q126 -13 188 -46t62 -134q0 -63 -57.5 -140t-160.5 -147.5t-240 -116.5t-295 -46q-197 0 -311.5 66t-163.5 172t-49 227
q0 89 31.5 183t72.5 175t74 131t36 50q8 0 27.5 -12t19.5 -17q0 -4 -17.5 -36.5t-41 -85.5t-41 -120.5t-17.5 -141.5q0 -148 110 -235.5t341 -87.5q39 0 105.5 8t141 22t141.5 31.5t109.5 35.5t42.5 35q0 30 -49 36t-138 9q-127 4 -171.5 46.5t-44.5 114.5q0 43 17 86.5
t47 83.5q58 83 149 150.5t173 92.5q18 6 53.5 9.5t73 5.5t57.5 2h130q34 0 49.5 -25.5t20 -58t4.5 -53.5zM940 -966q0 -7 -17 -37.5t-40 -66.5t-43.5 -62.5t-27.5 -26.5q-5 0 -30.5 18t-57.5 42t-56 42.5t-26 20.5q-10 8 -16 8q-5 0 -12 -12q-1 -2 -17 -25.5t-38.5 -53.5
t-41.5 -53t-27 -23q-4 0 -31.5 18.5t-61 43.5t-58.5 46t-25 27q0 7 18 38t42 67.5t44.5 63.5t25.5 27q9 0 35 -18t55.5 -41.5t51.5 -42.5t24 -20q11 -9 15 -9q7 0 17 14q2 2 19 25t39 52t41 51t24 22q8 0 35.5 -18.5t60 -43.5t56 -46t23.5 -27z" />
    <glyph glyph-name="uni066E.init" unicode="&#x66e;" horiz-adv-x="590" 
d="M478 476q0 -129 -53.5 -237t-153.5 -173.5t-241 -65.5h-54q-29 0 -47.5 29t-18.5 111q0 81 22 108t44 27h54q42 0 99 3t108 11t74 21q26 14 36.5 30.5t10.5 27.5q0 26 -23.5 52.5t-54.5 52.5t-54.5 49t-23.5 42q0 11 22 61.5t55 110.5t65 100q30 -46 61 -107.5t52 -127.5
t21 -125z" />
    <glyph glyph-name="uni066E.medi" unicode="&#x66e;" horiz-adv-x="574" 
d="M666 140q0 -65 -11.5 -102.5t-62.5 -37.5h-51q-38 0 -63.5 10t-51.5 32q-22 18 -42.5 49.5t-34.5 70.5q-47 -64 -116.5 -113t-199.5 -49h-48q-51 0 -63 35.5t-12 104.5q0 64 12 99.5t63 35.5h48q106 0 170 26.5t99.5 61.5t54.5 61.5t35 26.5q9 0 19 -12t20 -62
q7 -34 28 -68t82 -34h51q51 0 62.5 -34.5t11.5 -100.5z" />
    <glyph glyph-name="uni066E.fina" unicode="&#x66e;" horiz-adv-x="2014" 
d="M2105 138q0 -20 -4 -53t-17.5 -59t-43.5 -26h-53q-85 0 -146 28t-112 134q-79 -67 -226 -129.5t-340.5 -102.5t-412.5 -40q-307 0 -475 115t-168 305q0 82 24 157t56 134t58.5 93t31.5 34t22 -12.5t17 -22.5q0 -6 -20.5 -37.5t-41.5 -84t-21 -122.5q0 -99 84 -158
t221.5 -84.5t298.5 -25.5q184 0 346 16t286.5 50t193.5 87q28 20 46 46.5t35 26.5q23 0 35 -28.5t31 -51.5q17 -23 60 -37.5t117 -14.5h53q30 0 43.5 -25.5t17.5 -58t4 -53.5z" />
    <glyph glyph-name="uni066F.init" unicode="&#x66f;" horiz-adv-x="686" 
d="M609 503q0 -95 -21 -169.5t-71 -145.5q-22 -32 -83 -76.5t-161 -78t-240 -33.5h-48q-34 0 -50 26t-20.5 59t-4.5 53q0 21 4.5 53.5t20.5 58t50 25.5h48q165 0 268.5 28.5t152.5 66.5t49 66q0 20 -17 49t-36 49q-9 -36 -37 -74.5t-70 -65.5t-95 -27q-72 0 -127.5 40
t-55.5 149q0 34 14.5 90t39.5 119.5t57.5 120t69.5 92.5t75 36q45 0 95.5 -45t94 -119.5t71 -165t27.5 -181.5zM346 673q0 8 -32.5 33t-68.5 25q-15 0 -28.5 -15.5t-13.5 -31.5t13.5 -38t44.5 -22t58 21t27 28z" />
    <glyph glyph-name="uni066F.medi" unicode="&#x66f;" horiz-adv-x="849" 
d="M940 138q0 -20 -5 -53t-20.5 -59t-48.5 -26h-50q-97 0 -178.5 19.5t-142 46t-95.5 45.5q-34 -18 -93 -44.5t-130.5 -46.5t-143.5 -20h-48q-34 0 -50 26t-20.5 59t-4.5 53q0 21 4.5 53.5t20.5 58t50 25.5h48q50 0 104 7t88 15q-7 12 -12.5 39t-5.5 56q0 75 41.5 170.5
t101.5 177.5q56 74 118.5 124t113.5 50q47 0 82 -33.5t57.5 -83.5t33.5 -101.5t11 -87.5q0 -157 -124 -306q41 -12 84 -19.5t90 -7.5h50q33 0 48.5 -25.5t20.5 -58t5 -53.5zM649 528q0 17 -17 44t-48.5 48.5t-77.5 21.5q-23 0 -60.5 -16t-67 -38.5t-29.5 -43.5t23.5 -52
t55.5 -61t57 -48q65 31 114.5 70t49.5 75z" />
    <glyph glyph-name="uni066F.fina" unicode="&#x66f;" horiz-adv-x="1379" 
d="M1470 138q0 -20 -4.5 -53t-20 -59t-49.5 -26h-133q-11 -47 -24.5 -85t-37.5 -85q-31 -63 -94.5 -133t-154.5 -131.5t-206.5 -100.5t-252.5 -39q-167 0 -276.5 103.5t-109.5 290.5q0 98 31 187.5t72 159.5t74 111t36 41q8 0 22.5 -13.5t14.5 -22.5q0 -4 -18 -35t-42 -77
t-42 -96.5t-18 -93.5q0 -128 93 -204t252 -76q200 0 329 45.5t191 108.5q17 16 30.5 64t14.5 81q-22 0 -50 -1.5t-81 -1.5q-118 0 -175 63.5t-57 136.5q0 74 24 151t62 142.5t81 106t80 40.5q59 0 102 -40.5t71.5 -100.5t44.5 -120.5t20 -100.5h46.5h80.5q34 0 49.5 -25.5
t20 -58t4.5 -53.5zM1103 275q-10 38 -46.5 66.5t-80.5 28.5q-33 0 -47.5 -17.5t-14.5 -35.5q0 -29 52 -35.5t137 -6.5z" />
    <glyph glyph-name="uni0671.fina" unicode="&#x671;" horiz-adv-x="523" arabic-form="final" 
d="M631 150q0 -83 -20.5 -116.5t-48.5 -33.5h-48q-124 0 -200.5 63.5t-101.5 212.5q-17 97 -33.5 240.5t-34.5 313.5q-14 132 -24 229t-10 144q0 20 20.5 61t48.5 85t50.5 74.5t28.5 30.5q12 0 26.5 -18t17.5 -45q20 -393 26 -639t21 -361q8 -62 55 -85t110 -23h48
q31 0 50 -27t19 -106zM473 1778q0 -50 -28.5 -103t-84.5 -89.5t-136 -36.5q-36 0 -85.5 1t-93.5 2.5t-62 1.5q-37 0 -46.5 -5.5t-14.5 -15.5q-2 -7 -8.5 -21.5t-17.5 -14.5q-15 0 -15 35q0 13 5.5 43t24.5 59t59 40q22 6 71.5 7t81.5 1q19 50 52.5 102t78 87t98.5 35
q64 0 92.5 -40t28.5 -88zM383 1730q0 13 -9 25.5t-34 12.5q-34 0 -76.5 -30.5t-58.5 -55.5q178 0 178 48z" />
    <glyph glyph-name="uni0672.fina" unicode="&#x672;" horiz-adv-x="523" 
d="M631 150q0 -83 -20.5 -116.5t-48.5 -33.5h-48q-124 0 -200.5 63.5t-101.5 212.5q-17 97 -33.5 240.5t-34.5 313.5q-14 132 -24 229t-10 144q0 20 20.5 61t48.5 85t50.5 74.5t28.5 30.5q12 0 26.5 -18t17.5 -45q20 -393 26 -639t21 -361q8 -62 55 -85t110 -23h48
q31 0 50 -27t19 -106zM436 1768q0 -5 -8 -28t-21.5 -46.5t-28.5 -28.5q-12 -2 -48.5 -15.5t-81 -30.5t-81.5 -31q-67 -25 -120 -51t-99 -26t-91 26.5t-84 26.5q-27 0 -58.5 -12t-56 -24t-31.5 -12q-18 0 -18 21q0 7 26.5 30t65.5 49.5t78.5 46t65.5 19.5q42 0 76.5 -22
t66.5 -22q16 0 28 3t61 19q-20 5 -47 28t-27 61q0 30 19.5 69t47 75t48.5 57q51 51 93 62.5t70 11.5t59.5 -23t31.5 -62q0 -23 -9 -51t-20.5 -48.5t-20.5 -20.5q-7 0 -28.5 14.5t-47 28.5t-46.5 14q-27 0 -45.5 -16t-18.5 -31q0 -5 25.5 -23.5t60 -36t61.5 -19.5
q21 5 52 14.5t56 17t31 7.5q14 0 14 -21z" />
    <glyph glyph-name="uni0673.fina" unicode="&#x673;" horiz-adv-x="523" 
d="M631 150q0 -83 -20.5 -116.5t-48.5 -33.5h-48q-124 0 -200.5 63.5t-101.5 212.5q-17 97 -33.5 240.5t-34.5 313.5q-14 132 -24 229t-10 144q0 20 20.5 61t48.5 85t50.5 74.5t28.5 30.5q12 0 26.5 -18t17.5 -45q20 -393 26 -639t21 -361q8 -62 55 -85t110 -23h48
q31 0 50 -27t19 -106zM542 -409q0 -5 -8 -28t-21.5 -46.5t-28.5 -28.5q-12 -2 -48.5 -15.5t-81 -30.5t-81.5 -31q-67 -25 -120 -51t-99 -26t-91 26.5t-84 26.5q-27 0 -58.5 -12t-56 -24t-31.5 -12q-18 0 -18 21q0 7 26.5 30t65.5 49.5t78.5 46t65.5 19.5q42 0 76.5 -22
t66.5 -22q16 0 28 3t61 19q-20 5 -47 28t-27 61q0 30 19.5 69t47 75t48.5 57q51 51 93 62.5t70 11.5t59.5 -23t31.5 -62q0 -23 -9 -51t-20.5 -48.5t-20.5 -20.5q-7 0 -28.5 14.5t-47 28.5t-46.5 14q-27 0 -45.5 -16t-18.5 -31q0 -5 25.5 -23.5t60 -36t61.5 -19.5
q21 5 52 14.5t56 17t31 7.5q14 0 14 -21z" />
    <glyph glyph-name="uni0675.fina" unicode="&#x675;" horiz-adv-x="523" 
d="M613 146q0 -81 -20 -113.5t-47 -32.5h-47q-120 0 -194.5 61.5t-98.5 206.5q-16 95 -32.5 234t-33.5 304q-13 128 -23 222t-10 140q0 20 20 59.5t47 82t49 72.5t27 30q12 0 26.5 -18t16.5 -44q20 -381 26 -620t20 -350q8 -61 53.5 -83t106.5 -22h47q30 0 48.5 -26
t18.5 -103zM818 1272q0 -12 -10 -35.5t-24 -44.5t-25 -24q-11 -4 -50 -19t-87 -33.5t-84 -32.5q-66 -25 -113.5 -48t-57.5 -23q-18 0 -18 18q0 14 17 48.5t22 42.5q9 9 34.5 23.5t36.5 17.5q-20 6 -47 29t-27 60q0 31 20 70.5t47.5 75t47.5 56.5q53 52 94.5 63t68.5 11
q29 0 60 -23.5t31 -61.5q0 -23 -9 -51t-21 -48t-20 -20q-7 0 -28.5 14t-47 28t-46.5 14q-27 0 -46 -16t-19 -31q0 -6 26 -24.5t61 -36t61 -18.5q23 5 53.5 14.5t55.5 17t30 7.5q14 0 14 -20z" />
    <glyph glyph-name="uni0676.fina" unicode="&#x676;" horiz-adv-x="878" 
d="M969 138q0 -20 -4.5 -53t-20 -59t-49.5 -26l-165 -3q-16 -60 -43 -144t-67 -170t-98 -152q-71 -78 -140 -118t-141 -40q-47 0 -112 29t-127 68t-103.5 70.5t-41.5 36.5q0 9 12.5 25t23.5 16t61 -16.5t117 -16.5q66 0 149 31t164.5 87t143 130.5t82.5 161.5q-99 5 -166 22
t-101.5 60t-34.5 127q0 61 24.5 142t64 157.5t83.5 127t83 50.5q36 0 69.5 -47.5t60 -116t42 -136t15.5 -106.5h145q34 0 49.5 -25.5t20 -58t4.5 -53.5zM627 278q0 15 -19.5 45.5t-49 55.5t-59.5 25q-16 0 -36.5 -24.5t-20.5 -42.5q0 -19 48.5 -38t136.5 -21zM1040 1272
q0 -12 -10 -35.5t-24 -44.5t-25 -24q-11 -4 -50 -19t-87 -33.5t-84 -32.5q-66 -25 -113.5 -48t-57.5 -23q-18 0 -18 18q0 14 17 48.5t22 42.5q9 9 34.5 23.5t36.5 17.5q-20 6 -47 29t-27 60q0 31 20 70.5t47.5 75t47.5 56.5q53 52 94.5 63t68.5 11q29 0 60 -23.5t31 -61.5
q0 -23 -9 -51t-21 -48t-20 -20q-7 0 -28.5 14t-47 28t-46.5 14q-27 0 -46 -16t-19 -31q0 -6 26 -24.5t61 -36t61 -18.5q23 5 53.5 14.5t55.5 17t30 7.5q14 0 14 -20z" />
    <glyph glyph-name="uni0677.fina" unicode="&#x677;" horiz-adv-x="878" 
d="M969 138q0 -20 -4.5 -53t-20 -59t-49.5 -26l-165 -3q-16 -60 -43 -144t-67 -170t-98 -152q-71 -78 -140 -118t-141 -40q-47 0 -112 29t-127 68t-103.5 70.5t-41.5 36.5q0 9 12.5 25t23.5 16t61 -16.5t117 -16.5q66 0 149 31t164.5 87t143 130.5t82.5 161.5q-99 5 -166 22
t-101.5 60t-34.5 127q0 61 24.5 142t64 157.5t83.5 127t83 50.5q36 0 69.5 -47.5t60 -116t42 -136t15.5 -106.5h145q34 0 49.5 -25.5t20 -58t4.5 -53.5zM627 278q0 15 -19.5 45.5t-49 55.5t-59.5 25q-16 0 -36.5 -24.5t-20.5 -42.5q0 -19 48.5 -38t136.5 -21zM541 1136
q0 -86 -37 -158.5t-94 -130t-117 -99.5q-5 -4 -25 19t-33 51.5t0 38.5q54 44 97 96t48 92q5 37 -6.5 33t-64.5 -4q-52 0 -94 38t-42 93q0 89 52 134t116 45q53 0 98.5 -34.5t73.5 -90.5t28 -123zM1086 1136q0 -12 -11 -37.5t-26 -48t-27 -26.5q-11 -4 -53.5 -20.5t-94 -36
t-91.5 -34.5q-70 -27 -121.5 -52t-62.5 -25q-19 0 -19 19q0 10 9 31.5t19 41.5t14 25q9 10 37 25.5t39 19.5q-22 7 -51 31.5t-29 64.5q0 34 22 76t51.5 81t51.5 61q56 56 101 67.5t74 11.5q32 0 65.5 -25t33.5 -66q0 -25 -10 -55.5t-22.5 -52t-21.5 -21.5q-8 0 -31 15.5
t-50.5 30.5t-50.5 15q-29 0 -49.5 -17t-20.5 -34q0 -6 28 -26.5t66 -39t66 -19.5q24 6 57 16t60 18t32 8q16 0 16 -22z" />
    <glyph glyph-name="uni0678.init" unicode="&#x678;" horiz-adv-x="830" 
d="M478 476q0 -129 -53.5 -237t-153.5 -173.5t-241 -65.5h-54q-29 0 -47.5 29t-18.5 111q0 81 22 108t44 27h54q42 0 99 3t108 11t74 21q26 14 36.5 30.5t10.5 27.5q0 26 -23.5 52.5t-54.5 52.5t-54.5 49t-23.5 42q0 11 22 61.5t55 110.5t65 100q30 -46 61 -107.5t52 -127.5
t21 -125zM830 1272q0 -12 -10 -35.5t-24 -44.5t-25 -24q-11 -4 -50 -19t-87 -33.5t-84 -32.5q-66 -25 -113.5 -48t-57.5 -23q-18 0 -18 18q0 14 17 48.5t22 42.5q9 9 34.5 23.5t36.5 17.5q-20 6 -47 29t-27 60q0 31 20 70.5t47.5 75t47.5 56.5q53 52 94.5 63t68.5 11
q29 0 60 -23.5t31 -61.5q0 -23 -9 -51t-21 -48t-20 -20q-7 0 -28.5 14t-47 28t-46.5 14q-27 0 -46 -16t-19 -31q0 -6 26 -24.5t61 -36t61 -18.5q23 5 53.5 14.5t55.5 17t30 7.5q14 0 14 -20z" />
    <glyph glyph-name="uni0678.medi" unicode="&#x678;" horiz-adv-x="574" 
d="M666 140q0 -65 -11.5 -102.5t-62.5 -37.5h-51q-38 0 -63.5 10t-51.5 32q-22 18 -42.5 49.5t-34.5 70.5q-47 -64 -116.5 -113t-199.5 -49h-48q-51 0 -63 35.5t-12 104.5q0 64 12 99.5t63 35.5h48q106 0 170 26.5t99.5 61.5t54.5 61.5t35 26.5q9 0 19 -12t20 -62
q7 -34 28 -68t82 -34h51q51 0 62.5 -34.5t11.5 -100.5zM853 1272q0 -12 -10 -35.5t-24 -44.5t-25 -24q-11 -4 -50 -19t-87 -33.5t-84 -32.5q-66 -25 -113.5 -48t-57.5 -23q-18 0 -18 18q0 14 17 48.5t22 42.5q9 9 34.5 23.5t36.5 17.5q-20 6 -47 29t-27 60q0 31 20 70.5
t47.5 75t47.5 56.5q53 52 94.5 63t68.5 11q29 0 60 -23.5t31 -61.5q0 -23 -9 -51t-21 -48t-20 -20q-7 0 -28.5 14t-47 28t-46.5 14q-27 0 -46 -16t-19 -31q0 -6 26 -24.5t61 -36t61 -18.5q23 5 53.5 14.5t55.5 17t30 7.5q14 0 14 -20z" />
    <glyph glyph-name="uni0678.fina" unicode="&#x678;" horiz-adv-x="1533" 
d="M1622 138q0 -20 -4.5 -53t-20 -59t-49.5 -26h-130q-19 0 -61.5 -0.5t-93 -2t-93.5 -4.5t-62 -8q-44 -13 -72 -33t-28 -41q0 -11 31 -22t104 -20q126 -13 188 -46t62 -134q0 -63 -57.5 -140t-160.5 -147.5t-240 -116.5t-295 -46q-197 0 -311.5 66t-163.5 172t-49 227
q0 89 31.5 183t72.5 175t74 131t36 50q8 0 27.5 -12t19.5 -17q0 -4 -17.5 -36.5t-41 -85.5t-41 -120.5t-17.5 -141.5q0 -148 110 -235.5t341 -87.5q39 0 105.5 8t141 22t141.5 31.5t109.5 35.5t42.5 35q0 30 -49 36t-138 9q-127 4 -171.5 46.5t-44.5 114.5q0 43 17 86.5
t47 83.5q58 83 149 150.5t173 92.5q18 6 53.5 9.5t73 5.5t57.5 2h130q34 0 49.5 -25.5t20 -58t4.5 -53.5zM1544 1272q0 -12 -10 -35.5t-24 -44.5t-25 -24q-11 -4 -50 -19t-87 -33.5t-84 -32.5q-66 -25 -113.5 -48t-57.5 -23q-18 0 -18 18q0 14 17 48.5t22 42.5
q9 9 34.5 23.5t36.5 17.5q-20 6 -47 29t-27 60q0 31 20 70.5t47.5 75t47.5 56.5q53 52 94.5 63t68.5 11q29 0 60 -23.5t31 -61.5q0 -23 -9 -51t-21 -48t-20 -20q-7 0 -28.5 14t-47 28t-46.5 14q-27 0 -46 -16t-19 -31q0 -6 26 -24.5t61 -36t61 -18.5q23 5 53.5 14.5t55.5 17
t30 7.5q14 0 14 -20z" />
    <glyph glyph-name="uni0679.init" unicode="&#x679;" horiz-adv-x="590" arabic-form="initial" 
d="M478 476q0 -129 -53.5 -237t-153.5 -173.5t-241 -65.5h-54q-29 0 -47.5 29t-18.5 111q0 81 22 108t44 27h54q42 0 99 3t108 11t74 21q26 14 36.5 30.5t10.5 27.5q0 26 -23.5 52.5t-54.5 52.5t-54.5 49t-23.5 42q0 11 22 61.5t55 110.5t65 100q30 -46 61 -107.5t52 -127.5
t21 -125zM575 1232q0 -66 -48 -115.5t-125.5 -82.5t-166 -49.5t-169.5 -16.5q-19 0 -50 26t-55 56.5t-24 44.5q0 12 11 12q13 0 51 -3.5t63 -3.5q46 0 63 44q7 18 10 36.5t3 29.5q0 86 -21 174t-21 149q0 45 25.5 78.5t40.5 33.5q2 0 14 -18t27 -41t26 -41.5t11 -20.5
q-11 -8 -19 -21.5t-8 -37.5q0 -37 3 -82.5t3 -77.5q0 -17 -2 -51.5t-7 -66.5q63 74 131.5 125.5t128.5 51.5q54 0 79.5 -45t25.5 -87zM482 1193q0 13 -21 16.5t-44 3.5q-48 0 -114.5 -30.5t-112.5 -77.5q101 7 165.5 27t95.5 38.5t31 22.5z" />
    <glyph glyph-name="uni0679.medi" unicode="&#x679;" horiz-adv-x="574" arabic-form="medial" 
d="M666 140q0 -65 -11.5 -102.5t-62.5 -37.5h-51q-38 0 -63.5 10t-51.5 32q-22 18 -42.5 49.5t-34.5 70.5q-47 -64 -116.5 -113t-199.5 -49h-48q-51 0 -63 35.5t-12 104.5q0 64 12 99.5t63 35.5h48q106 0 170 26.5t99.5 61.5t54.5 61.5t35 26.5q9 0 19 -12t20 -62
q7 -34 28 -68t82 -34h51q51 0 62.5 -34.5t11.5 -100.5zM605 884q0 -66 -48 -115.5t-125.5 -82.5t-166 -49.5t-169.5 -16.5q-19 0 -50 26t-55 56.5t-24 44.5q0 12 11 12q13 0 51 -3.5t63 -3.5q46 0 63 44q7 18 10 36.5t3 29.5q0 86 -21 174t-21 149q0 45 25.5 78.5t40.5 33.5
q2 0 14 -18t27 -41t26 -41.5t11 -20.5q-11 -8 -19 -21.5t-8 -37.5q0 -37 3 -82.5t3 -77.5q0 -17 -2 -51.5t-7 -66.5q63 74 131.5 125.5t128.5 51.5q54 0 79.5 -45t25.5 -87zM512 845q0 13 -21 16.5t-44 3.5q-48 0 -114.5 -30.5t-112.5 -77.5q101 7 165.5 27t95.5 38.5
t31 22.5z" />
    <glyph glyph-name="uni0679.fina" unicode="&#x679;" horiz-adv-x="2014" arabic-form="final" 
d="M2105 138q0 -20 -4 -53t-17.5 -59t-43.5 -26h-53q-85 0 -146 28t-112 134q-79 -67 -226 -129.5t-340.5 -102.5t-412.5 -40q-307 0 -475 115t-168 305q0 82 24 157t56 134t58.5 93t31.5 34t22 -12.5t17 -22.5q0 -6 -20.5 -37.5t-41.5 -84t-21 -122.5q0 -99 84 -158
t221.5 -84.5t298.5 -25.5q184 0 346 16t286.5 50t193.5 87q28 20 46 46.5t35 26.5q23 0 35 -28.5t31 -51.5q17 -23 60 -37.5t117 -14.5h53q30 0 43.5 -25.5t17.5 -58t4 -53.5zM1244 835q0 -66 -48 -115.5t-125.5 -82.5t-166 -49.5t-169.5 -16.5q-19 0 -50 26t-55 56.5
t-24 44.5q0 12 11 12q13 0 51 -3.5t63 -3.5q46 0 63 44q7 18 10 36.5t3 29.5q0 86 -21 174t-21 149q0 45 25.5 78.5t40.5 33.5q2 0 14 -18t27 -41t26 -41.5t11 -20.5q-11 -8 -19 -21.5t-8 -37.5q0 -37 3 -82.5t3 -77.5q0 -17 -2 -51.5t-7 -66.5q63 74 131.5 125.5
t128.5 51.5q54 0 79.5 -45t25.5 -87zM1151 796q0 13 -21 16.5t-44 3.5q-48 0 -114.5 -30.5t-112.5 -77.5q101 7 165.5 27t95.5 38.5t31 22.5z" />
    <glyph glyph-name="uni067A.init" unicode="&#x67a;" horiz-adv-x="590" arabic-form="initial" 
d="M478 476q0 -129 -53.5 -237t-153.5 -173.5t-241 -65.5h-54q-29 0 -47.5 29t-18.5 111q0 81 22 108t44 27h54q42 0 99 3t108 11t74 21q26 14 36.5 30.5t10.5 27.5q0 26 -23.5 52.5t-54.5 52.5t-54.5 49t-23.5 42q0 11 22 61.5t55 110.5t65 100q30 -46 61 -107.5t52 -127.5
t21 -125zM440 1171q0 -11 -18 -39.5t-42 -61t-44 -55.5t-25 -23q-4 0 -31 16t-60.5 37.5t-58.5 41t-25 25.5q0 11 23.5 44.5t51 68.5t41.5 49q6 9 6 14q0 8 -4 12q-16 10 -53 35t-69 49.5t-32 32.5q0 6 17 34.5t41.5 63t45 60.5t27.5 26q10 0 39 -19t62.5 -44.5t57.5 -46.5
t24 -24q0 -4 -22.5 -36.5t-49 -68t-37.5 -49.5q-3 -3 -8 -9.5t-5 -13.5q0 -5 12 -14q14 -11 47 -33.5t61 -43t28 -28.5z" />
    <glyph glyph-name="uni067A.medi" unicode="&#x67a;" horiz-adv-x="574" arabic-form="medial" 
d="M666 140q0 -65 -11.5 -102.5t-62.5 -37.5h-51q-38 0 -63.5 10t-51.5 32q-22 18 -42.5 49.5t-34.5 70.5q-47 -64 -116.5 -113t-199.5 -49h-48q-51 0 -63 35.5t-12 104.5q0 64 12 99.5t63 35.5h48q106 0 170 26.5t99.5 61.5t54.5 61.5t35 26.5q9 0 19 -12t20 -62
q7 -34 28 -68t82 -34h51q51 0 62.5 -34.5t11.5 -100.5zM463 800q0 -11 -18 -39.5t-42 -61t-44 -55.5t-25 -23q-4 0 -31 16t-60.5 37.5t-58.5 41t-25 25.5q0 11 23.5 44.5t51 68.5t41.5 49q6 9 6 14q0 8 -4 12q-16 10 -53 35t-69 49.5t-32 32.5q0 6 17 34.5t41.5 63t45 60.5
t27.5 26q10 0 39 -19t62.5 -44.5t57.5 -46.5t24 -24q0 -4 -22.5 -36.5t-49 -68t-37.5 -49.5q-3 -3 -8 -9.5t-5 -13.5q0 -5 12 -14q14 -11 47 -33.5t61 -43t28 -28.5z" />
    <glyph glyph-name="uni067A.fina" unicode="&#x67a;" horiz-adv-x="2014" arabic-form="final" 
d="M2105 138q0 -20 -4 -53t-17.5 -59t-43.5 -26h-53q-85 0 -146 28t-112 134q-79 -67 -226 -129.5t-340.5 -102.5t-412.5 -40q-307 0 -475 115t-168 305q0 82 24 157t56 134t58.5 93t31.5 34t22 -12.5t17 -22.5q0 -6 -20.5 -37.5t-41.5 -84t-21 -122.5q0 -99 84 -158
t221.5 -84.5t298.5 -25.5q184 0 346 16t286.5 50t193.5 87q28 20 46 46.5t35 26.5q23 0 35 -28.5t31 -51.5q17 -23 60 -37.5t117 -14.5h53q30 0 43.5 -25.5t17.5 -58t4 -53.5zM1097 807q0 -11 -18 -39.5t-42 -61t-44 -55.5t-25 -23q-4 0 -31 16t-60.5 37.5t-58.5 41
t-25 25.5q0 11 23.5 44.5t51 68.5t41.5 49q6 9 6 14q0 8 -4 12q-16 10 -53 35t-69 49.5t-32 32.5q0 6 17 34.5t41.5 63t45 60.5t27.5 26q10 0 39 -19t62.5 -44.5t57.5 -46.5t24 -24q0 -4 -22.5 -36.5t-49 -68t-37.5 -49.5q-3 -3 -8 -9.5t-5 -13.5q0 -5 12 -14
q14 -11 47 -33.5t61 -43t28 -28.5z" />
    <glyph glyph-name="uni067B.init" unicode="&#x67b;" horiz-adv-x="590" arabic-form="initial" 
d="M478 476q0 -129 -53.5 -237t-153.5 -173.5t-241 -65.5h-54q-29 0 -47.5 29t-18.5 111q0 81 22 108t44 27h54q42 0 99 3t108 11t74 21q26 14 36.5 30.5t10.5 27.5q0 26 -23.5 52.5t-54.5 52.5t-54.5 49t-23.5 42q0 11 22 61.5t55 110.5t65 100q30 -46 61 -107.5t52 -127.5
t21 -125zM400 -538q0 -11 -18 -39.5t-42 -61t-44 -55.5t-25 -23q-4 0 -31 16t-60.5 37.5t-58.5 41t-25 25.5q0 11 23.5 44.5t51 68.5t41.5 49q6 9 6 14q0 8 -4 12q-16 10 -53 35t-69 49.5t-32 32.5q0 6 17 34.5t41.5 63t45 60.5t27.5 26q10 0 39 -19t62.5 -44.5t57.5 -46.5
t24 -24q0 -4 -22.5 -36.5t-49 -68t-37.5 -49.5q-3 -3 -8 -9.5t-5 -13.5q0 -5 12 -14q14 -11 47 -33.5t61 -43t28 -28.5z" />
    <glyph glyph-name="uni067B.medi" unicode="&#x67b;" horiz-adv-x="574" arabic-form="medial" 
d="M666 140q0 -65 -11.5 -102.5t-62.5 -37.5h-51q-38 0 -63.5 10t-51.5 32q-22 18 -42.5 49.5t-34.5 70.5q-47 -64 -116.5 -113t-199.5 -49h-48q-51 0 -63 35.5t-12 104.5q0 64 12 99.5t63 35.5h48q106 0 170 26.5t99.5 61.5t54.5 61.5t35 26.5q9 0 19 -12t20 -62
q7 -34 28 -68t82 -34h51q51 0 62.5 -34.5t11.5 -100.5zM463 -538q0 -11 -18 -39.5t-42 -61t-44 -55.5t-25 -23q-4 0 -31 16t-60.5 37.5t-58.5 41t-25 25.5q0 11 23.5 44.5t51 68.5t41.5 49q6 9 6 14q0 8 -4 12q-16 10 -53 35t-69 49.5t-32 32.5q0 6 17 34.5t41.5 63t45 60.5
t27.5 26q10 0 39 -19t62.5 -44.5t57.5 -46.5t24 -24q0 -4 -22.5 -36.5t-49 -68t-37.5 -49.5q-3 -3 -8 -9.5t-5 -13.5q0 -5 12 -14q14 -11 47 -33.5t61 -43t28 -28.5z" />
    <glyph glyph-name="uni067B.fina" unicode="&#x67b;" horiz-adv-x="2014" arabic-form="final" 
d="M2105 138q0 -20 -4 -53t-17.5 -59t-43.5 -26h-53q-85 0 -146 28t-112 134q-79 -67 -226 -129.5t-340.5 -102.5t-412.5 -40q-307 0 -475 115t-168 305q0 82 24 157t56 134t58.5 93t31.5 34t22 -12.5t17 -22.5q0 -6 -20.5 -37.5t-41.5 -84t-21 -122.5q0 -99 84 -158
t221.5 -84.5t298.5 -25.5q184 0 346 16t286.5 50t193.5 87q28 20 46 46.5t35 26.5q23 0 35 -28.5t31 -51.5q17 -23 60 -37.5t117 -14.5h53q30 0 43.5 -25.5t17.5 -58t4 -53.5zM1035 -675q0 -11 -18 -39.5t-42 -61t-44 -55.5t-25 -23q-4 0 -31 16t-60.5 37.5t-58.5 41
t-25 25.5q0 11 23.5 44.5t51 68.5t41.5 49q6 9 6 14q0 8 -4 12q-16 10 -53 35t-69 49.5t-32 32.5q0 6 17 34.5t41.5 63t45 60.5t27.5 26q10 0 39 -19t62.5 -44.5t57.5 -46.5t24 -24q0 -4 -22.5 -36.5t-49 -68t-37.5 -49.5q-3 -3 -8 -9.5t-5 -13.5q0 -5 12 -14
q14 -11 47 -33.5t61 -43t28 -28.5z" />
    <glyph glyph-name="uni067C.init" unicode="&#x67c;" horiz-adv-x="590" 
d="M478 476q0 -129 -53.5 -237t-153.5 -173.5t-241 -65.5h-54q-29 0 -47.5 29t-18.5 111q0 81 22 108t44 27h54q42 0 99 3t108 11t74 21q26 14 36.5 30.5t10.5 27.5q0 26 -23.5 52.5t-54.5 52.5t-54.5 49t-23.5 42q0 11 22 61.5t55 110.5t65 100q30 -46 61 -107.5t52 -127.5
t21 -125zM609 1188q0 -7 -17 -37.5t-40 -66.5t-43.5 -62.5t-27.5 -26.5q-5 0 -30.5 18t-57.5 42t-56 42.5t-26 20.5q-10 8 -16 8q-5 0 -12 -12q-1 -2 -17 -25.5t-38.5 -53.5t-41.5 -53t-27 -23q-4 0 -31.5 18.5t-61 43.5t-58.5 46t-25 27q0 7 18 38t42 67.5t44.5 63.5
t25.5 27q9 0 35 -18t55.5 -41.5t51.5 -42.5t24 -20q11 -9 15 -9q7 0 17 14q2 2 19 25t39 52t41 51t24 22q8 0 35.5 -18.5t60 -43.5t56 -46t23.5 -27zM461 -58q0 -98 -64.5 -166.5t-158.5 -68.5q-72 0 -113 51.5t-41 161.5q0 56 26.5 108t74 85.5t111.5 33.5q49 0 86 -32.5
t58 -79.5t21 -93zM356 -89q0 14 -21 36t-48.5 39t-48.5 17q-33 0 -49.5 -22.5t-16.5 -46.5q0 -25 28 -45t70 -20q24 0 55 14t31 28z" />
    <glyph glyph-name="uni067C.medi" unicode="&#x67c;" horiz-adv-x="574" 
d="M666 140q0 -65 -11.5 -102.5t-62.5 -37.5h-51q-38 0 -63.5 10t-51.5 32q-22 18 -42.5 49.5t-34.5 70.5q-47 -64 -116.5 -113t-199.5 -49h-48q-51 0 -63 35.5t-12 104.5q0 64 12 99.5t63 35.5h48q106 0 170 26.5t99.5 61.5t54.5 61.5t35 26.5q9 0 19 -12t20 -62
q7 -34 28 -68t82 -34h51q51 0 62.5 -34.5t11.5 -100.5zM602 802q0 -7 -17 -37.5t-40 -66.5t-43.5 -62.5t-27.5 -26.5q-5 0 -30.5 18t-57.5 42t-56 42.5t-26 20.5q-10 8 -16 8q-5 0 -12 -12q-1 -2 -17 -25.5t-38.5 -53.5t-41.5 -53t-27 -23q-4 0 -31.5 18.5t-61 43.5
t-58.5 46t-25 27q0 7 18 38t42 67.5t44.5 63.5t25.5 27q9 0 35 -18t55.5 -41.5t51.5 -42.5t24 -20q11 -9 15 -9q7 0 17 14q2 2 19 25t39 52t41 51t24 22q8 0 35.5 -18.5t60 -43.5t56 -46t23.5 -27zM524 -38q0 -98 -64.5 -166.5t-158.5 -68.5q-72 0 -113 51.5t-41 161.5
q0 56 26.5 108t74 85.5t111.5 33.5q49 0 86 -32.5t58 -79.5t21 -93zM419 -69q0 14 -21 36t-48.5 39t-48.5 17q-33 0 -49.5 -22.5t-16.5 -46.5q0 -25 28 -45t70 -20q24 0 55 14t31 28z" />
    <glyph glyph-name="uni067C.fina" unicode="&#x67c;" horiz-adv-x="2014" 
d="M2105 138q0 -20 -4 -53t-17.5 -59t-43.5 -26h-53q-85 0 -146 28t-112 134q-79 -67 -226 -129.5t-340.5 -102.5t-412.5 -40q-307 0 -475 115t-168 305q0 82 24 157t56 134t58.5 93t31.5 34t22 -12.5t17 -22.5q0 -6 -20.5 -37.5t-41.5 -84t-21 -122.5q0 -99 84 -158
t221.5 -84.5t298.5 -25.5q184 0 346 16t286.5 50t193.5 87q28 20 46 46.5t35 26.5q23 0 35 -28.5t31 -51.5q17 -23 60 -37.5t117 -14.5h53q30 0 43.5 -25.5t17.5 -58t4 -53.5zM1258 820q0 -7 -17 -37.5t-40 -66.5t-43.5 -62.5t-27.5 -26.5q-5 0 -30.5 18t-57.5 42t-56 42.5
t-26 20.5q-10 8 -16 8q-5 0 -12 -12q-1 -2 -17 -25.5t-38.5 -53.5t-41.5 -53t-27 -23q-4 0 -31.5 18.5t-61 43.5t-58.5 46t-25 27q0 7 18 38t42 67.5t44.5 63.5t25.5 27q9 0 35 -18t55.5 -41.5t51.5 -42.5t24 -20q11 -9 15 -9q7 0 17 14q2 2 19 25t39 52t41 51t24 22
q8 0 35.5 -18.5t60 -43.5t56 -46t23.5 -27zM986 -214q0 -98 -64.5 -166.5t-158.5 -68.5q-72 0 -113 51.5t-41 161.5q0 56 26.5 108t74 85.5t111.5 33.5q49 0 86 -32.5t58 -79.5t21 -93zM881 -245q0 14 -21 36t-48.5 39t-48.5 17q-33 0 -49.5 -22.5t-16.5 -46.5q0 -25 28 -45
t70 -20q24 0 55 14t31 28z" />
    <glyph glyph-name="uni067D.init" unicode="&#x67d;" horiz-adv-x="590" 
d="M478 476q0 -129 -53.5 -237t-153.5 -173.5t-241 -65.5h-54q-29 0 -47.5 29t-18.5 111q0 81 22 108t44 27h54q42 0 99 3t108 11t74 21q26 14 36.5 30.5t10.5 27.5q0 26 -23.5 52.5t-54.5 52.5t-54.5 49t-23.5 42q0 11 22 61.5t55 110.5t65 100q30 -46 61 -107.5t52 -127.5
t21 -125zM470 1163q0 -8 -17 -39t-40.5 -67.5t-45 -63.5t-29.5 -27q-5 0 -32.5 18.5t-61.5 43.5t-59 46t-25 28t17.5 38t42 67.5t45.5 63.5t27 27q8 0 36 -18.5t61 -43.5t57 -46t24 -27zM588 1524q0 -7 -17 -37.5t-40 -66.5t-43.5 -62.5t-27.5 -26.5q-5 0 -30.5 18t-57.5 42
t-56 42.5t-26 20.5q-10 8 -16 8q-5 0 -12 -12q-1 -2 -17 -25.5t-38.5 -53.5t-41.5 -53t-27 -23q-4 0 -31.5 18.5t-61 43.5t-58.5 46t-25 27q0 7 18 38t42 67.5t44.5 63.5t25.5 27q9 0 35 -18t55.5 -41.5t51.5 -42.5t24 -20q11 -9 15 -9q7 0 17 14q2 2 19 25t39 52t41 51
t24 22q8 0 35.5 -18.5t60 -43.5t56 -46t23.5 -27z" />
    <glyph glyph-name="uni067D.medi" unicode="&#x67d;" horiz-adv-x="574" 
d="M666 140q0 -65 -11.5 -102.5t-62.5 -37.5h-51q-38 0 -63.5 10t-51.5 32q-22 18 -42.5 49.5t-34.5 70.5q-47 -64 -116.5 -113t-199.5 -49h-48q-51 0 -63 35.5t-12 104.5q0 64 12 99.5t63 35.5h48q106 0 170 26.5t99.5 61.5t54.5 61.5t35 26.5q9 0 19 -12t20 -62
q7 -34 28 -68t82 -34h51q51 0 62.5 -34.5t11.5 -100.5zM486 773q0 -8 -17 -39t-40.5 -67.5t-45 -63.5t-29.5 -27q-5 0 -32.5 18.5t-61.5 43.5t-59 46t-25 28t17.5 38t42 67.5t45.5 63.5t27 27q8 0 36 -18.5t61 -43.5t57 -46t24 -27zM604 1134q0 -7 -17 -37.5t-40 -66.5
t-43.5 -62.5t-27.5 -26.5q-5 0 -30.5 18t-57.5 42t-56 42.5t-26 20.5q-10 8 -16 8q-5 0 -12 -12q-1 -2 -17 -25.5t-38.5 -53.5t-41.5 -53t-27 -23q-4 0 -31.5 18.5t-61 43.5t-58.5 46t-25 27q0 7 18 38t42 67.5t44.5 63.5t25.5 27q9 0 35 -18t55.5 -41.5t51.5 -42.5t24 -20
q11 -9 15 -9q7 0 17 14q2 2 19 25t39 52t41 51t24 22q8 0 35.5 -18.5t60 -43.5t56 -46t23.5 -27z" />
    <glyph glyph-name="uni067D.fina" unicode="&#x67d;" horiz-adv-x="2014" 
d="M2105 138q0 -20 -4 -53t-17.5 -59t-43.5 -26h-53q-85 0 -146 28t-112 134q-79 -67 -226 -129.5t-340.5 -102.5t-412.5 -40q-307 0 -475 115t-168 305q0 82 24 157t56 134t58.5 93t31.5 34t22 -12.5t17 -22.5q0 -6 -20.5 -37.5t-41.5 -84t-21 -122.5q0 -99 84 -158
t221.5 -84.5t298.5 -25.5q184 0 346 16t286.5 50t193.5 87q28 20 46 46.5t35 26.5q23 0 35 -28.5t31 -51.5q17 -23 60 -37.5t117 -14.5h53q30 0 43.5 -25.5t17.5 -58t4 -53.5zM1119 705q0 -8 -17 -39t-40.5 -67.5t-45 -63.5t-29.5 -27q-5 0 -32.5 18.5t-61.5 43.5t-59 46
t-25 28t17.5 38t42 67.5t45.5 63.5t27 27q8 0 36 -18.5t61 -43.5t57 -46t24 -27zM1237 1066q0 -7 -17 -37.5t-40 -66.5t-43.5 -62.5t-27.5 -26.5q-5 0 -30.5 18t-57.5 42t-56 42.5t-26 20.5q-10 8 -16 8q-5 0 -12 -12q-1 -2 -17 -25.5t-38.5 -53.5t-41.5 -53t-27 -23
q-4 0 -31.5 18.5t-61 43.5t-58.5 46t-25 27q0 7 18 38t42 67.5t44.5 63.5t25.5 27q9 0 35 -18t55.5 -41.5t51.5 -42.5t24 -20q11 -9 15 -9q7 0 17 14q2 2 19 25t39 52t41 51t24 22q8 0 35.5 -18.5t60 -43.5t56 -46t23.5 -27z" />
    <glyph glyph-name="uni067E.init" unicode="&#x67e;" horiz-adv-x="590" arabic-form="initial" 
d="M478 476q0 -129 -53.5 -237t-153.5 -173.5t-241 -65.5h-54q-29 0 -47.5 29t-18.5 111q0 81 22 108t44 27h54q42 0 99 3t108 11t74 21q26 14 36.5 30.5t10.5 27.5q0 26 -23.5 52.5t-54.5 52.5t-54.5 49t-23.5 42q0 11 22 61.5t55 110.5t65 100q30 -46 61 -107.5t52 -127.5
t21 -125zM440 -584q0 -8 -17 -39t-40.5 -67.5t-45 -63.5t-29.5 -27q-5 0 -32.5 18.5t-61.5 43.5t-59 46t-25 28t17.5 38t42 67.5t45.5 63.5t27 27q8 0 36 -18.5t61 -43.5t57 -46t24 -27zM558 -223q0 -7 -17 -37.5t-40 -66.5t-43.5 -62.5t-27.5 -26.5q-5 0 -30.5 18t-57.5 42
t-56 42.5t-26 20.5q-10 8 -16 8q-5 0 -12 -12q-1 -2 -17 -25.5t-38.5 -53.5t-41.5 -53t-27 -23q-4 0 -31.5 18.5t-61 43.5t-58.5 46t-25 27q0 7 18 38t42 67.5t44.5 63.5t25.5 27q9 0 35 -18t55.5 -41.5t51.5 -42.5t24 -20q11 -9 15 -9q7 0 17 14q2 2 19 25t39 52t41 51
t24 22q8 0 35.5 -18.5t60 -43.5t56 -46t23.5 -27z" />
    <glyph glyph-name="uni067E.medi" unicode="&#x67e;" horiz-adv-x="574" arabic-form="medial" 
d="M666 140q0 -65 -11.5 -102.5t-62.5 -37.5h-51q-38 0 -63.5 10t-51.5 32q-22 18 -42.5 49.5t-34.5 70.5q-47 -64 -116.5 -113t-199.5 -49h-48q-51 0 -63 35.5t-12 104.5q0 64 12 99.5t63 35.5h48q106 0 170 26.5t99.5 61.5t54.5 61.5t35 26.5q9 0 19 -12t20 -62
q7 -34 28 -68t82 -34h51q51 0 62.5 -34.5t11.5 -100.5zM491 -581q0 -8 -17 -39t-40.5 -67.5t-45 -63.5t-29.5 -27q-5 0 -32.5 18.5t-61.5 43.5t-59 46t-25 28t17.5 38t42 67.5t45.5 63.5t27 27q8 0 36 -18.5t61 -43.5t57 -46t24 -27zM609 -220q0 -7 -17 -37.5t-40 -66.5
t-43.5 -62.5t-27.5 -26.5q-5 0 -30.5 18t-57.5 42t-56 42.5t-26 20.5q-10 8 -16 8q-5 0 -12 -12q-1 -2 -17 -25.5t-38.5 -53.5t-41.5 -53t-27 -23q-4 0 -31.5 18.5t-61 43.5t-58.5 46t-25 27q0 7 18 38t42 67.5t44.5 63.5t25.5 27q9 0 35 -18t55.5 -41.5t51.5 -42.5t24 -20
q11 -9 15 -9q7 0 17 14q2 2 19 25t39 52t41 51t24 22q8 0 35.5 -18.5t60 -43.5t56 -46t23.5 -27z" />
    <glyph glyph-name="uni067E.fina" unicode="&#x67e;" horiz-adv-x="2014" arabic-form="final" 
d="M2105 138q0 -20 -4 -53t-17.5 -59t-43.5 -26h-53q-85 0 -146 28t-112 134q-79 -67 -226 -129.5t-340.5 -102.5t-412.5 -40q-307 0 -475 115t-168 305q0 82 24 157t56 134t58.5 93t31.5 34t22 -12.5t17 -22.5q0 -6 -20.5 -37.5t-41.5 -84t-21 -122.5q0 -99 84 -158
t221.5 -84.5t298.5 -25.5q184 0 346 16t286.5 50t193.5 87q28 20 46 46.5t35 26.5q23 0 35 -28.5t31 -51.5q17 -23 60 -37.5t117 -14.5h53q30 0 43.5 -25.5t17.5 -58t4 -53.5zM1082 -724q0 -8 -17 -39t-40.5 -67.5t-45 -63.5t-29.5 -27q-5 0 -32.5 18.5t-61.5 43.5t-59 46
t-25 28t17.5 38t42 67.5t45.5 63.5t27 27q8 0 36 -18.5t61 -43.5t57 -46t24 -27zM1200 -363q0 -7 -17 -37.5t-40 -66.5t-43.5 -62.5t-27.5 -26.5q-5 0 -30.5 18t-57.5 42t-56 42.5t-26 20.5q-10 8 -16 8q-5 0 -12 -12q-1 -2 -17 -25.5t-38.5 -53.5t-41.5 -53t-27 -23
q-4 0 -31.5 18.5t-61 43.5t-58.5 46t-25 27q0 7 18 38t42 67.5t44.5 63.5t25.5 27q9 0 35 -18t55.5 -41.5t51.5 -42.5t24 -20q11 -9 15 -9q7 0 17 14q2 2 19 25t39 52t41 51t24 22q8 0 35.5 -18.5t60 -43.5t56 -46t23.5 -27z" />
    <glyph glyph-name="uni067F.init" unicode="&#x67f;" horiz-adv-x="590" arabic-form="initial" 
d="M478 476q0 -129 -53.5 -237t-153.5 -173.5t-241 -65.5h-54q-29 0 -47.5 29t-18.5 111q0 81 22 108t44 27h54q42 0 99 3t108 11t74 21q26 14 36.5 30.5t10.5 27.5q0 26 -23.5 52.5t-54.5 52.5t-54.5 49t-23.5 42q0 11 22 61.5t55 110.5t65 100q30 -46 61 -107.5t52 -127.5
t21 -125zM584 1517q0 -8 -16.5 -38t-40 -66t-44 -62.5t-27.5 -26.5q-4 0 -30 18t-57.5 41.5t-56 42.5t-25.5 20q-10 9 -17 9q-4 0 -11 -13q-1 -1 -17.5 -25t-38.5 -54t-41.5 -52.5t-26.5 -22.5q-5 0 -32 18t-60.5 43t-58.5 46.5t-25 26.5q0 8 17.5 38.5t42 67.5t44.5 64
t25 27q10 0 35.5 -18t55.5 -42t52 -42.5t23 -20.5q11 -9 15 -9q7 0 18 15q1 2 18 25t39.5 51.5t41 50.5t23.5 22q8 0 35.5 -18t60 -43t56 -46t23.5 -27zM620 1176q0 -7 -16.5 -37.5t-40 -66.5t-44 -62t-26.5 -26q-5 0 -31 18t-57.5 41.5t-56 42.5t-25.5 20q-10 8 -17 8
q-4 0 -11 -12q-1 -1 -17.5 -25t-38.5 -54t-41.5 -53t-26.5 -23q-5 0 -32 18.5t-60.5 43.5t-58.5 46t-25 27q0 8 17.5 38.5t42 67t45 63.5t25.5 27q9 0 35 -18t55.5 -41.5t51.5 -42.5t23 -20q11 -9 15 -9q8 0 18 15q1 2 18 24.5t39.5 51.5t41 51t23.5 22q8 0 36 -18.5t60 -43
t55.5 -46t23.5 -27.5z" />
    <glyph glyph-name="uni067F.medi" unicode="&#x67f;" horiz-adv-x="574" arabic-form="medial" 
d="M666 140q0 -65 -11.5 -102.5t-62.5 -37.5h-51q-38 0 -63.5 10t-51.5 32q-22 18 -42.5 49.5t-34.5 70.5q-47 -64 -116.5 -113t-199.5 -49h-48q-51 0 -63 35.5t-12 104.5q0 64 12 99.5t63 35.5h48q106 0 170 26.5t99.5 61.5t54.5 61.5t35 26.5q9 0 19 -12t20 -62
q7 -34 28 -68t82 -34h51q51 0 62.5 -34.5t11.5 -100.5zM585 1132q0 -8 -16.5 -38t-40 -66t-44 -62.5t-27.5 -26.5q-4 0 -30 18t-57.5 41.5t-56 42.5t-25.5 20q-10 9 -17 9q-4 0 -11 -13q-1 -1 -17.5 -25t-38.5 -54t-41.5 -52.5t-26.5 -22.5q-5 0 -32 18t-60.5 43t-58.5 46.5
t-25 26.5q0 8 17.5 38.5t42 67.5t44.5 64t25 27q10 0 35.5 -18t55.5 -42t52 -42.5t23 -20.5q11 -9 15 -9q7 0 18 15q1 2 18 25t39.5 51.5t41 50.5t23.5 22q8 0 35.5 -18t60 -43t56 -46t23.5 -27zM621 791q0 -7 -16.5 -37.5t-40 -66.5t-44 -62t-26.5 -26q-5 0 -31 18
t-57.5 41.5t-56 42.5t-25.5 20q-10 8 -17 8q-4 0 -11 -12q-1 -1 -17.5 -25t-38.5 -54t-41.5 -53t-26.5 -23q-5 0 -32 18.5t-60.5 43.5t-58.5 46t-25 27q0 8 17.5 38.5t42 67t45 63.5t25.5 27q9 0 35 -18t55.5 -41.5t51.5 -42.5t23 -20q11 -9 15 -9q8 0 18 15q1 2 18 24.5
t39.5 51.5t41 51t23.5 22q8 0 36 -18.5t60 -43t55.5 -46t23.5 -27.5z" />
    <glyph glyph-name="uni067F.fina" unicode="&#x67f;" horiz-adv-x="2014" arabic-form="final" 
d="M2105 138q0 -20 -4 -53t-17.5 -59t-43.5 -26h-53q-85 0 -146 28t-112 134q-79 -67 -226 -129.5t-340.5 -102.5t-412.5 -40q-307 0 -475 115t-168 305q0 82 24 157t56 134t58.5 93t31.5 34t22 -12.5t17 -22.5q0 -6 -20.5 -37.5t-41.5 -84t-21 -122.5q0 -99 84 -158
t221.5 -84.5t298.5 -25.5q184 0 346 16t286.5 50t193.5 87q28 20 46 46.5t35 26.5q23 0 35 -28.5t31 -51.5q17 -23 60 -37.5t117 -14.5h53q30 0 43.5 -25.5t17.5 -58t4 -53.5zM1256 1111q0 -8 -16.5 -38t-40 -66t-44 -62.5t-27.5 -26.5q-4 0 -30 18t-57.5 41.5t-56 42.5
t-25.5 20q-10 9 -17 9q-4 0 -11 -13q-1 -1 -17.5 -25t-38.5 -54t-41.5 -52.5t-26.5 -22.5q-5 0 -32 18t-60.5 43t-58.5 46.5t-25 26.5q0 8 17.5 38.5t42 67.5t44.5 64t25 27q10 0 35.5 -18t55.5 -42t52 -42.5t23 -20.5q11 -9 15 -9q7 0 18 15q1 2 18 25t39.5 51.5t41 50.5
t23.5 22q8 0 35.5 -18t60 -43t56 -46t23.5 -27zM1292 770q0 -7 -16.5 -37.5t-40 -66.5t-44 -62t-26.5 -26q-5 0 -31 18t-57.5 41.5t-56 42.5t-25.5 20q-10 8 -17 8q-4 0 -11 -12q-1 -1 -17.5 -25t-38.5 -54t-41.5 -53t-26.5 -23q-5 0 -32 18.5t-60.5 43.5t-58.5 46t-25 27
q0 8 17.5 38.5t42 67t45 63.5t25.5 27q9 0 35 -18t55.5 -41.5t51.5 -42.5t23 -20q11 -9 15 -9q8 0 18 15q1 2 18 24.5t39.5 51.5t41 51t23.5 22q8 0 36 -18.5t60 -43t55.5 -46t23.5 -27.5z" />
    <glyph glyph-name="uni0680.init" unicode="&#x680;" horiz-adv-x="590" arabic-form="initial" 
d="M478 476q0 -129 -53.5 -237t-153.5 -173.5t-241 -65.5h-54q-29 0 -47.5 29t-18.5 111q0 81 22 108t44 27h54q42 0 99 3t108 11t74 21q26 14 36.5 30.5t10.5 27.5q0 26 -23.5 52.5t-54.5 52.5t-54.5 49t-23.5 42q0 11 22 61.5t55 110.5t65 100q30 -46 61 -107.5t52 -127.5
t21 -125zM566 -269q0 -8 -16.5 -38t-40 -66t-44 -62.5t-27.5 -26.5q-4 0 -30 18t-57.5 41.5t-56 42.5t-25.5 20q-10 9 -17 9q-4 0 -11 -13q-1 -1 -17.5 -25t-38.5 -54t-41.5 -52.5t-26.5 -22.5q-5 0 -32 18t-60.5 43t-58.5 46.5t-25 26.5q0 8 17.5 38.5t42 67.5t44.5 64
t25 27q10 0 35.5 -18t55.5 -42t52 -42.5t23 -20.5q11 -9 15 -9q7 0 18 15q1 2 18 25t39.5 51.5t41 50.5t23.5 22q8 0 35.5 -18t60 -43t56 -46t23.5 -27zM602 -610q0 -7 -16.5 -37.5t-40 -66.5t-44 -62t-26.5 -26q-5 0 -31 18t-57.5 41.5t-56 42.5t-25.5 20q-10 8 -17 8
q-4 0 -11 -12q-1 -1 -17.5 -25t-38.5 -54t-41.5 -53t-26.5 -23q-5 0 -32 18.5t-60.5 43.5t-58.5 46t-25 27q0 8 17.5 38.5t42 67t45 63.5t25.5 27q9 0 35 -18t55.5 -41.5t51.5 -42.5t23 -20q11 -9 15 -9q8 0 18 15q1 2 18 24.5t39.5 51.5t41 51t23.5 22q8 0 36 -18.5t60 -43
t55.5 -46t23.5 -27.5z" />
    <glyph glyph-name="uni0680.medi" unicode="&#x680;" horiz-adv-x="574" arabic-form="medial" 
d="M666 140q0 -65 -11.5 -102.5t-62.5 -37.5h-51q-38 0 -63.5 10t-51.5 32q-22 18 -42.5 49.5t-34.5 70.5q-47 -64 -116.5 -113t-199.5 -49h-48q-51 0 -63 35.5t-12 104.5q0 64 12 99.5t63 35.5h48q106 0 170 26.5t99.5 61.5t54.5 61.5t35 26.5q9 0 19 -12t20 -62
q7 -34 28 -68t82 -34h51q51 0 62.5 -34.5t11.5 -100.5zM584 -227q0 -8 -16.5 -38t-40 -66t-44 -62.5t-27.5 -26.5q-4 0 -30 18t-57.5 41.5t-56 42.5t-25.5 20q-10 9 -17 9q-4 0 -11 -13q-1 -1 -17.5 -25t-38.5 -54t-41.5 -52.5t-26.5 -22.5q-5 0 -32 18t-60.5 43t-58.5 46.5
t-25 26.5q0 8 17.5 38.5t42 67.5t44.5 64t25 27q10 0 35.5 -18t55.5 -42t52 -42.5t23 -20.5q11 -9 15 -9q7 0 18 15q1 2 18 25t39.5 51.5t41 50.5t23.5 22q8 0 35.5 -18t60 -43t56 -46t23.5 -27zM620 -568q0 -7 -16.5 -37.5t-40 -66.5t-44 -62t-26.5 -26q-5 0 -31 18
t-57.5 41.5t-56 42.5t-25.5 20q-10 8 -17 8q-4 0 -11 -12q-1 -1 -17.5 -25t-38.5 -54t-41.5 -53t-26.5 -23q-5 0 -32 18.5t-60.5 43.5t-58.5 46t-25 27q0 8 17.5 38.5t42 67t45 63.5t25.5 27q9 0 35 -18t55.5 -41.5t51.5 -42.5t23 -20q11 -9 15 -9q8 0 18 15q1 2 18 24.5
t39.5 51.5t41 51t23.5 22q8 0 36 -18.5t60 -43t55.5 -46t23.5 -27.5z" />
    <glyph glyph-name="uni0680.fina" unicode="&#x680;" horiz-adv-x="2014" arabic-form="final" 
d="M2105 138q0 -20 -4 -53t-17.5 -59t-43.5 -26h-53q-85 0 -146 28t-112 134q-79 -67 -226 -129.5t-340.5 -102.5t-412.5 -40q-307 0 -475 115t-168 305q0 82 24 157t56 134t58.5 93t31.5 34t22 -12.5t17 -22.5q0 -6 -20.5 -37.5t-41.5 -84t-21 -122.5q0 -99 84 -158
t221.5 -84.5t298.5 -25.5q184 0 346 16t286.5 50t193.5 87q28 20 46 46.5t35 26.5q23 0 35 -28.5t31 -51.5q17 -23 60 -37.5t117 -14.5h53q30 0 43.5 -25.5t17.5 -58t4 -53.5zM1162 -378q0 -8 -16.5 -38t-40 -66t-44 -62.5t-27.5 -26.5q-4 0 -30 18t-57.5 41.5t-56 42.5
t-25.5 20q-10 9 -17 9q-4 0 -11 -13q-1 -1 -17.5 -25t-38.5 -54t-41.5 -52.5t-26.5 -22.5q-5 0 -32 18t-60.5 43t-58.5 46.5t-25 26.5q0 8 17.5 38.5t42 67.5t44.5 64t25 27q10 0 35.5 -18t55.5 -42t52 -42.5t23 -20.5q11 -9 15 -9q7 0 18 15q1 2 18 25t39.5 51.5t41 50.5
t23.5 22q8 0 35.5 -18t60 -43t56 -46t23.5 -27zM1198 -719q0 -7 -16.5 -37.5t-40 -66.5t-44 -62t-26.5 -26q-5 0 -31 18t-57.5 41.5t-56 42.5t-25.5 20q-10 8 -17 8q-4 0 -11 -12q-1 -1 -17.5 -25t-38.5 -54t-41.5 -53t-26.5 -23q-5 0 -32 18.5t-60.5 43.5t-58.5 46t-25 27
q0 8 17.5 38.5t42 67t45 63.5t25.5 27q9 0 35 -18t55.5 -41.5t51.5 -42.5t23 -20q11 -9 15 -9q8 0 18 15q1 2 18 24.5t39.5 51.5t41 51t23.5 22q8 0 36 -18.5t60 -43t55.5 -46t23.5 -27.5z" />
    <glyph glyph-name="uni0681.init" unicode="&#x681;" horiz-adv-x="1506" 
d="M1396 598q0 -4 -4.5 -31t-10.5 -61.5t-11.5 -64t-7.5 -37.5q-1 -6 -62 -9.5t-162.5 -5t-225.5 -1.5q-84 0 -157 -35t-142.5 -87.5t-143.5 -106.5q-88 -64 -195.5 -111.5t-237.5 -47.5h-51q-34 0 -50 26t-20.5 59t-4.5 53q0 21 4.5 53.5t20.5 58t50 25.5h48
q104 0 211.5 12t200.5 50q52 21 110.5 51.5t109.5 42.5q-37 14 -103 44t-143.5 55.5t-149.5 25.5q-37 0 -73 -14.5t-60.5 -28.5t-27.5 -14t-21.5 8.5t-18.5 12.5q0 53 35.5 126.5t94.5 114.5q33 23 74.5 39t103.5 16q42 0 97 -20t115.5 -48t119 -53t105.5 -36
q71 -17 157.5 -31t191.5 -19q43 -1 97.5 -2.5t95.5 -3.5t41 -5zM954 1194q0 -12 -10 -35.5t-24 -44.5t-25 -24q-11 -4 -50 -19t-87 -33.5t-84 -32.5q-66 -25 -113.5 -48t-57.5 -23q-18 0 -18 18q0 14 17 48.5t22 42.5q9 9 34.5 23.5t36.5 17.5q-20 6 -47 29t-27 60
q0 31 20 70.5t47.5 75t47.5 56.5q53 52 94.5 63t68.5 11q29 0 60 -23.5t31 -61.5q0 -23 -9 -51t-21 -48t-20 -20q-7 0 -28.5 14t-47 28t-46.5 14q-27 0 -46 -16t-19 -31q0 -6 26 -24.5t61 -36t61 -18.5q23 5 53.5 14.5t55.5 17t30 7.5q14 0 14 -20z" />
    <glyph glyph-name="uni0681.medi" unicode="&#x681;" horiz-adv-x="1472" 
d="M1563 138q0 -20 -5 -53t-20.5 -59t-49.5 -26h-49q-157 0 -277.5 14.5t-181.5 56.5q-79 53 -79 167q0 27 10.5 72t23.5 78h-23q-84 0 -157 -35t-142.5 -87.5t-143.5 -106.5q-88 -64 -196 -111.5t-240 -47.5h-48q-34 0 -50 26t-20.5 59t-4.5 53q0 21 4.5 53.5t20.5 58
t50 25.5h48q134 0 233.5 14.5t178.5 47.5q49 20 109 51t111 43q-37 14 -103 44t-143.5 55.5t-149.5 25.5q-37 0 -73 -14.5t-60.5 -28.5t-27.5 -14q-5 0 -22.5 8.5t-17.5 12.5q0 53 35.5 126.5t94.5 114.5q33 23 74.5 39t103.5 16q42 0 97 -20t115.5 -48t119 -53t105.5 -36
q108 -25 258 -42t309 -17q15 0 15 -18q0 -2 -4 -26t-9.5 -56.5t-11 -60t-8.5 -35.5q-1 -4 -34 -8t-84 -6t-107 -3.5t-103 -1.5q-1 -3 -1 -17q0 -38 52 -58q40 -17 105 -24.5t133 -9t116 -1.5h49q34 0 49.5 -25.5t20.5 -58t5 -53.5zM985 1162q0 -12 -10 -35.5t-24 -44.5
t-25 -24q-11 -4 -50 -19t-87 -33.5t-84 -32.5q-66 -25 -113.5 -48t-57.5 -23q-18 0 -18 18q0 14 17 48.5t22 42.5q9 9 34.5 23.5t36.5 17.5q-20 6 -47 29t-27 60q0 31 20 70.5t47.5 75t47.5 56.5q53 52 94.5 63t68.5 11q29 0 60 -23.5t31 -61.5q0 -23 -9 -51t-21 -48
t-20 -20q-7 0 -28.5 14t-47 28t-46.5 14q-27 0 -46 -16t-19 -31q0 -6 26 -24.5t61 -36t61 -18.5q23 5 53.5 14.5t55.5 17t30 7.5q14 0 14 -20z" />
    <glyph glyph-name="uni0681.fina" unicode="&#x681;" horiz-adv-x="1495" 
d="M1585 144q0 -85 -22 -114.5t-52 -29.5h-158q-101 0 -178.5 3t-139.5 21q-109 31 -109 178q0 30 9.5 79t19.5 98q-216 -55 -388.5 -155.5t-273.5 -234t-101 -288.5q0 -255 239.5 -369.5t676.5 -114.5q146 0 243.5 16.5t114.5 16.5q3 0 8 -22.5t5 -24.5q0 -7 -42 -29.5
t-106.5 -52t-134.5 -58.5t-128 -50.5t-86 -28.5q-53 -11 -95 -13t-65 -2q-139 0 -274.5 36t-245.5 112t-175.5 196t-65.5 289q0 134 47 250t127.5 214t181 176t207.5 135q-73 23 -135 31.5t-113 8.5q-103 0 -160 -20t-72 -20q-2 0 -15 9.5t-13 16.5q0 23 8.5 64.5t17.5 78
t10 43.5q2 10 47.5 34t113.5 45.5t135 21.5q93 0 157.5 -10t120.5 -22.5t121 -22.5t159 -10q30 0 79 2t100 4.5t87 2.5q23 0 37.5 -2.5t14.5 -4.5q0 -4 -12 -32.5t-28.5 -64.5t-30 -63.5t-16.5 -27.5q-27 -5 -87 -14.5t-107 -17.5q1 -34 15.5 -59t57 -41t125.5 -24t220 -8
h50q20 0 37 -6.5t27 -34t10 -90.5zM1067 1071q0 -12 -10 -35.5t-24 -44.5t-25 -24q-11 -4 -50 -19t-87 -33.5t-84 -32.5q-66 -25 -113.5 -48t-57.5 -23q-18 0 -18 18q0 14 17 48.5t22 42.5q9 9 34.5 23.5t36.5 17.5q-20 6 -47 29t-27 60q0 31 20 70.5t47.5 75t47.5 56.5
q53 52 94.5 63t68.5 11q29 0 60 -23.5t31 -61.5q0 -23 -9 -51t-21 -48t-20 -20q-7 0 -28.5 14t-47 28t-46.5 14q-27 0 -46 -16t-19 -31q0 -6 26 -24.5t61 -36t61 -18.5q23 5 53.5 14.5t55.5 17t30 7.5q14 0 14 -20z" />
    <glyph glyph-name="uni0682.init" unicode="&#x682;" horiz-adv-x="1506" 
d="M1396 598q0 -4 -4.5 -31t-10.5 -61.5t-11.5 -64t-7.5 -37.5q-1 -6 -62 -9.5t-162.5 -5t-225.5 -1.5q-84 0 -157 -35t-142.5 -87.5t-143.5 -106.5q-88 -64 -195.5 -111.5t-237.5 -47.5h-51q-34 0 -50 26t-20.5 59t-4.5 53q0 21 4.5 53.5t20.5 58t50 25.5h48
q104 0 211.5 12t200.5 50q52 21 110.5 51.5t109.5 42.5q-37 14 -103 44t-143.5 55.5t-149.5 25.5q-37 0 -73 -14.5t-60.5 -28.5t-27.5 -14t-21.5 8.5t-18.5 12.5q0 53 35.5 126.5t94.5 114.5q33 23 74.5 39t103.5 16q42 0 97 -20t115.5 -48t119 -53t105.5 -36
q71 -17 157.5 -31t191.5 -19q43 -1 97.5 -2.5t95.5 -3.5t41 -5zM873 1071q0 -11 -18 -39.5t-42 -61t-44 -55.5t-25 -23q-4 0 -31 16t-60.5 37.5t-58.5 41t-25 25.5q0 11 23.5 44.5t51 68.5t41.5 49q6 9 6 14q0 8 -4 12q-16 10 -53 35t-69 49.5t-32 32.5q0 6 17 34.5t41.5 63
t45 60.5t27.5 26q10 0 39 -19t62.5 -44.5t57.5 -46.5t24 -24q0 -4 -22.5 -36.5t-49 -68t-37.5 -49.5q-3 -3 -8 -9.5t-5 -13.5q0 -5 12 -14q14 -11 47 -33.5t61 -43t28 -28.5z" />
    <glyph glyph-name="uni0682.medi" unicode="&#x682;" horiz-adv-x="1472" 
d="M1563 138q0 -20 -5 -53t-20.5 -59t-49.5 -26h-49q-157 0 -277.5 14.5t-181.5 56.5q-79 53 -79 167q0 27 10.5 72t23.5 78h-23q-84 0 -157 -35t-142.5 -87.5t-143.5 -106.5q-88 -64 -196 -111.5t-240 -47.5h-48q-34 0 -50 26t-20.5 59t-4.5 53q0 21 4.5 53.5t20.5 58
t50 25.5h48q134 0 233.5 14.5t178.5 47.5q49 20 109 51t111 43q-37 14 -103 44t-143.5 55.5t-149.5 25.5q-37 0 -73 -14.5t-60.5 -28.5t-27.5 -14q-5 0 -22.5 8.5t-17.5 12.5q0 53 35.5 126.5t94.5 114.5q33 23 74.5 39t103.5 16q42 0 97 -20t115.5 -48t119 -53t105.5 -36
q108 -25 258 -42t309 -17q15 0 15 -18q0 -2 -4 -26t-9.5 -56.5t-11 -60t-8.5 -35.5q-1 -4 -34 -8t-84 -6t-107 -3.5t-103 -1.5q-1 -3 -1 -17q0 -38 52 -58q40 -17 105 -24.5t133 -9t116 -1.5h49q34 0 49.5 -25.5t20.5 -58t5 -53.5zM902 1133q0 -11 -18 -39.5t-42 -61
t-44 -55.5t-25 -23q-4 0 -31 16t-60.5 37.5t-58.5 41t-25 25.5q0 11 23.5 44.5t51 68.5t41.5 49q6 9 6 14q0 8 -4 12q-16 10 -53 35t-69 49.5t-32 32.5q0 6 17 34.5t41.5 63t45 60.5t27.5 26q10 0 39 -19t62.5 -44.5t57.5 -46.5t24 -24q0 -4 -22.5 -36.5t-49 -68
t-37.5 -49.5q-3 -3 -8 -9.5t-5 -13.5q0 -5 12 -14q14 -11 47 -33.5t61 -43t28 -28.5z" />
    <glyph glyph-name="uni0682.fina" unicode="&#x682;" horiz-adv-x="1495" 
d="M1585 144q0 -85 -22 -114.5t-52 -29.5h-158q-101 0 -178.5 3t-139.5 21q-109 31 -109 178q0 30 9.5 79t19.5 98q-216 -55 -388.5 -155.5t-273.5 -234t-101 -288.5q0 -255 239.5 -369.5t676.5 -114.5q146 0 243.5 16.5t114.5 16.5q3 0 8 -22.5t5 -24.5q0 -7 -42 -29.5
t-106.5 -52t-134.5 -58.5t-128 -50.5t-86 -28.5q-53 -11 -95 -13t-65 -2q-139 0 -274.5 36t-245.5 112t-175.5 196t-65.5 289q0 134 47 250t127.5 214t181 176t207.5 135q-73 23 -135 31.5t-113 8.5q-103 0 -160 -20t-72 -20q-2 0 -15 9.5t-13 16.5q0 23 8.5 64.5t17.5 78
t10 43.5q2 10 47.5 34t113.5 45.5t135 21.5q93 0 157.5 -10t120.5 -22.5t121 -22.5t159 -10q30 0 79 2t100 4.5t87 2.5q23 0 37.5 -2.5t14.5 -4.5q0 -4 -12 -32.5t-28.5 -64.5t-30 -63.5t-16.5 -27.5q-27 -5 -87 -14.5t-107 -17.5q1 -34 15.5 -59t57 -41t125.5 -24t220 -8
h50q20 0 37 -6.5t27 -34t10 -90.5zM959 978q0 -11 -18 -39.5t-42 -61t-44 -55.5t-25 -23q-4 0 -31 16t-60.5 37.5t-58.5 41t-25 25.5q0 11 23.5 44.5t51 68.5t41.5 49q6 9 6 14q0 8 -4 12q-16 10 -53 35t-69 49.5t-32 32.5q0 6 17 34.5t41.5 63t45 60.5t27.5 26q10 0 39 -19
t62.5 -44.5t57.5 -46.5t24 -24q0 -4 -22.5 -36.5t-49 -68t-37.5 -49.5q-3 -3 -8 -9.5t-5 -13.5q0 -5 12 -14q14 -11 47 -33.5t61 -43t28 -28.5z" />
    <glyph glyph-name="uni0683.init" unicode="&#x683;" horiz-adv-x="1506" arabic-form="initial" 
d="M1396 598q0 -4 -4.5 -31t-10.5 -61.5t-11.5 -64t-7.5 -37.5q-1 -6 -62 -9.5t-162.5 -5t-225.5 -1.5q-84 0 -157 -35t-142.5 -87.5t-143.5 -106.5q-88 -64 -195.5 -111.5t-237.5 -47.5h-51q-34 0 -50 26t-20.5 59t-4.5 53q0 21 4.5 53.5t20.5 58t50 25.5h48
q104 0 211.5 12t200.5 50q52 21 110.5 51.5t109.5 42.5q-37 14 -103 44t-143.5 55.5t-149.5 25.5q-37 0 -73 -14.5t-60.5 -28.5t-27.5 -14t-21.5 8.5t-18.5 12.5q0 53 35.5 126.5t94.5 114.5q33 23 74.5 39t103.5 16q42 0 97 -20t115.5 -48t119 -53t105.5 -36
q71 -17 157.5 -31t191.5 -19q43 -1 97.5 -2.5t95.5 -3.5t41 -5zM1009 -243q0 -7 -17 -37.5t-40 -66.5t-43.5 -62.5t-27.5 -26.5q-5 0 -30.5 18t-57.5 42t-56 42.5t-26 20.5q-10 8 -16 8q-5 0 -12 -12q-1 -2 -17 -25.5t-38.5 -53.5t-41.5 -53t-27 -23q-4 0 -31.5 18.5
t-61 43.5t-58.5 46t-25 27q0 7 18 38t42 67.5t44.5 63.5t25.5 27q9 0 35 -18t55.5 -41.5t51.5 -42.5t24 -20q11 -9 15 -9q7 0 17 14q2 2 19 25t39 52t41 51t24 22q8 0 35.5 -18.5t60 -43.5t56 -46t23.5 -27z" />
    <glyph glyph-name="uni0683.medi" unicode="&#x683;" horiz-adv-x="1472" arabic-form="medial" 
d="M1563 138q0 -20 -5 -53t-20.5 -59t-49.5 -26h-49q-157 0 -277.5 14.5t-181.5 56.5q-79 53 -79 167q0 27 10.5 72t23.5 78h-23q-84 0 -157 -35t-142.5 -87.5t-143.5 -106.5q-88 -64 -196 -111.5t-240 -47.5h-48q-34 0 -50 26t-20.5 59t-4.5 53q0 21 4.5 53.5t20.5 58
t50 25.5h48q134 0 233.5 14.5t178.5 47.5q49 20 109 51t111 43q-37 14 -103 44t-143.5 55.5t-149.5 25.5q-37 0 -73 -14.5t-60.5 -28.5t-27.5 -14q-5 0 -22.5 8.5t-17.5 12.5q0 53 35.5 126.5t94.5 114.5q33 23 74.5 39t103.5 16q42 0 97 -20t115.5 -48t119 -53t105.5 -36
q108 -25 258 -42t309 -17q15 0 15 -18q0 -2 -4 -26t-9.5 -56.5t-11 -60t-8.5 -35.5q-1 -4 -34 -8t-84 -6t-107 -3.5t-103 -1.5q-1 -3 -1 -17q0 -38 52 -58q40 -17 105 -24.5t133 -9t116 -1.5h49q34 0 49.5 -25.5t20.5 -58t5 -53.5zM1042 -223q0 -7 -17 -37.5t-40 -66.5
t-43.5 -62.5t-27.5 -26.5q-5 0 -30.5 18t-57.5 42t-56 42.5t-26 20.5q-10 8 -16 8q-5 0 -12 -12q-1 -2 -17 -25.5t-38.5 -53.5t-41.5 -53t-27 -23q-4 0 -31.5 18.5t-61 43.5t-58.5 46t-25 27q0 7 18 38t42 67.5t44.5 63.5t25.5 27q9 0 35 -18t55.5 -41.5t51.5 -42.5t24 -20
q11 -9 15 -9q7 0 17 14q2 2 19 25t39 52t41 51t24 22q8 0 35.5 -18.5t60 -43.5t56 -46t23.5 -27z" />
    <glyph glyph-name="uni0683.fina" unicode="&#x683;" horiz-adv-x="1495" arabic-form="final" 
d="M1585 144q0 -85 -22 -114.5t-52 -29.5h-158q-101 0 -178.5 3t-139.5 21q-109 31 -109 178q0 30 9.5 79t19.5 98q-216 -55 -388.5 -155.5t-273.5 -234t-101 -288.5q0 -255 239.5 -369.5t676.5 -114.5q146 0 243.5 16.5t114.5 16.5q3 0 8 -22.5t5 -24.5q0 -7 -42 -29.5
t-106.5 -52t-134.5 -58.5t-128 -50.5t-86 -28.5q-53 -11 -95 -13t-65 -2q-139 0 -274.5 36t-245.5 112t-175.5 196t-65.5 289q0 134 47 250t127.5 214t181 176t207.5 135q-73 23 -135 31.5t-113 8.5q-103 0 -160 -20t-72 -20q-2 0 -15 9.5t-13 16.5q0 23 8.5 64.5t17.5 78
t10 43.5q2 10 47.5 34t113.5 45.5t135 21.5q93 0 157.5 -10t120.5 -22.5t121 -22.5t159 -10q30 0 79 2t100 4.5t87 2.5q23 0 37.5 -2.5t14.5 -4.5q0 -4 -12 -32.5t-28.5 -64.5t-30 -63.5t-16.5 -27.5q-27 -5 -87 -14.5t-107 -17.5q1 -34 15.5 -59t57 -41t125.5 -24t220 -8
h50q20 0 37 -6.5t27 -34t10 -90.5zM1099 -226q0 -7 -17 -37.5t-40 -66.5t-43.5 -62.5t-27.5 -26.5q-5 0 -30.5 18t-57.5 42t-56 42.5t-26 20.5q-10 8 -16 8q-5 0 -12 -12q-1 -2 -17 -25.5t-38.5 -53.5t-41.5 -53t-27 -23q-4 0 -31.5 18.5t-61 43.5t-58.5 46t-25 27
q0 7 18 38t42 67.5t44.5 63.5t25.5 27q9 0 35 -18t55.5 -41.5t51.5 -42.5t24 -20q11 -9 15 -9q7 0 17 14q2 2 19 25t39 52t41 51t24 22q8 0 35.5 -18.5t60 -43.5t56 -46t23.5 -27z" />
    <glyph glyph-name="uni0684.init" unicode="&#x684;" horiz-adv-x="1506" arabic-form="initial" 
d="M1396 598q0 -4 -4.5 -31t-10.5 -61.5t-11.5 -64t-7.5 -37.5q-1 -6 -62 -9.5t-162.5 -5t-225.5 -1.5q-84 0 -157 -35t-142.5 -87.5t-143.5 -106.5q-88 -64 -195.5 -111.5t-237.5 -47.5h-51q-34 0 -50 26t-20.5 59t-4.5 53q0 21 4.5 53.5t20.5 58t50 25.5h48
q104 0 211.5 12t200.5 50q52 21 110.5 51.5t109.5 42.5q-37 14 -103 44t-143.5 55.5t-149.5 25.5q-37 0 -73 -14.5t-60.5 -28.5t-27.5 -14t-21.5 8.5t-18.5 12.5q0 53 35.5 126.5t94.5 114.5q33 23 74.5 39t103.5 16q42 0 97 -20t115.5 -48t119 -53t105.5 -36
q71 -17 157.5 -31t191.5 -19q43 -1 97.5 -2.5t95.5 -3.5t41 -5zM882 -545q0 -11 -18 -39.5t-42 -61t-44 -55.5t-25 -23q-4 0 -31 16t-60.5 37.5t-58.5 41t-25 25.5q0 11 23.5 44.5t51 68.5t41.5 49q6 9 6 14q0 8 -4 12q-16 10 -53 35t-69 49.5t-32 32.5q0 6 17 34.5t41.5 63
t45 60.5t27.5 26q10 0 39 -19t62.5 -44.5t57.5 -46.5t24 -24q0 -4 -22.5 -36.5t-49 -68t-37.5 -49.5q-3 -3 -8 -9.5t-5 -13.5q0 -5 12 -14q14 -11 47 -33.5t61 -43t28 -28.5z" />
    <glyph glyph-name="uni0684.medi" unicode="&#x684;" horiz-adv-x="1472" arabic-form="medial" 
d="M1563 138q0 -20 -5 -53t-20.5 -59t-49.5 -26h-49q-157 0 -277.5 14.5t-181.5 56.5q-79 53 -79 167q0 27 10.5 72t23.5 78h-23q-84 0 -157 -35t-142.5 -87.5t-143.5 -106.5q-88 -64 -196 -111.5t-240 -47.5h-48q-34 0 -50 26t-20.5 59t-4.5 53q0 21 4.5 53.5t20.5 58
t50 25.5h48q134 0 233.5 14.5t178.5 47.5q49 20 109 51t111 43q-37 14 -103 44t-143.5 55.5t-149.5 25.5q-37 0 -73 -14.5t-60.5 -28.5t-27.5 -14q-5 0 -22.5 8.5t-17.5 12.5q0 53 35.5 126.5t94.5 114.5q33 23 74.5 39t103.5 16q42 0 97 -20t115.5 -48t119 -53t105.5 -36
q108 -25 258 -42t309 -17q15 0 15 -18q0 -2 -4 -26t-9.5 -56.5t-11 -60t-8.5 -35.5q-1 -4 -34 -8t-84 -6t-107 -3.5t-103 -1.5q-1 -3 -1 -17q0 -38 52 -58q40 -17 105 -24.5t133 -9t116 -1.5h49q34 0 49.5 -25.5t20.5 -58t5 -53.5zM902 -550q0 -11 -18 -39.5t-42 -61
t-44 -55.5t-25 -23q-4 0 -31 16t-60.5 37.5t-58.5 41t-25 25.5q0 11 23.5 44.5t51 68.5t41.5 49q6 9 6 14q0 8 -4 12q-16 10 -53 35t-69 49.5t-32 32.5q0 6 17 34.5t41.5 63t45 60.5t27.5 26q10 0 39 -19t62.5 -44.5t57.5 -46.5t24 -24q0 -4 -22.5 -36.5t-49 -68
t-37.5 -49.5q-3 -3 -8 -9.5t-5 -13.5q0 -5 12 -14q14 -11 47 -33.5t61 -43t28 -28.5z" />
    <glyph glyph-name="uni0684.fina" unicode="&#x684;" horiz-adv-x="1495" arabic-form="final" 
d="M1585 144q0 -85 -22 -114.5t-52 -29.5h-158q-101 0 -178.5 3t-139.5 21q-109 31 -109 178q0 30 9.5 79t19.5 98q-216 -55 -388.5 -155.5t-273.5 -234t-101 -288.5q0 -255 239.5 -369.5t676.5 -114.5q146 0 243.5 16.5t114.5 16.5q3 0 8 -22.5t5 -24.5q0 -7 -42 -29.5
t-106.5 -52t-134.5 -58.5t-128 -50.5t-86 -28.5q-53 -11 -95 -13t-65 -2q-139 0 -274.5 36t-245.5 112t-175.5 196t-65.5 289q0 134 47 250t127.5 214t181 176t207.5 135q-73 23 -135 31.5t-113 8.5q-103 0 -160 -20t-72 -20q-2 0 -15 9.5t-13 16.5q0 23 8.5 64.5t17.5 78
t10 43.5q2 10 47.5 34t113.5 45.5t135 21.5q93 0 157.5 -10t120.5 -22.5t121 -22.5t159 -10q30 0 79 2t100 4.5t87 2.5q23 0 37.5 -2.5t14.5 -4.5q0 -4 -12 -32.5t-28.5 -64.5t-30 -63.5t-16.5 -27.5q-27 -5 -87 -14.5t-107 -17.5q1 -34 15.5 -59t57 -41t125.5 -24t220 -8
h50q20 0 37 -6.5t27 -34t10 -90.5zM942 -410q0 -11 -18 -39.5t-42 -61t-44 -55.5t-25 -23q-4 0 -31 16t-60.5 37.5t-58.5 41t-25 25.5q0 11 23.5 44.5t51 68.5t41.5 49q6 9 6 14q0 8 -4 12q-16 10 -53 35t-69 49.5t-32 32.5q0 6 17 34.5t41.5 63t45 60.5t27.5 26
q10 0 39 -19t62.5 -44.5t57.5 -46.5t24 -24q0 -4 -22.5 -36.5t-49 -68t-37.5 -49.5q-3 -3 -8 -9.5t-5 -13.5q0 -5 12 -14q14 -11 47 -33.5t61 -43t28 -28.5z" />
    <glyph glyph-name="uni0685.init" unicode="&#x685;" horiz-adv-x="1506" 
d="M1396 598q0 -4 -4.5 -31t-10.5 -61.5t-11.5 -64t-7.5 -37.5q-1 -6 -62 -9.5t-162.5 -5t-225.5 -1.5q-84 0 -157 -35t-142.5 -87.5t-143.5 -106.5q-88 -64 -195.5 -111.5t-237.5 -47.5h-51q-34 0 -50 26t-20.5 59t-4.5 53q0 21 4.5 53.5t20.5 58t50 25.5h48
q104 0 211.5 12t200.5 50q52 21 110.5 51.5t109.5 42.5q-37 14 -103 44t-143.5 55.5t-149.5 25.5q-37 0 -73 -14.5t-60.5 -28.5t-27.5 -14t-21.5 8.5t-18.5 12.5q0 53 35.5 126.5t94.5 114.5q33 23 74.5 39t103.5 16q42 0 97 -20t115.5 -48t119 -53t105.5 -36
q71 -17 157.5 -31t191.5 -19q43 -1 97.5 -2.5t95.5 -3.5t41 -5zM822 1501q0 -8 -17.5 -38.5t-42 -67t-45 -63.5t-27.5 -27q-8 0 -36 18.5t-61.5 43.5t-57.5 46.5t-24 27.5q0 7 17 38t41 67.5t45.5 63.5t30.5 27q4 0 31.5 -18t61 -43.5t59 -47t25.5 -27.5zM1015 1179
q0 -8 -16.5 -38t-40 -66t-44 -62.5t-27.5 -26.5q-4 0 -30 18t-57.5 42t-56 42.5t-25.5 20.5q-10 8 -17 8q-4 0 -11 -12q-1 -2 -17.5 -25.5t-38.5 -53.5t-41.5 -53t-26.5 -23q-5 0 -32 18.5t-60.5 43.5t-58.5 46t-25 27q0 7 17.5 38t42 67.5t45 63.5t24.5 27q10 0 35.5 -18
t55.5 -42t52 -42.5t23 -19.5q11 -10 15 -10q8 0 18 15q1 2 18 25t39.5 52t41 51t23.5 22q8 0 35.5 -18.5t60 -43.5t56 -46t23.5 -27z" />
    <glyph glyph-name="uni0685.medi" unicode="&#x685;" horiz-adv-x="1472" 
d="M1563 138q0 -20 -5 -53t-20.5 -59t-49.5 -26h-49q-157 0 -277.5 14.5t-181.5 56.5q-79 53 -79 167q0 27 10.5 72t23.5 78h-23q-84 0 -157 -35t-142.5 -87.5t-143.5 -106.5q-88 -64 -196 -111.5t-240 -47.5h-48q-34 0 -50 26t-20.5 59t-4.5 53q0 21 4.5 53.5t20.5 58
t50 25.5h48q134 0 233.5 14.5t178.5 47.5q49 20 109 51t111 43q-37 14 -103 44t-143.5 55.5t-149.5 25.5q-37 0 -73 -14.5t-60.5 -28.5t-27.5 -14q-5 0 -22.5 8.5t-17.5 12.5q0 53 35.5 126.5t94.5 114.5q33 23 74.5 39t103.5 16q42 0 97 -20t115.5 -48t119 -53t105.5 -36
q108 -25 258 -42t309 -17q15 0 15 -18q0 -2 -4 -26t-9.5 -56.5t-11 -60t-8.5 -35.5q-1 -4 -34 -8t-84 -6t-107 -3.5t-103 -1.5q-1 -3 -1 -17q0 -38 52 -58q40 -17 105 -24.5t133 -9t116 -1.5h49q34 0 49.5 -25.5t20.5 -58t5 -53.5zM815 1545q0 -8 -17.5 -38.5t-42 -67
t-45 -63.5t-27.5 -27q-8 0 -36 18.5t-61.5 43.5t-57.5 46.5t-24 27.5q0 7 17 38t41 67.5t45.5 63.5t30.5 27q4 0 31.5 -18t61 -43.5t59 -47t25.5 -27.5zM1008 1223q0 -8 -16.5 -38t-40 -66t-44 -62.5t-27.5 -26.5q-4 0 -30 18t-57.5 42t-56 42.5t-25.5 20.5q-10 8 -17 8
q-4 0 -11 -12q-1 -2 -17.5 -25.5t-38.5 -53.5t-41.5 -53t-26.5 -23q-5 0 -32 18.5t-60.5 43.5t-58.5 46t-25 27q0 7 17.5 38t42 67.5t45 63.5t24.5 27q10 0 35.5 -18t55.5 -42t52 -42.5t23 -19.5q11 -10 15 -10q8 0 18 15q1 2 18 25t39.5 52t41 51t23.5 22q8 0 35.5 -18.5
t60 -43.5t56 -46t23.5 -27z" />
    <glyph glyph-name="uni0685.fina" unicode="&#x685;" horiz-adv-x="1495" 
d="M1585 144q0 -85 -22 -114.5t-52 -29.5h-158q-101 0 -178.5 3t-139.5 21q-109 31 -109 178q0 30 9.5 79t19.5 98q-216 -55 -388.5 -155.5t-273.5 -234t-101 -288.5q0 -255 239.5 -369.5t676.5 -114.5q146 0 243.5 16.5t114.5 16.5q3 0 8 -22.5t5 -24.5q0 -7 -42 -29.5
t-106.5 -52t-134.5 -58.5t-128 -50.5t-86 -28.5q-53 -11 -95 -13t-65 -2q-139 0 -274.5 36t-245.5 112t-175.5 196t-65.5 289q0 134 47 250t127.5 214t181 176t207.5 135q-73 23 -135 31.5t-113 8.5q-103 0 -160 -20t-72 -20q-2 0 -15 9.5t-13 16.5q0 23 8.5 64.5t17.5 78
t10 43.5q2 10 47.5 34t113.5 45.5t135 21.5q93 0 157.5 -10t120.5 -22.5t121 -22.5t159 -10q30 0 79 2t100 4.5t87 2.5q23 0 37.5 -2.5t14.5 -4.5q0 -4 -12 -32.5t-28.5 -64.5t-30 -63.5t-16.5 -27.5q-27 -5 -87 -14.5t-107 -17.5q1 -34 15.5 -59t57 -41t125.5 -24t220 -8
h50q20 0 37 -6.5t27 -34t10 -90.5zM920 1377q0 -8 -17.5 -38.5t-42 -67t-45 -63.5t-27.5 -27q-8 0 -36 18.5t-61.5 43.5t-57.5 46.5t-24 27.5q0 7 17 38t41 67.5t45.5 63.5t30.5 27q4 0 31.5 -18t61 -43.5t59 -47t25.5 -27.5zM1113 1055q0 -8 -16.5 -38t-40 -66t-44 -62.5
t-27.5 -26.5q-4 0 -30 18t-57.5 42t-56 42.5t-25.5 20.5q-10 8 -17 8q-4 0 -11 -12q-1 -2 -17.5 -25.5t-38.5 -53.5t-41.5 -53t-26.5 -23q-5 0 -32 18.5t-60.5 43.5t-58.5 46t-25 27q0 7 17.5 38t42 67.5t45 63.5t24.5 27q10 0 35.5 -18t55.5 -42t52 -42.5t23 -19.5
q11 -10 15 -10q8 0 18 15q1 2 18 25t39.5 52t41 51t23.5 22q8 0 35.5 -18.5t60 -43.5t56 -46t23.5 -27z" />
    <glyph glyph-name="uni0686.init" unicode="&#x686;" horiz-adv-x="1506" arabic-form="initial" 
d="M1396 598q0 -4 -4.5 -31t-10.5 -61.5t-11.5 -64t-7.5 -37.5q-1 -6 -62 -9.5t-162.5 -5t-225.5 -1.5q-84 0 -157 -35t-142.5 -87.5t-143.5 -106.5q-88 -64 -195.5 -111.5t-237.5 -47.5h-51q-34 0 -50 26t-20.5 59t-4.5 53q0 21 4.5 53.5t20.5 58t50 25.5h48
q104 0 211.5 12t200.5 50q52 21 110.5 51.5t109.5 42.5q-37 14 -103 44t-143.5 55.5t-149.5 25.5q-37 0 -73 -14.5t-60.5 -28.5t-27.5 -14t-21.5 8.5t-18.5 12.5q0 53 35.5 126.5t94.5 114.5q33 23 74.5 39t103.5 16q42 0 97 -20t115.5 -48t119 -53t105.5 -36
q71 -17 157.5 -31t191.5 -19q43 -1 97.5 -2.5t95.5 -3.5t41 -5zM904 -589q0 -8 -17 -39t-40.5 -67.5t-45 -63.5t-29.5 -27q-5 0 -32.5 18.5t-61.5 43.5t-59 46t-25 28t17.5 38t42 67.5t45.5 63.5t27 27q8 0 36 -18.5t61 -43.5t57 -46t24 -27zM1022 -228q0 -7 -17 -37.5
t-40 -66.5t-43.5 -62.5t-27.5 -26.5q-5 0 -30.5 18t-57.5 42t-56 42.5t-26 20.5q-10 8 -16 8q-5 0 -12 -12q-1 -2 -17 -25.5t-38.5 -53.5t-41.5 -53t-27 -23q-4 0 -31.5 18.5t-61 43.5t-58.5 46t-25 27q0 7 18 38t42 67.5t44.5 63.5t25.5 27q9 0 35 -18t55.5 -41.5
t51.5 -42.5t24 -20q11 -9 15 -9q7 0 17 14q2 2 19 25t39 52t41 51t24 22q8 0 35.5 -18.5t60 -43.5t56 -46t23.5 -27z" />
    <glyph glyph-name="uni0686.medi" unicode="&#x686;" horiz-adv-x="1472" arabic-form="medial" 
d="M1563 138q0 -20 -5 -53t-20.5 -59t-49.5 -26h-49q-157 0 -277.5 14.5t-181.5 56.5q-79 53 -79 167q0 27 10.5 72t23.5 78h-23q-84 0 -157 -35t-142.5 -87.5t-143.5 -106.5q-88 -64 -196 -111.5t-240 -47.5h-48q-34 0 -50 26t-20.5 59t-4.5 53q0 21 4.5 53.5t20.5 58
t50 25.5h48q134 0 233.5 14.5t178.5 47.5q49 20 109 51t111 43q-37 14 -103 44t-143.5 55.5t-149.5 25.5q-37 0 -73 -14.5t-60.5 -28.5t-27.5 -14q-5 0 -22.5 8.5t-17.5 12.5q0 53 35.5 126.5t94.5 114.5q33 23 74.5 39t103.5 16q42 0 97 -20t115.5 -48t119 -53t105.5 -36
q108 -25 258 -42t309 -17q15 0 15 -18q0 -2 -4 -26t-9.5 -56.5t-11 -60t-8.5 -35.5q-1 -4 -34 -8t-84 -6t-107 -3.5t-103 -1.5q-1 -3 -1 -17q0 -38 52 -58q40 -17 105 -24.5t133 -9t116 -1.5h49q34 0 49.5 -25.5t20.5 -58t5 -53.5zM924 -584q0 -8 -17 -39t-40.5 -67.5
t-45 -63.5t-29.5 -27q-5 0 -32.5 18.5t-61.5 43.5t-59 46t-25 28t17.5 38t42 67.5t45.5 63.5t27 27q8 0 36 -18.5t61 -43.5t57 -46t24 -27zM1042 -223q0 -7 -17 -37.5t-40 -66.5t-43.5 -62.5t-27.5 -26.5q-5 0 -30.5 18t-57.5 42t-56 42.5t-26 20.5q-10 8 -16 8
q-5 0 -12 -12q-1 -2 -17 -25.5t-38.5 -53.5t-41.5 -53t-27 -23q-4 0 -31.5 18.5t-61 43.5t-58.5 46t-25 27q0 7 18 38t42 67.5t44.5 63.5t25.5 27q9 0 35 -18t55.5 -41.5t51.5 -42.5t24 -20q11 -9 15 -9q7 0 17 14q2 2 19 25t39 52t41 51t24 22q8 0 35.5 -18.5t60 -43.5
t56 -46t23.5 -27z" />
    <glyph glyph-name="uni0686.fina" unicode="&#x686;" horiz-adv-x="1495" arabic-form="final" 
d="M1585 144q0 -85 -22 -114.5t-52 -29.5h-158q-101 0 -178.5 3t-139.5 21q-109 31 -109 178q0 30 9.5 79t19.5 98q-216 -55 -388.5 -155.5t-273.5 -234t-101 -288.5q0 -255 239.5 -369.5t676.5 -114.5q146 0 243.5 16.5t114.5 16.5q3 0 8 -22.5t5 -24.5q0 -7 -42 -29.5
t-106.5 -52t-134.5 -58.5t-128 -50.5t-86 -28.5q-53 -11 -95 -13t-65 -2q-139 0 -274.5 36t-245.5 112t-175.5 196t-65.5 289q0 134 47 250t127.5 214t181 176t207.5 135q-73 23 -135 31.5t-113 8.5q-103 0 -160 -20t-72 -20q-2 0 -15 9.5t-13 16.5q0 23 8.5 64.5t17.5 78
t10 43.5q2 10 47.5 34t113.5 45.5t135 21.5q93 0 157.5 -10t120.5 -22.5t121 -22.5t159 -10q30 0 79 2t100 4.5t87 2.5q23 0 37.5 -2.5t14.5 -4.5q0 -4 -12 -32.5t-28.5 -64.5t-30 -63.5t-16.5 -27.5q-27 -5 -87 -14.5t-107 -17.5q1 -34 15.5 -59t57 -41t125.5 -24t220 -8
h50q20 0 37 -6.5t27 -34t10 -90.5zM970 -491q0 -8 -17 -39t-40.5 -67.5t-45 -63.5t-29.5 -27q-5 0 -32.5 18.5t-61.5 43.5t-59 46t-25 28t17.5 38t42 67.5t45.5 63.5t27 27q8 0 36 -18.5t61 -43.5t57 -46t24 -27zM1088 -130q0 -7 -17 -37.5t-40 -66.5t-43.5 -62.5
t-27.5 -26.5q-5 0 -30.5 18t-57.5 42t-56 42.5t-26 20.5q-10 8 -16 8q-5 0 -12 -12q-1 -2 -17 -25.5t-38.5 -53.5t-41.5 -53t-27 -23q-4 0 -31.5 18.5t-61 43.5t-58.5 46t-25 27q0 7 18 38t42 67.5t44.5 63.5t25.5 27q9 0 35 -18t55.5 -41.5t51.5 -42.5t24 -20q11 -9 15 -9
q7 0 17 14q2 2 19 25t39 52t41 51t24 22q8 0 35.5 -18.5t60 -43.5t56 -46t23.5 -27z" />
    <glyph glyph-name="uni0687.init" unicode="&#x687;" horiz-adv-x="1506" arabic-form="initial" 
d="M1396 598q0 -4 -4.5 -31t-10.5 -61.5t-11.5 -64t-7.5 -37.5q-1 -6 -62 -9.5t-162.5 -5t-225.5 -1.5q-84 0 -157 -35t-142.5 -87.5t-143.5 -106.5q-88 -64 -195.5 -111.5t-237.5 -47.5h-51q-34 0 -50 26t-20.5 59t-4.5 53q0 21 4.5 53.5t20.5 58t50 25.5h48
q104 0 211.5 12t200.5 50q52 21 110.5 51.5t109.5 42.5q-37 14 -103 44t-143.5 55.5t-149.5 25.5q-37 0 -73 -14.5t-60.5 -28.5t-27.5 -14t-21.5 8.5t-18.5 12.5q0 53 35.5 126.5t94.5 114.5q33 23 74.5 39t103.5 16q42 0 97 -20t115.5 -48t119 -53t105.5 -36
q71 -17 157.5 -31t191.5 -19q43 -1 97.5 -2.5t95.5 -3.5t41 -5zM996 -227q0 -8 -16.5 -38t-40 -66t-44 -62.5t-27.5 -26.5q-4 0 -30 18t-57.5 41.5t-56 42.5t-25.5 20q-10 9 -17 9q-4 0 -11 -13q-1 -1 -17.5 -25t-38.5 -54t-41.5 -52.5t-26.5 -22.5q-5 0 -32 18t-60.5 43
t-58.5 46.5t-25 26.5q0 8 17.5 38.5t42 67.5t44.5 64t25 27q10 0 35.5 -18t55.5 -42t52 -42.5t23 -20.5q11 -9 15 -9q7 0 18 15q1 2 18 25t39.5 51.5t41 50.5t23.5 22q8 0 35.5 -18t60 -43t56 -46t23.5 -27zM1032 -568q0 -7 -16.5 -37.5t-40 -66.5t-44 -62t-26.5 -26
q-5 0 -31 18t-57.5 41.5t-56 42.5t-25.5 20q-10 8 -17 8q-4 0 -11 -12q-1 -1 -17.5 -25t-38.5 -54t-41.5 -53t-26.5 -23q-5 0 -32 18.5t-60.5 43.5t-58.5 46t-25 27q0 8 17.5 38.5t42 67t45 63.5t25.5 27q9 0 35 -18t55.5 -41.5t51.5 -42.5t23 -20q11 -9 15 -9q8 0 18 15
q1 2 18 24.5t39.5 51.5t41 51t23.5 22q8 0 36 -18.5t60 -43t55.5 -46t23.5 -27.5z" />
    <glyph glyph-name="uni0687.medi" unicode="&#x687;" horiz-adv-x="1472" arabic-form="medial" 
d="M1563 138q0 -20 -5 -53t-20.5 -59t-49.5 -26h-49q-157 0 -277.5 14.5t-181.5 56.5q-79 53 -79 167q0 27 10.5 72t23.5 78h-23q-84 0 -157 -35t-142.5 -87.5t-143.5 -106.5q-88 -64 -196 -111.5t-240 -47.5h-48q-34 0 -50 26t-20.5 59t-4.5 53q0 21 4.5 53.5t20.5 58
t50 25.5h48q134 0 233.5 14.5t178.5 47.5q49 20 109 51t111 43q-37 14 -103 44t-143.5 55.5t-149.5 25.5q-37 0 -73 -14.5t-60.5 -28.5t-27.5 -14q-5 0 -22.5 8.5t-17.5 12.5q0 53 35.5 126.5t94.5 114.5q33 23 74.5 39t103.5 16q42 0 97 -20t115.5 -48t119 -53t105.5 -36
q108 -25 258 -42t309 -17q15 0 15 -18q0 -2 -4 -26t-9.5 -56.5t-11 -60t-8.5 -35.5q-1 -4 -34 -8t-84 -6t-107 -3.5t-103 -1.5q-1 -3 -1 -17q0 -38 52 -58q40 -17 105 -24.5t133 -9t116 -1.5h49q34 0 49.5 -25.5t20.5 -58t5 -53.5zM1023 -239q0 -8 -16.5 -38t-40 -66
t-44 -62.5t-27.5 -26.5q-4 0 -30 18t-57.5 41.5t-56 42.5t-25.5 20q-10 9 -17 9q-4 0 -11 -13q-1 -1 -17.5 -25t-38.5 -54t-41.5 -52.5t-26.5 -22.5q-5 0 -32 18t-60.5 43t-58.5 46.5t-25 26.5q0 8 17.5 38.5t42 67.5t44.5 64t25 27q10 0 35.5 -18t55.5 -42t52 -42.5
t23 -20.5q11 -9 15 -9q7 0 18 15q1 2 18 25t39.5 51.5t41 50.5t23.5 22q8 0 35.5 -18t60 -43t56 -46t23.5 -27zM1059 -580q0 -7 -16.5 -37.5t-40 -66.5t-44 -62t-26.5 -26q-5 0 -31 18t-57.5 41.5t-56 42.5t-25.5 20q-10 8 -17 8q-4 0 -11 -12q-1 -1 -17.5 -25t-38.5 -54
t-41.5 -53t-26.5 -23q-5 0 -32 18.5t-60.5 43.5t-58.5 46t-25 27q0 8 17.5 38.5t42 67t45 63.5t25.5 27q9 0 35 -18t55.5 -41.5t51.5 -42.5t23 -20q11 -9 15 -9q8 0 18 15q1 2 18 24.5t39.5 51.5t41 51t23.5 22q8 0 36 -18.5t60 -43t55.5 -46t23.5 -27.5z" />
    <glyph glyph-name="uni0687.fina" unicode="&#x687;" horiz-adv-x="1495" arabic-form="final" 
d="M1585 144q0 -85 -22 -114.5t-52 -29.5h-158q-101 0 -178.5 3t-139.5 21q-109 31 -109 178q0 30 9.5 79t19.5 98q-216 -55 -388.5 -155.5t-273.5 -234t-101 -288.5q0 -255 239.5 -369.5t676.5 -114.5q146 0 243.5 16.5t114.5 16.5q3 0 8 -22.5t5 -24.5q0 -7 -42 -29.5
t-106.5 -52t-134.5 -58.5t-128 -50.5t-86 -28.5q-53 -11 -95 -13t-65 -2q-139 0 -274.5 36t-245.5 112t-175.5 196t-65.5 289q0 134 47 250t127.5 214t181 176t207.5 135q-73 23 -135 31.5t-113 8.5q-103 0 -160 -20t-72 -20q-2 0 -15 9.5t-13 16.5q0 23 8.5 64.5t17.5 78
t10 43.5q2 10 47.5 34t113.5 45.5t135 21.5q93 0 157.5 -10t120.5 -22.5t121 -22.5t159 -10q30 0 79 2t100 4.5t87 2.5q23 0 37.5 -2.5t14.5 -4.5q0 -4 -12 -32.5t-28.5 -64.5t-30 -63.5t-16.5 -27.5q-27 -5 -87 -14.5t-107 -17.5q1 -34 15.5 -59t57 -41t125.5 -24t220 -8
h50q20 0 37 -6.5t27 -34t10 -90.5zM1054 -81q0 -8 -16.5 -38t-40 -66t-44 -62.5t-27.5 -26.5q-4 0 -30 18t-57.5 41.5t-56 42.5t-25.5 20q-10 9 -17 9q-4 0 -11 -13q-1 -1 -17.5 -25t-38.5 -54t-41.5 -52.5t-26.5 -22.5q-5 0 -32 18t-60.5 43t-58.5 46.5t-25 26.5
q0 8 17.5 38.5t42 67.5t44.5 64t25 27q10 0 35.5 -18t55.5 -42t52 -42.5t23 -20.5q11 -9 15 -9q7 0 18 15q1 2 18 25t39.5 51.5t41 50.5t23.5 22q8 0 35.5 -18t60 -43t56 -46t23.5 -27zM1090 -422q0 -7 -16.5 -37.5t-40 -66.5t-44 -62t-26.5 -26q-5 0 -31 18t-57.5 41.5
t-56 42.5t-25.5 20q-10 8 -17 8q-4 0 -11 -12q-1 -1 -17.5 -25t-38.5 -54t-41.5 -53t-26.5 -23q-5 0 -32 18.5t-60.5 43.5t-58.5 46t-25 27q0 8 17.5 38.5t42 67t45 63.5t25.5 27q9 0 35 -18t55.5 -41.5t51.5 -42.5t23 -20q11 -9 15 -9q8 0 18 15q1 2 18 24.5t39.5 51.5
t41 51t23.5 22q8 0 36 -18.5t60 -43t55.5 -46t23.5 -27.5z" />
    <glyph glyph-name="uni0688.fina" unicode="&#x688;" horiz-adv-x="1136" arabic-form="final" 
d="M1226 138q0 -20 -4.5 -53t-19.5 -59t-49 -26h-51q-78 0 -135 46.5t-97 125.5t-69 178q-13 -55 -49.5 -116t-78.5 -103q-56 -53 -147 -85t-213 -32q-98 0 -165 40.5t-67 110.5q0 9 12 51t30 92.5t36 87.5t29 37t19 -18t17 -32t23.5 -38.5t49 -44t101.5 -19.5
q93 0 173 21.5t129 72t49 137.5q-13 127 -43.5 210t-30.5 117q0 12 16 48.5t37 78t38 71.5t20 30q7 0 21.5 -6.5t16.5 -29.5q15 -99 30.5 -204.5t32.5 -202t35 -169t38 -106.5q22 -37 62 -55.5t80 -18.5h51q34 0 49 -25.5t19.5 -58t4.5 -53.5zM1003 1420q0 -66 -48 -115.5
t-125.5 -82.5t-166 -49.5t-169.5 -16.5q-19 0 -50 26t-55 56.5t-24 44.5q0 12 11 12q13 0 51 -3.5t63 -3.5q46 0 63 44q7 18 10 36.5t3 29.5q0 86 -21 174t-21 149q0 45 25.5 78.5t40.5 33.5q2 0 14 -18t27 -41t26 -41.5t11 -20.5q-11 -8 -19 -21.5t-8 -37.5q0 -37 3 -82.5
t3 -77.5q0 -17 -2 -51.5t-7 -66.5q63 74 131.5 125.5t128.5 51.5q54 0 79.5 -45t25.5 -87zM910 1381q0 13 -21 16.5t-44 3.5q-48 0 -114.5 -30.5t-112.5 -77.5q101 7 165.5 27t95.5 38.5t31 22.5z" />
    <glyph glyph-name="uni0689.fina" unicode="&#x689;" horiz-adv-x="1136" 
d="M1226 138q0 -20 -4.5 -53t-19.5 -59t-49 -26h-51q-78 0 -135 46.5t-97 125.5t-69 178q-13 -55 -49.5 -116t-78.5 -103q-56 -53 -147 -85t-213 -32q-98 0 -165 40.5t-67 110.5q0 9 12 51t30 92.5t36 87.5t29 37t19 -18t17 -32t23.5 -38.5t49 -44t101.5 -19.5
q93 0 173 21.5t129 72t49 137.5q-13 127 -43.5 210t-30.5 117q0 12 16 48.5t37 78t38 71.5t20 30q7 0 21.5 -6.5t16.5 -29.5q15 -99 30.5 -204.5t32.5 -202t35 -169t38 -106.5q22 -37 62 -55.5t80 -18.5h51q34 0 49 -25.5t19.5 -58t4.5 -53.5zM638 -94q0 -98 -64.5 -166.5
t-158.5 -68.5q-72 0 -113 51.5t-41 161.5q0 56 26.5 108t74 85.5t111.5 33.5q49 0 86 -32.5t58 -79.5t21 -93zM533 -125q0 14 -21 36t-48.5 39t-48.5 17q-33 0 -49.5 -22.5t-16.5 -46.5q0 -25 28 -45t70 -20q24 0 55 14t31 28z" />
    <glyph glyph-name="uni068A.fina" unicode="&#x68a;" horiz-adv-x="1136" 
d="M1226 138q0 -20 -4.5 -53t-19.5 -59t-49 -26h-51q-78 0 -135 46.5t-97 125.5t-69 178q-13 -55 -49.5 -116t-78.5 -103q-56 -53 -147 -85t-213 -32q-98 0 -165 40.5t-67 110.5q0 9 12 51t30 92.5t36 87.5t29 37t19 -18t17 -32t23.5 -38.5t49 -44t101.5 -19.5
q93 0 173 21.5t129 72t49 137.5q-13 127 -43.5 210t-30.5 117q0 12 16 48.5t37 78t38 71.5t20 30q7 0 21.5 -6.5t16.5 -29.5q15 -99 30.5 -204.5t32.5 -202t35 -169t38 -106.5q22 -37 62 -55.5t80 -18.5h51q34 0 49 -25.5t19.5 -58t4.5 -53.5zM761 -293q0 -7 -18 -39.5
t-43 -71t-48 -67t-32 -28.5q-4 0 -33 19t-64.5 45t-62.5 48.5t-27 29.5q0 9 19 41.5t44.5 71t47.5 67t29 28.5q8 0 37.5 -19.5t64.5 -46t60.5 -49t25.5 -29.5z" />
    <glyph glyph-name="uni068B.fina" unicode="&#x68b;" horiz-adv-x="1136" 
d="M1226 138q0 -20 -4.5 -53t-19.5 -59t-49 -26h-51q-78 0 -135 46.5t-97 125.5t-69 178q-13 -55 -49.5 -116t-78.5 -103q-56 -53 -147 -85t-213 -32q-98 0 -165 40.5t-67 110.5q0 9 12 51t30 92.5t36 87.5t29 37t19 -18t17 -32t23.5 -38.5t49 -44t101.5 -19.5
q93 0 173 21.5t129 72t49 137.5q-13 127 -43.5 210t-30.5 117q0 12 16 48.5t37 78t38 71.5t20 30q7 0 21.5 -6.5t16.5 -29.5q15 -99 30.5 -204.5t32.5 -202t35 -169t38 -106.5q22 -37 62 -55.5t80 -18.5h51q34 0 49 -25.5t19.5 -58t4.5 -53.5zM1003 1420q0 -66 -48 -115.5
t-125.5 -82.5t-166 -49.5t-169.5 -16.5q-19 0 -50 26t-55 56.5t-24 44.5q0 12 11 12q13 0 51 -3.5t63 -3.5q46 0 63 44q7 18 10 36.5t3 29.5q0 86 -21 174t-21 149q0 45 25.5 78.5t40.5 33.5q2 0 14 -18t27 -41t26 -41.5t11 -20.5q-11 -8 -19 -21.5t-8 -37.5q0 -37 3 -82.5
t3 -77.5q0 -17 -2 -51.5t-7 -66.5q63 74 131.5 125.5t128.5 51.5q54 0 79.5 -45t25.5 -87zM910 1381q0 13 -21 16.5t-44 3.5q-48 0 -114.5 -30.5t-112.5 -77.5q101 7 165.5 27t95.5 38.5t31 22.5zM761 -293q0 -7 -18 -39.5t-43 -71t-48 -67t-32 -28.5q-4 0 -33 19t-64.5 45
t-62.5 48.5t-27 29.5q0 9 19 41.5t44.5 71t47.5 67t29 28.5q8 0 37.5 -19.5t64.5 -46t60.5 -49t25.5 -29.5z" />
    <glyph glyph-name="uni068C.fina" unicode="&#x68c;" horiz-adv-x="1136" arabic-form="final" 
d="M1226 138q0 -20 -4.5 -53t-19.5 -59t-49 -26h-51q-78 0 -135 46.5t-97 125.5t-69 178q-13 -55 -49.5 -116t-78.5 -103q-56 -53 -147 -85t-213 -32q-98 0 -165 40.5t-67 110.5q0 9 12 51t30 92.5t36 87.5t29 37t19 -18t17 -32t23.5 -38.5t49 -44t101.5 -19.5
q93 0 173 21.5t129 72t49 137.5q-13 127 -43.5 210t-30.5 117q0 12 16 48.5t37 78t38 71.5t20 30q7 0 21.5 -6.5t16.5 -29.5q15 -99 30.5 -204.5t32.5 -202t35 -169t38 -106.5q22 -37 62 -55.5t80 -18.5h51q34 0 49 -25.5t19.5 -58t4.5 -53.5zM1012 1417q0 -7 -17 -37.5
t-40 -66.5t-43.5 -62.5t-27.5 -26.5q-5 0 -30.5 18t-57.5 42t-56 42.5t-26 20.5q-10 8 -16 8q-5 0 -12 -12q-1 -2 -17 -25.5t-38.5 -53.5t-41.5 -53t-27 -23q-4 0 -31.5 18.5t-61 43.5t-58.5 46t-25 27q0 7 18 38t42 67.5t44.5 63.5t25.5 27q9 0 35 -18t55.5 -41.5
t51.5 -42.5t24 -20q11 -9 15 -9q7 0 17 14q2 2 19 25t39 52t41 51t24 22q8 0 35.5 -18.5t60 -43.5t56 -46t23.5 -27z" />
    <glyph glyph-name="uni068D.fina" unicode="&#x68d;" horiz-adv-x="1136" arabic-form="final" 
d="M1226 138q0 -20 -4.5 -53t-19.5 -59t-49 -26h-51q-78 0 -135 46.5t-97 125.5t-69 178q-13 -55 -49.5 -116t-78.5 -103q-56 -53 -147 -85t-213 -32q-98 0 -165 40.5t-67 110.5q0 9 12 51t30 92.5t36 87.5t29 37t19 -18t17 -32t23.5 -38.5t49 -44t101.5 -19.5
q93 0 173 21.5t129 72t49 137.5q-13 127 -43.5 210t-30.5 117q0 12 16 48.5t37 78t38 71.5t20 30q7 0 21.5 -6.5t16.5 -29.5q15 -99 30.5 -204.5t32.5 -202t35 -169t38 -106.5q22 -37 62 -55.5t80 -18.5h51q34 0 49 -25.5t19.5 -58t4.5 -53.5zM961 -270q0 -7 -17 -37.5
t-40 -66.5t-43.5 -62.5t-27.5 -26.5q-5 0 -30.5 18t-57.5 42t-56 42.5t-26 20.5q-10 8 -16 8q-5 0 -12 -12q-1 -2 -17 -25.5t-38.5 -53.5t-41.5 -53t-27 -23q-4 0 -31.5 18.5t-61 43.5t-58.5 46t-25 27q0 7 18 38t42 67.5t44.5 63.5t25.5 27q9 0 35 -18t55.5 -41.5
t51.5 -42.5t24 -20q11 -9 15 -9q7 0 17 14q2 2 19 25t39 52t41 51t24 22q8 0 35.5 -18.5t60 -43.5t56 -46t23.5 -27z" />
    <glyph glyph-name="uni068E.fina" unicode="&#x68e;" horiz-adv-x="1136" arabic-form="final" 
d="M1226 138q0 -20 -4.5 -53t-19.5 -59t-49 -26h-51q-78 0 -135 46.5t-97 125.5t-69 178q-13 -55 -49.5 -116t-78.5 -103q-56 -53 -147 -85t-213 -32q-98 0 -165 40.5t-67 110.5q0 9 12 51t30 92.5t36 87.5t29 37t19 -18t17 -32t23.5 -38.5t49 -44t101.5 -19.5
q93 0 173 21.5t129 72t49 137.5q-13 127 -43.5 210t-30.5 117q0 12 16 48.5t37 78t38 71.5t20 30q7 0 21.5 -6.5t16.5 -29.5q15 -99 30.5 -204.5t32.5 -202t35 -169t38 -106.5q22 -37 62 -55.5t80 -18.5h51q34 0 49 -25.5t19.5 -58t4.5 -53.5zM852 1724q0 -8 -17.5 -38.5
t-42 -67t-45 -63.5t-27.5 -27q-8 0 -36 18.5t-61.5 43.5t-57.5 46.5t-24 27.5q0 7 17 38t41 67.5t45.5 63.5t30.5 27q4 0 31.5 -18t61 -43.5t59 -47t25.5 -27.5zM1045 1402q0 -8 -16.5 -38t-40 -66t-44 -62.5t-27.5 -26.5q-4 0 -30 18t-57.5 42t-56 42.5t-25.5 20.5
q-10 8 -17 8q-4 0 -11 -12q-1 -2 -17.5 -25.5t-38.5 -53.5t-41.5 -53t-26.5 -23q-5 0 -32 18.5t-60.5 43.5t-58.5 46t-25 27q0 7 17.5 38t42 67.5t45 63.5t24.5 27q10 0 35.5 -18t55.5 -42t52 -42.5t23 -19.5q11 -10 15 -10q8 0 18 15q1 2 18 25t39.5 52t41 51t23.5 22
q8 0 35.5 -18.5t60 -43.5t56 -46t23.5 -27z" />
    <glyph glyph-name="uni068F.fina" unicode="&#x68f;" horiz-adv-x="1136" 
d="M1226 138q0 -20 -4.5 -53t-19.5 -59t-49 -26h-51q-78 0 -135 46.5t-97 125.5t-69 178q-13 -55 -49.5 -116t-78.5 -103q-56 -53 -147 -85t-213 -32q-98 0 -165 40.5t-67 110.5q0 9 12 51t30 92.5t36 87.5t29 37t19 -18t17 -32t23.5 -38.5t49 -44t101.5 -19.5
q93 0 173 21.5t129 72t49 137.5q-13 127 -43.5 210t-30.5 117q0 12 16 48.5t37 78t38 71.5t20 30q7 0 21.5 -6.5t16.5 -29.5q15 -99 30.5 -204.5t32.5 -202t35 -169t38 -106.5q22 -37 62 -55.5t80 -18.5h51q34 0 49 -25.5t19.5 -58t4.5 -53.5zM894 1416q0 -8 -17 -39
t-40.5 -67.5t-45 -63.5t-29.5 -27q-5 0 -32.5 18.5t-61.5 43.5t-59 46t-25 28t17.5 38t42 67.5t45.5 63.5t27 27q8 0 36 -18.5t61 -43.5t57 -46t24 -27zM1012 1777q0 -7 -17 -37.5t-40 -66.5t-43.5 -62.5t-27.5 -26.5q-5 0 -30.5 18t-57.5 42t-56 42.5t-26 20.5q-10 8 -16 8
q-5 0 -12 -12q-1 -2 -17 -25.5t-38.5 -53.5t-41.5 -53t-27 -23q-4 0 -31.5 18.5t-61 43.5t-58.5 46t-25 27q0 7 18 38t42 67.5t44.5 63.5t25.5 27q9 0 35 -18t55.5 -41.5t51.5 -42.5t24 -20q11 -9 15 -9q7 0 17 14q2 2 19 25t39 52t41 51t24 22q8 0 35.5 -18.5t60 -43.5
t56 -46t23.5 -27z" />
    <glyph glyph-name="uni0690.fina" unicode="&#x690;" horiz-adv-x="1136" 
d="M1226 138q0 -20 -4.5 -53t-19.5 -59t-49 -26h-51q-78 0 -135 46.5t-97 125.5t-69 178q-13 -55 -49.5 -116t-78.5 -103q-56 -53 -147 -85t-213 -32q-98 0 -165 40.5t-67 110.5q0 9 12 51t30 92.5t36 87.5t29 37t19 -18t17 -32t23.5 -38.5t49 -44t101.5 -19.5
q93 0 173 21.5t129 72t49 137.5q-13 127 -43.5 210t-30.5 117q0 12 16 48.5t37 78t38 71.5t20 30q7 0 21.5 -6.5t16.5 -29.5q15 -99 30.5 -204.5t32.5 -202t35 -169t38 -106.5q22 -37 62 -55.5t80 -18.5h51q34 0 49 -25.5t19.5 -58t4.5 -53.5zM1023 1807q0 -8 -16.5 -38
t-40 -66t-44 -62.5t-27.5 -26.5q-4 0 -30 18t-57.5 41.5t-56 42.5t-25.5 20q-10 9 -17 9q-4 0 -11 -13q-1 -1 -17.5 -25t-38.5 -54t-41.5 -52.5t-26.5 -22.5q-5 0 -32 18t-60.5 43t-58.5 46.5t-25 26.5q0 8 17.5 38.5t42 67.5t44.5 64t25 27q10 0 35.5 -18t55.5 -42
t52 -42.5t23 -20.5q11 -9 15 -9q7 0 18 15q1 2 18 25t39.5 51.5t41 50.5t23.5 22q8 0 35.5 -18t60 -43t56 -46t23.5 -27zM1059 1466q0 -7 -16.5 -37.5t-40 -66.5t-44 -62t-26.5 -26q-5 0 -31 18t-57.5 41.5t-56 42.5t-25.5 20q-10 8 -17 8q-4 0 -11 -12q-1 -1 -17.5 -25
t-38.5 -54t-41.5 -53t-26.5 -23q-5 0 -32 18.5t-60.5 43.5t-58.5 46t-25 27q0 8 17.5 38.5t42 67t45 63.5t25.5 27q9 0 35 -18t55.5 -41.5t51.5 -42.5t23 -20q11 -9 15 -9q8 0 18 15q1 2 18 24.5t39.5 51.5t41 51t23.5 22q8 0 36 -18.5t60 -43t55.5 -46t23.5 -27.5z" />
    <glyph glyph-name="uni0691.fina" unicode="&#x691;" horiz-adv-x="869" arabic-form="final" 
d="M961 138q0 -20 -4.5 -53t-20 -59t-49.5 -26h-50q-10 0 -31.5 3t-37.5 12q-7 -75 -24 -165.5t-51.5 -180.5t-95.5 -165q-34 -41 -90.5 -79.5t-126 -63t-141.5 -24.5q-38 0 -100 18t-125 42t-106 45t-43 27q0 8 5.5 30.5t11.5 22.5q4 0 30.5 -4.5t81.5 -4.5
q73 0 163.5 24.5t181.5 73.5t163 120q87 88 124 145.5t37 73.5q0 9 -23 39.5t-53.5 68t-53.5 67.5t-23 37q0 3 14.5 35t34 73.5t35.5 75.5t19 41h35q25 -30 70.5 -71t118.5 -41h50q34 0 49.5 -25.5t20 -58t4.5 -53.5zM956 771q0 -66 -48 -115.5t-125.5 -82.5t-166 -49.5
t-169.5 -16.5q-19 0 -50 26t-55 56.5t-24 44.5q0 12 11 12q13 0 51 -3.5t63 -3.5q46 0 63 44q7 18 10 36.5t3 29.5q0 86 -21 174t-21 149q0 45 25.5 78.5t40.5 33.5q2 0 14 -18t27 -41t26 -41.5t11 -20.5q-11 -8 -19 -21.5t-8 -37.5q0 -37 3 -82.5t3 -77.5q0 -17 -2 -51.5
t-7 -66.5q63 74 131.5 125.5t128.5 51.5q54 0 79.5 -45t25.5 -87zM863 732q0 13 -21 16.5t-44 3.5q-48 0 -114.5 -30.5t-112.5 -77.5q101 7 165.5 27t95.5 38.5t31 22.5z" />
    <glyph glyph-name="uni0692.fina" unicode="&#x692;" horiz-adv-x="869" 
d="M961 138q0 -20 -4.5 -53t-20 -59t-49.5 -26h-50q-10 0 -31.5 3t-37.5 12q-7 -75 -24 -165.5t-51.5 -180.5t-95.5 -165q-34 -41 -90.5 -79.5t-126 -63t-141.5 -24.5q-38 0 -100 18t-125 42t-106 45t-43 27q0 8 5.5 30.5t11.5 22.5q4 0 30.5 -4.5t81.5 -4.5
q73 0 163.5 24.5t181.5 73.5t163 120q87 88 124 145.5t37 73.5q0 9 -23 39.5t-53.5 68t-53.5 67.5t-23 37q0 3 14.5 35t34 73.5t35.5 75.5t19 41h35q25 -30 70.5 -71t118.5 -41h50q34 0 49.5 -25.5t20 -58t4.5 -53.5zM810 927q0 -3 -1 -30.5t-1 -43.5q0 -37 -4 -49.5
t-10 -16.5q-22 -14 -59 -49t-69.5 -89.5t-42.5 -126.5q-1 -5 -11 -5q-13 0 -14 5q-39 117 -86 174t-81 74.5t-36 17.5q-2 6 -1.5 40t2.5 66.5t3 32.5q32 0 75.5 -32.5t82 -88.5t55.5 -126q15 70 52.5 127.5t78 91.5t62.5 34q5 0 5 -6z" />
    <glyph glyph-name="uni0693.fina" unicode="&#x693;" horiz-adv-x="869" 
d="M961 138q0 -20 -4.5 -53t-20 -59t-49.5 -26h-50q-10 0 -31.5 3t-37.5 12q-7 -75 -24 -165.5t-51.5 -180.5t-95.5 -165q-34 -41 -90.5 -79.5t-126 -63t-141.5 -24.5q-38 0 -100 18t-125 42t-106 45t-43 27q0 8 5.5 30.5t11.5 22.5q4 0 30.5 -4.5t81.5 -4.5
q73 0 163.5 24.5t181.5 73.5t163 120q87 88 124 145.5t37 73.5q0 9 -23 39.5t-53.5 68t-53.5 67.5t-23 37q0 3 14.5 35t34 73.5t35.5 75.5t19 41h35q25 -30 70.5 -71t118.5 -41h50q34 0 49.5 -25.5t20 -58t4.5 -53.5zM813 -590q0 -98 -64.5 -166.5t-158.5 -68.5
q-72 0 -113 51.5t-41 161.5q0 56 26.5 108t74 85.5t111.5 33.5q49 0 86 -32.5t58 -79.5t21 -93zM708 -621q0 14 -21 36t-48.5 39t-48.5 17q-33 0 -49.5 -22.5t-16.5 -46.5q0 -25 28 -45t70 -20q24 0 55 14t31 28z" />
    <glyph glyph-name="uni0694.fina" unicode="&#x694;" horiz-adv-x="869" 
d="M961 138q0 -20 -4.5 -53t-20 -59t-49.5 -26h-50q-10 0 -31.5 3t-37.5 12q-7 -75 -24 -165.5t-51.5 -180.5t-95.5 -165q-34 -41 -90.5 -79.5t-126 -63t-141.5 -24.5q-38 0 -100 18t-125 42t-106 45t-43 27q0 8 5.5 30.5t11.5 22.5q4 0 30.5 -4.5t81.5 -4.5
q73 0 163.5 24.5t181.5 73.5t163 120q87 88 124 145.5t37 73.5q0 9 -23 39.5t-53.5 68t-53.5 67.5t-23 37q0 3 14.5 35t34 73.5t35.5 75.5t19 41h35q25 -30 70.5 -71t118.5 -41h50q34 0 49.5 -25.5t20 -58t4.5 -53.5zM772 -835q0 -7 -18 -39.5t-43 -71t-48 -67t-32 -28.5
q-4 0 -33 19t-64.5 45t-62.5 48.5t-27 29.5q0 9 19 41.5t44.5 71t47.5 67t29 28.5q8 0 37.5 -19.5t64.5 -46t60.5 -49t25.5 -29.5z" />
    <glyph glyph-name="uni0695.fina" unicode="&#x695;" horiz-adv-x="869" 
d="M961 138q0 -20 -4.5 -53t-20 -59t-49.5 -26h-50q-10 0 -31.5 3t-37.5 12q-7 -75 -24 -165.5t-51.5 -180.5t-95.5 -165q-34 -41 -90.5 -79.5t-126 -63t-141.5 -24.5q-38 0 -100 18t-125 42t-106 45t-43 27q0 8 5.5 30.5t11.5 22.5q4 0 30.5 -4.5t81.5 -4.5
q73 0 163.5 24.5t181.5 73.5t163 120q87 88 124 145.5t37 73.5q0 9 -23 39.5t-53.5 68t-53.5 67.5t-23 37q0 3 14.5 35t34 73.5t35.5 75.5t19 41h35q25 -30 70.5 -71t118.5 -41h50q34 0 49.5 -25.5t20 -58t4.5 -53.5zM809 -754q0 -3 -1 -30.5t-1 -43.5q0 -37 -4 -49.5
t-10 -16.5q-22 -14 -59 -49t-69.5 -89.5t-42.5 -126.5q-1 -5 -11 -5q-13 0 -14 5q-39 117 -86 174t-81 74.5t-36 17.5q-2 6 -1.5 40t2.5 66.5t3 32.5q32 0 75.5 -32.5t82 -88.5t55.5 -126q15 70 52.5 127.5t78 91.5t62.5 34q5 0 5 -6z" />
    <glyph glyph-name="uni0696.fina" unicode="&#x696;" horiz-adv-x="869" 
d="M961 138q0 -20 -4.5 -53t-20 -59t-49.5 -26h-50q-10 0 -31.5 3t-37.5 12q-7 -75 -24 -165.5t-51.5 -180.5t-95.5 -165q-34 -41 -90.5 -79.5t-126 -63t-141.5 -24.5q-38 0 -100 18t-125 42t-106 45t-43 27q0 8 5.5 30.5t11.5 22.5q4 0 30.5 -4.5t81.5 -4.5
q73 0 163.5 24.5t181.5 73.5t163 120q87 88 124 145.5t37 73.5q0 9 -23 39.5t-53.5 68t-53.5 67.5t-23 37q0 3 14.5 35t34 73.5t35.5 75.5t19 41h35q25 -30 70.5 -71t118.5 -41h50q34 0 49.5 -25.5t20 -58t4.5 -53.5zM777 -835q0 -7 -18 -39.5t-43 -71t-48 -67t-32 -28.5
q-4 0 -33 19t-64.5 45t-62.5 48.5t-27 29.5q0 9 19 41.5t44.5 71t47.5 67t29 28.5q8 0 37.5 -19.5t64.5 -46t60.5 -49t25.5 -29.5zM394 19q0 -7 -18 -39.5t-43 -71t-48 -67t-32 -28.5q-4 0 -33 19t-64.5 45t-62.5 48.5t-27 29.5q0 9 19 41.5t44.5 71t47.5 67t29 28.5
q8 0 37.5 -19.5t64.5 -46t60.5 -49t25.5 -29.5z" />
    <glyph glyph-name="uni0697.fina" unicode="&#x697;" horiz-adv-x="869" 
d="M961 138q0 -20 -4.5 -53t-20 -59t-49.5 -26h-50q-10 0 -31.5 3t-37.5 12q-7 -75 -24 -165.5t-51.5 -180.5t-95.5 -165q-34 -41 -90.5 -79.5t-126 -63t-141.5 -24.5q-38 0 -100 18t-125 42t-106 45t-43 27q0 8 5.5 30.5t11.5 22.5q4 0 30.5 -4.5t81.5 -4.5
q73 0 163.5 24.5t181.5 73.5t163 120q87 88 124 145.5t37 73.5q0 9 -23 39.5t-53.5 68t-53.5 67.5t-23 37q0 3 14.5 35t34 73.5t35.5 75.5t19 41h35q25 -30 70.5 -71t118.5 -41h50q34 0 49.5 -25.5t20 -58t4.5 -53.5zM925 705q0 -7 -17 -37.5t-40 -66.5t-43.5 -62.5
t-27.5 -26.5q-5 0 -30.5 18t-57.5 42t-56 42.5t-26 20.5q-10 8 -16 8q-5 0 -12 -12q-1 -2 -17 -25.5t-38.5 -53.5t-41.5 -53t-27 -23q-4 0 -31.5 18.5t-61 43.5t-58.5 46t-25 27q0 7 18 38t42 67.5t44.5 63.5t25.5 27q9 0 35 -18t55.5 -41.5t51.5 -42.5t24 -20q11 -9 15 -9
q7 0 17 14q2 2 19 25t39 52t41 51t24 22q8 0 35.5 -18.5t60 -43.5t56 -46t23.5 -27z" />
    <glyph glyph-name="uni0698.fina" unicode="&#x698;" horiz-adv-x="869" arabic-form="final" 
d="M961 138q0 -20 -4.5 -53t-20 -59t-49.5 -26h-50q-10 0 -31.5 3t-37.5 12q-7 -75 -24 -165.5t-51.5 -180.5t-95.5 -165q-34 -41 -90.5 -79.5t-126 -63t-141.5 -24.5q-38 0 -100 18t-125 42t-106 45t-43 27q0 8 5.5 30.5t11.5 22.5q4 0 30.5 -4.5t81.5 -4.5
q73 0 163.5 24.5t181.5 73.5t163 120q87 88 124 145.5t37 73.5q0 9 -23 39.5t-53.5 68t-53.5 67.5t-23 37q0 3 14.5 35t34 73.5t35.5 75.5t19 41h35q25 -30 70.5 -71t118.5 -41h50q34 0 49.5 -25.5t20 -58t4.5 -53.5zM724 1029q0 -8 -17.5 -38.5t-42 -67t-45 -63.5
t-27.5 -27q-8 0 -36 18.5t-61.5 43.5t-57.5 46.5t-24 27.5q0 7 17 38t41 67.5t45.5 63.5t30.5 27q4 0 31.5 -18t61 -43.5t59 -47t25.5 -27.5zM917 707q0 -8 -16.5 -38t-40 -66t-44 -62.5t-27.5 -26.5q-4 0 -30 18t-57.5 42t-56 42.5t-25.5 20.5q-10 8 -17 8q-4 0 -11 -12
q-1 -2 -17.5 -25.5t-38.5 -53.5t-41.5 -53t-26.5 -23q-5 0 -32 18.5t-60.5 43.5t-58.5 46t-25 27q0 7 17.5 38t42 67.5t45 63.5t24.5 27q10 0 35.5 -18t55.5 -42t52 -42.5t23 -19.5q11 -10 15 -10q8 0 18 15q1 2 18 25t39.5 52t41 51t23.5 22q8 0 35.5 -18.5t60 -43.5
t56 -46t23.5 -27z" />
    <glyph glyph-name="uni0699.fina" unicode="&#x699;" horiz-adv-x="869" 
d="M961 138q0 -20 -4.5 -53t-20 -59t-49.5 -26h-50q-10 0 -31.5 3t-37.5 12q-7 -75 -24 -165.5t-51.5 -180.5t-95.5 -165q-34 -41 -90.5 -79.5t-126 -63t-141.5 -24.5q-38 0 -100 18t-125 42t-106 45t-43 27q0 8 5.5 30.5t11.5 22.5q4 0 30.5 -4.5t81.5 -4.5
q73 0 163.5 24.5t181.5 73.5t163 120q87 88 124 145.5t37 73.5q0 9 -23 39.5t-53.5 68t-53.5 67.5t-23 37q0 3 14.5 35t34 73.5t35.5 75.5t19 41h35q25 -30 70.5 -71t118.5 -41h50q34 0 49.5 -25.5t20 -58t4.5 -53.5zM896 1048q0 -8 -16.5 -38t-40 -66t-44 -62.5
t-27.5 -26.5q-4 0 -30 18t-57.5 41.5t-56 42.5t-25.5 20q-10 9 -17 9q-4 0 -11 -13q-1 -1 -17.5 -25t-38.5 -54t-41.5 -52.5t-26.5 -22.5q-5 0 -32 18t-60.5 43t-58.5 46.5t-25 26.5q0 8 17.5 38.5t42 67.5t44.5 64t25 27q10 0 35.5 -18t55.5 -42t52 -42.5t23 -20.5
q11 -9 15 -9q7 0 18 15q1 2 18 25t39.5 51.5t41 50.5t23.5 22q8 0 35.5 -18t60 -43t56 -46t23.5 -27zM932 707q0 -7 -16.5 -37.5t-40 -66.5t-44 -62t-26.5 -26q-5 0 -31 18t-57.5 41.5t-56 42.5t-25.5 20q-10 8 -17 8q-4 0 -11 -12q-1 -1 -17.5 -25t-38.5 -54t-41.5 -53
t-26.5 -23q-5 0 -32 18.5t-60.5 43.5t-58.5 46t-25 27q0 8 17.5 38.5t42 67t45 63.5t25.5 27q9 0 35 -18t55.5 -41.5t51.5 -42.5t23 -20q11 -9 15 -9q8 0 18 15q1 2 18 24.5t39.5 51.5t41 51t23.5 22q8 0 36 -18.5t60 -43t55.5 -46t23.5 -27.5z" />
    <glyph glyph-name="uni069A.init" unicode="&#x69a;" horiz-adv-x="1443" 
d="M1305 539q0 -32 -7 -86t-23.5 -115t-44 -115.5t-67 -89.5t-94.5 -35q-75 0 -133 52.5t-90 115.5q-30 -54 -72.5 -115t-98 -104.5t-126.5 -43.5q-55 0 -102 25.5t-80 63.5t-46 75q-51 -76 -124.5 -121.5t-163.5 -45.5h-48q-34 0 -50 26t-20.5 59t-4.5 53q0 21 4.5 53.5
t20.5 58t50 25.5h48q110 0 176 27t102 62.5t53.5 62.5t29.5 27q24 0 33 -26.5t20 -62t37.5 -62t84.5 -26.5q89 0 154.5 44.5t104 111.5t44.5 136q2 11 8 19.5t21 8.5q18 0 29 -34q31 -98 91.5 -147t124.5 -49q30 0 48 14.5t18 32.5q0 26 -26 43t-52 26t-26 12q0 5 8.5 50
t22 101.5t29.5 99.5t30 43q15 0 40.5 -39t46 -96.5t20.5 -114.5zM923 1031q0 -7 -18 -39.5t-43 -71t-48 -67t-32 -28.5q-4 0 -33 19t-64.5 45t-62.5 48.5t-27 29.5q0 9 19 41.5t44.5 71t47.5 67t29 28.5q8 0 37.5 -19.5t64.5 -46t60.5 -49t25.5 -29.5zM929 -290
q0 -7 -18 -39.5t-43 -71t-48 -67t-32 -28.5q-4 0 -33 19t-64.5 45t-62.5 48.5t-27 29.5q0 9 19 41.5t44.5 71t47.5 67t29 28.5q8 0 37.5 -19.5t64.5 -46t60.5 -49t25.5 -29.5z" />
    <glyph glyph-name="uni069A.medi" unicode="&#x69a;" horiz-adv-x="1478" 
d="M1566 126q0 -21 -1 -51t-13 -52.5t-46 -22.5h-51q-103 0 -168.5 63.5t-104.5 175.5q-37 -97 -83 -151.5t-123 -54.5q-71 0 -110 39t-55 107q-52 -91 -114 -133.5t-162 -42.5q-64 0 -121.5 35t-92.5 129q-51 -96 -134.5 -131.5t-153.5 -35.5h-48q-34 0 -50 22.5
t-20.5 52.5t-4.5 51t4.5 56.5t20.5 64t50 28.5h48q107 0 170 33t96 77t49 77t28 33q20 0 28 -21.5t14 -53.5t20.5 -64t47 -53.5t93.5 -21.5q82 0 136.5 36.5t88 84.5t51.5 84.5t27 36.5q24 0 31 -8t8 -28q1 -14 6 -51t26 -69.5t69 -32.5t80.5 29.5t52.5 67.5t32 67.5
t19 29.5q37 0 37 -31q0 -22 13 -59t39.5 -74.5t66.5 -63t93 -25.5h51q34 0 46 -28.5t13 -64t1 -56.5zM898 865q0 -7 -18 -39.5t-43 -71t-48 -67t-32 -28.5q-4 0 -33 19t-64.5 45t-62.5 48.5t-27 29.5q0 9 19 41.5t44.5 71t47.5 67t29 28.5q8 0 37.5 -19.5t64.5 -46t60.5 -49
t25.5 -29.5zM890 -287q0 -7 -18 -39.5t-43 -71t-48 -67t-32 -28.5q-4 0 -33 19t-64.5 45t-62.5 48.5t-27 29.5q0 9 19 41.5t44.5 71t47.5 67t29 28.5q8 0 37.5 -19.5t64.5 -46t60.5 -49t25.5 -29.5z" />
    <glyph glyph-name="uni069A.fina" unicode="&#x69a;" horiz-adv-x="2084" 
d="M2174 138q0 -64 -12 -101t-62 -37h-50q-103 0 -169 63.5t-105 175.5q-37 -97 -82.5 -151.5t-122.5 -54.5q-72 0 -111 39t-55 107q-52 -91 -112.5 -134t-155.5 -45q-4 -53 -9.5 -106.5t-17.5 -102.5q-30 -129 -100.5 -218t-168 -144t-208 -79.5t-219.5 -24.5
q-150 0 -231 55.5t-112.5 140t-31.5 172.5q0 79 25.5 159.5t59 147.5t61 107.5t30.5 40.5q8 0 28.5 -12t20.5 -18q0 -10 -27 -52.5t-54 -105t-27 -135.5q0 -53 30 -104t96.5 -84.5t175.5 -33.5q182 0 314 25t199 89q68 60 68 161q0 85 -22 146.5t-44.5 99.5t-22.5 51
q0 8 18.5 50t43.5 93t46.5 89.5t26.5 38.5q18 -12 33.5 -46t27 -70t16.5 -56q86 0 143 37.5t91 87t52.5 87t27.5 37.5q24 0 31 -8t8 -28q1 -14 6 -51.5t26 -69.5t69 -32t80.5 29.5t52.5 67.5t32 67.5t19 29.5q38 0 38 -31q0 -22 13 -59t39.5 -74.5t66.5 -63t93 -25.5h50
q50 0 62 -27.5t12 -109.5zM1575 859q0 -7 -18 -39.5t-43 -71t-48 -67t-32 -28.5q-4 0 -33 19t-64.5 45t-62.5 48.5t-27 29.5q0 9 19 41.5t44.5 71t47.5 67t29 28.5q8 0 37.5 -19.5t64.5 -46t60.5 -49t25.5 -29.5zM1681 -279q0 -7 -18 -39.5t-43 -71t-48 -67t-32 -28.5
q-4 0 -33 19t-64.5 45t-62.5 48.5t-27 29.5q0 9 19 41.5t44.5 71t47.5 67t29 28.5q8 0 37.5 -19.5t64.5 -46t60.5 -49t25.5 -29.5z" />
    <glyph glyph-name="uni069B.init" unicode="&#x69b;" horiz-adv-x="1443" 
d="M1305 539q0 -32 -7 -86t-23.5 -115t-44 -115.5t-67 -89.5t-94.5 -35q-75 0 -133 52.5t-90 115.5q-30 -54 -72.5 -115t-98 -104.5t-126.5 -43.5q-55 0 -102 25.5t-80 63.5t-46 75q-51 -76 -124.5 -121.5t-163.5 -45.5h-48q-34 0 -50 26t-20.5 59t-4.5 53q0 21 4.5 53.5
t20.5 58t50 25.5h48q110 0 176 27t102 62.5t53.5 62.5t29.5 27q24 0 33 -26.5t20 -62t37.5 -62t84.5 -26.5q89 0 154.5 44.5t104 111.5t44.5 136q2 11 8 19.5t21 8.5q18 0 29 -34q31 -98 91.5 -147t124.5 -49q30 0 48 14.5t18 32.5q0 26 -26 43t-52 26t-26 12q0 5 8.5 50
t22 101.5t29.5 99.5t30 43q15 0 40.5 -39t46 -96.5t20.5 -114.5zM968 -606q0 -8 -17 -39t-40.5 -67.5t-45 -63.5t-29.5 -27q-5 0 -32.5 18.5t-61.5 43.5t-59 46t-25 28t17.5 38t42 67.5t45.5 63.5t27 27q8 0 36 -18.5t61 -43.5t57 -46t24 -27zM1086 -245q0 -7 -17 -37.5
t-40 -66.5t-43.5 -62.5t-27.5 -26.5q-5 0 -30.5 18t-57.5 42t-56 42.5t-26 20.5q-10 8 -16 8q-5 0 -12 -12q-1 -2 -17 -25.5t-38.5 -53.5t-41.5 -53t-27 -23q-4 0 -31.5 18.5t-61 43.5t-58.5 46t-25 27q0 7 18 38t42 67.5t44.5 63.5t25.5 27q9 0 35 -18t55.5 -41.5
t51.5 -42.5t24 -20q11 -9 15 -9q7 0 17 14q2 2 19 25t39 52t41 51t24 22q8 0 35.5 -18.5t60 -43.5t56 -46t23.5 -27z" />
    <glyph glyph-name="uni069B.medi" unicode="&#x69b;" horiz-adv-x="1478" 
d="M1566 126q0 -21 -1 -51t-13 -52.5t-46 -22.5h-51q-103 0 -168.5 63.5t-104.5 175.5q-37 -97 -83 -151.5t-123 -54.5q-71 0 -110 39t-55 107q-52 -91 -114 -133.5t-162 -42.5q-64 0 -121.5 35t-92.5 129q-51 -96 -134.5 -131.5t-153.5 -35.5h-48q-34 0 -50 22.5
t-20.5 52.5t-4.5 51t4.5 56.5t20.5 64t50 28.5h48q107 0 170 33t96 77t49 77t28 33q20 0 28 -21.5t14 -53.5t20.5 -64t47 -53.5t93.5 -21.5q82 0 136.5 36.5t88 84.5t51.5 84.5t27 36.5q24 0 31 -8t8 -28q1 -14 6 -51t26 -69.5t69 -32.5t80.5 29.5t52.5 67.5t32 67.5
t19 29.5q37 0 37 -31q0 -22 13 -59t39.5 -74.5t66.5 -63t93 -25.5h51q34 0 46 -28.5t13 -64t1 -56.5zM943 -584q0 -8 -17 -39t-40.5 -67.5t-45 -63.5t-29.5 -27q-5 0 -32.5 18.5t-61.5 43.5t-59 46t-25 28t17.5 38t42 67.5t45.5 63.5t27 27q8 0 36 -18.5t61 -43.5t57 -46
t24 -27zM1061 -223q0 -7 -17 -37.5t-40 -66.5t-43.5 -62.5t-27.5 -26.5q-5 0 -30.5 18t-57.5 42t-56 42.5t-26 20.5q-10 8 -16 8q-5 0 -12 -12q-1 -2 -17 -25.5t-38.5 -53.5t-41.5 -53t-27 -23q-4 0 -31.5 18.5t-61 43.5t-58.5 46t-25 27q0 7 18 38t42 67.5t44.5 63.5
t25.5 27q9 0 35 -18t55.5 -41.5t51.5 -42.5t24 -20q11 -9 15 -9q7 0 17 14q2 2 19 25t39 52t41 51t24 22q8 0 35.5 -18.5t60 -43.5t56 -46t23.5 -27z" />
    <glyph glyph-name="uni069B.fina" unicode="&#x69b;" horiz-adv-x="2084" 
d="M2174 138q0 -64 -12 -101t-62 -37h-50q-103 0 -169 63.5t-105 175.5q-37 -97 -82.5 -151.5t-122.5 -54.5q-72 0 -111 39t-55 107q-52 -91 -112.5 -134t-155.5 -45q-4 -53 -9.5 -106.5t-17.5 -102.5q-30 -129 -100.5 -218t-168 -144t-208 -79.5t-219.5 -24.5
q-150 0 -231 55.5t-112.5 140t-31.5 172.5q0 79 25.5 159.5t59 147.5t61 107.5t30.5 40.5q8 0 28.5 -12t20.5 -18q0 -10 -27 -52.5t-54 -105t-27 -135.5q0 -53 30 -104t96.5 -84.5t175.5 -33.5q182 0 314 25t199 89q68 60 68 161q0 85 -22 146.5t-44.5 99.5t-22.5 51
q0 8 18.5 50t43.5 93t46.5 89.5t26.5 38.5q18 -12 33.5 -46t27 -70t16.5 -56q86 0 143 37.5t91 87t52.5 87t27.5 37.5q24 0 31 -8t8 -28q1 -14 6 -51.5t26 -69.5t69 -32t80.5 29.5t52.5 67.5t32 67.5t19 29.5q38 0 38 -31q0 -22 13 -59t39.5 -74.5t66.5 -63t93 -25.5h50
q50 0 62 -27.5t12 -109.5zM1724 -615q0 -8 -17 -39t-40.5 -67.5t-45 -63.5t-29.5 -27q-5 0 -32.5 18.5t-61.5 43.5t-59 46t-25 28t17.5 38t42 67.5t45.5 63.5t27 27q8 0 36 -18.5t61 -43.5t57 -46t24 -27zM1842 -254q0 -7 -17 -37.5t-40 -66.5t-43.5 -62.5t-27.5 -26.5
q-5 0 -30.5 18t-57.5 42t-56 42.5t-26 20.5q-10 8 -16 8q-5 0 -12 -12q-1 -2 -17 -25.5t-38.5 -53.5t-41.5 -53t-27 -23q-4 0 -31.5 18.5t-61 43.5t-58.5 46t-25 27q0 7 18 38t42 67.5t44.5 63.5t25.5 27q9 0 35 -18t55.5 -41.5t51.5 -42.5t24 -20q11 -9 15 -9q7 0 17 14
q2 2 19 25t39 52t41 51t24 22q8 0 35.5 -18.5t60 -43.5t56 -46t23.5 -27z" />
    <glyph glyph-name="uni069C.init" unicode="&#x69c;" horiz-adv-x="1443" 
d="M1305 539q0 -32 -7 -86t-23.5 -115t-44 -115.5t-67 -89.5t-94.5 -35q-75 0 -133 52.5t-90 115.5q-30 -54 -72.5 -115t-98 -104.5t-126.5 -43.5q-55 0 -102 25.5t-80 63.5t-46 75q-51 -76 -124.5 -121.5t-163.5 -45.5h-48q-34 0 -50 26t-20.5 59t-4.5 53q0 21 4.5 53.5
t20.5 58t50 25.5h48q110 0 176 27t102 62.5t53.5 62.5t29.5 27q24 0 33 -26.5t20 -62t37.5 -62t84.5 -26.5q89 0 154.5 44.5t104 111.5t44.5 136q2 11 8 19.5t21 8.5q18 0 29 -34q31 -98 91.5 -147t124.5 -49q30 0 48 14.5t18 32.5q0 26 -26 43t-52 26t-26 12q0 5 8.5 50
t22 101.5t29.5 99.5t30 43q15 0 40.5 -39t46 -96.5t20.5 -114.5zM826 1317q0 -8 -17.5 -38.5t-42 -67t-45 -63.5t-27.5 -27q-8 0 -36 18.5t-61.5 43.5t-57.5 46.5t-24 27.5q0 7 17 38t41 67.5t45.5 63.5t30.5 27q4 0 31.5 -18t61 -43.5t59 -47t25.5 -27.5zM1019 995
q0 -8 -16.5 -38t-40 -66t-44 -62.5t-27.5 -26.5q-4 0 -30 18t-57.5 42t-56 42.5t-25.5 20.5q-10 8 -17 8q-4 0 -11 -12q-1 -2 -17.5 -25.5t-38.5 -53.5t-41.5 -53t-26.5 -23q-5 0 -32 18.5t-60.5 43.5t-58.5 46t-25 27q0 7 17.5 38t42 67.5t45 63.5t24.5 27q10 0 35.5 -18
t55.5 -42t52 -42.5t23 -19.5q11 -10 15 -10q8 0 18 15q1 2 18 25t39.5 52t41 51t23.5 22q8 0 35.5 -18.5t60 -43.5t56 -46t23.5 -27zM968 -606q0 -8 -17 -39t-40.5 -67.5t-45 -63.5t-29.5 -27q-5 0 -32.5 18.5t-61.5 43.5t-59 46t-25 28t17.5 38t42 67.5t45.5 63.5t27 27
q8 0 36 -18.5t61 -43.5t57 -46t24 -27zM1086 -245q0 -7 -17 -37.5t-40 -66.5t-43.5 -62.5t-27.5 -26.5q-5 0 -30.5 18t-57.5 42t-56 42.5t-26 20.5q-10 8 -16 8q-5 0 -12 -12q-1 -2 -17 -25.5t-38.5 -53.5t-41.5 -53t-27 -23q-4 0 -31.5 18.5t-61 43.5t-58.5 46t-25 27
q0 7 18 38t42 67.5t44.5 63.5t25.5 27q9 0 35 -18t55.5 -41.5t51.5 -42.5t24 -20q11 -9 15 -9q7 0 17 14q2 2 19 25t39 52t41 51t24 22q8 0 35.5 -18.5t60 -43.5t56 -46t23.5 -27z" />
    <glyph glyph-name="uni069C.medi" unicode="&#x69c;" horiz-adv-x="1478" 
d="M1566 126q0 -21 -1 -51t-13 -52.5t-46 -22.5h-51q-103 0 -168.5 63.5t-104.5 175.5q-37 -97 -83 -151.5t-123 -54.5q-71 0 -110 39t-55 107q-52 -91 -114 -133.5t-162 -42.5q-64 0 -121.5 35t-92.5 129q-51 -96 -134.5 -131.5t-153.5 -35.5h-48q-34 0 -50 22.5
t-20.5 52.5t-4.5 51t4.5 56.5t20.5 64t50 28.5h48q107 0 170 33t96 77t49 77t28 33q20 0 28 -21.5t14 -53.5t20.5 -64t47 -53.5t93.5 -21.5q82 0 136.5 36.5t88 84.5t51.5 84.5t27 36.5q24 0 31 -8t8 -28q1 -14 6 -51t26 -69.5t69 -32.5t80.5 29.5t52.5 67.5t32 67.5
t19 29.5q37 0 37 -31q0 -22 13 -59t39.5 -74.5t66.5 -63t93 -25.5h51q34 0 46 -28.5t13 -64t1 -56.5zM886 1199q0 -8 -17.5 -38.5t-42 -67t-45 -63.5t-27.5 -27q-8 0 -36 18.5t-61.5 43.5t-57.5 46.5t-24 27.5q0 7 17 38t41 67.5t45.5 63.5t30.5 27q4 0 31.5 -18t61 -43.5
t59 -47t25.5 -27.5zM1079 877q0 -8 -16.5 -38t-40 -66t-44 -62.5t-27.5 -26.5q-4 0 -30 18t-57.5 42t-56 42.5t-25.5 20.5q-10 8 -17 8q-4 0 -11 -12q-1 -2 -17.5 -25.5t-38.5 -53.5t-41.5 -53t-26.5 -23q-5 0 -32 18.5t-60.5 43.5t-58.5 46t-25 27q0 7 17.5 38t42 67.5
t45 63.5t24.5 27q10 0 35.5 -18t55.5 -42t52 -42.5t23 -19.5q11 -10 15 -10q8 0 18 15q1 2 18 25t39.5 52t41 51t23.5 22q8 0 35.5 -18.5t60 -43.5t56 -46t23.5 -27zM943 -584q0 -8 -17 -39t-40.5 -67.5t-45 -63.5t-29.5 -27q-5 0 -32.5 18.5t-61.5 43.5t-59 46t-25 28
t17.5 38t42 67.5t45.5 63.5t27 27q8 0 36 -18.5t61 -43.5t57 -46t24 -27zM1061 -223q0 -7 -17 -37.5t-40 -66.5t-43.5 -62.5t-27.5 -26.5q-5 0 -30.5 18t-57.5 42t-56 42.5t-26 20.5q-10 8 -16 8q-5 0 -12 -12q-1 -2 -17 -25.5t-38.5 -53.5t-41.5 -53t-27 -23
q-4 0 -31.5 18.5t-61 43.5t-58.5 46t-25 27q0 7 18 38t42 67.5t44.5 63.5t25.5 27q9 0 35 -18t55.5 -41.5t51.5 -42.5t24 -20q11 -9 15 -9q7 0 17 14q2 2 19 25t39 52t41 51t24 22q8 0 35.5 -18.5t60 -43.5t56 -46t23.5 -27z" />
    <glyph glyph-name="uni069C.fina" unicode="&#x69c;" horiz-adv-x="2084" 
d="M2174 138q0 -64 -12 -101t-62 -37h-50q-103 0 -169 63.5t-105 175.5q-37 -97 -82.5 -151.5t-122.5 -54.5q-72 0 -111 39t-55 107q-52 -91 -112.5 -134t-155.5 -45q-4 -53 -9.5 -106.5t-17.5 -102.5q-30 -129 -100.5 -218t-168 -144t-208 -79.5t-219.5 -24.5
q-150 0 -231 55.5t-112.5 140t-31.5 172.5q0 79 25.5 159.5t59 147.5t61 107.5t30.5 40.5q8 0 28.5 -12t20.5 -18q0 -10 -27 -52.5t-54 -105t-27 -135.5q0 -53 30 -104t96.5 -84.5t175.5 -33.5q182 0 314 25t199 89q68 60 68 161q0 85 -22 146.5t-44.5 99.5t-22.5 51
q0 8 18.5 50t43.5 93t46.5 89.5t26.5 38.5q18 -12 33.5 -46t27 -70t16.5 -56q86 0 143 37.5t91 87t52.5 87t27.5 37.5q24 0 31 -8t8 -28q1 -14 6 -51.5t26 -69.5t69 -32t80.5 29.5t52.5 67.5t32 67.5t19 29.5q38 0 38 -31q0 -22 13 -59t39.5 -74.5t66.5 -63t93 -25.5h50
q50 0 62 -27.5t12 -109.5zM1563 1247q0 -8 -17.5 -38.5t-42 -67t-45 -63.5t-27.5 -27q-8 0 -36 18.5t-61.5 43.5t-57.5 46.5t-24 27.5q0 7 17 38t41 67.5t45.5 63.5t30.5 27q4 0 31.5 -18t61 -43.5t59 -47t25.5 -27.5zM1756 925q0 -8 -16.5 -38t-40 -66t-44 -62.5
t-27.5 -26.5q-4 0 -30 18t-57.5 42t-56 42.5t-25.5 20.5q-10 8 -17 8q-4 0 -11 -12q-1 -2 -17.5 -25.5t-38.5 -53.5t-41.5 -53t-26.5 -23q-5 0 -32 18.5t-60.5 43.5t-58.5 46t-25 27q0 7 17.5 38t42 67.5t45 63.5t24.5 27q10 0 35.5 -18t55.5 -42t52 -42.5t23 -19.5
q11 -10 15 -10q8 0 18 15q1 2 18 25t39.5 52t41 51t23.5 22q8 0 35.5 -18.5t60 -43.5t56 -46t23.5 -27zM1724 -615q0 -8 -17 -39t-40.5 -67.5t-45 -63.5t-29.5 -27q-5 0 -32.5 18.5t-61.5 43.5t-59 46t-25 28t17.5 38t42 67.5t45.5 63.5t27 27q8 0 36 -18.5t61 -43.5t57 -46
t24 -27zM1842 -254q0 -7 -17 -37.5t-40 -66.5t-43.5 -62.5t-27.5 -26.5q-5 0 -30.5 18t-57.5 42t-56 42.5t-26 20.5q-10 8 -16 8q-5 0 -12 -12q-1 -2 -17 -25.5t-38.5 -53.5t-41.5 -53t-27 -23q-4 0 -31.5 18.5t-61 43.5t-58.5 46t-25 27q0 7 18 38t42 67.5t44.5 63.5
t25.5 27q9 0 35 -18t55.5 -41.5t51.5 -42.5t24 -20q11 -9 15 -9q7 0 17 14q2 2 19 25t39 52t41 51t24 22q8 0 35.5 -18.5t60 -43.5t56 -46t23.5 -27z" />
    <glyph glyph-name="uni069D.init" unicode="&#x69d;" horiz-adv-x="1729" 
d="M1592 608q0 -124 -49 -217.5t-130.5 -160t-180.5 -111t-201 -70t-192 -37t-152 -12.5q-7 -16 -22 -58.5t-27.5 -87t-15.5 -68.5q-5 0 -22.5 20.5t-33.5 44.5t-16 33q0 13 9 49t20 67q-103 0 -183.5 34t-130.5 110q-37 -58 -88.5 -101t-143.5 -43h-48q-51 0 -63 38.5
t-12 99.5q0 71 12 104t63 33h48q86 0 142 27.5t89 63.5t49.5 63.5t23.5 27.5q23 0 26 -29t8 -58q10 -44 55 -64.5t101.5 -25.5t99.5 -5h55q48 90 122 189t166.5 184.5t198 139.5t216.5 54q77 0 122.5 -41t65 -96t19.5 -97zM1452 483q0 15 -49.5 44t-138.5 29
q-75 0 -164.5 -34t-169 -96.5t-124.5 -147.5q109 2 222.5 25.5t209.5 57.5t155 67.5t59 54.5zM1351 -211q0 -7 -17 -37.5t-40 -66.5t-43.5 -62.5t-27.5 -26.5q-5 0 -30.5 18t-57.5 42t-56 42.5t-26 20.5q-10 8 -16 8q-5 0 -12 -12q-1 -2 -17 -25.5t-38.5 -53.5t-41.5 -53
t-27 -23q-4 0 -31.5 18.5t-61 43.5t-58.5 46t-25 27q0 7 18 38t42 67.5t44.5 63.5t25.5 27q9 0 35 -18t55.5 -41.5t51.5 -42.5t24 -20q11 -9 15 -9q7 0 17 14q2 2 19 25t39 52t41 51t24 22q8 0 35.5 -18.5t60 -43.5t56 -46t23.5 -27z" />
    <glyph glyph-name="uni069D.medi" unicode="&#x69d;" horiz-adv-x="1685" 
d="M1775 138q0 -20 -4.5 -53t-20 -59t-49.5 -26h-50q-156 0 -318 0.5t-323 0.5h-162.5t-160.5 -1q-18 -35 -32 -86t-22.5 -89.5t-11.5 -38.5q-22 0 -47.5 33.5t-25.5 64.5q0 13 7 48t20 69q-103 0 -182 33.5t-129 109.5q-37 -58 -88.5 -101t-142.5 -43h-50q-33 0 -49 26
t-20.5 59t-4.5 53q0 21 4.5 53.5t20.5 58t49 25.5h50q86 0 141.5 27.5t88 63.5t49 63.5t23.5 27.5q24 0 27 -31t8 -56q10 -44 55 -64.5t101.5 -25.5t100.5 -5h52q48 90 124 190.5t171.5 189.5t203 144.5t218.5 55.5q71 0 114 -44.5t62 -103t19 -99.5q0 -99 -39 -194
t-140 -154q74 7 109.5 10t61 4t68.5 1h50q34 0 49.5 -25.5t20 -58t4.5 -53.5zM1451 483q0 21 -25 35t-60 22.5t-65 12t-40 3.5q-138 0 -258.5 -65.5t-197.5 -215.5q108 3 221.5 27.5t209.5 58.5t155.5 67.5t59.5 54.5zM1378 -292q0 -7 -17 -37.5t-40 -66.5t-43.5 -62.5
t-27.5 -26.5q-5 0 -30.5 18t-57.5 42t-56 42.5t-26 20.5q-10 8 -16 8q-5 0 -12 -12q-1 -2 -17 -25.5t-38.5 -53.5t-41.5 -53t-27 -23q-4 0 -31.5 18.5t-61 43.5t-58.5 46t-25 27q0 7 18 38t42 67.5t44.5 63.5t25.5 27q9 0 35 -18t55.5 -41.5t51.5 -42.5t24 -20q11 -9 15 -9
q7 0 17 14q2 2 19 25t39 52t41 51t24 22q8 0 35.5 -18.5t60 -43.5t56 -46t23.5 -27z" />
    <glyph glyph-name="uni069D.fina" unicode="&#x69d;" horiz-adv-x="2378" 
d="M2470 138q0 -20 -4.5 -53t-20.5 -59t-49 -26h-51q-104 0 -226 2.5t-238 10t-203 20.5q-68 -4 -142.5 -10t-152.5 -8q-16 -43 -31 -96.5t-25 -93t-13 -39.5q-22 0 -47 33.5t-25 64.5q0 13 9.5 54t23.5 76q-19 0 -44.5 3t-38.5 9q-1 -53 -2.5 -85.5t-5.5 -62.5t-14 -78
q-36 -173 -131 -283t-233 -161.5t-303 -51.5q-156 0 -259 54.5t-154 141.5t-51 183q0 99 30 189.5t70 160.5t72 110.5t36 40.5q11 0 25 -14.5t14 -24.5q0 -9 -31 -51.5t-62.5 -112.5t-31.5 -162q0 -99 60.5 -154t155 -77t197.5 -22q80 0 166 14.5t157.5 41t106.5 61.5
q31 32 53 97t22 142q0 80 -28.5 134.5t-57.5 84.5t-29 36q0 8 16.5 46t38.5 84.5t41 81t24 34.5q16 -23 36 -66.5t27 -72.5q26 -3 93 -6t134 -3q48 90 122 189t166.5 184.5t197.5 139.5t216 54q72 0 118.5 -41.5t69 -96.5t22.5 -96q0 -99 -40 -194t-140 -154q75 7 110.5 10
t60.5 4t68 1h51q33 0 49 -25.5t20.5 -58t4.5 -53.5zM2145 483q0 17 -31 33.5t-75 28t-83 11.5q-75 0 -164.5 -34t-168.5 -96.5t-124 -147.5q108 2 221.5 25.5t210 57.5t155.5 67.5t59 54.5zM2031 -269q0 -7 -17 -37.5t-40 -66.5t-43.5 -62.5t-27.5 -26.5q-5 0 -30.5 18
t-57.5 42t-56 42.5t-26 20.5q-10 8 -16 8q-5 0 -12 -12q-1 -2 -17 -25.5t-38.5 -53.5t-41.5 -53t-27 -23q-4 0 -31.5 18.5t-61 43.5t-58.5 46t-25 27q0 7 18 38t42 67.5t44.5 63.5t25.5 27q9 0 35 -18t55.5 -41.5t51.5 -42.5t24 -20q11 -9 15 -9q7 0 17 14q2 2 19 25t39 52
t41 51t24 22q8 0 35.5 -18.5t60 -43.5t56 -46t23.5 -27z" />
    <glyph glyph-name="uni069E.init" unicode="&#x69e;" horiz-adv-x="1729" 
d="M1592 608q0 -124 -49 -217.5t-130.5 -160t-180.5 -111t-201 -70t-192 -37t-152 -12.5q-7 -16 -22 -58.5t-27.5 -87t-15.5 -68.5q-5 0 -22.5 20.5t-33.5 44.5t-16 33q0 13 9 49t20 67q-103 0 -183.5 34t-130.5 110q-37 -58 -88.5 -101t-143.5 -43h-48q-51 0 -63 38.5
t-12 99.5q0 71 12 104t63 33h48q86 0 142 27.5t89 63.5t49.5 63.5t23.5 27.5q23 0 26 -29t8 -58q10 -44 55 -64.5t101.5 -25.5t99.5 -5h55q48 90 122 189t166.5 184.5t198 139.5t216.5 54q77 0 122.5 -41t65 -96t19.5 -97zM1452 483q0 15 -49.5 44t-138.5 29
q-75 0 -164.5 -34t-169 -96.5t-124.5 -147.5q109 2 222.5 25.5t209.5 57.5t155 67.5t59 54.5zM977 1416q0 -8 -17.5 -38.5t-42 -67t-45 -63.5t-27.5 -27q-8 0 -36 18.5t-61.5 43.5t-57.5 46.5t-24 27.5q0 7 17 38t41 67.5t45.5 63.5t30.5 27q4 0 31.5 -18t61 -43.5t59 -47
t25.5 -27.5zM1170 1094q0 -8 -16.5 -38t-40 -66t-44 -62.5t-27.5 -26.5q-4 0 -30 18t-57.5 42t-56 42.5t-25.5 20.5q-10 8 -17 8q-4 0 -11 -12q-1 -2 -17.5 -25.5t-38.5 -53.5t-41.5 -53t-26.5 -23q-5 0 -32 18.5t-60.5 43.5t-58.5 46t-25 27q0 7 17.5 38t42 67.5t45 63.5
t24.5 27q10 0 35.5 -18t55.5 -42t52 -42.5t23 -19.5q11 -10 15 -10q8 0 18 15q1 2 18 25t39.5 52t41 51t23.5 22q8 0 35.5 -18.5t60 -43.5t56 -46t23.5 -27z" />
    <glyph glyph-name="uni069E.medi" unicode="&#x69e;" horiz-adv-x="1685" 
d="M1775 138q0 -20 -4.5 -53t-20 -59t-49.5 -26h-50q-156 0 -318 0.5t-323 0.5h-162.5t-160.5 -1q-18 -35 -32 -86t-22.5 -89.5t-11.5 -38.5q-22 0 -47.5 33.5t-25.5 64.5q0 13 7 48t20 69q-103 0 -182 33.5t-129 109.5q-37 -58 -88.5 -101t-142.5 -43h-50q-33 0 -49 26
t-20.5 59t-4.5 53q0 21 4.5 53.5t20.5 58t49 25.5h50q86 0 141.5 27.5t88 63.5t49 63.5t23.5 27.5q24 0 27 -31t8 -56q10 -44 55 -64.5t101.5 -25.5t100.5 -5h52q48 90 124 190.5t171.5 189.5t203 144.5t218.5 55.5q71 0 114 -44.5t62 -103t19 -99.5q0 -99 -39 -194
t-140 -154q74 7 109.5 10t61 4t68.5 1h50q34 0 49.5 -25.5t20 -58t4.5 -53.5zM1451 483q0 21 -25 35t-60 22.5t-65 12t-40 3.5q-138 0 -258.5 -65.5t-197.5 -215.5q108 3 221.5 27.5t209.5 58.5t155.5 67.5t59.5 54.5zM948 1440q0 -8 -17.5 -38.5t-42 -67t-45 -63.5
t-27.5 -27q-8 0 -36 18.5t-61.5 43.5t-57.5 46.5t-24 27.5q0 7 17 38t41 67.5t45.5 63.5t30.5 27q4 0 31.5 -18t61 -43.5t59 -47t25.5 -27.5zM1141 1118q0 -8 -16.5 -38t-40 -66t-44 -62.5t-27.5 -26.5q-4 0 -30 18t-57.5 42t-56 42.5t-25.5 20.5q-10 8 -17 8q-4 0 -11 -12
q-1 -2 -17.5 -25.5t-38.5 -53.5t-41.5 -53t-26.5 -23q-5 0 -32 18.5t-60.5 43.5t-58.5 46t-25 27q0 7 17.5 38t42 67.5t45 63.5t24.5 27q10 0 35.5 -18t55.5 -42t52 -42.5t23 -19.5q11 -10 15 -10q8 0 18 15q1 2 18 25t39.5 52t41 51t23.5 22q8 0 35.5 -18.5t60 -43.5
t56 -46t23.5 -27z" />
    <glyph glyph-name="uni069E.fina" unicode="&#x69e;" horiz-adv-x="2378" 
d="M2470 138q0 -20 -4.5 -53t-20.5 -59t-49 -26h-51q-104 0 -226 2.5t-238 10t-203 20.5q-68 -4 -142.5 -10t-152.5 -8q-16 -43 -31 -96.5t-25 -93t-13 -39.5q-22 0 -47 33.5t-25 64.5q0 13 9.5 54t23.5 76q-19 0 -44.5 3t-38.5 9q-1 -53 -2.5 -85.5t-5.5 -62.5t-14 -78
q-36 -173 -131 -283t-233 -161.5t-303 -51.5q-156 0 -259 54.5t-154 141.5t-51 183q0 99 30 189.5t70 160.5t72 110.5t36 40.5q11 0 25 -14.5t14 -24.5q0 -9 -31 -51.5t-62.5 -112.5t-31.5 -162q0 -99 60.5 -154t155 -77t197.5 -22q80 0 166 14.5t157.5 41t106.5 61.5
q31 32 53 97t22 142q0 80 -28.5 134.5t-57.5 84.5t-29 36q0 8 16.5 46t38.5 84.5t41 81t24 34.5q16 -23 36 -66.5t27 -72.5q26 -3 93 -6t134 -3q48 90 122 189t166.5 184.5t197.5 139.5t216 54q72 0 118.5 -41.5t69 -96.5t22.5 -96q0 -99 -40 -194t-140 -154q75 7 110.5 10
t60.5 4t68 1h51q33 0 49 -25.5t20.5 -58t4.5 -53.5zM2145 483q0 17 -31 33.5t-75 28t-83 11.5q-75 0 -164.5 -34t-168.5 -96.5t-124 -147.5q108 2 221.5 25.5t210 57.5t155.5 67.5t59 54.5zM1578 1356q0 -8 -17.5 -38.5t-42 -67t-45 -63.5t-27.5 -27q-8 0 -36 18.5
t-61.5 43.5t-57.5 46.5t-24 27.5q0 7 17 38t41 67.5t45.5 63.5t30.5 27q4 0 31.5 -18t61 -43.5t59 -47t25.5 -27.5zM1771 1034q0 -8 -16.5 -38t-40 -66t-44 -62.5t-27.5 -26.5q-4 0 -30 18t-57.5 42t-56 42.5t-25.5 20.5q-10 8 -17 8q-4 0 -11 -12q-1 -2 -17.5 -25.5
t-38.5 -53.5t-41.5 -53t-26.5 -23q-5 0 -32 18.5t-60.5 43.5t-58.5 46t-25 27q0 7 17.5 38t42 67.5t45 63.5t24.5 27q10 0 35.5 -18t55.5 -42t52 -42.5t23 -19.5q11 -10 15 -10q8 0 18 15q1 2 18 25t39.5 52t41 51t23.5 22q8 0 35.5 -18.5t60 -43.5t56 -46t23.5 -27z" />
    <glyph glyph-name="uni069F.init" unicode="&#x69f;" horiz-adv-x="1222" 
d="M1130 608q0 -51 -16.5 -126.5t-69 -154.5t-160.5 -143q-120 -71 -266.5 -111t-297.5 -56.5t-287 -16.5h-48q-34 0 -50 26t-20.5 59t-4.5 53q0 21 4.5 53.5t20.5 58t50 25.5h48q31 0 59 3.5t56 16.5q21 9 41.5 23.5t41.5 36.5q12 41 18.5 85t6.5 109q0 82 -16 186.5
t-37.5 211.5t-37.5 198.5t-16 148.5q0 40 25.5 91.5t55 89.5t42.5 38q5 0 27.5 -33.5t50.5 -78.5t48.5 -80.5t20.5 -38.5q0 -6 -19 -21t-38 -46.5t-19 -88.5q0 -25 6 -84.5t14 -130.5t14 -130.5t6 -84.5q0 -24 -0.5 -65.5t-2 -83.5t-6.5 -66q128 138 226 216.5t176 111.5
t147 33q77 0 122 -41t65 -96t20 -97zM991 483q0 15 -50.5 44t-139.5 29q-73 0 -162.5 -34t-169.5 -96.5t-126 -148.5q109 2 222.5 26t210 58t156 67.5t59.5 54.5zM878 1456q0 -8 -17.5 -38.5t-42 -67t-45 -63.5t-27.5 -27q-8 0 -36 18.5t-61.5 43.5t-57.5 46.5t-24 27.5
q0 7 17 38t41 67.5t45.5 63.5t30.5 27q4 0 31.5 -18t61 -43.5t59 -47t25.5 -27.5zM1071 1134q0 -8 -16.5 -38t-40 -66t-44 -62.5t-27.5 -26.5q-4 0 -30 18t-57.5 42t-56 42.5t-25.5 20.5q-10 8 -17 8q-4 0 -11 -12q-1 -2 -17.5 -25.5t-38.5 -53.5t-41.5 -53t-26.5 -23
q-5 0 -32 18.5t-60.5 43.5t-58.5 46t-25 27q0 7 17.5 38t42 67.5t45 63.5t24.5 27q10 0 35.5 -18t55.5 -42t52 -42.5t23 -19.5q11 -10 15 -10q8 0 18 15q1 2 18 25t39.5 52t41 51t23.5 22q8 0 35.5 -18.5t60 -43.5t56 -46t23.5 -27z" />
    <glyph glyph-name="uni069F.medi" unicode="&#x69f;" horiz-adv-x="1399" 
d="M1489 138q0 -20 -4.5 -53t-20 -59t-49.5 -26h-1135q-8 -16 -22.5 -58.5t-27 -87t-15.5 -68.5q-15 17 -43.5 52t-28.5 57q0 13 9.5 44.5t18.5 60.5h-186q-34 0 -50 26t-20.5 59t-4.5 53q0 21 4.5 53.5t20.5 58t50 25.5h48q96 0 150.5 6t77.5 18q49 25 59 81q8 53 10 82
t2 87q0 107 -8 192t-31 192q-24 116 -46 198.5t-22 162.5q0 25 15 61.5t36 72t41 59.5t30 24l148 -229q-21 -18 -49 -54.5t-28 -101.5q0 -79 20 -192t20 -238q0 -40 -2.5 -104t-6.5 -111q129 138 226.5 216.5t175.5 111.5t146 33q65 0 111.5 -35.5t72 -89.5t25.5 -109
q0 -85 -36.5 -186.5t-126.5 -171.5q93 11 160 18t135 7h77q34 0 49.5 -25.5t20 -58t4.5 -53.5zM1066 483q0 17 -51.5 45t-137.5 28q-78 0 -166.5 -35t-171 -98t-142.5 -148q119 3 237.5 27.5t216 58.5t156.5 67.5t59 54.5zM962 1453q0 -8 -17.5 -38.5t-42 -67t-45 -63.5
t-27.5 -27q-8 0 -36 18.5t-61.5 43.5t-57.5 46.5t-24 27.5q0 7 17 38t41 67.5t45.5 63.5t30.5 27q4 0 31.5 -18t61 -43.5t59 -47t25.5 -27.5zM1155 1131q0 -8 -16.5 -38t-40 -66t-44 -62.5t-27.5 -26.5q-4 0 -30 18t-57.5 42t-56 42.5t-25.5 20.5q-10 8 -17 8q-4 0 -11 -12
q-1 -2 -17.5 -25.5t-38.5 -53.5t-41.5 -53t-26.5 -23q-5 0 -32 18.5t-60.5 43.5t-58.5 46t-25 27q0 7 17.5 38t42 67.5t45 63.5t24.5 27q10 0 35.5 -18t55.5 -42t52 -42.5t23 -19.5q11 -10 15 -10q8 0 18 15q1 2 18 25t39.5 52t41 51t23.5 22q8 0 35.5 -18.5t60 -43.5
t56 -46t23.5 -27z" />
    <glyph glyph-name="uni069F.fina" unicode="&#x69f;" horiz-adv-x="1748" 
d="M1841 138q0 -70 -12.5 -104t-62.5 -34h-52h-105.5h-182.5h-227.5h-242.5h-226.5h-180.5h-103q-47 0 -85.5 4t-61.5 11q-8 3 -36.5 25.5t-66 56t-73.5 68.5t-60 63.5t-24 41.5q0 6 7.5 15.5t19.5 9.5q48 0 111 -5t126.5 -10t111.5 -5q92 0 142 14t99 66q11 28 16.5 66.5
t7.5 74t2 53.5q0 70 -8.5 171.5t-31.5 212.5q-24 116 -46 198.5t-22 162.5q0 40 25.5 89t55.5 84.5t41 35.5q6 0 29.5 -31.5t51 -73.5t48 -76t20.5 -40q-22 -18 -50 -54.5t-28 -101.5q0 -72 20.5 -188.5t20.5 -241.5q0 -35 -3 -101.5t-7 -113.5q129 138 227 216.5t176 111.5
t146 33q64 0 110.5 -35.5t72 -89.5t25.5 -109q0 -85 -36.5 -186.5t-125.5 -171.5q91 11 169.5 18t124.5 7h79q50 0 62.5 -31t12.5 -106zM1415 483q0 15 -50 44t-139 29q-74 0 -163.5 -34t-169.5 -96.5t-126 -148.5q109 2 223 26t210.5 58t155.5 67.5t59 54.5zM1312 1470
q0 -8 -17.5 -38.5t-42 -67t-45 -63.5t-27.5 -27q-8 0 -36 18.5t-61.5 43.5t-57.5 46.5t-24 27.5q0 7 17 38t41 67.5t45.5 63.5t30.5 27q4 0 31.5 -18t61 -43.5t59 -47t25.5 -27.5zM1505 1148q0 -8 -16.5 -38t-40 -66t-44 -62.5t-27.5 -26.5q-4 0 -30 18t-57.5 42t-56 42.5
t-25.5 20.5q-10 8 -17 8q-4 0 -11 -12q-1 -2 -17.5 -25.5t-38.5 -53.5t-41.5 -53t-26.5 -23q-5 0 -32 18.5t-60.5 43.5t-58.5 46t-25 27q0 7 17.5 38t42 67.5t45 63.5t24.5 27q10 0 35.5 -18t55.5 -42t52 -42.5t23 -19.5q11 -10 15 -10q8 0 18 15q1 2 18 25t39.5 52t41 51
t23.5 22q8 0 35.5 -18.5t60 -43.5t56 -46t23.5 -27z" />
    <glyph glyph-name="uni06A0.init" unicode="&#x6a0;" horiz-adv-x="1136" 
d="M1052 633q0 -4 -3 -34t-10 -62q-2 -13 -10.5 -50.5t-19 -71.5t-21.5 -38q-37 -14 -97 -40.5t-129 -57.5t-135.5 -61.5t-115.5 -52.5q-79 -34 -162.5 -72.5t-163.5 -65.5t-152 -27h-48q-34 0 -50 26t-20.5 59t-4.5 53q0 21 4.5 53.5t20.5 58t50 25.5h48q52 0 102.5 7.5
t103.5 34.5q-23 20 -52 45t-50 61t-21 86t32 108.5t81.5 116.5t103.5 107t98 80q47 32 93 47t80 15q47 0 97.5 -29t94.5 -70t71 -78t27 -53q0 -7 -6.5 -18.5t-12.5 -11.5q-5 0 -36 14.5t-72 29t-76 14.5q-56 0 -122 -15t-125 -35q-66 -22 -105 -53t-39 -56q0 -18 28 -45
t71.5 -54t90.5 -45.5t84 -18.5q41 0 96.5 19t115.5 46.5t114 55t92.5 46.5t50.5 19q9 0 9 -12zM640 1644q0 -8 -17.5 -38.5t-42 -67t-45 -63.5t-27.5 -27q-8 0 -36 18.5t-61.5 43.5t-57.5 46.5t-24 27.5q0 7 17 38t41 67.5t45.5 63.5t30.5 27q4 0 31.5 -18t61 -43.5t59 -47
t25.5 -27.5zM833 1322q0 -8 -16.5 -38t-40 -66t-44 -62.5t-27.5 -26.5q-4 0 -30 18t-57.5 42t-56 42.5t-25.5 20.5q-10 8 -17 8q-4 0 -11 -12q-1 -2 -17.5 -25.5t-38.5 -53.5t-41.5 -53t-26.5 -23q-5 0 -32 18.5t-60.5 43.5t-58.5 46t-25 27q0 7 17.5 38t42 67.5t45 63.5
t24.5 27q10 0 35.5 -18t55.5 -42t52 -42.5t23 -19.5q11 -10 15 -10q8 0 18 15q1 2 18 25t39.5 52t41 51t23.5 22q8 0 35.5 -18.5t60 -43.5t56 -46t23.5 -27z" />
    <glyph glyph-name="uni06A0.medi" unicode="&#x6a0;" horiz-adv-x="898" 
d="M988 138q0 -20 -4.5 -53t-20 -59t-49.5 -26h-50q-76 0 -145 41.5t-124.5 98t-92 106t-49.5 65.5q-24 -35 -65.5 -87t-97.5 -103.5t-121 -86t-136 -34.5h-48q-34 0 -50 26t-20.5 59t-4.5 53q0 21 4.5 53.5t20.5 58t50 25.5h48q77 0 158.5 21t148.5 80q-91 46 -154.5 74.5
t-63.5 38.5q0 17 13.5 59t48.5 89.5t99.5 81t167.5 33.5q93 0 162.5 -35t107.5 -85t38 -94q0 -37 -27.5 -73t-68.5 -61.5t-83 -30.5q37 -43 118 -70.5t166 -27.5h50q34 0 49.5 -25.5t20 -58t4.5 -53.5zM568 1483q0 -8 -17.5 -38.5t-42 -67t-45 -63.5t-27.5 -27
q-8 0 -36 18.5t-61.5 43.5t-57.5 46.5t-24 27.5q0 7 17 38t41 67.5t45.5 63.5t30.5 27q4 0 31.5 -18t61 -43.5t59 -47t25.5 -27.5zM761 1161q0 -8 -16.5 -38t-40 -66t-44 -62.5t-27.5 -26.5q-4 0 -30 18t-57.5 42t-56 42.5t-25.5 20.5q-10 8 -17 8q-4 0 -11 -12
q-1 -2 -17.5 -25.5t-38.5 -53.5t-41.5 -53t-26.5 -23q-5 0 -32 18.5t-60.5 43.5t-58.5 46t-25 27q0 7 17.5 38t42 67.5t45 63.5t24.5 27q10 0 35.5 -18t55.5 -42t52 -42.5t23 -19.5q11 -10 15 -10q8 0 18 15q1 2 18 25t39.5 52t41 51t23.5 22q8 0 35.5 -18.5t60 -43.5
t56 -46t23.5 -27z" />
    <glyph glyph-name="uni06A0.fina" unicode="&#x6a0;" horiz-adv-x="1124" 
d="M1482 -784q0 -9 -47.5 -35t-124.5 -59.5t-166 -65.5t-173 -53t-146 -21q-139 0 -274.5 34t-246.5 108t-177 192t-66 286q0 146 55.5 282t146 258.5t195.5 224.5q-42 30 -93.5 55t-88.5 43t-37 25q0 30 19.5 73.5t59.5 87t102.5 72.5t148.5 29q108 0 176.5 -41.5
t100.5 -92.5t32 -80q0 -28 -24 -63.5t-64.5 -65.5t-89.5 -39q53 -58 161 -76.5t229 -18.5h50q50 0 61.5 -29.5t11.5 -107.5q0 -68 -11.5 -103t-61.5 -35h-50q-140 0 -269.5 53.5t-249.5 212.5q-99 -56 -187 -135t-143.5 -182.5t-55.5 -234.5q0 -260 230 -371t678 -111
q182 0 271.5 15.5t103.5 15.5q4 0 9 -21t5 -26zM661 1405q0 -8 -17.5 -38.5t-42 -67t-45 -63.5t-27.5 -27q-8 0 -36 18.5t-61.5 43.5t-57.5 46.5t-24 27.5q0 7 17 38t41 67.5t45.5 63.5t30.5 27q4 0 31.5 -18t61 -43.5t59 -47t25.5 -27.5zM854 1083q0 -8 -16.5 -38t-40 -66
t-44 -62.5t-27.5 -26.5q-4 0 -30 18t-57.5 42t-56 42.5t-25.5 20.5q-10 8 -17 8q-4 0 -11 -12q-1 -2 -17.5 -25.5t-38.5 -53.5t-41.5 -53t-26.5 -23q-5 0 -32 18.5t-60.5 43.5t-58.5 46t-25 27q0 7 17.5 38t42 67.5t45 63.5t24.5 27q10 0 35.5 -18t55.5 -42t52 -42.5
t23 -19.5q11 -10 15 -10q8 0 18 15q1 2 18 25t39.5 52t41 51t23.5 22q8 0 35.5 -18.5t60 -43.5t56 -46t23.5 -27z" />
    <glyph glyph-name="uni06A1.init" unicode="&#x6a1;" horiz-adv-x="686" 
d="M609 503q0 -95 -21 -169.5t-71 -145.5q-22 -32 -83 -76.5t-161 -78t-240 -33.5h-48q-34 0 -50 26t-20.5 59t-4.5 53q0 21 4.5 53.5t20.5 58t50 25.5h48q165 0 268.5 28.5t152.5 66.5t49 66q0 20 -17 49t-36 49q-9 -36 -37 -74.5t-70 -65.5t-95 -27q-72 0 -127.5 40
t-55.5 149q0 34 14.5 90t39.5 119.5t57.5 120t69.5 92.5t75 36q45 0 95.5 -45t94 -119.5t71 -165t27.5 -181.5zM346 673q0 8 -32.5 33t-68.5 25q-15 0 -28.5 -15.5t-13.5 -31.5t13.5 -38t44.5 -22t58 21t27 28z" />
    <glyph glyph-name="uni06A1.medi" unicode="&#x6a1;" horiz-adv-x="849" 
d="M940 138q0 -20 -5 -53t-20.5 -59t-48.5 -26h-50q-97 0 -178.5 19.5t-142 46t-95.5 45.5q-34 -18 -93 -44.5t-130.5 -46.5t-143.5 -20h-48q-34 0 -50 26t-20.5 59t-4.5 53q0 21 4.5 53.5t20.5 58t50 25.5h48q50 0 104 7t88 15q-7 12 -12.5 39t-5.5 56q0 75 41.5 170.5
t101.5 177.5q56 74 118.5 124t113.5 50q47 0 82 -33.5t57.5 -83.5t33.5 -101.5t11 -87.5q0 -157 -124 -306q41 -12 84 -19.5t90 -7.5h50q33 0 48.5 -25.5t20.5 -58t5 -53.5zM649 528q0 17 -17 44t-48.5 48.5t-77.5 21.5q-23 0 -60.5 -16t-67 -38.5t-29.5 -43.5t23.5 -52
t55.5 -61t57 -48q65 31 114.5 70t49.5 75z" />
    </font>
</defs>
</svg>
