<svg xmlns="http://www.w3.org/2000/svg">
<defs>
<font id="ScheherazadeNew-SemiBold" horiz-adv-x="0" >
  <font-face 
    font-family="Scheherazade New SemiBold"
    font-weight="600"
    font-stretch="normal"
    units-per-em="2048"
    panose-1="1 0 6 0 2 0 0 2 0 3"
    ascent="1638"
    descent="-410"
    x-height="828"
    cap-height="1226"
    bbox="-1507 -1567 7420 2780"
    underline-thickness="100"
    underline-position="-850"
    unicode-range="U+0020-10EFF"
  />
<missing-glyph horiz-adv-x="1646" 
d="M1164 1138q0 -5 -13.5 -28t-28 -44t-19.5 -21q-4 0 -25 14t-40.5 29.5t-19.5 20.5t14 28t29 44t19 21q5 0 25.5 -14.5t39.5 -30.5t19 -19zM1262 972q0 -5 -13.5 -28t-29 -44t-20.5 -21q-2 0 -19.5 13t-35.5 26.5t-20 15.5q-6 6 -12 6q-5 0 -9 -5q-1 -2 -13 -20t-25 -35
t-17 -17q-3 0 -24 14.5t-41 30t-20 19.5q0 5 14 27.5t29.5 43.5t18.5 21q6 0 24 -14t35 -28t19 -16q6 -4 9 -4q6 0 9 7q1 2 13 19.5t25.5 34.5t16.5 17q5 0 26 -14.5t40.5 -30t19.5 -18.5zM1404 650q0 -38 -13 -87.5t-40 -86.5t-69 -37q-55 0 -84.5 31.5t-46.5 45.5
q-87 -142 -179 -142q0 -153 -43 -248t-112.5 -145.5t-153 -68.5t-164.5 -18q-110 0 -174 70t-64 164q0 61 24 120.5t50.5 99t32.5 39.5q13 0 13 -10q0 -8 -16.5 -35t-33 -68.5t-16.5 -93.5q0 -62 39 -98.5t92 -51.5t93 -15q82 0 167 16.5t129 46.5q50 34 68 80t18 116
q0 60 -12.5 96t-25 56.5t-12.5 30.5q0 7 10.5 31t23 46.5t16.5 22.5q22 -30 35 -74q47 0 94 25.5t80 67.5t39 92q2 19 13 19q10 0 13 -23q7 -40 32 -61t53.5 -29t44.5 -8q6 0 20 7.5t14 13.5q0 12 -21 28t-21 20t7 31.5t16 54t14 26.5q11 0 22.5 -18t19.5 -41t8 -38z
M1523 1444h-1400v-1775h1400v1775zM87 -367v1847h1472v-1847h-1472z" />
    <glyph glyph-name="uni0624" unicode="&#x648;&#x654;" horiz-adv-x="862" 
d="M792 218q0 -116 -27 -239.5t-76 -238.5t-115 -207t-144.5 -146t-164.5 -54q-65 0 -130 28t-119.5 64.5t-87.5 66.5t-33 34q0 6 10.5 20.5t14.5 14.5q5 0 35.5 -13t73 -26.5t84.5 -13.5q104 0 205.5 50.5t184 133.5t131.5 182t49 197q0 66 -10 116q-29 -47 -75.5 -76.5
t-82.5 -29.5q-35 0 -76 24t-70 67t-29 101q0 53 21 125.5t55 142t73 115.5t73 46q50 0 103.5 -56t90 -164.5t36.5 -263.5zM581 388q-14 19 -34.5 37.5t-41.5 18.5q-38 0 -38 -59q0 -15 12.5 -29t31.5 -14q23 0 42.5 14t27.5 32zM787 1059q0 -9 -9 -31.5t-22.5 -42.5
t-27.5 -25q-11 -3 -46.5 -17t-80 -31t-82.5 -31q-67 -26 -110.5 -47t-54.5 -21q-15 0 -15 16q0 13 16 45.5t22 41.5q8 9 34 23.5t36 17.5q-20 7 -48 30t-28 62q0 28 18.5 64t44.5 69.5t47 54.5q53 53 90 63.5t65 10.5q30 0 56 -24t26 -59q0 -19 -8.5 -45t-19.5 -45t-18 -19
t-27.5 12.5t-45 24.5t-43.5 12q-27 0 -47 -16.5t-20 -32.5q0 -5 26.5 -24t62 -36.5t62.5 -18.5q34 8 80 21.5t54 14.5q13 0 13 -17z" />
    <glyph glyph-name="uni0626" unicode="&#x64a;&#x654;" horiz-adv-x="1640" 
d="M1530 902l-67 -243q-23 21 -46 34t-70 13q-49 0 -113.5 -25t-125 -65t-100 -87t-39.5 -91q0 -35 42.5 -60.5t103.5 -42t116 -25.5q79 -11 132 -24.5t79 -43.5q15 -18 18.5 -46.5t3.5 -68.5q0 -47 -38 -105t-88 -98q-86 -68 -211.5 -130t-274 -101t-306.5 -39
q-166 0 -270.5 52t-153.5 144t-49 211q0 86 31 178.5t72 172t73.5 129t35.5 49.5q7 0 24.5 -12.5t16.5 -17.5q-2 -5 -21 -39.5t-43 -88t-42.5 -118.5t-18.5 -132q0 -120 63 -180.5t164.5 -80.5t217.5 -20q74 0 164.5 13.5t180.5 35t165 45.5t120.5 46t45.5 35q0 24 -64 38
t-206 38q-47 8 -98 27.5t-86.5 60t-35.5 112.5q0 49 28 114t74 132.5t101 122.5q57 57 126.5 109t141.5 85t135 33q28 0 60 -14t32 -32zM872 1140q0 -10 -9 -32t-22.5 -42.5t-26.5 -24.5q-11 -4 -47 -17.5t-80.5 -31t-81.5 -30.5q-67 -26 -110.5 -47t-54.5 -21q-15 0 -15 16
q0 13 15.5 45.5t21.5 40.5q9 10 34.5 24t36.5 18q-21 7 -48.5 30t-27.5 61q0 29 18.5 65t44 69.5t47.5 54.5q53 53 90 63.5t65 10.5q30 0 56 -24t26 -59q0 -20 -8.5 -45.5t-19.5 -44.5t-18 -19q-8 0 -28 12t-44.5 24.5t-44.5 12.5q-26 0 -46 -16.5t-20 -32.5q0 -6 26 -24.5
t61.5 -36t63.5 -18.5q34 8 79.5 21.5t53.5 13.5q13 1 13 -16z" />
    <glyph glyph-name="uni06C0" unicode="&#x6d5;&#x654;" horiz-adv-x="760" 
d="M669 375q0 -110 -39 -198.5t-112 -139.5t-175 -51q-66 0 -120 37.5t-86 102.5t-32 146q0 56 25 120t67 151q22 45 52 99.5t60.5 94t53.5 39.5q49 0 102.5 -35t99.5 -93t75 -129t29 -144zM569 341q0 15 -28 38.5t-70 46.5t-84.5 38.5t-72.5 15.5q-25 0 -47.5 -28
t-36.5 -64.5t-14 -60.5t25 -42t60 -28t65 -10q35 0 83 11t84 32t36 51zM600 1154q0 -9 -9 -31.5t-22.5 -42.5t-26.5 -25q-11 -3 -47 -17t-80.5 -31t-81.5 -31q-67 -26 -110.5 -47t-54.5 -21q-15 0 -15 16q0 13 15.5 45.5t21.5 41.5q9 9 34.5 23.5t36.5 17.5q-21 7 -48.5 30
t-27.5 62q0 28 18.5 64t44 69.5t47.5 54.5q53 53 90 63.5t65 10.5q30 0 56 -24t26 -59q0 -19 -8.5 -45t-19.5 -45t-18 -19q-8 0 -28 12.5t-44.5 24.5t-44.5 12q-26 0 -46 -16.5t-20 -32.5q0 -5 26 -24t61.5 -36.5t63.5 -18.5q34 8 79.5 21.5t53.5 14.5q13 0 13 -17z" />
    <glyph glyph-name="uni06C2" unicode="&#x6c1;&#x654;" horiz-adv-x="760" 
d="M669 375q0 -110 -39 -198.5t-112 -139.5t-175 -51q-66 0 -120 37.5t-86 102.5t-32 146q0 56 25 120t67 151q22 45 52 99.5t60.5 94t53.5 39.5q49 0 102.5 -35t99.5 -93t75 -129t29 -144zM569 341q0 15 -28 38.5t-70 46.5t-84.5 38.5t-72.5 15.5q-25 0 -47.5 -28
t-36.5 -64.5t-14 -60.5t25 -42t60 -28t65 -10q35 0 83 11t84 32t36 51zM600 1154q0 -9 -9 -31.5t-22.5 -42.5t-26.5 -25q-11 -3 -47 -17t-80.5 -31t-81.5 -31q-67 -26 -110.5 -47t-54.5 -21q-15 0 -15 16q0 13 15.5 45.5t21.5 41.5q9 9 34.5 23.5t36.5 17.5q-21 7 -48.5 30
t-27.5 62q0 28 18.5 64t44 69.5t47.5 54.5q53 53 90 63.5t65 10.5q30 0 56 -24t26 -59q0 -19 -8.5 -45t-19.5 -45t-18 -19q-8 0 -28 12.5t-44.5 24.5t-44.5 12q-26 0 -46 -16.5t-20 -32.5q0 -5 26 -24t61.5 -36.5t63.5 -18.5q34 8 79.5 21.5t53.5 14.5q13 0 13 -17z" />
    <glyph glyph-name="uni0651064B" unicode="&#x64b;&#x651;" 
d="M515 1794q0 -108 -41.5 -189t-129.5 -81q-31 0 -54 8.5t-43 23.5q-31 -50 -67 -89.5t-98 -39.5q-59 0 -96.5 48t-37.5 123q0 26 9.5 87.5t32.5 103.5q0 3 15.5 3h21.5q9 1 8.5 -28t-0.5 -67.5t10.5 -68t42.5 -29.5q39 0 63.5 38.5t38.5 89t20 91t8 44.5q4 5 18.5 6
t23.5 1t13 -25.5t10 -59.5t20.5 -59.5t43.5 -25.5q32 0 49.5 30.5t25.5 73t10 80.5t2 52q4 9 21 16.5t23 7.5q7 0 15.5 -26t15 -64.5t6.5 -74.5zM489 2263q0 -5 -9.5 -33.5t-21.5 -58t-21 -38.5q-9 -10 -25 -19t-37 -20l-326 -174q-36 -19 -49 -27.5t-24 -8.5q-16 0 -16 17
q0 8 7.5 34.5t17.5 53t17 33.5q5 6 15.5 13t31.5 18l335 180q25 12 52.5 28.5t36.5 16.5q16 0 16 -15zM489 2518q0 -5 -9.5 -33.5t-21.5 -58t-21 -38.5q-9 -10 -25 -19t-37 -20l-326 -174q-36 -19 -49 -27.5t-24 -8.5q-16 0 -16 17q0 8 7.5 34.5t17.5 53t17 33.5
q5 6 15.5 13t31.5 18l335 180q25 12 52.5 28.5t36.5 16.5q16 0 16 -15z" />
    <glyph glyph-name="uni0651064C" unicode="&#x64c;&#x651;" 
d="M515 1794q0 -108 -41.5 -189t-129.5 -81q-31 0 -54 8.5t-43 23.5q-31 -50 -67 -89.5t-98 -39.5q-59 0 -96.5 48t-37.5 123q0 26 9.5 87.5t32.5 103.5q0 3 15.5 3h21.5q9 1 8.5 -28t-0.5 -67.5t10.5 -68t42.5 -29.5q39 0 63.5 38.5t38.5 89t20 91t8 44.5q4 5 18.5 6
t23.5 1t13 -25.5t10 -59.5t20.5 -59.5t43.5 -25.5q32 0 49.5 30.5t25.5 73t10 80.5t2 52q4 9 21 16.5t23 7.5q7 0 15.5 -26t15 -64.5t6.5 -74.5zM507 2150q0 -27 -5.5 -49.5t-21.5 -22.5q-9 0 -31 12t-45 27t-36 25q-60 -60 -123.5 -105.5t-118.5 -71t-87 -25.5q-16 0 -30 7
t-14 17q0 6 13 30.5t26 58t13 68.5t-14 59t-51 24q-28 0 -43 -23.5t-21.5 -47t-9.5 -23.5q-17 0 -21 10t-4 27q0 38 11.5 90.5t39.5 93t76 40.5q53 0 79 -30.5t34.5 -74t8.5 -81.5q0 -54 -8 -89q42 19 84 48.5t73 54.5q-31 21 -65 53t-34 83q0 42 26.5 97.5t74 97
t108.5 41.5q58 0 87 -42.5t29 -103.5q0 -44 -20.5 -91t-36.5 -76q29 -25 43 -46t14 -62zM393 2368q0 38 -22 61.5t-51 23.5q-16 0 -24.5 -14.5t-8.5 -25.5q0 -17 16.5 -42.5t71.5 -60.5q5 10 11.5 25.5t6.5 32.5z" />
    <glyph glyph-name="uni0651064D" unicode="&#x64d;&#x34f;&#x651;" 
d="M515 2361q0 -108 -41.5 -189t-129.5 -81q-31 0 -54 8.5t-43 23.5q-31 -50 -67 -89.5t-98 -39.5q-59 0 -96.5 48t-37.5 123q0 26 9.5 87.5t32.5 103.5q0 3 15.5 3h21.5q9 1 8.5 -28t-0.5 -67.5t10.5 -68t42.5 -29.5q39 0 63.5 38.5t38.5 89t20 91t8 44.5q4 5 18.5 6
t23.5 1t13 -25.5t10 -59.5t20.5 -59.5t43.5 -25.5q32 0 49.5 30.5t25.5 73t10 80.5t2 52q4 9 21 16.5t23 7.5q7 0 15.5 -26t15 -64.5t6.5 -74.5zM503 2014q0 -5 -9.5 -33.5t-21.5 -58t-21 -38.5q-9 -10 -25 -19t-37 -20l-326 -174q-36 -19 -49 -27.5t-24 -8.5q-16 0 -16 17
q0 8 7.5 34.5t17.5 53t17 33.5q5 6 15.5 13t31.5 18l335 180q25 12 52.5 28.5t36.5 16.5q16 0 16 -15zM503 1761q0 -5 -9.5 -33.5t-21.5 -58t-21 -38.5q-9 -10 -25 -19t-37 -20l-326 -174q-36 -19 -49 -27.5t-24 -8.5q-16 0 -16 17q0 8 7.5 34.5t17.5 53t17 33.5
q5 6 15.5 13t31.5 18l335 180q25 12 52.5 28.5t36.5 16.5q16 0 16 -15z" />
    <glyph glyph-name="uni0651064E" unicode="&#x64e;&#x651;" 
d="M494 2272q0 -5 -9.5 -33.5t-21.5 -58t-21 -38.5q-9 -10 -25 -19t-37 -20l-326 -174q-36 -19 -49 -27.5t-24 -8.5q-16 0 -16 17q0 8 7.5 34.5t17.5 53t17 33.5q5 6 15.5 13t31.5 18l335 180q25 12 52.5 28.5t36.5 16.5q16 0 16 -15zM515 1794q0 -108 -41.5 -189
t-129.5 -81q-31 0 -54 8.5t-43 23.5q-31 -50 -67 -89.5t-98 -39.5q-59 0 -96.5 48t-37.5 123q0 26 9.5 87.5t32.5 103.5q0 3 15.5 3h21.5q9 1 8.5 -28t-0.5 -67.5t10.5 -68t42.5 -29.5q39 0 63.5 38.5t38.5 89t20 91t8 44.5q4 5 18.5 6t23.5 1t13 -25.5t10 -59.5t20.5 -59.5
t43.5 -25.5q32 0 49.5 30.5t25.5 73t10 80.5t2 52q4 9 21 16.5t23 7.5q7 0 15.5 -26t15 -64.5t6.5 -74.5z" />
    <glyph glyph-name="uni0651064F" unicode="&#x64f;&#x651;" 
d="M515 1794q0 -108 -41.5 -189t-129.5 -81q-31 0 -54 8.5t-43 23.5q-31 -50 -67 -89.5t-98 -39.5q-59 0 -96.5 48t-37.5 123q0 26 9.5 87.5t32.5 103.5q0 3 15.5 3h21.5q9 1 8.5 -28t-0.5 -67.5t10.5 -68t42.5 -29.5q39 0 63.5 38.5t38.5 89t20 91t8 44.5q4 5 18.5 6
t23.5 1t13 -25.5t10 -59.5t20.5 -59.5t43.5 -25.5q32 0 49.5 30.5t25.5 73t10 80.5t2 52q4 9 21 16.5t23 7.5q7 0 15.5 -26t15 -64.5t6.5 -74.5zM340 2522q62 0 88.5 -48t26.5 -103q0 -68 -41 -147t-102 -150t-122.5 -116t-103.5 -45q-36 0 -85 16t-72 32q133 57 225.5 123
t141 126.5t48.5 101.5q0 28 -23.5 55.5t-57.5 27.5q-15 0 -21 -9.5t-6 -18.5q0 -22 32 -55t75.5 -67t82 -61t52.5 -36q7 -4 7 -13q0 -14 -13.5 -43.5t-29.5 -54t-22 -24.5q-12 0 -56.5 25.5t-98 65.5t-93 85.5t-39.5 84.5q0 42 27.5 100.5t74.5 103t105 44.5z" />
    <glyph glyph-name="uni06510650" unicode="&#x650;&#x34f;&#x651;" 
d="M503 1781q0 -5 -9.5 -33.5t-21.5 -58t-21 -38.5q-9 -10 -25 -19t-37 -20l-326 -174q-36 -19 -49 -27.5t-24 -8.5q-16 0 -16 17q0 8 7.5 34.5t17.5 53t17 33.5q5 6 15.5 13t31.5 18l335 180q25 12 52.5 28.5t36.5 16.5q16 0 16 -15zM515 2125q0 -108 -41.5 -189
t-129.5 -81q-31 0 -54 8.5t-43 23.5q-31 -50 -67 -89.5t-98 -39.5q-59 0 -96.5 48t-37.5 123q0 26 9.5 87.5t32.5 103.5q0 3 15.5 3h21.5q9 1 8.5 -28t-0.5 -67.5t10.5 -68t42.5 -29.5q39 0 63.5 38.5t38.5 89t20 91t8 44.5q4 5 18.5 6t23.5 1t13 -25.5t10 -59.5t20.5 -59.5
t43.5 -25.5q32 0 49.5 30.5t25.5 73t10 80.5t2 52q4 9 21 16.5t23 7.5q7 0 15.5 -26t15 -64.5t6.5 -74.5z" />
    <glyph glyph-name="uni0620.init" unicode="&#x620;" horiz-adv-x="567" 
d="M439 445q0 -203 -110.5 -324t-296.5 -121h-54q-37 0 -53.5 29t-16.5 95q0 65 19 92.5t51 27.5h54q42 0 91.5 3.5t93.5 11.5t67 20q27 15 39.5 32t12.5 28q0 20 -20.5 47.5t-47.5 56t-47.5 53.5t-20.5 40q0 8 13 38t33 68.5t42 75t39 58.5q41 -70 76.5 -159.5t35.5 -171.5
zM440 -340q0 -95 -63.5 -163t-156.5 -68q-71 0 -110 50t-39 158q0 57 26 108t73 83.5t110 32.5q46 0 82 -32t57 -78.5t21 -90.5zM343 -374q0 17 -21.5 40.5t-50.5 41t-53 17.5q-34 0 -52 -24t-18 -50q0 -29 30.5 -48.5t73.5 -19.5q25 0 58 14t33 29z" />
    <glyph glyph-name="uni0620.medi" unicode="&#x620;" horiz-adv-x="560" 
d="M655 124q0 -55 -12 -89.5t-64 -34.5h-53q-39 0 -65.5 11t-50.5 34q-20 18 -40.5 49t-32.5 65q-49 -61 -115 -110t-188 -49h-50q-52 0 -64 33t-12 91q0 53 12 86.5t64 33.5h50q103 0 166 27t97.5 63t53 63t32.5 27q9 0 16.5 -16t18.5 -60q8 -34 30.5 -69t77.5 -35h53
q52 0 64 -32.5t12 -87.5zM485 -329q0 -96 -63 -164t-157 -68q-70 0 -109 50.5t-39 158.5q0 57 26 108t72.5 83.5t109.5 32.5q46 0 82.5 -32t57 -79t20.5 -90zM388 -363q0 16 -21 39.5t-50.5 41.5t-52.5 18q-34 0 -52.5 -24t-18.5 -50q0 -29 31 -49t74 -20q25 0 57.5 14.5
t32.5 29.5z" />
    <glyph glyph-name="uni0620.fina" unicode="&#x620;" horiz-adv-x="1228" 
d="M1328 122q0 -21 -4.5 -49.5t-20.5 -50.5t-51 -22h-156q-25 0 -71 -1t-93 -4t-72 -11q-46 -13 -75 -36.5t-29 -48.5q0 -19 33.5 -29t100.5 -19q106 -12 176.5 -48t70.5 -132q0 -52 -35.5 -109.5t-84.5 -98.5q-51 -42 -124.5 -85t-158 -79t-168 -58t-155.5 -22
q-61 0 -130 31.5t-129.5 74.5t-99 80t-38.5 48q0 9 9 20t18 11q16 0 102 -16t212 -16q130 0 249.5 20.5t213.5 50.5t148.5 60.5t54.5 49.5q0 30 -48 39.5t-140 12.5q-112 4 -169.5 38t-57.5 108q0 39 17.5 81.5t43.5 79.5q57 86 141.5 149.5t166.5 87.5q30 8 81 11.5t82 3.5
h114q35 0 51 -21.5t20.5 -50t4.5 -50.5z" />
    <glyph glyph-name="uni0622.fina" unicode="&#x622;" horiz-adv-x="524" arabic-form="final" 
d="M629 130q0 -130 -73 -130h-50q-114 0 -190.5 58t-97.5 208q-15 103 -32 257t-36 321q-15 133 -26.5 235t-11.5 150q0 16 17.5 51.5t41.5 74.5t44 66.5t24 27.5q9 0 21 -14.5t13 -37.5q10 -171 19.5 -337.5t18 -310t17.5 -248.5t17 -153q13 -60 59 -79.5t102 -19.5h50
q39 0 56 -27.5t17 -91.5zM717 1797q0 -23 -41 -50t-107 -54.5t-142.5 -50t-148 -36.5t-121.5 -14q-86 0 -159 5.5t-90 5.5q-16 0 -21.5 -28.5t-14 -57t-33.5 -28.5q-32 0 -58.5 30.5t-43 71t-16.5 69.5q0 66 39.5 105.5t123.5 39.5q46 0 127 -12t166 -12q158 0 265.5 15.5
t167 31t73.5 15.5q24 0 29 -15t5 -31z" />
    <glyph glyph-name="uni0623.fina" unicode="&#x623;" horiz-adv-x="524" arabic-form="final" 
d="M629 130q0 -130 -73 -130h-50q-114 0 -190.5 58t-97.5 208q-15 103 -32 257t-36 321q-15 133 -26.5 235t-11.5 150q0 16 17.5 51.5t41.5 74.5t44 66.5t24 27.5q9 0 21 -14.5t13 -37.5q10 -171 19.5 -337.5t18 -310t17.5 -248.5t17 -153q13 -60 59 -79.5t102 -19.5h50
q39 0 56 -27.5t17 -91.5zM426 1777q0 -10 -9 -32t-22.5 -42.5t-26.5 -24.5q-11 -4 -47 -17.5t-80.5 -31t-81.5 -30.5q-67 -26 -110.5 -47t-54.5 -21q-15 0 -15 16q0 13 15.5 45.5t21.5 40.5q9 10 34.5 24t36.5 18q-21 7 -48.5 30t-27.5 61q0 29 18.5 65t44 69.5t47.5 54.5
q53 53 90 63.5t65 10.5q30 0 56 -24t26 -59q0 -20 -8.5 -45.5t-19.5 -44.5t-18 -19q-8 0 -28 12t-44.5 24.5t-44.5 12.5q-26 0 -46 -16.5t-20 -32.5q0 -6 26 -24.5t61.5 -36t63.5 -18.5q34 8 79.5 21.5t53.5 13.5q13 1 13 -16z" />
    <glyph glyph-name="uni0625.fina" unicode="&#x625;" horiz-adv-x="524" arabic-form="final" 
d="M629 130q0 -130 -73 -130h-50q-114 0 -190.5 58t-97.5 208q-15 103 -32 257t-36 321q-15 133 -26.5 235t-11.5 150q0 16 17.5 51.5t41.5 74.5t44 66.5t24 27.5q9 0 21 -14.5t13 -37.5q10 -171 19.5 -337.5t18 -310t17.5 -248.5t17 -153q13 -60 59 -79.5t102 -19.5h50
q39 0 56 -27.5t17 -91.5zM543 -495q0 -10 -9 -32t-22.5 -42.5t-27.5 -24.5q-11 -4 -46.5 -17.5t-80 -31t-82.5 -30.5q-67 -26 -110.5 -47t-53.5 -21q-16 0 -16 16q0 13 16 45.5t22 40.5q8 10 34 24t37 18q-21 7 -48.5 30t-27.5 61q0 29 18.5 65t44 69.5t46.5 54.5
q54 53 91 63.5t64 10.5q30 0 56.5 -24t26.5 -59q0 -20 -8.5 -45.5t-19.5 -44.5t-19 -19q-7 0 -27.5 12t-44.5 24.5t-44 12.5q-27 0 -47 -16.5t-20 -32.5q0 -6 26.5 -24.5t62 -36t62.5 -18.5q34 8 80 21.5t54 13.5q13 1 13 -16z" />
    <glyph glyph-name="uni0627.fina" unicode="&#x627;" horiz-adv-x="524" arabic-form="final" 
d="M617 128q0 -128 -72 -128h-49q-112 0 -187 56.5t-96 204.5q-14 101 -30.5 252t-35.5 314q-14 131 -25.5 231t-11.5 147q0 16 17 50.5t40.5 72.5t43 65t24.5 27q8 0 20 -13.5t13 -37.5q10 -167 19 -330t17.5 -304t17 -244t17.5 -150q12 -59 57 -78t100 -19h49q38 0 55 -27
t17 -89z" />
    <glyph glyph-name="uni0628.init" unicode="&#x628;" horiz-adv-x="567" arabic-form="initial" 
d="M439 445q0 -203 -110.5 -324t-296.5 -121h-54q-37 0 -53.5 29t-16.5 95q0 65 19 92.5t51 27.5h54q42 0 91.5 3.5t93.5 11.5t67 20q27 15 39.5 32t12.5 28q0 20 -20.5 47.5t-47.5 56t-47.5 53.5t-20.5 40q0 8 13 38t33 68.5t42 75t39 58.5q41 -70 76.5 -159.5t35.5 -171.5
zM357 -245q0 -7 -16.5 -36t-39 -64t-43 -60.5t-28.5 -25.5q-5 0 -31 17t-58.5 40.5t-56.5 43.5t-24 27t17 36.5t40 64.5t43 60.5t26 25.5q8 0 34.5 -17.5t58.5 -41.5t55 -44.5t23 -25.5z" />
    <glyph glyph-name="uni0628.medi" unicode="&#x628;" horiz-adv-x="560" arabic-form="medial" 
d="M655 124q0 -55 -12 -89.5t-64 -34.5h-53q-39 0 -65.5 11t-50.5 34q-20 18 -40.5 49t-32.5 65q-49 -61 -115 -110t-188 -49h-50q-52 0 -64 33t-12 91q0 53 12 86.5t64 33.5h50q103 0 166 27t97.5 63t53 63t32.5 27q9 0 16.5 -16t18.5 -60q8 -34 30.5 -69t77.5 -35h53
q52 0 64 -32.5t12 -87.5zM420 -252q0 -7 -16 -36.5t-39 -64t-43.5 -60t-28.5 -25.5q-4 0 -30.5 17t-58.5 40.5t-56.5 43.5t-24.5 26q0 8 17 37.5t40.5 64t43.5 60.5t26 26q7 0 34 -17.5t58.5 -41.5t54.5 -44.5t23 -25.5z" />
    <glyph glyph-name="uni0628.fina" unicode="&#x628;" horiz-adv-x="2009" arabic-form="final" 
d="M2102 122q0 -21 -3.5 -49.5t-17.5 -50.5t-45 -22h-55q-87 0 -146.5 26t-108.5 126q-74 -69 -221 -129.5t-343.5 -98t-420.5 -37.5q-193 0 -334.5 49t-219 141t-77.5 222q0 73 21 142t49 124t51.5 87t29.5 32q5 0 19 -9.5t14 -19.5q0 -6 -18.5 -36.5t-37 -78.5t-18.5 -108
q0 -99 81.5 -162t220 -93t308.5 -30q176 0 340 16.5t293 51t200 89.5q28 21 43.5 45.5t31.5 24.5q17 0 29 -31t35 -54q42 -45 179 -45h55q31 0 45 -21.5t17.5 -50t3.5 -50.5zM1013 -358q0 -7 -16.5 -36t-39 -64t-43 -60.5t-28.5 -25.5q-5 0 -31 17t-58.5 40.5t-56.5 43.5
t-24 27t17 36.5t40 64.5t43 60.5t26 25.5q8 0 34.5 -17.5t58.5 -41.5t55 -44.5t23 -25.5z" />
    <glyph glyph-name="uni0629.fina" unicode="&#x629;" horiz-adv-x="845" arabic-form="final" 
d="M938 122q0 -21 -4.5 -49.5t-20.5 -50.5t-51 -22h-51q-79 0 -130 22t-84 81.5t-60 171.5q-36 -44 -91 -90t-126 -46q-25 0 -65 6t-80.5 18t-68 32t-27.5 49q0 23 18 69.5t46 98t56 90.5q27 34 76 76.5t100.5 78.5t85.5 50l-2 22t-1 23q0 19 2 31q5 38 24 73.5t41 58
t35 22.5q2 0 13 -66.5t24 -147.5q14 -81 28.5 -164.5t26 -144t15.5 -74.5q9 -30 19.5 -51.5t38 -33t86.5 -11.5h51q35 0 51 -21.5t20.5 -50t4.5 -50.5zM514 402q-6 35 -14.5 87t-19.5 99q-69 -25 -118.5 -65.5t-75.5 -74.5t-26 -40t31.5 -12.5t72.5 -11t70 -4.5q50 0 80 22z
M757 1252q0 -7 -15.5 -35t-36.5 -61t-40 -57.5t-25 -24.5q-5 0 -28.5 16.5t-52.5 38.5t-51 39t-24 19q-9 7 -15 7q-4 0 -11 -10q-1 -2 -16 -23.5t-35 -49t-37.5 -48.5t-23.5 -21q-5 0 -30 17t-55.5 39.5t-53.5 42t-23 24.5q0 7 16.5 35.5t39 62t41 58t22.5 24.5
q9 0 32.5 -16.5t50 -38t47 -38.5t21.5 -19q11 -9 15 -9q7 0 16 14q1 2 16.5 23t35.5 47.5t37 46.5t22 20q7 0 32.5 -16.5t55.5 -39.5t51.5 -42.5t21.5 -24.5z" />
    <glyph glyph-name="uni062A.init" unicode="&#x62a;" horiz-adv-x="567" arabic-form="initial" 
d="M439 445q0 -203 -110.5 -324t-296.5 -121h-54q-37 0 -53.5 29t-16.5 95q0 65 19 92.5t51 27.5h54q42 0 91.5 3.5t93.5 11.5t67 20q27 15 39.5 32t12.5 28q0 20 -20.5 47.5t-47.5 56t-47.5 53.5t-20.5 40q0 8 13 38t33 68.5t42 75t39 58.5q41 -70 76.5 -159.5t35.5 -171.5
zM565 1116q0 -7 -15.5 -35t-37 -61t-40 -57.5t-25.5 -24.5q-4 0 -27.5 16.5t-52.5 38.5t-51.5 39t-23.5 19q-9 7 -15 7q-5 0 -11 -10q-1 -2 -16 -23.5t-35 -49t-37.5 -48.5t-23.5 -21q-5 0 -30 17t-55.5 39.5t-53.5 42t-23 24.5q0 7 16.5 35.5t38.5 62t40.5 58t23.5 24.5
q8 0 31.5 -16.5t50.5 -38t47 -38.5t22 -19q10 -9 14 -9q7 0 16 14q2 2 17.5 23t35.5 47.5t37 46.5t21 20q7 0 32.5 -16.5t55.5 -39.5t52 -42.5t22 -24.5z" />
    <glyph glyph-name="uni062A.medi" unicode="&#x62a;" horiz-adv-x="560" arabic-form="medial" 
d="M655 124q0 -55 -12 -89.5t-64 -34.5h-53q-39 0 -65.5 11t-50.5 34q-20 18 -40.5 49t-32.5 65q-49 -61 -115 -110t-188 -49h-50q-52 0 -64 33t-12 91q0 53 12 86.5t64 33.5h50q103 0 166 27t97.5 63t53 63t32.5 27q9 0 16.5 -16t18.5 -60q8 -34 30.5 -69t77.5 -35h53
q52 0 64 -32.5t12 -87.5zM568 763q0 -7 -15.5 -35t-37 -61t-40 -57.5t-25.5 -24.5q-4 0 -27.5 16.5t-52.5 38.5t-51.5 39t-23.5 19q-9 7 -15 7q-5 0 -11 -10q-1 -2 -16 -23.5t-35 -49t-37.5 -48.5t-23.5 -21q-5 0 -30 17t-55.5 39.5t-53.5 42t-23 24.5q0 7 16.5 35.5
t38.5 62t40.5 58t23.5 24.5q8 0 31.5 -16.5t50.5 -38t47 -38.5t22 -19q10 -9 14 -9q7 0 16 14q2 2 17.5 23t35.5 47.5t37 46.5t21 20q7 0 32.5 -16.5t55.5 -39.5t52 -42.5t22 -24.5z" />
    <glyph glyph-name="uni062A.fina" unicode="&#x62a;" horiz-adv-x="2009" arabic-form="final" 
d="M2102 122q0 -21 -3.5 -49.5t-17.5 -50.5t-45 -22h-55q-87 0 -146.5 26t-108.5 126q-74 -69 -221 -129.5t-343.5 -98t-420.5 -37.5q-193 0 -334.5 49t-219 141t-77.5 222q0 73 21 142t49 124t51.5 87t29.5 32q5 0 19 -9.5t14 -19.5q0 -6 -18.5 -36.5t-37 -78.5t-18.5 -108
q0 -99 81.5 -162t220 -93t308.5 -30q176 0 340 16.5t293 51t200 89.5q28 21 43.5 45.5t31.5 24.5q17 0 29 -31t35 -54q42 -45 179 -45h55q31 0 45 -21.5t17.5 -50t3.5 -50.5zM1230 772q0 -7 -15.5 -35t-37 -61t-40 -57.5t-25.5 -24.5q-4 0 -27.5 16.5t-52.5 38.5t-51.5 39
t-23.5 19q-9 7 -15 7q-5 0 -11 -10q-1 -2 -16 -23.5t-35 -49t-37.5 -48.5t-23.5 -21q-5 0 -30 17t-55.5 39.5t-53.5 42t-23 24.5q0 7 16.5 35.5t38.5 62t40.5 58t23.5 24.5q8 0 31.5 -16.5t50.5 -38t47 -38.5t22 -19q10 -9 14 -9q7 0 16 14q2 2 17.5 23t35.5 47.5t37 46.5
t21 20q7 0 32.5 -16.5t55.5 -39.5t52 -42.5t22 -24.5z" />
    <glyph glyph-name="uni062B.init" unicode="&#x62b;" horiz-adv-x="567" arabic-form="initial" 
d="M439 445q0 -203 -110.5 -324t-296.5 -121h-54q-37 0 -53.5 29t-16.5 95q0 65 19 92.5t51 27.5h54q42 0 91.5 3.5t93.5 11.5t67 20q27 15 39.5 32t12.5 28q0 20 -20.5 47.5t-47.5 56t-47.5 53.5t-20.5 40q0 8 13 38t33 68.5t42 75t39 58.5q41 -70 76.5 -159.5t35.5 -171.5
zM385 1422q0 -7 -16 -35t-38 -61.5t-41 -58.5t-26 -25q-6 0 -31.5 17t-56 40t-53 42.5t-22.5 25.5q0 7 16 35t38 61.5t41 58t27 24.5q5 0 30 -17t55.5 -40t53.5 -42.5t23 -24.5zM565 1120q0 -6 -15.5 -34t-37 -61t-40 -57.5t-25.5 -24.5q-4 0 -27.5 16.5t-52.5 38.5
t-51.5 39t-23.5 18q-9 8 -15 8q-4 0 -11 -10q-1 -2 -16 -23.5t-35 -49t-37.5 -48.5t-23.5 -21q-5 0 -30 16.5t-55.5 39.5t-53.5 42.5t-23 24.5q0 7 16.5 35t38.5 61.5t41 58.5t23 25q8 0 31.5 -16.5t50.5 -38t47 -38.5t22 -19q10 -9 14 -9q7 0 17 13q1 2 16.5 23.5t35.5 48
t37 46.5t22 20q7 0 32 -17t55 -40t52 -42t22 -25z" />
    <glyph glyph-name="uni062B.medi" unicode="&#x62b;" horiz-adv-x="560" arabic-form="medial" 
d="M655 124q0 -55 -12 -89.5t-64 -34.5h-53q-39 0 -65.5 11t-50.5 34q-20 18 -40.5 49t-32.5 65q-49 -61 -115 -110t-188 -49h-50q-52 0 -64 33t-12 91q0 53 12 86.5t64 33.5h50q103 0 166 27t97.5 63t53 63t32.5 27q9 0 16.5 -16t18.5 -60q8 -34 30.5 -69t77.5 -35h53
q52 0 64 -32.5t12 -87.5zM385 1067q0 -7 -16 -35t-38 -61.5t-41 -58.5t-25 -25q-7 0 -32.5 17t-56 40t-53 42.5t-22.5 25.5q0 7 16 35t38 61.5t41.5 58t26.5 24.5q5 0 30 -17t56 -40t53.5 -42.5t22.5 -24.5zM566 765q0 -6 -15.5 -34t-37 -61t-40.5 -57.5t-25 -24.5
q-4 0 -27.5 16.5t-53 38.5t-51.5 39t-24 18q-9 8 -15 8q-4 0 -10 -10q-2 -2 -16.5 -23.5t-35 -49t-38 -48.5t-23.5 -21q-4 0 -29.5 16.5t-56 39.5t-53.5 42.5t-23 24.5q0 7 16.5 35t39 61.5t41 58.5t22.5 25q9 0 32.5 -16.5t50.5 -38t47 -38.5t21 -19q11 -9 15 -9q7 0 16 13
q1 2 16.5 23.5t36 48t37.5 46.5t21 20q7 0 32.5 -17t55.5 -40t52 -42t22 -25z" />
    <glyph glyph-name="uni062B.fina" unicode="&#x62b;" horiz-adv-x="2009" arabic-form="final" 
d="M2102 122q0 -21 -3.5 -49.5t-17.5 -50.5t-45 -22h-55q-87 0 -146.5 26t-108.5 126q-74 -69 -221 -129.5t-343.5 -98t-420.5 -37.5q-193 0 -334.5 49t-219 141t-77.5 222q0 73 21 142t49 124t51.5 87t29.5 32q5 0 19 -9.5t14 -19.5q0 -6 -18.5 -36.5t-37 -78.5t-18.5 -108
q0 -99 81.5 -162t220 -93t308.5 -30q176 0 340 16.5t293 51t200 89.5q28 21 43.5 45.5t31.5 24.5q17 0 29 -31t35 -54q42 -45 179 -45h55q31 0 45 -21.5t17.5 -50t3.5 -50.5zM1056 1075q0 -7 -16 -35t-38 -62t-41 -58.5t-26 -24.5q-6 0 -31.5 17t-56 40t-53 42.5t-22.5 25.5
q0 7 16 35t38 61.5t41 58t27 24.5q5 0 30 -17t55.5 -40t53.5 -42.5t23 -24.5zM1236 773q0 -7 -15.5 -34.5t-37 -61t-40 -57.5t-25.5 -24q-4 0 -27.5 16.5t-52.5 38t-51.5 39t-23.5 18.5q-9 7 -15 7q-4 0 -11 -9q-1 -2 -16 -23.5t-35 -49.5t-37.5 -48.5t-23.5 -20.5
q-5 0 -30 16.5t-55.5 39.5t-53.5 42t-23 25q0 7 16.5 35t38.5 61.5t41 58t23 24.5q8 0 31.5 -16t50.5 -38t47 -39t22 -18q10 -10 14 -10q7 0 17 14q1 2 16.5 23t35.5 48t37 47t22 20q7 0 32 -17t55 -40t52 -42.5t22 -24.5z" />
    <glyph glyph-name="uni062C.init" unicode="&#x62c;" horiz-adv-x="1476" arabic-form="initial" 
d="M1363 544q0 -4 -4.5 -29t-11 -57.5t-12.5 -58.5t-9 -32q-21 -4 -85.5 -5.5t-153.5 -2t-182 -0.5q-81 0 -152 -29t-136 -72.5t-130 -87.5q-99 -63 -210.5 -116.5t-240.5 -53.5h-52q-34 0 -50.5 22t-21 50.5t-4.5 49.5q0 22 4.5 50.5t21 50t50.5 21.5h50q106 0 207.5 14
t196.5 53q53 21 113.5 49.5t114.5 42.5q-46 17 -111 46t-137.5 53t-141.5 24q-39 0 -76 -12.5t-62.5 -25t-29.5 -12.5t-17 7t-13 11q0 46 36 114t91 107q33 24 71.5 36.5t96.5 12.5q55 0 129 -31t150.5 -67t136.5 -54q73 -21 164.5 -36.5t199.5 -20.5q44 -2 93 -3.5t83 -3
t34 -4.5zM839 -226q0 -7 -16.5 -36t-39.5 -63.5t-43.5 -60.5t-28.5 -26q-4 0 -30 17t-58.5 40.5t-56.5 44t-24 26.5q0 8 16.5 37t40 64t43.5 60.5t26 25.5q7 0 34 -17.5t58.5 -41.5t55 -44t23.5 -26z" />
    <glyph glyph-name="uni062C.medi" unicode="&#x62c;" horiz-adv-x="1486" arabic-form="medial" 
d="M1579 122q0 -21 -4.5 -49.5t-21 -50.5t-50.5 -22h-51q-165 0 -281 14t-174 53q-72 48 -72 154q0 28 9.5 67t20.5 72h-24q-94 0 -172.5 -30.5t-149.5 -77t-143 -94.5q-93 -61 -197.5 -109.5t-234.5 -48.5h-50q-34 0 -50.5 22t-21 50.5t-4.5 49.5q0 22 4.5 50.5t21 50
t50.5 21.5h50q137 0 237 19.5t181 53.5q50 20 107 47t109 39q-38 15 -104.5 45t-145 54.5t-152.5 24.5q-38 0 -72.5 -12t-57.5 -24.5t-26 -12.5q-6 0 -18.5 6.5t-12.5 10.5q0 57 39 122.5t95 101.5q32 21 71 33t88 12q42 0 99 -20t119 -48.5t121.5 -54.5t108.5 -37
q111 -26 242 -39.5t294 -13.5q13 0 13 -16q0 -2 -6.5 -37.5t-14.5 -73.5t-12 -50q-2 -6 -47.5 -10t-111.5 -5.5t-130 -1.5q-2 -4 -2 -18q0 -38 54 -60q41 -18 105 -25t131.5 -8.5t116.5 -1.5h51q34 0 50.5 -21.5t21 -50t4.5 -50.5zM886 -244q0 -7 -16 -36t-39 -63.5
t-43.5 -60.5t-28.5 -26q-4 0 -30.5 17t-58.5 40.5t-56.5 44t-24.5 26.5q0 8 17 37t40.5 64t43.5 60.5t26 25.5q7 0 34 -17.5t58.5 -41.5t54.5 -44t23 -26z" />
    <glyph glyph-name="uni062C.fina" unicode="&#x62c;" horiz-adv-x="1471" arabic-form="final" 
d="M1563 126q0 -67 -19 -96.5t-57 -29.5h-153q-104 0 -183.5 3t-140.5 22q-107 32 -107 160q0 31 8.5 81.5t18.5 93.5q-157 -37 -293 -103t-239 -154.5t-161.5 -194.5t-58.5 -222q0 -250 227.5 -377t670.5 -127q97 0 180.5 8.5t138.5 17t66 8.5q5 0 8.5 -17t3.5 -20
q0 -7 -40.5 -27t-103 -47t-130 -54t-123 -47t-81.5 -27q-52 -13 -98 -15t-69 -2q-136 0 -271.5 32t-247.5 104t-179.5 190.5t-67.5 291.5q0 172 75.5 321t201 268t275.5 199q-70 19 -134.5 27.5t-115.5 8.5q-84 0 -140 -17t-77 -17q-3 0 -12 8t-9 14q0 18 7.5 54.5t15.5 70
t9 40.5q2 11 47.5 33.5t110 41t123.5 18.5q81 0 144.5 -9t122.5 -21t124.5 -21.5t149.5 -9.5q30 0 78 2t97.5 4t86.5 2q24 0 39.5 -2t15.5 -5q0 -4 -11.5 -30.5t-27.5 -59t-29 -57t-15 -25.5q-35 -6 -94 -15t-108 -18q1 -51 32 -81.5t121.5 -44t270.5 -13.5h51q38 0 57 -22
t19 -96zM912 -262q0 -7 -16.5 -36.5t-39.5 -64t-43.5 -60t-28.5 -25.5q-4 0 -30 17t-58.5 40.5t-56.5 43.5t-24 26q0 8 16.5 37.5t40 64t43.5 60.5t26 26q7 0 34 -17.5t58.5 -41.5t55 -44.5t23.5 -25.5z" />
    <glyph glyph-name="uni062D.init" unicode="&#x62d;" horiz-adv-x="1476" arabic-form="initial" 
d="M1363 544q0 -4 -4.5 -29t-11 -57.5t-12.5 -58.5t-9 -32q-21 -4 -85.5 -5.5t-153.5 -2t-182 -0.5q-81 0 -152 -29t-136 -72.5t-130 -87.5q-99 -63 -210.5 -116.5t-240.5 -53.5h-52q-34 0 -50.5 22t-21 50.5t-4.5 49.5q0 22 4.5 50.5t21 50t50.5 21.5h50q106 0 207.5 14
t196.5 53q53 21 113.5 49.5t114.5 42.5q-46 17 -111 46t-137.5 53t-141.5 24q-39 0 -76 -12.5t-62.5 -25t-29.5 -12.5t-17 7t-13 11q0 46 36 114t91 107q33 24 71.5 36.5t96.5 12.5q55 0 129 -31t150.5 -67t136.5 -54q73 -21 164.5 -36.5t199.5 -20.5q44 -2 93 -3.5t83 -3
t34 -4.5z" />
    <glyph glyph-name="uni062D.medi" unicode="&#x62d;" horiz-adv-x="1486" arabic-form="medial" 
d="M1579 122q0 -21 -4.5 -49.5t-21 -50.5t-50.5 -22h-51q-165 0 -281 14t-174 53q-72 48 -72 154q0 28 9.5 67t20.5 72h-24q-94 0 -172.5 -30.5t-149.5 -77t-143 -94.5q-93 -61 -197.5 -109.5t-234.5 -48.5h-50q-34 0 -50.5 22t-21 50.5t-4.5 49.5q0 22 4.5 50.5t21 50
t50.5 21.5h50q137 0 237 19.5t181 53.5q50 20 107 47t109 39q-38 15 -104.5 45t-145 54.5t-152.5 24.5q-38 0 -72.5 -12t-57.5 -24.5t-26 -12.5q-6 0 -18.5 6.5t-12.5 10.5q0 57 39 122.5t95 101.5q32 21 71 33t88 12q42 0 99 -20t119 -48.5t121.5 -54.5t108.5 -37
q111 -26 242 -39.5t294 -13.5q13 0 13 -16q0 -2 -6.5 -37.5t-14.5 -73.5t-12 -50q-2 -6 -47.5 -10t-111.5 -5.5t-130 -1.5q-2 -4 -2 -18q0 -38 54 -60q41 -18 105 -25t131.5 -8.5t116.5 -1.5h51q34 0 50.5 -21.5t21 -50t4.5 -50.5z" />
    <glyph glyph-name="uni062D.fina" unicode="&#x62d;" horiz-adv-x="1471" arabic-form="final" 
d="M1563 126q0 -67 -19 -96.5t-57 -29.5h-153q-104 0 -183.5 3t-140.5 22q-107 32 -107 160q0 31 8.5 81.5t18.5 93.5q-157 -37 -293 -103t-239 -154.5t-161.5 -194.5t-58.5 -222q0 -250 227.5 -377t670.5 -127q97 0 180.5 8.5t138.5 17t66 8.5q5 0 8.5 -17t3.5 -20
q0 -7 -40.5 -27t-103 -47t-130 -54t-123 -47t-81.5 -27q-52 -13 -98 -15t-69 -2q-136 0 -271.5 32t-247.5 104t-179.5 190.5t-67.5 291.5q0 172 75.5 321t201 268t275.5 199q-70 19 -134.5 27.5t-115.5 8.5q-84 0 -140 -17t-77 -17q-3 0 -12 8t-9 14q0 18 7.5 54.5t15.5 70
t9 40.5q2 11 47.5 33.5t110 41t123.5 18.5q81 0 144.5 -9t122.5 -21t124.5 -21.5t149.5 -9.5q30 0 78 2t97.5 4t86.5 2q24 0 39.5 -2t15.5 -5q0 -4 -11.5 -30.5t-27.5 -59t-29 -57t-15 -25.5q-35 -6 -94 -15t-108 -18q1 -51 32 -81.5t121.5 -44t270.5 -13.5h51q38 0 57 -22
t19 -96z" />
    <glyph glyph-name="uni062E.init" unicode="&#x62e;" horiz-adv-x="1476" arabic-form="initial" 
d="M1363 544q0 -4 -4.5 -29t-11 -57.5t-12.5 -58.5t-9 -32q-21 -4 -85.5 -5.5t-153.5 -2t-182 -0.5q-81 0 -152 -29t-136 -72.5t-130 -87.5q-99 -63 -210.5 -116.5t-240.5 -53.5h-52q-34 0 -50.5 22t-21 50.5t-4.5 49.5q0 22 4.5 50.5t21 50t50.5 21.5h50q106 0 207.5 14
t196.5 53q53 21 113.5 49.5t114.5 42.5q-46 17 -111 46t-137.5 53t-141.5 24q-39 0 -76 -12.5t-62.5 -25t-29.5 -12.5t-17 7t-13 11q0 46 36 114t91 107q33 24 71.5 36.5t96.5 12.5q55 0 129 -31t150.5 -67t136.5 -54q73 -21 164.5 -36.5t199.5 -20.5q44 -2 93 -3.5t83 -3
t34 -4.5zM839 1091q0 -7 -16.5 -36t-39.5 -63.5t-43.5 -60.5t-28.5 -26q-4 0 -30 17t-58.5 40.5t-56.5 44t-24 26.5q0 8 16.5 37t40 64t43.5 60.5t26 25.5q7 0 34 -17.5t58.5 -41.5t55 -44t23.5 -26z" />
    <glyph glyph-name="uni062E.medi" unicode="&#x62e;" horiz-adv-x="1486" arabic-form="medial" 
d="M1579 122q0 -21 -4.5 -49.5t-21 -50.5t-50.5 -22h-51q-165 0 -281 14t-174 53q-72 48 -72 154q0 28 9.5 67t20.5 72h-24q-94 0 -172.5 -30.5t-149.5 -77t-143 -94.5q-93 -61 -197.5 -109.5t-234.5 -48.5h-50q-34 0 -50.5 22t-21 50.5t-4.5 49.5q0 22 4.5 50.5t21 50
t50.5 21.5h50q137 0 237 19.5t181 53.5q50 20 107 47t109 39q-38 15 -104.5 45t-145 54.5t-152.5 24.5q-38 0 -72.5 -12t-57.5 -24.5t-26 -12.5q-6 0 -18.5 6.5t-12.5 10.5q0 57 39 122.5t95 101.5q32 21 71 33t88 12q42 0 99 -20t119 -48.5t121.5 -54.5t108.5 -37
q111 -26 242 -39.5t294 -13.5q13 0 13 -16q0 -2 -6.5 -37.5t-14.5 -73.5t-12 -50q-2 -6 -47.5 -10t-111.5 -5.5t-130 -1.5q-2 -4 -2 -18q0 -38 54 -60q41 -18 105 -25t131.5 -8.5t116.5 -1.5h51q34 0 50.5 -21.5t21 -50t4.5 -50.5zM897 1069q0 -7 -16.5 -36.5t-39 -64
t-43 -60t-28.5 -25.5q-5 0 -31 17t-58.5 40.5t-56.5 43.5t-24 26q0 8 17 37.5t40 64t43 60.5t26 26q8 0 34.5 -17.5t58.5 -41.5t55 -44.5t23 -25.5z" />
    <glyph glyph-name="uni062E.fina" unicode="&#x62e;" horiz-adv-x="1471" arabic-form="final" 
d="M1563 126q0 -67 -19 -96.5t-57 -29.5h-153q-104 0 -183.5 3t-140.5 22q-107 32 -107 160q0 31 8.5 81.5t18.5 93.5q-157 -37 -293 -103t-239 -154.5t-161.5 -194.5t-58.5 -222q0 -250 227.5 -377t670.5 -127q97 0 180.5 8.5t138.5 17t66 8.5q5 0 8.5 -17t3.5 -20
q0 -7 -40.5 -27t-103 -47t-130 -54t-123 -47t-81.5 -27q-52 -13 -98 -15t-69 -2q-136 0 -271.5 32t-247.5 104t-179.5 190.5t-67.5 291.5q0 172 75.5 321t201 268t275.5 199q-70 19 -134.5 27.5t-115.5 8.5q-84 0 -140 -17t-77 -17q-3 0 -12 8t-9 14q0 18 7.5 54.5t15.5 70
t9 40.5q2 11 47.5 33.5t110 41t123.5 18.5q81 0 144.5 -9t122.5 -21t124.5 -21.5t149.5 -9.5q30 0 78 2t97.5 4t86.5 2q24 0 39.5 -2t15.5 -5q0 -4 -11.5 -30.5t-27.5 -59t-29 -57t-15 -25.5q-35 -6 -94 -15t-108 -18q1 -51 32 -81.5t121.5 -44t270.5 -13.5h51q38 0 57 -22
t19 -96zM946 968q0 -7 -16.5 -36t-39.5 -64t-43.5 -60.5t-28.5 -25.5q-4 0 -30 17t-58.5 40.5t-56.5 43.5t-24 27t16.5 36.5t40 64.5t43.5 60.5t26 25.5q7 0 34 -17.5t58.5 -41.5t55 -44.5t23.5 -25.5z" />
    <glyph glyph-name="uni062F.fina" unicode="&#x62f;" horiz-adv-x="1126" arabic-form="final" 
d="M1218 122q0 -21 -4.5 -49.5t-20.5 -50.5t-50 -22h-52q-85 0 -140 41.5t-92.5 117t-70.5 176.5q-21 -58 -56.5 -114.5t-78.5 -95.5q-60 -51 -146.5 -79t-194.5 -28q-91 0 -160 36.5t-69 109.5q0 9 11 47t27 83t32 78t25 33q11 0 17.5 -19.5t14.5 -32.5q7 -15 23.5 -37.5
t52.5 -40t103 -17.5q92 0 173 18.5t131.5 69t50.5 145.5q-13 129 -45 226t-32 149q0 13 14 46.5t33 71t34.5 65t18.5 27.5q7 0 17.5 -6.5t12.5 -30.5q15 -102 32 -213.5t36 -214t39.5 -180t40.5 -111.5q23 -38 63.5 -57t82.5 -19h52q34 0 50 -21.5t20.5 -50t4.5 -50.5z" />
    <glyph glyph-name="uni0630.fina" unicode="&#x630;" horiz-adv-x="1126" arabic-form="final" 
d="M1218 122q0 -21 -4.5 -49.5t-20.5 -50.5t-50 -22h-52q-85 0 -140 41.5t-92.5 117t-70.5 176.5q-21 -58 -56.5 -114.5t-78.5 -95.5q-60 -51 -146.5 -79t-194.5 -28q-91 0 -160 36.5t-69 109.5q0 9 11 47t27 83t32 78t25 33q11 0 17.5 -19.5t14.5 -32.5q7 -15 23.5 -37.5
t52.5 -40t103 -17.5q92 0 173 18.5t131.5 69t50.5 145.5q-13 129 -45 226t-32 149q0 13 14 46.5t33 71t34.5 65t18.5 27.5q7 0 17.5 -6.5t12.5 -30.5q15 -102 32 -213.5t36 -214t39.5 -180t40.5 -111.5q23 -38 63.5 -57t82.5 -19h52q34 0 50 -21.5t20.5 -50t4.5 -50.5z
M848 1395q0 -7 -16.5 -36t-39.5 -63.5t-43.5 -60.5t-28.5 -26q-4 0 -30 17t-58.5 40.5t-56.5 44t-24 26.5q0 8 16.5 37t40 64t43.5 60.5t26 25.5q7 0 34 -17.5t58.5 -41.5t55 -44t23.5 -26z" />
    <glyph glyph-name="uni0631.fina" unicode="&#x631;" horiz-adv-x="815" arabic-form="final" 
d="M909 122q0 -21 -4.5 -49.5t-20.5 -50.5t-51 -22h-51q-10 0 -28 2.5t-33 8.5q-12 -116 -47 -251t-129 -249q-52 -64 -142.5 -113t-195.5 -49q-39 0 -97 14.5t-115 34.5t-95 38t-38 24q0 8 6 25t13 17q4 0 30.5 -4.5t69.5 -4.5q68 0 152.5 23.5t171.5 71.5t162 121
q89 91 124.5 157t35.5 83q0 9 -21 37.5t-48 63t-48 62t-21 35.5q0 3 13 31.5t30.5 65.5t31.5 67.5t17 37.5h26q26 -31 68.5 -68t106.5 -37h51q35 0 51 -21.5t20.5 -50t4.5 -50.5z" />
    <glyph glyph-name="uni0632.fina" unicode="&#x632;" horiz-adv-x="815" arabic-form="final" 
d="M909 122q0 -21 -4.5 -49.5t-20.5 -50.5t-51 -22h-51q-10 0 -28 2.5t-33 8.5q-12 -116 -47 -251t-129 -249q-52 -64 -142.5 -113t-195.5 -49q-39 0 -97 14.5t-115 34.5t-95 38t-38 24q0 8 6 25t13 17q4 0 30.5 -4.5t69.5 -4.5q68 0 152.5 23.5t171.5 71.5t162 121
q89 91 124.5 157t35.5 83q0 9 -21 37.5t-48 63t-48 62t-21 35.5q0 3 13 31.5t30.5 65.5t31.5 67.5t17 37.5h26q26 -31 68.5 -68t106.5 -37h51q35 0 51 -21.5t20.5 -50t4.5 -50.5zM713 676q0 -7 -16 -36t-39 -64t-43.5 -60.5t-28.5 -25.5q-4 0 -30.5 17t-58.5 40.5
t-56.5 43.5t-24.5 27t17 36.5t40.5 64.5t43.5 60.5t26 25.5q7 0 34 -17.5t58.5 -41.5t54.5 -44.5t23 -25.5z" />
    <glyph glyph-name="uni0633.init" unicode="&#x633;" horiz-adv-x="1406" arabic-form="initial" 
d="M1264 502q0 -41 -11.5 -108t-37 -134.5t-68 -113.5t-104.5 -46q-76 0 -131 50.5t-84 101.5q-30 -53 -71.5 -110.5t-95.5 -98t-122 -40.5q-78 0 -138.5 47.5t-85.5 111.5q-52 -78 -124 -120t-157 -42h-50q-34 0 -50.5 22t-21 50.5t-4.5 49.5q0 22 4.5 50.5t21 50
t50.5 21.5h50q105 0 168.5 27.5t98.5 64t52.5 64t30.5 27.5q20 0 27 -27t17.5 -63t39 -63t92.5 -27q83 0 147 41.5t102.5 106.5t44.5 136q2 11 8.5 19.5t18.5 8.5q17 0 25 -34q25 -96 90.5 -139t121.5 -43q23 0 41.5 13.5t18.5 29.5q0 22 -22.5 38t-45.5 26t-23 13q0 5 8 44
t20.5 88t26.5 85.5t25 36.5q15 0 38 -35t41 -85t18 -95z" />
    <glyph glyph-name="uni0633.medi" unicode="&#x633;" horiz-adv-x="1477" arabic-form="medial" 
d="M1568 114q0 -21 -2 -48t-16 -46.5t-48 -19.5h-52q-94 0 -157.5 63.5t-103.5 172.5q-38 -92 -85.5 -147t-126.5 -55q-73 0 -110.5 38.5t-53.5 101.5q-53 -86 -117 -128.5t-166 -42.5q-66 0 -122.5 35t-92.5 124q-52 -92 -130.5 -127t-150.5 -35h-50q-34 0 -50.5 19.5
t-21 46.5t-4.5 48t4.5 52t21 54.5t50.5 23.5h50q103 0 164.5 31.5t94.5 73.5t49.5 74t29.5 32q17 0 23.5 -21t12 -51.5t19.5 -61t46.5 -51t92.5 -20.5q88 0 145 35t91.5 81.5t53 82t27.5 35.5q32 0 33 -38q1 -18 7.5 -52t28.5 -62t70 -28q50 0 82.5 28t52 64.5t31 64.5
t19.5 28q29 0 33 -32q3 -31 27 -81.5t69.5 -91t113.5 -40.5h52q34 0 48 -23.5t16 -54.5t2 -52z" />
    <glyph glyph-name="uni0633.fina" unicode="&#x633;" horiz-adv-x="2069" arabic-form="final" 
d="M2162 122q0 -53 -12.5 -87.5t-63.5 -34.5h-51q-93 0 -155.5 62t-105.5 175q-38 -92 -84.5 -147t-125.5 -55q-80 0 -115.5 42.5t-50.5 97.5q-53 -86 -108 -126t-155 -41q-2 -63 -8 -114.5t-19 -109.5q-30 -136 -102 -227.5t-170 -145t-208 -76.5t-216 -23
q-138 0 -219.5 53.5t-117 137t-35.5 173.5q0 76 24.5 153t57 141.5t59.5 103.5t31 39q8 0 23.5 -10t15.5 -16q0 -11 -26.5 -53t-52.5 -105t-26 -138q0 -100 87.5 -166t228.5 -66q162 0 293.5 25.5t199.5 83.5q48 37 68.5 87.5t20.5 119.5q0 87 -21 146.5t-42.5 95
t-21.5 49.5q0 8 15.5 44t37 80t39.5 76t24 32q23 -20 42 -71t27 -81q90 0 148.5 36t93.5 83t53.5 83t28.5 36q32 0 33 -37q0 -18 6.5 -52t29 -62t70.5 -28q50 0 82.5 28t52 64.5t31 64.5t19.5 28q29 0 33 -32q4 -29 27.5 -80t69 -92.5t113.5 -41.5h51q51 0 63.5 -28
t12.5 -94z" />
    <glyph glyph-name="uni0634.init" unicode="&#x634;" horiz-adv-x="1406" arabic-form="initial" 
d="M1264 502q0 -41 -11.5 -108t-37 -134.5t-68 -113.5t-104.5 -46q-76 0 -131 50.5t-84 101.5q-30 -53 -71.5 -110.5t-95.5 -98t-122 -40.5q-78 0 -138.5 47.5t-85.5 111.5q-52 -78 -124 -120t-157 -42h-50q-34 0 -50.5 22t-21 50.5t-4.5 49.5q0 22 4.5 50.5t21 50
t50.5 21.5h50q105 0 168.5 27.5t98.5 64t52.5 64t30.5 27.5q20 0 27 -27t17.5 -63t39 -63t92.5 -27q83 0 147 41.5t102.5 106.5t44.5 136q2 11 8.5 19.5t18.5 8.5q17 0 25 -34q25 -96 90.5 -139t121.5 -43q23 0 41.5 13.5t18.5 29.5q0 22 -22.5 38t-45.5 26t-23 13q0 5 8 44
t20.5 88t26.5 85.5t25 36.5q15 0 38 -35t41 -85t18 -95zM819 1255q0 -7 -16 -35t-38 -61.5t-41 -58.5t-25 -25q-7 0 -32.5 17t-56 40t-53 42.5t-22.5 25.5q0 7 16 35t38 61.5t41.5 58t26.5 24.5q5 0 30 -17t56 -40t53.5 -42.5t22.5 -24.5zM1000 953q0 -6 -15.5 -34t-37 -61
t-40.5 -57.5t-25 -24.5q-4 0 -27.5 16.5t-53 38.5t-51.5 39t-24 18q-9 8 -15 8q-4 0 -10 -10q-2 -2 -16.5 -23.5t-35 -49t-38 -48.5t-23.5 -21q-4 0 -29.5 16.5t-56 39.5t-53.5 42.5t-23 24.5q0 7 16.5 35t39 61.5t41 58.5t22.5 25q9 0 32.5 -16.5t50.5 -38t47 -38.5t21 -19
q11 -9 15 -9q7 0 16 13q1 2 16.5 23.5t36 48t37.5 46.5t21 20q7 0 32.5 -17t55.5 -40t52 -42t22 -25z" />
    <glyph glyph-name="uni0634.medi" unicode="&#x634;" horiz-adv-x="1477" arabic-form="medial" 
d="M1568 114q0 -21 -2 -48t-16 -46.5t-48 -19.5h-52q-94 0 -157.5 63.5t-103.5 172.5q-38 -92 -85.5 -147t-126.5 -55q-73 0 -110.5 38.5t-53.5 101.5q-53 -86 -117 -128.5t-166 -42.5q-66 0 -122.5 35t-92.5 124q-52 -92 -130.5 -127t-150.5 -35h-50q-34 0 -50.5 19.5
t-21 46.5t-4.5 48t4.5 52t21 54.5t50.5 23.5h50q103 0 164.5 31.5t94.5 73.5t49.5 74t29.5 32q17 0 23.5 -21t12 -51.5t19.5 -61t46.5 -51t92.5 -20.5q88 0 145 35t91.5 81.5t53 82t27.5 35.5q32 0 33 -38q1 -18 7.5 -52t28.5 -62t70 -28q50 0 82.5 28t52 64.5t31 64.5
t19.5 28q29 0 33 -32q3 -31 27 -81.5t69.5 -91t113.5 -40.5h52q34 0 48 -23.5t16 -54.5t2 -52zM864 1130q0 -7 -16 -35t-38 -61.5t-41.5 -58.5t-25.5 -25t-32 17t-56.5 40t-53 42.5t-22.5 25.5q0 7 16 35t38 61.5t41.5 58t26.5 24.5q5 0 30.5 -17t56 -40t53.5 -42.5
t23 -24.5zM1044 828q0 -6 -15.5 -34t-37 -61t-40 -57.5t-25.5 -24.5q-4 0 -27.5 16.5t-52.5 38.5t-51.5 39t-23.5 18q-9 8 -15 8q-5 0 -11 -10q-1 -2 -16 -23.5t-35 -49t-37.5 -48.5t-24.5 -21q-4 0 -29 16.5t-56 39.5t-53.5 42.5t-22.5 24.5q0 7 16.5 35t38.5 61.5
t40.5 58.5t23.5 25q8 0 31.5 -16.5t50.5 -38t47 -38.5t22 -19q10 -9 14 -9q7 0 16 13q2 2 17 23.5t35.5 48t37.5 46.5t21 20q7 0 32.5 -17t55.5 -40t52 -42t22 -25z" />
    <glyph glyph-name="uni0634.fina" unicode="&#x634;" horiz-adv-x="2069" arabic-form="final" 
d="M2162 122q0 -53 -12.5 -87.5t-63.5 -34.5h-51q-93 0 -155.5 62t-105.5 175q-38 -92 -84.5 -147t-125.5 -55q-80 0 -115.5 42.5t-50.5 97.5q-53 -86 -108 -126t-155 -41q-2 -63 -8 -114.5t-19 -109.5q-30 -136 -102 -227.5t-170 -145t-208 -76.5t-216 -23
q-138 0 -219.5 53.5t-117 137t-35.5 173.5q0 76 24.5 153t57 141.5t59.5 103.5t31 39q8 0 23.5 -10t15.5 -16q0 -11 -26.5 -53t-52.5 -105t-26 -138q0 -100 87.5 -166t228.5 -66q162 0 293.5 25.5t199.5 83.5q48 37 68.5 87.5t20.5 119.5q0 87 -21 146.5t-42.5 95
t-21.5 49.5q0 8 15.5 44t37 80t39.5 76t24 32q23 -20 42 -71t27 -81q90 0 148.5 36t93.5 83t53.5 83t28.5 36q32 0 33 -37q0 -18 6.5 -52t29 -62t70.5 -28q50 0 82.5 28t52 64.5t31 64.5t19.5 28q29 0 33 -32q4 -29 27.5 -80t69 -92.5t113.5 -41.5h51q51 0 63.5 -28
t12.5 -94zM1537 1162q0 -7 -16 -35t-38 -61.5t-41 -58.5t-25 -25q-7 0 -32.5 17t-56 40t-53 42.5t-22.5 25.5q0 7 16 35t38 61.5t41.5 58t26.5 24.5q5 0 30 -17t56 -40t53.5 -42.5t22.5 -24.5zM1718 860q0 -6 -15.5 -34t-37 -61t-40.5 -57.5t-25 -24.5q-4 0 -27.5 16.5
t-53 38.5t-51.5 39t-24 18q-9 8 -15 8q-4 0 -10 -10q-2 -2 -16.5 -23.5t-35 -49t-38 -48.5t-23.5 -21q-4 0 -29.5 16.5t-56 39.5t-53.5 42.5t-23 24.5q0 7 16.5 35t39 61.5t41 58.5t22.5 25q9 0 32.5 -16.5t50.5 -38t47 -38.5t21 -19q11 -9 15 -9q7 0 16 13q1 2 16.5 23.5
t36 48t37.5 46.5t21 20q7 0 32.5 -17t55.5 -40t52 -42t22 -25z" />
    <glyph glyph-name="uni0635.init" unicode="&#x635;" horiz-adv-x="1738" arabic-form="initial" 
d="M1597 568q0 -113 -49 -198.5t-130.5 -147.5t-181 -104t-202.5 -66.5t-194 -36t-154 -12.5q-8 -17 -22.5 -58t-27 -84.5t-14.5 -67.5q-6 0 -20.5 17.5t-28 38t-13.5 30.5q0 13 11.5 52.5t22.5 71.5q-106 0 -187 29t-129 119q-39 -60 -94.5 -105.5t-149.5 -45.5h-50
q-52 0 -64 35.5t-12 86.5q0 59 12 90.5t64 31.5h50q88 0 145.5 28t91 65t50.5 65t25 28q18 0 22.5 -30.5t9.5 -58.5q9 -46 53.5 -66.5t100 -26t100.5 -5.5h56q50 85 126 182t169.5 182t197.5 139t212 54q75 0 119.5 -40t64.5 -94.5t20 -97.5zM1468 455q0 22 -52 54t-138 32
q-80 0 -174 -37t-176.5 -103.5t-130.5 -154.5q113 1 230.5 25.5t217.5 59t161.5 69t61.5 55.5z" />
    <glyph glyph-name="uni0635.medi" unicode="&#x635;" horiz-adv-x="1708" arabic-form="medial" 
d="M1792 122q0 -21 -5 -49.5t-21 -50.5t-50 -22h-51q-161 0 -326.5 0.5t-330.5 0.5h-165t-164 -1q-18 -36 -32.5 -86t-23.5 -87.5t-11 -37.5q-19 0 -40 31t-21 56q0 12 8.5 50.5t21.5 74.5q-106 0 -185.5 29.5t-127.5 120.5q-39 -60 -94.5 -105.5t-148.5 -45.5h-51
q-35 0 -51 22t-20.5 50.5t-4.5 49.5q0 22 4.5 50.5t20.5 50t51 21.5h51q88 0 145 28t90.5 65t50.5 65t24 28q19 0 23.5 -32t9.5 -57q10 -46 54 -66.5t99.5 -26t100.5 -5.5h55q49 84 126.5 181.5t174 184.5t204 142t215.5 55q67 0 109.5 -41.5t62.5 -97.5t20 -98
q0 -102 -50 -190.5t-159 -150.5q76 7 122.5 10t82.5 4.5t80 1.5h51q34 0 50 -21.5t21 -50t5 -50.5zM1458 453q0 22 -25.5 37t-60.5 25t-65.5 15t-40.5 5q-134 0 -261.5 -68.5t-214.5 -222.5q110 2 227 26t217 58.5t162 68.5t62 56z" />
    <glyph glyph-name="uni0635.fina" unicode="&#x635;" horiz-adv-x="2374" arabic-form="final" 
d="M2468 122q0 -21 -4.5 -49.5t-20.5 -50.5t-51 -22h-51q-107 0 -226.5 2t-235 7t-211.5 14q-74 -2 -152.5 -6.5t-158.5 -6.5q-17 -41 -32 -93t-24.5 -90t-12.5 -38q-19 0 -40 31t-21 56q0 12 11.5 55t26.5 79q-19 0 -49.5 4.5t-43.5 10.5q-1 -55 -2.5 -88.5t-6.5 -65.5
t-15 -81q-38 -183 -139.5 -290.5t-242 -154.5t-295.5 -47q-142 0 -238 53t-144.5 138t-48.5 181q0 89 27.5 173t64.5 150t67 105t35 39q9 0 20.5 -11.5t11.5 -20.5q0 -10 -29.5 -52t-58.5 -110t-29 -156q0 -98 60.5 -153t150.5 -77.5t179 -22.5q81 0 167.5 13.5t159.5 38.5
t111 59q94 79 94 259q0 84 -26 139t-51.5 85.5t-25.5 38.5t14.5 42t33.5 74.5t36 70t22 29.5q16 -24 34 -62t26 -68q26 -4 88.5 -7t131.5 -3q49 84 125.5 180t171 181.5t200.5 139.5t214 54q67 0 112 -40t67 -93.5t22 -95.5q0 -102 -50.5 -190.5t-159.5 -150.5
q76 7 122.5 10t82.5 4.5t80 1.5h51q35 0 51 -21.5t20.5 -50t4.5 -50.5zM2135 453q0 21 -35.5 40t-80.5 30.5t-76 11.5q-78 0 -168 -33.5t-172 -98.5t-136 -157q110 1 227 24.5t217 58t162 68.5t62 56z" />
    <glyph glyph-name="uni0636.init" unicode="&#x636;" horiz-adv-x="1738" arabic-form="initial" 
d="M1597 568q0 -113 -49 -198.5t-130.5 -147.5t-181 -104t-202.5 -66.5t-194 -36t-154 -12.5q-8 -17 -22.5 -58t-27 -84.5t-14.5 -67.5q-6 0 -20.5 17.5t-28 38t-13.5 30.5q0 13 11.5 52.5t22.5 71.5q-106 0 -187 29t-129 119q-39 -60 -94.5 -105.5t-149.5 -45.5h-50
q-52 0 -64 35.5t-12 86.5q0 59 12 90.5t64 31.5h50q88 0 145.5 28t91 65t50.5 65t25 28q18 0 22.5 -30.5t9.5 -58.5q9 -46 53.5 -66.5t100 -26t100.5 -5.5h56q50 85 126 182t169.5 182t197.5 139t212 54q75 0 119.5 -40t64.5 -94.5t20 -97.5zM1468 455q0 22 -52 54t-138 32
q-80 0 -174 -37t-176.5 -103.5t-130.5 -154.5q113 1 230.5 25.5t217.5 59t161.5 69t61.5 55.5zM997 946q0 -7 -16.5 -36t-39.5 -64t-43.5 -60.5t-28.5 -25.5q-4 0 -30 17t-58.5 40.5t-56.5 43.5t-24 27t16.5 36.5t40 64.5t43.5 60.5t26 25.5q7 0 34 -17.5t58.5 -41.5
t55 -44.5t23.5 -25.5z" />
    <glyph glyph-name="uni0636.medi" unicode="&#x636;" horiz-adv-x="1708" arabic-form="medial" 
d="M1801 122q0 -21 -4.5 -49.5t-20.5 -50.5t-51 -22h-51q-160 0 -326 0.5t-331 0.5h-165t-163 -1q-19 -36 -33 -86t-23 -87.5t-12 -37.5q-19 0 -40 31t-21 56q0 12 8.5 50.5t21.5 74.5q-106 0 -185.5 29.5t-127.5 120.5q-38 -60 -94 -105.5t-149 -45.5h-51q-34 0 -50.5 22
t-21 50.5t-4.5 49.5q0 22 4.5 50.5t21 50t50.5 21.5h51q88 0 145 28t90.5 65t50.5 65t24 28q19 0 23.5 -32t9.5 -57q10 -46 54 -66.5t100 -26t101 -5.5h54q49 84 126.5 181.5t174 184.5t204 142t216.5 55q66 0 108.5 -41.5t62.5 -97.5t20 -98q0 -102 -50 -190.5t-159 -150.5
q76 7 122.5 10t82.5 4.5t80 1.5h51q35 0 51 -21.5t20.5 -50t4.5 -50.5zM1467 453q0 22 -25.5 37t-60.5 25t-65.5 15t-40.5 5q-134 0 -261 -68.5t-215 -222.5q111 2 228 26t217 58.5t161.5 68.5t61.5 56zM1020 1014q0 -7 -16.5 -36t-39.5 -64t-43.5 -60.5t-28.5 -25.5
q-4 0 -30 17t-58.5 40.5t-56.5 43.5t-24 27t16.5 36.5t40 64.5t43.5 60.5t26 25.5q7 0 34 -17.5t58.5 -41.5t55 -44.5t23.5 -25.5z" />
    <glyph glyph-name="uni0636.fina" unicode="&#x636;" horiz-adv-x="2374" arabic-form="final" 
d="M2468 122q0 -21 -4.5 -49.5t-20.5 -50.5t-51 -22h-51q-107 0 -226.5 2t-235 7t-211.5 14q-74 -2 -152.5 -6.5t-158.5 -6.5q-17 -41 -32 -93t-24.5 -90t-12.5 -38q-19 0 -40 31t-21 56q0 12 11.5 55t26.5 79q-19 0 -49.5 4.5t-43.5 10.5q-1 -55 -2.5 -88.5t-6.5 -65.5
t-15 -81q-38 -183 -139.5 -290.5t-242 -154.5t-295.5 -47q-142 0 -238 53t-144.5 138t-48.5 181q0 89 27.5 173t64.5 150t67 105t35 39q9 0 20.5 -11.5t11.5 -20.5q0 -10 -29.5 -52t-58.5 -110t-29 -156q0 -98 60.5 -153t150.5 -77.5t179 -22.5q81 0 167.5 13.5t159.5 38.5
t111 59q94 79 94 259q0 84 -26 139t-51.5 85.5t-25.5 38.5t14.5 42t33.5 74.5t36 70t22 29.5q16 -24 34 -62t26 -68q26 -4 88.5 -7t131.5 -3q49 84 125.5 180t171 181.5t200.5 139.5t214 54q67 0 112 -40t67 -93.5t22 -95.5q0 -102 -50.5 -190.5t-159.5 -150.5
q76 7 122.5 10t82.5 4.5t80 1.5h51q35 0 51 -21.5t20.5 -50t4.5 -50.5zM2135 453q0 21 -35.5 40t-80.5 30.5t-76 11.5q-78 0 -168 -33.5t-172 -98.5t-136 -157q110 1 227 24.5t217 58t162 68.5t62 56zM1609 952q0 -7 -16.5 -36.5t-39.5 -64t-43.5 -60t-28.5 -25.5
q-4 0 -30 17t-58.5 40.5t-56.5 43.5t-24 26q0 8 16.5 37.5t40 64t43.5 60.5t26 26q7 0 34 -17.5t58.5 -41.5t55 -44.5t23.5 -25.5z" />
    <glyph glyph-name="uni0637.init" unicode="&#x637;" horiz-adv-x="1221" arabic-form="initial" 
d="M1126 572q0 -53 -17.5 -122.5t-67 -140t-146.5 -126.5q-126 -72 -272 -112t-297 -55.5t-292 -15.5h-50q-34 0 -50.5 22t-21 50.5t-4.5 49.5q0 22 4.5 50.5t21 50t50.5 21.5h50q33 0 60.5 2.5t52.5 12.5q24 12 47.5 28.5t41.5 38.5q28 94 28 223q0 97 -17 211t-38.5 224.5
t-38.5 198.5t-17 132q0 36 21 84.5t46.5 85t39.5 36.5q4 0 26 -30.5t48 -71t45 -72.5t19 -36q0 -7 -18 -23.5t-36 -47.5t-18 -80q0 -50 12 -135.5t23.5 -183.5t11.5 -183q0 -25 -1 -68.5t-4 -87t-8 -67.5q163 173 302.5 270t263.5 97q71 0 115.5 -37.5t64.5 -91t20 -101.5z
M996 455q0 24 -51.5 54t-140.5 30q-75 0 -161 -31.5t-168.5 -96t-146.5 -164.5q125 3 244.5 28.5t215 60.5t152 68t56.5 51z" />
    <glyph glyph-name="uni0637.medi" unicode="&#x637;" horiz-adv-x="1358" arabic-form="medial" 
d="M1451 122q0 -21 -4.5 -49.5t-21 -50.5t-50.5 -22h-1117q-10 -18 -24.5 -59t-27 -84.5t-15.5 -69.5q-14 15 -38 43t-24 50q0 12 11.5 48t22.5 72h-179q-34 0 -50.5 22t-21 50.5t-4.5 49.5q0 22 4.5 50.5t21 50t50.5 21.5h50q163 0 207 20q52 22 64 95q9 56 11.5 96t2.5 99
q0 110 -11.5 207t-31.5 208q-19 103 -42.5 190t-23.5 157q0 34 21 81.5t47 84t39 36.5l137 -206q-23 -19 -48 -58t-25 -96q0 -87 22.5 -205.5t22.5 -295.5q0 -42 -4.5 -110t-11.5 -119q169 179 308 274.5t256 95.5q64 0 110.5 -34.5t72 -87.5t25.5 -109q0 -101 -53 -192.5
t-143 -153.5q72 7 143 15t141 8h105q34 0 50.5 -21.5t21 -50t4.5 -50.5zM1051 453q0 21 -53 52t-141 31q-85 0 -174 -37t-171 -103t-143 -152q124 2 245.5 26t220 58.5t157.5 68.5t59 56z" />
    <glyph glyph-name="uni0637.fina" unicode="&#x637;" horiz-adv-x="1693" arabic-form="final" 
d="M1788 122q0 -57 -12 -89.5t-64 -32.5h-54h-130.5h-226h-272h-270h-221.5h-124q-93 0 -136 15q-10 3 -47.5 33t-81.5 70t-76.5 75t-32.5 48q0 7 6 14t17 7q73 0 159 -10t161 -10q93 0 152 15t109 68q12 28 18.5 67.5t9.5 75.5t3 56q0 97 -9 198t-32 217
q-22 119 -45.5 210.5t-23.5 158.5q0 36 21.5 83.5t47 83t37.5 35.5q6 0 27.5 -29t47.5 -68t44.5 -70.5t18.5 -37.5q-22 -18 -48.5 -53.5t-26.5 -101.5q0 -43 12 -118.5t23.5 -165.5t11.5 -176q0 -27 -1.5 -72.5t-4.5 -93.5t-7 -83q177 187 312 274t240 87q66 0 113 -34
t72 -87t25 -109q0 -95 -50.5 -191t-152.5 -163q94 12 175 19t129 7h81q52 0 64 -30t12 -92zM1401 459q0 23 -55.5 52.5t-134.5 29.5q-76 0 -165.5 -31.5t-173 -96t-142.5 -166.5q136 5 257.5 32t214.5 63t146 68t53 49z" />
    <glyph glyph-name="uni0638.init" unicode="&#x638;" horiz-adv-x="1221" arabic-form="initial" 
d="M1126 572q0 -53 -17.5 -122.5t-67 -140t-146.5 -126.5q-126 -72 -272 -112t-297 -55.5t-292 -15.5h-50q-34 0 -50.5 22t-21 50.5t-4.5 49.5q0 22 4.5 50.5t21 50t50.5 21.5h50q33 0 60.5 2.5t52.5 12.5q24 12 47.5 28.5t41.5 38.5q28 94 28 223q0 97 -17 211t-38.5 224.5
t-38.5 198.5t-17 132q0 36 21 84.5t46.5 85t39.5 36.5q4 0 26 -30.5t48 -71t45 -72.5t19 -36q0 -7 -18 -23.5t-36 -47.5t-18 -80q0 -50 12 -135.5t23.5 -183.5t11.5 -183q0 -25 -1 -68.5t-4 -87t-8 -67.5q163 173 302.5 270t263.5 97q71 0 115.5 -37.5t64.5 -91t20 -101.5z
M996 455q0 24 -51.5 54t-140.5 30q-75 0 -161 -31.5t-168.5 -96t-146.5 -164.5q125 3 244.5 28.5t215 60.5t152 68t56.5 51zM873 1116q0 -7 -16 -36.5t-39 -64t-43.5 -60t-28.5 -25.5q-4 0 -30.5 17t-58.5 40.5t-56.5 43.5t-24.5 26q0 8 17 37.5t40.5 64t43.5 60.5t26 26
q7 0 34 -17.5t58.5 -41.5t54.5 -44.5t23 -25.5z" />
    <glyph glyph-name="uni0638.medi" unicode="&#x638;" horiz-adv-x="1358" arabic-form="medial" 
d="M1451 122q0 -21 -4.5 -49.5t-21 -50.5t-50.5 -22h-1117q-10 -18 -24.5 -59t-27 -84.5t-15.5 -69.5q-14 15 -38 43t-24 50q0 12 11.5 48t22.5 72h-179q-34 0 -50.5 22t-21 50.5t-4.5 49.5q0 22 4.5 50.5t21 50t50.5 21.5h50q163 0 207 20q52 22 64 95q9 56 11.5 96t2.5 99
q0 110 -11.5 207t-31.5 208q-19 103 -42.5 190t-23.5 157q0 34 21 81.5t47 84t39 36.5l137 -206q-23 -19 -48 -58t-25 -96q0 -87 22.5 -205.5t22.5 -295.5q0 -42 -4.5 -110t-11.5 -119q169 179 308 274.5t256 95.5q64 0 110.5 -34.5t72 -87.5t25.5 -109q0 -101 -53 -192.5
t-143 -153.5q72 7 143 15t141 8h105q34 0 50.5 -21.5t21 -50t4.5 -50.5zM1051 453q0 21 -53 52t-141 31q-85 0 -174 -37t-171 -103t-143 -152q124 2 245.5 26t220 58.5t157.5 68.5t59 56zM893 1093q0 -7 -16.5 -36.5t-39 -64t-43 -60t-28.5 -25.5q-5 0 -31 17t-58.5 40.5
t-56.5 43.5t-24 26q0 8 17 37.5t40 64t43 60.5t26 26q8 0 34.5 -17.5t58.5 -41.5t55 -44.5t23 -25.5z" />
    <glyph glyph-name="uni0638.fina" unicode="&#x638;" horiz-adv-x="1693" arabic-form="final" 
d="M1788 122q0 -57 -12 -89.5t-64 -32.5h-54h-130.5h-226h-272h-270h-221.5h-124q-93 0 -136 15q-10 3 -47.5 33t-81.5 70t-76.5 75t-32.5 48q0 7 6 14t17 7q73 0 159 -10t161 -10q93 0 152 15t109 68q12 28 18.5 67.5t9.5 75.5t3 56q0 97 -9 198t-32 217
q-22 119 -45.5 210.5t-23.5 158.5q0 36 21.5 83.5t47 83t37.5 35.5q6 0 27.5 -29t47.5 -68t44.5 -70.5t18.5 -37.5q-22 -18 -48.5 -53.5t-26.5 -101.5q0 -43 12 -118.5t23.5 -165.5t11.5 -176q0 -27 -1.5 -72.5t-4.5 -93.5t-7 -83q177 187 312 274t240 87q66 0 113 -34
t72 -87t25 -109q0 -95 -50.5 -191t-152.5 -163q94 12 175 19t129 7h81q52 0 64 -30t12 -92zM1401 459q0 23 -55.5 52.5t-134.5 29.5q-76 0 -165.5 -31.5t-173 -96t-142.5 -166.5q136 5 257.5 32t214.5 63t146 68t53 49zM1254 1085q0 -7 -16.5 -36t-39.5 -63.5t-43.5 -60.5
t-28.5 -26q-4 0 -30 17t-58.5 40.5t-56.5 44t-24 26.5q0 8 16.5 37t40 64t43.5 60.5t26 25.5q7 0 34 -17.5t58.5 -41.5t55 -44t23.5 -26z" />
    <glyph glyph-name="uni0639.init" unicode="&#x639;" horiz-adv-x="1113" arabic-form="initial" 
d="M1026 590q0 -4 -4.5 -35t-12.5 -64q-2 -13 -9.5 -41.5t-18 -53.5t-20.5 -30q-51 -19 -130 -54t-164 -73.5t-152 -69.5q-82 -35 -164.5 -74t-163 -67t-153.5 -28h-50q-34 0 -50.5 22t-21 50.5t-4.5 49.5q0 22 4.5 50.5t21 50t50.5 21.5h50q53 0 102.5 10t104.5 38
q-37 30 -78.5 72.5t-41.5 110.5q0 53 28.5 111.5t74 115.5t97 105t97.5 79q48 33 95 45.5t83 12.5q37 0 83.5 -25.5t89.5 -62t71 -70.5t28 -50q0 -7 -5.5 -15.5t-11.5 -8.5t-35 12.5t-67.5 25t-73.5 12.5q-52 0 -118.5 -16t-125.5 -37q-76 -28 -110.5 -54t-34.5 -47
q0 -24 28 -54.5t71 -59t90 -47.5t85 -19q52 0 123.5 26t142.5 60.5t123.5 61t67.5 26.5q9 0 9 -12z" />
    <glyph glyph-name="uni0639.medi" unicode="&#x639;" horiz-adv-x="884" arabic-form="medial" 
d="M976 122q0 -21 -4.5 -49.5t-20.5 -50.5t-51 -22h-51q-71 0 -136.5 36.5t-120 87t-92.5 95.5t-54 62q-30 -36 -73.5 -83.5t-97.5 -93t-115 -75t-126 -29.5h-50q-34 0 -50.5 22t-21 50.5t-4.5 49.5q0 22 4.5 50.5t21 50t50.5 21.5h50q68 0 146 21t150 82
q-93 45 -151.5 72.5t-58.5 37.5q0 18 14.5 58.5t50.5 85.5t100.5 77t165.5 32q86 0 154 -32t107.5 -79t39.5 -92q0 -50 -52.5 -97.5t-123.5 -65.5q48 -44 122 -72t151 -28h51q35 0 51 -21.5t20.5 -50t4.5 -50.5z" />
    <glyph glyph-name="uni0639.fina" unicode="&#x639;" horiz-adv-x="1136" arabic-form="final" 
d="M1462 -816q0 -7 -48.5 -30.5t-124.5 -54.5t-161.5 -60t-161.5 -48t-121 -19q-143 0 -282 30t-252 100t-181 190.5t-68 300.5q0 148 56.5 284t149 256t199.5 219q-38 28 -86.5 52t-84 40.5t-35.5 24.5q0 26 19.5 67t59 83t99.5 70.5t141 28.5q105 0 172 -39.5t99 -87.5
t32 -73q0 -38 -44.5 -88t-123.5 -75q61 -65 161 -88t225 -23h51q52 0 63.5 -29t11.5 -93q0 -56 -11.5 -89t-63.5 -33h-51q-91 0 -173.5 19t-166.5 75.5t-178 168.5q-102 -58 -196 -140t-154 -189.5t-60 -239.5q0 -258 229.5 -378t652.5 -120q164 0 261.5 13.5t130.5 13.5
q7 0 11 -15.5t4 -23.5z" />
    <glyph glyph-name="uni063A.init" unicode="&#x63a;" horiz-adv-x="1113" arabic-form="initial" 
d="M1026 590q0 -4 -4.5 -35t-12.5 -64q-2 -13 -9.5 -41.5t-18 -53.5t-20.5 -30q-51 -19 -130 -54t-164 -73.5t-152 -69.5q-82 -35 -164.5 -74t-163 -67t-153.5 -28h-50q-34 0 -50.5 22t-21 50.5t-4.5 49.5q0 22 4.5 50.5t21 50t50.5 21.5h50q53 0 102.5 10t104.5 38
q-37 30 -78.5 72.5t-41.5 110.5q0 53 28.5 111.5t74 115.5t97 105t97.5 79q48 33 95 45.5t83 12.5q37 0 83.5 -25.5t89.5 -62t71 -70.5t28 -50q0 -7 -5.5 -15.5t-11.5 -8.5t-35 12.5t-67.5 25t-73.5 12.5q-52 0 -118.5 -16t-125.5 -37q-76 -28 -110.5 -54t-34.5 -47
q0 -24 28 -54.5t71 -59t90 -47.5t85 -19q52 0 123.5 26t142.5 60.5t123.5 61t67.5 26.5q9 0 9 -12zM660 1258q0 -7 -16 -36.5t-39 -64t-43.5 -60t-28.5 -25.5q-4 0 -30.5 17t-58.5 40.5t-56.5 43.5t-24.5 26q0 8 17 37.5t40.5 64t43.5 60.5t26 26q7 0 34 -17.5t58.5 -41.5
t54.5 -44.5t23 -25.5z" />
    <glyph glyph-name="uni063A.medi" unicode="&#x63a;" horiz-adv-x="884" arabic-form="medial" 
d="M976 122q0 -21 -4.5 -49.5t-20.5 -50.5t-51 -22h-51q-71 0 -136.5 36.5t-120 87t-92.5 95.5t-54 62q-30 -36 -73.5 -83.5t-97.5 -93t-115 -75t-126 -29.5h-50q-34 0 -50.5 22t-21 50.5t-4.5 49.5q0 22 4.5 50.5t21 50t50.5 21.5h50q68 0 146 21t150 82
q-93 45 -151.5 72.5t-58.5 37.5q0 18 14.5 58.5t50.5 85.5t100.5 77t165.5 32q86 0 154 -32t107.5 -79t39.5 -92q0 -50 -52.5 -97.5t-123.5 -65.5q48 -44 122 -72t151 -28h51q35 0 51 -21.5t20.5 -50t4.5 -50.5zM592 1105q0 -7 -16 -36t-39 -64t-43.5 -60.5t-28.5 -25.5
q-4 0 -30.5 17t-58.5 40.5t-56.5 43.5t-24.5 27t17 36.5t40.5 64.5t43.5 60.5t26 25.5q7 0 34 -17.5t58.5 -41.5t54.5 -44.5t23 -25.5z" />
    <glyph glyph-name="uni063A.fina" unicode="&#x63a;" horiz-adv-x="1136" arabic-form="final" 
d="M1462 -816q0 -7 -48.5 -30.5t-124.5 -54.5t-161.5 -60t-161.5 -48t-121 -19q-143 0 -282 30t-252 100t-181 190.5t-68 300.5q0 148 56.5 284t149 256t199.5 219q-38 28 -86.5 52t-84 40.5t-35.5 24.5q0 26 19.5 67t59 83t99.5 70.5t141 28.5q105 0 172 -39.5t99 -87.5
t32 -73q0 -38 -44.5 -88t-123.5 -75q61 -65 161 -88t225 -23h51q52 0 63.5 -29t11.5 -93q0 -56 -11.5 -89t-63.5 -33h-51q-91 0 -173.5 19t-166.5 75.5t-178 168.5q-102 -58 -196 -140t-154 -189.5t-60 -239.5q0 -258 229.5 -378t652.5 -120q164 0 261.5 13.5t130.5 13.5
q7 0 11 -15.5t4 -23.5zM721 1056q0 -7 -16 -36.5t-39 -64t-43.5 -60t-28.5 -25.5q-4 0 -30.5 17t-58.5 40.5t-56.5 43.5t-24.5 26q0 8 17 37.5t40.5 64t43.5 60.5t26 26q7 0 34 -17.5t58.5 -41.5t54.5 -44.5t23 -25.5z" />
    <glyph glyph-name="uni063B.init" unicode="&#x63b;" horiz-adv-x="1238" 
d="M1247 1502q-35 -45 -50.5 -94.5t-28 -86.5t-40.5 -45q-60 -16 -153 -44.5t-201 -64t-214 -73t-193.5 -73.5t-140.5 -66t-53 -49q0 -14 43.5 -34t109.5 -52t134 -82q127 -90 179 -189t52 -195q0 -134 -63 -211.5t-207 -110t-387 -32.5h-50q-52 0 -64 34t-12 88q0 58 12 90
t64 32h50q114 0 225.5 2t170.5 10q107 15 141.5 33t34.5 44q0 28 -38 68.5t-88.5 80t-87.5 62.5q-41 27 -91.5 49t-94.5 41t-66 36q-28 22 -39.5 70.5t-11.5 107.5t7.5 121t36.5 82q106 74 228.5 136.5t238.5 111t202 82.5q22 8 70 25t106.5 36.5t113.5 38t92 30t41 11.5
q5 0 9 -7.5t13 -12.5zM502 1481q0 -7 -15.5 -35t-37 -61t-40 -57.5t-25.5 -24.5q-4 0 -27.5 16.5t-52.5 38.5t-51.5 39t-23.5 19q-9 7 -15 7q-5 0 -11 -10q-1 -2 -16 -23.5t-35 -49t-37.5 -48.5t-23.5 -21q-5 0 -30 17t-55.5 39.5t-53.5 42t-23 24.5q0 7 16.5 35.5t38.5 62
t40.5 58t23.5 24.5q8 0 31.5 -16.5t50.5 -38t47 -38.5t22 -19q10 -9 14 -9q7 0 16 14q2 2 17.5 23t35.5 47.5t37 46.5t21 20q7 0 32.5 -16.5t55.5 -39.5t52 -42.5t22 -24.5z" />
    <glyph glyph-name="uni063B.medi" unicode="&#x63b;" horiz-adv-x="1358" 
d="M1451 122q0 -21 -4.5 -49.5t-20.5 -50.5t-51 -22h-52q-73 0 -131.5 32.5t-124 91.5t-157 139t-230.5 175q7 -25 8 -57t1 -52q0 -169 -157 -249t-498 -80h-50q-34 0 -50.5 22t-21 50.5t-4.5 49.5q0 22 4.5 50.5t21 50t50.5 21.5h50q273 0 417 41t144 117q0 53 -57.5 121.5
t-142.5 114.5q-52 27 -109.5 48.5t-84.5 47.5q-29 30 -59 91.5t-30 112.5q0 17 8.5 55.5t31.5 83t65 78.5q71 56 171 116t213 119t223 111.5t201 93t148.5 63.5t63.5 23q4 0 12 -7t8 -11t-11 -40t-27 -81.5t-29.5 -80.5t-18.5 -36q-136 -38 -274.5 -88.5t-264.5 -106.5
t-225 -109.5t-156.5 -97t-58.5 -68.5q-1 -10 37 -23t92 -29t102 -38q117 -53 224 -120.5t207 -144.5q137 -105 220.5 -185t139 -125.5t109.5 -45.5h52q35 0 51 -21.5t20.5 -50t4.5 -50.5zM548 1553q0 -7 -15.5 -35t-37 -61t-40 -57.5t-25.5 -24.5q-4 0 -27.5 16.5
t-52.5 38.5t-51.5 39t-23.5 19q-9 7 -15 7q-5 0 -11 -10q-1 -2 -16 -23.5t-35 -49t-37.5 -48.5t-23.5 -21q-5 0 -30 17t-55.5 39.5t-53.5 42t-23 24.5q0 7 16.5 35.5t38.5 62t40.5 58t23.5 24.5q8 0 31.5 -16.5t50.5 -38t47 -38.5t22 -19q10 -9 14 -9q7 0 16 14q2 2 17.5 23
t35.5 47.5t37 46.5t21 20q7 0 32.5 -16.5t55.5 -39.5t52 -42.5t22 -24.5z" />
    <glyph glyph-name="uni063B.fina" unicode="&#x63b;" horiz-adv-x="2274" 
d="M2365 122q0 -21 -4.5 -49.5t-20.5 -50.5t-51 -22h-49q-74 0 -145 38.5t-144.5 99.5t-155.5 131t-178 133q5 -21 8.5 -27.5t3.5 -29.5q0 -145 -119.5 -228.5t-329 -118.5t-481.5 -35q-225 0 -356 34t-187.5 115.5t-56.5 223.5q0 29 11.5 86.5t27.5 119.5t30 105.5t19 43.5
q19 0 29 -10.5t10 -18.5q0 -5 -6.5 -35.5t-12.5 -66.5t-6 -60q0 -90 54.5 -151.5t181 -92.5t341.5 -31q149 0 243 1t150.5 3.5t91.5 5.5t67 8q106 15 153.5 63.5t47.5 91.5q0 40 -38 76.5t-124 91.5q-63 41 -105 59.5t-78 41.5q-31 18 -46.5 50t-15.5 114q0 59 6.5 109.5
t28.5 65.5q76 56 179 115t214 115.5t214.5 105t181.5 83.5q40 18 93 38t104.5 38t89.5 29t50 11q4 0 11 -7t9 -12q-36 -46 -57 -103.5t-36.5 -102.5t-35.5 -51q-64 -18 -157.5 -46.5t-199 -62.5t-208 -69.5t-186.5 -68t-134.5 -57.5t-50.5 -38q0 -11 21.5 -30.5t41.5 -28.5
q116 -51 226 -120.5t199 -136.5q105 -78 199.5 -162.5t174.5 -142.5t138 -58h49q35 0 51 -21.5t20.5 -50t4.5 -50.5zM1538 1389q0 -7 -15.5 -35t-37 -61t-40 -57t-25.5 -24q-4 0 -27.5 16.5t-52.5 38t-51.5 39t-23.5 18.5q-9 7 -15 7q-5 0 -11 -10q-1 -1 -16 -23t-35 -49.5
t-37.5 -48t-23.5 -20.5q-5 0 -30 16.5t-55.5 39.5t-53.5 42t-23 25q0 7 16.5 35t38.5 61.5t40.5 58t23.5 24.5q8 0 31.5 -16t50.5 -38t47 -39t22 -18q10 -10 14 -10q7 0 16 14q2 2 17.5 23t35.5 47.5t37 47t21 20.5q7 0 32.5 -17t55.5 -40t52 -42.5t22 -24.5z" />
    <glyph glyph-name="uni063C.init" unicode="&#x63c;" horiz-adv-x="1238" 
d="M1247 1502q-35 -45 -50.5 -94.5t-28 -86.5t-40.5 -45q-60 -16 -153 -44.5t-201 -64t-214 -73t-193.5 -73.5t-140.5 -66t-53 -49q0 -14 43.5 -34t109.5 -52t134 -82q127 -90 179 -189t52 -195q0 -134 -63 -211.5t-207 -110t-387 -32.5h-50q-52 0 -64 34t-12 88q0 58 12 90
t64 32h50q114 0 225.5 2t170.5 10q107 15 141.5 33t34.5 44q0 28 -38 68.5t-88.5 80t-87.5 62.5q-41 27 -91.5 49t-94.5 41t-66 36q-28 22 -39.5 70.5t-11.5 107.5t7.5 121t36.5 82q106 74 228.5 136.5t238.5 111t202 82.5q22 8 70 25t106.5 36.5t113.5 38t92 30t41 11.5
q5 0 9 -7.5t13 -12.5zM465 -534q0 -7 -15.5 -35t-37.5 -61.5t-41.5 -58t-27.5 -24.5q-4 0 -29.5 16.5t-56.5 39t-54 42t-23 25.5q0 7 16 35.5t38.5 62t42 58t25.5 24.5q7 0 32.5 -17t56 -40t52.5 -42.5t22 -24.5zM577 -196q0 -7 -15.5 -34.5t-36.5 -60.5t-40 -57.5
t-25 -24.5q-5 0 -28.5 16.5t-52.5 38.5t-51 39t-24 18q-9 8 -15 8q-4 0 -11 -10q-1 -2 -16 -23.5t-35 -49t-37.5 -48.5t-23.5 -21q-5 0 -30 16.5t-55.5 39.5t-53.5 42.5t-23 24.5q0 7 16.5 35t39 61.5t41 58t22.5 24.5q9 0 32.5 -16t50 -37.5t47 -39t21.5 -18.5q11 -9 15 -9
q7 0 16 13q1 2 16.5 23t35.5 48t37 47t22 20q7 0 32.5 -17t55.5 -40t51.5 -42.5t21.5 -24.5z" />
    <glyph glyph-name="uni063C.medi" unicode="&#x63c;" horiz-adv-x="1358" 
d="M1451 122q0 -21 -4.5 -49.5t-20.5 -50.5t-51 -22h-52q-73 0 -131.5 32.5t-124 91.5t-157 139t-230.5 175q7 -25 8 -57t1 -52q0 -169 -157 -249t-498 -80h-50q-34 0 -50.5 22t-21 50.5t-4.5 49.5q0 22 4.5 50.5t21 50t50.5 21.5h50q273 0 417 41t144 117q0 53 -57.5 121.5
t-142.5 114.5q-52 27 -109.5 48.5t-84.5 47.5q-29 30 -59 91.5t-30 112.5q0 17 8.5 55.5t31.5 83t65 78.5q71 56 171 116t213 119t223 111.5t201 93t148.5 63.5t63.5 23q4 0 12 -7t8 -11t-11 -40t-27 -81.5t-29.5 -80.5t-18.5 -36q-136 -38 -274.5 -88.5t-264.5 -106.5
t-225 -109.5t-156.5 -97t-58.5 -68.5q-1 -10 37 -23t92 -29t102 -38q117 -53 224 -120.5t207 -144.5q137 -105 220.5 -185t139 -125.5t109.5 -45.5h52q35 0 51 -21.5t20.5 -50t4.5 -50.5zM420 -564q0 -7 -15.5 -35t-37.5 -61.5t-41.5 -58t-27.5 -24.5q-4 0 -29.5 16.5
t-56.5 39t-54.5 42t-23.5 25.5q0 7 16.5 35.5t39 62t41.5 58t25 24.5q8 0 33.5 -17t55.5 -40t52.5 -42.5t22.5 -24.5zM532 -226q0 -7 -15.5 -34.5t-37 -60.5t-40 -57.5t-25.5 -24.5q-4 0 -27.5 16.5t-52.5 38.5t-51.5 39t-23.5 18q-9 8 -15 8q-5 0 -11 -10q-1 -2 -16 -23.5
t-35 -49t-37.5 -48.5t-23.5 -21q-5 0 -30 16.5t-55.5 39.5t-53.5 42.5t-23 24.5q0 7 16.5 35t38.5 61.5t40.5 58t23.5 24.5q8 0 31.5 -16t50.5 -37.5t47 -39t22 -18.5q10 -9 14 -9q7 0 16 13q2 2 17.5 23t35.5 48t37 47t21 20q7 0 32.5 -17t55.5 -40t52 -42.5t22 -24.5z" />
    <glyph glyph-name="uni063C.fina" unicode="&#x63c;" horiz-adv-x="2274" 
d="M2365 122q0 -21 -4.5 -49.5t-20.5 -50.5t-51 -22h-49q-74 0 -145 38.5t-144.5 99.5t-155.5 131t-178 133q5 -21 8.5 -27.5t3.5 -29.5q0 -145 -119.5 -228.5t-329 -118.5t-481.5 -35q-225 0 -356 34t-187.5 115.5t-56.5 223.5q0 29 11.5 86.5t27.5 119.5t30 105.5t19 43.5
q19 0 29 -10.5t10 -18.5q0 -5 -6.5 -35.5t-12.5 -66.5t-6 -60q0 -90 54.5 -151.5t181 -92.5t341.5 -31q149 0 243 1t150.5 3.5t91.5 5.5t67 8q106 15 153.5 63.5t47.5 91.5q0 40 -38 76.5t-124 91.5q-63 41 -105 59.5t-78 41.5q-31 18 -46.5 50t-15.5 114q0 59 6.5 109.5
t28.5 65.5q76 56 179 115t214 115.5t214.5 105t181.5 83.5q40 18 93 38t104.5 38t89.5 29t50 11q4 0 11 -7t9 -12q-36 -46 -57 -103.5t-36.5 -102.5t-35.5 -51q-64 -18 -157.5 -46.5t-199 -62.5t-208 -69.5t-186.5 -68t-134.5 -57.5t-50.5 -38q0 -11 21.5 -30.5t41.5 -28.5
q116 -51 226 -120.5t199 -136.5q105 -78 199.5 -162.5t174.5 -142.5t138 -58h49q35 0 51 -21.5t20.5 -50t4.5 -50.5zM1423 -590q0 -7 -15.5 -35t-37.5 -61.5t-41.5 -58t-27.5 -24.5q-4 0 -29.5 16.5t-56.5 39t-54.5 42t-23.5 25.5q0 7 16.5 35.5t39 62t41.5 58t25 24.5
q8 0 33.5 -17t55.5 -40t52.5 -42.5t22.5 -24.5zM1535 -252q0 -7 -15.5 -34.5t-37 -60.5t-40 -57.5t-25.5 -24.5q-4 0 -27.5 16.5t-52.5 38.5t-51.5 39t-23.5 18q-9 8 -15 8q-5 0 -11 -10q-1 -2 -16 -23.5t-35 -49t-37.5 -48.5t-23.5 -21q-5 0 -30 16.5t-55.5 39.5
t-53.5 42.5t-23 24.5q0 7 16.5 35t38.5 61.5t40.5 58t23.5 24.5q8 0 31.5 -16t50.5 -37.5t47 -39t22 -18.5q10 -9 14 -9q7 0 16 13q2 2 17.5 23t35.5 48t37 47t21 20q7 0 32.5 -17t55.5 -40t52 -42.5t22 -24.5z" />
    <glyph glyph-name="uni063D.init" unicode="&#x63d;" horiz-adv-x="567" 
d="M439 445q0 -203 -110.5 -324t-296.5 -121h-54q-37 0 -53.5 29t-16.5 95q0 65 19 92.5t51 27.5h54q42 0 91.5 3.5t93.5 11.5t67 20q27 15 39.5 32t12.5 28q0 20 -20.5 47.5t-47.5 56t-47.5 53.5t-20.5 40q0 8 13 38t33 68.5t42 75t39 58.5q41 -70 76.5 -159.5t35.5 -171.5
zM504 991q0 -17 -2 -54.5t-4 -47.5q-25 0 -57.5 25t-64.5 64t-56 81t-33 76q-11 -54 -44.5 -111.5t-74.5 -97.5t-73 -40q-5 0 -5 5q0 8 1 28t1 38q1 21 1.5 36t1.5 19q1 2 24 13.5t54.5 40t60.5 81.5t43 137q0 6 9 6q12 0 12 -5q19 -92 56 -145t77 -80t67 -40q3 -2 4.5 -12
t1.5 -17zM508 -237q0 -7 -15.5 -35t-37 -61t-40 -57.5t-25.5 -24.5q-4 0 -27.5 16.5t-52.5 38.5t-51.5 39t-23.5 19q-9 7 -15 7q-5 0 -11 -10q-1 -2 -16 -23.5t-35 -49t-37.5 -48.5t-23.5 -21q-5 0 -30 17t-55.5 39.5t-53.5 42t-23 24.5q0 7 16.5 35.5t38.5 62t40.5 58
t23.5 24.5q8 0 31.5 -16.5t50.5 -38t47 -38.5t22 -19q10 -9 14 -9q7 0 16 14q2 2 17.5 23t35.5 47.5t37 46.5t21 20q7 0 32.5 -16.5t55.5 -39.5t52 -42.5t22 -24.5z" />
    <glyph glyph-name="uni063D.medi" unicode="&#x63d;" horiz-adv-x="560" 
d="M655 124q0 -55 -12 -89.5t-64 -34.5h-53q-39 0 -65.5 11t-50.5 34q-20 18 -40.5 49t-32.5 65q-49 -61 -115 -110t-188 -49h-50q-52 0 -64 33t-12 91q0 53 12 86.5t64 33.5h50q103 0 166 27t97.5 63t53 63t32.5 27q9 0 16.5 -16t18.5 -60q8 -34 30.5 -69t77.5 -35h53
q52 0 64 -32.5t12 -87.5zM499 650q0 -17 -2 -54.5t-3 -47.5q-26 0 -58.5 25t-64.5 64t-56 81t-32 76q-11 -54 -45 -111.5t-74.5 -97.5t-72.5 -40q-5 0 -5 5q0 8 1 28t1 38q0 21 0.5 36t2.5 19q1 2 23.5 13.5t54.5 40t61 81.5t42 137q0 6 10 6q11 0 11 -5q19 -92 56.5 -145
t77.5 -80t67 -40q3 -2 4 -12t1 -17zM569 -241q0 -7 -15.5 -35t-37 -61t-40.5 -57.5t-25 -24.5q-4 0 -27.5 16.5t-53 38.5t-51.5 39t-24 19q-8 7 -14 7q-5 0 -11 -10q-1 -2 -16 -23.5t-35 -49t-37.5 -48.5t-24.5 -21q-4 0 -29 17t-56 39.5t-54 42t-23 24.5q0 7 16.5 35.5
t39 62t41 58t22.5 24.5q9 0 32.5 -16.5t50.5 -38t47 -38.5t22 -19q10 -9 14 -9q7 0 16 14q1 2 16.5 23t36 47.5t37.5 46.5t21 20q7 0 32.5 -16.5t55.5 -39.5t52 -42.5t22 -24.5z" />
    <glyph glyph-name="uni063D.fina" unicode="&#x63d;" horiz-adv-x="1496" 
d="M1587 122q0 -21 -4.5 -49.5t-20.5 -50.5t-51 -22h-138q-25 0 -78.5 -1t-106.5 -4t-79 -11q-46 -13 -74.5 -36.5t-28.5 -48.5q0 -19 33 -29t100 -19q107 -12 177 -48t70 -132q0 -73 -64.5 -150.5t-173.5 -143.5t-245 -106.5t-278 -40.5q-180 0 -291.5 61.5t-163 164
t-51.5 226.5q0 85 28 174.5t65 165.5t67 122.5t34 46.5q8 0 23.5 -9t15.5 -16q0 -4 -16.5 -35.5t-38.5 -83t-39 -115.5t-17 -133q0 -170 128 -246t337 -76q38 0 106.5 10t147 27t149 37.5t115.5 41.5t45 40q0 30 -48 39.5t-139 12.5q-112 4 -169.5 38t-57.5 108
q0 41 17.5 82.5t43.5 78.5q58 86 142 149.5t166 87.5q28 8 80 11.5t84 3.5h123q35 0 51 -21.5t20.5 -50t4.5 -50.5zM924 417q0 -18 -2 -55.5t-4 -46.5q-25 0 -57.5 25t-64.5 64t-56 81t-33 76q-11 -54 -44.5 -112t-74.5 -97.5t-73 -39.5q-5 0 -5 4q0 9 1 29t1 38
q1 21 1.5 36t1.5 19q1 2 24 13.5t54.5 40t60.5 81.5t43 137q0 5 9 5q12 0 12 -4q19 -92 56 -145t77 -80t67 -41q3 -1 4.5 -11t1.5 -17z" />
    <glyph glyph-name="uni063E.init" unicode="&#x63e;" horiz-adv-x="567" 
d="M439 445q0 -203 -110.5 -324t-296.5 -121h-54q-37 0 -53.5 29t-16.5 95q0 65 19 92.5t51 27.5h54q42 0 91.5 3.5t93.5 11.5t67 20q27 15 39.5 32t12.5 28q0 20 -20.5 47.5t-47.5 56t-47.5 53.5t-20.5 40q0 8 13 38t33 68.5t42 75t39 58.5q41 -70 76.5 -159.5t35.5 -171.5
zM565 1116q0 -7 -15.5 -35t-37 -61t-40 -57.5t-25.5 -24.5q-4 0 -27.5 16.5t-52.5 38.5t-51.5 39t-23.5 19q-9 7 -15 7q-5 0 -11 -10q-1 -2 -16 -23.5t-35 -49t-37.5 -48.5t-23.5 -21q-5 0 -30 17t-55.5 39.5t-53.5 42t-23 24.5q0 7 16.5 35.5t38.5 62t40.5 58t23.5 24.5
q8 0 31.5 -16.5t50.5 -38t47 -38.5t22 -19q10 -9 14 -9q7 0 16 14q2 2 17.5 23t35.5 47.5t37 46.5t21 20q7 0 32.5 -16.5t55.5 -39.5t52 -42.5t22 -24.5zM508 -237q0 -7 -15.5 -35t-37 -61t-40 -57.5t-25.5 -24.5q-4 0 -27.5 16.5t-52.5 38.5t-51.5 39t-23.5 19q-9 7 -15 7
q-5 0 -11 -10q-1 -2 -16 -23.5t-35 -49t-37.5 -48.5t-23.5 -21q-5 0 -30 17t-55.5 39.5t-53.5 42t-23 24.5q0 7 16.5 35.5t38.5 62t40.5 58t23.5 24.5q8 0 31.5 -16.5t50.5 -38t47 -38.5t22 -19q10 -9 14 -9q7 0 16 14q2 2 17.5 23t35.5 47.5t37 46.5t21 20q7 0 32.5 -16.5
t55.5 -39.5t52 -42.5t22 -24.5z" />
    <glyph glyph-name="uni063E.medi" unicode="&#x63e;" horiz-adv-x="560" 
d="M655 124q0 -55 -12 -89.5t-64 -34.5h-53q-39 0 -65.5 11t-50.5 34q-20 18 -40.5 49t-32.5 65q-49 -61 -115 -110t-188 -49h-50q-52 0 -64 33t-12 91q0 53 12 86.5t64 33.5h50q103 0 166 27t97.5 63t53 63t32.5 27q9 0 16.5 -16t18.5 -60q8 -34 30.5 -69t77.5 -35h53
q52 0 64 -32.5t12 -87.5zM568 763q0 -7 -15.5 -35t-37 -61t-40 -57.5t-25.5 -24.5q-4 0 -27.5 16.5t-52.5 38.5t-51.5 39t-23.5 19q-9 7 -15 7q-5 0 -11 -10q-1 -2 -16 -23.5t-35 -49t-37.5 -48.5t-23.5 -21q-5 0 -30 17t-55.5 39.5t-53.5 42t-23 24.5q0 7 16.5 35.5
t38.5 62t40.5 58t23.5 24.5q8 0 31.5 -16.5t50.5 -38t47 -38.5t22 -19q10 -9 14 -9q7 0 16 14q2 2 17.5 23t35.5 47.5t37 46.5t21 20q7 0 32.5 -16.5t55.5 -39.5t52 -42.5t22 -24.5zM569 -241q0 -7 -15.5 -35t-37 -61t-40.5 -57.5t-25 -24.5q-4 0 -27.5 16.5t-53 38.5
t-51.5 39t-24 19q-8 7 -14 7q-5 0 -11 -10q-1 -2 -16 -23.5t-35 -49t-37.5 -48.5t-24.5 -21q-4 0 -29 17t-56 39.5t-54 42t-23 24.5q0 7 16.5 35.5t39 62t41 58t22.5 24.5q9 0 32.5 -16.5t50.5 -38t47 -38.5t22 -19q10 -9 14 -9q7 0 16 14q1 2 16.5 23t36 47.5t37.5 46.5
t21 20q7 0 32.5 -16.5t55.5 -39.5t52 -42.5t22 -24.5z" />
    <glyph glyph-name="uni063E.fina" unicode="&#x63e;" horiz-adv-x="1496" 
d="M1587 122q0 -21 -4.5 -49.5t-20.5 -50.5t-51 -22h-138q-25 0 -78.5 -1t-106.5 -4t-79 -11q-46 -13 -74.5 -36.5t-28.5 -48.5q0 -19 33 -29t100 -19q107 -12 177 -48t70 -132q0 -73 -64.5 -150.5t-173.5 -143.5t-245 -106.5t-278 -40.5q-180 0 -291.5 61.5t-163 164
t-51.5 226.5q0 85 28 174.5t65 165.5t67 122.5t34 46.5q8 0 23.5 -9t15.5 -16q0 -4 -16.5 -35.5t-38.5 -83t-39 -115.5t-17 -133q0 -170 128 -246t337 -76q38 0 106.5 10t147 27t149 37.5t115.5 41.5t45 40q0 30 -48 39.5t-139 12.5q-112 4 -169.5 38t-57.5 108
q0 41 17.5 82.5t43.5 78.5q58 86 142 149.5t166 87.5q28 8 80 11.5t84 3.5h123q35 0 51 -21.5t20.5 -50t4.5 -50.5zM998 503q0 -7 -15.5 -34.5t-37 -60.5t-40.5 -57.5t-25 -24.5q-4 0 -27.5 16.5t-53 38.5t-51.5 39t-24 18q-8 8 -14 8q-5 0 -11 -10q-1 -2 -16 -23.5t-35 -49
t-37.5 -48.5t-24.5 -21q-4 0 -29 16.5t-56 39.5t-54 42.5t-23 24.5q0 7 16.5 35t39 61.5t41 58t22.5 24.5q9 0 32.5 -16t50.5 -37.5t47 -39t22 -18.5q10 -9 14 -9q7 0 16 13q1 2 16.5 23t36 48t37.5 47t21 20q7 0 32.5 -17t55.5 -40t52 -42.5t22 -24.5z" />
    <glyph glyph-name="uni063F.init" unicode="&#x63f;" horiz-adv-x="567" 
d="M439 445q0 -203 -110.5 -324t-296.5 -121h-54q-37 0 -53.5 29t-16.5 95q0 65 19 92.5t51 27.5h54q42 0 91.5 3.5t93.5 11.5t67 20q27 15 39.5 32t12.5 28q0 20 -20.5 47.5t-47.5 56t-47.5 53.5t-20.5 40q0 8 13 38t33 68.5t42 75t39 58.5q41 -70 76.5 -159.5t35.5 -171.5
zM385 1422q0 -7 -16 -35t-38 -61.5t-41 -58.5t-26 -25q-6 0 -31.5 17t-56 40t-53 42.5t-22.5 25.5q0 7 16 35t38 61.5t41 58t27 24.5q5 0 30 -17t55.5 -40t53.5 -42.5t23 -24.5zM565 1120q0 -6 -15.5 -34t-37 -61t-40 -57.5t-25.5 -24.5q-4 0 -27.5 16.5t-52.5 38.5
t-51.5 39t-23.5 18q-9 8 -15 8q-4 0 -11 -10q-1 -2 -16 -23.5t-35 -49t-37.5 -48.5t-23.5 -21q-5 0 -30 16.5t-55.5 39.5t-53.5 42.5t-23 24.5q0 7 16.5 35t38.5 61.5t41 58.5t23 25q8 0 31.5 -16.5t50.5 -38t47 -38.5t22 -19q10 -9 14 -9q7 0 17 13q1 2 16.5 23.5t35.5 48
t37 46.5t22 20q7 0 32 -17t55 -40t52 -42t22 -25zM508 -237q0 -7 -15.5 -35t-37 -61t-40 -57.5t-25.5 -24.5q-4 0 -27.5 16.5t-52.5 38.5t-51.5 39t-23.5 19q-9 7 -15 7q-5 0 -11 -10q-1 -2 -16 -23.5t-35 -49t-37.5 -48.5t-23.5 -21q-5 0 -30 17t-55.5 39.5t-53.5 42
t-23 24.5q0 7 16.5 35.5t38.5 62t40.5 58t23.5 24.5q8 0 31.5 -16.5t50.5 -38t47 -38.5t22 -19q10 -9 14 -9q7 0 16 14q2 2 17.5 23t35.5 47.5t37 46.5t21 20q7 0 32.5 -16.5t55.5 -39.5t52 -42.5t22 -24.5z" />
    <glyph glyph-name="uni063F.medi" unicode="&#x63f;" horiz-adv-x="560" 
d="M655 124q0 -55 -12 -89.5t-64 -34.5h-53q-39 0 -65.5 11t-50.5 34q-20 18 -40.5 49t-32.5 65q-49 -61 -115 -110t-188 -49h-50q-52 0 -64 33t-12 91q0 53 12 86.5t64 33.5h50q103 0 166 27t97.5 63t53 63t32.5 27q9 0 16.5 -16t18.5 -60q8 -34 30.5 -69t77.5 -35h53
q52 0 64 -32.5t12 -87.5zM385 1067q0 -7 -16 -35t-38 -61.5t-41 -58.5t-25 -25q-7 0 -32.5 17t-56 40t-53 42.5t-22.5 25.5q0 7 16 35t38 61.5t41.5 58t26.5 24.5q5 0 30 -17t56 -40t53.5 -42.5t22.5 -24.5zM566 765q0 -6 -15.5 -34t-37 -61t-40.5 -57.5t-25 -24.5
q-4 0 -27.5 16.5t-53 38.5t-51.5 39t-24 18q-9 8 -15 8q-4 0 -10 -10q-2 -2 -16.5 -23.5t-35 -49t-38 -48.5t-23.5 -21q-4 0 -29.5 16.5t-56 39.5t-53.5 42.5t-23 24.5q0 7 16.5 35t39 61.5t41 58.5t22.5 25q9 0 32.5 -16.5t50.5 -38t47 -38.5t21 -19q11 -9 15 -9q7 0 16 13
q1 2 16.5 23.5t36 48t37.5 46.5t21 20q7 0 32.5 -17t55.5 -40t52 -42t22 -25zM569 -241q0 -7 -15.5 -35t-37 -61t-40.5 -57.5t-25 -24.5q-4 0 -27.5 16.5t-53 38.5t-51.5 39t-24 19q-8 7 -14 7q-5 0 -11 -10q-1 -2 -16 -23.5t-35 -49t-37.5 -48.5t-24.5 -21q-4 0 -29 17
t-56 39.5t-54 42t-23 24.5q0 7 16.5 35.5t39 62t41 58t22.5 24.5q9 0 32.5 -16.5t50.5 -38t47 -38.5t22 -19q10 -9 14 -9q7 0 16 14q1 2 16.5 23t36 47.5t37.5 46.5t21 20q7 0 32.5 -16.5t55.5 -39.5t52 -42.5t22 -24.5z" />
    <glyph glyph-name="uni063F.fina" unicode="&#x63f;" horiz-adv-x="1496" 
d="M1587 122q0 -21 -4.5 -49.5t-20.5 -50.5t-51 -22h-138q-25 0 -78.5 -1t-106.5 -4t-79 -11q-46 -13 -74.5 -36.5t-28.5 -48.5q0 -19 33 -29t100 -19q107 -12 177 -48t70 -132q0 -73 -64.5 -150.5t-173.5 -143.5t-245 -106.5t-278 -40.5q-180 0 -291.5 61.5t-163 164
t-51.5 226.5q0 85 28 174.5t65 165.5t67 122.5t34 46.5q8 0 23.5 -9t15.5 -16q0 -4 -16.5 -35.5t-38.5 -83t-39 -115.5t-17 -133q0 -170 128 -246t337 -76q38 0 106.5 10t147 27t149 37.5t115.5 41.5t45 40q0 30 -48 39.5t-139 12.5q-112 4 -169.5 38t-57.5 108
q0 41 17.5 82.5t43.5 78.5q58 86 142 149.5t166 87.5q28 8 80 11.5t84 3.5h123q35 0 51 -21.5t20.5 -50t4.5 -50.5zM802 794q0 -7 -16 -35t-38 -61.5t-41 -58t-25 -24.5q-7 0 -32.5 16.5t-56 39.5t-53 43t-22.5 25q0 7 16 35.5t38 61.5t41.5 57.5t26.5 24.5q5 0 30 -16.5
t56 -39.5t53.5 -42.5t22.5 -25.5zM983 493q0 -7 -15.5 -35t-37 -61t-40.5 -57.5t-25 -24.5q-4 0 -27.5 16.5t-53 38.5t-51.5 39t-24 19q-9 7 -15 7q-4 0 -10 -10q-2 -1 -16.5 -23t-35 -49.5t-38 -48.5t-23.5 -21q-4 0 -29.5 17t-56 39.5t-53.5 42t-23 24.5q0 7 16.5 35.5
t39 62t41 58t22.5 24.5q9 0 32.5 -16.5t50.5 -38t47 -38.5t21 -19q11 -9 15 -9q7 0 16 14q1 2 16.5 23t36 47.5t37.5 46.5t21 20q7 0 32.5 -16.5t55.5 -39.5t52 -42.5t22 -24.5z" />
    <glyph glyph-name="uni0641.init" unicode="&#x641;" horiz-adv-x="665" arabic-form="initial" 
d="M586 468q0 -81 -20 -151.5t-66 -134.5q-23 -32 -84.5 -75t-157.5 -75t-224 -32h-50q-34 0 -50.5 22t-21 50.5t-4.5 49.5q0 22 4.5 50.5t21 50t50.5 21.5h50q150 0 253.5 29t156.5 68t53 68q0 20 -17.5 50t-36.5 50q-12 -34 -38 -71.5t-66 -63.5t-94 -26q-78 0 -124 44
t-46 140q0 28 12.5 79.5t35 111t52.5 113.5t64.5 88t70.5 34q41 0 88.5 -42.5t90.5 -114t70 -158.5t27 -175zM340 638q0 5 -16 19.5t-39 27t-43 12.5q-16 0 -29.5 -16t-13.5 -32t15 -39t44 -23q28 0 55 21t27 30zM412 1268q0 -7 -16.5 -36t-39.5 -63.5t-43.5 -60.5
t-28.5 -26q-4 0 -30 17t-58.5 40.5t-56.5 44t-24 26.5q0 8 16.5 37t40 64t43.5 60.5t26 25.5q7 0 34 -17.5t58.5 -41.5t55 -44t23.5 -26z" />
    <glyph glyph-name="uni0641.medi" unicode="&#x641;" horiz-adv-x="852" arabic-form="medial" 
d="M945 122q0 -21 -4.5 -49.5t-21 -50.5t-50.5 -22h-51q-138 0 -240 37t-175 75q-76 -36 -169.5 -74t-199.5 -38h-50q-34 0 -50.5 22t-21 50.5t-4.5 49.5q0 22 4.5 50.5t21 50t50.5 21.5h50q51 0 107.5 8t95.5 21q-15 33 -15 91q0 65 41 158t102 174q54 72 113.5 118.5
t104.5 46.5q43 0 76 -32t54.5 -79t32.5 -96t11 -83q0 -75 -30 -150t-92 -144q44 -16 89.5 -24.5t93.5 -8.5h51q34 0 50.5 -21.5t21 -50t4.5 -50.5zM652 489q0 22 -17.5 50.5t-49.5 49.5t-76 21q-24 0 -62 -17t-68 -41.5t-30 -46.5q0 -23 21.5 -51.5t52 -55.5t56.5 -46
q69 30 121 65.5t52 71.5zM697 1201q0 -7 -16.5 -36t-39.5 -63.5t-43.5 -60.5t-28.5 -26q-4 0 -30 17t-58.5 40.5t-56.5 44t-24 26.5q0 8 16.5 37t40 64t43.5 60.5t26 25.5q7 0 34 -17.5t58.5 -41.5t55 -44t23.5 -26z" />
    <glyph glyph-name="uni0641.fina" unicode="&#x641;" horiz-adv-x="2099" arabic-form="final" 
d="M2192 122q0 -21 -5 -49.5t-21 -50.5t-50 -22h-53q-135 0 -218.5 28.5t-128.5 54.5q-100 -52 -223 -101.5t-257 -89.5t-268.5 -63.5t-257.5 -23.5q-107 0 -211 20.5t-188.5 66t-135 120t-50.5 184.5q0 58 21.5 119.5t51 114t56 85t37.5 32.5l31 -24q-5 -11 -27 -44.5
t-42.5 -79.5t-20.5 -96q0 -62 39.5 -105.5t102 -72t135 -45t139 -23t112.5 -6.5q122 0 257 24t249 57q64 18 118.5 39t106.5 48l4 8q-22 19 -39 53t-17 62q0 46 19.5 112.5t52.5 137.5t73.5 133t81.5 101t77 39q42 0 81 -38t69.5 -93t48 -109.5t17.5 -88.5q0 -65 -22.5 -132
t-54.5 -132q16 -17 70.5 -22.5t110.5 -5.5h53q34 0 50 -21.5t21 -50t5 -50.5zM1849 476q0 16 -19 48.5t-47 59.5t-55 27q-22 0 -61 -27.5t-71 -63t-32 -59.5q0 -41 43.5 -66.5t97.5 -56.5q57 38 100.5 77t43.5 61zM1873 1188q0 -7 -16.5 -36t-39.5 -64t-43.5 -60.5
t-28.5 -25.5q-4 0 -30 17t-58.5 40.5t-56.5 43.5t-24 27t16.5 36.5t40 64.5t43.5 60.5t26 25.5q7 0 34 -17.5t58.5 -41.5t55 -44.5t23.5 -25.5z" />
    <glyph glyph-name="uni0642.init" unicode="&#x642;" horiz-adv-x="665" arabic-form="initial" 
d="M586 468q0 -81 -20 -151.5t-66 -134.5q-23 -32 -84.5 -75t-157.5 -75t-224 -32h-50q-34 0 -50.5 22t-21 50.5t-4.5 49.5q0 22 4.5 50.5t21 50t50.5 21.5h50q150 0 253.5 29t156.5 68t53 68q0 20 -17.5 50t-36.5 50q-12 -34 -38 -71.5t-66 -63.5t-94 -26q-78 0 -124 44
t-46 140q0 28 12.5 79.5t35 111t52.5 113.5t64.5 88t70.5 34q41 0 88.5 -42.5t90.5 -114t70 -158.5t27 -175zM340 638q0 5 -16 19.5t-39 27t-43 12.5q-16 0 -29.5 -16t-13.5 -32t15 -39t44 -23q28 0 55 21t27 30zM549 1272q0 -7 -15.5 -34.5t-37 -60.5t-40.5 -57.5
t-25 -24.5q-4 0 -27.5 16.5t-53 38.5t-51.5 39t-24 18q-8 8 -14 8q-5 0 -11 -10q-1 -2 -16 -23.5t-35 -49t-37.5 -48.5t-24.5 -21q-4 0 -29 16.5t-56 39.5t-54 42.5t-23 24.5q0 7 16.5 35t39 61.5t41 58t22.5 24.5q9 0 32.5 -16t50.5 -37.5t47 -39t22 -18.5q10 -9 14 -9
q7 0 16 13q1 2 16.5 23t36 48t37.5 47t21 20q7 0 32.5 -17t55.5 -40t52 -42.5t22 -24.5z" />
    <glyph glyph-name="uni0642.medi" unicode="&#x642;" horiz-adv-x="852" arabic-form="medial" 
d="M945 122q0 -21 -4.5 -49.5t-21 -50.5t-50.5 -22h-51q-138 0 -240 37t-175 75q-76 -36 -169.5 -74t-199.5 -38h-50q-34 0 -50.5 22t-21 50.5t-4.5 49.5q0 22 4.5 50.5t21 50t50.5 21.5h50q51 0 107.5 8t95.5 21q-15 33 -15 91q0 65 41 158t102 174q54 72 113.5 118.5
t104.5 46.5q43 0 76 -32t54.5 -79t32.5 -96t11 -83q0 -75 -30 -150t-92 -144q44 -16 89.5 -24.5t93.5 -8.5h51q34 0 50.5 -21.5t21 -50t4.5 -50.5zM652 489q0 22 -17.5 50.5t-49.5 49.5t-76 21q-24 0 -62 -17t-68 -41.5t-30 -46.5q0 -23 21.5 -51.5t52 -55.5t56.5 -46
q69 30 121 65.5t52 71.5zM834 1241q0 -7 -15.5 -35t-37 -61t-40.5 -57t-25 -24q-4 0 -27.5 16.5t-53 38t-51.5 39t-24 18.5q-8 7 -14 7q-5 0 -11 -10q-1 -1 -16 -23t-35 -49.5t-37.5 -48t-24.5 -20.5q-4 0 -29 16.5t-56 39.5t-54 42t-23 25q0 7 16.5 35t39 61.5t41 58
t22.5 24.5q9 0 32.5 -16t50.5 -38t47 -39t22 -18q10 -10 14 -10q7 0 16 14q1 2 16.5 23t36 47.5t37.5 47t21 20.5q7 0 32.5 -17t55.5 -40t52 -42.5t22 -24.5z" />
    <glyph glyph-name="uni0642.fina" unicode="&#x642;" horiz-adv-x="1358" arabic-form="final" 
d="M1452 122q0 -21 -5 -49.5t-21 -50.5t-50 -22h-132q-10 -48 -25.5 -95t-41.5 -94q-36 -64 -100 -132t-153.5 -125.5t-200.5 -93t-240 -35.5q-102 0 -187 45t-135.5 130t-50.5 206q0 96 28.5 182.5t67 153t69.5 104.5t34 38q8 0 20.5 -11.5t12.5 -20.5q0 -4 -18 -34
t-42 -75.5t-42 -97t-18 -98.5q0 -132 101 -202.5t252 -70.5q176 0 311 47.5t205 117.5q26 26 37 76.5t12 84.5q-22 0 -48 -1.5t-72 -1.5q-103 0 -163.5 50.5t-60.5 125.5q0 60 22.5 129.5t58 131.5t77 101.5t79.5 39.5q50 0 88.5 -36t65.5 -90t43 -109.5t21 -95.5h42.5h82.5
q34 0 50 -21.5t21 -50t5 -50.5zM1095 242q-10 38 -47 68.5t-74 30.5q-30 0 -44.5 -18t-14.5 -36q0 -30 54.5 -37.5t125.5 -7.5zM1285 912q0 -7 -15.5 -35t-36.5 -61t-40 -57t-25 -24q-5 0 -28.5 16.5t-52.5 38t-51 39t-24 18.5q-9 7 -15 7q-4 0 -11 -10q-1 -1 -16 -23
t-35 -49.5t-37.5 -48t-23.5 -20.5q-5 0 -30 16.5t-55.5 39.5t-53.5 42t-23 25q0 7 16.5 35t39 61.5t41 58t22.5 24.5q9 0 32.5 -16t50 -38t47 -39t21.5 -18q11 -10 15 -10q7 0 16 14q1 2 16.5 23t35.5 47.5t37 47t22 20.5q7 0 32.5 -17t55.5 -40t51.5 -42.5t21.5 -24.5z" />
    <glyph glyph-name="uni0643.init" unicode="&#x643;" horiz-adv-x="1238" arabic-form="initial" 
d="M1247 1502q-35 -45 -50.5 -94.5t-28 -86.5t-40.5 -45q-60 -16 -153 -44.5t-201 -64t-214 -73t-193.5 -73.5t-140.5 -66t-53 -49q0 -14 43.5 -34t109.5 -52t134 -82q127 -90 179 -189t52 -195q0 -134 -63 -211.5t-207 -110t-387 -32.5h-50q-52 0 -64 34t-12 88q0 58 12 90
t64 32h50q114 0 225.5 2t170.5 10q107 15 141.5 33t34.5 44q0 28 -38 68.5t-88.5 80t-87.5 62.5q-41 27 -91.5 49t-94.5 41t-66 36q-28 22 -39.5 70.5t-11.5 107.5t7.5 121t36.5 82q106 74 228.5 136.5t238.5 111t202 82.5q22 8 70 25t106.5 36.5t113.5 38t92 30t41 11.5
q5 0 9 -7.5t13 -12.5z" />
    <glyph glyph-name="uni0643.medi" unicode="&#x643;" horiz-adv-x="1358" arabic-form="medial" 
d="M1451 122q0 -21 -4.5 -49.5t-20.5 -50.5t-51 -22h-52q-73 0 -131.5 32.5t-124 91.5t-157 139t-230.5 175q7 -25 8 -57t1 -52q0 -169 -157 -249t-498 -80h-50q-34 0 -50.5 22t-21 50.5t-4.5 49.5q0 22 4.5 50.5t21 50t50.5 21.5h50q273 0 417 41t144 117q0 53 -57.5 121.5
t-142.5 114.5q-52 27 -109.5 48.5t-84.5 47.5q-29 30 -59 91.5t-30 112.5q0 17 8.5 55.5t31.5 83t65 78.5q71 56 171 116t213 119t223 111.5t201 93t148.5 63.5t63.5 23q4 0 12 -7t8 -11t-11 -40t-27 -81.5t-29.5 -80.5t-18.5 -36q-136 -38 -274.5 -88.5t-264.5 -106.5
t-225 -109.5t-156.5 -97t-58.5 -68.5q-1 -10 37 -23t92 -29t102 -38q117 -53 224 -120.5t207 -144.5q137 -105 220.5 -185t139 -125.5t109.5 -45.5h52q35 0 51 -21.5t20.5 -50t4.5 -50.5z" />
    <glyph glyph-name="uni0643.fina" unicode="&#x643;" horiz-adv-x="1913" arabic-form="final" 
d="M2007 122q0 -63 -12 -92.5t-64 -29.5h-54q-86 0 -133.5 32t-77 99t-60.5 173q-15 -33 -38.5 -81t-55 -96.5t-71.5 -80.5q-57 -50 -176 -103t-285 -90t-364 -37q-189 0 -302.5 43t-164 122t-50.5 187q0 30 11.5 88t27.5 120t30 105t19 43q19 0 29 -11t10 -17
q0 -7 -6.5 -36.5t-12.5 -65.5t-6 -61q0 -135 121 -200t337 -65q76 0 188 12.5t231.5 36.5t222.5 58.5t161 79.5q53 42 76 102t23 124q0 85 -8 185t-19.5 201t-23 189.5t-19 152.5t-7.5 88q0 37 15 75t37.5 64t46.5 26q17 0 29 -26.5t15 -69.5q4 -56 10 -147.5t12.5 -197.5
t13 -206t11.5 -175.5t8 -104.5q11 -103 26 -167t53 -94t116 -30h54q52 0 64 -32.5t12 -89.5zM1060 763q0 -74 -42 -131.5t-99 -90.5t-102 -33q-58 0 -123 28.5t-95 64.5q35 3 85.5 9t99 15t81.5 21.5t33 27.5q0 19 -31 23t-72 8t-72 21t-31 62q0 52 27 117t85.5 130
t153.5 116q4 -9 12 -43.5t15 -69t8 -42.5q-27 0 -63.5 -13t-63.5 -32t-28 -39q0 -29 22 -39t55.5 -12.5t66.5 -8t55.5 -25t22.5 -64.5z" />
    <glyph glyph-name="uni0644.init" unicode="&#x644;" horiz-adv-x="530" arabic-form="initial" 
d="M379 535q0 -39 -9 -105.5t-30 -129.5q-19 -62 -53 -131.5t-94 -119t-157 -49.5h-52q-52 0 -64 33.5t-12 88.5q0 46 12 84t64 38h52q63 0 118.5 16.5t90.5 53t35 95.5q0 32 -13.5 115t-33.5 193.5t-39.5 227.5t-33 218.5t-13.5 163.5q0 41 19.5 86.5t47.5 77.5t54 32
q2 0 23.5 -27.5t48.5 -64t48 -66t21 -32.5q0 -4 -21.5 -22t-43 -49.5t-21.5 -75.5q0 -55 8.5 -141t19.5 -181.5t19.5 -183t8.5 -145.5z" />
    <glyph glyph-name="uni0644.medi" unicode="&#x644;" horiz-adv-x="601" arabic-form="medial" 
d="M694 124q0 -124 -71 -124h-54q-115 0 -169.5 74t-94.5 198q-67 -272 -273 -272h-54q-39 0 -54.5 26t-15.5 98q0 54 14.5 87t55.5 33h54q45 0 80 7.5t60 25.5q46 33 66 117t20 170q0 96 -8 201t-18.5 205t-18.5 181.5t-8 130.5q0 47 19.5 91.5t45 73t44.5 28.5
q32 0 35 -107q3 -81 8 -195t11.5 -236t13.5 -229t13 -175q12 -152 51.5 -220.5t122.5 -68.5h54q38 0 54.5 -26t16.5 -94z" />
    <glyph glyph-name="uni0644.fina" unicode="&#x644;" horiz-adv-x="1243" arabic-form="final" 
d="M1336 124q0 -124 -71 -124q-122 0 -181 43t-98 164q8 -90 13 -182t5 -179q0 -16 -0.5 -35.5t-2.5 -39.5q-3 -39 -11.5 -88t-26.5 -91q-66 -148 -214.5 -234t-355.5 -86q-49 0 -111 15t-119 53.5t-94 107t-37 174.5q0 71 24 152t57 153t60.5 117.5t34.5 45.5
q8 0 20.5 -11.5t12.5 -18.5q0 -10 -22.5 -55.5t-45 -108.5t-22.5 -126q0 -136 82 -193t214 -57q97 0 186 23t156.5 62t99.5 86q11 19 15.5 57.5t4.5 81.5q0 62 -9.5 229.5t-29.5 407.5q-10 135 -20 280t-16.5 275t-6.5 220q0 43 26 84.5t55.5 68t38.5 26.5q2 0 5 -54
t8 -146.5t13 -207t19 -236t27 -235.5t37 -203q15 -59 61.5 -77t147.5 -18q38 0 54.5 -23.5t16.5 -96.5z" />
    <glyph glyph-name="uni0645.init" unicode="&#x645;" horiz-adv-x="852" arabic-form="initial" 
d="M742 335q0 -40 -23 -96t-55.5 -99t-62.5 -43q-38 0 -93 22t-110 53t-96 60q-41 -62 -83 -114t-71 -74q-21 -16 -50.5 -30t-63.5 -14h-50q-34 0 -50.5 22t-21 50.5t-4.5 49.5q0 22 4.5 50.5t21 50t50.5 21.5h50q74 0 127.5 32t92.5 82.5t70 107.5t60 108q39 65 77.5 107
t92.5 42q31 0 54 -13t44 -47q22 -38 43 -101.5t34 -126.5t13 -100zM573 409q0 20 -16 45.5t-39.5 44.5t-45.5 19q-25 0 -40 -20.5t-15 -37.5q0 -4 -0.5 -18.5t10.5 -20.5q18 -10 45.5 -21t51.5 -18.5t29 -7.5q6 0 13 13t7 22z" />
    <glyph glyph-name="uni0645.medi" unicode="&#x645;" horiz-adv-x="1117" arabic-form="medial" 
d="M1209 122q0 -21 -5 -49.5t-21 -50.5t-50 -22h-52q-90 0 -177.5 43.5t-142.5 96.5q-1 -65 -18 -116.5t-80 -51.5q-70 0 -155.5 61t-178.5 139q-59 -65 -134.5 -118.5t-160.5 -53.5h-50q-34 0 -50.5 22t-21 50.5t-4.5 49.5q0 22 4.5 50.5t21 50t50.5 21.5h50q89 0 148.5 23
t103 59t81.5 74q2 3 21.5 28t49 56t61 54t58.5 23q40 0 65 -26.5t68 -73.5q47 -51 108.5 -101t133 -83t149.5 -33h52q34 0 50 -21.5t21 -50t5 -50.5zM620 251q0 25 -13 68t-33.5 78t-41.5 35q-15 0 -36.5 -23.5t-38 -48t-16.5 -26.5q0 -9 21 -28t50 -39.5t53.5 -34.5
t32.5 -14q11 0 16.5 11t5.5 22z" />
    <glyph glyph-name="uni0645.fina" unicode="&#x645;" horiz-adv-x="1118" arabic-form="final" 
d="M1209 122q0 -21 -4.5 -49.5t-20 -50.5t-50.5 -22h-51q-121 0 -200.5 15.5t-166.5 49.5q1 -24 3.5 -65t2.5 -69q0 -40 -16 -87t-42.5 -81t-58.5 -34q-42 0 -81 37t-69.5 95t-49 123.5t-18.5 123.5q-111 -29 -159 -68.5t-48 -118.5q0 -34 11.5 -107t29 -164t34.5 -181.5
t29 -161t12 -101.5q0 -26 -15 -73.5t-34.5 -86t-33.5 -38.5q-13 0 -20 62t-21 154q-18 124 -39 248.5t-35.5 226t-14.5 156.5q0 93 23 193t75.5 184.5t140.5 130.5q85 43 123.5 75t51.5 32q12 0 46 -34t100.5 -79t174 -79t265.5 -34h51q35 0 50.5 -21.5t20 -50t4.5 -50.5z
" />
    <glyph glyph-name="uni0646.init" unicode="&#x646;" horiz-adv-x="567" arabic-form="initial" 
d="M439 445q0 -203 -110.5 -324t-296.5 -121h-54q-37 0 -53.5 29t-16.5 95q0 65 19 92.5t51 27.5h54q42 0 91.5 3.5t93.5 11.5t67 20q27 15 39.5 32t12.5 28q0 20 -20.5 47.5t-47.5 56t-47.5 53.5t-20.5 40q0 8 13 38t33 68.5t42 75t39 58.5q41 -70 76.5 -159.5t35.5 -171.5
zM427 1111q0 -7 -16 -36t-39 -63.5t-43.5 -60.5t-28.5 -26q-4 0 -30.5 17t-58.5 40.5t-56.5 44t-24.5 26.5q0 8 17 37t40.5 64t43.5 60.5t26 25.5q7 0 34 -17.5t58.5 -41.5t54.5 -44t23 -26z" />
    <glyph glyph-name="uni0646.medi" unicode="&#x646;" horiz-adv-x="560" arabic-form="medial" 
d="M655 124q0 -55 -12 -89.5t-64 -34.5h-53q-39 0 -65.5 11t-50.5 34q-20 18 -40.5 49t-32.5 65q-49 -61 -115 -110t-188 -49h-50q-52 0 -64 33t-12 91q0 53 12 86.5t64 33.5h50q103 0 166 27t97.5 63t53 63t32.5 27q9 0 16.5 -16t18.5 -60q8 -34 30.5 -69t77.5 -35h53
q52 0 64 -32.5t12 -87.5zM431 743q0 -7 -16.5 -36t-39 -64t-43 -60.5t-28.5 -25.5q-5 0 -31 17t-58.5 40.5t-56.5 43.5t-24 27t17 36.5t40 64.5t43 60.5t26 25.5q8 0 34.5 -17.5t58.5 -41.5t55 -44.5t23 -25.5z" />
    <glyph glyph-name="uni0646.fina" unicode="&#x646;" horiz-adv-x="1368" arabic-form="final" 
d="M1460 122q0 -21 -4.5 -49.5t-20.5 -50.5t-51 -22h-51q-21 0 -54.5 4t-50.5 16q-2 -83 -15 -172.5t-39.5 -171.5t-67.5 -142q-17 -24 -60 -63.5t-116.5 -80t-180.5 -68t-251 -27.5q-139 0 -236.5 51t-148.5 133t-51 176q0 95 28 181.5t65 155t67 108t35 39.5
q10 0 21.5 -12.5t11.5 -22.5q0 -9 -29.5 -51.5t-59.5 -110.5t-30 -153q0 -97 60 -153.5t158.5 -81t215.5 -24.5q88 0 178.5 17t163.5 47t109 71q68 78 68 243q0 64 -22 118.5t-43 85.5q-10 16 -25 31.5t-15 18.5q0 7 14.5 41.5t34.5 76.5t36 73t19 31q8 0 18 -5t17 -18
q7 -16 33 -44.5t63 -50.5t79 -22h51q35 0 51 -21.5t20.5 -50t4.5 -50.5zM809 512q0 -7 -16 -36t-39 -63.5t-43.5 -60.5t-28.5 -26q-4 0 -30.5 17t-58.5 40.5t-56.5 44t-24.5 26.5q0 8 17 37t40.5 64t43.5 60.5t26 25.5q7 0 34 -17.5t58.5 -41.5t54.5 -44t23 -26z" />
    <glyph glyph-name="uni0647.init" unicode="&#x647;" horiz-adv-x="1070" arabic-form="initial" 
d="M-16 0q-34 0 -50.5 22t-21 50.5t-4.5 49.5q0 22 4.5 50.5t21 50t50.5 21.5h50q64 0 114 10.5t83 25.5q-29 20 -45 48.5t-16 51.5q0 59 44 153t116 185q-20 7 -43 7q-16 0 -23.5 8t-7.5 15q0 29 22.5 76.5t60 85.5t80.5 38q56 0 124 -43.5t136 -113t125 -149.5
t91.5 -155.5t34.5 -130.5q0 -135 -42 -197.5t-119 -62.5q-53 0 -117.5 16t-127.5 37.5t-113 39.5q-30 -24 -84 -69.5t-128 -82.5t-165 -37h-50zM436 395q22 12 48 36t44 50.5t18 44.5q0 17 -17.5 45t-41 50t-42.5 22q-24 0 -58.5 -23.5t-60 -55.5t-25.5 -57q0 -35 47 -62
t88 -50zM817 293q5 0 18.5 4t16.5 14q-13 35 -46.5 86.5t-77 98t-85.5 64.5q-16 -62 -35.5 -112t-54.5 -98q15 -6 62.5 -19.5t104 -25.5t97.5 -12z" />
    <glyph glyph-name="uni0647.medi" unicode="&#x647;" horiz-adv-x="1092" arabic-form="medial" 
d="M1186 122q0 -21 -4.5 -49.5t-20.5 -50.5t-51 -22h-51q-67 0 -160 -2t-162 -12q33 -25 60 -70t27 -111q0 -96 -32 -177.5t-87 -131.5t-124 -50q-71 0 -134.5 63.5t-93.5 143.5q-23 60 -38.5 125t-24.5 120.5t-13 87.5q-56 8 -120 11t-123 3h-50q-34 0 -50.5 22t-21 50.5
t-4.5 49.5q0 22 4.5 50.5t21 50t50.5 21.5h50q70 0 142 4.5t112 20.5q44 102 98.5 203t112.5 183.5t114 132.5t104 50q34 0 55.5 -44.5t32 -102.5t10.5 -99q0 -63 -25.5 -138t-77.5 -142.5t-132 -110.5q6 0 54 6.5t115.5 15t135.5 15t114 6.5h111q35 0 51 -21.5t20.5 -50
t4.5 -50.5zM697 484q0 26 -15.5 52t-53.5 26q-39 0 -87.5 -46t-90.5 -111t-60 -121q142 44 224.5 94.5t82.5 105.5zM726 -245q0 33 -42.5 78t-120 84.5t-183.5 57.5q6 -35 27.5 -82t54.5 -92.5t75 -75.5t89 -30q39 0 69.5 17t30.5 43z" />
    <glyph glyph-name="uni0647.fina" unicode="&#x647;" horiz-adv-x="845" arabic-form="final" 
d="M938 122q0 -21 -4.5 -49.5t-20.5 -50.5t-51 -22h-51q-79 0 -130 22t-84 81.5t-60 171.5q-36 -44 -91 -90t-126 -46q-25 0 -65 6t-80.5 18t-68 32t-27.5 49q0 23 18 69.5t46 98t56 90.5q27 34 76 76.5t100.5 78.5t85.5 50l-2 22t-1 23q0 19 2 31q5 38 24 73.5t41 58
t35 22.5q2 0 13 -66.5t24 -147.5q14 -81 28.5 -164.5t26 -144t15.5 -74.5q9 -30 19.5 -51.5t38 -33t86.5 -11.5h51q35 0 51 -21.5t20.5 -50t4.5 -50.5zM514 402q-6 35 -14.5 87t-19.5 99q-69 -25 -118.5 -65.5t-75.5 -74.5t-26 -40t31.5 -12.5t72.5 -11t70 -4.5q50 0 80 22z
" />
    <glyph glyph-name="uni0648.fina" unicode="&#x648;" horiz-adv-x="862" arabic-form="final" 
d="M956 122q0 -21 -5 -49.5t-21 -50.5t-50 -22l-156 -3q-14 -62 -42.5 -148t-72 -174t-102.5 -156q-144 -158 -289 -158q-45 0 -107 24.5t-121 58t-98 60.5t-39 33q0 9 10.5 21.5t21.5 12.5q14 0 64.5 -15.5t113.5 -15.5q75 0 163 36t171 99t143.5 145t80.5 175
q-145 9 -225 43.5t-80 146.5q0 51 23.5 124t60.5 144.5t79 119.5t80 48q36 0 69 -42.5t58.5 -105.5t40 -126t14.5 -103h139q34 0 50 -21.5t21 -50t5 -50.5zM631 247q0 19 -20.5 49.5t-50.5 55t-59 24.5q-20 0 -38.5 -23.5t-18.5 -45.5q0 -20 48 -39t139 -21z" />
    <glyph glyph-name="uni0649.init" unicode="&#x649;" horiz-adv-x="567" 
d="M439 445q0 -203 -110.5 -324t-296.5 -121h-54q-37 0 -53.5 29t-16.5 95q0 65 19 92.5t51 27.5h54q42 0 91.5 3.5t93.5 11.5t67 20q27 15 39.5 32t12.5 28q0 20 -20.5 47.5t-47.5 56t-47.5 53.5t-20.5 40q0 8 13 38t33 68.5t42 75t39 58.5q41 -70 76.5 -159.5t35.5 -171.5
z" />
    <glyph glyph-name="uni0649.medi" unicode="&#x649;" horiz-adv-x="560" 
d="M655 124q0 -55 -12 -89.5t-64 -34.5h-53q-39 0 -65.5 11t-50.5 34q-20 18 -40.5 49t-32.5 65q-49 -61 -115 -110t-188 -49h-50q-52 0 -64 33t-12 91q0 53 12 86.5t64 33.5h50q103 0 166 27t97.5 63t53 63t32.5 27q9 0 16.5 -16t18.5 -60q8 -34 30.5 -69t77.5 -35h53
q52 0 64 -32.5t12 -87.5z" />
    <glyph glyph-name="uni0649.fina" unicode="&#x649;" horiz-adv-x="1496" arabic-form="final" 
d="M1587 122q0 -21 -4.5 -49.5t-20.5 -50.5t-51 -22h-138q-25 0 -78.5 -1t-106.5 -4t-79 -11q-46 -13 -74.5 -36.5t-28.5 -48.5q0 -19 33 -29t100 -19q107 -12 177 -48t70 -132q0 -73 -64.5 -150.5t-173.5 -143.5t-245 -106.5t-278 -40.5q-180 0 -291.5 61.5t-163 164
t-51.5 226.5q0 85 28 174.5t65 165.5t67 122.5t34 46.5q8 0 23.5 -9t15.5 -16q0 -4 -16.5 -35.5t-38.5 -83t-39 -115.5t-17 -133q0 -170 128 -246t337 -76q38 0 106.5 10t147 27t149 37.5t115.5 41.5t45 40q0 30 -48 39.5t-139 12.5q-112 4 -169.5 38t-57.5 108
q0 41 17.5 82.5t43.5 78.5q58 86 142 149.5t166 87.5q28 8 80 11.5t84 3.5h123q35 0 51 -21.5t20.5 -50t4.5 -50.5z" />
    <glyph glyph-name="uni064A.init" unicode="&#x64a;" horiz-adv-x="567" arabic-form="initial" 
d="M439 445q0 -203 -110.5 -324t-296.5 -121h-54q-37 0 -53.5 29t-16.5 95q0 65 19 92.5t51 27.5h54q42 0 91.5 3.5t93.5 11.5t67 20q27 15 39.5 32t12.5 28q0 20 -20.5 47.5t-47.5 56t-47.5 53.5t-20.5 40q0 8 13 38t33 68.5t42 75t39 58.5q41 -70 76.5 -159.5t35.5 -171.5
zM508 -237q0 -7 -15.5 -35t-37 -61t-40 -57.5t-25.5 -24.5q-4 0 -27.5 16.5t-52.5 38.5t-51.5 39t-23.5 19q-9 7 -15 7q-5 0 -11 -10q-1 -2 -16 -23.5t-35 -49t-37.5 -48.5t-23.5 -21q-5 0 -30 17t-55.5 39.5t-53.5 42t-23 24.5q0 7 16.5 35.5t38.5 62t40.5 58t23.5 24.5
q8 0 31.5 -16.5t50.5 -38t47 -38.5t22 -19q10 -9 14 -9q7 0 16 14q2 2 17.5 23t35.5 47.5t37 46.5t21 20q7 0 32.5 -16.5t55.5 -39.5t52 -42.5t22 -24.5z" />
    <glyph glyph-name="uni064A.medi" unicode="&#x64a;" horiz-adv-x="560" arabic-form="medial" 
d="M655 124q0 -55 -12 -89.5t-64 -34.5h-53q-39 0 -65.5 11t-50.5 34q-20 18 -40.5 49t-32.5 65q-49 -61 -115 -110t-188 -49h-50q-52 0 -64 33t-12 91q0 53 12 86.5t64 33.5h50q103 0 166 27t97.5 63t53 63t32.5 27q9 0 16.5 -16t18.5 -60q8 -34 30.5 -69t77.5 -35h53
q52 0 64 -32.5t12 -87.5zM569 -241q0 -7 -15.5 -35t-37 -61t-40.5 -57.5t-25 -24.5q-4 0 -27.5 16.5t-53 38.5t-51.5 39t-24 19q-8 7 -14 7q-5 0 -11 -10q-1 -2 -16 -23.5t-35 -49t-37.5 -48.5t-24.5 -21q-4 0 -29 17t-56 39.5t-54 42t-23 24.5q0 7 16.5 35.5t39 62t41 58
t22.5 24.5q9 0 32.5 -16.5t50.5 -38t47 -38.5t22 -19q10 -9 14 -9q7 0 16 14q1 2 16.5 23t36 47.5t37.5 46.5t21 20q7 0 32.5 -16.5t55.5 -39.5t52 -42.5t22 -24.5z" />
    <glyph glyph-name="uni064A.fina" unicode="&#x64a;" horiz-adv-x="1496" arabic-form="final" 
d="M1587 122q0 -21 -4.5 -49.5t-20.5 -50.5t-51 -22h-138q-25 0 -78.5 -1t-106.5 -4t-79 -11q-46 -13 -74.5 -36.5t-28.5 -48.5q0 -19 33 -29t100 -19q107 -12 177 -48t70 -132q0 -73 -64.5 -150.5t-173.5 -143.5t-245 -106.5t-278 -40.5q-180 0 -291.5 61.5t-163 164
t-51.5 226.5q0 85 28 174.5t65 165.5t67 122.5t34 46.5q8 0 23.5 -9t15.5 -16q0 -4 -16.5 -35.5t-38.5 -83t-39 -115.5t-17 -133q0 -170 128 -246t337 -76q38 0 106.5 10t147 27t149 37.5t115.5 41.5t45 40q0 30 -48 39.5t-139 12.5q-112 4 -169.5 38t-57.5 108
q0 41 17.5 82.5t43.5 78.5q58 86 142 149.5t166 87.5q28 8 80 11.5t84 3.5h123q35 0 51 -21.5t20.5 -50t4.5 -50.5zM920 -979q0 -7 -15.5 -34.5t-37 -60.5t-40 -57.5t-25.5 -24.5q-4 0 -27.5 16.5t-52.5 38.5t-51.5 39t-23.5 18q-9 8 -15 8q-5 0 -11 -10q-1 -2 -16 -23.5
t-35 -49t-37.5 -48.5t-23.5 -21q-5 0 -30 16.5t-55.5 39.5t-53.5 42.5t-23 24.5q0 7 16.5 35t38.5 61.5t40.5 58t23.5 24.5q8 0 31.5 -16t50.5 -37.5t47 -39t22 -18.5q10 -9 14 -9q7 0 16 13q2 2 17.5 23t35.5 48t37 47t21 20q7 0 32.5 -17t55.5 -40t52 -42.5t22 -24.5z" />
    <glyph glyph-name="uni066E.init" unicode="&#x66e;" horiz-adv-x="567" 
d="M439 445q0 -203 -110.5 -324t-296.5 -121h-54q-37 0 -53.5 29t-16.5 95q0 65 19 92.5t51 27.5h54q42 0 91.5 3.5t93.5 11.5t67 20q27 15 39.5 32t12.5 28q0 20 -20.5 47.5t-47.5 56t-47.5 53.5t-20.5 40q0 8 13 38t33 68.5t42 75t39 58.5q41 -70 76.5 -159.5t35.5 -171.5
z" />
    <glyph glyph-name="uni066E.medi" unicode="&#x66e;" horiz-adv-x="560" 
d="M655 124q0 -55 -12 -89.5t-64 -34.5h-53q-39 0 -65.5 11t-50.5 34q-20 18 -40.5 49t-32.5 65q-49 -61 -115 -110t-188 -49h-50q-52 0 -64 33t-12 91q0 53 12 86.5t64 33.5h50q103 0 166 27t97.5 63t53 63t32.5 27q9 0 16.5 -16t18.5 -60q8 -34 30.5 -69t77.5 -35h53
q52 0 64 -32.5t12 -87.5z" />
    <glyph glyph-name="uni066E.fina" unicode="&#x66e;" horiz-adv-x="2009" 
d="M2102 122q0 -21 -3.5 -49.5t-17.5 -50.5t-45 -22h-55q-87 0 -146.5 26t-108.5 126q-74 -69 -221 -129.5t-343.5 -98t-420.5 -37.5q-193 0 -334.5 49t-219 141t-77.5 222q0 73 21 142t49 124t51.5 87t29.5 32q5 0 19 -9.5t14 -19.5q0 -6 -18.5 -36.5t-37 -78.5t-18.5 -108
q0 -99 81.5 -162t220 -93t308.5 -30q176 0 340 16.5t293 51t200 89.5q28 21 43.5 45.5t31.5 24.5q17 0 29 -31t35 -54q42 -45 179 -45h55q31 0 45 -21.5t17.5 -50t3.5 -50.5z" />
    <glyph glyph-name="uni066F.init" unicode="&#x66f;" horiz-adv-x="665" 
d="M586 468q0 -81 -20 -151.5t-66 -134.5q-23 -32 -84.5 -75t-157.5 -75t-224 -32h-50q-34 0 -50.5 22t-21 50.5t-4.5 49.5q0 22 4.5 50.5t21 50t50.5 21.5h50q150 0 253.5 29t156.5 68t53 68q0 20 -17.5 50t-36.5 50q-12 -34 -38 -71.5t-66 -63.5t-94 -26q-78 0 -124 44
t-46 140q0 28 12.5 79.5t35 111t52.5 113.5t64.5 88t70.5 34q41 0 88.5 -42.5t90.5 -114t70 -158.5t27 -175zM340 638q0 5 -16 19.5t-39 27t-43 12.5q-16 0 -29.5 -16t-13.5 -32t15 -39t44 -23q28 0 55 21t27 30z" />
    <glyph glyph-name="uni066F.medi" unicode="&#x66f;" horiz-adv-x="852" 
d="M945 122q0 -21 -4.5 -49.5t-21 -50.5t-50.5 -22h-51q-138 0 -240 37t-175 75q-76 -36 -169.5 -74t-199.5 -38h-50q-34 0 -50.5 22t-21 50.5t-4.5 49.5q0 22 4.5 50.5t21 50t50.5 21.5h50q51 0 107.5 8t95.5 21q-15 33 -15 91q0 65 41 158t102 174q54 72 113.5 118.5
t104.5 46.5q43 0 76 -32t54.5 -79t32.5 -96t11 -83q0 -75 -30 -150t-92 -144q44 -16 89.5 -24.5t93.5 -8.5h51q34 0 50.5 -21.5t21 -50t4.5 -50.5zM652 489q0 22 -17.5 50.5t-49.5 49.5t-76 21q-24 0 -62 -17t-68 -41.5t-30 -46.5q0 -23 21.5 -51.5t52 -55.5t56.5 -46
q69 30 121 65.5t52 71.5z" />
    <glyph glyph-name="uni066F.fina" unicode="&#x66f;" horiz-adv-x="1358" 
d="M1452 122q0 -21 -5 -49.5t-21 -50.5t-50 -22h-132q-10 -48 -25.5 -95t-41.5 -94q-36 -64 -100 -132t-153.5 -125.5t-200.5 -93t-240 -35.5q-102 0 -187 45t-135.5 130t-50.5 206q0 96 28.5 182.5t67 153t69.5 104.5t34 38q8 0 20.5 -11.5t12.5 -20.5q0 -4 -18 -34
t-42 -75.5t-42 -97t-18 -98.5q0 -132 101 -202.5t252 -70.5q176 0 311 47.5t205 117.5q26 26 37 76.5t12 84.5q-22 0 -48 -1.5t-72 -1.5q-103 0 -163.5 50.5t-60.5 125.5q0 60 22.5 129.5t58 131.5t77 101.5t79.5 39.5q50 0 88.5 -36t65.5 -90t43 -109.5t21 -95.5h42.5h82.5
q34 0 50 -21.5t21 -50t5 -50.5zM1095 242q-10 38 -47 68.5t-74 30.5q-30 0 -44.5 -18t-14.5 -36q0 -30 54.5 -37.5t125.5 -7.5z" />
    <glyph glyph-name="uni0671.fina" unicode="&#x671;" horiz-adv-x="524" arabic-form="final" 
d="M629 130q0 -130 -73 -130h-50q-114 0 -190.5 58t-97.5 208q-15 103 -32 257t-36 321q-15 133 -26.5 235t-11.5 150q0 16 17.5 51.5t41.5 74.5t44 66.5t24 27.5q9 0 21 -14.5t13 -37.5q10 -171 19.5 -337.5t18 -310t17.5 -248.5t17 -153q13 -60 59 -79.5t102 -19.5h50
q39 0 56 -27.5t17 -91.5zM467 1770q0 -39 -27 -86t-80.5 -81.5t-132.5 -34.5q-28 0 -76 1.5t-92.5 3t-62.5 1.5q-38 0 -47.5 -7t-14.5 -17q-3 -6 -8 -17t-13 -11q-12 0 -12 29q0 13 5.5 39.5t23.5 52t55 35.5q23 7 69.5 8t78.5 1q22 51 53 99.5t73 80.5t95 32q57 0 85 -37
t28 -92zM381 1737q0 14 -11 26t-37 12q-31 0 -71 -31t-57 -57q79 0 127.5 11.5t48.5 38.5z" />
    <glyph glyph-name="uni0672.fina" unicode="&#x672;" horiz-adv-x="524" 
d="M629 130q0 -130 -73 -130h-50q-114 0 -190.5 58t-97.5 208q-15 103 -32 257t-36 321q-15 133 -26.5 235t-11.5 150q0 16 17.5 51.5t41.5 74.5t44 66.5t24 27.5q9 0 21 -14.5t13 -37.5q10 -171 19.5 -337.5t18 -310t17.5 -248.5t17 -153q13 -60 59 -79.5t102 -19.5h50
q39 0 56 -27.5t17 -91.5zM445 1781q0 -5 -8 -27t-20.5 -44t-28.5 -27q-13 -3 -47 -15.5t-76.5 -28.5t-79.5 -30q-68 -26 -119 -50.5t-94 -24.5q-47 0 -86.5 25.5t-79.5 25.5q-42 0 -84.5 -21.5t-52.5 -21.5q-18 0 -18 20q0 6 23 26t57.5 43.5t71 40.5t63.5 17q49 0 79.5 -21
t62.5 -21q21 0 38.5 9t59.5 24q-21 6 -49 29t-28 62q0 28 18.5 64t44 69.5t47.5 55.5q52 52 89 63.5t66 11.5t55.5 -24.5t26.5 -59.5q0 -20 -8 -45.5t-19 -45.5t-18 -20q-8 0 -28 12.5t-44.5 25t-44.5 12.5q-27 0 -47 -16.5t-20 -31.5q0 -6 26.5 -24t62 -35.5t63.5 -20.5
q21 6 50.5 14t53 14.5t29.5 6.5q13 0 13 -16z" />
    <glyph glyph-name="uni0673.fina" unicode="&#x673;" horiz-adv-x="524" 
d="M629 130q0 -130 -73 -130h-50q-114 0 -190.5 58t-97.5 208q-15 103 -32 257t-36 321q-15 133 -26.5 235t-11.5 150q0 16 17.5 51.5t41.5 74.5t44 66.5t24 27.5q9 0 21 -14.5t13 -37.5q10 -171 19.5 -337.5t18 -310t17.5 -248.5t17 -153q13 -60 59 -79.5t102 -19.5h50
q39 0 56 -27.5t17 -91.5zM559 -403q0 -5 -7.5 -27t-20.5 -44t-29 -27q-12 -3 -46 -15.5t-76.5 -28.5t-80.5 -30q-68 -26 -119 -50.5t-93 -24.5q-47 0 -86.5 25.5t-80.5 25.5t-83.5 -21.5t-52.5 -21.5q-18 0 -18 20q0 6 23 26t57.5 43.5t70.5 40.5t63 17q50 0 80.5 -21
t61.5 -21q21 0 39 9t60 24q-21 6 -49 29t-28 62q0 28 18 64t44 69.5t48 55.5q52 52 89 63.5t66 11.5t55.5 -24.5t26.5 -59.5q0 -20 -8.5 -45.5t-19 -45.5t-18.5 -20q-7 0 -27 12.5t-44.5 25t-44.5 12.5q-27 0 -47 -16.5t-20 -31.5q0 -6 26 -24t61.5 -35.5t63.5 -20.5
q22 6 51 14t53 14.5t29 6.5q13 0 13 -16z" />
    <glyph glyph-name="uni0675.fina" unicode="&#x675;" horiz-adv-x="524" 
d="M617 128q0 -128 -72 -128h-49q-112 0 -187 56.5t-96 204.5q-14 101 -30.5 252t-35.5 314q-14 131 -25.5 231t-11.5 147q0 16 17 50.5t40.5 72.5t43 65t24.5 27q8 0 20 -13.5t13 -37.5q10 -167 19 -330t17.5 -304t17 -244t17.5 -150q12 -59 57 -78t100 -19h49q38 0 55 -27
t17 -89zM775 1236q0 -9 -9 -31.5t-22.5 -42.5t-27.5 -25q-11 -3 -46.5 -17t-80 -31t-82.5 -31q-67 -26 -110.5 -47t-54.5 -21q-15 0 -15 16q0 13 16 45.5t22 41.5q8 9 34 23.5t36 17.5q-20 7 -48 30t-28 62q0 28 18.5 64t44.5 69.5t47 54.5q53 53 90 63.5t65 10.5
q30 0 56 -24t26 -59q0 -19 -8.5 -45t-19.5 -45t-18 -19t-27.5 12.5t-45 24.5t-43.5 12q-27 0 -47 -16.5t-20 -32.5q0 -5 26.5 -24t62 -36.5t62.5 -18.5q34 8 80 21.5t54 14.5q13 0 13 -17z" />
    <glyph glyph-name="uni0676.fina" unicode="&#x676;" horiz-adv-x="862" 
d="M956 122q0 -21 -5 -49.5t-21 -50.5t-50 -22l-156 -3q-14 -62 -42.5 -148t-72 -174t-102.5 -156q-144 -158 -289 -158q-45 0 -107 24.5t-121 58t-98 60.5t-39 33q0 9 10.5 21.5t21.5 12.5q14 0 64.5 -15.5t113.5 -15.5q75 0 163 36t171 99t143.5 145t80.5 175
q-145 9 -225 43.5t-80 146.5q0 51 23.5 124t60.5 144.5t79 119.5t80 48q36 0 69 -42.5t58.5 -105.5t40 -126t14.5 -103h139q34 0 50 -21.5t21 -50t5 -50.5zM631 247q0 19 -20.5 49.5t-50.5 55t-59 24.5q-20 0 -38.5 -23.5t-18.5 -45.5q0 -20 48 -39t139 -21zM1024 1236
q0 -9 -9 -31.5t-22.5 -42.5t-26.5 -25q-11 -3 -47 -17t-80.5 -31t-81.5 -31q-67 -26 -110.5 -47t-54.5 -21q-15 0 -15 16q0 13 15.5 45.5t21.5 41.5q9 9 34.5 23.5t36.5 17.5q-21 7 -48.5 30t-27.5 62q0 28 18.5 64t44 69.5t47.5 54.5q53 53 90 63.5t65 10.5q30 0 56 -24
t26 -59q0 -19 -8.5 -45t-19.5 -45t-18 -19q-8 0 -28 12.5t-44.5 24.5t-44.5 12q-26 0 -46 -16.5t-20 -32.5q0 -5 26 -24t61.5 -36.5t63.5 -18.5q34 8 79.5 21.5t53.5 14.5q13 0 13 -17z" />
    <glyph glyph-name="uni0677.fina" unicode="&#x677;" horiz-adv-x="862" 
d="M956 122q0 -21 -5 -49.5t-21 -50.5t-50 -22l-156 -3q-14 -62 -42.5 -148t-72 -174t-102.5 -156q-144 -158 -289 -158q-45 0 -107 24.5t-121 58t-98 60.5t-39 33q0 9 10.5 21.5t21.5 12.5q14 0 64.5 -15.5t113.5 -15.5q75 0 163 36t171 99t143.5 145t80.5 175
q-145 9 -225 43.5t-80 146.5q0 51 23.5 124t60.5 144.5t79 119.5t80 48q36 0 69 -42.5t58.5 -105.5t40 -126t14.5 -103h139q34 0 50 -21.5t21 -50t5 -50.5zM631 247q0 19 -20.5 49.5t-50.5 55t-59 24.5q-20 0 -38.5 -23.5t-18.5 -45.5q0 -20 48 -39t139 -21zM549 1138
q0 -81 -34.5 -153t-89 -131t-114.5 -101q-6 -4 -24 17.5t-30 48t2 37.5q54 43 97 97t48 94q5 37 -6.5 33t-64.5 -4q-52 0 -90.5 37t-38.5 94q0 78 48.5 123.5t109.5 45.5q53 0 95.5 -33t67 -87.5t24.5 -117.5zM1066 1134q0 -10 -9.5 -33.5t-23.5 -45t-28 -25.5
q-12 -4 -49.5 -18.5t-84 -32.5t-86.5 -33q-70 -27 -116 -49t-57 -22q-16 0 -16 17q0 13 16.5 47.5t22.5 43.5q9 9 36 24.5t39 19.5q-22 6 -51 30.5t-29 65.5q0 30 19.5 67.5t46.5 73t49 57.5q56 56 95 66.5t68 10.5q32 0 59.5 -25t27.5 -62q0 -20 -9 -47t-21 -47t-19 -20
q-8 0 -29.5 12.5t-47 25.5t-46.5 13q-27 0 -48.5 -17t-21.5 -34q0 -6 28 -26t65.5 -38t65.5 -19q24 5 55 14t55.5 16t30.5 7q13 1 13 -17z" />
    <glyph glyph-name="uni0678.init" unicode="&#x678;" horiz-adv-x="786" 
d="M439 445q0 -203 -110.5 -324t-296.5 -121h-54q-37 0 -53.5 29t-16.5 95q0 65 19 92.5t51 27.5h54q42 0 91.5 3.5t93.5 11.5t67 20q27 15 39.5 32t12.5 28q0 20 -20.5 47.5t-47.5 56t-47.5 53.5t-20.5 40q0 8 13 38t33 68.5t42 75t39 58.5q41 -70 76.5 -159.5t35.5 -171.5
zM787 1236q0 -9 -9 -31.5t-22.5 -42.5t-26.5 -25q-11 -3 -47 -17t-80.5 -31t-81.5 -31q-67 -26 -110.5 -47t-54.5 -21q-15 0 -15 16q0 13 15.5 45.5t21.5 41.5q9 9 34.5 23.5t36.5 17.5q-21 7 -48.5 30t-27.5 62q0 28 18.5 64t44 69.5t47.5 54.5q53 53 90 63.5t65 10.5
q30 0 56 -24t26 -59q0 -19 -8.5 -45t-19.5 -45t-18 -19q-8 0 -28 12.5t-44.5 24.5t-44.5 12q-26 0 -46 -16.5t-20 -32.5q0 -5 26 -24t61.5 -36.5t63.5 -18.5q34 8 79.5 21.5t53.5 14.5q13 0 13 -17z" />
    <glyph glyph-name="uni0678.medi" unicode="&#x678;" horiz-adv-x="560" 
d="M655 124q0 -55 -12 -89.5t-64 -34.5h-53q-39 0 -65.5 11t-50.5 34q-20 18 -40.5 49t-32.5 65q-49 -61 -115 -110t-188 -49h-50q-52 0 -64 33t-12 91q0 53 12 86.5t64 33.5h50q103 0 166 27t97.5 63t53 63t32.5 27q9 0 16.5 -16t18.5 -60q8 -34 30.5 -69t77.5 -35h53
q52 0 64 -32.5t12 -87.5zM801 1236q0 -9 -9 -31.5t-22.5 -42.5t-27.5 -25q-11 -3 -46.5 -17t-80 -31t-82.5 -31q-67 -26 -110.5 -47t-54.5 -21q-15 0 -15 16q0 13 16 45.5t22 41.5q8 9 34 23.5t36 17.5q-20 7 -48 30t-28 62q0 28 18.5 64t44.5 69.5t47 54.5q53 53 90 63.5
t65 10.5q30 0 56 -24t26 -59q0 -19 -8.5 -45t-19.5 -45t-18 -19t-27.5 12.5t-45 24.5t-43.5 12q-27 0 -47 -16.5t-20 -32.5q0 -5 26.5 -24t62 -36.5t62.5 -18.5q34 8 80 21.5t54 14.5q13 0 13 -17z" />
    <glyph glyph-name="uni0678.fina" unicode="&#x678;" horiz-adv-x="1496" 
d="M1587 122q0 -21 -4.5 -49.5t-20.5 -50.5t-51 -22h-138q-25 0 -78.5 -1t-106.5 -4t-79 -11q-46 -13 -74.5 -36.5t-28.5 -48.5q0 -19 33 -29t100 -19q107 -12 177 -48t70 -132q0 -73 -64.5 -150.5t-173.5 -143.5t-245 -106.5t-278 -40.5q-180 0 -291.5 61.5t-163 164
t-51.5 226.5q0 85 28 174.5t65 165.5t67 122.5t34 46.5q8 0 23.5 -9t15.5 -16q0 -4 -16.5 -35.5t-38.5 -83t-39 -115.5t-17 -133q0 -170 128 -246t337 -76q38 0 106.5 10t147 27t149 37.5t115.5 41.5t45 40q0 30 -48 39.5t-139 12.5q-112 4 -169.5 38t-57.5 108
q0 41 17.5 82.5t43.5 78.5q58 86 142 149.5t166 87.5q28 8 80 11.5t84 3.5h123q35 0 51 -21.5t20.5 -50t4.5 -50.5zM1527 1236q0 -9 -9 -31.5t-22.5 -42.5t-27.5 -25q-11 -3 -46.5 -17t-80 -31t-82.5 -31q-67 -26 -110.5 -47t-53.5 -21q-16 0 -16 16q0 13 16 45.5t22 41.5
q8 9 34 23.5t37 17.5q-21 7 -48.5 30t-27.5 62q0 28 18.5 64t44 69.5t46.5 54.5q54 53 91 63.5t64 10.5q30 0 56.5 -24t26.5 -59q0 -19 -8.5 -45t-19.5 -45t-19 -19q-7 0 -27.5 12.5t-44.5 24.5t-44 12q-27 0 -47 -16.5t-20 -32.5q0 -5 26.5 -24t62 -36.5t62.5 -18.5
q34 8 80 21.5t54 14.5q13 0 13 -17z" />
    <glyph glyph-name="uni0679.init" unicode="&#x679;" horiz-adv-x="567" arabic-form="initial" 
d="M439 445q0 -203 -110.5 -324t-296.5 -121h-54q-37 0 -53.5 29t-16.5 95q0 65 19 92.5t51 27.5h54q42 0 91.5 3.5t93.5 11.5t67 20q27 15 39.5 32t12.5 28q0 20 -20.5 47.5t-47.5 56t-47.5 53.5t-20.5 40q0 8 13 38t33 68.5t42 75t39 58.5q41 -70 76.5 -159.5t35.5 -171.5
zM567 1175q0 -69 -49.5 -119t-127.5 -81.5t-165 -47t-163 -15.5q-20 0 -50 24t-52.5 52.5t-22.5 43.5q0 12 11 12q14 0 48.5 -3.5t60.5 -3.5q49 0 67 46q7 19 10 38t3 30q0 91 -22 175.5t-22 158.5q0 41 22.5 74t37.5 33q3 0 21 -27t34.5 -55t16.5 -30q-11 -9 -19.5 -23
t-8.5 -39q0 -44 6.5 -87t6.5 -93q0 -18 -2 -49t-6 -60q65 77 132.5 125.5t125.5 48.5q54 0 80.5 -42t26.5 -86zM482 1134q0 14 -23.5 19.5t-48.5 5.5q-50 0 -110.5 -29.5t-113.5 -86.5q106 8 171 28.5t95 40t30 22.5z" />
    <glyph glyph-name="uni0679.medi" unicode="&#x679;" horiz-adv-x="560" arabic-form="medial" 
d="M655 124q0 -55 -12 -89.5t-64 -34.5h-53q-39 0 -65.5 11t-50.5 34q-20 18 -40.5 49t-32.5 65q-49 -61 -115 -110t-188 -49h-50q-52 0 -64 33t-12 91q0 53 12 86.5t64 33.5h50q103 0 166 27t97.5 63t53 63t32.5 27q9 0 16.5 -16t18.5 -60q8 -34 30.5 -69t77.5 -35h53
q52 0 64 -32.5t12 -87.5zM595 847q0 -69 -49.5 -118.5t-127.5 -81.5t-165 -47t-163 -15q-20 0 -50 23.5t-52.5 52t-22.5 43.5q0 12 11 12q14 0 48.5 -3t60.5 -3q49 0 67 45q7 19 10 38.5t3 29.5q0 91 -22 175.5t-22 158.5q0 41 22.5 74t37.5 33q3 0 21 -27t34.5 -55
t16.5 -30q-11 -9 -19.5 -22.5t-8.5 -39.5q0 -44 6.5 -87t6.5 -93q0 -18 -2 -48.5t-6 -60.5q65 78 132.5 126t125.5 48q54 0 80.5 -42t26.5 -86zM510 807q0 13 -23.5 18.5t-48.5 5.5q-50 0 -110.5 -29.5t-113.5 -86.5q106 8 171 28.5t95 40t30 23.5z" />
    <glyph glyph-name="uni0679.fina" unicode="&#x679;" horiz-adv-x="2009" arabic-form="final" 
d="M2102 122q0 -21 -3.5 -49.5t-17.5 -50.5t-45 -22h-55q-87 0 -146.5 26t-108.5 126q-74 -69 -221 -129.5t-343.5 -98t-420.5 -37.5q-193 0 -334.5 49t-219 141t-77.5 222q0 73 21 142t49 124t51.5 87t29.5 32q5 0 19 -9.5t14 -19.5q0 -6 -18.5 -36.5t-37 -78.5t-18.5 -108
q0 -99 81.5 -162t220 -93t308.5 -30q176 0 340 16.5t293 51t200 89.5q28 21 43.5 45.5t31.5 24.5q17 0 29 -31t35 -54q42 -45 179 -45h55q31 0 45 -21.5t17.5 -50t3.5 -50.5zM1245 812q0 -69 -49.5 -119t-127 -81.5t-164.5 -47t-163 -15.5q-20 0 -50 24t-53 52.5t-23 43.5
q0 12 11 12q14 0 49 -3.5t61 -3.5q49 0 66 46q7 19 10 38t3 30q0 91 -21.5 175.5t-21.5 158.5q0 41 22 74t37 33q3 0 21 -27t35 -55t16 -30q-10 -9 -19 -23t-9 -39q0 -44 7 -87t7 -93q0 -18 -2 -49t-6 -60q65 77 132 125.5t126 48.5q53 0 79.5 -42t26.5 -86zM1161 771
q0 14 -24 19.5t-49 5.5q-50 0 -110.5 -29.5t-112.5 -86.5q106 8 171 28.5t95 40t30 22.5z" />
    <glyph glyph-name="uni067A.init" unicode="&#x67a;" horiz-adv-x="567" arabic-form="initial" 
d="M439 445q0 -203 -110.5 -324t-296.5 -121h-54q-37 0 -53.5 29t-16.5 95q0 65 19 92.5t51 27.5h54q42 0 91.5 3.5t93.5 11.5t67 20q27 15 39.5 32t12.5 28q0 20 -20.5 47.5t-47.5 56t-47.5 53.5t-20.5 40q0 8 13 38t33 68.5t42 75t39 58.5q41 -70 76.5 -159.5t35.5 -171.5
zM416 1094q0 -8 -16.5 -34.5t-38.5 -57t-40.5 -52.5t-23.5 -22q-4 0 -29 14.5t-55.5 35.5t-53.5 39t-23 24q0 9 20.5 40.5t46.5 65t40 47.5q7 9 7 16q0 8 -5 11q-17 11 -50 34t-61 45t-28 29q0 5 16 32t38 59t41 56t25 24q9 0 35.5 -17.5t57 -41t52.5 -42.5t22 -22
q0 -5 -20.5 -35.5t-44.5 -64.5t-36 -48q-3 -3 -8.5 -9t-5.5 -13q0 -6 10 -13q16 -11 46.5 -32.5t56 -41t25.5 -26.5z" />
    <glyph glyph-name="uni067A.medi" unicode="&#x67a;" horiz-adv-x="560" arabic-form="medial" 
d="M655 124q0 -55 -12 -89.5t-64 -34.5h-53q-39 0 -65.5 11t-50.5 34q-20 18 -40.5 49t-32.5 65q-49 -61 -115 -110t-188 -49h-50q-52 0 -64 33t-12 91q0 53 12 86.5t64 33.5h50q103 0 166 27t97.5 63t53 63t32.5 27q9 0 16.5 -16t18.5 -60q8 -34 30.5 -69t77.5 -35h53
q52 0 64 -32.5t12 -87.5zM439 751q0 -8 -16.5 -34.5t-38.5 -57t-40.5 -52.5t-23.5 -22q-4 0 -29 14.5t-55.5 35.5t-53.5 39t-23 24q0 9 20.5 40.5t46.5 65t40 47.5q7 9 7 16q0 8 -5 11q-17 11 -50 34t-61 45t-28 29q0 5 16 32t38 59t41 56t25 24q9 0 35.5 -17.5t57 -41
t52.5 -42.5t22 -22q0 -5 -20.5 -35.5t-44.5 -64.5t-36 -48q-3 -3 -8.5 -9t-5.5 -13q0 -6 10 -13q16 -11 46.5 -32.5t56 -41t25.5 -26.5z" />
    <glyph glyph-name="uni067A.fina" unicode="&#x67a;" horiz-adv-x="2009" arabic-form="final" 
d="M2102 122q0 -21 -3.5 -49.5t-17.5 -50.5t-45 -22h-55q-87 0 -146.5 26t-108.5 126q-74 -69 -221 -129.5t-343.5 -98t-420.5 -37.5q-193 0 -334.5 49t-219 141t-77.5 222q0 73 21 142t49 124t51.5 87t29.5 32q5 0 19 -9.5t14 -19.5q0 -6 -18.5 -36.5t-37 -78.5t-18.5 -108
q0 -99 81.5 -162t220 -93t308.5 -30q176 0 340 16.5t293 51t200 89.5q28 21 43.5 45.5t31.5 24.5q17 0 29 -31t35 -54q42 -45 179 -45h55q31 0 45 -21.5t17.5 -50t3.5 -50.5zM1086 753q0 -9 -16 -35.5t-38 -57t-40.5 -52.5t-23.5 -22q-4 0 -29 15t-56 35.5t-54 38.5t-23 25
q0 9 21 40.5t46.5 64.5t39.5 48q7 9 7 16t-4 11q-17 11 -50.5 34t-61 44.5t-27.5 28.5q0 6 16 32.5t38 59t41 56.5t25 24q9 0 35.5 -17.5t57 -41t52.5 -42.5t22 -22q0 -5 -20.5 -36t-44.5 -64.5t-36 -47.5q-4 -3 -9 -9.5t-5 -13.5q0 -6 10 -13q16 -11 46.5 -32t55.5 -40.5
t25 -26.5z" />
    <glyph glyph-name="uni067B.init" unicode="&#x67b;" horiz-adv-x="567" arabic-form="initial" 
d="M439 445q0 -203 -110.5 -324t-296.5 -121h-54q-37 0 -53.5 29t-16.5 95q0 65 19 92.5t51 27.5h54q42 0 91.5 3.5t93.5 11.5t67 20q27 15 39.5 32t12.5 28q0 20 -20.5 47.5t-47.5 56t-47.5 53.5t-20.5 40q0 8 13 38t33 68.5t42 75t39 58.5q41 -70 76.5 -159.5t35.5 -171.5
zM365 -525q0 -8 -16 -34.5t-38 -57t-41 -52.5t-24 -22q-4 0 -28.5 14.5t-55.5 35.5t-54 39t-23 24q0 9 21 40.5t46.5 65t39.5 47.5q7 9 7 16q0 8 -4 11q-17 11 -50.5 34t-61 45t-27.5 29q0 5 16 32t37.5 59t40.5 56t26 24q9 0 35.5 -17.5t56.5 -41t52 -42.5t22 -22
q0 -5 -20 -35.5t-44.5 -64.5t-36.5 -48q-3 -3 -8 -9t-5 -13q0 -6 10 -13q16 -11 46 -32.5t55.5 -41t25.5 -26.5z" />
    <glyph glyph-name="uni067B.medi" unicode="&#x67b;" horiz-adv-x="560" arabic-form="medial" 
d="M655 124q0 -55 -12 -89.5t-64 -34.5h-53q-39 0 -65.5 11t-50.5 34q-20 18 -40.5 49t-32.5 65q-49 -61 -115 -110t-188 -49h-50q-52 0 -64 33t-12 91q0 53 12 86.5t64 33.5h50q103 0 166 27t97.5 63t53 63t32.5 27q9 0 16.5 -16t18.5 -60q8 -34 30.5 -69t77.5 -35h53
q52 0 64 -32.5t12 -87.5zM439 -525q0 -8 -16.5 -34.5t-38.5 -57t-40.5 -52.5t-23.5 -22q-4 0 -29 14.5t-55.5 35.5t-53.5 39t-23 24q0 9 20.5 40.5t46.5 65t40 47.5q7 9 7 16q0 8 -5 11q-17 11 -50 34t-61 45t-28 29q0 5 16 32t38 59t41 56t25 24q9 0 35.5 -17.5t57 -41
t52.5 -42.5t22 -22q0 -5 -20.5 -35.5t-44.5 -64.5t-36 -48q-3 -3 -8.5 -9t-5.5 -13q0 -6 10 -13q16 -11 46.5 -32.5t56 -41t25.5 -26.5z" />
    <glyph glyph-name="uni067B.fina" unicode="&#x67b;" horiz-adv-x="2009" arabic-form="final" 
d="M2102 122q0 -21 -3.5 -49.5t-17.5 -50.5t-45 -22h-55q-87 0 -146.5 26t-108.5 126q-74 -69 -221 -129.5t-343.5 -98t-420.5 -37.5q-193 0 -334.5 49t-219 141t-77.5 222q0 73 21 142t49 124t51.5 87t29.5 32q5 0 19 -9.5t14 -19.5q0 -6 -18.5 -36.5t-37 -78.5t-18.5 -108
q0 -99 81.5 -162t220 -93t308.5 -30q176 0 340 16.5t293 51t200 89.5q28 21 43.5 45.5t31.5 24.5q17 0 29 -31t35 -54q42 -45 179 -45h55q31 0 45 -21.5t17.5 -50t3.5 -50.5zM1012 -656q0 -8 -16 -34.5t-38 -57t-41 -52.5t-24 -22q-4 0 -28.5 14.5t-55.5 35.5t-54 39t-23 24
q0 9 21 40.5t46.5 65t39.5 47.5q7 9 7 16q0 8 -4 11q-17 11 -50.5 34t-61 45t-27.5 29q0 5 16 32t37.5 59t40.5 56t26 24q9 0 35.5 -17.5t56.5 -41t52 -42.5t22 -22q0 -5 -20 -35.5t-44.5 -64.5t-36.5 -48q-3 -3 -8 -9t-5 -13q0 -6 10 -13q16 -11 46 -32.5t55.5 -41
t25.5 -26.5z" />
    <glyph glyph-name="uni067C.init" unicode="&#x67c;" horiz-adv-x="567" 
d="M439 445q0 -203 -110.5 -324t-296.5 -121h-54q-37 0 -53.5 29t-16.5 95q0 65 19 92.5t51 27.5h54q42 0 91.5 3.5t93.5 11.5t67 20q27 15 39.5 32t12.5 28q0 20 -20.5 47.5t-47.5 56t-47.5 53.5t-20.5 40q0 8 13 38t33 68.5t42 75t39 58.5q41 -70 76.5 -159.5t35.5 -171.5
zM565 1116q0 -7 -15.5 -35t-37 -61t-40 -57.5t-25.5 -24.5q-4 0 -27.5 16.5t-52.5 38.5t-51.5 39t-23.5 19q-9 7 -15 7q-5 0 -11 -10q-1 -2 -16 -23.5t-35 -49t-37.5 -48.5t-23.5 -21q-5 0 -30 17t-55.5 39.5t-53.5 42t-23 24.5q0 7 16.5 35.5t38.5 62t40.5 58t23.5 24.5
q8 0 31.5 -16.5t50.5 -38t47 -38.5t22 -19q10 -9 14 -9q7 0 16 14q2 2 17.5 23t35.5 47.5t37 46.5t21 20q7 0 32.5 -16.5t55.5 -39.5t52 -42.5t22 -24.5zM442 -62q0 -95 -63 -163t-157 -68q-70 0 -109 50t-39 158q0 57 26 108t72.5 83.5t109.5 32.5q46 0 82.5 -32t57 -78.5
t20.5 -90.5zM345 -96q0 17 -21 40.5t-50.5 41t-52.5 17.5q-34 0 -52.5 -24t-18.5 -50q0 -29 31 -48.5t74 -19.5q25 0 57.5 14t32.5 29z" />
    <glyph glyph-name="uni067C.medi" unicode="&#x67c;" horiz-adv-x="560" 
d="M655 124q0 -55 -12 -89.5t-64 -34.5h-53q-39 0 -65.5 11t-50.5 34q-20 18 -40.5 49t-32.5 65q-49 -61 -115 -110t-188 -49h-50q-52 0 -64 33t-12 91q0 53 12 86.5t64 33.5h50q103 0 166 27t97.5 63t53 63t32.5 27q9 0 16.5 -16t18.5 -60q8 -34 30.5 -69t77.5 -35h53
q52 0 64 -32.5t12 -87.5zM568 763q0 -7 -15.5 -35t-37 -61t-40 -57.5t-25.5 -24.5q-4 0 -27.5 16.5t-52.5 38.5t-51.5 39t-23.5 19q-9 7 -15 7q-5 0 -11 -10q-1 -2 -16 -23.5t-35 -49t-37.5 -48.5t-23.5 -21q-5 0 -30 17t-55.5 39.5t-53.5 42t-23 24.5q0 7 16.5 35.5
t38.5 62t40.5 58t23.5 24.5q8 0 31.5 -16.5t50.5 -38t47 -38.5t22 -19q10 -9 14 -9q7 0 16 14q2 2 17.5 23t35.5 47.5t37 46.5t21 20q7 0 32.5 -16.5t55.5 -39.5t52 -42.5t22 -24.5zM503 -41q0 -96 -63 -164t-157 -68q-70 0 -109 50.5t-39 158.5q0 57 26 108t72.5 83.5
t109.5 32.5q46 0 82.5 -32t57 -79t20.5 -90zM406 -75q0 16 -21 39.5t-50.5 41.5t-52.5 18q-34 0 -52.5 -24t-18.5 -50q0 -29 31 -49t74 -20q25 0 57.5 14.5t32.5 29.5z" />
    <glyph glyph-name="uni067C.fina" unicode="&#x67c;" horiz-adv-x="2009" 
d="M2102 122q0 -21 -3.5 -49.5t-17.5 -50.5t-45 -22h-55q-87 0 -146.5 26t-108.5 126q-74 -69 -221 -129.5t-343.5 -98t-420.5 -37.5q-193 0 -334.5 49t-219 141t-77.5 222q0 73 21 142t49 124t51.5 87t29.5 32q5 0 19 -9.5t14 -19.5q0 -6 -18.5 -36.5t-37 -78.5t-18.5 -108
q0 -99 81.5 -162t220 -93t308.5 -30q176 0 340 16.5t293 51t200 89.5q28 21 43.5 45.5t31.5 24.5q17 0 29 -31t35 -54q42 -45 179 -45h55q31 0 45 -21.5t17.5 -50t3.5 -50.5zM1230 772q0 -7 -15.5 -35t-37 -61t-40 -57.5t-25.5 -24.5q-4 0 -27.5 16.5t-52.5 38.5t-51.5 39
t-23.5 19q-9 7 -15 7q-5 0 -11 -10q-1 -2 -16 -23.5t-35 -49t-37.5 -48.5t-23.5 -21q-5 0 -30 17t-55.5 39.5t-53.5 42t-23 24.5q0 7 16.5 35.5t38.5 62t40.5 58t23.5 24.5q8 0 31.5 -16.5t50.5 -38t47 -38.5t22 -19q10 -9 14 -9q7 0 16 14q2 2 17.5 23t35.5 47.5t37 46.5
t21 20q7 0 32.5 -16.5t55.5 -39.5t52 -42.5t22 -24.5zM991 -224q0 -96 -63 -164t-157 -68q-70 0 -109 50.5t-39 158.5q0 57 26 108t72.5 83.5t109.5 32.5q46 0 82.5 -32t57 -79t20.5 -90zM894 -258q0 16 -21 39.5t-50.5 41.5t-52.5 18q-34 0 -52.5 -24t-18.5 -50
q0 -29 31 -49t74 -20q25 0 57.5 14.5t32.5 29.5z" />
    <glyph glyph-name="uni067D.init" unicode="&#x67d;" horiz-adv-x="567" 
d="M439 445q0 -203 -110.5 -324t-296.5 -121h-54q-37 0 -53.5 29t-16.5 95q0 65 19 92.5t51 27.5h54q42 0 91.5 3.5t93.5 11.5t67 20q27 15 39.5 32t12.5 28q0 20 -20.5 47.5t-47.5 56t-47.5 53.5t-20.5 40q0 8 13 38t33 68.5t42 75t39 58.5q41 -70 76.5 -159.5t35.5 -171.5
zM439 1088q0 -7 -15.5 -35t-37.5 -61t-41.5 -58t-27.5 -25q-4 0 -29.5 16.5t-56.5 39.5t-54 42.5t-23 25.5q0 7 16 35t38.5 61.5t42 58t25.5 24.5q7 0 32.5 -17t56 -40t52.5 -42.5t22 -24.5zM551 1427q0 -7 -15.5 -35t-36.5 -61t-40 -57.5t-25 -24.5q-5 0 -28.5 16.5
t-52.5 38.5t-51 39t-24 19q-9 7 -15 7q-4 0 -11 -10q-1 -2 -16 -23.5t-35 -49t-37.5 -48.5t-23.5 -21q-5 0 -30 17t-55.5 39.5t-53.5 42t-23 24.5q0 7 16.5 35.5t39 62t41 58t22.5 24.5q9 0 32.5 -16.5t50 -38t47 -38.5t21.5 -19q11 -9 15 -9q7 0 16 14q1 2 16.5 23
t35.5 47.5t37 46.5t22 20q7 0 32.5 -16.5t55.5 -39.5t51.5 -42.5t21.5 -24.5z" />
    <glyph glyph-name="uni067D.medi" unicode="&#x67d;" horiz-adv-x="560" 
d="M655 124q0 -55 -12 -89.5t-64 -34.5h-53q-39 0 -65.5 11t-50.5 34q-20 18 -40.5 49t-32.5 65q-49 -61 -115 -110t-188 -49h-50q-52 0 -64 33t-12 91q0 53 12 86.5t64 33.5h50q103 0 166 27t97.5 63t53 63t32.5 27q9 0 16.5 -16t18.5 -60q8 -34 30.5 -69t77.5 -35h53
q52 0 64 -32.5t12 -87.5zM457 732q0 -6 -15.5 -34t-37 -61.5t-41 -58t-28.5 -24.5q-4 0 -29 16.5t-56.5 39t-54.5 42t-23 25.5q0 7 16.5 35t38.5 61.5t41.5 58.5t25.5 25q7 0 33 -17t56 -40t52 -42.5t22 -25.5zM570 1071q0 -7 -15.5 -35t-37 -61t-40.5 -57t-25 -24
q-4 0 -27.5 16.5t-53 38t-51.5 39t-24 18.5q-8 7 -14 7q-5 0 -11 -10q-1 -1 -16 -23t-35 -49.5t-37.5 -48t-24.5 -20.5q-4 0 -29 16.5t-56 39.5t-54 42t-23 25q0 7 16.5 35t39 61.5t41 58t22.5 24.5q9 0 32.5 -16t50.5 -38t47 -39t22 -18q10 -10 14 -10q7 0 16 14
q1 2 16.5 23t36 47.5t37.5 47t21 20.5q7 0 32.5 -17t55.5 -40t52 -42.5t22 -24.5z" />
    <glyph glyph-name="uni067D.fina" unicode="&#x67d;" horiz-adv-x="2009" 
d="M2102 122q0 -21 -3.5 -49.5t-17.5 -50.5t-45 -22h-55q-87 0 -146.5 26t-108.5 126q-74 -69 -221 -129.5t-343.5 -98t-420.5 -37.5q-193 0 -334.5 49t-219 141t-77.5 222q0 73 21 142t49 124t51.5 87t29.5 32q5 0 19 -9.5t14 -19.5q0 -6 -18.5 -36.5t-37 -78.5t-18.5 -108
q0 -99 81.5 -162t220 -93t308.5 -30q176 0 340 16.5t293 51t200 89.5q28 21 43.5 45.5t31.5 24.5q17 0 29 -31t35 -54q42 -45 179 -45h55q31 0 45 -21.5t17.5 -50t3.5 -50.5zM1104 684q0 -7 -15.5 -35t-37 -61t-41 -58t-28.5 -25q-4 0 -29 16.5t-56.5 39.5t-54.5 42.5
t-23 25.5q0 7 16.5 35t38.5 61.5t41.5 58t25.5 24.5q7 0 33 -17t56 -40t52 -42.5t22 -24.5zM1217 1023q0 -7 -15.5 -35t-37 -61t-40.5 -57.5t-25 -24.5q-4 0 -27.5 16.5t-53 38.5t-51.5 39t-24 19q-8 7 -14 7q-5 0 -11 -10q-1 -2 -16 -23.5t-35 -49t-37.5 -48.5t-24.5 -21
q-4 0 -29 17t-56 39.5t-54 42t-23 24.5q0 7 16.5 35.5t39 62t41 58t22.5 24.5q9 0 32.5 -16.5t50.5 -38t47 -38.5t22 -19q10 -9 14 -9q7 0 16 14q1 2 16.5 23t36 47.5t37.5 46.5t21 20q7 0 32.5 -16.5t55.5 -39.5t52 -42.5t22 -24.5z" />
    <glyph glyph-name="uni067E.init" unicode="&#x67e;" horiz-adv-x="567" arabic-form="initial" 
d="M439 445q0 -203 -110.5 -324t-296.5 -121h-54q-37 0 -53.5 29t-16.5 95q0 65 19 92.5t51 27.5h54q42 0 91.5 3.5t93.5 11.5t67 20q27 15 39.5 32t12.5 28q0 20 -20.5 47.5t-47.5 56t-47.5 53.5t-20.5 40q0 8 13 38t33 68.5t42 75t39 58.5q41 -70 76.5 -159.5t35.5 -171.5
zM395 -568q0 -7 -15.5 -35t-37.5 -61t-41.5 -58t-27.5 -25q-4 0 -29.5 16.5t-56.5 39.5t-54 42.5t-23 25.5q0 7 16 35t38.5 61.5t42 58t25.5 24.5q7 0 32.5 -17t56 -40t52.5 -42.5t22 -24.5zM507 -229q0 -7 -15.5 -35t-36.5 -61t-40 -57.5t-25 -24.5q-5 0 -28.5 16.5
t-52.5 38.5t-51 39t-24 19q-9 7 -15 7q-4 0 -11 -10q-1 -2 -16 -23.5t-35 -49t-37.5 -48.5t-23.5 -21q-5 0 -30 17t-55.5 39.5t-53.5 42t-23 24.5q0 7 16.5 35.5t39 62t41 58t22.5 24.5q9 0 32.5 -16.5t50 -38t47 -38.5t21.5 -19q11 -9 15 -9q7 0 16 14q1 2 16.5 23
t35.5 47.5t37 46.5t22 20q7 0 32.5 -16.5t55.5 -39.5t51.5 -42.5t21.5 -24.5z" />
    <glyph glyph-name="uni067E.medi" unicode="&#x67e;" horiz-adv-x="560" arabic-form="medial" 
d="M655 124q0 -55 -12 -89.5t-64 -34.5h-53q-39 0 -65.5 11t-50.5 34q-20 18 -40.5 49t-32.5 65q-49 -61 -115 -110t-188 -49h-50q-52 0 -64 33t-12 91q0 53 12 86.5t64 33.5h50q103 0 166 27t97.5 63t53 63t32.5 27q9 0 16.5 -16t18.5 -60q8 -34 30.5 -69t77.5 -35h53
q52 0 64 -32.5t12 -87.5zM461 -566q0 -7 -15.5 -35t-37.5 -61t-41.5 -58t-27.5 -25q-4 0 -29.5 16.5t-56.5 39.5t-54.5 42.5t-23.5 25.5q0 7 16.5 35t39 61.5t41.5 58t25 24.5q8 0 33.5 -17t55.5 -40t52.5 -42.5t22.5 -24.5zM573 -227q0 -7 -15.5 -35t-37 -61t-40 -57.5
t-25.5 -24.5q-4 0 -27.5 16.5t-52.5 38.5t-51.5 39t-23.5 19q-9 7 -15 7q-5 0 -11 -10q-1 -2 -16 -23.5t-35 -49t-37.5 -48.5t-23.5 -21q-5 0 -30 17t-55.5 39.5t-53.5 42t-23 24.5q0 7 16.5 35.5t38.5 62t40.5 58t23.5 24.5q8 0 31.5 -16.5t50.5 -38t47 -38.5t22 -19
q10 -9 14 -9q7 0 16 14q2 2 17.5 23t35.5 47.5t37 46.5t21 20q7 0 32.5 -16.5t55.5 -39.5t52 -42.5t22 -24.5z" />
    <glyph glyph-name="uni067E.fina" unicode="&#x67e;" horiz-adv-x="2009" arabic-form="final" 
d="M2102 122q0 -21 -3.5 -49.5t-17.5 -50.5t-45 -22h-55q-87 0 -146.5 26t-108.5 126q-74 -69 -221 -129.5t-343.5 -98t-420.5 -37.5q-193 0 -334.5 49t-219 141t-77.5 222q0 73 21 142t49 124t51.5 87t29.5 32q5 0 19 -9.5t14 -19.5q0 -6 -18.5 -36.5t-37 -78.5t-18.5 -108
q0 -99 81.5 -162t220 -93t308.5 -30q176 0 340 16.5t293 51t200 89.5q28 21 43.5 45.5t31.5 24.5q17 0 29 -31t35 -54q42 -45 179 -45h55q31 0 45 -21.5t17.5 -50t3.5 -50.5zM1047 -701q0 -6 -15.5 -34t-37.5 -61.5t-41.5 -58t-27.5 -24.5q-4 0 -29.5 16.5t-56.5 39
t-54.5 42t-23.5 25.5q0 7 16.5 35t39 61.5t41.5 58.5t25 25q8 0 33.5 -17t55.5 -40t52.5 -42.5t22.5 -25.5zM1159 -362q0 -7 -15.5 -35t-37 -61t-40 -57t-25.5 -24q-4 0 -27.5 16.5t-52.5 38t-51.5 39t-23.5 18.5q-9 7 -15 7q-5 0 -11 -10q-1 -1 -16 -23t-35 -49.5
t-37.5 -48t-23.5 -20.5q-5 0 -30 16.5t-55.5 39.5t-53.5 42t-23 25q0 7 16.5 35t38.5 61.5t40.5 58t23.5 24.5q8 0 31.5 -16t50.5 -38t47 -39t22 -18q10 -10 14 -10q7 0 16 14q2 2 17.5 23t35.5 47.5t37 47t21 20.5q7 0 32.5 -17t55.5 -40t52 -42.5t22 -24.5z" />
    <glyph glyph-name="uni067F.init" unicode="&#x67f;" horiz-adv-x="567" arabic-form="initial" 
d="M439 445q0 -203 -110.5 -324t-296.5 -121h-54q-37 0 -53.5 29t-16.5 95q0 65 19 92.5t51 27.5h54q42 0 91.5 3.5t93.5 11.5t67 20q27 15 39.5 32t12.5 28q0 20 -20.5 47.5t-47.5 56t-47.5 53.5t-20.5 40q0 8 13 38t33 68.5t42 75t39 58.5q41 -70 76.5 -159.5t35.5 -171.5
zM545 1418q0 -7 -15.5 -34.5t-37 -60.5t-40 -57.5t-25.5 -24.5q-4 0 -27.5 16.5t-52.5 38.5t-51.5 39t-23.5 18q-9 8 -15 8q-4 0 -11 -10q-1 -2 -16 -23.5t-35 -49t-37.5 -48.5t-23.5 -21q-5 0 -30 16.5t-55.5 39.5t-53.5 42.5t-23 24.5q0 7 16.5 35t38.5 61.5t41 58.5
t23 25q8 0 31.5 -16.5t50.5 -38t47 -38.5t22 -19q10 -9 14 -9q7 0 17 13q1 2 16.5 23.5t35.5 48t37 46.5t22 20q7 0 32.5 -17t55 -40t51.5 -42.5t22 -24.5zM576 1106q0 -7 -15.5 -34.5t-36.5 -60.5t-40 -57.5t-26 -24.5q-4 0 -27.5 16.5t-52.5 38.5t-51 39t-24 18
q-9 8 -15 8q-4 0 -11 -10q-1 -2 -16 -23.5t-35 -49t-37.5 -48.5t-23.5 -21q-5 0 -30 16.5t-55.5 39.5t-53.5 42.5t-23 24.5q0 7 16.5 35t39 61.5t41 58.5t22.5 25q9 0 32.5 -16.5t50 -38t46.5 -39t22 -18.5q10 -9 15 -9q6 0 16 13q1 2 16.5 23.5t35.5 48t37 46.5t22 20
q7 0 32.5 -17t55.5 -40t51.5 -42.5t21.5 -24.5z" />
    <glyph glyph-name="uni067F.medi" unicode="&#x67f;" horiz-adv-x="560" arabic-form="medial" 
d="M655 124q0 -55 -12 -89.5t-64 -34.5h-53q-39 0 -65.5 11t-50.5 34q-20 18 -40.5 49t-32.5 65q-49 -61 -115 -110t-188 -49h-50q-52 0 -64 33t-12 91q0 53 12 86.5t64 33.5h50q103 0 166 27t97.5 63t53 63t32.5 27q9 0 16.5 -16t18.5 -60q8 -34 30.5 -69t77.5 -35h53
q52 0 64 -32.5t12 -87.5zM554 1066q0 -7 -15.5 -34.5t-37 -61t-40.5 -57.5t-25 -24q-4 0 -27.5 16.5t-53 38t-51.5 39t-24 18.5q-9 7 -15 7q-4 0 -10 -9q-2 -2 -16.5 -23.5t-34.5 -49.5t-37.5 -48.5t-24.5 -20.5q-4 0 -29 16.5t-56 39.5t-54 42t-23 25q0 7 16.5 35t39 61.5
t41 58t22.5 24.5q9 0 32.5 -16t50.5 -38t47 -39t22 -18q10 -10 14 -10q7 0 16 14q1 2 16.5 23t36 48t37.5 47t21 20q7 0 32.5 -17t55.5 -40t52 -42.5t22 -24.5zM585 754q0 -7 -15.5 -34.5t-37 -61t-40.5 -57.5t-25 -24q-4 0 -27.5 16.5t-53 38t-51.5 39t-24 18.5q-8 7 -14 7
q-5 0 -11 -10q-1 -1 -16 -23t-35 -49.5t-37.5 -48t-24.5 -20.5q-4 0 -29 16.5t-56 39.5t-54 42t-23 25q0 7 16.5 35t39 61.5t41 58t22.5 24.5q9 0 32.5 -16t50.5 -38t47 -39t22 -18q10 -10 14 -10q7 0 16 14q1 2 16.5 23t36 48t37.5 47t21 20q7 0 32.5 -17t55.5 -40
t52 -42.5t22 -24.5z" />
    <glyph glyph-name="uni067F.fina" unicode="&#x67f;" horiz-adv-x="2009" arabic-form="final" 
d="M2102 122q0 -21 -3.5 -49.5t-17.5 -50.5t-45 -22h-55q-87 0 -146.5 26t-108.5 126q-74 -69 -221 -129.5t-343.5 -98t-420.5 -37.5q-193 0 -334.5 49t-219 141t-77.5 222q0 73 21 142t49 124t51.5 87t29.5 32q5 0 19 -9.5t14 -19.5q0 -6 -18.5 -36.5t-37 -78.5t-18.5 -108
q0 -99 81.5 -162t220 -93t308.5 -30q176 0 340 16.5t293 51t200 89.5q28 21 43.5 45.5t31.5 24.5q17 0 29 -31t35 -54q42 -45 179 -45h55q31 0 45 -21.5t17.5 -50t3.5 -50.5zM1226 1049q0 -7 -15.5 -34.5t-37 -61t-40.5 -57.5t-25 -24q-4 0 -27.5 16.5t-53 38t-51.5 39
t-24 18.5q-9 7 -15 7q-4 0 -10 -9q-2 -2 -16.5 -23.5t-34.5 -49.5t-37.5 -48.5t-24.5 -20.5q-4 0 -29 16.5t-56 39.5t-54 42t-23 25q0 7 16.5 35t39 61.5t41 58t22.5 24.5q9 0 32.5 -16t50.5 -38t47 -39t22 -18q10 -10 14 -10q7 0 16 14q1 2 16.5 23t36 48t37.5 47t21 20
q7 0 32.5 -17t55.5 -40t52 -42.5t22 -24.5zM1257 737q0 -7 -15.5 -34.5t-37 -61t-40.5 -57.5t-25 -24q-4 0 -27.5 16.5t-53 38t-51.5 39t-24 18.5q-8 7 -14 7q-5 0 -11 -10q-1 -1 -16 -23t-35 -49.5t-37.5 -48t-24.5 -20.5q-4 0 -29 16.5t-56 39.5t-54 42t-23 25
q0 7 16.5 35t39 61.5t41 58t22.5 24.5q9 0 32.5 -16t50.5 -38t47 -39t22 -18q10 -10 14 -10q7 0 16 14q1 2 16.5 23t36 48t37.5 47t21 20q7 0 32.5 -17t55.5 -40t52 -42.5t22 -24.5z" />
    <glyph glyph-name="uni0680.init" unicode="&#x680;" horiz-adv-x="574" arabic-form="initial" 
d="M439 445q0 -203 -110.5 -324t-296.5 -121h-54q-37 0 -53.5 29t-16.5 95q0 65 19 92.5t51 27.5h54q42 0 91.5 3.5t93.5 11.5t67 20q27 15 39.5 32t12.5 28q0 20 -20.5 47.5t-47.5 56t-47.5 53.5t-20.5 40q0 8 13 38t33 68.5t42 75t39 58.5q41 -70 76.5 -159.5t35.5 -171.5
zM512 -266q0 -7 -15.5 -34.5t-37 -60.5t-40 -57.5t-25.5 -24.5q-4 0 -27.5 16.5t-52.5 38.5t-51.5 39t-23.5 18q-9 8 -15 8q-5 0 -11 -10q-1 -2 -16 -23.5t-35 -49t-37.5 -48.5t-24.5 -21q-4 0 -29 16.5t-56 39.5t-53.5 42.5t-22.5 24.5q0 7 16.5 35t38.5 61.5t40.5 58.5
t23.5 25q8 0 31.5 -16.5t50.5 -38t47 -38.5t22 -19q10 -9 14 -9q7 0 16 13q2 2 17 23.5t35.5 48t37.5 46.5t21 20q7 0 32.5 -17t55.5 -40t52 -42.5t22 -24.5zM543 -578q0 -7 -15.5 -34.5t-37 -60.5t-40 -57.5t-25.5 -24.5q-4 0 -27.5 16.5t-52.5 38.5t-51.5 39t-23.5 18
q-9 8 -15 8q-5 0 -11 -10q-1 -2 -16 -23.5t-35 -49t-37.5 -48.5t-24.5 -21q-4 0 -29 16.5t-55.5 39.5t-53.5 42.5t-23 24.5q0 7 16.5 35t38.5 61.5t40.5 58.5t23.5 25q8 0 31.5 -16.5t50.5 -38t47 -39t22 -18.5q10 -9 14 -9q7 0 16 13q2 2 17 23.5t35.5 48t37.5 46.5t21 20
q7 0 32.5 -17t55.5 -40t52 -42.5t22 -24.5z" />
    <glyph glyph-name="uni0680.medi" unicode="&#x680;" horiz-adv-x="560" arabic-form="medial" 
d="M655 124q0 -55 -12 -89.5t-64 -34.5h-53q-39 0 -65.5 11t-50.5 34q-20 18 -40.5 49t-32.5 65q-49 -61 -115 -110t-188 -49h-50q-52 0 -64 33t-12 91q0 53 12 86.5t64 33.5h50q103 0 166 27t97.5 63t53 63t32.5 27q9 0 16.5 -16t18.5 -60q8 -34 30.5 -69t77.5 -35h53
q52 0 64 -32.5t12 -87.5zM553 -233q0 -7 -15.5 -34.5t-37 -60.5t-40 -57.5t-25.5 -24.5q-4 0 -27.5 16.5t-52.5 38.5t-51.5 39t-23.5 18q-9 8 -15 8q-5 0 -11 -10q-1 -2 -16 -23.5t-35 -49t-37.5 -48.5t-24.5 -21q-4 0 -29 16.5t-56 39.5t-53.5 42.5t-22.5 24.5q0 7 16.5 35
t38.5 61.5t40.5 58.5t23.5 25q8 0 31.5 -16.5t50.5 -38t47 -38.5t22 -19q10 -9 14 -9q7 0 16 13q2 2 17 23.5t35.5 48t37.5 46.5t21 20q7 0 32.5 -17t55.5 -40t52 -42.5t22 -24.5zM584 -545q0 -7 -15.5 -34.5t-37 -60.5t-40 -57.5t-25.5 -24.5q-4 0 -27.5 16.5t-52.5 38.5
t-51.5 39t-23.5 18q-9 8 -15 8q-5 0 -11 -10q-1 -2 -16 -23.5t-35 -49t-37.5 -48.5t-24.5 -21q-4 0 -29 16.5t-55.5 39.5t-53.5 42.5t-23 24.5q0 7 16.5 35t38.5 61.5t40.5 58.5t23.5 25q8 0 31.5 -16.5t50.5 -38t47 -39t22 -18.5q10 -9 14 -9q7 0 16 13q2 2 17 23.5
t35.5 48t37.5 46.5t21 20q7 0 32.5 -17t55.5 -40t52 -42.5t22 -24.5z" />
    <glyph glyph-name="uni0680.fina" unicode="&#x680;" horiz-adv-x="2009" arabic-form="final" 
d="M2102 122q0 -21 -3.5 -49.5t-17.5 -50.5t-45 -22h-55q-87 0 -146.5 26t-108.5 126q-74 -69 -221 -129.5t-343.5 -98t-420.5 -37.5q-193 0 -334.5 49t-219 141t-77.5 222q0 73 21 142t49 124t51.5 87t29.5 32q5 0 19 -9.5t14 -19.5q0 -6 -18.5 -36.5t-37 -78.5t-18.5 -108
q0 -99 81.5 -162t220 -93t308.5 -30q176 0 340 16.5t293 51t200 89.5q28 21 43.5 45.5t31.5 24.5q17 0 29 -31t35 -54q42 -45 179 -45h55q31 0 45 -21.5t17.5 -50t3.5 -50.5zM1130 -373q0 -7 -15.5 -34.5t-37 -60.5t-40 -57.5t-25.5 -24.5q-4 0 -27.5 16.5t-52.5 38.5
t-51.5 39t-23.5 18q-9 8 -15 8q-5 0 -11 -10q-1 -2 -16 -23.5t-35 -49t-37.5 -48.5t-24.5 -21q-4 0 -29 16.5t-56 39.5t-53.5 42.5t-22.5 24.5q0 7 16.5 35t38.5 61.5t40.5 58.5t23.5 25q8 0 31.5 -16.5t50.5 -38t47 -38.5t22 -19q10 -9 14 -9q7 0 16 13q2 2 17 23.5
t35.5 48t37.5 46.5t21 20q7 0 32.5 -17t55.5 -40t52 -42.5t22 -24.5zM1161 -685q0 -7 -15.5 -34.5t-37 -60.5t-40 -57.5t-25.5 -24.5q-4 0 -27.5 16.5t-52.5 38.5t-51.5 39t-23.5 18q-9 8 -15 8q-5 0 -11 -10q-1 -2 -16 -23.5t-35 -49t-37.5 -48.5t-24.5 -21q-4 0 -29 16.5
t-55.5 39.5t-53.5 42.5t-23 24.5q0 7 16.5 35t38.5 61.5t40.5 58.5t23.5 25q8 0 31.5 -16.5t50.5 -38t47 -39t22 -18.5q10 -9 14 -9q7 0 16 13q2 2 17 23.5t35.5 48t37.5 46.5t21 20q7 0 32.5 -17t55.5 -40t52 -42.5t22 -24.5z" />
    <glyph glyph-name="uni0681.init" unicode="&#x681;" horiz-adv-x="1476" 
d="M1363 544q0 -4 -4.5 -29t-11 -57.5t-12.5 -58.5t-9 -32q-21 -4 -85.5 -5.5t-153.5 -2t-182 -0.5q-81 0 -152 -29t-136 -72.5t-130 -87.5q-99 -63 -210.5 -116.5t-240.5 -53.5h-52q-34 0 -50.5 22t-21 50.5t-4.5 49.5q0 22 4.5 50.5t21 50t50.5 21.5h50q106 0 207.5 14
t196.5 53q53 21 113.5 49.5t114.5 42.5q-46 17 -111 46t-137.5 53t-141.5 24q-39 0 -76 -12.5t-62.5 -25t-29.5 -12.5t-17 7t-13 11q0 46 36 114t91 107q33 24 71.5 36.5t96.5 12.5q55 0 129 -31t150.5 -67t136.5 -54q73 -21 164.5 -36.5t199.5 -20.5q44 -2 93 -3.5t83 -3
t34 -4.5zM918 1136q0 -10 -9 -32t-22.5 -42.5t-27.5 -24.5q-11 -4 -46.5 -18t-80 -31t-82.5 -31q-67 -25 -110.5 -46.5t-54.5 -21.5q-15 0 -15 16q0 13 16 46t22 41q8 9 34 23.5t36 18.5q-20 6 -48 29.5t-28 61.5q0 29 18.5 64.5t44.5 69t47 55.5q53 53 90 63t65 10
q30 0 56 -23.5t26 -59.5q0 -19 -8.5 -44.5t-19.5 -45t-18 -19.5t-27.5 12.5t-45 24.5t-43.5 12q-27 0 -47 -16t-20 -32q0 -6 26.5 -25t62 -36t62.5 -18q34 8 80 21t54 14q13 1 13 -16z" />
    <glyph glyph-name="uni0681.medi" unicode="&#x681;" horiz-adv-x="1486" 
d="M1579 122q0 -21 -4.5 -49.5t-21 -50.5t-50.5 -22h-51q-165 0 -281 14t-174 53q-72 48 -72 154q0 28 9.5 67t20.5 72h-24q-94 0 -172.5 -30.5t-149.5 -77t-143 -94.5q-93 -61 -197.5 -109.5t-234.5 -48.5h-50q-34 0 -50.5 22t-21 50.5t-4.5 49.5q0 22 4.5 50.5t21 50
t50.5 21.5h50q137 0 237 19.5t181 53.5q50 20 107 47t109 39q-38 15 -104.5 45t-145 54.5t-152.5 24.5q-38 0 -72.5 -12t-57.5 -24.5t-26 -12.5q-6 0 -18.5 6.5t-12.5 10.5q0 57 39 122.5t95 101.5q32 21 71 33t88 12q42 0 99 -20t119 -48.5t121.5 -54.5t108.5 -37
q111 -26 242 -39.5t294 -13.5q13 0 13 -16q0 -2 -6.5 -37.5t-14.5 -73.5t-12 -50q-2 -6 -47.5 -10t-111.5 -5.5t-130 -1.5q-2 -4 -2 -18q0 -38 54 -60q41 -18 105 -25t131.5 -8.5t116.5 -1.5h51q34 0 50.5 -21.5t21 -50t4.5 -50.5zM977 1114q0 -9 -9 -31.5t-22.5 -42.5
t-26.5 -25q-11 -3 -47 -17t-80.5 -31t-81.5 -31q-67 -26 -110.5 -47t-54.5 -21q-15 0 -15 16q0 13 15.5 45.5t21.5 41.5q9 9 34.5 23.5t36.5 17.5q-21 7 -48.5 30t-27.5 62q0 28 18.5 64t44 69.5t47.5 54.5q53 53 90 63.5t65 10.5q30 0 56 -24t26 -59q0 -19 -8.5 -45
t-19.5 -45t-18 -19q-8 0 -28 12.5t-44.5 24.5t-44.5 12q-26 0 -46 -16.5t-20 -32.5q0 -5 26 -24t61.5 -36.5t63.5 -18.5q34 8 79.5 21.5t53.5 14.5q13 0 13 -17z" />
    <glyph glyph-name="uni0681.fina" unicode="&#x681;" horiz-adv-x="1471" 
d="M1563 126q0 -67 -19 -96.5t-57 -29.5h-153q-104 0 -183.5 3t-140.5 22q-107 32 -107 160q0 31 8.5 81.5t18.5 93.5q-157 -37 -293 -103t-239 -154.5t-161.5 -194.5t-58.5 -222q0 -250 227.5 -377t670.5 -127q97 0 180.5 8.5t138.5 17t66 8.5q5 0 8.5 -17t3.5 -20
q0 -7 -40.5 -27t-103 -47t-130 -54t-123 -47t-81.5 -27q-52 -13 -98 -15t-69 -2q-136 0 -271.5 32t-247.5 104t-179.5 190.5t-67.5 291.5q0 172 75.5 321t201 268t275.5 199q-70 19 -134.5 27.5t-115.5 8.5q-84 0 -140 -17t-77 -17q-3 0 -12 8t-9 14q0 18 7.5 54.5t15.5 70
t9 40.5q2 11 47.5 33.5t110 41t123.5 18.5q81 0 144.5 -9t122.5 -21t124.5 -21.5t149.5 -9.5q30 0 78 2t97.5 4t86.5 2q24 0 39.5 -2t15.5 -5q0 -4 -11.5 -30.5t-27.5 -59t-29 -57t-15 -25.5q-35 -6 -94 -15t-108 -18q1 -51 32 -81.5t121.5 -44t270.5 -13.5h51q38 0 57 -22
t19 -96zM1034 1022q0 -10 -9 -32t-22.5 -42.5t-27.5 -24.5q-11 -4 -46.5 -17.5t-80 -31t-82.5 -30.5q-67 -26 -110.5 -47t-53.5 -21q-16 0 -16 16q0 13 16 45.5t22 40.5q8 10 34 24t37 18q-21 7 -48.5 30t-27.5 61q0 29 18.5 65t44 69.5t46.5 54.5q54 53 91 63.5t64 10.5
q30 0 56.5 -24t26.5 -59q0 -20 -8.5 -45.5t-19.5 -44.5t-19 -19q-7 0 -27.5 12t-44.5 24.5t-44 12.5q-27 0 -47 -16.5t-20 -32.5q0 -6 26.5 -24.5t62 -36t62.5 -18.5q34 8 80 21.5t54 13.5q13 1 13 -16z" />
    <glyph glyph-name="uni0682.init" unicode="&#x682;" horiz-adv-x="1476" 
d="M1363 544q0 -4 -4.5 -29t-11 -57.5t-12.5 -58.5t-9 -32q-21 -4 -85.5 -5.5t-153.5 -2t-182 -0.5q-81 0 -152 -29t-136 -72.5t-130 -87.5q-99 -63 -210.5 -116.5t-240.5 -53.5h-52q-34 0 -50.5 22t-21 50.5t-4.5 49.5q0 22 4.5 50.5t21 50t50.5 21.5h50q106 0 207.5 14
t196.5 53q53 21 113.5 49.5t114.5 42.5q-46 17 -111 46t-137.5 53t-141.5 24q-39 0 -76 -12.5t-62.5 -25t-29.5 -12.5t-17 7t-13 11q0 46 36 114t91 107q33 24 71.5 36.5t96.5 12.5q55 0 129 -31t150.5 -67t136.5 -54q73 -21 164.5 -36.5t199.5 -20.5q44 -2 93 -3.5t83 -3
t34 -4.5zM836 1028q0 -9 -16 -35.5t-38 -57t-40.5 -52.5t-23.5 -22q-4 0 -29 15t-56 35.5t-54 38.5t-23 25q0 9 21 40.5t46.5 64.5t39.5 48q7 9 7 16t-4 11q-17 11 -50.5 34t-61 44.5t-27.5 28.5q0 6 16 32.5t38 59t41 56.5t25 24q9 0 35.5 -17.5t57 -41t52.5 -42.5t22 -22
q0 -5 -20.5 -36t-44.5 -64.5t-36 -47.5q-4 -3 -9 -9.5t-5 -13.5q0 -6 10 -13q16 -11 46.5 -32t55.5 -40.5t25 -26.5z" />
    <glyph glyph-name="uni0682.medi" unicode="&#x682;" horiz-adv-x="1486" 
d="M1579 122q0 -21 -4.5 -49.5t-21 -50.5t-50.5 -22h-51q-165 0 -281 14t-174 53q-72 48 -72 154q0 28 9.5 67t20.5 72h-24q-94 0 -172.5 -30.5t-149.5 -77t-143 -94.5q-93 -61 -197.5 -109.5t-234.5 -48.5h-50q-34 0 -50.5 22t-21 50.5t-4.5 49.5q0 22 4.5 50.5t21 50
t50.5 21.5h50q137 0 237 19.5t181 53.5q50 20 107 47t109 39q-38 15 -104.5 45t-145 54.5t-152.5 24.5q-38 0 -72.5 -12t-57.5 -24.5t-26 -12.5q-6 0 -18.5 6.5t-12.5 10.5q0 57 39 122.5t95 101.5q32 21 71 33t88 12q42 0 99 -20t119 -48.5t121.5 -54.5t108.5 -37
q111 -26 242 -39.5t294 -13.5q13 0 13 -16q0 -2 -6.5 -37.5t-14.5 -73.5t-12 -50q-2 -6 -47.5 -10t-111.5 -5.5t-130 -1.5q-2 -4 -2 -18q0 -38 54 -60q41 -18 105 -25t131.5 -8.5t116.5 -1.5h51q34 0 50.5 -21.5t21 -50t4.5 -50.5zM895 1069q0 -8 -16.5 -34.5t-38.5 -57
t-40.5 -52.5t-23.5 -22q-4 0 -29 14.5t-55.5 35.5t-53.5 39t-23 24q0 9 20.5 40.5t46.5 65t40 47.5q7 9 7 16q0 8 -5 11q-17 11 -50 34t-61 45t-28 29q0 5 16 32t38 59t41 56t25 24q9 0 35.5 -17.5t57 -41t52.5 -42.5t22 -22q0 -5 -20.5 -35.5t-44.5 -64.5t-36 -48
q-3 -3 -8.5 -9t-5.5 -13q0 -6 10 -13q16 -11 46.5 -32.5t56 -41t25.5 -26.5z" />
    <glyph glyph-name="uni0682.fina" unicode="&#x682;" horiz-adv-x="1471" 
d="M1563 126q0 -67 -19 -96.5t-57 -29.5h-153q-104 0 -183.5 3t-140.5 22q-107 32 -107 160q0 31 8.5 81.5t18.5 93.5q-157 -37 -293 -103t-239 -154.5t-161.5 -194.5t-58.5 -222q0 -250 227.5 -377t670.5 -127q97 0 180.5 8.5t138.5 17t66 8.5q5 0 8.5 -17t3.5 -20
q0 -7 -40.5 -27t-103 -47t-130 -54t-123 -47t-81.5 -27q-52 -13 -98 -15t-69 -2q-136 0 -271.5 32t-247.5 104t-179.5 190.5t-67.5 291.5q0 172 75.5 321t201 268t275.5 199q-70 19 -134.5 27.5t-115.5 8.5q-84 0 -140 -17t-77 -17q-3 0 -12 8t-9 14q0 18 7.5 54.5t15.5 70
t9 40.5q2 11 47.5 33.5t110 41t123.5 18.5q81 0 144.5 -9t122.5 -21t124.5 -21.5t149.5 -9.5q30 0 78 2t97.5 4t86.5 2q24 0 39.5 -2t15.5 -5q0 -4 -11.5 -30.5t-27.5 -59t-29 -57t-15 -25.5q-35 -6 -94 -15t-108 -18q1 -51 32 -81.5t121.5 -44t270.5 -13.5h51q38 0 57 -22
t19 -96zM935 934q0 -8 -16.5 -34.5t-38.5 -57t-40.5 -52.5t-23.5 -22q-4 0 -29 14.5t-55.5 35.5t-53.5 39t-23 24q0 9 20.5 40.5t46.5 65t40 47.5q7 9 7 16q0 8 -5 11q-17 11 -50 34t-61 45t-28 29q0 5 16 32t38 59t41 56t25 24q9 0 35.5 -17.5t57 -41t52.5 -42.5t22 -22
q0 -5 -20.5 -35.5t-44.5 -64.5t-36 -48q-3 -3 -8.5 -9t-5.5 -13q0 -6 10 -13q16 -11 46.5 -32.5t56 -41t25.5 -26.5z" />
    <glyph glyph-name="uni0683.init" unicode="&#x683;" horiz-adv-x="1476" arabic-form="initial" 
d="M1363 544q0 -4 -4.5 -29t-11 -57.5t-12.5 -58.5t-9 -32q-21 -4 -85.5 -5.5t-153.5 -2t-182 -0.5q-81 0 -152 -29t-136 -72.5t-130 -87.5q-99 -63 -210.5 -116.5t-240.5 -53.5h-52q-34 0 -50.5 22t-21 50.5t-4.5 49.5q0 22 4.5 50.5t21 50t50.5 21.5h50q106 0 207.5 14
t196.5 53q53 21 113.5 49.5t114.5 42.5q-46 17 -111 46t-137.5 53t-141.5 24q-39 0 -76 -12.5t-62.5 -25t-29.5 -12.5t-17 7t-13 11q0 46 36 114t91 107q33 24 71.5 36.5t96.5 12.5q55 0 129 -31t150.5 -67t136.5 -54q73 -21 164.5 -36.5t199.5 -20.5q44 -2 93 -3.5t83 -3
t34 -4.5zM964 -243q0 -7 -15.5 -35t-37 -61t-40.5 -57.5t-25 -24.5q-4 0 -27.5 16.5t-53 38.5t-51.5 39t-24 19q-8 7 -14 7q-5 0 -11 -10q-1 -2 -16 -23.5t-35 -49t-37.5 -48.5t-24.5 -21q-4 0 -29 17t-56 39.5t-54 42t-23 24.5q0 7 16.5 35.5t39 62t41 58t22.5 24.5
q9 0 32.5 -16.5t50.5 -38t47 -38.5t22 -19q10 -9 14 -9q7 0 16 14q1 2 16.5 23t36 47.5t37.5 46.5t21 20q7 0 32.5 -16.5t55.5 -39.5t52 -42.5t22 -24.5z" />
    <glyph glyph-name="uni0683.medi" unicode="&#x683;" horiz-adv-x="1486" arabic-form="medial" 
d="M1579 122q0 -21 -4.5 -49.5t-21 -50.5t-50.5 -22h-51q-165 0 -281 14t-174 53q-72 48 -72 154q0 28 9.5 67t20.5 72h-24q-94 0 -172.5 -30.5t-149.5 -77t-143 -94.5q-93 -61 -197.5 -109.5t-234.5 -48.5h-50q-34 0 -50.5 22t-21 50.5t-4.5 49.5q0 22 4.5 50.5t21 50
t50.5 21.5h50q137 0 237 19.5t181 53.5q50 20 107 47t109 39q-38 15 -104.5 45t-145 54.5t-152.5 24.5q-38 0 -72.5 -12t-57.5 -24.5t-26 -12.5q-6 0 -18.5 6.5t-12.5 10.5q0 57 39 122.5t95 101.5q32 21 71 33t88 12q42 0 99 -20t119 -48.5t121.5 -54.5t108.5 -37
q111 -26 242 -39.5t294 -13.5q13 0 13 -16q0 -2 -6.5 -37.5t-14.5 -73.5t-12 -50q-2 -6 -47.5 -10t-111.5 -5.5t-130 -1.5q-2 -4 -2 -18q0 -38 54 -60q41 -18 105 -25t131.5 -8.5t116.5 -1.5h51q34 0 50.5 -21.5t21 -50t4.5 -50.5zM1025 -230q0 -7 -15.5 -35t-37 -61
t-40.5 -57t-25 -24q-4 0 -27.5 16.5t-53 38t-51.5 39t-24 18.5q-8 7 -14 7q-5 0 -11 -10q-1 -1 -16 -23t-35 -49.5t-37.5 -48t-24.5 -20.5q-4 0 -29 16.5t-56 39.5t-54 42t-23 25q0 7 16.5 35t39 61.5t41 58t22.5 24.5q9 0 32.5 -16t50.5 -38t47 -39t22 -18q10 -10 14 -10
q7 0 16 14q1 2 16.5 23t36 47.5t37.5 47t21 20.5q7 0 32.5 -17t55.5 -40t52 -42.5t22 -24.5z" />
    <glyph glyph-name="uni0683.fina" unicode="&#x683;" horiz-adv-x="1471" arabic-form="final" 
d="M1563 126q0 -67 -19 -96.5t-57 -29.5h-153q-104 0 -183.5 3t-140.5 22q-107 32 -107 160q0 31 8.5 81.5t18.5 93.5q-157 -37 -293 -103t-239 -154.5t-161.5 -194.5t-58.5 -222q0 -250 227.5 -377t670.5 -127q97 0 180.5 8.5t138.5 17t66 8.5q5 0 8.5 -17t3.5 -20
q0 -7 -40.5 -27t-103 -47t-130 -54t-123 -47t-81.5 -27q-52 -13 -98 -15t-69 -2q-136 0 -271.5 32t-247.5 104t-179.5 190.5t-67.5 291.5q0 172 75.5 321t201 268t275.5 199q-70 19 -134.5 27.5t-115.5 8.5q-84 0 -140 -17t-77 -17q-3 0 -12 8t-9 14q0 18 7.5 54.5t15.5 70
t9 40.5q2 11 47.5 33.5t110 41t123.5 18.5q81 0 144.5 -9t122.5 -21t124.5 -21.5t149.5 -9.5q30 0 78 2t97.5 4t86.5 2q24 0 39.5 -2t15.5 -5q0 -4 -11.5 -30.5t-27.5 -59t-29 -57t-15 -25.5q-35 -6 -94 -15t-108 -18q1 -51 32 -81.5t121.5 -44t270.5 -13.5h51q38 0 57 -22
t19 -96zM1064 -250q0 -7 -15.5 -35t-37 -61t-40.5 -57t-25 -24q-4 0 -27.5 16.5t-53 38t-51.5 39t-24 18.5q-8 7 -14 7q-5 0 -11 -10q-1 -1 -16 -23t-35 -49.5t-37.5 -48t-24.5 -20.5q-4 0 -29 16.5t-56 39.5t-54 42t-23 25q0 7 16.5 35t39 61.5t41 58t22.5 24.5
q9 0 32.5 -16t50.5 -38t47 -39t22 -18q10 -10 14 -10q7 0 16 14q1 2 16.5 23t36 47.5t37.5 47t21 20.5q7 0 32.5 -17t55.5 -40t52 -42.5t22 -24.5z" />
    <glyph glyph-name="uni0684.init" unicode="&#x684;" horiz-adv-x="1476" arabic-form="initial" 
d="M1363 544q0 -4 -4.5 -29t-11 -57.5t-12.5 -58.5t-9 -32q-21 -4 -85.5 -5.5t-153.5 -2t-182 -0.5q-81 0 -152 -29t-136 -72.5t-130 -87.5q-99 -63 -210.5 -116.5t-240.5 -53.5h-52q-34 0 -50.5 22t-21 50.5t-4.5 49.5q0 22 4.5 50.5t21 50t50.5 21.5h50q106 0 207.5 14
t196.5 53q53 21 113.5 49.5t114.5 42.5q-46 17 -111 46t-137.5 53t-141.5 24q-39 0 -76 -12.5t-62.5 -25t-29.5 -12.5t-17 7t-13 11q0 46 36 114t91 107q33 24 71.5 36.5t96.5 12.5q55 0 129 -31t150.5 -67t136.5 -54q73 -21 164.5 -36.5t199.5 -20.5q44 -2 93 -3.5t83 -3
t34 -4.5zM842 -529q0 -9 -16 -35.5t-38 -57t-40.5 -52.5t-23.5 -22q-4 0 -29 15t-56 35.5t-54 38.5t-23 24q0 10 21 41.5t46.5 64.5t39.5 47q7 9 7 16q0 8 -4 12q-17 10 -50.5 33t-61 45t-27.5 29q0 6 16 32.5t38 59t41 56t25 23.5q9 0 35.5 -17t57 -40.5t52.5 -42.5t22 -22
q0 -5 -20.5 -36t-44.5 -65t-36 -48q-4 -3 -9 -9t-5 -13q0 -6 10 -13q16 -11 46.5 -32t55.5 -41t25 -26z" />
    <glyph glyph-name="uni0684.medi" unicode="&#x684;" horiz-adv-x="1486" arabic-form="medial" 
d="M1579 122q0 -21 -4.5 -49.5t-21 -50.5t-50.5 -22h-51q-165 0 -281 14t-174 53q-72 48 -72 154q0 28 9.5 67t20.5 72h-24q-94 0 -172.5 -30.5t-149.5 -77t-143 -94.5q-93 -61 -197.5 -109.5t-234.5 -48.5h-50q-34 0 -50.5 22t-21 50.5t-4.5 49.5q0 22 4.5 50.5t21 50
t50.5 21.5h50q137 0 237 19.5t181 53.5q50 20 107 47t109 39q-38 15 -104.5 45t-145 54.5t-152.5 24.5q-38 0 -72.5 -12t-57.5 -24.5t-26 -12.5q-6 0 -18.5 6.5t-12.5 10.5q0 57 39 122.5t95 101.5q32 21 71 33t88 12q42 0 99 -20t119 -48.5t121.5 -54.5t108.5 -37
q111 -26 242 -39.5t294 -13.5q13 0 13 -16q0 -2 -6.5 -37.5t-14.5 -73.5t-12 -50q-2 -6 -47.5 -10t-111.5 -5.5t-130 -1.5q-2 -4 -2 -18q0 -38 54 -60q41 -18 105 -25t131.5 -8.5t116.5 -1.5h51q34 0 50.5 -21.5t21 -50t4.5 -50.5zM895 -533q0 -8 -16.5 -34.5t-38.5 -57
t-40.5 -52.5t-23.5 -22q-4 0 -29 14.5t-55.5 35.5t-53.5 39t-23 24q0 9 20.5 40.5t46.5 65t40 47.5q7 9 7 16q0 8 -5 11q-17 11 -50 34t-61 45t-28 29q0 5 16 32t38 59t41 56t25 24q9 0 35.5 -17.5t57 -41t52.5 -42.5t22 -22q0 -5 -20.5 -35.5t-44.5 -64.5t-36 -48
q-3 -3 -8.5 -9t-5.5 -13q0 -6 10 -13q16 -11 46.5 -32.5t56 -41t25.5 -26.5z" />
    <glyph glyph-name="uni0684.fina" unicode="&#x684;" horiz-adv-x="1471" arabic-form="final" 
d="M1563 126q0 -67 -19 -96.5t-57 -29.5h-153q-104 0 -183.5 3t-140.5 22q-107 32 -107 160q0 31 8.5 81.5t18.5 93.5q-157 -37 -293 -103t-239 -154.5t-161.5 -194.5t-58.5 -222q0 -250 227.5 -377t670.5 -127q97 0 180.5 8.5t138.5 17t66 8.5q5 0 8.5 -17t3.5 -20
q0 -7 -40.5 -27t-103 -47t-130 -54t-123 -47t-81.5 -27q-52 -13 -98 -15t-69 -2q-136 0 -271.5 32t-247.5 104t-179.5 190.5t-67.5 291.5q0 172 75.5 321t201 268t275.5 199q-70 19 -134.5 27.5t-115.5 8.5q-84 0 -140 -17t-77 -17q-3 0 -12 8t-9 14q0 18 7.5 54.5t15.5 70
t9 40.5q2 11 47.5 33.5t110 41t123.5 18.5q81 0 144.5 -9t122.5 -21t124.5 -21.5t149.5 -9.5q30 0 78 2t97.5 4t86.5 2q24 0 39.5 -2t15.5 -5q0 -4 -11.5 -30.5t-27.5 -59t-29 -57t-15 -25.5q-35 -6 -94 -15t-108 -18q1 -51 32 -81.5t121.5 -44t270.5 -13.5h51q38 0 57 -22
t19 -96zM922 -420q0 -9 -16 -35.5t-38 -57t-40.5 -52.5t-23.5 -22q-4 0 -29 15t-56 35.5t-54 38.5t-23 24q0 10 21 41.5t46.5 64.5t39.5 47q7 9 7 16q0 8 -4 12q-17 10 -50.5 33t-61 45t-27.5 29q0 6 16 32.5t38 59t41 56t25 23.5q9 0 35.5 -17t57 -40.5t52.5 -42.5t22 -22
q0 -5 -20.5 -36t-44.5 -65t-36 -48q-4 -3 -9 -9t-5 -13q0 -6 10 -13q16 -11 46.5 -32t55.5 -41t25 -26z" />
    <glyph glyph-name="uni0685.init" unicode="&#x685;" horiz-adv-x="1476" 
d="M1363 544q0 -4 -4.5 -29t-11 -57.5t-12.5 -58.5t-9 -32q-21 -4 -85.5 -5.5t-153.5 -2t-182 -0.5q-81 0 -152 -29t-136 -72.5t-130 -87.5q-99 -63 -210.5 -116.5t-240.5 -53.5h-52q-34 0 -50.5 22t-21 50.5t-4.5 49.5q0 22 4.5 50.5t21 50t50.5 21.5h50q106 0 207.5 14
t196.5 53q53 21 113.5 49.5t114.5 42.5q-46 17 -111 46t-137.5 53t-141.5 24q-39 0 -76 -12.5t-62.5 -25t-29.5 -12.5t-17 7t-13 11q0 46 36 114t91 107q33 24 71.5 36.5t96.5 12.5q55 0 129 -31t150.5 -67t136.5 -54q73 -21 164.5 -36.5t199.5 -20.5q44 -2 93 -3.5t83 -3
t34 -4.5zM788 1414q0 -7 -16 -35t-38 -61.5t-41 -58t-26 -24.5q-6 0 -31.5 16.5t-56 39.5t-53 43t-22.5 25q0 7 16 35.5t38 61.5t41 57.5t27 24.5q5 0 30 -16.5t55.5 -39.5t53.5 -42.5t23 -25.5zM968 1113q0 -7 -15.5 -35t-37 -61t-40 -57.5t-25.5 -24.5q-4 0 -27.5 16.5
t-52.5 38.5t-51.5 39t-23.5 19q-9 7 -15 7q-4 0 -11 -10q-1 -1 -16 -23t-35 -49.5t-37.5 -48.5t-23.5 -21q-5 0 -30 17t-55.5 39.5t-53.5 42t-23 24.5q0 7 16.5 35.5t38.5 62t41 58t23 24.5q8 0 31.5 -16.5t50.5 -38t47 -38.5t22 -19q10 -9 14 -9q7 0 17 14q1 2 16.5 23
t35.5 47.5t37 46.5t22 20q7 0 32 -16.5t55 -39.5t52 -42.5t22 -24.5z" />
    <glyph glyph-name="uni0685.medi" unicode="&#x685;" horiz-adv-x="1486" 
d="M1579 122q0 -21 -4.5 -49.5t-21 -50.5t-50.5 -22h-51q-165 0 -281 14t-174 53q-72 48 -72 154q0 28 9.5 67t20.5 72h-24q-94 0 -172.5 -30.5t-149.5 -77t-143 -94.5q-93 -61 -197.5 -109.5t-234.5 -48.5h-50q-34 0 -50.5 22t-21 50.5t-4.5 49.5q0 22 4.5 50.5t21 50
t50.5 21.5h50q137 0 237 19.5t181 53.5q50 20 107 47t109 39q-38 15 -104.5 45t-145 54.5t-152.5 24.5q-38 0 -72.5 -12t-57.5 -24.5t-26 -12.5q-6 0 -18.5 6.5t-12.5 10.5q0 57 39 122.5t95 101.5q32 21 71 33t88 12q42 0 99 -20t119 -48.5t121.5 -54.5t108.5 -37
q111 -26 242 -39.5t294 -13.5q13 0 13 -16q0 -2 -6.5 -37.5t-14.5 -73.5t-12 -50q-2 -6 -47.5 -10t-111.5 -5.5t-130 -1.5q-2 -4 -2 -18q0 -38 54 -60q41 -18 105 -25t131.5 -8.5t116.5 -1.5h51q34 0 50.5 -21.5t21 -50t4.5 -50.5zM823 1444q0 -7 -16 -35t-38 -62
t-41.5 -58.5t-25.5 -24.5t-32 17t-56.5 40t-53 42.5t-22.5 25.5q0 7 16 35t38 61.5t41.5 58t26.5 24.5q5 0 30.5 -17t56 -40t53.5 -42.5t23 -24.5zM1003 1142q0 -7 -15.5 -34.5t-37 -61t-40 -57.5t-25.5 -24q-4 0 -27.5 16.5t-52.5 38t-51.5 39t-23.5 18.5q-9 7 -15 7
q-5 0 -11 -9q-1 -2 -16 -23.5t-35 -49.5t-37.5 -48.5t-24.5 -20.5q-4 0 -29 16.5t-56 39.5t-53.5 42t-22.5 25q0 7 16.5 35t38.5 61.5t40.5 58t23.5 24.5q8 0 31.5 -16t50.5 -38t47 -39t22 -18q10 -10 14 -10q7 0 16 14q2 2 17 23t35.5 48t37.5 47t21 20q7 0 32.5 -17
t55.5 -40t52 -42.5t22 -24.5z" />
    <glyph glyph-name="uni0685.fina" unicode="&#x685;" horiz-adv-x="1471" 
d="M1563 126q0 -67 -19 -96.5t-57 -29.5h-153q-104 0 -183.5 3t-140.5 22q-107 32 -107 160q0 31 8.5 81.5t18.5 93.5q-157 -37 -293 -103t-239 -154.5t-161.5 -194.5t-58.5 -222q0 -250 227.5 -377t670.5 -127q97 0 180.5 8.5t138.5 17t66 8.5q5 0 8.5 -17t3.5 -20
q0 -7 -40.5 -27t-103 -47t-130 -54t-123 -47t-81.5 -27q-52 -13 -98 -15t-69 -2q-136 0 -271.5 32t-247.5 104t-179.5 190.5t-67.5 291.5q0 172 75.5 321t201 268t275.5 199q-70 19 -134.5 27.5t-115.5 8.5q-84 0 -140 -17t-77 -17q-3 0 -12 8t-9 14q0 18 7.5 54.5t15.5 70
t9 40.5q2 11 47.5 33.5t110 41t123.5 18.5q81 0 144.5 -9t122.5 -21t124.5 -21.5t149.5 -9.5q30 0 78 2t97.5 4t86.5 2q24 0 39.5 -2t15.5 -5q0 -4 -11.5 -30.5t-27.5 -59t-29 -57t-15 -25.5q-35 -6 -94 -15t-108 -18q1 -51 32 -81.5t121.5 -44t270.5 -13.5h51q38 0 57 -22
t19 -96zM895 1300q0 -7 -16 -35t-38 -61.5t-41.5 -58.5t-25.5 -25t-32 17t-56.5 40t-53 42.5t-22.5 25.5q0 7 16 35t38 61.5t41.5 58t26.5 24.5q5 0 30.5 -17t56 -40t53.5 -42.5t23 -24.5zM1075 998q0 -6 -15.5 -34t-37 -61t-40 -57.5t-25.5 -24.5q-4 0 -27.5 16.5
t-52.5 38.5t-51.5 39t-23.5 18q-9 8 -15 8q-5 0 -11 -10q-1 -2 -16 -23.5t-35 -49t-37.5 -48.5t-24.5 -21q-4 0 -29 16.5t-56 39.5t-53.5 42.5t-22.5 24.5q0 7 16.5 35t38.5 61.5t40.5 58.5t23.5 25q8 0 31.5 -16.5t50.5 -38t47 -38.5t22 -19q10 -9 14 -9q7 0 16 13
q2 2 17 23.5t35.5 48t37.5 46.5t21 20q7 0 32.5 -17t55.5 -40t52 -42t22 -25z" />
    <glyph glyph-name="uni0686.init" unicode="&#x686;" horiz-adv-x="1476" arabic-form="initial" 
d="M1363 544q0 -4 -4.5 -29t-11 -57.5t-12.5 -58.5t-9 -32q-21 -4 -85.5 -5.5t-153.5 -2t-182 -0.5q-81 0 -152 -29t-136 -72.5t-130 -87.5q-99 -63 -210.5 -116.5t-240.5 -53.5h-52q-34 0 -50.5 22t-21 50.5t-4.5 49.5q0 22 4.5 50.5t21 50t50.5 21.5h50q106 0 207.5 14
t196.5 53q53 21 113.5 49.5t114.5 42.5q-46 17 -111 46t-137.5 53t-141.5 24q-39 0 -76 -12.5t-62.5 -25t-29.5 -12.5t-17 7t-13 11q0 46 36 114t91 107q33 24 71.5 36.5t96.5 12.5q55 0 129 -31t150.5 -67t136.5 -54q73 -21 164.5 -36.5t199.5 -20.5q44 -2 93 -3.5t83 -3
t34 -4.5zM860 -571q0 -7 -15.5 -35t-37 -61.5t-41 -58t-28.5 -24.5q-4 0 -29 16.5t-56.5 39t-54.5 42t-23 25.5q0 7 16.5 35.5t38.5 62t41.5 58t25.5 24.5q7 0 33 -17t56 -40t52 -42.5t22 -24.5zM973 -233q0 -7 -15.5 -34.5t-37 -60.5t-40.5 -57.5t-25 -24.5
q-4 0 -27.5 16.5t-53 38.5t-51.5 39t-24 18q-8 8 -14 8q-5 0 -11 -10q-1 -2 -16 -23.5t-35 -49t-37.5 -48.5t-24.5 -21q-4 0 -29 16.5t-56 39.5t-54 42.5t-23 24.5q0 7 16.5 35t39 61.5t41 58t22.5 24.5q9 0 32.5 -16t50.5 -37.5t47 -39t22 -18.5q10 -9 14 -9q7 0 16 13
q1 2 16.5 23t36 48t37.5 47t21 20q7 0 32.5 -17t55.5 -40t52 -42.5t22 -24.5z" />
    <glyph glyph-name="uni0686.medi" unicode="&#x686;" horiz-adv-x="1486" arabic-form="medial" 
d="M1579 122q0 -21 -4.5 -49.5t-21 -50.5t-50.5 -22h-51q-165 0 -281 14t-174 53q-72 48 -72 154q0 28 9.5 67t20.5 72h-24q-94 0 -172.5 -30.5t-149.5 -77t-143 -94.5q-93 -61 -197.5 -109.5t-234.5 -48.5h-50q-34 0 -50.5 22t-21 50.5t-4.5 49.5q0 22 4.5 50.5t21 50
t50.5 21.5h50q137 0 237 19.5t181 53.5q50 20 107 47t109 39q-38 15 -104.5 45t-145 54.5t-152.5 24.5q-38 0 -72.5 -12t-57.5 -24.5t-26 -12.5q-6 0 -18.5 6.5t-12.5 10.5q0 57 39 122.5t95 101.5q32 21 71 33t88 12q42 0 99 -20t119 -48.5t121.5 -54.5t108.5 -37
q111 -26 242 -39.5t294 -13.5q13 0 13 -16q0 -2 -6.5 -37.5t-14.5 -73.5t-12 -50q-2 -6 -47.5 -10t-111.5 -5.5t-130 -1.5q-2 -4 -2 -18q0 -38 54 -60q41 -18 105 -25t131.5 -8.5t116.5 -1.5h51q34 0 50.5 -21.5t21 -50t4.5 -50.5zM913 -568q0 -7 -15.5 -35t-37.5 -61
t-41.5 -58t-27.5 -25q-4 0 -29.5 16.5t-56.5 39.5t-54.5 42.5t-23.5 25.5q0 7 16.5 35t39 61.5t41.5 58t25 24.5q8 0 33.5 -17t55.5 -40t52.5 -42.5t22.5 -24.5zM1025 -229q0 -7 -15.5 -35t-37 -61t-40 -57.5t-25.5 -24.5q-4 0 -27.5 16.5t-52.5 38.5t-51.5 39t-23.5 19
q-9 7 -15 7q-5 0 -11 -10q-1 -2 -16 -23.5t-35 -49t-37.5 -48.5t-23.5 -21q-5 0 -30 17t-55.5 39.5t-53.5 42t-23 24.5q0 7 16.5 35.5t38.5 62t40.5 58t23.5 24.5q8 0 31.5 -16.5t50.5 -38t47 -38.5t22 -19q10 -9 14 -9q7 0 16 14q2 2 17.5 23t35.5 47.5t37 46.5t21 20
q7 0 32.5 -16.5t55.5 -39.5t52 -42.5t22 -24.5z" />
    <glyph glyph-name="uni0686.fina" unicode="&#x686;" horiz-adv-x="1471" arabic-form="final" 
d="M1563 126q0 -67 -19 -96.5t-57 -29.5h-153q-104 0 -183.5 3t-140.5 22q-107 32 -107 160q0 31 8.5 81.5t18.5 93.5q-157 -37 -293 -103t-239 -154.5t-161.5 -194.5t-58.5 -222q0 -250 227.5 -377t670.5 -127q97 0 180.5 8.5t138.5 17t66 8.5q5 0 8.5 -17t3.5 -20
q0 -7 -40.5 -27t-103 -47t-130 -54t-123 -47t-81.5 -27q-52 -13 -98 -15t-69 -2q-136 0 -271.5 32t-247.5 104t-179.5 190.5t-67.5 291.5q0 172 75.5 321t201 268t275.5 199q-70 19 -134.5 27.5t-115.5 8.5q-84 0 -140 -17t-77 -17q-3 0 -12 8t-9 14q0 18 7.5 54.5t15.5 70
t9 40.5q2 11 47.5 33.5t110 41t123.5 18.5q81 0 144.5 -9t122.5 -21t124.5 -21.5t149.5 -9.5q30 0 78 2t97.5 4t86.5 2q24 0 39.5 -2t15.5 -5q0 -4 -11.5 -30.5t-27.5 -59t-29 -57t-15 -25.5q-35 -6 -94 -15t-108 -18q1 -51 32 -81.5t121.5 -44t270.5 -13.5h51q38 0 57 -22
t19 -96zM945 -481q0 -7 -15.5 -35t-37.5 -61.5t-41.5 -58t-27.5 -24.5q-4 0 -29.5 16.5t-56.5 39t-54 42t-23 25.5q0 7 16 35.5t38.5 62t42 58t25.5 24.5q7 0 32.5 -17t56 -40t52.5 -42.5t22 -24.5zM1057 -143q0 -7 -15.5 -34.5t-36.5 -60.5t-40 -57.5t-25 -24.5
q-5 0 -28.5 16.5t-52.5 38.5t-51 39t-24 18q-9 8 -15 8q-4 0 -11 -10q-1 -2 -16 -23.5t-35 -49t-37.5 -48.5t-23.5 -21q-5 0 -30 16.5t-55.5 39.5t-53.5 42.5t-23 24.5q0 7 16.5 35t39 61.5t41 58t22.5 24.5q9 0 32.5 -16t50 -37.5t47 -39t21.5 -18.5q11 -9 15 -9q7 0 16 13
q1 2 16.5 23t35.5 48t37 47t22 20q7 0 32.5 -17t55.5 -40t51.5 -42.5t21.5 -24.5z" />
    <glyph glyph-name="uni0687.init" unicode="&#x687;" horiz-adv-x="1476" arabic-form="initial" 
d="M1363 544q0 -4 -4.5 -29t-11 -57.5t-12.5 -58.5t-9 -32q-21 -4 -85.5 -5.5t-153.5 -2t-182 -0.5q-81 0 -152 -29t-136 -72.5t-130 -87.5q-99 -63 -210.5 -116.5t-240.5 -53.5h-52q-34 0 -50.5 22t-21 50.5t-4.5 49.5q0 22 4.5 50.5t21 50t50.5 21.5h50q106 0 207.5 14
t196.5 53q53 21 113.5 49.5t114.5 42.5q-46 17 -111 46t-137.5 53t-141.5 24q-39 0 -76 -12.5t-62.5 -25t-29.5 -12.5t-17 7t-13 11q0 46 36 114t91 107q33 24 71.5 36.5t96.5 12.5q55 0 129 -31t150.5 -67t136.5 -54q73 -21 164.5 -36.5t199.5 -20.5q44 -2 93 -3.5t83 -3
t34 -4.5zM952 -233q0 -7 -15.5 -34.5t-37 -60.5t-40.5 -57.5t-25 -24.5q-4 0 -27.5 16.5t-53 38.5t-51.5 39t-24 18q-9 8 -15 8q-4 0 -10 -10q-2 -2 -16.5 -23.5t-34.5 -49t-37.5 -48.5t-24.5 -21q-4 0 -29 16.5t-56 39.5t-54 42.5t-23 24.5q0 7 16.5 35t39 61.5t41 58.5
t22.5 25q9 0 32.5 -16.5t50.5 -38t47 -38.5t22 -19q10 -9 14 -9q7 0 16 13q1 2 16.5 23.5t36 48t37.5 46.5t21 20q7 0 32.5 -17t55.5 -40t52 -42.5t22 -24.5zM983 -545q0 -7 -15.5 -34.5t-37 -60.5t-40.5 -57.5t-25 -24.5q-4 0 -27.5 16.5t-53 38.5t-51.5 39t-24 18
q-8 8 -14 8q-5 0 -11 -10q-1 -2 -16 -23.5t-35 -49t-37.5 -48.5t-24.5 -21q-4 0 -29 16.5t-56 39.5t-54 42.5t-23 24.5q0 7 16.5 35t39 61.5t41 58.5t22.5 25q9 0 32.5 -16.5t50.5 -38t47 -39t22 -18.5q10 -9 14 -9q7 0 16 13q1 2 16.5 23.5t36 48t37.5 46.5t21 20
q7 0 32.5 -17t55.5 -40t52 -42.5t22 -24.5z" />
    <glyph glyph-name="uni0687.medi" unicode="&#x687;" horiz-adv-x="1486" arabic-form="medial" 
d="M1579 122q0 -21 -4.5 -49.5t-21 -50.5t-50.5 -22h-51q-165 0 -281 14t-174 53q-72 48 -72 154q0 28 9.5 67t20.5 72h-24q-94 0 -172.5 -30.5t-149.5 -77t-143 -94.5q-93 -61 -197.5 -109.5t-234.5 -48.5h-50q-34 0 -50.5 22t-21 50.5t-4.5 49.5q0 22 4.5 50.5t21 50
t50.5 21.5h50q137 0 237 19.5t181 53.5q50 20 107 47t109 39q-38 15 -104.5 45t-145 54.5t-152.5 24.5q-38 0 -72.5 -12t-57.5 -24.5t-26 -12.5q-6 0 -18.5 6.5t-12.5 10.5q0 57 39 122.5t95 101.5q32 21 71 33t88 12q42 0 99 -20t119 -48.5t121.5 -54.5t108.5 -37
q111 -26 242 -39.5t294 -13.5q13 0 13 -16q0 -2 -6.5 -37.5t-14.5 -73.5t-12 -50q-2 -6 -47.5 -10t-111.5 -5.5t-130 -1.5q-2 -4 -2 -18q0 -38 54 -60q41 -18 105 -25t131.5 -8.5t116.5 -1.5h51q34 0 50.5 -21.5t21 -50t4.5 -50.5zM1009 -241q0 -7 -15.5 -34.5t-37 -60.5
t-40 -57.5t-25.5 -24.5q-4 0 -27.5 16.5t-52.5 38.5t-51.5 39t-23.5 18q-9 8 -15 8q-5 0 -11 -10q-1 -2 -16 -23.5t-35 -49t-37.5 -48.5t-24.5 -21q-4 0 -29 16.5t-56 39.5t-53.5 42.5t-22.5 24.5q0 7 16.5 35t38.5 61.5t40.5 58.5t23.5 25q8 0 31.5 -16.5t50.5 -38
t47 -38.5t22 -19q10 -9 14 -9q7 0 16 13q2 2 17 23.5t35.5 48t37.5 46.5t21 20q7 0 32.5 -17t55.5 -40t52 -42.5t22 -24.5zM1040 -553q0 -7 -15.5 -34.5t-37 -60.5t-40 -57.5t-25.5 -24.5q-4 0 -27.5 16.5t-52.5 38.5t-51.5 39t-23.5 18q-9 8 -15 8q-5 0 -11 -10
q-1 -2 -16 -23.5t-35 -49t-37.5 -48.5t-24.5 -21q-4 0 -29 16.5t-55.5 39.5t-53.5 42.5t-23 24.5q0 7 16.5 35t38.5 61.5t40.5 58.5t23.5 25q8 0 31.5 -16.5t50.5 -38t47 -39t22 -18.5q10 -9 14 -9q7 0 16 13q2 2 17 23.5t35.5 48t37.5 46.5t21 20q7 0 32.5 -17t55.5 -40
t52 -42.5t22 -24.5z" />
    <glyph glyph-name="uni0687.fina" unicode="&#x687;" horiz-adv-x="1471" arabic-form="final" 
d="M1563 126q0 -67 -19 -96.5t-57 -29.5h-153q-104 0 -183.5 3t-140.5 22q-107 32 -107 160q0 31 8.5 81.5t18.5 93.5q-157 -37 -293 -103t-239 -154.5t-161.5 -194.5t-58.5 -222q0 -250 227.5 -377t670.5 -127q97 0 180.5 8.5t138.5 17t66 8.5q5 0 8.5 -17t3.5 -20
q0 -7 -40.5 -27t-103 -47t-130 -54t-123 -47t-81.5 -27q-52 -13 -98 -15t-69 -2q-136 0 -271.5 32t-247.5 104t-179.5 190.5t-67.5 291.5q0 172 75.5 321t201 268t275.5 199q-70 19 -134.5 27.5t-115.5 8.5q-84 0 -140 -17t-77 -17q-3 0 -12 8t-9 14q0 18 7.5 54.5t15.5 70
t9 40.5q2 11 47.5 33.5t110 41t123.5 18.5q81 0 144.5 -9t122.5 -21t124.5 -21.5t149.5 -9.5q30 0 78 2t97.5 4t86.5 2q24 0 39.5 -2t15.5 -5q0 -4 -11.5 -30.5t-27.5 -59t-29 -57t-15 -25.5q-35 -6 -94 -15t-108 -18q1 -51 32 -81.5t121.5 -44t270.5 -13.5h51q38 0 57 -22
t19 -96zM1031 -111q0 -7 -15.5 -34.5t-37 -61t-40.5 -57.5t-25 -24q-4 0 -27.5 16.5t-53 38t-51.5 39t-24 18.5q-9 7 -15 7q-4 0 -10 -9q-2 -2 -16.5 -23.5t-34.5 -49.5t-37.5 -48.5t-24.5 -20.5q-4 0 -29 16.5t-56 39.5t-54 42t-23 25q0 7 16.5 35t39 61.5t41 58t22.5 24.5
q9 0 32.5 -16t50.5 -38t47 -39t22 -18q10 -10 14 -10q7 0 16 14q1 2 16.5 23t36 48t37.5 47t21 20q7 0 32.5 -17t55.5 -40t52 -42.5t22 -24.5zM1062 -423q0 -7 -15.5 -34.5t-37 -61t-40.5 -57.5t-25 -24q-4 0 -27.5 16.5t-53 38t-51.5 39t-24 18.5q-8 7 -14 7q-5 0 -11 -10
q-1 -1 -16 -23t-35 -49.5t-37.5 -48t-24.5 -20.5q-4 0 -29 16.5t-56 39.5t-54 42t-23 25q0 7 16.5 35t39 61.5t41 58t22.5 24.5q9 0 32.5 -16t50.5 -38t47 -39t22 -18q10 -10 14 -10q7 0 16 14q1 2 16.5 23t36 48t37.5 47t21 20q7 0 32.5 -17t55.5 -40t52 -42.5t22 -24.5z
" />
    <glyph glyph-name="uni0688.fina" unicode="&#x688;" horiz-adv-x="1126" arabic-form="final" 
d="M1218 122q0 -21 -4.5 -49.5t-20.5 -50.5t-50 -22h-52q-85 0 -140 41.5t-92.5 117t-70.5 176.5q-21 -58 -56.5 -114.5t-78.5 -95.5q-60 -51 -146.5 -79t-194.5 -28q-91 0 -160 36.5t-69 109.5q0 9 11 47t27 83t32 78t25 33q11 0 17.5 -19.5t14.5 -32.5q7 -15 23.5 -37.5
t52.5 -40t103 -17.5q92 0 173 18.5t131.5 69t50.5 145.5q-13 129 -45 226t-32 149q0 13 14 46.5t33 71t34.5 65t18.5 27.5q7 0 17.5 -6.5t12.5 -30.5q15 -102 32 -213.5t36 -214t39.5 -180t40.5 -111.5q23 -38 63.5 -57t82.5 -19h52q34 0 50 -21.5t20.5 -50t4.5 -50.5z
M997 1450q0 -69 -49.5 -118.5t-127 -81.5t-165 -47t-162.5 -15q-21 0 -50.5 23.5t-52.5 52t-23 43.5q0 12 11 12q14 0 49 -3t61 -3q49 0 66 45q7 19 10 38.5t3 29.5q0 91 -21.5 175.5t-21.5 158.5q0 41 22 74t37 33q3 0 21 -27t35 -55t16 -30q-11 -9 -19.5 -22.5t-8.5 -39.5
q0 -44 6.5 -87t6.5 -93q0 -18 -1.5 -48.5t-5.5 -60.5q65 78 132 126t125 48q54 0 80.5 -42t26.5 -86zM913 1410q0 13 -24 18.5t-49 5.5q-50 0 -110.5 -29.5t-112.5 -86.5q105 8 170.5 28.5t95.5 40t30 23.5z" />
    <glyph glyph-name="uni0689.fina" unicode="&#x689;" horiz-adv-x="1126" 
d="M1218 122q0 -21 -4.5 -49.5t-20.5 -50.5t-50 -22h-52q-85 0 -140 41.5t-92.5 117t-70.5 176.5q-21 -58 -56.5 -114.5t-78.5 -95.5q-60 -51 -146.5 -79t-194.5 -28q-91 0 -160 36.5t-69 109.5q0 9 11 47t27 83t32 78t25 33q11 0 17.5 -19.5t14.5 -32.5q7 -15 23.5 -37.5
t52.5 -40t103 -17.5q92 0 173 18.5t131.5 69t50.5 145.5q-13 129 -45 226t-32 149q0 13 14 46.5t33 71t34.5 65t18.5 27.5q7 0 17.5 -6.5t12.5 -30.5q15 -102 32 -213.5t36 -214t39.5 -180t40.5 -111.5q23 -38 63.5 -57t82.5 -19h52q34 0 50 -21.5t20.5 -50t4.5 -50.5z
M628 -86q0 -95 -63.5 -163t-156.5 -68q-71 0 -110 50t-39 158q0 57 26 108t73 83.5t110 32.5q46 0 82 -32t57 -78.5t21 -90.5zM531 -120q0 17 -21.5 40.5t-50.5 41t-53 17.5q-34 0 -52 -24t-18 -50q0 -29 30.5 -48.5t73.5 -19.5q25 0 58 14t33 29z" />
    <glyph glyph-name="uni068A.fina" unicode="&#x68a;" horiz-adv-x="1126" 
d="M1218 122q0 -21 -4.5 -49.5t-20.5 -50.5t-50 -22h-52q-85 0 -140 41.5t-92.5 117t-70.5 176.5q-21 -58 -56.5 -114.5t-78.5 -95.5q-60 -51 -146.5 -79t-194.5 -28q-91 0 -160 36.5t-69 109.5q0 9 11 47t27 83t32 78t25 33q11 0 17.5 -19.5t14.5 -32.5q7 -15 23.5 -37.5
t52.5 -40t103 -17.5q92 0 173 18.5t131.5 69t50.5 145.5q-13 129 -45 226t-32 149q0 13 14 46.5t33 71t34.5 65t18.5 27.5q7 0 17.5 -6.5t12.5 -30.5q15 -102 32 -213.5t36 -214t39.5 -180t40.5 -111.5q23 -38 63.5 -57t82.5 -19h52q34 0 50 -21.5t20.5 -50t4.5 -50.5z
M748 -276q0 -7 -16 -36t-39 -63.5t-43.5 -60.5t-28.5 -26q-4 0 -30.5 17t-58.5 40.5t-56.5 44t-24.5 26.5q0 8 17 37t40.5 64t43.5 60.5t26 25.5q7 0 34 -17.5t58.5 -41.5t54.5 -44t23 -26z" />
    <glyph glyph-name="uni068B.fina" unicode="&#x68b;" horiz-adv-x="1126" 
d="M1218 122q0 -21 -4.5 -49.5t-20.5 -50.5t-50 -22h-52q-85 0 -140 41.5t-92.5 117t-70.5 176.5q-21 -58 -56.5 -114.5t-78.5 -95.5q-60 -51 -146.5 -79t-194.5 -28q-91 0 -160 36.5t-69 109.5q0 9 11 47t27 83t32 78t25 33q11 0 17.5 -19.5t14.5 -32.5q7 -15 23.5 -37.5
t52.5 -40t103 -17.5q92 0 173 18.5t131.5 69t50.5 145.5q-13 129 -45 226t-32 149q0 13 14 46.5t33 71t34.5 65t18.5 27.5q7 0 17.5 -6.5t12.5 -30.5q15 -102 32 -213.5t36 -214t39.5 -180t40.5 -111.5q23 -38 63.5 -57t82.5 -19h52q34 0 50 -21.5t20.5 -50t4.5 -50.5z
M997 1450q0 -69 -49.5 -118.5t-127 -81.5t-165 -47t-162.5 -15q-21 0 -50.5 23.5t-52.5 52t-23 43.5q0 12 11 12q14 0 49 -3t61 -3q49 0 66 45q7 19 10 38.5t3 29.5q0 91 -21.5 175.5t-21.5 158.5q0 41 22 74t37 33q3 0 21 -27t35 -55t16 -30q-11 -9 -19.5 -22.5t-8.5 -39.5
q0 -44 6.5 -87t6.5 -93q0 -18 -1.5 -48.5t-5.5 -60.5q65 78 132 126t125 48q54 0 80.5 -42t26.5 -86zM913 1410q0 13 -24 18.5t-49 5.5q-50 0 -110.5 -29.5t-112.5 -86.5q105 8 170.5 28.5t95.5 40t30 23.5zM748 -276q0 -7 -16 -36t-39 -63.5t-43.5 -60.5t-28.5 -26
q-4 0 -30.5 17t-58.5 40.5t-56.5 44t-24.5 26.5q0 8 17 37t40.5 64t43.5 60.5t26 25.5q7 0 34 -17.5t58.5 -41.5t54.5 -44t23 -26z" />
    <glyph glyph-name="uni068C.fina" unicode="&#x68c;" horiz-adv-x="1126" arabic-form="final" 
d="M1218 122q0 -21 -4.5 -49.5t-20.5 -50.5t-50 -22h-52q-85 0 -140 41.5t-92.5 117t-70.5 176.5q-21 -58 -56.5 -114.5t-78.5 -95.5q-60 -51 -146.5 -79t-194.5 -28q-91 0 -160 36.5t-69 109.5q0 9 11 47t27 83t32 78t25 33q11 0 17.5 -19.5t14.5 -32.5q7 -15 23.5 -37.5
t52.5 -40t103 -17.5q92 0 173 18.5t131.5 69t50.5 145.5q-13 129 -45 226t-32 149q0 13 14 46.5t33 71t34.5 65t18.5 27.5q7 0 17.5 -6.5t12.5 -30.5q15 -102 32 -213.5t36 -214t39.5 -180t40.5 -111.5q23 -38 63.5 -57t82.5 -19h52q34 0 50 -21.5t20.5 -50t4.5 -50.5z
M979 1418q0 -7 -15.5 -35t-37 -61t-40.5 -57t-25 -24q-4 0 -27.5 16.5t-53 38t-51.5 39t-24 18.5q-8 7 -14 7q-5 0 -11 -10q-1 -1 -16 -23t-35 -49.5t-37.5 -48t-24.5 -20.5q-4 0 -29 16.5t-56 39.5t-54 42t-23 25q0 7 16.5 35t39 61.5t41 58t22.5 24.5q9 0 32.5 -16
t50.5 -38t47 -39t22 -18q10 -10 14 -10q7 0 16 14q1 2 16.5 23t36 47.5t37.5 47t21 20.5q7 0 32.5 -17t55.5 -40t52 -42.5t22 -24.5z" />
    <glyph glyph-name="uni068D.fina" unicode="&#x68d;" horiz-adv-x="1126" arabic-form="final" 
d="M1218 122q0 -21 -4.5 -49.5t-20.5 -50.5t-50 -22h-52q-85 0 -140 41.5t-92.5 117t-70.5 176.5q-21 -58 -56.5 -114.5t-78.5 -95.5q-60 -51 -146.5 -79t-194.5 -28q-91 0 -160 36.5t-69 109.5q0 9 11 47t27 83t32 78t25 33q11 0 17.5 -19.5t14.5 -32.5q7 -15 23.5 -37.5
t52.5 -40t103 -17.5q92 0 173 18.5t131.5 69t50.5 145.5q-13 129 -45 226t-32 149q0 13 14 46.5t33 71t34.5 65t18.5 27.5q7 0 17.5 -6.5t12.5 -30.5q15 -102 32 -213.5t36 -214t39.5 -180t40.5 -111.5q23 -38 63.5 -57t82.5 -19h52q34 0 50 -21.5t20.5 -50t4.5 -50.5z
M920 -261q0 -7 -15.5 -35t-37 -61t-40 -57.5t-25.5 -24.5q-4 0 -27.5 16.5t-52.5 38.5t-51.5 39t-23.5 19q-9 7 -15 7q-5 0 -11 -10q-1 -2 -16 -23.5t-35 -49t-37.5 -48.5t-23.5 -21q-5 0 -30 17t-55.5 39.5t-53.5 42t-23 24.5q0 7 16.5 35.5t38.5 62t40.5 58t23.5 24.5
q8 0 31.5 -16.5t50.5 -38t47 -38.5t22 -19q10 -9 14 -9q7 0 16 14q2 2 17.5 23t35.5 47.5t37 46.5t21 20q7 0 32.5 -16.5t55.5 -39.5t52 -42.5t22 -24.5z" />
    <glyph glyph-name="uni068E.fina" unicode="&#x68e;" horiz-adv-x="1126" arabic-form="final" 
d="M1218 122q0 -21 -4.5 -49.5t-20.5 -50.5t-50 -22h-52q-85 0 -140 41.5t-92.5 117t-70.5 176.5q-21 -58 -56.5 -114.5t-78.5 -95.5q-60 -51 -146.5 -79t-194.5 -28q-91 0 -160 36.5t-69 109.5q0 9 11 47t27 83t32 78t25 33q11 0 17.5 -19.5t14.5 -32.5q7 -15 23.5 -37.5
t52.5 -40t103 -17.5q92 0 173 18.5t131.5 69t50.5 145.5q-13 129 -45 226t-32 149q0 13 14 46.5t33 71t34.5 65t18.5 27.5q7 0 17.5 -6.5t12.5 -30.5q15 -102 32 -213.5t36 -214t39.5 -180t40.5 -111.5q23 -38 63.5 -57t82.5 -19h52q34 0 50 -21.5t20.5 -50t4.5 -50.5z
M821 1712q0 -7 -16 -35t-38 -61.5t-41 -58t-25 -24.5q-7 0 -32.5 16.5t-56 39.5t-53 43t-22.5 25q0 7 16 35.5t38 61.5t41.5 57.5t26.5 24.5q5 0 30 -16.5t56 -39.5t53.5 -42.5t22.5 -25.5zM1002 1411q0 -7 -15.5 -35t-37 -61t-40.5 -57.5t-25 -24.5q-4 0 -27.5 16.5
t-53 38.5t-51.5 39t-24 19q-9 7 -15 7q-4 0 -10 -10q-2 -1 -16.5 -23t-35 -49.5t-38 -48.5t-23.5 -21q-4 0 -29.5 17t-56 39.5t-53.5 42t-23 24.5q0 7 16.5 35.5t39 62t41 58t22.5 24.5q9 0 32.5 -16.5t50.5 -38t47 -38.5t21 -19q11 -9 15 -9q7 0 16 14q1 2 16.5 23t36 47.5
t37.5 46.5t21 20q7 0 32.5 -16.5t55.5 -39.5t52 -42.5t22 -24.5z" />
    <glyph glyph-name="uni068F.fina" unicode="&#x68f;" horiz-adv-x="1126" 
d="M1218 122q0 -21 -4.5 -49.5t-20.5 -50.5t-50 -22h-52q-85 0 -140 41.5t-92.5 117t-70.5 176.5q-21 -58 -56.5 -114.5t-78.5 -95.5q-60 -51 -146.5 -79t-194.5 -28q-91 0 -160 36.5t-69 109.5q0 9 11 47t27 83t32 78t25 33q11 0 17.5 -19.5t14.5 -32.5q7 -15 23.5 -37.5
t52.5 -40t103 -17.5q92 0 173 18.5t131.5 69t50.5 145.5q-13 129 -45 226t-32 149q0 13 14 46.5t33 71t34.5 65t18.5 27.5q7 0 17.5 -6.5t12.5 -30.5q15 -102 32 -213.5t36 -214t39.5 -180t40.5 -111.5q23 -38 63.5 -57t82.5 -19h52q34 0 50 -21.5t20.5 -50t4.5 -50.5z
M867 1406q0 -6 -15.5 -34t-37.5 -61.5t-41.5 -58t-27.5 -24.5q-4 0 -29.5 16.5t-56.5 39t-54.5 42t-23.5 25.5q0 7 16.5 35t39 61.5t41.5 58.5t25 25q8 0 33.5 -17t55.5 -40t52.5 -42.5t22.5 -25.5zM979 1745q0 -7 -15.5 -35t-37 -61t-40 -57t-25.5 -24q-4 0 -27.5 16.5
t-52.5 38t-51.5 39t-23.5 18.5q-9 7 -15 7q-5 0 -11 -10q-1 -1 -16 -23t-35 -49.5t-37.5 -48t-23.5 -20.5q-5 0 -30 16.5t-55.5 39.5t-53.5 42t-23 25q0 7 16.5 35t38.5 61.5t40.5 58t23.5 24.5q8 0 31.5 -16t50.5 -38t47 -39t22 -18q10 -10 14 -10q7 0 16 14q2 2 17.5 23
t35.5 47.5t37 47t21 20.5q7 0 32.5 -17t55.5 -40t52 -42.5t22 -24.5z" />
    <glyph glyph-name="uni0690.fina" unicode="&#x690;" horiz-adv-x="1126" 
d="M1218 122q0 -21 -4.5 -49.5t-20.5 -50.5t-50 -22h-52q-85 0 -140 41.5t-92.5 117t-70.5 176.5q-21 -58 -56.5 -114.5t-78.5 -95.5q-60 -51 -146.5 -79t-194.5 -28q-91 0 -160 36.5t-69 109.5q0 9 11 47t27 83t32 78t25 33q11 0 17.5 -19.5t14.5 -32.5q7 -15 23.5 -37.5
t52.5 -40t103 -17.5q92 0 173 18.5t131.5 69t50.5 145.5q-13 129 -45 226t-32 149q0 13 14 46.5t33 71t34.5 65t18.5 27.5q7 0 17.5 -6.5t12.5 -30.5q15 -102 32 -213.5t36 -214t39.5 -180t40.5 -111.5q23 -38 63.5 -57t82.5 -19h52q34 0 50 -21.5t20.5 -50t4.5 -50.5z
M983 1761q0 -7 -15.5 -34.5t-37 -60.5t-40 -57.5t-25.5 -24.5q-4 0 -27.5 16.5t-52.5 38.5t-51.5 39t-23.5 18q-9 8 -15 8q-5 0 -11 -10q-1 -2 -16 -23.5t-35 -49t-37.5 -48.5t-24.5 -21q-4 0 -29 16.5t-56 39.5t-53.5 42.5t-22.5 24.5q0 7 16.5 35t38.5 61.5t40.5 58.5
t23.5 25q8 0 31.5 -16.5t50.5 -38t47 -38.5t22 -19q10 -9 14 -9q7 0 16 13q2 2 17 23.5t35.5 48t37.5 46.5t21 20q7 0 32.5 -17t55.5 -40t52 -42.5t22 -24.5zM1014 1449q0 -7 -15.5 -34.5t-37 -60.5t-40 -57.5t-25.5 -24.5q-4 0 -27.5 16.5t-52.5 38.5t-51.5 39t-23.5 18
q-9 8 -15 8q-5 0 -11 -10q-1 -2 -16 -23.5t-35 -49t-37.5 -48.5t-24.5 -21q-4 0 -29 16.5t-55.5 39.5t-53.5 42.5t-23 24.5q0 7 16.5 35t38.5 61.5t40.5 58.5t23.5 25q8 0 31.5 -16.5t50.5 -38t47 -39t22 -18.5q10 -9 14 -9q7 0 16 13q2 2 17 23.5t35.5 48t37.5 46.5t21 20
q7 0 32.5 -17t55.5 -40t52 -42.5t22 -24.5z" />
    <glyph glyph-name="uni0691.fina" unicode="&#x691;" horiz-adv-x="815" arabic-form="final" 
d="M909 122q0 -21 -4.5 -49.5t-20.5 -50.5t-51 -22h-51q-10 0 -28 2.5t-33 8.5q-12 -116 -47 -251t-129 -249q-52 -64 -142.5 -113t-195.5 -49q-39 0 -97 14.5t-115 34.5t-95 38t-38 24q0 8 6 25t13 17q4 0 30.5 -4.5t69.5 -4.5q68 0 152.5 23.5t171.5 71.5t162 121
q89 91 124.5 157t35.5 83q0 9 -21 37.5t-48 63t-48 62t-21 35.5q0 3 13 31.5t30.5 65.5t31.5 67.5t17 37.5h26q26 -31 68.5 -68t106.5 -37h51q35 0 51 -21.5t20.5 -50t4.5 -50.5zM908 741q0 -69 -49.5 -118.5t-127 -81.5t-164.5 -47t-163 -15q-20 0 -50 23.5t-53 52
t-23 43.5q0 12 11 12q14 0 49 -3t61 -3q49 0 66 45q7 19 10 38.5t3 29.5q0 91 -21.5 175.5t-21.5 158.5q0 41 22 74t37 33q3 0 21 -27t35 -55t16 -30q-10 -9 -19 -22.5t-9 -39.5q0 -44 7 -87t7 -93q0 -18 -2 -48.5t-6 -60.5q65 78 132 126t126 48q53 0 79.5 -42t26.5 -86z
M824 701q0 13 -24 18.5t-49 5.5q-50 0 -110.5 -29.5t-112.5 -86.5q106 8 171 28.5t95 40t30 23.5z" />
    <glyph glyph-name="uni0692.fina" unicode="&#x692;" horiz-adv-x="815" 
d="M909 122q0 -21 -4.5 -49.5t-20.5 -50.5t-51 -22h-51q-10 0 -28 2.5t-33 8.5q-12 -116 -47 -251t-129 -249q-52 -64 -142.5 -113t-195.5 -49q-39 0 -97 14.5t-115 34.5t-95 38t-38 24q0 8 6 25t13 17q4 0 30.5 -4.5t69.5 -4.5q68 0 152.5 23.5t171.5 71.5t162 121
q89 91 124.5 157t35.5 83q0 9 -21 37.5t-48 63t-48 62t-21 35.5q0 3 13 31.5t30.5 65.5t31.5 67.5t17 37.5h26q26 -31 68.5 -68t106.5 -37h51q35 0 51 -21.5t20.5 -50t4.5 -50.5zM776 885q0 -3 -0.5 -27t-0.5 -39q0 -33 -3.5 -44.5t-9.5 -15.5q-21 -14 -59 -50t-71.5 -90.5
t-42.5 -125.5q-2 -6 -11 -6q-11 0 -12 6q-39 115 -86 172t-81.5 75.5t-36.5 18.5q-3 4 -2.5 35.5t2.5 61.5t5 30q28 -1 71.5 -32t83 -86.5t56.5 -129.5q14 73 53.5 130.5t80 90t60.5 32.5q4 0 4 -6z" />
    <glyph glyph-name="uni0693.fina" unicode="&#x693;" horiz-adv-x="815" 
d="M909 122q0 -21 -4.5 -49.5t-20.5 -50.5t-51 -22h-51q-10 0 -28 2.5t-33 8.5q-12 -116 -47 -251t-129 -249q-52 -64 -142.5 -113t-195.5 -49q-39 0 -97 14.5t-115 34.5t-95 38t-38 24q0 8 6 25t13 17q4 0 30.5 -4.5t69.5 -4.5q68 0 152.5 23.5t171.5 71.5t162 121
q89 91 124.5 157t35.5 83q0 9 -21 37.5t-48 63t-48 62t-21 35.5q0 3 13 31.5t30.5 65.5t31.5 67.5t17 37.5h26q26 -31 68.5 -68t106.5 -37h51q35 0 51 -21.5t20.5 -50t4.5 -50.5zM760 -590q0 -95 -63 -163t-157 -68q-70 0 -109.5 50t-39.5 158q0 57 26 108t73 83.5t110 32.5
q46 0 82 -32t57 -78.5t21 -90.5zM663 -624q0 17 -21.5 40.5t-50.5 41t-53 17.5q-33 0 -51.5 -24t-18.5 -50q0 -29 31 -48.5t73 -19.5q25 0 58 14t33 29z" />
    <glyph glyph-name="uni0694.fina" unicode="&#x694;" horiz-adv-x="815" 
d="M909 122q0 -21 -4.5 -49.5t-20.5 -50.5t-51 -22h-51q-10 0 -28 2.5t-33 8.5q-12 -116 -47 -251t-129 -249q-52 -64 -142.5 -113t-195.5 -49q-39 0 -97 14.5t-115 34.5t-95 38t-38 24q0 8 6 25t13 17q4 0 30.5 -4.5t69.5 -4.5q68 0 152.5 23.5t171.5 71.5t162 121
q89 91 124.5 157t35.5 83q0 9 -21 37.5t-48 63t-48 62t-21 35.5q0 3 13 31.5t30.5 65.5t31.5 67.5t17 37.5h26q26 -31 68.5 -68t106.5 -37h51q35 0 51 -21.5t20.5 -50t4.5 -50.5zM723 -822q0 -7 -16.5 -36t-39.5 -63.5t-43.5 -60.5t-28.5 -26q-4 0 -30 17t-58.5 40.5
t-56.5 44t-24 26.5q0 8 16.5 37t40 64t43.5 60.5t26 25.5q7 0 34 -17.5t58.5 -41.5t55 -44t23.5 -26z" />
    <glyph glyph-name="uni0695.fina" unicode="&#x695;" horiz-adv-x="815" 
d="M909 122q0 -21 -4.5 -49.5t-20.5 -50.5t-51 -22h-51q-10 0 -28 2.5t-33 8.5q-12 -116 -47 -251t-129 -249q-52 -64 -142.5 -113t-195.5 -49q-39 0 -97 14.5t-115 34.5t-95 38t-38 24q0 8 6 25t13 17q4 0 30.5 -4.5t69.5 -4.5q68 0 152.5 23.5t171.5 71.5t162 121
q89 91 124.5 157t35.5 83q0 9 -21 37.5t-48 63t-48 62t-21 35.5q0 3 13 31.5t30.5 65.5t31.5 67.5t17 37.5h26q26 -31 68.5 -68t106.5 -37h51q35 0 51 -21.5t20.5 -50t4.5 -50.5zM776 -735q0 -3 -1 -27t-1 -39q0 -33 -3.5 -44.5t-9.5 -15.5q-21 -14 -58.5 -50t-71.5 -90.5
t-43 -125.5q-1 -6 -10 -6q-11 0 -13 6q-38 115 -85 172t-82 75.5t-37 18.5q-3 4 -2.5 35.5t3 61.5t4.5 30q29 -1 72 -32t82.5 -86.5t56.5 -129.5q15 73 54 130.5t79.5 90t60.5 32.5q5 0 5 -6z" />
    <glyph glyph-name="uni0696.fina" unicode="&#x696;" horiz-adv-x="815" 
d="M909 122q0 -21 -4.5 -49.5t-20.5 -50.5t-51 -22h-51q-10 0 -28 2.5t-33 8.5q-12 -116 -47 -251t-129 -249q-52 -64 -142.5 -113t-195.5 -49q-39 0 -97 14.5t-115 34.5t-95 38t-38 24q0 8 6 25t13 17q4 0 30.5 -4.5t69.5 -4.5q68 0 152.5 23.5t171.5 71.5t162 121
q89 91 124.5 157t35.5 83q0 9 -21 37.5t-48 63t-48 62t-21 35.5q0 3 13 31.5t30.5 65.5t31.5 67.5t17 37.5h26q26 -31 68.5 -68t106.5 -37h51q35 0 51 -21.5t20.5 -50t4.5 -50.5zM726 -822q0 -7 -16.5 -36t-39 -63.5t-43 -60.5t-28.5 -26q-5 0 -31 17t-58.5 40.5t-56.5 44
t-24 26.5q0 8 17 37t40 64t43 60.5t26 25.5q8 0 34.5 -17.5t58.5 -41.5t55 -44t23 -26zM373 20q0 -7 -16.5 -36.5t-39 -64t-43 -60t-28.5 -25.5q-5 0 -31 17t-58.5 40.5t-56.5 43.5t-24 26q0 8 17 37.5t40 64t43 60.5t26 26q8 0 34.5 -17.5t58.5 -41.5t55 -44.5t23 -25.5z
" />
    <glyph glyph-name="uni0697.fina" unicode="&#x697;" horiz-adv-x="815" 
d="M909 122q0 -21 -4.5 -49.5t-20.5 -50.5t-51 -22h-51q-10 0 -28 2.5t-33 8.5q-12 -116 -47 -251t-129 -249q-52 -64 -142.5 -113t-195.5 -49q-39 0 -97 14.5t-115 34.5t-95 38t-38 24q0 8 6 25t13 17q4 0 30.5 -4.5t69.5 -4.5q68 0 152.5 23.5t171.5 71.5t162 121
q89 91 124.5 157t35.5 83q0 9 -21 37.5t-48 63t-48 62t-21 35.5q0 3 13 31.5t30.5 65.5t31.5 67.5t17 37.5h26q26 -31 68.5 -68t106.5 -37h51q35 0 51 -21.5t20.5 -50t4.5 -50.5zM863 667q0 -7 -15.5 -35t-37 -61t-40 -57t-25.5 -24q-4 0 -27.5 16.5t-52.5 38t-51.5 39
t-23.5 18.5q-9 7 -15 7q-5 0 -11 -10q-1 -1 -16 -23t-35 -49.5t-37.5 -48t-23.5 -20.5q-5 0 -30 16.5t-55.5 39.5t-53.5 42t-23 25q0 7 16.5 35t38.5 61.5t40.5 58t23.5 24.5q8 0 31.5 -16t50.5 -38t47 -39t22 -18q10 -10 14 -10q7 0 16 14q2 2 17.5 23t35.5 47.5t37 47
t21 20.5q7 0 32.5 -17t55.5 -40t52 -42.5t22 -24.5z" />
    <glyph glyph-name="uni0698.fina" unicode="&#x698;" horiz-adv-x="815" arabic-form="final" 
d="M909 122q0 -21 -4.5 -49.5t-20.5 -50.5t-51 -22h-51q-10 0 -28 2.5t-33 8.5q-12 -116 -47 -251t-129 -249q-52 -64 -142.5 -113t-195.5 -49q-39 0 -97 14.5t-115 34.5t-95 38t-38 24q0 8 6 25t13 17q4 0 30.5 -4.5t69.5 -4.5q68 0 152.5 23.5t171.5 71.5t162 121
q89 91 124.5 157t35.5 83q0 9 -21 37.5t-48 63t-48 62t-21 35.5q0 3 13 31.5t30.5 65.5t31.5 67.5t17 37.5h26q26 -31 68.5 -68t106.5 -37h51q35 0 51 -21.5t20.5 -50t4.5 -50.5zM678 973q0 -7 -16 -35t-38 -62t-41 -58.5t-25 -24.5q-7 0 -32.5 17t-56 40t-53 42.5
t-22.5 25.5q0 7 16 35t38 61.5t41.5 58t26.5 24.5q5 0 30 -17t56 -40t53.5 -42.5t22.5 -24.5zM859 671q0 -7 -15.5 -34.5t-37 -61t-40.5 -57.5t-25 -24q-4 0 -27.5 16.5t-53 38t-51.5 39t-24 18.5q-9 7 -15 7q-4 0 -10 -9q-2 -2 -16.5 -23.5t-35 -49.5t-38 -48.5
t-23.5 -20.5q-4 0 -29.5 16.5t-56 39.5t-53.5 42t-23 25q0 7 16.5 35t39 61.5t41 58t22.5 24.5q9 0 32.5 -16t50.5 -38t47 -39t21 -18q11 -10 15 -10q7 0 16 14q1 2 16.5 23t36 48t37.5 47t21 20q7 0 32.5 -17t55.5 -40t52 -42.5t22 -24.5z" />
    <glyph glyph-name="uni0699.fina" unicode="&#x699;" horiz-adv-x="815" 
d="M909 122q0 -21 -4.5 -49.5t-20.5 -50.5t-51 -22h-51q-10 0 -28 2.5t-33 8.5q-12 -116 -47 -251t-129 -249q-52 -64 -142.5 -113t-195.5 -49q-39 0 -97 14.5t-115 34.5t-95 38t-38 24q0 8 6 25t13 17q4 0 30.5 -4.5t69.5 -4.5q68 0 152.5 23.5t171.5 71.5t162 121
q89 91 124.5 157t35.5 83q0 9 -21 37.5t-48 63t-48 62t-21 35.5q0 3 13 31.5t30.5 65.5t31.5 67.5t17 37.5h26q26 -31 68.5 -68t106.5 -37h51q35 0 51 -21.5t20.5 -50t4.5 -50.5zM841 979q0 -7 -15.5 -34.5t-37 -61t-40.5 -57.5t-25 -24q-4 0 -27.5 16.5t-53 38t-51.5 39
t-24 18.5q-9 7 -15 7q-4 0 -10 -9q-2 -2 -16.5 -23.5t-34.5 -49.5t-37.5 -48.5t-24.5 -20.5q-4 0 -29 16.5t-56 39.5t-54 42t-23 25q0 7 16.5 35t39 61.5t41 58t22.5 24.5q9 0 32.5 -16t50.5 -38t47 -39t22 -18q10 -10 14 -10q7 0 16 14q1 2 16.5 23t36 48t37.5 47t21 20
q7 0 32.5 -17t55.5 -40t52 -42.5t22 -24.5zM872 667q0 -7 -15.5 -34.5t-37 -61t-40.5 -57.5t-25 -24q-4 0 -27.5 16.5t-53 38t-51.5 39t-24 18.5q-8 7 -14 7q-5 0 -11 -10q-1 -1 -16 -23t-35 -49.5t-37.5 -48t-24.5 -20.5q-4 0 -29 16.5t-56 39.5t-54 42t-23 25q0 7 16.5 35
t39 61.5t41 58t22.5 24.5q9 0 32.5 -16t50.5 -38t47 -39t22 -18q10 -10 14 -10q7 0 16 14q1 2 16.5 23t36 48t37.5 47t21 20q7 0 32.5 -17t55.5 -40t52 -42.5t22 -24.5z" />
    <glyph glyph-name="uni069A.init" unicode="&#x69a;" horiz-adv-x="1406" 
d="M1264 502q0 -41 -11.5 -108t-37 -134.5t-68 -113.5t-104.5 -46q-76 0 -131 50.5t-84 101.5q-30 -53 -71.5 -110.5t-95.5 -98t-122 -40.5q-78 0 -138.5 47.5t-85.5 111.5q-52 -78 -124 -120t-157 -42h-50q-34 0 -50.5 22t-21 50.5t-4.5 49.5q0 22 4.5 50.5t21 50
t50.5 21.5h50q105 0 168.5 27.5t98.5 64t52.5 64t30.5 27.5q20 0 27 -27t17.5 -63t39 -63t92.5 -27q83 0 147 41.5t102.5 106.5t44.5 136q2 11 8.5 19.5t18.5 8.5q17 0 25 -34q25 -96 90.5 -139t121.5 -43q23 0 41.5 13.5t18.5 29.5q0 22 -22.5 38t-45.5 26t-23 13q0 5 8 44
t20.5 88t26.5 85.5t25 36.5q15 0 38 -35t41 -85t18 -95zM896 966q0 -7 -16 -36t-39 -63.5t-43.5 -60.5t-28.5 -26q-4 0 -30.5 17t-58.5 40.5t-56.5 44t-24.5 26.5q0 8 17 37t40.5 64t43.5 60.5t26 25.5q7 0 34 -17.5t58.5 -41.5t54.5 -44t23 -26zM902 -271q0 -7 -16 -36.5
t-39 -64t-43.5 -60t-28.5 -25.5q-4 0 -30.5 17t-58.5 40.5t-56.5 43.5t-24.5 26q0 8 17 37.5t40.5 64t43.5 60.5t26 26q7 0 34 -17.5t58.5 -41.5t54.5 -44.5t23 -25.5z" />
    <glyph glyph-name="uni069A.medi" unicode="&#x69a;" horiz-adv-x="1477" 
d="M1568 114q0 -21 -2 -48t-16 -46.5t-48 -19.5h-52q-94 0 -157.5 63.5t-103.5 172.5q-38 -92 -85.5 -147t-126.5 -55q-73 0 -110.5 38.5t-53.5 101.5q-53 -86 -117 -128.5t-166 -42.5q-66 0 -122.5 35t-92.5 124q-52 -92 -130.5 -127t-150.5 -35h-50q-34 0 -50.5 19.5
t-21 46.5t-4.5 48t4.5 52t21 54.5t50.5 23.5h50q103 0 164.5 31.5t94.5 73.5t49.5 74t29.5 32q17 0 23.5 -21t12 -51.5t19.5 -61t46.5 -51t92.5 -20.5q88 0 145 35t91.5 81.5t53 82t27.5 35.5q32 0 33 -38q1 -18 7.5 -52t28.5 -62t70 -28q50 0 82.5 28t52 64.5t31 64.5
t19.5 28q29 0 33 -32q3 -31 27 -81.5t69.5 -91t113.5 -40.5h52q34 0 48 -23.5t16 -54.5t2 -52zM884 809q0 -7 -16.5 -36t-39 -63.5t-43 -60.5t-28.5 -26q-5 0 -31 17t-58.5 40.5t-56.5 44t-24 26.5q0 8 17 37t40 64t43 60.5t26 25.5q8 0 34.5 -17.5t58.5 -41.5t55 -44
t23 -26zM879 -272q0 -7 -16.5 -36t-39.5 -63.5t-43.5 -60.5t-28.5 -26q-4 0 -30 17t-58.5 40.5t-56.5 44t-24 26.5q0 8 16.5 37t40 64t43.5 60.5t26 25.5q7 0 34 -17.5t58.5 -41.5t55 -44t23.5 -26z" />
    <glyph glyph-name="uni069A.fina" unicode="&#x69a;" horiz-adv-x="2069" 
d="M2162 122q0 -53 -12.5 -87.5t-63.5 -34.5h-51q-93 0 -155.5 62t-105.5 175q-38 -92 -84.5 -147t-125.5 -55q-80 0 -115.5 42.5t-50.5 97.5q-53 -86 -108 -126t-155 -41q-2 -63 -8 -114.5t-19 -109.5q-30 -136 -102 -227.5t-170 -145t-208 -76.5t-216 -23
q-138 0 -219.5 53.5t-117 137t-35.5 173.5q0 76 24.5 153t57 141.5t59.5 103.5t31 39q8 0 23.5 -10t15.5 -16q0 -11 -26.5 -53t-52.5 -105t-26 -138q0 -100 87.5 -166t228.5 -66q162 0 293.5 25.5t199.5 83.5q48 37 68.5 87.5t20.5 119.5q0 87 -21 146.5t-42.5 95
t-21.5 49.5q0 8 15.5 44t37 80t39.5 76t24 32q23 -20 42 -71t27 -81q90 0 148.5 36t93.5 83t53.5 83t28.5 36q32 0 33 -37q0 -18 6.5 -52t29 -62t70.5 -28q50 0 82.5 28t52 64.5t31 64.5t19.5 28q29 0 33 -32q4 -29 27.5 -80t69 -92.5t113.5 -41.5h51q51 0 63.5 -28
t12.5 -94zM1558 805q0 -7 -16.5 -36t-39.5 -63.5t-43.5 -60.5t-28.5 -26q-4 0 -30 17t-58.5 40.5t-56.5 44t-24 26.5q0 8 16.5 37t40 64t43.5 60.5t26 25.5q7 0 34 -17.5t58.5 -41.5t55 -44t23.5 -26zM1661 -274q0 -7 -16.5 -36t-39.5 -63.5t-43.5 -60.5t-28.5 -26
q-4 0 -30 17t-58.5 40.5t-56.5 44t-24 26.5q0 8 16.5 37t40 64t43.5 60.5t26 25.5q7 0 34 -17.5t58.5 -41.5t55 -44t23.5 -26z" />
    <glyph glyph-name="uni069B.init" unicode="&#x69b;" horiz-adv-x="1406" 
d="M1264 502q0 -41 -11.5 -108t-37 -134.5t-68 -113.5t-104.5 -46q-76 0 -131 50.5t-84 101.5q-30 -53 -71.5 -110.5t-95.5 -98t-122 -40.5q-78 0 -138.5 47.5t-85.5 111.5q-52 -78 -124 -120t-157 -42h-50q-34 0 -50.5 22t-21 50.5t-4.5 49.5q0 22 4.5 50.5t21 50
t50.5 21.5h50q105 0 168.5 27.5t98.5 64t52.5 64t30.5 27.5q20 0 27 -27t17.5 -63t39 -63t92.5 -27q83 0 147 41.5t102.5 106.5t44.5 136q2 11 8.5 19.5t18.5 8.5q17 0 25 -34q25 -96 90.5 -139t121.5 -43q23 0 41.5 13.5t18.5 29.5q0 22 -22.5 38t-45.5 26t-23 13q0 5 8 44
t20.5 88t26.5 85.5t25 36.5q15 0 38 -35t41 -85t18 -95zM933 -580q0 -7 -15.5 -35t-37 -61t-41 -58t-28.5 -25q-4 0 -29 16.5t-56.5 39.5t-54.5 42.5t-23 25.5q0 7 16.5 35t38.5 61.5t41.5 58t25.5 24.5q7 0 33 -17t56 -40t52 -42.5t22 -24.5zM1046 -241q0 -7 -15.5 -35
t-37 -61t-40.5 -57.5t-25 -24.5q-4 0 -27.5 16.5t-53 38.5t-51.5 39t-24 19q-8 7 -14 7q-5 0 -11 -10q-1 -2 -16 -23.5t-35 -49t-37.5 -48.5t-24.5 -21q-4 0 -29 17t-56 39.5t-54 42t-23 24.5q0 7 16.5 35.5t39 62t41 58t22.5 24.5q9 0 32.5 -16.5t50.5 -38t47 -38.5t22 -19
q10 -9 14 -9q7 0 16 14q1 2 16.5 23t36 47.5t37.5 46.5t21 20q7 0 32.5 -16.5t55.5 -39.5t52 -42.5t22 -24.5z" />
    <glyph glyph-name="uni069B.medi" unicode="&#x69b;" horiz-adv-x="1477" 
d="M1568 114q0 -21 -2 -48t-16 -46.5t-48 -19.5h-52q-94 0 -157.5 63.5t-103.5 172.5q-38 -92 -85.5 -147t-126.5 -55q-73 0 -110.5 38.5t-53.5 101.5q-53 -86 -117 -128.5t-166 -42.5q-66 0 -122.5 35t-92.5 124q-52 -92 -130.5 -127t-150.5 -35h-50q-34 0 -50.5 19.5
t-21 46.5t-4.5 48t4.5 52t21 54.5t50.5 23.5h50q103 0 164.5 31.5t94.5 73.5t49.5 74t29.5 32q17 0 23.5 -21t12 -51.5t19.5 -61t46.5 -51t92.5 -20.5q88 0 145 35t91.5 81.5t53 82t27.5 35.5q32 0 33 -38q1 -18 7.5 -52t28.5 -62t70 -28q50 0 82.5 28t52 64.5t31 64.5
t19.5 28q29 0 33 -32q3 -31 27 -81.5t69.5 -91t113.5 -40.5h52q34 0 48 -23.5t16 -54.5t2 -52zM919 -568q0 -7 -15.5 -35t-37 -61t-41 -58t-28.5 -25q-4 0 -29 16.5t-56.5 39.5t-54.5 42.5t-23 25.5q0 7 16.5 35t38.5 61.5t41.5 58t25.5 24.5q7 0 33 -17t56 -40t52 -42.5
t22 -24.5zM1032 -229q0 -7 -15.5 -35t-37 -61t-40.5 -57.5t-25 -24.5q-4 0 -27.5 16.5t-53 38.5t-51.5 39t-24 19q-8 7 -14 7q-5 0 -11 -10q-1 -2 -16 -23.5t-35 -49t-37.5 -48.5t-24.5 -21q-4 0 -29 17t-56 39.5t-54 42t-23 24.5q0 7 16.5 35.5t39 62t41 58t22.5 24.5
q9 0 32.5 -16.5t50.5 -38t47 -38.5t22 -19q10 -9 14 -9q7 0 16 14q1 2 16.5 23t36 47.5t37.5 46.5t21 20q7 0 32.5 -16.5t55.5 -39.5t52 -42.5t22 -24.5z" />
    <glyph glyph-name="uni069B.fina" unicode="&#x69b;" horiz-adv-x="2069" 
d="M2162 122q0 -53 -12.5 -87.5t-63.5 -34.5h-51q-93 0 -155.5 62t-105.5 175q-38 -92 -84.5 -147t-125.5 -55q-80 0 -115.5 42.5t-50.5 97.5q-53 -86 -108 -126t-155 -41q-2 -63 -8 -114.5t-19 -109.5q-30 -136 -102 -227.5t-170 -145t-208 -76.5t-216 -23
q-138 0 -219.5 53.5t-117 137t-35.5 173.5q0 76 24.5 153t57 141.5t59.5 103.5t31 39q8 0 23.5 -10t15.5 -16q0 -11 -26.5 -53t-52.5 -105t-26 -138q0 -100 87.5 -166t228.5 -66q162 0 293.5 25.5t199.5 83.5q48 37 68.5 87.5t20.5 119.5q0 87 -21 146.5t-42.5 95
t-21.5 49.5q0 8 15.5 44t37 80t39.5 76t24 32q23 -20 42 -71t27 -81q90 0 148.5 36t93.5 83t53.5 83t28.5 36q32 0 33 -37q0 -18 6.5 -52t29 -62t70.5 -28q50 0 82.5 28t52 64.5t31 64.5t19.5 28q29 0 33 -32q4 -29 27.5 -80t69 -92.5t113.5 -41.5h51q51 0 63.5 -28
t12.5 -94zM1695 -596q0 -6 -15.5 -34t-37.5 -61.5t-41.5 -58t-27.5 -24.5q-4 0 -29.5 16.5t-56.5 39t-54.5 42t-23.5 25.5q0 7 16.5 35t39 61.5t41.5 58.5t25 25q8 0 33.5 -17t55.5 -40t52.5 -42.5t22.5 -25.5zM1807 -257q0 -7 -15.5 -35t-37 -61t-40 -57t-25.5 -24
q-4 0 -27.5 16.5t-52.5 38t-51.5 39t-23.5 18.5q-9 7 -15 7q-5 0 -11 -10q-1 -1 -16 -23t-35 -49.5t-37.5 -48t-23.5 -20.5q-5 0 -30 16.5t-55.5 39.5t-53.5 42t-23 25q0 7 16.5 35t38.5 61.5t40.5 58t23.5 24.5q8 0 31.5 -16t50.5 -38t47 -39t22 -18q10 -10 14 -10
q7 0 16 14q2 2 17.5 23t35.5 47.5t37 47t21 20.5q7 0 32.5 -17t55.5 -40t52 -42.5t22 -24.5z" />
    <glyph glyph-name="uni069C.init" unicode="&#x69c;" horiz-adv-x="1406" 
d="M1264 502q0 -41 -11.5 -108t-37 -134.5t-68 -113.5t-104.5 -46q-76 0 -131 50.5t-84 101.5q-30 -53 -71.5 -110.5t-95.5 -98t-122 -40.5q-78 0 -138.5 47.5t-85.5 111.5q-52 -78 -124 -120t-157 -42h-50q-34 0 -50.5 22t-21 50.5t-4.5 49.5q0 22 4.5 50.5t21 50
t50.5 21.5h50q105 0 168.5 27.5t98.5 64t52.5 64t30.5 27.5q20 0 27 -27t17.5 -63t39 -63t92.5 -27q83 0 147 41.5t102.5 106.5t44.5 136q2 11 8.5 19.5t18.5 8.5q17 0 25 -34q25 -96 90.5 -139t121.5 -43q23 0 41.5 13.5t18.5 29.5q0 22 -22.5 38t-45.5 26t-23 13q0 5 8 44
t20.5 88t26.5 85.5t25 36.5q15 0 38 -35t41 -85t18 -95zM819 1255q0 -7 -16 -35t-38 -61.5t-41 -58.5t-25 -25q-7 0 -32.5 17t-56 40t-53 42.5t-22.5 25.5q0 7 16 35t38 61.5t41.5 58t26.5 24.5q5 0 30 -17t56 -40t53.5 -42.5t22.5 -24.5zM1000 953q0 -6 -15.5 -34t-37 -61
t-40.5 -57.5t-25 -24.5q-4 0 -27.5 16.5t-53 38.5t-51.5 39t-24 18q-9 8 -15 8q-4 0 -10 -10q-2 -2 -16.5 -23.5t-35 -49t-38 -48.5t-23.5 -21q-4 0 -29.5 16.5t-56 39.5t-53.5 42.5t-23 24.5q0 7 16.5 35t39 61.5t41 58.5t22.5 25q9 0 32.5 -16.5t50.5 -38t47 -38.5t21 -19
q11 -9 15 -9q7 0 16 13q1 2 16.5 23.5t36 48t37.5 46.5t21 20q7 0 32.5 -17t55.5 -40t52 -42t22 -25zM933 -580q0 -7 -15.5 -35t-37 -61t-41 -58t-28.5 -25q-4 0 -29 16.5t-56.5 39.5t-54.5 42.5t-23 25.5q0 7 16.5 35t38.5 61.5t41.5 58t25.5 24.5q7 0 33 -17t56 -40
t52 -42.5t22 -24.5zM1046 -241q0 -7 -15.5 -35t-37 -61t-40.5 -57.5t-25 -24.5q-4 0 -27.5 16.5t-53 38.5t-51.5 39t-24 19q-8 7 -14 7q-5 0 -11 -10q-1 -2 -16 -23.5t-35 -49t-37.5 -48.5t-24.5 -21q-4 0 -29 17t-56 39.5t-54 42t-23 24.5q0 7 16.5 35.5t39 62t41 58
t22.5 24.5q9 0 32.5 -16.5t50.5 -38t47 -38.5t22 -19q10 -9 14 -9q7 0 16 14q1 2 16.5 23t36 47.5t37.5 46.5t21 20q7 0 32.5 -16.5t55.5 -39.5t52 -42.5t22 -24.5z" />
    <glyph glyph-name="uni069C.medi" unicode="&#x69c;" horiz-adv-x="1477" 
d="M1568 114q0 -21 -2 -48t-16 -46.5t-48 -19.5h-52q-94 0 -157.5 63.5t-103.5 172.5q-38 -92 -85.5 -147t-126.5 -55q-73 0 -110.5 38.5t-53.5 101.5q-53 -86 -117 -128.5t-166 -42.5q-66 0 -122.5 35t-92.5 124q-52 -92 -130.5 -127t-150.5 -35h-50q-34 0 -50.5 19.5
t-21 46.5t-4.5 48t4.5 52t21 54.5t50.5 23.5h50q103 0 164.5 31.5t94.5 73.5t49.5 74t29.5 32q17 0 23.5 -21t12 -51.5t19.5 -61t46.5 -51t92.5 -20.5q88 0 145 35t91.5 81.5t53 82t27.5 35.5q32 0 33 -38q1 -18 7.5 -52t28.5 -62t70 -28q50 0 82.5 28t52 64.5t31 64.5
t19.5 28q29 0 33 -32q3 -31 27 -81.5t69.5 -91t113.5 -40.5h52q34 0 48 -23.5t16 -54.5t2 -52zM864 1130q0 -7 -16 -35t-38 -61.5t-41.5 -58.5t-25.5 -25t-32 17t-56.5 40t-53 42.5t-22.5 25.5q0 7 16 35t38 61.5t41.5 58t26.5 24.5q5 0 30.5 -17t56 -40t53.5 -42.5
t23 -24.5zM1044 828q0 -6 -15.5 -34t-37 -61t-40 -57.5t-25.5 -24.5q-4 0 -27.5 16.5t-52.5 38.5t-51.5 39t-23.5 18q-9 8 -15 8q-5 0 -11 -10q-1 -2 -16 -23.5t-35 -49t-37.5 -48.5t-24.5 -21q-4 0 -29 16.5t-56 39.5t-53.5 42.5t-22.5 24.5q0 7 16.5 35t38.5 61.5
t40.5 58.5t23.5 25q8 0 31.5 -16.5t50.5 -38t47 -38.5t22 -19q10 -9 14 -9q7 0 16 13q2 2 17 23.5t35.5 48t37.5 46.5t21 20q7 0 32.5 -17t55.5 -40t52 -42t22 -25zM919 -568q0 -7 -15.5 -35t-37 -61t-41 -58t-28.5 -25q-4 0 -29 16.5t-56.5 39.5t-54.5 42.5t-23 25.5
q0 7 16.5 35t38.5 61.5t41.5 58t25.5 24.5q7 0 33 -17t56 -40t52 -42.5t22 -24.5zM1032 -229q0 -7 -15.5 -35t-37 -61t-40.5 -57.5t-25 -24.5q-4 0 -27.5 16.5t-53 38.5t-51.5 39t-24 19q-8 7 -14 7q-5 0 -11 -10q-1 -2 -16 -23.5t-35 -49t-37.5 -48.5t-24.5 -21
q-4 0 -29 17t-56 39.5t-54 42t-23 24.5q0 7 16.5 35.5t39 62t41 58t22.5 24.5q9 0 32.5 -16.5t50.5 -38t47 -38.5t22 -19q10 -9 14 -9q7 0 16 14q1 2 16.5 23t36 47.5t37.5 46.5t21 20q7 0 32.5 -16.5t55.5 -39.5t52 -42.5t22 -24.5z" />
    <glyph glyph-name="uni069C.fina" unicode="&#x69c;" horiz-adv-x="2069" 
d="M2162 122q0 -53 -12.5 -87.5t-63.5 -34.5h-51q-93 0 -155.5 62t-105.5 175q-38 -92 -84.5 -147t-125.5 -55q-80 0 -115.5 42.5t-50.5 97.5q-53 -86 -108 -126t-155 -41q-2 -63 -8 -114.5t-19 -109.5q-30 -136 -102 -227.5t-170 -145t-208 -76.5t-216 -23
q-138 0 -219.5 53.5t-117 137t-35.5 173.5q0 76 24.5 153t57 141.5t59.5 103.5t31 39q8 0 23.5 -10t15.5 -16q0 -11 -26.5 -53t-52.5 -105t-26 -138q0 -100 87.5 -166t228.5 -66q162 0 293.5 25.5t199.5 83.5q48 37 68.5 87.5t20.5 119.5q0 87 -21 146.5t-42.5 95
t-21.5 49.5q0 8 15.5 44t37 80t39.5 76t24 32q23 -20 42 -71t27 -81q90 0 148.5 36t93.5 83t53.5 83t28.5 36q32 0 33 -37q0 -18 6.5 -52t29 -62t70.5 -28q50 0 82.5 28t52 64.5t31 64.5t19.5 28q29 0 33 -32q4 -29 27.5 -80t69 -92.5t113.5 -41.5h51q51 0 63.5 -28
t12.5 -94zM1537 1162q0 -7 -16 -35t-38 -61.5t-41 -58.5t-25 -25q-7 0 -32.5 17t-56 40t-53 42.5t-22.5 25.5q0 7 16 35t38 61.5t41.5 58t26.5 24.5q5 0 30 -17t56 -40t53.5 -42.5t22.5 -24.5zM1718 860q0 -6 -15.5 -34t-37 -61t-40.5 -57.5t-25 -24.5q-4 0 -27.5 16.5
t-53 38.5t-51.5 39t-24 18q-9 8 -15 8q-4 0 -10 -10q-2 -2 -16.5 -23.5t-35 -49t-38 -48.5t-23.5 -21q-4 0 -29.5 16.5t-56 39.5t-53.5 42.5t-23 24.5q0 7 16.5 35t39 61.5t41 58.5t22.5 25q9 0 32.5 -16.5t50.5 -38t47 -38.5t21 -19q11 -9 15 -9q7 0 16 13q1 2 16.5 23.5
t36 48t37.5 46.5t21 20q7 0 32.5 -17t55.5 -40t52 -42t22 -25zM1695 -596q0 -6 -15.5 -34t-37.5 -61.5t-41.5 -58t-27.5 -24.5q-4 0 -29.5 16.5t-56.5 39t-54.5 42t-23.5 25.5q0 7 16.5 35t39 61.5t41.5 58.5t25 25q8 0 33.5 -17t55.5 -40t52.5 -42.5t22.5 -25.5zM1807 -257
q0 -7 -15.5 -35t-37 -61t-40 -57t-25.5 -24q-4 0 -27.5 16.5t-52.5 38t-51.5 39t-23.5 18.5q-9 7 -15 7q-5 0 -11 -10q-1 -1 -16 -23t-35 -49.5t-37.5 -48t-23.5 -20.5q-5 0 -30 16.5t-55.5 39.5t-53.5 42t-23 25q0 7 16.5 35t38.5 61.5t40.5 58t23.5 24.5q8 0 31.5 -16
t50.5 -38t47 -39t22 -18q10 -10 14 -10q7 0 16 14q2 2 17.5 23t35.5 47.5t37 47t21 20.5q7 0 32.5 -17t55.5 -40t52 -42.5t22 -24.5z" />
    <glyph glyph-name="uni069D.init" unicode="&#x69d;" horiz-adv-x="1738" 
d="M1597 568q0 -113 -49 -198.5t-130.5 -147.5t-181 -104t-202.5 -66.5t-194 -36t-154 -12.5q-8 -17 -22.5 -58t-27 -84.5t-14.5 -67.5q-6 0 -20.5 17.5t-28 38t-13.5 30.5q0 13 11.5 52.5t22.5 71.5q-106 0 -187 29t-129 119q-39 -60 -94.5 -105.5t-149.5 -45.5h-50
q-52 0 -64 35.5t-12 86.5q0 59 12 90.5t64 31.5h50q88 0 145.5 28t91 65t50.5 65t25 28q18 0 22.5 -30.5t9.5 -58.5q9 -46 53.5 -66.5t100 -26t100.5 -5.5h56q50 85 126 182t169.5 182t197.5 139t212 54q75 0 119.5 -40t64.5 -94.5t20 -97.5zM1468 455q0 22 -52 54t-138 32
q-80 0 -174 -37t-176.5 -103.5t-130.5 -154.5q113 1 230.5 25.5t217.5 59t161.5 69t61.5 55.5zM1311 -235q0 -7 -15.5 -35t-37 -61t-40 -57.5t-25.5 -24.5q-4 0 -27.5 16.5t-52.5 38.5t-51.5 39t-23.5 19q-9 7 -15 7q-5 0 -11 -10q-1 -2 -16 -23.5t-35 -49t-37.5 -48.5
t-23.5 -21q-5 0 -30 17t-55.5 39.5t-53.5 42t-23 24.5q0 7 16.5 35.5t38.5 62t40.5 58t23.5 24.5q8 0 31.5 -16.5t50.5 -38t47 -38.5t22 -19q10 -9 14 -9q7 0 16 14q2 2 17.5 23t35.5 47.5t37 46.5t21 20q7 0 32.5 -16.5t55.5 -39.5t52 -42.5t22 -24.5z" />
    <glyph glyph-name="uni069D.medi" unicode="&#x69d;" horiz-adv-x="1708" 
d="M1801 122q0 -21 -4.5 -49.5t-20.5 -50.5t-51 -22h-51q-160 0 -326 0.5t-331 0.5h-165t-163 -1q-19 -36 -33 -86t-23 -87.5t-12 -37.5q-19 0 -40 31t-21 56q0 12 8.5 50.5t21.5 74.5q-106 0 -185.5 29.5t-127.5 120.5q-38 -60 -94 -105.5t-149 -45.5h-51q-34 0 -50.5 22
t-21 50.5t-4.5 49.5q0 22 4.5 50.5t21 50t50.5 21.5h51q88 0 145 28t90.5 65t50.5 65t24 28q19 0 23.5 -32t9.5 -57q10 -46 54 -66.5t100 -26t101 -5.5h54q49 84 126.5 181.5t174 184.5t204 142t216.5 55q66 0 108.5 -41.5t62.5 -97.5t20 -98q0 -102 -50 -190.5t-159 -150.5
q76 7 122.5 10t82.5 4.5t80 1.5h51q35 0 51 -21.5t20.5 -50t4.5 -50.5zM1467 453q0 22 -25.5 37t-60.5 25t-65.5 15t-40.5 5q-134 0 -261 -68.5t-215 -222.5q111 2 228 26t217 58.5t161.5 68.5t61.5 56zM1326 -294q0 -7 -15.5 -35t-37 -61t-40.5 -57t-25 -24
q-4 0 -27.5 16.5t-53 38t-51.5 39t-24 18.5q-8 7 -14 7q-5 0 -11 -10q-1 -1 -16 -23t-35 -49.5t-37.5 -48t-24.5 -20.5q-4 0 -29 16.5t-56 39.5t-54 42t-23 25q0 7 16.5 35t39 61.5t41 58t22.5 24.5q9 0 32.5 -16t50.5 -38t47 -39t22 -18q10 -10 14 -10q7 0 16 14
q1 2 16.5 23t36 47.5t37.5 47t21 20.5q7 0 32.5 -17t55.5 -40t52 -42.5t22 -24.5z" />
    <glyph glyph-name="uni069D.fina" unicode="&#x69d;" horiz-adv-x="2374" 
d="M2468 122q0 -21 -4.5 -49.5t-20.5 -50.5t-51 -22h-51q-107 0 -226.5 2t-235 7t-211.5 14q-74 -2 -152.5 -6.5t-158.5 -6.5q-17 -41 -32 -93t-24.5 -90t-12.5 -38q-19 0 -40 31t-21 56q0 12 11.5 55t26.5 79q-19 0 -49.5 4.5t-43.5 10.5q-1 -55 -2.5 -88.5t-6.5 -65.5
t-15 -81q-38 -183 -139.5 -290.5t-242 -154.5t-295.5 -47q-142 0 -238 53t-144.5 138t-48.5 181q0 89 27.5 173t64.5 150t67 105t35 39q9 0 20.5 -11.5t11.5 -20.5q0 -10 -29.5 -52t-58.5 -110t-29 -156q0 -98 60.5 -153t150.5 -77.5t179 -22.5q81 0 167.5 13.5t159.5 38.5
t111 59q94 79 94 259q0 84 -26 139t-51.5 85.5t-25.5 38.5t14.5 42t33.5 74.5t36 70t22 29.5q16 -24 34 -62t26 -68q26 -4 88.5 -7t131.5 -3q49 84 125.5 180t171 181.5t200.5 139.5t214 54q67 0 112 -40t67 -93.5t22 -95.5q0 -102 -50.5 -190.5t-159.5 -150.5
q76 7 122.5 10t82.5 4.5t80 1.5h51q35 0 51 -21.5t20.5 -50t4.5 -50.5zM2135 453q0 21 -35.5 40t-80.5 30.5t-76 11.5q-78 0 -168 -33.5t-172 -98.5t-136 -157q110 1 227 24.5t217 58t162 68.5t62 56zM1979 -280q0 -7 -15.5 -35t-36.5 -61t-40 -57t-25 -24q-5 0 -28.5 16.5
t-52.5 38t-51 39t-24 18.5q-9 7 -15 7q-4 0 -11 -10q-1 -1 -16 -23t-35 -49.5t-37.5 -48t-23.5 -20.5q-5 0 -30 16.5t-55.5 39.5t-53.5 42t-23 25q0 7 16.5 35t39 61.5t41 58t22.5 24.5q9 0 32.5 -16t50 -38t47 -39t21.5 -18q11 -10 15 -10q7 0 16 14q1 2 16.5 23t35.5 47.5
t37 47t22 20.5q7 0 32.5 -17t55.5 -40t51.5 -42.5t21.5 -24.5z" />
    <glyph glyph-name="uni069E.init" unicode="&#x69e;" horiz-adv-x="1738" 
d="M1597 568q0 -113 -49 -198.5t-130.5 -147.5t-181 -104t-202.5 -66.5t-194 -36t-154 -12.5q-8 -17 -22.5 -58t-27 -84.5t-14.5 -67.5q-6 0 -20.5 17.5t-28 38t-13.5 30.5q0 13 11.5 52.5t22.5 71.5q-106 0 -187 29t-129 119q-39 -60 -94.5 -105.5t-149.5 -45.5h-50
q-52 0 -64 35.5t-12 86.5q0 59 12 90.5t64 31.5h50q88 0 145.5 28t91 65t50.5 65t25 28q18 0 22.5 -30.5t9.5 -58.5q9 -46 53.5 -66.5t100 -26t100.5 -5.5h56q50 85 126 182t169.5 182t197.5 139t212 54q75 0 119.5 -40t64.5 -94.5t20 -97.5zM1468 455q0 22 -52 54t-138 32
q-80 0 -174 -37t-176.5 -103.5t-130.5 -154.5q113 1 230.5 25.5t217.5 59t161.5 69t61.5 55.5zM967 1338q0 -7 -16 -35t-38 -61.5t-41 -58t-26 -24.5q-6 0 -31.5 16.5t-56 39.5t-53 43t-22.5 25q0 7 16 35.5t38 61.5t41 57.5t27 24.5q5 0 30 -16.5t55.5 -39.5t53.5 -42.5
t23 -25.5zM1147 1037q0 -7 -15.5 -35t-37 -61t-40 -57.5t-25.5 -24.5q-4 0 -27.5 16.5t-52.5 38.5t-51.5 39t-23.5 19q-9 7 -15 7q-4 0 -11 -10q-1 -1 -16 -23t-35 -49.5t-37.5 -48.5t-23.5 -21q-5 0 -30 17t-55.5 39.5t-53.5 42t-23 24.5q0 7 16.5 35.5t38.5 62t41 58
t23 24.5q8 0 31.5 -16.5t50.5 -38t47 -38.5t22 -19q10 -9 14 -9q7 0 17 14q1 2 16.5 23t35.5 47.5t37 46.5t22 20q7 0 32 -16.5t55 -39.5t52 -42.5t22 -24.5z" />
    <glyph glyph-name="uni069E.medi" unicode="&#x69e;" horiz-adv-x="1708" 
d="M1801 122q0 -21 -4.5 -49.5t-20.5 -50.5t-51 -22h-51q-160 0 -326 0.5t-331 0.5h-165t-163 -1q-19 -36 -33 -86t-23 -87.5t-12 -37.5q-19 0 -40 31t-21 56q0 12 8.5 50.5t21.5 74.5q-106 0 -185.5 29.5t-127.5 120.5q-38 -60 -94 -105.5t-149 -45.5h-51q-34 0 -50.5 22
t-21 50.5t-4.5 49.5q0 22 4.5 50.5t21 50t50.5 21.5h51q88 0 145 28t90.5 65t50.5 65t24 28q19 0 23.5 -32t9.5 -57q10 -46 54 -66.5t100 -26t101 -5.5h54q49 84 126.5 181.5t174 184.5t204 142t216.5 55q66 0 108.5 -41.5t62.5 -97.5t20 -98q0 -102 -50 -190.5t-159 -150.5
q76 7 122.5 10t82.5 4.5t80 1.5h51q35 0 51 -21.5t20.5 -50t4.5 -50.5zM1467 453q0 22 -25.5 37t-60.5 25t-65.5 15t-40.5 5q-134 0 -261 -68.5t-215 -222.5q111 2 228 26t217 58.5t161.5 68.5t61.5 56zM968 1366q0 -7 -16 -35t-38 -61.5t-41 -58.5t-26 -25q-6 0 -31.5 17
t-56 40t-53 42.5t-22.5 25.5q0 7 16 35t38 61.5t41 58t27 24.5q5 0 30 -17t55.5 -40t53.5 -42.5t23 -24.5zM1148 1064q0 -6 -15.5 -34t-37 -61t-40 -57.5t-25.5 -24.5q-4 0 -27.5 16.5t-52.5 38.5t-51.5 39t-23.5 18q-9 8 -15 8q-4 0 -11 -10q-1 -2 -16 -23.5t-35 -49
t-37.5 -48.5t-23.5 -21q-5 0 -30 16.5t-55.5 39.5t-53.5 42.5t-23 24.5q0 7 16.5 35t38.5 61.5t41 58.5t23 25q8 0 31.5 -16.5t50.5 -38t47 -38.5t22 -19q10 -9 14 -9q7 0 17 13q1 2 16.5 23.5t35.5 48t37 46.5t22 20q7 0 32 -17t55 -40t52 -42t22 -25z" />
    <glyph glyph-name="uni069E.fina" unicode="&#x69e;" horiz-adv-x="2374" 
d="M2468 122q0 -21 -4.5 -49.5t-20.5 -50.5t-51 -22h-51q-107 0 -226.5 2t-235 7t-211.5 14q-74 -2 -152.5 -6.5t-158.5 -6.5q-17 -41 -32 -93t-24.5 -90t-12.5 -38q-19 0 -40 31t-21 56q0 12 11.5 55t26.5 79q-19 0 -49.5 4.5t-43.5 10.5q-1 -55 -2.5 -88.5t-6.5 -65.5
t-15 -81q-38 -183 -139.5 -290.5t-242 -154.5t-295.5 -47q-142 0 -238 53t-144.5 138t-48.5 181q0 89 27.5 173t64.5 150t67 105t35 39q9 0 20.5 -11.5t11.5 -20.5q0 -10 -29.5 -52t-58.5 -110t-29 -156q0 -98 60.5 -153t150.5 -77.5t179 -22.5q81 0 167.5 13.5t159.5 38.5
t111 59q94 79 94 259q0 84 -26 139t-51.5 85.5t-25.5 38.5t14.5 42t33.5 74.5t36 70t22 29.5q16 -24 34 -62t26 -68q26 -4 88.5 -7t131.5 -3q49 84 125.5 180t171 181.5t200.5 139.5t214 54q67 0 112 -40t67 -93.5t22 -95.5q0 -102 -50.5 -190.5t-159.5 -150.5
q76 7 122.5 10t82.5 4.5t80 1.5h51q35 0 51 -21.5t20.5 -50t4.5 -50.5zM2135 453q0 21 -35.5 40t-80.5 30.5t-76 11.5q-78 0 -168 -33.5t-172 -98.5t-136 -157q110 1 227 24.5t217 58t162 68.5t62 56zM1563 1281q0 -7 -16 -35t-38 -61.5t-41.5 -58.5t-25.5 -25t-32 17
t-56.5 40t-53 42.5t-22.5 25.5q0 7 16 35t38 61.5t41.5 58t26.5 24.5q5 0 30.5 -17t56 -40t53.5 -42.5t23 -24.5zM1743 979q0 -6 -15.5 -34t-37 -61t-40 -57.5t-25.5 -24.5q-4 0 -27.5 16.5t-52.5 38.5t-51.5 39t-23.5 18q-9 8 -15 8q-5 0 -11 -10q-1 -2 -16 -23.5t-35 -49
t-37.5 -48.5t-24.5 -21q-4 0 -29 16.5t-56 39.5t-53.5 42.5t-22.5 24.5q0 7 16.5 35t38.5 61.5t40.5 58.5t23.5 25q8 0 31.5 -16.5t50.5 -38t47 -38.5t22 -19q10 -9 14 -9q7 0 16 13q2 2 17 23.5t35.5 48t37.5 46.5t21 20q7 0 32.5 -17t55.5 -40t52 -42t22 -25z" />
    <glyph glyph-name="uni069F.init" unicode="&#x69f;" horiz-adv-x="1221" 
d="M1126 572q0 -53 -17.5 -122.5t-67 -140t-146.5 -126.5q-126 -72 -272 -112t-297 -55.5t-292 -15.5h-50q-34 0 -50.5 22t-21 50.5t-4.5 49.5q0 22 4.5 50.5t21 50t50.5 21.5h50q33 0 60.5 2.5t52.5 12.5q24 12 47.5 28.5t41.5 38.5q28 94 28 223q0 97 -17 211t-38.5 224.5
t-38.5 198.5t-17 132q0 36 21 84.5t46.5 85t39.5 36.5q4 0 26 -30.5t48 -71t45 -72.5t19 -36q0 -7 -18 -23.5t-36 -47.5t-18 -80q0 -50 12 -135.5t23.5 -183.5t11.5 -183q0 -25 -1 -68.5t-4 -87t-8 -67.5q163 173 302.5 270t263.5 97q71 0 115.5 -37.5t64.5 -91t20 -101.5z
M996 455q0 24 -51.5 54t-140.5 30q-75 0 -161 -31.5t-168.5 -96t-146.5 -164.5q125 3 244.5 28.5t215 60.5t152 68t56.5 51zM850 1418q0 -7 -16 -35t-38 -61.5t-41.5 -58t-25.5 -24.5t-32 16.5t-56.5 39.5t-53 43t-22.5 25q0 7 16 35.5t38 61.5t41.5 57.5t26.5 24.5
q5 0 30.5 -16.5t56 -39.5t53.5 -42.5t23 -25.5zM1030 1117q0 -7 -15.5 -35t-37 -61t-40 -57.5t-25.5 -24.5q-4 0 -27.5 16.5t-52.5 38.5t-51.5 39t-23.5 19q-9 7 -15 7q-5 0 -11 -10q-1 -1 -16 -23t-35 -49.5t-37.5 -48.5t-24.5 -21q-4 0 -29 17t-56 39.5t-53.5 42
t-22.5 24.5q0 7 16.5 35.5t38.5 62t40.5 58t23.5 24.5q8 0 31.5 -16.5t50.5 -38t47 -38.5t22 -19q10 -9 14 -9q7 0 16 14q2 2 17 23t35.5 47.5t37.5 46.5t21 20q7 0 32.5 -16.5t55.5 -39.5t52 -42.5t22 -24.5z" />
    <glyph glyph-name="uni069F.medi" unicode="&#x69f;" horiz-adv-x="1358" 
d="M1451 122q0 -21 -4.5 -49.5t-21 -50.5t-50.5 -22h-1117q-10 -18 -24.5 -59t-27 -84.5t-15.5 -69.5q-14 15 -38 43t-24 50q0 12 11.5 48t22.5 72h-179q-34 0 -50.5 22t-21 50.5t-4.5 49.5q0 22 4.5 50.5t21 50t50.5 21.5h50q163 0 207 20q52 22 64 95q9 56 11.5 96t2.5 99
q0 110 -11.5 207t-31.5 208q-19 103 -42.5 190t-23.5 157q0 34 21 81.5t47 84t39 36.5l137 -206q-23 -19 -48 -58t-25 -96q0 -87 22.5 -205.5t22.5 -295.5q0 -42 -4.5 -110t-11.5 -119q169 179 308 274.5t256 95.5q64 0 110.5 -34.5t72 -87.5t25.5 -109q0 -101 -53 -192.5
t-143 -153.5q72 7 143 15t141 8h105q34 0 50.5 -21.5t21 -50t4.5 -50.5zM1051 453q0 21 -53 52t-141 31q-85 0 -174 -37t-171 -103t-143 -152q124 2 245.5 26t220 58.5t157.5 68.5t59 56zM909 1409q0 -7 -16 -35t-38 -62t-41.5 -58.5t-25.5 -24.5t-32 17t-56.5 40t-53 42.5
t-22.5 25.5q0 7 16 35t38 61.5t41.5 58t26.5 24.5q5 0 30.5 -17t56 -40t53.5 -42.5t23 -24.5zM1089 1107q0 -7 -15.5 -34.5t-37 -61t-40 -57.5t-25.5 -24q-4 0 -27.5 16.5t-52.5 38t-51.5 39t-23.5 18.5q-9 7 -15 7q-5 0 -11 -9q-1 -2 -16 -23.5t-35 -49.5t-37.5 -48.5
t-24.5 -20.5q-4 0 -29 16.5t-56 39.5t-53.5 42t-22.5 25q0 7 16.5 35t38.5 61.5t40.5 58t23.5 24.5q8 0 31.5 -16t50.5 -38t47 -39t22 -18q10 -10 14 -10q7 0 16 14q2 2 17 23t35.5 48t37.5 47t21 20q7 0 32.5 -17t55.5 -40t52 -42.5t22 -24.5z" />
    <glyph glyph-name="uni069F.fina" unicode="&#x69f;" horiz-adv-x="1693" 
d="M1788 122q0 -57 -12 -89.5t-64 -32.5h-54h-130.5h-226h-272h-270h-221.5h-124q-93 0 -136 15q-10 3 -47.5 33t-81.5 70t-76.5 75t-32.5 48q0 7 6 14t17 7q73 0 159 -10t161 -10q93 0 152 15t109 68q12 28 18.5 67.5t9.5 75.5t3 56q0 97 -9 198t-32 217
q-22 119 -45.5 210.5t-23.5 158.5q0 36 21.5 83.5t47 83t37.5 35.5q6 0 27.5 -29t47.5 -68t44.5 -70.5t18.5 -37.5q-22 -18 -48.5 -53.5t-26.5 -101.5q0 -43 12 -118.5t23.5 -165.5t11.5 -176q0 -27 -1.5 -72.5t-4.5 -93.5t-7 -83q177 187 312 274t240 87q66 0 113 -34
t72 -87t25 -109q0 -95 -50.5 -191t-152.5 -163q94 12 175 19t129 7h81q52 0 64 -30t12 -92zM1401 459q0 23 -55.5 52.5t-134.5 29.5q-76 0 -165.5 -31.5t-173 -96t-142.5 -166.5q136 5 257.5 32t214.5 63t146 68t53 49zM1261 1421q0 -7 -16 -35t-38 -61.5t-41.5 -58
t-25.5 -24.5t-32 16.5t-56.5 39.5t-53 43t-22.5 25q0 7 16 35.5t38 61.5t41.5 57.5t26.5 24.5q5 0 30.5 -16.5t56 -39.5t53.5 -42.5t23 -25.5zM1441 1120q0 -7 -15.5 -35t-37 -61t-40 -57.5t-25.5 -24.5q-4 0 -27.5 16.5t-52.5 38.5t-51.5 39t-23.5 19q-9 7 -15 7
q-5 0 -11 -10q-1 -1 -16 -23t-35 -49.5t-37.5 -48.5t-24.5 -21q-4 0 -29 17t-56 39.5t-53.5 42t-22.5 24.5q0 7 16.5 35.5t38.5 62t40.5 58t23.5 24.5q8 0 31.5 -16.5t50.5 -38t47 -38.5t22 -19q10 -9 14 -9q7 0 16 14q2 2 17 23t35.5 47.5t37.5 46.5t21 20q7 0 32.5 -16.5
t55.5 -39.5t52 -42.5t22 -24.5z" />
    <glyph glyph-name="uni06A0.init" unicode="&#x6a0;" horiz-adv-x="1113" 
d="M1026 590q0 -4 -4.5 -35t-12.5 -64q-2 -13 -9.5 -41.5t-18 -53.5t-20.5 -30q-51 -19 -130 -54t-164 -73.5t-152 -69.5q-82 -35 -164.5 -74t-163 -67t-153.5 -28h-50q-34 0 -50.5 22t-21 50.5t-4.5 49.5q0 22 4.5 50.5t21 50t50.5 21.5h50q53 0 102.5 10t104.5 38
q-37 30 -78.5 72.5t-41.5 110.5q0 53 28.5 111.5t74 115.5t97 105t97.5 79q48 33 95 45.5t83 12.5q37 0 83.5 -25.5t89.5 -62t71 -70.5t28 -50q0 -7 -5.5 -15.5t-11.5 -8.5t-35 12.5t-67.5 25t-73.5 12.5q-52 0 -118.5 -16t-125.5 -37q-76 -28 -110.5 -54t-34.5 -47
q0 -24 28 -54.5t71 -59t90 -47.5t85 -19q52 0 123.5 26t142.5 60.5t123.5 61t67.5 26.5q9 0 9 -12zM613 1579q0 -7 -16 -35t-38 -61.5t-41 -58.5t-25 -25q-7 0 -32.5 17t-56 40t-53 42.5t-22.5 25.5q0 7 16 35t38 61.5t41.5 58t26.5 24.5q5 0 30 -17t56 -40t53.5 -42.5
t22.5 -24.5zM794 1277q0 -6 -15.5 -34t-37 -61t-40.5 -57.5t-25 -24.5q-4 0 -27.5 16.5t-53 38.5t-51.5 39t-24 18q-9 8 -15 8q-4 0 -10 -10q-2 -2 -16.5 -23.5t-35 -49t-38 -48.5t-23.5 -21q-4 0 -29.5 16.5t-56 39.5t-53.5 42.5t-23 24.5q0 7 16.5 35t39 61.5t41 58.5
t22.5 25q9 0 32.5 -16.5t50.5 -38t47 -38.5t21 -19q11 -9 15 -9q7 0 16 13q1 2 16.5 23.5t36 48t37.5 46.5t21 20q7 0 32.5 -17t55.5 -40t52 -42t22 -25z" />
    <glyph glyph-name="uni06A0.medi" unicode="&#x6a0;" horiz-adv-x="884" 
d="M976 122q0 -21 -4.5 -49.5t-20.5 -50.5t-51 -22h-51q-71 0 -136.5 36.5t-120 87t-92.5 95.5t-54 62q-30 -36 -73.5 -83.5t-97.5 -93t-115 -75t-126 -29.5h-50q-34 0 -50.5 22t-21 50.5t-4.5 49.5q0 22 4.5 50.5t21 50t50.5 21.5h50q68 0 146 21t150 82
q-93 45 -151.5 72.5t-58.5 37.5q0 18 14.5 58.5t50.5 85.5t100.5 77t165.5 32q86 0 154 -32t107.5 -79t39.5 -92q0 -50 -52.5 -97.5t-123.5 -65.5q48 -44 122 -72t151 -28h51q35 0 51 -21.5t20.5 -50t4.5 -50.5zM549 1417q0 -7 -16 -35t-38 -61.5t-41 -58t-25 -24.5
q-7 0 -32.5 16.5t-56 39.5t-53 43t-22.5 25q0 7 16 35.5t38 61.5t41.5 57.5t26.5 24.5q5 0 30 -16.5t56 -39.5t53.5 -42.5t22.5 -25.5zM730 1116q0 -7 -15.5 -35t-37 -61t-40.5 -57.5t-25 -24.5q-4 0 -27.5 16.5t-53 38.5t-51.5 39t-24 19q-9 7 -15 7q-4 0 -10 -10
q-2 -1 -16.5 -23t-35 -49.5t-38 -48.5t-23.5 -21q-4 0 -29.5 17t-56 39.5t-53.5 42t-23 24.5q0 7 16.5 35.5t39 62t41 58t22.5 24.5q9 0 32.5 -16.5t50.5 -38t47 -38.5t21 -19q11 -9 15 -9q7 0 16 14q1 2 16.5 23t36 47.5t37.5 46.5t21 20q7 0 32.5 -16.5t55.5 -39.5
t52 -42.5t22 -24.5z" />
    <glyph glyph-name="uni06A0.fina" unicode="&#x6a0;" horiz-adv-x="1136" 
d="M1462 -816q0 -7 -48.5 -30.5t-124.5 -54.5t-161.5 -60t-161.5 -48t-121 -19q-143 0 -282 30t-252 100t-181 190.5t-68 300.5q0 148 56.5 284t149 256t199.5 219q-38 28 -86.5 52t-84 40.5t-35.5 24.5q0 26 19.5 67t59 83t99.5 70.5t141 28.5q105 0 172 -39.5t99 -87.5
t32 -73q0 -38 -44.5 -88t-123.5 -75q61 -65 161 -88t225 -23h51q52 0 63.5 -29t11.5 -93q0 -56 -11.5 -89t-63.5 -33h-51q-91 0 -173.5 19t-166.5 75.5t-178 168.5q-102 -58 -196 -140t-154 -189.5t-60 -239.5q0 -258 229.5 -378t652.5 -120q164 0 261.5 13.5t130.5 13.5
q7 0 11 -15.5t4 -23.5zM666 1358q0 -7 -16 -35t-38 -62t-41 -58.5t-25 -24.5q-7 0 -32.5 17t-56 40t-53 42.5t-22.5 25.5q0 7 16 35t38 61.5t41.5 58t26.5 24.5q5 0 30 -17t56 -40t53.5 -42.5t22.5 -24.5zM847 1056q0 -7 -15.5 -34.5t-37 -61t-40.5 -57.5t-25 -24
q-4 0 -27.5 16.5t-53 38t-51.5 39t-24 18.5q-9 7 -15 7q-4 0 -10 -9q-2 -2 -16.5 -23.5t-35 -49.5t-38 -48.5t-23.5 -20.5q-4 0 -29.5 16.5t-56 39.5t-53.5 42t-23 25q0 7 16.5 35t39 61.5t41 58t22.5 24.5q9 0 32.5 -16t50.5 -38t47 -39t21 -18q11 -10 15 -10q7 0 16 14
q1 2 16.5 23t36 48t37.5 47t21 20q7 0 32.5 -17t55.5 -40t52 -42.5t22 -24.5z" />
    <glyph glyph-name="uni06A1.init" unicode="&#x6a1;" horiz-adv-x="665" 
d="M586 468q0 -81 -20 -151.5t-66 -134.5q-23 -32 -84.5 -75t-157.5 -75t-224 -32h-50q-34 0 -50.5 22t-21 50.5t-4.5 49.5q0 22 4.5 50.5t21 50t50.5 21.5h50q150 0 253.5 29t156.5 68t53 68q0 20 -17.5 50t-36.5 50q-12 -34 -38 -71.5t-66 -63.5t-94 -26q-78 0 -124 44
t-46 140q0 28 12.5 79.5t35 111t52.5 113.5t64.5 88t70.5 34q41 0 88.5 -42.5t90.5 -114t70 -158.5t27 -175zM340 638q0 5 -16 19.5t-39 27t-43 12.5q-16 0 -29.5 -16t-13.5 -32t15 -39t44 -23q28 0 55 21t27 30z" />
    <glyph glyph-name="uni06A1.medi" unicode="&#x6a1;" horiz-adv-x="852" 
d="M945 122q0 -21 -4.5 -49.5t-21 -50.5t-50.5 -22h-51q-138 0 -240 37t-175 75q-76 -36 -169.5 -74t-199.5 -38h-50q-34 0 -50.5 22t-21 50.5t-4.5 49.5q0 22 4.5 50.5t21 50t50.5 21.5h50q51 0 107.5 8t95.5 21q-15 33 -15 91q0 65 41 158t102 174q54 72 113.5 118.5
t104.5 46.5q43 0 76 -32t54.5 -79t32.5 -96t11 -83q0 -75 -30 -150t-92 -144q44 -16 89.5 -24.5t93.5 -8.5h51q34 0 50.5 -21.5t21 -50t4.5 -50.5zM652 489q0 22 -17.5 50.5t-49.5 49.5t-76 21q-24 0 -62 -17t-68 -41.5t-30 -46.5q0 -23 21.5 -51.5t52 -55.5t56.5 -46
q69 30 121 65.5t52 71.5z" />
    <glyph glyph-name="uni06A1.fina" unicode="&#x6a1;" horiz-adv-x="2099" 
d="M2192 122q0 -21 -5 -49.5t-21 -50.5t-50 -22h-53q-135 0 -218.5 28.5t-128.5 54.5q-100 -52 -223 -101.5t-257 -89.5t-268.5 -63.5t-257.5 -23.5q-107 0 -211 20.5t-188.5 66t-135 120t-50.5 184.5q0 58 21.5 119.5t51 114t56 85t37.5 32.5l31 -24q-5 -11 -27 -44.5
t-42.5 -79.5t-20.5 -96q0 -62 39.5 -105.5t102 -72t135 -45t139 -23t112.5 -6.5q122 0 257 24t249 57q64 18 118.5 39t106.5 48l4 8q-22 19 -39 53t-17 62q0 46 19.5 112.5t52.5 137.5t73.5 133t81.5 101t77 39q42 0 81 -38t69.5 -93t48 -109.5t17.5 -88.5q0 -65 -22.5 -132
t-54.5 -132q16 -17 70.5 -22.5t110.5 -5.5h53q34 0 50 -21.5t21 -50t5 -50.5zM1849 476q0 16 -19 48.5t-47 59.5t-55 27q-22 0 -61 -27.5t-71 -63t-32 -59.5q0 -41 43.5 -66.5t97.5 -56.5q57 38 100.5 77t43.5 61z" />
    <glyph glyph-name="uni06A2.init" unicode="&#x6a2;" horiz-adv-x="665" 
d="M586 468q0 -81 -20 -151.5t-66 -134.5q-23 -32 -84.5 -75t-157.5 -75t-224 -32h-50q-34 0 -50.5 22t-21 50.5t-4.5 49.5q0 22 4.5 50.5t21 50t50.5 21.5h50q150 0 253.5 29t156.5 68t53 68q0 20 -17.5 50t-36.5 50q-12 -34 -38 -71.5t-66 -63.5t-94 -26q-78 0 -124 44
t-46 140q0 28 12.5 79.5t35 111t52.5 113.5t64.5 88t70.5 34q41 0 88.5 -42.5t90.5 -114t70 -158.5t27 -175zM340 638q0 5 -16 19.5t-39 27t-43 12.5q-16 0 -29.5 -16t-13.5 -32t15 -39t44 -23q28 0 55 21t27 30zM411 -229q0 -7 -16.5 -36t-39 -64t-43 -60.5t-28.5 -25.5
q-5 0 -31 17t-58.5 40.5t-56.5 43.5t-24 27t17 36.5t40 64.5t43 60.5t26 25.5q8 0 34.5 -17.5t58.5 -41.5t55 -44.5t23 -25.5z" />
    </font>
</defs>
</svg>
