<svg xmlns="http://www.w3.org/2000/svg">
<defs>
<font id="ScheherazadeNew-Medium" horiz-adv-x="0" >
  <font-face 
    font-family="Scheherazade New Medium"
    font-weight="500"
    font-stretch="normal"
    units-per-em="2048"
    panose-1="1 0 6 0 2 0 0 2 0 3"
    ascent="1638"
    descent="-410"
    x-height="828"
    cap-height="1226"
    bbox="-1470 -1538 7135 2700"
    underline-thickness="100"
    underline-position="-850"
    unicode-range="U+0020-10EFF"
  />
<missing-glyph horiz-adv-x="1646" 
d="M1164 1138q0 -5 -13.5 -28t-28 -44t-19.5 -21q-4 0 -25 14t-40.5 29.5t-19.5 20.5t14 28t29 44t19 21q5 0 25.5 -14.5t39.5 -30.5t19 -19zM1262 972q0 -5 -13.5 -28t-29 -44t-20.5 -21q-2 0 -19.5 13t-35.5 26.5t-20 15.5q-6 6 -12 6q-5 0 -9 -5q-1 -2 -13 -20t-25 -35
t-17 -17q-3 0 -24 14.5t-41 30t-20 19.5q0 5 14 27.5t29.5 43.5t18.5 21q6 0 24 -14t35 -28t19 -16q6 -4 9 -4q6 0 9 7q1 2 13 19.5t25.5 34.5t16.5 17q5 0 26 -14.5t40.5 -30t19.5 -18.5zM1404 650q0 -38 -13 -87.5t-40 -86.5t-69 -37q-55 0 -84.5 31.5t-46.5 45.5
q-87 -142 -179 -142q0 -153 -43 -248t-112.5 -145.5t-153 -68.5t-164.5 -18q-110 0 -174 70t-64 164q0 61 24 120.5t50.5 99t32.5 39.5q13 0 13 -10q0 -8 -16.5 -35t-33 -68.5t-16.5 -93.5q0 -62 39 -98.5t92 -51.5t93 -15q82 0 167 16.5t129 46.5q50 34 68 80t18 116
q0 60 -12.5 96t-25 56.5t-12.5 30.5q0 7 10.5 31t23 46.5t16.5 22.5q22 -30 35 -74q47 0 94 25.5t80 67.5t39 92q2 19 13 19q10 0 13 -23q7 -40 32 -61t53.5 -29t44.5 -8q6 0 20 7.5t14 13.5q0 12 -21 28t-21 20t7 31.5t16 54t14 26.5q11 0 22.5 -18t19.5 -41t8 -38z
M1523 1444h-1400v-1775h1400v1775zM87 -367v1847h1472v-1847h-1472z" />
    <glyph glyph-name="uni0624" unicode="&#x648;&#x654;" horiz-adv-x="847" 
d="M775 199q0 -111 -27.5 -231.5t-77 -233.5t-116 -203.5t-144.5 -144t-162 -53.5q-66 0 -129.5 22t-114.5 52t-81 54t-30 28q0 7 6.5 18t11.5 11t37.5 -11t74.5 -22t75 -11q106 0 210 55t188.5 144.5t135.5 194.5t51 204q0 35 -4 61t-11 50q-26 -39 -67 -69.5t-82 -30.5
q-37 0 -76.5 23.5t-67 64.5t-27.5 94q0 55 21.5 124.5t54.5 134t69.5 107t66.5 42.5q47 0 96.5 -54.5t84 -160.5t34.5 -259zM582 372q-14 22 -35.5 37.5t-38.5 15.5q-20 0 -29.5 -16.5t-9.5 -41.5q0 -14 12.5 -29t31.5 -15q20 0 40.5 15t28.5 34zM771 1034q0 -8 -8 -28.5
t-21 -40.5t-29 -25q-17 -5 -77.5 -28.5t-117.5 -44.5q-69 -27 -108.5 -46t-50.5 -19q-13 0 -13 14q0 12 15 43t22 39q8 10 33.5 24t36.5 18q-21 7 -49.5 31t-28.5 63t35.5 90t67.5 84q55 54 87 64t61 10q31 0 51.5 -24.5t20.5 -56.5q0 -15 -8 -38t-18 -41.5t-17 -18.5
q-10 0 -45.5 20.5t-64.5 20.5q-25 0 -46.5 -17t-21.5 -33q0 -6 27 -24.5t63 -36t64 -18.5q34 8 77.5 19t51.5 12q11 2 11 -12z" />
    <glyph glyph-name="uni0626" unicode="&#x64a;&#x654;" horiz-adv-x="1639" 
d="M1526 892l-53 -217q-24 22 -48 35.5t-71 13.5q-51 0 -117.5 -26t-129 -69t-103.5 -96t-41 -108q0 -28 28 -50t71 -37t87.5 -25t76.5 -15q77 -12 130.5 -20.5t80.5 -39.5q14 -17 17 -47t3 -71q0 -47 -35.5 -101.5t-87.5 -96.5q-88 -70 -211 -131t-268 -99t-300 -38
q-233 0 -356.5 108.5t-123.5 290.5q0 66 21 141t52.5 146.5t63.5 129.5t55 93t25 35q10 0 21.5 -8.5t10.5 -14.5q0 -7 -20 -44.5t-46 -95.5t-46 -125t-20 -132q0 -93 39.5 -152.5t105 -92.5t145.5 -46.5t161 -13.5q77 0 170 17t185 43t169 55t124 54t47 39q0 24 -56.5 37.5
t-217.5 37.5q-48 7 -100 25.5t-88 57.5t-36 108q0 50 27 114.5t73 131t102 123.5q88 88 195 153t205 65q21 0 52.5 -11.5t31.5 -30.5zM859 1136q0 -7 -7.5 -28t-20.5 -40.5t-30 -24.5q-17 -6 -77 -29.5t-118 -44.5q-69 -26 -108 -45t-50 -19q-14 0 -14 14q0 11 15.5 42
t21.5 40q8 9 34 23.5t37 18.5q-21 6 -49.5 30t-28.5 63t35 90.5t68 84.5q55 54 87 64t60 10q31 0 52 -25t21 -57q0 -15 -8 -38t-18.5 -41t-16.5 -18q-11 0 -46.5 20t-63.5 20q-26 0 -47 -16.5t-21 -32.5q0 -6 26.5 -25t62.5 -36.5t64 -18.5q35 8 78 19t51 13q11 1 11 -13z
" />
    <glyph glyph-name="uni06C0" unicode="&#x6d5;&#x654;" horiz-adv-x="744" 
d="M650 357q0 -107 -38.5 -191t-110 -132.5t-171.5 -48.5q-101 0 -162 78t-61 192q0 49 25.5 116.5t67.5 156.5q24 52 52 105.5t55 89t48 35.5q51 0 103 -34.5t95.5 -92t70 -129t26.5 -145.5zM558 320q0 20 -27.5 46t-68.5 50.5t-83.5 41t-73.5 16.5q-25 0 -48.5 -29.5
t-38 -69t-14.5 -69.5q0 -24 25 -42.5t61 -29t68 -10.5q36 0 83 11.5t82 33t35 51.5zM587 1127q0 -8 -7.5 -28.5t-20.5 -40.5t-30 -25t-77 -28.5t-118 -44.5q-69 -27 -108 -46t-50 -19q-14 0 -14 14q0 12 15.5 43t21.5 39q8 10 34 24t37 18q-21 7 -49.5 31t-28.5 63t35 90
t68 84q55 54 87 64t60 10q31 0 52 -24.5t21 -56.5q0 -15 -8 -38t-18.5 -41.5t-16.5 -18.5q-11 0 -46.5 20.5t-63.5 20.5q-26 0 -47 -17t-21 -33q0 -6 26.5 -24.5t62.5 -36t64 -18.5q35 8 78 19t51 12q11 2 11 -12z" />
    <glyph glyph-name="uni06C2" unicode="&#x6c1;&#x654;" horiz-adv-x="744" 
d="M650 357q0 -107 -38.5 -191t-110 -132.5t-171.5 -48.5q-101 0 -162 78t-61 192q0 49 25.5 116.5t67.5 156.5q24 52 52 105.5t55 89t48 35.5q51 0 103 -34.5t95.5 -92t70 -129t26.5 -145.5zM558 320q0 20 -27.5 46t-68.5 50.5t-83.5 41t-73.5 16.5q-25 0 -48.5 -29.5
t-38 -69t-14.5 -69.5q0 -24 25 -42.5t61 -29t68 -10.5q36 0 83 11.5t82 33t35 51.5zM587 1127q0 -8 -7.5 -28.5t-20.5 -40.5t-30 -25t-77 -28.5t-118 -44.5q-69 -27 -108 -46t-50 -19q-14 0 -14 14q0 12 15.5 43t21.5 39q8 10 34 24t37 18q-21 7 -49.5 31t-28.5 63t35 90
t68 84q55 54 87 64t60 10q31 0 52 -24.5t21 -56.5q0 -15 -8 -38t-18.5 -41.5t-16.5 -18.5q-11 0 -46.5 20.5t-63.5 20.5q-26 0 -47 -17t-21 -33q0 -6 26.5 -24.5t62.5 -36t64 -18.5q35 8 78 19t51 12q11 2 11 -12z" />
    <glyph glyph-name="uni0651064B" unicode="&#x64b;&#x651;" 
d="M500 1803q0 -67 -16 -127.5t-50.5 -99t-89.5 -38.5q-31 0 -54 8.5t-43 23.5q-31 -50 -67 -89.5t-94 -39.5q-52 0 -88.5 45t-36.5 120q0 14 4 46t12.5 68t21.5 60q1 2 12.5 2.5t18.5 0.5q9 0 9 -27.5t1 -64t11.5 -64.5t40.5 -28q37 0 61 37t38 86t21 88t9 43q3 4 14 5.5
t21 1.5q9 0 13 -24.5t10 -56t20.5 -56t43.5 -24.5q30 0 47.5 31.5t26 74.5t11 78.5t2.5 44.5q3 8 17.5 15.5t21.5 7.5t14.5 -25.5t12 -60t4.5 -62.5zM465 2230q0 -5 -8.5 -29.5t-19.5 -49.5t-20 -34q-10 -10 -26 -19t-36 -20l-303 -160q-35 -18 -49 -27t-25 -9q-12 0 -12 14
q0 8 7 31t16 45t16 30q6 5 16 12t31 18l311 165q25 13 52.5 29.5t35.5 16.5q14 0 14 -13zM465 2465q0 -5 -8.5 -29.5t-19.5 -49.5t-20 -34q-10 -10 -26 -19t-36 -20l-303 -160q-35 -18 -49 -27t-25 -9q-12 0 -12 14q0 8 7 31t16 45t16 30q6 5 16 12t31 18l311 165
q25 13 52.5 29.5t35.5 16.5q14 0 14 -13z" />
    <glyph glyph-name="uni0651064C" unicode="&#x64c;&#x651;" 
d="M500 1803q0 -67 -16 -127.5t-50.5 -99t-89.5 -38.5q-31 0 -54 8.5t-43 23.5q-31 -50 -67 -89.5t-94 -39.5q-52 0 -88.5 45t-36.5 120q0 14 4 46t12.5 68t21.5 60q1 2 12.5 2.5t18.5 0.5q9 0 9 -27.5t1 -64t11.5 -64.5t40.5 -28q37 0 61 37t38 86t21 88t9 43q3 4 14 5.5
t21 1.5q9 0 13 -24.5t10 -56t20.5 -56t43.5 -24.5q30 0 47.5 31.5t26 74.5t11 78.5t2.5 44.5q3 8 17.5 15.5t21.5 7.5t14.5 -25.5t12 -60t4.5 -62.5zM485 2121q0 -27 -6 -47t-21 -20q-14 0 -50.5 25.5t-55.5 40.5q-90 -89 -178 -143t-138 -54q-13 0 -23.5 6t-10.5 13
q0 6 13 31t26 58.5t13 64.5q0 29 -11.5 54t-47.5 25q-29 0 -43 -23t-19.5 -46t-8.5 -23q-20 0 -20 30q0 32 9.5 81.5t33.5 88.5t69 39q49 0 73.5 -27t32 -66.5t7.5 -77.5q0 -52 -7 -91q43 16 85 47t73 61q-29 21 -61.5 48t-32.5 81q0 44 23.5 94.5t66 86.5t97.5 36
q53 0 79 -39.5t26 -89.5q0 -36 -18 -80.5t-33 -73.5q29 -25 43.5 -47.5t14.5 -62.5zM373 2330q0 33 -18.5 55.5t-48.5 22.5q-13 0 -21 -12t-8 -21q0 -19 17 -41.5t66 -54.5q5 10 9 23.5t4 27.5z" />
    <glyph glyph-name="uni0651064D" unicode="&#x64d;&#x34f;&#x651;" 
d="M500 2350q0 -67 -16 -127.5t-50.5 -99t-89.5 -38.5q-31 0 -54 8.5t-43 23.5q-31 -50 -67 -89.5t-94 -39.5q-52 0 -88.5 45t-36.5 120q0 14 4 46t12.5 68t21.5 60q1 2 12.5 2.5t18.5 0.5q9 0 9 -27.5t1 -64t11.5 -64.5t40.5 -28q37 0 61 37t38 86t21 88t9 43q3 4 14 5.5
t21 1.5q9 0 13 -24.5t10 -56t20.5 -56t43.5 -24.5q30 0 47.5 31.5t26 74.5t11 78.5t2.5 44.5q3 8 17.5 15.5t21.5 7.5t14.5 -25.5t12 -60t4.5 -62.5zM494 2003q0 -5 -8.5 -29.5t-19.5 -49.5t-20 -34q-10 -10 -26 -19t-36 -20l-303 -160q-35 -18 -49 -27t-25 -9q-12 0 -12 14
q0 8 7 31t16 45t16 30q6 5 16 12t31 18l311 165q25 13 52.5 29.5t35.5 16.5q14 0 14 -13zM494 1771q0 -5 -8.5 -29.5t-19.5 -49.5t-20 -34q-10 -10 -26 -19t-36 -20l-303 -160q-35 -18 -49 -27t-25 -9q-12 0 -12 14q0 8 7 31t16 45t16 30q6 5 16 12t31 18l311 165
q25 13 52.5 29.5t35.5 16.5q14 0 14 -13z" />
    <glyph glyph-name="uni0651064E" unicode="&#x64e;&#x651;" 
d="M474 2235q0 -5 -8.5 -29.5t-19.5 -49.5t-20 -34q-10 -10 -26 -19t-36 -20l-303 -160q-35 -18 -49 -27t-25 -9q-12 0 -12 14q0 8 7 31t16 45t16 30q6 5 16 12t31 18l311 165q25 13 52.5 29.5t35.5 16.5q14 0 14 -13zM500 1803q0 -67 -16 -127.5t-50.5 -99t-89.5 -38.5
q-31 0 -54 8.5t-43 23.5q-31 -50 -67 -89.5t-94 -39.5q-52 0 -88.5 45t-36.5 120q0 14 4 46t12.5 68t21.5 60q1 2 12.5 2.5t18.5 0.5q9 0 9 -27.5t1 -64t11.5 -64.5t40.5 -28q37 0 61 37t38 86t21 88t9 43q3 4 14 5.5t21 1.5q9 0 13 -24.5t10 -56t20.5 -56t43.5 -24.5
q30 0 47.5 31.5t26 74.5t11 78.5t2.5 44.5q3 8 17.5 15.5t21.5 7.5t14.5 -25.5t12 -60t4.5 -62.5z" />
    <glyph glyph-name="uni0651064F" unicode="&#x64f;&#x651;" 
d="M500 1803q0 -67 -16 -127.5t-50.5 -99t-89.5 -38.5q-31 0 -54 8.5t-43 23.5q-31 -50 -67 -89.5t-94 -39.5q-52 0 -88.5 45t-36.5 120q0 14 4 46t12.5 68t21.5 60q1 2 12.5 2.5t18.5 0.5q9 0 9 -27.5t1 -64t11.5 -64.5t40.5 -28q37 0 61 37t38 86t21 88t9 43q3 4 14 5.5
t21 1.5q9 0 13 -24.5t10 -56t20.5 -56t43.5 -24.5q30 0 47.5 31.5t26 74.5t11 78.5t2.5 44.5q3 8 17.5 15.5t21.5 7.5t14.5 -25.5t12 -60t4.5 -62.5zM337 2497q42 0 64.5 -24t31 -57t8.5 -59q0 -72 -40 -151t-100 -148t-120 -112.5t-100 -43.5q-30 0 -67 11.5t-58 23.5
q129 63 214.5 132t128.5 129.5t43 97.5q0 29 -23.5 51.5t-49.5 22.5q-24 0 -24 -24q0 -21 28 -52t67.5 -62t74.5 -55.5t49 -33.5q7 -3 7 -13q0 -15 -11.5 -42t-24.5 -49t-20 -22q-11 0 -52 23t-89.5 59.5t-83.5 78.5t-35 80q0 42 25 98t66.5 98.5t90.5 42.5z" />
    <glyph glyph-name="uni06510650" unicode="&#x650;&#x34f;&#x651;" 
d="M494 1772q0 -5 -8.5 -29.5t-19.5 -49.5t-20 -34q-10 -10 -26 -19t-36 -20l-303 -160q-35 -18 -49 -27t-25 -9q-12 0 -12 14q0 8 7 31t16 45t16 30q6 5 16 12t31 18l311 165q25 13 52.5 29.5t35.5 16.5q14 0 14 -13zM500 2118q0 -67 -16 -127.5t-50.5 -99t-89.5 -38.5
q-31 0 -54 8.5t-43 23.5q-31 -50 -67 -89.5t-94 -39.5q-52 0 -88.5 45t-36.5 120q0 14 4 46t12.5 68t21.5 60q1 2 12.5 2.5t18.5 0.5q9 0 9 -27.5t1 -64t11.5 -64.5t40.5 -28q37 0 61 37t38 86t21 88t9 43q3 4 14 5.5t21 1.5q9 0 13 -24.5t10 -56t20.5 -56t43.5 -24.5
q30 0 47.5 31.5t26 74.5t11 78.5t2.5 44.5q3 8 17.5 15.5t21.5 7.5t14.5 -25.5t12 -60t4.5 -62.5z" />
    <glyph glyph-name="uni0620.init" unicode="&#x620;" horiz-adv-x="545" 
d="M399 414q0 -212 -102 -313t-263 -101h-53q-47 0 -61.5 29t-14.5 78q0 50 16 77.5t60 27.5h53q62 0 125 9.5t97 27.5q30 14 43.5 32t13.5 28q0 15 -17.5 43t-40 59.5t-40 58t-17.5 37.5q0 10 13 38t32.5 62.5t38 65t29.5 44.5q37 -71 62.5 -149t25.5 -154zM423 -348
q0 -94 -62 -161t-156 -67q-68 0 -105.5 49t-37.5 154q0 86 56.5 153.5t148.5 67.5q43 0 78.5 -32t56.5 -77.5t21 -86.5zM334 -386q0 19 -22 44.5t-53 44t-57 18.5q-35 0 -55 -26t-20 -54q0 -32 34 -52t78 -20q25 0 60 14t35 31z" />
    <glyph glyph-name="uni0620.medi" unicode="&#x620;" horiz-adv-x="546" 
d="M643 107q0 -44 -12 -75.5t-66 -31.5h-54q-40 0 -67 12t-51 36q-17 18 -37 48t-32 61q-49 -60 -112 -108.5t-177 -48.5h-51q-54 0 -66.5 31t-12.5 76q0 44 12.5 74.5t66.5 30.5h51q101 0 162 28t95 65t51.5 65t30.5 28q9 0 14.5 -20.5t16.5 -57.5q10 -35 33.5 -71.5
t72.5 -36.5h54q54 0 66 -30t12 -75zM474 -332q0 -93 -62 -160.5t-155 -67.5q-69 0 -106 49t-37 155q0 85 56 153t148 68q44 0 79 -32t56 -78t21 -87zM385 -370q0 19 -22 44.5t-52.5 44.5t-57.5 19q-34 0 -54.5 -26t-20.5 -55q0 -32 34 -52t78 -20q25 0 60 14.5t35 30.5z" />
    <glyph glyph-name="uni0620.fina" unicode="&#x620;" horiz-adv-x="1134" 
d="M1238 107q0 -33 -12.5 -70t-65.5 -37h-141q-39 0 -102 -2.5t-103 -13.5q-47 -14 -77 -41t-30 -56q0 -26 35.5 -35.5t96.5 -17.5q58 -8 114.5 -27t93 -56t36.5 -98q0 -53 -32 -106.5t-80 -96.5q-43 -36 -113 -76.5t-153 -76t-166 -57.5t-152 -22q-57 0 -121.5 27
t-121.5 64t-93 69t-36 42q0 7 6.5 16t12.5 9q12 0 54.5 -6.5t103 -13t125.5 -6.5q122 0 241.5 24.5t217.5 59.5t157 69.5t59 53.5q0 31 -46.5 44t-140.5 17q-97 4 -167.5 29.5t-70.5 101.5q0 37 18 77.5t40 73.5q57 89 134.5 148.5t159.5 81.5q31 9 70.5 11t72.5 2h98
q53 0 65.5 -36t12.5 -69z" />
    <glyph glyph-name="uni0622.fina" unicode="&#x622;" horiz-adv-x="524" arabic-form="final" 
d="M627 110q0 -50 -15.5 -80t-61.5 -30h-52q-70 0 -128 22t-96.5 77.5t-50.5 157.5q-9 72 -19.5 171t-22.5 209.5t-25 219.5q-16 134 -29 241t-13 157q0 12 14.5 42t34.5 64t37 58t22 24t14 -10t9 -30q8 -117 17.5 -252.5t20 -271.5t21 -254.5t20 -203t18.5 -115.5
q17 -58 62 -75t94 -17h52q47 0 62 -27.5t15 -76.5zM722 1800q0 -23 -42.5 -50.5t-110.5 -54t-145 -48.5t-147.5 -35.5t-117.5 -13.5q-54 0 -110 3t-97.5 5.5t-52.5 2.5q-17 0 -21 -26.5t-10.5 -53.5t-30.5 -27q-28 0 -53 29.5t-41 67.5t-16 65q0 67 45.5 98t111.5 31
q40 0 124 -10.5t171 -10.5q162 0 270.5 17.5t167 34.5t72.5 17q21 0 27 -12.5t6 -28.5z" />
    <glyph glyph-name="uni0623.fina" unicode="&#x623;" horiz-adv-x="524" arabic-form="final" 
d="M627 110q0 -50 -15.5 -80t-61.5 -30h-52q-70 0 -128 22t-96.5 77.5t-50.5 157.5q-9 72 -19.5 171t-22.5 209.5t-25 219.5q-16 134 -29 241t-13 157q0 12 14.5 42t34.5 64t37 58t22 24t14 -10t9 -30q8 -117 17.5 -252.5t20 -271.5t21 -254.5t20 -203t18.5 -115.5
q17 -58 62 -75t94 -17h52q47 0 62 -27.5t15 -76.5zM413 1788q0 -7 -7.5 -28t-20.5 -40.5t-30 -24.5q-17 -6 -77 -29.5t-118 -44.5q-69 -26 -108 -45t-50 -19q-14 0 -14 14q0 11 15.5 42t21.5 40q8 9 34 23.5t37 18.5q-21 6 -49.5 30t-28.5 63t35 90.5t68 84.5q55 54 87 64
t60 10q31 0 52 -25t21 -57q0 -15 -8 -38t-18.5 -41t-16.5 -18q-11 0 -46.5 20t-63.5 20q-26 0 -47 -16.5t-21 -32.5q0 -6 26.5 -25t62.5 -36.5t64 -18.5q35 8 78 19t51 13q11 1 11 -13z" />
    <glyph glyph-name="uni0625.fina" unicode="&#x625;" horiz-adv-x="524" arabic-form="final" 
d="M627 110q0 -50 -15.5 -80t-61.5 -30h-52q-70 0 -128 22t-96.5 77.5t-50.5 157.5q-9 72 -19.5 171t-22.5 209.5t-25 219.5q-16 134 -29 241t-13 157q0 12 14.5 42t34.5 64t37 58t22 24t14 -10t9 -30q8 -117 17.5 -252.5t20 -271.5t21 -254.5t20 -203t18.5 -115.5
q17 -58 62 -75t94 -17h52q47 0 62 -27.5t15 -76.5zM538 -444q0 -7 -8 -28t-21 -40.5t-29 -24.5q-17 -6 -77.5 -29.5t-118.5 -44.5q-69 -26 -108 -45t-50 -19q-13 0 -13 14q0 11 15 42t21 40q9 9 34.5 23.5t36.5 18.5q-21 6 -49.5 30t-28.5 63t35 90.5t68 84.5q55 54 87 64
t60 10q31 0 52 -25t21 -57q0 -15 -8 -38t-18 -41t-17 -18q-11 0 -46.5 20t-63.5 20q-25 0 -46.5 -16.5t-21.5 -32.5q0 -6 26.5 -25t63 -36.5t63.5 -18.5q35 8 78 19t51 13q12 1 12 -13z" />
    <glyph glyph-name="uni0627.fina" unicode="&#x627;" horiz-adv-x="524" arabic-form="final" 
d="M620 109q0 -49 -15 -79t-60 -30h-52q-69 0 -126.5 21.5t-96 77t-49.5 155.5q-9 72 -19.5 170t-22.5 207.5t-24 217.5q-16 132 -29 238t-13 156q0 11 14.5 41t34.5 63.5t36.5 57.5t20.5 24q6 0 14.5 -10t9.5 -30q8 -116 17.5 -250t19.5 -268.5t20.5 -252t20 -201
t17.5 -114.5q18 -58 62 -74.5t93 -16.5h52q46 0 60.5 -27.5t14.5 -75.5z" />
    <glyph glyph-name="uni0628.init" unicode="&#x628;" horiz-adv-x="545" arabic-form="initial" 
d="M399 414q0 -212 -102 -313t-263 -101h-53q-47 0 -61.5 29t-14.5 78q0 50 16 77.5t60 27.5h53q62 0 125 9.5t97 27.5q30 14 43.5 32t13.5 28q0 15 -17.5 43t-40 59.5t-40 58t-17.5 37.5q0 10 13 38t32.5 62.5t38 65t29.5 44.5q37 -71 62.5 -149t25.5 -154zM322 -244
q0 -6 -14.5 -31.5t-35 -56.5t-38.5 -53.5t-26 -22.5q-3 0 -26.5 15t-52.5 35.5t-50 38.5t-21 24t15 32t35.5 57t38.5 53.5t23 22.5q6 0 30 -15.5t52 -36.5t49 -39t21 -23z" />
    <glyph glyph-name="uni0628.medi" unicode="&#x628;" horiz-adv-x="546" arabic-form="medial" 
d="M643 107q0 -44 -12 -75.5t-66 -31.5h-54q-40 0 -67 12t-51 36q-17 18 -37 48t-32 61q-49 -60 -112 -108.5t-177 -48.5h-51q-54 0 -66.5 31t-12.5 76q0 44 12.5 74.5t66.5 30.5h51q101 0 162 28t95 65t51.5 65t30.5 28q9 0 14.5 -20.5t16.5 -57.5q10 -35 33.5 -71.5
t72.5 -36.5h54q54 0 66 -30t12 -75zM401 -247q0 -6 -14.5 -32t-34.5 -56.5t-38.5 -53.5t-25.5 -23q-4 0 -27 15t-52 35.5t-50.5 38.5t-21.5 24q0 7 15 33t36 56.5t38.5 53t22.5 22.5q7 0 31 -15.5t52 -36.5t48.5 -39t20.5 -22z" />
    <glyph glyph-name="uni0628.fina" unicode="&#x628;" horiz-adv-x="2003" arabic-form="final" 
d="M2100 107q0 -33 -10.5 -70t-58.5 -37h-56q-89 0 -147 23.5t-105 119.5q-69 -71 -215.5 -130t-346.5 -94t-430 -35q-181 0 -320.5 45.5t-218.5 135t-79 222.5q0 65 18 127.5t42.5 114t45 82t26.5 30.5q5 0 15.5 -7t10.5 -17q0 -7 -16 -36.5t-32.5 -73t-16.5 -93.5
q0 -99 79.5 -165.5t219 -100.5t318.5 -34q169 0 334.5 16.5t299 52t206.5 91.5q29 21 41.5 44.5t27.5 23.5q11 0 22.5 -34t38.5 -57q25 -22 74 -30.5t108 -8.5h56q48 0 58.5 -36t10.5 -69zM986 -360q0 -6 -14.5 -31.5t-35 -56.5t-38.5 -53.5t-26 -22.5q-3 0 -26.5 15
t-52.5 35.5t-50 38.5t-21 24t15 32t35.5 57t38.5 53.5t23 22.5q6 0 30 -15.5t52 -36.5t49 -39t21 -23z" />
    <glyph glyph-name="uni0629.fina" unicode="&#x629;" horiz-adv-x="824" arabic-form="final" 
d="M918 107q0 -33 -12 -70t-65 -37h-53q-76 0 -123.5 21.5t-79 83.5t-60.5 183q-40 -43 -91.5 -88t-124.5 -45q-22 0 -59.5 6t-76 18t-65.5 31t-27 46q0 23 21 71.5t52.5 101.5t63.5 90q43 52 113.5 104t122.5 73q0 13 -1.5 25t-1.5 25q0 9 0.5 17.5t2.5 17.5q10 55 37 96.5
t44 41.5q2 0 12 -63.5t24 -146.5q14 -84 29.5 -172t28 -152.5t16.5 -77.5q10 -31 21 -52t38 -32t84 -11h53q53 0 65 -36t12 -69zM507 398q-7 38 -15.5 90t-19.5 98q-71 -23 -120.5 -63.5t-75.5 -75.5t-26 -40q0 -7 35.5 -14t77.5 -12t63 -5q49 0 81 22zM720 1232
q0 -6 -14.5 -31.5t-33.5 -55.5t-36.5 -52t-23.5 -22q-3 0 -24.5 15t-47.5 34.5t-46 35t-22 17.5q-8 6 -13 6t-10 -8q-2 -1 -15 -20.5t-31 -44.5t-33.5 -43.5t-21.5 -18.5q-4 0 -26.5 14.5t-50.5 35t-48.5 38t-20.5 22.5q0 7 15 32t35 55t37 52.5t20 22.5q8 0 29 -14.5
t45 -34t42 -35t20 -16.5q10 -10 14 -10q6 0 14 13q2 2 15.5 21t31.5 43.5t33 42.5t19 18q6 0 29 -15.5t50.5 -36.5t48 -38.5t20.5 -21.5z" />
    <glyph glyph-name="uni062A.init" unicode="&#x62a;" horiz-adv-x="545" arabic-form="initial" 
d="M399 414q0 -212 -102 -313t-263 -101h-53q-47 0 -61.5 29t-14.5 78q0 50 16 77.5t60 27.5h53q62 0 125 9.5t97 27.5q30 14 43.5 32t13.5 28q0 15 -17.5 43t-40 59.5t-40 58t-17.5 37.5q0 10 13 38t32.5 62.5t38 65t29.5 44.5q37 -71 62.5 -149t25.5 -154zM520 1043
q0 -6 -14 -31.5t-33.5 -55.5t-36.5 -52t-23 -22q-4 0 -25 15t-47.5 34.5t-46.5 35t-22 17.5q-7 6 -13 6q-4 0 -10 -8q-1 -1 -14.5 -20.5t-31.5 -44.5t-33.5 -43.5t-20.5 -18.5q-4 0 -27 14.5t-50.5 35t-48.5 38t-21 22.5q0 7 15 32t35.5 55t37 52.5t20.5 22.5q7 0 28 -14.5
t45.5 -34t42.5 -35t19 -16.5q10 -10 14 -10q7 0 15 13q1 2 14.5 21t32 43.5t33.5 42.5t19 18q6 0 29 -15.5t50.5 -36.5t47.5 -38.5t20 -21.5z" />
    <glyph glyph-name="uni062A.medi" unicode="&#x62a;" horiz-adv-x="546" arabic-form="medial" 
d="M643 107q0 -44 -12 -75.5t-66 -31.5h-54q-40 0 -67 12t-51 36q-17 18 -37 48t-32 61q-49 -60 -112 -108.5t-177 -48.5h-51q-54 0 -66.5 31t-12.5 76q0 44 12.5 74.5t66.5 30.5h51q101 0 162 28t95 65t51.5 65t30.5 28q9 0 14.5 -20.5t16.5 -57.5q10 -35 33.5 -71.5
t72.5 -36.5h54q54 0 66 -30t12 -75zM533 723q0 -6 -14 -31.5t-33.5 -55.5t-36.5 -52t-23 -22q-4 0 -25 15t-47.5 34.5t-46.5 35t-22 17.5q-7 6 -13 6q-4 0 -10 -8q-1 -1 -14.5 -20.5t-31.5 -44.5t-33.5 -43.5t-20.5 -18.5q-4 0 -27 14.5t-50.5 35t-48.5 38t-21 22.5
q0 7 15 32t35.5 55t37 52.5t20.5 22.5q7 0 28 -14.5t45.5 -34t42.5 -35t19 -16.5q10 -10 14 -10q7 0 15 13q1 2 14.5 21t32 43.5t33.5 42.5t19 18q6 0 29 -15.5t50.5 -36.5t47.5 -38.5t20 -21.5z" />
    <glyph glyph-name="uni062A.fina" unicode="&#x62a;" horiz-adv-x="2003" arabic-form="final" 
d="M2100 107q0 -33 -10.5 -70t-58.5 -37h-56q-89 0 -147 23.5t-105 119.5q-69 -71 -215.5 -130t-346.5 -94t-430 -35q-181 0 -320.5 45.5t-218.5 135t-79 222.5q0 65 18 127.5t42.5 114t45 82t26.5 30.5q5 0 15.5 -7t10.5 -17q0 -7 -16 -36.5t-32.5 -73t-16.5 -93.5
q0 -99 79.5 -165.5t219 -100.5t318.5 -34q169 0 334.5 16.5t299 52t206.5 91.5q29 21 41.5 44.5t27.5 23.5q11 0 22.5 -34t38.5 -57q25 -22 74 -30.5t108 -8.5h56q48 0 58.5 -36t10.5 -69zM1201 723q0 -6 -14 -31.5t-33.5 -55.5t-36.5 -52t-23 -22q-4 0 -25 15t-47.5 34.5
t-46.5 35t-22 17.5q-7 6 -13 6q-4 0 -10 -8q-1 -1 -14.5 -20.5t-31.5 -44.5t-33.5 -43.5t-20.5 -18.5q-4 0 -27 14.5t-50.5 35t-48.5 38t-21 22.5q0 7 15 32t35.5 55t37 52.5t20.5 22.5q7 0 28 -14.5t45.5 -34t42.5 -35t19 -16.5q10 -10 14 -10q7 0 15 13q1 2 14.5 21
t32 43.5t33.5 42.5t19 18q6 0 29 -15.5t50.5 -36.5t47.5 -38.5t20 -21.5z" />
    <glyph glyph-name="uni062B.init" unicode="&#x62b;" horiz-adv-x="545" arabic-form="initial" 
d="M399 414q0 -212 -102 -313t-263 -101h-53q-47 0 -61.5 29t-14.5 78q0 50 16 77.5t60 27.5h53q62 0 125 9.5t97 27.5q30 14 43.5 32t13.5 28q0 15 -17.5 43t-40 59.5t-40 58t-17.5 37.5q0 10 13 38t32.5 62.5t38 65t29.5 44.5q37 -71 62.5 -149t25.5 -154zM355 1326
q0 -6 -14 -31.5t-34 -55.5t-37 -52.5t-24 -22.5q-4 0 -27 15t-51 36t-48.5 39t-20.5 23q0 7 14.5 32t35 54.5t37.5 51.5t22 22q6 0 29 -15t50.5 -36t47.5 -38t20 -22zM521 1046q0 -6 -14 -31t-33.5 -55t-36.5 -52t-23 -22q-4 0 -25 14.5t-47.5 34.5t-46.5 35.5t-21 16.5
q-8 6 -13 6t-11 -7q-1 -2 -14.5 -21.5t-31.5 -44t-33 -43.5t-21 -19q-4 0 -27 15t-50.5 35.5t-48 38t-20.5 22.5q0 6 15 31.5t35 55.5t36.5 52t20.5 22q8 0 29 -14.5t45 -33.5t42 -34.5t20 -17.5q9 -9 13 -9q7 0 15 12q1 2 15 21.5t32 43.5t33 42.5t19 18.5q6 0 29 -15.5
t50.5 -36.5t47.5 -38.5t20 -22.5z" />
    <glyph glyph-name="uni062B.medi" unicode="&#x62b;" horiz-adv-x="546" arabic-form="medial" 
d="M643 107q0 -44 -12 -75.5t-66 -31.5h-54q-40 0 -67 12t-51 36q-17 18 -37 48t-32 61q-49 -60 -112 -108.5t-177 -48.5h-51q-54 0 -66.5 31t-12.5 76q0 44 12.5 74.5t66.5 30.5h51q101 0 162 28t95 65t51.5 65t30.5 28q9 0 14.5 -20.5t16.5 -57.5q10 -35 33.5 -71.5
t72.5 -36.5h54q54 0 66 -30t12 -75zM367 1005q0 -6 -14.5 -31.5t-34 -55.5t-37 -52.5t-23.5 -22.5q-5 0 -28 15t-50.5 36t-48 39t-20.5 23q0 7 14.5 32t34.5 54.5t37.5 51.5t22.5 22q6 0 29 -15t50 -36t47.5 -38t20.5 -22zM533 725q0 -6 -14 -31t-33.5 -55t-36.5 -52
t-23 -22q-4 0 -25 14.5t-47.5 34.5t-46.5 35.5t-22 16.5q-7 6 -13 6q-4 0 -10 -7q-1 -2 -14.5 -21.5t-31.5 -44t-33.5 -43.5t-20.5 -19t-27.5 15t-50 35.5t-48.5 38t-21 22.5q0 6 15 31.5t35.5 55.5t37 52t20.5 22q7 0 28 -14.5t45 -33.5t42.5 -34.5t19.5 -17.5q10 -9 14 -9
q7 0 15 12q1 2 14.5 21.5t31.5 43.5t33.5 42.5t19.5 18.5q5 0 28.5 -15.5t51 -36.5t47.5 -38.5t20 -22.5z" />
    <glyph glyph-name="uni062B.fina" unicode="&#x62b;" horiz-adv-x="2003" arabic-form="final" 
d="M2100 107q0 -33 -10.5 -70t-58.5 -37h-56q-89 0 -147 23.5t-105 119.5q-69 -71 -215.5 -130t-346.5 -94t-430 -35q-181 0 -320.5 45.5t-218.5 135t-79 222.5q0 65 18 127.5t42.5 114t45 82t26.5 30.5q5 0 15.5 -7t10.5 -17q0 -7 -16 -36.5t-32.5 -73t-16.5 -93.5
q0 -99 79.5 -165.5t219 -100.5t318.5 -34q169 0 334.5 16.5t299 52t206.5 91.5q29 21 41.5 44.5t27.5 23.5q11 0 22.5 -34t38.5 -57q25 -22 74 -30.5t108 -8.5h56q48 0 58.5 -36t10.5 -69zM1039 1005q0 -7 -14 -32.5t-34 -55.5t-37 -52.5t-24 -22.5q-4 0 -27 15.5t-51 36
t-48.5 38.5t-20.5 24t14.5 31t35 55t37.5 52t22 22q6 0 29 -15.5t50.5 -36t47.5 -38t20 -21.5zM1205 725q0 -6 -14 -31.5t-33.5 -55.5t-36.5 -52t-23 -22q-4 0 -25 15t-47.5 34.5t-46.5 35t-21 17.5q-8 6 -13 6t-11 -8q-1 -1 -14.5 -20.5t-31.5 -44.5t-33 -44t-21 -19
q-4 0 -27 15t-50.5 35.5t-48 38t-20.5 22.5q0 7 15 32t35 55t36.5 52.5t20.5 22.5q8 0 29 -14.5t45 -34t42 -35t20 -17.5q9 -9 13 -9q7 0 15 13q1 2 15 21t32 43t33 42.5t19 18.5q6 0 29 -15.5t50.5 -36.5t47.5 -38.5t20 -21.5z" />
    <glyph glyph-name="uni062C.init" unicode="&#x62c;" horiz-adv-x="1447" arabic-form="initial" 
d="M1331 490q0 -4 -5 -27.5t-12.5 -53t-14 -53t-10.5 -25.5q-40 -2 -108 -2.5t-144 0t-140 0.5q-116 0 -212.5 -48.5t-180.5 -98.5q-72 -42 -147.5 -84t-155 -70t-165.5 -28h-52q-54 0 -66.5 37t-12.5 70t12.5 69t66.5 36h51q109 0 204 16.5t193 55.5q54 23 116 49t119 43
q-56 18 -119.5 46.5t-131 51.5t-134.5 23q-40 0 -78.5 -11t-65 -21.5t-31.5 -10.5q-3 0 -10.5 4.5t-7.5 9.5q0 39 36 101.5t88 100.5q33 23 68 32.5t90 9.5q53 0 123 -28.5t141.5 -63.5t130.5 -54q74 -26 170.5 -43t206.5 -22q68 -3 128 -4.5t60 -6.5zM797 -234
q0 -6 -14.5 -31.5t-35 -56.5t-38.5 -53.5t-25 -22.5q-4 0 -27.5 15t-52 35.5t-50 38.5t-21.5 23q0 7 15 33t36 56.5t38.5 53.5t22.5 23q7 0 31 -15.5t52 -37t48.5 -39t20.5 -22.5z" />
    <glyph glyph-name="uni062C.medi" unicode="&#x62c;" horiz-adv-x="1500" arabic-form="medial" 
d="M1596 107q0 -33 -12.5 -70t-65.5 -37h-52q-174 0 -285.5 13t-165.5 50q-65 44 -65 141q0 29 8 62t17 65h-25q-104 0 -188 -25.5t-157 -65.5t-142 -82q-98 -60 -199 -109t-229 -49h-51q-54 0 -66.5 37t-12.5 70t12.5 69t66.5 36h51q141 0 241 25t182 59q52 22 105.5 45
t107.5 35q-39 15 -106 44.5t-146.5 54t-154.5 24.5q-59 0 -103.5 -21t-49.5 -21q-6 0 -13 4.5t-7 8.5q0 60 42.5 118t95.5 89q30 19 67 27t71 8q44 0 102 -20.5t121.5 -49.5t125 -55.5t111.5 -38.5q76 -17 149.5 -27t159 -14t197.5 -4q5 0 8 -5.5t3 -8.5t-7 -34t-15 -65
t-13 -45q-2 -10 -76.5 -13.5t-173.5 -3.5q-1 -3 -1 -18q0 -39 55 -61q42 -18 105.5 -26t130 -9.5t117.5 -1.5h52q53 0 65.5 -36t12.5 -69zM879 -243q0 -6 -14.5 -31.5t-34.5 -56.5t-38.5 -53.5t-25.5 -22.5q-4 0 -27 15t-52 35.5t-50.5 38.5t-21.5 23q0 7 15 33t36 56.5
t38.5 53.5t22.5 23q7 0 31 -15.5t52 -37t48.5 -39t20.5 -22.5z" />
    <glyph glyph-name="uni062C.fina" unicode="&#x62c;" horiz-adv-x="1446" arabic-form="final" 
d="M1542 109q0 -51 -16 -80t-62 -29h-150q-106 0 -188 3.5t-140 21.5q-56 18 -81.5 57t-25.5 86q0 33 8.5 84.5t16.5 89.5q-150 -33 -284 -97.5t-236 -154t-160.5 -196.5t-58.5 -224q0 -244 215 -383t664 -139q96 0 186.5 8.5t153 16.5t72.5 8q7 0 9.5 -11.5t2.5 -15.5
q0 -5 -39.5 -23.5t-99.5 -42.5t-125.5 -49t-118.5 -43.5t-77 -25.5q-52 -14 -101 -16t-73 -2q-133 0 -269 28t-249.5 95.5t-182.5 184.5t-69 294q0 166 69.5 317t191.5 275.5t280 209.5q-67 15 -135 22.5t-117 7.5q-65 0 -120.5 -13t-81.5 -13q-4 0 -10 5.5t-6 10.5
q0 14 6.5 46t14 62t8.5 37q3 13 48.5 33t106.5 36t112 16q92 0 173.5 -14t165.5 -28.5t185 -15.5q30 0 76.5 2t95 3.5t85.5 1.5q26 0 42.5 -1.5t16.5 -4.5q0 -4 -11.5 -28t-27 -53.5t-28 -51.5t-14.5 -22q-41 -8 -100 -17t-109 -18q1 -57 34.5 -89t126 -45t269.5 -13h53
q46 0 62 -25t16 -78zM895 -287q0 -6 -14.5 -32t-35 -56.5t-38.5 -53.5t-25 -23q-4 0 -27.5 15t-52 35.5t-50 38.5t-21.5 24q0 7 15 33t36 56.5t38.5 53t22.5 22.5q7 0 31 -15.5t52 -36.5t48.5 -39t20.5 -22z" />
    <glyph glyph-name="uni062D.init" unicode="&#x62d;" horiz-adv-x="1447" arabic-form="initial" 
d="M1331 490q0 -4 -5 -27.5t-12.5 -53t-14 -53t-10.5 -25.5q-40 -2 -108 -2.5t-144 0t-140 0.5q-116 0 -212.5 -48.5t-180.5 -98.5q-72 -42 -147.5 -84t-155 -70t-165.5 -28h-52q-54 0 -66.5 37t-12.5 70t12.5 69t66.5 36h51q109 0 204 16.5t193 55.5q54 23 116 49t119 43
q-56 18 -119.5 46.5t-131 51.5t-134.5 23q-40 0 -78.5 -11t-65 -21.5t-31.5 -10.5q-3 0 -10.5 4.5t-7.5 9.5q0 39 36 101.5t88 100.5q33 23 68 32.5t90 9.5q53 0 123 -28.5t141.5 -63.5t130.5 -54q74 -26 170.5 -43t206.5 -22q68 -3 128 -4.5t60 -6.5z" />
    <glyph glyph-name="uni062D.medi" unicode="&#x62d;" horiz-adv-x="1500" arabic-form="medial" 
d="M1596 107q0 -33 -12.5 -70t-65.5 -37h-52q-174 0 -285.5 13t-165.5 50q-65 44 -65 141q0 29 8 62t17 65h-25q-104 0 -188 -25.5t-157 -65.5t-142 -82q-98 -60 -199 -109t-229 -49h-51q-54 0 -66.5 37t-12.5 70t12.5 69t66.5 36h51q141 0 241 25t182 59q52 22 105.5 45
t107.5 35q-39 15 -106 44.5t-146.5 54t-154.5 24.5q-59 0 -103.5 -21t-49.5 -21q-6 0 -13 4.5t-7 8.5q0 60 42.5 118t95.5 89q30 19 67 27t71 8q44 0 102 -20.5t121.5 -49.5t125 -55.5t111.5 -38.5q76 -17 149.5 -27t159 -14t197.5 -4q5 0 8 -5.5t3 -8.5t-7 -34t-15 -65
t-13 -45q-2 -10 -76.5 -13.5t-173.5 -3.5q-1 -3 -1 -18q0 -39 55 -61q42 -18 105.5 -26t130 -9.5t117.5 -1.5h52q53 0 65.5 -36t12.5 -69z" />
    <glyph glyph-name="uni062D.fina" unicode="&#x62d;" horiz-adv-x="1446" arabic-form="final" 
d="M1542 109q0 -51 -16 -80t-62 -29h-150q-106 0 -188 3.5t-140 21.5q-56 18 -81.5 57t-25.5 86q0 33 8.5 84.5t16.5 89.5q-150 -33 -284 -97.5t-236 -154t-160.5 -196.5t-58.5 -224q0 -244 215 -383t664 -139q96 0 186.5 8.5t153 16.5t72.5 8q7 0 9.5 -11.5t2.5 -15.5
q0 -5 -39.5 -23.5t-99.5 -42.5t-125.5 -49t-118.5 -43.5t-77 -25.5q-52 -14 -101 -16t-73 -2q-133 0 -269 28t-249.5 95.5t-182.5 184.5t-69 294q0 166 69.5 317t191.5 275.5t280 209.5q-67 15 -135 22.5t-117 7.5q-65 0 -120.5 -13t-81.5 -13q-4 0 -10 5.5t-6 10.5
q0 14 6.5 46t14 62t8.5 37q3 13 48.5 33t106.5 36t112 16q92 0 173.5 -14t165.5 -28.5t185 -15.5q30 0 76.5 2t95 3.5t85.5 1.5q26 0 42.5 -1.5t16.5 -4.5q0 -4 -11.5 -28t-27 -53.5t-28 -51.5t-14.5 -22q-41 -8 -100 -17t-109 -18q1 -57 34.5 -89t126 -45t269.5 -13h53
q46 0 62 -25t16 -78z" />
    <glyph glyph-name="uni062E.init" unicode="&#x62e;" horiz-adv-x="1447" arabic-form="initial" 
d="M1331 490q0 -4 -5 -27.5t-12.5 -53t-14 -53t-10.5 -25.5q-40 -2 -108 -2.5t-144 0t-140 0.5q-116 0 -212.5 -48.5t-180.5 -98.5q-72 -42 -147.5 -84t-155 -70t-165.5 -28h-52q-54 0 -66.5 37t-12.5 70t12.5 69t66.5 36h51q109 0 204 16.5t193 55.5q54 23 116 49t119 43
q-56 18 -119.5 46.5t-131 51.5t-134.5 23q-40 0 -78.5 -11t-65 -21.5t-31.5 -10.5q-3 0 -10.5 4.5t-7.5 9.5q0 39 36 101.5t88 100.5q33 23 68 32.5t90 9.5q53 0 123 -28.5t141.5 -63.5t130.5 -54q74 -26 170.5 -43t206.5 -22q68 -3 128 -4.5t60 -6.5zM797 1019
q0 -6 -14.5 -31.5t-35 -56.5t-38.5 -53.5t-25 -22.5q-4 0 -27.5 15t-52 35.5t-50 38.5t-21.5 23q0 7 15 33t36 56.5t38.5 53.5t22.5 23q7 0 31 -15.5t52 -37t48.5 -39t20.5 -22.5z" />
    <glyph glyph-name="uni062E.medi" unicode="&#x62e;" horiz-adv-x="1500" arabic-form="medial" 
d="M1596 107q0 -33 -12.5 -70t-65.5 -37h-52q-174 0 -285.5 13t-165.5 50q-65 44 -65 141q0 29 8 62t17 65h-25q-104 0 -188 -25.5t-157 -65.5t-142 -82q-98 -60 -199 -109t-229 -49h-51q-54 0 -66.5 37t-12.5 70t12.5 69t66.5 36h51q141 0 241 25t182 59q52 22 105.5 45
t107.5 35q-39 15 -106 44.5t-146.5 54t-154.5 24.5q-59 0 -103.5 -21t-49.5 -21q-6 0 -13 4.5t-7 8.5q0 60 42.5 118t95.5 89q30 19 67 27t71 8q44 0 102 -20.5t121.5 -49.5t125 -55.5t111.5 -38.5q76 -17 149.5 -27t159 -14t197.5 -4q5 0 8 -5.5t3 -8.5t-7 -34t-15 -65
t-13 -45q-2 -10 -76.5 -13.5t-173.5 -3.5q-1 -3 -1 -18q0 -39 55 -61q42 -18 105.5 -26t130 -9.5t117.5 -1.5h52q53 0 65.5 -36t12.5 -69zM885 1008q0 -6 -14.5 -32t-35 -56.5t-38.5 -53.5t-26 -23q-3 0 -26.5 15t-52.5 35.5t-50 38.5t-21 24q0 7 15 33t35.5 56.5t38.5 53
t23 22.5q6 0 30 -15.5t52 -36.5t49 -39t21 -22z" />
    <glyph glyph-name="uni062E.fina" unicode="&#x62e;" horiz-adv-x="1446" arabic-form="final" 
d="M1542 109q0 -51 -16 -80t-62 -29h-150q-106 0 -188 3.5t-140 21.5q-56 18 -81.5 57t-25.5 86q0 33 8.5 84.5t16.5 89.5q-150 -33 -284 -97.5t-236 -154t-160.5 -196.5t-58.5 -224q0 -244 215 -383t664 -139q96 0 186.5 8.5t153 16.5t72.5 8q7 0 9.5 -11.5t2.5 -15.5
q0 -5 -39.5 -23.5t-99.5 -42.5t-125.5 -49t-118.5 -43.5t-77 -25.5q-52 -14 -101 -16t-73 -2q-133 0 -269 28t-249.5 95.5t-182.5 184.5t-69 294q0 166 69.5 317t191.5 275.5t280 209.5q-67 15 -135 22.5t-117 7.5q-65 0 -120.5 -13t-81.5 -13q-4 0 -10 5.5t-6 10.5
q0 14 6.5 46t14 62t8.5 37q3 13 48.5 33t106.5 36t112 16q92 0 173.5 -14t165.5 -28.5t185 -15.5q30 0 76.5 2t95 3.5t85.5 1.5q26 0 42.5 -1.5t16.5 -4.5q0 -4 -11.5 -28t-27 -53.5t-28 -51.5t-14.5 -22q-41 -8 -100 -17t-109 -18q1 -57 34.5 -89t126 -45t269.5 -13h53
q46 0 62 -25t16 -78zM912 909q0 -6 -14.5 -31.5t-35 -56.5t-38.5 -53.5t-25 -22.5q-4 0 -27.5 15t-52 35.5t-50 38.5t-21.5 24t15 32t36 57t38.5 53.5t22.5 22.5q7 0 31 -15.5t52 -36.5t48.5 -39t20.5 -23z" />
    <glyph glyph-name="uni062F.fina" unicode="&#x62f;" horiz-adv-x="1115" arabic-form="final" 
d="M1210 107q0 -33 -12 -70t-66 -37h-52q-92 0 -145.5 37t-88.5 108.5t-70 175.5q-30 -62 -64.5 -114.5t-79.5 -87.5q-127 -97 -322 -97q-56 0 -107.5 14.5t-84 45.5t-32.5 80q0 10 9.5 43.5t23.5 73.5t27.5 68.5t21.5 28.5q10 0 15.5 -20t11.5 -32q7 -16 24.5 -36.5t55 -36
t105.5 -15.5q91 0 173 15.5t134 65.5t52 152q-9 89 -28 168.5t-35.5 144.5t-16.5 112q0 13 12 43.5t29 64.5t30.5 58t16.5 24q8 0 14.5 -6.5t7.5 -31.5q16 -104 35 -221t40 -226t43 -191t43 -118q23 -39 65 -58.5t85 -19.5h52q54 0 66 -36t12 -69z" />
    <glyph glyph-name="uni0630.fina" unicode="&#x630;" horiz-adv-x="1115" arabic-form="final" 
d="M1210 107q0 -33 -12 -70t-66 -37h-52q-92 0 -145.5 37t-88.5 108.5t-70 175.5q-30 -62 -64.5 -114.5t-79.5 -87.5q-127 -97 -322 -97q-56 0 -107.5 14.5t-84 45.5t-32.5 80q0 10 9.5 43.5t23.5 73.5t27.5 68.5t21.5 28.5q10 0 15.5 -20t11.5 -32q7 -16 24.5 -36.5t55 -36
t105.5 -15.5q91 0 173 15.5t134 65.5t52 152q-9 89 -28 168.5t-35.5 144.5t-16.5 112q0 13 12 43.5t29 64.5t30.5 58t16.5 24q8 0 14.5 -6.5t7.5 -31.5q16 -104 35 -221t40 -226t43 -191t43 -118q23 -39 65 -58.5t85 -19.5h52q54 0 66 -36t12 -69zM821 1395
q0 -6 -14.5 -31.5t-35 -56.5t-38.5 -53.5t-25 -22.5q-4 0 -27.5 15t-52 35.5t-50 38.5t-21.5 23q0 7 15 33t36 56.5t38.5 53.5t22.5 23q7 0 31 -15.5t52 -37t48.5 -39t20.5 -22.5z" />
    <glyph glyph-name="uni0631.fina" unicode="&#x631;" horiz-adv-x="760" arabic-form="final" 
d="M857 107q0 -33 -12 -70t-66 -37h-53q-19 0 -53 7q-12 -119 -48 -245.5t-132 -244.5q-53 -64 -134.5 -109.5t-184.5 -45.5q-40 0 -93.5 11t-104 27t-84.5 30.5t-34 20.5q0 8 7.5 19.5t13.5 11.5q5 0 31.5 -4.5t57.5 -4.5q93 0 221.5 51t241.5 164q92 92 126 167.5t34 91.5
q0 9 -18.5 35.5t-42.5 58.5t-42.5 57.5t-18.5 32.5q0 4 11 28.5t26 57t27 59.5t15 35h18q28 -32 66.5 -65.5t93.5 -33.5h53q54 0 66 -36t12 -69z" />
    <glyph glyph-name="uni0632.fina" unicode="&#x632;" horiz-adv-x="760" arabic-form="final" 
d="M857 107q0 -33 -12 -70t-66 -37h-53q-19 0 -53 7q-12 -119 -48 -245.5t-132 -244.5q-53 -64 -134.5 -109.5t-184.5 -45.5q-40 0 -93.5 11t-104 27t-84.5 30.5t-34 20.5q0 8 7.5 19.5t13.5 11.5q5 0 31.5 -4.5t57.5 -4.5q93 0 221.5 51t241.5 164q92 92 126 167.5t34 91.5
q0 9 -18.5 35.5t-42.5 58.5t-42.5 57.5t-18.5 32.5q0 4 11 28.5t26 57t27 59.5t15 35h18q28 -32 66.5 -65.5t93.5 -33.5h53q54 0 66 -36t12 -69zM667 620q0 -6 -14.5 -31.5t-34.5 -56.5t-38.5 -53.5t-25.5 -22.5q-4 0 -27 15t-52 35.5t-50.5 38.5t-21.5 24t15 32t36 57
t38.5 53.5t22.5 22.5q7 0 31 -15.5t52 -36.5t48.5 -39t20.5 -23z" />
    <glyph glyph-name="uni0633.init" unicode="&#x633;" horiz-adv-x="1368" arabic-form="initial" 
d="M1223 465q0 -42 -11.5 -103t-36 -120.5t-63.5 -99.5t-94 -40q-53 0 -93 23.5t-68.5 55t-45.5 56.5q-30 -50 -71 -104.5t-93.5 -92t-117.5 -37.5q-73 0 -130.5 41t-89.5 112q-54 -79 -124 -117.5t-150 -38.5h-51q-54 0 -66.5 37t-12.5 70t12.5 69t66.5 36h51
q100 0 161 28.5t95 66t51.5 66t30.5 28.5q18 0 23 -28t15 -64.5t40.5 -64t98.5 -27.5q78 0 140.5 38.5t101 101.5t45.5 135q3 30 24 30q4 0 11 -9t10 -27q13 -62 50.5 -99t81.5 -53t77 -16q14 0 34 13t20 26q0 18 -20 34t-39.5 27t-19.5 14q0 4 7.5 37t19 74t23.5 71.5
t20 30.5q16 0 36.5 -31.5t35.5 -73.5t15 -75z" />
    <glyph glyph-name="uni0633.medi" unicode="&#x633;" horiz-adv-x="1477" arabic-form="medial" 
d="M1571 103q0 -34 -10 -68.5t-63 -34.5h-53q-86 0 -147 64t-103 168q-38 -87 -87 -142t-129 -55q-76 0 -111.5 38t-53.5 96q-54 -81 -119 -123.5t-171 -42.5q-66 0 -122 34.5t-93 118.5q-54 -86 -127.5 -121t-146.5 -35h-51q-54 0 -66.5 34.5t-12.5 68.5q0 32 12.5 70.5
t66.5 38.5h51q100 0 159.5 30.5t92.5 70.5t50 70.5t30 30.5q18 0 22.5 -29.5t14.5 -68t42.5 -68.5t107.5 -30q92 0 152 34.5t95.5 79t54 78.5t28.5 34q27 0 27 -38q0 -23 8 -54t31.5 -54.5t71.5 -23.5q51 0 83.5 26.5t52.5 61t31 61t19 26.5q21 0 28 -32t31.5 -80.5
t68.5 -86.5t109 -38h53q53 0 63 -38.5t10 -70.5z" />
    <glyph glyph-name="uni0633.fina" unicode="&#x633;" horiz-adv-x="2055" arabic-form="final" 
d="M2149 107q0 -44 -12 -75.5t-65 -31.5h-53q-82 0 -141 61t-106 173q-39 -87 -87 -142t-128 -55q-59 0 -92 22t-49 53t-26 59q-36 -54 -68 -88.5t-75.5 -50.5t-113.5 -17q-1 -72 -6.5 -121.5t-19.5 -115.5q-31 -145 -104 -238t-172 -145.5t-208.5 -73.5t-213.5 -21
q-125 0 -206.5 51t-121.5 133.5t-40 175.5q0 73 23.5 146.5t55 135t58 98.5t32.5 37q8 0 18.5 -7.5t10.5 -12.5q0 -11 -26 -53t-52 -106t-26 -140q0 -82 50.5 -135.5t126.5 -80.5t154 -27q143 0 274 25.5t200 77.5q61 44 85 105t24 149q0 89 -20 147t-40.5 91t-20.5 47
q0 8 12.5 38.5t30 66.5t33 62.5t20.5 26.5q21 -23 37 -62.5t25 -70.5q94 0 154.5 34.5t96.5 79.5t54.5 79.5t27.5 34.5q28 0 28 -38q0 -23 8 -54t31.5 -54.5t71.5 -23.5q51 0 83.5 26.5t52.5 61t31 61t19 26.5q21 0 28 -32q7 -28 31.5 -77.5t68 -89.5t107.5 -40h53
q53 0 65 -28t12 -77z" />
    <glyph glyph-name="uni0634.init" unicode="&#x634;" horiz-adv-x="1368" arabic-form="initial" 
d="M1223 465q0 -42 -11.5 -103t-36 -120.5t-63.5 -99.5t-94 -40q-53 0 -93 23.5t-68.5 55t-45.5 56.5q-30 -50 -71 -104.5t-93.5 -92t-117.5 -37.5q-73 0 -130.5 41t-89.5 112q-54 -79 -124 -117.5t-150 -38.5h-51q-54 0 -66.5 37t-12.5 70t12.5 69t66.5 36h51
q100 0 161 28.5t95 66t51.5 66t30.5 28.5q18 0 23 -28t15 -64.5t40.5 -64t98.5 -27.5q78 0 140.5 38.5t101 101.5t45.5 135q3 30 24 30q4 0 11 -9t10 -27q13 -62 50.5 -99t81.5 -53t77 -16q14 0 34 13t20 26q0 18 -20 34t-39.5 27t-19.5 14q0 4 7.5 37t19 74t23.5 71.5
t20 30.5q16 0 36.5 -31.5t35.5 -73.5t15 -75zM813 1188q0 -6 -14.5 -31.5t-34 -55.5t-37 -52.5t-23.5 -22.5q-5 0 -28 15t-50.5 36t-48 39t-20.5 23q0 7 14.5 32t34.5 54.5t37.5 51.5t22.5 22q6 0 29 -15t50 -36t47.5 -38t20.5 -22zM979 908q0 -6 -14 -31t-33.5 -55
t-36.5 -52t-23 -22q-4 0 -25 14.5t-47.5 34.5t-46.5 35.5t-22 16.5q-7 6 -13 6q-4 0 -10 -7q-1 -2 -14.5 -21.5t-31.5 -44t-33.5 -43.5t-20.5 -19t-27.5 15t-50 35.5t-48.5 38t-21 22.5q0 6 15 31.5t35.5 55.5t37 52t20.5 22q7 0 28 -14.5t45 -33.5t42.5 -34.5t19.5 -17.5
q10 -9 14 -9q7 0 15 12q1 2 14.5 21.5t31.5 43.5t33.5 42.5t19.5 18.5q5 0 28.5 -15.5t51 -36.5t47.5 -38.5t20 -22.5z" />
    <glyph glyph-name="uni0634.medi" unicode="&#x634;" horiz-adv-x="1477" arabic-form="medial" 
d="M1571 103q0 -34 -10 -68.5t-63 -34.5h-53q-86 0 -147 64t-103 168q-38 -87 -87 -142t-129 -55q-76 0 -111.5 38t-53.5 96q-54 -81 -119 -123.5t-171 -42.5q-66 0 -122 34.5t-93 118.5q-54 -86 -127.5 -121t-146.5 -35h-51q-54 0 -66.5 34.5t-12.5 68.5q0 32 12.5 70.5
t66.5 38.5h51q100 0 159.5 30.5t92.5 70.5t50 70.5t30 30.5q18 0 22.5 -29.5t14.5 -68t42.5 -68.5t107.5 -30q92 0 152 34.5t95.5 79t54 78.5t28.5 34q27 0 27 -38q0 -23 8 -54t31.5 -54.5t71.5 -23.5q51 0 83.5 26.5t52.5 61t31 61t19 26.5q21 0 28 -32t31.5 -80.5
t68.5 -86.5t109 -38h53q53 0 63 -38.5t10 -70.5zM841 1056q0 -6 -14 -31.5t-33.5 -55.5t-37 -52.5t-23.5 -22.5q-5 0 -28 15t-51 36t-48.5 39t-20.5 23q0 7 15 32t35 54.5t37 51.5t23 22q5 0 28 -15t50.5 -36t47.5 -38t20 -22zM1008 776q0 -6 -14.5 -31t-34 -55t-36.5 -52
t-23 -22q-3 0 -24.5 14.5t-47.5 34.5t-46.5 35.5t-21.5 16.5q-8 6 -13 6t-10 -7q-2 -2 -15.5 -21.5t-31 -44t-33 -43.5t-21.5 -19q-4 0 -26.5 15t-50.5 35.5t-48.5 38t-20.5 22.5q0 6 15 31.5t35 55.5t37 52t20 22q8 0 29 -14.5t45 -33.5t42 -34.5t20 -17.5q10 -9 14 -9
q6 0 14 12q2 2 15.5 21.5t31.5 43.5t33 42.5t19 18.5q6 0 29 -15.5t50.5 -36.5t48 -38.5t20.5 -22.5z" />
    <glyph glyph-name="uni0634.fina" unicode="&#x634;" horiz-adv-x="2055" arabic-form="final" 
d="M2149 107q0 -44 -12 -75.5t-65 -31.5h-53q-82 0 -141 61t-106 173q-39 -87 -87 -142t-128 -55q-59 0 -92 22t-49 53t-26 59q-36 -54 -68 -88.5t-75.5 -50.5t-113.5 -17q-1 -72 -6.5 -121.5t-19.5 -115.5q-31 -145 -104 -238t-172 -145.5t-208.5 -73.5t-213.5 -21
q-125 0 -206.5 51t-121.5 133.5t-40 175.5q0 73 23.5 146.5t55 135t58 98.5t32.5 37q8 0 18.5 -7.5t10.5 -12.5q0 -11 -26 -53t-52 -106t-26 -140q0 -82 50.5 -135.5t126.5 -80.5t154 -27q143 0 274 25.5t200 77.5q61 44 85 105t24 149q0 89 -20 147t-40.5 91t-20.5 47
q0 8 12.5 38.5t30 66.5t33 62.5t20.5 26.5q21 -23 37 -62.5t25 -70.5q94 0 154.5 34.5t96.5 79.5t54.5 79.5t27.5 34.5q28 0 28 -38q0 -23 8 -54t31.5 -54.5t71.5 -23.5q51 0 83.5 26.5t52.5 61t31 61t19 26.5q21 0 28 -32q7 -28 31.5 -77.5t68 -89.5t107.5 -40h53
q53 0 65 -28t12 -77zM1512 1072q0 -6 -14.5 -31.5t-34 -55.5t-37 -52.5t-23.5 -22.5q-5 0 -28 15t-50.5 36t-48 39t-20.5 23q0 7 14.5 32t34.5 54.5t37.5 51.5t22.5 22q6 0 29 -15t50 -36t47.5 -38t20.5 -22zM1678 792q0 -6 -14 -31t-33.5 -55t-36.5 -52t-23 -22
q-4 0 -25 14.5t-47.5 34.5t-46.5 35.5t-22 16.5q-7 6 -13 6q-4 0 -10 -7q-1 -2 -14.5 -21.5t-31.5 -44t-33.5 -43.5t-20.5 -19t-27.5 15t-50 35.5t-48.5 38t-21 22.5q0 6 15 31.5t35.5 55.5t37 52t20.5 22q7 0 28 -14.5t45 -33.5t42.5 -34.5t19.5 -17.5q10 -9 14 -9
q7 0 15 12q1 2 14.5 21.5t31.5 43.5t33.5 42.5t19.5 18.5q5 0 28.5 -15.5t51 -36.5t47.5 -38.5t20 -22.5z" />
    <glyph glyph-name="uni0635.init" unicode="&#x635;" horiz-adv-x="1746" arabic-form="initial" 
d="M1602 527q0 -101 -49 -178.5t-130.5 -135t-181.5 -96.5t-203.5 -63t-196 -35.5t-157.5 -12.5q-8 -17 -22 -57t-26 -82t-15 -67q-5 0 -17.5 14.5t-22.5 32t-10 27.5q0 13 13.5 56t24.5 76q-109 0 -190.5 24.5t-128.5 126.5q-39 -61 -99 -109t-156 -48h-51q-54 0 -66.5 32
t-12.5 75q0 46 12.5 75.5t66.5 29.5h51q91 0 149.5 29t93 67t52 67t24.5 29q14 0 19.5 -32.5t11.5 -59.5q9 -47 52 -68.5t98.5 -27.5t100.5 -6h58q52 82 129.5 176.5t172 179t198 138.5t206.5 54q73 0 117.5 -39t64.5 -93t20 -99zM1483 428q0 27 -54 62t-137 35
q-85 0 -183 -39t-184 -109.5t-137 -163.5q116 1 238 26t226 61t167.5 71t63.5 57z" />
    <glyph glyph-name="uni0635.medi" unicode="&#x635;" horiz-adv-x="1732" arabic-form="medial" 
d="M1822 107q0 -33 -12 -70t-66 -37h-52q-164 0 -333.5 0.5t-338.5 0.5h-168.5t-165.5 -1q-19 -37 -33.5 -86t-24 -85t-12.5 -36q-15 0 -32 28t-17 48q0 9 10.5 51.5t23.5 79.5q-109 0 -189 26.5t-127 130.5q-39 -61 -99 -109t-156 -48h-52q-53 0 -65.5 37t-12.5 70t12.5 69
t65.5 36h52q91 0 149.5 29t93 67t51.5 67t25 29q14 0 19.5 -33t11.5 -59q10 -47 53 -68.5t98 -27.5t101 -6h56q50 79 129 173.5t177 179.5t205.5 140t213.5 55q62 0 103.5 -39t62.5 -92.5t21 -97.5q0 -203 -239 -333q117 10 190 13t141 3h52q54 0 66 -36t12 -69zM1478 424
q0 22 -25.5 38.5t-61 28t-66 17.5t-40.5 6q-131 0 -264.5 -72t-232.5 -230q114 1 234.5 25t224 59t167.5 69.5t64 58.5z" />
    <glyph glyph-name="uni0635.fina" unicode="&#x635;" horiz-adv-x="2370" arabic-form="final" 
d="M2467 107q0 -33 -12.5 -70t-65.5 -37h-53q-164 0 -342.5 3t-336.5 10q-79 -1 -161 -4t-164 -4q-19 -40 -33.5 -89.5t-24.5 -86t-13 -36.5q-14 0 -32 28t-18 48q0 9 14.5 54.5t28.5 83.5q-19 0 -54 5.5t-49 11.5q0 -56 -2 -91.5t-7 -69t-15 -82.5q-30 -145 -100 -240
t-165.5 -149.5t-204.5 -76.5t-218 -22q-127 0 -216 51t-135.5 134t-46.5 178q0 80 25 157t58.5 139.5t61.5 99.5t34 37q9 0 17.5 -8.5t8.5 -14.5q0 -11 -27 -53t-54.5 -108t-27.5 -149q0 -73 35.5 -122t91.5 -77.5t120 -41t121 -12.5q81 0 168 12.5t161 36t117 55.5
q60 45 85.5 114t25.5 166q0 87 -22 142.5t-44.5 86t-22.5 42.5q0 8 12 37t28.5 63.5t31 59.5t19.5 25q17 -24 33 -57.5t24 -64.5q27 -4 85 -7.5t129 -3.5q49 79 127.5 172.5t175.5 178t203.5 138.5t212.5 54q63 0 106 -38t65 -90t22 -96q0 -203 -242 -333q117 10 190 13
t141 3h53q53 0 65.5 -36t12.5 -69zM2124 424q0 25 -39 45.5t-86 32.5t-68 12q-82 0 -173 -33.5t-175.5 -100t-148.5 -167.5q113 1 233.5 24.5t224.5 58.5t168 69.5t64 58.5z" />
    <glyph glyph-name="uni0636.init" unicode="&#x636;" horiz-adv-x="1746" arabic-form="initial" 
d="M1602 527q0 -101 -49 -178.5t-130.5 -135t-181.5 -96.5t-203.5 -63t-196 -35.5t-157.5 -12.5q-8 -17 -22 -57t-26 -82t-15 -67q-5 0 -17.5 14.5t-22.5 32t-10 27.5q0 13 13.5 56t24.5 76q-109 0 -190.5 24.5t-128.5 126.5q-39 -61 -99 -109t-156 -48h-51q-54 0 -66.5 32
t-12.5 75q0 46 12.5 75.5t66.5 29.5h51q91 0 149.5 29t93 67t52 67t24.5 29q14 0 19.5 -32.5t11.5 -59.5q9 -47 52 -68.5t98.5 -27.5t100.5 -6h58q52 82 129.5 176.5t172 179t198 138.5t206.5 54q73 0 117.5 -39t64.5 -93t20 -99zM1483 428q0 27 -54 62t-137 35
q-85 0 -183 -39t-184 -109.5t-137 -163.5q116 1 238 26t226 61t167.5 71t63.5 57zM989 917q0 -6 -14.5 -31.5t-35 -56.5t-38.5 -53.5t-25 -22.5q-4 0 -27.5 15t-52 35.5t-50 38.5t-21.5 24t15 32t36 57t38.5 53.5t22.5 22.5q7 0 31 -15.5t52 -36.5t48.5 -39t20.5 -23z" />
    <glyph glyph-name="uni0636.medi" unicode="&#x636;" horiz-adv-x="1732" arabic-form="medial" 
d="M1827 107q0 -33 -12.5 -70t-65.5 -37h-52q-164 0 -333.5 0.5t-338.5 0.5h-168.5t-166.5 -1q-18 -37 -33 -86t-24 -85t-12 -36q-15 0 -32 28t-17 48q0 9 10 51.5t24 79.5q-109 0 -189 26.5t-127 130.5q-40 -61 -99.5 -109t-155.5 -48h-52q-53 0 -65.5 37t-12.5 70t12.5 69
t65.5 36h52q90 0 148.5 29t93 67t52 67t25.5 29q13 0 19 -33t12 -59q10 -47 52.5 -68.5t97.5 -27.5t101 -6h57q50 79 129 173.5t177 179.5t205 140t213 55q63 0 104.5 -39t62.5 -92.5t21 -97.5q0 -203 -239 -333q117 10 190 13t141 3h52q53 0 65.5 -36t12.5 -69zM1483 424
q0 22 -25.5 38.5t-61 28t-66 17.5t-40.5 6q-131 0 -265 -72t-232 -230q113 1 234 25t224.5 59t167.5 69.5t64 58.5zM1031 968q0 -6 -14.5 -31.5t-35 -56.5t-38.5 -53.5t-25 -22.5q-4 0 -27.5 15t-52 35.5t-50 38.5t-21.5 24t15 32t36 57t38.5 53.5t22.5 22.5q7 0 31 -15.5
t52 -36.5t48.5 -39t20.5 -23z" />
    <glyph glyph-name="uni0636.fina" unicode="&#x636;" horiz-adv-x="2370" arabic-form="final" 
d="M2467 107q0 -33 -12.5 -70t-65.5 -37h-53q-164 0 -342.5 3t-336.5 10q-79 -1 -161 -4t-164 -4q-19 -40 -33.5 -89.5t-24.5 -86t-13 -36.5q-14 0 -32 28t-18 48q0 9 14.5 54.5t28.5 83.5q-19 0 -54 5.5t-49 11.5q0 -56 -2 -91.5t-7 -69t-15 -82.5q-30 -145 -100 -240
t-165.5 -149.5t-204.5 -76.5t-218 -22q-127 0 -216 51t-135.5 134t-46.5 178q0 80 25 157t58.5 139.5t61.5 99.5t34 37q9 0 17.5 -8.5t8.5 -14.5q0 -11 -27 -53t-54.5 -108t-27.5 -149q0 -73 35.5 -122t91.5 -77.5t120 -41t121 -12.5q81 0 168 12.5t161 36t117 55.5
q60 45 85.5 114t25.5 166q0 87 -22 142.5t-44.5 86t-22.5 42.5q0 8 12 37t28.5 63.5t31 59.5t19.5 25q17 -24 33 -57.5t24 -64.5q27 -4 85 -7.5t129 -3.5q49 79 127.5 172.5t175.5 178t203.5 138.5t212.5 54q63 0 106 -38t65 -90t22 -96q0 -203 -242 -333q117 10 190 13
t141 3h53q53 0 65.5 -36t12.5 -69zM2124 424q0 25 -39 45.5t-86 32.5t-68 12q-82 0 -173 -33.5t-175.5 -100t-148.5 -167.5q113 1 233.5 24.5t224.5 58.5t168 69.5t64 58.5zM1588 894q0 -6 -14.5 -32t-35 -56.5t-38.5 -53.5t-25 -23q-4 0 -27.5 15t-52 35.5t-50 38.5
t-21.5 24q0 7 15 33t36 56.5t38.5 53t22.5 22.5q7 0 31 -15.5t52 -36.5t48.5 -39t20.5 -22z" />
    <glyph glyph-name="uni0637.init" unicode="&#x637;" horiz-adv-x="1219" arabic-form="initial" 
d="M1123 535q0 -53 -18.5 -117t-65.5 -126t-134 -111q-196 -109 -422.5 -145t-447.5 -36h-51q-54 0 -66.5 37t-12.5 70t12.5 69t66.5 36h51q35 0 62 2t49 9q28 15 54 34t42 39q17 58 23.5 121.5t6.5 132.5q0 111 -17.5 234.5t-40 237.5t-40 198t-17.5 116q0 31 17 76.5
t38.5 80.5t34.5 35q5 0 25.5 -27t45 -63t42.5 -65t18 -33q0 -8 -17.5 -26.5t-35 -48t-17.5 -72.5q0 -65 14 -146t28 -185.5t14 -242.5q0 -25 -2.5 -70t-6.5 -90t-9 -71q89 93 187 179t199 140.5t197 54.5q66 0 109 -34.5t64 -86.5t21 -106zM1001 428q0 32 -52.5 63
t-140.5 31q-116 0 -244 -67.5t-252 -237.5q143 5 267.5 31.5t219.5 62t148.5 68t53.5 49.5z" />
    <glyph glyph-name="uni0637.medi" unicode="&#x637;" horiz-adv-x="1318" arabic-form="medial" 
d="M1413 107q0 -33 -12.5 -70t-65.5 -37h-1100q-11 -20 -25.5 -59.5t-27 -81.5t-16.5 -70q-12 11 -31 32.5t-19 42.5q0 12 12.5 53t27.5 83h-172q-54 0 -66.5 37t-12.5 70t12.5 69t66.5 36h51q69 0 115 3t72 13q55 19 69 111q9 58 12.5 108.5t3.5 111.5q0 113 -15.5 222.5
t-32.5 222.5q-15 91 -39 182t-24 152q0 35 17 79t39 76.5t36 32.5l124 -184q-23 -19 -46 -61t-23 -92q0 -63 13 -136.5t26 -177.5t13 -257q0 -43 -6.5 -115.5t-17.5 -126.5q97 100 197 186t197.5 138.5t184.5 52.5q64 0 110.5 -33t72 -85.5t25.5 -109.5q0 -115 -69.5 -196.5
t-158.5 -135.5q50 3 125.5 11t146.5 8h133q53 0 65.5 -36t12.5 -69zM1037 424q0 24 -54.5 58t-146.5 34q-135 0 -268 -85t-228 -219q130 1 254.5 25t224 59t159 70t59.5 58z" />
    <glyph glyph-name="uni0637.fina" unicode="&#x637;" horiz-adv-x="1638" arabic-form="final" 
d="M1736 107q0 -46 -12.5 -76.5t-65.5 -30.5h-55h-131h-223h-266.5h-264.5h-216h-119q-50 0 -76.5 3.5t-50.5 11.5q-10 3 -44 29.5t-73.5 61.5t-68.5 65.5t-29 41.5q0 16 19 16q74 0 144 -10.5t146 -10.5q96 0 163.5 16t119.5 70q11 29 18.5 69.5t11.5 77.5t4 57
q0 126 -9.5 226t-30.5 220q-22 124 -46.5 224.5t-24.5 154.5q0 30 17.5 76t39 82t33.5 36q6 0 26 -26.5t43.5 -62.5t40.5 -65.5t17 -34.5q-23 -18 -47.5 -53t-24.5 -100q0 -40 13.5 -122t27 -181t13.5 -189q0 -30 -2 -82t-5.5 -107t-8.5 -94q159 168 302.5 265t252.5 97
q101 0 155.5 -70t54.5 -157q0 -103 -64.5 -194t-177.5 -155q95 12 179 19t133 7h84q53 0 65.5 -29t12.5 -76zM1386 434q0 21 -28.5 42t-72 35t-88.5 14q-78 0 -167.5 -28t-177 -95t-158.5 -185q163 9 291.5 38.5t218 67t136 69t46.5 42.5z" />
    <glyph glyph-name="uni0638.init" unicode="&#x638;" horiz-adv-x="1219" arabic-form="initial" 
d="M1123 535q0 -53 -18.5 -117t-65.5 -126t-134 -111q-196 -109 -422.5 -145t-447.5 -36h-51q-54 0 -66.5 37t-12.5 70t12.5 69t66.5 36h51q35 0 62 2t49 9q28 15 54 34t42 39q17 58 23.5 121.5t6.5 132.5q0 111 -17.5 234.5t-40 237.5t-40 198t-17.5 116q0 31 17 76.5
t38.5 80.5t34.5 35q5 0 25.5 -27t45 -63t42.5 -65t18 -33q0 -8 -17.5 -26.5t-35 -48t-17.5 -72.5q0 -65 14 -146t28 -185.5t14 -242.5q0 -25 -2.5 -70t-6.5 -90t-9 -71q89 93 187 179t199 140.5t197 54.5q66 0 109 -34.5t64 -86.5t21 -106zM1001 428q0 32 -52.5 63
t-140.5 31q-116 0 -244 -67.5t-252 -237.5q143 5 267.5 31.5t219.5 62t148.5 68t53.5 49.5zM850 1082q0 -6 -14.5 -32t-34.5 -56.5t-38.5 -53.5t-25.5 -23q-4 0 -27 15t-52 35.5t-50.5 38.5t-21.5 24q0 7 15 33t36 56.5t38.5 53t22.5 22.5q7 0 31 -15.5t52 -36.5t48.5 -39
t20.5 -22z" />
    <glyph glyph-name="uni0638.medi" unicode="&#x638;" horiz-adv-x="1318" arabic-form="medial" 
d="M1413 107q0 -33 -12.5 -70t-65.5 -37h-1100q-11 -20 -25.5 -59.5t-27 -81.5t-16.5 -70q-12 11 -31 32.5t-19 42.5q0 12 12.5 53t27.5 83h-172q-54 0 -66.5 37t-12.5 70t12.5 69t66.5 36h51q69 0 115 3t72 13q55 19 69 111q9 58 12.5 108.5t3.5 111.5q0 113 -15.5 222.5
t-32.5 222.5q-15 91 -39 182t-24 152q0 35 17 79t39 76.5t36 32.5l124 -184q-23 -19 -46 -61t-23 -92q0 -63 13 -136.5t26 -177.5t13 -257q0 -43 -6.5 -115.5t-17.5 -126.5q97 100 197 186t197.5 138.5t184.5 52.5q64 0 110.5 -33t72 -85.5t25.5 -109.5q0 -115 -69.5 -196.5
t-158.5 -135.5q50 3 125.5 11t146.5 8h133q53 0 65.5 -36t12.5 -69zM1037 424q0 24 -54.5 58t-146.5 34q-135 0 -268 -85t-228 -219q130 1 254.5 25t224 59t159 70t59.5 58zM865 1059q0 -6 -14.5 -32t-35 -56.5t-38.5 -53.5t-26 -23q-3 0 -26.5 15t-52.5 35.5t-50 38.5
t-21 24q0 7 15 33t35.5 56.5t38.5 53t23 22.5q6 0 30 -15.5t52 -36.5t49 -39t21 -22z" />
    <glyph glyph-name="uni0638.fina" unicode="&#x638;" horiz-adv-x="1638" arabic-form="final" 
d="M1736 107q0 -46 -12.5 -76.5t-65.5 -30.5h-55h-131h-223h-266.5h-264.5h-216h-119q-50 0 -76.5 3.5t-50.5 11.5q-10 3 -44 29.5t-73.5 61.5t-68.5 65.5t-29 41.5q0 16 19 16q74 0 144 -10.5t146 -10.5q96 0 163.5 16t119.5 70q11 29 18.5 69.5t11.5 77.5t4 57
q0 126 -9.5 226t-30.5 220q-22 124 -46.5 224.5t-24.5 154.5q0 30 17.5 76t39 82t33.5 36q6 0 26 -26.5t43.5 -62.5t40.5 -65.5t17 -34.5q-23 -18 -47.5 -53t-24.5 -100q0 -40 13.5 -122t27 -181t13.5 -189q0 -30 -2 -82t-5.5 -107t-8.5 -94q159 168 302.5 265t252.5 97
q101 0 155.5 -70t54.5 -157q0 -103 -64.5 -194t-177.5 -155q95 12 179 19t133 7h84q53 0 65.5 -29t12.5 -76zM1386 434q0 21 -28.5 42t-72 35t-88.5 14q-78 0 -167.5 -28t-177 -95t-158.5 -185q163 9 291.5 38.5t218 67t136 69t46.5 42.5zM1223 1057q0 -6 -14.5 -31.5
t-35 -56.5t-38.5 -53.5t-25 -22.5q-4 0 -27.5 15t-52 35.5t-50 38.5t-21.5 23q0 7 15 33t36 56.5t38.5 53.5t22.5 23q7 0 31 -15.5t52 -37t48.5 -39t20.5 -22.5z" />
    <glyph glyph-name="uni0639.init" unicode="&#x639;" horiz-adv-x="1089" arabic-form="initial" 
d="M1000 548q0 -5 -6.5 -37t-13.5 -65q-5 -22 -17.5 -53t-29.5 -37q-51 -21 -122 -52t-147.5 -65.5t-145.5 -64.5q-83 -36 -165.5 -76.5t-162.5 -69t-155 -28.5h-51q-54 0 -66.5 37t-12.5 70t12.5 69t66.5 36h51q101 0 207 54q-37 31 -76.5 73t-39.5 102q0 74 43.5 152.5
t108 147t127.5 110.5q50 33 98 44t84 11q27 0 69.5 -22.5t85 -54.5t71.5 -62.5t29 -46.5q0 -20 -16 -20q-5 0 -32.5 11t-64 22t-69.5 11q-49 0 -115 -17.5t-127 -40.5q-86 -33 -116 -54t-30 -39q0 -29 27.5 -62.5t70.5 -64.5t90 -50.5t86 -19.5q53 0 122.5 24.5t138 57
t119 57t66.5 24.5q8 0 8 -11z" />
    <glyph glyph-name="uni0639.medi" unicode="&#x639;" horiz-adv-x="870" arabic-form="medial" 
d="M965 107q0 -33 -12.5 -70t-65.5 -37h-53q-66 0 -128.5 31.5t-115.5 76.5t-92.5 85t-59.5 57q-48 -49 -111.5 -107.5t-137.5 -100.5t-154 -42h-51q-54 0 -66.5 37t-12.5 70t12.5 69t66.5 36h51q59 0 133 22t151 84q-94 45 -147.5 71t-53.5 37q0 17 15.5 56.5t52.5 82
t101.5 73t163.5 30.5q78 0 145 -28.5t107.5 -72.5t40.5 -91q0 -45 -46 -88.5t-127 -72.5q61 -46 128 -74.5t135 -28.5h53q53 0 65.5 -36t12.5 -69z" />
    <glyph glyph-name="uni0639.fina" unicode="&#x639;" horiz-adv-x="1147" arabic-form="final" 
d="M1442 -847q0 -7 -49.5 -28t-125 -48.5t-157.5 -53.5t-149 -43.5t-96 -17.5q-147 0 -289 25.5t-258 92.5t-185 189t-69 315q0 150 57 285.5t151 253.5t203 215q-33 26 -78.5 48t-79 38t-33.5 25q0 21 19 59.5t57.5 79t96.5 69t135 28.5q101 0 166.5 -38t97.5 -82.5
t32 -65.5q0 -37 -37 -79.5t-121 -78.5q69 -74 161 -101.5t220 -27.5h53q53 0 65.5 -28.5t12.5 -76.5q0 -46 -12.5 -76.5t-65.5 -30.5h-53q-88 0 -164.5 15.5t-160 70.5t-192.5 175q-104 -60 -204 -146t-165 -196.5t-65 -243.5q0 -172 103.5 -286.5t296 -171.5t458.5 -57
q144 0 250.5 12t157.5 12q10 0 13 -11t3 -20z" />
    <glyph glyph-name="uni063A.init" unicode="&#x63a;" horiz-adv-x="1089" arabic-form="initial" 
d="M1000 548q0 -5 -6.5 -37t-13.5 -65q-5 -22 -17.5 -53t-29.5 -37q-51 -21 -122 -52t-147.5 -65.5t-145.5 -64.5q-83 -36 -165.5 -76.5t-162.5 -69t-155 -28.5h-51q-54 0 -66.5 37t-12.5 70t12.5 69t66.5 36h51q101 0 207 54q-37 31 -76.5 73t-39.5 102q0 74 43.5 152.5
t108 147t127.5 110.5q50 33 98 44t84 11q27 0 69.5 -22.5t85 -54.5t71.5 -62.5t29 -46.5q0 -20 -16 -20q-5 0 -32.5 11t-64 22t-69.5 11q-49 0 -115 -17.5t-127 -40.5q-86 -33 -116 -54t-30 -39q0 -29 27.5 -62.5t70.5 -64.5t90 -50.5t86 -19.5q53 0 122.5 24.5t138 57
t119 57t66.5 24.5q8 0 8 -11zM627 1206q0 -6 -14.5 -32t-34.5 -56.5t-38.5 -53.5t-25.5 -23q-4 0 -27 15t-52 35.5t-50.5 38.5t-21.5 24q0 7 15 33t36 56.5t38.5 53t22.5 22.5q7 0 31 -15.5t52 -36.5t48.5 -39t20.5 -22z" />
    <glyph glyph-name="uni063A.medi" unicode="&#x63a;" horiz-adv-x="870" arabic-form="medial" 
d="M965 107q0 -33 -12.5 -70t-65.5 -37h-53q-66 0 -128.5 31.5t-115.5 76.5t-92.5 85t-59.5 57q-48 -49 -111.5 -107.5t-137.5 -100.5t-154 -42h-51q-54 0 -66.5 37t-12.5 70t12.5 69t66.5 36h51q59 0 133 22t151 84q-94 45 -147.5 71t-53.5 37q0 17 15.5 56.5t52.5 82
t101.5 73t163.5 30.5q78 0 145 -28.5t107.5 -72.5t40.5 -91q0 -45 -46 -88.5t-127 -72.5q61 -46 128 -74.5t135 -28.5h53q53 0 65.5 -36t12.5 -69zM569 1048q0 -6 -14.5 -31.5t-34.5 -56.5t-38.5 -53.5t-25.5 -22.5q-4 0 -27 15t-52 35.5t-50.5 38.5t-21.5 24t15 32t36 57
t38.5 53.5t22.5 22.5q7 0 31 -15.5t52 -36.5t48.5 -39t20.5 -23z" />
    <glyph glyph-name="uni063A.fina" unicode="&#x63a;" horiz-adv-x="1147" arabic-form="final" 
d="M1442 -847q0 -7 -49.5 -28t-125 -48.5t-157.5 -53.5t-149 -43.5t-96 -17.5q-147 0 -289 25.5t-258 92.5t-185 189t-69 315q0 150 57 285.5t151 253.5t203 215q-33 26 -78.5 48t-79 38t-33.5 25q0 21 19 59.5t57.5 79t96.5 69t135 28.5q101 0 166.5 -38t97.5 -82.5
t32 -65.5q0 -37 -37 -79.5t-121 -78.5q69 -74 161 -101.5t220 -27.5h53q53 0 65.5 -28.5t12.5 -76.5q0 -46 -12.5 -76.5t-65.5 -30.5h-53q-88 0 -164.5 15.5t-160 70.5t-192.5 175q-104 -60 -204 -146t-165 -196.5t-65 -243.5q0 -172 103.5 -286.5t296 -171.5t458.5 -57
q144 0 250.5 12t157.5 12q10 0 13 -11t3 -20zM716 1012q0 -6 -14.5 -32t-34.5 -56.5t-38.5 -53.5t-25.5 -23q-4 0 -27 15t-52 35.5t-50.5 38.5t-21.5 24q0 7 15 33t36 56.5t38.5 53t22.5 22.5q7 0 31 -15.5t52 -36.5t48.5 -39t20.5 -22z" />
    <glyph glyph-name="uni063B.init" unicode="&#x63b;" horiz-adv-x="1220" 
d="M1230 1511q-33 -41 -47.5 -84.5t-26 -75t-35.5 -38.5q-60 -18 -154 -48.5t-203.5 -68t-217.5 -78t-197 -79t-143 -71.5t-54 -54q0 -16 42 -37l107 -53.5t133 -81.5q110 -80 173.5 -183.5t63.5 -219.5q0 -138 -71 -211t-212 -100.5t-353 -27.5h-51q-54 0 -66.5 31.5
t-12.5 75.5q0 45 12.5 75t66.5 30h51q117 0 217 3.5t160 13.5q110 18 149.5 44t39.5 54q0 32 -38 76.5t-88 87t-86 68.5q-40 29 -91.5 53.5t-97 45.5t-67.5 38q-53 41 -53 161q0 61 7.5 113.5t29.5 68.5q71 55 164.5 108t193 100.5t190 85t157.5 61.5q28 10 89 32
t128.5 45.5t117.5 40t55 16.5q4 0 7 -6.5t11 -10.5zM455 1448q0 -6 -14 -31.5t-33.5 -55.5t-36.5 -52t-23 -22q-4 0 -25 15t-47.5 34.5t-46.5 35t-22 17.5q-7 6 -13 6q-4 0 -10 -8q-1 -1 -14.5 -20.5t-31.5 -44.5t-33.5 -43.5t-20.5 -18.5q-4 0 -27 14.5t-50.5 35t-48.5 38
t-21 22.5q0 7 15 32t35.5 55t37 52.5t20.5 22.5q7 0 28 -14.5t45.5 -34t42.5 -35t19 -16.5q10 -10 14 -10q7 0 15 13q1 2 14.5 21t32 43.5t33.5 42.5t19 18q6 0 29 -15.5t50.5 -36.5t47.5 -38.5t20 -21.5z" />
    <glyph glyph-name="uni063B.medi" unicode="&#x63b;" horiz-adv-x="1363" 
d="M1460 107q0 -33 -12.5 -70t-65.5 -37h-54q-74 0 -132.5 35t-124 97t-158 145.5t-234.5 180.5q6 -25 7 -58t1 -53q0 -121 -64 -198t-207 -113t-381 -36h-51q-54 0 -66.5 37t-12.5 70t12.5 69t66.5 36h51q159 0 291 14.5t211 51.5t79 103q0 73 -66.5 141t-153.5 114
q-54 29 -106 48t-89 52q-19 18 -42.5 55t-40.5 80.5t-17 79.5q0 30 23.5 97t89.5 119q72 57 173.5 117.5t215 119t223.5 110t201.5 91t149 62t64.5 22.5q4 0 10 -4.5t6 -8.5q0 -5 -10 -36t-23 -70.5t-25 -69.5t-17 -32q-139 -41 -282.5 -96.5t-274.5 -116t-233.5 -118
t-162.5 -103.5t-61 -72q0 -13 29.5 -27.5t74.5 -31.5t91 -39q119 -54 233 -123.5t210 -142.5q141 -105 233.5 -193t159 -140.5t129.5 -52.5h54q53 0 65.5 -36t12.5 -69zM484 1528q0 -6 -14 -31.5t-33.5 -55.5t-36.5 -52t-23 -22q-4 0 -25 15t-47.5 34.5t-46.5 35t-22 17.5
q-7 6 -13 6q-4 0 -10 -8q-1 -1 -14.5 -20.5t-31.5 -44.5t-33.5 -43.5t-20.5 -18.5q-4 0 -27 14.5t-50.5 35t-48.5 38t-21 22.5q0 7 15 32t35.5 55t37 52.5t20.5 22.5q7 0 28 -14.5t45.5 -34t42.5 -35t19 -16.5q10 -10 14 -10q7 0 15 13q1 2 14.5 21t32 43.5t33.5 42.5t19 18
q6 0 29 -15.5t50.5 -36.5t47.5 -38.5t20 -21.5z" />
    <glyph glyph-name="uni063B.fina" unicode="&#x63b;" horiz-adv-x="2256" 
d="M2351 107q0 -33 -12.5 -70t-65.5 -37h-51q-71 0 -133 34t-126 91t-140 127t-176 142q5 -21 7.5 -36t2.5 -38q0 -109 -73 -179t-203.5 -109t-304 -54.5t-374.5 -15.5q-227 0 -358.5 33.5t-186.5 113t-55 216.5q0 23 10 76t25 112t29 101t21 42q28 0 28 -23q0 -6 -6.5 -35
t-13 -64t-6.5 -58q0 -93 54 -157t180 -97t341 -33q205 0 324 2t184 6t108 11q110 18 155.5 60t45.5 76q0 48 -57.5 105.5t-127.5 105.5q-61 45 -124.5 72.5t-98.5 51.5q-29 21 -42.5 52t-13.5 103q0 61 6.5 107.5t25.5 60.5q58 49 150 105.5t200.5 114t218 111t202.5 96.5
q65 30 134.5 56.5t126 44t79.5 17.5q5 0 9 -5.5t7 -9.5q-33 -42 -50 -89.5t-29.5 -83t-33.5 -42.5q-62 -20 -156 -52.5t-202 -72t-214 -81.5t-193.5 -81.5t-140 -71t-52.5 -50.5q0 -12 18.5 -29t47.5 -31q113 -52 217.5 -120.5t193.5 -135.5q116 -90 214.5 -177t180 -145
t145.5 -58h51q53 0 65.5 -36t12.5 -69zM1490 1385q0 -6 -14 -31t-33.5 -55t-36.5 -52t-23 -22q-4 0 -25 15t-47.5 34.5t-46.5 35t-22 16.5q-7 6 -13 6q-4 0 -10 -7q-1 -2 -14.5 -21.5t-31.5 -44t-33.5 -43.5t-20.5 -19q-4 0 -27 15t-50.5 35.5t-48.5 38t-21 22.5
q0 6 15 31.5t35.5 55.5t37 52t20.5 22q7 0 28 -14.5t45.5 -33.5t42.5 -34.5t19 -17.5q10 -9 14 -9q7 0 15 12q1 2 14.5 21.5t32 43.5t33.5 42.5t19 18.5q6 0 29 -15.5t50.5 -36.5t47.5 -38.5t20 -22.5z" />
    <glyph glyph-name="uni063C.init" unicode="&#x63c;" horiz-adv-x="1220" 
d="M1230 1511q-33 -41 -47.5 -84.5t-26 -75t-35.5 -38.5q-60 -18 -154 -48.5t-203.5 -68t-217.5 -78t-197 -79t-143 -71.5t-54 -54q0 -16 42 -37l107 -53.5t133 -81.5q110 -80 173.5 -183.5t63.5 -219.5q0 -138 -71 -211t-212 -100.5t-353 -27.5h-51q-54 0 -66.5 31.5
t-12.5 75.5q0 45 12.5 75t66.5 30h51q117 0 217 3.5t160 13.5q110 18 149.5 44t39.5 54q0 32 -38 76.5t-88 87t-86 68.5q-40 29 -91.5 53.5t-97 45.5t-67.5 38q-53 41 -53 161q0 61 7.5 113.5t29.5 68.5q71 55 164.5 108t193 100.5t190 85t157.5 61.5q28 10 89 32
t128.5 45.5t117.5 40t55 16.5q4 0 7 -6.5t11 -10.5zM413 -532q0 -6 -14 -30.5t-34 -54.5t-37.5 -52t-25.5 -22q-4 0 -27 14.5t-51 34.5t-49 37.5t-21 23.5t15 31.5t35.5 55.5t38 52.5t22.5 22.5q6 0 29.5 -15.5t51 -36.5t47.5 -38.5t20 -22.5zM520 -218q0 -6 -14.5 -31
t-33.5 -55t-36.5 -52.5t-23.5 -22.5q-3 0 -24.5 15t-47.5 35t-46 35.5t-22 16.5q-8 6 -13 6t-10 -7q-2 -2 -15 -21.5t-31 -44.5t-33.5 -43.5t-21.5 -18.5q-4 0 -26.5 15t-50.5 35.5t-48.5 38t-20.5 22.5q0 6 15 31.5t35 55.5t37 52t20 22q8 0 29 -14.5t45 -34t42 -34.5
t20 -17q10 -9 14 -9q6 0 14 12q2 2 15.5 21t31.5 43.5t33 42.5t19 18q6 0 29 -15.5t50.5 -36t48 -38.5t20.5 -22z" />
    <glyph glyph-name="uni063C.medi" unicode="&#x63c;" horiz-adv-x="1363" 
d="M1460 107q0 -33 -12.5 -70t-65.5 -37h-54q-74 0 -132.5 35t-124 97t-158 145.5t-234.5 180.5q6 -25 7 -58t1 -53q0 -121 -64 -198t-207 -113t-381 -36h-51q-54 0 -66.5 37t-12.5 70t12.5 69t66.5 36h51q159 0 291 14.5t211 51.5t79 103q0 73 -66.5 141t-153.5 114
q-54 29 -106 48t-89 52q-19 18 -42.5 55t-40.5 80.5t-17 79.5q0 30 23.5 97t89.5 119q72 57 173.5 117.5t215 119t223.5 110t201.5 91t149 62t64.5 22.5q4 0 10 -4.5t6 -8.5q0 -5 -10 -36t-23 -70.5t-25 -69.5t-17 -32q-139 -41 -282.5 -96.5t-274.5 -116t-233.5 -118
t-162.5 -103.5t-61 -72q0 -13 29.5 -27.5t74.5 -31.5t91 -39q119 -54 233 -123.5t210 -142.5q141 -105 233.5 -193t159 -140.5t129.5 -52.5h54q53 0 65.5 -36t12.5 -69zM376 -547q0 -6 -14 -30.5t-33.5 -54.5t-37.5 -52t-25 -22q-4 0 -27 14.5t-51.5 34.5t-49.5 37.5
t-21 23.5t15 31.5t35.5 55.5t38 52.5t22.5 22.5q7 0 30 -15.5t50.5 -36.5t47.5 -38.5t20 -22.5zM483 -233q0 -6 -14 -31t-33.5 -55t-36.5 -52.5t-23 -22.5q-4 0 -25 15t-47.5 35t-46.5 35.5t-22 16.5q-7 6 -13 6q-4 0 -10 -7q-1 -2 -14.5 -21.5t-31.5 -44.5t-33.5 -43.5
t-20.5 -18.5q-4 0 -27 15t-50.5 35.5t-48.5 38t-21 22.5q0 6 15 31.5t35.5 55.5t37 52t20.5 22q7 0 28 -14.5t45.5 -34t42.5 -34.5t19 -17q10 -9 14 -9q7 0 15 12q1 2 14.5 21t32 43.5t33.5 42.5t19 18q6 0 29 -15.5t50.5 -36t47.5 -38.5t20 -22z" />
    <glyph glyph-name="uni063C.fina" unicode="&#x63c;" horiz-adv-x="2256" 
d="M2351 107q0 -33 -12.5 -70t-65.5 -37h-51q-71 0 -133 34t-126 91t-140 127t-176 142q5 -21 7.5 -36t2.5 -38q0 -109 -73 -179t-203.5 -109t-304 -54.5t-374.5 -15.5q-227 0 -358.5 33.5t-186.5 113t-55 216.5q0 23 10 76t25 112t29 101t21 42q28 0 28 -23q0 -6 -6.5 -35
t-13 -64t-6.5 -58q0 -93 54 -157t180 -97t341 -33q205 0 324 2t184 6t108 11q110 18 155.5 60t45.5 76q0 48 -57.5 105.5t-127.5 105.5q-61 45 -124.5 72.5t-98.5 51.5q-29 21 -42.5 52t-13.5 103q0 61 6.5 107.5t25.5 60.5q58 49 150 105.5t200.5 114t218 111t202.5 96.5
q65 30 134.5 56.5t126 44t79.5 17.5q5 0 9 -5.5t7 -9.5q-33 -42 -50 -89.5t-29.5 -83t-33.5 -42.5q-62 -20 -156 -52.5t-202 -72t-214 -81.5t-193.5 -81.5t-140 -71t-52.5 -50.5q0 -12 18.5 -29t47.5 -31q113 -52 217.5 -120.5t193.5 -135.5q116 -90 214.5 -177t180 -145
t145.5 -58h51q53 0 65.5 -36t12.5 -69zM1367 -581q0 -6 -14 -30.5t-33.5 -54.5t-37.5 -52t-25 -22q-4 0 -27 14.5t-51.5 34.5t-49.5 37.5t-21 23.5t15 31.5t35.5 55.5t38 52.5t22.5 22.5q7 0 30 -15.5t50.5 -36.5t47.5 -38.5t20 -22.5zM1474 -267q0 -6 -14 -31t-33.5 -55
t-36.5 -52.5t-23 -22.5q-4 0 -25 15t-47.5 35t-46.5 35.5t-22 16.5q-7 6 -13 6q-4 0 -10 -7q-1 -2 -14.5 -21.5t-31.5 -44.5t-33.5 -43.5t-20.5 -18.5q-4 0 -27 15t-50.5 35.5t-48.5 38t-21 22.5q0 6 15 31.5t35.5 55.5t37 52t20.5 22q7 0 28 -14.5t45.5 -34t42.5 -34.5
t19 -17q10 -9 14 -9q7 0 15 12q1 2 14.5 21t32 43.5t33.5 42.5t19 18q6 0 29 -15.5t50.5 -36t47.5 -38.5t20 -22z" />
    <glyph glyph-name="uni063D.init" unicode="&#x63d;" horiz-adv-x="545" 
d="M399 414q0 -212 -102 -313t-263 -101h-53q-47 0 -61.5 29t-14.5 78q0 50 16 77.5t60 27.5h53q62 0 125 9.5t97 27.5q30 14 43.5 32t13.5 28q0 15 -17.5 43t-40 59.5t-40 58t-17.5 37.5q0 10 13 38t32.5 62.5t38 65t29.5 44.5q37 -71 62.5 -149t25.5 -154zM477 933
q0 -18 -2 -52.5t-4 -41.5q-26 0 -58.5 25t-63.5 64t-54 80.5t-31 74.5q-11 -53 -44 -110.5t-73.5 -97.5t-73.5 -40q-5 0 -5 5q0 11 0.5 27t1.5 34v29.5t1 17.5q1 1 23.5 12t54.5 40t61 83t43 142q0 5 9 5t9 -5q19 -91 57 -144.5t78 -81t66 -39.5q3 -2 4 -11.5t1 -15.5z
M455 -241q0 -6 -14 -31.5t-33.5 -55.5t-36.5 -52t-23 -22q-4 0 -25 15t-47.5 34.5t-46.5 35t-22 17.5q-7 6 -13 6q-4 0 -10 -8q-1 -1 -14.5 -20.5t-31.5 -44.5t-33.5 -43.5t-20.5 -18.5q-4 0 -27 14.5t-50.5 35t-48.5 38t-21 22.5q0 7 15 32t35.5 55t37 52.5t20.5 22.5
q7 0 28 -14.5t45.5 -34t42.5 -35t19 -16.5q10 -10 14 -10q7 0 15 13q1 2 14.5 21t32 43.5t33.5 42.5t19 18q6 0 29 -15.5t50.5 -36.5t47.5 -38.5t20 -21.5z" />
    <glyph glyph-name="uni063D.medi" unicode="&#x63d;" horiz-adv-x="546" 
d="M643 107q0 -44 -12 -75.5t-66 -31.5h-54q-40 0 -67 12t-51 36q-17 18 -37 48t-32 61q-49 -60 -112 -108.5t-177 -48.5h-51q-54 0 -66.5 31t-12.5 76q0 44 12.5 74.5t66.5 30.5h51q101 0 162 28t95 65t51.5 65t30.5 28q9 0 14.5 -20.5t16.5 -57.5q10 -35 33.5 -71.5
t72.5 -36.5h54q54 0 66 -30t12 -75zM486 619q0 -18 -2 -52.5t-3 -41.5q-27 0 -59.5 25t-63.5 64t-54 80.5t-31 74.5q-11 -53 -43.5 -110.5t-73.5 -97.5t-74 -40q-5 0 -5 5q0 11 1 27t1 34q0 16 0.5 29.5t0.5 17.5q1 1 23.5 12t54.5 40t61.5 83t43.5 142q0 5 8 5q9 0 9 -5
q19 -91 57 -144.5t78.5 -81t65.5 -39.5q3 -2 4 -11.5t1 -15.5zM533 -243q0 -6 -14 -31.5t-33.5 -55.5t-36.5 -52t-23 -22q-4 0 -25 15t-47.5 34.5t-46.5 35t-21 17.5q-8 6 -13 6t-11 -8q-1 -1 -14.5 -20.5t-31 -44.5t-33 -43.5t-21.5 -18.5q-4 0 -27 14.5t-50.5 35t-48 38
t-20.5 22.5q0 7 15 32t35 55t36.5 52.5t20.5 22.5q8 0 29 -14.5t45 -34t42 -35t20 -16.5q9 -10 13 -10q7 0 15 13q1 2 15 21t32 43.5t33 42.5t19 18q6 0 29 -15.5t50.5 -36.5t47.5 -38.5t20 -21.5z" />
    <glyph glyph-name="uni063D.fina" unicode="&#x63d;" horiz-adv-x="1458" 
d="M1553 107q0 -33 -12.5 -70t-65.5 -37h-147q-26 0 -67.5 -1t-83 -4.5t-67.5 -10.5q-48 -14 -77.5 -41t-29.5 -56q0 -26 35.5 -35.5t96.5 -17.5q58 -8 114 -27t93 -56t37 -98q0 -67 -47 -130.5t-126.5 -118t-179.5 -95.5t-207.5 -64t-208.5 -23q-164 0 -272.5 56t-162 155
t-53.5 226q0 83 24.5 167.5t57.5 155.5t60.5 114.5t32.5 43.5q8 0 19.5 -7t11.5 -14q0 -6 -26.5 -57t-52.5 -129.5t-26 -165.5q0 -128 67.5 -197.5t176.5 -96.5t233 -27q38 0 108.5 12.5t152.5 32.5t156.5 43.5t122.5 48t48 43.5q0 31 -47 44t-140 17q-98 4 -168 29.5
t-70 101.5q0 38 17.5 78t40.5 73q57 89 134.5 148.5t159.5 81.5q29 9 69.5 11t72.5 2h118q53 0 65.5 -36t12.5 -69zM897 364q0 -17 -2 -52t-4 -42q-26 0 -58.5 25.5t-63.5 64t-54 80t-31 75.5q-11 -54 -44 -111.5t-73.5 -97t-73.5 -39.5q-5 0 -5 5q0 10 0.5 26t1.5 34v30
t1 17q1 1 23.5 12.5t54.5 40.5t61 83t43 141q0 6 9 6t9 -6q19 -91 57 -144.5t78 -80.5t66 -40q3 -1 4 -11t1 -16z" />
    <glyph glyph-name="uni063E.init" unicode="&#x63e;" horiz-adv-x="545" 
d="M399 414q0 -212 -102 -313t-263 -101h-53q-47 0 -61.5 29t-14.5 78q0 50 16 77.5t60 27.5h53q62 0 125 9.5t97 27.5q30 14 43.5 32t13.5 28q0 15 -17.5 43t-40 59.5t-40 58t-17.5 37.5q0 10 13 38t32.5 62.5t38 65t29.5 44.5q37 -71 62.5 -149t25.5 -154zM520 1043
q0 -6 -14 -31.5t-33.5 -55.5t-36.5 -52t-23 -22q-4 0 -25 15t-47.5 34.5t-46.5 35t-22 17.5q-7 6 -13 6q-4 0 -10 -8q-1 -1 -14.5 -20.5t-31.5 -44.5t-33.5 -43.5t-20.5 -18.5q-4 0 -27 14.5t-50.5 35t-48.5 38t-21 22.5q0 7 15 32t35.5 55t37 52.5t20.5 22.5q7 0 28 -14.5
t45.5 -34t42.5 -35t19 -16.5q10 -10 14 -10q7 0 15 13q1 2 14.5 21t32 43.5t33.5 42.5t19 18q6 0 29 -15.5t50.5 -36.5t47.5 -38.5t20 -21.5zM455 -241q0 -6 -14 -31.5t-33.5 -55.5t-36.5 -52t-23 -22q-4 0 -25 15t-47.5 34.5t-46.5 35t-22 17.5q-7 6 -13 6q-4 0 -10 -8
q-1 -1 -14.5 -20.5t-31.5 -44.5t-33.5 -43.5t-20.5 -18.5q-4 0 -27 14.5t-50.5 35t-48.5 38t-21 22.5q0 7 15 32t35.5 55t37 52.5t20.5 22.5q7 0 28 -14.5t45.5 -34t42.5 -35t19 -16.5q10 -10 14 -10q7 0 15 13q1 2 14.5 21t32 43.5t33.5 42.5t19 18q6 0 29 -15.5
t50.5 -36.5t47.5 -38.5t20 -21.5z" />
    <glyph glyph-name="uni063E.medi" unicode="&#x63e;" horiz-adv-x="546" 
d="M643 107q0 -44 -12 -75.5t-66 -31.5h-54q-40 0 -67 12t-51 36q-17 18 -37 48t-32 61q-49 -60 -112 -108.5t-177 -48.5h-51q-54 0 -66.5 31t-12.5 76q0 44 12.5 74.5t66.5 30.5h51q101 0 162 28t95 65t51.5 65t30.5 28q9 0 14.5 -20.5t16.5 -57.5q10 -35 33.5 -71.5
t72.5 -36.5h54q54 0 66 -30t12 -75zM533 723q0 -6 -14 -31.5t-33.5 -55.5t-36.5 -52t-23 -22q-4 0 -25 15t-47.5 34.5t-46.5 35t-22 17.5q-7 6 -13 6q-4 0 -10 -8q-1 -1 -14.5 -20.5t-31.5 -44.5t-33.5 -43.5t-20.5 -18.5q-4 0 -27 14.5t-50.5 35t-48.5 38t-21 22.5
q0 7 15 32t35.5 55t37 52.5t20.5 22.5q7 0 28 -14.5t45.5 -34t42.5 -35t19 -16.5q10 -10 14 -10q7 0 15 13q1 2 14.5 21t32 43.5t33.5 42.5t19 18q6 0 29 -15.5t50.5 -36.5t47.5 -38.5t20 -21.5zM533 -243q0 -6 -14 -31.5t-33.5 -55.5t-36.5 -52t-23 -22q-4 0 -25 15
t-47.5 34.5t-46.5 35t-21 17.5q-8 6 -13 6t-11 -8q-1 -1 -14.5 -20.5t-31 -44.5t-33 -43.5t-21.5 -18.5q-4 0 -27 14.5t-50.5 35t-48 38t-20.5 22.5q0 7 15 32t35 55t36.5 52.5t20.5 22.5q8 0 29 -14.5t45 -34t42 -35t20 -16.5q9 -10 13 -10q7 0 15 13q1 2 15 21t32 43.5
t33 42.5t19 18q6 0 29 -15.5t50.5 -36.5t47.5 -38.5t20 -21.5z" />
    <glyph glyph-name="uni063E.fina" unicode="&#x63e;" horiz-adv-x="1458" 
d="M1553 107q0 -33 -12.5 -70t-65.5 -37h-147q-26 0 -67.5 -1t-83 -4.5t-67.5 -10.5q-48 -14 -77.5 -41t-29.5 -56q0 -26 35.5 -35.5t96.5 -17.5q58 -8 114 -27t93 -56t37 -98q0 -67 -47 -130.5t-126.5 -118t-179.5 -95.5t-207.5 -64t-208.5 -23q-164 0 -272.5 56t-162 155
t-53.5 226q0 83 24.5 167.5t57.5 155.5t60.5 114.5t32.5 43.5q8 0 19.5 -7t11.5 -14q0 -6 -26.5 -57t-52.5 -129.5t-26 -165.5q0 -128 67.5 -197.5t176.5 -96.5t233 -27q38 0 108.5 12.5t152.5 32.5t156.5 43.5t122.5 48t48 43.5q0 31 -47 44t-140 17q-98 4 -168 29.5
t-70 101.5q0 38 17.5 78t40.5 73q57 89 134.5 148.5t159.5 81.5q29 9 69.5 11t72.5 2h118q53 0 65.5 -36t12.5 -69zM946 455q0 -6 -14 -31t-33.5 -55t-36.5 -52.5t-23 -22.5q-4 0 -25 15t-47.5 35t-46.5 35.5t-21 16.5q-8 6 -13 6t-11 -7q-1 -2 -14.5 -21.5t-31 -44.5
t-33 -43.5t-21.5 -18.5q-4 0 -27 15t-50.5 35.5t-48 38t-20.5 22.5q0 6 15 31.5t35 55.5t36.5 52t20.5 22q8 0 29 -14.5t45 -34t42 -34.5t20 -17q9 -9 13 -9q7 0 15 12q1 2 15 21t32 43.5t33 42.5t19 18q6 0 29 -15.5t50.5 -36t47.5 -38.5t20 -22z" />
    <glyph glyph-name="uni063F.init" unicode="&#x63f;" horiz-adv-x="545" 
d="M399 414q0 -212 -102 -313t-263 -101h-53q-47 0 -61.5 29t-14.5 78q0 50 16 77.5t60 27.5h53q62 0 125 9.5t97 27.5q30 14 43.5 32t13.5 28q0 15 -17.5 43t-40 59.5t-40 58t-17.5 37.5q0 10 13 38t32.5 62.5t38 65t29.5 44.5q37 -71 62.5 -149t25.5 -154zM355 1326
q0 -6 -14 -31.5t-34 -55.5t-37 -52.5t-24 -22.5q-4 0 -27 15t-51 36t-48.5 39t-20.5 23q0 7 14.5 32t35 54.5t37.5 51.5t22 22q6 0 29 -15t50.5 -36t47.5 -38t20 -22zM521 1046q0 -6 -14 -31t-33.5 -55t-36.5 -52t-23 -22q-4 0 -25 14.5t-47.5 34.5t-46.5 35.5t-21 16.5
q-8 6 -13 6t-11 -7q-1 -2 -14.5 -21.5t-31.5 -44t-33 -43.5t-21 -19q-4 0 -27 15t-50.5 35.5t-48 38t-20.5 22.5q0 6 15 31.5t35 55.5t36.5 52t20.5 22q8 0 29 -14.5t45 -33.5t42 -34.5t20 -17.5q9 -9 13 -9q7 0 15 12q1 2 15 21.5t32 43.5t33 42.5t19 18.5q6 0 29 -15.5
t50.5 -36.5t47.5 -38.5t20 -22.5zM455 -241q0 -6 -14 -31.5t-33.5 -55.5t-36.5 -52t-23 -22q-4 0 -25 15t-47.5 34.5t-46.5 35t-22 17.5q-7 6 -13 6q-4 0 -10 -8q-1 -1 -14.5 -20.5t-31.5 -44.5t-33.5 -43.5t-20.5 -18.5q-4 0 -27 14.5t-50.5 35t-48.5 38t-21 22.5
q0 7 15 32t35.5 55t37 52.5t20.5 22.5q7 0 28 -14.5t45.5 -34t42.5 -35t19 -16.5q10 -10 14 -10q7 0 15 13q1 2 14.5 21t32 43.5t33.5 42.5t19 18q6 0 29 -15.5t50.5 -36.5t47.5 -38.5t20 -21.5z" />
    <glyph glyph-name="uni063F.medi" unicode="&#x63f;" horiz-adv-x="546" 
d="M643 107q0 -44 -12 -75.5t-66 -31.5h-54q-40 0 -67 12t-51 36q-17 18 -37 48t-32 61q-49 -60 -112 -108.5t-177 -48.5h-51q-54 0 -66.5 31t-12.5 76q0 44 12.5 74.5t66.5 30.5h51q101 0 162 28t95 65t51.5 65t30.5 28q9 0 14.5 -20.5t16.5 -57.5q10 -35 33.5 -71.5
t72.5 -36.5h54q54 0 66 -30t12 -75zM367 1005q0 -6 -14.5 -31.5t-34 -55.5t-37 -52.5t-23.5 -22.5q-5 0 -28 15t-50.5 36t-48 39t-20.5 23q0 7 14.5 32t34.5 54.5t37.5 51.5t22.5 22q6 0 29 -15t50 -36t47.5 -38t20.5 -22zM533 725q0 -6 -14 -31t-33.5 -55t-36.5 -52
t-23 -22q-4 0 -25 14.5t-47.5 34.5t-46.5 35.5t-22 16.5q-7 6 -13 6q-4 0 -10 -7q-1 -2 -14.5 -21.5t-31.5 -44t-33.5 -43.5t-20.5 -19t-27.5 15t-50 35.5t-48.5 38t-21 22.5q0 6 15 31.5t35.5 55.5t37 52t20.5 22q7 0 28 -14.5t45 -33.5t42.5 -34.5t19.5 -17.5q10 -9 14 -9
q7 0 15 12q1 2 14.5 21.5t31.5 43.5t33.5 42.5t19.5 18.5q5 0 28.5 -15.5t51 -36.5t47.5 -38.5t20 -22.5zM533 -243q0 -6 -14 -31.5t-33.5 -55.5t-36.5 -52t-23 -22q-4 0 -25 15t-47.5 34.5t-46.5 35t-21 17.5q-8 6 -13 6t-11 -8q-1 -1 -14.5 -20.5t-31 -44.5t-33 -43.5
t-21.5 -18.5q-4 0 -27 14.5t-50.5 35t-48 38t-20.5 22.5q0 7 15 32t35 55t36.5 52.5t20.5 22.5q8 0 29 -14.5t45 -34t42 -35t20 -16.5q9 -10 13 -10q7 0 15 13q1 2 15 21t32 43.5t33 42.5t19 18q6 0 29 -15.5t50.5 -36.5t47.5 -38.5t20 -21.5z" />
    <glyph glyph-name="uni063F.fina" unicode="&#x63f;" horiz-adv-x="1458" 
d="M1553 107q0 -33 -12.5 -70t-65.5 -37h-147q-26 0 -67.5 -1t-83 -4.5t-67.5 -10.5q-48 -14 -77.5 -41t-29.5 -56q0 -26 35.5 -35.5t96.5 -17.5q58 -8 114 -27t93 -56t37 -98q0 -67 -47 -130.5t-126.5 -118t-179.5 -95.5t-207.5 -64t-208.5 -23q-164 0 -272.5 56t-162 155
t-53.5 226q0 83 24.5 167.5t57.5 155.5t60.5 114.5t32.5 43.5q8 0 19.5 -7t11.5 -14q0 -6 -26.5 -57t-52.5 -129.5t-26 -165.5q0 -128 67.5 -197.5t176.5 -96.5t233 -27q38 0 108.5 12.5t152.5 32.5t156.5 43.5t122.5 48t48 43.5q0 31 -47 44t-140 17q-98 4 -168 29.5
t-70 101.5q0 38 17.5 78t40.5 73q57 89 134.5 148.5t159.5 81.5q29 9 69.5 11t72.5 2h118q53 0 65.5 -36t12.5 -69zM774 731q0 -6 -14.5 -31.5t-34 -56t-37 -52.5t-23.5 -22q-5 0 -28 15t-50.5 36t-48 38.5t-20.5 23.5t14.5 31t34.5 55t37.5 52t22.5 22q6 0 29 -15.5t50 -36
t47.5 -38t20.5 -21.5zM940 451q0 -6 -14 -31t-33.5 -55t-36.5 -52.5t-23 -22.5q-4 0 -25 15t-47.5 35t-46.5 35.5t-22 16.5q-7 6 -13 6q-4 0 -10 -7q-1 -2 -14.5 -21.5t-31.5 -44.5t-33.5 -43.5t-20.5 -18.5t-27.5 15t-50 35.5t-48.5 38t-21 22.5q0 6 15 31.5t35.5 55.5
t37 52t20.5 22q7 0 28 -14.5t45 -34t42.5 -35t19.5 -16.5q10 -9 14 -9q7 0 15 12q1 2 14.5 21t31.5 43.5t33.5 42.5t19.5 18q5 0 28.5 -15.5t51 -36.5t47.5 -38.5t20 -21.5z" />
    <glyph glyph-name="uni0641.init" unicode="&#x641;" horiz-adv-x="645" arabic-form="initial" 
d="M564 432q0 -65 -19 -132.5t-61 -123.5q-26 -33 -88 -74t-154 -71.5t-207 -30.5h-51q-54 0 -66.5 37t-12.5 70t12.5 69t66.5 36h51q136 0 238.5 30t159.5 70t57 69q0 21 -17.5 51.5t-37.5 52.5q-13 -33 -37.5 -69.5t-62.5 -62t-94 -25.5q-83 0 -119 49t-36 131
q0 23 10.5 70t30.5 102t46.5 106t58.5 84t68 33q35 0 80 -41t87 -109t69.5 -151.5t27.5 -169.5zM335 602q0 6 -17.5 21t-40 27.5t-39.5 12.5q-16 0 -30 -16.5t-14 -32.5q0 -17 17 -40.5t44 -23.5q24 0 52 21t28 31zM394 1201q0 -6 -14.5 -31.5t-35 -56.5t-38.5 -53.5
t-25 -22.5q-4 0 -27.5 15t-52 35.5t-50 38.5t-21.5 23q0 7 15 33t36 56.5t38.5 53.5t22.5 23q7 0 31 -15.5t52 -37t48.5 -39t20.5 -22.5z" />
    <glyph glyph-name="uni0641.medi" unicode="&#x641;" horiz-adv-x="855" arabic-form="medial" 
d="M951 107q0 -33 -13 -70t-65 -37h-53q-131 0 -225 33.5t-188 78.5q-101 -44 -184 -78t-188 -34h-51q-54 0 -66.5 37t-12.5 70t12.5 69t66.5 36h51q52 0 111 10t103 28q-12 33 -12 85q0 55 40.5 146.5t101.5 171.5q53 68 109.5 111t94.5 43q40 0 71 -30t52 -74.5t32 -91
t11 -78.5q0 -71 -30.5 -145t-90.5 -137q98 -39 192 -39h53q52 0 65 -36t13 -69zM654 449q0 42 -39.5 86t-101.5 44q-25 0 -64 -19t-70 -45t-31 -48q0 -38 42.5 -77t82.5 -68q73 29 127 60.5t54 66.5zM681 1149q0 -6 -14.5 -31.5t-35 -56.5t-38.5 -53.5t-25 -22.5
q-4 0 -27.5 15t-52 35.5t-50 38.5t-21.5 23q0 7 15 33t36 56.5t38.5 53.5t22.5 23q7 0 31 -15.5t52 -37t48.5 -39t20.5 -22.5z" />
    <glyph glyph-name="uni0641.fina" unicode="&#x641;" horiz-adv-x="2106" arabic-form="final" 
d="M2201 107q0 -33 -12 -70t-65 -37h-54q-95 0 -169 16t-121.5 35t-66.5 27q-143 -69 -314 -132.5t-350.5 -104t-347.5 -40.5q-99 0 -200 18.5t-185.5 61.5t-136 117.5t-51.5 186.5q0 40 17.5 94.5t43 107t51.5 87t44 34.5l21 -19q-9 -18 -28.5 -53t-35.5 -76.5t-16 -80.5
q0 -63 39 -108t101.5 -75t134 -47t139 -24t114.5 -7q124 0 258 25t251 60q136 38 240 90l5 8q-23 20 -38 52.5t-15 60.5q0 38 18.5 98.5t49.5 128t68.5 127.5t77 97.5t74.5 37.5q37 0 73 -35t65 -86.5t46 -102t17 -81.5q0 -52 -22.5 -128t-49.5 -127q7 -14 40 -20.5
t76.5 -8.5t82.5 -2h54q53 0 65 -36t12 -69zM1845 435q0 19 -18.5 53.5t-45.5 63.5t-52 29q-16 0 -43.5 -18t-55 -44t-46 -52.5t-18.5 -42.5q0 -43 45.5 -69.5t87.5 -52.5q25 17 59.5 44t60.5 52t26 37zM1851 1106q0 -6 -14.5 -31.5t-35 -56.5t-38.5 -53.5t-25 -22.5
q-4 0 -27.5 15t-52 35.5t-50 38.5t-21.5 24t15 32t36 57t38.5 53.5t22.5 22.5q7 0 31 -15.5t52 -36.5t48.5 -39t20.5 -23z" />
    <glyph glyph-name="uni0642.init" unicode="&#x642;" horiz-adv-x="645" arabic-form="initial" 
d="M564 432q0 -65 -19 -132.5t-61 -123.5q-26 -33 -88 -74t-154 -71.5t-207 -30.5h-51q-54 0 -66.5 37t-12.5 70t12.5 69t66.5 36h51q136 0 238.5 30t159.5 70t57 69q0 21 -17.5 51.5t-37.5 52.5q-13 -33 -37.5 -69.5t-62.5 -62t-94 -25.5q-83 0 -119 49t-36 131
q0 23 10.5 70t30.5 102t46.5 106t58.5 84t68 33q35 0 80 -41t87 -109t69.5 -151.5t27.5 -169.5zM335 602q0 6 -17.5 21t-40 27.5t-39.5 12.5q-16 0 -30 -16.5t-14 -32.5q0 -17 17 -40.5t44 -23.5q24 0 52 21t28 31zM520 1215q0 -6 -14 -31t-33.5 -55t-36.5 -52.5t-23 -22.5
q-4 0 -25 15t-47.5 35t-46.5 35.5t-21 16.5q-8 6 -13 6t-11 -7q-1 -2 -14.5 -21.5t-31 -44.5t-33 -43.5t-21.5 -18.5q-4 0 -27 15t-50.5 35.5t-48 38t-20.5 22.5q0 6 15 31.5t35 55.5t36.5 52t20.5 22q8 0 29 -14.5t45 -34t42 -34.5t20 -17q9 -9 13 -9q7 0 15 12q1 2 15 21
t32 43.5t33 42.5t19 18q6 0 29 -15.5t50.5 -36t47.5 -38.5t20 -22z" />
    <glyph glyph-name="uni0642.medi" unicode="&#x642;" horiz-adv-x="855" arabic-form="medial" 
d="M951 107q0 -33 -13 -70t-65 -37h-53q-131 0 -225 33.5t-188 78.5q-101 -44 -184 -78t-188 -34h-51q-54 0 -66.5 37t-12.5 70t12.5 69t66.5 36h51q52 0 111 10t103 28q-12 33 -12 85q0 55 40.5 146.5t101.5 171.5q53 68 109.5 111t94.5 43q40 0 71 -30t52 -74.5t32 -91
t11 -78.5q0 -71 -30.5 -145t-90.5 -137q98 -39 192 -39h53q52 0 65 -36t13 -69zM654 449q0 42 -39.5 86t-101.5 44q-25 0 -64 -19t-70 -45t-31 -48q0 -38 42.5 -77t82.5 -68q73 29 127 60.5t54 66.5zM807 1181q0 -6 -14 -31t-33.5 -55t-36.5 -52t-23 -22q-4 0 -25 15
t-47.5 34.5t-46.5 35t-21 16.5q-8 6 -13 6t-11 -7q-1 -2 -14.5 -21.5t-31 -44t-33 -43.5t-21.5 -19q-4 0 -27 15t-50.5 35.5t-48 38t-20.5 22.5q0 6 15 31.5t35 55.5t36.5 52t20.5 22q8 0 29 -14.5t45 -33.5t42 -34.5t20 -17.5q9 -9 13 -9q7 0 15 12q1 2 15 21.5t32 43.5
t33 42.5t19 18.5q6 0 29 -15.5t50.5 -36.5t47.5 -38.5t20 -22.5z" />
    <glyph glyph-name="uni0642.fina" unicode="&#x642;" horiz-adv-x="1338" arabic-form="final" 
d="M1433 107q0 -33 -12 -70t-66 -37h-130q-8 -50 -26 -105.5t-45 -101.5q-54 -89 -152 -174t-232.5 -139.5t-295.5 -54.5q-93 0 -176 43t-134.5 125t-51.5 198q0 96 27 179t62.5 145.5t64 97.5t32.5 35q9 0 19.5 -9t10.5 -18q0 -4 -18.5 -33t-42.5 -73.5t-42.5 -97.5
t-18.5 -105q0 -89 51 -148t133 -88t177 -29q153 0 294 49.5t220 126.5q35 35 43 88.5t10 88.5q-23 0 -47 -1.5t-64 -1.5q-87 0 -150.5 37.5t-63.5 114.5q0 47 20.5 108.5t54 120t73.5 97t79 38.5q41 0 75 -31.5t59.5 -79.5t41 -99t20.5 -89q16 -1 39.5 -1.5t83.5 -0.5
q54 0 66 -36t12 -69zM1087 208q-11 40 -48 72t-67 32q-26 0 -41.5 -18.5t-15.5 -37.5q0 -20 27.5 -30.5t67.5 -14t77 -3.5zM1263 828q0 -6 -14.5 -31t-33.5 -55t-36.5 -52t-23.5 -22q-3 0 -24.5 15t-47.5 34.5t-46 35t-22 16.5q-8 6 -13 6t-10 -7q-2 -2 -15 -21.5t-31 -44
t-33.5 -43.5t-21.5 -19q-4 0 -26.5 15t-50.5 35.5t-48.5 38t-20.5 22.5q0 6 15 31.5t35 55.5t37 52t20 22q8 0 29 -14.5t45 -33.5t42 -34.5t20 -17.5q10 -9 14 -9q6 0 14 12q2 2 15.5 21.5t31.5 43.5t33 42.5t19 18.5q6 0 29 -15.5t50.5 -36.5t48 -38.5t20.5 -22.5z" />
    <glyph glyph-name="uni0643.init" unicode="&#x643;" horiz-adv-x="1220" arabic-form="initial" 
d="M1230 1511q-33 -41 -47.5 -84.5t-26 -75t-35.5 -38.5q-60 -18 -154 -48.5t-203.5 -68t-217.5 -78t-197 -79t-143 -71.5t-54 -54q0 -16 42 -37l107 -53.5t133 -81.5q110 -80 173.5 -183.5t63.5 -219.5q0 -138 -71 -211t-212 -100.5t-353 -27.5h-51q-54 0 -66.5 31.5
t-12.5 75.5q0 45 12.5 75t66.5 30h51q117 0 217 3.5t160 13.5q110 18 149.5 44t39.5 54q0 32 -38 76.5t-88 87t-86 68.5q-40 29 -91.5 53.5t-97 45.5t-67.5 38q-53 41 -53 161q0 61 7.5 113.5t29.5 68.5q71 55 164.5 108t193 100.5t190 85t157.5 61.5q28 10 89 32
t128.5 45.5t117.5 40t55 16.5q4 0 7 -6.5t11 -10.5z" />
    <glyph glyph-name="uni0643.medi" unicode="&#x643;" horiz-adv-x="1363" arabic-form="medial" 
d="M1460 107q0 -33 -12.5 -70t-65.5 -37h-54q-74 0 -132.5 35t-124 97t-158 145.5t-234.5 180.5q6 -25 7 -58t1 -53q0 -121 -64 -198t-207 -113t-381 -36h-51q-54 0 -66.5 37t-12.5 70t12.5 69t66.5 36h51q159 0 291 14.5t211 51.5t79 103q0 73 -66.5 141t-153.5 114
q-54 29 -106 48t-89 52q-19 18 -42.5 55t-40.5 80.5t-17 79.5q0 30 23.5 97t89.5 119q72 57 173.5 117.5t215 119t223.5 110t201.5 91t149 62t64.5 22.5q4 0 10 -4.5t6 -8.5q0 -5 -10 -36t-23 -70.5t-25 -69.5t-17 -32q-139 -41 -282.5 -96.5t-274.5 -116t-233.5 -118
t-162.5 -103.5t-61 -72q0 -13 29.5 -27.5t74.5 -31.5t91 -39q119 -54 233 -123.5t210 -142.5q141 -105 233.5 -193t159 -140.5t129.5 -52.5h54q53 0 65.5 -36t12.5 -69z" />
    <glyph glyph-name="uni0643.fina" unicode="&#x643;" horiz-adv-x="1923" arabic-form="final" 
d="M2019 107q0 -49 -12 -78t-65 -29h-56q-88 0 -136.5 39t-75 108.5t-48.5 159.5q-14 -34 -37 -81.5t-51 -93t-59 -74.5q-53 -56 -178.5 -113t-300 -95t-377.5 -38q-268 0 -394.5 86t-126.5 265q0 23 10 76.5t25 112.5t29 101.5t21 42.5q13 0 20.5 -8.5t7.5 -15.5
t-6.5 -35.5t-13 -63t-6.5 -59.5q0 -139 128 -205.5t350 -66.5q78 0 191.5 12t235.5 35.5t227 58.5t164 80q55 44 78 105.5t23 126.5q0 87 -7 194t-17.5 217t-21 207.5t-18 167t-7.5 94.5q0 37 19 82t50 45q13 0 28.5 -26.5t18.5 -69.5q4 -58 10.5 -154t14.5 -207t15.5 -217
t14 -185t10.5 -109q12 -99 27.5 -162.5t52 -94t110.5 -30.5h56q53 0 65 -30t12 -75zM1067 767q0 -64 -37.5 -122t-93 -95t-110.5 -37q-32 0 -74.5 12t-81.5 32t-62 42q36 3 87.5 9.5t101.5 16t83 22t33 28.5q0 20 -29.5 24.5t-68.5 8.5t-69 21t-30 63q0 54 29 121.5
t85.5 132t139.5 110.5q5 -9 12 -41.5t13 -64.5t7 -39q-25 -5 -60 -18.5t-62 -33t-27 -39.5q-1 -28 20.5 -38t53.5 -13t64 -9.5t54 -27t22 -65.5z" />
    <glyph glyph-name="uni0644.init" unicode="&#x644;" horiz-adv-x="509" arabic-form="initial" 
d="M370 536q0 -41 -8.5 -106t-22.5 -118q-11 -43 -28.5 -96.5t-50 -103t-86.5 -81t-138 -31.5h-52q-54 0 -66.5 31t-12.5 76q0 39 12.5 72t66.5 33h52q58 0 115.5 19.5t96 59.5t38.5 101q0 32 -13.5 118t-34 201.5t-40.5 237t-34 226.5t-14 169q0 34 16.5 78t41 76.5
t48.5 32.5q2 0 21 -27t43.5 -63t42.5 -64.5t18 -31.5q0 -4 -22 -22.5t-44 -51t-22 -77.5q0 -56 11.5 -142.5t27 -183t27 -184.5t11.5 -148z" />
    <glyph glyph-name="uni0644.medi" unicode="&#x644;" horiz-adv-x="592" arabic-form="medial" 
d="M689 107q0 -46 -14.5 -76.5t-61.5 -30.5h-55q-110 0 -165.5 77.5t-93.5 202.5q-33 -132 -103 -206t-162 -74h-53q-47 0 -61.5 27.5t-14.5 79.5q0 45 14 75t62 30h53q38 0 71.5 7.5t52.5 20.5q47 34 75 102.5t28 148.5q0 158 -14 311.5t-28.5 285t-14.5 221.5q0 39 15 79
t36 67t39 27q14 0 21 -24t8 -84q1 -83 8 -203.5t16 -250.5t18.5 -243.5t16.5 -181.5q28 -283 176 -283h55q47 0 61.5 -27t14.5 -78z" />
    <glyph glyph-name="uni0644.fina" unicode="&#x644;" horiz-adv-x="1238" arabic-form="final" 
d="M1333 108q0 -48 -15 -78t-61 -30q-113 0 -168.5 36t-96.5 141q4 -84 8 -170t4 -170v-37.5t-2 -40.5q-2 -35 -10 -86t-30 -101q-67 -153 -213 -236t-356 -83q-61 0 -124.5 16.5t-117 57t-86.5 110t-33 176.5q0 68 23 144t53.5 142t56.5 107.5t32 41.5q10 0 18 -9t8 -17
q0 -9 -23 -55.5t-46.5 -110t-23.5 -125.5q0 -92 43 -148t115 -81.5t159 -25.5q86 0 178 24t168 64.5t110 91.5q12 17 16.5 61.5t4.5 86.5q0 38 -5 139t-13 239t-19 289q-15 214 -29 414t-14 361q0 35 19 77.5t42 73.5t33 31q2 0 5 -58t8.5 -155t13.5 -216.5t19.5 -244.5
t28 -239t39.5 -198q16 -61 65.5 -83t139.5 -22q46 0 61 -25.5t15 -78.5z" />
    <glyph glyph-name="uni0645.init" unicode="&#x645;" horiz-adv-x="845" arabic-form="initial" 
d="M732 330q0 -32 -21.5 -82.5t-52 -90t-57.5 -39.5q-35 0 -88 21t-108 51t-96 58q-46 -62 -91.5 -120.5t-83.5 -87.5q-23 -16 -47.5 -28t-51.5 -12h-51q-54 0 -66.5 37t-12.5 70t12.5 69t66.5 36h51q91 0 151 51t102.5 125.5t82.5 143.5q39 66 78.5 114.5t94.5 48.5
q33 0 56.5 -13.5t44.5 -48.5q23 -39 43 -97.5t32 -115t12 -90.5zM571 400q0 21 -15 46.5t-37.5 44.5t-46.5 19q-26 0 -43.5 -20.5t-17.5 -41.5q0 -4 1 -14t12 -17q19 -10 47.5 -20.5t53 -17t29.5 -6.5q6 0 11.5 9.5t5.5 17.5z" />
    <glyph glyph-name="uni0645.medi" unicode="&#x645;" horiz-adv-x="1117" arabic-form="medial" 
d="M1211 107q0 -33 -12.5 -70t-65.5 -37h-52q-93 0 -171 40.5t-144 88.5q-3 -63 -19.5 -110t-81.5 -47q-71 0 -158.5 62t-182.5 143q-61 -67 -131.5 -122t-157.5 -55h-51q-54 0 -66.5 37t-12.5 70t12.5 69t66.5 36h51q110 0 186.5 45t135.5 106q3 3 23 29t49 58t60.5 56
t56.5 24q37 0 59.5 -20t72.5 -75q49 -52 112 -103.5t136.5 -85.5t154.5 -34h52q53 0 65.5 -36t12.5 -69zM622 229q0 26 -12.5 70t-32 79.5t-40.5 35.5q-17 0 -41.5 -24t-44 -49.5t-19.5 -28.5q0 -9 22 -28.5t52 -41.5t56.5 -37.5t34.5 -15.5q15 0 20 14t5 26z" />
    <glyph glyph-name="uni0645.fina" unicode="&#x645;" horiz-adv-x="1108" arabic-form="final" 
d="M1203 107q0 -33 -12.5 -70t-64.5 -37h-53q-124 0 -205.5 15.5t-171.5 50.5q2 -24 4 -61t2 -67q0 -28 -12.5 -73.5t-36 -82t-56.5 -36.5q-39 0 -75.5 36.5t-65.5 93.5t-46 119.5t-18 114.5q-113 -29 -171.5 -69.5t-58.5 -121.5q0 -35 12.5 -113t30.5 -176.5t36.5 -196
t30.5 -173.5t12 -107q0 -27 -12.5 -67.5t-28.5 -72t-27 -31.5q-14 0 -20 64t-19 158q-19 127 -40.5 255t-36 232t-14.5 161q0 94 22 186.5t74.5 170t143.5 125.5q79 42 113 76.5t48 34.5q11 0 44 -35.5t98.5 -81t173.5 -81t270 -35.5h53q52 0 64.5 -36t12.5 -69z" />
    <glyph glyph-name="uni0646.init" unicode="&#x646;" horiz-adv-x="545" arabic-form="initial" 
d="M399 414q0 -212 -102 -313t-263 -101h-53q-47 0 -61.5 29t-14.5 78q0 50 16 77.5t60 27.5h53q62 0 125 9.5t97 27.5q30 14 43.5 32t13.5 28q0 15 -17.5 43t-40 59.5t-40 58t-17.5 37.5q0 10 13 38t32.5 62.5t38 65t29.5 44.5q37 -71 62.5 -149t25.5 -154zM393 1028
q0 -6 -14.5 -31.5t-34.5 -56.5t-38.5 -53.5t-25.5 -22.5q-4 0 -27 15t-52 35.5t-50.5 38.5t-21.5 23q0 7 15 33t36 56.5t38.5 53.5t22.5 23q7 0 31 -15.5t52 -37t48.5 -39t20.5 -22.5z" />
    <glyph glyph-name="uni0646.medi" unicode="&#x646;" horiz-adv-x="546" arabic-form="medial" 
d="M643 107q0 -44 -12 -75.5t-66 -31.5h-54q-40 0 -67 12t-51 36q-17 18 -37 48t-32 61q-49 -60 -112 -108.5t-177 -48.5h-51q-54 0 -66.5 31t-12.5 76q0 44 12.5 74.5t66.5 30.5h51q101 0 162 28t95 65t51.5 65t30.5 28q9 0 14.5 -20.5t16.5 -57.5q10 -35 33.5 -71.5
t72.5 -36.5h54q54 0 66 -30t12 -75zM407 700q0 -6 -14.5 -31.5t-35 -56.5t-38.5 -53.5t-26 -22.5q-3 0 -26.5 15t-52.5 35.5t-50 38.5t-21 24t15 32t35.5 57t38.5 53.5t23 22.5q6 0 30 -15.5t52 -36.5t49 -39t21 -23z" />
    <glyph glyph-name="uni0646.fina" unicode="&#x646;" horiz-adv-x="1351" arabic-form="final" 
d="M1446 107q0 -33 -12.5 -70t-65.5 -37h-53q-22 0 -51.5 3t-46.5 12q-3 -76 -16.5 -167t-40 -177.5t-69.5 -148.5q-17 -25 -59 -64t-115 -78.5t-183 -66t-263 -26.5q-121 0 -212.5 47t-143 124.5t-51.5 169.5q0 89 25.5 172.5t60 149.5t62.5 104.5t32 38.5q11 0 20 -10
t9 -19q0 -10 -28 -53t-55.5 -108t-27.5 -144q0 -94 60.5 -152.5t157.5 -85t207 -26.5q98 0 192 19t168 53t113 80q32 40 46.5 104t14.5 145q0 66 -19.5 117t-37.5 83q-10 16 -23.5 32t-13.5 20q0 6 12 36.5t28 67t30 63.5t17 27q19 0 30 -23q8 -17 32 -42.5t60 -45t79 -19.5
h53q53 0 65.5 -36t12.5 -69zM792 454q0 -6 -14.5 -31.5t-34.5 -56.5t-38.5 -53.5t-25.5 -22.5q-4 0 -27 15t-52 35.5t-50.5 38.5t-21.5 23q0 7 15 33t36 56.5t38.5 53.5t22.5 23q7 0 31 -15.5t52 -37t48.5 -39t20.5 -22.5z" />
    <glyph glyph-name="uni0647.init" unicode="&#x647;" horiz-adv-x="1060" arabic-form="initial" 
d="M-16 0q-54 0 -66.5 37t-12.5 70t12.5 69t66.5 36h51q65 0 119.5 15.5t92.5 35.5q-25 16 -40 44.5t-15 51.5q0 66 46 154.5t112 177.5q-12 3 -25 4t-24 1q-13 0 -19.5 8.5t-6.5 15.5q0 30 20 75t53.5 80t72.5 35q50 0 116 -40t135 -105.5t127.5 -143t95 -153.5t36.5 -135
q0 -230 -152 -230q-54 0 -122 16t-134 38t-117 38q-43 -32 -97.5 -78t-122.5 -81.5t-151 -35.5h-51zM437 366q21 8 46 31t43.5 50t18.5 45q0 17 -16.5 45.5t-39 51t-41.5 22.5q-26 0 -59.5 -24.5t-58 -57.5t-24.5 -59q0 -27 22.5 -44t53.5 -30t55 -30zM833 276q6 0 16 3
t13 11q-17 39 -55 92t-84 100t-90 66q-18 -60 -34.5 -113.5t-51.5 -101.5q14 -6 50 -15.5t81.5 -19t87.5 -16t67 -6.5z" />
    <glyph glyph-name="uni0647.medi" unicode="&#x647;" horiz-adv-x="1049" arabic-form="medial" 
d="M1145 107q0 -33 -12 -70t-65 -37h-53q-68 0 -153.5 -2t-157.5 -13q31 -29 58.5 -70.5t27.5 -114.5q0 -81 -27 -159t-79 -129t-126 -51q-42 0 -83 28.5t-74 72.5t-51 91q-24 61 -38.5 128.5t-22.5 123t-11 80.5q-57 9 -119.5 12t-123.5 3h-51q-54 0 -66.5 37t-12.5 70
t12.5 69t66.5 36h51q71 0 140.5 6.5t112.5 25.5q46 105 99 202.5t107 174.5t105 122.5t93 45.5q29 0 47 -40.5t26.5 -92.5t8.5 -86q0 -112 -59 -222.5t-177 -178.5q6 0 53 6.5t113.5 15t134 15t115.5 6.5h114q53 0 65 -36t12 -69zM677 463q0 27 -18 53.5t-50 26.5
q-43 0 -90 -47t-85.5 -113.5t-56.5 -124.5q300 105 300 205zM712 -252q0 35 -39 80.5t-115 86.5t-189 60q2 -37 20.5 -86.5t49.5 -96.5t71.5 -78t88.5 -31q34 0 73.5 16.5t39.5 48.5z" />
    <glyph glyph-name="uni0647.fina" unicode="&#x647;" horiz-adv-x="824" arabic-form="final" 
d="M918 107q0 -33 -12 -70t-65 -37h-53q-76 0 -123.5 21.5t-79 83.5t-60.5 183q-40 -43 -91.5 -88t-124.5 -45q-22 0 -59.5 6t-76 18t-65.5 31t-27 46q0 23 21 71.5t52.5 101.5t63.5 90q43 52 113.5 104t122.5 73q0 13 -1.5 25t-1.5 25q0 9 0.5 17.5t2.5 17.5q10 55 37 96.5
t44 41.5q2 0 12 -63.5t24 -146.5q14 -84 29.5 -172t28 -152.5t16.5 -77.5q10 -31 21 -52t38 -32t84 -11h53q53 0 65 -36t12 -69zM507 398q-7 38 -15.5 90t-19.5 98q-71 -23 -120.5 -63.5t-75.5 -75.5t-26 -40q0 -7 35.5 -14t77.5 -12t63 -5q49 0 81 22z" />
    <glyph glyph-name="uni0648.fina" unicode="&#x648;" horiz-adv-x="847" arabic-form="final" 
d="M942 107q0 -33 -12 -70t-65 -37l-146 -3q-13 -63 -43.5 -151.5t-77 -179t-107.5 -159.5q-74 -82 -147 -120t-148 -38q-44 0 -103 20.5t-114.5 48t-92 50.5t-36.5 28q0 9 8 19t19 10q17 0 67.5 -15t111.5 -15q83 0 175.5 40.5t177 111t145 160t79.5 187.5
q-142 12 -225.5 43.5t-83.5 129.5q0 40 22 105t57.5 132t75.5 112.5t75 45.5q38 0 70 -38.5t56 -95.5t37.5 -115.5t13.5 -100.5h134q53 0 65 -36t12 -69zM634 215q0 23 -21 54.5t-51.5 55t-58.5 23.5q-24 0 -40.5 -22.5t-16.5 -48.5q0 -20 47.5 -39.5t140.5 -22.5z" />
    <glyph glyph-name="uni0649.init" unicode="&#x649;" horiz-adv-x="545" 
d="M399 414q0 -212 -102 -313t-263 -101h-53q-47 0 -61.5 29t-14.5 78q0 50 16 77.5t60 27.5h53q62 0 125 9.5t97 27.5q30 14 43.5 32t13.5 28q0 15 -17.5 43t-40 59.5t-40 58t-17.5 37.5q0 10 13 38t32.5 62.5t38 65t29.5 44.5q37 -71 62.5 -149t25.5 -154z" />
    <glyph glyph-name="uni0649.medi" unicode="&#x649;" horiz-adv-x="546" 
d="M643 107q0 -44 -12 -75.5t-66 -31.5h-54q-40 0 -67 12t-51 36q-17 18 -37 48t-32 61q-49 -60 -112 -108.5t-177 -48.5h-51q-54 0 -66.5 31t-12.5 76q0 44 12.5 74.5t66.5 30.5h51q101 0 162 28t95 65t51.5 65t30.5 28q9 0 14.5 -20.5t16.5 -57.5q10 -35 33.5 -71.5
t72.5 -36.5h54q54 0 66 -30t12 -75z" />
    <glyph glyph-name="uni0649.fina" unicode="&#x649;" horiz-adv-x="1458" arabic-form="final" 
d="M1553 107q0 -33 -12.5 -70t-65.5 -37h-147q-26 0 -67.5 -1t-83 -4.5t-67.5 -10.5q-48 -14 -77.5 -41t-29.5 -56q0 -26 35.5 -35.5t96.5 -17.5q58 -8 114 -27t93 -56t37 -98q0 -67 -47 -130.5t-126.5 -118t-179.5 -95.5t-207.5 -64t-208.5 -23q-164 0 -272.5 56t-162 155
t-53.5 226q0 83 24.5 167.5t57.5 155.5t60.5 114.5t32.5 43.5q8 0 19.5 -7t11.5 -14q0 -6 -26.5 -57t-52.5 -129.5t-26 -165.5q0 -128 67.5 -197.5t176.5 -96.5t233 -27q38 0 108.5 12.5t152.5 32.5t156.5 43.5t122.5 48t48 43.5q0 31 -47 44t-140 17q-98 4 -168 29.5
t-70 101.5q0 38 17.5 78t40.5 73q57 89 134.5 148.5t159.5 81.5q29 9 69.5 11t72.5 2h118q53 0 65.5 -36t12.5 -69z" />
    <glyph glyph-name="uni064A.init" unicode="&#x64a;" horiz-adv-x="545" arabic-form="initial" 
d="M399 414q0 -212 -102 -313t-263 -101h-53q-47 0 -61.5 29t-14.5 78q0 50 16 77.5t60 27.5h53q62 0 125 9.5t97 27.5q30 14 43.5 32t13.5 28q0 15 -17.5 43t-40 59.5t-40 58t-17.5 37.5q0 10 13 38t32.5 62.5t38 65t29.5 44.5q37 -71 62.5 -149t25.5 -154zM455 -241
q0 -6 -14 -31.5t-33.5 -55.5t-36.5 -52t-23 -22q-4 0 -25 15t-47.5 34.5t-46.5 35t-22 17.5q-7 6 -13 6q-4 0 -10 -8q-1 -1 -14.5 -20.5t-31.5 -44.5t-33.5 -43.5t-20.5 -18.5q-4 0 -27 14.5t-50.5 35t-48.5 38t-21 22.5q0 7 15 32t35.5 55t37 52.5t20.5 22.5q7 0 28 -14.5
t45.5 -34t42.5 -35t19 -16.5q10 -10 14 -10q7 0 15 13q1 2 14.5 21t32 43.5t33.5 42.5t19 18q6 0 29 -15.5t50.5 -36.5t47.5 -38.5t20 -21.5z" />
    <glyph glyph-name="uni064A.medi" unicode="&#x64a;" horiz-adv-x="546" arabic-form="medial" 
d="M643 107q0 -44 -12 -75.5t-66 -31.5h-54q-40 0 -67 12t-51 36q-17 18 -37 48t-32 61q-49 -60 -112 -108.5t-177 -48.5h-51q-54 0 -66.5 31t-12.5 76q0 44 12.5 74.5t66.5 30.5h51q101 0 162 28t95 65t51.5 65t30.5 28q9 0 14.5 -20.5t16.5 -57.5q10 -35 33.5 -71.5
t72.5 -36.5h54q54 0 66 -30t12 -75zM533 -243q0 -6 -14 -31.5t-33.5 -55.5t-36.5 -52t-23 -22q-4 0 -25 15t-47.5 34.5t-46.5 35t-21 17.5q-8 6 -13 6t-11 -8q-1 -1 -14.5 -20.5t-31 -44.5t-33 -43.5t-21.5 -18.5q-4 0 -27 14.5t-50.5 35t-48 38t-20.5 22.5q0 7 15 32t35 55
t36.5 52.5t20.5 22.5q8 0 29 -14.5t45 -34t42 -35t20 -16.5q9 -10 13 -10q7 0 15 13q1 2 15 21t32 43.5t33 42.5t19 18q6 0 29 -15.5t50.5 -36.5t47.5 -38.5t20 -21.5z" />
    <glyph glyph-name="uni064A.fina" unicode="&#x64a;" horiz-adv-x="1458" arabic-form="final" 
d="M1553 107q0 -33 -12.5 -70t-65.5 -37h-147q-26 0 -67.5 -1t-83 -4.5t-67.5 -10.5q-48 -14 -77.5 -41t-29.5 -56q0 -26 35.5 -35.5t96.5 -17.5q58 -8 114 -27t93 -56t37 -98q0 -67 -47 -130.5t-126.5 -118t-179.5 -95.5t-207.5 -64t-208.5 -23q-164 0 -272.5 56t-162 155
t-53.5 226q0 83 24.5 167.5t57.5 155.5t60.5 114.5t32.5 43.5q8 0 19.5 -7t11.5 -14q0 -6 -26.5 -57t-52.5 -129.5t-26 -165.5q0 -128 67.5 -197.5t176.5 -96.5t233 -27q38 0 108.5 12.5t152.5 32.5t156.5 43.5t122.5 48t48 43.5q0 31 -47 44t-140 17q-98 4 -168 29.5
t-70 101.5q0 38 17.5 78t40.5 73q57 89 134.5 148.5t159.5 81.5q29 9 69.5 11t72.5 2h118q53 0 65.5 -36t12.5 -69zM899 -992q0 -6 -14 -31t-33.5 -55t-36.5 -52.5t-23 -22.5q-4 0 -25 15t-47.5 35t-46.5 35.5t-22 16.5q-7 6 -13 6q-4 0 -10 -7q-1 -2 -14.5 -21.5
t-31.5 -44.5t-33.5 -43.5t-20.5 -18.5q-4 0 -27 15t-50.5 35.5t-48.5 38t-21 22.5q0 6 15 31.5t35.5 55.5t37 52t20.5 22q7 0 28 -14.5t45.5 -34t42.5 -34.5t19 -17q10 -9 14 -9q7 0 15 12q1 2 14.5 21t32 43.5t33.5 42.5t19 18q6 0 29 -15.5t50.5 -36t47.5 -38.5t20 -22z
" />
    <glyph glyph-name="uni066E.init" unicode="&#x66e;" horiz-adv-x="545" 
d="M399 414q0 -212 -102 -313t-263 -101h-53q-47 0 -61.5 29t-14.5 78q0 50 16 77.5t60 27.5h53q62 0 125 9.5t97 27.5q30 14 43.5 32t13.5 28q0 15 -17.5 43t-40 59.5t-40 58t-17.5 37.5q0 10 13 38t32.5 62.5t38 65t29.5 44.5q37 -71 62.5 -149t25.5 -154z" />
    <glyph glyph-name="uni066E.medi" unicode="&#x66e;" horiz-adv-x="546" 
d="M643 107q0 -44 -12 -75.5t-66 -31.5h-54q-40 0 -67 12t-51 36q-17 18 -37 48t-32 61q-49 -60 -112 -108.5t-177 -48.5h-51q-54 0 -66.5 31t-12.5 76q0 44 12.5 74.5t66.5 30.5h51q101 0 162 28t95 65t51.5 65t30.5 28q9 0 14.5 -20.5t16.5 -57.5q10 -35 33.5 -71.5
t72.5 -36.5h54q54 0 66 -30t12 -75z" />
    <glyph glyph-name="uni066E.fina" unicode="&#x66e;" horiz-adv-x="2003" 
d="M2100 107q0 -33 -10.5 -70t-58.5 -37h-56q-89 0 -147 23.5t-105 119.5q-69 -71 -215.5 -130t-346.5 -94t-430 -35q-181 0 -320.5 45.5t-218.5 135t-79 222.5q0 65 18 127.5t42.5 114t45 82t26.5 30.5q5 0 15.5 -7t10.5 -17q0 -7 -16 -36.5t-32.5 -73t-16.5 -93.5
q0 -99 79.5 -165.5t219 -100.5t318.5 -34q169 0 334.5 16.5t299 52t206.5 91.5q29 21 41.5 44.5t27.5 23.5q11 0 22.5 -34t38.5 -57q25 -22 74 -30.5t108 -8.5h56q48 0 58.5 -36t10.5 -69z" />
    <glyph glyph-name="uni066F.init" unicode="&#x66f;" horiz-adv-x="645" 
d="M564 432q0 -65 -19 -132.5t-61 -123.5q-26 -33 -88 -74t-154 -71.5t-207 -30.5h-51q-54 0 -66.5 37t-12.5 70t12.5 69t66.5 36h51q136 0 238.5 30t159.5 70t57 69q0 21 -17.5 51.5t-37.5 52.5q-13 -33 -37.5 -69.5t-62.5 -62t-94 -25.5q-83 0 -119 49t-36 131
q0 23 10.5 70t30.5 102t46.5 106t58.5 84t68 33q35 0 80 -41t87 -109t69.5 -151.5t27.5 -169.5zM335 602q0 6 -17.5 21t-40 27.5t-39.5 12.5q-16 0 -30 -16.5t-14 -32.5q0 -17 17 -40.5t44 -23.5q24 0 52 21t28 31z" />
    <glyph glyph-name="uni066F.medi" unicode="&#x66f;" horiz-adv-x="855" 
d="M951 107q0 -33 -13 -70t-65 -37h-53q-131 0 -225 33.5t-188 78.5q-101 -44 -184 -78t-188 -34h-51q-54 0 -66.5 37t-12.5 70t12.5 69t66.5 36h51q52 0 111 10t103 28q-12 33 -12 85q0 55 40.5 146.5t101.5 171.5q53 68 109.5 111t94.5 43q40 0 71 -30t52 -74.5t32 -91
t11 -78.5q0 -71 -30.5 -145t-90.5 -137q98 -39 192 -39h53q52 0 65 -36t13 -69zM654 449q0 42 -39.5 86t-101.5 44q-25 0 -64 -19t-70 -45t-31 -48q0 -38 42.5 -77t82.5 -68q73 29 127 60.5t54 66.5z" />
    <glyph glyph-name="uni066F.fina" unicode="&#x66f;" horiz-adv-x="1338" 
d="M1433 107q0 -33 -12 -70t-66 -37h-130q-8 -50 -26 -105.5t-45 -101.5q-54 -89 -152 -174t-232.5 -139.5t-295.5 -54.5q-93 0 -176 43t-134.5 125t-51.5 198q0 96 27 179t62.5 145.5t64 97.5t32.5 35q9 0 19.5 -9t10.5 -18q0 -4 -18.5 -33t-42.5 -73.5t-42.5 -97.5
t-18.5 -105q0 -89 51 -148t133 -88t177 -29q153 0 294 49.5t220 126.5q35 35 43 88.5t10 88.5q-23 0 -47 -1.5t-64 -1.5q-87 0 -150.5 37.5t-63.5 114.5q0 47 20.5 108.5t54 120t73.5 97t79 38.5q41 0 75 -31.5t59.5 -79.5t41 -99t20.5 -89q16 -1 39.5 -1.5t83.5 -0.5
q54 0 66 -36t12 -69zM1087 208q-11 40 -48 72t-67 32q-26 0 -41.5 -18.5t-15.5 -37.5q0 -20 27.5 -30.5t67.5 -14t77 -3.5z" />
    <glyph glyph-name="uni0671.fina" unicode="&#x671;" horiz-adv-x="524" arabic-form="final" 
d="M627 110q0 -50 -15.5 -80t-61.5 -30h-52q-70 0 -128 22t-96.5 77.5t-50.5 157.5q-9 72 -19.5 171t-22.5 209.5t-25 219.5q-16 134 -29 241t-13 157q0 12 14.5 42t34.5 64t37 58t22 24t14 -10t9 -30q8 -117 17.5 -252.5t20 -271.5t21 -254.5t20 -203t18.5 -115.5
q17 -58 62 -75t94 -17h52q47 0 62 -27.5t15 -76.5zM459 1762q0 -29 -24.5 -70t-75.5 -72t-128 -31q-20 0 -66 1.5t-91.5 3t-64.5 1.5q-38 0 -48 -9t-16 -19q-2 -5 -5.5 -11.5t-8.5 -6.5q-9 0 -9 21t14.5 59.5t64.5 53.5q23 6 66 7.5t76 1.5q37 78 86 138t128 60
q102 0 102 -128zM378 1743q0 39 -52 39q-28 0 -66 -32t-55 -58q64 0 118.5 9.5t54.5 41.5z" />
    <glyph glyph-name="uni0672.fina" unicode="&#x672;" horiz-adv-x="524" 
d="M627 110q0 -50 -15.5 -80t-61.5 -30h-52q-70 0 -128 22t-96.5 77.5t-50.5 157.5q-9 72 -19.5 171t-22.5 209.5t-25 219.5q-16 134 -29 241t-13 157q0 12 14.5 42t34.5 64t37 58t22 24t14 -10t9 -30q8 -117 17.5 -252.5t20 -271.5t21 -254.5t20 -203t18.5 -115.5
q17 -58 62 -75t94 -17h52q47 0 62 -27.5t15 -76.5zM452 1794q0 -6 -7 -26.5t-19.5 -41.5t-29.5 -26q-19 -4 -77.5 -26t-116.5 -44q-69 -27 -117.5 -50t-87.5 -23q-48 0 -82 24.5t-75 24.5q-43 0 -80 -18.5t-47 -18.5q-17 0 -17 19q0 7 32 33.5t76.5 50.5t82.5 24
q56 0 83 -20t58 -20q26 0 49.5 15.5t58.5 28.5q-22 8 -51 30.5t-29 62.5q0 39 35 91t69 86q53 53 85 63.5t62 10.5q29 0 50.5 -25t21.5 -57q0 -15 -7.5 -39t-17.5 -42.5t-16 -18.5q-11 0 -46.5 21t-63.5 21q-27 0 -48.5 -17.5t-21.5 -32.5q0 -6 27 -24t63 -35.5t66 -20.5
q32 9 75.5 20t51.5 11q11 0 11 -11z" />
    <glyph glyph-name="uni0673.fina" unicode="&#x673;" horiz-adv-x="524" 
d="M627 110q0 -50 -15.5 -80t-61.5 -30h-52q-70 0 -128 22t-96.5 77.5t-50.5 157.5q-9 72 -19.5 171t-22.5 209.5t-25 219.5q-16 134 -29 241t-13 157q0 12 14.5 42t34.5 64t37 58t22 24t14 -10t9 -30q8 -117 17.5 -252.5t20 -271.5t21 -254.5t20 -203t18.5 -115.5
q17 -58 62 -75t94 -17h52q47 0 62 -27.5t15 -76.5zM575 -397q0 -6 -7 -26.5t-19.5 -41.5t-28.5 -26q-20 -4 -78.5 -26t-115.5 -44q-70 -27 -118.5 -50t-87.5 -23q-48 0 -81.5 24.5t-75.5 24.5t-79.5 -18.5t-47.5 -18.5q-17 0 -17 19q0 7 32 33.5t76.5 50.5t82.5 24
q57 0 83.5 -20t57.5 -20q26 0 49.5 15.5t59.5 28.5q-23 8 -51.5 30.5t-28.5 62.5q0 39 35 91t68 86q54 53 85.5 63.5t61.5 10.5t51.5 -25t21.5 -57q0 -15 -8 -39t-18 -42.5t-15 -18.5q-12 0 -47 21t-64 21q-27 0 -48 -17.5t-21 -32.5q0 -6 26.5 -24t63 -35.5t65.5 -20.5
q32 9 75.5 20t51.5 11q11 0 11 -11z" />
    <glyph glyph-name="uni0675.fina" unicode="&#x675;" horiz-adv-x="524" 
d="M620 109q0 -49 -15 -79t-60 -30h-52q-69 0 -126.5 21.5t-96 77t-49.5 155.5q-9 72 -19.5 170t-22.5 207.5t-24 217.5q-16 132 -29 238t-13 156q0 11 14.5 41t34.5 63.5t36.5 57.5t20.5 24q6 0 14.5 -10t9.5 -30q8 -116 17.5 -250t19.5 -268.5t20.5 -252t20 -201
t17.5 -114.5q18 -58 62 -74.5t93 -16.5h52q46 0 60.5 -27.5t14.5 -75.5zM730 1201q0 -8 -8 -28.5t-21 -40.5t-29 -25q-17 -5 -77.5 -28.5t-117.5 -44.5q-69 -27 -108.5 -46t-50.5 -19q-13 0 -13 14q0 12 15 43t22 39q8 10 33.5 24t36.5 18q-21 7 -49.5 31t-28.5 63t35.5 90
t67.5 84q55 54 87 64t61 10q31 0 51.5 -24.5t20.5 -56.5q0 -15 -8 -38t-18 -41.5t-17 -18.5q-10 0 -45.5 20.5t-64.5 20.5q-25 0 -46.5 -17t-21.5 -33q0 -6 27 -24.5t63 -36t64 -18.5q34 8 77.5 19t51.5 12q11 2 11 -12z" />
    <glyph glyph-name="uni0676.fina" unicode="&#x676;" horiz-adv-x="847" 
d="M942 107q0 -33 -12 -70t-65 -37l-146 -3q-13 -63 -43.5 -151.5t-77 -179t-107.5 -159.5q-74 -82 -147 -120t-148 -38q-44 0 -103 20.5t-114.5 48t-92 50.5t-36.5 28q0 9 8 19t19 10q17 0 67.5 -15t111.5 -15q83 0 175.5 40.5t177 111t145 160t79.5 187.5
q-142 12 -225.5 43.5t-83.5 129.5q0 40 22 105t57.5 132t75.5 112.5t75 45.5q38 0 70 -38.5t56 -95.5t37.5 -115.5t13.5 -100.5h134q53 0 65 -36t12 -69zM634 215q0 23 -21 54.5t-51.5 55t-58.5 23.5q-24 0 -40.5 -22.5t-16.5 -48.5q0 -20 47.5 -39.5t140.5 -22.5z
M1007 1201q0 -8 -7.5 -28.5t-20.5 -40.5t-30 -25t-77 -28.5t-118 -44.5q-69 -27 -108 -46t-50 -19q-14 0 -14 14q0 12 15.5 43t21.5 39q8 10 34 24t37 18q-21 7 -49.5 31t-28.5 63t35 90t68 84q55 54 87 64t60 10q31 0 52 -24.5t21 -56.5q0 -15 -8 -38t-18.5 -41.5
t-16.5 -18.5q-11 0 -46.5 20.5t-63.5 20.5q-26 0 -47 -17t-21 -33q0 -6 26.5 -24.5t62.5 -36t64 -18.5q35 8 78 19t51 12q11 2 11 -12z" />
    <glyph glyph-name="uni0677.fina" unicode="&#x677;" horiz-adv-x="847" 
d="M942 107q0 -33 -12 -70t-65 -37l-146 -3q-13 -63 -43.5 -151.5t-77 -179t-107.5 -159.5q-74 -82 -147 -120t-148 -38q-44 0 -103 20.5t-114.5 48t-92 50.5t-36.5 28q0 9 8 19t19 10q17 0 67.5 -15t111.5 -15q83 0 175.5 40.5t177 111t145 160t79.5 187.5
q-142 12 -225.5 43.5t-83.5 129.5q0 40 22 105t57.5 132t75.5 112.5t75 45.5q38 0 70 -38.5t56 -95.5t37.5 -115.5t13.5 -100.5h134q53 0 65 -36t12 -69zM634 215q0 23 -21 54.5t-51.5 55t-58.5 23.5q-24 0 -40.5 -22.5t-16.5 -48.5q0 -20 47.5 -39.5t140.5 -22.5zM558 1139
q0 -115 -69.5 -216.5t-159.5 -164.5q-5 -4 -21.5 15.5t-27 44.5t2.5 35q54 44 97.5 99.5t48.5 95.5q5 37 -6.5 33t-64.5 -4q-52 0 -87 36.5t-35 94.5q0 67 44.5 113t103.5 46q80 0 127 -69t47 -159zM1046 1131q0 -7 -8 -28.5t-21.5 -42t-30.5 -25.5t-79 -29.5t-121 -45.5
q-70 -27 -110.5 -46.5t-51.5 -19.5q-14 0 -14 14q0 12 15.5 44t22.5 40q8 10 34.5 24.5t37.5 18.5q-21 7 -50.5 31.5t-29.5 64.5t36 92.5t70 86.5q56 56 89 66t62 10q32 0 53 -25.5t21 -58.5q0 -15 -8 -38.5t-18.5 -42.5t-17.5 -19q-11 0 -47.5 21t-64.5 21q-27 0 -48.5 -17
t-21.5 -34q0 -6 27.5 -25.5t64.5 -37t65 -19.5q36 9 80 20.5t52 12.5q12 1 12 -13z" />
    <glyph glyph-name="uni0678.init" unicode="&#x678;" horiz-adv-x="742" 
d="M399 414q0 -212 -102 -313t-263 -101h-53q-47 0 -61.5 29t-14.5 78q0 50 16 77.5t60 27.5h53q62 0 125 9.5t97 27.5q30 14 43.5 32t13.5 28q0 15 -17.5 43t-40 59.5t-40 58t-17.5 37.5q0 10 13 38t32.5 62.5t38 65t29.5 44.5q37 -71 62.5 -149t25.5 -154zM743 1201
q0 -8 -7.5 -28.5t-20.5 -40.5t-30 -25t-77 -28.5t-118 -44.5q-69 -27 -108 -46t-50 -19q-14 0 -14 14q0 12 15.5 43t21.5 39q8 10 34 24t37 18q-21 7 -49.5 31t-28.5 63t35 90t68 84q55 54 87 64t60 10q31 0 52 -24.5t21 -56.5q0 -15 -8 -38t-18.5 -41.5t-16.5 -18.5
q-11 0 -46.5 20.5t-63.5 20.5q-26 0 -47 -17t-21 -33q0 -6 26.5 -24.5t62.5 -36t64 -18.5q35 8 78 19t51 12q11 2 11 -12z" />
    <glyph glyph-name="uni0678.medi" unicode="&#x678;" horiz-adv-x="546" 
d="M643 107q0 -44 -12 -75.5t-66 -31.5h-54q-40 0 -67 12t-51 36q-17 18 -37 48t-32 61q-49 -60 -112 -108.5t-177 -48.5h-51q-54 0 -66.5 31t-12.5 76q0 44 12.5 74.5t66.5 30.5h51q101 0 162 28t95 65t51.5 65t30.5 28q9 0 14.5 -20.5t16.5 -57.5q10 -35 33.5 -71.5
t72.5 -36.5h54q54 0 66 -30t12 -75zM747 1201q0 -8 -8 -28.5t-21 -40.5t-29 -25q-17 -5 -77.5 -28.5t-117.5 -44.5q-69 -27 -108.5 -46t-50.5 -19q-13 0 -13 14q0 12 15 43t22 39q8 10 33.5 24t36.5 18q-21 7 -49.5 31t-28.5 63t35.5 90t67.5 84q55 54 87 64t61 10
q31 0 51.5 -24.5t20.5 -56.5q0 -15 -8 -38t-18 -41.5t-17 -18.5q-10 0 -45.5 20.5t-64.5 20.5q-25 0 -46.5 -17t-21.5 -33q0 -6 27 -24.5t63 -36t64 -18.5q34 8 77.5 19t51.5 12q11 2 11 -12z" />
    <glyph glyph-name="uni0678.fina" unicode="&#x678;" horiz-adv-x="1458" 
d="M1553 107q0 -33 -12.5 -70t-65.5 -37h-147q-26 0 -67.5 -1t-83 -4.5t-67.5 -10.5q-48 -14 -77.5 -41t-29.5 -56q0 -26 35.5 -35.5t96.5 -17.5q58 -8 114 -27t93 -56t37 -98q0 -67 -47 -130.5t-126.5 -118t-179.5 -95.5t-207.5 -64t-208.5 -23q-164 0 -272.5 56t-162 155
t-53.5 226q0 83 24.5 167.5t57.5 155.5t60.5 114.5t32.5 43.5q8 0 19.5 -7t11.5 -14q0 -6 -26.5 -57t-52.5 -129.5t-26 -165.5q0 -128 67.5 -197.5t176.5 -96.5t233 -27q38 0 108.5 12.5t152.5 32.5t156.5 43.5t122.5 48t48 43.5q0 31 -47 44t-140 17q-98 4 -168 29.5
t-70 101.5q0 38 17.5 78t40.5 73q57 89 134.5 148.5t159.5 81.5q29 9 69.5 11t72.5 2h118q53 0 65.5 -36t12.5 -69zM1509 1201q0 -8 -8 -28.5t-21 -40.5t-29 -25q-17 -5 -77.5 -28.5t-118.5 -44.5q-69 -27 -108 -46t-50 -19q-13 0 -13 14q0 12 15 43t21 39q9 10 34.5 24
t36.5 18q-21 7 -49.5 31t-28.5 63t35 90t68 84q55 54 87 64t60 10q31 0 52 -24.5t21 -56.5q0 -15 -8 -38t-18 -41.5t-17 -18.5q-11 0 -46.5 20.5t-63.5 20.5q-25 0 -46.5 -17t-21.5 -33q0 -6 26.5 -24.5t63 -36t63.5 -18.5q35 8 78 19t51 12q12 2 12 -12z" />
    <glyph glyph-name="uni0679.init" unicode="&#x679;" horiz-adv-x="545" arabic-form="initial" 
d="M399 414q0 -212 -102 -313t-263 -101h-53q-47 0 -61.5 29t-14.5 78q0 50 16 77.5t60 27.5h53q62 0 125 9.5t97 27.5q30 14 43.5 32t13.5 28q0 15 -17.5 43t-40 59.5t-40 58t-17.5 37.5q0 10 13 38t32.5 62.5t38 65t29.5 44.5q37 -71 62.5 -149t25.5 -154zM558 1117
q0 -72 -50.5 -122t-129 -80.5t-164 -44t-155.5 -13.5q-21 0 -50 21t-50.5 47.5t-21.5 42.5q0 12 11 12q15 0 47 -3t58 -3q53 0 70 47q7 20 10 40t3 31q0 95 -22.5 176t-22.5 168q0 38 18.5 70t33.5 32q4 0 20.5 -25t31.5 -50.5t15 -27.5q-11 -9 -20.5 -23.5t-9.5 -41.5
q0 -51 10 -91t10 -110q0 -19 -1 -45t-4 -53q67 80 132.5 125t122.5 45q53 0 80.5 -39t27.5 -85zM483 1075q0 14 -27 22t-54 8q-52 0 -106.5 -29t-111.5 -96q109 9 175 30t95 41t29 24z" />
    <glyph glyph-name="uni0679.medi" unicode="&#x679;" horiz-adv-x="546" arabic-form="medial" 
d="M643 107q0 -44 -12 -75.5t-66 -31.5h-54q-40 0 -67 12t-51 36q-17 18 -37 48t-32 61q-49 -60 -112 -108.5t-177 -48.5h-51q-54 0 -66.5 31t-12.5 76q0 44 12.5 74.5t66.5 30.5h51q101 0 162 28t95 65t51.5 65t30.5 28q9 0 14.5 -20.5t16.5 -57.5q10 -35 33.5 -71.5
t72.5 -36.5h54q54 0 66 -30t12 -75zM584 809q0 -72 -50.5 -121.5t-129 -80t-164 -44.5t-155.5 -14q-21 0 -50 21.5t-50.5 48t-21.5 41.5q0 13 11 13q15 0 47 -3.5t58 -3.5q53 0 70 47q7 20 10 40.5t3 31.5q0 94 -22.5 175t-22.5 168q0 38 18.5 70.5t33.5 32.5q4 0 20.5 -25
t31.5 -50.5t15 -27.5q-11 -10 -20.5 -24t-9.5 -41q0 -51 10 -91.5t10 -109.5q0 -19 -1 -45.5t-4 -53.5q67 81 132.5 126t122.5 45q53 0 80.5 -39t27.5 -86zM509 768q0 14 -27 22t-54 8q-52 0 -106.5 -29.5t-111.5 -95.5q109 8 175 29.5t95 41.5t29 24z" />
    <glyph glyph-name="uni0679.fina" unicode="&#x679;" horiz-adv-x="2003" arabic-form="final" 
d="M2100 107q0 -33 -10.5 -70t-58.5 -37h-56q-89 0 -147 23.5t-105 119.5q-69 -71 -215.5 -130t-346.5 -94t-430 -35q-181 0 -320.5 45.5t-218.5 135t-79 222.5q0 65 18 127.5t42.5 114t45 82t26.5 30.5q5 0 15.5 -7t10.5 -17q0 -7 -16 -36.5t-32.5 -73t-16.5 -93.5
q0 -99 79.5 -165.5t219 -100.5t318.5 -34q169 0 334.5 16.5t299 52t206.5 91.5q29 21 41.5 44.5t27.5 23.5q11 0 22.5 -34t38.5 -57q25 -22 74 -30.5t108 -8.5h56q48 0 58.5 -36t10.5 -69zM1246 788q0 -72 -50.5 -122t-129 -80.5t-164 -44t-155.5 -13.5q-21 0 -49.5 21
t-50 47.5t-21.5 42.5q0 12 11 12q15 0 46.5 -3t58.5 -3q52 0 69 47q8 20 10.5 40t2.5 31q0 95 -22.5 176t-22.5 168q0 38 19 70t34 32q3 0 19.5 -25t31.5 -50.5t15 -27.5q-11 -9 -20.5 -23.5t-9.5 -41.5q0 -51 10.5 -91t10.5 -110q0 -19 -1.5 -45t-4.5 -53q68 80 133 125
t123 45q52 0 79.5 -39t27.5 -85zM1171 746q0 14 -27 22t-53 8q-52 0 -106.5 -29t-112.5 -96q110 9 175.5 30t94.5 41t29 24z" />
    <glyph glyph-name="uni067A.init" unicode="&#x67a;" horiz-adv-x="545" arabic-form="initial" 
d="M399 414q0 -212 -102 -313t-263 -101h-53q-47 0 -61.5 29t-14.5 78q0 50 16 77.5t60 27.5h53q62 0 125 9.5t97 27.5q30 14 43.5 32t13.5 28q0 15 -17.5 43t-40 59.5t-40 58t-17.5 37.5q0 10 13 38t32.5 62.5t38 65t29.5 44.5q37 -71 62.5 -149t25.5 -154zM390 1018
q0 -6 -14 -30.5t-34 -53t-37 -49t-22 -20.5q-4 0 -27 13.5t-50.5 33t-48 36.5t-20.5 23q0 8 18 37t41 60t38 46q7 9 7 18q0 7 -5 11q-17 11 -46 32t-52.5 40t-23.5 25q0 5 14.5 30t34 54.5t36.5 51.5t22 22q9 0 32.5 -16t51 -37t47 -38t19.5 -21q0 -5 -17.5 -34t-39.5 -61
t-35 -45q-3 -4 -8.5 -10t-5.5 -13t8 -12q17 -11 45 -31t50 -38t22 -24z" />
    <glyph glyph-name="uni067A.medi" unicode="&#x67a;" horiz-adv-x="546" arabic-form="medial" 
d="M643 107q0 -44 -12 -75.5t-66 -31.5h-54q-40 0 -67 12t-51 36q-17 18 -37 48t-32 61q-49 -60 -112 -108.5t-177 -48.5h-51q-54 0 -66.5 31t-12.5 76q0 44 12.5 74.5t66.5 30.5h51q101 0 162 28t95 65t51.5 65t30.5 28q9 0 14.5 -20.5t16.5 -57.5q10 -35 33.5 -71.5
t72.5 -36.5h54q54 0 66 -30t12 -75zM413 703q0 -6 -14 -30.5t-34 -53t-37 -49t-22 -20.5q-4 0 -27 13.5t-50.5 33t-48 36.5t-20.5 23q0 8 18 37t41 60t38 46q7 9 7 18q0 7 -5 11q-17 11 -46 32t-52.5 40t-23.5 25q0 5 14.5 30t34 54.5t36.5 51.5t22 22q9 0 32.5 -16t51 -37
t47 -38t19.5 -21q0 -5 -17.5 -34t-39.5 -61t-35 -45q-3 -4 -8.5 -10t-5.5 -13t8 -12q17 -11 45 -31t50 -38t22 -24z" />
    <glyph glyph-name="uni067A.fina" unicode="&#x67a;" horiz-adv-x="2003" arabic-form="final" 
d="M2100 107q0 -33 -10.5 -70t-58.5 -37h-56q-89 0 -147 23.5t-105 119.5q-69 -71 -215.5 -130t-346.5 -94t-430 -35q-181 0 -320.5 45.5t-218.5 135t-79 222.5q0 65 18 127.5t42.5 114t45 82t26.5 30.5q5 0 15.5 -7t10.5 -17q0 -7 -16 -36.5t-32.5 -73t-16.5 -93.5
q0 -99 79.5 -165.5t219 -100.5t318.5 -34q169 0 334.5 16.5t299 52t206.5 91.5q29 21 41.5 44.5t27.5 23.5q11 0 22.5 -34t38.5 -57q25 -22 74 -30.5t108 -8.5h56q48 0 58.5 -36t10.5 -69zM1075 700q0 -7 -14.5 -31t-34.5 -52.5t-37 -49.5t-22 -21q-4 0 -26.5 14t-50.5 33
t-48.5 36t-20.5 23q0 8 18 37t41 60.5t38 46.5q8 8 8 17q0 8 -6 11q-17 11 -46 32t-52.5 40t-23.5 25t14.5 30.5t34.5 54t37 51.5t22 22q8 0 32 -15.5t51 -36.5t47 -38.5t20 -20.5q0 -6 -18 -35t-40 -61t-35 -45q-3 -3 -8.5 -9.5t-5.5 -13.5t8 -12q17 -10 45 -30t50.5 -38.5
t22.5 -23.5z" />
    <glyph glyph-name="uni067B.init" unicode="&#x67b;" horiz-adv-x="545" arabic-form="initial" 
d="M399 414q0 -212 -102 -313t-263 -101h-53q-47 0 -61.5 29t-14.5 78q0 50 16 77.5t60 27.5h53q62 0 125 9.5t97 27.5q30 14 43.5 32t13.5 28q0 15 -17.5 43t-40 59.5t-40 58t-17.5 37.5q0 10 13 38t32.5 62.5t38 65t29.5 44.5q37 -71 62.5 -149t25.5 -154zM329 -511
q0 -6 -14.5 -30.5t-34 -53t-36.5 -49t-23 -20.5q-4 0 -26.5 13.5t-50.5 33t-48.5 36.5t-20.5 23q0 8 18.5 37t41.5 60t37 46q8 9 8 18q0 7 -5 11q-18 11 -47 32t-52 40t-23 25q0 5 14.5 30t34 54.5t36.5 51.5t22 22q8 0 32 -16t51.5 -37t47 -38t19.5 -21q0 -5 -18 -34
t-40 -61t-35 -45q-3 -4 -8.5 -10t-5.5 -13t8 -12q17 -11 45 -31t50.5 -38t22.5 -24z" />
    <glyph glyph-name="uni067B.medi" unicode="&#x67b;" horiz-adv-x="546" arabic-form="medial" 
d="M643 107q0 -44 -12 -75.5t-66 -31.5h-54q-40 0 -67 12t-51 36q-17 18 -37 48t-32 61q-49 -60 -112 -108.5t-177 -48.5h-51q-54 0 -66.5 31t-12.5 76q0 44 12.5 74.5t66.5 30.5h51q101 0 162 28t95 65t51.5 65t30.5 28q9 0 14.5 -20.5t16.5 -57.5q10 -35 33.5 -71.5
t72.5 -36.5h54q54 0 66 -30t12 -75zM413 -511q0 -6 -14 -30.5t-34 -53t-37 -49t-22 -20.5q-4 0 -27 13.5t-50.5 33t-48 36.5t-20.5 23q0 8 18 37t41 60t38 46q7 9 7 18q0 7 -5 11q-17 11 -46 32t-52.5 40t-23.5 25q0 5 14.5 30t34 54.5t36.5 51.5t22 22q9 0 32.5 -16t51 -37
t47 -38t19.5 -21q0 -5 -17.5 -34t-39.5 -61t-35 -45q-3 -4 -8.5 -10t-5.5 -13t8 -12q17 -11 45 -31t50 -38t22 -24z" />
    <glyph glyph-name="uni067B.fina" unicode="&#x67b;" horiz-adv-x="2003" arabic-form="final" 
d="M2100 107q0 -33 -10.5 -70t-58.5 -37h-56q-89 0 -147 23.5t-105 119.5q-69 -71 -215.5 -130t-346.5 -94t-430 -35q-181 0 -320.5 45.5t-218.5 135t-79 222.5q0 65 18 127.5t42.5 114t45 82t26.5 30.5q5 0 15.5 -7t10.5 -17q0 -7 -16 -36.5t-32.5 -73t-16.5 -93.5
q0 -99 79.5 -165.5t219 -100.5t318.5 -34q169 0 334.5 16.5t299 52t206.5 91.5q29 21 41.5 44.5t27.5 23.5q11 0 22.5 -34t38.5 -57q25 -22 74 -30.5t108 -8.5h56q48 0 58.5 -36t10.5 -69zM988 -636q0 -6 -14.5 -30.5t-34 -53t-36.5 -49t-23 -20.5q-4 0 -26.5 13.5t-50.5 33
t-48.5 36.5t-20.5 23q0 8 18.5 37t41.5 60t37 46q8 9 8 18q0 7 -5 11q-18 11 -47 32t-52 40t-23 25q0 5 14.5 30t34 54.5t36.5 51.5t22 22q8 0 32 -16t51.5 -37t47 -38t19.5 -21q0 -5 -18 -34t-40 -61t-35 -45q-3 -4 -8.5 -10t-5.5 -13t8 -12q17 -11 45 -31t50.5 -38
t22.5 -24z" />
    <glyph glyph-name="uni067C.init" unicode="&#x67c;" horiz-adv-x="545" 
d="M399 414q0 -212 -102 -313t-263 -101h-53q-47 0 -61.5 29t-14.5 78q0 50 16 77.5t60 27.5h53q62 0 125 9.5t97 27.5q30 14 43.5 32t13.5 28q0 15 -17.5 43t-40 59.5t-40 58t-17.5 37.5q0 10 13 38t32.5 62.5t38 65t29.5 44.5q37 -71 62.5 -149t25.5 -154zM520 1043
q0 -6 -14 -31.5t-33.5 -55.5t-36.5 -52t-23 -22q-4 0 -25 15t-47.5 34.5t-46.5 35t-22 17.5q-7 6 -13 6q-4 0 -10 -8q-1 -1 -14.5 -20.5t-31.5 -44.5t-33.5 -43.5t-20.5 -18.5q-4 0 -27 14.5t-50.5 35t-48.5 38t-21 22.5q0 7 15 32t35.5 55t37 52.5t20.5 22.5q7 0 28 -14.5
t45.5 -34t42.5 -35t19 -16.5q10 -10 14 -10q7 0 15 13q1 2 14.5 21t32 43.5t33.5 42.5t19 18q6 0 29 -15.5t50.5 -36.5t47.5 -38.5t20 -21.5zM424 -65q0 -94 -62 -161t-155 -67q-69 0 -106 49t-37 154q0 86 56 153.5t148 67.5q44 0 79 -32t56 -77.5t21 -86.5zM335 -103
q0 19 -22 44.5t-52.5 44t-57.5 18.5q-34 0 -54.5 -26t-20.5 -54q0 -32 34 -52t78 -20q25 0 60 14t35 31z" />
    <glyph glyph-name="uni067C.medi" unicode="&#x67c;" horiz-adv-x="546" 
d="M643 107q0 -44 -12 -75.5t-66 -31.5h-54q-40 0 -67 12t-51 36q-17 18 -37 48t-32 61q-49 -60 -112 -108.5t-177 -48.5h-51q-54 0 -66.5 31t-12.5 76q0 44 12.5 74.5t66.5 30.5h51q101 0 162 28t95 65t51.5 65t30.5 28q9 0 14.5 -20.5t16.5 -57.5q10 -35 33.5 -71.5
t72.5 -36.5h54q54 0 66 -30t12 -75zM533 723q0 -6 -14 -31.5t-33.5 -55.5t-36.5 -52t-23 -22q-4 0 -25 15t-47.5 34.5t-46.5 35t-22 17.5q-7 6 -13 6q-4 0 -10 -8q-1 -1 -14.5 -20.5t-31.5 -44.5t-33.5 -43.5t-20.5 -18.5q-4 0 -27 14.5t-50.5 35t-48.5 38t-21 22.5
q0 7 15 32t35.5 55t37 52.5t20.5 22.5q7 0 28 -14.5t45.5 -34t42.5 -35t19 -16.5q10 -10 14 -10q7 0 15 13q1 2 14.5 21t32 43.5t33.5 42.5t19 18q6 0 29 -15.5t50.5 -36.5t47.5 -38.5t20 -21.5zM483 -44q0 -93 -62 -160.5t-155 -67.5q-69 0 -106 49t-37 155q0 85 56 153
t148 68q44 0 79 -32t56 -78t21 -87zM394 -82q0 19 -22 44.5t-52.5 44.5t-57.5 19q-34 0 -54.5 -26t-20.5 -55q0 -32 34 -52t78 -20q25 0 60 14.5t35 30.5z" />
    <glyph glyph-name="uni067C.fina" unicode="&#x67c;" horiz-adv-x="2003" 
d="M2100 107q0 -33 -10.5 -70t-58.5 -37h-56q-89 0 -147 23.5t-105 119.5q-69 -71 -215.5 -130t-346.5 -94t-430 -35q-181 0 -320.5 45.5t-218.5 135t-79 222.5q0 65 18 127.5t42.5 114t45 82t26.5 30.5q5 0 15.5 -7t10.5 -17q0 -7 -16 -36.5t-32.5 -73t-16.5 -93.5
q0 -99 79.5 -165.5t219 -100.5t318.5 -34q169 0 334.5 16.5t299 52t206.5 91.5q29 21 41.5 44.5t27.5 23.5q11 0 22.5 -34t38.5 -57q25 -22 74 -30.5t108 -8.5h56q48 0 58.5 -36t10.5 -69zM1201 723q0 -6 -14 -31.5t-33.5 -55.5t-36.5 -52t-23 -22q-4 0 -25 15t-47.5 34.5
t-46.5 35t-22 17.5q-7 6 -13 6q-4 0 -10 -8q-1 -1 -14.5 -20.5t-31.5 -44.5t-33.5 -43.5t-20.5 -18.5q-4 0 -27 14.5t-50.5 35t-48.5 38t-21 22.5q0 7 15 32t35.5 55t37 52.5t20.5 22.5q7 0 28 -14.5t45.5 -34t42.5 -35t19 -16.5q10 -10 14 -10q7 0 15 13q1 2 14.5 21
t32 43.5t33.5 42.5t19 18q6 0 29 -15.5t50.5 -36.5t47.5 -38.5t20 -21.5zM997 -234q0 -93 -62 -160.5t-155 -67.5q-69 0 -106 49t-37 155q0 85 56 153t148 68q44 0 79 -32t56 -78t21 -87zM908 -272q0 19 -22 44.5t-52.5 44.5t-57.5 19q-34 0 -54.5 -26t-20.5 -55
q0 -32 34 -52t78 -20q25 0 60 14.5t35 30.5z" />
    <glyph glyph-name="uni067D.init" unicode="&#x67d;" horiz-adv-x="545" 
d="M399 414q0 -212 -102 -313t-263 -101h-53q-47 0 -61.5 29t-14.5 78q0 50 16 77.5t60 27.5h53q62 0 125 9.5t97 27.5q30 14 43.5 32t13.5 28q0 15 -17.5 43t-40 59.5t-40 58t-17.5 37.5q0 10 13 38t32.5 62.5t38 65t29.5 44.5q37 -71 62.5 -149t25.5 -154zM407 1015
q0 -6 -14 -31t-34 -55t-37.5 -52t-25.5 -22q-4 0 -27 15t-51 35t-49 37.5t-21 23.5t15 31t35.5 55.5t38 52.5t22.5 22q6 0 29.5 -15t51 -36t47.5 -39t20 -22zM514 1329q0 -6 -14.5 -31.5t-33.5 -55.5t-36.5 -52t-23.5 -22q-3 0 -24.5 15t-47.5 34.5t-46 35t-22 17.5
q-8 6 -13 6t-10 -8q-2 -1 -15 -20.5t-31 -44.5t-33.5 -43.5t-21.5 -18.5q-4 0 -26.5 14.5t-50.5 35t-48.5 38t-20.5 22.5q0 7 15 32t35 55t37 52.5t20 22.5q8 0 29 -14.5t45 -34t42 -35t20 -16.5q10 -10 14 -10q6 0 14 13q2 2 15.5 21t31.5 43.5t33 42.5t19 18q6 0 29 -15.5
t50.5 -36.5t48 -38.5t20.5 -21.5z" />
    <glyph glyph-name="uni067D.medi" unicode="&#x67d;" horiz-adv-x="546" 
d="M643 107q0 -44 -12 -75.5t-66 -31.5h-54q-40 0 -67 12t-51 36q-17 18 -37 48t-32 61q-49 -60 -112 -108.5t-177 -48.5h-51q-54 0 -66.5 31t-12.5 76q0 44 12.5 74.5t66.5 30.5h51q101 0 162 28t95 65t51.5 65t30.5 28q9 0 14.5 -20.5t16.5 -57.5q10 -35 33.5 -71.5
t72.5 -36.5h54q54 0 66 -30t12 -75zM427 693q0 -5 -14 -30t-33.5 -55t-37.5 -52t-25 -22q-4 0 -27 14.5t-51 35t-49 38t-21 23.5t14.5 31t35 55t38 52.5t23.5 22.5t29.5 -15.5t50.5 -36.5t47 -38.5t20 -22.5zM534 1007q0 -6 -14 -31t-33.5 -55t-36.5 -52t-23 -22
q-4 0 -25 15t-47.5 34.5t-46.5 35t-21 16.5q-8 6 -13 6t-11 -7q-1 -2 -14.5 -21.5t-31 -44t-33 -43.5t-21.5 -19q-4 0 -27 15t-50.5 35.5t-48 38t-20.5 22.5q0 6 15 31.5t35 55.5t36.5 52t20.5 22q8 0 29 -14.5t45 -33.5t42 -34.5t20 -17.5q9 -9 13 -9q7 0 15 12
q1 2 15 21.5t32 43.5t33 42.5t19 18.5q6 0 29 -15.5t50.5 -36.5t47.5 -38.5t20 -22.5z" />
    <glyph glyph-name="uni067D.fina" unicode="&#x67d;" horiz-adv-x="2003" 
d="M2100 107q0 -33 -10.5 -70t-58.5 -37h-56q-89 0 -147 23.5t-105 119.5q-69 -71 -215.5 -130t-346.5 -94t-430 -35q-181 0 -320.5 45.5t-218.5 135t-79 222.5q0 65 18 127.5t42.5 114t45 82t26.5 30.5q5 0 15.5 -7t10.5 -17q0 -7 -16 -36.5t-32.5 -73t-16.5 -93.5
q0 -99 79.5 -165.5t219 -100.5t318.5 -34q169 0 334.5 16.5t299 52t206.5 91.5q29 21 41.5 44.5t27.5 23.5q11 0 22.5 -34t38.5 -57q25 -22 74 -30.5t108 -8.5h56q48 0 58.5 -36t10.5 -69zM1088 665q0 -6 -14 -31t-33.5 -55t-37.5 -52t-25 -22q-4 0 -27 15t-51 35t-49 37.5
t-21 23.5t14.5 31t35 55.5t38 52.5t23.5 22t29.5 -15t50.5 -36t47 -39t20 -22zM1195 979q0 -6 -14 -31.5t-33.5 -55.5t-36.5 -52t-23 -22q-4 0 -25 15t-47.5 34.5t-46.5 35t-21 17.5q-8 6 -13 6t-11 -8q-1 -1 -14.5 -20.5t-31 -44.5t-33 -43.5t-21.5 -18.5q-4 0 -27 14.5
t-50.5 35t-48 38t-20.5 22.5q0 7 15 32t35 55t36.5 52.5t20.5 22.5q8 0 29 -14.5t45 -34t42 -35t20 -16.5q9 -10 13 -10q7 0 15 13q1 2 15 21t32 43.5t33 42.5t19 18q6 0 29 -15.5t50.5 -36.5t47.5 -38.5t20 -21.5z" />
    <glyph glyph-name="uni067E.init" unicode="&#x67e;" horiz-adv-x="545" arabic-form="initial" 
d="M399 414q0 -212 -102 -313t-263 -101h-53q-47 0 -61.5 29t-14.5 78q0 50 16 77.5t60 27.5h53q62 0 125 9.5t97 27.5q30 14 43.5 32t13.5 28q0 15 -17.5 43t-40 59.5t-40 58t-17.5 37.5q0 10 13 38t32.5 62.5t38 65t29.5 44.5q37 -71 62.5 -149t25.5 -154zM349 -550
q0 -6 -14 -31t-34 -55t-37.5 -52t-25.5 -22q-4 0 -27 15t-51 35t-49 37.5t-21 23.5t15 31t35.5 55.5t38 52.5t22.5 22q6 0 29.5 -15t51 -36t47.5 -39t20 -22zM456 -236q0 -6 -14.5 -31.5t-33.5 -55.5t-36.5 -52t-23.5 -22q-3 0 -24.5 15t-47.5 34.5t-46 35t-22 17.5
q-8 6 -13 6t-10 -8q-2 -1 -15 -20.5t-31 -44.5t-33.5 -43.5t-21.5 -18.5q-4 0 -26.5 14.5t-50.5 35t-48.5 38t-20.5 22.5q0 7 15 32t35 55t37 52.5t20 22.5q8 0 29 -14.5t45 -34t42 -35t20 -16.5q10 -10 14 -10q6 0 14 13q2 2 15.5 21t31.5 43.5t33 42.5t19 18q6 0 29 -15.5
t50.5 -36.5t48 -38.5t20.5 -21.5z" />
    <glyph glyph-name="uni067E.medi" unicode="&#x67e;" horiz-adv-x="546" arabic-form="medial" 
d="M643 107q0 -44 -12 -75.5t-66 -31.5h-54q-40 0 -67 12t-51 36q-17 18 -37 48t-32 61q-49 -60 -112 -108.5t-177 -48.5h-51q-54 0 -66.5 31t-12.5 76q0 44 12.5 74.5t66.5 30.5h51q101 0 162 28t95 65t51.5 65t30.5 28q9 0 14.5 -20.5t16.5 -57.5q10 -35 33.5 -71.5
t72.5 -36.5h54q54 0 66 -30t12 -75zM429 -549q0 -6 -14 -31t-33.5 -55t-37.5 -52t-25 -22q-4 0 -27 15t-51.5 35t-49.5 37.5t-21 23.5t15 31t35.5 55.5t38 52.5t22.5 22q7 0 30 -15t50.5 -36t47.5 -39t20 -22zM536 -235q0 -6 -14 -31.5t-33.5 -55.5t-36.5 -52t-23 -22
q-4 0 -25 15t-47.5 34.5t-46.5 35t-22 17.5q-7 6 -13 6q-4 0 -10 -8q-1 -1 -14.5 -20.5t-31.5 -44.5t-33.5 -43.5t-20.5 -18.5q-4 0 -27 14.5t-50.5 35t-48.5 38t-21 22.5q0 7 15 32t35.5 55t37 52.5t20.5 22.5q7 0 28 -14.5t45.5 -34t42.5 -35t19 -16.5q10 -10 14 -10
q7 0 15 13q1 2 14.5 21t32 43.5t33.5 42.5t19 18q6 0 29 -15.5t50.5 -36.5t47.5 -38.5t20 -21.5z" />
    <glyph glyph-name="uni067E.fina" unicode="&#x67e;" horiz-adv-x="2003" arabic-form="final" 
d="M2100 107q0 -33 -10.5 -70t-58.5 -37h-56q-89 0 -147 23.5t-105 119.5q-69 -71 -215.5 -130t-346.5 -94t-430 -35q-181 0 -320.5 45.5t-218.5 135t-79 222.5q0 65 18 127.5t42.5 114t45 82t26.5 30.5q5 0 15.5 -7t10.5 -17q0 -7 -16 -36.5t-32.5 -73t-16.5 -93.5
q0 -99 79.5 -165.5t219 -100.5t318.5 -34q169 0 334.5 16.5t299 52t206.5 91.5q29 21 41.5 44.5t27.5 23.5q11 0 22.5 -34t38.5 -57q25 -22 74 -30.5t108 -8.5h56q48 0 58.5 -36t10.5 -69zM1010 -676q0 -5 -14 -30t-33.5 -55t-37.5 -52t-25 -22q-4 0 -27 14.5t-51.5 35
t-49.5 38t-21 23.5t15 31t35.5 55t38 52.5t22.5 22.5q7 0 30 -15.5t50.5 -36.5t47.5 -38.5t20 -22.5zM1117 -362q0 -6 -14 -31t-33.5 -55t-36.5 -52t-23 -22q-4 0 -25 15t-47.5 34.5t-46.5 35t-22 16.5q-7 6 -13 6q-4 0 -10 -7q-1 -2 -14.5 -21.5t-31.5 -44t-33.5 -43.5
t-20.5 -19q-4 0 -27 15t-50.5 35.5t-48.5 38t-21 22.5q0 6 15 31.5t35.5 55.5t37 52t20.5 22q7 0 28 -14.5t45.5 -33.5t42.5 -34.5t19 -17.5q10 -9 14 -9q7 0 15 12q1 2 14.5 21.5t32 43.5t33.5 42.5t19 18.5q6 0 29 -15.5t50.5 -36.5t47.5 -38.5t20 -22.5z" />
    <glyph glyph-name="uni067F.init" unicode="&#x67f;" horiz-adv-x="545" arabic-form="initial" 
d="M399 414q0 -212 -102 -313t-263 -101h-53q-47 0 -61.5 29t-14.5 78q0 50 16 77.5t60 27.5h53q62 0 125 9.5t97 27.5q30 14 43.5 32t13.5 28q0 15 -17.5 43t-40 59.5t-40 58t-17.5 37.5q0 10 13 38t32.5 62.5t38 65t29.5 44.5q37 -71 62.5 -149t25.5 -154zM505 1319
q0 -6 -14 -31.5t-33.5 -55.5t-36.5 -52t-23 -22q-4 0 -25 15t-47.5 34.5t-46.5 35t-22 17.5q-7 6 -13 6q-4 0 -10 -8q-1 -1 -14.5 -20.5t-31.5 -44.5t-33.5 -43.5t-20.5 -18.5q-4 0 -27 14.5t-50.5 35t-48.5 38t-21 22.5q0 7 15 32t35.5 55.5t37 52.5t20.5 22
q8 0 28.5 -14.5t45 -34t42.5 -35t19 -16.5q10 -10 14 -10q7 0 15 13q1 2 14.5 21t32 43.5t33.5 42.5t19 18q6 0 29 -15.5t50.5 -36.5t47.5 -38.5t20 -21.5zM531 1037q0 -6 -14 -31.5t-33.5 -55.5t-37 -52t-23.5 -22q-3 0 -24.5 15t-47.5 34.5t-46 35t-22 17.5q-7 6 -13 6
q-5 0 -10 -8q-2 -1 -15 -20.5t-31 -44.5t-33.5 -43.5t-20.5 -18.5t-27.5 14.5t-50.5 35t-48.5 38t-20.5 22.5q0 7 15 32t35 55.5t37 52.5t21 22q7 0 28 -14.5t45 -34t42 -35t20 -16.5q10 -9 14 -9q6 0 14 12q2 2 15.5 21t31.5 43.5t33 42.5t19 18q6 0 29.5 -15.5t50.5 -36.5
t47.5 -38.5t20.5 -21.5z" />
    <glyph glyph-name="uni067F.medi" unicode="&#x67f;" horiz-adv-x="546" arabic-form="medial" 
d="M643 107q0 -44 -12 -75.5t-66 -31.5h-54q-40 0 -67 12t-51 36q-17 18 -37 48t-32 61q-49 -60 -112 -108.5t-177 -48.5h-51q-54 0 -66.5 31t-12.5 76q0 44 12.5 74.5t66.5 30.5h51q101 0 162 28t95 65t51.5 65t30.5 28q9 0 14.5 -20.5t16.5 -57.5q10 -35 33.5 -71.5
t72.5 -36.5h54q54 0 66 -30t12 -75zM521 999q0 -6 -14.5 -31t-33.5 -55t-36.5 -52t-23.5 -22q-3 0 -24.5 14.5t-47.5 34.5t-46 35.5t-22 16.5q-8 6 -13 6t-10 -7q-2 -2 -15 -21.5t-31 -44.5t-33.5 -43.5t-20.5 -18.5t-27.5 15t-50.5 35.5t-48.5 38t-20.5 22.5q0 6 15 31.5
t35 55.5t37 52t20 22q8 0 29 -14.5t45 -34t42 -34.5t20 -17q10 -9 14 -9q6 0 14 12q2 2 15.5 21.5t31.5 43.5t33 42t19 18q6 0 29 -15t50.5 -36t48 -39t20.5 -22zM546 717q0 -6 -14 -31t-33.5 -55t-36.5 -52t-23 -22q-4 0 -25 14.5t-47 34.5t-46.5 35.5t-21.5 16.5
q-8 6 -13 6t-11 -7q-1 -2 -14.5 -21.5t-31 -44.5t-33 -43.5t-21.5 -18.5q-4 0 -27 15t-50.5 35.5t-48 38t-20.5 22.5q0 6 15 31.5t35 55.5t37 52t20 22q8 0 29 -14.5t45 -34t42 -34.5t20 -17q9 -9 13 -9q7 0 15 12q1 2 15 21.5t32 43.5t33 42t19 18q6 0 29 -15t50.5 -36
t47.5 -39t20 -22z" />
    <glyph glyph-name="uni067F.fina" unicode="&#x67f;" horiz-adv-x="2003" arabic-form="final" 
d="M2100 107q0 -33 -10.5 -70t-58.5 -37h-56q-89 0 -147 23.5t-105 119.5q-69 -71 -215.5 -130t-346.5 -94t-430 -35q-181 0 -320.5 45.5t-218.5 135t-79 222.5q0 65 18 127.5t42.5 114t45 82t26.5 30.5q5 0 15.5 -7t10.5 -17q0 -7 -16 -36.5t-32.5 -73t-16.5 -93.5
q0 -99 79.5 -165.5t219 -100.5t318.5 -34q169 0 334.5 16.5t299 52t206.5 91.5q29 21 41.5 44.5t27.5 23.5q11 0 22.5 -34t38.5 -57q25 -22 74 -30.5t108 -8.5h56q48 0 58.5 -36t10.5 -69zM1194 986q0 -6 -14.5 -31t-33.5 -55t-36.5 -52t-23.5 -22q-3 0 -24.5 14.5
t-47.5 34.5t-46 35.5t-22 16.5q-8 6 -13 6t-10 -7q-2 -2 -15 -21.5t-31 -44.5t-33.5 -43.5t-20.5 -18.5t-27.5 15t-50.5 35.5t-48.5 38t-20.5 22.5q0 6 15 31.5t35 55.5t37 52t20 22q8 0 29 -14.5t45 -34t42 -34.5t20 -17q10 -9 14 -9q6 0 14 12q2 2 15.5 21.5t31.5 43.5
t33 42t19 18q6 0 29 -15t50.5 -36t48 -39t20.5 -22zM1219 704q0 -6 -14 -31t-33.5 -55t-36.5 -52t-23 -22q-4 0 -25 14.5t-47 34.5t-46.5 35.5t-21.5 16.5q-8 6 -13 6t-11 -7q-1 -2 -14.5 -21.5t-31 -44.5t-33 -43.5t-21.5 -18.5q-4 0 -27 15t-50.5 35.5t-48 38t-20.5 22.5
q0 6 15 31.5t35 55.5t37 52t20 22q8 0 29 -14.5t45 -34t42 -34.5t20 -17q9 -9 13 -9q7 0 15 12q1 2 15 21.5t32 43.5t33 42t19 18q6 0 29 -15t50.5 -36t47.5 -39t20 -22z" />
    <glyph glyph-name="uni0680.init" unicode="&#x680;" horiz-adv-x="557" arabic-form="initial" 
d="M399 414q0 -212 -102 -313t-263 -101h-53q-47 0 -61.5 29t-14.5 78q0 50 16 77.5t60 27.5h53q62 0 125 9.5t97 27.5q30 14 43.5 32t13.5 28q0 15 -17.5 43t-40 59.5t-40 58t-17.5 37.5q0 10 13 38t32.5 62.5t38 65t29.5 44.5q37 -71 62.5 -149t25.5 -154zM456 -263
q0 -6 -14 -31.5t-33.5 -55.5t-36.5 -52t-23 -22q-4 0 -25 15t-47.5 34.5t-46.5 35t-21 17.5q-8 6 -13 6t-11 -8q-1 -1 -14.5 -20.5t-31 -44.5t-33 -43.5t-21.5 -18.5q-4 0 -27 14.5t-50.5 35t-48 38t-20.5 22.5q0 7 15 32t35 55.5t36.5 52.5t20.5 22q8 0 29 -14.5t45 -34
t42 -35t20 -16.5q9 -10 13 -10q7 0 15 13q1 2 15 21t32 43.5t33 42.5t19 18q6 0 29 -15.5t50.5 -36.5t47.5 -38.5t20 -21.5zM482 -545q0 -6 -14 -31.5t-33.5 -55.5t-36.5 -52t-23 -22q-4 0 -25 15t-47.5 34.5t-46.5 35t-22 17.5q-7 6 -13 6q-4 0 -10 -8q-1 -1 -14.5 -20.5
t-31.5 -44.5t-33.5 -43.5t-20.5 -18.5q-4 0 -27 14.5t-50.5 35t-48 38t-20.5 22.5q0 7 14.5 32t35 55.5t37 52.5t20.5 22q8 0 28.5 -14.5t45 -34t42.5 -35t19 -16.5q10 -9 14 -9q7 0 15 12q1 2 14.5 21t32 43.5t33.5 42.5t19 18q6 0 29 -15.5t50.5 -36.5t47.5 -38.5
t20 -21.5z" />
    <glyph glyph-name="uni0680.medi" unicode="&#x680;" horiz-adv-x="546" arabic-form="medial" 
d="M643 107q0 -44 -12 -75.5t-66 -31.5h-54q-40 0 -67 12t-51 36q-17 18 -37 48t-32 61q-49 -60 -112 -108.5t-177 -48.5h-51q-54 0 -66.5 31t-12.5 76q0 44 12.5 74.5t66.5 30.5h51q101 0 162 28t95 65t51.5 65t30.5 28q9 0 14.5 -20.5t16.5 -57.5q10 -35 33.5 -71.5
t72.5 -36.5h54q54 0 66 -30t12 -75zM520 -239q0 -6 -14 -31.5t-33.5 -55.5t-36.5 -52t-23 -22q-4 0 -25 15t-47.5 34.5t-46.5 35t-21 17.5q-8 6 -13 6t-11 -8q-1 -1 -14.5 -20.5t-31 -44.5t-33 -43.5t-21.5 -18.5q-4 0 -27 14.5t-50.5 35t-48 38t-20.5 22.5q0 7 15 32
t35 55.5t36.5 52.5t20.5 22q8 0 29 -14.5t45 -34t42 -35t20 -16.5q9 -10 13 -10q7 0 15 13q1 2 15 21t32 43.5t33 42.5t19 18q6 0 29 -15.5t50.5 -36.5t47.5 -38.5t20 -21.5zM546 -521q0 -6 -14 -31.5t-33.5 -55.5t-36.5 -52t-23 -22q-4 0 -25 15t-47.5 34.5t-46.5 35
t-22 17.5q-7 6 -13 6q-4 0 -10 -8q-1 -1 -14.5 -20.5t-31.5 -44.5t-33.5 -43.5t-20.5 -18.5q-4 0 -27 14.5t-50.5 35t-48 38t-20.5 22.5q0 7 14.5 32t35 55.5t37 52.5t20.5 22q8 0 28.5 -14.5t45 -34t42.5 -35t19 -16.5q10 -9 14 -9q7 0 15 12q1 2 14.5 21t32 43.5
t33.5 42.5t19 18q6 0 29 -15.5t50.5 -36.5t47.5 -38.5t20 -21.5z" />
    <glyph glyph-name="uni0680.fina" unicode="&#x680;" horiz-adv-x="2003" arabic-form="final" 
d="M2100 107q0 -33 -10.5 -70t-58.5 -37h-56q-89 0 -147 23.5t-105 119.5q-69 -71 -215.5 -130t-346.5 -94t-430 -35q-181 0 -320.5 45.5t-218.5 135t-79 222.5q0 65 18 127.5t42.5 114t45 82t26.5 30.5q5 0 15.5 -7t10.5 -17q0 -7 -16 -36.5t-32.5 -73t-16.5 -93.5
q0 -99 79.5 -165.5t219 -100.5t318.5 -34q169 0 334.5 16.5t299 52t206.5 91.5q29 21 41.5 44.5t27.5 23.5q11 0 22.5 -34t38.5 -57q25 -22 74 -30.5t108 -8.5h56q48 0 58.5 -36t10.5 -69zM1096 -368q0 -6 -14 -31.5t-33.5 -55.5t-36.5 -52t-23 -22q-4 0 -25 15t-47.5 34.5
t-46.5 35t-21 17.5q-8 6 -13 6t-11 -8q-1 -1 -14.5 -20.5t-31 -44.5t-33 -43.5t-21.5 -18.5q-4 0 -27 14.5t-50.5 35t-48 38t-20.5 22.5q0 7 15 32t35 55.5t36.5 52.5t20.5 22q8 0 29 -14.5t45 -34t42 -35t20 -16.5q9 -10 13 -10q7 0 15 13q1 2 15 21t32 43.5t33 42.5t19 18
q6 0 29 -15.5t50.5 -36.5t47.5 -38.5t20 -21.5zM1122 -650q0 -6 -14 -31.5t-33.5 -55.5t-36.5 -52t-23 -22q-4 0 -25 15t-47.5 34.5t-46.5 35t-22 17.5q-7 6 -13 6q-4 0 -10 -8q-1 -1 -14.5 -20.5t-31.5 -44.5t-33.5 -43.5t-20.5 -18.5q-4 0 -27 14.5t-50.5 35t-48 38
t-20.5 22.5q0 7 14.5 32t35 55.5t37 52.5t20.5 22q8 0 28.5 -14.5t45 -34t42.5 -35t19 -16.5q10 -9 14 -9q7 0 15 12q1 2 14.5 21t32 43.5t33.5 42.5t19 18q6 0 29 -15.5t50.5 -36.5t47.5 -38.5t20 -21.5z" />
    <glyph glyph-name="uni0681.init" unicode="&#x681;" horiz-adv-x="1447" 
d="M1331 490q0 -4 -5 -27.5t-12.5 -53t-14 -53t-10.5 -25.5q-40 -2 -108 -2.5t-144 0t-140 0.5q-116 0 -212.5 -48.5t-180.5 -98.5q-72 -42 -147.5 -84t-155 -70t-165.5 -28h-52q-54 0 -66.5 37t-12.5 70t12.5 69t66.5 36h51q109 0 204 16.5t193 55.5q54 23 116 49t119 43
q-56 18 -119.5 46.5t-131 51.5t-134.5 23q-40 0 -78.5 -11t-65 -21.5t-31.5 -10.5q-3 0 -10.5 4.5t-7.5 9.5q0 39 36 101.5t88 100.5q33 23 68 32.5t90 9.5q53 0 123 -28.5t141.5 -63.5t130.5 -54q74 -26 170.5 -43t206.5 -22q68 -3 128 -4.5t60 -6.5zM880 1078
q0 -8 -8 -28.5t-21 -40.5t-29 -25q-17 -5 -77.5 -29t-117.5 -45q-69 -26 -108.5 -45t-50.5 -19q-13 0 -13 14q0 12 15 43t22 39q8 10 33.5 24t36.5 18q-21 7 -49.5 30.5t-28.5 63.5q0 38 35.5 89.5t67.5 84.5q55 54 87 64t61 10q31 0 51.5 -24.5t20.5 -57.5q0 -15 -8 -38
t-18 -41t-17 -18q-10 0 -45.5 20.5t-64.5 20.5q-25 0 -46.5 -17t-21.5 -33q0 -6 27 -25t63 -36.5t64 -18.5q34 9 77.5 20t51.5 12q11 1 11 -12z" />
    <glyph glyph-name="uni0681.medi" unicode="&#x681;" horiz-adv-x="1500" 
d="M1596 107q0 -33 -12.5 -70t-65.5 -37h-52q-174 0 -285.5 13t-165.5 50q-65 44 -65 141q0 29 8 62t17 65h-25q-104 0 -188 -25.5t-157 -65.5t-142 -82q-98 -60 -199 -109t-229 -49h-51q-54 0 -66.5 37t-12.5 70t12.5 69t66.5 36h51q141 0 241 25t182 59q52 22 105.5 45
t107.5 35q-39 15 -106 44.5t-146.5 54t-154.5 24.5q-59 0 -103.5 -21t-49.5 -21q-6 0 -13 4.5t-7 8.5q0 60 42.5 118t95.5 89q30 19 67 27t71 8q44 0 102 -20.5t121.5 -49.5t125 -55.5t111.5 -38.5q76 -17 149.5 -27t159 -14t197.5 -4q5 0 8 -5.5t3 -8.5t-7 -34t-15 -65
t-13 -45q-2 -10 -76.5 -13.5t-173.5 -3.5q-1 -3 -1 -18q0 -39 55 -61q42 -18 105.5 -26t130 -9.5t117.5 -1.5h52q53 0 65.5 -36t12.5 -69zM968 1067q0 -8 -7.5 -28.5t-20.5 -40.5t-30 -25t-77 -28.5t-118 -44.5q-69 -27 -108 -46t-50 -19q-14 0 -14 14q0 12 15.5 43t21.5 39
q8 10 34 24t37 18q-21 7 -49.5 31t-28.5 63t35 90t68 84q55 54 87 64t60 10q31 0 52 -24.5t21 -56.5q0 -15 -8 -38t-18.5 -41.5t-16.5 -18.5q-11 0 -46.5 20.5t-63.5 20.5q-26 0 -47 -17t-21 -33q0 -6 26.5 -24.5t62.5 -36t64 -18.5q35 8 78 19t51 12q11 2 11 -12z" />
    <glyph glyph-name="uni0681.fina" unicode="&#x681;" horiz-adv-x="1446" 
d="M1542 109q0 -51 -16 -80t-62 -29h-150q-106 0 -188 3.5t-140 21.5q-56 18 -81.5 57t-25.5 86q0 33 8.5 84.5t16.5 89.5q-150 -33 -284 -97.5t-236 -154t-160.5 -196.5t-58.5 -224q0 -244 215 -383t664 -139q96 0 186.5 8.5t153 16.5t72.5 8q7 0 9.5 -11.5t2.5 -15.5
q0 -5 -39.5 -23.5t-99.5 -42.5t-125.5 -49t-118.5 -43.5t-77 -25.5q-52 -14 -101 -16t-73 -2q-133 0 -269 28t-249.5 95.5t-182.5 184.5t-69 294q0 166 69.5 317t191.5 275.5t280 209.5q-67 15 -135 22.5t-117 7.5q-65 0 -120.5 -13t-81.5 -13q-4 0 -10 5.5t-6 10.5
q0 14 6.5 46t14 62t8.5 37q3 13 48.5 33t106.5 36t112 16q92 0 173.5 -14t165.5 -28.5t185 -15.5q30 0 76.5 2t95 3.5t85.5 1.5q26 0 42.5 -1.5t16.5 -4.5q0 -4 -11.5 -28t-27 -53.5t-28 -51.5t-14.5 -22q-41 -8 -100 -17t-109 -18q1 -57 34.5 -89t126 -45t269.5 -13h53
q46 0 62 -25t16 -78zM1000 973q0 -7 -8 -28t-21 -40.5t-29 -24.5q-17 -6 -77.5 -29.5t-118.5 -44.5q-69 -26 -108 -45t-50 -19q-13 0 -13 14q0 11 15 42t21 40q9 9 34.5 23.5t36.5 18.5q-21 6 -49.5 30t-28.5 63t35 90.5t68 84.5q55 54 87 64t60 10q31 0 52 -25t21 -57
q0 -15 -8 -38t-18 -41t-17 -18q-11 0 -46.5 20t-63.5 20q-25 0 -46.5 -16.5t-21.5 -32.5q0 -6 26.5 -25t63 -36.5t63.5 -18.5q35 8 78 19t51 13q12 1 12 -13z" />
    <glyph glyph-name="uni0682.init" unicode="&#x682;" horiz-adv-x="1447" 
d="M1331 490q0 -4 -5 -27.5t-12.5 -53t-14 -53t-10.5 -25.5q-40 -2 -108 -2.5t-144 0t-140 0.5q-116 0 -212.5 -48.5t-180.5 -98.5q-72 -42 -147.5 -84t-155 -70t-165.5 -28h-52q-54 0 -66.5 37t-12.5 70t12.5 69t66.5 36h51q109 0 204 16.5t193 55.5q54 23 116 49t119 43
q-56 18 -119.5 46.5t-131 51.5t-134.5 23q-40 0 -78.5 -11t-65 -21.5t-31.5 -10.5q-3 0 -10.5 4.5t-7.5 9.5q0 39 36 101.5t88 100.5q33 23 68 32.5t90 9.5q53 0 123 -28.5t141.5 -63.5t130.5 -54q74 -26 170.5 -43t206.5 -22q68 -3 128 -4.5t60 -6.5zM799 986
q0 -7 -14.5 -31t-34.5 -52.5t-37 -49.5t-22 -21q-4 0 -26.5 14t-50.5 33t-48.5 36t-20.5 23q0 8 18 37t41 60.5t38 46.5q8 8 8 17q0 8 -6 11q-17 11 -46 32t-52.5 40t-23.5 25t14.5 30.5t34.5 54t37 51.5t22 22q8 0 32 -15.5t51 -36.5t47 -38.5t20 -20.5q0 -6 -18 -35
t-40 -61t-35 -45q-3 -3 -8.5 -9.5t-5.5 -13.5t8 -12q17 -10 45 -30t50.5 -38.5t22.5 -23.5z" />
    <glyph glyph-name="uni0682.medi" unicode="&#x682;" horiz-adv-x="1500" 
d="M1596 107q0 -33 -12.5 -70t-65.5 -37h-52q-174 0 -285.5 13t-165.5 50q-65 44 -65 141q0 29 8 62t17 65h-25q-104 0 -188 -25.5t-157 -65.5t-142 -82q-98 -60 -199 -109t-229 -49h-51q-54 0 -66.5 37t-12.5 70t12.5 69t66.5 36h51q141 0 241 25t182 59q52 22 105.5 45
t107.5 35q-39 15 -106 44.5t-146.5 54t-154.5 24.5q-59 0 -103.5 -21t-49.5 -21q-6 0 -13 4.5t-7 8.5q0 60 42.5 118t95.5 89q30 19 67 27t71 8q44 0 102 -20.5t121.5 -49.5t125 -55.5t111.5 -38.5q76 -17 149.5 -27t159 -14t197.5 -4q5 0 8 -5.5t3 -8.5t-7 -34t-15 -65
t-13 -45q-2 -10 -76.5 -13.5t-173.5 -3.5q-1 -3 -1 -18q0 -39 55 -61q42 -18 105.5 -26t130 -9.5t117.5 -1.5h52q53 0 65.5 -36t12.5 -69zM886 1006q0 -6 -14 -30.5t-34 -53t-37 -49t-22 -20.5q-4 0 -27 13.5t-50.5 33t-48 36.5t-20.5 23q0 8 18 37t41 60t38 46q7 9 7 18
q0 7 -5 11q-17 11 -46 32t-52.5 40t-23.5 25q0 5 14.5 30t34 54.5t36.5 51.5t22 22q9 0 32.5 -16t51 -37t47 -38t19.5 -21q0 -5 -17.5 -34t-39.5 -61t-35 -45q-3 -4 -8.5 -10t-5.5 -13t8 -12q17 -11 45 -31t50 -38t22 -24z" />
    <glyph glyph-name="uni0682.fina" unicode="&#x682;" horiz-adv-x="1446" 
d="M1542 109q0 -51 -16 -80t-62 -29h-150q-106 0 -188 3.5t-140 21.5q-56 18 -81.5 57t-25.5 86q0 33 8.5 84.5t16.5 89.5q-150 -33 -284 -97.5t-236 -154t-160.5 -196.5t-58.5 -224q0 -244 215 -383t664 -139q96 0 186.5 8.5t153 16.5t72.5 8q7 0 9.5 -11.5t2.5 -15.5
q0 -5 -39.5 -23.5t-99.5 -42.5t-125.5 -49t-118.5 -43.5t-77 -25.5q-52 -14 -101 -16t-73 -2q-133 0 -269 28t-249.5 95.5t-182.5 184.5t-69 294q0 166 69.5 317t191.5 275.5t280 209.5q-67 15 -135 22.5t-117 7.5q-65 0 -120.5 -13t-81.5 -13q-4 0 -10 5.5t-6 10.5
q0 14 6.5 46t14 62t8.5 37q3 13 48.5 33t106.5 36t112 16q92 0 173.5 -14t165.5 -28.5t185 -15.5q30 0 76.5 2t95 3.5t85.5 1.5q26 0 42.5 -1.5t16.5 -4.5q0 -4 -11.5 -28t-27 -53.5t-28 -51.5t-14.5 -22q-41 -8 -100 -17t-109 -18q1 -57 34.5 -89t126 -45t269.5 -13h53
q46 0 62 -25t16 -78zM909 891q0 -6 -14 -30.5t-34 -53t-37 -49t-22 -20.5q-4 0 -27 13.5t-50.5 33t-48 36.5t-20.5 23q0 8 18 37t41 60t38 46q7 9 7 18q0 7 -5 11q-17 11 -46 32t-52.5 40t-23.5 25q0 5 14.5 30t34 54.5t36.5 51.5t22 22q9 0 32.5 -16t51 -37t47 -38
t19.5 -21q0 -5 -17.5 -34t-39.5 -61t-35 -45q-3 -4 -8.5 -10t-5.5 -13t8 -12q17 -11 45 -31t50 -38t22 -24z" />
    <glyph glyph-name="uni0683.init" unicode="&#x683;" horiz-adv-x="1447" arabic-form="initial" 
d="M1331 490q0 -4 -5 -27.5t-12.5 -53t-14 -53t-10.5 -25.5q-40 -2 -108 -2.5t-144 0t-140 0.5q-116 0 -212.5 -48.5t-180.5 -98.5q-72 -42 -147.5 -84t-155 -70t-165.5 -28h-52q-54 0 -66.5 37t-12.5 70t12.5 69t66.5 36h51q109 0 204 16.5t193 55.5q54 23 116 49t119 43
q-56 18 -119.5 46.5t-131 51.5t-134.5 23q-40 0 -78.5 -11t-65 -21.5t-31.5 -10.5q-3 0 -10.5 4.5t-7.5 9.5q0 39 36 101.5t88 100.5q33 23 68 32.5t90 9.5q53 0 123 -28.5t141.5 -63.5t130.5 -54q74 -26 170.5 -43t206.5 -22q68 -3 128 -4.5t60 -6.5zM917 -244
q0 -6 -14 -31.5t-33.5 -55.5t-36.5 -52t-23 -22q-4 0 -25 15t-47.5 34.5t-46.5 35t-21 17.5q-8 6 -13 6t-11 -8q-1 -1 -14.5 -20.5t-31 -44.5t-33 -43.5t-21.5 -18.5q-4 0 -27 14.5t-50.5 35t-48 38t-20.5 22.5q0 7 15 32t35 55t36.5 52.5t20.5 22.5q8 0 29 -14.5t45 -34
t42 -35t20 -16.5q9 -10 13 -10q7 0 15 13q1 2 15 21t32 43.5t33 42.5t19 18q6 0 29 -15.5t50.5 -36.5t47.5 -38.5t20 -21.5z" />
    <glyph glyph-name="uni0683.medi" unicode="&#x683;" horiz-adv-x="1500" arabic-form="medial" 
d="M1596 107q0 -33 -12.5 -70t-65.5 -37h-52q-174 0 -285.5 13t-165.5 50q-65 44 -65 141q0 29 8 62t17 65h-25q-104 0 -188 -25.5t-157 -65.5t-142 -82q-98 -60 -199 -109t-229 -49h-51q-54 0 -66.5 37t-12.5 70t12.5 69t66.5 36h51q141 0 241 25t182 59q52 22 105.5 45
t107.5 35q-39 15 -106 44.5t-146.5 54t-154.5 24.5q-59 0 -103.5 -21t-49.5 -21q-6 0 -13 4.5t-7 8.5q0 60 42.5 118t95.5 89q30 19 67 27t71 8q44 0 102 -20.5t121.5 -49.5t125 -55.5t111.5 -38.5q76 -17 149.5 -27t159 -14t197.5 -4q5 0 8 -5.5t3 -8.5t-7 -34t-15 -65
t-13 -45q-2 -10 -76.5 -13.5t-173.5 -3.5q-1 -3 -1 -18q0 -39 55 -61q42 -18 105.5 -26t130 -9.5t117.5 -1.5h52q53 0 65.5 -36t12.5 -69zM1006 -238q0 -6 -14 -31t-33.5 -55t-36.5 -52t-23 -22q-4 0 -25 15t-47.5 34.5t-46.5 35t-21 16.5q-8 6 -13 6t-11 -7
q-1 -2 -14.5 -21.5t-31 -44t-33 -43.5t-21.5 -19q-4 0 -27 15t-50.5 35.5t-48 38t-20.5 22.5q0 6 15 31.5t35 55.5t36.5 52t20.5 22q8 0 29 -14.5t45 -33.5t42 -34.5t20 -17.5q9 -9 13 -9q7 0 15 12q1 2 15 21.5t32 43.5t33 42.5t19 18.5q6 0 29 -15.5t50.5 -36.5
t47.5 -38.5t20 -22.5z" />
    <glyph glyph-name="uni0683.fina" unicode="&#x683;" horiz-adv-x="1446" arabic-form="final" 
d="M1542 109q0 -51 -16 -80t-62 -29h-150q-106 0 -188 3.5t-140 21.5q-56 18 -81.5 57t-25.5 86q0 33 8.5 84.5t16.5 89.5q-150 -33 -284 -97.5t-236 -154t-160.5 -196.5t-58.5 -224q0 -244 215 -383t664 -139q96 0 186.5 8.5t153 16.5t72.5 8q7 0 9.5 -11.5t2.5 -15.5
q0 -5 -39.5 -23.5t-99.5 -42.5t-125.5 -49t-118.5 -43.5t-77 -25.5q-52 -14 -101 -16t-73 -2q-133 0 -269 28t-249.5 95.5t-182.5 184.5t-69 294q0 166 69.5 317t191.5 275.5t280 209.5q-67 15 -135 22.5t-117 7.5q-65 0 -120.5 -13t-81.5 -13q-4 0 -10 5.5t-6 10.5
q0 14 6.5 46t14 62t8.5 37q3 13 48.5 33t106.5 36t112 16q92 0 173.5 -14t165.5 -28.5t185 -15.5q30 0 76.5 2t95 3.5t85.5 1.5q26 0 42.5 -1.5t16.5 -4.5q0 -4 -11.5 -28t-27 -53.5t-28 -51.5t-14.5 -22q-41 -8 -100 -17t-109 -18q1 -57 34.5 -89t126 -45t269.5 -13h53
q46 0 62 -25t16 -78zM1027 -275q0 -6 -14 -31t-33.5 -55t-36.5 -52t-23 -22q-4 0 -25 15t-47.5 34.5t-46.5 35t-21 16.5q-8 6 -13 6t-11 -7q-1 -2 -14.5 -21.5t-31 -44t-33 -43.5t-21.5 -19q-4 0 -27 15t-50.5 35.5t-48 38t-20.5 22.5q0 6 15 31.5t35 55.5t36.5 52t20.5 22
q8 0 29 -14.5t45 -33.5t42 -34.5t20 -17.5q9 -9 13 -9q7 0 15 12q1 2 15 21.5t32 43.5t33 42.5t19 18.5q6 0 29 -15.5t50.5 -36.5t47.5 -38.5t20 -22.5z" />
    <glyph glyph-name="uni0684.init" unicode="&#x684;" horiz-adv-x="1447" arabic-form="initial" 
d="M1331 490q0 -4 -5 -27.5t-12.5 -53t-14 -53t-10.5 -25.5q-40 -2 -108 -2.5t-144 0t-140 0.5q-116 0 -212.5 -48.5t-180.5 -98.5q-72 -42 -147.5 -84t-155 -70t-165.5 -28h-52q-54 0 -66.5 37t-12.5 70t12.5 69t66.5 36h51q109 0 204 16.5t193 55.5q54 23 116 49t119 43
q-56 18 -119.5 46.5t-131 51.5t-134.5 23q-40 0 -78.5 -11t-65 -21.5t-31.5 -10.5q-3 0 -10.5 4.5t-7.5 9.5q0 39 36 101.5t88 100.5q33 23 68 32.5t90 9.5q53 0 123 -28.5t141.5 -63.5t130.5 -54q74 -26 170.5 -43t206.5 -22q68 -3 128 -4.5t60 -6.5zM802 -513
q0 -7 -14.5 -31t-34.5 -52.5t-37 -49.5t-22 -21q-4 0 -26.5 14t-50.5 33.5t-48.5 36t-20.5 22.5q0 8 18 37t41 60.5t38 46.5q8 9 8 18q0 7 -6 11q-17 11 -46 31.5t-52.5 39.5t-23.5 25t14.5 31t34.5 54.5t37 51t22 21.5q8 0 32 -15.5t51 -36.5t47 -38.5t20 -20.5
q0 -5 -18 -34.5t-40 -61t-35 -45.5q-3 -3 -8.5 -9.5t-5.5 -12.5q0 -7 8 -12q17 -11 45 -31t50.5 -38t22.5 -24z" />
    <glyph glyph-name="uni0684.medi" unicode="&#x684;" horiz-adv-x="1500" arabic-form="medial" 
d="M1596 107q0 -33 -12.5 -70t-65.5 -37h-52q-174 0 -285.5 13t-165.5 50q-65 44 -65 141q0 29 8 62t17 65h-25q-104 0 -188 -25.5t-157 -65.5t-142 -82q-98 -60 -199 -109t-229 -49h-51q-54 0 -66.5 37t-12.5 70t12.5 69t66.5 36h51q141 0 241 25t182 59q52 22 105.5 45
t107.5 35q-39 15 -106 44.5t-146.5 54t-154.5 24.5q-59 0 -103.5 -21t-49.5 -21q-6 0 -13 4.5t-7 8.5q0 60 42.5 118t95.5 89q30 19 67 27t71 8q44 0 102 -20.5t121.5 -49.5t125 -55.5t111.5 -38.5q76 -17 149.5 -27t159 -14t197.5 -4q5 0 8 -5.5t3 -8.5t-7 -34t-15 -65
t-13 -45q-2 -10 -76.5 -13.5t-173.5 -3.5q-1 -3 -1 -18q0 -39 55 -61q42 -18 105.5 -26t130 -9.5t117.5 -1.5h52q53 0 65.5 -36t12.5 -69zM886 -515q0 -6 -14 -30.5t-34 -53t-37 -49t-22 -20.5q-4 0 -27 13.5t-50.5 33t-48 36.5t-20.5 23q0 8 18 37t41 60t38 46q7 9 7 18
q0 7 -5 11q-17 11 -46 32t-52.5 40t-23.5 25q0 5 14.5 30t34 54.5t36.5 51.5t22 22q9 0 32.5 -16t51 -37t47 -38t19.5 -21q0 -5 -17.5 -34t-39.5 -61t-35 -45q-3 -4 -8.5 -10t-5.5 -13t8 -12q17 -11 45 -31t50 -38t22 -24z" />
    <glyph glyph-name="uni0684.fina" unicode="&#x684;" horiz-adv-x="1446" arabic-form="final" 
d="M1542 109q0 -51 -16 -80t-62 -29h-150q-106 0 -188 3.5t-140 21.5q-56 18 -81.5 57t-25.5 86q0 33 8.5 84.5t16.5 89.5q-150 -33 -284 -97.5t-236 -154t-160.5 -196.5t-58.5 -224q0 -244 215 -383t664 -139q96 0 186.5 8.5t153 16.5t72.5 8q7 0 9.5 -11.5t2.5 -15.5
q0 -5 -39.5 -23.5t-99.5 -42.5t-125.5 -49t-118.5 -43.5t-77 -25.5q-52 -14 -101 -16t-73 -2q-133 0 -269 28t-249.5 95.5t-182.5 184.5t-69 294q0 166 69.5 317t191.5 275.5t280 209.5q-67 15 -135 22.5t-117 7.5q-65 0 -120.5 -13t-81.5 -13q-4 0 -10 5.5t-6 10.5
q0 14 6.5 46t14 62t8.5 37q3 13 48.5 33t106.5 36t112 16q92 0 173.5 -14t165.5 -28.5t185 -15.5q30 0 76.5 2t95 3.5t85.5 1.5q26 0 42.5 -1.5t16.5 -4.5q0 -4 -11.5 -28t-27 -53.5t-28 -51.5t-14.5 -22q-41 -8 -100 -17t-109 -18q1 -57 34.5 -89t126 -45t269.5 -13h53
q46 0 62 -25t16 -78zM902 -430q0 -7 -14.5 -31t-34.5 -52.5t-37 -49.5t-22 -21q-4 0 -26.5 14t-50.5 33.5t-48.5 36t-20.5 22.5q0 8 18 37t41 60.5t38 46.5q8 9 8 18q0 7 -6 11q-17 11 -46 31.5t-52.5 39.5t-23.5 25t14.5 31t34.5 54.5t37 51t22 21.5q8 0 32 -15.5t51 -36.5
t47 -38.5t20 -20.5q0 -5 -18 -34.5t-40 -61t-35 -45.5q-3 -3 -8.5 -9.5t-5.5 -12.5q0 -7 8 -12q17 -11 45 -31t50.5 -38t22.5 -24z" />
    <glyph glyph-name="uni0685.init" unicode="&#x685;" horiz-adv-x="1447" 
d="M1331 490q0 -4 -5 -27.5t-12.5 -53t-14 -53t-10.5 -25.5q-40 -2 -108 -2.5t-144 0t-140 0.5q-116 0 -212.5 -48.5t-180.5 -98.5q-72 -42 -147.5 -84t-155 -70t-165.5 -28h-52q-54 0 -66.5 37t-12.5 70t12.5 69t66.5 36h51q109 0 204 16.5t193 55.5q54 23 116 49t119 43
q-56 18 -119.5 46.5t-131 51.5t-134.5 23q-40 0 -78.5 -11t-65 -21.5t-31.5 -10.5q-3 0 -10.5 4.5t-7.5 9.5q0 39 36 101.5t88 100.5q33 23 68 32.5t90 9.5q53 0 123 -28.5t141.5 -63.5t130.5 -54q74 -26 170.5 -43t206.5 -22q68 -3 128 -4.5t60 -6.5zM754 1323
q0 -6 -14 -31.5t-34 -56t-37 -52.5t-24 -22q-4 0 -27 15t-51 36t-48.5 38.5t-20.5 23.5t14.5 31t35 55t37.5 52t22 22q6 0 29 -15.5t50.5 -36t47.5 -38t20 -21.5zM920 1043q0 -6 -14 -31t-33.5 -55t-36.5 -52.5t-23 -22.5q-4 0 -25 15t-47.5 35t-46.5 35.5t-21 16.5
q-8 6 -13 6t-11 -7q-1 -2 -14.5 -21.5t-31.5 -44.5t-33 -43.5t-21 -18.5q-4 0 -27 15t-50.5 35.5t-48 38t-20.5 22.5q0 6 15 31.5t35 55.5t36.5 52t20.5 22q8 0 29 -14.5t45 -34t42 -35t20 -16.5q9 -9 13 -9q7 0 15 12q1 2 15 21t32 43.5t33 42.5t19 18q6 0 29 -15.5
t50.5 -36.5t47.5 -38.5t20 -21.5z" />
    <glyph glyph-name="uni0685.medi" unicode="&#x685;" horiz-adv-x="1500" 
d="M1596 107q0 -33 -12.5 -70t-65.5 -37h-52q-174 0 -285.5 13t-165.5 50q-65 44 -65 141q0 29 8 62t17 65h-25q-104 0 -188 -25.5t-157 -65.5t-142 -82q-98 -60 -199 -109t-229 -49h-51q-54 0 -66.5 37t-12.5 70t12.5 69t66.5 36h51q141 0 241 25t182 59q52 22 105.5 45
t107.5 35q-39 15 -106 44.5t-146.5 54t-154.5 24.5q-59 0 -103.5 -21t-49.5 -21q-6 0 -13 4.5t-7 8.5q0 60 42.5 118t95.5 89q30 19 67 27t71 8q44 0 102 -20.5t121.5 -49.5t125 -55.5t111.5 -38.5q76 -17 149.5 -27t159 -14t197.5 -4q5 0 8 -5.5t3 -8.5t-7 -34t-15 -65
t-13 -45q-2 -10 -76.5 -13.5t-173.5 -3.5q-1 -3 -1 -18q0 -39 55 -61q42 -18 105.5 -26t130 -9.5t117.5 -1.5h52q53 0 65.5 -36t12.5 -69zM830 1338q0 -7 -14 -32.5t-33.5 -55.5t-37 -52.5t-23.5 -22.5q-5 0 -28 15.5t-51 36t-48.5 38.5t-20.5 24t15 31t35 55t37 52t23 22
q5 0 28 -15.5t50.5 -36t47.5 -38t20 -21.5zM997 1058q0 -6 -14.5 -31.5t-34 -55.5t-36.5 -52t-23 -22q-3 0 -24.5 15t-47.5 34.5t-46.5 35t-21.5 17.5q-8 6 -13 6t-10 -8q-2 -1 -15.5 -20.5t-31 -44.5t-33 -44t-21.5 -19q-4 0 -26.5 15t-50.5 35.5t-48.5 38t-20.5 22.5
q0 7 15 32t35 55t37 52.5t20 22.5q8 0 29 -14.5t45 -34t42 -35t20 -17.5q10 -9 14 -9q6 0 14 13q2 2 15.5 21t31.5 43t33 42.5t19 18.5q6 0 29 -15.5t50.5 -36.5t48 -38.5t20.5 -21.5z" />
    <glyph glyph-name="uni0685.fina" unicode="&#x685;" horiz-adv-x="1446" 
d="M1542 109q0 -51 -16 -80t-62 -29h-150q-106 0 -188 3.5t-140 21.5q-56 18 -81.5 57t-25.5 86q0 33 8.5 84.5t16.5 89.5q-150 -33 -284 -97.5t-236 -154t-160.5 -196.5t-58.5 -224q0 -244 215 -383t664 -139q96 0 186.5 8.5t153 16.5t72.5 8q7 0 9.5 -11.5t2.5 -15.5
q0 -5 -39.5 -23.5t-99.5 -42.5t-125.5 -49t-118.5 -43.5t-77 -25.5q-52 -14 -101 -16t-73 -2q-133 0 -269 28t-249.5 95.5t-182.5 184.5t-69 294q0 166 69.5 317t191.5 275.5t280 209.5q-67 15 -135 22.5t-117 7.5q-65 0 -120.5 -13t-81.5 -13q-4 0 -10 5.5t-6 10.5
q0 14 6.5 46t14 62t8.5 37q3 13 48.5 33t106.5 36t112 16q92 0 173.5 -14t165.5 -28.5t185 -15.5q30 0 76.5 2t95 3.5t85.5 1.5q26 0 42.5 -1.5t16.5 -4.5q0 -4 -11.5 -28t-27 -53.5t-28 -51.5t-14.5 -22q-41 -8 -100 -17t-109 -18q1 -57 34.5 -89t126 -45t269.5 -13h53
q46 0 62 -25t16 -78zM869 1218q0 -6 -14 -31.5t-33.5 -55.5t-37 -52.5t-23.5 -22.5q-5 0 -28 15t-51 36t-48.5 39t-20.5 23q0 7 15 32t35 54.5t37 51.5t23 22q5 0 28 -15t50.5 -36t47.5 -38t20 -22zM1036 938q0 -6 -14.5 -31t-34 -55t-36.5 -52t-23 -22q-3 0 -24.5 14.5
t-47.5 34.5t-46.5 35.5t-21.5 16.5q-8 6 -13 6t-10 -7q-2 -2 -15.5 -21.5t-31 -44t-33 -43.5t-21.5 -19q-4 0 -26.5 15t-50.5 35.5t-48.5 38t-20.5 22.5q0 6 15 31.5t35 55.5t37 52t20 22q8 0 29 -14.5t45 -33.5t42 -34.5t20 -17.5q10 -9 14 -9q6 0 14 12q2 2 15.5 21.5
t31.5 43.5t33 42.5t19 18.5q6 0 29 -15.5t50.5 -36.5t48 -38.5t20.5 -22.5z" />
    <glyph glyph-name="uni0686.init" unicode="&#x686;" horiz-adv-x="1447" arabic-form="initial" 
d="M1331 490q0 -4 -5 -27.5t-12.5 -53t-14 -53t-10.5 -25.5q-40 -2 -108 -2.5t-144 0t-140 0.5q-116 0 -212.5 -48.5t-180.5 -98.5q-72 -42 -147.5 -84t-155 -70t-165.5 -28h-52q-54 0 -66.5 37t-12.5 70t12.5 69t66.5 36h51q109 0 204 16.5t193 55.5q54 23 116 49t119 43
q-56 18 -119.5 46.5t-131 51.5t-134.5 23q-40 0 -78.5 -11t-65 -21.5t-31.5 -10.5q-3 0 -10.5 4.5t-7.5 9.5q0 39 36 101.5t88 100.5q33 23 68 32.5t90 9.5q53 0 123 -28.5t141.5 -63.5t130.5 -54q74 -26 170.5 -43t206.5 -22q68 -3 128 -4.5t60 -6.5zM815 -552
q0 -6 -14 -30.5t-33.5 -54.5t-37.5 -52t-25 -22q-4 0 -27 14.5t-51 34.5t-49 37.5t-21 23.5t14.5 31.5t35 55.5t38 52.5t23.5 22.5t29.5 -15.5t50.5 -36.5t47 -38.5t20 -22.5zM922 -238q0 -6 -14 -31t-33.5 -55t-36.5 -52.5t-23 -22.5q-4 0 -25 15t-47.5 35t-46.5 35.5
t-21 16.5q-8 6 -13 6t-11 -7q-1 -2 -14.5 -21.5t-31 -44.5t-33 -43.5t-21.5 -18.5q-4 0 -27 15t-50.5 35.5t-48 38t-20.5 22.5q0 6 15 31.5t35 55.5t36.5 52t20.5 22q8 0 29 -14.5t45 -34t42 -34.5t20 -17q9 -9 13 -9q7 0 15 12q1 2 15 21t32 43.5t33 42.5t19 18
q6 0 29 -15.5t50.5 -36t47.5 -38.5t20 -22z" />
    <glyph glyph-name="uni0686.medi" unicode="&#x686;" horiz-adv-x="1500" arabic-form="medial" 
d="M1596 107q0 -33 -12.5 -70t-65.5 -37h-52q-174 0 -285.5 13t-165.5 50q-65 44 -65 141q0 29 8 62t17 65h-25q-104 0 -188 -25.5t-157 -65.5t-142 -82q-98 -60 -199 -109t-229 -49h-51q-54 0 -66.5 37t-12.5 70t12.5 69t66.5 36h51q141 0 241 25t182 59q52 22 105.5 45
t107.5 35q-39 15 -106 44.5t-146.5 54t-154.5 24.5q-59 0 -103.5 -21t-49.5 -21q-6 0 -13 4.5t-7 8.5q0 60 42.5 118t95.5 89q30 19 67 27t71 8q44 0 102 -20.5t121.5 -49.5t125 -55.5t111.5 -38.5q76 -17 149.5 -27t159 -14t197.5 -4q5 0 8 -5.5t3 -8.5t-7 -34t-15 -65
t-13 -45q-2 -10 -76.5 -13.5t-173.5 -3.5q-1 -3 -1 -18q0 -39 55 -61q42 -18 105.5 -26t130 -9.5t117.5 -1.5h52q53 0 65.5 -36t12.5 -69zM900 -550q0 -6 -14 -31t-33.5 -55t-37.5 -52t-25 -22q-4 0 -27 15t-51.5 35t-49.5 37.5t-21 23.5t15 31t35.5 55.5t38 52.5t22.5 22
q7 0 30 -15t50.5 -36t47.5 -39t20 -22zM1007 -236q0 -6 -14 -31.5t-33.5 -55.5t-36.5 -52t-23 -22q-4 0 -25 15t-47.5 34.5t-46.5 35t-22 17.5q-7 6 -13 6q-4 0 -10 -8q-1 -1 -14.5 -20.5t-31.5 -44.5t-33.5 -43.5t-20.5 -18.5q-4 0 -27 14.5t-50.5 35t-48.5 38t-21 22.5
q0 7 15 32t35.5 55t37 52.5t20.5 22.5q7 0 28 -14.5t45.5 -34t42.5 -35t19 -16.5q10 -10 14 -10q7 0 15 13q1 2 14.5 21t32 43.5t33.5 42.5t19 18q6 0 29 -15.5t50.5 -36.5t47.5 -38.5t20 -21.5z" />
    <glyph glyph-name="uni0686.fina" unicode="&#x686;" horiz-adv-x="1446" arabic-form="final" 
d="M1542 109q0 -51 -16 -80t-62 -29h-150q-106 0 -188 3.5t-140 21.5q-56 18 -81.5 57t-25.5 86q0 33 8.5 84.5t16.5 89.5q-150 -33 -284 -97.5t-236 -154t-160.5 -196.5t-58.5 -224q0 -244 215 -383t664 -139q96 0 186.5 8.5t153 16.5t72.5 8q7 0 9.5 -11.5t2.5 -15.5
q0 -5 -39.5 -23.5t-99.5 -42.5t-125.5 -49t-118.5 -43.5t-77 -25.5q-52 -14 -101 -16t-73 -2q-133 0 -269 28t-249.5 95.5t-182.5 184.5t-69 294q0 166 69.5 317t191.5 275.5t280 209.5q-67 15 -135 22.5t-117 7.5q-65 0 -120.5 -13t-81.5 -13q-4 0 -10 5.5t-6 10.5
q0 14 6.5 46t14 62t8.5 37q3 13 48.5 33t106.5 36t112 16q92 0 173.5 -14t165.5 -28.5t185 -15.5q30 0 76.5 2t95 3.5t85.5 1.5q26 0 42.5 -1.5t16.5 -4.5q0 -4 -11.5 -28t-27 -53.5t-28 -51.5t-14.5 -22q-41 -8 -100 -17t-109 -18q1 -57 34.5 -89t126 -45t269.5 -13h53
q46 0 62 -25t16 -78zM919 -470q0 -6 -14 -30.5t-34 -54.5t-37.5 -52t-25.5 -22q-4 0 -27 14.5t-51 34.5t-49 37.5t-21 23.5t15 31.5t35.5 55.5t38 52.5t22.5 22.5q6 0 29.5 -15.5t51 -36.5t47.5 -38.5t20 -22.5zM1026 -156q0 -6 -14.5 -31t-33.5 -55t-36.5 -52.5
t-23.5 -22.5q-3 0 -24.5 15t-47.5 35t-46 35.5t-22 16.5q-8 6 -13 6t-10 -7q-2 -2 -15 -21.5t-31 -44.5t-33.5 -43.5t-21.5 -18.5q-4 0 -26.5 15t-50.5 35.5t-48.5 38t-20.5 22.5q0 6 15 31.5t35 55.5t37 52t20 22q8 0 29 -14.5t45 -34t42 -34.5t20 -17q10 -9 14 -9
q6 0 14 12q2 2 15.5 21t31.5 43.5t33 42.5t19 18q6 0 29 -15.5t50.5 -36t48 -38.5t20.5 -22z" />
    <glyph glyph-name="uni0687.init" unicode="&#x687;" horiz-adv-x="1447" arabic-form="initial" 
d="M1331 490q0 -4 -5 -27.5t-12.5 -53t-14 -53t-10.5 -25.5q-40 -2 -108 -2.5t-144 0t-140 0.5q-116 0 -212.5 -48.5t-180.5 -98.5q-72 -42 -147.5 -84t-155 -70t-165.5 -28h-52q-54 0 -66.5 37t-12.5 70t12.5 69t66.5 36h51q109 0 204 16.5t193 55.5q54 23 116 49t119 43
q-56 18 -119.5 46.5t-131 51.5t-134.5 23q-40 0 -78.5 -11t-65 -21.5t-31.5 -10.5q-3 0 -10.5 4.5t-7.5 9.5q0 39 36 101.5t88 100.5q33 23 68 32.5t90 9.5q53 0 123 -28.5t141.5 -63.5t130.5 -54q74 -26 170.5 -43t206.5 -22q68 -3 128 -4.5t60 -6.5zM906 -239
q0 -6 -14.5 -31.5t-33.5 -55.5t-36.5 -52t-23.5 -22q-3 0 -24.5 15t-47.5 34.5t-46 35t-22 17.5q-8 6 -13 6t-10 -8q-2 -1 -15 -20.5t-31 -44.5t-33.5 -43.5t-20.5 -18.5t-27.5 14.5t-50.5 35t-48.5 38t-20.5 22.5q0 7 15 32t35 55.5t37 52.5t20 22q8 0 29 -14.5t45 -34
t42 -35t20 -16.5q10 -10 14 -10q6 0 14 13q2 2 15.5 21t31.5 43.5t33 42.5t19 18q6 0 29 -15.5t50.5 -36.5t48 -38.5t20.5 -21.5zM931 -521q0 -6 -14 -31.5t-33.5 -55.5t-36.5 -52t-23 -22q-4 0 -25 15t-47 34.5t-46.5 35t-21.5 17.5q-8 6 -13 6t-11 -8q-1 -1 -14.5 -20.5
t-31 -44.5t-33 -43.5t-21.5 -18.5q-4 0 -27 14.5t-50.5 35t-48 38t-20.5 22.5q0 7 15 32t35 55.5t37 52.5t20 22q8 0 29 -14.5t45 -34t42 -35t20 -16.5q9 -9 13 -9q7 0 15 12q1 2 15 21t32 43.5t33 42.5t19 18q6 0 29 -15.5t50.5 -36.5t47.5 -38.5t20 -21.5z" />
    <glyph glyph-name="uni0687.medi" unicode="&#x687;" horiz-adv-x="1500" arabic-form="medial" 
d="M1596 107q0 -33 -12.5 -70t-65.5 -37h-52q-174 0 -285.5 13t-165.5 50q-65 44 -65 141q0 29 8 62t17 65h-25q-104 0 -188 -25.5t-157 -65.5t-142 -82q-98 -60 -199 -109t-229 -49h-51q-54 0 -66.5 37t-12.5 70t12.5 69t66.5 36h51q141 0 241 25t182 59q52 22 105.5 45
t107.5 35q-39 15 -106 44.5t-146.5 54t-154.5 24.5q-59 0 -103.5 -21t-49.5 -21q-6 0 -13 4.5t-7 8.5q0 60 42.5 118t95.5 89q30 19 67 27t71 8q44 0 102 -20.5t121.5 -49.5t125 -55.5t111.5 -38.5q76 -17 149.5 -27t159 -14t197.5 -4q5 0 8 -5.5t3 -8.5t-7 -34t-15 -65
t-13 -45q-2 -10 -76.5 -13.5t-173.5 -3.5q-1 -3 -1 -18q0 -39 55 -61q42 -18 105.5 -26t130 -9.5t117.5 -1.5h52q53 0 65.5 -36t12.5 -69zM993 -243q0 -6 -14 -31.5t-33.5 -55.5t-36.5 -52t-23 -22q-4 0 -25 15t-47.5 34.5t-46.5 35t-21 17.5q-8 6 -13 6t-11 -8
q-1 -1 -14.5 -20.5t-31 -44.5t-33 -43.5t-21.5 -18.5q-4 0 -27 14.5t-50.5 35t-48 38t-20.5 22.5q0 7 15 32t35 55.5t36.5 52.5t20.5 22q8 0 29 -14.5t45 -34t42 -35t20 -16.5q9 -10 13 -10q7 0 15 13q1 2 15 21t32 43.5t33 42.5t19 18q6 0 29 -15.5t50.5 -36.5t47.5 -38.5
t20 -21.5zM1019 -525q0 -6 -14 -31.5t-33.5 -55.5t-36.5 -52t-23 -22q-4 0 -25 15t-47.5 34.5t-46.5 35t-22 17.5q-7 6 -13 6q-4 0 -10 -8q-1 -1 -14.5 -20.5t-31.5 -44.5t-33.5 -43.5t-20.5 -18.5q-4 0 -27 14.5t-50.5 35t-48 38t-20.5 22.5q0 7 14.5 32t35 55.5t37 52.5
t20.5 22q8 0 28.5 -14.5t45 -34t42.5 -35t19 -16.5q10 -9 14 -9q7 0 15 12q1 2 14.5 21t32 43.5t33.5 42.5t19 18q6 0 29 -15.5t50.5 -36.5t47.5 -38.5t20 -21.5z" />
    <glyph glyph-name="uni0687.fina" unicode="&#x687;" horiz-adv-x="1446" arabic-form="final" 
d="M1542 109q0 -51 -16 -80t-62 -29h-150q-106 0 -188 3.5t-140 21.5q-56 18 -81.5 57t-25.5 86q0 33 8.5 84.5t16.5 89.5q-150 -33 -284 -97.5t-236 -154t-160.5 -196.5t-58.5 -224q0 -244 215 -383t664 -139q96 0 186.5 8.5t153 16.5t72.5 8q7 0 9.5 -11.5t2.5 -15.5
q0 -5 -39.5 -23.5t-99.5 -42.5t-125.5 -49t-118.5 -43.5t-77 -25.5q-52 -14 -101 -16t-73 -2q-133 0 -269 28t-249.5 95.5t-182.5 184.5t-69 294q0 166 69.5 317t191.5 275.5t280 209.5q-67 15 -135 22.5t-117 7.5q-65 0 -120.5 -13t-81.5 -13q-4 0 -10 5.5t-6 10.5
q0 14 6.5 46t14 62t8.5 37q3 13 48.5 33t106.5 36t112 16q92 0 173.5 -14t165.5 -28.5t185 -15.5q30 0 76.5 2t95 3.5t85.5 1.5q26 0 42.5 -1.5t16.5 -4.5q0 -4 -11.5 -28t-27 -53.5t-28 -51.5t-14.5 -22q-41 -8 -100 -17t-109 -18q1 -57 34.5 -89t126 -45t269.5 -13h53
q46 0 62 -25t16 -78zM1006 -142q0 -6 -14.5 -31t-33.5 -55t-36.5 -52t-23.5 -22q-3 0 -24.5 14.5t-47.5 34.5t-46 35.5t-22 16.5q-8 6 -13 6t-10 -7q-2 -2 -15 -21.5t-31 -44.5t-33.5 -43.5t-20.5 -18.5t-27.5 15t-50.5 35.5t-48.5 38t-20.5 22.5q0 6 15 31.5t35 55.5t37 52
t20 22q8 0 29 -14.5t45 -34t42 -34.5t20 -17q10 -9 14 -9q6 0 14 12q2 2 15.5 21.5t31.5 43.5t33 42t19 18q6 0 29 -15t50.5 -36t48 -39t20.5 -22zM1031 -424q0 -6 -14 -31t-33.5 -55t-36.5 -52t-23 -22q-4 0 -25 14.5t-47 34.5t-46.5 35.5t-21.5 16.5q-8 6 -13 6t-11 -7
q-1 -2 -14.5 -21.5t-31 -44.5t-33 -43.5t-21.5 -18.5q-4 0 -27 15t-50.5 35.5t-48 38t-20.5 22.5q0 6 15 31.5t35 55.5t37 52t20 22q8 0 29 -14.5t45 -34t42 -34.5t20 -17q9 -9 13 -9q7 0 15 12q1 2 15 21.5t32 43.5t33 42t19 18q6 0 29 -15t50.5 -36t47.5 -39t20 -22z" />
    <glyph glyph-name="uni0688.fina" unicode="&#x688;" horiz-adv-x="1115" arabic-form="final" 
d="M1210 107q0 -33 -12 -70t-66 -37h-52q-92 0 -145.5 37t-88.5 108.5t-70 175.5q-30 -62 -64.5 -114.5t-79.5 -87.5q-127 -97 -322 -97q-56 0 -107.5 14.5t-84 45.5t-32.5 80q0 10 9.5 43.5t23.5 73.5t27.5 68.5t21.5 28.5q10 0 15.5 -20t11.5 -32q7 -16 24.5 -36.5t55 -36
t105.5 -15.5q91 0 173 15.5t134 65.5t52 152q-9 89 -28 168.5t-35.5 144.5t-16.5 112q0 13 12 43.5t29 64.5t30.5 58t16.5 24q8 0 14.5 -6.5t7.5 -31.5q16 -104 35 -221t40 -226t43 -191t43 -118q23 -39 65 -58.5t85 -19.5h52q54 0 66 -36t12 -69zM990 1479
q0 -72 -50.5 -121.5t-128.5 -80t-163.5 -44.5t-155.5 -14q-22 0 -50.5 21.5t-50 48t-21.5 41.5q0 13 11 13q15 0 46.5 -3.5t58.5 -3.5q52 0 70 47q7 20 10 40.5t3 31.5q0 94 -22.5 175t-22.5 168q0 38 18.5 70.5t33.5 32.5q4 0 20.5 -25t31.5 -50.5t14 -27.5
q-11 -10 -20 -24t-9 -41q0 -51 10 -91.5t10 -109.5q0 -19 -1.5 -45.5t-4.5 -53.5q68 81 133.5 126t122.5 45q53 0 80 -39t27 -86zM916 1438q0 14 -27.5 22t-53.5 8q-52 0 -106.5 -29.5t-112.5 -95.5q110 8 176 29.5t95 41.5t29 24z" />
    <glyph glyph-name="uni0689.fina" unicode="&#x689;" horiz-adv-x="1115" 
d="M1210 107q0 -33 -12 -70t-66 -37h-52q-92 0 -145.5 37t-88.5 108.5t-70 175.5q-30 -62 -64.5 -114.5t-79.5 -87.5q-127 -97 -322 -97q-56 0 -107.5 14.5t-84 45.5t-32.5 80q0 10 9.5 43.5t23.5 73.5t27.5 68.5t21.5 28.5q10 0 15.5 -20t11.5 -32q7 -16 24.5 -36.5t55 -36
t105.5 -15.5q91 0 173 15.5t134 65.5t52 152q-9 89 -28 168.5t-35.5 144.5t-16.5 112q0 13 12 43.5t29 64.5t30.5 58t16.5 24q8 0 14.5 -6.5t7.5 -31.5q16 -104 35 -221t40 -226t43 -191t43 -118q23 -39 65 -58.5t85 -19.5h52q54 0 66 -36t12 -69zM618 -77q0 -94 -62 -161
t-156 -67q-68 0 -105.5 49t-37.5 154q0 86 56.5 153.5t148.5 67.5q43 0 78.5 -32t56.5 -77.5t21 -86.5zM529 -115q0 19 -22 44.5t-53 44t-57 18.5q-35 0 -55 -26t-20 -54q0 -32 34 -52t78 -20q25 0 60 14t35 31z" />
    <glyph glyph-name="uni068A.fina" unicode="&#x68a;" horiz-adv-x="1115" 
d="M1210 107q0 -33 -12 -70t-66 -37h-52q-92 0 -145.5 37t-88.5 108.5t-70 175.5q-30 -62 -64.5 -114.5t-79.5 -87.5q-127 -97 -322 -97q-56 0 -107.5 14.5t-84 45.5t-32.5 80q0 10 9.5 43.5t23.5 73.5t27.5 68.5t21.5 28.5q10 0 15.5 -20t11.5 -32q7 -16 24.5 -36.5t55 -36
t105.5 -15.5q91 0 173 15.5t134 65.5t52 152q-9 89 -28 168.5t-35.5 144.5t-16.5 112q0 13 12 43.5t29 64.5t30.5 58t16.5 24q8 0 14.5 -6.5t7.5 -31.5q16 -104 35 -221t40 -226t43 -191t43 -118q23 -39 65 -58.5t85 -19.5h52q54 0 66 -36t12 -69zM734 -259
q0 -6 -14.5 -31.5t-34.5 -56.5t-38.5 -53.5t-25.5 -22.5q-4 0 -27 15t-52 35.5t-50.5 38.5t-21.5 23q0 7 15 33t36 56.5t38.5 53.5t22.5 23q7 0 31 -15.5t52 -37t48.5 -39t20.5 -22.5z" />
    <glyph glyph-name="uni068B.fina" unicode="&#x68b;" horiz-adv-x="1115" 
d="M1210 107q0 -33 -12 -70t-66 -37h-52q-92 0 -145.5 37t-88.5 108.5t-70 175.5q-30 -62 -64.5 -114.5t-79.5 -87.5q-127 -97 -322 -97q-56 0 -107.5 14.5t-84 45.5t-32.5 80q0 10 9.5 43.5t23.5 73.5t27.5 68.5t21.5 28.5q10 0 15.5 -20t11.5 -32q7 -16 24.5 -36.5t55 -36
t105.5 -15.5q91 0 173 15.5t134 65.5t52 152q-9 89 -28 168.5t-35.5 144.5t-16.5 112q0 13 12 43.5t29 64.5t30.5 58t16.5 24q8 0 14.5 -6.5t7.5 -31.5q16 -104 35 -221t40 -226t43 -191t43 -118q23 -39 65 -58.5t85 -19.5h52q54 0 66 -36t12 -69zM990 1479
q0 -72 -50.5 -121.5t-128.5 -80t-163.5 -44.5t-155.5 -14q-22 0 -50.5 21.5t-50 48t-21.5 41.5q0 13 11 13q15 0 46.5 -3.5t58.5 -3.5q52 0 70 47q7 20 10 40.5t3 31.5q0 94 -22.5 175t-22.5 168q0 38 18.5 70.5t33.5 32.5q4 0 20.5 -25t31.5 -50.5t14 -27.5
q-11 -10 -20 -24t-9 -41q0 -51 10 -91.5t10 -109.5q0 -19 -1.5 -45.5t-4.5 -53.5q68 81 133.5 126t122.5 45q53 0 80 -39t27 -86zM916 1438q0 14 -27.5 22t-53.5 8q-52 0 -106.5 -29.5t-112.5 -95.5q110 8 176 29.5t95 41.5t29 24zM734 -259q0 -6 -14.5 -31.5t-34.5 -56.5
t-38.5 -53.5t-25.5 -22.5q-4 0 -27 15t-52 35.5t-50.5 38.5t-21.5 23q0 7 15 33t36 56.5t38.5 53.5t22.5 23q7 0 31 -15.5t52 -37t48.5 -39t20.5 -22.5z" />
    <glyph glyph-name="uni068C.fina" unicode="&#x68c;" horiz-adv-x="1115" arabic-form="final" 
d="M1210 107q0 -33 -12 -70t-66 -37h-52q-92 0 -145.5 37t-88.5 108.5t-70 175.5q-30 -62 -64.5 -114.5t-79.5 -87.5q-127 -97 -322 -97q-56 0 -107.5 14.5t-84 45.5t-32.5 80q0 10 9.5 43.5t23.5 73.5t27.5 68.5t21.5 28.5q10 0 15.5 -20t11.5 -32q7 -16 24.5 -36.5t55 -36
t105.5 -15.5q91 0 173 15.5t134 65.5t52 152q-9 89 -28 168.5t-35.5 144.5t-16.5 112q0 13 12 43.5t29 64.5t30.5 58t16.5 24q8 0 14.5 -6.5t7.5 -31.5q16 -104 35 -221t40 -226t43 -191t43 -118q23 -39 65 -58.5t85 -19.5h52q54 0 66 -36t12 -69zM944 1418q0 -6 -14 -31
t-33.5 -55t-36.5 -52t-23 -22q-4 0 -25 15t-47.5 34.5t-46.5 35t-21 16.5q-8 6 -13 6t-11 -7q-1 -2 -14.5 -21.5t-31 -44t-33 -43.5t-21.5 -19q-4 0 -27 15t-50.5 35.5t-48 38t-20.5 22.5q0 6 15 31.5t35 55.5t36.5 52t20.5 22q8 0 29 -14.5t45 -33.5t42 -34.5t20 -17.5
q9 -9 13 -9q7 0 15 12q1 2 15 21.5t32 43.5t33 42.5t19 18.5q6 0 29 -15.5t50.5 -36.5t47.5 -38.5t20 -22.5z" />
    <glyph glyph-name="uni068D.fina" unicode="&#x68d;" horiz-adv-x="1115" arabic-form="final" 
d="M1210 107q0 -33 -12 -70t-66 -37h-52q-92 0 -145.5 37t-88.5 108.5t-70 175.5q-30 -62 -64.5 -114.5t-79.5 -87.5q-127 -97 -322 -97q-56 0 -107.5 14.5t-84 45.5t-32.5 80q0 10 9.5 43.5t23.5 73.5t27.5 68.5t21.5 28.5q10 0 15.5 -20t11.5 -32q7 -16 24.5 -36.5t55 -36
t105.5 -15.5q91 0 173 15.5t134 65.5t52 152q-9 89 -28 168.5t-35.5 144.5t-16.5 112q0 13 12 43.5t29 64.5t30.5 58t16.5 24q8 0 14.5 -6.5t7.5 -31.5q16 -104 35 -221t40 -226t43 -191t43 -118q23 -39 65 -58.5t85 -19.5h52q54 0 66 -36t12 -69zM878 -253q0 -6 -14 -31.5
t-33.5 -55.5t-36.5 -52t-23 -22q-4 0 -25 15t-47.5 34.5t-46.5 35t-22 17.5q-7 6 -13 6q-4 0 -10 -8q-1 -1 -14.5 -20.5t-31.5 -44.5t-33.5 -43.5t-20.5 -18.5q-4 0 -27 14.5t-50.5 35t-48.5 38t-21 22.5q0 7 15 32t35.5 55t37 52.5t20.5 22.5q7 0 28 -14.5t45.5 -34
t42.5 -35t19 -16.5q10 -10 14 -10q7 0 15 13q1 2 14.5 21t32 43.5t33.5 42.5t19 18q6 0 29 -15.5t50.5 -36.5t47.5 -38.5t20 -21.5z" />
    <glyph glyph-name="uni068E.fina" unicode="&#x68e;" horiz-adv-x="1115" arabic-form="final" 
d="M1210 107q0 -33 -12 -70t-66 -37h-52q-92 0 -145.5 37t-88.5 108.5t-70 175.5q-30 -62 -64.5 -114.5t-79.5 -87.5q-127 -97 -322 -97q-56 0 -107.5 14.5t-84 45.5t-32.5 80q0 10 9.5 43.5t23.5 73.5t27.5 68.5t21.5 28.5q10 0 15.5 -20t11.5 -32q7 -16 24.5 -36.5t55 -36
t105.5 -15.5q91 0 173 15.5t134 65.5t52 152q-9 89 -28 168.5t-35.5 144.5t-16.5 112q0 13 12 43.5t29 64.5t30.5 58t16.5 24q8 0 14.5 -6.5t7.5 -31.5q16 -104 35 -221t40 -226t43 -191t43 -118q23 -39 65 -58.5t85 -19.5h52q54 0 66 -36t12 -69zM791 1696
q0 -6 -14.5 -31.5t-34 -56t-37 -52.5t-23.5 -22q-5 0 -28 15t-50.5 36t-48 38.5t-20.5 23.5t14.5 31t34.5 55t37.5 52t22.5 22q6 0 29 -15.5t50 -36t47.5 -38t20.5 -21.5zM957 1416q0 -6 -14 -31t-33.5 -55t-36.5 -52.5t-23 -22.5q-4 0 -25 15t-47.5 35t-46.5 35.5t-22 16.5
q-7 6 -13 6q-4 0 -10 -7q-1 -2 -14.5 -21.5t-31.5 -44.5t-33.5 -43.5t-20.5 -18.5t-27.5 15t-50 35.5t-48.5 38t-21 22.5q0 6 15 31.5t35.5 55.5t37 52t20.5 22q7 0 28 -14.5t45 -34t42.5 -35t19.5 -16.5q10 -9 14 -9q7 0 15 12q1 2 14.5 21t31.5 43.5t33.5 42.5t19.5 18
q5 0 28.5 -15.5t51 -36.5t47.5 -38.5t20 -21.5z" />
    <glyph glyph-name="uni068F.fina" unicode="&#x68f;" horiz-adv-x="1115" 
d="M1210 107q0 -33 -12 -70t-66 -37h-52q-92 0 -145.5 37t-88.5 108.5t-70 175.5q-30 -62 -64.5 -114.5t-79.5 -87.5q-127 -97 -322 -97q-56 0 -107.5 14.5t-84 45.5t-32.5 80q0 10 9.5 43.5t23.5 73.5t27.5 68.5t21.5 28.5q10 0 15.5 -20t11.5 -32q7 -16 24.5 -36.5t55 -36
t105.5 -15.5q91 0 173 15.5t134 65.5t52 152q-9 89 -28 168.5t-35.5 144.5t-16.5 112q0 13 12 43.5t29 64.5t30.5 58t16.5 24q8 0 14.5 -6.5t7.5 -31.5q16 -104 35 -221t40 -226t43 -191t43 -118q23 -39 65 -58.5t85 -19.5h52q54 0 66 -36t12 -69zM838 1398q0 -5 -14 -30
t-33.5 -55t-37.5 -52t-25 -22q-4 0 -27 14.5t-51.5 35t-49.5 38t-21 23.5t15 31t35.5 55t38 52.5t22.5 22.5q7 0 30 -15.5t50.5 -36.5t47.5 -38.5t20 -22.5zM945 1712q0 -6 -14 -31t-33.5 -55t-36.5 -52t-23 -22q-4 0 -25 15t-47.5 34.5t-46.5 35t-22 16.5q-7 6 -13 6
q-4 0 -10 -7q-1 -2 -14.5 -21.5t-31.5 -44t-33.5 -43.5t-20.5 -19q-4 0 -27 15t-50.5 35.5t-48.5 38t-21 22.5q0 6 15 31.5t35.5 55.5t37 52t20.5 22q7 0 28 -14.5t45.5 -33.5t42.5 -34.5t19 -17.5q10 -9 14 -9q7 0 15 12q1 2 14.5 21.5t32 43.5t33.5 42.5t19 18.5
q6 0 29 -15.5t50.5 -36.5t47.5 -38.5t20 -22.5z" />
    <glyph glyph-name="uni0690.fina" unicode="&#x690;" horiz-adv-x="1115" 
d="M1210 107q0 -33 -12 -70t-66 -37h-52q-92 0 -145.5 37t-88.5 108.5t-70 175.5q-30 -62 -64.5 -114.5t-79.5 -87.5q-127 -97 -322 -97q-56 0 -107.5 14.5t-84 45.5t-32.5 80q0 10 9.5 43.5t23.5 73.5t27.5 68.5t21.5 28.5q10 0 15.5 -20t11.5 -32q7 -16 24.5 -36.5t55 -36
t105.5 -15.5q91 0 173 15.5t134 65.5t52 152q-9 89 -28 168.5t-35.5 144.5t-16.5 112q0 13 12 43.5t29 64.5t30.5 58t16.5 24q8 0 14.5 -6.5t7.5 -31.5q16 -104 35 -221t40 -226t43 -191t43 -118q23 -39 65 -58.5t85 -19.5h52q54 0 66 -36t12 -69zM941 1715q0 -6 -14 -31.5
t-33.5 -55.5t-36.5 -52t-23 -22q-4 0 -25 15t-47.5 34.5t-46.5 35t-21 17.5q-8 6 -13 6t-11 -8q-1 -1 -14.5 -20.5t-31 -44.5t-33 -43.5t-21.5 -18.5q-4 0 -27 14.5t-50.5 35t-48 38t-20.5 22.5q0 7 15 32t35 55.5t36.5 52.5t20.5 22q8 0 29 -14.5t45 -34t42 -35t20 -16.5
q9 -10 13 -10q7 0 15 13q1 2 15 21t32 43.5t33 42.5t19 18q6 0 29 -15.5t50.5 -36.5t47.5 -38.5t20 -21.5zM967 1433q0 -6 -14 -31.5t-33.5 -55.5t-36.5 -52t-23 -22q-4 0 -25 15t-47.5 34.5t-46.5 35t-22 17.5q-7 6 -13 6q-4 0 -10 -8q-1 -1 -14.5 -20.5t-31.5 -44.5
t-33.5 -43.5t-20.5 -18.5q-4 0 -27 14.5t-50.5 35t-48 38t-20.5 22.5q0 7 14.5 32t35 55.5t37 52.5t20.5 22q8 0 28.5 -14.5t45 -34t42.5 -35t19 -16.5q10 -9 14 -9q7 0 15 12q1 2 14.5 21t32 43.5t33.5 42.5t19 18q6 0 29 -15.5t50.5 -36.5t47.5 -38.5t20 -21.5z" />
    <glyph glyph-name="uni0691.fina" unicode="&#x691;" horiz-adv-x="760" arabic-form="final" 
d="M857 107q0 -33 -12 -70t-66 -37h-53q-19 0 -53 7q-12 -119 -48 -245.5t-132 -244.5q-53 -64 -134.5 -109.5t-184.5 -45.5q-40 0 -93.5 11t-104 27t-84.5 30.5t-34 20.5q0 8 7.5 19.5t13.5 11.5q5 0 31.5 -4.5t57.5 -4.5q93 0 221.5 51t241.5 164q92 92 126 167.5t34 91.5
q0 9 -18.5 35.5t-42.5 58.5t-42.5 57.5t-18.5 32.5q0 4 11 28.5t26 57t27 59.5t15 35h18q28 -32 66.5 -65.5t93.5 -33.5h53q54 0 66 -36t12 -69zM860 710q0 -72 -50.5 -121.5t-129 -80t-164 -44.5t-155.5 -14q-21 0 -49.5 21.5t-50 48t-21.5 41.5q0 13 11 13q15 0 46.5 -3.5
t58.5 -3.5q52 0 69 47q8 20 10.5 40.5t2.5 31.5q0 94 -22.5 175t-22.5 168q0 38 19 70.5t34 32.5q3 0 19.5 -25t31.5 -50.5t15 -27.5q-11 -10 -20.5 -24t-9.5 -41q0 -51 10.5 -91.5t10.5 -109.5q0 -19 -1.5 -45.5t-4.5 -53.5q68 81 133 126t123 45q52 0 79.5 -39t27.5 -86z
M785 669q0 14 -27 22t-53 8q-52 0 -106.5 -29.5t-112.5 -95.5q110 8 175.5 29.5t94.5 41.5t29 24z" />
    <glyph glyph-name="uni0692.fina" unicode="&#x692;" horiz-adv-x="760" 
d="M857 107q0 -33 -12 -70t-66 -37h-53q-19 0 -53 7q-12 -119 -48 -245.5t-132 -244.5q-53 -64 -134.5 -109.5t-184.5 -45.5q-40 0 -93.5 11t-104 27t-84.5 30.5t-34 20.5q0 8 7.5 19.5t13.5 11.5q5 0 31.5 -4.5t57.5 -4.5q93 0 221.5 51t241.5 164q92 92 126 167.5t34 91.5
q0 9 -18.5 35.5t-42.5 58.5t-42.5 57.5t-18.5 32.5q0 4 11 28.5t26 57t27 59.5t15 35h18q28 -32 66.5 -65.5t93.5 -33.5h53q54 0 66 -36t12 -69zM742 843q0 -3 -0.5 -23t-0.5 -35q0 -28 -3 -39t-8 -14q-21 -15 -59.5 -51.5t-72.5 -91.5t-44 -124q-1 -6 -9 -6q-10 0 -11 6
q-38 112 -85 169t-82.5 76.5t-37.5 20.5q-4 3 -3.5 31t3.5 55.5t5 27.5q26 -3 68.5 -32.5t83 -84t58.5 -132.5q14 77 54.5 134t81.5 88.5t57 31.5q5 0 5 -7z" />
    <glyph glyph-name="uni0693.fina" unicode="&#x693;" horiz-adv-x="760" 
d="M857 107q0 -33 -12 -70t-66 -37h-53q-19 0 -53 7q-12 -119 -48 -245.5t-132 -244.5q-53 -64 -134.5 -109.5t-184.5 -45.5q-40 0 -93.5 11t-104 27t-84.5 30.5t-34 20.5q0 8 7.5 19.5t13.5 11.5q5 0 31.5 -4.5t57.5 -4.5q93 0 221.5 51t241.5 164q92 92 126 167.5t34 91.5
q0 9 -18.5 35.5t-42.5 58.5t-42.5 57.5t-18.5 32.5q0 4 11 28.5t26 57t27 59.5t15 35h18q28 -32 66.5 -65.5t93.5 -33.5h53q54 0 66 -36t12 -69zM707 -589q0 -94 -62 -161t-155 -67q-68 0 -105.5 49t-37.5 154q0 86 56.5 153.5t147.5 67.5q44 0 79.5 -32t56 -77.5
t20.5 -86.5zM618 -627q0 19 -22 44.5t-52.5 44t-56.5 18.5q-35 0 -55 -26t-20 -54q0 -32 33.5 -52t77.5 -20q26 0 60.5 14t34.5 31z" />
    <glyph glyph-name="uni0694.fina" unicode="&#x694;" horiz-adv-x="760" 
d="M857 107q0 -33 -12 -70t-66 -37h-53q-19 0 -53 7q-12 -119 -48 -245.5t-132 -244.5q-53 -64 -134.5 -109.5t-184.5 -45.5q-40 0 -93.5 11t-104 27t-84.5 30.5t-34 20.5q0 8 7.5 19.5t13.5 11.5q5 0 31.5 -4.5t57.5 -4.5q93 0 221.5 51t241.5 164q92 92 126 167.5t34 91.5
q0 9 -18.5 35.5t-42.5 58.5t-42.5 57.5t-18.5 32.5q0 4 11 28.5t26 57t27 59.5t15 35h18q28 -32 66.5 -65.5t93.5 -33.5h53q54 0 66 -36t12 -69zM672 -809q0 -6 -14.5 -31.5t-35 -56.5t-38.5 -53.5t-25 -22.5q-4 0 -27.5 15t-52 35.5t-50 38.5t-21.5 23q0 7 15 33t36 56.5
t38.5 53.5t22.5 23q7 0 31 -15.5t52 -37t48.5 -39t20.5 -22.5z" />
    <glyph glyph-name="uni0695.fina" unicode="&#x695;" horiz-adv-x="760" 
d="M857 107q0 -33 -12 -70t-66 -37h-53q-19 0 -53 7q-12 -119 -48 -245.5t-132 -244.5q-53 -64 -134.5 -109.5t-184.5 -45.5q-40 0 -93.5 11t-104 27t-84.5 30.5t-34 20.5q0 8 7.5 19.5t13.5 11.5q5 0 31.5 -4.5t57.5 -4.5q93 0 221.5 51t241.5 164q92 92 126 167.5t34 91.5
q0 9 -18.5 35.5t-42.5 58.5t-42.5 57.5t-18.5 32.5q0 4 11 28.5t26 57t27 59.5t15 35h18q28 -32 66.5 -65.5t93.5 -33.5h53q54 0 66 -36t12 -69zM742 -716q0 -3 -0.5 -23t-0.5 -35q0 -28 -3 -39t-9 -14q-20 -15 -58.5 -51.5t-73 -91.5t-43.5 -124q-1 -6 -10 -6t-10 6
q-38 112 -85.5 169t-82.5 76.5t-38 20.5q-4 3 -3 31t3.5 55.5t5.5 27.5q25 -3 68 -32.5t83 -84t59 -132.5q14 77 54 134t81 88.5t58 31.5q5 0 5 -7z" />
    <glyph glyph-name="uni0696.fina" unicode="&#x696;" horiz-adv-x="760" 
d="M857 107q0 -33 -12 -70t-66 -37h-53q-19 0 -53 7q-12 -119 -48 -245.5t-132 -244.5q-53 -64 -134.5 -109.5t-184.5 -45.5q-40 0 -93.5 11t-104 27t-84.5 30.5t-34 20.5q0 8 7.5 19.5t13.5 11.5q5 0 31.5 -4.5t57.5 -4.5q93 0 221.5 51t241.5 164q92 92 126 167.5t34 91.5
q0 9 -18.5 35.5t-42.5 58.5t-42.5 57.5t-18.5 32.5q0 4 11 28.5t26 57t27 59.5t15 35h18q28 -32 66.5 -65.5t93.5 -33.5h53q54 0 66 -36t12 -69zM674 -809q0 -6 -14.5 -31.5t-35 -56.5t-38.5 -53.5t-26 -22.5q-3 0 -26.5 15t-52.5 35.5t-50 38.5t-21 23q0 7 15 33t35.5 56.5
t38.5 53.5t23 23q6 0 30 -15.5t52 -37t49 -39t21 -22.5zM351 20q0 -6 -14.5 -32t-35 -56.5t-38.5 -53.5t-26 -23q-3 0 -26.5 15t-52.5 35.5t-50 38.5t-21 24q0 7 15 33t35.5 56.5t38.5 53t23 22.5q6 0 30 -15.5t52 -36.5t49 -39t21 -22z" />
    <glyph glyph-name="uni0697.fina" unicode="&#x697;" horiz-adv-x="760" 
d="M857 107q0 -33 -12 -70t-66 -37h-53q-19 0 -53 7q-12 -119 -48 -245.5t-132 -244.5q-53 -64 -134.5 -109.5t-184.5 -45.5q-40 0 -93.5 11t-104 27t-84.5 30.5t-34 20.5q0 8 7.5 19.5t13.5 11.5q5 0 31.5 -4.5t57.5 -4.5q93 0 221.5 51t241.5 164q92 92 126 167.5t34 91.5
q0 9 -18.5 35.5t-42.5 58.5t-42.5 57.5t-18.5 32.5q0 4 11 28.5t26 57t27 59.5t15 35h18q28 -32 66.5 -65.5t93.5 -33.5h53q54 0 66 -36t12 -69zM800 628q0 -6 -14 -31t-33.5 -55t-36.5 -52t-23 -22q-4 0 -25 15t-47.5 34.5t-46.5 35t-22 16.5q-7 6 -13 6q-4 0 -10 -7
q-1 -2 -14.5 -21.5t-31.5 -44t-33.5 -43.5t-20.5 -19q-4 0 -27 15t-50.5 35.5t-48.5 38t-21 22.5q0 6 15 31.5t35.5 55.5t37 52t20.5 22q7 0 28 -14.5t45.5 -33.5t42.5 -34.5t19 -17.5q10 -9 14 -9q7 0 15 12q1 2 14.5 21.5t32 43.5t33.5 42.5t19 18.5q6 0 29 -15.5
t50.5 -36.5t47.5 -38.5t20 -22.5z" />
    <glyph glyph-name="uni0698.fina" unicode="&#x698;" horiz-adv-x="760" arabic-form="final" 
d="M857 107q0 -33 -12 -70t-66 -37h-53q-19 0 -53 7q-12 -119 -48 -245.5t-132 -244.5q-53 -64 -134.5 -109.5t-184.5 -45.5q-40 0 -93.5 11t-104 27t-84.5 30.5t-34 20.5q0 8 7.5 19.5t13.5 11.5q5 0 31.5 -4.5t57.5 -4.5q93 0 221.5 51t241.5 164q92 92 126 167.5t34 91.5
q0 9 -18.5 35.5t-42.5 58.5t-42.5 57.5t-18.5 32.5q0 4 11 28.5t26 57t27 59.5t15 35h18q28 -32 66.5 -65.5t93.5 -33.5h53q54 0 66 -36t12 -69zM633 912q0 -7 -14.5 -32.5t-34 -55.5t-37 -52.5t-23.5 -22.5q-5 0 -28 15.5t-50.5 36t-48 38.5t-20.5 24t14.5 31t34.5 55
t37.5 52t22.5 22q6 0 29 -15.5t50 -36t47.5 -38t20.5 -21.5zM799 632q0 -6 -14 -31.5t-33.5 -55.5t-36.5 -52t-23 -22q-4 0 -25 15t-47.5 34.5t-46.5 35t-22 17.5q-7 6 -13 6q-4 0 -10 -8q-1 -1 -14.5 -20.5t-31.5 -44.5t-33.5 -44t-20.5 -19t-27.5 15t-50 35.5t-48.5 38
t-21 22.5q0 7 15 32t35.5 55t37 52.5t20.5 22.5q7 0 28 -14.5t45 -34t42.5 -35t19.5 -17.5q10 -9 14 -9q7 0 15 13q1 2 14.5 21t31.5 43t33.5 42.5t19.5 18.5q5 0 28.5 -15.5t51 -36.5t47.5 -38.5t20 -21.5z" />
    <glyph glyph-name="uni0699.fina" unicode="&#x699;" horiz-adv-x="760" 
d="M857 107q0 -33 -12 -70t-66 -37h-53q-19 0 -53 7q-12 -119 -48 -245.5t-132 -244.5q-53 -64 -134.5 -109.5t-184.5 -45.5q-40 0 -93.5 11t-104 27t-84.5 30.5t-34 20.5q0 8 7.5 19.5t13.5 11.5q5 0 31.5 -4.5t57.5 -4.5q93 0 221.5 51t241.5 164q92 92 126 167.5t34 91.5
q0 9 -18.5 35.5t-42.5 58.5t-42.5 57.5t-18.5 32.5q0 4 11 28.5t26 57t27 59.5t15 35h18q28 -32 66.5 -65.5t93.5 -33.5h53q54 0 66 -36t12 -69zM784 909q0 -6 -14.5 -31t-33.5 -55t-36.5 -52t-23.5 -22q-3 0 -24.5 14.5t-47.5 34.5t-46 35.5t-22 16.5q-8 6 -13 6t-10 -7
q-2 -2 -15 -21.5t-31 -44.5t-33.5 -43.5t-20.5 -18.5t-27.5 15t-50.5 35.5t-48.5 38t-20.5 22.5q0 6 15 31.5t35 55.5t37 52t20 22q8 0 29 -14.5t45 -34t42 -34.5t20 -17q10 -9 14 -9q6 0 14 12q2 2 15.5 21.5t31.5 43.5t33 42t19 18q6 0 29 -15t50.5 -36t48 -39t20.5 -22z
M809 627q0 -6 -14 -31t-33.5 -55t-36.5 -52t-23 -22q-4 0 -25 14.5t-47 34.5t-46.5 35.5t-21.5 16.5q-8 6 -13 6t-11 -7q-1 -2 -14.5 -21.5t-31 -44.5t-33 -43.5t-21.5 -18.5q-4 0 -27 15t-50.5 35.5t-48 38t-20.5 22.5q0 6 15 31.5t35 55.5t37 52t20 22q8 0 29 -14.5
t45 -34t42 -34.5t20 -17q9 -9 13 -9q7 0 15 12q1 2 15 21.5t32 43.5t33 42t19 18q6 0 29 -15t50.5 -36t47.5 -39t20 -22z" />
    <glyph glyph-name="uni069A.init" unicode="&#x69a;" horiz-adv-x="1368" 
d="M1223 465q0 -42 -11.5 -103t-36 -120.5t-63.5 -99.5t-94 -40q-53 0 -93 23.5t-68.5 55t-45.5 56.5q-30 -50 -71 -104.5t-93.5 -92t-117.5 -37.5q-73 0 -130.5 41t-89.5 112q-54 -79 -124 -117.5t-150 -38.5h-51q-54 0 -66.5 37t-12.5 70t12.5 69t66.5 36h51
q100 0 161 28.5t95 66t51.5 66t30.5 28.5q18 0 23 -28t15 -64.5t40.5 -64t98.5 -27.5q78 0 140.5 38.5t101 101.5t45.5 135q3 30 24 30q4 0 11 -9t10 -27q13 -62 50.5 -99t81.5 -53t77 -16q14 0 34 13t20 26q0 18 -20 34t-39.5 27t-19.5 14q0 4 7.5 37t19 74t23.5 71.5
t20 30.5q16 0 36.5 -31.5t35.5 -73.5t15 -75zM868 901q0 -6 -14.5 -31.5t-34.5 -56.5t-38.5 -53.5t-25.5 -22.5q-4 0 -27 15t-52 35.5t-50.5 38.5t-21.5 23q0 7 15 33t36 56.5t38.5 53.5t22.5 23q7 0 31 -15.5t52 -37t48.5 -39t20.5 -22.5zM874 -253q0 -6 -14.5 -32
t-34.5 -56.5t-38.5 -53.5t-25.5 -23q-4 0 -27 15t-52 35.5t-50.5 38.5t-21.5 24q0 7 15 33t36 56.5t38.5 53t22.5 22.5q7 0 31 -15.5t52 -36.5t48.5 -39t20.5 -22z" />
    <glyph glyph-name="uni069A.medi" unicode="&#x69a;" horiz-adv-x="1477" 
d="M1571 103q0 -34 -10 -68.5t-63 -34.5h-53q-86 0 -147 64t-103 168q-38 -87 -87 -142t-129 -55q-76 0 -111.5 38t-53.5 96q-54 -81 -119 -123.5t-171 -42.5q-66 0 -122 34.5t-93 118.5q-54 -86 -127.5 -121t-146.5 -35h-51q-54 0 -66.5 34.5t-12.5 68.5q0 32 12.5 70.5
t66.5 38.5h51q100 0 159.5 30.5t92.5 70.5t50 70.5t30 30.5q18 0 22.5 -29.5t14.5 -68t42.5 -68.5t107.5 -30q92 0 152 34.5t95.5 79t54 78.5t28.5 34q27 0 27 -38q0 -23 8 -54t31.5 -54.5t71.5 -23.5q51 0 83.5 26.5t52.5 61t31 61t19 26.5q21 0 28 -32t31.5 -80.5
t68.5 -86.5t109 -38h53q53 0 63 -38.5t10 -70.5zM869 753q0 -6 -14.5 -31.5t-35 -56.5t-38.5 -53.5t-26 -22.5q-3 0 -26.5 15t-52.5 35.5t-50 38.5t-21 23q0 7 15 33t35.5 56.5t38.5 53.5t23 23q6 0 30 -15.5t52 -37t49 -39t21 -22.5zM866 -257q0 -6 -14.5 -31.5t-35 -56.5
t-38.5 -53.5t-25 -22.5q-4 0 -27.5 15t-52 35.5t-50 38.5t-21.5 23q0 7 15 33t36 56.5t38.5 53.5t22.5 23q7 0 31 -15.5t52 -37t48.5 -39t20.5 -22.5z" />
    <glyph glyph-name="uni069A.fina" unicode="&#x69a;" horiz-adv-x="2055" 
d="M2149 107q0 -44 -12 -75.5t-65 -31.5h-53q-82 0 -141 61t-106 173q-39 -87 -87 -142t-128 -55q-59 0 -92 22t-49 53t-26 59q-36 -54 -68 -88.5t-75.5 -50.5t-113.5 -17q-1 -72 -6.5 -121.5t-19.5 -115.5q-31 -145 -104 -238t-172 -145.5t-208.5 -73.5t-213.5 -21
q-125 0 -206.5 51t-121.5 133.5t-40 175.5q0 73 23.5 146.5t55 135t58 98.5t32.5 37q8 0 18.5 -7.5t10.5 -12.5q0 -11 -26 -53t-52 -106t-26 -140q0 -82 50.5 -135.5t126.5 -80.5t154 -27q143 0 274 25.5t200 77.5q61 44 85 105t24 149q0 89 -20 147t-40.5 91t-20.5 47
q0 8 12.5 38.5t30 66.5t33 62.5t20.5 26.5q21 -23 37 -62.5t25 -70.5q94 0 154.5 34.5t96.5 79.5t54.5 79.5t27.5 34.5q28 0 28 -38q0 -23 8 -54t31.5 -54.5t71.5 -23.5q51 0 83.5 26.5t52.5 61t31 61t19 26.5q21 0 28 -32q7 -28 31.5 -77.5t68 -89.5t107.5 -40h53
q53 0 65 -28t12 -77zM1539 751q0 -6 -14.5 -31.5t-35 -56.5t-38.5 -53.5t-25 -22.5q-4 0 -27.5 15t-52 35.5t-50 38.5t-21.5 23q0 7 15 33t36 56.5t38.5 53.5t22.5 23q7 0 31 -15.5t52 -37t48.5 -39t20.5 -22.5zM1639 -269q0 -6 -14.5 -31.5t-35 -56.5t-38.5 -53.5
t-25 -22.5q-4 0 -27.5 15t-52 35.5t-50 38.5t-21.5 23q0 7 15 33t36 56.5t38.5 53.5t22.5 23q7 0 31 -15.5t52 -37t48.5 -39t20.5 -22.5z" />
    <glyph glyph-name="uni069B.init" unicode="&#x69b;" horiz-adv-x="1368" 
d="M1223 465q0 -42 -11.5 -103t-36 -120.5t-63.5 -99.5t-94 -40q-53 0 -93 23.5t-68.5 55t-45.5 56.5q-30 -50 -71 -104.5t-93.5 -92t-117.5 -37.5q-73 0 -130.5 41t-89.5 112q-54 -79 -124 -117.5t-150 -38.5h-51q-54 0 -66.5 37t-12.5 70t12.5 69t66.5 36h51
q100 0 161 28.5t95 66t51.5 66t30.5 28.5q18 0 23 -28t15 -64.5t40.5 -64t98.5 -27.5q78 0 140.5 38.5t101 101.5t45.5 135q3 30 24 30q4 0 11 -9t10 -27q13 -62 50.5 -99t81.5 -53t77 -16q14 0 34 13t20 26q0 18 -20 34t-39.5 27t-19.5 14q0 4 7.5 37t19 74t23.5 71.5
t20 30.5q16 0 36.5 -31.5t35.5 -73.5t15 -75zM897 -552q0 -6 -14 -31t-33.5 -55t-37.5 -52t-25 -22q-4 0 -27 15t-51 35t-49 37.5t-21 23.5t14.5 31t35 55.5t38 52.5t23.5 22t29.5 -15t50.5 -36t47 -39t20 -22zM1004 -238q0 -6 -14 -31.5t-33.5 -55.5t-36.5 -52t-23 -22
q-4 0 -25 15t-47.5 34.5t-46.5 35t-21 17.5q-8 6 -13 6t-11 -8q-1 -1 -14.5 -20.5t-31 -44.5t-33 -43.5t-21.5 -18.5q-4 0 -27 14.5t-50.5 35t-48 38t-20.5 22.5q0 7 15 32t35 55t36.5 52.5t20.5 22.5q8 0 29 -14.5t45 -34t42 -35t20 -16.5q9 -10 13 -10q7 0 15 13
q1 2 15 21t32 43.5t33 42.5t19 18q6 0 29 -15.5t50.5 -36.5t47.5 -38.5t20 -21.5z" />
    <glyph glyph-name="uni069B.medi" unicode="&#x69b;" horiz-adv-x="1477" 
d="M1571 103q0 -34 -10 -68.5t-63 -34.5h-53q-86 0 -147 64t-103 168q-38 -87 -87 -142t-129 -55q-76 0 -111.5 38t-53.5 96q-54 -81 -119 -123.5t-171 -42.5q-66 0 -122 34.5t-93 118.5q-54 -86 -127.5 -121t-146.5 -35h-51q-54 0 -66.5 34.5t-12.5 68.5q0 32 12.5 70.5
t66.5 38.5h51q100 0 159.5 30.5t92.5 70.5t50 70.5t30 30.5q18 0 22.5 -29.5t14.5 -68t42.5 -68.5t107.5 -30q92 0 152 34.5t95.5 79t54 78.5t28.5 34q27 0 27 -38q0 -23 8 -54t31.5 -54.5t71.5 -23.5q51 0 83.5 26.5t52.5 61t31 61t19 26.5q21 0 28 -32t31.5 -80.5
t68.5 -86.5t109 -38h53q53 0 63 -38.5t10 -70.5zM894 -550q0 -6 -14 -31t-33.5 -55t-37.5 -52t-25 -22q-4 0 -27 15t-51 35t-49 37.5t-21 23.5t14.5 31t35 55.5t38 52.5t23.5 22t29.5 -15t50.5 -36t47 -39t20 -22zM1001 -236q0 -6 -14 -31.5t-33.5 -55.5t-36.5 -52t-23 -22
q-4 0 -25 15t-47.5 34.5t-46.5 35t-21 17.5q-8 6 -13 6t-11 -8q-1 -1 -14.5 -20.5t-31 -44.5t-33 -43.5t-21.5 -18.5q-4 0 -27 14.5t-50.5 35t-48 38t-20.5 22.5q0 7 15 32t35 55t36.5 52.5t20.5 22.5q8 0 29 -14.5t45 -34t42 -35t20 -16.5q9 -10 13 -10q7 0 15 13
q1 2 15 21t32 43.5t33 42.5t19 18q6 0 29 -15.5t50.5 -36.5t47.5 -38.5t20 -21.5z" />
    <glyph glyph-name="uni069B.fina" unicode="&#x69b;" horiz-adv-x="2055" 
d="M2149 107q0 -44 -12 -75.5t-65 -31.5h-53q-82 0 -141 61t-106 173q-39 -87 -87 -142t-128 -55q-59 0 -92 22t-49 53t-26 59q-36 -54 -68 -88.5t-75.5 -50.5t-113.5 -17q-1 -72 -6.5 -121.5t-19.5 -115.5q-31 -145 -104 -238t-172 -145.5t-208.5 -73.5t-213.5 -21
q-125 0 -206.5 51t-121.5 133.5t-40 175.5q0 73 23.5 146.5t55 135t58 98.5t32.5 37q8 0 18.5 -7.5t10.5 -12.5q0 -11 -26 -53t-52 -106t-26 -140q0 -82 50.5 -135.5t126.5 -80.5t154 -27q143 0 274 25.5t200 77.5q61 44 85 105t24 149q0 89 -20 147t-40.5 91t-20.5 47
q0 8 12.5 38.5t30 66.5t33 62.5t20.5 26.5q21 -23 37 -62.5t25 -70.5q94 0 154.5 34.5t96.5 79.5t54.5 79.5t27.5 34.5q28 0 28 -38q0 -23 8 -54t31.5 -54.5t71.5 -23.5q51 0 83.5 26.5t52.5 61t31 61t19 26.5q21 0 28 -32q7 -28 31.5 -77.5t68 -89.5t107.5 -40h53
q53 0 65 -28t12 -77zM1664 -575q0 -5 -14 -30t-33.5 -55t-37.5 -52t-25 -22q-4 0 -27 14.5t-51.5 35t-49.5 38t-21 23.5t15 31t35.5 55t38 52.5t22.5 22.5q7 0 30 -15.5t50.5 -36.5t47.5 -38.5t20 -22.5zM1771 -261q0 -6 -14 -31t-33.5 -55t-36.5 -52t-23 -22q-4 0 -25 15
t-47.5 34.5t-46.5 35t-22 16.5q-7 6 -13 6q-4 0 -10 -7q-1 -2 -14.5 -21.5t-31.5 -44t-33.5 -43.5t-20.5 -19q-4 0 -27 15t-50.5 35.5t-48.5 38t-21 22.5q0 6 15 31.5t35.5 55.5t37 52t20.5 22q7 0 28 -14.5t45.5 -33.5t42.5 -34.5t19 -17.5q10 -9 14 -9q7 0 15 12
q1 2 14.5 21.5t32 43.5t33.5 42.5t19 18.5q6 0 29 -15.5t50.5 -36.5t47.5 -38.5t20 -22.5z" />
    <glyph glyph-name="uni069C.init" unicode="&#x69c;" horiz-adv-x="1368" 
d="M1223 465q0 -42 -11.5 -103t-36 -120.5t-63.5 -99.5t-94 -40q-53 0 -93 23.5t-68.5 55t-45.5 56.5q-30 -50 -71 -104.5t-93.5 -92t-117.5 -37.5q-73 0 -130.5 41t-89.5 112q-54 -79 -124 -117.5t-150 -38.5h-51q-54 0 -66.5 37t-12.5 70t12.5 69t66.5 36h51
q100 0 161 28.5t95 66t51.5 66t30.5 28.5q18 0 23 -28t15 -64.5t40.5 -64t98.5 -27.5q78 0 140.5 38.5t101 101.5t45.5 135q3 30 24 30q4 0 11 -9t10 -27q13 -62 50.5 -99t81.5 -53t77 -16q14 0 34 13t20 26q0 18 -20 34t-39.5 27t-19.5 14q0 4 7.5 37t19 74t23.5 71.5
t20 30.5q16 0 36.5 -31.5t35.5 -73.5t15 -75zM813 1188q0 -6 -14.5 -31.5t-34 -55.5t-37 -52.5t-23.5 -22.5q-5 0 -28 15t-50.5 36t-48 39t-20.5 23q0 7 14.5 32t34.5 54.5t37.5 51.5t22.5 22q6 0 29 -15t50 -36t47.5 -38t20.5 -22zM979 908q0 -6 -14 -31t-33.5 -55
t-36.5 -52t-23 -22q-4 0 -25 14.5t-47.5 34.5t-46.5 35.5t-22 16.5q-7 6 -13 6q-4 0 -10 -7q-1 -2 -14.5 -21.5t-31.5 -44t-33.5 -43.5t-20.5 -19t-27.5 15t-50 35.5t-48.5 38t-21 22.5q0 6 15 31.5t35.5 55.5t37 52t20.5 22q7 0 28 -14.5t45 -33.5t42.5 -34.5t19.5 -17.5
q10 -9 14 -9q7 0 15 12q1 2 14.5 21.5t31.5 43.5t33.5 42.5t19.5 18.5q5 0 28.5 -15.5t51 -36.5t47.5 -38.5t20 -22.5zM897 -552q0 -6 -14 -31t-33.5 -55t-37.5 -52t-25 -22q-4 0 -27 15t-51 35t-49 37.5t-21 23.5t14.5 31t35 55.5t38 52.5t23.5 22t29.5 -15t50.5 -36
t47 -39t20 -22zM1004 -238q0 -6 -14 -31.5t-33.5 -55.5t-36.5 -52t-23 -22q-4 0 -25 15t-47.5 34.5t-46.5 35t-21 17.5q-8 6 -13 6t-11 -8q-1 -1 -14.5 -20.5t-31 -44.5t-33 -43.5t-21.5 -18.5q-4 0 -27 14.5t-50.5 35t-48 38t-20.5 22.5q0 7 15 32t35 55t36.5 52.5
t20.5 22.5q8 0 29 -14.5t45 -34t42 -35t20 -16.5q9 -10 13 -10q7 0 15 13q1 2 15 21t32 43.5t33 42.5t19 18q6 0 29 -15.5t50.5 -36.5t47.5 -38.5t20 -21.5z" />
    <glyph glyph-name="uni069C.medi" unicode="&#x69c;" horiz-adv-x="1477" 
d="M1571 103q0 -34 -10 -68.5t-63 -34.5h-53q-86 0 -147 64t-103 168q-38 -87 -87 -142t-129 -55q-76 0 -111.5 38t-53.5 96q-54 -81 -119 -123.5t-171 -42.5q-66 0 -122 34.5t-93 118.5q-54 -86 -127.5 -121t-146.5 -35h-51q-54 0 -66.5 34.5t-12.5 68.5q0 32 12.5 70.5
t66.5 38.5h51q100 0 159.5 30.5t92.5 70.5t50 70.5t30 30.5q18 0 22.5 -29.5t14.5 -68t42.5 -68.5t107.5 -30q92 0 152 34.5t95.5 79t54 78.5t28.5 34q27 0 27 -38q0 -23 8 -54t31.5 -54.5t71.5 -23.5q51 0 83.5 26.5t52.5 61t31 61t19 26.5q21 0 28 -32t31.5 -80.5
t68.5 -86.5t109 -38h53q53 0 63 -38.5t10 -70.5zM841 1056q0 -6 -14 -31.5t-33.5 -55.5t-37 -52.5t-23.5 -22.5q-5 0 -28 15t-51 36t-48.5 39t-20.5 23q0 7 15 32t35 54.5t37 51.5t23 22q5 0 28 -15t50.5 -36t47.5 -38t20 -22zM1008 776q0 -6 -14.5 -31t-34 -55t-36.5 -52
t-23 -22q-3 0 -24.5 14.5t-47.5 34.5t-46.5 35.5t-21.5 16.5q-8 6 -13 6t-10 -7q-2 -2 -15.5 -21.5t-31 -44t-33 -43.5t-21.5 -19q-4 0 -26.5 15t-50.5 35.5t-48.5 38t-20.5 22.5q0 6 15 31.5t35 55.5t37 52t20 22q8 0 29 -14.5t45 -33.5t42 -34.5t20 -17.5q10 -9 14 -9
q6 0 14 12q2 2 15.5 21.5t31.5 43.5t33 42.5t19 18.5q6 0 29 -15.5t50.5 -36.5t48 -38.5t20.5 -22.5zM894 -550q0 -6 -14 -31t-33.5 -55t-37.5 -52t-25 -22q-4 0 -27 15t-51 35t-49 37.5t-21 23.5t14.5 31t35 55.5t38 52.5t23.5 22t29.5 -15t50.5 -36t47 -39t20 -22z
M1001 -236q0 -6 -14 -31.5t-33.5 -55.5t-36.5 -52t-23 -22q-4 0 -25 15t-47.5 34.5t-46.5 35t-21 17.5q-8 6 -13 6t-11 -8q-1 -1 -14.5 -20.5t-31 -44.5t-33 -43.5t-21.5 -18.5q-4 0 -27 14.5t-50.5 35t-48 38t-20.5 22.5q0 7 15 32t35 55t36.5 52.5t20.5 22.5q8 0 29 -14.5
t45 -34t42 -35t20 -16.5q9 -10 13 -10q7 0 15 13q1 2 15 21t32 43.5t33 42.5t19 18q6 0 29 -15.5t50.5 -36.5t47.5 -38.5t20 -21.5z" />
    <glyph glyph-name="uni069C.fina" unicode="&#x69c;" horiz-adv-x="2055" 
d="M2149 107q0 -44 -12 -75.5t-65 -31.5h-53q-82 0 -141 61t-106 173q-39 -87 -87 -142t-128 -55q-59 0 -92 22t-49 53t-26 59q-36 -54 -68 -88.5t-75.5 -50.5t-113.5 -17q-1 -72 -6.5 -121.5t-19.5 -115.5q-31 -145 -104 -238t-172 -145.5t-208.5 -73.5t-213.5 -21
q-125 0 -206.5 51t-121.5 133.5t-40 175.5q0 73 23.5 146.5t55 135t58 98.5t32.5 37q8 0 18.5 -7.5t10.5 -12.5q0 -11 -26 -53t-52 -106t-26 -140q0 -82 50.5 -135.5t126.5 -80.5t154 -27q143 0 274 25.5t200 77.5q61 44 85 105t24 149q0 89 -20 147t-40.5 91t-20.5 47
q0 8 12.5 38.5t30 66.5t33 62.5t20.5 26.5q21 -23 37 -62.5t25 -70.5q94 0 154.5 34.5t96.5 79.5t54.5 79.5t27.5 34.5q28 0 28 -38q0 -23 8 -54t31.5 -54.5t71.5 -23.5q51 0 83.5 26.5t52.5 61t31 61t19 26.5q21 0 28 -32q7 -28 31.5 -77.5t68 -89.5t107.5 -40h53
q53 0 65 -28t12 -77zM1512 1072q0 -6 -14.5 -31.5t-34 -55.5t-37 -52.5t-23.5 -22.5q-5 0 -28 15t-50.5 36t-48 39t-20.5 23q0 7 14.5 32t34.5 54.5t37.5 51.5t22.5 22q6 0 29 -15t50 -36t47.5 -38t20.5 -22zM1678 792q0 -6 -14 -31t-33.5 -55t-36.5 -52t-23 -22
q-4 0 -25 14.5t-47.5 34.5t-46.5 35.5t-22 16.5q-7 6 -13 6q-4 0 -10 -7q-1 -2 -14.5 -21.5t-31.5 -44t-33.5 -43.5t-20.5 -19t-27.5 15t-50 35.5t-48.5 38t-21 22.5q0 6 15 31.5t35.5 55.5t37 52t20.5 22q7 0 28 -14.5t45 -33.5t42.5 -34.5t19.5 -17.5q10 -9 14 -9
q7 0 15 12q1 2 14.5 21.5t31.5 43.5t33.5 42.5t19.5 18.5q5 0 28.5 -15.5t51 -36.5t47.5 -38.5t20 -22.5zM1664 -575q0 -5 -14 -30t-33.5 -55t-37.5 -52t-25 -22q-4 0 -27 14.5t-51.5 35t-49.5 38t-21 23.5t15 31t35.5 55t38 52.5t22.5 22.5q7 0 30 -15.5t50.5 -36.5
t47.5 -38.5t20 -22.5zM1771 -261q0 -6 -14 -31t-33.5 -55t-36.5 -52t-23 -22q-4 0 -25 15t-47.5 34.5t-46.5 35t-22 16.5q-7 6 -13 6q-4 0 -10 -7q-1 -2 -14.5 -21.5t-31.5 -44t-33.5 -43.5t-20.5 -19q-4 0 -27 15t-50.5 35.5t-48.5 38t-21 22.5q0 6 15 31.5t35.5 55.5
t37 52t20.5 22q7 0 28 -14.5t45.5 -33.5t42.5 -34.5t19 -17.5q10 -9 14 -9q7 0 15 12q1 2 14.5 21.5t32 43.5t33.5 42.5t19 18.5q6 0 29 -15.5t50.5 -36.5t47.5 -38.5t20 -22.5z" />
    <glyph glyph-name="uni069D.init" unicode="&#x69d;" horiz-adv-x="1746" 
d="M1602 527q0 -101 -49 -178.5t-130.5 -135t-181.5 -96.5t-203.5 -63t-196 -35.5t-157.5 -12.5q-8 -17 -22 -57t-26 -82t-15 -67q-5 0 -17.5 14.5t-22.5 32t-10 27.5q0 13 13.5 56t24.5 76q-109 0 -190.5 24.5t-128.5 126.5q-39 -61 -99 -109t-156 -48h-51q-54 0 -66.5 32
t-12.5 75q0 46 12.5 75.5t66.5 29.5h51q91 0 149.5 29t93 67t52 67t24.5 29q14 0 19.5 -32.5t11.5 -59.5q9 -47 52 -68.5t98.5 -27.5t100.5 -6h58q52 82 129.5 176.5t172 179t198 138.5t206.5 54q73 0 117.5 -39t64.5 -93t20 -99zM1483 428q0 27 -54 62t-137 35
q-85 0 -183 -39t-184 -109.5t-137 -163.5q116 1 238 26t226 61t167.5 71t63.5 57zM1270 -260q0 -6 -14 -31.5t-33.5 -55.5t-36.5 -52t-23 -22q-4 0 -25 15t-47.5 34.5t-46.5 35t-22 17.5q-7 6 -13 6q-4 0 -10 -8q-1 -1 -14.5 -20.5t-31.5 -44.5t-33.5 -43.5t-20.5 -18.5
q-4 0 -27 14.5t-50.5 35t-48.5 38t-21 22.5q0 7 15 32t35.5 55t37 52.5t20.5 22.5q7 0 28 -14.5t45.5 -34t42.5 -35t19 -16.5q10 -10 14 -10q7 0 15 13q1 2 14.5 21t32 43.5t33.5 42.5t19 18q6 0 29 -15.5t50.5 -36.5t47.5 -38.5t20 -21.5z" />
    <glyph glyph-name="uni069D.medi" unicode="&#x69d;" horiz-adv-x="1732" 
d="M1827 107q0 -33 -12.5 -70t-65.5 -37h-52q-164 0 -333.5 0.5t-338.5 0.5h-168.5t-166.5 -1q-18 -37 -33 -86t-24 -85t-12 -36q-15 0 -32 28t-17 48q0 9 10 51.5t24 79.5q-109 0 -189 26.5t-127 130.5q-40 -61 -99.5 -109t-155.5 -48h-52q-53 0 -65.5 37t-12.5 70t12.5 69
t65.5 36h52q90 0 148.5 29t93 67t52 67t25.5 29q13 0 19 -33t12 -59q10 -47 52.5 -68.5t97.5 -27.5t101 -6h57q50 79 129 173.5t177 179.5t205 140t213 55q63 0 104.5 -39t62.5 -92.5t21 -97.5q0 -203 -239 -333q117 10 190 13t141 3h52q53 0 65.5 -36t12.5 -69zM1483 424
q0 22 -25.5 38.5t-61 28t-66 17.5t-40.5 6q-131 0 -265 -72t-232 -230q113 1 234 25t224.5 59t167.5 69.5t64 58.5zM1272 -297q0 -6 -14 -31t-33.5 -55t-36.5 -52t-23 -22q-4 0 -25 15t-47.5 34.5t-46.5 35t-21 16.5q-8 6 -13 6t-11 -7q-1 -2 -14.5 -21.5t-31 -44t-33 -43.5
t-21.5 -19q-4 0 -27 15t-50.5 35.5t-48 38t-20.5 22.5q0 6 15 31.5t35 55.5t36.5 52t20.5 22q8 0 29 -14.5t45 -33.5t42 -34.5t20 -17.5q9 -9 13 -9q7 0 15 12q1 2 15 21.5t32 43.5t33 42.5t19 18.5q6 0 29 -15.5t50.5 -36.5t47.5 -38.5t20 -22.5z" />
    <glyph glyph-name="uni069D.fina" unicode="&#x69d;" horiz-adv-x="2370" 
d="M2467 107q0 -33 -12.5 -70t-65.5 -37h-53q-164 0 -342.5 3t-336.5 10q-79 -1 -161 -4t-164 -4q-19 -40 -33.5 -89.5t-24.5 -86t-13 -36.5q-14 0 -32 28t-18 48q0 9 14.5 54.5t28.5 83.5q-19 0 -54 5.5t-49 11.5q0 -56 -2 -91.5t-7 -69t-15 -82.5q-30 -145 -100 -240
t-165.5 -149.5t-204.5 -76.5t-218 -22q-127 0 -216 51t-135.5 134t-46.5 178q0 80 25 157t58.5 139.5t61.5 99.5t34 37q9 0 17.5 -8.5t8.5 -14.5q0 -11 -27 -53t-54.5 -108t-27.5 -149q0 -73 35.5 -122t91.5 -77.5t120 -41t121 -12.5q81 0 168 12.5t161 36t117 55.5
q60 45 85.5 114t25.5 166q0 87 -22 142.5t-44.5 86t-22.5 42.5q0 8 12 37t28.5 63.5t31 59.5t19.5 25q17 -24 33 -57.5t24 -64.5q27 -4 85 -7.5t129 -3.5q49 79 127.5 172.5t175.5 178t203.5 138.5t212.5 54q63 0 106 -38t65 -90t22 -96q0 -203 -242 -333q117 10 190 13
t141 3h53q53 0 65.5 -36t12.5 -69zM2124 424q0 25 -39 45.5t-86 32.5t-68 12q-82 0 -173 -33.5t-175.5 -100t-148.5 -167.5q113 1 233.5 24.5t224.5 58.5t168 69.5t64 58.5zM1927 -292q0 -6 -14.5 -31t-33.5 -55t-36.5 -52t-23.5 -22q-3 0 -24.5 15t-47.5 34.5t-46 35
t-22 16.5q-8 6 -13 6t-10 -7q-2 -2 -15 -21.5t-31 -44t-33.5 -43.5t-21.5 -19q-4 0 -26.5 15t-50.5 35.5t-48.5 38t-20.5 22.5q0 6 15 31.5t35 55.5t37 52t20 22q8 0 29 -14.5t45 -33.5t42 -34.5t20 -17.5q10 -9 14 -9q6 0 14 12q2 2 15.5 21.5t31.5 43.5t33 42.5t19 18.5
q6 0 29 -15.5t50.5 -36.5t48 -38.5t20.5 -22.5z" />
    <glyph glyph-name="uni069E.init" unicode="&#x69e;" horiz-adv-x="1746" 
d="M1602 527q0 -101 -49 -178.5t-130.5 -135t-181.5 -96.5t-203.5 -63t-196 -35.5t-157.5 -12.5q-8 -17 -22 -57t-26 -82t-15 -67q-5 0 -17.5 14.5t-22.5 32t-10 27.5q0 13 13.5 56t24.5 76q-109 0 -190.5 24.5t-128.5 126.5q-39 -61 -99 -109t-156 -48h-51q-54 0 -66.5 32
t-12.5 75q0 46 12.5 75.5t66.5 29.5h51q91 0 149.5 29t93 67t52 67t24.5 29q14 0 19.5 -32.5t11.5 -59.5q9 -47 52 -68.5t98.5 -27.5t100.5 -6h58q52 82 129.5 176.5t172 179t198 138.5t206.5 54q73 0 117.5 -39t64.5 -93t20 -99zM1483 428q0 27 -54 62t-137 35
q-85 0 -183 -39t-184 -109.5t-137 -163.5q116 1 238 26t226 61t167.5 71t63.5 57zM957 1256q0 -6 -14 -31.5t-34 -56t-37 -52.5t-24 -22q-4 0 -27 15t-51 36t-48.5 38.5t-20.5 23.5t14.5 31t35 55t37.5 52t22 22q6 0 29 -15.5t50.5 -36t47.5 -38t20 -21.5zM1123 976
q0 -6 -14 -31t-33.5 -55t-36.5 -52.5t-23 -22.5q-4 0 -25 15t-47.5 35t-46.5 35.5t-21 16.5q-8 6 -13 6t-11 -7q-1 -2 -14.5 -21.5t-31.5 -44.5t-33 -43.5t-21 -18.5q-4 0 -27 15t-50.5 35.5t-48 38t-20.5 22.5q0 6 15 31.5t35 55.5t36.5 52t20.5 22q8 0 29 -14.5t45 -34
t42 -35t20 -16.5q9 -9 13 -9q7 0 15 12q1 2 15 21t32 43.5t33 42.5t19 18q6 0 29 -15.5t50.5 -36.5t47.5 -38.5t20 -21.5z" />
    <glyph glyph-name="uni069E.medi" unicode="&#x69e;" horiz-adv-x="1732" 
d="M1827 107q0 -33 -12.5 -70t-65.5 -37h-52q-164 0 -333.5 0.5t-338.5 0.5h-168.5t-166.5 -1q-18 -37 -33 -86t-24 -85t-12 -36q-15 0 -32 28t-17 48q0 9 10 51.5t24 79.5q-109 0 -189 26.5t-127 130.5q-40 -61 -99.5 -109t-155.5 -48h-52q-53 0 -65.5 37t-12.5 70t12.5 69
t65.5 36h52q90 0 148.5 29t93 67t52 67t25.5 29q13 0 19 -33t12 -59q10 -47 52.5 -68.5t97.5 -27.5t101 -6h57q50 79 129 173.5t177 179.5t205 140t213 55q63 0 104.5 -39t62.5 -92.5t21 -97.5q0 -203 -239 -333q117 10 190 13t141 3h52q53 0 65.5 -36t12.5 -69zM1483 424
q0 22 -25.5 38.5t-61 28t-66 17.5t-40.5 6q-131 0 -265 -72t-232 -230q113 1 234 25t224.5 59t167.5 69.5t64 58.5zM988 1287q0 -6 -14 -31.5t-34 -55.5t-37 -52.5t-24 -22.5q-4 0 -27 15t-51 36t-48.5 39t-20.5 23q0 7 14.5 32t35 54.5t37.5 51.5t22 22q6 0 29 -15
t50.5 -36t47.5 -38t20 -22zM1154 1007q0 -6 -14 -31t-33.5 -55t-36.5 -52t-23 -22q-4 0 -25 14.5t-47.5 34.5t-46.5 35.5t-21 16.5q-8 6 -13 6t-11 -7q-1 -2 -14.5 -21.5t-31.5 -44t-33 -43.5t-21 -19q-4 0 -27 15t-50.5 35.5t-48 38t-20.5 22.5q0 6 15 31.5t35 55.5
t36.5 52t20.5 22q8 0 29 -14.5t45 -33.5t42 -34.5t20 -17.5q9 -9 13 -9q7 0 15 12q1 2 15 21.5t32 43.5t33 42.5t19 18.5q6 0 29 -15.5t50.5 -36.5t47.5 -38.5t20 -22.5z" />
    <glyph glyph-name="uni069E.fina" unicode="&#x69e;" horiz-adv-x="2370" 
d="M2467 107q0 -33 -12.5 -70t-65.5 -37h-53q-164 0 -342.5 3t-336.5 10q-79 -1 -161 -4t-164 -4q-19 -40 -33.5 -89.5t-24.5 -86t-13 -36.5q-14 0 -32 28t-18 48q0 9 14.5 54.5t28.5 83.5q-19 0 -54 5.5t-49 11.5q0 -56 -2 -91.5t-7 -69t-15 -82.5q-30 -145 -100 -240
t-165.5 -149.5t-204.5 -76.5t-218 -22q-127 0 -216 51t-135.5 134t-46.5 178q0 80 25 157t58.5 139.5t61.5 99.5t34 37q9 0 17.5 -8.5t8.5 -14.5q0 -11 -27 -53t-54.5 -108t-27.5 -149q0 -73 35.5 -122t91.5 -77.5t120 -41t121 -12.5q81 0 168 12.5t161 36t117 55.5
q60 45 85.5 114t25.5 166q0 87 -22 142.5t-44.5 86t-22.5 42.5q0 8 12 37t28.5 63.5t31 59.5t19.5 25q17 -24 33 -57.5t24 -64.5q27 -4 85 -7.5t129 -3.5q49 79 127.5 172.5t175.5 178t203.5 138.5t212.5 54q63 0 106 -38t65 -90t22 -96q0 -203 -242 -333q117 10 190 13
t141 3h53q53 0 65.5 -36t12.5 -69zM2124 424q0 25 -39 45.5t-86 32.5t-68 12q-82 0 -173 -33.5t-175.5 -100t-148.5 -167.5q113 1 233.5 24.5t224.5 58.5t168 69.5t64 58.5zM1547 1201q0 -6 -14 -31.5t-33.5 -55.5t-37 -52.5t-23.5 -22.5q-5 0 -28 15t-51 36t-48.5 39
t-20.5 23q0 7 15 32t35 54.5t37 51.5t23 22q5 0 28 -15t50.5 -36t47.5 -38t20 -22zM1714 921q0 -6 -14.5 -31t-34 -55t-36.5 -52t-23 -22q-3 0 -24.5 14.5t-47.5 34.5t-46.5 35.5t-21.5 16.5q-8 6 -13 6t-10 -7q-2 -2 -15.5 -21.5t-31 -44t-33 -43.5t-21.5 -19
q-4 0 -26.5 15t-50.5 35.5t-48.5 38t-20.5 22.5q0 6 15 31.5t35 55.5t37 52t20 22q8 0 29 -14.5t45 -33.5t42 -34.5t20 -17.5q10 -9 14 -9q6 0 14 12q2 2 15.5 21.5t31.5 43.5t33 42.5t19 18.5q6 0 29 -15.5t50.5 -36.5t48 -38.5t20.5 -22.5z" />
    <glyph glyph-name="uni069F.init" unicode="&#x69f;" horiz-adv-x="1219" 
d="M1123 535q0 -53 -18.5 -117t-65.5 -126t-134 -111q-196 -109 -422.5 -145t-447.5 -36h-51q-54 0 -66.5 37t-12.5 70t12.5 69t66.5 36h51q35 0 62 2t49 9q28 15 54 34t42 39q17 58 23.5 121.5t6.5 132.5q0 111 -17.5 234.5t-40 237.5t-40 198t-17.5 116q0 31 17 76.5
t38.5 80.5t34.5 35q5 0 25.5 -27t45 -63t42.5 -65t18 -33q0 -8 -17.5 -26.5t-35 -48t-17.5 -72.5q0 -65 14 -146t28 -185.5t14 -242.5q0 -25 -2.5 -70t-6.5 -90t-9 -71q89 93 187 179t199 140.5t197 54.5q66 0 109 -34.5t64 -86.5t21 -106zM1001 428q0 32 -52.5 63
t-140.5 31q-116 0 -244 -67.5t-252 -237.5q143 5 267.5 31.5t219.5 62t148.5 68t53.5 49.5zM821 1376q0 -6 -14 -31.5t-33.5 -56t-37 -52.5t-23.5 -22q-5 0 -28 15t-51 36t-48.5 38.5t-20.5 23.5t15 31t35 55t37 52t23 22q5 0 28 -15.5t50.5 -36t47.5 -38t20 -21.5z
M988 1096q0 -6 -14.5 -31t-34 -55t-36.5 -52.5t-23 -22.5q-3 0 -24.5 15t-47.5 35t-46.5 35.5t-21.5 16.5q-8 6 -13 6t-10 -7q-2 -2 -15.5 -21.5t-31 -44.5t-33 -43.5t-21.5 -18.5q-4 0 -26.5 15t-50.5 35.5t-48.5 38t-20.5 22.5q0 6 15 31.5t35 55.5t37 52t20 22
q8 0 29 -14.5t45 -34t42 -35t20 -16.5q10 -9 14 -9q6 0 14 12q2 2 15.5 21t31.5 43.5t33 42.5t19 18q6 0 29 -15.5t50.5 -36.5t48 -38.5t20.5 -21.5z" />
    <glyph glyph-name="uni069F.medi" unicode="&#x69f;" horiz-adv-x="1318" 
d="M1413 107q0 -33 -12.5 -70t-65.5 -37h-1100q-11 -20 -25.5 -59.5t-27 -81.5t-16.5 -70q-12 11 -31 32.5t-19 42.5q0 12 12.5 53t27.5 83h-172q-54 0 -66.5 37t-12.5 70t12.5 69t66.5 36h51q69 0 115 3t72 13q55 19 69 111q9 58 12.5 108.5t3.5 111.5q0 113 -15.5 222.5
t-32.5 222.5q-15 91 -39 182t-24 152q0 35 17 79t39 76.5t36 32.5l124 -184q-23 -19 -46 -61t-23 -92q0 -63 13 -136.5t26 -177.5t13 -257q0 -43 -6.5 -115.5t-17.5 -126.5q97 100 197 186t197.5 138.5t184.5 52.5q64 0 110.5 -33t72 -85.5t25.5 -109.5q0 -115 -69.5 -196.5
t-158.5 -135.5q50 3 125.5 11t146.5 8h133q53 0 65.5 -36t12.5 -69zM1037 424q0 24 -54.5 58t-146.5 34q-135 0 -268 -85t-228 -219q130 1 254.5 25t224 59t159 70t59.5 58zM855 1360q0 -7 -14 -32.5t-33.5 -55.5t-37 -52.5t-23.5 -22.5q-5 0 -28 15.5t-51 36t-48.5 38.5
t-20.5 24t15 31t35 55t37 52t23 22q5 0 28 -15.5t50.5 -36t47.5 -38t20 -21.5zM1022 1080q0 -6 -14.5 -31.5t-34 -55.5t-36.5 -52t-23 -22q-3 0 -24.5 15t-47.5 34.5t-46.5 35t-21.5 17.5q-8 6 -13 6t-10 -8q-2 -1 -15.5 -20.5t-31 -44.5t-33 -44t-21.5 -19q-4 0 -26.5 15
t-50.5 35.5t-48.5 38t-20.5 22.5q0 7 15 32t35 55t37 52.5t20 22.5q8 0 29 -14.5t45 -34t42 -35t20 -17.5q10 -9 14 -9q6 0 14 13q2 2 15.5 21t31.5 43t33 42.5t19 18.5q6 0 29 -15.5t50.5 -36.5t48 -38.5t20.5 -21.5z" />
    <glyph glyph-name="uni069F.fina" unicode="&#x69f;" horiz-adv-x="1638" 
d="M1736 107q0 -46 -12.5 -76.5t-65.5 -30.5h-55h-131h-223h-266.5h-264.5h-216h-119q-50 0 -76.5 3.5t-50.5 11.5q-10 3 -44 29.5t-73.5 61.5t-68.5 65.5t-29 41.5q0 16 19 16q74 0 144 -10.5t146 -10.5q96 0 163.5 16t119.5 70q11 29 18.5 69.5t11.5 77.5t4 57
q0 126 -9.5 226t-30.5 220q-22 124 -46.5 224.5t-24.5 154.5q0 30 17.5 76t39 82t33.5 36q6 0 26 -26.5t43.5 -62.5t40.5 -65.5t17 -34.5q-23 -18 -47.5 -53t-24.5 -100q0 -40 13.5 -122t27 -181t13.5 -189q0 -30 -2 -82t-5.5 -107t-8.5 -94q159 168 302.5 265t252.5 97
q101 0 155.5 -70t54.5 -157q0 -103 -64.5 -194t-177.5 -155q95 12 179 19t133 7h84q53 0 65.5 -29t12.5 -76zM1386 434q0 21 -28.5 42t-72 35t-88.5 14q-78 0 -167.5 -28t-177 -95t-158.5 -185q163 9 291.5 38.5t218 67t136 69t46.5 42.5zM1209 1368q0 -6 -14 -31.5
t-33.5 -56t-37 -52.5t-23.5 -22q-5 0 -28 15t-51 36t-48.5 38.5t-20.5 23.5t15 31t35 55t37 52t23 22q5 0 28 -15.5t50.5 -36t47.5 -38t20 -21.5zM1376 1088q0 -6 -14.5 -31t-34 -55t-36.5 -52.5t-23 -22.5q-3 0 -24.5 15t-47.5 35t-46.5 35.5t-21.5 16.5q-8 6 -13 6t-10 -7
q-2 -2 -15.5 -21.5t-31 -44.5t-33 -43.5t-21.5 -18.5q-4 0 -26.5 15t-50.5 35.5t-48.5 38t-20.5 22.5q0 6 15 31.5t35 55.5t37 52t20 22q8 0 29 -14.5t45 -34t42 -35t20 -16.5q10 -9 14 -9q6 0 14 12q2 2 15.5 21t31.5 43.5t33 42.5t19 18q6 0 29 -15.5t50.5 -36.5t48 -38.5
t20.5 -21.5z" />
    <glyph glyph-name="uni06A0.init" unicode="&#x6a0;" horiz-adv-x="1089" 
d="M1000 548q0 -5 -6.5 -37t-13.5 -65q-5 -22 -17.5 -53t-29.5 -37q-51 -21 -122 -52t-147.5 -65.5t-145.5 -64.5q-83 -36 -165.5 -76.5t-162.5 -69t-155 -28.5h-51q-54 0 -66.5 37t-12.5 70t12.5 69t66.5 36h51q101 0 207 54q-37 31 -76.5 73t-39.5 102q0 74 43.5 152.5
t108 147t127.5 110.5q50 33 98 44t84 11q27 0 69.5 -22.5t85 -54.5t71.5 -62.5t29 -46.5q0 -20 -16 -20q-5 0 -32.5 11t-64 22t-69.5 11q-49 0 -115 -17.5t-127 -40.5q-86 -33 -116 -54t-30 -39q0 -29 27.5 -62.5t70.5 -64.5t90 -50.5t86 -19.5q53 0 122.5 24.5t138 57
t119 57t66.5 24.5q8 0 8 -11zM587 1509q0 -6 -14.5 -31.5t-34 -55.5t-37 -52.5t-23.5 -22.5q-5 0 -28 15t-50.5 36t-48 39t-20.5 23q0 7 14.5 32t34.5 54.5t37.5 51.5t22.5 22q6 0 29 -15t50 -36t47.5 -38t20.5 -22zM753 1229q0 -6 -14 -31t-33.5 -55t-36.5 -52t-23 -22
q-4 0 -25 14.5t-47.5 34.5t-46.5 35.5t-22 16.5q-7 6 -13 6q-4 0 -10 -7q-1 -2 -14.5 -21.5t-31.5 -44t-33.5 -43.5t-20.5 -19t-27.5 15t-50 35.5t-48.5 38t-21 22.5q0 6 15 31.5t35.5 55.5t37 52t20.5 22q7 0 28 -14.5t45 -33.5t42.5 -34.5t19.5 -17.5q10 -9 14 -9
q7 0 15 12q1 2 14.5 21.5t31.5 43.5t33.5 42.5t19.5 18.5q5 0 28.5 -15.5t51 -36.5t47.5 -38.5t20 -22.5z" />
    <glyph glyph-name="uni06A0.medi" unicode="&#x6a0;" horiz-adv-x="870" 
d="M965 107q0 -33 -12.5 -70t-65.5 -37h-53q-66 0 -128.5 31.5t-115.5 76.5t-92.5 85t-59.5 57q-48 -49 -111.5 -107.5t-137.5 -100.5t-154 -42h-51q-54 0 -66.5 37t-12.5 70t12.5 69t66.5 36h51q59 0 133 22t151 84q-94 45 -147.5 71t-53.5 37q0 17 15.5 56.5t52.5 82
t101.5 73t163.5 30.5q78 0 145 -28.5t107.5 -72.5t40.5 -91q0 -45 -46 -88.5t-127 -72.5q61 -46 128 -74.5t135 -28.5h53q53 0 65.5 -36t12.5 -69zM531 1347q0 -6 -14.5 -31.5t-34 -56t-37 -52.5t-23.5 -22q-5 0 -28 15t-50.5 36t-48 38.5t-20.5 23.5t14.5 31t34.5 55
t37.5 52t22.5 22q6 0 29 -15.5t50 -36t47.5 -38t20.5 -21.5zM697 1067q0 -6 -14 -31t-33.5 -55t-36.5 -52.5t-23 -22.5q-4 0 -25 15t-47.5 35t-46.5 35.5t-22 16.5q-7 6 -13 6q-4 0 -10 -7q-1 -2 -14.5 -21.5t-31.5 -44.5t-33.5 -43.5t-20.5 -18.5t-27.5 15t-50 35.5
t-48.5 38t-21 22.5q0 6 15 31.5t35.5 55.5t37 52t20.5 22q7 0 28 -14.5t45 -34t42.5 -35t19.5 -16.5q10 -9 14 -9q7 0 15 12q1 2 14.5 21t31.5 43.5t33.5 42.5t19.5 18q5 0 28.5 -15.5t51 -36.5t47.5 -38.5t20 -21.5z" />
    <glyph glyph-name="uni06A0.fina" unicode="&#x6a0;" horiz-adv-x="1147" 
d="M1442 -847q0 -7 -49.5 -28t-125 -48.5t-157.5 -53.5t-149 -43.5t-96 -17.5q-147 0 -289 25.5t-258 92.5t-185 189t-69 315q0 150 57 285.5t151 253.5t203 215q-33 26 -78.5 48t-79 38t-33.5 25q0 21 19 59.5t57.5 79t96.5 69t135 28.5q101 0 166.5 -38t97.5 -82.5
t32 -65.5q0 -37 -37 -79.5t-121 -78.5q69 -74 161 -101.5t220 -27.5h53q53 0 65.5 -28.5t12.5 -76.5q0 -46 -12.5 -76.5t-65.5 -30.5h-53q-88 0 -164.5 15.5t-160 70.5t-192.5 175q-104 -60 -204 -146t-165 -196.5t-65 -243.5q0 -172 103.5 -286.5t296 -171.5t458.5 -57
q144 0 250.5 12t157.5 12q10 0 13 -11t3 -20zM672 1306q0 -7 -14.5 -32.5t-34 -55.5t-37 -52.5t-23.5 -22.5q-5 0 -28 15.5t-50.5 36t-48 38.5t-20.5 24t14.5 31t34.5 55t37.5 52t22.5 22q6 0 29 -15.5t50 -36t47.5 -38t20.5 -21.5zM838 1026q0 -6 -14 -31.5t-33.5 -55.5
t-36.5 -52t-23 -22q-4 0 -25 15t-47.5 34.5t-46.5 35t-22 17.5q-7 6 -13 6q-4 0 -10 -8q-1 -1 -14.5 -20.5t-31.5 -44.5t-33.5 -44t-20.5 -19t-27.5 15t-50 35.5t-48.5 38t-21 22.5q0 7 15 32t35.5 55t37 52.5t20.5 22.5q7 0 28 -14.5t45 -34t42.5 -35t19.5 -17.5
q10 -9 14 -9q7 0 15 13q1 2 14.5 21t31.5 43t33.5 42.5t19.5 18.5q5 0 28.5 -15.5t51 -36.5t47.5 -38.5t20 -21.5z" />
    <glyph glyph-name="uni06A1.init" unicode="&#x6a1;" horiz-adv-x="645" 
d="M564 432q0 -65 -19 -132.5t-61 -123.5q-26 -33 -88 -74t-154 -71.5t-207 -30.5h-51q-54 0 -66.5 37t-12.5 70t12.5 69t66.5 36h51q136 0 238.5 30t159.5 70t57 69q0 21 -17.5 51.5t-37.5 52.5q-13 -33 -37.5 -69.5t-62.5 -62t-94 -25.5q-83 0 -119 49t-36 131
q0 23 10.5 70t30.5 102t46.5 106t58.5 84t68 33q35 0 80 -41t87 -109t69.5 -151.5t27.5 -169.5zM335 602q0 6 -17.5 21t-40 27.5t-39.5 12.5q-16 0 -30 -16.5t-14 -32.5q0 -17 17 -40.5t44 -23.5q24 0 52 21t28 31z" />
    <glyph glyph-name="uni06A1.medi" unicode="&#x6a1;" horiz-adv-x="855" 
d="M951 107q0 -33 -13 -70t-65 -37h-53q-131 0 -225 33.5t-188 78.5q-101 -44 -184 -78t-188 -34h-51q-54 0 -66.5 37t-12.5 70t12.5 69t66.5 36h51q52 0 111 10t103 28q-12 33 -12 85q0 55 40.5 146.5t101.5 171.5q53 68 109.5 111t94.5 43q40 0 71 -30t52 -74.5t32 -91
t11 -78.5q0 -71 -30.5 -145t-90.5 -137q98 -39 192 -39h53q52 0 65 -36t13 -69zM654 449q0 42 -39.5 86t-101.5 44q-25 0 -64 -19t-70 -45t-31 -48q0 -38 42.5 -77t82.5 -68q73 29 127 60.5t54 66.5z" />
    <glyph glyph-name="uni06A1.fina" unicode="&#x6a1;" horiz-adv-x="2106" 
d="M2201 107q0 -33 -12 -70t-65 -37h-54q-95 0 -169 16t-121.5 35t-66.5 27q-143 -69 -314 -132.5t-350.5 -104t-347.5 -40.5q-99 0 -200 18.5t-185.5 61.5t-136 117.5t-51.5 186.5q0 40 17.5 94.5t43 107t51.5 87t44 34.5l21 -19q-9 -18 -28.5 -53t-35.5 -76.5t-16 -80.5
q0 -63 39 -108t101.5 -75t134 -47t139 -24t114.5 -7q124 0 258 25t251 60q136 38 240 90l5 8q-23 20 -38 52.5t-15 60.5q0 38 18.5 98.5t49.5 128t68.5 127.5t77 97.5t74.5 37.5q37 0 73 -35t65 -86.5t46 -102t17 -81.5q0 -52 -22.5 -128t-49.5 -127q7 -14 40 -20.5
t76.5 -8.5t82.5 -2h54q53 0 65 -36t12 -69zM1845 435q0 19 -18.5 53.5t-45.5 63.5t-52 29q-16 0 -43.5 -18t-55 -44t-46 -52.5t-18.5 -42.5q0 -43 45.5 -69.5t87.5 -52.5q25 17 59.5 44t60.5 52t26 37z" />
    <glyph glyph-name="uni06A2.init" unicode="&#x6a2;" horiz-adv-x="645" 
d="M564 432q0 -65 -19 -132.5t-61 -123.5q-26 -33 -88 -74t-154 -71.5t-207 -30.5h-51q-54 0 -66.5 37t-12.5 70t12.5 69t66.5 36h51q136 0 238.5 30t159.5 70t57 69q0 21 -17.5 51.5t-37.5 52.5q-13 -33 -37.5 -69.5t-62.5 -62t-94 -25.5q-83 0 -119 49t-36 131
q0 23 10.5 70t30.5 102t46.5 106t58.5 84t68 33q35 0 80 -41t87 -109t69.5 -151.5t27.5 -169.5zM335 602q0 6 -17.5 21t-40 27.5t-39.5 12.5q-16 0 -30 -16.5t-14 -32.5q0 -17 17 -40.5t44 -23.5q24 0 52 21t28 31zM394 -236q0 -6 -14.5 -31.5t-35 -56.5t-38.5 -53.5
t-26 -22.5q-3 0 -26.5 15t-52.5 35.5t-50 38.5t-21 24t15 32t35.5 57t38.5 53.5t23 22.5q6 0 30 -15.5t52 -36.5t49 -39t21 -23z" />
    <glyph glyph-name="uni06A2.medi" unicode="&#x6a2;" horiz-adv-x="855" 
d="M951 107q0 -33 -13 -70t-65 -37h-53q-131 0 -225 33.5t-188 78.5q-101 -44 -184 -78t-188 -34h-51q-54 0 -66.5 37t-12.5 70t12.5 69t66.5 36h51q52 0 111 10t103 28q-12 33 -12 85q0 55 40.5 146.5t101.5 171.5q53 68 109.5 111t94.5 43q40 0 71 -30t52 -74.5t32 -91
t11 -78.5q0 -71 -30.5 -145t-90.5 -137q98 -39 192 -39h53q52 0 65 -36t13 -69zM654 449q0 42 -39.5 86t-101.5 44q-25 0 -64 -19t-70 -45t-31 -48q0 -38 42.5 -77t82.5 -68q73 29 127 60.5t54 66.5zM568 -236q0 -6 -14.5 -32t-35 -56.5t-38.5 -53.5t-26 -23q-3 0 -26.5 15
t-52.5 35.5t-50 38.5t-21 24q0 7 15 33t35.5 56.5t38.5 53t23 22.5q6 0 30 -15.5t52 -36.5t49 -39t21 -22z" />
    <glyph glyph-name="uni06A2.fina" unicode="&#x6a2;" horiz-adv-x="2106" 
d="M2201 107q0 -33 -12 -70t-65 -37h-54q-95 0 -169 16t-121.5 35t-66.5 27q-143 -69 -314 -132.5t-350.5 -104t-347.5 -40.5q-99 0 -200 18.5t-185.5 61.5t-136 117.5t-51.5 186.5q0 40 17.5 94.5t43 107t51.5 87t44 34.5l21 -19q-9 -18 -28.5 -53t-35.5 -76.5t-16 -80.5
q0 -63 39 -108t101.5 -75t134 -47t139 -24t114.5 -7q124 0 258 25t251 60q136 38 240 90l5 8q-23 20 -38 52.5t-15 60.5q0 38 18.5 98.5t49.5 128t68.5 127.5t77 97.5t74.5 37.5q37 0 73 -35t65 -86.5t46 -102t17 -81.5q0 -52 -22.5 -128t-49.5 -127q7 -14 40 -20.5
t76.5 -8.5t82.5 -2h54q53 0 65 -36t12 -69zM1845 435q0 19 -18.5 53.5t-45.5 63.5t-52 29q-16 0 -43.5 -18t-55 -44t-46 -52.5t-18.5 -42.5q0 -43 45.5 -69.5t87.5 -52.5q25 17 59.5 44t60.5 52t26 37zM1697 -363q0 -6 -14.5 -32t-34.5 -56.5t-38.5 -53.5t-25.5 -23
q-4 0 -27 15t-52 35.5t-50.5 38.5t-21.5 24q0 7 15 33t36 56.5t38.5 53t22.5 22.5q7 0 31 -15.5t52 -36.5t48.5 -39t20.5 -22z" />
    <glyph glyph-name="uni06A3.init" unicode="&#x6a3;" horiz-adv-x="645" 
d="M564 432q0 -65 -19 -132.5t-61 -123.5q-26 -33 -88 -74t-154 -71.5t-207 -30.5h-51q-54 0 -66.5 37t-12.5 70t12.5 69t66.5 36h51q136 0 238.5 30t159.5 70t57 69q0 21 -17.5 51.5t-37.5 52.5q-13 -33 -37.5 -69.5t-62.5 -62t-94 -25.5q-83 0 -119 49t-36 131
q0 23 10.5 70t30.5 102t46.5 106t58.5 84t68 33q35 0 80 -41t87 -109t69.5 -151.5t27.5 -169.5zM335 602q0 6 -17.5 21t-40 27.5t-39.5 12.5q-16 0 -30 -16.5t-14 -32.5q0 -17 17 -40.5t44 -23.5q24 0 52 21t28 31zM394 1201q0 -6 -14.5 -31.5t-35 -56.5t-38.5 -53.5
t-25 -22.5q-4 0 -27.5 15t-52 35.5t-50 38.5t-21.5 23q0 7 15 33t36 56.5t38.5 53.5t22.5 23q7 0 31 -15.5t52 -37t48.5 -39t20.5 -22.5zM394 -236q0 -6 -14.5 -31.5t-35 -56.5t-38.5 -53.5t-26 -22.5q-3 0 -26.5 15t-52.5 35.5t-50 38.5t-21 24t15 32t35.5 57t38.5 53.5
t23 22.5q6 0 30 -15.5t52 -36.5t49 -39t21 -23z" />
    <glyph glyph-name="uni06A3.medi" unicode="&#x6a3;" horiz-adv-x="855" 
d="M951 107q0 -33 -13 -70t-65 -37h-53q-131 0 -225 33.5t-188 78.5q-101 -44 -184 -78t-188 -34h-51q-54 0 -66.5 37t-12.5 70t12.5 69t66.5 36h51q52 0 111 10t103 28q-12 33 -12 85q0 55 40.5 146.5t101.5 171.5q53 68 109.5 111t94.5 43q40 0 71 -30t52 -74.5t32 -91
t11 -78.5q0 -71 -30.5 -145t-90.5 -137q98 -39 192 -39h53q52 0 65 -36t13 -69zM654 449q0 42 -39.5 86t-101.5 44q-25 0 -64 -19t-70 -45t-31 -48q0 -38 42.5 -77t82.5 -68q73 29 127 60.5t54 66.5zM681 1149q0 -6 -14.5 -31.5t-35 -56.5t-38.5 -53.5t-25 -22.5
q-4 0 -27.5 15t-52 35.5t-50 38.5t-21.5 23q0 7 15 33t36 56.5t38.5 53.5t22.5 23q7 0 31 -15.5t52 -37t48.5 -39t20.5 -22.5zM568 -236q0 -6 -14.5 -32t-35 -56.5t-38.5 -53.5t-26 -23q-3 0 -26.5 15t-52.5 35.5t-50 38.5t-21 24q0 7 15 33t35.5 56.5t38.5 53t23 22.5
q6 0 30 -15.5t52 -36.5t49 -39t21 -22z" />
    <glyph glyph-name="uni06A3.fina" unicode="&#x6a3;" horiz-adv-x="2106" 
d="M2201 107q0 -33 -12 -70t-65 -37h-54q-95 0 -169 16t-121.5 35t-66.5 27q-143 -69 -314 -132.5t-350.5 -104t-347.5 -40.5q-99 0 -200 18.5t-185.5 61.5t-136 117.5t-51.5 186.5q0 40 17.5 94.5t43 107t51.5 87t44 34.5l21 -19q-9 -18 -28.5 -53t-35.5 -76.5t-16 -80.5
q0 -63 39 -108t101.5 -75t134 -47t139 -24t114.5 -7q124 0 258 25t251 60q136 38 240 90l5 8q-23 20 -38 52.5t-15 60.5q0 38 18.5 98.5t49.5 128t68.5 127.5t77 97.5t74.5 37.5q37 0 73 -35t65 -86.5t46 -102t17 -81.5q0 -52 -22.5 -128t-49.5 -127q7 -14 40 -20.5
t76.5 -8.5t82.5 -2h54q53 0 65 -36t12 -69zM1845 435q0 19 -18.5 53.5t-45.5 63.5t-52 29q-16 0 -43.5 -18t-55 -44t-46 -52.5t-18.5 -42.5q0 -43 45.5 -69.5t87.5 -52.5q25 17 59.5 44t60.5 52t26 37zM1851 1106q0 -6 -14.5 -31.5t-35 -56.5t-38.5 -53.5t-25 -22.5
q-4 0 -27.5 15t-52 35.5t-50 38.5t-21.5 24t15 32t36 57t38.5 53.5t22.5 22.5q7 0 31 -15.5t52 -36.5t48.5 -39t20.5 -23zM1697 -363q0 -6 -14.5 -32t-34.5 -56.5t-38.5 -53.5t-25.5 -23q-4 0 -27 15t-52 35.5t-50.5 38.5t-21.5 24q0 7 15 33t36 56.5t38.5 53t22.5 22.5
q7 0 31 -15.5t52 -36.5t48.5 -39t20.5 -22z" />
    </font>
</defs>
</svg>
